<?xml version="1.0" encoding="utf-8"?>
<!-- Generator: Adobe Illustrator 16.0.4, SVG Export Plug-In . SVG Version: 6.00 Build 0)  -->
<!DOCTYPE svg PUBLIC "-//W3C//DTD SVG 1.1//EN" "http://www.w3.org/Graphics/SVG/1.1/DTD/svg11.dtd">
<svg version="1.1" id="Layer_1" xmlns="http://www.w3.org/2000/svg" xmlns:xlink="http://www.w3.org/1999/xlink" x="0px" y="0px"
	 width="63.279px" height="62.667px" viewBox="0 0 63.279 62.667" enable-background="new 0 0 63.279 62.667" xml:space="preserve">
<path fill="#D0CFCE" d="M48.08,14.523c-1.927-7.34-8.604-12.754-16.55-12.754S16.906,7.184,14.98,14.523H1.529v8.533h13.403
	c1.862,7.431,8.587,12.936,16.597,12.936s14.732-5.504,16.596-12.936h13.404v-8.533H48.08z M31.529,27.457
	c-3.229,0-6.042-1.774-7.521-4.401c-0.7-1.248-1.103-2.688-1.103-4.221c0-1.571,0.42-3.043,1.154-4.312
	c1.489-2.577,4.275-4.312,7.469-4.312s5.978,1.733,7.469,4.312c0.734,1.27,1.154,2.741,1.154,4.312c0,1.534-0.401,2.974-1.104,4.221
	C37.571,25.683,34.758,27.457,31.529,27.457z"/>
</svg>
