<?xml version="1.0" encoding="utf-8"?>
<!-- Generator: Adobe Illustrator 16.0.4, SVG Export Plug-In . SVG Version: 6.00 Build 0)  -->
<!DOCTYPE svg PUBLIC "-//W3C//DTD SVG 1.1//EN" "http://www.w3.org/Graphics/SVG/1.1/DTD/svg11.dtd">
<svg version="1.1" id="Layer_1" xmlns="http://www.w3.org/2000/svg" xmlns:xlink="http://www.w3.org/1999/xlink" x="0px" y="0px"
	 width="20px" height="20px" viewBox="0 0 20 20" enable-background="new 0 0 20 20" xml:space="preserve">
<path fill="#A19F9F" d="M18.875,5.062C18.875,5.58,18.455,6,17.938,6H2.188C1.67,6,1.25,5.58,1.25,5.062l0,0
	c0-0.518,0.42-0.938,0.938-0.938h15.75C18.455,4.125,18.875,4.545,18.875,5.062L18.875,5.062z"/>
<path fill="#A19F9F" d="M18.875,9.875c0,0.518-0.42,0.938-0.938,0.938H2.188c-0.518,0-0.938-0.42-0.938-0.938l0,0
	c0-0.518,0.42-0.938,0.938-0.938h15.75C18.455,8.938,18.875,9.357,18.875,9.875L18.875,9.875z"/>
<path fill="#A19F9F" d="M18.875,14.688c0,0.518-0.42,0.938-0.938,0.938H2.188c-0.518,0-0.938-0.42-0.938-0.938l0,0
	c0-0.518,0.42-0.938,0.938-0.938h15.75C18.455,13.75,18.875,14.17,18.875,14.688L18.875,14.688z"/>
</svg>
