<?xml version="1.0" encoding="utf-8"?>
<!-- Generator: Adobe Illustrator 16.0.4, SVG Export Plug-In . SVG Version: 6.00 Build 0)  -->
<!DOCTYPE svg PUBLIC "-//W3C//DTD SVG 1.1//EN" "http://www.w3.org/Graphics/SVG/1.1/DTD/svg11.dtd">
<svg version="1.1" id="Layer_1" xmlns="http://www.w3.org/2000/svg" xmlns:xlink="http://www.w3.org/1999/xlink" x="0px" y="0px"
	 width="16px" height="16px" viewBox="0 0 16 16" enable-background="new 0 0 16 16" xml:space="preserve">
<path fill="#9B9A89" d="M13.507,0.132c0,0-0.824-0.27-2.705,1.037c-0.788-0.224-1.633-0.335-2.47-0.339
	c-0.837,0.003-1.684,0.115-2.47,0.337C3.981-0.139,3.154,0.131,3.154,0.131C2.618,1.524,2.953,2.552,3.056,2.809
	C2.429,3.517,2.043,4.417,2.043,5.522c0,3.873,2.298,4.74,4.489,4.994c-0.283,0.253-0.539,0.699-0.624,1.353
	c-0.564,0.256-1.994,0.702-2.869-0.84c0,0-0.521-0.969-1.512-1.042c0,0-0.962-0.013-0.066,0.612c0,0,0.645,0.311,1.095,1.479
	c0,0,0.579,1.965,3.322,1.356c0,0.843,0.012,1.48,0.012,1.719c0,0.269,0.428,0.639,1.991,0.69l1.402,0.023
	c-0.205-0.069,1.46,0.108,1.492-0.714c0.013-0.333,0.009-1.421,0.009-2.772c0-0.944-0.311-1.558-0.666-1.873
	c2.195-0.249,4.499-1.105,4.499-4.986c0-1.103-0.383-2.003-1.011-2.713C13.708,2.552,14.046,1.524,13.507,0.132z"/>
</svg>
