<?xml version="1.0" encoding="utf-8"?>
<!-- Generator: Adobe Illustrator 16.0.4, SVG Export Plug-In . SVG Version: 6.00 Build 0)  -->
<!DOCTYPE svg PUBLIC "-//W3C//DTD SVG 1.1//EN" "http://www.w3.org/Graphics/SVG/1.1/DTD/svg11.dtd">
<svg version="1.1" id="Layer_1" xmlns="http://www.w3.org/2000/svg" xmlns:xlink="http://www.w3.org/1999/xlink" x="0px" y="0px"
	 width="63.279px" height="62.667px" viewBox="0 0 63.279 62.667" enable-background="new 0 0 63.279 62.667" xml:space="preserve">
<g>
	<path fill="#9B9A89" d="M41.27,6.869c0.281-1.238,0.803-2.124,1.562-2.66c0.76-0.534,1.533-0.745,2.322-0.633
		c0.787,0.114,1.49,0.521,2.109,1.224c0.619,0.705,0.9,1.675,0.846,2.913c-0.283,1.857-0.535,3.702-0.76,5.53
		c-0.227,1.83-0.479,3.645-0.76,5.446h9.623c1.07,0.337,1.857,0.844,2.365,1.52c0.506,0.675,0.744,1.365,0.717,2.068
		c-0.029,0.705-0.324,1.38-0.887,2.026c-0.562,0.647-1.379,1.084-2.447,1.309H45.661c-0.281,1.802-0.521,3.575-0.717,5.319
		c-0.199,1.745-0.438,3.49-0.719,5.234h9.709c1.068,0.338,1.857,0.845,2.365,1.52c0.506,0.676,0.744,1.365,0.717,2.068
		c-0.029,0.705-0.324,1.38-0.887,2.026c-0.562,0.648-1.379,1.085-2.447,1.309H43.298c-0.283,2.14-0.564,4.264-0.844,6.374
		c-0.283,2.111-0.564,4.236-0.846,6.375c-0.395,1.013-0.957,1.744-1.688,2.195c-0.732,0.449-1.451,0.633-2.154,0.548
		c-0.703-0.084-1.35-0.422-1.941-1.013c-0.59-0.591-0.943-1.45-1.055-2.575c0.281-1.97,0.549-3.953,0.803-5.952
		c0.252-1.997,0.52-3.981,0.801-5.952H22.106c-0.282,2.14-0.578,4.264-0.887,6.374c-0.31,2.111-0.605,4.236-0.886,6.375
		c-0.395,1.013-0.958,1.744-1.689,2.195c-0.732,0.449-1.45,0.633-2.153,0.548c-0.704-0.084-1.351-0.422-1.941-1.013
		c-0.591-0.591-0.943-1.45-1.056-2.575c0.281-1.97,0.549-3.953,0.802-5.952c0.253-1.997,0.52-3.981,0.802-5.952H6.993
		c-1.238-0.169-2.153-0.604-2.744-1.309c-0.591-0.703-0.874-1.463-0.844-2.279c0.028-0.815,0.365-1.562,1.013-2.237
		c0.646-0.676,1.589-1.041,2.828-1.098h8.78c0.281-1.744,0.52-3.489,0.718-5.234c0.197-1.744,0.436-3.517,0.718-5.319H9.611
		c-1.238-0.169-2.153-0.604-2.744-1.309c-0.591-0.703-0.873-1.463-0.844-2.28c0.028-0.815,0.365-1.562,1.013-2.237
		c0.646-0.675,1.589-1.041,2.828-1.097h8.527c0.281-1.97,0.549-3.926,0.802-5.868c0.253-1.941,0.52-3.896,0.802-5.868
		c0.281-1.237,0.802-2.124,1.562-2.659c0.76-0.534,1.533-0.746,2.322-0.633c0.788,0.113,1.491,0.521,2.11,1.224
		c0.619,0.705,0.9,1.675,0.844,2.913l-1.52,10.891h14.269c0.281-1.97,0.562-3.939,0.844-5.91
		C40.708,10.809,40.989,8.839,41.27,6.869z M38.02,30.93c0.197-1.744,0.408-3.517,0.633-5.319H24.385
		c-0.226,1.802-0.451,3.575-0.675,5.319c-0.226,1.745-0.451,3.49-0.675,5.234h14.269C37.585,34.42,37.823,32.675,38.02,30.93z"/>
</g>
</svg>
