<?xml version="1.0" encoding="utf-8"?>
<!-- Generator: Adobe Illustrator 16.0.4, SVG Export Plug-In . SVG Version: 6.00 Build 0)  -->
<!DOCTYPE svg PUBLIC "-//W3C//DTD SVG 1.1//EN" "http://www.w3.org/Graphics/SVG/1.1/DTD/svg11.dtd">
<svg version="1.1" id="Layer_1" xmlns="http://www.w3.org/2000/svg" xmlns:xlink="http://www.w3.org/1999/xlink" x="0px" y="0px"
	 width="12px" height="12px" viewBox="-1.667 0 12 12" enable-background="new -1.667 0 12 12" xml:space="preserve">
<g>
	<path fill="#ADAC99" d="M7.647,5.239V3.27c0-1.806-1.463-3.269-3.271-3.269C4.357,0.001,4.34-0.001,4.316,0
		C4.299,0,4.275,0.001,4.258,0.001c-1.805,0-3.269,1.464-3.269,3.27V5.24h-1.156V12h9V5.239H7.647z M2.624,3.271
		c0-0.9,0.732-1.637,1.634-1.637c0.024,0,0.08-0.001,0.08-0.001s0.025,0.001,0.041,0.001c0.899,0,1.632,0.735,1.632,1.636v1.97
		H2.624V3.271z"/>
</g>
</svg>
