<?xml version="1.0" encoding="utf-8"?>
<!-- Generator: Adobe Illustrator 16.0.4, SVG Export Plug-In . SVG Version: 6.00 Build 0)  -->
<!DOCTYPE svg PUBLIC "-//W3C//DTD SVG 1.1//EN" "http://www.w3.org/Graphics/SVG/1.1/DTD/svg11.dtd">
<svg version="1.1" id="Layer_1" xmlns="http://www.w3.org/2000/svg" xmlns:xlink="http://www.w3.org/1999/xlink" x="0px" y="0px"
	 width="20px" height="20px" viewBox="0 0 20 20" enable-background="new 0 0 20 20" xml:space="preserve">
<path fill="#FFFFFF" d="M9.578,0C4.288,0,0,4.289,0,9.578s4.288,9.578,9.578,9.578c5.289,0,9.578-4.289,9.578-9.578
	S14.866,0,9.578,0z M14.736,6.703l-4.74,7.435c-0.135,0.216-0.45,0.434-0.697,0.487l-0.523,0.113
	c-0.247,0.054-0.625-0.015-0.836-0.153L4.46,12.319c-0.212-0.137-0.274-0.426-0.137-0.639l0.879-1.376
	c0.136-0.214,0.423-0.275,0.635-0.139l2.221,1.435c0.213,0.138,0.499,0.075,0.636-0.139l3.905-6.13
	c0.139-0.214,0.424-0.277,0.637-0.14l1.359,0.875C14.808,6.202,14.873,6.49,14.736,6.703z"/>
</svg>
