<?xml version="1.0" encoding="utf-8"?>
<!-- Generator: Adobe Illustrator 16.0.4, SVG Export Plug-In . SVG Version: 6.00 Build 0)  -->
<!DOCTYPE svg PUBLIC "-//W3C//DTD SVG 1.1//EN" "http://www.w3.org/Graphics/SVG/1.1/DTD/svg11.dtd">
<svg version="1.1" id="Layer_1" xmlns="http://www.w3.org/2000/svg" xmlns:xlink="http://www.w3.org/1999/xlink" x="0px" y="0px"
	 width="20px" height="20px" viewBox="0 0 20 20" enable-background="new 0 0 20 20" xml:space="preserve">
<path fill="#FFFFFF" d="M10.006,0.1C4.552,0.1,0.13,4.522,0.13,9.976s4.422,9.875,9.876,9.875c5.452,0,9.874-4.422,9.874-9.875
	S15.458,0.1,10.006,0.1z M4.734,11.951c-1.091,0-1.975-0.885-1.975-1.975s0.883-1.975,1.975-1.975c1.091,0,1.975,0.885,1.975,1.975
	S5.825,11.951,4.734,11.951z M10.004,11.951c-1.09,0-1.974-0.885-1.974-1.975s0.884-1.975,1.974-1.975
	c1.093,0,1.978,0.885,1.978,1.975S11.097,11.951,10.004,11.951z M15.276,11.951c-1.09,0-1.975-0.885-1.975-1.975
	s0.885-1.975,1.975-1.975c1.092,0,1.975,0.885,1.975,1.975S16.368,11.951,15.276,11.951z"/>
</svg>
