<?xml version="1.0" encoding="utf-8"?>
<!-- Generator: Adobe Illustrator 16.0.4, SVG Export Plug-In . SVG Version: 6.00 Build 0)  -->
<!DOCTYPE svg PUBLIC "-//W3C//DTD SVG 1.1//EN" "http://www.w3.org/Graphics/SVG/1.1/DTD/svg11.dtd">
<svg version="1.1" id="Layer_1" xmlns="http://www.w3.org/2000/svg" xmlns:xlink="http://www.w3.org/1999/xlink" x="0px" y="0px"
	 width="73px" height="73px" viewBox="0 0 73 73" enable-background="new 0 0 73 73" xml:space="preserve">
<g>
	<path fill="#9B9A89" d="M36.5,0.5c-19.882,0-36,16.117-36,36s16.118,36,36,36s36-16.117,36-36S56.382,0.5,36.5,0.5z M36.5,63.5
		c-14.888,0-27-12.111-27-27c0-14.888,12.112-27,27-27c14.889,0,27,12.112,27,27C63.5,51.389,51.389,63.5,36.5,63.5z"/>
	<path fill="#9B9A89" d="M53.967,44.568l-14.24-9.619V18.393c0-0.396-0.16-0.782-0.438-1.062c-0.279-0.279-0.666-0.439-1.062-0.439
		h-3.938c-0.396,0-0.781,0.16-1.061,0.439c-0.279,0.28-0.439,0.667-0.439,1.062v19.552c0,0.396,0.16,0.781,0.439,1.062
		c0.113,0.113,0.244,0.207,0.387,0.278l16.592,11.113c0.25,0.166,0.539,0.254,0.832,0.254c0.106,0,0.213-0.012,0.317-0.034
		c0.397-0.084,0.74-0.326,0.957-0.673l2.088-3.34C54.828,45.922,54.636,45.02,53.967,44.568z"/>
</g>
</svg>
