<?xml version="1.0" encoding="utf-8"?>
<!-- Generator: Adobe Illustrator 16.0.4, SVG Export Plug-In . SVG Version: 6.00 Build 0)  -->
<!DOCTYPE svg PUBLIC "-//W3C//DTD SVG 1.1//EN" "http://www.w3.org/Graphics/SVG/1.1/DTD/svg11.dtd">
<svg version="1.1" id="Layer_1" xmlns="http://www.w3.org/2000/svg" xmlns:xlink="http://www.w3.org/1999/xlink" x="0px" y="0px"
	 width="73px" height="73px" viewBox="0 0 73 73" enable-background="new 0 0 73 73" xml:space="preserve">
<g>
	<path fill="#9B9A89" d="M60.605,10.441V6.577c0-3.805-2.4-6.077-6.422-6.077c-4.022,0-6.423,2.272-6.423,6.077v3.864H43.41V6.577
		c0-3.805-2.4-6.077-6.42-6.077c-4.021,0-6.422,2.272-6.422,6.077v3.864h-4.351V6.577c0-3.805-2.4-6.077-6.422-6.077
		c-4.021,0-6.422,2.272-6.422,6.077v3.864H6V72.34h61.898V10.441H60.605z M51.201,6.577c0-1.878,0.859-2.639,2.982-2.639
		s2.981,0.761,2.981,2.639v10.336c0,1.877-0.858,2.639-2.981,2.639s-2.982-0.762-2.982-2.639V6.577z M34.006,6.577
		c0-1.878,0.86-2.639,2.983-2.639c2.122,0,2.983,0.761,2.983,2.639v10.336c0,1.877-0.861,2.639-2.983,2.639
		c-2.123,0-2.983-0.762-2.983-2.639V6.577z M16.812,6.577c0-1.878,0.86-2.639,2.983-2.639c2.122,0,2.982,0.761,2.982,2.639v10.336
		c0,1.877-0.86,2.639-2.982,2.639c-2.123,0-2.983-0.762-2.983-2.639V6.577z M59.737,65.18H14.162V24.196h45.575V65.18z"/>
	<path fill="#9B9A89" d="M52.984,49.638c0-3.279-2.211-5.095-6.078-6.201v-0.078c3.474-1.185,5.367-3.08,5.367-6.041
		c0-3-2.961-5.369-8.053-5.369c-2.408,0-4.937,0.315-7.068,1.304l0.592,4.343c1.62-0.791,3.357-1.303,5.135-1.303
		c2.764,0,3.514,0.947,3.514,2.367c0,2.055-1.976,2.963-5.33,3.197v4.345c4.855,0.276,6.436,1.303,6.436,3.79
		c0,1.816-1.737,3.197-4.421,3.197c-2.214,0-3.949-0.314-6.041-1.105l-0.593,4.344c1.698,0.672,3.948,1.105,6.081,1.105
		C48.404,57.531,52.984,54.808,52.984,49.638z"/>
	<polygon fill="#9B9A89" points="26.115,38.778 26.115,57.138 31.406,57.138 31.406,32.344 28.762,32.344 21.18,36.093 
		21.771,40.437 	"/>
</g>
</svg>
