<?xml version="1.0" encoding="utf-8"?>
<!-- Generator: Adobe Illustrator 16.0.4, SVG Export Plug-In . SVG Version: 6.00 Build 0)  -->
<!DOCTYPE svg PUBLIC "-//W3C//DTD SVG 1.1//EN" "http://www.w3.org/Graphics/SVG/1.1/DTD/svg11.dtd">
<svg version="1.1" id="Layer_1" xmlns="http://www.w3.org/2000/svg" xmlns:xlink="http://www.w3.org/1999/xlink" x="0px" y="0px"
	 width="19px" height="19px" viewBox="0 0 19 19" enable-background="new 0 0 19 19" xml:space="preserve">
<g>
	<path fill="#C1C1C0" d="M18.002,15.821L13.181,11c0.66-1.055,1.042-2.303,1.042-3.635c0-3.791-3.072-6.865-6.864-6.865
		c-3.79,0-6.864,3.074-6.864,6.865c0,3.79,3.074,6.863,6.864,6.863c1.341,0,2.596-0.387,3.652-1.053l4.818,4.818
		c0.333,0.332,0.766,0.506,1.197,0.506c0.002,0,0.003,0,0.005,0c0.377,0,0.76-0.14,1.047-0.426c0.292-0.291,0.429-0.676,0.428-1.056
		C18.506,16.587,18.334,16.152,18.002,15.821z M11.187,7.365c-0.003,2.107-1.718,3.823-3.828,3.827
		c-2.109-0.004-3.823-1.72-3.827-3.827C3.535,5.256,5.249,3.54,7.358,3.536C9.469,3.54,11.184,5.256,11.187,7.365z"/>
</g>
</svg>
