<?xml version="1.0" encoding="utf-8"?>
<!-- Generator: Adobe Illustrator 16.0.4, SVG Export Plug-In . SVG Version: 6.00 Build 0)  -->
<!DOCTYPE svg PUBLIC "-//W3C//DTD SVG 1.1//EN" "http://www.w3.org/Graphics/SVG/1.1/DTD/svg11.dtd">
<svg version="1.1" id="Layer_1" xmlns="http://www.w3.org/2000/svg" xmlns:xlink="http://www.w3.org/1999/xlink" x="0px" y="0px"
	 width="20px" height="20px" viewBox="0 0 20 20" enable-background="new 0 0 20 20" xml:space="preserve">
<path fill="#FFFFFF" d="M9.916,0C4.44,0,0,4.44,0,9.916c0,5.475,4.44,9.916,9.916,9.916c5.475,0,9.916-4.44,9.916-9.916
	C19.831,4.44,15.391,0,9.916,0z M10.207,16.729c-0.796,0-1.428-0.631-1.428-1.426c0-0.797,0.632-1.43,1.428-1.43
	c0.795,0,1.428,0.633,1.428,1.43C11.635,16.099,11.002,16.729,10.207,16.729z M11.219,12.972H9.194L8.513,4.73H11.9L11.219,12.972z"
	/>
</svg>
