<svg xmlns="http://www.w3.org/2000/svg" xmlns:xlink="http://www.w3.org/1999/xlink" viewBox="0 0 182.23 197.84"><defs><clipPath id="a" transform="translate(-3.02 -4.97)"><circle cx="94.13" cy="96.09" r="89.61" style="fill:none;stroke:#e7e8e6;stroke-miterlimit:10;stroke-width:3px"/></clipPath></defs><g style="clip-path:url(#a)"><circle cx="91.11" cy="91.11" r="89.29" style="fill:#fff"/><path d="M10.41,92.38A5.09,5.09,0,0,1,8.49,92a5,5,0,0,1-1.62-1.06l1-1.19a4.27,4.27,0,0,0,1.2.8,3.16,3.16,0,0,0,1.35.31,2,2,0,0,0,1.27-.34,1.12,1.12,0,0,0,.44-.92,1,1,0,0,0-.12-.51,1.2,1.2,0,0,0-.31-.37,3.58,3.58,0,0,0-.48-.29l-.61-.27-1.35-.58a4.44,4.44,0,0,1-.71-.38,3,3,0,0,1-.64-.54A2.39,2.39,0,0,1,7.3,85a2.36,2.36,0,0,1,.25-1.09A2.64,2.64,0,0,1,8.23,83a3.18,3.18,0,0,1,1-.58,4.08,4.08,0,0,1,1.33-.21,4.26,4.26,0,0,1,1.65.33,4.37,4.37,0,0,1,1.37.91l-.89,1.11a4.34,4.34,0,0,0-1-.61,2.8,2.8,0,0,0-1.14-.23A1.81,1.81,0,0,0,9.48,84a1,1,0,0,0-.42.85.9.9,0,0,0,.12.48,1.2,1.2,0,0,0,.35.36A2.63,2.63,0,0,0,10,86l.59.25,1.33.55a4.65,4.65,0,0,1,.8.42,3,3,0,0,1,.62.56,2.54,2.54,0,0,1,.41.72,2.85,2.85,0,0,1,.15,1,2.65,2.65,0,0,1-.24,1.12,2.59,2.59,0,0,1-.7.92,3.16,3.16,0,0,1-1.11.63A4.2,4.2,0,0,1,10.41,92.38Z" transform="translate(-3.02 -4.97)" style="fill:#3eaaaf"/><path d="M18.31,92.38a3.7,3.7,0,0,1-1.42-.27,3.31,3.31,0,0,1-1.16-.75A3.44,3.44,0,0,1,15,90.15a4.77,4.77,0,0,1,0-3.25,3.76,3.76,0,0,1,.75-1.21,3.44,3.44,0,0,1,1.09-.77,3.11,3.11,0,0,1,1.26-.27,3.2,3.2,0,0,1,1.32.26,2.53,2.53,0,0,1,.95.72,3.09,3.09,0,0,1,.58,1.11,4.85,4.85,0,0,1,.2,1.41,3.64,3.64,0,0,1,0,.48A2.39,2.39,0,0,1,21,89H16.36a2.36,2.36,0,0,0,.7,1.52,2.11,2.11,0,0,0,1.48.53,2.86,2.86,0,0,0,.89-.14,4.42,4.42,0,0,0,.82-.4l.58,1.08a5.3,5.3,0,0,1-1.17.57A4.07,4.07,0,0,1,18.31,92.38Zm-2-4.56h3.27a2.25,2.25,0,0,0-.37-1.35A1.34,1.34,0,0,0,18.12,86a1.64,1.64,0,0,0-1.16.46A2.22,2.22,0,0,0,16.35,87.82Z" transform="translate(-3.02 -4.97)" style="fill:#3eaaaf"/><path d="M24,92.38a1.45,1.45,0,0,1-1.3-.56,2.66,2.66,0,0,1-.38-1.51v-8.7h1.73V90.4a.64.64,0,0,0,.12.44.36.36,0,0,0,.25.13h.11l.16,0L25,92.23A2.35,2.35,0,0,1,24,92.38Z" transform="translate(-3.02 -4.97)" style="fill:#3eaaaf"/><path d="M29.17,92.38a3.7,3.7,0,0,1-1.42-.27,3.31,3.31,0,0,1-1.16-.75,3.44,3.44,0,0,1-.77-1.21,4.77,4.77,0,0,1,0-3.25,3.76,3.76,0,0,1,.75-1.21,3.44,3.44,0,0,1,1.09-.77,3.11,3.11,0,0,1,1.26-.27,3.2,3.2,0,0,1,1.32.26,2.53,2.53,0,0,1,.95.72,3.09,3.09,0,0,1,.58,1.11,4.85,4.85,0,0,1,.2,1.41,3.64,3.64,0,0,1,0,.48,2.39,2.39,0,0,1-.05.36H27.22a2.36,2.36,0,0,0,.7,1.52A2.11,2.11,0,0,0,29.4,91a2.86,2.86,0,0,0,.89-.14,4.42,4.42,0,0,0,.82-.4l.58,1.08a5.3,5.3,0,0,1-1.17.57A4.07,4.07,0,0,1,29.17,92.38Zm-2-4.56h3.27a2.25,2.25,0,0,0-.37-1.35A1.34,1.34,0,0,0,29,86a1.64,1.64,0,0,0-1.16.46A2.22,2.22,0,0,0,27.21,87.82Z" transform="translate(-3.02 -4.97)" style="fill:#3eaaaf"/><path d="M36.3,92.38a3.88,3.88,0,0,1-1.41-.26,3.19,3.19,0,0,1-1.13-.75A3.45,3.45,0,0,1,33,90.16a4.66,4.66,0,0,1-.27-1.64,4.19,4.19,0,0,1,.3-1.63,3.62,3.62,0,0,1,.81-1.22A3.57,3.57,0,0,1,35,84.91a3.87,3.87,0,0,1,1.4-.26,3,3,0,0,1,1.24.24,4.13,4.13,0,0,1,.92.59l-.84,1.12a3.24,3.24,0,0,0-.59-.4,1.53,1.53,0,0,0-.64-.14,1.78,1.78,0,0,0-1.45.67,3.15,3.15,0,0,0,0,3.57,1.76,1.76,0,0,0,1.42.67,1.86,1.86,0,0,0,.81-.19,3.78,3.78,0,0,0,.7-.44l.71,1.14a3.72,3.72,0,0,1-1.15.67A3.68,3.68,0,0,1,36.3,92.38Z" transform="translate(-3.02 -4.97)" style="fill:#3eaaaf"/><path d="M42.19,92.38a2.72,2.72,0,0,1-1.09-.2,1.87,1.87,0,0,1-.72-.55,2.19,2.19,0,0,1-.4-.84,4,4,0,0,1-.13-1.08V86.2H38.8V84.91l1.14-.08.21-2h1.44v2h1.88V86.2H41.59v3.51c0,.86.35,1.29,1,1.29A1.74,1.74,0,0,0,43,91a1.79,1.79,0,0,0,.37-.12l.3,1.28a5.13,5.13,0,0,1-.68.18A3.62,3.62,0,0,1,42.19,92.38Z" transform="translate(-3.02 -4.97)" style="fill:#3eaaaf"/><path d="M47.2,92.2V84.83h1.43l.12,1h.06a5,5,0,0,1,1-.84,2.27,2.27,0,0,1,1.24-.35,2.17,2.17,0,0,1,1.29.35,2.11,2.11,0,0,1,.75,1A5.87,5.87,0,0,1,54.19,85a2.29,2.29,0,0,1,1.28-.38,2,2,0,0,1,1.72.76,3.62,3.62,0,0,1,.56,2.17V92.2H56V87.8a2.28,2.28,0,0,0-.28-1.29,1,1,0,0,0-.85-.37,2.3,2.3,0,0,0-1.54.91V92.2H51.61V87.8a2.2,2.2,0,0,0-.28-1.29,1,1,0,0,0-.86-.37,2.3,2.3,0,0,0-1.54.91V92.2Z" transform="translate(-3.02 -4.97)" style="fill:#3eaaaf"/><path d="M62.46,92.38a3.49,3.49,0,0,1-1.32-.26A3.25,3.25,0,0,1,60,91.37a3.49,3.49,0,0,1-.77-1.21A4.44,4.44,0,0,1,59,88.52a4.39,4.39,0,0,1,.29-1.63A3.53,3.53,0,0,1,60,85.67a3.42,3.42,0,0,1,1.12-.76,3.48,3.48,0,0,1,2.64,0,3.32,3.32,0,0,1,1.12.76,3.68,3.68,0,0,1,.77,1.22,4.19,4.19,0,0,1,.3,1.63,4.24,4.24,0,0,1-.3,1.64,3.64,3.64,0,0,1-.77,1.21,3.16,3.16,0,0,1-1.12.75A3.49,3.49,0,0,1,62.46,92.38Zm0-1.41a1.48,1.48,0,0,0,1.27-.67,3.62,3.62,0,0,0,0-3.57,1.54,1.54,0,0,0-2.54,0,3.69,3.69,0,0,0,0,3.57A1.47,1.47,0,0,0,62.46,91Z" transform="translate(-3.02 -4.97)" style="fill:#3eaaaf"/><path d="M67.27,92.2V84.83h1.42l.12,1h.07A5.33,5.33,0,0,1,70,85a2.55,2.55,0,0,1,1.34-.35,2,2,0,0,1,1.72.76,3.63,3.63,0,0,1,.54,2.17V92.2H71.83V87.8a2.29,2.29,0,0,0-.27-1.29,1,1,0,0,0-.89-.37,1.47,1.47,0,0,0-.84.23,4.91,4.91,0,0,0-.84.68V92.2Z" transform="translate(-3.02 -4.97)" style="fill:#3eaaaf"/><path d="M77.86,92.38a2.72,2.72,0,0,1-1.09-.2,1.87,1.87,0,0,1-.72-.55,2.19,2.19,0,0,1-.4-.84,4,4,0,0,1-.13-1.08V86.2h-1V84.91l1.14-.08.21-2h1.44v2h1.87V86.2H77.26v3.51c0,.86.34,1.29,1,1.29a1.83,1.83,0,0,0,.4,0,1.79,1.79,0,0,0,.37-.12l.3,1.28a5.13,5.13,0,0,1-.68.18A3.62,3.62,0,0,1,77.86,92.38Z" transform="translate(-3.02 -4.97)" style="fill:#3eaaaf"/><path d="M80.27,92.2V81.61H82v2.73l-.06,1.42A5.64,5.64,0,0,1,83,85a2.45,2.45,0,0,1,1.32-.34,2,2,0,0,1,1.73.76,3.7,3.7,0,0,1,.54,2.17V92.2H84.83V87.8a2.29,2.29,0,0,0-.27-1.29,1,1,0,0,0-.88-.37,1.53,1.53,0,0,0-.85.23,5.31,5.31,0,0,0-.83.68V92.2Z" transform="translate(-3.02 -4.97)" style="fill:#3eaaaf"/><path d="M89.92,92.38a1.44,1.44,0,0,1-1.3-.56,2.58,2.58,0,0,1-.38-1.51v-8.7H90V90.4a.64.64,0,0,0,.12.44.4.4,0,0,0,.26.13h.11l.16,0,.22,1.29A2.3,2.3,0,0,1,89.92,92.38Z" transform="translate(-3.02 -4.97)" style="fill:#3eaaaf"/><path d="M92.39,95.23a3.8,3.8,0,0,1-.52,0,3.15,3.15,0,0,1-.44-.11l.32-1.35.25.06a.84.84,0,0,0,.27,0,1.28,1.28,0,0,0,.94-.35,2.21,2.21,0,0,0,.53-.91l.14-.46L91,84.83h1.76L94,88.45c.11.32.22.65.33,1s.21.71.32,1.06h.06c.09-.34.18-.69.28-1l.27-1,1.11-3.62h1.67l-2.67,7.7a9.15,9.15,0,0,1-.49,1.12,4,4,0,0,1-.63.85,2.5,2.5,0,0,1-.81.54A2.86,2.86,0,0,1,92.39,95.23Z" transform="translate(-3.02 -4.97)" style="fill:#3eaaaf"/><path d="M101.51,95.11V84.83h1.43l.12.78h.06a5.21,5.21,0,0,1,1-.67,2.64,2.64,0,0,1,1.19-.29,2.77,2.77,0,0,1,1.22.26,2.56,2.56,0,0,1,.91.76,3.56,3.56,0,0,1,.57,1.19,5.65,5.65,0,0,1,.19,1.54,5,5,0,0,1-.26,1.69,3.72,3.72,0,0,1-.7,1.24,3,3,0,0,1-1,.78,2.76,2.76,0,0,1-1.19.27,2.38,2.38,0,0,1-1-.21,3.67,3.67,0,0,1-.93-.6l0,1.23v2.31ZM104.72,91a1.49,1.49,0,0,0,1.23-.64,3,3,0,0,0,.5-1.89,3.34,3.34,0,0,0-.38-1.73,1.3,1.3,0,0,0-1.21-.61,2.38,2.38,0,0,0-1.62.82v3.44a2.58,2.58,0,0,0,.78.48A2,2,0,0,0,104.72,91Z" transform="translate(-3.02 -4.97)" style="fill:#3eaaaf"/><path d="M111.25,92.38a1.47,1.47,0,0,1-1.31-.56,2.66,2.66,0,0,1-.37-1.51v-8.7h1.72V90.4a.64.64,0,0,0,.12.44.38.38,0,0,0,.26.13h.11l.16,0,.22,1.29A2.3,2.3,0,0,1,111.25,92.38Z" transform="translate(-3.02 -4.97)" style="fill:#3eaaaf"/><path d="M115,92.38a2.12,2.12,0,0,1-1.57-.6,2.08,2.08,0,0,1-.6-1.56,2.14,2.14,0,0,1,.25-1,2.08,2.08,0,0,1,.78-.78,5,5,0,0,1,1.35-.56,12.18,12.18,0,0,1,2-.34,2.43,2.43,0,0,0-.08-.55,1.27,1.27,0,0,0-.22-.47,1.1,1.1,0,0,0-.42-.31,1.48,1.48,0,0,0-.63-.11,2.73,2.73,0,0,0-1,.21,6.94,6.94,0,0,0-1,.51l-.63-1.16a7.37,7.37,0,0,1,1.38-.67,4.69,4.69,0,0,1,1.65-.29,2.54,2.54,0,0,1,2.07.82,3.61,3.61,0,0,1,.68,2.36V92.2h-1.43l-.12-.81h-.06a5.49,5.49,0,0,1-1.05.7A2.72,2.72,0,0,1,115,92.38Zm.56-1.35a1.64,1.64,0,0,0,.82-.21,4.55,4.55,0,0,0,.78-.6V88.57a7.87,7.87,0,0,0-1.26.24,3.86,3.86,0,0,0-.82.33,1.25,1.25,0,0,0-.45.43,1,1,0,0,0-.14.51.84.84,0,0,0,.3.72A1.26,1.26,0,0,0,115.57,91Z" transform="translate(-3.02 -4.97)" style="fill:#3eaaaf"/><path d="M120.56,92.2V84.83H122l.12,1h.06a6,6,0,0,1,1.07-.82,2.57,2.57,0,0,1,1.34-.35,2,2,0,0,1,1.73.76,3.7,3.7,0,0,1,.54,2.17V92.2h-1.73V87.8a2.29,2.29,0,0,0-.27-1.29,1,1,0,0,0-.88-.37,1.53,1.53,0,0,0-.85.23,5.31,5.31,0,0,0-.83.68V92.2Z" transform="translate(-3.02 -4.97)" style="fill:#3eaaaf"/><rect x="3.28" y="105.79" width="167.57" height="91.55" rx="3" style="fill:#fff;stroke:#f1f1f1"/><path d="M32.43,140.55v-1.09h2.34v-7.52H32.91v-.85a7.86,7.86,0,0,0,1.23-.31,5,5,0,0,0,.93-.44h1v9.12h2.11v1.09Z" transform="translate(-3.02 -4.97)"/><path d="M47.41,140.74a4.44,4.44,0,0,1-1.83-.37,4.14,4.14,0,0,1-1.44-1.06,4.73,4.73,0,0,1-1-1.71,7.12,7.12,0,0,1-.35-2.3,7,7,0,0,1,.35-2.27,5.11,5.11,0,0,1,1-1.71,4.31,4.31,0,0,1,1.47-1.08,4.58,4.58,0,0,1,1.86-.38,3.54,3.54,0,0,1,1.69.39,4.73,4.73,0,0,1,1.19.91l-.72.86a3.32,3.32,0,0,0-.95-.72,2.59,2.59,0,0,0-1.2-.27,3,3,0,0,0-1.36.3,3,3,0,0,0-1,.84,4.09,4.09,0,0,0-.66,1.34,6,6,0,0,0-.23,1.76,6.1,6.1,0,0,0,.23,1.78,4.19,4.19,0,0,0,.65,1.36,2.78,2.78,0,0,0,1,.86,3,3,0,0,0,1.36.3,2.73,2.73,0,0,0,1.34-.31,4.34,4.34,0,0,0,1.09-.87l.73.83a4.5,4.5,0,0,1-1.4,1.12A3.92,3.92,0,0,1,47.41,140.74Z" transform="translate(-3.02 -4.97)"/><path d="M55.31,140.74a3.56,3.56,0,0,1-1.37-.27,3.44,3.44,0,0,1-1.14-.79A3.84,3.84,0,0,1,52,138.4a4.67,4.67,0,0,1-.3-1.72,4.74,4.74,0,0,1,.3-1.74,4,4,0,0,1,.79-1.29,3.47,3.47,0,0,1,1.14-.8,3.56,3.56,0,0,1,1.37-.27,3.52,3.52,0,0,1,1.37.27,3.47,3.47,0,0,1,1.14.8,4,4,0,0,1,.79,1.29,4.74,4.74,0,0,1,.3,1.74,4.67,4.67,0,0,1-.3,1.72,3.84,3.84,0,0,1-.79,1.28,3.44,3.44,0,0,1-1.14.79A3.52,3.52,0,0,1,55.31,140.74Zm0-1.09a2,2,0,0,0,.91-.21,2.21,2.21,0,0,0,.72-.61,3,3,0,0,0,.45-.94,4.12,4.12,0,0,0,.16-1.21,4.31,4.31,0,0,0-.16-1.23,3.34,3.34,0,0,0-.45-.95,2.1,2.1,0,0,0-.72-.61,1.86,1.86,0,0,0-.91-.22,1.88,1.88,0,0,0-.91.22,2,2,0,0,0-.71.61,3.11,3.11,0,0,0-.46.95,4.31,4.31,0,0,0-.16,1.23,4.12,4.12,0,0,0,.16,1.21,2.85,2.85,0,0,0,.46.94,2.08,2.08,0,0,0,.71.61A2,2,0,0,0,55.31,139.65Z" transform="translate(-3.02 -4.97)"/><path d="M60.8,140.55v-7.78h1.09l.11,1.12h0a6.29,6.29,0,0,1,1.17-.93,2.7,2.7,0,0,1,1.43-.38,2.08,2.08,0,0,1,1.8.77,3.78,3.78,0,0,1,.57,2.27v4.93H65.71V135.8a2.79,2.79,0,0,0-.35-1.59,1.29,1.29,0,0,0-1.12-.49,1.91,1.91,0,0,0-1.07.3,6.78,6.78,0,0,0-1.06.9v5.63Z" transform="translate(-3.02 -4.97)"/><path d="M72.46,140.74a3.84,3.84,0,0,1-1.44-.27,3.42,3.42,0,0,1-1.16-.79,3.78,3.78,0,0,1-.76-1.28,4.89,4.89,0,0,1-.28-1.72,4.74,4.74,0,0,1,.3-1.74,3.9,3.9,0,0,1,.82-1.29,3.47,3.47,0,0,1,1.19-.8,3.83,3.83,0,0,1,1.43-.27,2.91,2.91,0,0,1,1.31.27,5.17,5.17,0,0,1,1,.64l-.67.87a3.39,3.39,0,0,0-.71-.5,1.79,1.79,0,0,0-.84-.19,2.17,2.17,0,0,0-1,.22,2.26,2.26,0,0,0-.77.61,3.18,3.18,0,0,0-.5.95,4,4,0,0,0-.18,1.23,3.81,3.81,0,0,0,.17,1.21,2.89,2.89,0,0,0,.49.94,2.14,2.14,0,0,0,1.74.82,2.13,2.13,0,0,0,1-.23,4.2,4.2,0,0,0,.82-.55l.58.88a4.49,4.49,0,0,1-1.17.73A3.64,3.64,0,0,1,72.46,140.74Z" transform="translate(-3.02 -4.97)"/><path d="M78.8,140.74A2.1,2.1,0,0,1,77,140a3.78,3.78,0,0,1-.56-2.27v-4.93h1.32v4.76a2.84,2.84,0,0,0,.35,1.59,1.28,1.28,0,0,0,1.11.49,1.87,1.87,0,0,0,1.07-.32,4.94,4.94,0,0,0,1-1v-5.52h1.31v7.78H81.52l-.11-1.22h0a5.16,5.16,0,0,1-1.14,1A2.67,2.67,0,0,1,78.8,140.74Z" transform="translate(-3.02 -4.97)"/><path d="M85.07,140.55v-7.78h1.09l.11,1.41h0a3.66,3.66,0,0,1,1-1.17,2.05,2.05,0,0,1,1.24-.43,2.19,2.19,0,0,1,.83.16l-.26,1.15-.35-.09a2.25,2.25,0,0,0-.4,0,1.72,1.72,0,0,0-1,.4,3.15,3.15,0,0,0-.94,1.39v5Z" transform="translate(-3.02 -4.97)"/><path d="M90.46,140.55v-7.78h1.09l.11,1.41h0a3.66,3.66,0,0,1,1-1.17,2.05,2.05,0,0,1,1.24-.43,2.15,2.15,0,0,1,.83.16l-.26,1.15-.35-.09a2.17,2.17,0,0,0-.4,0,1.72,1.72,0,0,0-1,.4,3.15,3.15,0,0,0-.94,1.39v5Z" transform="translate(-3.02 -4.97)"/><path d="M98.85,140.74a3.74,3.74,0,0,1-1.47-.28,3.3,3.3,0,0,1-1.18-.8,3.56,3.56,0,0,1-.79-1.27,4.58,4.58,0,0,1-.29-1.71,4.88,4.88,0,0,1,.29-1.72,4,4,0,0,1,.79-1.29,3.38,3.38,0,0,1,1.11-.81,3.31,3.31,0,0,1,2.62,0,2.52,2.52,0,0,1,1,.73,3.45,3.45,0,0,1,.6,1.16,5,5,0,0,1,.21,1.5c0,.14,0,.28,0,.41a1.59,1.59,0,0,1,0,.34H96.41a3.12,3.12,0,0,0,.78,2,2.42,2.42,0,0,0,1.82.73,3.13,3.13,0,0,0,1-.17,4.68,4.68,0,0,0,.9-.44l.47.86a6.36,6.36,0,0,1-1.14.56A4,4,0,0,1,98.85,140.74ZM96.4,136h4.16a2.76,2.76,0,0,0-.51-1.8,1.71,1.71,0,0,0-1.41-.62,2.1,2.1,0,0,0-.79.16,2.13,2.13,0,0,0-.68.47,2.54,2.54,0,0,0-.51.76A3.46,3.46,0,0,0,96.4,136Z" transform="translate(-3.02 -4.97)"/><path d="M103.47,140.55v-7.78h1.09l.11,1.12h0a6.29,6.29,0,0,1,1.17-.93,2.71,2.71,0,0,1,1.44-.38,2.1,2.1,0,0,1,1.8.77,3.86,3.86,0,0,1,.56,2.27v4.93h-1.31V135.8a2.79,2.79,0,0,0-.35-1.59,1.27,1.27,0,0,0-1.12-.49,1.91,1.91,0,0,0-1.07.3,6.78,6.78,0,0,0-1.06.9v5.63Z" transform="translate(-3.02 -4.97)"/><path d="M114.51,140.74a2.5,2.5,0,0,1-1.05-.19,1.83,1.83,0,0,1-.69-.53,2,2,0,0,1-.37-.81,4.42,4.42,0,0,1-.11-1.06v-4.3h-1.16v-1l1.22-.08.16-2.17h1.1v2.17h2.1v1.08h-2.1v4.32a1.94,1.94,0,0,0,.27,1.11,1,1,0,0,0,.93.39,1.86,1.86,0,0,0,.45-.06,3.05,3.05,0,0,0,.43-.15l.26,1a4.44,4.44,0,0,1-.7.2A3.18,3.18,0,0,1,114.51,140.74Z" transform="translate(-3.02 -4.97)"/><path d="M123.39,143.83V132.77h1.09l.11.9h0a6.15,6.15,0,0,1,1.16-.77,2.92,2.92,0,0,1,1.32-.32,3.13,3.13,0,0,1,1.33.28,2.75,2.75,0,0,1,1,.8,3.9,3.9,0,0,1,.58,1.25,6.35,6.35,0,0,1,.2,1.64,5.39,5.39,0,0,1-.27,1.77,4,4,0,0,1-.74,1.32,3.1,3.1,0,0,1-1.07.82,3,3,0,0,1-1.28.28,2.64,2.64,0,0,1-1.08-.24,5.63,5.63,0,0,1-1.08-.65l0,1.36v2.62Zm3.22-4.19a1.8,1.8,0,0,0,.88-.22,2,2,0,0,0,.71-.61,3.06,3.06,0,0,0,.46-1,4.76,4.76,0,0,0,.17-1.3,6,6,0,0,0-.11-1.17,2.83,2.83,0,0,0-.36-.9,1.81,1.81,0,0,0-.64-.59,2.13,2.13,0,0,0-1.94.07,5.88,5.88,0,0,0-1.08.78v4.08a3.29,3.29,0,0,0,1,.63A2.41,2.41,0,0,0,126.61,139.64Z" transform="translate(-3.02 -4.97)"/><path d="M133.5,140.74a1.22,1.22,0,0,1-1.07-.45,2.24,2.24,0,0,1-.32-1.31v-9.82h1.31v9.92a.74.74,0,0,0,.11.45.35.35,0,0,0,.26.12h.12l.17,0,.17,1a.81.81,0,0,1-.3.1A2.81,2.81,0,0,1,133.5,140.74Z" transform="translate(-3.02 -4.97)"/><path d="M137.82,140.74a2.36,2.36,0,0,1-1.62-.57,2.09,2.09,0,0,1-.65-1.64,2.17,2.17,0,0,1,1.14-2,9.34,9.34,0,0,1,3.63-.95,4.39,4.39,0,0,0-.07-.72,1.8,1.8,0,0,0-.25-.62,1.31,1.31,0,0,0-.49-.44,1.68,1.68,0,0,0-.79-.17,3.21,3.21,0,0,0-1.27.26,6.5,6.5,0,0,0-1,.57l-.51-.91a8.92,8.92,0,0,1,1.32-.68,4.44,4.44,0,0,1,1.73-.33,2.41,2.41,0,0,1,2.07.87,3.92,3.92,0,0,1,.64,2.33v4.77h-1.09l-.11-.93h0a6.54,6.54,0,0,1-1.2.79A3,3,0,0,1,137.82,140.74Zm.39-1.05a2.16,2.16,0,0,0,1-.27,5.28,5.28,0,0,0,1.06-.77v-2.16a11.93,11.93,0,0,0-1.64.3,4.41,4.41,0,0,0-1.07.42,1.62,1.62,0,0,0-.6.55,1.33,1.33,0,0,0-.18.68,1.09,1.09,0,0,0,.4,1A1.65,1.65,0,0,0,138.21,139.69Z" transform="translate(-3.02 -4.97)"/><path d="M143.93,140.55v-7.78H145l.11,1.12h.05a6.34,6.34,0,0,1,1.18-.93,2.7,2.7,0,0,1,1.43-.38,2.1,2.1,0,0,1,1.8.77,3.78,3.78,0,0,1,.57,2.27v4.93h-1.32V135.8a2.71,2.71,0,0,0-.35-1.59,1.27,1.27,0,0,0-1.12-.49,1.94,1.94,0,0,0-1.07.3,6.34,6.34,0,0,0-1.05.9v5.63Z" transform="translate(-3.02 -4.97)"/><path d="M61.93,183.5v-2.1a7,7,0,0,1-2-.51,5.56,5.56,0,0,1-1.69-1.08l1.09-1.64a7.17,7.17,0,0,0,1.5.94,3.68,3.68,0,0,0,1.61.36A2.22,2.22,0,0,0,64,179a1.76,1.76,0,0,0,.5-1.33,1.65,1.65,0,0,0-.42-1.16,4.37,4.37,0,0,0-1.06-.84q-.64-.37-1.38-.72a8.56,8.56,0,0,1-1.37-.82A4.25,4.25,0,0,1,59.24,173a3,3,0,0,1-.42-1.64,3.61,3.61,0,0,1,.84-2.45,3.74,3.74,0,0,1,2.27-1.23v-2.14h1.68v2.1a4.08,4.08,0,0,1,1.73.58,6.69,6.69,0,0,1,1.31,1.06l-1.24,1.4a5.49,5.49,0,0,0-1.13-.83,2.8,2.8,0,0,0-1.3-.28,1.94,1.94,0,0,0-1.35.43,1.59,1.59,0,0,0-.48,1.25,1.39,1.39,0,0,0,.42,1,5.08,5.08,0,0,0,1.06.76c.43.23.88.46,1.37.69a8,8,0,0,1,1.38.83,4.13,4.13,0,0,1,1.06,1.18,3.4,3.4,0,0,1,.42,1.76A3.84,3.84,0,0,1,66,180a3.94,3.94,0,0,1-2.41,1.31v2.16Z" transform="translate(-3.02 -4.97)" style="fill:#3eaaaf"/><path d="M73.69,181.45a4.54,4.54,0,0,1-1.87-.39,4.22,4.22,0,0,1-1.55-1.19,5.94,5.94,0,0,1-1-2,9.74,9.74,0,0,1-.39-2.92,10.81,10.81,0,0,1,.45-3.33,6.72,6.72,0,0,1,1.16-2.27,4.49,4.49,0,0,1,1.67-1.3,4.81,4.81,0,0,1,2-.42,4.48,4.48,0,0,1,2.09.44,5.31,5.31,0,0,1,1.48,1.07l-1.3,1.47a2.72,2.72,0,0,0-.93-.73,2.66,2.66,0,0,0-1.19-.28,2.86,2.86,0,0,0-1.19.25,2.53,2.53,0,0,0-1,.83,4.67,4.67,0,0,0-.68,1.52,9.82,9.82,0,0,0-.31,2.33,4.47,4.47,0,0,1,1.38-1.15,3.21,3.21,0,0,1,1.52-.42,4.72,4.72,0,0,1,1.58.25,3.22,3.22,0,0,1,1.24.77,3.37,3.37,0,0,1,.8,1.29,5.32,5.32,0,0,1,.29,1.83,4.75,4.75,0,0,1-.34,1.81,4.28,4.28,0,0,1-.9,1.38,4.05,4.05,0,0,1-1.34.88A4.22,4.22,0,0,1,73.69,181.45Zm0-1.85a1.83,1.83,0,0,0,1.42-.65,2.76,2.76,0,0,0,.58-1.89,2.52,2.52,0,0,0-.55-1.79,2,2,0,0,0-1.55-.59,2.52,2.52,0,0,0-1.2.35,3.65,3.65,0,0,0-1.2,1.19A4.9,4.9,0,0,0,72,178.8,2.08,2.08,0,0,0,73.64,179.6Z" transform="translate(-3.02 -4.97)" style="fill:#3eaaaf"/><path d="M83,181.45A4.52,4.52,0,0,1,81,181a5.36,5.36,0,0,1-1.49-1.07l1.3-1.47a2.84,2.84,0,0,0,1,.73,2.62,2.62,0,0,0,1.18.28,2.82,2.82,0,0,0,1.19-.25,2.47,2.47,0,0,0,1-.83,4.78,4.78,0,0,0,.68-1.52,9.86,9.86,0,0,0,.3-2.33,4.17,4.17,0,0,1-1.38,1.14,3.41,3.41,0,0,1-1.53.41,4.68,4.68,0,0,1-1.58-.25,3.14,3.14,0,0,1-1.23-.77,3.49,3.49,0,0,1-.8-1.29,5.33,5.33,0,0,1-.28-1.83,4.56,4.56,0,0,1,.34-1.81,4.13,4.13,0,0,1,.9-1.38,3.84,3.84,0,0,1,1.33-.87,4.45,4.45,0,0,1,1.63-.3,4.71,4.71,0,0,1,1.85.38,4.19,4.19,0,0,1,1.54,1.19,6,6,0,0,1,1,2,9.67,9.67,0,0,1,.39,2.91,11.17,11.17,0,0,1-.43,3.33,6.6,6.6,0,0,1-1.16,2.28A4.4,4.4,0,0,1,85,181,4.82,4.82,0,0,1,83,181.45Zm.57-7.1a2.55,2.55,0,0,0,1.23-.37A3.48,3.48,0,0,0,86,172.79a4.71,4.71,0,0,0-.87-2.56,2.12,2.12,0,0,0-1.65-.8,1.87,1.87,0,0,0-1.41.65,2.72,2.72,0,0,0-.58,1.87,2.57,2.57,0,0,0,.55,1.8A2,2,0,0,0,83.6,174.35Z" transform="translate(-3.02 -4.97)" style="fill:#3eaaaf"/><rect x="10.39" y="50.7" width="162.46" height="1.61" style="fill:#f1f1f1"/><path d="M6.77,46.07V38.22H9.42a5.11,5.11,0,0,1,1.14.12,2.51,2.51,0,0,1,.91.39,1.87,1.87,0,0,1,.61.72,2.4,2.4,0,0,1,.22,1.1A2.27,2.27,0,0,1,11.87,42a2.31,2.31,0,0,1-1.13.79l1.87,3.28H11.05L9.36,43H8.16v3.07Zm1.39-4.18H9.28a2,2,0,0,0,1.23-.33,1.22,1.22,0,0,0,.42-1,1,1,0,0,0-.42-.95,2.45,2.45,0,0,0-1.23-.26H8.16Z" transform="translate(-3.02 -4.97)" style="fill:#666"/><path d="M15.72,46.21A3,3,0,0,1,14.58,46a2.71,2.71,0,0,1-.92-.6,2.78,2.78,0,0,1-.62-1,3.51,3.51,0,0,1-.22-1.3,3.58,3.58,0,0,1,.22-1.3,3.27,3.27,0,0,1,.61-1,2.64,2.64,0,0,1,.87-.61,2.55,2.55,0,0,1,1-.22,2.46,2.46,0,0,1,1,.21,2.1,2.1,0,0,1,.77.57,2.78,2.78,0,0,1,.46.89A4.06,4.06,0,0,1,18,42.83c0,.14,0,.26,0,.38s0,.22-.05.29H14.16a1.87,1.87,0,0,0,.56,1.22,1.69,1.69,0,0,0,1.18.43,2,2,0,0,0,.71-.12,2.86,2.86,0,0,0,.66-.32l.47.87a4.54,4.54,0,0,1-.94.45A3.22,3.22,0,0,1,15.72,46.21Zm-1.57-3.64h2.61a1.73,1.73,0,0,0-.29-1.08,1.07,1.07,0,0,0-.91-.39,1.33,1.33,0,0,0-.92.37A1.79,1.79,0,0,0,14.15,42.57Z" transform="translate(-3.02 -4.97)" style="fill:#666"/><path d="M18.85,48.4V40.18H20l.1.62h.05a3.88,3.88,0,0,1,.82-.54,2.14,2.14,0,0,1,.95-.23,2.17,2.17,0,0,1,1,.21,2.13,2.13,0,0,1,.73.61,2.7,2.7,0,0,1,.45.95A4.31,4.31,0,0,1,24.23,43,4,4,0,0,1,24,44.38a3.1,3.1,0,0,1-.56,1,2.5,2.5,0,0,1-.8.62,2.26,2.26,0,0,1-.95.21,1.93,1.93,0,0,1-.77-.16,3.34,3.34,0,0,1-.74-.48l0,1V48.4Zm2.57-3.33a1.19,1.19,0,0,0,1-.51,2.39,2.39,0,0,0,.4-1.51,2.62,2.62,0,0,0-.3-1.38,1,1,0,0,0-1-.5,1.92,1.92,0,0,0-1.3.66v2.75a2.21,2.21,0,0,0,.63.39A1.66,1.66,0,0,0,21.42,45.07Z" transform="translate(-3.02 -4.97)" style="fill:#666"/><path d="M27.6,46.21a2.74,2.74,0,0,1-1.06-.2,2.8,2.8,0,0,1-.89-.6,2.84,2.84,0,0,1-.62-1,3.85,3.85,0,0,1,0-2.62,2.8,2.8,0,0,1,1.51-1.58,2.75,2.75,0,0,1,3,.61,3,3,0,0,1,.61,1,3.7,3.7,0,0,1,0,2.62,3,3,0,0,1-.61,1,2.71,2.71,0,0,1-2,.8Zm0-1.12a1.18,1.18,0,0,0,1-.54,2.93,2.93,0,0,0,0-2.85,1.18,1.18,0,0,0-1-.54,1.15,1.15,0,0,0-1,.54,2.93,2.93,0,0,0,0,2.85A1.15,1.15,0,0,0,27.6,45.09Z" transform="translate(-3.02 -4.97)" style="fill:#666"/><path d="M32.94,46.21A3.21,3.21,0,0,1,31.73,46a4.18,4.18,0,0,1-1-.58l.65-.89a3.72,3.72,0,0,0,.78.49,2.15,2.15,0,0,0,.85.17,1.09,1.09,0,0,0,.71-.2.64.64,0,0,0,.22-.51.53.53,0,0,0-.1-.32,1.16,1.16,0,0,0-.29-.24,3.13,3.13,0,0,0-.41-.2l-.46-.19a5.64,5.64,0,0,1-.58-.25,2.18,2.18,0,0,1-.54-.35,1.74,1.74,0,0,1-.38-.47A1.29,1.29,0,0,1,31,41.8a1.59,1.59,0,0,1,.57-1.27,2.36,2.36,0,0,1,1.58-.5,2.8,2.8,0,0,1,1.1.22,4,4,0,0,1,.85.49l-.63.84a3.38,3.38,0,0,0-.63-.36,1.58,1.58,0,0,0-.67-.14,1,1,0,0,0-.65.18.61.61,0,0,0-.21.47.44.44,0,0,0,.1.3.84.84,0,0,0,.27.22,1.76,1.76,0,0,0,.39.18l.46.17c.2.07.4.16.6.25a2.4,2.4,0,0,1,.55.34,1.61,1.61,0,0,1,.39.5,1.51,1.51,0,0,1,.15.7,1.67,1.67,0,0,1-.15.71,1.55,1.55,0,0,1-.44.58,2.24,2.24,0,0,1-.72.39A2.94,2.94,0,0,1,32.94,46.21Z" transform="translate(-3.02 -4.97)" style="fill:#666"/><path d="M36.73,39.15a.89.89,0,0,1-.61-.22.79.79,0,0,1,0-1.13.92.92,0,0,1,1.22,0,.79.79,0,0,1,0,1.13A.89.89,0,0,1,36.73,39.15ZM36,46.07V40.18h1.38v5.89Z" transform="translate(-3.02 -4.97)" style="fill:#666"/><path d="M40.82,46.21a2.26,2.26,0,0,1-.87-.15,1.48,1.48,0,0,1-.57-.44,1.83,1.83,0,0,1-.33-.67,3.35,3.35,0,0,1-.1-.87V41.27h-.84v-1l.91-.06.17-1.61h1.15v1.61h1.5v1.09h-1.5v2.81c0,.69.28,1,.83,1a1.78,1.78,0,0,0,.61-.13L42,46l-.54.15A3.45,3.45,0,0,1,40.82,46.21Z" transform="translate(-3.02 -4.97)" style="fill:#666"/><path d="M44.87,46.21a2.74,2.74,0,0,1-1.06-.2,2.8,2.8,0,0,1-.89-.6,2.84,2.84,0,0,1-.62-1,3.85,3.85,0,0,1,0-2.62,2.8,2.8,0,0,1,1.51-1.58A2.75,2.75,0,0,1,44.87,40a2.78,2.78,0,0,1,1.06.21,2.62,2.62,0,0,1,.89.61,2.84,2.84,0,0,1,.62,1,3.7,3.7,0,0,1,0,2.62,2.84,2.84,0,0,1-.62,1,2.59,2.59,0,0,1-.89.6A2.77,2.77,0,0,1,44.87,46.21Zm0-1.12a1.18,1.18,0,0,0,1-.54,2.93,2.93,0,0,0,0-2.85,1.23,1.23,0,0,0-2,0,3,3,0,0,0,0,2.85A1.18,1.18,0,0,0,44.87,45.09Z" transform="translate(-3.02 -4.97)" style="fill:#666"/><path d="M48.61,46.07V40.18h1.14l.1,1h0a2.43,2.43,0,0,1,.75-.88,1.66,1.66,0,0,1,1.59-.19L52,41.35l-.29-.07-.33,0a1.3,1.3,0,0,0-.73.27,2.16,2.16,0,0,0-.66.94v3.6Z" transform="translate(-3.02 -4.97)" style="fill:#666"/><path d="M53.35,39.15a.89.89,0,0,1-.61-.22.79.79,0,0,1,0-1.13.92.92,0,0,1,1.22,0,.79.79,0,0,1,0,1.13A.89.89,0,0,1,53.35,39.15Zm-.7,6.92V40.18H54v5.89Z" transform="translate(-3.02 -4.97)" style="fill:#666"/><path d="M57.89,46.21A3,3,0,0,1,56.75,46a2.76,2.76,0,0,1-.93-.6,2.93,2.93,0,0,1-.62-1,3.73,3.73,0,0,1-.22-1.3,3.58,3.58,0,0,1,.23-1.3,2.91,2.91,0,0,1,.61-1,2.64,2.64,0,0,1,.87-.61,2.57,2.57,0,0,1,2.06,0,2.06,2.06,0,0,1,.76.57,2.43,2.43,0,0,1,.46.89,3.72,3.72,0,0,1,.16,1.13c0,.14,0,.26,0,.38a1.68,1.68,0,0,1,0,.29H56.33a1.91,1.91,0,0,0,.55,1.22,1.72,1.72,0,0,0,1.19.43,2.08,2.08,0,0,0,.71-.12,2.61,2.61,0,0,0,.65-.32l.47.87A4.45,4.45,0,0,1,59,46,3.31,3.31,0,0,1,57.89,46.21Zm-1.58-3.64h2.62a1.8,1.8,0,0,0-.29-1.08,1.07,1.07,0,0,0-.91-.39,1.33,1.33,0,0,0-.92.37A1.8,1.8,0,0,0,56.31,42.57Z" transform="translate(-3.02 -4.97)" style="fill:#666"/><path d="M62.66,46.21a3.12,3.12,0,0,1-1.2-.23,4.07,4.07,0,0,1-1-.58l.65-.89a3.72,3.72,0,0,0,.78.49,2.19,2.19,0,0,0,.85.17,1.07,1.07,0,0,0,.71-.2.65.65,0,0,0,.23-.51.54.54,0,0,0-.11-.32,1,1,0,0,0-.29-.24,3.13,3.13,0,0,0-.41-.2l-.45-.19a5,5,0,0,1-.59-.25,2.18,2.18,0,0,1-.54-.35,1.74,1.74,0,0,1-.38-.47,1.29,1.29,0,0,1-.15-.64,1.57,1.57,0,0,1,.58-1.27,2.31,2.31,0,0,1,1.57-.5,2.77,2.77,0,0,1,1.1.22,4,4,0,0,1,.85.49l-.63.84a3.38,3.38,0,0,0-.63-.36,1.55,1.55,0,0,0-.67-.14,1,1,0,0,0-.65.18.61.61,0,0,0-.21.47.44.44,0,0,0,.1.3.84.84,0,0,0,.27.22,1.76,1.76,0,0,0,.39.18l.46.17c.2.07.4.16.6.25a2.4,2.4,0,0,1,.55.34,1.61,1.61,0,0,1,.39.5,1.51,1.51,0,0,1,.15.7,1.67,1.67,0,0,1-.15.71,1.63,1.63,0,0,1-.43.58,2.47,2.47,0,0,1-.72.39A3,3,0,0,1,62.66,46.21Z" transform="translate(-3.02 -4.97)" style="fill:#666"/><path d="M87.47,46.21a4,4,0,0,1-1.53-.3,3.91,3.91,0,0,1-1.3-.85l.81-1a3.53,3.53,0,0,0,1,.65,2.64,2.64,0,0,0,1.08.24,1.63,1.63,0,0,0,1-.27.88.88,0,0,0,.35-.74.82.82,0,0,0-.09-.4.89.89,0,0,0-.25-.3,2.73,2.73,0,0,0-.38-.23c-.15-.07-.31-.15-.49-.22l-1.08-.47a3.91,3.91,0,0,1-.57-.3,2.33,2.33,0,0,1-.51-.43,2,2,0,0,1-.37-.59,2,2,0,0,1-.13-.76,1.92,1.92,0,0,1,.19-.87,2.23,2.23,0,0,1,.55-.71,2.47,2.47,0,0,1,.83-.46,3.06,3.06,0,0,1,1.06-.17,3.4,3.4,0,0,1,1.33.27,3.57,3.57,0,0,1,1.09.72l-.71.89a3.54,3.54,0,0,0-.79-.49,2.25,2.25,0,0,0-.92-.18,1.42,1.42,0,0,0-.89.25.77.77,0,0,0-.34.67.67.67,0,0,0,.1.39,1,1,0,0,0,.28.29,1.91,1.91,0,0,0,.4.23l.47.2,1.07.44a3.77,3.77,0,0,1,.63.34,2.36,2.36,0,0,1,.5.44,1.94,1.94,0,0,1,.33.58,2.26,2.26,0,0,1,.12.77,2.11,2.11,0,0,1-.19.9,2.2,2.2,0,0,1-.56.73,2.77,2.77,0,0,1-.89.51A3.61,3.61,0,0,1,87.47,46.21Z" transform="translate(-3.02 -4.97)" style="fill:#666"/><path d="M93.69,46.21A3.13,3.13,0,0,1,92.54,46a2.82,2.82,0,0,1-.92-.6,2.93,2.93,0,0,1-.62-1,3.51,3.51,0,0,1-.22-1.3,3.58,3.58,0,0,1,.23-1.3,2.91,2.91,0,0,1,.61-1,2.7,2.7,0,0,1,.86-.61,2.59,2.59,0,0,1,1-.22,2.51,2.51,0,0,1,1.06.21,2.06,2.06,0,0,1,.76.57,2.43,2.43,0,0,1,.46.89,3.72,3.72,0,0,1,.16,1.13c0,.14,0,.26,0,.38s0,.22,0,.29H92.12a2,2,0,0,0,.56,1.22,1.72,1.72,0,0,0,1.19.43,2.08,2.08,0,0,0,.71-.12,2.61,2.61,0,0,0,.65-.32l.47.87a4.45,4.45,0,0,1-.93.45A3.31,3.31,0,0,1,93.69,46.21Zm-1.58-3.64h2.62a1.8,1.8,0,0,0-.29-1.08,1.07,1.07,0,0,0-.91-.39,1.37,1.37,0,0,0-.93.37A1.85,1.85,0,0,0,92.11,42.57Z" transform="translate(-3.02 -4.97)" style="fill:#666"/><path d="M98.77,46.21a2.26,2.26,0,0,1-.87-.15,1.56,1.56,0,0,1-.57-.44A1.83,1.83,0,0,1,97,45a3.85,3.85,0,0,1-.1-.87V41.27h-.84v-1l.91-.06.17-1.61h1.15v1.61h1.5v1.09h-1.5v2.81c0,.69.28,1,.83,1a1.17,1.17,0,0,0,.32,0,1.1,1.1,0,0,0,.29-.09l.24,1-.54.15A3.45,3.45,0,0,1,98.77,46.21Z" transform="translate(-3.02 -4.97)" style="fill:#666"/><path d="M102.43,46.21a2.26,2.26,0,0,1-.87-.15,1.48,1.48,0,0,1-.57-.44,1.83,1.83,0,0,1-.33-.67,3.35,3.35,0,0,1-.1-.87V41.27h-.84v-1l.91-.06.17-1.61H102v1.61h1.5v1.09H102v2.81c0,.69.28,1,.83,1a1.78,1.78,0,0,0,.61-.13l.24,1-.54.15A3.45,3.45,0,0,1,102.43,46.21Z" transform="translate(-3.02 -4.97)" style="fill:#666"/><path d="M105,39.15a.91.91,0,0,1-.61-.22.79.79,0,0,1,0-1.13.94.94,0,0,1,1.23,0,.81.81,0,0,1,0,1.13A.92.92,0,0,1,105,39.15Zm-.69,6.92V40.18h1.38v5.89Z" transform="translate(-3.02 -4.97)" style="fill:#666"/><path d="M107,46.07V40.18h1.14l.1.79h0a4.48,4.48,0,0,1,.86-.66,2.11,2.11,0,0,1,1.07-.28,1.6,1.6,0,0,1,1.39.61,3,3,0,0,1,.43,1.73v3.7h-1.38V42.55a1.87,1.87,0,0,0-.22-1,.81.81,0,0,0-.71-.3,1.22,1.22,0,0,0-.68.19,4.38,4.38,0,0,0-.66.54v4.12Z" transform="translate(-3.02 -4.97)" style="fill:#666"/><path d="M115.31,48.67a5,5,0,0,1-1-.09,2.58,2.58,0,0,1-.77-.29,1.48,1.48,0,0,1-.51-.48,1.17,1.17,0,0,1-.19-.67,1.16,1.16,0,0,1,.22-.69,2,2,0,0,1,.62-.57v-.05a1.25,1.25,0,0,1-.38-.38,1.11,1.11,0,0,1-.15-.6,1.05,1.05,0,0,1,.2-.63,1.84,1.84,0,0,1,.45-.47v0a2.22,2.22,0,0,1-.53-.63,1.79,1.79,0,0,1-.24-.93,2,2,0,0,1,.2-.9,1.87,1.87,0,0,1,.5-.67,2.23,2.23,0,0,1,.74-.41,2.91,2.91,0,0,1,.89-.14,2.24,2.24,0,0,1,.46,0,2.46,2.46,0,0,1,.41.1h2.11v1h-1.08a1.66,1.66,0,0,1,.24.42,1.79,1.79,0,0,1,.09.57,2.14,2.14,0,0,1-.17.87,1.73,1.73,0,0,1-.48.62,2.08,2.08,0,0,1-.7.39,3.12,3.12,0,0,1-.88.13,1.72,1.72,0,0,1-.39,0,1.48,1.48,0,0,1-.41-.12,1.13,1.13,0,0,0-.21.24.62.62,0,0,0-.08.33.45.45,0,0,0,.21.39,1.36,1.36,0,0,0,.75.15h1a3.1,3.1,0,0,1,1.62.34,1.22,1.22,0,0,1,.54,1.11,1.54,1.54,0,0,1-.22.81,2,2,0,0,1-.63.66,3.22,3.22,0,0,1-1,.44A4.77,4.77,0,0,1,115.31,48.67Zm.22-.9a2.08,2.08,0,0,0,1.15-.28.81.81,0,0,0,.44-.66.46.46,0,0,0-.27-.47,2,2,0,0,0-.77-.12h-.81a3,3,0,0,1-.8-.09,1,1,0,0,0-.46.78.69.69,0,0,0,.41.62A2.25,2.25,0,0,0,115.53,47.77Zm-.15-4.44a1,1,0,0,0,.72-.3,1.43,1.43,0,0,0,0-1.74,1,1,0,0,0-.73-.31,1,1,0,0,0-.73.3,1.18,1.18,0,0,0-.3.87,1.22,1.22,0,0,0,.3.88A1,1,0,0,0,115.38,43.33Z" transform="translate(-3.02 -4.97)" style="fill:#666"/><path d="M120.71,46.21A3.21,3.21,0,0,1,119.5,46a4.18,4.18,0,0,1-1-.58l.64-.89a4.05,4.05,0,0,0,.79.49,2.15,2.15,0,0,0,.85.17,1,1,0,0,0,.7-.2.62.62,0,0,0,.23-.51.48.48,0,0,0-.11-.32,1,1,0,0,0-.28-.24,3.13,3.13,0,0,0-.41-.2l-.46-.19a5.77,5.77,0,0,1-.59-.25,2.32,2.32,0,0,1-.53-.35,1.74,1.74,0,0,1-.38-.47,1.29,1.29,0,0,1-.15-.64,1.59,1.59,0,0,1,.57-1.27,2.35,2.35,0,0,1,1.57-.5,2.82,2.82,0,0,1,1.11.22,4,4,0,0,1,.85.49l-.63.84a3.38,3.38,0,0,0-.63-.36,1.58,1.58,0,0,0-.67-.14,1,1,0,0,0-.66.18.64.64,0,0,0-.21.47.44.44,0,0,0,.11.3.67.67,0,0,0,.27.22,1.76,1.76,0,0,0,.39.18l.46.17c.2.07.4.16.6.25a2.4,2.4,0,0,1,.55.34,1.61,1.61,0,0,1,.39.5,1.51,1.51,0,0,1,.15.7,1.67,1.67,0,0,1-.15.71,1.55,1.55,0,0,1-.44.58,2.24,2.24,0,0,1-.72.39A2.94,2.94,0,0,1,120.71,46.21Z" transform="translate(-3.02 -4.97)" style="fill:#666"/><path d="M142.32,46.07V38.22h2.47a5.84,5.84,0,0,1,1.21.12,2.61,2.61,0,0,1,1,.41,2,2,0,0,1,.64.75,2.92,2.92,0,0,1,0,2.27,2.16,2.16,0,0,1-.63.8A2.73,2.73,0,0,1,146,43a4.43,4.43,0,0,1-1.18.15h-1.13v2.88Zm1.39-4h1c1.15,0,1.73-.47,1.73-1.42a1.12,1.12,0,0,0-.45-1,2.53,2.53,0,0,0-1.33-.28h-1Z" transform="translate(-3.02 -4.97)" style="fill:#3eaaaf"/><path d="M150.09,46.21a1.16,1.16,0,0,1-1-.44,2.15,2.15,0,0,1-.3-1.21v-7h1.38v7a.51.51,0,0,0,.09.35.31.31,0,0,0,.21.11h.09l.12,0,.19,1A1.91,1.91,0,0,1,150.09,46.21Z" transform="translate(-3.02 -4.97)" style="fill:#3eaaaf"/><path d="M153,46.21a1.63,1.63,0,0,1-1.74-1.72,1.66,1.66,0,0,1,.2-.84,1.69,1.69,0,0,1,.62-.63,4.24,4.24,0,0,1,1.08-.44,10.52,10.52,0,0,1,1.56-.28,2.12,2.12,0,0,0-.06-.44,1.16,1.16,0,0,0-.18-.37.9.9,0,0,0-.33-.25,1.29,1.29,0,0,0-.51-.09,2.25,2.25,0,0,0-.84.17,5.13,5.13,0,0,0-.81.41l-.51-.93a5.72,5.72,0,0,1,1.11-.54,3.81,3.81,0,0,1,1.32-.23,2,2,0,0,1,1.65.66,2.88,2.88,0,0,1,.54,1.89v3.49H155l-.09-.65h-.05A4.36,4.36,0,0,1,154,46,2.13,2.13,0,0,1,153,46.21Zm.44-1.08a1.28,1.28,0,0,0,.65-.16,4.05,4.05,0,0,0,.63-.48V43.17a5.4,5.4,0,0,0-1,.19,2.63,2.63,0,0,0-.66.27.91.91,0,0,0-.36.34.74.74,0,0,0-.11.41.67.67,0,0,0,.24.57A1,1,0,0,0,153.44,45.13Z" transform="translate(-3.02 -4.97)" style="fill:#3eaaaf"/><path d="M157.33,46.07V40.18h1.14l.09.79h.05a4.48,4.48,0,0,1,.86-.66,2.11,2.11,0,0,1,1.07-.28,1.57,1.57,0,0,1,1.38.61,2.93,2.93,0,0,1,.44,1.73v3.7H161V42.55a1.79,1.79,0,0,0-.22-1,.81.81,0,0,0-.71-.3,1.17,1.17,0,0,0-.67.19,4,4,0,0,0-.67.54v4.12Z" transform="translate(-3.02 -4.97)" style="fill:#3eaaaf"/><rect x="138.97" y="50.7" width="20.89" height="1.61" style="fill:#3eaaaf"/><path d="M88.94,183.64l2.94-9.57h.66l-2.94,9.57Z" transform="translate(-3.02 -4.97)" style="fill:#9d9d9d"/><path d="M93.47,181.88v-5.35h.75l.08.77h0a3.8,3.8,0,0,1,.76-.64,1.71,1.71,0,0,1,.9-.26,1.52,1.52,0,0,1,1,.27,1.49,1.49,0,0,1,.51.76,4.44,4.44,0,0,1,.85-.75,1.69,1.69,0,0,1,.92-.28,1.44,1.44,0,0,1,1.22.53,2.53,2.53,0,0,1,.4,1.56v3.39H100v-3.27a1.91,1.91,0,0,0-.24-1.09.87.87,0,0,0-.75-.34,2,2,0,0,0-1.34.83v3.87h-.9v-3.27a1.91,1.91,0,0,0-.24-1.09.9.9,0,0,0-.76-.34,2,2,0,0,0-1.35.83v3.87Z" transform="translate(-3.02 -4.97)" style="fill:#9d9d9d"/><path d="M104.56,182a2.5,2.5,0,0,1-.94-.18,2.4,2.4,0,0,1-.79-.55,2.67,2.67,0,0,1-.54-.88,3.14,3.14,0,0,1-.21-1.18,3.21,3.21,0,0,1,.21-1.2,2.78,2.78,0,0,1,.54-.88,2.26,2.26,0,0,1,.79-.55,2.42,2.42,0,0,1,1.88,0,2.26,2.26,0,0,1,.79.55,2.78,2.78,0,0,1,.54.88,3.21,3.21,0,0,1,.21,1.2,3.14,3.14,0,0,1-.21,1.18,2.67,2.67,0,0,1-.54.88,2.4,2.4,0,0,1-.79.55A2.5,2.5,0,0,1,104.56,182Zm0-.75a1.33,1.33,0,0,0,.63-.14,1.51,1.51,0,0,0,.49-.42,2.06,2.06,0,0,0,.31-.65,3,3,0,0,0,.11-.83,3.11,3.11,0,0,0-.11-.84,2.12,2.12,0,0,0-.31-.66,1.51,1.51,0,0,0-.49-.42,1.4,1.4,0,0,0-1.26,0,1.51,1.51,0,0,0-.49.42,2.12,2.12,0,0,0-.31.66,3.11,3.11,0,0,0-.11.84,3,3,0,0,0,.11.83,2.06,2.06,0,0,0,.31.65,1.51,1.51,0,0,0,.49.42A1.33,1.33,0,0,0,104.56,181.26Z" transform="translate(-3.02 -4.97)" style="fill:#9d9d9d"/><path d="M108.33,181.88v-5.35h.75l.08.77h0a4.74,4.74,0,0,1,.81-.64,1.86,1.86,0,0,1,1-.26,1.44,1.44,0,0,1,1.24.53,2.6,2.6,0,0,1,.39,1.56v3.39h-.9v-3.27a1.91,1.91,0,0,0-.24-1.09.9.9,0,0,0-.77-.34,1.31,1.31,0,0,0-.74.21,5.63,5.63,0,0,0-.73.62v3.87Z" transform="translate(-3.02 -4.97)" style="fill:#9d9d9d"/><path d="M115.92,182a1.75,1.75,0,0,1-.72-.13,1.31,1.31,0,0,1-.47-.36,1.45,1.45,0,0,1-.26-.56,3.33,3.33,0,0,1-.08-.73v-3h-.79v-.68l.84-.06.11-1.49h.76v1.49h1.44v.74h-1.44v3a1.39,1.39,0,0,0,.18.77.7.7,0,0,0,.64.26,1.15,1.15,0,0,0,.31,0l.3-.1.17.68a2.74,2.74,0,0,1-.48.14A2.22,2.22,0,0,1,115.92,182Z" transform="translate(-3.02 -4.97)" style="fill:#9d9d9d"/><path d="M117.85,181.88v-7.83h.9v2.13l0,1.1a4.65,4.65,0,0,1,.8-.62,1.84,1.84,0,0,1,1-.26,1.45,1.45,0,0,1,1.24.53,2.6,2.6,0,0,1,.39,1.56v3.39h-.91v-3.27a1.91,1.91,0,0,0-.24-1.09.9.9,0,0,0-.77-.34,1.28,1.28,0,0,0-.73.21,4.55,4.55,0,0,0-.73.62v3.87Z" transform="translate(-3.02 -4.97)" style="fill:#9d9d9d"/></g><circle cx="91.11" cy="91.11" r="89.61" style="fill:none;stroke:#e7e8e6;stroke-miterlimit:10;stroke-width:3px"/></svg>