<?xml version="1.0" encoding="utf-8"?>
<svg version="1.1" id="Layer_1" x="0px" y="0px" width="95.5px" height="102.167px" viewBox="0 0 95.5 102.167" enable-background="new 0 0 95.5 102.167" xmlns="http://www.w3.org/2000/svg">
  <defs>
    <circle id="SVGID_1_" cx="47.852" cy="48.139" r="45.986"/>
  </defs>
  <clipPath id="SVGID_2_">
    <circle cx="47.852" cy="48.139" r="45.986" overflow="visible"/>
  </clipPath>
  <g>
    <g>
      <g>
        <g>
          <g>
            <circle style="fill: rgb(77, 76, 77);" cx="44.721" cy="44.721" r="44.721" transform="matrix(1.031435, 0, 0, 1.024198, 1.968291, 2.110555)"/>
            <path fill="#FFFFFF" d="M 15.926 52.707 L 15.926 52.145 C 15.766 52.145 15.601 52.135 15.426 52.12 C 15.254 52.103 15.093 52.077 14.941 52.044 C 14.792 52.009 14.617 51.947 14.42 51.858 L 14.42 51.169 C 14.579 51.251 14.734 51.32 14.886 51.378 C 15.037 51.437 15.198 51.482 15.368 51.515 C 15.538 51.548 15.722 51.573 15.926 51.584 L 15.926 49.588 L 15.541 49.379 C 14.812 48.99 14.448 48.519 14.448 47.967 C 14.448 47.672 14.57 47.387 14.811 47.108 C 15.052 46.829 15.424 46.669 15.925 46.626 L 15.925 46.031 L 16.427 46.031 L 16.427 46.626 C 16.71 46.626 17.044 46.676 17.43 46.772 L 17.43 47.393 L 17.305 47.357 C 16.944 47.256 16.652 47.196 16.427 47.174 L 16.427 49.125 L 16.831 49.355 C 17.208 49.572 17.469 49.785 17.608 49.997 C 17.75 50.207 17.818 50.43 17.818 50.667 C 17.818 50.88 17.766 51.086 17.657 51.285 C 17.553 51.486 17.398 51.656 17.202 51.8 C 17 51.946 16.743 52.042 16.427 52.099 L 16.427 52.708 L 15.926 52.708 L 15.926 52.707 Z M 15.926 48.823 L 15.926 47.165 C 15.684 47.221 15.499 47.311 15.368 47.438 C 15.238 47.565 15.172 47.711 15.172 47.882 C 15.172 48.042 15.23 48.195 15.34 48.344 C 15.451 48.491 15.646 48.651 15.926 48.823 Z M 16.428 49.883 L 16.428 51.533 C 16.689 51.439 16.866 51.326 16.957 51.191 C 17.05 51.055 17.095 50.904 17.095 50.737 C 17.095 50.574 17.05 50.435 16.959 50.318 C 16.867 50.203 16.691 50.058 16.428 49.883 Z" clip-path="url(#SVGID_2_)"/>
            <path fill="#FFFFFF" d="M 25.894 51.25 C 25.691 51.583 25.444 51.837 25.16 52.007 C 24.873 52.175 24.611 52.259 24.372 52.259 C 24.035 52.259 23.734 52.116 23.467 51.827 C 23.202 51.536 23.068 51.098 23.068 50.51 C 23.068 50.046 23.158 49.632 23.334 49.269 C 23.513 48.904 23.747 48.616 24.045 48.402 C 24.342 48.192 24.711 48.086 25.149 48.086 C 25.275 48.086 25.467 48.1 25.721 48.127 C 25.761 48.131 25.817 48.137 25.893 48.145 L 26.562 48.145 L 26.562 50.977 C 26.562 51.651 26.553 52.064 26.536 52.211 C 26.519 52.361 26.491 52.514 26.451 52.666 C 26.357 53.02 26.138 53.304 25.795 53.51 C 25.456 53.715 25.043 53.818 24.56 53.818 C 24.074 53.818 23.583 53.694 23.083 53.446 L 23.083 52.77 C 23.273 52.899 23.506 53.014 23.781 53.115 C 24.059 53.215 24.327 53.262 24.585 53.262 C 24.789 53.262 24.981 53.229 25.164 53.163 C 25.344 53.101 25.491 53.007 25.604 52.886 C 25.715 52.764 25.792 52.622 25.834 52.46 C 25.873 52.298 25.896 52.083 25.896 51.815 L 25.896 51.25 L 25.894 51.25 Z M 25.894 50.458 L 25.894 48.735 C 25.657 48.674 25.435 48.644 25.231 48.644 C 24.822 48.644 24.477 48.803 24.203 49.122 C 23.93 49.439 23.791 49.872 23.791 50.421 C 23.791 50.818 23.868 51.118 24.016 51.32 C 24.166 51.521 24.337 51.625 24.53 51.625 C 24.738 51.625 24.969 51.52 25.219 51.309 C 25.469 51.096 25.695 50.813 25.894 50.458 Z" clip-path="url(#SVGID_2_)"/>
            <path fill="#FFFFFF" d="M 28.743 52.15 L 28.743 48.701 L 27.632 48.701 L 27.632 48.146 L 29.41 48.146 L 29.41 51.595 L 30.526 51.595 L 30.526 52.151 L 28.743 52.15 L 28.743 52.15 Z M 28.636 46.697 C 28.636 46.548 28.687 46.435 28.791 46.362 C 28.893 46.289 28.989 46.251 29.08 46.251 C 29.172 46.251 29.27 46.289 29.373 46.362 C 29.474 46.435 29.526 46.548 29.526 46.697 C 29.526 46.843 29.473 46.956 29.373 47.03 C 29.27 47.102 29.172 47.139 29.08 47.139 C 28.989 47.139 28.892 47.102 28.791 47.03 C 28.687 46.956 28.636 46.845 28.636 46.697 Z" clip-path="url(#SVGID_2_)"/>
            <path fill="#FFFFFF" d="M 35.378 51.99 C 35.067 52.123 34.839 52.199 34.698 52.223 C 34.556 52.247 34.42 52.259 34.289 52.259 C 34.008 52.259 33.753 52.206 33.52 52.1 C 33.287 51.994 33.114 51.831 32.997 51.622 C 32.878 51.412 32.816 51.087 32.816 50.647 L 32.816 49.032 L 31.816 49.032 L 31.816 48.476 L 32.816 48.476 L 32.816 46.863 L 33.485 46.863 L 33.485 48.476 L 35.267 48.476 L 35.267 49.032 L 33.485 49.032 L 33.485 50.635 C 33.485 50.958 33.523 51.186 33.6 51.319 C 33.676 51.451 33.779 51.549 33.906 51.612 C 34.035 51.674 34.185 51.706 34.36 51.706 C 34.682 51.706 35.022 51.603 35.378 51.4 L 35.378 51.99 Z" clip-path="url(#SVGID_2_)"/>
            <path fill="#FFFFFF" d="M 41.459 49.045 C 41.668 48.709 41.912 48.458 42.195 48.288 C 42.48 48.118 42.742 48.034 42.98 48.034 C 43.316 48.034 43.619 48.179 43.884 48.468 C 44.152 48.758 44.286 49.196 44.286 49.782 C 44.286 50.247 44.198 50.662 44.018 51.026 C 43.842 51.39 43.604 51.679 43.305 51.89 C 43.01 52.102 42.641 52.206 42.203 52.206 C 42.08 52.206 41.891 52.193 41.631 52.169 C 41.592 52.163 41.535 52.155 41.457 52.148 L 41.457 53.706 L 40.793 53.706 L 40.793 48.144 L 41.457 48.144 L 41.457 49.044 L 41.459 49.044 Z M 41.459 49.839 L 41.459 51.559 C 41.701 51.621 41.924 51.651 42.127 51.651 C 42.531 51.651 42.873 51.493 43.148 51.176 C 43.423 50.859 43.562 50.425 43.562 49.873 C 43.562 49.475 43.486 49.174 43.337 48.973 C 43.187 48.772 43.013 48.671 42.823 48.671 C 42.616 48.671 42.385 48.776 42.135 48.986 C 41.889 49.198 41.663 49.483 41.459 49.839 Z" clip-path="url(#SVGID_2_)"/>
            <path fill="#FFFFFF" d="M 48.547 48.146 L 48.547 52.15 L 47.881 52.15 L 47.881 51.271 C 47.664 51.602 47.426 51.848 47.164 52.014 C 46.9 52.179 46.637 52.259 46.375 52.259 C 46.141 52.259 45.926 52.198 45.732 52.071 C 45.535 51.946 45.4 51.78 45.322 51.576 C 45.246 51.373 45.207 50.975 45.207 50.38 L 45.207 48.144 L 45.877 48.144 L 45.877 50.464 C 45.877 50.849 45.895 51.103 45.932 51.226 C 45.969 51.349 46.037 51.45 46.137 51.529 C 46.237 51.607 46.342 51.648 46.457 51.648 C 46.689 51.648 46.943 51.537 47.211 51.316 C 47.482 51.093 47.703 50.816 47.881 50.478 L 47.881 48.145 L 48.547 48.145 Z" clip-path="url(#SVGID_2_)"/>
            <path fill="#FFFFFF" d="M 49.708 51.938 L 49.708 51.233 C 49.975 51.407 50.257 51.53 50.557 51.598 C 50.856 51.669 51.112 51.704 51.319 51.704 C 51.657 51.704 51.899 51.649 52.048 51.542 C 52.194 51.433 52.271 51.298 52.271 51.134 C 52.271 51.027 52.236 50.935 52.167 50.859 C 52.1 50.783 51.925 50.687 51.65 50.576 L 51.421 50.482 L 50.958 50.298 C 50.462 50.105 50.146 49.926 50.02 49.76 C 49.887 49.598 49.821 49.4 49.821 49.165 C 49.821 48.835 49.953 48.564 50.205 48.351 C 50.459 48.138 50.875 48.033 51.446 48.033 C 51.875 48.033 52.278 48.095 52.664 48.219 L 52.664 48.824 C 52.224 48.667 51.81 48.589 51.422 48.589 C 51.137 48.589 50.916 48.639 50.76 48.738 C 50.601 48.836 50.521 48.959 50.521 49.108 C 50.521 49.252 50.588 49.366 50.73 49.453 C 50.865 49.539 51.084 49.637 51.396 49.75 L 51.846 49.916 C 52.262 50.066 52.553 50.23 52.717 50.406 C 52.885 50.583 52.969 50.805 52.969 51.07 C 52.969 51.416 52.836 51.702 52.57 51.924 C 52.303 52.149 51.877 52.258 51.293 52.258 C 50.771 52.259 50.247 52.156 49.708 51.938 Z" clip-path="url(#SVGID_2_)"/>
            <path fill="#FFFFFF" d="M 54.068 52.15 L 54.068 46.362 L 54.734 46.362 L 54.734 49.018 C 54.923 48.711 55.157 48.47 55.425 48.296 C 55.695 48.121 55.968 48.034 56.237 48.034 C 56.464 48.034 56.671 48.091 56.856 48.208 C 57.046 48.324 57.175 48.465 57.251 48.63 C 57.31 48.756 57.353 48.889 57.372 49.033 C 57.393 49.175 57.405 49.468 57.405 49.913 L 57.405 52.15 L 56.737 52.15 L 56.737 49.83 C 56.737 49.444 56.719 49.192 56.682 49.067 C 56.643 48.944 56.577 48.844 56.479 48.765 C 56.378 48.686 56.27 48.646 56.153 48.646 C 55.919 48.646 55.667 48.758 55.399 48.98 C 55.128 49.201 54.907 49.48 54.733 49.815 L 54.733 52.149 L 54.068 52.15 L 54.068 52.15 Z" clip-path="url(#SVGID_2_)"/>
            <path fill="#FFFFFF" d="M 64.532 52.259 C 63.958 52.259 63.501 52.062 63.154 51.659 C 62.81 51.259 62.638 50.754 62.638 50.143 C 62.638 49.534 62.81 49.03 63.154 48.631 C 63.501 48.232 63.958 48.032 64.532 48.032 C 65.101 48.032 65.558 48.231 65.904 48.631 C 66.247 49.03 66.419 49.534 66.419 50.143 C 66.419 50.753 66.247 51.258 65.904 51.659 C 65.559 52.062 65.102 52.259 64.532 52.259 Z M 64.532 51.707 C 64.886 51.707 65.169 51.567 65.38 51.29 C 65.589 51.013 65.693 50.631 65.693 50.145 C 65.693 49.663 65.589 49.282 65.38 49.004 C 65.169 48.727 64.889 48.589 64.532 48.589 C 64.175 48.589 63.888 48.726 63.679 49.004 C 63.466 49.281 63.363 49.662 63.363 50.145 C 63.363 50.63 63.467 51.012 63.679 51.29 C 63.889 51.567 64.174 51.707 64.532 51.707 Z" clip-path="url(#SVGID_2_)"/>
            <path fill="#FFFFFF" d="M 67.631 52.15 L 67.631 48.146 L 68.297 48.146 L 68.297 49.019 C 68.508 48.69 68.744 48.444 69.014 48.281 C 69.285 48.116 69.582 48.035 69.912 48.035 C 70.152 48.035 70.396 48.072 70.637 48.146 L 70.637 49.591 L 69.994 49.591 L 69.994 48.677 C 69.881 48.658 69.793 48.647 69.728 48.647 C 69.48 48.647 69.236 48.745 68.996 48.94 C 68.758 49.137 68.525 49.431 68.297 49.823 L 68.297 52.15 L 67.631 52.15 Z" clip-path="url(#SVGID_2_)"/>
            <path fill="#FFFFFF" d="M 72.823 52.15 L 72.823 48.701 L 71.71 48.701 L 71.71 48.146 L 73.488 48.146 L 73.488 51.595 L 74.603 51.595 L 74.603 52.151 L 72.823 52.15 L 72.823 52.15 Z M 72.713 46.697 C 72.713 46.548 72.766 46.435 72.865 46.362 C 72.97 46.289 73.066 46.251 73.156 46.251 C 73.25 46.251 73.347 46.289 73.447 46.362 C 73.551 46.435 73.603 46.548 73.603 46.697 C 73.603 46.843 73.549 46.956 73.447 47.03 C 73.347 47.102 73.25 47.139 73.156 47.139 C 73.066 47.139 72.97 47.102 72.865 47.03 C 72.766 46.956 72.713 46.845 72.713 46.697 Z" clip-path="url(#SVGID_2_)"/>
            <path fill="#FFFFFF" d="M 78.786 51.25 C 78.583 51.583 78.339 51.837 78.052 52.007 C 77.766 52.175 77.501 52.259 77.264 52.259 C 76.93 52.259 76.626 52.116 76.362 51.827 C 76.093 51.536 75.962 51.098 75.962 50.51 C 75.962 50.046 76.05 49.632 76.228 49.269 C 76.404 48.904 76.642 48.616 76.939 48.402 C 77.236 48.192 77.603 48.086 78.042 48.086 C 78.169 48.086 78.359 48.1 78.615 48.127 C 78.652 48.131 78.712 48.137 78.786 48.145 L 79.456 48.145 L 79.456 50.977 C 79.456 51.651 79.447 52.064 79.432 52.211 C 79.413 52.361 79.386 52.514 79.345 52.666 C 79.249 53.02 79.032 53.304 78.694 53.51 C 78.35 53.715 77.938 53.818 77.456 53.818 C 76.968 53.818 76.477 53.694 75.981 53.446 L 75.981 52.77 C 76.169 52.899 76.401 53.014 76.679 53.115 C 76.954 53.215 77.223 53.262 77.481 53.262 C 77.684 53.262 77.876 53.229 78.057 53.163 C 78.241 53.101 78.386 53.007 78.499 52.886 C 78.611 52.764 78.687 52.622 78.728 52.46 C 78.771 52.298 78.79 52.083 78.79 51.815 L 78.79 51.25 L 78.786 51.25 Z M 78.786 50.458 L 78.786 48.735 C 78.548 48.674 78.329 48.644 78.126 48.644 C 77.714 48.644 77.37 48.803 77.096 49.122 C 76.821 49.439 76.686 49.872 76.686 50.421 C 76.686 50.818 76.757 51.118 76.911 51.32 C 77.059 51.521 77.231 51.625 77.421 51.625 C 77.63 51.625 77.86 51.52 78.112 51.309 C 78.364 51.098 78.586 50.813 78.786 50.458 Z" clip-path="url(#SVGID_2_)"/>
            <path fill="#FFFFFF" d="M 81.637 52.15 L 81.637 48.701 L 80.524 48.701 L 80.524 48.146 L 82.303 48.146 L 82.303 51.595 L 83.418 51.595 L 83.418 52.151 L 81.637 52.15 L 81.637 52.15 Z M 81.529 46.697 C 81.529 46.548 81.581 46.435 81.683 46.362 C 81.784 46.289 81.882 46.251 81.97 46.251 C 82.064 46.251 82.161 46.289 82.263 46.362 C 82.367 46.435 82.415 46.548 82.415 46.697 C 82.415 46.843 82.366 46.956 82.263 47.03 C 82.161 47.102 82.064 47.139 81.97 47.139 C 81.882 47.139 81.782 47.102 81.683 47.03 C 81.581 46.956 81.529 46.845 81.529 46.697 Z" clip-path="url(#SVGID_2_)"/>
            <path fill="#FFFFFF" d="M 84.922 52.15 L 84.922 48.146 L 85.588 48.146 L 85.588 49.019 C 85.779 48.712 86.01 48.471 86.279 48.297 C 86.549 48.122 86.822 48.035 87.091 48.035 C 87.327 48.035 87.542 48.097 87.737 48.223 C 87.93 48.349 88.069 48.512 88.145 48.716 C 88.221 48.919 88.259 49.319 88.259 49.914 L 88.259 52.151 L 87.591 52.151 L 87.591 49.831 C 87.591 49.445 87.573 49.193 87.536 49.068 C 87.499 48.945 87.432 48.845 87.333 48.766 C 87.232 48.687 87.126 48.647 87.007 48.647 C 86.774 48.647 86.524 48.759 86.253 48.981 C 85.982 49.202 85.761 49.481 85.587 49.816 L 85.587 52.15 L 84.922 52.15 Z" clip-path="url(#SVGID_2_)"/>
            <path fill="#FFFFFF" d="M 93.436 52.15 L 93.436 48.146 L 94.022 48.146 L 94.022 49.063 C 94.205 48.673 94.377 48.404 94.535 48.257 C 94.694 48.109 94.854 48.035 95.018 48.035 C 95.211 48.035 95.367 48.111 95.485 48.262 C 95.604 48.414 95.664 48.631 95.664 48.909 L 95.664 49.125 C 95.744 48.881 95.838 48.684 95.949 48.532 C 96.059 48.382 96.176 48.259 96.295 48.17 C 96.416 48.079 96.556 48.036 96.709 48.036 C 96.881 48.036 97.024 48.108 97.149 48.254 C 97.27 48.4 97.332 48.691 97.332 49.126 L 97.332 52.152 L 96.748 52.152 L 96.748 49.416 C 96.748 49.191 96.74 49.038 96.726 48.956 C 96.713 48.874 96.685 48.81 96.64 48.768 C 96.599 48.726 96.551 48.704 96.5 48.704 C 96.375 48.704 96.242 48.8 96.101 48.988 C 95.959 49.179 95.814 49.493 95.664 49.933 L 95.664 52.153 L 95.108 52.153 L 95.108 49.421 C 95.108 49.067 95.074 48.859 95.004 48.797 C 94.934 48.735 94.871 48.704 94.815 48.704 C 94.694 48.704 94.561 48.81 94.422 49.021 C 94.279 49.236 94.149 49.507 94.022 49.841 L 94.022 52.153 L 93.436 52.153 L 93.436 52.15 Z" clip-path="url(#SVGID_2_)"/>
            <g>
              <circle fill="none" stroke="#E7E8E6" stroke-width="2.6961" stroke-miterlimit="10" cx="47.852" cy="48.044" r="45.986"/>
            </g>
          </g>
        </g>
      </g>
    </g>
  </g>
</svg>
