<?xml version="1.0" encoding="utf-8"?>
<!-- Generator: Adobe Illustrator 22.1.0, SVG Export Plug-In . SVG Version: 6.00 Build 0)  -->
<svg version="1.1" id="activate-github-apps" xmlns="http://www.w3.org/2000/svg" xmlns:xlink="http://www.w3.org/1999/xlink"
	 x="0px" y="0px" viewBox="0 0 95.972 95.972" style="enable-background:new 0 0 95.972 95.972;" xml:space="preserve">
<style type="text/css">
	.st0{fill:url(#drop-shadow_1_);}
	.st1{fill:#FFFFFF;}
	.st2{fill:#686B6E;}
	.st3{fill:#39AA56;}
	.st4{fill:#231F20;}
	.st5{fill:none;stroke:#E7E8E6;stroke-width:4;stroke-miterlimit:10;}
</style>
<g id="background">
	<g>
		<g>
			<g>
				<defs>
					<circle id="SVGID_1_" cx="47.986" cy="47.986" r="45.986"/>
				</defs>
				<clipPath id="SVGID_2_">
					<use xlink:href="#SVGID_1_"  style="overflow:visible;"/>
				</clipPath>
			</g>
		</g>
	</g>
</g>
<linearGradient id="drop-shadow_1_" gradientUnits="userSpaceOnUse" x1="47.986" y1="71.3947" x2="47.986" y2="66.8717">
	<stop  offset="0" style="stop-color:#FFFFFF;stop-opacity:0"/>
	<stop  offset="1" style="stop-color:#000000;stop-opacity:0.1"/>
</linearGradient>
<path id="drop-shadow" class="st0" d="M89.912,66.872H6.06c0.702,1.555,1.483,3.066,2.347,4.523h79.159
	C88.429,69.937,89.211,68.427,89.912,66.872z"/>
<path id="div-background" class="st1" d="M47.986,2C22.589,2,2,22.589,2,47.986c0,6.733,1.459,13.122,4.06,18.886h83.853
	c2.6-5.763,4.06-12.152,4.06-18.886C93.972,22.589,73.383,2,47.986,2z"/>
<g id="cropped-copy">
	<path class="st2" d="M22.282,12.754c0.572,0,1.038-0.208,1.312-0.494v-1.789h-1.396v0.449H23.1v1.108
		c-0.168,0.159-0.461,0.25-0.767,0.25c-0.828,0-1.317-0.562-1.397-1.472c-0.169,0.123-0.342,0.24-0.509,0.365
		C20.633,12.172,21.34,12.754,22.282,12.754z"/>
	<rect x="24.639" y="9.524" class="st2" width="0.534" height="3.152"/>
	<path class="st2" d="M24.91,8.876c0.208,0,0.368-0.143,0.368-0.345c0-0.196-0.143-0.322-0.331-0.338
		c-0.127,0.074-0.256,0.145-0.383,0.22c-0.013,0.036-0.024,0.074-0.024,0.118C24.542,8.733,24.703,8.876,24.91,8.876z"/>
	<path class="st2" d="M27.453,12.319c-0.363,0-0.488-0.223-0.488-0.608V9.958h0.854V9.524h-0.854V8.64H26.52l-0.064,0.884
		l-0.493,0.031v0.404h0.469v1.743c0,0.627,0.227,1.052,0.898,1.052c0.197,0,0.408-0.057,0.585-0.117l-0.103-0.402
		C27.71,12.277,27.565,12.319,27.453,12.319z"/>
	<polygon class="st2" points="29.282,10.675 31.261,10.675 31.261,12.676 31.803,12.676 31.803,8.42 31.261,8.42 31.261,10.203 
		29.282,10.203 29.282,8.42 28.74,8.42 28.74,12.676 29.282,12.676 	"/>
	<path class="st2" d="M34.954,12.183h0.018l0.045,0.494h0.44V9.524h-0.533v2.236c-0.299,0.372-0.522,0.531-0.844,0.531
		c-0.417,0-0.595-0.251-0.595-0.838V9.524h-0.533v1.998c0,0.804,0.298,1.232,0.962,1.232C34.347,12.754,34.662,12.527,34.954,12.183
		z"/>
	<path class="st2" d="M38.072,9.446c-0.351,0-0.702,0.19-0.991,0.439L37.1,9.32V8.056h-0.534v4.62h0.426l0.05-0.326h0.018
		c0.279,0.252,0.605,0.403,0.899,0.403c0.72,0,1.365-0.627,1.365-1.704C39.324,10.078,38.886,9.446,38.072,9.446z M37.867,12.305
		c-0.208,0-0.49-0.088-0.768-0.328v-1.652c0.298-0.283,0.576-0.43,0.842-0.43c0.594,0,0.831,0.466,0.831,1.162
		C38.773,11.835,38.389,12.305,37.867,12.305z"/>
	<path class="st2" d="M42.377,8.42l-1.44,4.256h0.551l0.409-1.296h-0.204v-0.432h0.34l0.205-0.648
		c0.153-0.476,0.29-0.941,0.421-1.435h0.026c0.136,0.491,0.273,0.958,0.426,1.435l0.202,0.648h0.34v0.432h-0.205l0.405,1.296h0.574
		l-1.44-4.256H42.377z"/>
	<polygon class="st2" points="41.694,10.948 41.694,11.38 41.897,11.38 42.034,10.948 	"/>
	<polygon class="st2" points="43.654,10.948 43.314,10.948 43.449,11.38 43.654,11.38 	"/>
	<polygon class="st2" points="42.034,10.948 41.897,11.38 43.449,11.38 43.314,10.948 	"/>
	<path class="st2" d="M46.659,9.446c-0.365,0-0.72,0.205-1.005,0.441h-0.018l-0.045-0.364h-0.441v4.482h0.534v-1.067l-0.015-0.55
		c0.29,0.232,0.585,0.365,0.874,0.365c0.72,0,1.366-0.627,1.366-1.702C47.909,10.078,47.474,9.446,46.659,9.446z M46.452,12.305
		c-0.208,0-0.482-0.088-0.768-0.328v-1.652c0.307-0.283,0.576-0.43,0.842-0.43c0.594,0,0.831,0.466,0.831,1.162
		C47.358,11.835,46.973,12.305,46.452,12.305z"/>
	<path class="st2" d="M50.367,9.446c-0.365,0-0.72,0.205-1.005,0.441h-0.018L49.3,9.524h-0.44v4.482h0.533v-1.067l-0.015-0.55
		c0.29,0.232,0.585,0.365,0.874,0.365c0.721,0,1.365-0.627,1.365-1.702C51.617,10.078,51.182,9.446,50.367,9.446z M50.16,12.305
		c-0.208,0-0.482-0.088-0.768-0.328v-1.652c0.307-0.283,0.575-0.43,0.843-0.43c0.593,0,0.831,0.466,0.831,1.162
		C51.067,11.835,50.682,12.305,50.16,12.305z"/>
	<path class="st2" d="M53.435,12.339c-0.379,0-0.656-0.153-0.931-0.374l-0.263,0.351c0.296,0.248,0.728,0.438,1.176,0.438
		c0.744,0,1.15-0.426,1.15-0.937c0-0.6-0.507-0.785-0.962-0.957c-0.356-0.133-0.699-0.247-0.699-0.547
		c0-0.24,0.184-0.452,0.58-0.452c0.279,0,0.502,0.12,0.719,0.28L54.461,9.8c-0.245-0.193-0.588-0.354-0.98-0.354
		c-0.684,0-1.087,0.39-1.087,0.895c0,0.532,0.498,0.75,0.939,0.911c0.349,0.13,0.721,0.273,0.721,0.598
		C54.054,12.118,53.849,12.339,53.435,12.339z"/>
	<rect x="56.605" y="9.524" class="st2" width="0.533" height="3.152"/>
	<path class="st2" d="M56.875,8.876c0.207,0,0.368-0.143,0.368-0.345c0-0.209-0.161-0.344-0.368-0.344s-0.368,0.135-0.368,0.344
		C56.507,8.733,56.668,8.876,56.875,8.876z"/>
	<path class="st2" d="M60.233,10.748v1.929h0.534v-1.998c0-0.804-0.299-1.232-0.963-1.232c-0.433,0-0.757,0.237-1.058,0.532h-0.018
		l-0.045-0.455h-0.44v3.152h0.533v-2.283c0.316-0.32,0.539-0.484,0.861-0.484C60.056,9.909,60.233,10.161,60.233,10.748z"/>
	<path class="st2" d="M63.301,12.235c-0.102,0.042-0.247,0.084-0.358,0.084c-0.363,0-0.487-0.223-0.487-0.608V9.958h0.854V9.524
		h-0.854V8.64h-0.446l-0.063,0.884l-0.493,0.031v0.404h0.469v1.743c0,0.627,0.228,1.052,0.898,1.052
		c0.197,0,0.408-0.057,0.585-0.117L63.301,12.235z"/>
	<path class="st2" d="M65.261,9.446c-0.726,0-1.417,0.632-1.417,1.658c0,1.036,0.669,1.65,1.509,1.65
		c0.429,0,0.765-0.146,1.041-0.327l-0.19-0.35c-0.234,0.154-0.482,0.252-0.785,0.252c-0.601,0-1.009-0.433-1.047-1.101h2.123
		c0.015-0.078,0.024-0.19,0.024-0.303C66.519,10.023,66.065,9.446,65.261,9.446z M64.366,10.846
		c0.064-0.619,0.461-0.975,0.904-0.975c0.492,0,0.776,0.343,0.776,0.975H64.366z"/>
	<path class="st2" d="M68.992,12.284h-0.613c-0.423,0-0.553-0.142-0.553-0.342c0-0.173,0.087-0.277,0.201-0.373
		c0.143,0.069,0.316,0.107,0.47,0.107c0.645,0,1.154-0.418,1.154-1.093c0-0.269-0.108-0.505-0.257-0.649h0.647V9.524h-1.1
		c-0.115-0.043-0.272-0.078-0.445-0.078c-0.64,0-1.183,0.433-1.183,1.123c0,0.376,0.199,0.683,0.408,0.847v0.026
		c-0.163,0.115-0.347,0.324-0.347,0.585c0,0.248,0.121,0.417,0.281,0.517v0.026c-0.29,0.188-0.462,0.443-0.462,0.713
		c0,0.543,0.532,0.845,1.305,0.845c0.974,0,1.594-0.504,1.594-1.09C70.094,12.514,69.725,12.284,68.992,12.284z M68.497,9.833
		c0.371,0,0.67,0.278,0.67,0.736c0,0.459-0.307,0.749-0.67,0.749s-0.67-0.29-0.67-0.749C67.827,10.107,68.125,9.833,68.497,9.833z
		 M68.575,13.759c-0.573,0-0.915-0.214-0.915-0.553c0-0.181,0.097-0.369,0.322-0.528c0.14,0.034,0.289,0.047,0.409,0.047h0.544
		c0.414,0,0.636,0.1,0.636,0.392C69.572,13.446,69.176,13.759,68.575,13.759z"/>
	<path class="st2" d="M71.381,10.652c0.213-0.534,0.531-0.725,0.797-0.725c0.127,0,0.197,0.018,0.307,0.052l0.1-0.468
		c-0.1-0.047-0.197-0.064-0.337-0.064c-0.354,0-0.677,0.252-0.896,0.652h-0.018l-0.045-0.574h-0.44v3.152h0.533V10.652z"/>
	<path class="st2" d="M73.444,10.223c0.127-0.085,0.277-0.171,0.442-0.236c-0.135-0.092-0.271-0.183-0.406-0.274
		c-0.09,0.047-0.171,0.097-0.243,0.144L73.444,10.223z"/>
	<path class="st2" d="M73.099,11.858c0,0.568,0.396,0.896,0.923,0.896c0.392,0,0.742-0.205,1.043-0.455h0.018l0.045,0.377h0.44
		v-1.487c-0.223-0.167-0.453-0.324-0.678-0.487C73.653,10.857,73.099,11.197,73.099,11.858z M75.034,11.907
		c-0.305,0.269-0.557,0.417-0.861,0.417c-0.309,0-0.552-0.146-0.552-0.504c0-0.403,0.356-0.662,1.413-0.789V11.907z"/>
	<path class="st2" d="M10.162,21.842c-0.211,0.304-0.417,0.611-0.62,0.92h0.379L10.162,21.842z"/>
	<path class="st2" d="M10.818,21.068l0.455,1.694h0.649l0.846-3.152h-0.508L11.8,21.43c-0.068,0.3-0.127,0.583-0.195,0.879h-0.026
		c-0.073-0.296-0.141-0.58-0.219-0.879l-0.249-0.923c-0.11,0.147-0.211,0.3-0.319,0.449C10.8,20.993,10.808,21.031,10.818,21.068z"
		/>
	<path class="st2" d="M15.147,19.532c-0.433,0-0.752,0.237-1.046,0.521l0.019-0.648v-1.264h-0.534v4.62h0.534v-2.283
		c0.316-0.32,0.54-0.484,0.862-0.484c0.417,0,0.595,0.251,0.595,0.838v1.929h0.533v-1.998C16.109,19.96,15.811,19.532,15.147,19.532
		z"/>
	<rect x="17.182" y="19.609" class="st2" width="0.534" height="3.152"/>
	<path class="st2" d="M17.453,18.272c-0.208,0-0.369,0.135-0.369,0.344c0,0.201,0.161,0.345,0.369,0.345s0.368-0.144,0.368-0.345
		C17.821,18.407,17.66,18.272,17.453,18.272z"/>
	<path class="st2" d="M19.502,22.395c-0.078,0-0.148-0.065-0.148-0.228v-4.026H18.82v3.987c0,0.456,0.165,0.711,0.564,0.711
		c0.14,0,0.231-0.022,0.307-0.05l-0.072-0.407C19.559,22.395,19.533,22.395,19.502,22.395z"/>
	<path class="st2" d="M21.712,19.532c-0.726,0-1.417,0.632-1.417,1.658c0,1.036,0.669,1.65,1.509,1.65
		c0.429,0,0.765-0.146,1.041-0.327l-0.191-0.35c-0.233,0.154-0.482,0.252-0.784,0.252c-0.601,0-1.009-0.433-1.047-1.101h2.123
		c0.016-0.078,0.025-0.19,0.025-0.303C22.969,20.109,22.515,19.532,21.712,19.532z M20.817,20.932
		c0.065-0.619,0.461-0.975,0.904-0.975c0.493,0,0.777,0.343,0.777,0.975H20.817z"/>
	<path class="st2" d="M26.547,19.532c-0.365,0-0.72,0.205-1.005,0.441h-0.018l-0.045-0.364h-0.441v4.482h0.534v-1.067l-0.015-0.55
		c0.29,0.232,0.585,0.365,0.874,0.365c0.72,0,1.365-0.627,1.365-1.702C27.797,20.164,27.362,19.532,26.547,19.532z M26.34,22.391
		c-0.208,0-0.482-0.088-0.768-0.328v-1.652c0.307-0.283,0.576-0.43,0.842-0.43c0.594,0,0.831,0.466,0.831,1.162
		C27.246,21.921,26.862,22.391,26.34,22.391z"/>
	<path class="st2" d="M29.251,20.184h-0.018l-0.045-0.574h-0.441v3.152h0.534v-2.024c0.213-0.533,0.531-0.725,0.797-0.725
		c0.126,0,0.197,0.018,0.306,0.052l0.1-0.468c-0.099-0.047-0.197-0.064-0.336-0.064C29.793,19.532,29.47,19.784,29.251,20.184z"/>
	<path class="st2" d="M32.316,19.532c-0.772,0-1.46,0.606-1.46,1.658c0,1.044,0.688,1.65,1.46,1.65c0.773,0,1.461-0.606,1.461-1.65
		C33.777,20.138,33.089,19.532,32.316,19.532z M32.316,22.395c-0.542,0-0.91-0.483-0.91-1.206c0-0.722,0.368-1.214,0.91-1.214
		c0.542,0,0.91,0.492,0.91,1.214C33.225,21.912,32.858,22.395,32.316,22.395z"/>
	<path class="st2" d="M36.016,21.4c-0.094,0.308-0.197,0.628-0.291,0.93h-0.026c-0.094-0.301-0.197-0.622-0.291-0.93l-0.596-1.791
		h-0.55l1.138,3.152h0.62l1.115-3.152h-0.523L36.016,21.4z"/>
	<path class="st2" d="M38.175,18.272c-0.208,0-0.369,0.135-0.369,0.344c0,0.201,0.161,0.345,0.369,0.345s0.368-0.144,0.368-0.345
		C38.543,18.407,38.383,18.272,38.175,18.272z"/>
	<rect x="37.904" y="19.609" class="st2" width="0.534" height="3.152"/>
	<path class="st2" d="M41.594,19.356l0.022,0.541c-0.277-0.228-0.517-0.365-0.883-0.365c-0.719,0-1.364,0.635-1.364,1.658
		c0,1.051,0.511,1.65,1.298,1.65c0.375,0,0.711-0.205,0.957-0.45h0.018l0.045,0.372h0.44v-4.62h-0.533V19.356z M41.594,21.96
		c-0.265,0.288-0.517,0.43-0.809,0.43c-0.553,0-0.865-0.45-0.865-1.206c0-0.718,0.401-1.205,0.905-1.205
		c0.257,0,0.5,0.088,0.769,0.328V21.96z"/>
	<rect x="43.24" y="19.609" class="st2" width="0.534" height="3.152"/>
	<path class="st2" d="M43.511,18.272c-0.208,0-0.369,0.135-0.369,0.344c0,0.201,0.161,0.345,0.369,0.345s0.368-0.144,0.368-0.345
		C43.879,18.407,43.718,18.272,43.511,18.272z"/>
	<path class="st2" d="M46.439,19.532c-0.433,0-0.757,0.237-1.058,0.532h-0.018l-0.045-0.455h-0.441v3.152h0.534v-2.283
		c0.316-0.32,0.54-0.484,0.862-0.484c0.417,0,0.595,0.251,0.595,0.838v1.929h0.533v-1.998C47.402,19.96,47.103,19.532,46.439,19.532
		z"/>
	<path class="st2" d="M50.043,22.37H49.43c-0.423,0-0.553-0.142-0.553-0.342c0-0.173,0.087-0.277,0.201-0.373
		c0.143,0.069,0.316,0.107,0.47,0.107c0.645,0,1.154-0.418,1.154-1.093c0-0.269-0.108-0.505-0.257-0.649h0.647v-0.411h-1.1
		c-0.115-0.043-0.272-0.078-0.445-0.078c-0.64,0-1.183,0.434-1.183,1.123c0,0.376,0.199,0.683,0.408,0.847v0.026
		c-0.163,0.115-0.347,0.324-0.347,0.585c0,0.248,0.121,0.417,0.281,0.517v0.026c-0.29,0.188-0.462,0.442-0.462,0.712
		c0,0.543,0.532,0.845,1.305,0.845c0.974,0,1.594-0.504,1.594-1.09C51.145,22.6,50.776,22.37,50.043,22.37z M49.548,19.918
		c0.371,0,0.67,0.278,0.67,0.736c0,0.459-0.307,0.749-0.67,0.749s-0.67-0.29-0.67-0.749C48.878,20.192,49.176,19.918,49.548,19.918z
		 M49.626,23.845c-0.573,0-0.915-0.214-0.915-0.552c0-0.181,0.097-0.369,0.322-0.529c0.14,0.034,0.289,0.047,0.409,0.047h0.544
		c0.414,0,0.636,0.1,0.636,0.391C50.622,23.531,50.227,23.845,49.626,23.845z"/>
	<path class="st2" d="M54.235,19.532c-0.726,0-1.417,0.632-1.417,1.658c0,1.036,0.669,1.65,1.509,1.65
		c0.429,0,0.765-0.146,1.041-0.327l-0.19-0.35c-0.234,0.154-0.482,0.252-0.785,0.252c-0.601,0-1.009-0.433-1.047-1.101h2.123
		c0.015-0.078,0.024-0.19,0.024-0.303C55.492,20.109,55.038,19.532,54.235,19.532z M53.34,20.932
		c0.064-0.619,0.461-0.975,0.904-0.975c0.492,0,0.776,0.343,0.776,0.975H53.34z"/>
	<path class="st2" d="M57.958,19.532c-0.433,0-0.757,0.237-1.058,0.532h-0.018l-0.045-0.455h-0.44v3.152h0.533v-2.283
		c0.316-0.32,0.539-0.484,0.861-0.484c0.418,0,0.595,0.251,0.595,0.838v1.929h0.534v-1.998
		C58.921,19.96,58.622,19.532,57.958,19.532z"/>
	<path class="st2" d="M61.57,19.532c-0.433,0-0.752,0.237-1.047,0.521l0.02-0.648v-1.264h-0.533v4.62h0.533v-2.283
		c0.316-0.32,0.539-0.484,0.861-0.484c0.418,0,0.595,0.251,0.595,0.838v1.929h0.534v-1.998C62.532,19.96,62.234,19.532,61.57,19.532
		z"/>
	<path class="st2" d="M64.773,19.532c-0.506,0-0.948,0.221-1.238,0.412l0.209,0.366c0.247-0.166,0.576-0.338,0.94-0.338
		c0.515,0,0.649,0.391,0.65,0.796c-1.344,0.146-1.936,0.489-1.936,1.176c0,0.569,0.396,0.896,0.923,0.896
		c0.392,0,0.742-0.205,1.043-0.455h0.018l0.045,0.377h0.44v-1.934C65.867,20.043,65.542,19.532,64.773,19.532z M65.334,21.993
		c-0.305,0.269-0.557,0.417-0.861,0.417c-0.309,0-0.552-0.146-0.552-0.504c0-0.403,0.356-0.662,1.413-0.789V21.993z"/>
	<path class="st2" d="M68.507,19.532c-0.433,0-0.757,0.237-1.058,0.532h-0.018l-0.045-0.455h-0.44v3.152h0.533v-2.283
		c0.316-0.32,0.539-0.484,0.861-0.484c0.418,0,0.595,0.251,0.595,0.838v1.929h0.534v-1.998C69.47,19.96,69.171,19.532,68.507,19.532
		z"/>
	<path class="st2" d="M71.901,22.395c-0.58,0-0.976-0.483-0.976-1.206c0-0.722,0.419-1.214,0.989-1.214
		c0.248,0,0.442,0.113,0.626,0.279l0.272-0.353c-0.222-0.199-0.509-0.37-0.922-0.37c-0.807,0-1.517,0.606-1.517,1.658
		c0,1.044,0.64,1.65,1.479,1.65c0.378,0,0.735-0.148,1.019-0.4l-0.23-0.357C72.444,22.255,72.189,22.395,71.901,22.395z"/>
	<path class="st2" d="M74.84,19.532c-0.726,0-1.417,0.632-1.417,1.658c0,1.036,0.669,1.65,1.509,1.65
		c0.429,0,0.765-0.146,1.041-0.327l-0.19-0.35c-0.234,0.154-0.482,0.252-0.785,0.252c-0.601,0-1.009-0.433-1.047-1.101h2.123
		c0.015-0.078,0.024-0.19,0.024-0.303C76.098,20.109,75.644,19.532,74.84,19.532z M73.946,20.932
		c0.064-0.619,0.461-0.975,0.904-0.975c0.492,0,0.776,0.343,0.776,0.975H73.946z"/>
	<path class="st2" d="M79.082,19.356l0.022,0.541c-0.276-0.228-0.517-0.365-0.884-0.365c-0.719,0-1.363,0.635-1.363,1.658
		c0,1.051,0.51,1.65,1.298,1.65c0.376,0,0.712-0.205,0.957-0.45h0.018l0.045,0.372h0.44v-4.62h-0.533V19.356z M79.082,21.96
		c-0.265,0.288-0.518,0.43-0.809,0.43c-0.553,0-0.865-0.45-0.865-1.206c0-0.718,0.4-1.205,0.905-1.205
		c0.257,0,0.499,0.088,0.769,0.328V21.96z"/>
	<path class="st2" d="M82.989,20.946c-0.356-0.133-0.699-0.247-0.699-0.547c0-0.24,0.184-0.452,0.58-0.452
		c0.279,0,0.502,0.121,0.719,0.281l0.256-0.342c-0.245-0.193-0.588-0.354-0.98-0.354c-0.684,0-1.087,0.39-1.087,0.895
		c0,0.532,0.498,0.749,0.939,0.911c0.349,0.13,0.721,0.273,0.721,0.598c0,0.269-0.205,0.49-0.619,0.49
		c-0.379,0-0.656-0.153-0.931-0.374l-0.263,0.351c0.296,0.248,0.728,0.438,1.176,0.438c0.744,0,1.15-0.426,1.15-0.937
		C83.951,21.302,83.445,21.117,82.989,20.946z"/>
	<path class="st2" d="M86.152,22.839c0.11,0,0.199-0.032,0.297-0.049c-0.082-0.125-0.159-0.253-0.242-0.378
		c-0.594-0.005-0.999-0.435-1.037-1.099h0.265c-0.212-0.297-0.418-0.599-0.637-0.891c-0.096,0.222-0.155,0.476-0.155,0.766
		C84.643,22.225,85.312,22.839,86.152,22.839z"/>
</g>
<g id="activate-button">
	<path class="st3" d="M93.121,39.185H11.266c-1.65,0-3,1.35-3,3v12.01c0,1.65,1.35,3,3,3h81.782
		c0.605-2.975,0.924-6.055,0.924-9.209C93.972,44.975,93.674,42.035,93.121,39.185z"/>
	<g>
		<g>
			<path class="st1" d="M28.244,48.98h-1.55l-0.409,1.297h-0.551l1.439-4.254h0.61l1.439,4.254h-0.57L28.244,48.98z M28.108,48.545
				l-0.201-0.648c-0.149-0.474-0.285-0.94-0.421-1.433H27.46c-0.136,0.493-0.272,0.959-0.421,1.433l-0.208,0.648H28.108z"/>
			<path class="st1" d="M31.256,47.047c0.415,0,0.707,0.175,0.921,0.376l-0.266,0.344c-0.188-0.162-0.382-0.279-0.635-0.279
				c-0.571,0-0.986,0.493-0.986,1.219c0,0.72,0.396,1.206,0.973,1.206c0.298,0,0.551-0.149,0.739-0.318l0.24,0.351
				c-0.286,0.253-0.649,0.408-1.025,0.408c-0.836,0-1.479-0.603-1.479-1.647C29.738,47.65,30.445,47.047,31.256,47.047z"/>
			<path class="st1" d="M33.335,47.56h-0.467v-0.402l0.493-0.033l0.065-0.882h0.447v0.882h0.85v0.435h-0.85v1.751
				c0,0.389,0.124,0.61,0.486,0.61c0.11,0,0.253-0.045,0.357-0.084l0.104,0.402c-0.175,0.059-0.389,0.117-0.583,0.117
				c-0.674,0-0.901-0.428-0.901-1.05V47.56z"/>
			<path class="st1" d="M35.545,46.133c0-0.208,0.162-0.344,0.37-0.344s0.37,0.136,0.37,0.344c0,0.201-0.162,0.344-0.37,0.344
				S35.545,46.334,35.545,46.133z M35.642,47.125h0.532v3.152h-0.532V47.125z"/>
			<path class="st1" d="M36.989,47.125h0.551l0.597,1.79c0.091,0.311,0.195,0.629,0.292,0.927h0.026
				c0.091-0.298,0.194-0.616,0.285-0.927l0.597-1.79h0.525l-1.115,3.152h-0.623L36.989,47.125z"/>
			<path class="st1" d="M42.435,48.279c0-0.402-0.136-0.791-0.648-0.791c-0.37,0-0.694,0.168-0.94,0.337l-0.214-0.37
				c0.292-0.188,0.733-0.409,1.239-0.409c0.771,0,1.096,0.512,1.096,1.297v1.933h-0.441l-0.045-0.376h-0.013
				c-0.305,0.246-0.655,0.454-1.044,0.454c-0.532,0-0.928-0.331-0.928-0.895C40.496,48.772,41.092,48.429,42.435,48.279z
				 M41.572,49.927c0.305,0,0.558-0.149,0.862-0.421V48.63c-1.057,0.129-1.414,0.389-1.414,0.791
				C41.021,49.777,41.261,49.927,41.572,49.927z"/>
			<path class="st1" d="M44.21,47.56h-0.467v-0.402l0.493-0.033l0.065-0.882h0.447v0.882h0.85v0.435h-0.85v1.751
				c0,0.389,0.124,0.61,0.486,0.61c0.11,0,0.253-0.045,0.357-0.084l0.104,0.402c-0.175,0.059-0.389,0.117-0.583,0.117
				c-0.674,0-0.901-0.428-0.901-1.05V47.56z"/>
			<path class="st1" d="M47.622,47.047c0.805,0,1.258,0.577,1.258,1.479c0,0.11-0.006,0.214-0.02,0.292h-2.126
				c0.039,0.681,0.448,1.109,1.05,1.109c0.299,0,0.552-0.097,0.785-0.247l0.188,0.35c-0.272,0.175-0.609,0.324-1.037,0.324
				c-0.843,0-1.511-0.616-1.511-1.647S46.903,47.047,47.622,47.047z M48.413,48.468c0-0.642-0.285-0.999-0.778-0.999
				c-0.44,0-0.843,0.363-0.908,0.999H48.413z"/>
			<path class="st1" d="M52.868,45.945c0.577,0,0.966,0.266,1.219,0.525l-0.312,0.344c-0.214-0.227-0.479-0.396-0.901-0.396
				c-0.862,0-1.414,0.661-1.414,1.718c0,1.07,0.506,1.745,1.414,1.745c0.305,0,0.604-0.097,0.771-0.253V48.52h-0.901v-0.448h1.395
				v1.79c-0.278,0.272-0.752,0.493-1.323,0.493c-1.115,0-1.913-0.817-1.913-2.205C50.903,46.781,51.727,45.945,52.868,45.945z"/>
			<path class="st1" d="M55.171,46.133c0-0.208,0.162-0.344,0.369-0.344c0.208,0,0.37,0.136,0.37,0.344
				c0,0.201-0.162,0.344-0.37,0.344C55.333,46.477,55.171,46.334,55.171,46.133z M55.269,47.125H55.8v3.152h-0.531V47.125z"/>
			<path class="st1" d="M57.126,47.56h-0.468v-0.402l0.493-0.033l0.064-0.882h0.448v0.882h0.85v0.435h-0.85v1.751
				c0,0.389,0.123,0.61,0.486,0.61c0.11,0,0.253-0.045,0.356-0.084l0.104,0.402c-0.175,0.059-0.389,0.117-0.583,0.117
				c-0.675,0-0.901-0.428-0.901-1.05V47.56z"/>
			<path class="st1" d="M59.46,46.023h0.545v1.783h1.978v-1.783h0.538v4.254h-0.538v-2.004h-1.978v2.004H59.46V46.023z"/>
			<path class="st1" d="M63.764,47.125h0.538v1.926c0,0.59,0.176,0.843,0.591,0.843c0.324,0,0.545-0.162,0.843-0.532v-2.237h0.538
				v3.152h-0.44l-0.046-0.493h-0.02c-0.292,0.344-0.609,0.57-1.037,0.57c-0.668,0-0.967-0.428-0.967-1.232V47.125z"/>
			<path class="st1" d="M67.487,45.66h0.531v1.258l-0.013,0.571c0.285-0.253,0.636-0.441,0.985-0.441
				c0.817,0,1.252,0.629,1.252,1.602c0,1.077-0.643,1.706-1.362,1.706c-0.292,0-0.622-0.143-0.901-0.389h-0.02l-0.045,0.312h-0.428
				V45.66z M68.789,49.907c0.52,0,0.901-0.474,0.901-1.251c0-0.694-0.233-1.161-0.83-1.161c-0.266,0-0.544,0.149-0.843,0.428v1.654
				C68.297,49.816,68.582,49.907,68.789,49.907z"/>
			<path class="st1" d="M74.502,48.98h-1.55l-0.409,1.297h-0.551l1.439-4.254h0.609l1.44,4.254H74.91L74.502,48.98z M74.365,48.545
				l-0.2-0.648c-0.149-0.474-0.286-0.94-0.422-1.433h-0.026c-0.136,0.493-0.272,0.959-0.421,1.433l-0.208,0.648H74.365z"/>
			<path class="st1" d="M76.801,50.543v1.063H76.27v-4.481h0.44l0.046,0.363h0.019c0.286-0.24,0.636-0.441,1.006-0.441
				c0.811,0,1.245,0.629,1.245,1.608c0,1.07-0.643,1.699-1.362,1.699c-0.292,0-0.583-0.136-0.875-0.363L76.801,50.543z
				 M77.572,49.907c0.52,0,0.901-0.474,0.901-1.251c0-0.694-0.233-1.161-0.83-1.161c-0.266,0-0.531,0.149-0.843,0.428v1.654
				C77.086,49.816,77.365,49.907,77.572,49.907z"/>
			<path class="st1" d="M80.591,50.543v1.063H80.06v-4.481h0.44l0.046,0.363h0.02c0.285-0.24,0.635-0.441,1.005-0.441
				c0.811,0,1.245,0.629,1.245,1.608c0,1.07-0.643,1.699-1.362,1.699c-0.292,0-0.583-0.136-0.875-0.363L80.591,50.543z
				 M81.363,49.907c0.52,0,0.901-0.474,0.901-1.251c0-0.694-0.233-1.161-0.83-1.161c-0.266,0-0.531,0.149-0.843,0.428v1.654
				C80.876,49.816,81.155,49.907,81.363,49.907z"/>
			<path class="st1" d="M83.765,49.563c0.272,0.221,0.552,0.376,0.928,0.376c0.415,0,0.622-0.22,0.622-0.493
				c0-0.324-0.376-0.467-0.72-0.597c-0.447-0.162-0.94-0.376-0.94-0.908c0-0.506,0.402-0.895,1.083-0.895
				c0.396,0,0.739,0.162,0.979,0.356l-0.253,0.337c-0.214-0.162-0.441-0.279-0.72-0.279c-0.396,0-0.577,0.214-0.577,0.454
				c0,0.292,0.344,0.408,0.7,0.544c0.454,0.169,0.96,0.357,0.96,0.954c0,0.512-0.408,0.94-1.154,0.94
				c-0.447,0-0.876-0.188-1.174-0.434L83.765,49.563z"/>
			<path class="st1" d="M87.908,46.133c0-0.208,0.162-0.344,0.369-0.344c0.208,0,0.37,0.136,0.37,0.344
				c0,0.201-0.162,0.344-0.37,0.344C88.071,46.477,87.908,46.334,87.908,46.133z M88.006,47.125h0.531v3.152h-0.531V47.125z"/>
			<path class="st1" d="M89.744,47.125h0.44l0.046,0.454h0.019c0.299-0.298,0.623-0.532,1.058-0.532c0.661,0,0.96,0.428,0.96,1.232
				v1.998h-0.532v-1.926c0-0.59-0.182-0.843-0.597-0.843c-0.324,0-0.545,0.168-0.862,0.486v2.283h-0.531V47.125z"/>
		</g>
		<path id="icon-github_2_" class="st1" d="M17.16,43.931c-2.188,0-3.962,1.82-3.962,4.064c0,1.794,1.135,3.317,2.708,3.855
			c0.198,0.037,0.272-0.088,0.272-0.195c0-0.096-0.003-0.351-0.006-0.691c-1.101,0.246-1.336-0.543-1.336-0.543
			c-0.181-0.47-0.439-0.594-0.439-0.594c-0.359-0.252,0.028-0.246,0.028-0.246c0.396,0.028,0.606,0.419,0.606,0.419
			c0.354,0.62,0.928,0.441,1.152,0.337c0.037-0.263,0.139-0.441,0.252-0.543c-0.88-0.102-1.806-0.45-1.806-2.007
			c0-0.444,0.156-0.807,0.408-1.09c-0.04-0.102-0.175-0.515,0.04-1.075c0,0,0.334-0.11,1.09,0.416
			c0.317-0.091,0.654-0.136,0.991-0.136c0.337,0.003,0.676,0.045,0.991,0.136c0.756-0.526,1.09-0.416,1.09-0.416
			c0.215,0.56,0.079,0.974,0.04,1.075c0.255,0.283,0.408,0.645,0.408,1.09c0,1.559-0.925,1.905-1.808,2.004
			c0.142,0.125,0.269,0.374,0.269,0.753c0,0.543-0.006,0.982-0.006,1.115c0,0.108,0.071,0.235,0.272,0.195
			c1.576-0.543,2.711-2.063,2.711-3.857C21.122,45.751,19.348,43.931,17.16,43.931z"/>
	</g>
</g>
<g id="mouse-over">
	<g>
		<g>
			<g>
				<rect x="64.95" y="53.851" class="st1" width="0.009" height="0.019"/>
				<polygon class="st1" points="60.217,58.037 60.783,57.983 60.785,58.009 60.838,58.58 61.402,58.526 61.515,59.769 
					62.07,59.718 62.181,60.942 62.424,60.92 62.747,60.894 62.861,62.145 63.427,62.095 63.543,63.347 68.07,62.933 67.957,61.681 
					68.508,61.629 68.338,59.756 68.89,59.705 68.5,55.446 68.325,55.463 68.325,55.461 67.933,55.496 67.877,54.877 67.323,54.929 
					67.323,54.924 67.323,54.924 67.491,56.763 66.926,56.811 66.7,54.336 66.693,54.336 66.693,54.34 65.568,54.442 65.738,56.297 
					65.172,56.349 64.945,53.875 63.812,53.978 64.041,56.451 63.472,56.504 62.967,50.959 61.847,51.061 62.328,56.317 
					62.314,56.317 62.566,59.074 62.002,59.125 61.836,57.306 61.269,57.356 61.267,57.332 61.261,57.332 61.205,56.711 
					60.093,56.813 60.207,58.061 60.218,58.061 				"/>
			</g>
			<g>
				<polygon class="st4" points="63.472,56.504 64.041,56.451 63.812,53.978 64.945,53.875 65.172,56.349 65.738,56.297 
					65.568,54.442 66.693,54.34 66.636,53.722 65.511,53.824 65.511,53.817 64.95,53.869 64.896,53.254 63.758,53.358 63.53,50.899 
					62.991,50.949 62.937,50.336 61.791,50.44 61.847,51.061 62.967,50.959 				"/>
				
					<rect x="66.812" y="54.303" transform="matrix(0.9957 -0.093 0.093 0.9957 -4.875 6.4804)" class="st4" width="0.567" height="2.489"/>
				<polygon class="st4" points="69.064,55.367 68.497,55.42 68.441,54.797 67.888,54.849 67.832,54.228 67.265,54.278 
					67.323,54.929 67.877,54.877 67.933,55.496 68.5,55.444 68.89,59.705 68.338,59.756 68.508,61.629 67.957,61.681 68.07,62.933 
					63.543,63.347 63.427,62.095 62.861,62.145 62.747,60.894 62.181,60.942 62.07,59.718 61.515,59.769 61.402,58.526 
					60.838,58.58 60.783,57.983 60.217,58.037 60.275,58.685 60.842,58.634 60.955,59.858 61.506,59.811 61.619,61.049 
					62.185,60.998 62.299,62.226 62.863,62.172 63.034,64.033 63.599,63.979 63.599,63.968 68.127,63.554 68.129,63.565 
					68.695,63.517 68.523,61.642 69.075,61.59 68.905,59.729 69.459,59.681 				"/>
				<polygon class="st4" points="61.209,56.711 61.269,57.356 61.836,57.306 62.002,59.125 62.566,59.074 61.834,51.058 
					61.267,51.106 61.775,56.658 61.23,56.707 61.174,56.09 60.035,56.192 60.035,56.19 59.468,56.244 59.638,58.117 60.205,58.063 
					60.092,56.813 				"/>
			</g>
		</g>
	</g>
</g>
<g id="border">
	<circle class="st5" cx="47.986" cy="47.986" r="45.986"/>
</g>
</svg>
