<?xml version="1.0" encoding="utf-8"?>
<!-- Generator: Adobe Illustrator 23.0.6, SVG Export Plug-In . SVG Version: 6.00 Build 0)  -->
<svg version="1.1" id="Layer_1" xmlns="http://www.w3.org/2000/svg" xmlns:xlink="http://www.w3.org/1999/xlink" x="0px" y="0px"
	 viewBox="0 0 188.261 192.174" style="enable-background:new 0 0 188.261 192.174;" xml:space="preserve">
<style type="text/css">
	.fake{fill:url(#this_fixes_gradient);}
	.st0{clip-path:url(#gs-1-bb-clip);}
	.st1{fill:#F1F1F1;}
	.st2{fill:#44AAAE;}
	.st3{fill:#3EAAAF;}
	.st5{font-size:14px;}
	.st6{fill:#666666;}
	.st7{letter-spacing:29;}
	.st8{fill:#FFFFFF;}
	.st9{fill:none;stroke:#DCDFE2;stroke-miterlimit:10;}
	.st10{fill:none;stroke:#9CA1A6;stroke-linecap:round;stroke-linejoin:round;stroke-miterlimit:10;}
	.st11{fill:#FFFFFF;stroke:#9CA1A6;stroke-linecap:round;stroke-linejoin:round;stroke-miterlimit:10;}
	.st12{fill:#D0D2D3;}
	.st13{fill:#686B6E;}
	.st14{font-size:16px;}
	.st15{fill:none;stroke:#9EA3A8;stroke-linecap:round;stroke-linejoin:round;stroke-miterlimit:10;}
	.st16{fill:none;stroke:#44AAAE;stroke-linecap:round;stroke-linejoin:round;stroke-miterlimit:10;}
	.st17{fill:#D8D8D8;}
	.st18{fill:none;stroke:#D8D8D8;stroke-linecap:round;stroke-linejoin:round;stroke-miterlimit:10;}
	.st19{font-size:12px;}
	.st20{fill:none;stroke:#9D9D9D;stroke-linecap:round;stroke-linejoin:round;stroke-miterlimit:10;}
</style>
<g>
	<defs>
		<circle id="gs-1-bb-circle" cx="95.092" cy="97.119" r="85.97"/>
	</defs>
	<clipPath id="gs-1-bb-clip">
		<use xlink:href="#gs-1-bb-circle"  style="overflow:visible;"/>
	</clipPath>
	<g class="st0">
		<g>
			<rect x="-131.268" y="18.98" class="st1" width="651.75" height="2"/>
			<rect x="-131.268" y="18.98" class="st2" width="72.686" height="2"/>
			<g>
				<text transform="matrix(1 0 0 1 -131.5184 5.7914)"><tspan x="0" y="0" class="st3 st4 st5">Repositories</tspan><tspan x="74.87" y="0" class="st6 st4 st5">        Settings</tspan><tspan x="147.616" y="0" class="st6 st4 st5 st7">	</tspan><tspan x="180.143" y="0" class="st6 st4 st5">Subscription</tspan></text>
			</g>
		</g>
		<g>
			<g>
				<g>
					<path class="st8" d="M146.244,64.164c0,1.65-1.35,3-3,3h-276.68c-1.65,0-3-1.35-3-3v-23c0-1.65,1.35-3,3-3h276.68
						c1.65,0,3,1.35,3,3V64.164z"/>
					<path class="st9" d="M146.244,64.164c0,1.65-1.35,3-3,3h-276.68c-1.65,0-3-1.35-3-3v-23c0-1.65,1.35-3,3-3h276.68
						c1.65,0,3,1.35,3,3V64.164z"/>
				</g>
				<g>
					<g id="icon-tofuburger_1_">
						<g>
							<line class="st10" x1="-120.22" y1="47.51" x2="-113.551" y2="47.51"/>
							<line class="st10" x1="-126.888" y1="47.51" x2="-120.22" y2="47.51"/>
							<line class="st10" x1="-126.888" y1="52.511" x2="-113.551" y2="52.511"/>
							<line class="st10" x1="-126.888" y1="57.513" x2="-113.551" y2="57.513"/>
						</g>
					</g>
					<circle class="st11" cx="-124.33" cy="47.51" r="1.999"/>
					<circle class="st11" cx="-116.885" cy="52.511" r="1.999"/>
					<circle class="st11" cx="-123.377" cy="57.513" r="1.999"/>
				</g>
				<g>
					<text transform="matrix(1 0 0 1 -28.9912 57.6631)" class="st12 st4 st5">Filter Repositories </text>
				</g>
			</g>
			<text transform="matrix(1 0 0 1 -114.9443 106.0464)" class="st13 st4 st14">travis-ci/newfoundtest</text>
			<g>
				<g id="icon-invoice_7_">
					<g>
						<polyline class="st10" points="-137.357,145.794 -131.243,145.794 -131.243,133.451 -142.59,133.451 -142.59,145.794
							-140.568,145.794 						"/>
						<path class="st10" d="M-137.357,145.794"/>
						<path class="st10" d="M-140.568,145.794"/>
					</g>
				</g>
				<line class="st10" x1="-142.59" y1="142.994" x2="-131.243" y2="142.994"/>
				<polygon class="st10" points="-140.307,144.689 -140.307,147.446 -138.913,146.161 -137.678,147.396 -137.678,144.689 				"/>
				<line class="st10" x1="-140.568" y1="133.815" x2="-140.568" y2="142.633"/>
				<line class="st15" x1="-139.132" y1="135.324" x2="-138.502" y2="135.324"/>
				<line class="st15" x1="-139.132" y1="137.279" x2="-138.502" y2="137.279"/>
				<line class="st15" x1="-139.132" y1="139.233" x2="-138.502" y2="139.233"/>
				<line class="st15" x1="-139.132" y1="141.188" x2="-138.502" y2="141.188"/>
			</g>
			<text transform="matrix(1 0 0 1 -122.8848 146.0937)" class="st13 st4 st14">travis-ci/newfoundtest2</text>
			<g>
				<path class="st2" d="M101.944,100.179c0-5.52-4.473-9.995-9.992-10v0h-20v0c-0.002,0-0.005,0-0.008,0c-5.523,0-10,4.477-10,10
					s4.477,10,10,10c0.002,0,0.005,0,0.008,0v0h20v0C97.471,110.175,101.944,105.7,101.944,100.179z"/>
				<g>
					<circle class="st8" cx="92.049" cy="100.179" r="8.5"/>
					<polyline class="st16" points="95.568,96.979 90.996,103.96 87.568,101.139 					"/>
				</g>
			</g>
			<g>
				<path class="st17" d="M61.944,140.448c0,5.52,4.473,9.995,9.992,10v0h20v0c0.002,0,0.005,0,0.008,0c5.523,0,10-4.477,10-10
					s-4.477-10-10-10c-0.002,0-0.005,0-0.008,0v0h-20v0C66.417,130.453,61.944,134.928,61.944,140.448z"/>
				<g>
					<circle class="st8" cx="71.839" cy="140.448" r="8.5"/>
				</g>
				<g id="icon-failed_4_">
					<line class="st18" x1="67.839" y1="136.448" x2="75.839" y2="144.448"/>
					<line class="st18" x1="75.839" y1="136.448" x2="67.839" y2="144.448"/>
				</g>
			</g>
			<g>
				<g>
					<path class="st8" d="M196.372,107.179c0,1.65-1.35,3-3,3h-67.627c-1.65,0-3-1.35-3-3v-14c0-1.65,1.35-3,3-3h67.627
						c1.65,0,3,1.35,3,3V107.179z"/>
					<path class="st9" d="M196.372,107.179c0,1.65-1.35,3-3,3h-67.627c-1.65,0-3-1.35-3-3v-14c0-1.65,1.35-3,3-3h67.627
						c1.65,0,3,1.35,3,3V107.179z"/>
				</g>
				<text transform="matrix(1 0 0 1 146.244 104.7835)" class="st6 st4 st19">Settings</text>
				<path id="icon-settings_5_" class="st20" d="M138.928,101.596l-0.888-0.518c0.029-0.194,0.06-0.388,0.06-0.59
					c0-0.221-0.031-0.434-0.065-0.644l0.878-0.528c0.377-0.227,0.5-0.721,0.274-1.098l-0.678-1.128
					c-0.227-0.377-0.721-0.5-1.098-0.273l-0.881,0.53c0,0-0.597-0.405-0.938-0.539v-1.019c0-0.44-0.36-0.8-0.8-0.8h-1.317
					c-0.44,0-0.8,0.36-0.8,0.8v1.018c-0.357,0.141-0.681,0.339-0.979,0.573l-0.89-0.519c-0.38-0.222-0.872-0.092-1.094,0.288
					l-0.663,1.137c-0.222,0.38-0.092,0.873,0.288,1.095l0.888,0.518c-0.029,0.194-0.06,0.388-0.06,0.59
					c0,0.221,0.031,0.434,0.065,0.644l-0.878,0.528c-0.377,0.227-0.5,0.721-0.274,1.098l0.679,1.128
					c0.227,0.377,0.721,0.5,1.098,0.273l0.881-0.53c0.287,0.219,0.597,0.405,0.938,0.539v1.018c0,0.44,0.36,0.8,0.8,0.8h1.317
					c0.44,0,0.8-0.36,0.8-0.8v-1.018c0,0,0.681-0.339,0.979-0.573l0.89,0.519c0.38,0.222,0.872,0.092,1.094-0.288l0.663-1.138
					C139.438,102.311,139.309,101.818,138.928,101.596z M134.132,102.122c-0.902,0-1.634-0.732-1.634-1.634
					c0-0.902,0.732-1.634,1.634-1.634c0.902,0,1.634,0.732,1.634,1.634C135.766,101.39,135.035,102.122,134.132,102.122z"/>
			</g>
			<g>
				<g>
					<path class="st8" d="M196.372,147.227c0,1.65-1.35,3-3,3h-67.627c-1.65,0-3-1.35-3-3v-14c0-1.65,1.35-3,3-3h67.627
						c1.65,0,3,1.35,3,3V147.227z"/>
					<path class="st9" d="M196.372,147.227c0,1.65-1.35,3-3,3h-67.627c-1.65,0-3-1.35-3-3v-14c0-1.65,1.35-3,3-3h67.627
						c1.65,0,3,1.35,3,3V147.227z"/>
				</g>
				<text transform="matrix(1 0 0 1 146.244 144.8308)" class="st6 st4 st19">Settings</text>
				<path id="icon-settings_4_" class="st20" d="M138.928,141.644l-0.888-0.518c0.029-0.194,0.06-0.388,0.06-0.59
					c0-0.221-0.031-0.434-0.065-0.644l0.878-0.528c0.377-0.227,0.5-0.721,0.274-1.098l-0.678-1.128
					c-0.227-0.377-0.721-0.5-1.098-0.273l-0.881,0.53c0,0-0.597-0.405-0.938-0.539v-1.019c0-0.44-0.36-0.8-0.8-0.8h-1.317
					c-0.44,0-0.8,0.36-0.8,0.8v1.018c-0.357,0.141-0.681,0.339-0.979,0.573l-0.89-0.519c-0.38-0.222-0.872-0.092-1.094,0.288
					l-0.663,1.137c-0.222,0.38-0.092,0.873,0.288,1.095l0.888,0.518c-0.029,0.194-0.06,0.388-0.06,0.59
					c0,0.221,0.031,0.434,0.065,0.644l-0.878,0.528c-0.377,0.227-0.5,0.721-0.274,1.098l0.679,1.128
					c0.227,0.377,0.721,0.5,1.098,0.273l0.881-0.53c0.287,0.219,0.597,0.405,0.938,0.539v1.018c0,0.44,0.36,0.8,0.8,0.8h1.317
					c0.44,0,0.8-0.36,0.8-0.8v-1.018c0,0,0.681-0.339,0.979-0.573l0.89,0.519c0.38,0.222,0.872,0.092,1.094-0.288l0.663-1.138
					C139.438,142.358,139.309,141.865,138.928,141.644z M134.132,142.17c-0.902,0-1.634-0.732-1.634-1.634s0.732-1.634,1.634-1.634
					c0.902,0,1.634,0.732,1.634,1.634S135.035,142.17,134.132,142.17z"/>
			</g>
			<g>
				<g id="icon-invoice_3_">
					<g>
						<polyline class="st10" points="-131.417,106.533 -125.303,106.533 -125.303,94.19 -136.65,94.19 -136.65,106.533
							-134.627,106.533 						"/>
						<path class="st10" d="M-131.417,106.533"/>
						<path class="st10" d="M-134.627,106.533"/>
					</g>
				</g>
				<line class="st10" x1="-136.65" y1="103.733" x2="-125.303" y2="103.733"/>
				<polygon class="st10" points="-134.366,105.429 -134.366,108.185 -132.973,106.9 -131.737,108.136 -131.737,105.429 				"/>
				<line class="st10" x1="-134.627" y1="94.554" x2="-134.627" y2="103.372"/>
				<line class="st15" x1="-133.191" y1="96.063" x2="-132.562" y2="96.063"/>
				<line class="st15" x1="-133.191" y1="98.018" x2="-132.562" y2="98.018"/>
				<line class="st15" x1="-133.191" y1="99.973" x2="-132.562" y2="99.973"/>
				<line class="st15" x1="-133.191" y1="101.927" x2="-132.562" y2="101.927"/>
			</g>
		</g>
	</g>
	<use xlink:href="#gs-1-bb-circle"  style="overflow:visible;fill:none;stroke:#E7E8E6;stroke-width:4;stroke-miterlimit:10;"/>
</g>
</svg>
