<?xml version="1.0" encoding="utf-8"?>
<!-- Generator: Adobe Illustrator 16.0.4, SVG Export Plug-In . SVG Version: 6.00 Build 0)  -->
<!DOCTYPE svg PUBLIC "-//W3C//DTD SVG 1.1//EN" "http://www.w3.org/Graphics/SVG/1.1/DTD/svg11.dtd">
<svg version="1.1" id="Layer_1" xmlns="http://www.w3.org/2000/svg" xmlns:xlink="http://www.w3.org/1999/xlink" x="0px" y="0px"
	 width="397.299px" height="119.108px" viewBox="0 0 397.299 119.108" enable-background="new 0 0 397.299 119.108"
	 xml:space="preserve">
<g>
	
		<image overflow="visible" opacity="0.1" width="1333" height="602" xlink:href="392229F0603DFEAA.png"  transform="matrix(0.24 0 0 0.24 -12.6143 -12.6143)">
	</image>
	<g>
		<g>
			<polygon fill="#BBCAC6" points="294.665,109.152 228.193,40.046 209.505,40.046 177.47,0 117.4,0 0,109.152 0,119.16 
				294.665,119.16 			"/>
			<g>
				<polygon fill="#CAD8D7" points="263.641,77.142 228.193,40.046 209.505,40.046 177.47,0 117.4,0 108.58,8.013 169.454,8.013 
					201.49,48.06 221.179,48.06 255.625,85.158 254.624,109.152 263.641,109.152 				"/>
			</g>
		</g>
	</g>
</g>
<g>
	
		<image overflow="visible" opacity="0.1" width="867" height="309" xlink:href="392229F0603DFEAE.png"  transform="matrix(0.24 0 0 0.24 189.2192 51.5386)">
	</image>
	<g>
		<polygon fill="#BBCAC6" points="195.699,109.152 281.896,58.019 326.86,58.019 350.841,87.996 364.83,87.996 390.81,109.152 
			390.81,119.16 195.699,119.16 		"/>
	</g>
</g>
<polygon fill="#B4C0BF" points="233.388,109.152 210.191,109.152 267.733,72.18 290.93,72.18 "/>
<polygon fill="#CAD8D7" points="323.482,63.788 346.859,93.758 363.043,93.758 381.624,109.152 390.77,109.152 364.83,87.996 
	350.841,87.996 326.86,58.019 281.896,58.019 272.146,63.788 "/>
</svg>
