<?xml version="1.0" encoding="utf-8"?>
<!-- Generator: Adobe Illustrator 16.0.4, SVG Export Plug-In . SVG Version: 6.00 Build 0)  -->
<!DOCTYPE svg PUBLIC "-//W3C//DTD SVG 1.1//EN" "http://www.w3.org/Graphics/SVG/1.1/DTD/svg11.dtd">
<svg version="1.1" id="Layer_1" xmlns="http://www.w3.org/2000/svg" xmlns:xlink="http://www.w3.org/1999/xlink" x="0px" y="0px"
	 width="331.68px" height="128.235px" viewBox="0 0 331.68 128.235" enable-background="new 0 0 331.68 128.235"
	 xml:space="preserve">
<g>
	<g>
		
			<image overflow="visible" opacity="0.1" width="1382" height="561" xlink:href="6AB008E8BA7227E6.png"  transform="matrix(0.24 0 0 0.24 0 0)">
		</image>
		<g>
			<polygon fill="#DDC782" points="325.052,117.99 275.16,64.12 241.545,64.12 185.894,6.48 96.599,6.48 73.956,41.12 46.645,41.12 
				6.48,118.112 6.48,128.12 325.052,128.12 			"/>
		</g>
	</g>
</g>
<polygon fill="#E2D5A8" points="95.996,6.48 88.886,17.594 178.145,17.594 234.905,76.345 267.272,76.345 307.058,118.301 
	325.052,117.99 275.16,64.12 241.545,64.12 185.894,6.48 "/>
<polygon fill="#D6BA6B" points="90.997,34.783 80.208,53.964 52.821,53.964 17.847,117.112 94.667,117.112 114.246,68.347 
	93.186,68.347 108.974,34.78 "/>
</svg>
