<?xml version="1.0" encoding="utf-8"?>
<!-- Generator: Adobe Illustrator 16.0.4, SVG Export Plug-In . SVG Version: 6.00 Build 0)  -->
<!DOCTYPE svg PUBLIC "-//W3C//DTD SVG 1.1//EN" "http://www.w3.org/Graphics/SVG/1.1/DTD/svg11.dtd">
<svg version="1.1" id="Layer_1" xmlns="http://www.w3.org/2000/svg" xmlns:xlink="http://www.w3.org/1999/xlink" x="0px" y="0px"
	 width="428.987px" height="182.097px" viewBox="0 0 428.987 182.097" enable-background="new 0 0 428.987 182.097"
	 xml:space="preserve">
<g>
	<polygon fill="#C9D7D4" points="394,127.112 276.388,93.224 277.151,93.225 265.363,73.113 255.724,73.113 251.999,65.205 
		222.836,65.205 209.363,79.792 194.416,79.792 179.263,93.112 131.647,93.112 122.503,85.798 117.563,85.798 109.096,75.213 
		84.21,75.213 63.913,93.112 49,93.112 0,133.112 45.016,163.097 178,163.097 223,182.097 403,182.097 428.987,154.112 	"/>
	<polygon fill="#C1D0CE" points="163.665,143.162 145.467,143.162 153.893,135.828 165.067,134.812 170.308,130.252 
		178.498,130.252 	"/>
	<polygon fill="#CFDEDD" points="182.445,127.289 195.292,137.871 204.185,137.871 214.396,143.162 219.423,143.162 
		205.168,135.837 197.48,135.837 184.302,125.252 160.513,125.252 156.945,127.289 	"/>
	<polygon fill="#C1D0CE" points="76.928,93.123 68.737,93.123 83.57,80.213 91.761,80.213 	"/>
	<polygon fill="#CFDEDD" points="108.278,77.25 116.532,87.832 122.246,87.832 128.808,93.123 132.037,93.123 122.878,85.798 
		117.938,85.798 109.471,75.213 84.178,75.213 81.886,77.25 	"/>
	<polygon fill="#CFDEDD" points="206.86,82.795 209.363,79.792 194.416,79.792 191,82.795 	"/>
	<polygon fill="#C1D0CE" points="210.364,87.8 223.837,73.213 232.984,73.213 214.967,93.202 189.338,93.145 195.417,87.8 	"/>
	<polygon fill="#CFDEDD" points="249.997,68.208 253.722,76.116 263.361,76.116 273.387,93.221 277.151,93.225 265.363,73.113 
		255.724,73.113 251.999,65.205 222.836,65.205 220.062,68.208 	"/>
</g>
<g>
	<path fill="#828E88" d="M332.502,144.806l-0.859-2.127c-0.063-0.153-0.24-0.229-0.393-0.165l-0.524,0.214l0.576-0.533
		c0.122-0.114,0.13-0.308,0.018-0.43l-1.546-1.688c-0.113-0.121-0.306-0.129-0.428-0.017l-0.332,0.308
		c-0.026-0.028-0.053-0.058-0.08-0.085l0.316-0.521c0.088-0.142,0.042-0.329-0.099-0.417l-1.948-1.196
		c-0.141-0.087-0.328-0.042-0.414,0.101l-0.193,0.317c-0.018-0.01-0.035-0.02-0.054-0.028l0.09-0.414
		c0.035-0.164-0.069-0.326-0.231-0.36l-2.232-0.48c-0.16-0.036-0.322,0.069-0.357,0.232l-0.06,0.276
		c-0.049-0.003-0.094-0.005-0.139-0.006l-0.012-0.317c-0.006-0.167-0.146-0.299-0.312-0.293l-2.281,0.083
		c-0.165,0.005-0.296,0.146-0.291,0.313l0.009,0.226l-0.245,0.009l-0.011-0.294c-0.005-0.166-0.146-0.299-0.311-0.292l-2.282,0.081
		c-0.164,0.005-0.296,0.146-0.29,0.314l0.01,0.285l-0.257,0.008l-0.01-0.301c-0.006-0.166-0.145-0.298-0.312-0.292l-2.281,0.083
		c-0.164,0.006-0.296,0.147-0.29,0.313l0.011,0.291l-0.269,0.009l-0.009-0.272c-0.007-0.166-0.146-0.299-0.312-0.292l-2.281,0.082
		c-0.164,0.005-0.296,0.147-0.29,0.313l0.009,0.264l-0.238,0.007l-0.008-0.21c-0.006-0.171-0.149-0.306-0.319-0.299l-2.343,0.084
		c-0.17,0.006-0.305,0.15-0.299,0.322l0.007,0.2l-0.198,0.007l-0.01-0.252c-0.006-0.176-0.153-0.312-0.326-0.306l-2.388,0.086
		c-0.174,0.006-0.311,0.154-0.305,0.328l0.008,0.241l-0.279,0.009l-0.008-0.253c-0.007-0.178-0.156-0.318-0.335-0.312l-2.443,0.089
		c-0.177,0.005-0.316,0.156-0.311,0.336l0.008,0.242l-0.261,0.009l-0.011-0.287c-0.006-0.187-0.163-0.333-0.348-0.327l-2.547,0.092
		c-0.186,0.008-0.332,0.164-0.325,0.351l0.011,0.277l-0.407,0.014l-0.009-0.304c-0.008-0.187-0.164-0.333-0.35-0.326l-2.547,0.092
		c-0.185,0.006-0.331,0.164-0.325,0.351l0.011,0.293l-0.227,0.007l-0.012-0.325c-0.007-0.166-0.146-0.298-0.312-0.292l-2.28,0.082
		c-0.166,0.006-0.297,0.147-0.291,0.312l0.011,0.318l-0.266,0.009l-0.011-0.299c-0.006-0.166-0.146-0.299-0.312-0.293l-2.282,0.083
		c-0.164,0.006-0.296,0.147-0.29,0.314l0.009,0.288l-0.236,0.008l-0.008-0.236c-0.007-0.171-0.15-0.306-0.32-0.3l-2.344,0.085
		c-0.17,0.006-0.304,0.15-0.298,0.322l0.007,0.226l-0.198,0.008l-0.01-0.277c-0.007-0.176-0.153-0.312-0.327-0.307l-2.388,0.085
		c-0.174,0.006-0.311,0.153-0.305,0.329l0.01,0.269l-0.279,0.009l-0.01-0.279c-0.006-0.179-0.156-0.318-0.335-0.313l-2.442,0.089
		c-0.178,0.006-0.318,0.157-0.312,0.336l0.009,0.27l-0.261,0.008l-0.011-0.313c-0.006-0.186-0.162-0.333-0.348-0.327l-2.548,0.092
		c-0.185,0.007-0.331,0.164-0.324,0.351l0.011,0.304l-0.406,0.014l-0.012-0.329c-0.007-0.188-0.164-0.334-0.348-0.327l-2.548,0.092
		c-0.186,0.007-0.331,0.164-0.325,0.351l0.012,0.319l-0.374,0.012l-0.083-0.414c-0.037-0.184-0.216-0.303-0.397-0.265l-1.949,0.532
		c-0.182,0.036-0.3,0.217-0.264,0.399l0.129,0.641c-0.172,0.068-0.349,0.142-0.527,0.219l-0.331-0.647
		c-0.084-0.165-0.288-0.232-0.453-0.146l-2.268,1.171c-0.164,0.085-0.231,0.29-0.146,0.456l0.394,0.772
		c-0.097,0.071-0.19,0.145-0.286,0.217l-0.603-0.639c-0.146-0.155-0.386-0.155-0.533,0l-2.023,2.15
		c-0.146,0.153-0.146,0.408,0,0.563l0.636,0.675c-0.089,0.139-0.175,0.278-0.258,0.423l-0.689-0.362
		c-0.188-0.1-0.418-0.021-0.509,0.173l-1.282,2.725c-0.091,0.194-0.011,0.433,0.178,0.532l1.031,0.543
		c-0.015,0.093-0.027,0.188-0.04,0.282c-0.053-0.022-0.111-0.034-0.172-0.029l-1.201,0.107c-0.212,0.02-0.373,0.211-0.355,0.424
		l0.227,3.034c0.015,0.215,0.201,0.374,0.414,0.354l1.146-0.103c0.031,0.163,0.065,0.323,0.104,0.48l-0.976,0.419
		c-0.196,0.084-0.294,0.317-0.219,0.517l1.061,2.815c0.075,0.201,0.298,0.296,0.494,0.212l1.123-0.481
		c0.017-0.006,0.029-0.021,0.044-0.029c0.051,0.075,0.102,0.15,0.153,0.224c-0.014,0.014-0.031,0.02-0.043,0.035l-0.82,0.975
		c-0.139,0.163-0.123,0.417,0.031,0.563l2.118,2.008c0.154,0.147,0.395,0.135,0.533-0.029l0.725-0.86
		c0.093,0.074,0.187,0.149,0.277,0.221l-0.186,0.791c-0.051,0.208,0.077,0.428,0.281,0.489l2.245,0.802
		c0.155,0.047,13.595-0.089,13.595-0.089l0.656-1.729l42.13-2.704l4.654-1.203l2.609-4.277l0.764-4.83l-3.083-5.14l0.113,0.062
		l1.17,0.933l0.815,2.016c0.062,0.154,0.239,0.229,0.394,0.166l0.907-0.372C332.49,145.137,332.564,144.96,332.502,144.806z"/>
	<path fill="#94A39E" d="M333.067,150.386l-0.819-0.226c0.008-0.061,0.018-0.121,0.023-0.185l0.715-0.049
		c0.17-0.012,0.302-0.161,0.29-0.334l-0.159-2.371c-0.012-0.172-0.162-0.303-0.333-0.292l-0.748,0.05
		c-0.012-0.047-0.021-0.095-0.032-0.141l0.666-0.296c0.156-0.069,0.229-0.256,0.159-0.413l-0.954-2.175
		c-0.068-0.157-0.254-0.229-0.411-0.16l-0.645,0.286c-0.034-0.054-0.067-0.107-0.101-0.161l0.571-0.6
		c0.119-0.125,0.115-0.325-0.009-0.444l-1.706-1.644c-0.124-0.119-0.323-0.116-0.44,0.01l-0.438,0.46
		c-0.041-0.031-0.082-0.06-0.124-0.089l0.253-0.627c0.063-0.161-0.013-0.344-0.172-0.409l-2.189-0.892
		c-0.157-0.063-0.341,0.013-0.405,0.173l-0.227,0.561c-0.05-0.01-0.101-0.016-0.151-0.023l0.031-0.585
		c0.008-0.171-0.125-0.32-0.297-0.329l-2.359-0.123c-0.172-0.009-0.318,0.124-0.328,0.297l-0.036,0.707l-0.229,0.016l-0.046-0.766
		c-0.011-0.172-0.159-0.305-0.33-0.295l-2.357,0.147c-0.171,0.01-0.303,0.16-0.292,0.333l0.048,0.781l-0.247,0.016l-0.044-0.728
		c-0.012-0.177-0.164-0.312-0.34-0.303l-2.422,0.151c-0.176,0.011-0.311,0.165-0.301,0.342l0.045,0.743l-0.205,0.015l-0.048-0.8
		c-0.012-0.181-0.166-0.318-0.347-0.308l-2.469,0.151c-0.179,0.013-0.318,0.169-0.307,0.35l0.05,0.815l-0.289,0.02l-0.05-0.829
		c-0.011-0.185-0.171-0.326-0.354-0.314l-2.524,0.157c-0.185,0.011-0.325,0.172-0.314,0.356l0.051,0.844l-0.289,0.021l-0.053-0.867
		c-0.01-0.171-0.158-0.304-0.33-0.292l-2.359,0.146c-0.171,0.011-0.303,0.16-0.292,0.333l0.055,0.881l-0.277,0.019l-0.052-0.863
		c-0.011-0.174-0.16-0.306-0.331-0.294l-2.357,0.145c-0.171,0.011-0.303,0.161-0.292,0.333l0.052,0.881l-0.244,0.016l-0.051-0.826
		c-0.01-0.176-0.162-0.313-0.338-0.302l-2.424,0.149c-0.175,0.012-0.311,0.166-0.301,0.343l0.052,0.842l-0.204,0.014l-0.055-0.897
		c-0.012-0.181-0.168-0.319-0.347-0.308l-2.47,0.152c-0.179,0.011-0.317,0.168-0.306,0.349l0.056,0.913l-0.288,0.021l-0.058-0.927
		c-0.011-0.185-0.17-0.326-0.354-0.315l-2.524,0.157c-0.185,0.011-0.325,0.171-0.313,0.356l0.056,0.943l-0.269,0.018l-0.062-0.994
		c-0.012-0.191-0.178-0.339-0.369-0.327l-2.632,0.163c-0.191,0.013-0.339,0.18-0.327,0.373l0.061,1.009l-0.418,0.028l-0.063-1.04
		c-0.012-0.192-0.178-0.34-0.369-0.328l-2.633,0.163c-0.19,0.012-0.338,0.18-0.326,0.372l0.062,1.058l-0.465,0.03l-0.061-1.021
		c-0.011-0.191-0.178-0.34-0.368-0.328l-2.635,0.163c-0.192,0.012-0.34,0.179-0.327,0.372l0.067,1.136
		c0.002,0.009,0.007,0.014,0.007,0.022c-0.098,0.023-0.195,0.04-0.292,0.066c-0.003-0.006-0.003-0.014-0.005-0.02l-0.504-1.021
		c-0.084-0.173-0.295-0.242-0.466-0.157l-2.363,1.181c-0.172,0.086-0.243,0.297-0.157,0.471l0.438,0.887
		c-0.082,0.052-0.163,0.104-0.242,0.159l-0.722-0.724c-0.136-0.137-0.357-0.137-0.493,0l-1.864,1.878
		c-0.134,0.137-0.135,0.36,0.001,0.496l0.605,0.608c-0.09,0.117-0.171,0.236-0.255,0.355l-0.644-0.321
		c-0.172-0.086-0.382-0.014-0.467,0.158l-1.174,2.377c-0.086,0.173-0.014,0.384,0.157,0.47l0.806,0.403
		c-0.017,0.1-0.027,0.2-0.038,0.299l-1.122,0.094c-0.19,0.016-0.334,0.187-0.318,0.378l0.215,2.645
		c0.015,0.191,0.185,0.336,0.375,0.321l1.085-0.09c0.029,0.141,0.055,0.282,0.089,0.419l-0.916,0.371
		c-0.178,0.072-0.265,0.277-0.192,0.456l0.982,2.461c0.071,0.179,0.277,0.266,0.454,0.195l1.004-0.407
		c0.051,0.074,0.101,0.146,0.154,0.217l-0.728,0.82c-0.128,0.145-0.115,0.367,0.027,0.496l1.968,1.768
		c0.142,0.13,0.363,0.116,0.49-0.027l0.755-0.851c0.005-0.005,0.006-0.01,0.009-0.015c0.104,0.058,0.207,0.115,0.316,0.167
		l-0.255,0.904c-0.052,0.186,0.056,0.38,0.24,0.432l2.54,0.722c0.186,0.052,0.379-0.058,0.43-0.243l0.26-0.923
		c0.092,0.01,0.178,0.025,0.27,0.034l0.056,0.004c0.015,0.001,0.043,0,0.062,0.001l0.058,0.796c0.013,0.191,0.181,0.338,0.372,0.324
		l2.631-0.193c0.191-0.014,0.337-0.183,0.323-0.374l-0.054-0.747l0.337-0.018l0.057,0.806c0.013,0.19,0.182,0.337,0.373,0.322
		l2.633-0.188c0.191-0.014,0.337-0.184,0.322-0.375l-0.053-0.744l0.259-0.014l0.057,0.786c0.014,0.192,0.181,0.339,0.372,0.325
		l2.632-0.192c0.189-0.015,0.335-0.183,0.322-0.375l-0.052-0.723l0.27-0.016l0.051,0.72c0.014,0.185,0.176,0.324,0.357,0.311
		l2.524-0.184c0.184-0.014,0.323-0.175,0.31-0.358l-0.048-0.659l0.273-0.015l0.045,0.655c0.015,0.192,0.182,0.339,0.373,0.324
		l2.631-0.192c0.191-0.014,0.337-0.182,0.322-0.374l-0.042-0.593l0.338-0.017l0.046,0.647c0.014,0.192,0.181,0.338,0.372,0.325
		l2.632-0.19c0.191-0.015,0.336-0.184,0.322-0.375l-0.041-0.586l0.26-0.014l0.045,0.629c0.014,0.192,0.182,0.339,0.372,0.325
		l2.632-0.193c0.191-0.015,0.337-0.183,0.322-0.375l-0.041-0.565l0.271-0.014l0.041,0.561c0.011,0.185,0.173,0.326,0.356,0.312
		l2.524-0.185c0.183-0.014,0.322-0.175,0.31-0.358l-0.036-0.503l0.289-0.015l0.033,0.485c0.013,0.179,0.171,0.316,0.35,0.303
		l2.468-0.179c0.179-0.013,0.316-0.171,0.303-0.352l-0.039-0.56l0.282-0.028l0.042,0.582c0.012,0.179,0.166,0.312,0.343,0.299
		l2.42-0.177c0.175-0.014,0.31-0.169,0.296-0.345l-0.047-0.659l0.271-0.026l0.045,0.628c0.012,0.172,0.163,0.303,0.333,0.29
		l2.357-0.171c0.171-0.013,0.301-0.162,0.288-0.336l-0.051-0.703l0.345-0.034l0.052,0.711c0.012,0.174,0.163,0.304,0.334,0.291
		l2.357-0.17c0.17-0.013,0.301-0.163,0.288-0.336l-0.057-0.789l0.169-0.017l0.09,0.656c0.025,0.171,0.184,0.291,0.354,0.267
		l2.339-0.33c0.171-0.024,0.29-0.183,0.267-0.355l-0.117-0.834c0.04-0.016,0.082-0.029,0.121-0.046l0.524,0.751
		c0.099,0.141,0.294,0.176,0.435,0.076l1.934-1.369c0.14-0.1,0.174-0.295,0.075-0.437l-0.506-0.723
		c0.049-0.05,0.096-0.102,0.145-0.151l0.787,0.483c0.146,0.091,0.339,0.045,0.429-0.103l1.235-2.025
		c0.09-0.147,0.045-0.343-0.103-0.433l-0.671-0.415c0.039-0.087,0.082-0.171,0.12-0.261l0.791,0.218
		c0.167,0.045,0.34-0.054,0.386-0.221l0.624-2.293C333.332,150.605,333.233,150.432,333.067,150.386z M282.141,160.61l0.02-0.552
		c-4.448-0.405-7.001-3.354-7.189-8.305c-0.057-1.552,0.624-3.175,1.92-4.571c1.69-1.823,4.179-3,6.51-3.072l40.068-2.693
		c0.52-0.022,0.873-0.032,1.248-0.016c0.152,0.007,0.311,0.02,0.486,0.035c1.715,0.156,3.303,1.182,4.472,2.886
		c1.111,1.62,1.676,3.679,1.51,5.51c-0.349,3.839-2.96,6.902-6.202,7.281l-14.086,1.387l-26.629,1.43l-0.078,0.009
		c-0.21,0.038-1.72,0.134-2.024,0.12L282.141,160.61z"/>
	<path fill="#767F79" d="M331.731,149.882c0.365-4.032-2.486-8.631-6.479-8.995c-0.621-0.056-1.018-0.055-1.808-0.021l-40.08,2.695
		c-4.442,0.137-9.101,4.009-8.941,8.214c0.203,5.341,3.003,8.407,7.687,8.833c0.265,0.025,1.962-0.082,2.187-0.127l26.628-1.43
		l14.11-1.388C328.479,157.26,331.354,154.038,331.731,149.882z"/>
	<path fill="#707973" d="M328.651,156.044c1.67-1.409,2.849-3.608,3.08-6.162c0.365-4.032-2.486-8.631-6.479-8.995
		c-0.621-0.056-1.018-0.055-1.808-0.021l-40.08,2.695c-1.606,0.049-3.239,0.589-4.663,1.453L328.651,156.044z"/>
	<path fill="#94A39E" d="M325.508,145.672c-1.182-0.65-3.09-0.605-4.241,0.098c-0.553,0.338-1.438,1.205-1.438,1.205l-34.933,2.436
		c-0.366-0.518-0.817-0.958-1.304-1.228c-1.183-0.65-3.091-0.605-4.241,0.098c-1.151,0.704-2.069,2.388-2.04,3.743
		c0.029,1.354,1.021,2.994,2.2,3.646c1.183,0.651,3.091,0.606,4.241-0.098c0.457-0.279,0.874-0.716,1.213-1.223l35.136-2.448
		c0.373,0.53,0.831,0.983,1.328,1.258c1.181,0.65,3.089,0.607,4.24-0.097s2.07-2.389,2.04-3.744
		C327.679,147.963,326.689,146.322,325.508,145.672z"/>
	<polyline fill="#B4BBA6" points="225.113,26.793 221.273,32.681 292.776,76.062 311.414,118.406 316.369,104.793 298.303,66.471 
		225.19,25.084 	"/>
	<polygon fill="#BFC3A6" points="226.825,22.132 225.113,26.793 297.323,71.526 314.001,107.146 321.7,98.964 309.949,59.018 	"/>
	<path fill="#A6AA92" d="M332.548,97.035c0.626-1.238,1.054-1.915,1.054-1.915l-15.787,1.756c0,0-0.3,0.526-0.76,1.507l15.311-1.365
		L332.548,97.035z"/>
	<path fill="#B6B99C" d="M354.62,97.083l-21.019-1.963c0,0-0.428,0.677-1.054,1.915l22.106,2.15L354.62,97.083z"/>
	<polygon fill="#BFC3A6" points="177.713,80.935 231.844,21.957 233.559,0.552 221.286,0 176.322,72.525 	"/>
	<polygon fill="#B4BBA6" points="214.881,2.502 173.011,68.087 178.215,75.15 221.286,0 	"/>
	<path fill="#828E88" d="M154.559,50.259l-19.388,6.167c0,0-12.852,5.93-12.029,25.848c0.817,19.812,2.029,29.532,2.029,29.532
		l15.491-0.194l1.359-30.268L154.559,50.259z"/>
	<path fill="#94A39E" d="M168.724,56.053c-2.498-3.515-6.896-7.101-11.574-6.415c-6.17,0.904-11.164,3.425-13.564,8.462
		c-6.903,11.874-2.923,53.512-2.923,53.512l2.018-0.584l-0.543-9.717c0.14-9.815,12.638-13.326,12.638-13.326l27.521-8.361
		C176.204,65.405,168.724,56.053,168.724,56.053z"/>
	<polygon fill="#707973" points="308.684,135.338 308.762,145.788 340.373,141.313 340.074,135.729 	"/>
	<g>
		<path fill="#828E88" d="M385.802,148.452l-1.01-2.493c-0.073-0.182-0.28-0.269-0.461-0.196l-0.614,0.252l0.676-0.626
			c0.143-0.134,0.152-0.359,0.021-0.504l-1.813-1.979c-0.133-0.144-0.356-0.153-0.5-0.02l-0.846,0.783
			c-0.144,0.133-0.152,0.358-0.02,0.502l1.812,1.981c0.044,0.047,0.097,0.073,0.153,0.092c-0.13,0.094-0.191,0.263-0.128,0.418
			l1.009,2.494c0.073,0.182,0.282,0.271,0.463,0.196l1.063-0.438C385.788,148.841,385.875,148.633,385.802,148.452z"/>
		<path fill="#828E88" d="M376.8,141.704l1.453,0.313c0.071,0.015,0.14,0.002,0.203-0.024c0.018,0.098,0.07,0.188,0.16,0.244
			l2.285,1.402c0.165,0.102,0.385,0.049,0.487-0.118l0.598-0.986c0.103-0.167,0.049-0.387-0.117-0.489l-2.284-1.402
			c-0.167-0.104-0.384-0.05-0.487,0.118l-0.332,0.547l0.149-0.694c0.04-0.191-0.082-0.382-0.272-0.423l-2.617-0.564
			c-0.189-0.041-0.379,0.082-0.421,0.273l-0.156,0.735l-0.063-0.05l-0.025-0.741c-0.008-0.195-0.172-0.35-0.365-0.342l-2.676,0.095
			c-0.194,0.008-0.348,0.173-0.342,0.369l0.01,0.265l-0.289,0.01l-0.011-0.346c-0.007-0.194-0.172-0.349-0.365-0.343l-2.677,0.096
			c-0.193,0.007-0.347,0.173-0.341,0.368l0.013,0.336l-0.301,0.01l-0.013-0.353c-0.007-0.195-0.171-0.35-0.366-0.343l-2.676,0.096
			c-0.193,0.007-0.347,0.173-0.341,0.368l0.013,0.342l-0.312,0.01l-0.012-0.319c-0.007-0.194-0.172-0.35-0.365-0.343l-2.676,0.096
			c-0.194,0.007-0.349,0.174-0.342,0.368l0.011,0.31l-0.279,0.009l-0.009-0.245c-0.007-0.201-0.175-0.359-0.375-0.353l-2.749,0.099
			c-0.2,0.007-0.356,0.177-0.351,0.378l0.009,0.235l-0.233,0.008l-0.01-0.295c-0.007-0.205-0.18-0.366-0.383-0.359l-2.803,0.1
			c-0.203,0.009-0.364,0.182-0.357,0.387l0.011,0.283l-0.328,0.011l-0.01-0.297c-0.008-0.209-0.184-0.374-0.392-0.367l-2.867,0.104
			c-0.208,0.009-0.371,0.186-0.364,0.395l0.01,0.285l-0.307,0.01l-0.012-0.338c-0.007-0.219-0.19-0.391-0.408-0.382l-2.989,0.106
			c-0.217,0.007-0.389,0.193-0.381,0.41l0.013,0.326l-0.477,0.017l-0.013-0.356c-0.008-0.217-0.192-0.39-0.409-0.383l-2.986,0.108
			c-0.218,0.007-0.389,0.191-0.382,0.41l0.013,0.345l-0.267,0.009l-0.014-0.382c-0.007-0.197-0.172-0.351-0.366-0.344l-2.675,0.097
			c-0.195,0.007-0.348,0.172-0.342,0.367l0.014,0.372l-0.312,0.011l-0.013-0.35c-0.007-0.197-0.171-0.35-0.366-0.343l-2.676,0.096
			c-0.193,0.006-0.348,0.171-0.34,0.368l0.011,0.339l-0.28,0.009l-0.009-0.276c-0.008-0.201-0.176-0.358-0.375-0.352l-2.749,0.099
			c-0.2,0.007-0.357,0.178-0.351,0.378l0.009,0.266l-0.231,0.007l-0.012-0.323c-0.008-0.205-0.179-0.367-0.384-0.359l-2.802,0.1
			c-0.204,0.007-0.364,0.18-0.358,0.386l0.012,0.314l-0.327,0.011l-0.011-0.327c-0.008-0.21-0.184-0.375-0.392-0.367l-2.866,0.103
			c-0.209,0.007-0.373,0.186-0.365,0.396l0.011,0.314l-0.307,0.01l-0.013-0.369c-0.008-0.217-0.191-0.39-0.408-0.383l-2.989,0.109
			c-0.217,0.007-0.388,0.192-0.38,0.41l0.012,0.357l-0.476,0.015l-0.015-0.386c-0.008-0.22-0.191-0.391-0.409-0.383l-2.986,0.107
			c-0.217,0.007-0.388,0.192-0.381,0.41l0.014,0.374l-0.439,0.016l-0.098-0.486c-0.044-0.215-0.253-0.354-0.466-0.311l-2.932,0.595
			c-0.213,0.045-0.353,0.255-0.309,0.47l0.15,0.751c-0.202,0.08-0.408,0.167-0.616,0.258l-0.389-0.761
			c-0.1-0.194-0.339-0.271-0.531-0.172l-2.661,1.373c-0.193,0.101-0.271,0.341-0.172,0.535l0.463,0.906
			c-0.112,0.083-0.224,0.168-0.335,0.256l-0.708-0.75c-0.171-0.182-0.453-0.183-0.624,0l-2.376,2.521
			c-0.171,0.184-0.171,0.481,0.002,0.662l0.745,0.792c-0.104,0.162-0.206,0.326-0.304,0.496l-0.808-0.425
			c-0.222-0.115-0.489-0.025-0.598,0.202l-1.503,3.197c-0.107,0.228-0.013,0.509,0.207,0.625l1.212,0.637
			c-0.019,0.108-0.033,0.219-0.049,0.33c-0.062-0.024-0.129-0.039-0.202-0.033l-1.408,0.126c-0.247,0.022-0.437,0.245-0.417,0.497
			l0.265,3.559c0.02,0.252,0.238,0.438,0.487,0.416l1.346-0.121c0.036,0.191,0.074,0.38,0.12,0.565l-1.145,0.49
			c-0.229,0.1-0.346,0.372-0.257,0.607l1.246,3.303c0.089,0.236,0.348,0.347,0.578,0.248l1.319-0.565
			c0.02-0.008,0.032-0.023,0.05-0.034c0.061,0.089,0.12,0.177,0.182,0.264c-0.019,0.014-0.037,0.022-0.052,0.04l-0.964,1.142
			c-0.161,0.193-0.144,0.491,0.037,0.663l2.485,2.356c0.184,0.172,0.464,0.155,0.625-0.036l0.853-1.01
			c0.107,0.089,0.217,0.175,0.324,0.26l-0.22,0.927c-0.058,0.245,0.091,0.503,0.33,0.574l3.278,0.97
			c0.183,0.054,15.949-0.103,15.949-0.103l0.771-2.029l49.419-3.173l5.462-1.411l3.062-5.017l0.895-5.667l-3.744-6.243
			L376.8,141.704z"/>
	</g>
	<path fill="#B4BBA6" d="M327.736,131.17l4.984-34.432l-15.647,1.63c0,0-7.701,12.955-5.316,32.196l-9.961-0.378l0.35,5.356
		l26.518,1.191l-0.561-5.551L327.736,131.17z"/>
	<g>
		<path fill="#828E88" d="M319.786,99.882c-0.603,0.054-1.354,0.521-1.668,1.038c0,0-6.353,10.418-4.044,27.862l9.647,0.558
			c0.604,0.035,0.979-0.417,0.833-1.004c0,0-1.326-5.333-0.212-14.279c0.562-4.521,1.532-9.666,4.632-15.004L319.786,99.882z"/>
	</g>
	<path fill="#767F79" d="M384.897,154.409c0.429-4.73-2.917-10.125-7.601-10.554c-0.729-0.064-1.192-0.064-2.12-0.024l-47.02,3.161
		c-5.21,0.162-10.675,4.702-10.487,9.636c0.237,6.267,3.522,9.862,9.017,10.363c0.311,0.028,2.302-0.095,2.565-0.15l31.236-1.677
		l16.554-1.628C381.08,163.063,384.454,159.285,384.897,154.409z"/>
	<path fill="#707973" d="M381.284,161.638c1.96-1.655,3.341-4.232,3.613-7.229c0.429-4.73-2.917-10.125-7.601-10.554
		c-0.729-0.064-1.192-0.064-2.12-0.024l-47.02,3.161c-1.884,0.059-3.798,0.691-5.47,1.706L381.284,161.638z"/>
	<path fill="#828E88" d="M374.678,140.227c0,0,6.621-0.738,9.856,7.691l-2.781-2.22l-4.437-2.339L374.678,140.227z"/>
	<path fill="#94A39E" d="M386.465,155l-1.055-0.288c0.008-0.064,0.019-0.124,0.025-0.188l0.933-0.063
		c0.2-0.015,0.354-0.19,0.34-0.393l-0.185-2.781c-0.015-0.202-0.19-0.355-0.391-0.343l-0.939,0.064
		c-0.011-0.049-0.024-0.096-0.037-0.145l0.841-0.372c0.184-0.082,0.268-0.301,0.187-0.486l-1.119-2.55
		c-0.081-0.185-0.298-0.27-0.481-0.188l-0.813,0.36c-0.035-0.055-0.073-0.106-0.109-0.161l0.72-0.756
		c0.139-0.146,0.135-0.381-0.012-0.521l-1.999-1.929c-0.146-0.14-0.38-0.135-0.519,0.011l-0.598,0.628
		c-0.036-0.026-0.072-0.05-0.106-0.076l0.343-0.851c0.076-0.188-0.015-0.404-0.201-0.48l-2.569-1.047
		c-0.186-0.076-0.4,0.016-0.476,0.202l-0.302,0.75c-0.05-0.009-0.099-0.014-0.146-0.022l0.041-0.781
		c0.011-0.202-0.146-0.378-0.348-0.389l-2.767-0.144c-0.201-0.011-0.375,0.146-0.386,0.349l-0.048,0.927l-0.255,0.018l-0.062-0.993
		c-0.012-0.204-0.187-0.358-0.388-0.346l-2.766,0.172c-0.201,0.011-0.355,0.187-0.343,0.389l0.062,1.012l-0.288,0.021l-0.059-0.95
		c-0.013-0.208-0.191-0.366-0.397-0.353l-2.842,0.176c-0.206,0.013-0.365,0.193-0.352,0.4l0.059,0.968l-0.241,0.016l-0.062-1.032
		c-0.014-0.212-0.195-0.374-0.406-0.361l-2.896,0.18c-0.211,0.014-0.373,0.196-0.36,0.408l0.064,1.053l-0.338,0.023l-0.064-1.068
		c-0.014-0.216-0.201-0.383-0.416-0.37l-2.962,0.186c-0.216,0.013-0.381,0.201-0.368,0.418l0.065,1.087l-0.339,0.021l-0.067-1.11
		c-0.013-0.203-0.187-0.358-0.388-0.346l-2.766,0.173c-0.201,0.012-0.355,0.188-0.345,0.389l0.069,1.131l-0.324,0.021l-0.067-1.108
		c-0.013-0.203-0.188-0.357-0.388-0.346l-2.766,0.173c-0.2,0.011-0.354,0.187-0.344,0.389l0.069,1.128l-0.29,0.02l-0.062-1.065
		c-0.014-0.208-0.193-0.366-0.399-0.353l-2.841,0.176c-0.207,0.013-0.364,0.192-0.353,0.399l0.066,1.085l-0.24,0.016l-0.069-1.148
		c-0.015-0.212-0.197-0.374-0.406-0.361l-2.897,0.18c-0.211,0.014-0.372,0.196-0.359,0.408l0.071,1.169l-0.34,0.021l-0.07-1.183
		c-0.013-0.217-0.201-0.383-0.416-0.37l-2.962,0.186c-0.215,0.013-0.381,0.201-0.368,0.418l0.073,1.201l-0.316,0.021l-0.077-1.26
		c-0.014-0.227-0.209-0.399-0.433-0.385l-3.088,0.191c-0.225,0.014-0.397,0.21-0.384,0.436l0.076,1.28l-0.491,0.033l-0.079-1.316
		c-0.015-0.226-0.209-0.398-0.434-0.385l-3.088,0.192c-0.224,0.014-0.396,0.21-0.383,0.436l0.08,1.333c0,0.001,0,0.002,0,0.003
		l-0.545,0.036l-0.078-1.293c-0.014-0.226-0.209-0.399-0.434-0.385l-3.09,0.192c-0.225,0.014-0.397,0.21-0.384,0.436l0.081,1.331
		c0.002,0.041,0.018,0.077,0.03,0.112c-0.113,0.026-0.229,0.054-0.342,0.082c-0.007-0.038-0.012-0.077-0.03-0.113l-0.59-1.194
		c-0.101-0.204-0.347-0.287-0.549-0.187l-2.771,1.385c-0.201,0.101-0.283,0.35-0.184,0.553l0.551,1.118
		c-0.088,0.056-0.177,0.11-0.264,0.169l-0.905-0.909c-0.158-0.16-0.418-0.16-0.577,0l-2.188,2.204c-0.158,0.16-0.159,0.422,0,0.581
		l0.777,0.783c-0.099,0.13-0.187,0.262-0.279,0.391l-0.841-0.42c-0.2-0.101-0.447-0.018-0.549,0.185l-1.375,2.79
		c-0.102,0.203-0.018,0.45,0.184,0.551l1.036,0.518c-0.019,0.105-0.029,0.21-0.043,0.316c-0.029-0.005-0.056-0.014-0.086-0.011
		l-1.324,0.11c-0.224,0.019-0.392,0.218-0.373,0.442l0.251,3.104c0.02,0.225,0.217,0.395,0.44,0.376l1.324-0.111
		c0.017-0.001,0.027-0.008,0.043-0.012c0.032,0.159,0.063,0.32,0.101,0.474l-1.164,0.472c-0.208,0.085-0.311,0.325-0.227,0.535
		l1.153,2.886c0.084,0.211,0.324,0.313,0.532,0.229l1.231-0.498c0.014-0.004,0.022-0.016,0.034-0.022
		c0.054,0.078,0.109,0.156,0.165,0.232c-0.014,0.012-0.028,0.018-0.041,0.031l-0.885,0.997c-0.149,0.169-0.136,0.43,0.033,0.581
		l2.307,2.073c0.167,0.151,0.427,0.137,0.577-0.031l0.884-0.997c0.028-0.031,0.044-0.067,0.061-0.102
		c0.114,0.062,0.229,0.126,0.348,0.184l-0.323,1.157c-0.063,0.218,0.064,0.446,0.28,0.508l2.979,0.845
		c0.216,0.062,0.442-0.066,0.504-0.284l0.331-1.177c0.101,0.012,0.196,0.029,0.298,0.038l0.063,0.004
		c0.018,0.001,0.039,0.002,0.061,0.002l0.073,1.029c0.016,0.226,0.212,0.397,0.437,0.381l3.086-0.226
		c0.225-0.017,0.395-0.215,0.379-0.44l-0.069-0.973l0.396-0.021l0.073,1.04c0.017,0.226,0.213,0.396,0.438,0.381l3.088-0.224
		c0.224-0.017,0.394-0.214,0.378-0.439l-0.068-0.967l0.304-0.017l0.073,1.018c0.017,0.226,0.213,0.396,0.438,0.381l3.087-0.227
		c0.225-0.016,0.395-0.214,0.378-0.439l-0.066-0.943l0.316-0.016l0.067,0.938c0.014,0.216,0.202,0.381,0.417,0.365l2.962-0.216
		c0.215-0.016,0.378-0.206,0.363-0.421l-0.062-0.869l0.317-0.017l0.062,0.863c0.016,0.227,0.212,0.397,0.437,0.382l3.087-0.227
		c0.225-0.017,0.395-0.214,0.378-0.44l-0.056-0.788l0.396-0.021l0.061,0.855c0.016,0.225,0.212,0.396,0.437,0.38l3.088-0.223
		c0.225-0.017,0.395-0.214,0.379-0.439l-0.056-0.784l0.304-0.017l0.06,0.835c0.017,0.226,0.214,0.396,0.437,0.38l3.088-0.226
		c0.225-0.017,0.395-0.214,0.379-0.439l-0.055-0.759l0.316-0.018l0.054,0.755c0.016,0.217,0.204,0.381,0.418,0.366l2.962-0.216
		c0.215-0.016,0.379-0.206,0.362-0.422l-0.047-0.685l0.338-0.017l0.046,0.662c0.016,0.212,0.201,0.372,0.41,0.357l2.896-0.21
		c0.211-0.017,0.37-0.201,0.354-0.413l-0.052-0.751l0.332-0.033l0.056,0.779c0.013,0.208,0.194,0.364,0.4,0.35l2.84-0.208
		c0.206-0.016,0.361-0.197,0.348-0.405l-0.062-0.866l0.318-0.032l0.06,0.832c0.015,0.202,0.19,0.354,0.392,0.34l2.765-0.199
		c0.2-0.015,0.353-0.192,0.338-0.395l-0.065-0.922l0.405-0.038l0.066,0.93c0.015,0.202,0.191,0.354,0.392,0.34l2.764-0.199
		c0.201-0.015,0.354-0.192,0.338-0.395l-0.073-1.02l0.192-0.02l0.121,0.864c0.027,0.201,0.214,0.342,0.414,0.314l2.743-0.389
		c0.2-0.029,0.34-0.216,0.312-0.417l-0.149-1.074c0.032-0.015,0.065-0.024,0.098-0.038l0.671,0.96
		c0.116,0.167,0.346,0.206,0.512,0.09l2.268-1.605c0.164-0.115,0.205-0.347,0.089-0.512l-0.648-0.928
		c0.048-0.049,0.094-0.101,0.142-0.15l1.004,0.62c0.174,0.106,0.398,0.052,0.504-0.121l1.45-2.377c0.105-0.173,0.052-0.4-0.12-0.507
		l-0.869-0.536c0.044-0.093,0.09-0.186,0.132-0.281l1.021,0.28c0.194,0.053,0.396-0.063,0.449-0.259l0.732-2.689
		C386.774,155.257,386.658,155.053,386.465,155z M326.725,166.993l0.012-0.552c-5.271-0.48-8.296-3.973-8.519-9.835
		c-0.07-1.845,0.737-3.773,2.276-5.431c2-2.155,4.943-3.547,7.7-3.634l47.006-3.16c0.612-0.026,1.028-0.036,1.473-0.017
		c0.181,0.008,0.367,0.021,0.575,0.04c4.472,0.408,7.489,5.686,7.104,9.954c-0.414,4.548-3.514,8.177-7.361,8.628l-16.53,1.626
		l-31.237,1.677l-0.08,0.011c-0.24,0.045-2.025,0.158-2.394,0.142L326.725,166.993z"/>
	<path fill="#94A39E" d="M377.596,149.471c-1.386-0.764-3.624-0.712-4.976,0.113c-0.522,0.319-1.003,0.816-1.396,1.393
		l-40.762,2.842c-0.426-0.579-0.938-1.073-1.491-1.379c-1.386-0.762-3.625-0.711-4.976,0.115c-1.351,0.824-2.427,2.801-2.392,4.39
		c0.035,1.59,1.196,3.515,2.581,4.277c1.385,0.764,3.625,0.713,4.975-0.113c0.557-0.34,1.059-0.879,1.464-1.5l40.629-2.833
		c0.437,0.621,0.974,1.154,1.559,1.477c1.385,0.763,3.623,0.712,4.974-0.114c1.352-0.825,2.428-2.802,2.393-4.391
		C380.143,152.157,378.981,150.233,377.596,149.471z"/>
	<path fill="#BFC3A6" d="M384.231,113.409l-29.379-2.072l-0.205-12.595l-21.927-2.004c0,0-9.462,14.98-5.043,34.145l0.985,5.852
		l56.224-3.152L384.231,113.409z"/>
	<g>
		<path fill="#828E88" d="M335.304,98.867l6.75,0.598c0.603,0.053,1.073,0.591,1.047,1.195l-0.988,21.977
			c-0.026,0.604-0.402,1.445-0.835,1.868l-3.866,3.79c-0.433,0.423-1.28,0.792-1.885,0.819l-3.916,0.178
			c-0.604,0.027-1.236-0.426-1.406-1.007c0,0-1.134-3.9-0.816-11.101C329.646,111.313,331.092,103.582,335.304,98.867z"/>
	</g>
	<g>
		<path fill="#828E88" d="M347.251,99.878c-0.602-0.058-1.11,0.39-1.129,0.994l-0.598,19.017c-0.019,0.604,0.331,0.766,0.777,0.357
			l5.535-5.065c0.446-0.408,0.813-1.237,0.815-1.843l0.047-11.834c0.002-0.605-0.489-1.148-1.091-1.206L347.251,99.878z"/>
	</g>
	<polygon fill="#B6B99C" points="384.887,133.582 384.754,128.73 327.736,131.17 327.727,131.17 328.663,136.734 	"/>
	<polygon fill="#A6AA92" points="328.663,136.734 327.736,131.17 311.757,130.564 311.757,130.564 301.796,130.187 302.146,135.543 
			"/>
</g>
</svg>
