<?xml version="1.0" encoding="utf-8"?>
<!-- Generator: Adobe Illustrator 16.0.4, SVG Export Plug-In . SVG Version: 6.00 Build 0)  -->
<!DOCTYPE svg PUBLIC "-//W3C//DTD SVG 1.1//EN" "http://www.w3.org/Graphics/SVG/1.1/DTD/svg11.dtd">
<svg version="1.1" id="Layer_1" xmlns="http://www.w3.org/2000/svg" xmlns:xlink="http://www.w3.org/1999/xlink" x="0px" y="0px"
	 width="466.269px" height="318.696px" viewBox="0 0 466.269 318.696" enable-background="new 0 0 466.269 318.696"
	 xml:space="preserve">
<g>
	<polygon fill="#B6C8A9" points="452.322,251.25 421.783,109.235 124.896,109.235 0,219.235 0,271.848 78.523,317.695 
		345.258,317.695 	"/>
	<g opacity="0.1">
		<path fill="#414042" d="M455.162,203.627c-1.621-4.677-6.867-7.486-11.659-6.243l-118.478,30.744
			c-4.792,1.243-7.386,6.088-5.765,10.765l2.957,8.534c1.621,4.677,6.867,7.486,11.659,6.243l118.478-30.744
			c4.792-1.243,7.386-6.088,5.765-10.765L455.162,203.627z"/>
		<path fill="#414042" d="M250.36,233.819c-4.297,2.457-11.807,3.799-16.689,2.982l-88.066-14.738
			c-4.882-0.816-9.545,2.509-10.362,7.392l-0.873,5.213c-0.817,4.883,2.474,9.726,7.314,10.764l1.241,0.266
			c4.84,1.038,4.75,1.887-0.2,1.887h-18.504c-4.95,0-9,1.95-9,4.333s-4.05,4.333-9,4.333h-24c-4.95,0-9,3.45-9,7.667
			s4.05,7.667,9,7.667h92c4.95,0,9-2.7,9-6s4.05-6,9-6h6.481c4.95,0,12.96,0.849,17.8,1.887l11.938,2.559
			c4.84,1.038,11.505,3.271,14.812,4.963s9.107,0.464,12.89-2.728l16.161-13.637c3.782-3.192,5.507-9.615,3.832-14.273l-2.704-7.52
			c-1.676-4.658-6.562-6.458-10.858-4.001L250.36,233.819z"/>
	</g>
	<g>
		<polygon fill="#162628" points="423.094,135.842 409.504,120.741 254.732,120.741 254.732,224.174 380.815,224.174 		"/>
		<rect x="362.695" y="14.288" fill="#24747F" width="57.38" height="110.606"/>
		<polygon fill="#12353A" points="369.396,137.398 301.164,143.681 301.164,17.402 369.396,11.734 		"/>
		<path fill="#1A575F" d="M425.588,138.957c-0.01,0.66-0.559,1.192-1.219,1.182l-9.083-0.138c-0.66-0.011-1.192-0.559-1.182-1.219
			l0.059-3.897c0.011-0.66,0.559-1.192,1.219-1.182l9.085,0.139c0.66,0.011,1.191,0.559,1.182,1.219L425.588,138.957z"/>
		<path fill="#1A575F" d="M412.963,139.052c0.094,0.654-0.365,1.266-1.019,1.359l-8.992,1.291c-0.653,0.094-1.265-0.363-1.358-1.018
			l-0.553-3.858c-0.094-0.653,0.365-1.265,1.019-1.358l8.991-1.29c0.654-0.093,1.266,0.364,1.358,1.019L412.963,139.052z"/>
		<path fill="#1A575F" d="M400.553,140.903c0.094,0.654-0.365,1.266-1.019,1.359l-8.99,1.291c-0.653,0.094-1.265-0.363-1.358-1.018
			l-0.554-3.857c-0.094-0.654,0.364-1.266,1.019-1.359l8.99-1.289c0.654-0.094,1.266,0.363,1.358,1.018L400.553,140.903z"/>
		<path fill="#1A575F" d="M388.292,142.98c0.096,0.671-0.374,1.299-1.045,1.396l-9.235,1.326c-0.671,0.097-1.299-0.373-1.395-1.045
			l-0.568-3.961c-0.096-0.672,0.374-1.3,1.045-1.396l9.235-1.326c0.671-0.096,1.299,0.374,1.395,1.045L388.292,142.98z"/>
		<path fill="#1A575F" d="M375.817,144.643c0.099,0.685-0.381,1.324-1.065,1.423l-9.418,1.353c-0.685,0.099-1.324-0.381-1.423-1.065
			l-0.578-4.041c-0.099-0.685,0.381-1.324,1.065-1.423l9.417-1.351c0.685-0.099,1.324,0.381,1.423,1.065L375.817,144.643z"/>
		<path fill="#1A575F" d="M362.816,146.554c0.101,0.7-0.39,1.354-1.09,1.455l-9.631,1.384c-0.7,0.101-1.354-0.39-1.455-1.09
			l-0.592-4.132c-0.101-0.7,0.39-1.354,1.09-1.455l9.631-1.382c0.7-0.101,1.354,0.39,1.455,1.09L362.816,146.554z"/>
		<path fill="#1A575F" d="M349.611,148.444c0.104,0.73-0.406,1.413-1.137,1.518l-10.043,1.442c-0.73,0.104-1.413-0.406-1.517-1.137
			l-0.617-4.308c-0.104-0.73,0.407-1.413,1.138-1.518l10.041-1.44c0.73-0.104,1.413,0.406,1.518,1.137L349.611,148.444z"/>
		<path fill="#1A575F" d="M335.301,150.389c0.104,0.73-0.406,1.413-1.137,1.518l-10.042,1.443c-0.73,0.104-1.413-0.406-1.517-1.137
			l-0.617-4.308c-0.104-0.73,0.407-1.413,1.138-1.518l10.04-1.44c0.73-0.104,1.413,0.406,1.518,1.137L335.301,150.389z"/>
		<path fill="#1A575F" d="M320.853,152.61c0.104,0.73-0.406,1.413-1.137,1.518l-10.041,1.444c-0.73,0.104-1.413-0.406-1.518-1.137
			l-0.617-4.308c-0.104-0.73,0.406-1.413,1.137-1.518l10.042-1.44c0.73-0.104,1.413,0.406,1.518,1.137L320.853,152.61z"/>
		<path fill="#1A575F" d="M307.059,154.788c0.38,0.632,0.175,1.46-0.457,1.84l-8.689,5.235c-0.632,0.38-1.459,0.175-1.84-0.457
			l-2.244-3.729c-0.381-0.632-0.175-1.46,0.457-1.84l8.688-5.233c0.632-0.38,1.46-0.175,1.84,0.457L307.059,154.788z"/>
		<path fill="#1A575F" d="M295.289,162.064c0.595,0.436,0.726,1.278,0.291,1.873l-5.987,8.191c-0.436,0.595-1.278,0.726-1.873,0.291
			l-3.514-2.571c-0.595-0.435-0.726-1.278-0.291-1.873l5.988-8.188c0.435-0.595,1.278-0.727,1.873-0.291L295.289,162.064z"/>
		<path fill="#1A575F" d="M287.06,173.59c0.685,0.273,1.021,1.058,0.748,1.742l-3.761,9.421c-0.273,0.685-1.058,1.021-1.742,0.748
			l-4.041-1.616c-0.685-0.273-1.021-1.058-0.748-1.742l3.761-9.417c0.273-0.685,1.058-1.021,1.742-0.748L287.06,173.59z"/>
		<path fill="#1A575F" d="M437.191,139.15l-11.076-4.819l-106.076,13.968c0,0-36.616,4.906-40.014,47.186
			c-3.397,42.28,32.086,46.811,32.086,46.811L437.191,139.15z"/>
		<path fill="#153B3F" d="M459.709,178.122c0-15.477-12.517-31.994-27.931-31.994c-2.401,0-3.918,0.142-6.934,0.546l-98.969,14.461
			l0.004,0.05c-17.336,0.975-31.135,21.845-31.135,38.035c0,21.032,14.659,38.083,32.742,38.083c1.021,0,2.028-0.062,3.025-0.168
			l0.016,0.254l2.718-0.686c0.869-0.179,1.728-0.392,2.571-0.647l100.989-25.469l-0.041-0.523
			C449.81,207.335,459.709,194.077,459.709,178.122z"/>
		<path fill="#183235" d="M431.779,146.128c-2.401,0-3.918,0.142-6.934,0.546l-98.969,14.461l0.004,0.05
			c-0.38,0.021-0.756,0.063-1.132,0.104l-9.639,3.141c-3.488,1.941-6.672,4.642-9.437,7.801l147.957,26.069
			c3.794-5.541,6.079-12.542,6.079-20.177C459.709,162.646,447.193,146.128,431.779,146.128z"/>
		<path fill="none" stroke="#387986" stroke-width="3.3974" stroke-miterlimit="10" d="M459.709,178.122
			c0-15.477-12.517-31.994-27.931-31.994c-2.401,0-3.918,0.142-6.934,0.546l-98.969,14.461l0.004,0.05
			c-17.336,0.975-31.135,21.845-31.135,38.035c0,21.032,14.659,38.083,32.742,38.083c1.021,0,2.028-0.062,3.025-0.168l0.016,0.254
			l2.718-0.686c0.869-0.179,1.728-0.392,2.571-0.647l100.989-25.469l-0.041-0.523C449.81,207.335,459.709,194.077,459.709,178.122z"
			/>
		<path fill="#C0D1D6" d="M355.24,83.699c0,4.485-3.67,8.154-8.154,8.154h-30.408c-4.484,0-8.153-3.669-8.153-8.154V34.048
			c0-4.484,3.651-8.508,8.115-8.942l30.485-2.958c4.463-0.434,8.115,2.881,8.115,7.366V83.699z"/>
		<path opacity="0.7" fill="#FFFFFF" d="M347.125,22.148l-30.485,2.958c-1.81,0.176-3.48,0.948-4.834,2.096l43.435,51.165V29.514
			C355.24,25.029,351.587,21.714,347.125,22.148z"/>
		<path fill="none" stroke="#1C3D43" stroke-width="3.3974" stroke-miterlimit="10" d="M355.24,83.699
			c0,4.485-3.669,8.154-8.154,8.154h-30.407c-4.485,0-8.154-3.669-8.154-8.154V34.048c0-4.484,3.652-8.508,8.115-8.941l30.484-2.959
			c4.464-0.433,8.116,2.882,8.116,7.366V83.699z"/>
		<polygon fill="#24747F" points="420.072,132.438 362.315,138.105 362.315,12.779 420.072,17.314 		"/>
		<path fill="#C0D1D6" d="M412.998,84.566c0,4.485-3.67,8.154-8.154,8.154h-28.429c-4.484,0-8.153-3.669-8.153-8.154v-54.48
			c0-4.485,3.65-7.784,8.112-7.332l28.512,2.89c4.461,0.453,8.112,4.492,8.112,8.977V84.566z"/>
		<path opacity="0.7" fill="#FFFFFF" d="M404.885,25.644l-28.512-2.89c-2.273-0.23-4.331,0.516-5.808,1.893l42.432,49.983V34.62
			C412.998,30.136,409.346,26.096,404.885,25.644z"/>
		<path fill="none" stroke="#1C3D43" stroke-width="3.3974" stroke-miterlimit="10" d="M412.998,84.566
			c0,4.485-3.669,8.154-8.154,8.154h-28.428c-4.485,0-8.154-3.669-8.154-8.154V30.085c0-4.484,3.65-7.784,8.112-7.332l28.512,2.89
			c4.462,0.452,8.112,4.492,8.112,8.976V84.566z"/>
		<polygon fill="#24747F" points="419.508,87.05 432.249,106.585 432.249,121.024 438.194,121.024 438.194,130.65 369.441,137.398 
			369.396,119.608 		"/>
		<g>
			
				<image overflow="visible" opacity="0.1" width="336" height="128" xlink:href="DA577FBAEA2E3E61.png"  transform="matrix(0.24 0 0 0.24 351.7466 -0.8115)">
			</image>
			<g>
				<polygon fill="#6FB4BF" points="425.359,22.978 358.542,15.042 358.542,5.983 425.359,13.918 				"/>
			</g>
		</g>
		<g>
			
				<image overflow="visible" opacity="0.1" width="315" height="123" xlink:href="DA577FBAEA2E3E60.png"  transform="matrix(0.24 0 0 0.24 289.8433 -1.001)">
			</image>
			<g>
				<polygon fill="#12353A" points="358.637,14.854 296.638,21.653 296.638,13.727 358.637,5.794 				"/>
			</g>
		</g>
		<g>
			
				<image overflow="visible" opacity="0.1" width="629" height="408" xlink:href="DA577FBAEA2E3E6E.png"  transform="matrix(0.24 0 0 0.24 205.6558 65.6816)">
			</image>
			<g>
				<polygon fill="#24747F" points="349.61,89.275 329.838,72.477 212.451,77.71 212.451,156.599 349.754,140.135 				"/>
			</g>
		</g>
		<path fill="#387986" d="M460.57,170.961c-0.619,0.23-1.313-0.087-1.544-0.706l-3.173-8.511c-0.23-0.619,0.087-1.313,0.706-1.544
			l3.651-1.361c0.619-0.23,1.313,0.087,1.544,0.706l3.173,8.513c0.23,0.619-0.087,1.313-0.706,1.544L460.57,170.961z"/>
		<path fill="#387986" d="M461.197,183.599c-0.66,0.013-1.211-0.517-1.224-1.177l-0.182-9.081c-0.013-0.66,0.517-1.211,1.177-1.224
			l3.896-0.078c0.66-0.013,1.211,0.517,1.224,1.177l0.182,9.083c0.013,0.66-0.517,1.211-1.177,1.224L461.197,183.599z"/>
		<path fill="#387986" d="M457.85,195.681c-0.633-0.188-0.995-0.861-0.807-1.493l2.605-8.703c0.189-0.632,0.862-0.994,1.494-0.806
			l3.734,1.118c0.632,0.188,0.994,0.861,0.805,1.493l-2.605,8.703c-0.188,0.632-0.861,0.994-1.494,0.806L457.85,195.681z"/>
		<path fill="#387986" d="M449.876,205.417c-0.518-0.41-0.604-1.169-0.194-1.687l5.647-7.115c0.41-0.518,1.169-0.604,1.687-0.194
			l3.053,2.423c0.518,0.41,0.604,1.169,0.194,1.687l-5.647,7.115c-0.41,0.518-1.169,0.604-1.687,0.194L449.876,205.417z"/>
		<path fill="#387986" d="M438.726,212.112c-0.321-0.577-0.112-1.312,0.465-1.633l7.938-4.419c0.577-0.321,1.312-0.112,1.633,0.465
			l1.896,3.406c0.321,0.577,0.112,1.312-0.465,1.633l-7.937,4.418c-0.577,0.321-1.312,0.112-1.633-0.465L438.726,212.112z"/>
		<path fill="#387986" d="M456.279,159.44c-0.507,0.423-1.268,0.355-1.69-0.151l-5.825-6.97c-0.423-0.507-0.354-1.268,0.151-1.69
			l2.991-2.498c0.507-0.423,1.268-0.355,1.69,0.151l5.825,6.971c0.423,0.507,0.354,1.268-0.151,1.69L456.279,159.44z"/>
		<path fill="#387986" d="M448.237,149.599c-0.285,0.595-1.006,0.849-1.601,0.562l-8.19-3.928c-0.595-0.285-0.849-1.006-0.563-1.601
			l1.686-3.515c0.285-0.595,1.006-0.849,1.601-0.562l8.19,3.928c0.595,0.286,0.849,1.007,0.563,1.602L448.237,149.599z"/>
		<path fill="#387986" d="M437.112,144.246c-0.01,0.66-0.559,1.192-1.219,1.182l-9.082-0.138c-0.66-0.011-1.192-0.559-1.182-1.219
			l0.059-3.896c0.01-0.66,0.558-1.192,1.218-1.182l9.085,0.139c0.66,0.011,1.191,0.559,1.182,1.219L437.112,144.246z"/>
		<path fill="#387986" d="M424.488,144.341c0.093,0.654-0.364,1.266-1.019,1.359l-8.992,1.292c-0.654,0.094-1.265-0.364-1.358-1.018
			l-0.553-3.858c-0.094-0.654,0.364-1.266,1.019-1.358l8.991-1.29c0.653-0.094,1.265,0.365,1.358,1.019L424.488,144.341z"/>
		<path fill="#387986" d="M412.078,146.193c0.093,0.653-0.364,1.266-1.019,1.359l-8.991,1.291c-0.653,0.094-1.265-0.364-1.358-1.018
			l-0.554-3.857c-0.094-0.653,0.364-1.266,1.019-1.359l8.991-1.29c0.653-0.094,1.265,0.363,1.358,1.018L412.078,146.193z"/>
		<path fill="#387986" d="M399.816,148.271c0.096,0.671-0.374,1.299-1.045,1.396l-9.236,1.326c-0.671,0.097-1.299-0.373-1.395-1.044
			l-0.568-3.963c-0.096-0.671,0.374-1.299,1.045-1.395l9.236-1.326c0.671-0.096,1.299,0.374,1.395,1.045L399.816,148.271z"/>
		<path fill="#387986" d="M387.341,149.933c0.099,0.685-0.381,1.324-1.065,1.423l-9.418,1.352c-0.685,0.099-1.324-0.381-1.423-1.065
			l-0.579-4.041c-0.099-0.685,0.381-1.324,1.065-1.423l9.418-1.35c0.685-0.099,1.324,0.381,1.423,1.065L387.341,149.933z"/>
		<path fill="#387986" d="M374.34,151.844c0.101,0.7-0.39,1.354-1.09,1.455l-9.632,1.383c-0.7,0.101-1.354-0.39-1.455-1.09
			l-0.591-4.131c-0.101-0.7,0.39-1.354,1.09-1.455l9.63-1.383c0.7-0.101,1.354,0.39,1.455,1.09L374.34,151.844z"/>
		<path fill="#387986" d="M361.135,153.734c0.104,0.73-0.406,1.413-1.137,1.518l-10.043,1.441c-0.73,0.104-1.413-0.406-1.518-1.137
			l-0.616-4.308c-0.104-0.73,0.406-1.413,1.137-1.518l10.041-1.44c0.73-0.104,1.413,0.406,1.518,1.137L361.135,153.734z"/>
		<path fill="#387986" d="M346.826,155.679c0.104,0.73-0.406,1.413-1.137,1.518l-10.042,1.442c-0.73,0.104-1.413-0.406-1.518-1.137
			l-0.616-4.308c-0.104-0.73,0.406-1.413,1.137-1.518l10.04-1.44c0.73-0.104,1.413,0.406,1.518,1.137L346.826,155.679z"/>
		<path fill="#387986" d="M332.377,157.9c0.104,0.73-0.406,1.413-1.137,1.518l-10.042,1.444c-0.73,0.104-1.413-0.406-1.518-1.137
			l-0.617-4.308c-0.104-0.73,0.406-1.413,1.137-1.518l10.042-1.44c0.73-0.104,1.413,0.406,1.518,1.137L332.377,157.9z"/>
		<path fill="#387986" d="M438.098,216.6c0.162,0.64-0.229,1.296-0.868,1.458l-8.808,2.233c-0.64,0.162-1.296-0.229-1.458-0.868
			l-0.957-3.778c-0.162-0.64,0.229-1.296,0.868-1.458l8.805-2.233c0.64-0.162,1.296,0.229,1.458,0.868L438.098,216.6z"/>
		<path fill="#387986" d="M425.675,219.752c0.162,0.64-0.229,1.296-0.868,1.458L416,223.444c-0.64,0.162-1.296-0.229-1.458-0.869
			l-0.956-3.777c-0.162-0.64,0.229-1.296,0.868-1.458l8.805-2.232c0.64-0.162,1.296,0.229,1.458,0.868L425.675,219.752z"/>
		<path fill="#387986" d="M413.562,222.972c0.166,0.656-0.235,1.331-0.892,1.498l-9.044,2.296c-0.656,0.167-1.331-0.234-1.497-0.892
			l-0.983-3.879c-0.167-0.657,0.235-1.332,0.892-1.498l9.043-2.294c0.656-0.166,1.331,0.235,1.497,0.892L413.562,222.972z"/>
		<path fill="#387986" d="M401.055,226.082c0.17,0.671-0.238,1.357-0.909,1.528l-9.225,2.34c-0.671,0.171-1.357-0.239-1.527-0.909
			l-1.001-3.956c-0.17-0.67,0.239-1.357,0.91-1.527l9.221-2.34c0.671-0.17,1.357,0.239,1.528,0.91L401.055,226.082z"/>
		<path fill="#387986" d="M388.33,229.356c0.174,0.686-0.244,1.389-0.93,1.562l-9.434,2.393c-0.686,0.174-1.388-0.244-1.562-0.93
			l-1.023-4.045c-0.174-0.686,0.245-1.389,0.931-1.562l9.429-2.392c0.686-0.174,1.389,0.244,1.562,0.93L388.33,229.356z"/>
		<path fill="#387986" d="M375.398,232.633c0.181,0.714-0.256,1.447-0.97,1.629l-9.834,2.495c-0.714,0.182-1.447-0.255-1.629-0.969
			l-1.07-4.221c-0.181-0.714,0.256-1.447,0.971-1.628l9.834-2.494c0.714-0.181,1.447,0.256,1.628,0.97L375.398,232.633z"/>
		<path fill="#387986" d="M361.374,236.079c0.181,0.714-0.256,1.447-0.97,1.629l-9.834,2.495c-0.714,0.182-1.447-0.255-1.628-0.97
			l-1.07-4.22c-0.181-0.715,0.256-1.448,0.971-1.629l9.832-2.494c0.715-0.181,1.448,0.256,1.629,0.97L361.374,236.079z"/>
		<path fill="#387986" d="M347.242,239.815c0.181,0.714-0.256,1.447-0.97,1.629l-9.835,2.494c-0.714,0.182-1.447-0.255-1.628-0.97
			l-1.068-4.218c-0.181-0.715,0.256-1.448,0.97-1.629l9.833-2.494c0.714-0.182,1.447,0.255,1.628,0.969L347.242,239.815z"/>
		<path fill="#387986" d="M318.583,160.078c0.38,0.632,0.175,1.46-0.457,1.84l-8.689,5.234c-0.632,0.38-1.459,0.175-1.84-0.457
			l-2.243-3.729c-0.381-0.632-0.175-1.46,0.457-1.84l8.688-5.232c0.632-0.38,1.46-0.175,1.84,0.457L318.583,160.078z"/>
		<path fill="#387986" d="M306.812,167.354c0.595,0.436,0.727,1.278,0.291,1.873l-5.987,8.192c-0.436,0.595-1.277,0.726-1.873,0.291
			l-3.514-2.572c-0.596-0.435-0.726-1.278-0.291-1.873l5.988-8.188c0.435-0.595,1.278-0.727,1.873-0.291L306.812,167.354z"/>
		<path fill="#387986" d="M306.331,231.972c0.366-0.64,1.189-0.863,1.829-0.497l8.806,5.04c0.64,0.366,0.863,1.189,0.497,1.829
			l-2.164,3.778c-0.366,0.64-1.189,0.863-1.829,0.497l-8.804-5.04c-0.64-0.366-0.863-1.189-0.497-1.829L306.331,231.972z"/>
		<path fill="#387986" d="M319.117,238.369c0.078-0.733,0.742-1.269,1.476-1.19l10.09,1.076c0.733,0.078,1.269,0.742,1.19,1.476
			l-0.464,4.328c-0.078,0.733-0.742,1.269-1.476,1.19l-10.087-1.077c-0.733-0.078-1.269-0.742-1.19-1.476L319.117,238.369z"/>
		<path fill="#387986" d="M298.583,178.88c0.685,0.273,1.021,1.058,0.748,1.742l-3.761,9.421c-0.273,0.685-1.058,1.021-1.742,0.748
			l-4.041-1.616c-0.685-0.273-1.021-1.058-0.748-1.742l3.762-9.417c0.273-0.685,1.058-1.021,1.742-0.748L298.583,178.88z"/>
		<path fill="#387986" d="M293.6,192.311c0.736,0.033,1.311,0.664,1.277,1.4l-0.47,10.133c-0.033,0.736-0.664,1.311-1.4,1.276
			l-4.35-0.201c-0.736-0.034-1.311-0.665-1.276-1.401l0.471-10.132c0.034-0.736,0.665-1.311,1.401-1.277L293.6,192.311z"/>
		<path fill="#387986" d="M293.418,206.434c0.705-0.216,1.459,0.185,1.675,0.89l2.967,9.698c0.216,0.705-0.185,1.459-0.889,1.675
			l-4.162,1.273c-0.704,0.216-1.458-0.185-1.674-0.889l-2.969-9.7c-0.216-0.704,0.185-1.458,0.89-1.674L293.418,206.434z"/>
		<path fill="#387986" d="M297.704,220.038c0.604-0.423,1.444-0.275,1.867,0.328l5.823,8.305c0.423,0.604,0.275,1.444-0.328,1.867
			l-3.563,2.499c-0.604,0.423-1.444,0.275-1.867-0.328l-5.824-8.305c-0.423-0.604-0.275-1.444,0.328-1.867L297.704,220.038z"/>
		<g>
			
				<image overflow="visible" opacity="0.1" width="549" height="180" xlink:href="DA577FBAEA2E3E78.png"  transform="matrix(0.24 0 0 0.24 275.4946 164.9082)">
			</image>
			<g>
				<polygon fill="#6FB4BF" points="282.29,201.157 400.256,190.955 400.256,171.703 282.29,181.905 				"/>
			</g>
		</g>
		<polygon fill="#6FB4BF" points="214.776,77.606 232.977,98.345 349.61,89.275 329.838,72.477 		"/>
		<g>
			
				<image overflow="visible" opacity="0.1" width="233" height="251" xlink:href="DA577FBAEA2E3E79.png"  transform="matrix(0.24 0 0 0.24 185.1792 70.9141)">
			</image>
			<g>
				<polygon fill="#12353A" points="234.11,98.345 220.2,77.709 207.049,77.709 192.118,98.345 191.974,124.269 234.255,124.269 
									"/>
			</g>
		</g>
		<g opacity="0.2">
			
				<image overflow="visible" opacity="0.1" width="233" height="251" xlink:href="DA577FBAEA2E3E7A.png"  transform="matrix(0.24 0 0 0.24 185.1792 70.9141)">
			</image>
			<g>
				<polygon fill="#24747F" points="234.11,98.345 220.2,77.709 207.049,77.709 192.118,98.345 191.974,124.269 234.255,124.269 
									"/>
			</g>
		</g>
		<g>
			
				<image overflow="visible" opacity="0.2" width="390" height="616" xlink:href="DA577FBAEA2E3E7B.png"  transform="matrix(0.24 0 0 0.24 198.3687 118.166)">
			</image>
			<g>
				<polygon fill="#6FB4BF" points="256.196,124.961 284.944,150.575 284.944,235.517 248.885,259.103 205.164,248.447 				"/>
			</g>
		</g>
		<polygon fill="#256870" points="136.366,138.442 136.366,213.418 273.61,235.517 273.61,150.575 		"/>
		<polygon fill="#24747F" points="115.01,231.371 248.888,260.236 273.61,235.517 136.366,213.418 		"/>
		<polygon opacity="0.6" fill="#6FB4BF" points="115.01,231.371 248.888,260.236 273.61,235.517 136.366,213.418 		"/>
		<polygon fill="#24747F" points="255.691,123.205 120.886,118.2 136.366,139.576 273.61,150.575 		"/>
		<g>
			
				<image overflow="visible" opacity="0.1" width="177" height="188" xlink:href="DA577FBAEA2E3E7C.png"  transform="matrix(0.24 0 0 0.24 379.0737 158.8359)">
			</image>
			<g>
				<polygon fill="#24747F" points="391.871,176.532 400.206,171.72 408.542,176.532 408.542,186.157 400.206,190.971 
					391.871,186.157 				"/>
				<polygon fill="none" stroke="#1E6C72" stroke-width="1.1325" stroke-miterlimit="10" points="391.871,176.532 400.206,171.72 
					408.542,176.532 408.542,186.157 400.206,190.971 391.871,186.157 				"/>
			</g>
		</g>
	</g>
	<g>
		
			<image overflow="visible" opacity="0.1" width="698" height="391" xlink:href="DA577FBAEA2E3E7D.png"  transform="matrix(0.24 0 0 0.24 52.6411 165.6338)">
		</image>
		<g>
			<polygon fill="#D0B5A1" points="212.777,217.852 192.737,196.271 181.865,196.271 163.227,172.973 128.281,172.973 
				61.29,218.214 59.979,218.214 59.979,252.055 212.777,252.055 			"/>
			<g>
				<polygon fill="#E2D4C9" points="212.777,217.852 192.737,196.271 181.865,196.271 163.227,172.973 128.281,172.973 
					120.819,177.635 158.564,177.635 177.202,200.933 188.074,200.933 208.114,222.516 208.114,252.055 212.777,252.055 				"/>
			</g>
		</g>
	</g>
	<g>
		
			<image overflow="visible" opacity="0.1" width="637" height="357" xlink:href="8EA57603D8AF04C2.png"  transform="matrix(0.24 0 0 0.24 33.603 184.1553)">
		</image>
		<g>
			<polygon fill="#DEC8B6" points="40.941,252.648 50.597,232.264 68.483,232.264 80.285,191.494 110.325,191.494 119.98,203.285 
				156.458,203.285 178.988,239.773 171.478,262.304 65.617,262.304 			"/>
			<polygon fill="#EBE0D5" points="119.98,203.285 110.325,191.494 80.285,191.494 78.938,196.149 105.935,196.149 118.28,208.495 
				152.054,208.495 171.619,240.405 164.32,262.304 171.478,262.304 178.988,239.773 156.458,203.285 			"/>
		</g>
	</g>
	<polygon opacity="0.5" fill="#D0B5A1" points="85.717,203.991 76.217,239.737 59.467,239.737 53.967,249.987 67.967,255.237 
		104.79,255.237 104.79,241.148 93.95,230.987 100.465,203.991 	"/>
	<g opacity="0.25">
		<path fill="none" d="M372.808,84.245c0.049-0.014,0.098-0.031,0.146-0.044c-1.018-1.453-1.854-3.109-2.441-4.944l-0.27-0.812
			c-0.029-0.092-0.057-0.186-0.084-0.28c-0.02-0.066-0.041-0.133-0.059-0.2l-0.064-0.045v5.046
			C370.975,83.395,372.339,84.027,372.808,84.245z"/>
		<path fill="#FFFFFF" d="M385.226,64.212c3.107,0.007,6.201,0.213,9.283,0.531c3.375,0.348,7.17,0.621,9.006,0.02
			c-0.131,0.148-0.297,0.257-0.465,0.354c-0.168,0.095-0.348,0.178-0.529,0.256c-0.363,0.146-0.738,0.263-1.119,0.356
			c-0.055,0.014-0.111,0.026-0.17,0.039c1.834,0.339,2.9,0.616,3.016,0.646l0.217-0.035c0,0,0.279-1.2,0.363-1.816
			c0.08-0.614,0.123-1.235,0.117-1.854c-0.004-0.311-0.016-0.619-0.041-0.927c-0.014-0.156-0.576-0.646-1.062-0.925
			c-0.525-0.309-1.076-0.582-1.635-0.835c-0.559-0.266-1.131-0.504-1.705-0.735c-0.287-0.116-4.271-0.999-6.799-1.325
			c-0.309-0.04-1.969-1.208-2.264-1.314c0.617,0.102,5.678,0.554,9.334,1.527c-2.768-7.234-8.197-10.562-15.424-10.562
			c-7.137,0-12.517,3.445-15.312,10.5v0.233c0.983-0.205,8.822-1.402,9.412-1.501c-0.293,0.108-1.971,1.401-2.26,1.512
			c-0.291,0.11-4.174,0.624-5.262,0.821c-0.535,0.098-1.243,0.24-1.891,0.391v5.543c1.793,0.011,3.917-0.163,5.904-0.368
			C379.027,64.425,382.117,64.219,385.226,64.212z M380.585,53.992v-2.705v-1.187h9.703v1.187v2.705v1.186h-2.758v-1.135h-0.621
			v4.064h0.939v1.187v1.748v1.188h-4.824v-1.188v-1.748v-1.187h0.934v-4.064h-0.619v1.135h-2.754V53.992z"/>
		<path fill="#FFFFFF" d="M387.433,87.507c-0.314-0.328-0.596-0.636-0.814-0.882c-0.109,0.246-0.252,0.571-0.439,0.992h0.055
			c0.15,0,0.314-0.018,0.473-0.025C386.947,87.571,387.187,87.54,387.433,87.507z"/>
		<path fill="#FFFFFF" d="M398.941,78.376l-0.939,0.657c-0.061,0.042-0.139,0.063-0.215,0.055l-9.311-1.058l-0.139-0.017
			l-0.541-0.06c-0.123-0.015-0.23-0.103-0.266-0.226l-1.459-4.799c-0.242-0.031-0.461-0.048-0.643-0.048
			c-0.184,0-0.398,0.017-0.643,0.048l-1.414,4.661c-0.033,0.107-0.123,0.19-0.236,0.216l-0.678,0.15l-9.248,2.06
			c-0.021,0.005-0.045,0.007-0.066,0.007c-0.064,0-0.129-0.02-0.186-0.058l-0.359-0.25l-1.08-0.757v-0.003l-0.438-0.306
			c0.031,0.101,0.066,0.197,0.102,0.291v0.003c0.029,0.091,0.162,0.476,0.404,1.041c0.41,0.971,1.141,2.479,2.215,3.968
			c1.82-0.536,3.396-1.035,3.898-1.195c1.025-1.58,2.486-3.148,3.521-3.202c0.18-0.008,0.367-0.013,0.549-0.013
			c0.51,0,0.992,0.035,1.443,0.088c-0.381-0.346-0.459-0.752-0.516-0.933c0,0,1.322,1.035,3.01,0.818
			c1.686-0.217,2.732-1.189,2.732-1.189s-0.006,0.709-0.74,1.258c1.412-0.428,1.996-0.573,2.398-0.573
			c0.441,0,0.658,0.184,0.848,0.346c0.039,0.03,0.074,0.062,0.117,0.095c1.084,0.856,2.391,1.895,2.773,2.2
			c0.441,0.051,1.848,0.21,2.73,0.291c0.508,0.048,0.971,0.085,1.42,0.085c0.145,0,0.281-0.005,0.41-0.012
			c0.467-0.894,0.896-1.883,1.277-2.969c0.096-0.273,0.189-0.553,0.279-0.838c0.061-0.22,0.117-0.44,0.172-0.663l-0.32,0.225
			L398.941,78.376z"/>
		<path fill="#FFFFFF" d="M373.652,77.374l7.582-1.686l1.42-4.676c0.023-0.078,0.076-0.143,0.145-0.181
			c0.021-0.015,0.045-0.027,0.072-0.032c0.043-0.013,0.801-0.229,1.678-0.336l1.391-0.84c0.416-0.253,0.818-0.544,1.199-0.852
			c-0.547-0.008-1.1-0.016-1.664-0.016c-2.316,0-4.48,0.096-6.441,0.243c-1.967,0.963-3.17,1.755-3.197,1.774l-1.889,1.261
			l1.297-1.862c0.215-0.311,0.441-0.604,0.674-0.882c-2.178,0.243-3.992,0.531-5.348,0.782l0.693,5.628L373.652,77.374z
			 M376.439,74.338c-0.094-0.208-0.154-0.499-0.17-0.899c-0.059-1.539,0.891-2.803,1.873-2.812c0.98-0.01,1.666,1.237,1.68,2.779
			c0.016,1.541-0.801,1.446-1.781,1.455c-0.102,0.006-0.195,0.007-0.289,0.007c-0.109,0.001-0.215,0.004-0.316,0.001
			c-0.953-0.001-1.561-0.045-2.102,0.247C375.345,75.082,375.583,74.554,376.439,74.338z"/>
		<path fill="#FFFFFF" d="M387.847,87.928c-0.365,0.072-0.736,0.128-1.117,0.16c-0.158,0.008-0.311,0.021-0.477,0.021l-0.248,0.002
			l-0.094-0.002c-1.006,1.496-3.236,1.786-3.338,1.799c-0.094,0.01-0.166,0.022-0.271,0.043c1.244,0.341,2.512,0.488,3.764,0.403
			c1.256-0.084,2.885-0.356,4.615-1.057c-1.029-0.076-1.965-0.505-2.721-1.252C387.921,88.005,387.886,87.968,387.847,87.928z"/>
		<path fill="#FFFFFF" d="M392.359,72.226c0.277-0.005,0.498-0.233,0.492-0.509c-0.004-0.279-0.232-0.5-0.508-0.494
			c-0.279,0.006-0.5,0.233-0.494,0.511C391.853,72.01,392.082,72.23,392.359,72.226z"/>
		<rect x="386.91" y="58.107" fill="#FFFFFF" width="0.939" height="1.187"/>
		<rect x="380.585" y="50.101" fill="#FFFFFF" width="9.703" height="1.187"/>
		<rect x="383.025" y="58.107" fill="#FFFFFF" width="0.934" height="1.187"/>
		<path fill="#FFFFFF" d="M378.308,72.598c0.275-0.006,0.494-0.237,0.488-0.515c-0.01-0.277-0.242-0.496-0.516-0.486
			c-0.279,0.005-0.496,0.238-0.488,0.513C377.798,72.387,378.029,72.605,378.308,72.598z"/>
		<path fill="#FFFFFF" d="M386.191,70.419l-0.182,0.013c0.994,0.085,1.932,0.353,1.979,0.368c0.102,0.03,0.182,0.108,0.213,0.213
			l1.416,4.653l7.574,0.862l2.408-1.688l0.682-4.788c-1.926-0.351-4.748-0.774-8.201-1.04
			C388.96,70.088,386.347,70.408,386.191,70.419z M394.431,72.974c0.033,0.425-0.014,0.732-0.117,0.962
			c0.912-0.108,1.117,0.512,1.129,0.548c-0.662-0.319-1.385,0.085-2.705,0.11c-0.979,0.035-1.803,0.046-1.857-1.494
			c-0.055-1.543,0.574-2.818,1.557-2.853C393.416,70.213,394.312,71.437,394.431,72.974z"/>
		<path fill="#A2B7BE" d="M390.88,73.1c0.055,1.54,0.879,1.529,1.857,1.494c1.32-0.025,2.043-0.43,2.705-0.11
			c-0.012-0.036-0.217-0.656-1.129-0.548c0.104-0.229,0.15-0.537,0.117-0.962c-0.119-1.537-1.016-2.761-1.994-2.727
			C391.455,70.281,390.826,71.557,390.88,73.1z M392.343,71.223c0.275-0.006,0.504,0.215,0.508,0.494
			c0.006,0.275-0.215,0.504-0.492,0.509s-0.506-0.216-0.51-0.492C391.843,71.456,392.064,71.229,392.343,71.223z"/>
		<path fill="#A2B7BE" d="M377.435,74.869c0.102,0.003,0.207,0,0.316-0.001c0.094,0,0.188-0.001,0.289-0.007
			c0.98-0.009,1.797,0.086,1.781-1.455c-0.014-1.542-0.699-2.789-1.68-2.779c-0.982,0.009-1.932,1.272-1.873,2.812
			c0.016,0.4,0.076,0.691,0.17,0.899c-0.855,0.216-1.094,0.744-1.105,0.778C375.875,74.824,376.482,74.868,377.435,74.869z
			 M378.281,71.597c0.273-0.01,0.506,0.209,0.516,0.486c0.006,0.277-0.213,0.509-0.488,0.515c-0.279,0.008-0.51-0.211-0.516-0.488
			C377.785,71.835,378.001,71.602,378.281,71.597z"/>
		<polygon fill="#A2B7BE" points="383.339,54.043 383.958,54.043 383.958,52.856 383.339,52.856 383.339,53.992 380.585,53.992 
			380.585,55.178 383.339,55.178 		"/>
		<polygon fill="#A2B7BE" points="387.531,52.856 386.91,52.856 386.91,54.043 387.531,54.043 387.531,55.178 390.289,55.178 
			390.289,53.992 387.531,53.992 		"/>
		<rect x="383.025" y="61.042" fill="#A2B7BE" width="4.824" height="1.188"/>
		<polygon fill="#A2B7BE" points="383.339,52.856 383.958,52.856 383.958,54.043 383.958,58.107 383.958,59.294 383.025,59.294 
			383.025,61.042 387.849,61.042 387.849,59.294 386.91,59.294 386.91,58.107 386.91,54.043 386.91,52.856 387.531,52.856 
			387.531,53.992 390.289,53.992 390.289,51.287 380.585,51.287 380.585,53.992 383.339,53.992 		"/>
		<path fill="#A2B7BE" d="M406.431,62.681c-0.014-0.333-0.049-0.664-0.096-0.995c-0.021-0.165-0.047-0.331-0.082-0.496
			c-0.031-0.168-0.064-0.324-0.117-0.506l-0.035-0.131l-0.092-0.072c-0.523-0.411-1.09-0.722-1.664-0.998
			c-0.475-0.224-0.957-0.418-1.443-0.598c-1.359-3.77-3.693-7.11-6.762-9.439c-3.174-2.407-6.906-3.681-10.791-3.681
			c-3.887,0-7.617,1.273-10.791,3.681c-1.768,1.342-3.288,3.024-4.521,4.928v1.513c2.243-3.688,7.053-9.286,15.6-9.286
			c0,0,11.656-0.199,16.201,12.149c0,0,3.26,1.581,3.557,2.271c0.293,0.691,0.592,1.187,0.293,3.458
			c-0.293,2.271-0.492,4.05-3.357,4.248l-0.395,5.036l-1.283,2.47c0,0-1.975,13.829-14.225,14.226
			c-12.332,0.396-15.902-12.941-15.902-12.941l-0.488-2.302v2.704l0.064,0.045c0.018,0.067,0.039,0.134,0.059,0.2
			c0.027,0.095,0.055,0.188,0.084,0.28l0.27,0.812c0.588,1.835,1.424,3.491,2.441,4.944c-0.049,0.013-0.098,0.03-0.146,0.044
			c-0.469-0.218-1.833-0.85-2.771-1.28v2.372c0.482,0.704,1.031,1.478,1.537,2.129c1.174,1.506,2.779,3.047,5.811,3.047
			c0.367,0,0.746-0.023,1.139-0.067c0.906-0.103,1.584-0.185,2.102-0.251c3.182,1.168,6.689,1.24,10.02-0.02
			c0.91-0.346,1.74-0.768,2.502-1.238c0.018-0.001,0.033-0.005,0.047-0.01c1.238-0.299,2.643-0.632,3.336-0.827
			c0.113-0.03,0.25-0.064,0.395-0.098c0.967-0.224,2.582-0.597,3.443-2.32c0.867-1.737,2.283-4.4,2.299-4.429l0.662-1.242
			l-1.291,0.561c-0.068,0.03-1.703,0.742-2.551,1.188c-0.031,0.015-0.064,0.032-0.1,0.046c0.689-1.405,1.035-2.529,1.156-2.959
			l0.469-1.921l1.342-3c0,0,0.373-3.278,0.381-3.275l0.133-1.253c0.117-0.051,0.834-0.1,0.975-0.155
			c0.199-0.08,0.398-0.157,0.6-0.244l0.295-0.133c0.102-0.049,0.193-0.094,0.309-0.149l0.102-0.054l0.07-0.105
			c0.035-0.056,0.055-0.089,0.08-0.131l0.062-0.115c0.045-0.08,0.084-0.158,0.119-0.235c0.074-0.158,0.141-0.316,0.205-0.474
			c0.123-0.317,0.229-0.637,0.32-0.96c0.176-0.649,0.299-1.304,0.369-1.965C406.449,64.015,406.464,63.347,406.431,62.681z"/>
		<path fill="#A2B7BE" d="M385.349,47.611c7.227,0,12.656,3.328,15.424,10.562c-3.656-0.974-8.717-1.426-9.334-1.527
			c0.295,0.106,1.955,1.274,2.264,1.314c2.527,0.326,6.512,1.209,6.799,1.325c0.574,0.231,1.146,0.47,1.705,0.735
			c0.559,0.253,1.109,0.526,1.635,0.835c0.486,0.279,1.049,0.769,1.062,0.925c0.025,0.308,0.037,0.616,0.041,0.927
			c0.006,0.619-0.037,1.24-0.117,1.854c-0.084,0.616-0.363,1.816-0.363,1.816l-0.217,0.035c-0.115-0.03-1.182-0.308-3.016-0.646
			c0.059-0.013,0.115-0.025,0.17-0.039c0.381-0.094,0.756-0.211,1.119-0.356c0.182-0.078,0.361-0.161,0.529-0.256
			c0.168-0.097,0.334-0.205,0.465-0.354c-1.836,0.602-5.631,0.328-9.006-0.02c-3.082-0.318-6.176-0.524-9.283-0.531
			c-3.109,0.007-6.199,0.213-9.285,0.531c-1.987,0.205-4.111,0.379-5.904,0.368v10.104l0.488,2.302c0,0,3.57,13.337,15.902,12.941
			c12.25-0.396,14.225-14.226,14.225-14.226l1.283-2.47l0.395-5.036c2.865-0.198,3.064-1.978,3.357-4.248
			c0.299-2.271,0-2.767-0.293-3.458c-0.297-0.69-3.557-2.271-3.557-2.271c-4.545-12.349-16.201-12.149-16.201-12.149
			c-8.547,0-13.356,5.599-15.6,9.286v2.225C372.833,51.056,378.212,47.611,385.349,47.611z M375.917,69.291
			c-0.232,0.278-0.459,0.571-0.674,0.882l-1.297,1.862l1.889-1.261c0.027-0.02,1.23-0.812,3.197-1.774
			c1.961-0.147,4.125-0.243,6.441-0.243c0.564,0,1.117,0.008,1.664,0.016c-0.381,0.308-0.783,0.599-1.199,0.852l-1.391,0.84
			c-0.877,0.107-1.635,0.323-1.678,0.336c-0.027,0.005-0.051,0.018-0.072,0.032c-0.068,0.038-0.121,0.103-0.145,0.181l-1.42,4.676
			l-7.582,1.686l-2.389-1.673l-0.693-5.628C371.925,69.822,373.74,69.534,375.917,69.291z M386.066,90.354
			c-1.252,0.085-2.52-0.062-3.764-0.403c0.105-0.021,0.178-0.033,0.271-0.043c0.102-0.013,2.332-0.303,3.338-1.799l0.094,0.002
			l0.248-0.002c0.166,0,0.318-0.013,0.477-0.021c0.381-0.032,0.752-0.088,1.117-0.16c0.039,0.04,0.074,0.077,0.113,0.117
			c0.756,0.747,1.691,1.176,2.721,1.252C388.951,89.997,387.322,90.27,386.066,90.354z M386.179,87.617
			c0.188-0.421,0.33-0.746,0.439-0.992c0.219,0.246,0.5,0.554,0.814,0.882c-0.246,0.033-0.486,0.064-0.727,0.085
			c-0.158,0.008-0.322,0.025-0.473,0.025H386.179z M399.955,78.21c-0.09,0.285-0.184,0.564-0.279,0.838
			c-0.381,1.086-0.811,2.075-1.277,2.969c-0.129,0.007-0.266,0.012-0.41,0.012c-0.449,0-0.912-0.037-1.42-0.085
			c-0.883-0.081-2.289-0.24-2.73-0.291c-0.383-0.306-1.689-1.344-2.773-2.2c-0.043-0.032-0.078-0.064-0.117-0.095
			c-0.189-0.162-0.406-0.346-0.848-0.346c-0.402,0-0.986,0.146-2.398,0.573c0.734-0.549,0.74-1.258,0.74-1.258
			s-1.047,0.973-2.732,1.189c-1.688,0.217-3.01-0.818-3.01-0.818c0.057,0.181,0.135,0.587,0.516,0.933
			c-0.451-0.053-0.934-0.088-1.443-0.088c-0.182,0-0.369,0.005-0.549,0.013c-1.035,0.054-2.496,1.622-3.521,3.202
			c-0.502,0.16-2.078,0.659-3.898,1.195c-1.074-1.488-1.805-2.997-2.215-3.968c-0.242-0.565-0.375-0.95-0.404-1.041v-0.003
			c-0.035-0.094-0.07-0.19-0.102-0.291l0.438,0.306v0.003l1.08,0.757l0.359,0.25c0.057,0.038,0.121,0.058,0.186,0.058
			c0.021,0,0.045-0.002,0.066-0.007l9.248-2.06l0.678-0.15c0.113-0.025,0.203-0.108,0.236-0.216l1.414-4.661
			c0.244-0.031,0.459-0.048,0.643-0.048c0.182,0,0.4,0.017,0.643,0.048l1.459,4.799c0.035,0.123,0.143,0.211,0.266,0.226l0.541,0.06
			l0.139,0.017l9.311,1.058c0.076,0.009,0.154-0.013,0.215-0.055l0.939-0.657l0.865-0.604l0.32-0.225
			C400.072,77.77,400.015,77.99,399.955,78.21z M399.599,74.841l-2.408,1.688l-7.574-0.862l-1.416-4.653
			c-0.031-0.104-0.111-0.183-0.213-0.213c-0.047-0.016-0.984-0.283-1.979-0.368l0.182-0.013c0.156-0.011,2.77-0.331,5.889-1.406
			c3.453,0.266,6.275,0.689,8.201,1.04L399.599,74.841z"/>
		<path fill="#A2B7BE" d="M377.189,58.355c0.289-0.11,1.967-1.403,2.26-1.512c-0.59,0.099-8.429,1.296-9.412,1.501v1.223
			c0.647-0.151,1.355-0.293,1.891-0.391C373.015,58.979,376.898,58.466,377.189,58.355z"/>
		<path fill="#FFFFFF" d="M369.929,58.368c0.016-0.005,0.065-0.015,0.107-0.023v-0.233C370.002,58.199,369.963,58.28,369.929,58.368
			z"/>
	</g>
</g>
</svg>
