<?xml version="1.0" encoding="utf-8"?>
<!-- Generator: Adobe Illustrator 16.0.4, SVG Export Plug-In . SVG Version: 6.00 Build 0)  -->
<!DOCTYPE svg PUBLIC "-//W3C//DTD SVG 1.1//EN" "http://www.w3.org/Graphics/SVG/1.1/DTD/svg11.dtd">
<svg version="1.1" id="Layer_1" xmlns="http://www.w3.org/2000/svg" xmlns:xlink="http://www.w3.org/1999/xlink" x="0px" y="0px"
	 width="424.45px" height="127.792px" viewBox="0 0 424.45 127.792" enable-background="new 0 0 424.45 127.792"
	 xml:space="preserve">
<g>
	
		<image overflow="visible" opacity="0.1" width="887" height="370" xlink:href="6887344C08643948.png"  transform="matrix(0.24 0 0 0.24 211.5703 38.9922)">
	</image>
	<g>
		<polygon fill="#8DAE7D" points="415.362,118.76 329.481,47.992 284.517,47.992 260.536,77.97 246.548,77.97 220.57,118.76 		"/>
	</g>
</g>
<g>
	
		<image overflow="visible" opacity="0.1" width="1173" height="522" xlink:href="6887344C08643949.png"  transform="matrix(0.24 0 0 0.24 0 0)">
	</image>
	<g>
		<polygon fill="#8DAE7D" points="6.48,118.76 46.645,41.12 73.956,41.12 96.598,6.48 165.878,6.48 211.521,64.12 245.136,64.12 
			275.012,118.76 		"/>
	</g>
</g>
<polygon fill="#8DAE7D" points="415.362,118.76 329.481,47.992 284.517,47.992 260.536,77.97 246.548,77.97 220.57,118.76 "/>
<polygon opacity="0.15" fill="#49623D" points="314.24,62.971 282.851,62.971 238.867,117.112 258.644,117.112 291.235,77.354 "/>
<g>
	<polygon fill="#B6C8A9" points="329.481,47.992 284.962,47.992 283.845,48.833 279.903,53.76 327.304,53.76 405.134,118.76 
		415.362,118.76 	"/>
</g>
<linearGradient id="SVGID_1_" gradientUnits="userSpaceOnUse" x1="328.7197" y1="115.2598" x2="328.7197" y2="118.7598">
	<stop  offset="0" style="stop-color:#345338;stop-opacity:0"/>
	<stop  offset="1" style="stop-color:#345338;stop-opacity:0.1"/>
</linearGradient>
<polygon fill="url(#SVGID_1_)" points="242.077,118.76 415.362,118.76 411.115,115.26 242.077,115.26 "/>
<g>
	<polygon fill="#8DAE7D" points="415.362,118.76 275.012,118.76 245.136,64.12 211.521,64.12 165.878,6.48 96.598,6.48 
		73.956,41.12 46.645,41.12 6.48,118.76 6.479,123.765 415.362,123.765 	"/>
</g>
<polygon opacity="0.15" fill="#49623D" points="90.996,30.779 80.207,49.96 53.822,49.96 17.847,117.112 94.667,117.112 
	122.253,64.343 92.185,64.343 108.973,30.776 "/>
<polygon fill="#B6C8A9" points="158.128,17.594 204.881,76.345 237.249,76.345 259.896,118.76 274.888,118.76 245.136,64.12 
	211.521,64.12 165.878,6.48 96.598,6.48 89.333,17.594 "/>
</svg>
