<?xml version="1.0" encoding="utf-8"?>
<!-- Generator: Adobe Illustrator 16.0.4, SVG Export Plug-In . SVG Version: 6.00 Build 0)  -->
<!DOCTYPE svg PUBLIC "-//W3C//DTD SVG 1.1//EN" "http://www.w3.org/Graphics/SVG/1.1/DTD/svg11.dtd">
<svg version="1.1" id="Layer_1" xmlns="http://www.w3.org/2000/svg" xmlns:xlink="http://www.w3.org/1999/xlink" x="0px" y="0px"
	 width="517.935px" height="516.346px" viewBox="0 0 517.935 516.346" enable-background="new 0 0 517.935 516.346"
	 xml:space="preserve">
<g>
	<path fill="#FFFFFF" d="M318.102,59.742c4.669-0.397,9.193,0.211,13.362,1.634c0.416-14.746,11.844-27.148,26.891-28.427
		c6.948-0.59,13.534,1.292,18.899,4.908c2.578-17.569,16.939-31.71,35.396-33.279c21.536-1.83,40.476,14.144,42.306,35.678
		c0.016,0.178,0.02,0.353,0.032,0.53c1.689-0.446,3.435-0.761,5.237-0.914c16.292-1.385,30.684,10.289,32.85,26.315
		c11.405,2.839,20.271,12.657,21.322,25.021c1.322,15.547-10.21,29.221-25.757,30.542c-3.132,0.267-6.186,0.003-9.081-0.703
		c-0.434,19.396-16.683,35.895-37.998,37.706c-8.849,0.752-17.253-1.146-24.335-4.975c-8.142,8.011-19.017,13.333-31.287,14.376
		c-27.354,2.325-51.469-17.492-54.699-44.542c-2.407,0.798-4.94,1.335-7.577,1.56c-18.067,1.536-33.96-11.866-35.495-29.934
		C286.631,77.17,300.033,61.278,318.102,59.742z"/>
	<g opacity="0.5">
		<path fill="#BCBEC0" d="M409.793,49.742c1.779,0.241,3.558,0.584,5.321,1.029c1.268,0.321,2.519,0.691,3.745,1.11
			c1.226,0.418,2.432,0.885,3.614,1.396c16.522,7.16,28.47,23.276,30.813,42.728c0.006,0.039,0.016,0.115,0.016,0.115l-0.001,1.541
			c0,0,0.521,0.418,0.778,0.63c1.396,1.116,2.746,2.276,4.005,3.515c1.162,1.125,2.255,2.317,3.162,3.576
			c-0.024,0.307-0.055,0.639-0.095,0.95c-0.057,0.439-0.117,0.884-0.192,1.324c-0.143,0.885-0.329,1.762-0.54,2.636
			c-0.424,1.744-0.983,3.458-1.643,5.125c-0.456,1.132-0.952,2.244-1.497,3.326c-0.26,0.517-0.528,1.025-0.814,1.523
			c-0.44,0.771-0.883,1.544-1.415,2.241c-0.818,1.077-2.119,1.712-3.159,1.571c0,0-2.516-0.292-6.711-0.861
			c-10.53-1.429-31.64-4.602-50.091-9.267c-26.186-6.619-47.348-17.126-47.348-17.126h0.001c-0.622-0.283-1.182-0.54-1.676-0.768
			c-0.066-0.369-0.126-0.744-0.166-1.124c-0.106-0.867-0.157-1.754-0.183-2.643c-0.015-0.555-0.027-0.996-0.034-1.401
			c-0.013-0.896,0.01-1.599,0.145-2.83c0.004-0.032,0.111-0.811,0.153-1.121c0-0.005,0-0.009,0.001-0.015
			c0.005-0.033,0.013-0.064,0.015-0.098c0.001-0.004,0.002-0.017,0.002-0.02c0.062-0.486,0.131-0.972,0.209-1.457
			c0.197-1.247,0.448-2.488,0.773-3.712c0.1-0.387,0.206-0.771,0.318-1.153c0.139-0.479,0.29-0.953,0.455-1.423
			c0.143-0.427,0.3-0.841,0.457-1.256c0.115-0.295,0.244-0.599,0.366-0.881c1.397-0.676,2.923-1.209,4.483-1.646
			c1.694-0.494,3.442-0.829,5.188-1.192c0.984-0.206,1.261-0.817,1.72-1.541C371.757,55.777,391.068,47.2,409.793,49.742
			 M410.563,44.068c-10.31-1.399-20.907,0.198-30.649,4.622c-9.604,4.357-17.993,11.298-24.296,20.092
			c-1.34,0.279-2.72,0.581-4.125,0.989c-2.048,0.574-3.814,1.228-5.405,1.997c-1.244,0.6-2.224,1.629-2.77,2.896
			c-0.145,0.338-0.299,0.701-0.438,1.055c-0.01,0.023-0.019,0.048-0.028,0.071l-0.047,0.125c-0.144,0.383-0.306,0.814-0.464,1.28
			c-0.179,0.507-0.35,1.042-0.535,1.673c-0.142,0.492-0.261,0.921-0.366,1.327c-0.348,1.319-0.648,2.759-0.885,4.255
			c-0.087,0.545-0.166,1.082-0.229,1.602c-0.008,0.061-0.016,0.119-0.024,0.178l-0.063,0.472c-0.046,0.338-0.089,0.661-0.093,0.682
			c-0.002,0.017-0.004,0.032-0.005,0.048c-0.171,1.549-0.196,2.503-0.182,3.541c0.007,0.367,0.018,0.764,0.03,1.238l0.005,0.233
			c0.037,1.205,0.106,2.203,0.219,3.143c0.064,0.583,0.152,1.114,0.216,1.467c0.327,1.842,1.532,3.409,3.229,4.195
			c0.479,0.22,1.016,0.468,1.61,0.737c1.591,0.786,22.428,10.945,48.42,17.515c18.613,4.705,39.77,7.901,50.723,9.388
			c3.969,0.539,6.432,0.831,6.779,0.871c3.07,0.388,6.368-1.093,8.419-3.787c0.759-0.999,1.327-1.991,1.826-2.866
			c0.303-0.526,0.609-1.097,0.957-1.787c0.594-1.176,1.165-2.444,1.698-3.766c0.003-0.01,0.009-0.022,0.011-0.033
			c0.784-1.977,1.415-3.954,1.882-5.88c0.265-1.093,0.471-2.089,0.627-3.048c0.077-0.463,0.15-0.967,0.224-1.54
			c0.045-0.361,0.086-0.766,0.12-1.232c0.106-1.347-0.271-2.689-1.062-3.786c-1.026-1.425-2.271-2.839-3.806-4.325
			c-0.949-0.935-1.994-1.878-3.172-2.862c-2.683-20.927-15.738-38.839-34.162-46.823c-1.319-0.573-2.681-1.098-4.043-1.562
			c-1.376-0.47-2.784-0.886-4.192-1.243C414.563,44.727,412.56,44.339,410.563,44.068L410.563,44.068z"/>
	</g>
	<path fill="#FFFFFF" d="M337.84,168.793c0.562,6.612-4.345,12.436-10.962,12.998c-6.613,0.562-12.436-4.349-12.997-10.962
		c-0.562-6.616,4.347-12.437,10.961-12.998C331.458,157.269,337.277,162.176,337.84,168.793z"/>
	<circle fill="#FFFFFF" cx="297.119" cy="183.17" r="8.302"/>
	<g opacity="0.2">
		<path fill="#94AFB3" d="M412.649,4.578c21.536-1.83,40.476,14.144,42.306,35.678c0.016,0.178,0.02,0.353,0.032,0.53
			c1.689-0.446,3.435-0.761,5.237-0.914c16.292-1.385,30.684,10.289,32.85,26.315c11.405,2.839,20.271,12.657,21.322,25.021
			c1.322,15.547-10.21,29.221-25.757,30.542c-3.132,0.267-6.186,0.003-9.081-0.703c-0.434,19.396-16.683,35.895-37.998,37.706
			c-8.849,0.752-17.253-1.146-24.335-4.975c-8.142,8.011-19.017,13.333-31.287,14.376c-27.354,2.325-51.469-17.492-54.699-44.542
			c-2.407,0.798-4.94,1.335-7.577,1.56c-18.067,1.536-33.96-11.866-35.495-29.934c-1.536-18.068,11.866-33.96,29.935-35.496
			c4.669-0.397,9.193,0.211,13.362,1.634c0.416-14.746,11.844-27.148,26.891-28.427c6.948-0.59,13.534,1.292,18.899,4.908
			C379.832,20.288,394.193,6.146,412.649,4.578 M412.359,1.156c-9.619,0.817-18.758,4.929-25.731,11.576
			c-5.674,5.405-9.757,12.317-11.775,19.821c-5.205-2.452-11.018-3.517-16.789-3.027c-15.194,1.292-27.276,12.772-29.631,27.453
			c-3.474-0.743-7.032-0.964-10.622-0.659c-19.927,1.694-34.761,19.283-33.067,39.209c1.694,19.926,19.284,34.76,39.21,33.066
			c1.504-0.128,3.001-0.351,4.483-0.669c2.403,12.427,9.031,23.547,18.933,31.636c10.959,8.946,24.76,13.217,38.86,12.019
			c11.736-0.998,22.859-5.822,31.593-13.651c7.401,3.493,15.655,4.958,24.029,4.246c11.069-0.94,21.356-5.645,28.967-13.25
			c6.638-6.633,10.773-14.979,11.884-23.836c2.064,0.232,4.147,0.261,6.229,0.084c17.41-1.479,30.368-16.847,28.889-34.255
			c-1.084-12.747-9.7-23.507-21.72-27.433c-3.405-16.769-18.864-28.507-36.166-27.036c-0.65,0.055-1.307,0.131-1.963,0.227
			C454.423,14.969,434.635-0.738,412.359,1.156L412.359,1.156z"/>
		<path fill="#94AFB3" d="M324.842,157.832c6.616-0.562,12.436,4.345,12.998,10.962c0.562,6.612-4.345,12.436-10.962,12.998
			c-6.613,0.562-12.436-4.349-12.997-10.962C313.318,164.213,318.228,158.393,324.842,157.832 M324.551,154.41
			c-8.49,0.722-14.814,8.217-14.093,16.711c0.722,8.493,8.221,14.812,16.711,14.091c8.492-0.722,14.815-8.216,14.094-16.709
			C340.54,160.008,333.044,153.688,324.551,154.41L324.551,154.41z"/>
		<path fill="#94AFB3" d="M296.415,174.898c4.569-0.389,8.587,3,8.976,7.569c0.388,4.567-3,8.586-7.569,8.975
			c-4.567,0.388-8.587-3.001-8.975-7.568C288.458,179.304,291.848,175.286,296.415,174.898 M296.124,171.476
			c-6.447,0.549-11.248,6.239-10.7,12.688c0.548,6.445,6.241,11.248,12.688,10.7c6.448-0.548,11.248-6.242,10.7-12.688
			C308.265,175.727,302.573,170.928,296.124,171.476L296.124,171.476z"/>
	</g>
	<path fill="#D6BD54" d="M461.247,105.383c-0.907-1.259-2-2.452-3.162-3.576c-1.259-1.239-2.609-2.399-4.005-3.515
		c-0.257-0.212-0.778-0.63-0.778-0.63l0.001-1.541c0,0-0.01-0.077-0.016-0.115c-2.344-19.452-14.291-35.568-30.813-42.728
		c-1.183-0.512-2.389-0.978-3.614-1.396c-1.227-0.418-2.478-0.789-3.745-1.11c-20.304-5.129-42.237,3.412-55.145,21.772
		c-0.459,0.724-0.735,1.335-1.72,1.541c-1.745,0.363-3.493,0.699-5.188,1.192c-1.561,0.437-3.086,0.969-4.483,1.646
		c-0.122,0.283-0.251,0.586-0.366,0.881c-0.157,0.416-0.314,0.829-0.457,1.256c-0.165,0.47-0.316,0.944-0.455,1.423
		c-0.112,0.382-0.219,0.767-0.318,1.153c-0.325,1.224-0.576,2.465-0.773,3.712c-0.084,0.525-0.158,1.049-0.226,1.575
		c-0.143,1.319-0.244,2.644-0.268,3.962c-0.01,0.469-0.011,0.937,0.003,1.404c0.025,0.888,0.076,1.775,0.183,2.643
		c0.04,0.38,0.1,0.755,0.166,1.124c1.278,0.592,2.996,1.372,5.098,2.284c8.99,3.902,25.021,10.249,43.994,15.041
		c20.211,5.105,42.426,8.631,54.345,10.339c0.847,0.122,1.643,0.233,2.379,0.335c0.612,0.085,2.918-1.189,3.168-1.547
		c0.503-0.718,0.975-1.47,1.415-2.241c0.286-0.498,0.555-1.006,0.814-1.523c0.545-1.082,1.041-2.194,1.497-3.326
		c0.659-1.667,1.219-3.381,1.643-5.125c0.211-0.874,0.397-1.751,0.54-2.636c0.075-0.44,0.136-0.885,0.192-1.324
		C461.192,106.022,461.223,105.69,461.247,105.383z"/>
	<path fill="#C1A82F" d="M387.159,90.458c0,0-15.975-2.319-16.563-2.386c-0.544-0.063-1.118-0.622-1.181-1.29
		c-0.364-3.938,1.673-11.006,1.673-11.006c1.284-4.255,3.167-7.323,5.633-10.477s19.187-6.886,18.279-5.245
		c-2.278,4.126-4.889,10.795-6.612,19.348C387.045,86.079,387.159,90.458,387.159,90.458z"/>
	<path fill="#C1A82F" d="M420.916,98.9c0,0,15.084,5.748,15.633,5.976c0.507,0.21,1.279,0.001,1.659-0.551
		c2.235-3.264,3.896-10.43,3.896-10.43c0.949-4.342,0.798-7.939,0.178-11.894c-0.621-3.955-13.412-15.352-13.419-13.477
		c-0.017,4.713-0.981,11.809-3.638,20.12C423.148,95.13,420.916,98.9,420.916,98.9z"/>
	<polygon fill="#A41E28" points="400.949,61.524 399.064,68.981 403.581,70.122 404.324,67.18 408.553,68.248 404.455,84.469 
		402.029,83.855 400.771,88.84 410.643,91.334 411.899,86.348 409.474,85.736 413.571,69.516 417.804,70.586 417.06,73.527 
		421.576,74.667 423.458,67.21 	"/>
	<g>
		
			<image overflow="visible" opacity="0.25" width="498" height="186" xlink:href="417E6771EF89AA6A.png"  transform="matrix(0.24 0 0 0.24 342.2471 83.0664)">
		</image>
		<g>
			<path fill="#B59F31" d="M434.557,102.984c0.049-0.021-18.016-6.816-28.806-9.326c-33.179-7.715-54.143-7.54-59.751-6.853
				c-0.002,0.04-0.165,1.214-0.171,1.253c-0.135,1.231-0.157,1.935-0.145,2.83c0.007,0.405,0.02,0.846,0.034,1.401
				c0.025,0.888,0.076,1.775,0.183,2.643c0.04,0.38,0.1,0.755,0.166,1.124c1.278,0.592,2.996,1.372,5.098,2.284
				c8.99,3.902,25.021,10.249,43.994,15.041c20.211,5.105,42.426,8.631,54.345,10.339c1.551,0.221,1.211,0.199,2.388,0.359
				c1.04,0.141,2.341-0.495,3.159-1.571c0.532-0.697,0.975-1.47,1.415-2.241c0.286-0.498,0.554-1.007,0.812-1.523
				c0.262-0.517,0.511-1.041,0.75-1.571c0.197-0.439,0.099-1.611-1.245-2.437C450.888,111.104,441.604,105.812,434.557,102.984z"/>
		</g>
	</g>
	<path fill="#905924" d="M400.789,101.01c0,0,27.896,6.062,51.12,19.31c0,0,1.299,0.888,1.125,2.173
		c-0.175,1.284-1.143,1.586-1.143,1.586s-30.998-3.605-56.802-10.128c-26.186-6.619-47.348-17.126-47.348-17.126l1.963-2.027
		C349.705,94.797,363.414,91.568,400.789,101.01z"/>
</g>
<g>
	<path fill="#545960" d="M260.847,390.049c0,0,86.38,34.542,95.841,38.197c16.597,6.409,30.609,27.66,33.19,47.206
		c1.259,9.53,5.897,36.735,5.897,36.735l0.244,4.277H0v-4.277c0,0,4.639-27.205,5.897-36.735
		c2.581-19.546,19.907-43.151,33.189-47.206c9.702-2.964,95.684-38.197,95.684-38.197H260.847z"/>
	<path fill="#E6C9A9" d="M249.05,351.34l-103.22,10.139l-2.814,18.253c3.491,3.198,20.226,17.424,44.78,20.493
		c0,0,1.165,22.816,10.565,32.218c0,0,8.479-17.88,9.585-30.229c0,0,35.825-6.999,45.284-21.286L249.05,351.34z"/>
	<g>
		
			<image overflow="visible" opacity="0.25" width="928" height="926" xlink:href="417E6771EF89AA6E.png"  transform="matrix(0.24 0 0 0.24 87.1582 161.4888)">
		</image>
		<g>
			<path fill="#E6C9A9" d="M297.865,268.07c-0.579-0.478-6.233-3.714-9.002-5.25c-0.026-49.86-40.369-90.271-90.134-90.271
				c-49.779,0-90.132,40.438-90.132,90.317c0,0.121,0.003,0.243,0.003,0.364l-0.003,0.005c0,0,0.002,0.035,0.006,0.087
				c0.005,1.039,0.027,2.072,0.066,3.102c-3.476,1.902-9.118,5.05-9.693,5.532c-0.629,0.518-1.106,1.84-0.428,7.986
				c0.516,4.619,2.14,11.719,3.798,17.039c1.066,3.414,2.144,6.097,2.949,6.913c2.377,0.414,7.508-0.264,10.308-1.02
				c-0.15-0.532-0.295-1.062-0.438-1.593c4.424,16.381,11.705,34.274,23.576,45.357c20.354,18.999,42.721,24.134,55.222,25.455
				c0,0,1.828,0.508,4.95,0.373c3.124,0.135,4.952-0.373,4.952-0.373c12.499-1.321,34.866-6.456,55.22-25.455
				c12.401-11.577,19.792-30.588,24.151-47.54c-0.028,0.11-0.052,0.22-0.081,0.33c2.893,0.609,7.161,1.041,9.269,0.629
				c0.963-1.045,2.202-4.669,3.318-9.021c1.241-4.84,2.326-10.584,2.699-14.695C299.015,269.965,298.507,268.6,297.865,268.07z"/>
		</g>
	</g>
	<path opacity="0.6" fill="#D8D5D5" d="M109.457,248.857c0,0,72.255-17.94,178.18-1.966l-4.672,41.042l-19.414,12.78l-48.169-8.111
		l-7.865-25.805l-19.169-0.491l-7.373,27.033l-49.645,11.06l-19.66-13.025L109.457,248.857z"/>
	<g>
		<circle fill="#FFFFFF" cx="240.438" cy="256.723" r="3.231"/>
		<path fill="#353434" d="M247.569,264.225c0.357-0.986,0.483-2.308,0.316-4.089c-0.649-6.838-6.315-11.728-11.369-11.061
			c-4.487,0.59-7.153,5.38-7.086,11.211c-0.012,0.884,0.034,1.794,0.152,2.719c0.876,6.809,5.017,5.812,10.077,5.147
			c0.515-0.058,0.999-0.118,1.483-0.188c0.564-0.064,1.108-0.137,1.629-0.218c4.904-0.695,8.416-1.295,11.369-0.398
			C254.115,267.306,252.103,264.559,247.569,264.225z M240.095,252.711c1.434-0.173,2.698,0.693,2.832,1.917
			c0.133,1.229-0.921,2.359-2.355,2.524c-1.423,0.167-2.689-0.693-2.825-1.916C237.615,254.007,238.672,252.876,240.095,252.711z
			 M229.474,261.397c0.025,0.381,0.061,0.762,0.109,1.148C229.534,262.159,229.498,261.776,229.474,261.397z"/>
	</g>
	<g>
		<circle fill="#FFFFFF" cx="163.47" cy="256.969" r="3.23"/>
		<path fill="#353434" d="M144.6,267.596c2.954-0.898,6.466-0.299,11.369,0.396c0.521,0.082,1.064,0.152,1.63,0.219
			c0.483,0.067,0.968,0.128,1.483,0.188c5.06,0.664,9.2,1.66,10.076-5.147c0.119-0.927,0.164-1.835,0.154-2.719
			c0.066-5.832-2.599-10.622-7.087-11.211c-5.054-0.667-10.721,4.222-11.369,11.061c-0.168,1.78-0.042,3.102,0.316,4.089
			C146.64,264.804,144.627,267.551,144.6,267.596z M166.161,255.482c-0.135,1.224-1.401,2.084-2.824,1.916
			c-1.436-0.164-2.488-1.293-2.356-2.525c0.135-1.222,1.399-2.087,2.834-1.916C165.237,253.123,166.291,254.251,166.161,255.482z
			 M169.158,262.79c0.049-0.386,0.084-0.767,0.111-1.147C169.244,262.023,169.207,262.404,169.158,262.79z"/>
	</g>
	<path fill="#353434" d="M141.303,260.482c0.378,0.718,0.876,0.667,1.105-0.111c0,0,2.03-6.889,7.559-11.238
		c5.528-4.352,14.727-4.02,14.727-4.02c0.81,0.029,0.898-0.276,0.193-0.68c0,0-8.09-4.636-16.977,1.886
		C137.756,253.771,141.303,260.482,141.303,260.482z"/>
	<path fill="#353434" d="M258.405,261.22c-0.379,0.717-0.876,0.668-1.105-0.11c0,0-2.03-6.891-7.558-11.241
		c-5.528-4.351-14.729-4.018-14.729-4.018c-0.811,0.03-0.896-0.276-0.194-0.68c0,0,8.091-4.636,16.978,1.884
		C261.953,254.507,258.405,261.22,258.405,261.22z"/>
	<path opacity="0.45" fill="#FFFFFF" d="M112.283,278.73c0,0,29.865,5.149,75.945-1.118l-7.254,15.728l-48.047,11.552
		l-21.258-13.518L112.283,278.73z"/>
	<path opacity="0.45" fill="#FFFFFF" d="M284.369,273.785c0,0-29.612,6.444-75.923,2.188l7.932,15.397l48.505,9.45l20.649-14.43
		L284.369,273.785z"/>
	<g>
		
			<image overflow="visible" opacity="0.25" width="834" height="362" xlink:href="417E6771EF89AA69.png"  transform="matrix(0.24 0 0 0.24 98.2734 225.4722)">
		</image>
		<g>
			<path fill="#545960" d="M293.854,239.269c-6.122-1.305-22.397-4.599-39.826-6.632c-22.119-2.58-47.188-3.87-88.107-1.474
				c-40.919,2.396-63.223,8.202-63.223,8.202l7.159,53.768l21.026,14.726l53.053-11.799l7.825-25.802
				c0.199-0.646,0.74-1.125,1.401-1.231c1.986-0.319,3.721-0.476,5.194-0.476c1.454,0,3.198,0.156,5.176,0.476
				c0.664,0.106,1.208,0.585,1.398,1.231l8.034,26.441l53.341,6.066l20.449-14.332L293.854,239.269z M279.215,285.313
				l-14.476,10.117c-0.336,0.243-0.772,0.356-1.188,0.308l-43.624-4.959c-0.698-0.075-1.28-0.562-1.479-1.226l-7.86-25.864
				c-2.1-0.539-7.503-1.809-12.23-1.809c-4.746,0-10.15,1.27-12.244,1.809l-7.867,25.864c-0.135,0.447-0.446,0.82-0.857,1.038
				c-0.131,0.075-0.276,0.123-0.432,0.159l-43.621,9.704c-0.135,0.025-0.255,0.043-0.384,0.043c-0.349,0-0.706-0.108-0.997-0.319
				l-14.465-10.131c-0.413-0.278-0.679-0.729-0.742-1.218L112,252.461c14.077-2.637,47.16-7.91,86.6-7.91
				c38.762,0,71.479,5.173,86.009,7.895l-4.67,31.671C279.869,284.593,279.605,285.031,279.215,285.313z"/>
		</g>
	</g>
	<g>
		
			<image overflow="visible" opacity="0.25" width="1197" height="563" xlink:href="417E6771EF89AA6B.png"  transform="matrix(0.24 0 0 0.24 46.9834 144.9722)">
		</image>
		<g>
			<path fill="#A41E28" d="M323.168,257.293c-3.467-1.41-6.786-3.094-8.626-4.891c-4.632-4.528-9.559-14.646-9.766-15.074
				l-1.972-4.072l4.522,0.122c0.017,0,0.218,0.006,0.562,0.006c1.856,0,8.243-0.139,12.601-1.935
				c5.513-2.27,8.278-11.241,9.312-18.245c-4.56,3.154-11.484,7.019-17.886,6.833c-10.996-0.307-20.231-10.403-25.207-19.748
				c-0.337-0.63-0.765-1.491-1.284-2.537c-3.875-7.798-12.95-26.059-25.682-31.864c-4.679-2.133-9.496-3.214-14.326-3.214
				c-6.408,0-10.625,1.95-10.667,1.97l-0.567,0.273h-6.226l-0.764-0.631c-0.182-0.149-18.178-14.891-33.252-14.891
				c-8.925,0-23.92,2.531-39.237,9.635c-19.093,8.856-41.506,36.089-44.421,41.562c-0.351,0.642-8.362,15.01-20.665,17.913
				c-2.654,0.625-5.685,0.943-9.011,0.943c-3.013,0-5.965-0.255-8.594-0.607L90.91,235.99l-5.952,0.738
				c-0.142,0.019-14.443,1.893-23.75,9.723c-4.337,3.648-7.571,7.768-9.801,11.155c4.455-1.896,9.84-3.952,13.176-4.419
				c0.792-0.111,1.674-0.166,2.621-0.166c6.374,0,14.604,2.52,14.952,2.627l3.62,1.119l-2.185,3.097
				c-0.249,0.352-6.194,8.66-15.806,12.317c-2.331,0.887-5.407,1.865-8.521,2.789c3.629,0.29,7.694,0.503,11.84,0.503
				c8.513,0,15.435-0.874,20.574-2.597c16.547-5.55,44.709-35,44.991-35.296l6.587-4.652l-2.003,7.478
				c-0.087,0.24-2.162,5.944-6.393,10.266c-0.667,0.683-1.375,1.411-2.088,2.146c12.012-3.495,33.278-10.58,50.839-21.175
				c17.12-10.33,37.385-29.862,37.587-30.058l3.645-3.527l0.97,4.979c1.164,5.976,4.802,22.422,7.637,26.706
				c2.824,4.271,9.2,8.332,14.104,11.012c-0.405-1.253-0.78-2.601-1.063-3.982c-1.133-5.52-1.252-10.124-1.257-10.317l-0.261-11.071
				l5.411,9.661c2.646,4.722,10.644,17.775,15.827,21.433c5.034,3.553,13.64,6.815,23.288,8.967
				c-3.089-3.786-6.026-8.457-7.691-12.42l-3.607-11.582l8.058,8.539c0.109,0.104,11.034,10.64,17.727,14.372
				C307.125,256.101,314.82,257.279,323.168,257.293z"/>
			<polygon fill="#A41E28" points="298.655,259.869 298.655,259.869 298.655,259.869 			"/>
		</g>
	</g>
	<path fill="#9A7F62" d="M185.215,347.199c0,0,10.921,3.642,20.377,2.635c9.455-1.006,18.755-8.855,18.755-8.855
		s-0.752,11.391-19.05,13.336C186.996,356.26,185.215,347.199,185.215,347.199z"/>
	<path fill="#A51E28" d="M285.014,325.254c-0.174,0.09-0.359,0.184-0.523,0.27c-2.901,1.524-6.708,2.272-11.624,2.272
		c-2.927,0-5.796-0.246-8.976-0.533c-6.353-0.582-17.104-1.849-17.217-1.866l-0.819-0.087l-0.651-0.526
		c-0.098-0.063-9.513-7.573-17.127-13.559c-0.308-0.251-0.591-0.491-0.843-0.693c-0.804-0.686-0.804-0.686-1.28-0.686
		c-2.445,0-9.543,2.204-25.087,7.021l-0.953,0.304l-0.943-0.357c-0.105-0.028-10.304-3.809-22.526-3.809
		c-1.003,0-2,0.023-2.972,0.071c-1.224,0.063-8.094,3.327-16.885,17.225l-0.564,0.897l-1.013,0.323
		c-0.145,0.049-15.269,4.928-31.311,9.517l-1.035,0.292l-0.989-0.456c-0.104-0.036-6.367-2.948-12.337-5.685
		c0.438,0.203,0.881,0.403,1.322,0.607c5.894,5.086,17.179,14.869,18.434,16.229c0.174,0.192,0.417,0.432,0.703,0.699
		c-0.293-0.327-0.574-0.667-0.852-1.008c-0.003-0.003-0.006-0.007-0.01-0.013l0.002,0.002l-0.002-0.002
		c2.601,2.467,5.503,4.597,8.674,6.097c1.581,0.742,3.24,1.319,4.928,1.599c0.849,0.141,1.675,0.21,2.537,0.21
		c0.871,0,1.763-0.027,2.652-0.069c3.524-0.182,7.085-0.452,10.635-0.796c3.544-0.319,7.094-0.675,10.636-1.104
		c3.537-0.379,7.075-0.825,10.58-1.37c1.759-0.257,3.504-0.545,5.208-0.923c0.838-0.197,1.712-0.418,2.374-0.716
		c0.604-0.289,1.339-0.873,1.984-1.426c1.32-1.135,2.595-2.396,3.856-3.653c1.265-1.256,2.495-2.548,3.73-3.856
		c2.075-2.177,3.857-4.485,5.868-6.726c0.258-0.277,0.52-0.574,0.786-0.86c0,0.004,0,0.004,0.005,0.004l0.022,0.026
		c0.422,0.302,0.838,0.607,1.248,0.929c2.42,1.806,4.921,3.759,7.331,5.445c3.104,2.184,6.252,4.37,9.506,6.191
		c0.813,0.451,1.651,0.876,2.453,1.14c0.104,0.039,0.19,0.057,0.273,0.069c0.059,0.033,0.272,0.068,0.298,0.068
		c0.157,0.022,0.37,0.035,0.574,0.048c0.438,0.004,0.892-0.013,1.347-0.035c1.836-0.127,3.697-0.396,5.561-0.687
		c3.724-0.58,7.454-1.25,11.164-1.993c3.717-0.712,7.429-1.475,11.117-2.295c3.712-0.784,7.401-1.651,11.064-2.574
		c1.822-0.491,3.645-0.943,5.272-1.724c1.657-0.772,3.199-1.833,4.619-3.049c2.862-2.438,5.271-5.464,7.271-8.755
		c-0.002,0.006-0.003,0.007-0.005,0.011C283.733,328.65,284.54,326.615,285.014,325.254z"/>
	<path fill="#88162B" d="M290.646,322.526c-0.098,0.047-0.195,0.093-0.294,0.139c-0.204,0.093-0.403,0.188-0.603,0.28
		c-0.16,0.074-0.318,0.15-0.481,0.224c-0.129,0.062-0.259,0.125-0.389,0.187c-0.197,0.094-0.396,0.188-0.592,0.282
		c-0.082,0.041-0.166,0.08-0.252,0.122c-0.225,0.106-0.445,0.211-0.663,0.318c-0.047,0.023-0.098,0.048-0.146,0.07
		c-0.236,0.118-0.474,0.232-0.703,0.346c-0.023,0.013-0.047,0.024-0.071,0.036c-0.508,0.25-0.989,0.493-1.438,0.725
		c-0.474,1.359-1.28,3.396-2.508,5.675c-0.002,0.003-0.005,0.007-0.005,0.011c0.005-0.008,0.01-0.015,0.01-0.015
		c-0.005,0.007-0.01,0.011-0.013,0.018c-1.997,3.279-4.402,6.296-7.258,8.73c-1.42,1.216-2.962,2.276-4.619,3.049
		c-1.628,0.78-3.45,1.232-5.272,1.724c-3.663,0.923-7.353,1.79-11.064,2.574c-3.688,0.82-7.4,1.583-11.117,2.295
		c-3.71,0.745-7.44,1.413-11.164,1.993c-1.863,0.29-3.725,0.56-5.561,0.687c-0.455,0.023-0.908,0.039-1.347,0.035
		c-0.204-0.012-0.417-0.025-0.574-0.048c-0.025,0-0.239-0.035-0.298-0.068c-0.083-0.013-0.17-0.03-0.273-0.069
		c-0.802-0.261-1.64-0.688-2.453-1.14c-3.254-1.821-6.401-4.008-9.506-6.191c-2.41-1.687-6.077-4.584-8.497-6.391l0.956,1.245
		l0.015,0.014c0.149,0.137,0.301,0.263,0.451,0.395c-0.003-0.002-0.006-0.004-0.011-0.005c-0.11-0.083-0.216-0.165-0.318-0.239
		l2.027,2.418c0.007,0.008,0.085,0.101,0.233,0.274c1.033,1.217,5.364,6.242,10.507,11.341c3.913,3.882,8.638,5.842,14.053,5.842
		c1.851,0,3.796-0.243,5.759-0.712c1.817-0.444,3.796-0.917,5.819-1.407c6.006-1.427,12.657-3.021,17.075-4.168
		c0.292-0.079,0.579-0.151,0.853-0.225c0.627-0.165,1.192-0.316,1.698-0.457c0.796-0.227,1.676-0.434,2.608-0.644
		c5.355-1.241,12.68-2.941,16.559-10.716c1.071-2.144,2.28-4.517,3.522-6.937c1.729-3.363,3.527-6.82,5.125-9.873
		c0.254-0.482,0.506-0.965,0.751-1.426c0-0.003,0-0.003,0-0.003c0.131-0.247,0.262-0.498,0.387-0.736
		C291.26,322.241,290.952,322.383,290.646,322.526z"/>
	<path fill="#88162B" d="M202.946,338.561l0.438-1.191c-2.01,2.239-4.579,5.411-6.654,7.587c-1.235,1.31-2.466,2.601-3.73,3.856
		c-1.262,1.258-2.536,2.52-3.856,3.653c-0.646,0.555-1.38,1.136-1.984,1.426c-0.662,0.298-1.536,0.519-2.374,0.716
		c-1.704,0.378-3.449,0.668-5.208,0.924c-3.505,0.545-7.043,0.992-10.58,1.37c-3.542,0.429-7.092,0.785-10.636,1.104
		c-3.55,0.344-7.11,0.615-10.635,0.797c-0.89,0.04-1.781,0.068-2.652,0.068c-0.862,0-1.688-0.068-2.537-0.209
		c-1.688-0.281-3.347-0.855-4.928-1.6c-3.17-1.5-6.072-3.629-8.672-6.094c0.002,0.002,0.005,0.008,0.008,0.01
		c0.352,0.431,0.739,0.837,1.108,1.25c-0.091-0.083-0.175-0.163-0.257-0.241c-0.286-0.268-0.529-0.507-0.703-0.701
		c-1.255-1.356-12.54-11.14-18.434-16.227c-0.441-0.205-0.884-0.405-1.322-0.609c1.043,1.547,2.188,3.221,3.374,4.931
		c1.725,2.484,3.543,5.041,5.323,7.441c0.804,1.087,1.604,2.145,2.376,3.139c6.405,8.243,14.47,15.858,29.943,15.858
		c1.938,0,4-0.117,6.114-0.356c0.494-0.056,0.974-0.11,1.445-0.165c0.451-0.051,0.898-0.101,1.33-0.152
		c13.456-1.549,17.146-2.207,19.195-2.559c0.53-0.094,0.982-0.173,1.472-0.244c0.191-0.028,0.386-0.059,0.593-0.086
		c0.075-0.005,4.623-0.591,9.071-2.755c3.065-1.489,6.08-3.727,7.556-7.035c3.724-8.328,4.48-10.32,4.51-10.394L202.946,338.561
		L202.946,338.561z"/>
	<path fill="#88162B" d="M59.266,274.97c3.629,0.29,7.694,0.503,11.84,0.503c8.513,0,15.435-0.874,20.574-2.597
		c16.547-5.55,44.709-35,44.991-35.296l6.587-4.652C89.798,280.828,59.266,274.97,59.266,274.97z"/>
	<path fill="#88162B" d="M51.407,257.606c4.455-1.896,9.84-3.952,13.176-4.419c0.792-0.111,1.674-0.166,2.621-0.166
		c6.374,0,14.604,2.52,14.952,2.627l3.62,1.119C85.776,256.767,76.649,233.856,51.407,257.606z"/>
	<path fill="#88162B" d="M72.013,218.842L90.91,235.99C90.91,235.99,88.428,223.943,72.013,218.842z"/>
	<path fill="#88162B" d="M132.774,252.817c12.012-3.495,33.278-10.58,50.839-21.175c17.12-10.33,37.385-29.862,37.587-30.058
		l3.645-3.527l6.016-20.646C230.86,177.411,197.753,224.281,132.774,252.817z"/>
	<path fill="#88162B" d="M303.986,254.352c3.306,1.406,10.834,2.927,19.182,2.941c-20.376-0.992-49.026-33.012-49.026-33.012
		l3.264,8.751C277.405,233.033,285.675,246.553,303.986,254.352z"/>
	<path fill="#88162B" d="M224.216,198.667l0.629-0.609l0.97,4.979c1.164,5.976,4.802,22.422,7.637,26.706
		c2.824,4.271,9.2,8.332,14.104,11.012c-15.25-16.54-20.94-49.284-20.94-49.284L224.216,198.667z"/>
	<path fill="#88162B" d="M244.975,215.382l5.411,9.661c2.646,4.722,10.644,17.775,15.827,21.433
		c5.034,3.553,13.64,6.815,23.288,8.967C264.293,243.652,244.975,215.382,244.975,215.382z"/>
	<path fill="#88162B" d="M307.889,233.384c1.856,0,8.243-0.139,12.601-1.935c5.513-2.27,8.278-11.241,9.312-18.245
		c-7.179,15.571-26.996,20.052-26.996,20.052l4.522,0.122C307.344,233.378,307.545,233.384,307.889,233.384z"/>
	<path fill="#9A7F62" d="M183.271,302.695c0,0,7.655,4.775,15.274,4.775s16.432-6.823,16.432-6.823s-1.562,11.247-16.309,11.247
		S183.271,302.695,183.271,302.695z"/>
	<path opacity="0.4" fill="#A99580" d="M283.994,296.062c-0.268,1.112-0.545,2.233-0.838,3.367c2.893,0.609,7.161,1.041,9.269,0.629
		c0.963-1.045,2.202-4.669,3.318-9.021C293.175,293.489,288.688,296.832,283.994,296.062z"/>
	<path opacity="0.4" fill="#A99580" d="M102.347,296.981c1.066,3.414,2.144,6.097,2.949,6.913c2.377,0.414,7.508-0.264,10.308-1.02
		c-0.15-0.532-0.295-1.062-0.438-1.593C110.271,302.025,105.564,299.443,102.347,296.981z"/>
	<path opacity="0.4" fill="#3A4049" d="M208.132,402.216c0,0,17.817,25.929,24.453,40.675c0,0,1.475,1.844,2.948,0
		c1.476-1.843,26.912-40.922,28.755-50.999L208.132,402.216z"/>
	<path opacity="0.4" fill="#3A4049" d="M187.39,400.563c0,0-21.663,30.458-28.811,44.964c0,0-1.538,1.789-2.948-0.104
		c-1.408-1.892-20.299-44.786-21.789-54.922L187.39,400.563z"/>
	<g>
		
			<image overflow="visible" opacity="0.25" width="272" height="262" xlink:href="417E6771EF89AA68.png"  transform="matrix(0.24 0 0 0.24 203.708 376.0405)">
		</image>
		<g>
			<path fill="#677E99" d="M253.228,380.464c0,0-12.841,15.115-45.096,21.752l26.417,32.181l29.983-42.873L253.228,380.464z"/>
		</g>
	</g>
	<polygon opacity="0.7" fill="#3A4049" points="316.628,471.733 328.673,492.539 333.469,516.377 321.303,516.377 	"/>
	<g>
		
			<image overflow="visible" opacity="0.25" width="262" height="279" xlink:href="417E6771EF89AA76.png"  transform="matrix(0.24 0 0 0.24 129.3633 374.9946)">
		</image>
		<g>
			<path fill="#677E99" d="M143.005,379.418c0,0,18.742,17.858,44.791,20.807l-30.727,37.123l-23.282-46.93L143.005,379.418z"/>
		</g>
	</g>
	<polygon fill="#353B44" points="198.361,432.443 192.462,443.134 192.462,473.916 186.012,473.916 186.012,443.134 	"/>
	<path opacity="0.7" fill="#3A4049" d="M313.194,474.468l4.362-61.432c-2.82-1.131-5.678-2.28-8.537-3.432l-10.939,65.97
		L313.194,474.468z"/>
	<polygon opacity="0.7" fill="#3A4049" points="81.018,471.733 68.971,492.539 64.176,516.377 76.34,516.377 	"/>
	<path opacity="0.7" fill="#3A4049" d="M84.449,474.468l-4.362-62.187c2.821-1.13,5.679-2.28,8.536-3.433l10.941,66.726
		L84.449,474.468z"/>
	<g>
		
			<image overflow="visible" opacity="0.25" width="1090" height="224" xlink:href="417E6771EF89AA79.png"  transform="matrix(0.24 0 0 0.24 68.4023 467.3091)">
		</image>
		<g>
			<polygon fill="#8696AC" points="325.481,516.463 72.826,516.463 80.204,471.733 318.102,471.733 			"/>
			<path fill="#677E99" d="M257.161,509.681c0,1.839-1.503,3.34-3.341,3.34H144.5c-1.837,0-3.34-1.501-3.34-3.34v-17.274
				c0-1.837,1.503-3.34,3.34-3.34h109.32c1.838,0,3.341,1.503,3.341,3.34V509.681z"/>
			<path fill="#4F6984" d="M144.5,515.235h109.32c1.838,0,3.341-1.502,3.341-3.339v-6.632c-9.887,1.164-42.192,4.812-58.614,4.812
				c-15.796,0-46.282-3.374-57.387-4.669v6.488C141.16,513.733,142.663,515.235,144.5,515.235z"/>
			<path fill="#365572" d="M256.318,492.272c0,0,1.752,15.357-2.351,23.369l6.572-0.909
				C260.54,514.732,260.935,498.734,256.318,492.272z"/>
			<path fill="#365572" d="M141.337,492.272c0,0-1.751,15.357,2.352,23.369l-6.574-0.909
				C137.114,514.732,136.721,498.734,141.337,492.272z"/>
			<path fill="#365572" d="M151.728,489.059c0,0,35.391,3.69,46.449,3.69c11.06,0,46.449-3.69,46.449-3.69
				s-40.183,0.255-46.449,0.255C191.911,489.314,151.728,489.059,151.728,489.059z"/>
		</g>
	</g>
	<g>
		
			<image overflow="visible" opacity="0.25" width="992" height="480" xlink:href="417E6771EF89AA7A.png"  transform="matrix(0.24 0 0 0.24 80.082 395.7212)">
		</image>
		<g>
			<path fill="#8696AC" d="M302.619,483.54l-26.628-3.896c0,0,11.944-74.624,12.287-77.453c0.341-2.83,3.507-1.898,3.507-1.898
				l19.437,7.573c0,0,2.896,0.486,2.189,4.408C312.705,416.195,302.619,483.54,302.619,483.54z"/>
			<circle fill="#DCDDE0" cx="286.278" cy="494.352" r="12.042"/>
			<path fill="#677E99" d="M276.372,477.255l26.97,1.462c0.543-3.627,1.352-9.015,2.28-15.195l-26.406-4.056
				C277.953,467.37,276.908,473.919,276.372,477.255z"/>
			<g>
				<path fill="#DCDDE0" d="M304.816,483.443c-0.235,1.606-1.741,2.727-3.345,2.493l-26.629-3.884
					c-1.605-0.234-2.727-1.74-2.493-3.344l1.667-11.432c0.234-1.604,1.74-2.727,3.344-2.493l26.629,3.886
					c1.606,0.233,2.727,1.738,2.493,3.343L304.816,483.443z"/>
			</g>
			<path fill="#8696AC" d="M95.409,483.54l26.628-3.896c0,0-11.945-74.624-12.287-77.453c-0.343-2.83-3.508-1.898-3.508-1.898
				l-19.437,7.573c0,0-2.896,0.486-2.188,4.408C85.322,416.195,95.409,483.54,95.409,483.54z"/>
			<circle fill="#DCDDE0" cx="111.75" cy="493.613" r="12.042"/>
			<path fill="#677E99" d="M122.037,479.643c0,0-1.468-9.16-3.386-21.18l-26.36,4.292c1.756,11.692,3.118,20.784,3.118,20.784
				L122.037,479.643z"/>
			<g>
				<path fill="#DCDDE0" d="M93.213,483.443c0.233,1.606,1.738,2.727,3.344,2.493l26.628-3.884c1.605-0.234,2.727-1.74,2.493-3.344
					l-1.668-11.432c-0.233-1.604-1.738-2.727-3.344-2.493l-26.629,3.886c-1.604,0.233-2.726,1.738-2.492,3.343L93.213,483.443z"/>
			</g>
			<path fill="#B3B5B8" d="M274.843,482.052l26.629,3.884c1.604,0.233,3.109-0.887,3.345-2.493l0.143-0.988
				c0,0-8.295,0.757-15.977-0.318c-7.835-1.098-16.463-4.596-16.463-4.596l-0.17,1.168
				C272.116,480.312,273.237,481.818,274.843,482.052z"/>
			<path fill="#B3B5B8" d="M286.278,503.131c-6.355,0-11.548-4.261-11.998-9.654c-0.021,0.289-0.044,0.578-0.044,0.875
				c0,6.648,5.392,12.041,12.042,12.041c6.651,0,12.041-5.393,12.041-12.041c0-0.297-0.021-0.586-0.044-0.875
				C297.827,498.871,292.633,503.131,286.278,503.131z"/>
			<path fill="#B3B5B8" d="M123.181,482.052l-26.629,3.884c-1.605,0.233-3.11-0.887-3.344-2.493l-0.144-0.988
				c0,0,8.293,0.757,15.977-0.318c7.835-1.098,16.462-4.596,16.462-4.596l0.17,1.168
				C125.907,480.312,124.785,481.818,123.181,482.052z"/>
			<path fill="#B3B5B8" d="M111.744,503.131c6.354,0,11.549-4.261,11.998-9.654c0.021,0.289,0.044,0.578,0.044,0.875
				c0,6.648-5.391,12.041-12.042,12.041c-6.65,0-12.042-5.393-12.042-12.041c0-0.297,0.022-0.586,0.044-0.875
				C100.195,498.871,105.389,503.131,111.744,503.131z"/>
		</g>
	</g>
	<g>
		<circle fill="#B3B5B8" cx="208.177" cy="452.532" r="8.11"/>
		<path opacity="0.8" fill="#FFFFFF" d="M208.178,460.642c4.479,0,8.109-3.632,8.109-8.11c0-0.075-0.009-0.149-0.011-0.225h-16.198
			c-0.002,0.075-0.012,0.149-0.012,0.225C200.066,457.01,203.697,460.642,208.178,460.642z"/>
	</g>
	<g opacity="0.6">
		<circle fill="#545960" cx="205.596" cy="450.088" r="1.29"/>
		<circle fill="#545960" cx="205.596" cy="454.973" r="1.29"/>
		<circle fill="#545960" cx="210.76" cy="450.088" r="1.291"/>
		<circle fill="#545960" cx="210.76" cy="454.973" r="1.291"/>
	</g>
</g>
</svg>
