<svg version="1.1" id="TravisFavicon" xmlns="http://www.w3.org/2000/svg" xmlns:xlink="http://www.w3.org/1999/xlink" x="0px"
	 y="0px" viewBox="0 0 15 16.6" style="enable-background:new 0 0 15 16.6;" xml:space="preserve">
<g>
	<g>
		<path d="M0.4,8C0.3,8,0.2,8,0.2,8C0.1,7.9,0,7.8,0,7.7l0-2.6C0,5,0.1,4.9,0.2,4.9C1.6,4.1,4.6,4,4.7,4c0.2,0,0.3,0.1,0.3,0.3
			S4.9,4.6,4.8,4.6c0,0-2.8,0.1-4.1,0.7l0,2c0.9-0.2,3.6-0.6,7-0.6h0.1c3.4,0,5.7,0.4,6.6,0.6l0-2c-1.4-0.6-4.1-0.7-4.1-0.7
			c-0.2,0-0.3-0.2-0.3-0.3S10.1,4,10.3,4c0.1,0,3.1,0.1,4.6,0.9C14.9,4.9,15,5,15,5.1l0,2.6c0,0.1,0,0.2-0.1,0.2
			C14.8,8,14.7,8.1,14.6,8c0,0-2.6-0.6-6.8-0.6H7.7C3.4,7.4,0.4,8,0.4,8C0.4,8,0.4,8,0.4,8z"/>
	</g>
	<g>
		<path d="M13.7,5.1c-0.1,0-0.3-0.1-0.3-0.2c-0.5-1.7-1.6-3-3.3-3.7C8.7,0.6,7.5,0.6,7.5,0.6h0c0,0-1.2,0-2.5,0.5
			C3.2,1.9,2.1,3.1,1.6,4.8C1.6,5,1.4,5.1,1.3,5C1.1,5,1,4.8,1,4.7c0.5-1.9,1.8-3.3,3.7-4.1C6.2,0,7.4,0,7.5,0h0
			c0.1,0,1.3,0,2.7,0.6c1.9,0.8,3.2,2.2,3.7,4.1C14,4.8,13.9,5,13.7,5.1C13.7,5.1,13.7,5.1,13.7,5.1z"/>
	</g>
	<g>
		<path d="M12.2,11.4C12.2,11.4,12.2,11.4,12.2,11.4l-3-0.2C9.1,11.2,9,11.1,9,11L7.9,9.1h-1L5.7,11c-0.1,0.1-0.1,0.2-0.3,0.2
			l-3,0.2c-0.1,0-0.2,0-0.3-0.1l-1-1.2c0,0-0.1-0.1-0.1-0.2L1,7.6c0-0.2,0.1-0.3,0.3-0.3c0.2,0,0.3,0.1,0.3,0.3l0.2,2.1l0.8,1
			l2.6-0.2l1.1-2c0.1-0.1,0.2-0.2,0.3-0.2H8c0.1,0,0.2,0.1,0.3,0.2l1.1,2l2.6,0.2l0.8-1l0.2-2.1c0-0.2,0.2-0.3,0.3-0.3
			c0.2,0,0.3,0.2,0.3,0.3l-0.2,2.2c0,0.1,0,0.1-0.1,0.2l-1,1.2C12.4,11.3,12.3,11.4,12.2,11.4z"/>
	</g>
	<g>
		<path d="M3.4,15.8c-0.1,0-0.2,0-0.2-0.1l-2.7-3.1c-0.1-0.1-0.1-0.3,0-0.4c0.1-0.1,0.2-0.2,0.4-0.1l2,0.9l2.1-0.5L6,11.5
			c0.1-0.1,0.2-0.1,0.3-0.1L7.6,12l1.1-0.6c0.1-0.1,0.2,0,0.3,0l1.3,0.9l1.7,0.1l1.6-0.9c0.1-0.1,0.3-0.1,0.4,0
			c0.1,0.1,0.1,0.2,0.1,0.4l-1,2.2c0,0.1-0.1,0.1-0.2,0.2l-3.5,1.2c-0.1,0-0.2,0-0.3,0l-1.4-0.9l-1.3,1c0,0-0.1,0.1-0.2,0.1
			L3.4,15.8C3.4,15.8,3.4,15.8,3.4,15.8z M1.9,13.2l1.6,1.9L6,14.9l1.4-1.1c0.1-0.1,0.3-0.1,0.4,0l1.5,1l3.2-1.1l0.5-1.2L12.3,13
			c-0.1,0-0.1,0-0.2,0L10.2,13c-0.1,0-0.1,0-0.2-0.1l-1.2-0.9l-1.1,0.6c-0.1,0-0.2,0-0.3,0l-1.3-0.5l-1,0.8c0,0-0.1,0.1-0.1,0.1
			l-2.2,0.6c-0.1,0-0.1,0-0.2,0L1.9,13.2z"/>
	</g>
	<g>
		<path d="M2.9,13.6c-0.1,0-0.2-0.1-0.3-0.2c-0.3-0.8-0.4-2.2-0.4-2.3c0-0.2,0.1-0.3,0.3-0.3c0.2,0,0.3,0.1,0.3,0.3
			c0,0,0.1,1.4,0.3,2.1c0.1,0.2,0,0.3-0.2,0.4C3,13.6,3,13.6,2.9,13.6z"/>
	</g>
	<g>
		<path d="M11.9,13.1c-0.1,0-0.1,0-0.2-0.1c-0.1-0.1-0.2-0.3-0.1-0.4c0.4-0.6,0.5-1.8,0.5-1.8c0-0.2,0.2-0.3,0.3-0.3
			c0.2,0,0.3,0.2,0.3,0.3c0,0.1-0.1,1.4-0.6,2.1C12.1,13,12,13.1,11.9,13.1z"/>
	</g>
	<g>
		<path d="M7.5,16.6c-1.9,0-2.8-1.1-2.8-1.1c-0.1-0.1-0.1-0.3,0.1-0.4C4.9,15,5.1,15,5.2,15.1c0,0,0.7,0.9,2.3,0.9
			c1.6,0,2.9-1.4,2.9-1.4c0.1-0.1,0.3-0.1,0.4,0c0.1,0.1,0.1,0.3,0,0.4C10.8,15,9.4,16.6,7.5,16.6z"/>
	</g>
	<g>
		<path d="M8.1,6.3H6.7C6.6,6.3,6.4,6.2,6.4,6V3.5H5.7c-0.2,0-0.3-0.1-0.3-0.3c0-1.3,0-1.3,0.1-1.4c0.1-0.1,0.1-0.1,0.2-0.1h3.8
			c0.2,0,0.3,0.1,0.3,0.3v1.3c0,0.2-0.1,0.3-0.3,0.3h-1V6C8.4,6.2,8.2,6.3,8.1,6.3z M7.1,5.7h0.7V3.2c0-0.2,0.1-0.3,0.3-0.3h1V2.3
			H5.9c0,0.2,0,0.4,0,0.6h0.8c0.2,0,0.3,0.1,0.3,0.3V5.7z"/>
	</g>
	<g>
		<circle cx="10.7" cy="9" r="0.7"/>
	</g>
	<g>
		<circle cx="4" cy="9" r="0.7"/>
	</g>
</g>
</svg>
