<svg enable-background="new 0 0 284.933 228.29" viewBox="0 0 284.933 228.29" xmlns="http://www.w3.org/2000/svg"><path d="m239.539 183.81-5.972-8.196c-.325-.445-.95-.544-1.396-.22l-13.884 10.107-3.633-4.987 11.263-8.199c.215-.156.358-.392.399-.653.042-.262-.023-.529-.18-.744l-5.972-8.196c-.325-.446-.951-.544-1.396-.22l-11.265 8.2-3.053-4.189 13.314-9.691c.215-.156.358-.392.399-.653.042-.262-.023-.53-.18-.744l-5.973-8.196c-.325-.445-.951-.543-1.396-.22l-23.917 17.41c-.215.156-.358.392-.399.653-.042.262.023.529.18.744l26.958 36.998c.196.269.5.411.809.411.204 0 .41-.062.587-.191l24.487-17.825c.215-.156.358-.392.399-.653.042-.264-.023-.531-.179-.746z" fill="#32d282"/><path d="m189.333 205.251c-.086-.251-.27-.457-.508-.572-.238-.117-.513-.133-.764-.045l-16.225 5.629-2.017-5.829 13.165-4.568c.521-.181.798-.75.617-1.271l-3.317-9.583c-.086-.251-.27-.457-.508-.572-.239-.117-.514-.133-.764-.045l-13.163 4.567-1.695-4.898 15.56-5.4c.521-.181.798-.75.617-1.271l-3.316-9.583c-.086-.251-.27-.457-.508-.572-.239-.118-.514-.133-.764-.045l-27.95 9.699c-.521.181-.798.75-.617 1.271l14.971 43.257c.086.251.27.457.508.572.137.067.287.101.437.101.11 0 .221-.019.328-.056l28.616-9.929c.521-.181.798-.75.617-1.271z" fill="#32d282"/><path d="m123.666 176.26-16.388-5.631c-.253-.089-.527-.07-.765.047s-.42.323-.507.574l-14.831 43.31c-.179.522.1 1.091.621 1.27l11.458 3.938c.251.088.526.068.765-.047.238-.117.421-.323.507-.574l4.648-13.579 2.873.987 2.399 16.485c.054.371.311.681.665.802l12.79 4.395c.106.037.216.055.325.055.235 0 .468-.083.652-.241.269-.231.396-.589.332-.938l-3.467-19.049c5.29-1.208 9.105-4.85 11.071-10.59 3.346-9.772-1.201-17.108-13.148-21.214zm-7.737 9.584 3.183 1.093c4.982 1.714 5.461 3.582 4.619 6.042-.535 1.563-1.421 2.589-2.633 3.047-1.283.486-2.961.378-4.986-.317l-3.186-1.097z" fill="#32d282"/><path d="m90.902 174.242c.211.16.476.23.741.193.263-.036.5-.175.661-.387l6.12-8.088c.333-.44.247-1.067-.193-1.4l-23.799-18.033c-.211-.161-.48-.235-.741-.193-.263.036-.5.175-.661.387l-27.625 36.514c-.333.44-.247 1.067.193 1.4l9.654 7.314c.175.133.387.203.604.203.045 0 .091-.003.137-.01.263-.036.5-.175.661-.387l9.511-12.571 11.326 8.581c.211.16.477.231.741.193.263-.036.5-.176.661-.387l6.12-8.089c.333-.44.247-1.067-.193-1.4l-11.328-8.583 4.064-5.37z" fill="#32d282"/><path d="m84.444 40.46-17.21-8.383c-.147-.072-.326-.039-.438.082l-3.991 4.292c-.113.121-.133.301-.05.444l9.614 16.555c.06.103.165.171.283.184.014.001.028.002.042.002.104 0 .203-.043.274-.12l3.376-3.631c.119-.128.134-.321.036-.465l-2.067-3.061 3.085-3.319 3.204 1.838c.151.087.342.058.461-.07l3.491-3.755c.081-.087.116-.207.094-.324-.021-.117-.097-.217-.204-.269zm-11.055.289-1.651 1.776-.452-.687c-.742-1.16-1.684-2.508-2.561-3.755.371.215.748.435 1.125.655.976.569 1.951 1.139 2.817 1.608z" fill="#32d282"/><path d="m104.321 23.139c-.1-.182-.329-.248-.509-.148l-5.742 3.161-6.693-12.157c-.048-.087-.129-.152-.224-.18-.095-.027-.199-.016-.285.032l-4.244 2.336c-.182.1-.248.328-.148.509l8.83 16.039c.068.124.197.194.329.194.061 0 .123-.015.18-.046l10.314-5.678c.087-.048.152-.129.18-.224.027-.096.016-.198-.032-.285z" fill="#32d282"/><path d="m136.872.005-4.562.726c-.187.029-.322.193-.316.382l.256 8.069c.04.762.077 1.539.115 2.323.019.389.038.78.057 1.172-.394-1.149-.787-2.286-1.173-3.377l-2.982-7.627c-.064-.165-.23-.265-.408-.233l-4.007.638c-.174.027-.305.173-.315.349l-.467 8.19c-.023 1.182-.043 2.384-.062 3.588-.057-.206-.113-.411-.169-.616-.255-.929-.51-1.857-.76-2.795l-2.259-7.742c-.053-.182-.233-.296-.419-.265l-4.897.779c-.109.017-.206.082-.262.177-.057.095-.069.21-.033.315l6.05 17.581c.053.153.196.253.354.253.02 0 .04-.001.06-.005l5.954-.948c.178-.028.311-.18.316-.36l.193-7.386c.028-.699.032-1.412.026-2.123.232.717.464 1.387.694 2.005l2.533 6.958c.062.169.233.274.412.242l6.065-.966c.181-.029.314-.184.316-.368l.126-18.563c.001-.11-.047-.215-.13-.287-.087-.073-.194-.105-.306-.086z" fill="#32d282"/><path d="m166.571 3.176-5.742-1.169c-.164-.03-.326.045-.405.189l-9.119 16.833c-.057.104-.06.229-.01.337.05.107.148.185.265.209l4.858.99c.175.034.344-.053.416-.212l1.535-3.359 4.44.904.101 3.692c.005.174.129.322.3.357l5.025 1.022c.025.005.051.007.075.007.092 0 .182-.034.251-.096.088-.08.134-.196.122-.314l-1.814-19.058c-.016-.165-.137-.299-.298-.332zm-3.896 10.104-2.377-.483.351-.745c.603-1.237 1.263-2.74 1.871-4.142.01.427.019.862.027 1.297.022 1.131.045 2.261.096 3.246z" fill="#32d282"/><path d="m201.298 17.911-4.42-2.486c-.139-.08-.311-.061-.431.044l-3.06 2.679c-.438.388-.866.759-1.295 1.131-.42.364-.84.728-1.268 1.105.062-.331.122-.657.182-.98.145-.779.286-1.544.445-2.348l.699-4.002c.027-.157-.047-.313-.186-.391l-4.518-2.542c-.11-.063-.247-.065-.359-.004-.113.06-.188.173-.198.301l-1.063 13.086-3.054 5.43c-.049.086-.061.189-.034.285s.091.177.178.226l4.225 2.375c.058.033.121.048.184.048.131 0 .258-.069.327-.191l3.053-5.429 10.629-7.706c.104-.075.162-.198.154-.325-.006-.128-.078-.243-.19-.306z" fill="#32d282"/><path d="m220.741 34.46c-2.79-3.004-6.808-3.495-9.34-1.143-1.805 1.677-2.285 4.078-1.322 6.579l.854 2.33.156.402c.5 1.279.705 1.86.325 2.213-.218.202-.431.263-.69.199-.328-.081-.715-.359-1.148-.826-.815-.877-1.396-2.455-1.514-4.117-.015-.205-.204-.371-.395-.348l-4.315.239c-.201.011-.357.179-.354.38.04 2.543 1.123 5.201 2.897 7.111 1.836 1.978 3.88 2.805 5.727 2.805 1.536 0 2.936-.572 3.967-1.529 1.875-1.742 2.324-3.911 1.333-6.447l-1.052-2.67c-.545-1.356-.79-2.023-.415-2.371.199-.184.411-.237.677-.166.305.082.652.326 1.006.707.805.867 1.218 1.846 1.425 3.38.026.196.189.334.4.324l3.879-.295c.191-.015.341-.171.347-.363.063-2.284-.851-4.674-2.448-6.394z" fill="#32d282"/><g fill="none" stroke-linecap="round" stroke-linejoin="round" stroke-miterlimit="10" stroke-width="5"><circle cx="142.467" cy="93.795" r="46.565" stroke="#0068ff"/><path d="m127.329 64.412h4.304" stroke="#0068ff"/><path d="m127.329 77.769h4.304" stroke="#0068ff"/><path d="m127.329 91.127h4.304" stroke="#0068ff"/><path d="m127.329 104.484h4.304" stroke="#0068ff"/><path d="m101.986 116.825h80.96" stroke="#0068ff"/><path d="m117.517 54.472v62.353" stroke="#0068ff"/><path d="m119.3 134.197v22.439l9.524-8.78 8.442 8.443v-16.228" stroke="#0068ff"/><path d="m212.921 99.716c5.79 0 5.79 4 11.579 4 5.791 0 5.791-4 11.582-4 5.793 0 5.793 4 11.586 4 5.791 0 5.791-4 11.583-4 5.795 0 5.795 4 11.591 4 5.795 0 5.795-4 11.591-4" stroke="#cce1ff"/><path d="m212.921 82.812c5.79 0 5.79 4 11.579 4 5.791 0 5.791-4 11.582-4 5.793 0 5.793 4 11.586 4 5.791 0 5.791-4 11.583-4 5.795 0 5.795 4 11.591 4 5.795 0 5.795-4 11.591-4" stroke="#cce1ff"/><path d="m2.5 99.716c5.79 0 5.79 4 11.579 4 5.791 0 5.791-4 11.582-4 5.793 0 5.793 4 11.586 4 5.791 0 5.791-4 11.583-4 5.795 0 5.795 4 11.591 4s5.795-4 11.591-4" stroke="#cce1ff"/><path d="m2.5 82.812c5.79 0 5.79 4 11.579 4 5.791 0 5.791-4 11.582-4 5.793 0 5.793 4 11.586 4 5.791 0 5.791-4 11.583-4 5.795 0 5.795 4 11.591 4s5.795-4 11.591-4" stroke="#cce1ff"/></g></svg>