<?xml version="1.0" encoding="utf-8"?>
<!-- Generator: Adobe Illustrator 18.1.1, SVG Export Plug-In . SVG Version: 6.00 Build 0)  -->
<svg version="1.1" id="Layer_1" xmlns="http://www.w3.org/2000/svg" xmlns:xlink="http://www.w3.org/1999/xlink" x="0px" y="0px"
	 viewBox="0 0 17 12.3" enable-background="new 0 0 17 12.3" xml:space="preserve">
<path fill="#FFFFFF" d="M16,3.2h-1.4v-2c0-0.6-0.4-1.1-1-1.1h-3.1c-0.5,0-1,0.5-1,1.1v2H7.2v-2c0-0.6-0.4-1.1-1-1.1H3.2
	c-0.5,0-1,0.5-1,1.1v2H1c-0.5,0-1,0.5-1,1.1v6.8c0,0.6,0.4,1.1,1,1.1H16c0.5,0,1-0.5,1-1.1V4.3C17,3.7,16.6,3.2,16,3.2z"/>
</svg>
