<?xml version="1.0" encoding="utf-8"?>
<!-- Generator: Adobe Illustrator 16.0.4, SVG Export Plug-In . SVG Version: 6.00 Build 0)  -->
<!DOCTYPE svg PUBLIC "-//W3C//DTD SVG 1.1//EN" "http://www.w3.org/Graphics/SVG/1.1/DTD/svg11.dtd">
<svg version="1.1" id="Layer_1" xmlns="http://www.w3.org/2000/svg" xmlns:xlink="http://www.w3.org/1999/xlink" x="0px" y="0px"
	 width="144.57px" height="215.43px" viewBox="0 0 144.57 215.43" enable-background="new 0 0 144.57 215.43" xml:space="preserve">
<path fill="#D0CFCE" d="M136.066,82.628H124.16V65.619c0-5.103-3.401-9.354-8.504-9.354H89.293c-4.252,0-8.504,4.252-8.504,9.354
	v17.009H61.23V65.619c0-5.103-3.402-9.354-8.504-9.354H27.213c-4.252,0-8.504,4.252-8.504,9.354v17.009H8.504
	C4.252,82.628,0,86.88,0,91.983v57.828c0,5.103,3.402,9.354,8.504,9.354h127.562c4.252,0,8.504-4.252,8.504-9.354V91.983
	C144.57,86.88,141.168,82.628,136.066,82.628z"/>
</svg>
