<?xml version="1.0" encoding="utf-8"?>
<!-- Generator: Adobe Illustrator 16.0.0, SVG Export Plug-In . SVG Version: 6.00 Build 0)  -->
<!DOCTYPE svg PUBLIC "-//W3C//DTD SVG 1.1//EN" "http://www.w3.org/Graphics/SVG/1.1/DTD/svg11.dtd">
<svg version="1.1" id="Layer_1" xmlns="http://www.w3.org/2000/svg" xmlns:xlink="http://www.w3.org/1999/xlink" x="0px" y="0px"
	 width="16.213px" height="16.214px" viewBox="48.416 0.524 16.213 16.214" enable-background="new 48.416 0.524 16.213 16.214"
	 xml:space="preserve">
<g>
	<g>
		<g>
			<g>
				<path fill="#2EB459" d="M56.525,16.738c-4.473,0-8.109-3.637-8.109-8.105c0-4.472,3.639-8.109,8.109-8.109
					c4.469,0,8.104,3.638,8.104,8.109C64.63,13.101,60.994,16.738,56.525,16.738z"/>
			</g>
		</g>
		<g>
			<g>
				<g>
					<path fill="#FFFFFF" d="M59.186,4.756l-3.312,5.201c-0.121,0.185-0.362,0.236-0.541,0.121l-1.888-1.22
						c-0.178-0.115-0.422-0.062-0.536,0.119l-0.747,1.169c-0.115,0.179-0.062,0.42,0.117,0.541l2.953,1.921
						c0.177,0.118,0.496,0.176,0.707,0.131l0.444-0.098c0.21-0.045,0.478-0.227,0.593-0.412l4.021-6.307
						c0.109-0.185,0.062-0.428-0.121-0.543L59.723,4.64C59.542,4.524,59.301,4.577,59.186,4.756z"/>
				</g>
			</g>
		</g>
	</g>
</g>
</svg>
