<svg xmlns="http://www.w3.org/2000/svg" xmlns:xlink="http://www.w3.org/1999/xlink" x="0px" y="0px"
     viewBox="0 0 208 162" style="enable-background:new 0 0 208 162;" xml:space="preserve" class="barricade">
  <g>
    <path fill="#FAFAFA" d="M206.65,103.08c0-56.55-45.84-102.39-102.39-102.39S1.87,46.53,1.87,103.08c0,0.31,0.02,0.61,0.02,0.92h204.75
		            C206.64,103.69,206.65,103.39,206.65,103.08z"/>
    <path fill="#F4F4F4" d="M188.18,161.75c11.47-16.38,18.26-36.28,18.45-57.75H1.89c0.19,21.47,6.98,41.37,18.45,57.75H188.18z"/>
  </g>
  <path fill="#BDBFC1" d="M186.31,151.54l-3.96-16.89V53.73c0-7.09-5.77-12.86-12.86-12.86H38.3
	                  c-7.09,0-12.86,5.77-12.86,12.86v80.85l-4.03,16.89c-0.35,1.39,0.49,2.78,1.88,3.13c1.39,0.35,2.78-0.49,3.13-1.88l4.1-17.17
	                  c0.07-0.21,0.07-0.42,0.07-0.63v-5.7h146.62v5.7c0,0.14,0,0.35,0.07,0.56l4.03,17.17c0.28,1.18,1.32,2.02,2.5,2.02
	                  c0.21,0,0.42-0.07,0.56-0.07C185.76,154.32,186.66,152.93,186.31,151.54z M177.21,53.73v28.02h-22.96V46.01h15.24
	                  C173.73,46.01,177.21,49.48,177.21,53.73z M85.93,81.74H56.88V46.01h29.05V81.74z M89.33,46.01h29.05v35.73H89.33V46.01z
	                  M85.93,86.89v37.19H56.88V86.89H85.93z M89.33,86.89h29.05v37.19H89.33V86.89z M121.79,86.89h29.05v37.19h-29.05V86.89z
	                  M121.79,81.74V46.01h29.05v35.73H121.79z M38.3,46.01h15.17v35.73H30.59V53.73C30.59,49.48,34.06,46.01,38.3,46.01z M30.59,86.89
	                  h22.89v37.19H30.59V86.89z M154.24,124.08V86.89h22.96v37.19H154.24z"/>
  <g>
    <path fill="#A8AAAD" d="M169.49,43.99H38.3c-4.24,0-7.72,3.48-7.72,7.72v2.02c0-4.24,3.48-7.72,7.72-7.72h131.19
		            c4.24,0,7.72,3.48,7.72,7.72v-2.02C177.21,47.47,173.8,43.99,169.49,43.99z"/>
    <rect x="30.59" y="85.08" fill="#A8AAAD" width="146.62" height="1.81"/>
    <rect x="30.59" y="127.42" fill="#A8AAAD" width="146.62" height="1.81"/>
  </g>
  <g>
    <g>
      <g>
	<rect x="66.74" y="51.57" fill="#EAEAEA" width="24.96" height="24.47"/>
      </g>
      <polygon fill="#D1D2D1" points="91.7,69.58 89.2,69.58 66.74,69.58 66.74,76.04 91.7,76.04 		"/>
    </g>
    <g>
      <g>
	<rect x="116.02" y="51.57" fill="#EAEAEA" width="24.96" height="24.47"/>
      </g>
      <polygon fill="#D1D2D1" points="140.97,69.58 138.47,69.58 116.02,69.58 116.02,76.04 140.97,76.04 		"/>
    </g>
    <g>
      <g>
	<rect x="42.11" y="51.57" fill="#DC4242" width="24.96" height="24.47"/>
      </g>
      <polygon fill="#C63434" points="67.06,69.58 64.56,69.58 42.11,69.58 42.11,76.04 67.06,76.04 		"/>
    </g>
    <g>
      <g>
	<rect x="91.38" y="51.57" fill="#DC4242" width="24.96" height="24.47"/>
      </g>
      <polygon fill="#C63434" points="116.34,69.58 113.83,69.58 91.38,69.58 91.38,76.04 116.34,76.04 		"/>
    </g>
    <g>
      <g>
	<rect x="140.65" y="51.57" fill="#DC4242" width="24.96" height="24.47"/>
      </g>
      <polygon fill="#C63434" points="165.61,69.58 163.11,69.58 140.65,69.58 140.65,76.04 165.61,76.04 		"/>
    </g>
  </g>
  <g>
    <g>
      <path fill="#E6D24C" d="M33.01,57.2c0,0.35-0.28,0.7-0.7,0.7H23.7c-0.35,0-0.7-0.28-0.7-0.7v-12.1c0-0.35,0.28-0.7,0.7-0.7h8.62c0.35,0,0.7,0.28,0.7,0.7V57.2z"/>
    </g>
    <g>
      <path fill="#F8E85C" d="M33.01,55.88c0,0.35-0.28,0.7-0.7,0.7H23.7c-0.35,0-0.7-0.28-0.7-0.7v-12.1c0-0.35,0.28-0.7,0.7-0.7h8.62c0.35,0,0.7,0.28,0.7,0.7V55.88z"/>
    </g>
  </g>
  <g class="reflector">
    <path fill="#C63434" d="M28.01,25.5c-5.7,0-10.29,4.66-10.29,10.36s4.59,10.29,10.29,10.29S38.3,41.56,38.3,35.86S33.71,25.5,28.01,25.5L28.01,25.5z"/>
    <path fill="#DC4242" d="M28.01,28.28c-4.1,0-7.51,3.41-7.51,7.58c0,4.1,3.41,7.51,7.51,7.44c4.1,0,7.51-3.34,7.51-7.51C35.51,31.69,32.18,28.28,28.01,28.28z"/>
  </g>
</svg>
