<?xml version="1.0" encoding="utf-8"?>
<!-- Generator: Adobe Illustrator 23.0.6, SVG Export Plug-In . SVG Version: 6.00 Build 0)  -->
<svg version="1.1" id="Layer_1" xmlns="http://www.w3.org/2000/svg" xmlns:xlink="http://www.w3.org/1999/xlink" x="0px" y="0px"
	 viewBox="0 0 438.285 253.488" style="enable-background:new 0 0 438.285 253.488;" xml:space="preserve">
<style type="text/css">
	.st0{fill:url(#SVGID_1_);}
	.st1{fill:none;stroke:url(#SVGID_2_);stroke-width:10;stroke-linecap:round;stroke-linejoin:round;}
	
		.st2{fill:none;stroke:url(#SVGID_3_);stroke-width:10;stroke-linecap:round;stroke-linejoin:round;stroke-dasharray:13.85,18.1115;}
	.st3{fill:none;stroke:url(#SVGID_4_);stroke-width:10;stroke-linecap:round;stroke-linejoin:round;}
	.st4{fill:none;stroke:url(#SVGID_5_);stroke-width:10;stroke-linecap:round;stroke-linejoin:round;}
	
		.st5{fill:none;stroke:url(#SVGID_6_);stroke-width:10;stroke-linecap:round;stroke-linejoin:round;stroke-dasharray:12.6962,16.6028;}
	.st6{fill:none;stroke:url(#SVGID_7_);stroke-width:10;stroke-linecap:round;stroke-linejoin:round;}
	.st7{fill:#CA3349;}
	.st8{fill:#F2EBAC;}
	.st9{fill:#E6CBAC;}
	.st10{fill:#656C67;}
	.st11{fill:#E4C9A2;}
	.st12{fill:#C6B299;}
	.st13{fill:#EAD498;}
	.st14{fill:#2D3136;}
	.st15{fill:#EDF6F9;}
	.st16{opacity:0.8;}
	.st17{opacity:0.75;fill:#EAD498;enable-background:new    ;}
	.st18{fill:none;}
	.st19{fill:#2684FF;}
	.st20{fill:url(#SVGID_8_);}
</style>
<radialGradient id="SVGID_1_" cx="308.2893" cy="128.2946" r="118.3329" gradientUnits="userSpaceOnUse">
	<stop  offset="0" style="stop-color:#32D282"/>
	<stop  offset="0.1513" style="stop-color:#36D384;stop-opacity:0.8487"/>
	<stop  offset="0.292" style="stop-color:#41D58B;stop-opacity:0.708"/>
	<stop  offset="0.4286" style="stop-color:#54D997;stop-opacity:0.5714"/>
	<stop  offset="0.5627" style="stop-color:#6EDFA7;stop-opacity:0.4373"/>
	<stop  offset="0.6949" style="stop-color:#90E7BC;stop-opacity:0.3051"/>
	<stop  offset="0.8257" style="stop-color:#BAF0D5;stop-opacity:0.1743"/>
	<stop  offset="0.953" style="stop-color:#EBFBF3;stop-opacity:0.047"/>
	<stop  offset="1" style="stop-color:#FFFFFF;stop-opacity:0"/>
</radialGradient>
<circle class="st0" cx="308.289" cy="128.295" r="118.333"/>
<g>
	<g>
		<linearGradient id="SVGID_2_" gradientUnits="userSpaceOnUse" x1="102.0664" y1="208.1044" x2="255.5266" y2="208.1044">
			<stop  offset="0" style="stop-color:#88BBFA;stop-opacity:0.15"/>
			<stop  offset="0.2668" style="stop-color:#72ACFD;stop-opacity:0.3987"/>
			<stop  offset="0.4719" style="stop-color:#66A4FF;stop-opacity:0.59"/>
			<stop  offset="0.5737" style="stop-color:#62A2FF;stop-opacity:0.669"/>
			<stop  offset="0.6793" style="stop-color:#559AFF;stop-opacity:0.751"/>
			<stop  offset="0.7868" style="stop-color:#418EFF;stop-opacity:0.8345"/>
			<stop  offset="0.8948" style="stop-color:#247DFF;stop-opacity:0.9183"/>
			<stop  offset="1" style="stop-color:#0068FF"/>
		</linearGradient>
		<path class="st1" d="M250.527,205.985c-1.595,1.464-3.237,2.878-4.922,4.24"/>
		<linearGradient id="SVGID_3_" gradientUnits="userSpaceOnUse" x1="102.0664" y1="222.3649" x2="255.5266" y2="222.3649">
			<stop  offset="0" style="stop-color:#88BBFA;stop-opacity:0.15"/>
			<stop  offset="0.2668" style="stop-color:#72ACFD;stop-opacity:0.3987"/>
			<stop  offset="0.4719" style="stop-color:#66A4FF;stop-opacity:0.59"/>
			<stop  offset="0.5737" style="stop-color:#62A2FF;stop-opacity:0.669"/>
			<stop  offset="0.6793" style="stop-color:#559AFF;stop-opacity:0.751"/>
			<stop  offset="0.7868" style="stop-color:#418EFF;stop-opacity:0.8345"/>
			<stop  offset="0.8948" style="stop-color:#247DFF;stop-opacity:0.9183"/>
			<stop  offset="1" style="stop-color:#0068FF"/>
		</linearGradient>
		<path class="st2" d="M230.589,220.312c-14.663,8.075-31.513,12.669-49.436,12.669c-23.528,0-45.207-7.917-62.518-21.233"/>
		<linearGradient id="SVGID_4_" gradientUnits="userSpaceOnUse" x1="102.0663" y1="203.6463" x2="255.5266" y2="203.6463">
			<stop  offset="0" style="stop-color:#88BBFA;stop-opacity:0.15"/>
			<stop  offset="0.2668" style="stop-color:#72ACFD;stop-opacity:0.3987"/>
			<stop  offset="0.4719" style="stop-color:#66A4FF;stop-opacity:0.59"/>
			<stop  offset="0.5737" style="stop-color:#62A2FF;stop-opacity:0.669"/>
			<stop  offset="0.6793" style="stop-color:#559AFF;stop-opacity:0.751"/>
			<stop  offset="0.7868" style="stop-color:#418EFF;stop-opacity:0.8345"/>
			<stop  offset="0.8948" style="stop-color:#247DFF;stop-opacity:0.9183"/>
			<stop  offset="1" style="stop-color:#0068FF"/>
		</linearGradient>
		<path class="st3" d="M111.708,205.919c-1.595-1.466-3.143-2.982-4.642-4.545"/>
	</g>
</g>
<g>
	<g>
		<linearGradient id="SVGID_5_" gradientUnits="userSpaceOnUse" x1="91.2754" y1="70.0104" x2="255.5216" y2="70.0104">
			<stop  offset="0.0284" style="stop-color:#0068FF"/>
			<stop  offset="0.1141" style="stop-color:#1675FF;stop-opacity:0.9207"/>
			<stop  offset="0.3558" style="stop-color:#5097FF;stop-opacity:0.6974"/>
			<stop  offset="0.4719" style="stop-color:#66A4FF;stop-opacity:0.59"/>
			<stop  offset="0.6512" style="stop-color:#6AA7FE;stop-opacity:0.4407"/>
			<stop  offset="0.8369" style="stop-color:#77AFFD;stop-opacity:0.2859"/>
			<stop  offset="1" style="stop-color:#88BBFA;stop-opacity:0.15"/>
		</linearGradient>
		<path class="st4" d="M96.275,72.636c1.221-1.792,2.497-3.544,3.826-5.252"/>
		<linearGradient id="SVGID_6_" gradientUnits="userSpaceOnUse" x1="91.2754" y1="41.436" x2="255.5216" y2="41.436">
			<stop  offset="0.0284" style="stop-color:#0068FF"/>
			<stop  offset="0.1141" style="stop-color:#1675FF;stop-opacity:0.9207"/>
			<stop  offset="0.3558" style="stop-color:#5097FF;stop-opacity:0.6974"/>
			<stop  offset="0.4719" style="stop-color:#66A4FF;stop-opacity:0.59"/>
			<stop  offset="0.6512" style="stop-color:#6AA7FE;stop-opacity:0.4407"/>
			<stop  offset="0.8369" style="stop-color:#77AFFD;stop-opacity:0.2859"/>
			<stop  offset="1" style="stop-color:#88BBFA;stop-opacity:0.15"/>
		</linearGradient>
		<path class="st5" d="M111.308,55.152c18.319-17.022,42.866-27.432,69.845-27.432c21.428,0,41.322,6.567,57.78,17.798"/>
		<linearGradient id="SVGID_7_" gradientUnits="userSpaceOnUse" x1="91.2754" y1="52.5923" x2="255.5216" y2="52.5923">
			<stop  offset="0.0284" style="stop-color:#0068FF"/>
			<stop  offset="0.1141" style="stop-color:#1675FF;stop-opacity:0.9207"/>
			<stop  offset="0.3558" style="stop-color:#5097FF;stop-opacity:0.6974"/>
			<stop  offset="0.4719" style="stop-color:#66A4FF;stop-opacity:0.59"/>
			<stop  offset="0.6512" style="stop-color:#6AA7FE;stop-opacity:0.4407"/>
			<stop  offset="0.8369" style="stop-color:#77AFFD;stop-opacity:0.2859"/>
			<stop  offset="1" style="stop-color:#88BBFA;stop-opacity:0.15"/>
		</linearGradient>
		<path class="st6" d="M245.599,50.473c1.686,1.362,3.327,2.776,4.922,4.239"/>
	</g>
</g>
<g id="Mascot_1_">
	<g>
		<g>
			<path class="st7" d="M257.829,110.88c0,0-27.259,19.187-28.325,26.496l2.045-0.42c0,0,32.643-21.636,58.519-24.275l0.586-3.284
				L257.829,110.88z"/>
			<path class="st7" d="M300.62,108.138l-21.472,15.229l1.161,0.931c0.875-0.706,38.14-12.087,38.14-12.087l7.857-4.926
				C321.034,107.942,300.62,108.138,300.62,108.138z"/>
			<path class="st7" d="M319.281,126.558c15.247,0,38.102-14.932,38.102-14.932l-7.388-1.406
				c-0.365,0.365-11.914-0.405-11.914-0.405l-5.482-1.522l-13.097,14.924l-1.066,2.589
				C319.377,125.422,319.281,126.558,319.281,126.558z"/>
		</g>
		<path class="st7" d="M369.034,174.18l-4.71,1.326l-21.762-0.47l-13.614-10.586l-16.455,4.117l-19.032-1.647l-10.657,11.646
			l-19.997,5.973l-9.985-3.096c-0.318-0.274-0.503-0.433-0.503-0.433l4.482,10.974c0,0,10.151,10.883,15.821,12.163
			c5.669,1.28,15.913-0.092,23.595-1.282c7.682-1.189,13.809-3.932,16.278-8.412c2.469-4.482,2.835-5.762,2.835-5.762
			s7.317,10.334,13.627,11.524c6.31,1.189,25.058-5.214,25.058-5.214s11.433-3.109,13.443-7.041
			c2.012-3.932,7.317-16.827,7.317-16.827L369.034,174.18z M254.916,183.12c-0.105-0.048-0.211-0.097-0.316-0.145
			c-0.75-0.647-1.363-1.176-1.763-1.521L254.916,183.12z"/>
		<g>
			<path class="st8" d="M387.521,96.437c-0.047-0.588-0.112-1.176-0.184-1.76c-0.051-0.414-0.116-0.847-0.188-1.247
				c-1.571-1.322-3.356-2.497-5.214-3.566c-2.014-1.176-4.121-2.23-6.271-3.209c-2.136-1.007-4.329-1.919-6.536-2.809
				c-1.101-0.447-2.212-0.88-3.327-1.294c-1.112-0.434-2.234-0.837-3.359-1.247c2.363,0.392,4.701,0.928,7.021,1.525
				c1.509,0.391,3.011,0.828,4.503,1.294c-10.61-27.73-35.977-45.788-63.674-45.788c-27.701,0-53.065,18.059-63.673,45.788
				c1.492-0.466,2.993-0.903,4.5-1.294c2.324-0.597,4.663-1.134,7.024-1.525c-1.129,0.41-2.249,0.814-3.364,1.247
				c-1.11,0.413-2.222,0.847-3.327,1.294c-2.207,0.89-4.394,1.802-6.535,2.809c-2.146,0.978-4.255,2.032-6.269,3.209
				c-1.858,1.068-3.642,2.244-5.218,3.566c-0.066,0.4-0.132,0.833-0.184,1.247c-0.071,0.584-0.136,1.172-0.184,1.76
				c-0.103,1.182-0.145,2.368-0.155,3.557c-0.024,2.377,0.137,4.753,0.438,7.104c0.324,2.358,0.757,4.701,1.397,6.965
				c0.315,1.134,0.673,2.253,1.086,3.336c0.208,0.54,0.434,1.073,0.669,1.591c0.117,0.258,0.24,0.512,0.362,0.757l0.151,0.287
				c0.174,0.088,0.357,0.179,0.532,0.263l1.055,0.504c0.588,0.267,1.402,0.653,2.074,0.955c0.038-0.032,0.075-0.066,0.108-0.1
				l-1.958-7.457c0.415-0.114,4.133-1.073,10.54-2.292c-0.517-0.098-1.039-0.211-1.552-0.334c-1.459-0.363-2.899-0.805-4.292-1.37
				c-0.692-0.292-1.374-0.611-2.023-0.977c-0.65-0.373-1.289-0.795-1.784-1.356c7.04,2.297,21.585,1.256,34.513-0.08
				c11.825-1.219,23.677-2.009,35.592-2.032c11.915,0.024,23.772,0.814,35.592,2.032c12.935,1.336,27.48,2.377,34.519,0.08
				c-0.494,0.561-1.133,0.984-1.783,1.356c-0.649,0.366-1.331,0.685-2.022,0.977c-1.395,0.565-2.833,1.007-4.292,1.37
				c-0.216,0.052-0.434,0.099-0.651,0.145c7.026,1.303,11.116,2.363,11.553,2.48l-1.873,7.104c0.377-0.17,0.757-0.334,1.13-0.503
				l1.053-0.504c0.175-0.085,0.353-0.174,0.532-0.263l0.145-0.287c0.128-0.244,0.251-0.499,0.367-0.757
				c0.237-0.518,0.463-1.05,0.669-1.591c0.414-1.083,0.773-2.201,1.087-3.336c0.64-2.264,1.073-4.607,1.397-6.965
				c0.302-2.352,0.461-4.729,0.439-7.104C387.668,98.805,387.626,97.619,387.521,96.437z"/>
			<path class="st9" d="M318.278,195.054c-0.932,0.14-1.864,0.258-2.791,0.329c-0.597,0.029-1.23,0.089-1.804,0.089l-0.212,0.004
				c0.72-1.609,1.267-2.856,1.681-3.801C315.996,192.621,317.069,193.792,318.278,195.054z"/>
			<path class="st9" d="M320.305,197.119c2.894,2.866,6.481,4.508,10.428,4.8c-6.63,2.693-12.879,3.732-17.693,4.056
				c-4.799,0.322-9.664-0.244-14.431-1.551c0.399-0.072,0.692-0.123,1.045-0.166c0.392-0.047,8.94-1.162,12.794-6.892l0.362,0.008
				l0.946-0.008c0.64,0,1.222-0.053,1.834-0.076c1.454-0.126,2.876-0.334,4.273-0.616
				C320.01,196.822,320.155,196.969,320.305,197.119z"/>
			<path class="st10" d="M328.507,111.317c-0.278,0.362-0.588,0.761-0.918,1.176c-1.693,2.141-4.042,4.879-6.828,7.557
				c-3.238-0.1-6.565-0.155-9.99-0.155c-5.659,0-11.086,0.15-16.238,0.4c7.28-3.021,16.027-5.973,25.499-7.746
				C322.799,112.027,325.631,111.608,328.507,111.317z"/>
			<path class="st10" d="M285.896,114.577c-2.598,1.826-5.534,4.156-8.38,6.983c-7.289,0.73-13.646,1.614-18.893,2.462
				C266.689,120.314,275.892,116.902,285.896,114.577z"/>
			<path class="st10" d="M374.949,129.624l-2.964,20.743l-14.202,9.947l-37.04-4.211l-5.576-18.362
				c-0.132-0.447-0.509-0.775-0.971-0.851c-1.373-0.222-2.587-0.335-3.599-0.335c-1.016,0-2.226,0.113-3.605,0.335
				c-0.457,0.075-0.832,0.404-0.969,0.851l-5.439,17.914l-36.833,8.197l-14.596-10.225l-2.876-23.277
				c0.626-0.354,1.262-0.706,1.906-1.059c0.903-0.194,1.919-0.4,3.044-0.617l2.71,21.964c0.042,0.343,0.231,0.649,0.513,0.847
				l10.041,7.036c0.207,0.14,0.452,0.215,0.696,0.215c0.088,0,0.174-0.009,0.268-0.029l30.283-6.738
				c0.104-0.024,0.208-0.06,0.301-0.109c0.282-0.15,0.504-0.408,0.597-0.724l5.453-17.956c1.463-0.377,5.21-1.252,8.502-1.252
				c3.284,0,7.034,0.875,8.498,1.252l5.453,17.956c0.141,0.466,0.547,0.799,1.03,0.856l30.283,3.44
				c0.293,0.032,0.593-0.044,0.834-0.212l10.047-7.03c0.272-0.193,0.456-0.496,0.502-0.829l2.682-18.765
				C371.943,128.986,373.627,129.338,374.949,129.624z"/>
			<path class="st10" d="M378.69,116.615l-2.607,9.89c-5.331-1.176-17.043-3.482-32.985-5.034
				c5.209-2.221,10.512-5.006,15.357-8.488C367.942,114.323,374.907,115.758,378.69,116.615z"/>
			<g>
				<path class="st11" d="M271.897,147.557c2.065-1.116,4.398-0.95,8.05-0.945c0.392,0.01,0.795,0.004,1.218-0.004
					c0.359-0.004,0.72-0.01,1.102-0.019c3.763-0.037,6.893,0.321,6.838-5.59c-0.057-5.91-2.682-10.685-6.442-10.648
					c-3.764,0.032-7.406,4.874-7.181,10.78c0.061,1.538,0.287,2.648,0.65,3.449C272.852,145.401,271.948,147.43,271.897,147.557z
					 M317.149,123.249c-1.459,1.182-2.997,2.286-4.598,3.252l-5.341,3.224c-3.35,0.408-6.257,1.237-6.422,1.285
					c-0.098,0.027-0.192,0.069-0.278,0.123c-0.259,0.15-0.456,0.399-0.551,0.696l-5.439,17.923l-29.07,6.465l-9.156-6.413
					l-2.664-21.579c5.2-0.955,12.154-2.06,20.507-2.996c-0.895,1.073-1.764,2.197-2.589,3.377l-4.973,7.139l7.241-4.828
					c0.108-0.075,4.719-3.109,12.262-6.799c7.518-0.564,15.814-0.928,24.693-0.928C312.936,123.188,315.06,123.212,317.149,123.249z
					"/>
				<path class="st11" d="M348.98,145.134c-0.037-0.14-0.828-2.517-4.329-2.1c0.404-0.879,0.583-2.064,0.456-3.688
					c-0.463-5.896-3.892-10.582-7.652-10.452c-3.76,0.133-6.169,5.02-5.961,10.931c0.207,5.905,3.364,5.864,7.124,5.732
					C343.672,145.464,346.448,143.91,348.98,145.134z M367.534,128.153l-2.621,18.347l-9.232,6.464l-29.031-3.299l-5.416-17.838
					c-0.123-0.395-0.433-0.7-0.828-0.818c-0.18-0.053-3.774-1.077-7.585-1.408l0.696-0.046c0.602-0.043,10.615-1.271,22.572-5.394
					C349.329,125.178,360.141,126.806,367.534,128.153z"/>
			</g>
			<g>
				<path class="st12" d="M271.897,147.557c2.065-1.116,4.398-0.95,8.05-0.945c0.392,0.01,0.795,0.004,1.218-0.004
					c0.359-0.004,0.72-0.01,1.102-0.019c3.763-0.037,6.893,0.321,6.838-5.59c-0.057-5.91-2.682-10.685-6.442-10.648
					c-3.764,0.032-7.406,4.874-7.181,10.78c0.061,1.538,0.287,2.648,0.65,3.449C272.852,145.401,271.948,147.43,271.897,147.557z
					 M317.149,123.249c-1.459,1.182-2.997,2.286-4.598,3.252l-5.341,3.224c-3.35,0.408-6.257,1.237-6.422,1.285
					c-0.098,0.027-0.192,0.069-0.278,0.123c-0.259,0.15-0.456,0.399-0.551,0.696l-5.439,17.923l-29.07,6.465l-9.156-6.413
					l-2.664-21.579c5.2-0.955,12.154-2.06,20.507-2.996c-0.895,1.073-1.764,2.197-2.589,3.377l-4.973,7.139l7.241-4.828
					c0.108-0.075,4.719-3.109,12.262-6.799c7.518-0.564,15.814-0.928,24.693-0.928C312.936,123.188,315.06,123.212,317.149,123.249z
					"/>
				<path class="st12" d="M348.98,145.134c-0.037-0.14-0.828-2.517-4.329-2.1c0.404-0.879,0.583-2.064,0.456-3.688
					c-0.463-5.896-3.892-10.582-7.652-10.452c-3.76,0.133-6.169,5.02-5.961,10.931c0.207,5.905,3.364,5.864,7.124,5.732
					C343.672,145.464,346.448,143.91,348.98,145.134z M367.534,128.153l-2.621,18.347l-9.232,6.464l-29.031-3.299l-5.416-17.838
					c-0.123-0.395-0.433-0.7-0.828-0.818c-0.18-0.053-3.774-1.077-7.585-1.408l0.696-0.046c0.602-0.043,10.615-1.271,22.572-5.394
					C349.329,125.178,360.141,126.806,367.534,128.153z"/>
			</g>
			<path class="st9" d="M380.206,136.223c0.445,0.367,0.798,1.317,0.399,5.745c-0.49,5.421-2.768,14.935-4.179,16.469
				c-1.558,0.301-4.822-0.056-6.814-0.521c0.344-1.366,0.442-2.02,0.72-3.416l3.482-2.436c0.278-0.193,0.461-0.496,0.508-0.824
				l2.434-17.052C378.233,134.985,379.753,135.849,380.206,136.223z"/>
			<path class="st9" d="M251.834,158.478c0.174,0.617,0.357,1.233,0.547,1.84c-1.874,0.55-5.69,1.077-7.415,0.776
				c-1.431-1.441-4.099-11.358-4.682-16.625c-0.476-4.267-0.142-5.189,0.292-5.549c0.504-0.423,2.39-1.496,4.023-2.371l2.207,17.913
				c0.042,0.344,0.225,0.649,0.513,0.847L251.834,158.478z"/>
			<path class="st9" d="M322.273,158.729l-0.132,1.143c0,0-4.013,3.721-10.473,4.554c-6.46,0.832-11.538-3.138-11.538-3.138
				c0.212,0.69,0.513,2.249,1.976,3.579c-1.721-0.206-3.58-0.344-5.53-0.344c-0.704,0-1.416,0.02-2.103,0.053
				c-3.976,0.208-9.569,6.22-13.503,12.276c-1.93,0.611-7.962,2.525-14.945,4.588c-6.517-9.031-9.722-18.258-10.047-19.212
				l0.004-0.005c-0.131-0.367-0.264-0.735-0.386-1.111l1.676,1.172v0.004l4.14,2.899l1.384,0.964
				c0.207,0.146,0.451,0.222,0.696,0.222c0.089,0,0.179-0.01,0.267-0.027l38.049-8.471c0.427-0.094,0.772-0.414,0.898-0.832
				l5.426-17.862c0.936-0.127,1.759-0.193,2.465-0.193c0.702,0,1.529,0.066,2.466,0.193l5.584,18.393
				c0.142,0.466,0.547,0.805,1.026,0.856L322.273,158.729z"/>
			<path class="st9" d="M365.704,157.741l1.228-0.862c-0.203,0.852-0.424,1.699-0.654,2.537c-1.707,5.473-3.723,10.314-5.961,14.591
				c-0.495,0.034-1.017,0.053-1.577,0.053c-1.727,0-3.492-0.146-5.444-0.325c-3.388-0.311-8.766-0.927-10.465-1.124
				c-1.463-1.167-6.469-5.145-10.635-8.423c-0.164-0.132-0.305-0.255-0.442-0.368c-0.733-0.62-1.567-1.325-3.256-1.325
				c-1.534,0-3.774,0.559-9.188,2.197c2.814-2.103,2.832-4.818,2.832-4.818l0.132-1.143l35.695,4.055
				c0.291,0.033,0.592-0.042,0.837-0.211l3.586-2.512L365.704,157.741z"/>
			<path class="st13" d="M339.433,82.642c0.109,3.175,0.029,8.93-1.45,14.318c-0.06,0.208-0.051,0.42,0,0.617
				c-1.882-0.198-3.764-0.367-5.647-0.518c2.113-4.427,2.574-9.142,2.674-10.803C336.633,85.103,338.248,83.72,339.433,82.642z"/>
			<path class="st13" d="M285.576,86.256c0.098,1.661,0.559,6.366,2.668,10.79c-1.883,0.15-3.764,0.324-5.642,0.522
				c0.051-0.194,0.057-0.4,0-0.608c-1.477-5.378-1.552-11.137-1.449-14.318C282.338,83.72,283.948,85.103,285.576,86.256z"/>
			<path class="st14" d="M348.98,145.134c-2.532-1.223-5.308,0.33-10.361,0.424c-3.76,0.132-6.917,0.173-7.124-5.732
				c-0.208-5.91,2.201-10.798,5.961-10.931c3.76-0.131,7.189,4.555,7.652,10.452c0.127,1.624-0.053,2.809-0.456,3.688
				C348.152,142.617,348.943,144.993,348.98,145.134z M337.165,136.481c1.059-0.024,1.905-0.899,1.887-1.958
				c-0.018-1.063-0.894-1.911-1.958-1.886c-1.063,0.018-1.905,0.894-1.885,1.957C335.227,135.652,336.102,136.5,337.165,136.481z"/>
			<ellipse class="st15" cx="337.128" cy="134.552" rx="1.922" ry="1.922"/>
			<path class="st14" d="M289.105,140.998c0.055,5.91-3.074,5.553-6.838,5.59c-0.381,0.01-0.743,0.014-1.102,0.019
				c-0.422,0.01-0.827,0.014-1.218,0.004c-3.651-0.004-5.986-0.17-8.05,0.945c0.051-0.127,0.955-2.156,4.235-2.978
				c-0.363-0.801-0.59-1.911-0.65-3.449c-0.225-5.905,3.416-10.748,7.181-10.78C286.422,130.312,289.048,135.089,289.105,140.998z
				 M283.293,137.906c1.059-0.027,1.897-0.914,1.868-1.972c-0.029-1.063-0.912-1.901-1.971-1.872
				c-1.064,0.027-1.903,0.912-1.874,1.971C281.345,137.098,282.23,137.935,283.293,137.906z"/>
			<ellipse class="st15" cx="283.243" cy="135.987" rx="1.923" ry="1.923"/>
			<g class="st16">
				<path class="st13" d="M260.378,100.879c0,0,0.584-7.614,1.778-10.532c0.615-1.504,4.376-2.462,7.25-3.146
					c2.872-0.683,7.453-2.052,8.343,1.983c0.889,4.035,2.324,6.976,3.281,8.275l-1.23-16.618l-19.764,4.786l-1.3,14.705l0.616,1.162
					L260.378,100.879"/>
				<path class="st13" d="M360.385,100.879c0,0-0.583-7.614-1.777-10.532c-0.616-1.504-4.377-2.462-7.249-3.146
					c-2.873-0.683-7.455-2.052-8.345,1.983c-0.887,4.035-2.325,6.976-3.283,8.275l1.233-16.618l19.764,4.786l1.299,14.705
					l-0.616,1.162L360.385,100.879"/>
			</g>
			<path class="st17" d="M332.45,51.142c0,0-0.524,39.849-9.832,39.849s-11.169,0-11.169,0h-1.862c0,0-1.862,0-11.171,0
				s-10.06-39.832-10.06-39.832l-4.573,13.524l0.074,18.556l3.247,2.582l1.476,7.968l2.065,4.649l39.842,0.074l1.844-3.321
				l1.55-5.606l0.223-3.542l4.4-12.563L332.45,51.142z"/>
			<path class="st17" d="M361.764,88.298c0,0,1.916,13.746,6.985,16.225c5.07,2.478,0,0,0,0l-7.098-2.141L361.764,88.298z"/>
			<path class="st17" d="M258.816,88.298c0,0-1.916,13.746-6.986,16.225c-5.07,2.478,0,0,0,0l7.099-2.141L258.816,88.298z"/>
			<path class="st14" d="M363.129,102.32c2.413,0.79,4.841,1.628,7.04,2.913c-1.176-0.466-2.391-0.8-3.614-1.101
				c-1.219-0.311-2.447-0.574-3.68-0.809c-2.47-0.465-4.949-0.86-7.444-1.162c-2.489-0.324-4.982-0.597-7.486-0.809
				c-2.504-0.211-5.001-0.423-7.51-0.569c-10.027-0.617-20.081-0.771-30.143-0.781c-10.059,0.005-20.115,0.194-30.142,0.786
				c-2.507,0.145-5.006,0.358-7.509,0.57c-2.503,0.211-5.002,0.48-7.486,0.809c-2.494,0.302-4.974,0.697-7.444,1.162
				c-1.233,0.231-2.462,0.499-3.684,0.805c-1.219,0.301-2.438,0.635-3.614,1.101c2.198-1.284,4.625-2.126,7.044-2.918
				c0.203-0.066,0.409-0.122,0.616-0.187c-0.013-0.052-0.028-0.099-0.038-0.155c-0.042-0.278-0.936-6.884,0.621-16.333
				c0.075-0.452,0.399-0.819,0.843-0.942l2.555-0.728c0.555-19.819,8.718-29.141,8.973-29.428
				c-7.294,11.736-7.227,25.654-7.101,28.896l15.88-4.513c0.014-0.004,0.023-0.004,0.037-0.009c0.067-0.014,0.132-0.024,0.198-0.028
				c0.018,0,0.043-0.005,0.066-0.005c0.081-0.004,0.171,0.005,0.26,0.024c0.013,0,0.027,0.01,0.046,0.014
				c0.066,0.014,0.127,0.037,0.196,0.066c0.029,0.014,0.047,0.029,0.075,0.043c0.051,0.029,0.104,0.061,0.155,0.098
				c0.014,0.01,0.03,0.014,0.043,0.029c0.01,0.01,0.018,0.019,0.028,0.028c0.014,0.014,0.032,0.024,0.047,0.039
				c0.011,0.014,0.433,0.432,1.106,1.059c-0.159-5.232,0.089-20.243,7.237-32.684c-0.151,0.436-5.822,17.019-3.868,35.605
				c0.634,0.508,1.302,1.007,1.953,1.445c0.314,0.216,0.508,0.574,0.512,0.955c0.005,0.061,0.141,5.986,2.758,11.025
				c0.037,0.075,0.065,0.155,0.089,0.235c6.508-0.442,13.033-0.621,19.545-0.625c6.514,0.004,13.035,0.193,19.541,0.64
				c0.024-0.085,0.053-0.169,0.095-0.25c2.616-5.04,2.752-10.964,2.752-11.025c0.009-0.382,0.202-0.738,0.518-0.955
				c0.649-0.438,1.308-0.936,1.948-1.445c1.957-18.586-3.714-35.169-3.864-35.605c7.142,12.44,7.397,27.45,7.237,32.684
				c0.668-0.626,1.091-1.044,1.105-1.059c0.014-0.014,0.034-0.024,0.046-0.039c0.01-0.009,0.016-0.018,0.029-0.028
				c0.014-0.014,0.029-0.019,0.043-0.029c0.053-0.037,0.104-0.069,0.155-0.103c0.025-0.009,0.047-0.024,0.071-0.038
				c0.071-0.029,0.136-0.052,0.207-0.07c0.014,0,0.029-0.01,0.043-0.01c0.084-0.018,0.175-0.028,0.259-0.024
				c0.024,0,0.043,0.005,0.061,0.005c0.066,0.004,0.137,0.014,0.202,0.028c0.01,0.005,0.025,0.005,0.037,0.009l15.881,4.513
				c0.128-3.241,0.194-17.161-7.099-28.896c0.253,0.287,8.417,9.609,8.968,29.428l2.56,0.728c0.437,0.123,0.767,0.49,0.843,0.942
				c1.557,9.449,0.659,16.055,0.62,16.333c-0.009,0.057-0.023,0.109-0.037,0.159C362.719,102.193,362.921,102.253,363.129,102.32z
				 M360.241,101.472c0.123-1.057,0.691-6.841-0.518-14.718l-17.975-5.11c0.161,3.044,0.232,9.646-1.495,15.942
				c-0.023,0.075-0.051,0.151-0.088,0.226c0.178,0.018,0.357,0.032,0.531,0.056c5.054,0.579,10.084,1.388,15.058,2.479
				C357.252,100.696,358.753,101.069,360.241,101.472z M337.983,96.959c1.479-5.387,1.558-11.143,1.45-14.318
				c-1.185,1.077-2.801,2.461-4.423,3.613c-0.1,1.661-0.561,6.376-2.674,10.803c1.883,0.152,3.765,0.321,5.647,0.518
				C337.932,97.379,337.923,97.168,337.983,96.959z M288.244,97.045c-2.109-4.424-2.57-9.13-2.668-10.79
				c-1.628-1.153-3.238-2.536-4.423-3.613c-0.104,3.181-0.028,8.94,1.449,14.318c0.057,0.208,0.051,0.414,0,0.608
				C284.48,97.369,286.361,97.196,288.244,97.045z M280.418,97.802c-0.034-0.066-0.061-0.141-0.086-0.216
				c-1.73-6.296-1.655-12.897-1.5-15.942l-17.97,5.11c-1.209,7.868-0.645,13.651-0.523,14.714c1.492-0.405,2.988-0.777,4.495-1.125
				c2.483-0.55,4.987-1.011,7.495-1.435c2.513-0.419,5.034-0.738,7.556-1.044C280.065,97.84,280.24,97.827,280.418,97.802z"/>
			<g id="XMLID_1_">
				<g>
					<path class="st14" d="M329.233,51.663v14.914h-10.572V62.22h-2.383v20.131h3.599v11.257h-18.491V82.351h3.585v-20.13h-2.375
						v4.357h-10.565V51.663H329.233z M326.057,63.409v-8.575h-4.605h-8.342h-17.909v8.575h4.219v-4.357h8.728v26.477h-3.592v4.911
						h12.146v-4.911h-3.592V59.051h8.728v4.357H326.057z"/>
					<polygon class="st7" points="326.057,54.833 326.057,63.409 321.838,63.409 321.838,59.051 313.11,59.051 313.11,85.529 
						316.701,85.529 316.701,90.439 304.556,90.439 304.556,85.529 308.148,85.529 308.148,59.051 299.42,59.051 299.42,63.409 
						295.201,63.409 295.201,54.833 313.11,54.833 321.452,54.833 					"/>
				</g>
			</g>
			<path class="st10" d="M242.861,116.615c1.541-0.35,3.623-0.795,6.177-1.288c-1.569,1.07-3.424,2.412-5.45,4.027L242.861,116.615z
				"/>
			<path class="st12" d="M299.29,157.49c0,0,0.431,2.773-3.45,3.959c-3.879,1.187-28.454,8.511-31.257,8.114
				c-2.802-0.395-9.915-5.146-9.915-5.146l-1.725-6.135l10.526,6.563L299.29,157.49z"/>
			<path class="st12" d="M321.305,156.953c0,0-0.31,2.787,3.619,3.806c3.928,1.017,28.798,7.266,31.58,6.749
				c2.782-0.518,9.682-5.572,9.682-5.572l1.457-6.206l-9.675,5.771L321.305,156.953z"/>
			<path class="st12" d="M240.862,152.388c0,0,3.405,6.811,8.905,4.453l3.929,1.441l-0.392,2.882l-8.251,1.047l-2.226-1.309
				L240.862,152.388z"/>
			<path class="st12" d="M380.267,150.519c0,0-5.565,7.109-11.066,4.751l-1.769,1.141l0.392,2.881l8.251,1.048l2.225-1.31
				L380.267,150.519z"/>
			<path class="st12" d="M294.181,204.027c0,0,20.174,10.171,43.017-3.669l-7.336-0.5c0,0-16.006,6.335-28.678,2.834
				L294.181,204.027z"/>
			<path class="st14" d="M314.633,185.285l1.396,1.664c0.032,0.04,3.133,3.732,6.926,7.492c2.522,2.499,5.569,3.764,9.06,3.764
				c1.192,0,2.445-0.153,3.71-0.458c1.174-0.286,2.449-0.59,3.755-0.902c4.716-1.127,10.058-2.408,12.648-3.133
				c0.512-0.145,1.084-0.276,1.686-0.413c3.447-0.796,8.172-1.895,10.676-6.911c1.883-3.764,4.421-8.65,6.305-12.23
				c-1.632,0.752-3.343,1.568-4.558,2.208c-1.873,0.984-4.326,1.46-7.497,1.46c-1.885,0-3.737-0.159-5.786-0.341
				c-4.095-0.377-11.025-1.192-11.096-1.202l-0.531-0.059l-0.419-0.335c-0.062-0.046-6.135-4.884-11.043-8.743
				c-0.199-0.163-0.38-0.314-0.544-0.449c-0.517-0.441-0.517-0.441-0.825-0.441c-1.574,0-6.15,1.419-16.173,4.526l-0.616,0.195
				l-0.604-0.228c-0.068-0.023-6.644-2.462-14.525-2.462c-0.645,0-1.288,0.017-1.914,0.049c-0.789,0.04-5.219,2.144-10.884,11.108
				l-0.367,0.576l-0.649,0.208c-0.094,0.032-9.844,3.18-20.185,6.136l-0.671,0.191l-0.635-0.295
				c-0.067-0.027-4.114-1.904-7.964-3.674c2.1,3.102,4.785,6.971,7.147,10.006c4.127,5.315,9.328,10.226,19.302,10.226
				c1.251,0,2.58-0.077,3.945-0.232c10.145-1.147,12.757-1.609,14.163-1.854c0.476-0.081,0.852-0.15,1.333-0.208
				c0.077-0.01,8.384-1.084,10.715-6.312c2.404-5.373,2.889-6.653,2.907-6.702l0.848-2.263c0,0,0.105-0.586,0.278-0.768
				c0,0.004,0,0.004,0.004,0.004l0.017,0.014C314.237,184.686,314.633,185.285,314.633,185.285z M251.45,83.845
				c-2.204,0.888-4.394,1.805-6.535,2.811c-2.145,0.98-4.254,2.032-6.268,3.206c-1.858,1.07-3.642,2.245-5.216,3.571
				c-0.067,0.399-0.131,0.834-0.185,1.247c-0.068,0.584-0.137,1.17-0.182,1.76c-0.104,1.179-0.145,2.368-0.158,3.556
				c-0.023,2.377,0.14,4.753,0.44,7.106c0.326,2.358,0.757,4.703,1.396,6.966c0.318,1.134,0.672,2.254,1.089,3.332
				c0.204,0.546,0.431,1.076,0.668,1.593c0.117,0.258,0.24,0.512,0.362,0.757l0.151,0.286c0.176,0.091,0.358,0.181,0.53,0.263
				l1.056,0.503c0.59,0.272,1.402,0.658,2.073,0.957c0.04-0.032,0.077-0.068,0.109-0.1l-1.954-7.456
				c0.413-0.113,4.132-1.075,10.54-2.294c-0.517-0.095-1.043-0.208-1.555-0.332c-1.456-0.362-2.899-0.807-4.291-1.369
				c-0.689-0.294-1.374-0.612-2.023-0.98c-0.649-0.372-1.289-0.793-1.783-1.355c7.039,2.299,21.582,1.255,34.513-0.077
				c11.827-1.22,23.676-2.009,35.59-2.037c11.914,0.027,23.773,0.816,35.592,2.037c12.938,1.333,27.484,2.377,34.52,0.077
				c-0.494,0.562-1.133,0.983-1.782,1.355c-0.647,0.368-1.333,0.685-2.023,0.98c-1.397,0.562-2.835,1.007-4.295,1.369
				c-0.214,0.049-0.431,0.1-0.649,0.145c7.026,1.302,11.116,2.363,11.551,2.481l-1.873,7.102c0.377-0.168,0.757-0.33,1.128-0.503
				l1.057-0.503c0.172-0.082,0.354-0.172,0.531-0.263l0.145-0.286c0.126-0.244,0.249-0.499,0.367-0.757
				c0.237-0.518,0.463-1.048,0.672-1.593c0.413-1.078,0.77-2.199,1.083-3.332c0.64-2.263,1.076-4.608,1.397-6.966
				c0.303-2.353,0.463-4.73,0.44-7.106c-0.009-1.188-0.054-2.377-0.154-3.556c-0.05-0.59-0.114-1.175-0.187-1.76
				c-0.05-0.413-0.118-0.848-0.187-1.247c-1.574-1.325-3.356-2.499-5.216-3.571c-2.014-1.174-4.121-2.226-6.271-3.206
				c-2.136-1.007-4.33-1.923-6.535-2.811c-1.103-0.445-2.215-0.88-3.33-1.293c-1.11-0.43-2.236-0.837-3.359-1.247
				c2.362,0.39,4.703,0.929,7.019,1.523c1.51,0.391,3.017,0.83,4.504,1.297c-10.608-27.732-35.977-45.79-63.672-45.79
				c-27.701,0-53.064,18.058-63.671,45.79c1.491-0.467,2.992-0.907,4.498-1.297c2.322-0.594,4.662-1.134,7.026-1.523
				c-1.13,0.408-2.25,0.816-3.366,1.247C253.667,82.965,252.557,83.4,251.45,83.845z M391.11,99.89
				c0.128,2.553,0.06,5.11-0.226,7.65c-0.267,2.535-0.748,5.048-1.418,7.538c-0.35,1.239-0.753,2.462-1.23,3.677
				c-0.241,0.607-0.498,1.212-0.78,1.814c-0.141,0.299-0.29,0.594-0.458,0.898l-0.249,0.449c-0.091,0.163-0.164,0.286-0.305,0.503
				l-0.258,0.4l-0.404,0.208c-0.431,0.223-0.784,0.39-1.176,0.572l-1.137,0.512c-0.763,0.326-1.529,0.634-2.295,0.933
				c-0.535,0.209-1.007,0.4-1.456,0.59l-1.265,4.807c-0.032-0.008-0.413-0.105-1.124-0.276l-0.068,0.503
				c1.396,0.73,4.14,2.209,5.075,2.981c1.882,1.555,2.014,4.018,1.597,8.621c-0.214,2.363-0.998,6.961-2.086,11.184
				c-1.878,7.269-2.876,8.123-4.164,8.452c-0.654,0.168-1.659,0.336-2.635,0.336c-1.985,0-4.689,0.055-6.508-0.385
				c-0.467,1.654-1.8,5.967-4.44,11.355c0.132-0.064,0.263-0.118,0.381-0.181c3.256-1.71,9.514-4.436,9.778-4.554l4.943-2.148
				l-2.532,4.761c-0.059,0.103-5.487,10.313-8.812,16.979c-3.302,6.603-9.491,8.041-13.197,8.892
				c-0.558,0.132-1.087,0.255-1.518,0.372c-2.659,0.748-8.042,2.031-12.789,3.174c-0.056,0.014-0.114,0.029-0.173,0.037
				c-2.921,1.805-6.109,3.416-9.597,4.74c-12.762,4.834-26.212,4.562-38.407,0.081c-1.981,0.255-4.585,0.567-8.053,0.961
				c-1.507,0.168-2.971,0.255-4.367,0.255c-11.619,0-17.777-5.901-22.272-11.678c-4.812-6.186-10.698-15.37-10.947-15.755
				l-3.413-5.323l5.768,2.594c2.761,1.243,10.971,5.043,13.32,6.132c0.19-0.053,0.377-0.109,0.562-0.163
				c-3.904-5.569-7.106-11.918-9.369-18.951c-1.923,0.58-4.885,1.029-7.188,1.029c-0.842,0-1.596-0.063-2.176-0.2
				c-1.289-0.294-2.758-1.536-4.758-8.58c-1.161-4.089-2.027-8.553-2.28-10.851c-0.499-4.486-0.408-6.889,1.456-8.441
				c1.124-0.938,4.915-2.929,5.7-3.337l-0.168-1.384c-12.045,7.078-19.264,13.333-19.409,13.461l-8.614,7.559l6.136-9.677
				c4.857-7.669,10.466-13.869,15.628-18.645c-0.214-0.086-0.413-0.172-0.622-0.258l-1.138-0.512
				c-0.39-0.182-0.744-0.35-1.174-0.572l-0.404-0.208l-0.258-0.4c-0.145-0.218-0.208-0.34-0.304-0.503l-0.254-0.449
				c-0.159-0.304-0.314-0.599-0.454-0.898c-0.286-0.604-0.544-1.207-0.78-1.814c-0.477-1.215-0.88-2.439-1.23-3.677
				c-0.675-2.49-1.152-5.002-1.419-7.538c-0.281-2.54-0.354-5.097-0.227-7.65c0.068-1.275,0.191-2.548,0.367-3.814
				c0.091-0.635,0.187-1.27,0.314-1.901c0.131-0.643,0.259-1.242,0.454-1.946l0.136-0.494l0.354-0.278
				c2.01-1.579,4.177-2.771,6.381-3.827c1.814-0.852,3.664-1.606,5.528-2.292c5.206-14.448,14.158-27.259,25.922-36.188
				c12.163-9.229,26.466-14.108,41.364-14.108c14.898,0,29.201,4.879,41.363,14.109c11.765,8.929,20.716,21.741,25.919,36.185
				c1.868,0.689,3.714,1.438,5.533,2.295c2.203,1.056,4.371,2.249,6.38,3.827l0.354,0.278l0.137,0.494
				c0.199,0.703,0.326,1.303,0.453,1.946c0.128,0.631,0.228,1.266,0.313,1.901C390.921,97.341,391.048,98.615,391.11,99.89z
				 M380.603,141.965c0.399-4.426,0.051-5.378-0.399-5.741c-0.449-0.377-1.968-1.237-3.447-2.04l-2.434,17.05
				c-0.046,0.331-0.232,0.632-0.508,0.825l-3.484,2.436c-0.276,1.395-0.376,2.054-0.716,3.419c1.991,0.463,5.255,0.822,6.811,0.521
				C377.838,156.904,380.117,147.389,380.603,141.965z M376.082,126.505l2.608-9.89c-3.783-0.857-10.749-2.291-20.236-3.634
				c-4.844,3.483-10.146,6.268-15.356,8.489C359.04,123.022,370.753,125.33,376.082,126.505z M371.982,150.365l2.965-20.74
				c-1.319-0.286-3.006-0.639-5.02-1.024l-2.68,18.766c-0.05,0.331-0.232,0.635-0.504,0.826l-10.049,7.028
				c-0.237,0.168-0.54,0.245-0.83,0.213l-30.285-3.442c-0.485-0.055-0.889-0.391-1.03-0.852l-5.455-17.958
				c-1.461-0.378-5.211-1.253-8.494-1.253c-3.297,0-7.044,0.875-8.504,1.253l-5.456,17.958c-0.095,0.312-0.314,0.572-0.597,0.72
				c-0.091,0.05-0.195,0.086-0.3,0.109l-30.285,6.738c-0.095,0.019-0.177,0.029-0.268,0.029c-0.244,0-0.49-0.073-0.694-0.219
				l-10.045-7.033c-0.281-0.195-0.468-0.504-0.512-0.848l-2.708-21.963c-1.125,0.218-2.14,0.427-3.048,0.616
				c-0.643,0.355-1.279,0.709-1.904,1.063l2.874,23.274l14.599,10.227l36.833-8.194l5.437-17.913
				c0.137-0.45,0.512-0.781,0.971-0.854c1.379-0.222,2.584-0.335,3.606-0.335c1.01,0,2.222,0.113,3.596,0.335
				c0.463,0.073,0.838,0.404,0.971,0.854l5.577,18.357l37.039,4.212L371.982,150.365z M364.913,146.501l2.621-18.35
				c-7.393-1.346-18.203-2.973-31.446-3.989c-11.955,4.123-21.967,5.351-22.571,5.392l-0.698,0.05
				c3.813,0.328,7.406,1.353,7.586,1.406c0.396,0.118,0.704,0.421,0.827,0.817l5.419,17.841l29.029,3.297L364.913,146.501z
				 M366.93,156.877l-1.23,0.861l-3.31,2.322l-3.587,2.512c-0.244,0.168-0.544,0.245-0.836,0.213l-35.693-4.058l-2.598-0.295
				c-0.481-0.055-0.885-0.391-1.026-0.856l-5.586-18.394c-0.934-0.127-1.764-0.192-2.462-0.192c-0.709,0-1.534,0.064-2.468,0.192
				l-5.424,17.863c-0.127,0.417-0.471,0.735-0.898,0.829l-38.049,8.473c-0.09,0.018-0.18,0.026-0.267,0.026
				c-0.244,0-0.49-0.073-0.699-0.222l-1.382-0.962l-4.14-2.897v-0.01l-1.673-1.169c0.118,0.377,0.253,0.745,0.386,1.111
				l-0.005,0.005c0.322,0.957,3.529,10.181,10.045,19.21c6.979-2.059,13.016-3.973,14.942-4.585
				c3.931-6.059,9.528-12.069,13.506-12.276c0.684-0.032,1.397-0.053,2.104-0.053c1.946,0,3.805,0.14,5.528,0.344
				c-1.464-1.329-1.763-2.889-1.976-3.578c0,0,5.075,3.968,11.537,3.14c6.463-0.835,10.476-4.559,10.476-4.559
				s-0.018,2.717-2.835,4.821c5.415-1.637,7.655-2.2,9.188-2.2c1.692,0,2.526,0.708,3.256,1.331
				c0.141,0.113,0.282,0.235,0.444,0.367c4.164,3.278,9.17,7.256,10.635,8.422c1.696,0.199,7.074,0.811,10.462,1.124
				c1.953,0.176,3.719,0.326,5.446,0.326c0.558,0,1.08-0.023,1.574-0.055c2.241-4.275,4.255-9.12,5.964-14.588
				C366.508,158.577,366.731,157.729,366.93,156.877z M353.76,111.682c-0.009-0.005-0.018-0.011-0.027-0.011
				c-2.866-0.213-5.732-0.408-8.608-0.57c-3.99-0.228-7.982-0.418-11.972-0.585c-0.232,0.345-0.703,1.025-1.379,1.949
				c-2.172,2.939-6.481,8.331-12.005,12.903c7.819-1.402,21.382-4.871,33.115-13.057C353.18,112.102,353.47,111.885,353.76,111.682z
				 M327.589,112.493c0.33-0.413,0.639-0.811,0.915-1.174c-2.874,0.29-5.704,0.708-8.471,1.233
				c-9.473,1.773-18.222,4.721-25.5,7.741c5.157-0.25,10.58-0.399,16.241-0.399c3.423,0,6.752,0.059,9.99,0.154
				C323.548,117.372,325.897,114.634,327.589,112.493z M330.731,201.919c-3.945-0.291-7.532-1.932-10.427-4.798
				c-0.15-0.153-0.294-0.3-0.44-0.449c-1.4,0.281-2.82,0.49-4.276,0.617c-0.611,0.023-1.192,0.076-1.832,0.076l-0.949,0.01
				l-0.362-0.01c-3.851,5.728-12.403,6.844-12.794,6.894c-0.353,0.04-0.643,0.09-1.043,0.163c4.767,1.306,9.632,1.873,14.431,1.551
				C317.851,205.652,324.102,204.608,330.731,201.919z M315.489,195.383c0.925-0.073,1.854-0.191,2.789-0.331
				c-1.211-1.26-2.281-2.431-3.126-3.379c-0.413,0.948-0.96,2.194-1.682,3.801h0.213
				C314.26,195.475,314.891,195.412,315.489,195.383z M312.551,126.502c1.6-0.966,3.138-2.073,4.598-3.252
				c-2.091-0.036-4.213-0.063-6.376-0.063c-8.88,0-17.175,0.364-24.693,0.929c-7.542,3.687-12.154,6.721-12.262,6.798l-7.243,4.83
				l4.975-7.139c0.821-1.185,1.692-2.309,2.589-3.379c-8.354,0.934-15.31,2.04-20.507,2.998l2.661,21.578l9.157,6.413l29.069-6.463
				l5.442-17.926c0.091-0.295,0.29-0.544,0.549-0.695c0.086-0.055,0.177-0.095,0.276-0.123c0.168-0.046,3.075-0.875,6.426-1.283
				L312.551,126.502z M315.894,110.043c-2.024-0.032-4.05-0.05-6.073-0.054h-0.004c-2.97,0.004-5.945,0.036-8.926,0.095
				l-5.492,2.603c-0.004,0.004-0.036,0.018-0.077,0.042c-0.825,0.403-8.036,4.041-14.821,10.53
				c6.082-3.197,15.02-7.374,25.538-10.613C309.19,111.682,312.491,110.791,315.894,110.043z M277.513,121.558
				c2.848-2.825,5.786-5.156,8.381-6.979c-10,2.322-19.204,5.732-27.268,9.442C263.872,123.172,270.225,122.288,277.513,121.558z
				 M279.404,112.842c3.351-0.939,6.807-1.76,10.348-2.449c-5.079,0.186-10.162,0.421-15.236,0.708
				c-2.949,0.163-5.882,0.363-8.817,0.584c-1.47,0.113-2.93,0.23-4.386,0.39c-0.417,0.04-0.825,0.086-1.242,0.14
				c-3.827,2.29-18.507,11.505-28.585,23.555C241.279,128.964,258.339,118.738,279.404,112.842z M252.379,160.319
				c-0.191-0.607-0.371-1.225-0.544-1.841l-4.522-3.164c-0.286-0.2-0.468-0.504-0.513-0.849l-2.204-17.913
				c-1.633,0.875-3.519,1.949-4.023,2.371c-0.435,0.358-0.767,1.279-0.294,5.547c0.585,5.265,3.252,15.184,4.685,16.626
				C246.688,161.399,250.506,160.869,252.379,160.319z M249.037,115.327c-2.554,0.494-4.636,0.938-6.177,1.288l0.726,2.739
				C245.613,117.739,247.468,116.397,249.037,115.327z"/>
		</g>
	</g>
</g>
<g>
	<polygon class="st18" points="52.488,155.196 77.466,155.196 83.495,119.998 45.847,119.998 	"/>
	<path class="st19" d="M9.041,83.9c-2.114-0.027-3.85,1.664-3.877,3.778c-0.003,0.222,0.014,0.443,0.049,0.662l16.25,98.647
		c0.418,2.492,2.565,4.324,5.091,4.345h77.957c1.896,0.024,3.525-1.343,3.828-3.215l16.25-99.757
		c0.338-2.087-1.079-4.053-3.166-4.391c-0.219-0.035-0.44-0.052-0.662-0.049L9.041,83.9z M77.466,155.196H52.584l-6.737-35.198
		h37.648L77.466,155.196z"/>
	
		<linearGradient id="SVGID_8_" gradientUnits="userSpaceOnUse" x1="127.7416" y1="128.7153" x2="68.3698" y2="82.3777" gradientTransform="matrix(1 0 0 -1 0 258.5891)">
		<stop  offset="0.18" style="stop-color:#0052CC"/>
		<stop  offset="1" style="stop-color:#2684FF"/>
	</linearGradient>
	<path class="st20" d="M119.42,119.998H83.495l-6.029,35.198H52.584l-29.38,34.873c0.931,0.805,2.118,1.253,3.349,1.263h77.976
		c1.896,0.024,3.525-1.343,3.828-3.215L119.42,119.998z"/>
</g>
</svg>
