<?xml version="1.0" encoding="utf-8"?>
<svg version="1.1" id="Layer_1" x="0px" y="0px" viewBox="0 0 350.388 302.326" style="enable-background:new 0 0 350.388 302.326;" xmlns="http://www.w3.org/2000/svg">
  <style type="text/css">
	.fake{fill:url(#this_fixes_gradient);}
	.st0{fill:none;}
	.st1{fill:#2684FF;}
	.st2{fill:url(#bb-integrate-f1);}
	.st3{clip-path:url(#bb-integrate-f3);}
	.st4{fill:#F1F1F1;stroke:#404041;stroke-width:3;stroke-linecap:round;stroke-linejoin:round;stroke-miterlimit:10;}
	.st5{fill:#FFE000;}
	.st6{fill:#0068FF;}
	.st7{fill:#66A4FF;}
	.st8{fill:#F6E65C;}
	.st9{fill:#FBF2BF;}
	.st10{fill:#DBBE26;}
	.st11{fill:none;stroke:#404041;stroke-width:3;stroke-linecap:round;stroke-linejoin:round;stroke-miterlimit:10;}
	.st12{fill:#50B964;stroke:#404041;stroke-width:2.3868;stroke-linecap:round;stroke-linejoin:round;stroke-miterlimit:10;}
  .st13{fill:url(#bb-integrate-f6);}
</style>
  <g>
    <g>
      <polygon class="st0" points="73.449,240.864 90.936,240.864 95.156,216.222 68.8,216.222 &#9;&#9;"/>
      <path class="st1" d="M43.033,190.951c-1.48-0.019-2.695,1.165-2.714,2.645c-0.002,0.155,0.009,0.31,0.034,0.464l11.376,69.061 c0.293,1.744,1.795,3.027,3.564,3.042h54.576c1.328,0.017,2.468-0.94,2.68-2.251l11.376-69.838 c0.237-1.461-0.755-2.837-2.216-3.074c-0.153-0.025-0.308-0.036-0.464-0.034L43.033,190.951z M90.936,240.864H73.516L68.8,216.222 h26.357L90.936,240.864z"/>
      <linearGradient id="bb-integrate-f1" gradientUnits="userSpaceOnUse" x1="126.1326" y1="77.3134" x2="84.5677" y2="44.8734" gradientTransform="matrix(1 0 0 -1 0 300.4496)">
        <stop offset="0.18" style="stop-color:#0052CC"/>
        <stop offset="1" style="stop-color:#2684FF"/>
      </linearGradient>
      <path class="st2" d="M120.307,216.222H95.156l-4.221,24.641H73.516l-20.568,24.414c0.652,0.564,1.483,0.877,2.345,0.884h54.589 c1.328,0.017,2.468-0.94,2.68-2.251L120.307,216.222z"/>
    </g>
    <g>
      <g>
        <defs>
          <path id="bb-integrate-f2" d="M328.466,36.459C303.174,2.908,255.303-3.81,221.753,21.482c-13.948,10.514-23.253,24.932-27.554,40.6 c-0.076,0.192-0.143,0.39-0.199,0.593l-14.411,52.052c-0.838,3.058,0.963,6.215,4.021,7.052 c1.784,0.489,3.603,0.079,4.975-0.955c0.979-0.738,1.729-1.792,2.078-3.066l12.75-43.122 c6.768-20.353,11.399-32.543,26.021-43.567c28.495-21.481,68.382-16.194,89.863,12.3c21.481,28.495,15.775,69.151-12.72,90.632 c-11.162,8.414-24.19,12.639-37.201,12.974l-5.041-0.056c-1.586-0.082-37.89-0.479-37.801-0.423l-143.01-1.6 c-16.484-0.03-32.457,5.257-45.85,15.352c-33.55,25.292-40.269,73.163-14.977,106.713c11.539,15.307,27.778,25.025,45.212,28.67 c20.78,4.344,43.257,0.06,61.5-13.693c13.901-10.479,23.58-25.058,27.866-41.666c0.007-0.025,0.02-0.047,0.027-0.073 l8.157-30.101l6.121,1.557c2.4,0.611,4.528-1.671,3.752-4.023l-7.345-22.271c-0.718-2.178-3.455-2.874-5.126-1.304 l-17.093,16.055c-1.805,1.695-1.026,4.716,1.374,5.326l7.189,1.829c0,0-6.684,22.694-6.698,22.789 c-2.396,17.131-11.323,32.301-25.135,42.714c-20.24,15.258-46.61,16.785-67.892,6.186c-8.68-4.323-16.518-10.651-22.741-18.906 c-21.481-28.495-15.775-69.151,12.72-90.632c10.258-7.733,22.3-12.137,34.834-12.91l0-0.028l0.404,0.003 c1.11-0.062,2.221-0.105,3.338-0.109c0.011,0,0.022,0.002,0.033,0.002l0.239,0.003c1.526,0.001,3.058,0.053,4.592,0.159 l62.929,0.42l-0.001,0.176l112.967,1.264c1.98,0.098,3.965,0.123,5.95,0.067l0.525,0.006c0.274,0.003,0.54-0.024,0.804-0.058 c14.814-0.675,29.58-5.658,42.289-15.24C347.039,117.88,353.757,70.009,328.466,36.459z"/>
          <radialGradient id="bb-integrate-f6">
            <stop offset="0" stop-color="#50B964" stop-opacity="0"/>
            <stop offset="0.25" stop-color="#50B964" stop-opacity="0.25"/>
            <stop offset="0.5" stop-color="#50B964" stop-opacity="5"/>
            <stop offset="0.75" stop-color="#50B964" stop-opacity="1"/>
            <stop offset="1" stop-color="#50B964"/>
          </radialGradient>
        </defs>
        <g class="st3" style="clip-path: none;"/>
        <path d="M 328.466 36.459 C 303.174 2.908 255.303 -3.81 221.753 21.482 C 207.805 31.996 198.5 46.414 194.199 62.082 C 194.123 62.274 194.056 62.472 194 62.675 L 179.589 114.727 C 178.751 117.785 180.552 120.942 183.61 121.779 C 185.394 122.268 187.213 121.858 188.585 120.824 C 189.564 120.086 190.314 119.032 190.663 117.758 L 203.413 74.636 C 210.181 54.283 214.812 42.093 229.434 31.069 C 257.929 9.588 297.816 14.875 319.297 43.369 C 340.778 71.864 335.072 112.52 306.577 134.001 C 295.415 142.415 282.387 146.64 269.376 146.975 L 264.335 146.919 C 262.749 146.837 226.445 146.44 226.534 146.496 L 83.524 144.896 C 67.04 144.866 51.067 150.153 37.674 160.248 C 4.124 185.54 -2.595 233.411 22.697 266.961 C 34.236 282.268 50.475 291.986 67.909 295.631 C 88.689 299.975 111.166 295.691 129.409 281.938 C 143.31 271.459 152.989 256.88 157.275 240.272 C 157.282 240.247 157.295 240.225 157.302 240.199 L 165.459 210.098 L 171.58 211.655 C 173.98 212.266 176.108 209.984 175.332 207.632 L 167.987 185.361 C 167.269 183.183 164.532 182.487 162.861 184.057 L 145.768 200.112 C 143.963 201.807 144.742 204.828 147.142 205.438 L 154.331 207.267 C 154.331 207.267 147.647 229.961 147.633 230.056 C 145.237 247.187 136.31 262.357 122.498 272.77 C 102.258 288.028 75.888 289.555 54.606 278.956 C 45.926 274.633 38.088 268.305 31.865 260.05 C 10.384 231.555 16.09 190.899 44.585 169.418 C 54.843 161.685 66.885 157.281 79.419 156.508 L 79.419 156.48 L 79.823 156.483 C 80.933 156.421 82.044 156.378 83.161 156.374 C 83.172 156.374 83.183 156.376 83.194 156.376 L 83.433 156.379 C 84.959 156.38 86.491 156.432 88.025 156.538 L 150.954 156.958 L 150.953 157.134 L 263.92 158.398 C 265.9 158.496 267.885 158.521 269.87 158.465 L 270.395 158.471 C 270.669 158.474 270.935 158.447 271.199 158.413 C 286.013 157.738 300.779 152.755 313.488 143.173 C 347.039 117.88 353.757 70.009 328.466 36.459 Z" style="overflow: visible;" class="st13"/>
      </g>
    </g>
    <g>
      <path id="icon-settings_6_" class="st4" d="M207.768,167.862l-3.646-1.921c0.083-0.782,0.172-1.565,0.137-2.374 c-0.038-0.884-0.198-1.732-0.373-2.57l3.425-2.267c1.472-0.975,1.877-2.973,0.906-4.444l-2.911-4.403 c-0.975-1.472-2.973-1.877-4.444-0.906l-3.437,2.274c0,0-2.462-1.518-3.848-1.997l-0.176-4.082 c-0.076-1.763-1.58-3.142-3.342-3.066l-5.275,0.228c-1.763,0.076-3.142,1.58-3.066,3.342l0.176,4.079 c-1.405,0.628-2.667,1.477-3.82,2.464l-3.653-1.924c-1.559-0.822-3.51-0.218-4.332,1.344l-2.46,4.669 c-0.822,1.562-0.217,3.513,1.341,4.335l3.646,1.921c-0.083,0.782-0.172,1.565-0.137,2.374c0.038,0.884,0.198,1.732,0.373,2.57 l-3.425,2.267c-1.472,0.975-1.877,2.973-0.906,4.444l2.914,4.403c0.975,1.472,2.973,1.877,4.444,0.906l3.437-2.274 c1.187,0.829,2.462,1.518,3.848,1.997l0.176,4.079c0.076,1.763,1.58,3.142,3.342,3.066l5.275-0.228 c1.763-0.076,3.142-1.58,3.066-3.342l-0.176-4.079c0,0,2.667-1.477,3.82-2.464l3.653,1.924c1.562,0.822,3.51,0.218,4.332-1.344 l2.46-4.672C209.934,170.635,209.33,168.684,207.768,167.862z M188.652,170.797c-3.613,0.156-6.67-2.648-6.826-6.262 c-0.156-3.613,2.648-6.67,6.262-6.826c3.613-0.156,6.67,2.648,6.826,6.262C195.07,167.584,192.266,170.641,188.652,170.797z"/>
      <path id="icon-settings_5_" class="st4" d="M172.888,135.168l-3.073-1.078c-0.026-0.621-0.047-1.243-0.168-1.872 c-0.132-0.687-0.356-1.331-0.589-1.965l2.414-2.169c1.037-0.933,1.123-2.542,0.192-3.579l-2.787-3.104 c-0.933-1.037-2.542-1.123-3.579-0.192l-2.423,2.176c0,0-2.101-0.901-3.24-1.115l-0.611-3.171 c-0.264-1.369-1.599-2.273-2.968-2.009l-4.097,0.79c-1.369,0.264-2.273,1.599-2.009,2.968l0.611,3.168 c-1.025,0.654-1.913,1.464-2.7,2.369l-3.078-1.08c-1.314-0.462-2.769,0.237-3.23,1.553l-1.381,3.935 c-0.461,1.316,0.238,2.771,1.551,3.233l3.073,1.078c0.026,0.621,0.047,1.243,0.168,1.872c0.132,0.687,0.356,1.331,0.589,1.965 l-2.414,2.169c-1.037,0.933-1.123,2.542-0.192,3.579l2.789,3.103c0.933,1.037,2.542,1.123,3.579,0.192l2.423-2.176 c1.024,0.51,2.101,0.901,3.24,1.115l0.611,3.168c0.264,1.369,1.599,2.273,2.968,2.009l4.097-0.79 c1.369-0.264,2.273-1.6,2.009-2.968l-0.611-3.168c0,0,1.913-1.464,2.7-2.369l3.078,1.08c1.316,0.461,2.769-0.237,3.23-1.553 l1.381-3.938C174.903,137.084,174.204,135.629,172.888,135.168z M158.286,139.68c-2.806,0.541-5.521-1.296-6.062-4.102 s1.296-5.521,4.102-6.062c2.806-0.541,5.521,1.296,6.062,4.102C162.929,136.424,161.092,139.139,158.286,139.68z"/>
    </g>
    <path class="st5" d="M126.05,164.013v-0.008c-6.934-0.792-12.427-6.298-13.204-13.235h-0.007c-0.004-0.052-0.045-0.093-0.098-0.093 c-0.053,0-0.093,0.042-0.098,0.093h-0.006c-0.778,6.945-6.281,12.456-13.225,13.239v0.005c-0.052,0.004-0.093,0.045-0.093,0.098 c0,0.053,0.042,0.093,0.093,0.098v0.005c6.938,0.782,12.437,6.284,13.222,13.22h0.01c0.004,0.052,0.045,0.093,0.098,0.093 c0.053,0,0.093-0.042,0.098-0.093h0.007c0.785-6.928,6.274-12.426,13.202-13.216v-0.008c0.052-0.004,0.093-0.045,0.093-0.098 C126.143,164.058,126.102,164.017,126.05,164.013z"/>
    <path class="st6" d="M48.192,175.242v-0.004c-3.544-0.405-6.351-3.219-6.748-6.764H41.44c-0.002-0.026-0.023-0.048-0.05-0.048 c-0.027,0-0.048,0.021-0.05,0.048h-0.003c-0.398,3.549-3.21,6.366-6.759,6.766v0.003c-0.026,0.002-0.048,0.023-0.048,0.05 c0,0.027,0.021,0.048,0.048,0.05v0.003c3.546,0.4,6.356,3.212,6.758,6.756h0.005c0.002,0.026,0.023,0.048,0.05,0.048 c0.027,0,0.048-0.021,0.05-0.048h0.004c0.401-3.541,3.207-6.35,6.747-6.755v-0.004c0.026-0.002,0.048-0.023,0.048-0.05 C48.239,175.265,48.218,175.244,48.192,175.242z"/>
    <path class="st7" d="M95.8,126.544v-0.004c-3.544-0.405-6.351-3.219-6.748-6.764h-0.003c-0.002-0.026-0.023-0.048-0.05-0.048 c-0.027,0-0.048,0.021-0.05,0.048h-0.003c-0.398,3.549-3.21,6.366-6.759,6.766v0.003c-0.026,0.002-0.048,0.023-0.048,0.05 c0,0.027,0.021,0.048,0.048,0.05v0.003c3.546,0.4,6.356,3.212,6.758,6.756h0.005c0.002,0.026,0.023,0.048,0.05,0.048 c0.027,0,0.048-0.021,0.05-0.048h0.004c0.401-3.541,3.207-6.35,6.747-6.755v-0.004c0.026-0.002,0.048-0.023,0.048-0.05 C95.848,126.567,95.826,126.547,95.8,126.544z"/>
    <g>
      <g>
        <path class="st8" d="M316.752,98.214l0-7.067c0-1.195-0.969-2.164-2.164-2.164h-3.535V81.49c0-19.754-13.074-36.45-31.04-41.919 c-0.012-0.101-0.023-0.192-0.031-0.264c-0.184-1.569-0.535-3.158-2.013-3.736c-2.395-0.936-19.374-0.936-21.77,0 c-1.478,0.578-1.829,2.167-2.013,3.736c-0.011,0.092-0.026,0.217-0.043,0.357c-17.804,5.567-30.724,22.187-30.724,41.826v7.493 h-3.839c-1.195,0-2.164,0.969-2.164,2.164l0,7.067c-1.877,0-3.004,1.704-1.02,3.786l7.664,8.729 c1.047,1.543,2.791,2.467,4.656,2.467l76.735,0c1.865,0,3.609-0.924,4.656-2.467l7.664-8.729 C319.755,99.918,318.628,98.214,316.752,98.214z"/>
      </g>
      <g>
        <path class="st9" d="M315.77,104.005c0,0-11.834,3.489-47.921,3.489s-49.45-3.489-49.45-3.489l0,0l3.307,3.766 c1.105,1.628,3.726,5.293,5.693,5.293l78.515,0c1.967,0,5.445-3.665,6.55-5.293L315.77,104.005L315.77,104.005z"/>
      </g>
      <path class="st10" d="M305.175,94.562c0,0-0.018,0.006-0.025,0.008l0.025-3.83l1.718-2.613c0,0-2.959,0.477-4.009,2.673 c-1.015,2.122,0.023,4.447-4.316,5.662c-0.078,0.02-15.719,4.04-31.391,4.04c-15.734,0-31.499-4.02-31.578-4.04 c-4.339-1.216-3.301-3.54-4.316-5.662c-1.05-2.196-4.009-2.673-4.009-2.673l1.718,2.613l0.025,3.83 c-0.007-0.003-0.025-0.008-0.025-0.008l-0.186,4.453c0,0,14.927,5.155,38.277,5.155c23.351,0,38.277-5.155,38.277-5.155 L305.175,94.562z"/>
      <g>
        <g>
          <path class="st9" d="M217.269,94.562c0,0,0.944-2.247,2.679-2.247c1.735,0,5.462,0,6.233,0s1.914,0.409,2.739,2.247 c0,0-0.01-1.07-0.014-1.142c-0.083-1.569-0.24-3.158-0.903-3.736c-1.075-0.936-8.694-0.936-9.769,0 c-0.663,0.578-0.821,2.167-0.903,3.736C217.325,93.513,217.269,94.562,217.269,94.562z"/>
        </g>
        <g>
          <path class="st9" d="M305.248,94.562c0,0,0.944-2.247,2.679-2.247c1.735,0,5.462,0,6.233,0s1.914,0.409,2.739,2.247 c0,0-0.01-1.07-0.014-1.142c-0.083-1.569-0.24-3.158-0.903-3.736c-1.075-0.936-8.694-0.936-9.769,0 c-0.663,0.578-0.821,2.167-0.903,3.736C305.305,93.513,305.248,94.562,305.248,94.562z"/>
        </g>
      </g>
      <path class="st11" d="M305.23,98.214l0-7.067c0-1.195,0.969-2.164,2.164-2.164h7.194c1.195,0,2.164,0.969,2.164,2.164l0,7.067 c1.877,0,3.004,1.704,1.02,3.786l-7.664,8.729c-1.047,1.543-2.791,2.467-4.656,2.467l-76.735,0c-1.865,0-3.609-0.924-4.656-2.467 L216.396,102c-1.983-2.082-0.856-3.786,1.02-3.786l0-7.067c0-1.195,0.969-2.164,2.164-2.164h7.194 c1.195,0,2.164,0.969,2.164,2.164l0,7.067"/>
      <g>
        <path class="st9" d="M229.894,58.344c-1.446,1.871-2.76,3.849-3.915,5.93c16.993-15.95,26.411-18.034,26.411-18.034l1.13-6.416 C243.633,43.043,235.296,49.682,229.894,58.344z"/>
        <path class="st9" d="M308.189,64.274c-1.154-2.081-2.469-4.058-3.915-5.93c-5.402-8.662-13.739-15.301-23.626-18.52l1.13,6.416 C281.778,46.24,291.196,48.325,308.189,64.274z"/>
      </g>
      <g>
        <path class="st10" d="M252.483,67.914l0,4.797c0,0,0.164,1.611,1.859,2.756c0.89,0.602,3.547,1.495,5.75,2.31 c1.305,0.483,1.509,0.971,1.581,1.628c0.057,0.517,1.015,9.893,1.422,13.876h-1.663c-0.625,0-1.133,0.315-1.133,0.703v1.399 c0,1.336,0.526,3.962,4.487,3.962h4.595c3.962,0,4.487-2.625,4.487-3.962v-1.399c0-0.388-0.508-0.703-1.133-0.703h-1.663 c0.407-3.982,1.365-13.359,1.422-13.876c0.072-0.657,0.277-1.146,1.581-1.628c2.203-0.815,4.86-1.708,5.75-2.31 c1.694-1.146,1.859-2.756,1.859-2.756v-4.797L252.483,67.914z"/>
        <path class="st9" d="M277.221,61.399l-20.274,0c-2.112,0-3.956,1.074-4.464,3.974v1.168c0-0.545,0.468-0.989,1.043-0.989 l27.117,0c0.575,0,1.043,0.444,1.043,0.989v-1.168C281.177,62.473,279.333,61.399,277.221,61.399z"/>
        <path class="st12" d="M279.873,64.692l-25.542,0c-0.545,0-0.989,0.444-0.989,0.989v6.924c0,0.545,0.444,0.989,0.989,0.989h3.26 c0.545,0,0.989-0.444,0.989-0.989v-2.659h5.592l0,20.421h-2.021c-0.545,0-0.989,0.444-0.989,0.989v3.849 c0,0.545,0.444,0.989,0.989,0.989h9.902c0.545,0,0.989-0.444,0.989-0.989v-3.849c0-0.545-0.444-0.989-0.989-0.989h-2.021 l0-20.421h5.592v2.659c0,0.545,0.444,0.989,0.989,0.989h3.26c0.545,0,0.99-0.444,0.99-0.989v-6.924 C280.862,65.136,280.418,64.692,279.873,64.692z"/>
      </g>
      <g>
        <g>
          <path class="st10" d="M283.747,54.812l0.558-13.71l-4.239-1.531c0,0,1.581,12.759,1.676,15.241 C281.838,57.294,283.634,57.961,283.747,54.812z"/>
        </g>
        <g>
          <path class="st10" d="M250.421,54.812l-0.558-13.71l4.239-1.531c0,0-1.581,12.759-1.676,15.241 C252.33,57.294,250.535,57.961,250.421,54.812z"/>
        </g>
      </g>
      <g>
        <path class="st9" d="M254.102,41.573c0,0,2.105-2.247,5.971-2.247c3.866,0,12.171,0,13.89,0c1.718,0,4.265,0.409,6.104,2.247 c0,0-0.023-2.193-0.031-2.265c-0.184-1.569-0.535-3.158-2.013-3.736c-2.395-0.936-19.374-0.936-21.77,0 c-1.478,0.578-1.829,2.167-2.013,3.736C254.228,39.399,254.102,41.573,254.102,41.573z"/>
      </g>
      <path class="st11" d="M282.103,56.53c0,0-1.874-15.116-2.121-17.223c-0.184-1.569-0.535-3.158-2.013-3.736 c-2.395-0.936-19.374-0.936-21.77,0c-1.478,0.578-1.829,2.167-2.013,3.736c-0.247,2.107-2.121,17.223-2.121,17.223"/>
      <g>
        <path class="st11" d="M253.481,39.643c-17.837,5.548-30.214,22.185-30.214,41.847l0,7.493"/>
        <path class="st11" d="M280.435,39.565c17.966,5.469,30.466,22.17,30.466,41.924l0,7.493"/>
      </g>
      <g>
        <path class="st11" d="M290.568,102.352c-1.908,0.266-13.538,1.647-23.484,1.647c-9.946,0-21.576-1.381-23.484-1.647"/>
        <path class="st11" d="M237.816,101.315c-0.947-0.176-1.822-0.349-2.624-0.515"/>
        <path class="st11" d="M296.352,101.315c0.947-0.176,1.822-0.349,2.624-0.515"/>
      </g>
      <g>
        <g>
          <path class="st11" d="M245.251,88.226c-0.088-1.167-0.179-4.432-0.267-5.601c-0.452-5.975-3.864-8.735-3.864-8.735"/>
        </g>
        <g>
          <path class="st11" d="M288.917,88.226c0.088-1.167,0.179-4.432,0.267-5.601c0.453-5.975,3.864-8.735,3.864-8.735"/>
        </g>
      </g>
    </g>
  </g>
</svg>
