<?xml version="1.0" encoding="utf-8"?>
<!-- Generator: Adobe Illustrator 23.0.6, SVG Export Plug-In . SVG Version: 6.00 Build 0)  -->
<svg version="1.1" id="Layer_1" xmlns="http://www.w3.org/2000/svg" xmlns:xlink="http://www.w3.org/1999/xlink" x="0px" y="0px"
	 viewBox="0 0 261.702 247.527" style="enable-background:new 0 0 261.702 247.527;" xml:space="preserve">
<style type="text/css">
	.st0{fill:#0068FF;}
</style>
<g id="Waves__x2014__Large__x2014__Yellow_1_">
	<path class="st0" d="M178.902,25.511c0.676-0.076,1.349-0.151,2.022-0.224c-1.987-0.969-4.001-1.894-6.055-2.754
		c-7.485,0.759-15.466,1.074-29.161-1.53c-11.221-2.134-18.151-4.684-23.967-7.435c-2.142,0.136-4.27,0.341-6.387,0.592
		c6.993,3.663,14.84,7.347,29.72,10.177C161.511,27.463,170.352,26.47,178.902,25.511z"/>
	<path class="st0" d="M142.537,37.674c16.437,3.126,25.278,2.134,33.828,1.174c7.367-0.827,14.406-1.606,26.099,0.026
		c-1.746-1.388-3.537-2.723-5.367-4.015c-8.888-0.748-15.079-0.062-21.112,0.615c-8.681,0.975-16.882,1.895-32.815-1.135
		c-15.934-3.03-23.224-6.897-30.942-10.991c-3.882-2.059-7.84-4.153-12.966-6.127c-1.874,0.496-3.733,1.035-5.575,1.62
		c7.111,2.296,11.948,4.852,16.95,7.505C118.239,30.379,126.099,34.548,142.537,37.674z"/>
	<path class="st0" d="M108.102,39.686c7.601,4.031,15.461,8.2,31.899,11.326c16.437,3.126,25.278,2.134,33.828,1.174
		c8.681-0.975,16.882-1.895,32.816,1.135c5.575,1.06,10.077,2.225,13.924,3.464c-1.3-1.6-2.636-3.171-4.019-4.702
		c-2.77-0.737-5.823-1.44-9.271-2.096c-16.437-3.126-25.279-2.134-33.829-1.175c-8.681,0.975-16.882,1.895-32.815-1.135
		c-15.934-3.03-23.224-6.897-30.942-10.991c-7.601-4.031-15.461-8.2-31.899-11.326c-0.08-0.015-0.153-0.027-0.232-0.042
		c-1.68,0.823-3.34,1.685-4.977,2.586c1.458,0.229,2.968,0.485,4.575,0.791C93.093,31.726,100.383,35.592,108.102,39.686z"/>
	<path class="st0" d="M105.565,53.024c7.601,4.031,15.461,8.2,31.899,11.326c16.437,3.126,25.278,2.134,33.828,1.174
		c8.681-0.975,16.882-1.895,32.816,1.135c15.073,2.867,22.412,6.481,29.694,10.329c-0.931-1.797-1.906-3.567-2.927-5.312
		c-6.21-3.039-13.728-5.992-26.132-8.351c-16.437-3.126-25.279-2.134-33.829-1.175c-8.681,0.975-16.882,1.895-32.815-1.135
		c-15.934-3.03-23.224-6.897-30.942-10.991c-7.601-4.031-15.461-8.2-31.899-11.326c-6.459-1.228-11.734-1.815-16.291-2.023
		c-1.43,1.064-2.832,2.165-4.212,3.293c5.289-0.022,11.51,0.475,19.869,2.065C90.557,45.064,97.847,48.93,105.565,53.024z"/>
	<path class="st0" d="M103.028,66.362c7.601,4.031,15.461,8.2,31.899,11.326c16.437,3.126,25.278,2.134,33.828,1.174
		c8.681-0.975,16.882-1.895,32.816,1.135c15.936,3.031,23.227,6.898,30.945,10.991c2.816,1.493,5.671,3.006,8.981,4.477
		c-0.477-1.499-1-2.98-1.536-4.456c-2.019-0.986-3.923-1.996-5.854-3.02c-7.602-4.031-15.463-8.2-31.902-11.327
		c-16.437-3.126-25.279-2.134-33.829-1.175c-8.681,0.975-16.882,1.895-32.815-1.135c-15.934-3.03-23.224-6.897-30.942-10.991
		c-7.601-4.031-15.461-8.2-31.899-11.326c-13.46-2.56-21.824-2.357-29.108-1.674c-1.161,1.231-2.297,2.486-3.407,3.769
		c8.346-0.931,16.52-1.682,31.881,1.239C88.02,58.401,95.31,62.268,103.028,66.362z"/>
	<path class="st0" d="M69.549,68.709c15.934,3.03,23.224,6.897,30.942,10.99c7.601,4.032,15.461,8.201,31.899,11.327
		c16.437,3.126,25.278,2.134,33.828,1.174c8.681-0.974,16.882-1.894,32.815,1.136c15.936,3.031,23.227,6.898,30.945,10.991
		c4.465,2.368,9.034,4.782,15.363,7.006c-0.221-1.296-0.471-2.584-0.734-3.867c-5.086-1.926-9.009-3.999-13.038-6.136
		c-7.602-4.032-15.463-8.201-31.902-11.328c-16.437-3.126-25.279-2.134-33.829-1.174c-8.681,0.974-16.882,1.894-32.815-1.136
		c-15.934-3.03-23.224-6.897-30.942-10.99c-7.601-4.032-15.461-8.201-31.899-11.327c-16.437-3.126-25.278-2.134-33.828-1.174
		c-1.424,0.16-2.838,0.316-4.273,0.456c-0.81,1.184-1.591,2.39-2.359,3.607c2.447-0.182,4.742-0.436,7.011-0.691
		C45.416,66.599,53.616,65.678,69.549,68.709z"/>
	<path class="st0" d="M67.013,82.047c15.934,3.03,23.224,6.897,30.942,10.99c7.601,4.032,15.461,8.201,31.899,11.327
		c16.437,3.126,25.278,2.134,33.828,1.174c8.681-0.974,16.882-1.894,32.815,1.136c15.936,3.031,23.227,6.898,30.945,10.991
		c5.366,2.846,10.877,5.759,19.428,8.327c-0.051-1.203-0.106-2.404-0.194-3.599c-7.496-2.353-12.481-4.988-17.644-7.726
		c-7.602-4.032-15.463-8.201-31.902-11.328c-16.437-3.126-25.279-2.134-33.829-1.174c-8.681,0.974-16.882,1.894-32.815-1.136
		c-15.934-3.03-23.224-6.897-30.942-10.99c-7.601-4.032-15.461-8.201-31.899-11.327c-16.437-3.126-25.278-2.134-33.828-1.174
		c-3.196,0.359-6.33,0.708-9.805,0.858c-0.569,1.138-1.132,2.28-1.665,3.441c4.397-0.092,8.152-0.511,11.85-0.926
		C42.879,79.937,51.08,79.016,67.013,82.047z"/>
	<path class="st0" d="M64.476,95.384c15.934,3.03,23.224,6.897,30.942,10.99c7.601,4.032,15.461,8.201,31.899,11.327
		c16.437,3.126,25.278,2.134,33.828,1.174c8.681-0.974,16.882-1.894,32.815,1.136c15.936,3.031,23.227,6.898,30.945,10.991
		c5.833,3.094,11.835,6.267,21.732,8.989c0.089-1.153,0.158-2.303,0.213-3.451c-9.063-2.55-14.591-5.479-20.354-8.535
		c-7.602-4.032-15.463-8.201-31.902-11.328c-16.437-3.126-25.279-2.134-33.829-1.174c-8.681,0.974-16.882,1.894-32.815-1.136
		c-15.934-3.03-23.224-6.897-30.942-10.99c-7.601-4.032-15.461-8.201-31.899-11.327c-16.437-3.126-25.278-2.134-33.828-1.174
		c-4.139,0.464-8.179,0.911-12.99,0.929c-0.392,1.113-0.739,2.25-1.099,3.38c5.565,0.057,10.06-0.442,14.468-0.937
		C40.343,93.274,48.543,92.354,64.476,95.384z"/>
	<path class="st0" d="M192.058,130.014c-16.437-3.126-25.279-2.134-33.829-1.174c-8.681,0.974-16.882,1.894-32.815-1.136
		c-15.934-3.03-23.224-6.897-30.942-10.99c-7.601-4.032-15.461-8.201-31.899-11.327c-16.437-3.126-25.278-2.134-33.828-1.174
		c-4.497,0.505-8.874,0.989-14.254,0.924c-0.252,1.12-0.509,2.237-0.73,3.371c5.982,0.124,10.721-0.401,15.363-0.923
		c8.681-0.974,16.882-1.894,32.815,1.136c15.934,3.03,23.224,6.897,30.942,10.99c7.601,4.032,15.461,8.201,31.899,11.327
		c16.437,3.126,25.278,2.134,33.828,1.174c8.681-0.974,16.882-1.894,32.815,1.136c15.936,3.031,23.227,6.898,30.945,10.991
		c5.972,3.167,12.123,6.417,22.447,9.182c0.03-0.156,0.071-0.308,0.1-0.464c0.183-0.964,0.315-1.926,0.474-2.889
		c-9.7-2.617-15.446-5.653-21.431-8.826C216.358,137.31,208.497,133.141,192.058,130.014z"/>
	<path class="st0" d="M189.521,143.352c-16.437-3.126-25.279-2.134-33.829-1.174c-8.681,0.974-16.882,1.894-32.815-1.136
		c-15.934-3.03-23.224-6.897-30.942-10.99c-7.601-4.032-15.461-8.201-31.899-11.327c-16.437-3.126-25.278-2.134-33.828-1.174
		c-4.409,0.495-8.699,0.973-13.936,0.929c-0.122,1.127-0.247,2.253-0.337,3.377c5.649,0.07,10.195-0.434,14.652-0.934
		c8.681-0.974,16.882-1.894,32.815,1.136c15.934,3.03,23.224,6.897,30.942,10.99c7.601,4.032,15.461,8.201,31.899,11.327
		c16.437,3.126,25.278,2.134,33.828,1.174c8.681-0.974,16.882-1.894,32.815,1.136c15.936,3.031,23.227,6.898,30.945,10.99
		c5.813,3.083,11.793,6.245,21.63,8.962c0.339-1.074,0.669-2.153,0.979-3.243c-9.453-2.592-15.118-5.587-21.018-8.716
		C213.821,150.648,205.961,146.479,189.521,143.352z"/>
	<path class="st0" d="M186.984,156.69c-16.437-3.126-25.279-2.134-33.829-1.174c-8.681,0.974-16.882,1.894-32.815-1.136
		c-15.934-3.03-23.224-6.897-30.942-10.99c-7.601-4.032-15.461-8.201-31.899-11.327c-16.437-3.126-25.278-2.134-33.828-1.174
		c-3.884,0.436-7.677,0.858-12.103,0.923c0.006,1.131,0.042,2.257,0.081,3.383c4.635-0.066,8.552-0.502,12.402-0.934
		c8.681-0.974,16.882-1.894,32.815,1.136c15.934,3.03,23.224,6.897,30.942,10.99c7.601,4.032,15.461,8.201,31.899,11.327
		c16.437,3.126,25.278,2.134,33.828,1.174c8.681-0.974,16.882-1.894,32.815,1.136c15.936,3.031,23.227,6.898,30.945,10.991
		c5.348,2.837,10.839,5.74,19.342,8.302c0.465-1.037,0.939-2.069,1.375-3.123c-8.335-2.465-13.631-5.262-19.126-8.176
		C211.285,163.986,203.424,159.817,186.984,156.69z"/>
	<path class="st0" d="M184.448,170.028c-16.437-3.126-25.279-2.134-33.829-1.174c-8.681,0.974-16.882,1.894-32.815-1.136
		c-15.934-3.03-23.224-6.897-30.942-10.99c-7.601-4.032-15.461-8.201-31.899-11.327c-16.437-3.126-25.278-2.134-33.828-1.174
		c-2.87,0.322-5.693,0.635-8.755,0.804c0.134,1.128,0.302,2.248,0.469,3.368c3.083-0.177,5.892-0.489,8.665-0.8
		c8.681-0.974,16.882-1.894,32.815,1.136c15.934,3.03,23.224,6.897,30.942,10.99c7.601,4.032,15.461,8.201,31.899,11.327
		c16.437,3.126,25.278,2.134,33.828,1.174c8.681-0.974,16.882-1.894,32.815,1.136c15.936,3.031,23.227,6.898,30.945,10.991
		c4.521,2.398,9.148,4.842,15.602,7.089c0.586-0.982,1.132-1.992,1.691-2.994c-6.441-2.189-10.998-4.598-15.702-7.093
		C208.748,177.323,200.887,173.154,184.448,170.028z"/>
	<path class="st0" d="M181.911,183.366c-16.437-3.126-25.279-2.134-33.829-1.174c-8.681,0.974-16.882,1.894-32.815-1.136
		c-15.934-3.03-23.224-6.897-30.942-10.99c-7.601-4.032-15.461-8.201-31.899-11.327c-16.437-3.126-25.278-2.134-33.828-1.174
		c-1.303,0.146-2.598,0.289-3.907,0.42c0.262,1.112,0.509,2.229,0.803,3.33c1.178-0.12,2.334-0.249,3.483-0.378
		c8.681-0.974,16.882-1.894,32.815,1.136c15.934,3.03,23.224,6.897,30.942,10.99c7.601,4.032,15.461,8.201,31.899,11.327
		c16.437,3.126,25.278,2.134,33.828,1.174c8.681-0.974,16.882-1.894,32.815,1.136c15.936,3.031,23.227,6.898,30.945,10.99
		c3.207,1.701,6.467,3.425,10.391,5.086c0.709-0.921,1.412-1.848,2.094-2.792c-4.083-1.683-7.449-3.464-10.895-5.292
		C206.211,190.661,198.35,186.492,181.911,183.366z"/>
	<path class="st0" d="M179.374,196.703c-16.437-3.126-25.279-2.134-33.829-1.174c-8.681,0.974-16.882,1.894-32.815-1.136
		c-15.934-3.03-23.224-6.897-30.942-10.99c-7.601-4.032-15.461-8.201-31.899-11.327c-14.929-2.839-23.589-2.28-31.459-1.434
		c0.394,1.101,0.806,2.193,1.232,3.281c7.611-0.789,15.635-1.167,29.593,1.488c15.934,3.03,23.224,6.897,30.942,10.99
		c7.601,4.032,15.461,8.201,31.899,11.327c16.437,3.126,25.278,2.134,33.828,1.174c8.681-0.974,16.882-1.894,32.815,1.136
		c15.936,3.031,23.227,6.898,30.945,10.99c1.305,0.692,2.622,1.389,3.984,2.083c0.823-0.845,1.636-1.701,2.434-2.571
		c-1.643-0.823-3.228-1.661-4.828-2.509C203.675,203.999,195.814,199.83,179.374,196.703z"/>
	<path class="st0" d="M143.009,208.868c-8.681,0.974-16.882,1.894-32.815-1.136c-15.934-3.03-23.224-6.897-30.942-10.99
		c-7.601-4.032-15.461-8.201-31.899-11.327c-10.173-1.935-17.433-2.29-23.519-2.054c0.557,1.122,1.136,2.233,1.729,3.335
		c5.563-0.113,12.113,0.333,21.156,2.053c15.934,3.03,23.224,6.897,30.942,10.99c7.601,4.032,15.461,8.201,31.899,11.327
		c16.437,3.126,25.278,2.134,33.828,1.174c8.681-0.974,16.882-1.894,32.815,1.136c13.399,2.548,20.684,5.689,27.253,9.057
		c0.952-0.772,1.886-1.564,2.813-2.365c-6.921-3.613-14.757-7.235-29.432-10.026C160.401,206.915,151.559,207.907,143.009,208.868z"
		/>
	<path class="st0" d="M140.472,222.205c-8.681,0.974-16.882,1.894-32.815-1.136c-15.934-3.03-23.224-6.897-30.942-10.99
		c-7.601-4.032-15.461-8.201-31.899-11.327c-4.998-0.951-9.286-1.516-13.085-1.822c0.835,1.237,1.708,2.447,2.59,3.652
		c2.949,0.326,6.192,0.807,9.861,1.505c15.934,3.03,23.224,6.897,30.942,10.99c7.601,4.032,15.461,8.201,31.899,11.327
		c16.437,3.126,25.278,2.134,33.828,1.174c8.681-0.974,16.882-1.894,32.815,1.136c7.274,1.383,12.735,2.942,17.27,4.616
		c1.188-0.731,2.352-1.498,3.513-2.27c-5.134-2.069-11.429-4.022-20.149-5.681C157.864,220.253,149.022,221.245,140.472,222.205z"/>
	<path class="st0" d="M137.935,235.543c-8.681,0.974-16.882,1.894-32.815-1.136c-15.934-3.03-23.224-6.897-30.942-10.99
		c-7.277-3.86-14.812-7.843-29.862-10.919c1.471,1.538,2.984,3.037,4.54,4.496c11.124,2.747,17.288,6.003,23.731,9.42
		c7.601,4.032,15.461,8.201,31.899,11.327c16.437,3.126,25.278,2.134,33.828,1.174c8.681-0.974,16.882-1.894,32.815,1.136
		c0.592,0.113,1.148,0.228,1.716,0.343c1.807-0.722,3.593-1.487,5.359-2.296c-1.998-0.478-4.126-0.941-6.441-1.381
		C155.327,233.591,146.486,234.583,137.935,235.543z"/>
</g>
</svg>
