<?xml version="1.0" encoding="utf-8"?>
<!-- Generator: Adobe Illustrator 16.0.4, SVG Export Plug-In . SVG Version: 6.00 Build 0)  -->
<!DOCTYPE svg PUBLIC "-//W3C//DTD SVG 1.1//EN" "http://www.w3.org/Graphics/SVG/1.1/DTD/svg11.dtd">
<svg version="1.1" id="Layer_1" xmlns="http://www.w3.org/2000/svg" xmlns:xlink="http://www.w3.org/1999/xlink" x="0px" y="0px"
	 width="16.96px" height="16.15px" viewBox="0 0 16.96 16.15" enable-background="new 0 0 16.96 16.15" xml:space="preserve">
<path fill="#D0CFCE" d="M15.748,6.406c0.667,0,1.212-0.542,1.212-1.21c0-0.669-0.545-1.212-1.212-1.212h-3.173l0.209-2.678
	c0.052-0.667-0.444-1.249-1.114-1.302c-0.667-0.051-1.249,0.447-1.3,1.113l-0.227,2.867H7.454l0.212-2.678
	C7.72,0.639,7.22,0.057,6.553,0.003C5.886-0.048,5.303,0.45,5.25,1.117L5.024,3.984H2.02c-0.67,0-1.212,0.542-1.212,1.212
	c0,0.668,0.542,1.21,1.212,1.21h2.815L4.602,9.371H1.211C0.542,9.371,0,9.913,0,10.583s0.542,1.212,1.211,1.212h3.2l-0.239,3.049
	c-0.053,0.667,0.446,1.25,1.112,1.302C5.317,16.15,5.35,16.15,5.381,16.15c0.626,0,1.157-0.481,1.207-1.116l0.253-3.239H9.53
	l-0.24,3.049c-0.052,0.667,0.448,1.25,1.113,1.302c0.032,0.005,0.064,0.005,0.097,0.005c0.627,0,1.154-0.481,1.208-1.116
	l0.254-3.239h2.977c0.67,0,1.211-0.542,1.211-1.212s-0.541-1.212-1.211-1.212h-2.787l0.232-2.965H15.748z M9.722,9.371H7.032
	l0.232-2.965h2.688L9.722,9.371z"/>
</svg>
