<svg width="56" height="56" viewBox="0 0 56 56" fill="none" xmlns="http://www.w3.org/2000/svg">
<circle cx="28" cy="28" r="28" fill="#3EAAAF"/>
<path d="M37.9531 39.6507C38.4188 40.1164 39.185 40.1164 39.6507 39.6507C40.1164 39.185 40.1164 38.4188 39.6507 37.9531L29.6977 28L39.6507 18.0469C40.1164 17.5812 40.1164 16.815 39.6507 16.3493C39.185 15.8836 38.4188 15.8836 37.9531 16.3493L28 26.3023L18.0469 16.3493C17.5812 15.8836 16.815 15.8836 16.3493 16.3493C15.8836 16.815 15.8836 17.5812 16.3493 18.0469L26.3023 28L16.3493 37.9531C15.8836 38.4188 15.8836 39.185 16.3493 39.6507C16.815 40.1164 17.5812 40.1164 18.0469 39.6507L28 29.6977L37.9531 39.6507Z" fill="white"/>
</svg>
