<?xml version="1.0" encoding="utf-8"?>
<svg version="1.1" id="Layer_1" x="0px" y="0px" viewBox="0 0 40 25" style="enable-background:new 0 0 58 34;" xmlns="http://www.w3.org/2000/svg" xmlns:bx="https://boxy-svg.com">
  <style type="text/css">
	.st0{opacity:0.4;fill:none;stroke:#010101;stroke-width:2;stroke-linecap:round;stroke-linejoin:round;stroke-miterlimit:10;}
  </style>
  <path class="st0" d="M 31.917 10.741 C 31.647 10.741 31.381 10.759 31.119 10.789 C 30.733 7.486 27.927 4.922 24.521 4.922 C 23.968 4.922 23.432 4.991 22.918 5.118 C 21.405 2.643 18.767 1.4 15.669 1.703 C 8.734 2.379 8.98 10.302 9.021 10.643 C 8.739 10.608 8.452 10.588 8.161 10.588 C 4.363 10.588 1.284 13.667 1.284 17.465 C 1.284 21.263 4.363 23.342 8.161 23.342 L 31.917 23.342 C 35.673 23.342 38.717 21.297 38.717 17.542 C 38.717 13.787 35.673 10.741 31.917 10.741 Z" bx:origin="-0.034301 -0.07647"/>
</svg>
