<?xml version="1.0" encoding="utf-8"?>
<!-- Generator: Adobe Illustrator 23.0.6, SVG Export Plug-In . SVG Version: 6.00 Build 0)  -->
<svg version="1.1" id="Layer_1" xmlns="http://www.w3.org/2000/svg" xmlns:xlink="http://www.w3.org/1999/xlink" x="0px" y="0px"
	 viewBox="0 0 58 34" style="enable-background:new 0 0 58 34;" xml:space="preserve">
<style type="text/css">
	.st0{opacity:0.4;fill:none;stroke:#010101;stroke-width:2;stroke-linecap:round;stroke-linejoin:round;stroke-miterlimit:10;}
</style>
<path class="st0" d="M40.916,16.241c-0.27,0-0.536,0.018-0.798,0.048c-0.386-3.303-3.192-5.867-6.598-5.867
	c-0.553,0-1.089,0.069-1.603,0.196c-1.513-2.475-4.151-3.718-7.249-3.415c-6.935,0.676-6.689,8.599-6.648,8.94
	c-0.282-0.035-0.569-0.055-0.86-0.055c-3.798,0-6.877,3.079-6.877,6.877s3.079,5.877,6.877,5.877h23.756c3.756,0,6.8-2.045,6.8-5.8
	S44.672,16.241,40.916,16.241z"/>
</svg>
