<svg width="443" height="270" xmlns="http://www.w3.org/2000/svg" xmlns:xlink="http://www.w3.org/1999/xlink">
 <style type="text/css">.st0{fill:none;}
	.st1{fill:none;stroke:#0068FF;stroke-width:2;stroke-miterlimit:10;}
	.st2{fill:#32D282;}
	.st3{fill:url(#SVGID_1_);}
	.st4{fill:#FFE000;}
	.st5{fill:#0068FF;}
	.st6{fill:#66A4FF;}
	.st7{fill:none;stroke:#404041;stroke-width:3;stroke-miterlimit:10;}
	.st8{fill:#404041;}
	.st9{fill:#FFFFFF;stroke:#404041;stroke-width:3;stroke-linecap:round;stroke-linejoin:round;stroke-miterlimit:10;}
	.st10{fill:#F6F7FA;stroke:#404041;stroke-width:3;stroke-linecap:round;stroke-linejoin:round;stroke-miterlimit:10;}
	.st11{fill:none;stroke:#F5C144;stroke-width:4.399;stroke-linecap:round;stroke-linejoin:round;stroke-miterlimit:10;}
	.st12{fill:none;stroke:#66A4FF;stroke-width:4.399;stroke-linecap:round;stroke-linejoin:round;stroke-miterlimit:10;}
	.st13{fill:#32D282;stroke:#404041;stroke-width:3;stroke-linecap:round;stroke-linejoin:round;stroke-miterlimit:10;}
	.st14{fill:url(#SVGID_3_);}
	.st15{fill:none;stroke:#404041;stroke-width:3;stroke-linecap:round;stroke-linejoin:round;stroke-miterlimit:10;}
	.st16{fill:#FFFFFF;}
	.st17{font-family:'SourceSansPro-Black';}
	.st18{font-size:14.6632px;}
	.st19{font-size:18.5475px;}
	.st20{fill:url(#SVGID_4_);stroke:#404041;stroke-width:3;stroke-linecap:round;stroke-linejoin:round;stroke-miterlimit:10;}
	.st21{fill:url(#SVGID_6_);stroke:#404041;stroke-width:3;stroke-linecap:round;stroke-linejoin:round;stroke-miterlimit:10;}
	.st22{fill:#F5C144;}
	.st23{font-size:14.6632px;glyph-orientation-vertical:0;writing-mode:tb;}
	.st24{font-size:24.9275px;glyph-orientation-vertical:0;writing-mode:tb;}
	.st25{letter-spacing:-2;}
	.st26{fill:url(#SVGID_7_);}</style>
 <defs>
  <pattern viewBox="0 -297.7 463 297.7" id="SVGID_2_" patternUnits="userSpaceOnUse" height="297.7" width="463" y="612">
   <g id="svg_1">
    <rect id="svg_2" height="297.7" width="463" class="st0" y="-297.7"/>
    <g id="svg_3">
     <rect id="svg_4" height="297.7" width="463" class="st0" y="-297.7"/>
     <g id="svg_5">
      <path id="svg_6" d="m0,-1c19.3,0 19.3,-6 38.6,-6s19.3,6 38.6,6s19.3,-6 38.6,-6s19.3,6 38.6,6s19.3,-6 38.6,-6s19.3,6 38.6,6s19.3,-6 38.6,-6s19.3,6 38.6,6s19.3,-6 38.6,-6c19.3,0 19.3,6 38.6,6c19.3,0 19.3,-6 38.6,-6c19.3,0 19.3,6 38.6,6" class="st1"/>
      <path id="svg_7" d="m0,-9.1c19.3,0 19.3,-6 38.6,-6s19.3,6 38.6,6s19.3,-6 38.6,-6s19.3,6 38.6,6s19.3,-6 38.6,-6s19.3,6 38.6,6s19.3,-6 38.6,-6s19.3,6 38.6,6s19.3,-6 38.6,-6c19.3,0 19.3,6 38.6,6c19.3,0 19.3,-6 38.6,-6c19.3,0 19.3,6 38.6,6" class="st1"/>
      <path id="svg_8" d="m0,-17.1c19.3,0 19.3,-6 38.6,-6s19.3,6 38.6,6s19.3,-6 38.6,-6s19.3,6 38.6,6s19.3,-6 38.6,-6s19.3,6 38.6,6s19.3,-6 38.6,-6s19.3,6 38.6,6s19.3,-6 38.6,-6c19.3,0 19.3,6 38.6,6c19.3,0 19.3,-6 38.6,-6c19.3,0 19.3,6 38.6,6" class="st1"/>
      <path id="svg_9" d="m0,-25.2c19.3,0 19.3,-6 38.6,-6s19.3,6 38.6,6s19.3,-6 38.6,-6s19.3,6 38.6,6s19.3,-6 38.6,-6s19.3,6 38.6,6s19.3,-6 38.6,-6s19.3,6 38.6,6s19.3,-6 38.6,-6c19.3,0 19.3,6 38.6,6c19.3,0 19.3,-6 38.6,-6c19.3,0 19.3,6 38.6,6" class="st1"/>
      <path id="svg_10" d="m0,-33.2c19.3,0 19.3,-6 38.6,-6s19.3,6 38.6,6s19.3,-6 38.6,-6s19.3,6 38.6,6s19.3,-6 38.6,-6s19.3,6 38.6,6s19.3,-6 38.6,-6s19.3,6 38.6,6s19.3,-6 38.6,-6c19.3,0 19.3,6 38.6,6c19.3,0 19.3,-6 38.6,-6c19.3,0 19.3,6 38.6,6" class="st1"/>
      <path id="svg_11" d="m0,-41.3c19.3,0 19.3,-6 38.6,-6s19.3,6 38.6,6s19.3,-6 38.6,-6s19.3,6 38.6,6s19.3,-6 38.6,-6s19.3,6 38.6,6s19.3,-6 38.6,-6s19.3,6 38.6,6s19.3,-6 38.6,-6c19.3,0 19.3,6 38.6,6c19.3,0 19.3,-6 38.6,-6c19.3,0 19.3,6 38.6,6" class="st1"/>
      <path id="svg_12" d="m0,-49.3c19.3,0 19.3,-6 38.6,-6s19.3,6 38.6,6s19.3,-6 38.6,-6s19.3,6 38.6,6s19.3,-6 38.6,-6s19.3,6 38.6,6s19.3,-6 38.6,-6s19.3,6 38.6,6s19.3,-6 38.6,-6c19.3,0 19.3,6 38.6,6c19.3,0 19.3,-6 38.6,-6c19.3,0 19.3,6 38.6,6" class="st1"/>
      <path id="svg_13" d="m0,-57.3c19.3,0 19.3,-6 38.6,-6s19.3,6 38.6,6s19.3,-6 38.6,-6s19.3,6 38.6,6s19.3,-6 38.6,-6s19.3,6 38.6,6s19.3,-6 38.6,-6s19.3,6 38.6,6s19.3,-6 38.6,-6c19.3,0 19.3,6 38.6,6c19.3,0 19.3,-6 38.6,-6c19.3,0 19.3,6 38.6,6" class="st1"/>
      <path id="svg_14" d="m0,-65.4c19.3,0 19.3,-6 38.6,-6s19.3,6 38.6,6s19.3,-6 38.6,-6s19.3,6 38.6,6s19.3,-6 38.6,-6s19.3,6 38.6,6s19.3,-6 38.6,-6s19.3,6 38.6,6s19.3,-6 38.6,-6c19.3,0 19.3,6 38.6,6c19.3,0 19.3,-6 38.6,-6c19.3,0 19.3,6 38.6,6" class="st1"/>
      <path id="svg_15" d="m0,-73.4c19.3,0 19.3,-6 38.6,-6s19.3,6 38.6,6s19.3,-6 38.6,-6s19.3,6 38.6,6s19.3,-6 38.6,-6s19.3,6 38.6,6s19.3,-6 38.6,-6s19.3,6 38.6,6s19.3,-6 38.6,-6c19.3,0 19.3,6 38.6,6c19.3,0 19.3,-6 38.6,-6c19.3,0 19.3,6 38.6,6" class="st1"/>
      <path id="svg_16" d="m0,-81.5c19.3,0 19.3,-6 38.6,-6s19.3,6 38.6,6s19.3,-6 38.6,-6s19.3,6 38.6,6s19.3,-6 38.6,-6s19.3,6 38.6,6s19.3,-6 38.6,-6s19.3,6 38.6,6s19.3,-6 38.6,-6c19.3,0 19.3,6 38.6,6c19.3,0 19.3,-6 38.6,-6c19.3,0 19.3,6 38.6,6" class="st1"/>
      <path id="svg_17" d="m0,-89.5c19.3,0 19.3,-6 38.6,-6s19.3,6 38.6,6s19.3,-6 38.6,-6s19.3,6 38.6,6s19.3,-6 38.6,-6s19.3,6 38.6,6s19.3,-6 38.6,-6s19.3,6 38.6,6s19.3,-6 38.6,-6c19.3,0 19.3,6 38.6,6c19.3,0 19.3,-6 38.6,-6c19.3,0 19.3,6 38.6,6" class="st1"/>
      <path id="svg_18" d="m0,-97.6c19.3,0 19.3,-6 38.6,-6s19.3,6 38.6,6s19.3,-6 38.6,-6s19.3,6 38.6,6s19.3,-6 38.6,-6s19.3,6 38.6,6s19.3,-6 38.6,-6s19.3,6 38.6,6s19.3,-6 38.6,-6c19.3,0 19.3,6 38.6,6c19.3,0 19.3,-6 38.6,-6c19.3,0 19.3,6 38.6,6" class="st1"/>
      <path id="svg_19" d="m0,-105.6c19.3,0 19.3,-6 38.6,-6s19.3,6 38.6,6s19.3,-6 38.6,-6s19.3,6 38.6,6s19.3,-6 38.6,-6s19.3,6 38.6,6s19.3,-6 38.6,-6s19.3,6 38.6,6s19.3,-6 38.6,-6c19.3,0 19.3,6 38.6,6c19.3,0 19.3,-6 38.6,-6c19.3,0 19.3,6 38.6,6" class="st1"/>
      <path id="svg_20" d="m0,-113.7c19.3,0 19.3,-6 38.6,-6s19.3,6 38.6,6s19.3,-6 38.6,-6s19.3,6 38.6,6s19.3,-6 38.6,-6s19.3,6 38.6,6s19.3,-6 38.6,-6s19.3,6 38.6,6s19.3,-6 38.6,-6c19.3,0 19.3,6 38.6,6c19.3,0 19.3,-6 38.6,-6c19.3,0 19.3,6 38.6,6" class="st1"/>
      <path id="svg_21" d="m0,-121.7c19.3,0 19.3,-6 38.6,-6s19.3,6 38.6,6s19.3,-6 38.6,-6s19.3,6 38.6,6s19.3,-6 38.6,-6s19.3,6 38.6,6s19.3,-6 38.6,-6s19.3,6 38.6,6s19.3,-6 38.6,-6c19.3,0 19.3,6 38.6,6c19.3,0 19.3,-6 38.6,-6c19.3,0 19.3,6 38.6,6" class="st1"/>
      <path id="svg_22" d="m0,-129.8c19.3,0 19.3,-6 38.6,-6s19.3,6 38.6,6s19.3,-6 38.6,-6s19.3,6 38.6,6s19.3,-6 38.6,-6s19.3,6 38.6,6s19.3,-6 38.6,-6s19.3,6 38.6,6s19.3,-6 38.6,-6c19.3,0 19.3,6 38.6,6c19.3,0 19.3,-6 38.6,-6c19.3,0 19.3,6 38.6,6" class="st1"/>
      <path id="svg_23" d="m0,-137.8c19.3,0 19.3,-6 38.6,-6s19.3,6 38.6,6s19.3,-6 38.6,-6s19.3,6 38.6,6s19.3,-6 38.6,-6s19.3,6 38.6,6s19.3,-6 38.6,-6s19.3,6 38.6,6s19.3,-6 38.6,-6c19.3,0 19.3,6 38.6,6c19.3,0 19.3,-6 38.6,-6c19.3,0 19.3,6 38.6,6" class="st1"/>
      <path id="svg_24" d="m0,-145.9c19.3,0 19.3,-6 38.6,-6s19.3,6 38.6,6s19.3,-6 38.6,-6s19.3,6 38.6,6s19.3,-6 38.6,-6s19.3,6 38.6,6s19.3,-6 38.6,-6s19.3,6 38.6,6s19.3,-6 38.6,-6c19.3,0 19.3,6 38.6,6c19.3,0 19.3,-6 38.6,-6c19.3,0 19.3,6 38.6,6" class="st1"/>
      <path id="svg_25" d="m0,-153.9c19.3,0 19.3,-6 38.6,-6s19.3,6 38.6,6s19.3,-6 38.6,-6s19.3,6 38.6,6s19.3,-6 38.6,-6s19.3,6 38.6,6s19.3,-6 38.6,-6s19.3,6 38.6,6s19.3,-6 38.6,-6c19.3,0 19.3,6 38.6,6c19.3,0 19.3,-6 38.6,-6c19.3,0 19.3,6 38.6,6" class="st1"/>
      <path id="svg_26" d="m0,-162c19.3,0 19.3,-6 38.6,-6s19.3,6 38.6,6s19.3,-6 38.6,-6s19.3,6 38.6,6s19.3,-6 38.6,-6s19.3,6 38.6,6s19.3,-6 38.6,-6s19.3,6 38.6,6s19.3,-6 38.6,-6c19.3,0 19.3,6 38.6,6c19.3,0 19.3,-6 38.6,-6c19.3,0 19.3,6 38.6,6" class="st1"/>
      <path id="svg_27" d="m0,-170c19.3,0 19.3,-6 38.6,-6s19.3,6 38.6,6s19.3,-6 38.6,-6s19.3,6 38.6,6s19.3,-6 38.6,-6s19.3,6 38.6,6s19.3,-6 38.6,-6s19.3,6 38.6,6s19.3,-6 38.6,-6c19.3,0 19.3,6 38.6,6c19.3,0 19.3,-6 38.6,-6c19.3,0 19.3,6 38.6,6" class="st1"/>
      <path id="svg_28" d="m0,-178c19.3,0 19.3,-6 38.6,-6s19.3,6 38.6,6s19.3,-6 38.6,-6s19.3,6 38.6,6s19.3,-6 38.6,-6s19.3,6 38.6,6s19.3,-6 38.6,-6s19.3,6 38.6,6s19.3,-6 38.6,-6c19.3,0 19.3,6 38.6,6c19.3,0 19.3,-6 38.6,-6c19.3,0 19.3,6 38.6,6" class="st1"/>
      <path id="svg_29" d="m0,-186.1c19.3,0 19.3,-6 38.6,-6s19.3,6 38.6,6s19.3,-6 38.6,-6s19.3,6 38.6,6s19.3,-6 38.6,-6s19.3,6 38.6,6s19.3,-6 38.6,-6s19.3,6 38.6,6s19.3,-6 38.6,-6c19.3,0 19.3,6 38.6,6c19.3,0 19.3,-6 38.6,-6c19.3,0 19.3,6 38.6,6" class="st1"/>
      <path id="svg_30" d="m0,-194.1c19.3,0 19.3,-6 38.6,-6s19.3,6 38.6,6s19.3,-6 38.6,-6s19.3,6 38.6,6s19.3,-6 38.6,-6s19.3,6 38.6,6s19.3,-6 38.6,-6s19.3,6 38.6,6s19.3,-6 38.6,-6c19.3,0 19.3,6 38.6,6c19.3,0 19.3,-6 38.6,-6c19.3,0 19.3,6 38.6,6" class="st1"/>
      <path id="svg_31" d="m0,-202.2c19.3,0 19.3,-6 38.6,-6s19.3,6 38.6,6s19.3,-6 38.6,-6s19.3,6 38.6,6s19.3,-6 38.6,-6s19.3,6 38.6,6s19.3,-6 38.6,-6s19.3,6 38.6,6s19.3,-6 38.6,-6c19.3,0 19.3,6 38.6,6c19.3,0 19.3,-6 38.6,-6c19.3,0 19.3,6 38.6,6" class="st1"/>
      <path id="svg_32" d="m0,-210.2c19.3,0 19.3,-6 38.6,-6s19.3,6 38.6,6s19.3,-6 38.6,-6s19.3,6 38.6,6s19.3,-6 38.6,-6s19.3,6 38.6,6s19.3,-6 38.6,-6s19.3,6 38.6,6s19.3,-6 38.6,-6c19.3,0 19.3,6 38.6,6c19.3,0 19.3,-6 38.6,-6c19.3,0 19.3,6 38.6,6" class="st1"/>
      <path id="svg_33" d="m0,-218.3c19.3,0 19.3,-6 38.6,-6s19.3,6 38.6,6s19.3,-6 38.6,-6s19.3,6 38.6,6s19.3,-6 38.6,-6s19.3,6 38.6,6s19.3,-6 38.6,-6s19.3,6 38.6,6s19.3,-6 38.6,-6c19.3,0 19.3,6 38.6,6c19.3,0 19.3,-6 38.6,-6c19.3,0 19.3,6 38.6,6" class="st1"/>
      <path id="svg_34" d="m0,-226.3c19.3,0 19.3,-6 38.6,-6s19.3,6 38.6,6s19.3,-6 38.6,-6s19.3,6 38.6,6s19.3,-6 38.6,-6s19.3,6 38.6,6s19.3,-6 38.6,-6s19.3,6 38.6,6s19.3,-6 38.6,-6c19.3,0 19.3,6 38.6,6c19.3,0 19.3,-6 38.6,-6c19.3,0 19.3,6 38.6,6" class="st1"/>
      <path id="svg_35" d="m0,-234.4c19.3,0 19.3,-6 38.6,-6s19.3,6 38.6,6s19.3,-6 38.6,-6s19.3,6 38.6,6s19.3,-6 38.6,-6s19.3,6 38.6,6s19.3,-6 38.6,-6s19.3,6 38.6,6s19.3,-6 38.6,-6c19.3,0 19.3,6 38.6,6c19.3,0 19.3,-6 38.6,-6c19.3,0 19.3,6 38.6,6" class="st1"/>
      <path id="svg_36" d="m0,-242.4c19.3,0 19.3,-6 38.6,-6s19.3,6 38.6,6s19.3,-6 38.6,-6s19.3,6 38.6,6s19.3,-6 38.6,-6s19.3,6 38.6,6s19.3,-6 38.6,-6s19.3,6 38.6,6s19.3,-6 38.6,-6c19.3,0 19.3,6 38.6,6c19.3,0 19.3,-6 38.6,-6c19.3,0 19.3,6 38.6,6" class="st1"/>
      <path id="svg_37" d="m0,-250.5c19.3,0 19.3,-6 38.6,-6s19.3,6 38.6,6s19.3,-6 38.6,-6s19.3,6 38.6,6s19.3,-6 38.6,-6s19.3,6 38.6,6s19.3,-6 38.6,-6s19.3,6 38.6,6s19.3,-6 38.6,-6c19.3,0 19.3,6 38.6,6c19.3,0 19.3,-6 38.6,-6c19.3,0 19.3,6 38.6,6" class="st1"/>
      <path id="svg_38" d="m0,-258.5c19.3,0 19.3,-6 38.6,-6s19.3,6 38.6,6s19.3,-6 38.6,-6s19.3,6 38.6,6s19.3,-6 38.6,-6s19.3,6 38.6,6s19.3,-6 38.6,-6s19.3,6 38.6,6s19.3,-6 38.6,-6c19.3,0 19.3,6 38.6,6c19.3,0 19.3,-6 38.6,-6c19.3,0 19.3,6 38.6,6" class="st1"/>
      <path id="svg_39" d="m0,-266.6c19.3,0 19.3,-6 38.6,-6s19.3,6 38.6,6s19.3,-6 38.6,-6s19.3,6 38.6,6s19.3,-6 38.6,-6s19.3,6 38.6,6s19.3,-6 38.6,-6s19.3,6 38.6,6s19.3,-6 38.6,-6c19.3,0 19.3,6 38.6,6c19.3,0 19.3,-6 38.6,-6c19.3,0 19.3,6 38.6,6" class="st1"/>
      <path id="svg_40" d="m0,-274.6c19.3,0 19.3,-6 38.6,-6s19.3,6 38.6,6s19.3,-6 38.6,-6s19.3,6 38.6,6s19.3,-6 38.6,-6s19.3,6 38.6,6s19.3,-6 38.6,-6s19.3,6 38.6,6s19.3,-6 38.6,-6c19.3,0 19.3,6 38.6,6c19.3,0 19.3,-6 38.6,-6c19.3,0 19.3,6 38.6,6" class="st1"/>
      <path id="svg_41" d="m0,-282.7c19.3,0 19.3,-6 38.6,-6s19.3,6 38.6,6s19.3,-6 38.6,-6s19.3,6 38.6,6s19.3,-6 38.6,-6s19.3,6 38.6,6s19.3,-6 38.6,-6s19.3,6 38.6,6s19.3,-6 38.6,-6c19.3,0 19.3,6 38.6,6c19.3,0 19.3,-6 38.6,-6c19.3,0 19.3,6 38.6,6" class="st1"/>
      <path id="svg_42" d="m0,-290.7c19.3,0 19.3,-6 38.6,-6s19.3,6 38.6,6s19.3,-6 38.6,-6c19.2,0 19.2,6 38.5,6s19.3,-6 38.6,-6s19.3,6 38.6,6s19.3,-6 38.6,-6s19.3,6 38.6,6s19.3,-6 38.6,-6c19.3,0 19.3,6 38.6,6c19.3,0 19.3,-6 38.6,-6c19.3,0 19.3,6 38.6,6" class="st1"/>
     </g>
    </g>
   </g>
  </pattern>
  <pattern viewBox="0 -297.7 463 297.7" id="SVGID_5_" patternUnits="userSpaceOnUse" height="297.7" width="463" y="612">
   <g id="svg_43">
    <rect id="svg_44" height="297.7" width="463" class="st0" y="-297.7"/>
    <g id="svg_45">
     <rect id="svg_46" height="297.7" width="463" class="st0" y="-297.7"/>
     <g id="svg_47">
      <path id="svg_48" d="m0,-1c19.3,0 19.3,-6 38.6,-6s19.3,6 38.6,6s19.3,-6 38.6,-6s19.3,6 38.6,6s19.3,-6 38.6,-6s19.3,6 38.6,6s19.3,-6 38.6,-6s19.3,6 38.6,6s19.3,-6 38.6,-6c19.3,0 19.3,6 38.6,6c19.3,0 19.3,-6 38.6,-6c19.3,0 19.3,6 38.6,6" class="st1"/>
      <path id="svg_49" d="m0,-9.1c19.3,0 19.3,-6 38.6,-6s19.3,6 38.6,6s19.3,-6 38.6,-6s19.3,6 38.6,6s19.3,-6 38.6,-6s19.3,6 38.6,6s19.3,-6 38.6,-6s19.3,6 38.6,6s19.3,-6 38.6,-6c19.3,0 19.3,6 38.6,6c19.3,0 19.3,-6 38.6,-6c19.3,0 19.3,6 38.6,6" class="st1"/>
      <path id="svg_50" d="m0,-17.1c19.3,0 19.3,-6 38.6,-6s19.3,6 38.6,6s19.3,-6 38.6,-6s19.3,6 38.6,6s19.3,-6 38.6,-6s19.3,6 38.6,6s19.3,-6 38.6,-6s19.3,6 38.6,6s19.3,-6 38.6,-6c19.3,0 19.3,6 38.6,6c19.3,0 19.3,-6 38.6,-6c19.3,0 19.3,6 38.6,6" class="st1"/>
      <path id="svg_51" d="m0,-25.2c19.3,0 19.3,-6 38.6,-6s19.3,6 38.6,6s19.3,-6 38.6,-6s19.3,6 38.6,6s19.3,-6 38.6,-6s19.3,6 38.6,6s19.3,-6 38.6,-6s19.3,6 38.6,6s19.3,-6 38.6,-6c19.3,0 19.3,6 38.6,6c19.3,0 19.3,-6 38.6,-6c19.3,0 19.3,6 38.6,6" class="st1"/>
      <path id="svg_52" d="m0,-33.2c19.3,0 19.3,-6 38.6,-6s19.3,6 38.6,6s19.3,-6 38.6,-6s19.3,6 38.6,6s19.3,-6 38.6,-6s19.3,6 38.6,6s19.3,-6 38.6,-6s19.3,6 38.6,6s19.3,-6 38.6,-6c19.3,0 19.3,6 38.6,6c19.3,0 19.3,-6 38.6,-6c19.3,0 19.3,6 38.6,6" class="st1"/>
      <path id="svg_53" d="m0,-41.3c19.3,0 19.3,-6 38.6,-6s19.3,6 38.6,6s19.3,-6 38.6,-6s19.3,6 38.6,6s19.3,-6 38.6,-6s19.3,6 38.6,6s19.3,-6 38.6,-6s19.3,6 38.6,6s19.3,-6 38.6,-6c19.3,0 19.3,6 38.6,6c19.3,0 19.3,-6 38.6,-6c19.3,0 19.3,6 38.6,6" class="st1"/>
      <path id="svg_54" d="m0,-49.3c19.3,0 19.3,-6 38.6,-6s19.3,6 38.6,6s19.3,-6 38.6,-6s19.3,6 38.6,6s19.3,-6 38.6,-6s19.3,6 38.6,6s19.3,-6 38.6,-6s19.3,6 38.6,6s19.3,-6 38.6,-6c19.3,0 19.3,6 38.6,6c19.3,0 19.3,-6 38.6,-6c19.3,0 19.3,6 38.6,6" class="st1"/>
      <path id="svg_55" d="m0,-57.3c19.3,0 19.3,-6 38.6,-6s19.3,6 38.6,6s19.3,-6 38.6,-6s19.3,6 38.6,6s19.3,-6 38.6,-6s19.3,6 38.6,6s19.3,-6 38.6,-6s19.3,6 38.6,6s19.3,-6 38.6,-6c19.3,0 19.3,6 38.6,6c19.3,0 19.3,-6 38.6,-6c19.3,0 19.3,6 38.6,6" class="st1"/>
      <path id="svg_56" d="m0,-65.4c19.3,0 19.3,-6 38.6,-6s19.3,6 38.6,6s19.3,-6 38.6,-6s19.3,6 38.6,6s19.3,-6 38.6,-6s19.3,6 38.6,6s19.3,-6 38.6,-6s19.3,6 38.6,6s19.3,-6 38.6,-6c19.3,0 19.3,6 38.6,6c19.3,0 19.3,-6 38.6,-6c19.3,0 19.3,6 38.6,6" class="st1"/>
      <path id="svg_57" d="m0,-73.4c19.3,0 19.3,-6 38.6,-6s19.3,6 38.6,6s19.3,-6 38.6,-6s19.3,6 38.6,6s19.3,-6 38.6,-6s19.3,6 38.6,6s19.3,-6 38.6,-6s19.3,6 38.6,6s19.3,-6 38.6,-6c19.3,0 19.3,6 38.6,6c19.3,0 19.3,-6 38.6,-6c19.3,0 19.3,6 38.6,6" class="st1"/>
      <path id="svg_58" d="m0,-81.5c19.3,0 19.3,-6 38.6,-6s19.3,6 38.6,6s19.3,-6 38.6,-6s19.3,6 38.6,6s19.3,-6 38.6,-6s19.3,6 38.6,6s19.3,-6 38.6,-6s19.3,6 38.6,6s19.3,-6 38.6,-6c19.3,0 19.3,6 38.6,6c19.3,0 19.3,-6 38.6,-6c19.3,0 19.3,6 38.6,6" class="st1"/>
      <path id="svg_59" d="m0,-89.5c19.3,0 19.3,-6 38.6,-6s19.3,6 38.6,6s19.3,-6 38.6,-6s19.3,6 38.6,6s19.3,-6 38.6,-6s19.3,6 38.6,6s19.3,-6 38.6,-6s19.3,6 38.6,6s19.3,-6 38.6,-6c19.3,0 19.3,6 38.6,6c19.3,0 19.3,-6 38.6,-6c19.3,0 19.3,6 38.6,6" class="st1"/>
      <path id="svg_60" d="m0,-97.6c19.3,0 19.3,-6 38.6,-6s19.3,6 38.6,6s19.3,-6 38.6,-6s19.3,6 38.6,6s19.3,-6 38.6,-6s19.3,6 38.6,6s19.3,-6 38.6,-6s19.3,6 38.6,6s19.3,-6 38.6,-6c19.3,0 19.3,6 38.6,6c19.3,0 19.3,-6 38.6,-6c19.3,0 19.3,6 38.6,6" class="st1"/>
      <path id="svg_61" d="m0,-105.6c19.3,0 19.3,-6 38.6,-6s19.3,6 38.6,6s19.3,-6 38.6,-6s19.3,6 38.6,6s19.3,-6 38.6,-6s19.3,6 38.6,6s19.3,-6 38.6,-6s19.3,6 38.6,6s19.3,-6 38.6,-6c19.3,0 19.3,6 38.6,6c19.3,0 19.3,-6 38.6,-6c19.3,0 19.3,6 38.6,6" class="st1"/>
      <path id="svg_62" d="m0,-113.7c19.3,0 19.3,-6 38.6,-6s19.3,6 38.6,6s19.3,-6 38.6,-6s19.3,6 38.6,6s19.3,-6 38.6,-6s19.3,6 38.6,6s19.3,-6 38.6,-6s19.3,6 38.6,6s19.3,-6 38.6,-6c19.3,0 19.3,6 38.6,6c19.3,0 19.3,-6 38.6,-6c19.3,0 19.3,6 38.6,6" class="st1"/>
      <path id="svg_63" d="m0,-121.7c19.3,0 19.3,-6 38.6,-6s19.3,6 38.6,6s19.3,-6 38.6,-6s19.3,6 38.6,6s19.3,-6 38.6,-6s19.3,6 38.6,6s19.3,-6 38.6,-6s19.3,6 38.6,6s19.3,-6 38.6,-6c19.3,0 19.3,6 38.6,6c19.3,0 19.3,-6 38.6,-6c19.3,0 19.3,6 38.6,6" class="st1"/>
      <path id="svg_64" d="m0,-129.8c19.3,0 19.3,-6 38.6,-6s19.3,6 38.6,6s19.3,-6 38.6,-6s19.3,6 38.6,6s19.3,-6 38.6,-6s19.3,6 38.6,6s19.3,-6 38.6,-6s19.3,6 38.6,6s19.3,-6 38.6,-6c19.3,0 19.3,6 38.6,6c19.3,0 19.3,-6 38.6,-6c19.3,0 19.3,6 38.6,6" class="st1"/>
      <path id="svg_65" d="m0,-137.8c19.3,0 19.3,-6 38.6,-6s19.3,6 38.6,6s19.3,-6 38.6,-6s19.3,6 38.6,6s19.3,-6 38.6,-6s19.3,6 38.6,6s19.3,-6 38.6,-6s19.3,6 38.6,6s19.3,-6 38.6,-6c19.3,0 19.3,6 38.6,6c19.3,0 19.3,-6 38.6,-6c19.3,0 19.3,6 38.6,6" class="st1"/>
      <path id="svg_66" d="m0,-145.9c19.3,0 19.3,-6 38.6,-6s19.3,6 38.6,6s19.3,-6 38.6,-6s19.3,6 38.6,6s19.3,-6 38.6,-6s19.3,6 38.6,6s19.3,-6 38.6,-6s19.3,6 38.6,6s19.3,-6 38.6,-6c19.3,0 19.3,6 38.6,6c19.3,0 19.3,-6 38.6,-6c19.3,0 19.3,6 38.6,6" class="st1"/>
      <path id="svg_67" d="m0,-153.9c19.3,0 19.3,-6 38.6,-6s19.3,6 38.6,6s19.3,-6 38.6,-6s19.3,6 38.6,6s19.3,-6 38.6,-6s19.3,6 38.6,6s19.3,-6 38.6,-6s19.3,6 38.6,6s19.3,-6 38.6,-6c19.3,0 19.3,6 38.6,6c19.3,0 19.3,-6 38.6,-6c19.3,0 19.3,6 38.6,6" class="st1"/>
      <path id="svg_68" d="m0,-162c19.3,0 19.3,-6 38.6,-6s19.3,6 38.6,6s19.3,-6 38.6,-6s19.3,6 38.6,6s19.3,-6 38.6,-6s19.3,6 38.6,6s19.3,-6 38.6,-6s19.3,6 38.6,6s19.3,-6 38.6,-6c19.3,0 19.3,6 38.6,6c19.3,0 19.3,-6 38.6,-6c19.3,0 19.3,6 38.6,6" class="st1"/>
      <path id="svg_69" d="m0,-170c19.3,0 19.3,-6 38.6,-6s19.3,6 38.6,6s19.3,-6 38.6,-6s19.3,6 38.6,6s19.3,-6 38.6,-6s19.3,6 38.6,6s19.3,-6 38.6,-6s19.3,6 38.6,6s19.3,-6 38.6,-6c19.3,0 19.3,6 38.6,6c19.3,0 19.3,-6 38.6,-6c19.3,0 19.3,6 38.6,6" class="st1"/>
      <path id="svg_70" d="m0,-178c19.3,0 19.3,-6 38.6,-6s19.3,6 38.6,6s19.3,-6 38.6,-6s19.3,6 38.6,6s19.3,-6 38.6,-6s19.3,6 38.6,6s19.3,-6 38.6,-6s19.3,6 38.6,6s19.3,-6 38.6,-6c19.3,0 19.3,6 38.6,6c19.3,0 19.3,-6 38.6,-6c19.3,0 19.3,6 38.6,6" class="st1"/>
      <path id="svg_71" d="m0,-186.1c19.3,0 19.3,-6 38.6,-6s19.3,6 38.6,6s19.3,-6 38.6,-6s19.3,6 38.6,6s19.3,-6 38.6,-6s19.3,6 38.6,6s19.3,-6 38.6,-6s19.3,6 38.6,6s19.3,-6 38.6,-6c19.3,0 19.3,6 38.6,6c19.3,0 19.3,-6 38.6,-6c19.3,0 19.3,6 38.6,6" class="st1"/>
      <path id="svg_72" d="m0,-194.1c19.3,0 19.3,-6 38.6,-6s19.3,6 38.6,6s19.3,-6 38.6,-6s19.3,6 38.6,6s19.3,-6 38.6,-6s19.3,6 38.6,6s19.3,-6 38.6,-6s19.3,6 38.6,6s19.3,-6 38.6,-6c19.3,0 19.3,6 38.6,6c19.3,0 19.3,-6 38.6,-6c19.3,0 19.3,6 38.6,6" class="st1"/>
      <path id="svg_73" d="m0,-202.2c19.3,0 19.3,-6 38.6,-6s19.3,6 38.6,6s19.3,-6 38.6,-6s19.3,6 38.6,6s19.3,-6 38.6,-6s19.3,6 38.6,6s19.3,-6 38.6,-6s19.3,6 38.6,6s19.3,-6 38.6,-6c19.3,0 19.3,6 38.6,6c19.3,0 19.3,-6 38.6,-6c19.3,0 19.3,6 38.6,6" class="st1"/>
      <path id="svg_74" d="m0,-210.2c19.3,0 19.3,-6 38.6,-6s19.3,6 38.6,6s19.3,-6 38.6,-6s19.3,6 38.6,6s19.3,-6 38.6,-6s19.3,6 38.6,6s19.3,-6 38.6,-6s19.3,6 38.6,6s19.3,-6 38.6,-6c19.3,0 19.3,6 38.6,6c19.3,0 19.3,-6 38.6,-6c19.3,0 19.3,6 38.6,6" class="st1"/>
      <path id="svg_75" d="m0,-218.3c19.3,0 19.3,-6 38.6,-6s19.3,6 38.6,6s19.3,-6 38.6,-6s19.3,6 38.6,6s19.3,-6 38.6,-6s19.3,6 38.6,6s19.3,-6 38.6,-6s19.3,6 38.6,6s19.3,-6 38.6,-6c19.3,0 19.3,6 38.6,6c19.3,0 19.3,-6 38.6,-6c19.3,0 19.3,6 38.6,6" class="st1"/>
      <path id="svg_76" d="m0,-226.3c19.3,0 19.3,-6 38.6,-6s19.3,6 38.6,6s19.3,-6 38.6,-6s19.3,6 38.6,6s19.3,-6 38.6,-6s19.3,6 38.6,6s19.3,-6 38.6,-6s19.3,6 38.6,6s19.3,-6 38.6,-6c19.3,0 19.3,6 38.6,6c19.3,0 19.3,-6 38.6,-6c19.3,0 19.3,6 38.6,6" class="st1"/>
      <path id="svg_77" d="m0,-234.4c19.3,0 19.3,-6 38.6,-6s19.3,6 38.6,6s19.3,-6 38.6,-6s19.3,6 38.6,6s19.3,-6 38.6,-6s19.3,6 38.6,6s19.3,-6 38.6,-6s19.3,6 38.6,6s19.3,-6 38.6,-6c19.3,0 19.3,6 38.6,6c19.3,0 19.3,-6 38.6,-6c19.3,0 19.3,6 38.6,6" class="st1"/>
      <path id="svg_78" d="m0,-242.4c19.3,0 19.3,-6 38.6,-6s19.3,6 38.6,6s19.3,-6 38.6,-6s19.3,6 38.6,6s19.3,-6 38.6,-6s19.3,6 38.6,6s19.3,-6 38.6,-6s19.3,6 38.6,6s19.3,-6 38.6,-6c19.3,0 19.3,6 38.6,6c19.3,0 19.3,-6 38.6,-6c19.3,0 19.3,6 38.6,6" class="st1"/>
      <path id="svg_79" d="m0,-250.5c19.3,0 19.3,-6 38.6,-6s19.3,6 38.6,6s19.3,-6 38.6,-6s19.3,6 38.6,6s19.3,-6 38.6,-6s19.3,6 38.6,6s19.3,-6 38.6,-6s19.3,6 38.6,6s19.3,-6 38.6,-6c19.3,0 19.3,6 38.6,6c19.3,0 19.3,-6 38.6,-6c19.3,0 19.3,6 38.6,6" class="st1"/>
      <path id="svg_80" d="m0,-258.5c19.3,0 19.3,-6 38.6,-6s19.3,6 38.6,6s19.3,-6 38.6,-6s19.3,6 38.6,6s19.3,-6 38.6,-6s19.3,6 38.6,6s19.3,-6 38.6,-6s19.3,6 38.6,6s19.3,-6 38.6,-6c19.3,0 19.3,6 38.6,6c19.3,0 19.3,-6 38.6,-6c19.3,0 19.3,6 38.6,6" class="st1"/>
      <path id="svg_81" d="m0,-266.6c19.3,0 19.3,-6 38.6,-6s19.3,6 38.6,6s19.3,-6 38.6,-6s19.3,6 38.6,6s19.3,-6 38.6,-6s19.3,6 38.6,6s19.3,-6 38.6,-6s19.3,6 38.6,6s19.3,-6 38.6,-6c19.3,0 19.3,6 38.6,6c19.3,0 19.3,-6 38.6,-6c19.3,0 19.3,6 38.6,6" class="st1"/>
      <path id="svg_82" d="m0,-274.6c19.3,0 19.3,-6 38.6,-6s19.3,6 38.6,6s19.3,-6 38.6,-6s19.3,6 38.6,6s19.3,-6 38.6,-6s19.3,6 38.6,6s19.3,-6 38.6,-6s19.3,6 38.6,6s19.3,-6 38.6,-6c19.3,0 19.3,6 38.6,6c19.3,0 19.3,-6 38.6,-6c19.3,0 19.3,6 38.6,6" class="st1"/>
      <path id="svg_83" d="m0,-282.7c19.3,0 19.3,-6 38.6,-6s19.3,6 38.6,6s19.3,-6 38.6,-6s19.3,6 38.6,6s19.3,-6 38.6,-6s19.3,6 38.6,6s19.3,-6 38.6,-6s19.3,6 38.6,6s19.3,-6 38.6,-6c19.3,0 19.3,6 38.6,6c19.3,0 19.3,-6 38.6,-6c19.3,0 19.3,6 38.6,6" class="st1"/>
      <path id="svg_84" d="m0,-290.7c19.3,0 19.3,-6 38.6,-6s19.3,6 38.6,6s19.3,-6 38.6,-6c19.2,0 19.2,6 38.5,6s19.3,-6 38.6,-6s19.3,6 38.6,6s19.3,-6 38.6,-6s19.3,6 38.6,6s19.3,-6 38.6,-6c19.3,0 19.3,6 38.6,6c19.3,0 19.3,-6 38.6,-6c19.3,0 19.3,6 38.6,6" class="st1"/>
     </g>
    </g>
   </g>
  </pattern>
  <pattern patternTransform="matrix(1 0 0 -1 1434.0537 -17193.459)" xlink:href="#SVGID_2_" id="SVGID_3_"/>
  <pattern patternTransform="matrix(1 0 0 -1 1434.0537 -17293.2773)" xlink:href="#SVGID_5_" id="SVGID_7_"/>
 </defs>
 <g>
  <title>background</title>
  <rect fill="none" id="canvas_background" height="272" width="445" y="-1" x="-1"/>
 </g>
 <g>
  <title>Layer 1</title>
  <g id="svg_85">
   <path id="svg_86" d="m166.44577,106.750002c-1,-5.6 -6.4,-9.3 -12,-8.3s-9.3,6.4 -8.3,12c0.8,4.4 1.6,18.6 -5.1,26.6c-3.1,3.8 -7.7,6 -14,6.7l0,-88.5c0,-5.7 -4.6,-10.3 -10.3,-10.3c-5.7,0 -10.3,4.6 -10.3,10.3l0,67.8c-5.1,-1 -9,-3 -11.8,-6.3c-7.8,-9 -6.6,-26 -5.5,-31.8c1.1,-5.6 -2.5,-11 -8.1,-12.1s-11,2.5 -12.1,8.1c-0.2,1.2 -5.9,30.7 10.1,49.2c6.7,7.8 16,12.4 27.5,13.7l0,36.3c0,5.7 4.6,10.3 10.3,10.3c5.7,0 10.3,-4.6 10.3,-10.3l0,-15.8c12.8,-1 22.8,-5.7 29.9,-14.3c13.8,-16.5 9.9,-40.6 9.4,-43.3z" class="st2"/>
   <circle id="svg_87" r="89.599998" cy="92.350002" cx="329.04577" class="st3"/>
   <path id="svg_88" d="m440.84577,267.250002l-438.6,0c-1,0 -1.8,-0.8 -1.8,-1.8l0,-11.4c0,-1 0.8,-1.8 1.8,-1.8l438.5,0c1,0 1.8,0.8 1.8,1.8l0,11.4c0.1,1 -0.7,1.8 -1.7,1.8z" class="st2"/>
   <path id="svg_89" d="m176.94577,28.550002l0,0c-10.2,-1.2 -18.2,-9.2 -19.4,-19.4l0,0c0,-0.1 -0.1,-0.1 -0.1,-0.1c-0.1,0 -0.1,0.1 -0.1,0.1l0,0c-1.1,10.2 -9.2,18.3 -19.4,19.4l0,0c-0.1,0 -0.1,0.1 -0.1,0.1c0,0.1 0.1,0.1 0.1,0.1l0,0c10.2,1.1 18.2,9.2 19.4,19.4l0,0c0,0.1 0.1,0.1 0.1,0.1c0.1,0 0.1,-0.1 0.1,-0.1l0,0c1.2,-10.2 9.2,-18.2 19.4,-19.4l0,0c0.1,0 0.1,-0.1 0.1,-0.1c0.1,-0.1 0,-0.1 -0.1,-0.1z" class="st4"/>
   <path id="svg_90" d="m56.14577,167.150002l0,0c-5.2,-0.6 -9.3,-4.7 -9.9,-9.9l0,0c0,0 0,-0.1 -0.1,-0.1c0,0 -0.1,0 -0.1,0.1l0,0c-0.6,5.2 -4.7,9.3 -9.9,9.9l0,0c0,0 -0.1,0 -0.1,0.1c0,0 0,0.1 0.1,0.1l0,0c5.2,0.6 9.3,4.7 9.9,9.9l0,0c0,0 0,0.1 0.1,0.1c0,0 0.1,0 0.1,-0.1l0,0c0.6,-5.2 4.7,-9.3 9.9,-9.9l0,0c0,-0.1 0,-0.1 0,-0.2l0,0z" class="st5"/>
   <path id="svg_91" d="m66.14577,52.950002l0,0c-5.2,-0.6 -9.3,-4.7 -9.9,-9.9l0,0c0,0 0,-0.1 -0.1,-0.1c0,0 -0.1,0 -0.1,0.1l0,0c-0.6,5.2 -4.7,9.3 -9.9,9.9l0,0c0,0 -0.1,0 -0.1,0.1c0,0 0,0.1 0.1,0.1l0,0c5.2,0.6 9.3,4.7 9.9,9.9l0,0c0,0 0,0.1 0.1,0.1c0,0 0.1,0 0.1,-0.1l0,0c0.6,-5.2 4.7,-9.3 9.9,-9.9l0,0c0,-0.1 0.1,-0.1 0,-0.2c0.1,0 0,0 0,0z" class="st6"/>
   <path id="svg_92" d="m162.34577,111.250002c-1,-5.6 -6.4,-9.3 -12,-8.3s-9.3,6.4 -8.3,12c0.8,4.4 1.6,18.6 -5.1,26.6c-3.1,3.8 -7.7,6 -14,6.7l0,-88.5c0,-5.7 -4.6,-10.3 -10.3,-10.3c-5.7,0 -10.3,4.6 -10.3,10.3l0,67.8c-5.1,-1 -9,-3 -11.8,-6.3c-7.8,-9 -6.6,-26 -5.5,-31.8c1.1,-5.6 -2.5,-11 -8.1,-12.1s-11,2.5 -12.1,8.1c-0.2,1.2 -5.9,30.7 10.1,49.2c6.7,7.8 16,12.4 27.5,13.7l0,36.3c0,5.7 4.6,10.3 10.3,10.3c5.7,0 10.3,-4.6 10.3,-10.3l0,-15.8c12.8,-1 22.8,-5.7 29.9,-14.3c13.8,-16.5 9.9,-40.6 9.4,-43.3z" class="st7"/>
   <circle id="svg_93" r="3.1" cy="176.150002" cx="112.64577" class="st8"/>
   <circle id="svg_94" r="3.1" cy="163.550002" cx="112.64577" class="st8"/>
   <circle id="svg_95" r="3.1" cy="158.850002" cx="125.24577" class="st8"/>
   <circle id="svg_96" r="3.1" cy="154.150002" cx="136.64577" class="st8"/>
   <circle id="svg_97" r="3.1" cy="145.850002" cx="146.04577" class="st8"/>
   <circle id="svg_98" r="3.1" cy="135.350002" cx="151.14577" class="st8"/>
   <circle id="svg_99" r="3.1" cy="124.950002" cx="151.94577" class="st8"/>
   <circle id="svg_100" r="3.1" cy="113.850002" cx="151.94577" class="st8"/>
   <circle id="svg_101" r="3.1" cy="151.050002" cx="112.64577" class="st8"/>
   <circle id="svg_102" r="3.1" cy="138.450002" cx="112.64577" class="st8"/>
   <circle id="svg_103" r="3.1" cy="138.450002" cx="99.54577" class="st8"/>
   <circle id="svg_104" r="3.1" cy="132.950002" cx="88.14577" class="st8"/>
   <circle id="svg_105" r="3.1" cy="123.750002" cx="79.44577" class="st8"/>
   <circle id="svg_106" r="3.1" cy="112.150002" cx="74.54577" class="st8"/>
   <circle id="svg_107" r="3.1" cy="100.450002" cx="73.64577" class="st8"/>
   <circle id="svg_108" r="3.1" cy="88.850002" cx="73.64577" class="st8"/>
   <circle id="svg_109" r="3.1" cy="125.950002" cx="112.64577" class="st8"/>
   <circle id="svg_110" r="3.1" cy="113.350002" cx="112.64577" class="st8"/>
   <circle id="svg_111" r="3.1" cy="100.850002" cx="112.64577" class="st8"/>
   <circle id="svg_112" r="3.1" cy="88.250002" cx="112.64577" class="st8"/>
   <circle id="svg_113" r="3.1" cy="75.750002" cx="112.64577" class="st8"/>
   <circle id="svg_114" r="3.1" cy="63.150002" cx="112.64577" class="st8"/>
   <rect id="svg_115" height="159.4" width="36.2" class="st9" y="90.550002" x="211.84577"/>
   <rect id="svg_116" height="172.6" width="36.2" class="st9" y="77.350002" x="266.54577"/>
   <rect id="svg_117" height="185.8" width="36.2" class="st10" y="64.150002" x="310.94577"/>
   <rect id="svg_118" height="185.2" width="18.6" class="st10" y="64.750002" x="247.94577"/>
   <line id="svg_119" y2="183.050002" x2="257.24577" y1="171.350002" x1="257.24577" class="st11"/>
   <line id="svg_120" y2="148.950002" x2="284.64577" y1="112.050002" x1="284.64577" class="st12"/>
   <rect id="svg_121" height="153" width="8.3" class="st13" y="97.050002" x="302.64577"/>
   <rect id="svg_122" height="21.8" width="31.7" class="st14" y="79.450002" x="268.74577"/>
   <line id="svg_123" y2="103.550002" x2="302.64577" y1="103.550002" x1="266.54577" class="st15"/>
   <line id="svg_124" y2="233.650002" x2="301.44577" y1="233.650002" x1="267.94577" class="st15"/>
   <path id="svg_125" d="m237.94577,236.750002l-16.2,0c-1.7,0 -3.1,-1.4 -3.1,-3.1l0,-122.2c0,-1.7 1.4,-3.1 3.1,-3.1l16.2,0c1.7,0 3.1,1.4 3.1,3.1l0,122.2c0,1.7 -1.3,3.1 -3.1,3.1z" class="st6"/>
   <rect id="svg_126" height="74.1" width="14.3" class="st0" y="142.150002" x="224.84577"/>
   <text x="139.349998" y="-164.45423" id="svg_127" class="st16 st17 st18" transform="matrix(0,-1,1,0,399.4865,355.5508) ">NODE.JS</text>
   <rect id="svg_128" height="71.8" width="15.1" class="st0" y="150.950002" x="277.14577"/>
   <text x="139.349998" y="-164.45423" id="svg_129" class="st6 st17 st19" transform="matrix(0,-1,1,0,454.509,362.082) ">PYTHON</text>
   <line id="svg_130" y2="81.450002" x2="65.54577" y1="75.750002" x1="62.84577" class="st15"/>
   <line id="svg_131" y2="108.350002" x2="142.44577" y1="102.550002" x1="139.74577" class="st15"/>
   <line id="svg_132" y2="77.350002" x2="74.54577" y1="68.750002" x1="74.54577" class="st15"/>
   <line id="svg_133" y2="103.550002" x2="156.24577" y1="94.950002" x1="156.24577" class="st15"/>
   <line id="svg_134" y2="51.150002" x2="105.84577" y1="45.450002" x1="105.84577" class="st15"/>
   <line id="svg_135" y2="51.850002" x2="119.24577" y1="47.250002" x1="122.64577" class="st15"/>
   <rect id="svg_136" height="13.7" width="91.2" class="st20" y="182.650002" x="65.54577"/>
   <polygon id="svg_137" points="74.94576263427734,196.44998931884766 147.34576416015625,196.44998931884766 140.5457763671875,249.94998931884766 81.74576568603516,249.94998931884766 " class="st21"/>
   <text x="-164.45423" y="-139.349998" id="svg_138" class="st22 st17 st23" transform="matrix(1,0,0,1,421.6906,221.3382) ">JAVA</text>
   <rect id="svg_139" height="106" width="36.2" class="st8" y="87.850002" x="311.14577"/>
   <text x="-164.45423" y="-139.349998" id="svg_140" class="st16 st17 st24 st25" transform="matrix(1,0,0,1,493.5041,229.6976) ">PHP</text>
   <rect id="svg_141" height="13.3" width="33.1" class="st26" y="235.150002" x="268.04577"/>
  </g>
 </g>
</svg>