<?xml version="1.0" encoding="utf-8"?>
<svg width="443" height="270" viewBox="0 0 443 270" xmlns="http://www.w3.org/2000/svg" xmlns:xlink="http://www.w3.org/1999/xlink">
  <defs>
    <style type="text/css">
      .st0{fill:none;}
      .st1{fill:none;stroke:#0068FF;stroke-width:2;stroke-miterlimit:10;}
      .st2{fill:#32D282;}
      .st3{fill:url(#SVGID_1_);}
      .st4{fill:#FFE000;}
      .st5{fill:#0068FF;}
      .st6{fill:#66A4FF;}
      .st7{fill:none;stroke:#404041;stroke-width:3;stroke-miterlimit:10;}
      .st8{fill:#404041;}
      .st9{fill:#FFFFFF;stroke:#404041;stroke-width:3;stroke-linecap:round;stroke-linejoin:round;stroke-miterlimit:10;}
      .st10{fill:#F6F7FA;stroke:#404041;stroke-width:3;stroke-linecap:round;stroke-linejoin:round;stroke-miterlimit:10;}
      .st11{fill:none;stroke:#F5C144;stroke-width:4.399;stroke-linecap:round;stroke-linejoin:round;stroke-miterlimit:10;}
      .st12{fill:none;stroke:#66A4FF;stroke-width:4.399;stroke-linecap:round;stroke-linejoin:round;stroke-miterlimit:10;}
      .st13{fill:#32D282;stroke:#404041;stroke-width:3;stroke-linecap:round;stroke-linejoin:round;stroke-miterlimit:10;}
      .st14{fill:url(#SVGID_3_);}
      .st15{fill:none;stroke:#404041;stroke-width:3;stroke-linecap:round;stroke-linejoin:round;stroke-miterlimit:10;}
      .st16{fill:#FFFFFF;}
      .st17{font-family:'SourceSansPro-Black';}
      .st18{font-size:14.6632px;}
      .st19{font-size:18.5475px;}
      .st20{fill:url(#SVGID_4_);stroke:#404041;stroke-width:3;stroke-linecap:round;stroke-linejoin:round;stroke-miterlimit:10;}
      .st21{fill:url(#SVGID_6_);stroke:#404041;stroke-width:3;stroke-linecap:round;stroke-linejoin:round;stroke-miterlimit:10;}
      .st22{fill:#F5C144;}
      .st23{font-size:14.6632px;glyph-orientation-vertical:0;writing-mode:tb;}
      .st24{font-size:24.9275px;glyph-orientation-vertical:0;writing-mode:tb;}
      .st25{letter-spacing:-2;}
      .st26{fill:url(#SVGID_7_);}
    </style>
  </defs>
  <pattern y="612" width="463" height="297.7" patternUnits="userSpaceOnUse" id="SVGID_2_" viewBox="0 -297.7 463 297.7" style="overflow:visible;">
    <g>
      <rect y="-297.7" class="st0" width="463" height="297.7"/>
      <g>
        <rect y="-297.7" class="st0" width="463" height="297.7"/>
        <g>
          <path class="st1" d="M0-1c19.3,0,19.3-6,38.6-6s19.3,6,38.6,6s19.3-6,38.6-6s19.3,6,38.6,6s19.3-6,38.6-6s19.3,6,38.6,6 s19.3-6,38.6-6s19.3,6,38.6,6s19.3-6,38.6-6c19.3,0,19.3,6,38.6,6c19.3,0,19.3-6,38.6-6c19.3,0,19.3,6,38.6,6"/>
          <path class="st1" d="M0-9.1c19.3,0,19.3-6,38.6-6s19.3,6,38.6,6s19.3-6,38.6-6s19.3,6,38.6,6s19.3-6,38.6-6s19.3,6,38.6,6 s19.3-6,38.6-6s19.3,6,38.6,6s19.3-6,38.6-6c19.3,0,19.3,6,38.6,6c19.3,0,19.3-6,38.6-6c19.3,0,19.3,6,38.6,6"/>
          <path class="st1" d="M0-17.1c19.3,0,19.3-6,38.6-6s19.3,6,38.6,6s19.3-6,38.6-6s19.3,6,38.6,6s19.3-6,38.6-6s19.3,6,38.6,6 s19.3-6,38.6-6s19.3,6,38.6,6s19.3-6,38.6-6c19.3,0,19.3,6,38.6,6c19.3,0,19.3-6,38.6-6c19.3,0,19.3,6,38.6,6"/>
          <path class="st1" d="M0-25.2c19.3,0,19.3-6,38.6-6s19.3,6,38.6,6s19.3-6,38.6-6s19.3,6,38.6,6s19.3-6,38.6-6s19.3,6,38.6,6 s19.3-6,38.6-6s19.3,6,38.6,6s19.3-6,38.6-6c19.3,0,19.3,6,38.6,6c19.3,0,19.3-6,38.6-6c19.3,0,19.3,6,38.6,6"/>
          <path class="st1" d="M0-33.2c19.3,0,19.3-6,38.6-6s19.3,6,38.6,6s19.3-6,38.6-6s19.3,6,38.6,6s19.3-6,38.6-6s19.3,6,38.6,6 s19.3-6,38.6-6s19.3,6,38.6,6s19.3-6,38.6-6c19.3,0,19.3,6,38.6,6c19.3,0,19.3-6,38.6-6c19.3,0,19.3,6,38.6,6"/>
          <path class="st1" d="M0-41.3c19.3,0,19.3-6,38.6-6s19.3,6,38.6,6s19.3-6,38.6-6s19.3,6,38.6,6s19.3-6,38.6-6s19.3,6,38.6,6 s19.3-6,38.6-6s19.3,6,38.6,6s19.3-6,38.6-6c19.3,0,19.3,6,38.6,6c19.3,0,19.3-6,38.6-6c19.3,0,19.3,6,38.6,6"/>
          <path class="st1" d="M0-49.3c19.3,0,19.3-6,38.6-6s19.3,6,38.6,6s19.3-6,38.6-6s19.3,6,38.6,6s19.3-6,38.6-6s19.3,6,38.6,6 s19.3-6,38.6-6s19.3,6,38.6,6s19.3-6,38.6-6c19.3,0,19.3,6,38.6,6c19.3,0,19.3-6,38.6-6c19.3,0,19.3,6,38.6,6"/>
          <path class="st1" d="M0-57.3c19.3,0,19.3-6,38.6-6s19.3,6,38.6,6s19.3-6,38.6-6s19.3,6,38.6,6s19.3-6,38.6-6s19.3,6,38.6,6 s19.3-6,38.6-6s19.3,6,38.6,6s19.3-6,38.6-6c19.3,0,19.3,6,38.6,6c19.3,0,19.3-6,38.6-6c19.3,0,19.3,6,38.6,6"/>
          <path class="st1" d="M0-65.4c19.3,0,19.3-6,38.6-6s19.3,6,38.6,6s19.3-6,38.6-6s19.3,6,38.6,6s19.3-6,38.6-6s19.3,6,38.6,6 s19.3-6,38.6-6s19.3,6,38.6,6s19.3-6,38.6-6c19.3,0,19.3,6,38.6,6c19.3,0,19.3-6,38.6-6c19.3,0,19.3,6,38.6,6"/>
          <path class="st1" d="M0-73.4c19.3,0,19.3-6,38.6-6s19.3,6,38.6,6s19.3-6,38.6-6s19.3,6,38.6,6s19.3-6,38.6-6s19.3,6,38.6,6 s19.3-6,38.6-6s19.3,6,38.6,6s19.3-6,38.6-6c19.3,0,19.3,6,38.6,6c19.3,0,19.3-6,38.6-6c19.3,0,19.3,6,38.6,6"/>
          <path class="st1" d="M0-81.5c19.3,0,19.3-6,38.6-6s19.3,6,38.6,6s19.3-6,38.6-6s19.3,6,38.6,6s19.3-6,38.6-6s19.3,6,38.6,6 s19.3-6,38.6-6s19.3,6,38.6,6s19.3-6,38.6-6c19.3,0,19.3,6,38.6,6c19.3,0,19.3-6,38.6-6c19.3,0,19.3,6,38.6,6"/>
          <path class="st1" d="M0-89.5c19.3,0,19.3-6,38.6-6s19.3,6,38.6,6s19.3-6,38.6-6s19.3,6,38.6,6s19.3-6,38.6-6s19.3,6,38.6,6 s19.3-6,38.6-6s19.3,6,38.6,6s19.3-6,38.6-6c19.3,0,19.3,6,38.6,6c19.3,0,19.3-6,38.6-6c19.3,0,19.3,6,38.6,6"/>
          <path class="st1" d="M0-97.6c19.3,0,19.3-6,38.6-6s19.3,6,38.6,6s19.3-6,38.6-6s19.3,6,38.6,6s19.3-6,38.6-6s19.3,6,38.6,6 s19.3-6,38.6-6s19.3,6,38.6,6s19.3-6,38.6-6c19.3,0,19.3,6,38.6,6c19.3,0,19.3-6,38.6-6c19.3,0,19.3,6,38.6,6"/>
          <path class="st1" d="M0-105.6c19.3,0,19.3-6,38.6-6s19.3,6,38.6,6s19.3-6,38.6-6s19.3,6,38.6,6s19.3-6,38.6-6s19.3,6,38.6,6 s19.3-6,38.6-6s19.3,6,38.6,6s19.3-6,38.6-6c19.3,0,19.3,6,38.6,6c19.3,0,19.3-6,38.6-6c19.3,0,19.3,6,38.6,6"/>
          <path class="st1" d="M0-113.7c19.3,0,19.3-6,38.6-6s19.3,6,38.6,6s19.3-6,38.6-6s19.3,6,38.6,6s19.3-6,38.6-6s19.3,6,38.6,6 s19.3-6,38.6-6s19.3,6,38.6,6s19.3-6,38.6-6c19.3,0,19.3,6,38.6,6c19.3,0,19.3-6,38.6-6c19.3,0,19.3,6,38.6,6"/>
          <path class="st1" d="M0-121.7c19.3,0,19.3-6,38.6-6s19.3,6,38.6,6s19.3-6,38.6-6s19.3,6,38.6,6s19.3-6,38.6-6s19.3,6,38.6,6 s19.3-6,38.6-6s19.3,6,38.6,6s19.3-6,38.6-6c19.3,0,19.3,6,38.6,6c19.3,0,19.3-6,38.6-6c19.3,0,19.3,6,38.6,6"/>
          <path class="st1" d="M0-129.8c19.3,0,19.3-6,38.6-6s19.3,6,38.6,6s19.3-6,38.6-6s19.3,6,38.6,6s19.3-6,38.6-6s19.3,6,38.6,6 s19.3-6,38.6-6s19.3,6,38.6,6s19.3-6,38.6-6c19.3,0,19.3,6,38.6,6c19.3,0,19.3-6,38.6-6c19.3,0,19.3,6,38.6,6"/>
          <path class="st1" d="M0-137.8c19.3,0,19.3-6,38.6-6s19.3,6,38.6,6s19.3-6,38.6-6s19.3,6,38.6,6s19.3-6,38.6-6s19.3,6,38.6,6 s19.3-6,38.6-6s19.3,6,38.6,6s19.3-6,38.6-6c19.3,0,19.3,6,38.6,6c19.3,0,19.3-6,38.6-6c19.3,0,19.3,6,38.6,6"/>
          <path class="st1" d="M0-145.9c19.3,0,19.3-6,38.6-6s19.3,6,38.6,6s19.3-6,38.6-6s19.3,6,38.6,6s19.3-6,38.6-6s19.3,6,38.6,6 s19.3-6,38.6-6s19.3,6,38.6,6s19.3-6,38.6-6c19.3,0,19.3,6,38.6,6c19.3,0,19.3-6,38.6-6c19.3,0,19.3,6,38.6,6"/>
          <path class="st1" d="M0-153.9c19.3,0,19.3-6,38.6-6s19.3,6,38.6,6s19.3-6,38.6-6s19.3,6,38.6,6s19.3-6,38.6-6s19.3,6,38.6,6 s19.3-6,38.6-6s19.3,6,38.6,6s19.3-6,38.6-6c19.3,0,19.3,6,38.6,6c19.3,0,19.3-6,38.6-6c19.3,0,19.3,6,38.6,6"/>
          <path class="st1" d="M0-162c19.3,0,19.3-6,38.6-6s19.3,6,38.6,6s19.3-6,38.6-6s19.3,6,38.6,6s19.3-6,38.6-6s19.3,6,38.6,6 s19.3-6,38.6-6s19.3,6,38.6,6s19.3-6,38.6-6c19.3,0,19.3,6,38.6,6c19.3,0,19.3-6,38.6-6c19.3,0,19.3,6,38.6,6"/>
          <path class="st1" d="M0-170c19.3,0,19.3-6,38.6-6s19.3,6,38.6,6s19.3-6,38.6-6s19.3,6,38.6,6s19.3-6,38.6-6s19.3,6,38.6,6 s19.3-6,38.6-6s19.3,6,38.6,6s19.3-6,38.6-6c19.3,0,19.3,6,38.6,6c19.3,0,19.3-6,38.6-6c19.3,0,19.3,6,38.6,6"/>
          <path class="st1" d="M0-178c19.3,0,19.3-6,38.6-6s19.3,6,38.6,6s19.3-6,38.6-6s19.3,6,38.6,6s19.3-6,38.6-6s19.3,6,38.6,6 s19.3-6,38.6-6s19.3,6,38.6,6s19.3-6,38.6-6c19.3,0,19.3,6,38.6,6c19.3,0,19.3-6,38.6-6c19.3,0,19.3,6,38.6,6"/>
          <path class="st1" d="M0-186.1c19.3,0,19.3-6,38.6-6s19.3,6,38.6,6s19.3-6,38.6-6s19.3,6,38.6,6s19.3-6,38.6-6s19.3,6,38.6,6 s19.3-6,38.6-6s19.3,6,38.6,6s19.3-6,38.6-6c19.3,0,19.3,6,38.6,6c19.3,0,19.3-6,38.6-6c19.3,0,19.3,6,38.6,6"/>
          <path class="st1" d="M0-194.1c19.3,0,19.3-6,38.6-6s19.3,6,38.6,6s19.3-6,38.6-6s19.3,6,38.6,6s19.3-6,38.6-6s19.3,6,38.6,6 s19.3-6,38.6-6s19.3,6,38.6,6s19.3-6,38.6-6c19.3,0,19.3,6,38.6,6c19.3,0,19.3-6,38.6-6c19.3,0,19.3,6,38.6,6"/>
          <path class="st1" d="M0-202.2c19.3,0,19.3-6,38.6-6s19.3,6,38.6,6s19.3-6,38.6-6s19.3,6,38.6,6s19.3-6,38.6-6s19.3,6,38.6,6 s19.3-6,38.6-6s19.3,6,38.6,6s19.3-6,38.6-6c19.3,0,19.3,6,38.6,6c19.3,0,19.3-6,38.6-6c19.3,0,19.3,6,38.6,6"/>
          <path class="st1" d="M0-210.2c19.3,0,19.3-6,38.6-6s19.3,6,38.6,6s19.3-6,38.6-6s19.3,6,38.6,6s19.3-6,38.6-6s19.3,6,38.6,6 s19.3-6,38.6-6s19.3,6,38.6,6s19.3-6,38.6-6c19.3,0,19.3,6,38.6,6c19.3,0,19.3-6,38.6-6c19.3,0,19.3,6,38.6,6"/>
          <path class="st1" d="M0-218.3c19.3,0,19.3-6,38.6-6s19.3,6,38.6,6s19.3-6,38.6-6s19.3,6,38.6,6s19.3-6,38.6-6s19.3,6,38.6,6 s19.3-6,38.6-6s19.3,6,38.6,6s19.3-6,38.6-6c19.3,0,19.3,6,38.6,6c19.3,0,19.3-6,38.6-6c19.3,0,19.3,6,38.6,6"/>
          <path class="st1" d="M0-226.3c19.3,0,19.3-6,38.6-6s19.3,6,38.6,6s19.3-6,38.6-6s19.3,6,38.6,6s19.3-6,38.6-6s19.3,6,38.6,6 s19.3-6,38.6-6s19.3,6,38.6,6s19.3-6,38.6-6c19.3,0,19.3,6,38.6,6c19.3,0,19.3-6,38.6-6c19.3,0,19.3,6,38.6,6"/>
          <path class="st1" d="M0-234.4c19.3,0,19.3-6,38.6-6s19.3,6,38.6,6s19.3-6,38.6-6s19.3,6,38.6,6s19.3-6,38.6-6s19.3,6,38.6,6 s19.3-6,38.6-6s19.3,6,38.6,6s19.3-6,38.6-6c19.3,0,19.3,6,38.6,6c19.3,0,19.3-6,38.6-6c19.3,0,19.3,6,38.6,6"/>
          <path class="st1" d="M0-242.4c19.3,0,19.3-6,38.6-6s19.3,6,38.6,6s19.3-6,38.6-6s19.3,6,38.6,6s19.3-6,38.6-6s19.3,6,38.6,6 s19.3-6,38.6-6s19.3,6,38.6,6s19.3-6,38.6-6c19.3,0,19.3,6,38.6,6c19.3,0,19.3-6,38.6-6c19.3,0,19.3,6,38.6,6"/>
          <path class="st1" d="M0-250.5c19.3,0,19.3-6,38.6-6s19.3,6,38.6,6s19.3-6,38.6-6s19.3,6,38.6,6s19.3-6,38.6-6s19.3,6,38.6,6 s19.3-6,38.6-6s19.3,6,38.6,6s19.3-6,38.6-6c19.3,0,19.3,6,38.6,6c19.3,0,19.3-6,38.6-6c19.3,0,19.3,6,38.6,6"/>
          <path class="st1" d="M0-258.5c19.3,0,19.3-6,38.6-6s19.3,6,38.6,6s19.3-6,38.6-6s19.3,6,38.6,6s19.3-6,38.6-6s19.3,6,38.6,6 s19.3-6,38.6-6s19.3,6,38.6,6s19.3-6,38.6-6c19.3,0,19.3,6,38.6,6c19.3,0,19.3-6,38.6-6c19.3,0,19.3,6,38.6,6"/>
          <path class="st1" d="M0-266.6c19.3,0,19.3-6,38.6-6s19.3,6,38.6,6s19.3-6,38.6-6s19.3,6,38.6,6s19.3-6,38.6-6s19.3,6,38.6,6 s19.3-6,38.6-6s19.3,6,38.6,6s19.3-6,38.6-6c19.3,0,19.3,6,38.6,6c19.3,0,19.3-6,38.6-6c19.3,0,19.3,6,38.6,6"/>
          <path class="st1" d="M0-274.6c19.3,0,19.3-6,38.6-6s19.3,6,38.6,6s19.3-6,38.6-6s19.3,6,38.6,6s19.3-6,38.6-6s19.3,6,38.6,6 s19.3-6,38.6-6s19.3,6,38.6,6s19.3-6,38.6-6c19.3,0,19.3,6,38.6,6c19.3,0,19.3-6,38.6-6c19.3,0,19.3,6,38.6,6"/>
          <path class="st1" d="M0-282.7c19.3,0,19.3-6,38.6-6s19.3,6,38.6,6s19.3-6,38.6-6s19.3,6,38.6,6s19.3-6,38.6-6s19.3,6,38.6,6 s19.3-6,38.6-6s19.3,6,38.6,6s19.3-6,38.6-6c19.3,0,19.3,6,38.6,6c19.3,0,19.3-6,38.6-6c19.3,0,19.3,6,38.6,6"/>
          <path class="st1" d="M0-290.7c19.3,0,19.3-6,38.6-6s19.3,6,38.6,6s19.3-6,38.6-6c19.2,0,19.2,6,38.5,6s19.3-6,38.6-6 s19.3,6,38.6,6s19.3-6,38.6-6s19.3,6,38.6,6s19.3-6,38.6-6c19.3,0,19.3,6,38.6,6c19.3,0,19.3-6,38.6-6c19.3,0,19.3,6,38.6,6"/>
        </g>
      </g>
    </g>
  </pattern>
  <pattern y="612" width="463" height="297.7" patternUnits="userSpaceOnUse" id="SVGID_5_" viewBox="0 -297.7 463 297.7" style="overflow:visible;">
    <g>
      <rect y="-297.7" class="st0" width="463" height="297.7"/>
      <g>
        <rect y="-297.7" class="st0" width="463" height="297.7"/>
        <g>
          <path class="st1" d="M0-1c19.3,0,19.3-6,38.6-6s19.3,6,38.6,6s19.3-6,38.6-6s19.3,6,38.6,6s19.3-6,38.6-6s19.3,6,38.6,6 s19.3-6,38.6-6s19.3,6,38.6,6s19.3-6,38.6-6c19.3,0,19.3,6,38.6,6c19.3,0,19.3-6,38.6-6c19.3,0,19.3,6,38.6,6"/>
          <path class="st1" d="M0-9.1c19.3,0,19.3-6,38.6-6s19.3,6,38.6,6s19.3-6,38.6-6s19.3,6,38.6,6s19.3-6,38.6-6s19.3,6,38.6,6 s19.3-6,38.6-6s19.3,6,38.6,6s19.3-6,38.6-6c19.3,0,19.3,6,38.6,6c19.3,0,19.3-6,38.6-6c19.3,0,19.3,6,38.6,6"/>
          <path class="st1" d="M0-17.1c19.3,0,19.3-6,38.6-6s19.3,6,38.6,6s19.3-6,38.6-6s19.3,6,38.6,6s19.3-6,38.6-6s19.3,6,38.6,6 s19.3-6,38.6-6s19.3,6,38.6,6s19.3-6,38.6-6c19.3,0,19.3,6,38.6,6c19.3,0,19.3-6,38.6-6c19.3,0,19.3,6,38.6,6"/>
          <path class="st1" d="M0-25.2c19.3,0,19.3-6,38.6-6s19.3,6,38.6,6s19.3-6,38.6-6s19.3,6,38.6,6s19.3-6,38.6-6s19.3,6,38.6,6 s19.3-6,38.6-6s19.3,6,38.6,6s19.3-6,38.6-6c19.3,0,19.3,6,38.6,6c19.3,0,19.3-6,38.6-6c19.3,0,19.3,6,38.6,6"/>
          <path class="st1" d="M0-33.2c19.3,0,19.3-6,38.6-6s19.3,6,38.6,6s19.3-6,38.6-6s19.3,6,38.6,6s19.3-6,38.6-6s19.3,6,38.6,6 s19.3-6,38.6-6s19.3,6,38.6,6s19.3-6,38.6-6c19.3,0,19.3,6,38.6,6c19.3,0,19.3-6,38.6-6c19.3,0,19.3,6,38.6,6"/>
          <path class="st1" d="M0-41.3c19.3,0,19.3-6,38.6-6s19.3,6,38.6,6s19.3-6,38.6-6s19.3,6,38.6,6s19.3-6,38.6-6s19.3,6,38.6,6 s19.3-6,38.6-6s19.3,6,38.6,6s19.3-6,38.6-6c19.3,0,19.3,6,38.6,6c19.3,0,19.3-6,38.6-6c19.3,0,19.3,6,38.6,6"/>
          <path class="st1" d="M0-49.3c19.3,0,19.3-6,38.6-6s19.3,6,38.6,6s19.3-6,38.6-6s19.3,6,38.6,6s19.3-6,38.6-6s19.3,6,38.6,6 s19.3-6,38.6-6s19.3,6,38.6,6s19.3-6,38.6-6c19.3,0,19.3,6,38.6,6c19.3,0,19.3-6,38.6-6c19.3,0,19.3,6,38.6,6"/>
          <path class="st1" d="M0-57.3c19.3,0,19.3-6,38.6-6s19.3,6,38.6,6s19.3-6,38.6-6s19.3,6,38.6,6s19.3-6,38.6-6s19.3,6,38.6,6 s19.3-6,38.6-6s19.3,6,38.6,6s19.3-6,38.6-6c19.3,0,19.3,6,38.6,6c19.3,0,19.3-6,38.6-6c19.3,0,19.3,6,38.6,6"/>
          <path class="st1" d="M0-65.4c19.3,0,19.3-6,38.6-6s19.3,6,38.6,6s19.3-6,38.6-6s19.3,6,38.6,6s19.3-6,38.6-6s19.3,6,38.6,6 s19.3-6,38.6-6s19.3,6,38.6,6s19.3-6,38.6-6c19.3,0,19.3,6,38.6,6c19.3,0,19.3-6,38.6-6c19.3,0,19.3,6,38.6,6"/>
          <path class="st1" d="M0-73.4c19.3,0,19.3-6,38.6-6s19.3,6,38.6,6s19.3-6,38.6-6s19.3,6,38.6,6s19.3-6,38.6-6s19.3,6,38.6,6 s19.3-6,38.6-6s19.3,6,38.6,6s19.3-6,38.6-6c19.3,0,19.3,6,38.6,6c19.3,0,19.3-6,38.6-6c19.3,0,19.3,6,38.6,6"/>
          <path class="st1" d="M0-81.5c19.3,0,19.3-6,38.6-6s19.3,6,38.6,6s19.3-6,38.6-6s19.3,6,38.6,6s19.3-6,38.6-6s19.3,6,38.6,6 s19.3-6,38.6-6s19.3,6,38.6,6s19.3-6,38.6-6c19.3,0,19.3,6,38.6,6c19.3,0,19.3-6,38.6-6c19.3,0,19.3,6,38.6,6"/>
          <path class="st1" d="M0-89.5c19.3,0,19.3-6,38.6-6s19.3,6,38.6,6s19.3-6,38.6-6s19.3,6,38.6,6s19.3-6,38.6-6s19.3,6,38.6,6 s19.3-6,38.6-6s19.3,6,38.6,6s19.3-6,38.6-6c19.3,0,19.3,6,38.6,6c19.3,0,19.3-6,38.6-6c19.3,0,19.3,6,38.6,6"/>
          <path class="st1" d="M0-97.6c19.3,0,19.3-6,38.6-6s19.3,6,38.6,6s19.3-6,38.6-6s19.3,6,38.6,6s19.3-6,38.6-6s19.3,6,38.6,6 s19.3-6,38.6-6s19.3,6,38.6,6s19.3-6,38.6-6c19.3,0,19.3,6,38.6,6c19.3,0,19.3-6,38.6-6c19.3,0,19.3,6,38.6,6"/>
          <path class="st1" d="M0-105.6c19.3,0,19.3-6,38.6-6s19.3,6,38.6,6s19.3-6,38.6-6s19.3,6,38.6,6s19.3-6,38.6-6s19.3,6,38.6,6 s19.3-6,38.6-6s19.3,6,38.6,6s19.3-6,38.6-6c19.3,0,19.3,6,38.6,6c19.3,0,19.3-6,38.6-6c19.3,0,19.3,6,38.6,6"/>
          <path class="st1" d="M0-113.7c19.3,0,19.3-6,38.6-6s19.3,6,38.6,6s19.3-6,38.6-6s19.3,6,38.6,6s19.3-6,38.6-6s19.3,6,38.6,6 s19.3-6,38.6-6s19.3,6,38.6,6s19.3-6,38.6-6c19.3,0,19.3,6,38.6,6c19.3,0,19.3-6,38.6-6c19.3,0,19.3,6,38.6,6"/>
          <path class="st1" d="M0-121.7c19.3,0,19.3-6,38.6-6s19.3,6,38.6,6s19.3-6,38.6-6s19.3,6,38.6,6s19.3-6,38.6-6s19.3,6,38.6,6 s19.3-6,38.6-6s19.3,6,38.6,6s19.3-6,38.6-6c19.3,0,19.3,6,38.6,6c19.3,0,19.3-6,38.6-6c19.3,0,19.3,6,38.6,6"/>
          <path class="st1" d="M0-129.8c19.3,0,19.3-6,38.6-6s19.3,6,38.6,6s19.3-6,38.6-6s19.3,6,38.6,6s19.3-6,38.6-6s19.3,6,38.6,6 s19.3-6,38.6-6s19.3,6,38.6,6s19.3-6,38.6-6c19.3,0,19.3,6,38.6,6c19.3,0,19.3-6,38.6-6c19.3,0,19.3,6,38.6,6"/>
          <path class="st1" d="M0-137.8c19.3,0,19.3-6,38.6-6s19.3,6,38.6,6s19.3-6,38.6-6s19.3,6,38.6,6s19.3-6,38.6-6s19.3,6,38.6,6 s19.3-6,38.6-6s19.3,6,38.6,6s19.3-6,38.6-6c19.3,0,19.3,6,38.6,6c19.3,0,19.3-6,38.6-6c19.3,0,19.3,6,38.6,6"/>
          <path class="st1" d="M0-145.9c19.3,0,19.3-6,38.6-6s19.3,6,38.6,6s19.3-6,38.6-6s19.3,6,38.6,6s19.3-6,38.6-6s19.3,6,38.6,6 s19.3-6,38.6-6s19.3,6,38.6,6s19.3-6,38.6-6c19.3,0,19.3,6,38.6,6c19.3,0,19.3-6,38.6-6c19.3,0,19.3,6,38.6,6"/>
          <path class="st1" d="M0-153.9c19.3,0,19.3-6,38.6-6s19.3,6,38.6,6s19.3-6,38.6-6s19.3,6,38.6,6s19.3-6,38.6-6s19.3,6,38.6,6 s19.3-6,38.6-6s19.3,6,38.6,6s19.3-6,38.6-6c19.3,0,19.3,6,38.6,6c19.3,0,19.3-6,38.6-6c19.3,0,19.3,6,38.6,6"/>
          <path class="st1" d="M0-162c19.3,0,19.3-6,38.6-6s19.3,6,38.6,6s19.3-6,38.6-6s19.3,6,38.6,6s19.3-6,38.6-6s19.3,6,38.6,6 s19.3-6,38.6-6s19.3,6,38.6,6s19.3-6,38.6-6c19.3,0,19.3,6,38.6,6c19.3,0,19.3-6,38.6-6c19.3,0,19.3,6,38.6,6"/>
          <path class="st1" d="M0-170c19.3,0,19.3-6,38.6-6s19.3,6,38.6,6s19.3-6,38.6-6s19.3,6,38.6,6s19.3-6,38.6-6s19.3,6,38.6,6 s19.3-6,38.6-6s19.3,6,38.6,6s19.3-6,38.6-6c19.3,0,19.3,6,38.6,6c19.3,0,19.3-6,38.6-6c19.3,0,19.3,6,38.6,6"/>
          <path class="st1" d="M0-178c19.3,0,19.3-6,38.6-6s19.3,6,38.6,6s19.3-6,38.6-6s19.3,6,38.6,6s19.3-6,38.6-6s19.3,6,38.6,6 s19.3-6,38.6-6s19.3,6,38.6,6s19.3-6,38.6-6c19.3,0,19.3,6,38.6,6c19.3,0,19.3-6,38.6-6c19.3,0,19.3,6,38.6,6"/>
          <path class="st1" d="M0-186.1c19.3,0,19.3-6,38.6-6s19.3,6,38.6,6s19.3-6,38.6-6s19.3,6,38.6,6s19.3-6,38.6-6s19.3,6,38.6,6 s19.3-6,38.6-6s19.3,6,38.6,6s19.3-6,38.6-6c19.3,0,19.3,6,38.6,6c19.3,0,19.3-6,38.6-6c19.3,0,19.3,6,38.6,6"/>
          <path class="st1" d="M0-194.1c19.3,0,19.3-6,38.6-6s19.3,6,38.6,6s19.3-6,38.6-6s19.3,6,38.6,6s19.3-6,38.6-6s19.3,6,38.6,6 s19.3-6,38.6-6s19.3,6,38.6,6s19.3-6,38.6-6c19.3,0,19.3,6,38.6,6c19.3,0,19.3-6,38.6-6c19.3,0,19.3,6,38.6,6"/>
          <path class="st1" d="M0-202.2c19.3,0,19.3-6,38.6-6s19.3,6,38.6,6s19.3-6,38.6-6s19.3,6,38.6,6s19.3-6,38.6-6s19.3,6,38.6,6 s19.3-6,38.6-6s19.3,6,38.6,6s19.3-6,38.6-6c19.3,0,19.3,6,38.6,6c19.3,0,19.3-6,38.6-6c19.3,0,19.3,6,38.6,6"/>
          <path class="st1" d="M0-210.2c19.3,0,19.3-6,38.6-6s19.3,6,38.6,6s19.3-6,38.6-6s19.3,6,38.6,6s19.3-6,38.6-6s19.3,6,38.6,6 s19.3-6,38.6-6s19.3,6,38.6,6s19.3-6,38.6-6c19.3,0,19.3,6,38.6,6c19.3,0,19.3-6,38.6-6c19.3,0,19.3,6,38.6,6"/>
          <path class="st1" d="M0-218.3c19.3,0,19.3-6,38.6-6s19.3,6,38.6,6s19.3-6,38.6-6s19.3,6,38.6,6s19.3-6,38.6-6s19.3,6,38.6,6 s19.3-6,38.6-6s19.3,6,38.6,6s19.3-6,38.6-6c19.3,0,19.3,6,38.6,6c19.3,0,19.3-6,38.6-6c19.3,0,19.3,6,38.6,6"/>
          <path class="st1" d="M0-226.3c19.3,0,19.3-6,38.6-6s19.3,6,38.6,6s19.3-6,38.6-6s19.3,6,38.6,6s19.3-6,38.6-6s19.3,6,38.6,6 s19.3-6,38.6-6s19.3,6,38.6,6s19.3-6,38.6-6c19.3,0,19.3,6,38.6,6c19.3,0,19.3-6,38.6-6c19.3,0,19.3,6,38.6,6"/>
          <path class="st1" d="M0-234.4c19.3,0,19.3-6,38.6-6s19.3,6,38.6,6s19.3-6,38.6-6s19.3,6,38.6,6s19.3-6,38.6-6s19.3,6,38.6,6 s19.3-6,38.6-6s19.3,6,38.6,6s19.3-6,38.6-6c19.3,0,19.3,6,38.6,6c19.3,0,19.3-6,38.6-6c19.3,0,19.3,6,38.6,6"/>
          <path class="st1" d="M0-242.4c19.3,0,19.3-6,38.6-6s19.3,6,38.6,6s19.3-6,38.6-6s19.3,6,38.6,6s19.3-6,38.6-6s19.3,6,38.6,6 s19.3-6,38.6-6s19.3,6,38.6,6s19.3-6,38.6-6c19.3,0,19.3,6,38.6,6c19.3,0,19.3-6,38.6-6c19.3,0,19.3,6,38.6,6"/>
          <path class="st1" d="M0-250.5c19.3,0,19.3-6,38.6-6s19.3,6,38.6,6s19.3-6,38.6-6s19.3,6,38.6,6s19.3-6,38.6-6s19.3,6,38.6,6 s19.3-6,38.6-6s19.3,6,38.6,6s19.3-6,38.6-6c19.3,0,19.3,6,38.6,6c19.3,0,19.3-6,38.6-6c19.3,0,19.3,6,38.6,6"/>
          <path class="st1" d="M0-258.5c19.3,0,19.3-6,38.6-6s19.3,6,38.6,6s19.3-6,38.6-6s19.3,6,38.6,6s19.3-6,38.6-6s19.3,6,38.6,6 s19.3-6,38.6-6s19.3,6,38.6,6s19.3-6,38.6-6c19.3,0,19.3,6,38.6,6c19.3,0,19.3-6,38.6-6c19.3,0,19.3,6,38.6,6"/>
          <path class="st1" d="M0-266.6c19.3,0,19.3-6,38.6-6s19.3,6,38.6,6s19.3-6,38.6-6s19.3,6,38.6,6s19.3-6,38.6-6s19.3,6,38.6,6 s19.3-6,38.6-6s19.3,6,38.6,6s19.3-6,38.6-6c19.3,0,19.3,6,38.6,6c19.3,0,19.3-6,38.6-6c19.3,0,19.3,6,38.6,6"/>
          <path class="st1" d="M0-274.6c19.3,0,19.3-6,38.6-6s19.3,6,38.6,6s19.3-6,38.6-6s19.3,6,38.6,6s19.3-6,38.6-6s19.3,6,38.6,6 s19.3-6,38.6-6s19.3,6,38.6,6s19.3-6,38.6-6c19.3,0,19.3,6,38.6,6c19.3,0,19.3-6,38.6-6c19.3,0,19.3,6,38.6,6"/>
          <path class="st1" d="M0-282.7c19.3,0,19.3-6,38.6-6s19.3,6,38.6,6s19.3-6,38.6-6s19.3,6,38.6,6s19.3-6,38.6-6s19.3,6,38.6,6 s19.3-6,38.6-6s19.3,6,38.6,6s19.3-6,38.6-6c19.3,0,19.3,6,38.6,6c19.3,0,19.3-6,38.6-6c19.3,0,19.3,6,38.6,6"/>
          <path class="st1" d="M0-290.7c19.3,0,19.3-6,38.6-6s19.3,6,38.6,6s19.3-6,38.6-6c19.2,0,19.2,6,38.5,6s19.3-6,38.6-6 s19.3,6,38.6,6s19.3-6,38.6-6s19.3,6,38.6,6s19.3-6,38.6-6c19.3,0,19.3,6,38.6,6c19.3,0,19.3-6,38.6-6c19.3,0,19.3,6,38.6,6"/>
        </g>
      </g>
    </g>
  </pattern>
  <g transform="matrix(1, 0, 0, 1, -164.454239, -139.350006)">
    <path class="st2" d="M330.9,246.1c-1-5.6-6.4-9.3-12-8.3s-9.3,6.4-8.3,12c0.8,4.4,1.6,18.6-5.1,26.6c-3.1,3.8-7.7,6-14,6.7v-88.5 c0-5.7-4.6-10.3-10.3-10.3c-5.7,0-10.3,4.6-10.3,10.3v67.8c-5.1-1-9-3-11.8-6.3c-7.8-9-6.6-26-5.5-31.8c1.1-5.6-2.5-11-8.1-12.1 s-11,2.5-12.1,8.1c-0.2,1.2-5.9,30.7,10.1,49.2c6.7,7.8,16,12.4,27.5,13.7v36.3c0,5.7,4.6,10.3,10.3,10.3c5.7,0,10.3-4.6,10.3-10.3 v-15.8c12.8-1,22.8-5.7,29.9-14.3C335.3,272.9,331.4,248.8,330.9,246.1z"/>
    <linearGradient id="SVGID_1_" gradientUnits="userSpaceOnUse" x1="158.3391" y1="2117.0176" x2="43.1255" y2="1979.7113" gradientTransform="matrix(0.9282 0.372 0.372 -0.9282 -361.9913 2095.5195)">
      <stop offset="0" style="stop-color:#FFFFFF;stop-opacity:0"/>
      <stop offset="0.4368" style="stop-color:#D7DDE3;stop-opacity:0.4368"/>
      <stop offset="0.7884" style="stop-color:#BDC7D1;stop-opacity:0.7884"/>
      <stop offset="1" style="stop-color:#B4BFCA"/>
    </linearGradient>
    <circle class="st3" cx="493.5" cy="231.7" r="89.6"/>
    <path class="st2" d="M605.3,406.6H166.7c-1,0-1.8-0.8-1.8-1.8v-11.4c0-1,0.8-1.8,1.8-1.8h438.5c1,0,1.8,0.8,1.8,1.8v11.4 C607.1,405.8,606.3,406.6,605.3,406.6z"/>
    <path class="st4" d="M341.4,167.9L341.4,167.9c-10.2-1.2-18.2-9.2-19.4-19.4l0,0c0-0.1-0.1-0.1-0.1-0.1c-0.1,0-0.1,0.1-0.1,0.1l0,0 c-1.1,10.2-9.2,18.3-19.4,19.4l0,0c-0.1,0-0.1,0.1-0.1,0.1c0,0.1,0.1,0.1,0.1,0.1l0,0c10.2,1.1,18.2,9.2,19.4,19.4l0,0 c0,0.1,0.1,0.1,0.1,0.1c0.1,0,0.1-0.1,0.1-0.1l0,0c1.2-10.2,9.2-18.2,19.4-19.4l0,0c0.1,0,0.1-0.1,0.1-0.1 C341.6,167.9,341.5,167.9,341.4,167.9z"/>
    <path class="st5" d="M220.6,306.5L220.6,306.5c-5.2-0.6-9.3-4.7-9.9-9.9l0,0c0,0,0-0.1-0.1-0.1c0,0-0.1,0-0.1,0.1l0,0 c-0.6,5.2-4.7,9.3-9.9,9.9l0,0c0,0-0.1,0-0.1,0.1c0,0,0,0.1,0.1,0.1l0,0c5.2,0.6,9.3,4.7,9.9,9.9l0,0c0,0,0,0.1,0.1,0.1 c0,0,0.1,0,0.1-0.1l0,0c0.6-5.2,4.7-9.3,9.9-9.9l0,0C220.6,306.6,220.6,306.6,220.6,306.5L220.6,306.5z"/>
    <path class="st6" d="M230.6,192.3L230.6,192.3c-5.2-0.6-9.3-4.7-9.9-9.9l0,0c0,0,0-0.1-0.1-0.1c0,0-0.1,0-0.1,0.1l0,0 c-0.6,5.2-4.7,9.3-9.9,9.9l0,0c0,0-0.1,0-0.1,0.1c0,0,0,0.1,0.1,0.1l0,0c5.2,0.6,9.3,4.7,9.9,9.9l0,0c0,0,0,0.1,0.1,0.1 c0,0,0.1,0,0.1-0.1l0,0c0.6-5.2,4.7-9.3,9.9-9.9l0,0C230.6,192.4,230.7,192.4,230.6,192.3C230.7,192.3,230.6,192.3,230.6,192.3z"/>
    <path class="st7" d="M326.8,250.6c-1-5.6-6.4-9.3-12-8.3s-9.3,6.4-8.3,12c0.8,4.4,1.6,18.6-5.1,26.6c-3.1,3.8-7.7,6-14,6.7v-88.5 c0-5.7-4.6-10.3-10.3-10.3c-5.7,0-10.3,4.6-10.3,10.3v67.8c-5.1-1-9-3-11.8-6.3c-7.8-9-6.6-26-5.5-31.8c1.1-5.6-2.5-11-8.1-12.1 s-11,2.5-12.1,8.1c-0.2,1.2-5.9,30.7,10.1,49.2c6.7,7.8,16,12.4,27.5,13.7V324c0,5.7,4.6,10.3,10.3,10.3c5.7,0,10.3-4.6,10.3-10.3 v-15.8c12.8-1,22.8-5.7,29.9-14.3C331.2,277.4,327.3,253.3,326.8,250.6z"/>
    <circle class="st8" cx="277.1" cy="315.5" r="3.1"/>
    <circle class="st8" cx="277.1" cy="302.9" r="3.1"/>
    <circle class="st8" cx="289.7" cy="298.2" r="3.1"/>
    <circle class="st8" cx="301.1" cy="293.5" r="3.1"/>
    <circle class="st8" cx="310.5" cy="285.2" r="3.1"/>
    <circle class="st8" cx="315.6" cy="274.7" r="3.1"/>
    <circle class="st8" cx="316.4" cy="264.3" r="3.1"/>
    <circle class="st8" cx="316.4" cy="253.2" r="3.1"/>
    <circle class="st8" cx="277.1" cy="290.4" r="3.1"/>
    <circle class="st8" cx="277.1" cy="277.8" r="3.1"/>
    <circle class="st8" cx="264" cy="277.8" r="3.1"/>
    <circle class="st8" cx="252.6" cy="272.3" r="3.1"/>
    <circle class="st8" cx="243.9" cy="263.1" r="3.1"/>
    <circle class="st8" cx="239" cy="251.5" r="3.1"/>
    <circle class="st8" cx="238.1" cy="239.8" r="3.1"/>
    <circle class="st8" cx="238.1" cy="228.2" r="3.1"/>
    <circle class="st8" cx="277.1" cy="265.3" r="3.1"/>
    <circle class="st8" cx="277.1" cy="252.7" r="3.1"/>
    <circle class="st8" cx="277.1" cy="240.2" r="3.1"/>
    <circle class="st8" cx="277.1" cy="227.6" r="3.1"/>
    <circle class="st8" cx="277.1" cy="215.1" r="3.1"/>
    <circle class="st8" cx="277.1" cy="202.5" r="3.1"/>
    <rect x="376.3" y="229.9" class="st9" width="36.2" height="159.4"/>
    <rect x="431" y="216.7" class="st9" width="36.2" height="172.6"/>
    <rect x="475.4" y="203.5" class="st10" width="36.2" height="185.8"/>
    <rect x="412.4" y="204.1" class="st10" width="18.6" height="185.2"/>
    <line class="st11" x1="421.7" y1="310.7" x2="421.7" y2="322.4"/>
    <line class="st12" x1="449.1" y1="251.4" x2="449.1" y2="278.3"/>
    <rect x="467.1" y="236.4" class="st13" width="8.3" height="153"/>
    <pattern id="SVGID_3_" patternTransform="matrix(1 0 0 -1 1434.0537 -17193.459)" xlink:href="#SVGID_2_"/>
    <rect x="433.2" y="218.8" class="st14" width="31.7" height="21.8"/>
    <line class="st15" x1="431" y1="242.9" x2="467.1" y2="242.9"/>
    <line class="st15" x1="432.4" y1="373" x2="465.9" y2="373"/>
    <path class="st6" d="M402.4,376.1h-16.2c-1.7,0-3.1-1.4-3.1-3.1V250.8c0-1.7,1.4-3.1,3.1-3.1h16.2c1.7,0,3.1,1.4,3.1,3.1V373 C405.5,374.7,404.2,376.1,402.4,376.1z"/>
    <rect x="389.3" y="281.5" class="st0" width="14.3" height="74.1"/>
    <text transform="matrix(0 -1 1 0 399.4865 355.5508)" class="st16 st17 st18" style="white-space: pre;">NODE.JS </text>
    <rect x="441.6" y="290.3" class="st0" width="15.1" height="71.8"/>
    <text transform="matrix(0 -1 1 0 454.509 362.082)" class="st6 st17 st19" style="white-space: pre;">PYTHON</text>
    <line class="st15" x1="227.3" y1="215.1" x2="230" y2="220.8"/>
    <line class="st15" x1="304.2" y1="241.9" x2="306.9" y2="247.7"/>
    <line class="st15" x1="239" y1="208.1" x2="239" y2="216.7"/>
    <line class="st15" x1="320.7" y1="234.3" x2="320.7" y2="242.9"/>
    <line class="st15" x1="270.3" y1="184.8" x2="270.3" y2="190.5"/>
    <line class="st15" x1="287.1" y1="186.6" x2="283.7" y2="191.2"/>
    <linearGradient id="SVGID_4_" gradientUnits="userSpaceOnUse" x1="230" y1="283.15" x2="321.2" y2="283.15" gradientTransform="matrix(1 0 0 -1 0 612)">
      <stop offset="0" style="stop-color:#FFFFFF"/>
      <stop offset="0.236" style="stop-color:#FFFEFC"/>
      <stop offset="0.3863" style="stop-color:#FEFBF4"/>
      <stop offset="0.5126" style="stop-color:#FEF6E5"/>
      <stop offset="0.6258" style="stop-color:#FCEFD0"/>
      <stop offset="0.7301" style="stop-color:#FBE7B5"/>
      <stop offset="0.828" style="stop-color:#F9DB94"/>
      <stop offset="0.9189" style="stop-color:#F7CF6D"/>
      <stop offset="1" style="stop-color:#F5C144"/>
    </linearGradient>
    <rect x="230" y="322" class="st20" width="91.2" height="13.7"/>
    <linearGradient id="SVGID_6_" gradientUnits="userSpaceOnUse" x1="239.4" y1="249.45" x2="311.8" y2="249.45" gradientTransform="matrix(1 0 0 -1 0 612)">
      <stop offset="0" style="stop-color:#FFFFFF"/>
      <stop offset="0.236" style="stop-color:#FFFEFC"/>
      <stop offset="0.3863" style="stop-color:#FEFBF4"/>
      <stop offset="0.5126" style="stop-color:#FEF6E5"/>
      <stop offset="0.6258" style="stop-color:#FCEFD0"/>
      <stop offset="0.7301" style="stop-color:#FBE7B5"/>
      <stop offset="0.828" style="stop-color:#F9DB94"/>
      <stop offset="0.9189" style="stop-color:#F7CF6D"/>
      <stop offset="1" style="stop-color:#F5C144"/>
    </linearGradient>
    <polygon class="st21" points="239.4,335.8 311.8,335.8 305,389.3 246.2,389.3 &#9;"/>
    <rect x="475.6" y="227.2" class="st8" width="36.2" height="106"/>
    <pattern id="SVGID_7_" patternTransform="matrix(1 0 0 -1 1434.0537 -17293.2773)" xlink:href="#SVGID_5_"/>
    <rect x="432.5" y="374.5" class="st26" width="33.1" height="13.3"/>
    <text transform="matrix(1, 0, 0, 1, 0.438614, 19.490631)" class="st16" style="font-size: 30px; stroke: #FFFFFF;">
      <tspan x="484.029" y="241.368">P</tspan>
      <tspan x="484.029" dy="1em">H</tspan>
      <tspan x="484.029" dy="1em">P</tspan>
    </text>
    <text transform="matrix(1, 0, 0, 1, -4.561386, 15.100006)" class="st19 st22" style="stroke: #F5C144;">
      <tspan x="421.524" y="222.931">J</tspan>
      <tspan x="421.524" dy="1em">A</tspan>
      <tspan x="421.524" dy="1em">V</tspan>
      <tspan x="421.524" dy="1em">A</tspan>
    </text>
  </g>
</svg>
