<?xml version="1.0" encoding="utf-8"?>
<!-- Generator: Adobe Illustrator 16.0.4, SVG Export Plug-In . SVG Version: 6.00 Build 0)  -->
<!DOCTYPE svg PUBLIC "-//W3C//DTD SVG 1.1//EN" "http://www.w3.org/Graphics/SVG/1.1/DTD/svg11.dtd">
<svg version="1.1" id="Layer_1" xmlns="http://www.w3.org/2000/svg" xmlns:xlink="http://www.w3.org/1999/xlink" x="0px" y="0px"
	 width="13.707px" height="16.15px" viewBox="0 0 13.707 16.15" enable-background="new 0 0 13.707 16.15" xml:space="preserve">
<path fill="#D0CFCE" d="M12.344,0.473c0,0-0.818-0.264-2.688,1.003c-0.782-0.218-1.62-0.325-2.452-0.33
	C6.37,1.15,5.533,1.257,4.755,1.476C2.882,0.209,2.06,0.473,2.06,0.473C1.527,1.822,1.864,2.818,1.965,3.065
	C1.338,3.749,0.956,4.622,0.956,5.691c0,3.752,2.287,4.589,4.46,4.837c-0.279,0.245-0.533,0.677-0.621,1.312
	c-0.558,0.246-1.975,0.68-2.849-0.814c0,0-0.517-0.941-1.501-1.011c0,0-0.956-0.01-0.065,0.595c0,0,0.641,0.301,1.087,1.432
	c0,0,0.573,1.906,3.297,1.312c0.004,0.817,0.014,1.434,0.014,1.668c0,0.133-0.052,0.275-0.162,0.371
	c0.825,0.227,1.69,0.357,2.588,0.357c0.896,0,1.763-0.131,2.588-0.356c-0.11-0.097-0.16-0.239-0.16-0.372
	c0-0.322,0.013-1.379,0.013-2.688c0-0.912-0.313-1.51-0.665-1.815c2.182-0.24,4.471-1.065,4.471-4.827
	c0-1.069-0.382-1.942-1.008-2.625C12.543,2.818,12.881,1.822,12.344,0.473z"/>
</svg>
