<svg x="0px" y="0px" viewBox="0 0 503.2 128.7" style="enable-background:new 0 0 503.2 128.7;" xml:space="preserve">
  <style type="text/css">
    .os-numbers-0{opacity:0.2;}
    .os-numbers-1{fill:#DCDDDE;}
    .os-numbers-2{fill:#D0E8CF;}
    .os-numbers-3{fill:#B3DBB2;}
    .os-numbers-4{fill:#39A85B;}
    .os-numbers-5{fill:none;}
    .os-numbers-6{fill:#FFFFFF;}
  </style>
  <g class="os-numbers-0">
    <path class="os-numbers-1" d="M72.4,7.6c3.3,0,6.1,2.7,6.1,6.1v47.7H53.4h-6.1H7.6V13.7c0-3.3,2.7-6.1,6.1-6.1L72.4,7.6 M72.4,0H13.7
		                  C6.2,0,0,6.2,0,13.7v47.7v7.6h7.6h39.6h6.1h25.1h7.6v-7.6V13.7C86.1,6.2,80,0,72.4,0L72.4,0z"/>
    <path class="os-numbers-1" d="M155.8,7.6c3.3,0,6.1,2.7,6.1,6.1v47.7h-16.6h-8.4h-21.7h-8.6H91.1V13.7c0-3.3,2.7-6.1,6.1-6.1L155.8,7.6
		                  M155.8,0H97.1c-7.6,0-13.7,6.2-13.7,13.7v47.7v7.6h7.6h15.6h8.6h21.7h8.4h16.6h7.6v-7.6V13.7C169.6,6.2,163.4,0,155.8,0L155.8,0z"
	  />
    <path class="os-numbers-1" d="M239.2,7.6c3.3,0,6.1,2.7,6.1,6.1v47.7h-11h-6.1h-35.1h-6.1h-12.5V13.7c0-3.3,2.7-6.1,6.1-6.1L239.2,7.6
		                  M239.2,0h-58.7c-7.6,0-13.7,6.2-13.7,13.7v47.7v7.6h7.6h12.5h6.1h35.1h6.1h11h7.6v-7.6V13.7C253,6.2,246.8,0,239.2,0L239.2,0z"/>
    <path class="os-numbers-1" d="M322.7,7.6c3.3,0,6.1,2.7,6.1,6.1v47.7h-12h-6.1h-35.1h-6.1h-11.5V13.7c0-3.3,2.7-6.1,6.1-6.1L322.7,7.6
		                  M322.7,0h-58.7c-7.6,0-13.7,6.2-13.7,13.7v47.7v7.6h7.6h11.5h6.1h35.1h6.1h12h7.6v-7.6V13.7C336.4,6.2,330.2,0,322.7,0L322.7,0z"
	  />
    <path class="os-numbers-1" d="M406.1,7.6c3.3,0,6.1,2.7,6.1,6.1v47.7h-11.1h-6.1h-35.1h-6.1h-12.4V13.7c0-3.3,2.7-6.1,6.1-6.1L406.1,7.6
		                  M406.1,0h-58.7c-7.6,0-13.7,6.2-13.7,13.7v47.7v7.6h7.6h12.4h6.1h35.1h6.1h11.1h7.6v-7.6V13.7C419.8,6.2,413.6,0,406.1,0L406.1,0z
		                  "/>
    <path class="os-numbers-1" d="M489.5,7.6c3.3,0,6.1,2.7,6.1,6.1v47.7h-12.1h-6.1h-35.1h-6.1h-11.4V13.7c0-3.3,2.7-6.1,6.1-6.1L489.5,7.6
		                  M489.5,0h-58.7C423.2,0,417,6.2,417,13.7v47.7v7.6h7.6h11.4h6.1h35.1h6.1h12.1h7.6v-7.6V13.7C503.2,6.2,497,0,489.5,0L489.5,0z"/>
    <path class="os-numbers-1" d="M78.5,65.7v49.3c0,3.3-2.7,6.1-6.1,6.1H13.7c-3.3,0-6.1-2.7-6.1-6.1V65.7h39.6h6.1H78.5 M86.1,58h-7.6H53.4
		                  h-6.1H7.6H0v7.6v49.3c0,7.6,6.2,13.7,13.7,13.7h58.7c7.6,0,13.7-6.2,13.7-13.7V65.7L86.1,58L86.1,58z"/>
    <path class="os-numbers-1" d="M161.9,65.7v49.3c0,3.3-2.7,6.1-6.1,6.1H97.1c-3.3,0-6.1-2.7-6.1-6.1V65.7h49.8h6.9H161.9 M169.6,58h-7.6
		                  h-14.2h-6.9H91.1h-7.6v7.6v49.3c0,7.6,6.2,13.7,13.7,13.7h58.7c7.6,0,13.7-6.2,13.7-13.7V65.7L169.6,58L169.6,58z"/>
    <path class="os-numbers-1" d="M245.3,65.7v49.3c0,3.3-2.7,6.1-6.1,6.1h-58.7c-3.3,0-6.1-2.7-6.1-6.1V65.7h12.4h6.1h35.2h6.1H245.3 M253,58
		                  h-7.6h-10.9h-6.1H193h-6.1h-12.4h-7.6v7.6v49.3c0,7.6,6.2,13.7,13.7,13.7h58.7c7.6,0,13.7-6.2,13.7-13.7V65.7L253,58L253,58z"/>
    <path class="os-numbers-1" d="M328.7,65.7v49.3c0,3.3-2.7,6.1-6.1,6.1h-58.7c-3.3,0-6.1-2.7-6.1-6.1V65.7h11.4h6.1h35.2h6.1H328.7 M336.4,58
		                  h-7.6h-12h-6.1h-35.2h-6.1h-11.4h-7.6v7.6v49.3c0,7.6,6.2,13.7,13.7,13.7h58.7c7.6,0,13.7-6.2,13.7-13.7V65.7L336.4,58L336.4,58z"
	  />
    <path class="os-numbers-1" d="M412.1,65.7v49.3c0,3.3-2.7,6.1-6.1,6.1h-58.7c-3.3,0-6.1-2.7-6.1-6.1V65.7h12.4h6.1H395h6.1H412.1 M419.8,58
		                  h-7.6h-11H395h-35.2h-6.1h-12.4h-7.6v7.6v49.3c0,7.6,6.2,13.7,13.7,13.7h58.7c7.6,0,13.7-6.2,13.7-13.7V65.7L419.8,58L419.8,58z"/>
    <path class="os-numbers-1" d="M495.5,65.7v49.3c0,3.3-2.7,6.1-6.1,6.1h-58.7c-3.3,0-6.1-2.7-6.1-6.1V65.7H436h6.1h35.2h6.1H495.5 M503.2,58
		                  h-7.6h-12.1h-6.1h-35.2H436h-11.3H417v7.6v49.3c0,7.6,6.2,13.7,13.7,13.7h58.7c7.6,0,13.7-6.2,13.7-13.7V65.7V58L503.2,58z"/>
  </g>
  <g>
    <path class="os-numbers-2" d="M78.5,13.7c0-3.3-2.7-6.1-6.1-6.1H13.7c-3.3,0-6.1,2.7-6.1,6.1v47.7h70.9V13.7z"/>
    <path class="os-numbers-3" d="M7.6,114.9c0,3.3,2.7,6.1,6.1,6.1h58.7c3.3,0,6.1-2.7,6.1-6.1V65.7H7.6V114.9z"/>
    <path class="os-numbers-2" d="M161.9,13.7c0-3.3-2.7-6.1-6.1-6.1H97.1c-3.3,0-6.1,2.7-6.1,6.1v47.7h70.9L161.9,13.7L161.9,13.7z"/>
    <path class="os-numbers-3" d="M91.1,114.9c0,3.3,2.7,6.1,6.1,6.1h58.7c3.3,0,6.1-2.7,6.1-6.1V65.7H91.1V114.9z"/>
    <path class="os-numbers-2" d="M245.3,13.7c0-3.3-2.7-6.1-6.1-6.1h-58.7c-3.3,0-6.1,2.7-6.1,6.1v47.7h70.9V13.7z"/>
    <path class="os-numbers-3" d="M174.5,114.9c0,3.3,2.7,6.1,6.1,6.1h58.7c3.3,0,6.1-2.7,6.1-6.1V65.7h-70.9V114.9z"/>
    <path class="os-numbers-3" d="M257.9,114.9c0,3.3,2.7,6.1,6.1,6.1h58.7c3.3,0,6.1-2.7,6.1-6.1V65.7h-70.9V114.9z"/>
    <path class="os-numbers-2" d="M328.7,13.7c0-3.3-2.7-6.1-6.1-6.1h-58.7c-3.3,0-6.1,2.7-6.1,6.1v47.7h70.9V13.7z"/>
    <path class="os-numbers-3" d="M341.3,114.9c0,3.3,2.7,6.1,6.1,6.1h58.7c3.3,0,6.1-2.7,6.1-6.1V65.7h-70.9V114.9z"/>
    <path class="os-numbers-2" d="M412.1,13.7c0-3.3-2.7-6.1-6.1-6.1h-58.7c-3.3,0-6.1,2.7-6.1,6.1v47.7h70.9V13.7z"/>
    <path class="os-numbers-2" d="M495.5,13.7c0-3.3-2.7-6.1-6.1-6.1h-58.7c-3.3,0-6.1,2.7-6.1,6.1v47.7h70.9V13.7z"/>
    <path class="os-numbers-3" d="M424.7,114.9c0,3.3,2.7,6.1,6.1,6.1h58.7c3.3,0,6.1-2.7,6.1-6.1V65.7h-70.9V114.9z"/>
  </g>
  <g>
    <path class="os-numbers-4" d="M34.8,66.7h1c20,0,24.1,8.5,24.1,15.7c0,8.8-6.5,14.9-15.8,14.9c-9.8,0-15.2-4.5-19.2-8.9l-0.8-0.9l-4.2,5.1
		                  l0.6,0.6c4.3,4.5,11.4,10.5,23.6,10.5c13.5,0,23-8.8,23-21.4c0-7-3.5-13-9.4-16.6H34.8V66.7z"/>
    <path class="os-numbers-4" d="M64.5,45.3c0-11-8.3-18.4-20.7-18.4c-7.3,0-14,3-20.2,9.1l-0.7,0.7l4.3,4.9l0.8-0.8c4.6-4.9,10.3-7.6,15.8-7.6
		                  c8.2,0,13.5,4.9,13.5,12.4c0,9.6-7.5,14.7-21.5,14.7h-1v1.1h20.9C61.4,57.8,64.5,52.3,64.5,45.3z"/>
    <polygon class="os-numbers-4" points="123.4,96 106.5,96 106.5,102.4 146.1,102.4 146.1,96 130.5,96 130.5,65.7 123.4,65.7 	"/>
    <path class="os-numbers-4" d="M130.5,28.3h-5.3l-0.2,0.1c-3.5,2-8,3.4-13.5,4.4l-0.8,0.1v5.2h12.9v23.2h7.1V28.3z"/>
    <path class="os-numbers-4" d="M197.5,45.6c0-7.2,5.4-12.4,12.9-12.4c8.1,0,13.8,5.7,13.8,13.8c0,5.1-2.5,10-7.5,14.5h8.1
		                  c3.4-4,6.2-9.2,6.2-14.6c0-11.9-8.2-19.8-20.5-19.8c-11.3,0-19.8,8-19.8,18.6c0,7.3,4.3,12.5,8.7,15.9H213
		                  C204.1,57.7,197.5,53.8,197.5,45.6z"/>
    <path class="os-numbers-4" d="M206.1,65.9c10.8,4.2,20.1,7.9,20.1,17.9c0,8-6.6,13.8-15.8,13.8c-9.6,0-16.9-6.4-16.9-14.9
		                  c0-6.6,3.9-12.3,11.7-17h-9.6c-4.3,3.6-9.1,9.3-9.1,17.2c0,11.9,10.3,20.8,23.9,20.8c13.3,0,22.9-8.3,22.9-19.8
		                  c0-9.4-5.7-14.4-11.5-18.2h-16.3L206.1,65.9z"/>
    <path class="os-numbers-4" d="M283.8,66.7h1c20,0,24.1,8.5,24.1,15.7c0,8.8-6.5,14.9-15.8,14.9c-9.8,0-15.2-4.5-19.2-8.9l-0.8-0.9l-4.2,5.1
		                  l0.6,0.6c4.3,4.5,11.4,10.5,23.6,10.5c13.5,0,23-8.8,23-21.4c0-7-3.5-13-9.4-16.6h-22.9V66.7z"/>
    <path class="os-numbers-4" d="M313.6,45.3c0-11-8.3-18.4-20.7-18.4c-7.3,0-14,3-20.2,9.1l-0.7,0.7l4.3,4.9l0.8-0.8
		                  c4.6-4.9,10.3-7.6,15.8-7.6c8.2,0,13.5,4.9,13.5,12.4c0,9.6-7.5,14.7-21.5,14.7h-1v1.1h20.9C310.5,57.8,313.6,52.3,313.6,45.3z"/>
    <path class="os-numbers-4" d="M372.7,97.3c-4.5,0-8.6-2-11.5-5.6l-0.7-0.9l-4.4,4.9l0.6,0.7c4.2,4.9,9.6,7.3,16,7.3c7.9,0,14.6-3.3,19.3-9.5
		                  c5-6.5,7.7-16.1,8.1-28.6h-7C392.2,86.1,385.1,97.3,372.7,97.3z"/>
    <path class="os-numbers-4" d="M376.5,67.6c-3.3,0-5.9-0.7-7.9-1.9h-9.8c3.5,5.2,9.3,8.1,17,8.1c5.9,0,11.9-2.9,17-8.1h-9.3
		                  C381.1,66.9,378.8,67.6,376.5,67.6z"/>
    <path class="os-numbers-4" d="M361.8,50.4c0-9.8,5.8-17.2,13.5-17.2c13.9,0,17,14.9,17.6,24.1c-1.2,1.5-2.4,2.9-3.7,4.1H400
		                  c-0.1-21.6-9.2-34.5-24.4-34.5c-11.6,0-20.7,10.3-20.7,23.4c0,4.2,0.6,7.9,1.8,11h7.7C362.3,58,361.8,53.6,361.8,50.4z"/>
    <path class="os-numbers-4" d="M445.8,50.4c0-9.8,5.8-17.2,13.5-17.2c13.9,0,17,14.9,17.6,24.1c-1.2,1.5-2.4,2.9-3.7,4.1H484
		                  c-0.1-21.6-9.2-34.5-24.4-34.5c-11.6,0-20.7,10.3-20.7,23.4c0,4.2,0.6,7.9,1.8,11h7.7C446.3,58,445.8,53.6,445.8,50.4z"/>
    <path class="os-numbers-4" d="M460.5,67.6c-3.3,0-5.9-0.7-7.9-1.9h-9.8c3.5,5.2,9.3,8.1,17,8.1c5.9,0,11.9-2.9,17-8.1h-9.3
		                  C465.1,66.9,462.8,67.6,460.5,67.6z"/>
    <path class="os-numbers-4" d="M456.7,97.3c-4.5,0-8.6-2-11.5-5.6l-0.7-0.9l-4.4,4.9l0.6,0.7c4.2,4.9,9.6,7.3,16,7.3c7.9,0,14.6-3.3,19.3-9.5
		                  c5-6.5,7.7-16.1,8.1-28.6h-7C476.2,86.1,469.1,97.3,456.7,97.3z"/>
  </g>
  <path class="os-numbers-5" d="M360.3,73.9c0.4,3.5,1.2,6.7,2.4,9.7c1.2,3,3,5.5,5.3,7.5c2.3,2,5.5,3,9.3,3c3.9,0,7-1,9.3-3
	                        c2.3-2,4.1-4.5,5.3-7.5c1.2-3,2-6.3,2.4-9.7c0.3-2.9,0.5-5.7,0.6-8.2h-35.2C359.8,68.3,360,71,360.3,73.9z"/>
  <path class="os-numbers-5" d="M392,44.8c-1.2-3-3-5.5-5.3-7.5c-2.3-2-5.5-3-9.3-3c-3.9,0-7,1-9.3,3c-2.3,2-4.1,4.5-5.3,7.5
	                        c-1.2,3-2,6.2-2.4,9.7c-0.3,2.4-0.4,4.7-0.5,6.9h35.1c-0.1-2.1-0.3-4.4-0.5-6.9C394,51.1,393.2,47.8,392,44.8z"/>
  <g>
    <path class="os-numbers-5" d="M195.4,70.4c-0.8,2.2-1.1,4.6-1.1,7.2c0,2.5,0.3,4.8,1,7c0.7,2.2,1.7,4.1,3.1,5.8c1.4,1.6,3.2,2.9,5.4,3.8
		                  c2.2,0.9,4.8,1.4,7.9,1.4c2.5,0,4.8-0.5,6.9-1.4c2-1,3.8-2.3,5.3-3.9c1.5-1.6,2.6-3.6,3.4-5.8c0.8-2.2,1.2-4.5,1.2-6.9
		                  c0-2.5-0.4-4.9-1.1-7.2c-0.6-1.9-1.5-3.5-2.6-5h-26.7C197,66.9,196.1,68.5,195.4,70.4z"/>
    <path class="os-numbers-5" d="M461.5,59.1c-2.7,0-5.2,0.5-7.4,1.5c-0.6,0.3-1.1,0.5-1.7,0.8h17.8c-0.5-0.3-1-0.6-1.6-0.8
		                  C466.6,59.6,464.2,59.1,461.5,59.1z"/>
    <path class="os-numbers-5" d="M294,58.3c-3.2,0-6.2,0.7-8.9,2.1c-0.6,0.3-1.1,0.6-1.6,1h20.8c-1-0.7-2-1.2-3.1-1.7
		                  C299,58.8,296.6,58.3,294,58.3z"/>
    <path class="os-numbers-5" d="M211.7,59.1c-2.7,0-5.2,0.5-7.4,1.5c-0.6,0.3-1.1,0.5-1.7,0.8h17.8c-0.5-0.3-1-0.6-1.6-0.8
		                  C216.7,59.6,214.4,59.1,211.7,59.1z"/>
  </g>
  <g>
    <g>
      <path class="os-numbers-6" d="M21.8,66.7c0,1.6-0.9,2.9-2,2.9s-2-1.3-2-2.9V59c0-1.6,0.9-2.9,2-2.9s2,1.3,2,2.9V66.7z"/>
    </g>
    <g>
      <path class="os-numbers-6" d="M69.5,66.7c0,1.6-0.9,2.9-2,2.9s-2-1.3-2-2.9V59c0-1.6,0.9-2.9,2-2.9s2,1.3,2,2.9V66.7z"/>
    </g>
  </g>
  <g>
    <g>
      <path class="os-numbers-6" d="M104.4,66.7c0,1.6-0.9,2.9-2,2.9c-1.1,0-2-1.3-2-2.9V59c0-1.6,0.9-2.9,2-2.9c1.1,0,2,1.3,2,2.9V66.7z"/>
    </g>
    <g>
      <path class="os-numbers-6" d="M152.1,66.7c0,1.6-0.9,2.9-2,2.9c-1.1,0-2-1.3-2-2.9V59c0-1.6,0.9-2.9,2-2.9c1.1,0,2,1.3,2,2.9V66.7z"/>
    </g>
  </g>
  <g>
    <g>
      <path class="os-numbers-6" d="M271.1,66.7c0,1.6-0.9,2.9-2,2.9s-2-1.3-2-2.9V59c0-1.6,0.9-2.9,2-2.9s2,1.3,2,2.9V66.7z"/>
    </g>
    <g>
      <path class="os-numbers-6" d="M318.8,66.7c0,1.6-0.9,2.9-2,2.9s-2-1.3-2-2.9V59c0-1.6,0.9-2.9,2-2.9s2,1.3,2,2.9V66.7z"/>
    </g>
  </g>
  <g>
    <g>
      <path class="os-numbers-6" d="M355.2,66.7c0,1.6-0.9,2.9-2,2.9s-2-1.3-2-2.9V59c0-1.6,0.9-2.9,2-2.9s2,1.3,2,2.9V66.7z"/>
    </g>
    <g>
      <path class="os-numbers-6" d="M402.9,66.7c0,1.6-0.9,2.9-2,2.9c-1.1,0-2-1.3-2-2.9V59c0-1.6,0.9-2.9,2-2.9c1.1,0,2,1.3,2,2.9V66.7z"/>
    </g>
  </g>
  <g>
    <g>
      <path class="os-numbers-6" d="M438.5,66.7c0,1.6-0.9,2.9-2,2.9c-1.1,0-2-1.3-2-2.9V59c0-1.6,0.9-2.9,2-2.9c1.1,0,2,1.3,2,2.9V66.7z"/>
    </g>
    <g>
      <path class="os-numbers-6" d="M486.3,66.7c0,1.6-0.9,2.9-2,2.9c-1.1,0-2-1.3-2-2.9V59c0-1.6,0.9-2.9,2-2.9c1.1,0,2,1.3,2,2.9V66.7z"/>
    </g>
  </g>
  <g>
    <g>
      <path class="os-numbers-6" d="M187.7,66.7c0,1.6-0.9,2.9-2,2.9c-1.1,0-2-1.3-2-2.9V59c0-1.6,0.9-2.9,2-2.9c1.1,0,2,1.3,2,2.9V66.7z"/>
    </g>
    <g>
      <path class="os-numbers-6" d="M235.5,66.7c0,1.6-0.9,2.9-2,2.9c-1.1,0-2-1.3-2-2.9V59c0-1.6,0.9-2.9,2-2.9c1.1,0,2,1.3,2,2.9V66.7z"/>
    </g>
  </g>
</svg>
