<svg x="0px" y="0px" viewBox="-452 372.7 118.2 24.3" style="enable-background:new -452 372.7 118.2 24.3;" xml:space="preserve">
  <style type="text/css">
    .customer-engineyard{fill:#EB252C;}
  </style>
  <g>
    <g>
      <polygon class="customer-engineyard" points="-452,376.9 -443.5,376.9 -443.5,379.5 -448.9,379.5 -448.9,383 -443.6,383 -443.6,385.7
			           -448.9,385.7 -448.9,389.4 -443.5,389.4 -443.5,392.1 -452,392.1 		"/>
      <g>
	<path class="customer-engineyard" d="M-441.6,380.8h2.6c0,0.5,0,1,0,1.5c0.5-0.9,1.5-1.9,3.5-1.8c3.7,0,4.4,2.8,4.4,4.8v6.8h-2.7V386
			     c0-1.7-0.6-3-2.4-3c-1.9,0-2.6,1.3-2.6,2.9v6.2h-2.7v-11.3H-441.6z"/>
	<path class="customer-engineyard" d="M-417.4,390.7c0,1.8-0.3,3-1,4c-1,1.3-2.9,2.3-5.2,2.3c-3.5,0-5.2-2.1-5.6-3.8h3.1c0.2,0.5,0.7,0.9,1.2,1.2
			     c0.6,0.3,1.2,0.4,1.5,0.4c1.6,0,3.3-1.1,3.3-3.4v-0.9c-0.6,1-1.7,2-3.7,2c-3.2,0-5.8-2.5-5.8-5.9c0-3.7,2.6-6,5.8-6
			     c1.6,0,3,0.7,3.7,1.8v-1.6h2.7V390.7z M-426.9,386.4c0,2,1.4,3.5,3.4,3.5c1,0,1.8-0.3,2.4-1c0.6-0.6,0.9-1.4,1-2.4
			     c0-0.9-0.3-1.8-0.8-2.4c-0.5-0.7-1.4-1.1-2.5-1.1C-425.3,383-426.9,384.4-426.9,386.4L-426.9,386.4z"/>
	<rect x="-415.2" y="380.8" class="customer-engineyard" width="2.7" height="11.3"/>
	<path class="customer-engineyard" d="M-410.3,380.8h2.5c0,0.5,0,1,0,1.5c0.5-0.9,1.5-1.9,3.5-1.8c3.7,0,4.4,2.8,4.4,4.8v6.8h-2.7V386
			     c0-1.7-0.6-3-2.4-3c-1.9,0-2.6,1.3-2.6,2.9v6.2h-2.7V380.8z"/>
	<path class="customer-engineyard" d="M-396.1,387.3c0.1,1.8,1.7,2.8,3.3,2.8c1.3,0,2.2-0.6,2.7-1.5h2.8c-0.5,1.3-1.3,2.2-2.3,2.8
			     c-0.9,0.7-2.1,1-3.2,1c-3.5,0-6-2.8-6-6c0-3.2,2.5-6,5.9-6c1.7,0,3.2,0.6,4.2,1.7c1.4,1.4,1.9,3.2,1.7,5.2
			     C-387,387.3-396.1,387.3-396.1,387.3z M-389.7,385.3c-0.1-1.1-1.2-2.6-3.2-2.5c-2,0-3.1,1.4-3.2,2.5H-389.7z"/>
	<polygon class="customer-engineyard" points="-376.9,386.6 -381.5,376.9 -378.2,376.9 -375.4,383.8 -372.5,376.9 -369.2,376.9 -373.8,386.6
				     -373.8,392.1 -376.9,392.1 			"/>
	<path class="customer-engineyard" d="M-358.5,392.1h-2.7v-1.6c-0.7,1.3-2.2,2-3.8,2c-3.6,0-5.7-2.8-5.7-6c0-3.6,2.6-6,5.7-6c2.1,0,3.3,1.1,3.8,2
			     v-1.7h2.7V392.1z M-368,386.5c0,1.4,1,3.4,3.4,3.4c1.5,0,2.5-0.8,3-1.8c0.3-0.5,0.4-1,0.4-1.6c0-0.5-0.1-1.1-0.3-1.6
			     c-0.5-1.1-1.5-2-3.1-2C-366.8,382.9-368,384.7-368,386.5L-368,386.5z"/>
	<path class="customer-engineyard" d="M-356.2,380.8h2.5v1.5c0.5-1,1.4-1.8,3.1-1.8v2.7h-0.1c-1.9,0-2.9,0.9-2.9,2.8v6.1h-2.7L-356.2,380.8
			     L-356.2,380.8z"/>
	<path class="customer-engineyard" d="M-338.3,392.1h-2.6v-1.6c-0.5,0.8-1.6,2-3.9,2c-3.5,0-5.7-2.7-5.7-6c0-3.7,2.6-6,5.7-6
			     c2.2,0,3.4,1.2,3.8,1.8v-1.7v-3.7h2.7V392.1z M-347.8,386.4c0,1.9,1.4,3.5,3.5,3.5c1,0,1.9-0.4,2.5-1c0.6-0.6,1-1.5,1-2.5
			     s-0.4-1.8-1-2.4c-0.6-0.6-1.5-1-2.4-1C-346.5,382.9-347.8,384.6-347.8,386.4L-347.8,386.4z"/>
	<path class="customer-engineyard" d="M-418,377.1h2.5l2.1,2.1v-3.9c0-0.8-0.7-1.5-1.5-1.5c-0.4,0-0.7,0.1-1,0.3c-0.3-0.8-1.1-1.4-2.1-1.4
			     c-1.2,0-2.2,1-2.2,2.2C-420.2,376.1-419.2,377.1-418,377.1"/>
	<path class="customer-engineyard" d="M-336.8,377.2h-0.4v-0.3h1.2v0.3h-0.4v1.4h-0.4C-336.8,378.6-336.8,377.2-336.8,377.2z M-335.8,376.9h0.5
			     l0.5,1.2l0.5-1.2h0.5v1.7h-0.4v-1.3l-0.5,1.3h-0.3l-0.5-1.3v1.3h-0.4v-1.7H-335.8z"/>
      </g>
    </g>
  </g>
</svg>
