<?xml version="1.0" encoding="utf-8"?>
<svg x="0px" y="0px" viewBox="0 0 75 16" xmlns="http://www.w3.org/2000/svg" xmlns:bx="https://boxy-svg.com">
  <style type="text/css">
    .customer-moz{fill:#23AAE1;}
  </style>
  <path d="M 56.812 10.403 L 64.867 1.911 L 48.281 1.911 C 47.961 1.922 47.703 2.179 47.686 2.498 L 47.686 4.211 C 46.139 1.703 43.104 0 39.614 0 C 35.055 0 31.272 2.909 30.571 6.718 L 30.571 1.907 L 27.68 1.907 C 27.02 1.92 26.391 2.201 25.943 2.686 L 20.348 8.904 L 14.757 2.686 C 14.309 2.201 13.681 1.918 13.017 1.907 L 10.132 1.907 L 10.132 14.319 L 13.505 14.319 C 13.827 14.299 14.081 14.04 14.095 13.717 L 14.095 13.717 L 14.095 7.892 L 20.347 14.856 L 26.588 7.892 L 26.588 13.717 C 26.6 14.043 26.858 14.306 27.182 14.321 L 30.557 14.321 L 30.557 9.28 C 31.259 13.09 35.04 16 39.601 16 C 44.662 16 48.766 12.419 48.766 7.999 C 48.768 7.263 48.652 6.533 48.429 5.832 L 55.737 5.832 L 47.705 14.324 L 64.274 14.324 C 64.596 14.312 64.854 14.056 64.868 13.736 L 64.868 13.736 L 64.868 10.403 Z M 39.612 11.973 C 37.1 11.973 35.062 10.194 35.062 7.999 C 35.062 5.805 37.099 4.024 39.612 4.024 C 42.128 4.024 44.166 5.805 44.166 7.999 C 44.166 10.194 42.128 11.973 39.612 11.973 Z" fill="#4dbdeb" bx:origin="0 0"/>
</svg>
