<svg x="0px" y="0px" viewBox="-452 373.4 118 22.6" style="enable-background:new -452 373.4 118 22.6;" xml:space="preserve">
  <style type="text/css">
    .customer-bittorrent{fill:#7665AC;}
  </style>
  <g>
    <g id="_x35_QXV45_1_">
      <g>
	<g>
	  <path class="customer-bittorrent" d="M-425.2,377.5c2.3,0,4.7,0,7,0c0.7,0,1.3,0.1,2,0.3c1.3,0.5,2,1.5,2.1,2.8c0.1,1.4-0.4,2.5-1.7,3.2
			       c0,0.1,0.1,0.1,0.1,0.1c1.9,0.7,2.4,2.4,2.2,4c-0.2,2-1.5,3.2-3.7,3.5c-0.3,0.1-0.6,0.1-0.9,0.1c-2.3,0-4.5,0-6.8,0
			       c-0.1,0-0.2,0-0.3,0C-425.2,386.9-425.2,382.2-425.2,377.5z M-420.1,389.2c0.5,0,1,0,1.5,0c0.6,0,1.2-0.1,1.6-0.6
			       c0.9-1.1,0.3-2.8-1.1-3c-1.2-0.2-2.5-0.1-3.7-0.1c-0.2-0.1-0.2,0.1-0.2,0.2c0,1,0,2,0,3c0,0.3,0.1,0.4,0.4,0.4
			       C-421.1,389.1-420.6,389.2-420.1,389.2z M-420.2,380.1L-420.2,380.1c-0.5,0-1,0-1.5,0c-0.3,0-0.4,0.1-0.4,0.4c0,0.8,0,1.6,0,2.4
			       c0,0.3,0.1,0.4,0.4,0.4c0.9,0,1.8,0,2.8,0c0.4,0,0.9-0.1,1.2-0.4c0.5-0.4,0.7-1.1,0.5-1.7c-0.2-0.6-0.7-1-1.4-1
			       C-419.1,380-419.6,380.1-420.2,380.1z"/>
	  <path class="customer-bittorrent" d="M-362.8,391.9c-0.7-0.1-1.4-0.3-2.1-0.6c-1.4-0.8-2.1-2-2.4-3.5c-0.3-1.8,0-3.5,1.2-4.9
			       c1.1-1.3,2.6-1.7,4.2-1.7c2.9,0.1,4.5,2.6,4.6,5.2c0,1.1,0.1,0.9-0.9,0.9c-1.9,0-3.9,0-5.8,0c-0.5,0-0.5,0-0.5,0.5
			       c0.2,1.1,0.7,1.7,1.7,1.9c1.2,0.2,2.2-0.1,2.7-1c0.1-0.2,0.2-0.3,0.5-0.3c0.6,0,1.2,0,1.8,0c0.3,0,0.3,0.1,0.3,0.4
			       c-0.6,1.8-1.9,2.8-3.7,3c-0.1,0-0.2,0-0.3,0.1C-362,391.9-362.4,391.9-362.8,391.9z M-362.4,385.4c0.6,0,1.2,0,1.9,0
			       c0.2,0,0.4,0,0.3-0.3c-0.3-1.1-0.8-1.7-1.9-1.7c-1.2,0-2.1,0.6-2.4,1.6c-0.1,0.3,0,0.4,0.3,0.4
			       C-363.6,385.4-363,385.4-362.4,385.4z"/>
	  <path class="customer-bittorrent" d="M-388.3,391.9c-0.5-0.1-1-0.2-1.4-0.3c-1.4-0.5-2.4-1.4-2.9-2.8c-0.6-1.6-0.6-3.2,0.1-4.7
			       c0.6-1.4,1.6-2.2,3-2.7c1.4-0.4,2.8-0.4,4.2,0.2c1.2,0.5,2,1.4,2.5,2.6c0.6,1.5,0.6,3.1,0,4.6c-0.7,1.8-2.1,2.8-4,3
			       c-0.1,0-0.2,0-0.3,0.1C-387.5,391.9-387.9,391.9-388.3,391.9z M-390.1,386.5c0,0.4,0,0.9,0.1,1.3c0.2,1.1,1,1.8,1.8,1.9
			       c1.3,0.1,2.2-0.3,2.5-1.4c0.4-1.2,0.4-2.5,0-3.7c-0.3-0.8-1-1.2-1.8-1.3c-0.9-0.1-1.7,0.2-2.2,1.1
			       C-390,385.1-390.1,385.8-390.1,386.5z"/>
	  <path class="customer-bittorrent" d="M-334,383.3c-0.4,0-0.4,0-0.5-0.9c-0.1,0.2-0.2,0.4-0.2,0.6c-0.1,0.2-0.2,0.3-0.4,0.3
			       c-0.2,0-0.3-0.1-0.4-0.3c-0.1-0.2-0.1-0.3-0.3-0.4c0,0.1,0,0.3,0,0.4c0,0.2,0,0.4-0.3,0.4s-0.3-0.2-0.3-0.4c0-0.4,0-0.7,0-1.1
			       c0-0.2,0-0.4,0.2-0.4s0.5,0,0.6,0.2c0.1,0.3,0.2,0.5,0.4,0.9c0.3-0.5,0.3-1.3,1.2-1.1C-334,382.1-334,382.7-334,383.3z"/>
	  <path class="customer-bittorrent" d="M-397.6,385.9c0-1.7,0-3.5,0-5.2c0-0.4-0.1-0.5-0.5-0.5c-1,0-2,0-3.1,0c-0.3,0-0.5-0.1-0.4-0.4
			       c0-0.6,0-1.2,0-1.8c0-0.3,0.1-0.4,0.4-0.4c3.5,0,6.9,0,10.4,0c0.3,0,0.4,0.1,0.4,0.4c0,0.6,0,1.2,0,1.9c0,0.3-0.1,0.4-0.4,0.4
			       c-1,0-2,0-3,0c-0.5,0-0.5,0-0.5,0.5c0,3.4,0,6.8,0,10.2c0,0.6,0,0.6-0.6,0.6c-0.7,0-1.4,0-2.2,0c-0.3,0-0.4-0.1-0.4-0.4
			       C-397.6,389.4-397.6,387.7-397.6,385.9z"/>
	  <path class="customer-bittorrent" d="M-353.2,382.6c0.8-1,1.7-1.4,2.9-1.5c1.3-0.1,2.5,0.1,3.3,1.3c0.4,0.6,0.6,1.3,0.6,2.1c0,2.2,0,4.5,0,6.7
			       c0,0.3-0.1,0.4-0.4,0.4c-0.7,0-1.4,0-2,0c-0.3,0-0.4-0.1-0.4-0.4c0-1.8,0-3.6,0-5.4c0-0.5-0.1-1-0.2-1.5c-0.2-0.5-0.5-0.8-1-0.9
			       c-1.7-0.3-2.5,0.6-2.6,2.3c-0.1,1.7,0,3.5,0,5.2c0,0.6,0,0.6-0.6,0.6c-0.6,0-1.2,0-1.9,0c-0.3,0-0.4-0.1-0.4-0.4
			       c0-3.1,0-6.3,0-9.4c-0.1-0.2,0-0.3,0.3-0.3c0.7,0,1.3,0,2,0c0.3,0,0.4,0.1,0.4,0.4C-353.3,382.1-353.2,382.4-353.2,382.6z"/>
	  <path class="customer-bittorrent" d="M-343.7,386.7c0-1,0-2,0-3c0-0.3-0.1-0.4-0.4-0.4c-0.3,0-0.7,0-1,0c-0.2,0-0.3-0.1-0.3-0.3
			       c0-0.4,0-0.9,0-1.3c0-0.2,0.1-0.3,0.3-0.3c0.3,0,0.7,0,1,0c0.3,0,0.4-0.1,0.4-0.4c0-0.7,0-1.5,0-2.2c0-0.3,0.1-0.4,0.4-0.4
			       c0.7,0,1.4,0,2.1,0c0.3,0,0.4,0.1,0.4,0.4c0,0.7,0,1.5,0,2.2c0,0.3,0.1,0.4,0.4,0.4c0.4,0,0.8,0,1.3,0c0.3,0,0.4,0.1,0.4,0.4
			       c0,0.4,0,0.8,0,1.2c0,0.3-0.1,0.4-0.4,0.4c-0.4,0-0.9,0-1.3,0c-0.2,0-0.3,0.1-0.3,0.3c0,1.6,0,3.2,0,4.7c0,0.8,0.3,1,1.1,1
			       c0.4,0,0.8,0,1.2-0.1c0.3,0,0.4,0,0.4,0.4c0,0.5,0,1,0,1.6c0,0.2-0.1,0.3-0.3,0.3c-1.1,0-2.2,0.2-3.4-0.1
			       c-1.2-0.2-1.8-1-1.8-2.2v-0.1C-343.7,388.5-343.7,387.6-343.7,386.7z"/>
	  <path class="customer-bittorrent" d="M-406.3,386.7c0-0.9,0-1.8,0-2.8c0-0.5,0-0.5-0.5-0.5c-0.3,0-0.6,0-0.8,0c-0.2,0-0.4-0.1-0.4-0.3
			       c0-0.4,0-0.9,0-1.3c0-0.3,0.1-0.4,0.3-0.4c0.3,0,0.7,0,1,0c0.3,0,0.4-0.1,0.4-0.4c0-0.7,0-1.5,0-2.2c0-0.3,0.1-0.4,0.4-0.4
			       c0.7,0,1.4,0,2,0c0.3,0,0.4,0.1,0.4,0.4c0,0.7,0,1.5,0,2.2c0.1,0.3,0.2,0.4,0.5,0.4c0.4,0,0.9,0,1.3,0c0.2,0,0.3,0.1,0.3,0.3
			       c0,0.4,0,0.8,0,1.2c0,0.3-0.1,0.4-0.4,0.4c-0.4,0-0.9,0-1.3,0c-0.3,0-0.4,0.1-0.4,0.4c0,1.5,0,3.1,0,4.6c0,0.9,0.3,1.1,1.2,1.1
			       c0.4,0,0.7,0,1.1-0.1c0.3,0,0.4,0,0.4,0.4c0,0.5,0,1,0,1.6c0,0.2-0.1,0.4-0.3,0.4c-1.1,0-2.2,0.2-3.3,0c-1.3-0.3-1.9-1-1.9-2.3
			       C-406.3,388.5-406.3,387.6-406.3,386.7z"/>
	  <path class="customer-bittorrent" d="M-378.5,383.1c0.7-1.1,1.6-1.8,2.9-1.9c0.3,0,0.4,0.1,0.4,0.4c0,0.7,0,1.3,0,2c0,0.2,0,0.3-0.3,0.3
			       c-2.2-0.1-2.9,1.3-2.9,3c0,1.4,0,2.8,0,4.3c0,0.5,0,0.5-0.5,0.5c-0.6,0-1.2,0-1.9,0c-0.5,0-0.5,0-0.5-0.5c0-2.8,0-5.5,0-8.3
			       c0-0.3,0-0.7,0-1s0.1-0.4,0.4-0.4c0.7,0,1.3,0,2,0c0.3,0,0.4,0.1,0.4,0.4C-378.5,382.3-378.5,382.7-378.5,383.1z"/>
	  <path class="customer-bittorrent" d="M-371.2,383.2c0.5-1,1.2-1.6,2.1-1.9c0.3-0.1,0.6-0.1,0.9-0.2c0.2,0,0.3,0.1,0.3,0.3c0,0.7,0,1.4,0,2.1
			       c0,0.2-0.1,0.3-0.3,0.3c-0.3,0-0.7,0-1,0.1c-1,0.2-1.5,0.9-1.7,1.8c-0.1,0.5-0.2,1-0.2,1.5c0,1.3,0,2.6,0,3.9
			       c0,0.4-0.1,0.5-0.5,0.5c-0.6,0-1.2,0-1.8,0s-0.6,0-0.6-0.5c0-2.7,0-5.5,0-8.2c0-0.4,0-0.7,0-1.1c0-0.3,0.1-0.4,0.3-0.4
			       c0.7,0,1.3,0,2,0c0.2,0,0.3,0.1,0.3,0.3C-371.2,382.2-371.2,382.6-371.2,383.2z"/>
	  <path class="customer-bittorrent" d="M-411.8,386.5c0-1.5,0-3.1,0-4.6c0-0.4,0.1-0.5,0.5-0.5c0.7,0,1.3,0,2,0c0.3,0,0.4,0.1,0.4,0.4
			       c0,3.2,0,6.3,0,9.5c0,0.3-0.1,0.4-0.4,0.4c-0.7,0-1.4,0-2.1,0c-0.3,0-0.4-0.1-0.4-0.4C-411.8,389.6-411.8,388.1-411.8,386.5z"/>
	  <path class="customer-bittorrent" d="M-410.4,379.9c-0.4,0-0.7,0-1.1,0c-0.2,0-0.3-0.1-0.3-0.3c0-0.6,0-1.2,0-1.7c0-0.2,0.1-0.3,0.3-0.3
			       c0.7,0,1.5,0,2.2,0c0.2,0,0.3,0.1,0.3,0.3c0,0.6,0,1.2,0,1.7c0,0.2-0.1,0.3-0.3,0.3C-409.6,379.9-410,379.9-410.4,379.9z"/>
	  <path class="customer-bittorrent" d="M-337.4,381.4c0.2,0,0.4,0,0.6,0c0.1,0,0.2,0.1,0.2,0.2c0,0.2-0.1,0.3-0.2,0.3c-0.4,0-0.4,0.2-0.4,0.5
			       c0,0.2,0,0.4,0,0.6c0,0.2-0.1,0.3-0.2,0.3c-0.2,0-0.3-0.1-0.3-0.3c0-0.2,0-0.5,0-0.7c0-0.2-0.1-0.4-0.3-0.4s-0.3-0.1-0.3-0.3
			       c0-0.2,0.1-0.2,0.3-0.2C-337.9,381.4-337.7,381.4-337.4,381.4C-337.5,381.4-337.4,381.4-337.4,381.4z"/>
	</g>
      </g>
    </g>
    <path class="customer-bittorrent" d="M-439.8,373.4c0.7,0.1,1.4,0.2,2.2,0.4c4.5,1.1,8,5.1,8.5,9.7c0.4,3.2-0.4,6-2.4,8.5c-0.2,0.2-0.4,0.3-0.7,0.4
		         c-1.3,0.2-2.7,0.3-4.1,0.2c-1.5-0.1-2.9-0.2-4.2-0.9c-1-0.5-2-1.3-2.5-2.6c-0.8-2.2,0.5-5,3.5-5.1c1.3,0,2.3,0.5,3.1,1.6
		         c0.2,0.3,0.3,0.3,0.6,0.1c0.2-0.2,0.5-0.3,0.8-0.4s0.3-0.3,0.2-0.5c-1.7-2.6-5.5-3.2-7.9-1.2c-2.5,2-3,6.1,0,8.7
		         c1.4,1.2,3,1.7,4.7,2c1.3,0.2,2.6,0.1,3.9,0c0.1,0,0.3-0.1,0.4,0c0,0.2-0.2,0.1-0.3,0.1c-2.6,0.4-5.1,0.3-7.5-0.8
		         c-2-1-3.5-2.5-3.9-4.8c-0.4-1.9,0.1-3.6,1.4-5c1.8-2,4-2.5,6.5-1.8c0.2,0.1,0.3,0,0.4-0.2c0.1-0.4,0.2-0.7,0.4-1
		         c0.1-0.3,0.1-0.4-0.2-0.5c-0.9-0.3-1.8-0.5-2.8-0.4c-1.9,0.1-3.5,0.7-4.9,1.9c-1.8,1.6-2.9,3.5-2.8,6c0.2,3.4,2.4,6.5,6,7.5
		         c1.3,0.3,2.5,0.5,3.9,0.5c0.1,0,0.3,0,0.4,0c0,0,0,0,0.1,0.1c-0.4,0.2-0.9,0.1-1.3,0.1c-1.7-0.1-3.3-0.3-4.8-1.1
		         c-2.8-1.4-4.4-3.7-4.8-6.8c-0.5-3.8,2.4-7.5,5.9-8.5c0.7-0.2,1.4-0.3,2.1-0.4c0.3,0,0.4-0.2,0.4-0.4c0-0.3,0-0.6,0-0.8
		         c0-0.3-0.1-0.4-0.4-0.4c-0.9,0-1.7,0.2-2.5,0.4c-4.3,1.4-6.8,4.2-7.4,8.5c-0.5,3.6,1,6.4,4,8.4c0.2,0.1,0.4,0.2,0.5,0.4
		         c-0.2,0.1-0.3,0-0.4-0.1c-3.3-1.8-5.4-4.6-6.1-8.3c-0.6-3.8,0.4-7.2,3.1-10c2-2,4.4-3.2,7.2-3.4c0.1,0,0.2,0,0.3-0.1
		         C-440.7,373.4-440.2,373.4-439.8,373.4z"/>
  </g>
</svg>
