<svg x="0px" y="0px" viewBox="-476 374.6 70 20.4" style="enable-background:new -476 374.6 70 20.4;" xml:space="preserve">
  <style type="text/css">
    .customer-moz{fill:#23AAE1;}
  </style>
  <g id="xpbVXC_1_">
    <g>
      <path class="customer-moz" d="M-439.7,374.6c0.9,0,1.9,0,2.8,0c0.2,0,0.4,0.1,0.6,0.1c3.2,0.5,5.9,2,7.9,4.6c0.1,0.1,0.1,0.3,0.4,0.2
			   c0-0.4,0-0.8,0-1.2c0-1,0.3-1.3,1.2-1.3c3.6,0,7.2,0,10.8,0c3.3,0,6.7,0,10,0v0.1c-0.2,0.2-0.4,0.4-0.6,0.6
			   c-2.9,3-5.8,6.1-8.7,9.2c-0.3,0.3-0.8,0.5-0.7,0.9c0.1,0.3,0.7,0.1,1.1,0.1c3,0,5.9,0,8.9,0c0,1.5,0,3,0,4.4
			   c-0.3,0.6-0.8,0.6-1.4,0.6c-6.5,0-13.1,0-19.6,0c-0.1,0-0.3,0-0.4,0c-0.3,0-0.4-0.1-0.2-0.4c0.1-0.1,0.2-0.2,0.2-0.3
			   c3.1-3.2,6.1-6.5,9.2-9.7c0.1-0.1,0.3-0.2,0.2-0.4h-0.1c-2.8,0-5.6,0-8.3,0c-0.5,0-0.4,0.3-0.4,0.6c0.3,1.3,0.4,2.6,0.1,3.9
			   c-0.7,3.2-2.6,5.4-5.4,6.9c-1.5,0.8-3.1,1.2-4.7,1.5c-1,0-2.1,0-3.2,0c-0.3-0.1-0.6-0.1-1-0.2c-2.8-0.6-5.2-1.9-7-4.1
			   c-0.8-1-1.4-2.2-1.9-3.5c0,0.2,0,0.4,0,0.6c0,1.5,0,2.9,0,4.4c0,0.5-0.2,0.7-0.7,0.7c-1,0-2.1,0-3.1,0c-1.1,0-1.4-0.3-1.4-1.3
			   c0-1.9,0-3.8,0-5.8c0-0.3,0.2-0.6-0.1-0.7c-0.2-0.1-0.4,0.3-0.5,0.5c-2.2,2.5-4.4,4.9-6.7,7.4c-0.6,0.6-0.6,0.6-1.2,0
			   c-2.3-2.5-4.5-5.1-6.8-7.6c-0.1-0.1-0.2-0.4-0.4-0.3c-0.2,0.1-0.1,0.3-0.1,0.5c0,2,0,4.1,0,6.1c0,0.9-0.3,1.2-1.2,1.2
			   c-1.3,0-2.6,0-4,0c0.1-5.3,0.1-10.6,0.1-15.8c1.1,0,2.3,0,3.4,0s1.9,0.4,2.6,1.1c0.8,0.9,1.6,1.8,2.4,2.6c1.4,1.6,2.8,3.1,4.3,4.7
			   c0.3,0.3,0.4,0.3,0.7,0c0.3-0.3,0.5-0.6,0.8-0.9c1.9-2.1,3.9-4.3,5.8-6.4c0.6-0.7,1.3-1.1,2.3-1.2c1.1,0,2.1,0,3.2,0
			   c0.5,0,0.7,0.2,0.6,0.7c0,1.4,0,2.8,0,4.2c0,0.2,0,0.3,0,0.6c1.2-3.6,3.6-5.9,7-7.1C-441.8,375-440.8,374.8-439.7,374.6z
			   M-438.3,389.9c1,0,1.9-0.2,2.8-0.7c1.8-0.9,2.9-2.3,2.9-4.3c0-1.9-0.9-3.3-2.5-4.2c-2.3-1.3-5.2-1.1-7.3,0.6
			   c-2.2,1.8-2.3,4.9-0.3,6.9C-441.5,389.3-440,389.8-438.3,389.9z"/>
    </g>
  </g>
</svg>
