<svg version="1.1" id="heroku-logo" xmlns="http://www.w3.org/2000/svg" xmlns:xlink="http://www.w3.org/1999/xlink" x="0px"
     y="0px" viewBox="-468 372.7 86.6 24.3" style="enable-background:new -468 372.7 86.6 24.3;" xml:space="preserve">
  <style type="text/css">
    .customer-heroku{fill:#6863A7;}
  </style>
  <g>
    <path class="customer-heroku" d="M-447.3,394.8c0,0.5-0.4,1-1,1h-17.5c-0.5,0-1-0.4-1-1v-20c0-0.5,0.4-1,1-1h17.5c0.5,0,1,0.4,1,1V394.8
		         L-447.3,394.8z M-448.3,372.7h-17.5c-1.2,0-2.2,1-2.2,2.2v20c0,1.2,1,2.2,2.2,2.2h17.5c1.2,0,2.2-1,2.2-2.2v-20
		         C-446.1,373.7-447.1,372.7-448.3,372.7L-448.3,372.7z"/>
    <polygon class="customer-heroku" points="-462.5,393.4 -459.8,390.9 -462.5,388.5 	"/>
    <path class="customer-heroku" d="M-452.6,383.5c-0.5-0.5-1.4-1.1-2.9-1.1c-1.6,0-3.3,0.4-4.6,0.8v-6.9h-2.4v10.6l1.7-0.8c0,0,2.8-1.3,5.3-1.3
		         c1.2,0,1.5,0.7,1.5,1.2v7.3h2.4V386C-451.6,385.9-451.6,384.6-452.6,383.5L-452.6,383.5z"/>
    <path class="customer-heroku" d="M-455.8,380.3h2.4c1.1-1.2,1.7-2.6,1.8-4h-2.4C-454.3,377.7-454.9,379-455.8,380.3L-455.8,380.3z"/>
    <polygon class="customer-heroku" points="-440.6,380.6 -438.2,380.6 -438.2,384 -435.2,384 -435.2,380.6 -432.8,380.6 -432.8,389.6
		                 -435.2,389.6 -435.2,386 -438.2,386 -438.2,389.6 -440.6,389.6 	"/>
    <polygon class="customer-heroku" points="-429.7,380.6 -423.3,380.6 -423.3,382.6 -427.2,382.6 -427.2,384.1 -424.4,384.1 -424.4,386
		                 -427.2,386 -427.2,387.6 -423.1,387.6 -423.1,389.6 -429.7,389.6 	"/>
    <path class="customer-heroku" d="M-417,384.6c1,0,1.4-0.3,1.4-1c0-0.8-0.4-1-1.4-1h-1v2H-417L-417,384.6z M-420.4,380.6h3.5
		         c2.3,0,3.7,0.8,3.7,2.9c0,1.4-0.6,2.2-1.8,2.6l1.9,3.4h-2.6l-1.7-3.1h-0.6v3.1h-2.4V380.6L-420.4,380.6z"/>
    <path class="customer-heroku" d="M-404.3,385.1c0-1.6-0.7-2.7-2-2.7c-1.3,0-2,1-2,2.7c0,1.6,0.7,2.7,2,2.7C-405,387.8-404.3,386.8-404.3,385.1
		         L-404.3,385.1z M-410.7,385.1c0-3.3,2.2-4.7,4.4-4.7c2.2,0,4.4,1.4,4.4,4.7c0,3.3-2.2,4.7-4.4,4.7
		         C-408.4,389.8-410.7,388.4-410.7,385.1L-410.7,385.1z"/>
    <polygon class="customer-heroku" points="-399.1,380.6 -396.7,380.6 -396.7,383.9 -394.2,380.6 -391.4,380.6 -394.4,384.2 -391.2,389.6
		                 -393.9,389.6 -396,386 -396.7,386.8 -396.7,389.6 -399.1,389.6 	"/>
    <path class="customer-heroku" d="M-388.9,386v-5.4h2.4v5.4c0,1.2,0.4,1.8,1.4,1.8s1.4-0.6,1.4-1.8v-5.4h2.4v5.4c0,2.4-1.1,3.7-3.8,3.7
		         C-387.8,389.7-388.9,388.4-388.9,386L-388.9,386z"/>
  </g>
</svg>
