<svg x="0px" y="0px" viewBox="0 0 105.2 24.3" style="enable-background:new 0 0 105.2 24.3;" xml:space="preserve">
  <style type="text/css">
    .customer-zendesk{fill-rule:evenodd;clip-rule:evenodd;fill:#78A300;}
  </style>
  <g>
    <path class="customer-zendesk" d="M16.5,0c0.9,1,1.5,2.2,1.7,3.6c0.2,1.4,0,2.8-0.8,4.1c-0.7-0.9-1.5-1.3-2.5-1.4c-0.3,0-0.7,0.1-0.8-0.1
		         C14,6.1,14.1,5.7,14,5.4c-0.1-0.7-0.2-1.4-0.5-2c-0.2-0.6-0.6-1.2-1-1.8c0.9-0.8,1.9-1.3,3.1-1.5c0.2,0,0.4-0.1,0.5-0.1
		         C16.3,0,16.4,0,16.5,0z"/>
    <path class="customer-zendesk" d="M67.7,22.6c-0.1,0-0.1,0.1-0.2,0.1c-2.5,2.6-6.5,1.9-8-1.4c-1.1-2.4-0.4-5.3,1.5-6.8c1.6-1.3,4.2-1.4,5.7-0.2
		         c0.3,0.3,0.6,0.5,1,0.8c0-0.2,0-0.3,0-0.5c0-1.8,0-3.6,0-5.4c0-1,0.8-1.6,1.7-1.1C69.9,8.3,70,8.7,70,9.1c0,2.8,0,5.6,0,8.4
		         c0,1.8,0,3.6,0,5.3c0,0.8-0.4,1.3-1.1,1.3c-0.7,0-1.1-0.4-1.2-1.2C67.8,22.8,67.8,22.7,67.7,22.6z M67.8,18.8c0-0.1,0-0.2,0-0.3
		         c0-1.6-1.2-3-2.7-3.1c-1.7-0.2-3.2,0.7-3.6,2.3c-0.1,0.5-0.2,1-0.1,1.6c0.1,2.1,2,3.5,4,3C66.9,21.9,67.8,20.6,67.8,18.8z"/>
    <path class="customer-zendesk" d="M98.1,17.6c0.3-0.2,0.4-0.3,0.6-0.4c1.4-1.1,2.8-2.1,4.1-3.2c0.1-0.1,0.2-0.2,0.3-0.3c0.5-0.4,1.1-0.3,1.5,0.1
		         c0.4,0.5,0.3,1-0.2,1.4c-0.7,0.5-1.4,1.1-2,1.6c-0.4,0.3-0.9,0.7-1.4,1.1c0.6,0.7,1.1,1.3,1.6,1.9c0.7,0.9,1.5,1.7,2.2,2.5
		         c0.3,0.4,0.4,0.8,0.2,1.3c-0.2,0.4-0.6,0.5-1,0.4c-0.3-0.1-0.5-0.3-0.8-0.5c-1.1-1.2-2.2-2.5-3.3-3.8c-0.5-0.6-0.5-0.5-1.1-0.1
		         c-0.5,0.4-0.8,0.8-0.7,1.4c0.1,0.6,0,1.2,0,1.8c0,0.7-0.5,1.2-1.1,1.2c-0.7,0-1-0.4-1-1.2c0-4.6,0-9.2,0-13.8
		         c0-0.8,0.5-1.3,1.1-1.3c0.6,0,1.1,0.5,1.1,1.3c0,2.6,0,5.1,0,7.7C98.1,17.1,98.1,17.3,98.1,17.6z"/>
    <path class="customer-zendesk" d="M78.5,19.5c-1.2,0-2.3,0-3.5,0c-0.4,0-0.5,0.1-0.4,0.5c0.3,1.4,1.5,2.4,2.9,2.4c1.3,0.1,2.3-0.3,3.3-1.2
		         c0.5-0.4,0.9-0.4,1.3,0c0.3,0.3,0.3,0.9-0.1,1.3c-1.7,1.6-3.7,2.1-5.9,1.5c-2.2-0.6-3.5-2.1-3.8-4.3c-0.6-3.9,2.4-6.3,5.2-6.3
		         c2.8,0,5,2.1,5.2,4.6c0,0.2,0.1,0.3,0.1,0.5c0.1,0.7-0.2,1-0.9,1C80.8,19.5,79.7,19.5,78.5,19.5z M74.7,17.9c0.1,0,0.2,0.1,0.2,0.1
		         c1.8,0,3.6,0,5.4,0c0.4,0,0.4-0.2,0.3-0.5c-0.6-2.4-3.3-2.8-4.8-1.7C75.1,16.3,74.7,17,74.7,17.9z"/>
    <path class="customer-zendesk" d="M40.7,19.5c-1.1,0-2.3,0-3.4,0c-0.4,0-0.5,0.1-0.4,0.5c0.2,1.3,1.5,2.3,2.8,2.4c1.3,0.1,2.5-0.3,3.5-1.2
		         c0.4-0.4,0.9-0.4,1.3,0c0.3,0.3,0.3,0.9-0.1,1.3c-0.9,1-2.1,1.5-3.3,1.7c-2.6,0.5-5.1-0.9-6.1-3.3c-1.3-3.2,0.6-6.7,4-7.4
		         c3.7-0.7,6.1,2,6.2,5.1c0,0.6-0.3,0.9-0.9,0.9C43,19.5,41.9,19.5,40.7,19.5z M42.9,18c0-0.2,0-0.4,0-0.5c-0.3-1.1-1.3-2.4-3.2-2.2
		         c-1.3,0.1-2.4,1-2.7,2.3C36.8,18,37,18,37.3,18c1.3,0,2.7,0,4,0C41.8,18,42.3,18,42.9,18z"/>
    <path class="customer-zendesk" d="M47.3,20.5c0.1-1.1,0-2.2,0.2-3.3c0.4-2.3,2.6-3.9,5-3.8c2.4,0.1,4.4,1.9,4.6,4.3c0.1,1.8,0.1,3.7,0.1,5.5
		         c0,0.7-0.5,1.2-1.1,1.2c-0.7,0-1.1-0.5-1.1-1.3c0-1.5,0-3,0-4.5c0-0.4,0-0.8-0.2-1.2c-0.4-1.4-1.5-2.1-3-1.9
		         c-1.2,0.1-2.2,1.2-2.2,2.5c0,0.6-0.1,1.3-0.1,1.9c0,1,0,2.1,0,3.1c0,0.9-0.4,1.4-1.1,1.4c-0.7,0-1.1-0.5-1.1-1.4
		         C47.3,22.1,47.3,21.3,47.3,20.5C47.3,20.5,47.3,20.5,47.3,20.5z"/>
    <path class="customer-zendesk" d="M30,15.5c-0.3,0-0.5,0-0.7,0c-1.4,0-2.8,0-4.2,0c-0.6,0-1.1-0.3-1.1-0.8c0-0.5,0.4-0.9,1.1-0.9
		         c2.3,0,4.5,0,6.8,0c0.5,0,0.9,0.1,1.1,0.6c0.2,0.5,0,0.9-0.3,1.2c-1.7,2-3.4,4-5,6c-0.2,0.2-0.3,0.4-0.5,0.7c0.3,0,0.5,0,0.7,0
		         c1.4,0,2.8,0,4.2,0c0.7,0,1.1,0.3,1.1,0.9c0,0.5-0.4,0.9-1.1,0.9c-2.3,0-4.5,0-6.8,0c-0.5,0-0.9-0.2-1.1-0.6
		         c-0.2-0.4,0-0.8,0.3-1.1c1.7-2,3.4-4,5-6C29.6,16.1,29.7,15.9,30,15.5z"/>
    <path class="customer-zendesk" d="M89.3,13.4c1.1-0.1,2.2,0.2,3.3,0.7c0.6,0.3,0.9,0.7,0.6,1.2c-0.2,0.5-0.7,0.7-1.3,0.4
		         c-1.1-0.5-2.2-0.7-3.4-0.5c-0.3,0-0.6,0.1-0.8,0.3c-0.6,0.4-0.7,1.2-0.1,1.6c0.4,0.2,0.8,0.4,1.2,0.5c0.9,0.4,1.9,0.6,2.7,1.1
		         c1.1,0.5,1.8,1.3,1.7,2.6c-0.1,1.2-0.8,2-1.9,2.5c-2.2,0.9-4.3,0.6-6.4-0.6c-0.4-0.2-0.6-0.5-0.5-1c0.2-0.6,0.7-0.8,1.2-0.5
		         c1,0.6,2.1,0.9,3.3,0.8c0.5,0,1-0.2,1.5-0.4c0.9-0.4,0.9-1.4,0-1.8c-0.6-0.3-1.3-0.5-2-0.8c-0.8-0.4-1.7-0.7-2.5-1.2
		         c-1.7-1.1-1.5-3.3,0.2-4.3C87.3,13.5,88.3,13.4,89.3,13.4z"/>
    <path class="customer-zendesk" d="M12,7.8C11.4,7,10.6,6.5,9.6,6.4c-0.1,0-0.3-0.2-0.4-0.3c-1.2-1-2.5-1.5-4-1.6C4.8,4.5,4.7,4.3,4.8,4
		         c0.1-1.3,0.6-2.5,1.4-3.6c0.1-0.1,0.3-0.2,0.4-0.2c3.2-0.1,6.2,2.7,6.4,5.9c0,0.4,0,0.8-0.4,1C12.4,7.3,12.2,7.5,12,7.8z"/>
    <path class="customer-zendesk" d="M15,20.1c-0.7,1.4-1.7,2.4-3.1,3.1c-0.1,0.1-0.3,0-0.5,0c-3.1-1.3-4.6-5.6-3.1-8.5c0,0,0-0.1,0.1-0.1
		         c0.6,0.5,1.2,1,1.9,1.3c0.8,0.4,1.4,1,1.8,1.8c0.5,1,1.4,1.7,2.4,2.2C14.7,19.9,14.8,19.9,15,20.1z"/>
    <path class="customer-zendesk" d="M12.7,16.5c0.9-0.6,1.7-1.2,2.5-1.8c0.1-0.1,0.3-0.1,0.5-0.1c1.7,0.5,3.2,0.3,4.8-0.5c0.1,0,0.1,0,0.2-0.1
		         c0.4,0.7,0.6,1.5,0.7,2.3c0.1,0.5-0.1,1.1-0.1,1.6c0,0.5-0.3,0.7-0.7,0.9c-2.8,1.2-6.1,0.3-7.8-2.1C12.8,16.6,12.8,16.6,12.7,16.5z
		         "/>
    <path class="customer-zendesk" d="M6,11c0.6,0.9,1.1,1.7,1.6,2.5c0.1,0.1,0.1,0.4,0,0.5c-0.7,1.2-1.1,2.6-1,4c0,0.4,0.1,0.8,0.2,1.3
		         c-0.2,0-0.3,0.1-0.5,0.1C5.1,19.5,4,19.4,2.9,19c-0.5-0.2-0.7-0.4-0.8-1c-0.5-2.9,1.1-5.9,3.8-7C5.9,11,6,11,6,11z"/>
    <path class="customer-zendesk" d="M16.4,13.5c0.2-0.3,0.5-0.6,0.7-1c0.6-1,1-2,0.8-3.2c0-0.2,0.1-0.4,0.2-0.5c0.6-0.8,1-1.7,1.2-2.6
		         c0.1-0.3,0.2-0.4,0.5-0.3c1.3,0.4,2.3,1,3.2,2c0.2,0.2,0.2,0.6,0.2,0.8c-0.6,2.6-2.9,4.6-5.5,4.9c-0.4,0-0.9,0.1-1.3,0.1
		         C16.5,13.6,16.5,13.6,16.4,13.5z"/>
    <path class="customer-zendesk" d="M2.2,12.3C1,11.2,0.3,10,0,8.6C0,8.4,0.1,8.2,0.2,8c1.7-2.3,5.4-3,8-1.5C8,6.6,7.9,6.6,7.8,6.7
		         C6.7,7.2,6.2,8.1,6,9.2C6,9.7,5.8,9.9,5.3,10.1c-1.1,0.3-1.9,0.9-2.7,1.7C2.5,11.9,2.4,12.1,2.2,12.3z"/>
  </g>
</svg>
