<?xml version="1.0" encoding="utf-8"?>
<!-- Generator: Adobe Illustrator 18.1.1, SVG Export Plug-In . SVG Version: 6.00 Build 0)  -->
<svg version="1.1" id="Layer_1" xmlns="http://www.w3.org/2000/svg" xmlns:xlink="http://www.w3.org/1999/xlink" x="0px" y="0px"
	 viewBox="0 0 13.2 16.3" enable-background="new 0 0 13.2 16.3" xml:space="preserve">
<g>
	<polygon fill="#DFE0E1" points="1.3,4.6 2.4,11.8 9.1,4.6 	"/>
	<path fill="#DFE0E1" d="M3.2,15.4c0.3,0.4,0.8,0.9,1.7,0.9c1,0,3.7,0,4.7,0c1.9,0,2.1-1.9,2.1-1.9l1.6-9.7h0L3.2,15.4z"/>
	<path fill="#DFE0E1" d="M9,0.9C8.9-0.1,8,0,8,0H6.4c0,0-0.9-0.1-1,0.9H1.9c0,0-0.8-0.1-1.3,0.7c-0.5,0.9-1.1,1.5,0,1.5
		c0.5,0,6,0,9.8,0l2.1-2.2H9z"/>
</g>
</svg>
