<?xml version="1.0" encoding="utf-8"?>
<!-- Generator: Adobe Illustrator 18.1.1, SVG Export Plug-In . SVG Version: 6.00 Build 0)  -->
<svg version="1.1" id="Layer_1" xmlns="http://www.w3.org/2000/svg" xmlns:xlink="http://www.w3.org/1999/xlink" x="0px" y="0px"
	 viewBox="0 0 14.5 16" enable-background="new 0 0 14.5 16" xml:space="preserve">
<g>
	<path fill="#C2C3C5" d="M1.3,4.5l1.6,9.6c0,0,0.1,1.9,2.1,1.9c1,0,3.7,0,4.7,0c1.9,0,2.1-1.9,2.1-1.9l1.6-9.6H1.3z"/>
	<path fill="#C2C3C5" d="M13.8,1.6c-0.5-0.8-1.3-0.7-1.3-0.7H9C8.9-0.1,8,0,8,0H6.4c0,0-0.9-0.1-1,0.9H1.9c0,0-0.8-0.1-1.3,0.7
		c-0.5,0.9-1.1,1.5,0,1.5c0.8,0,12.5,0,13.2,0C14.9,3.1,14.3,2.5,13.8,1.6z"/>
</g>
</svg>
