<?xml version="1.0" encoding="utf-8"?>
<svg width="558" height="307" viewBox="0 0 558 307" xmlns="http://www.w3.org/2000/svg" xmlns:xlink="http://www.w3.org/1999/xlink">
  <defs>
    <style type="text/css">
      .st0{fill:none;}
      .st1{fill:none;stroke:#0068FF;stroke-width:2;stroke-miterlimit:10;}
      .st2{fill:url(#SVGID_1_);}
      .st3{fill:#FFFFFF;stroke:#333333;stroke-width:3;stroke-linecap:round;stroke-linejoin:round;stroke-miterlimit:10;}
      .st4{fill:url(#SVGID_2_);}
      .st5{fill:url(#SVGID_3_);}
      .st6{fill:url(#SVGID_5_);}
      .st7{fill:#FFE000;}
      .st8{fill:#0068FF;}
      .st9{fill:#66A4FF;}
      .st10{fill:#FFBA8B;}
      .st11{fill:#F5C144;}
      .st12{fill:url(#SVGID_6_);}
      .st13{fill:none;stroke:#333333;stroke-width:3;stroke-linecap:round;stroke-linejoin:round;stroke-miterlimit:10;}
      .st14{fill:none;stroke:#333333;stroke-width:3.9057;stroke-linecap:round;stroke-linejoin:round;stroke-miterlimit:10;}
      .st15{fill:#686B6E;}
      .st16{fill:#FFFFFF;stroke:#0068FF;stroke-width:3;stroke-linecap:round;stroke-linejoin:round;stroke-miterlimit:10;}
      .st17{fill:#F1F1F1;stroke:#333333;stroke-width:3;stroke-linecap:round;stroke-linejoin:round;stroke-miterlimit:10;}
      .st18{fill:#DB4545;}
      .st19{fill:#EDDE3F;}
      .st20{fill:#32D282;}
      .st21{fill:url(#SVGID_7_);}
      .st22{fill:none;stroke:#F1F1F1;stroke-width:0.2757;stroke-miterlimit:10;}
      .st23{fill:none;stroke:#9D9D9D;stroke-width:0.2757;stroke-linecap:round;stroke-linejoin:round;stroke-miterlimit:10;}
      .st24{fill:#F1F1F1;}
      .st25{fill:#9D9D9D;}
      .st26{fill:#39A956;}
      .st27{fill:none;stroke:#676767;stroke-width:0.2757;stroke-miterlimit:10;}
      .st28{fill:#5EA7AC;}
      .st29{clip-path:url(#SVGID_9_);}
      .st30{fill:#555555;}
      .st31{fill:#5AB947;}
      .st32{fill:url(#SVGID_10_);}
      .st33{fill:#CBCBCA;}
      .st34{fill:none;stroke:#9D9D9D;stroke-width:0.4135;stroke-linecap:round;stroke-linejoin:round;stroke-miterlimit:10;}
      .st35{fill:none;stroke:#9D9D9D;stroke-width:0.2524;stroke-miterlimit:10;}
      .st36{fill:#9B9B9B;}
      .st37{fill:#676767;}
      .st38{font-family:'SourceSansPro-Regular';}
      .st39{font-size:9.8895px;}
      .st40{fill:#39AA56;}
    </style>
  </defs>
  <pattern y="612" width="463" height="297.7" patternUnits="userSpaceOnUse" id="SVGID_4_" viewBox="0 -297.7 463 297.7" style="overflow:visible;">
    <g>
      <rect y="-297.7" class="st0" width="463" height="297.7"/>
      <g>
        <rect y="-297.7" class="st0" width="463" height="297.7"/>
        <g>
          <path class="st1" d="M0-1c19.3,0,19.3-6,38.6-6s19.3,6,38.6,6s19.3-6,38.6-6s19.3,6,38.6,6s19.3-6,38.6-6s19.3,6,38.6,6 s19.3-6,38.6-6s19.3,6,38.6,6s19.3-6,38.6-6c19.3,0,19.3,6,38.6,6c19.3,0,19.3-6,38.6-6c19.3,0,19.3,6,38.6,6"/>
          <path class="st1" d="M0-9.1c19.3,0,19.3-6,38.6-6s19.3,6,38.6,6s19.3-6,38.6-6s19.3,6,38.6,6s19.3-6,38.6-6s19.3,6,38.6,6 s19.3-6,38.6-6s19.3,6,38.6,6s19.3-6,38.6-6c19.3,0,19.3,6,38.6,6c19.3,0,19.3-6,38.6-6c19.3,0,19.3,6,38.6,6"/>
          <path class="st1" d="M0-17.1c19.3,0,19.3-6,38.6-6s19.3,6,38.6,6s19.3-6,38.6-6s19.3,6,38.6,6s19.3-6,38.6-6s19.3,6,38.6,6 s19.3-6,38.6-6s19.3,6,38.6,6s19.3-6,38.6-6c19.3,0,19.3,6,38.6,6c19.3,0,19.3-6,38.6-6c19.3,0,19.3,6,38.6,6"/>
          <path class="st1" d="M0-25.2c19.3,0,19.3-6,38.6-6s19.3,6,38.6,6s19.3-6,38.6-6s19.3,6,38.6,6s19.3-6,38.6-6s19.3,6,38.6,6 s19.3-6,38.6-6s19.3,6,38.6,6s19.3-6,38.6-6c19.3,0,19.3,6,38.6,6c19.3,0,19.3-6,38.6-6c19.3,0,19.3,6,38.6,6"/>
          <path class="st1" d="M0-33.2c19.3,0,19.3-6,38.6-6s19.3,6,38.6,6s19.3-6,38.6-6s19.3,6,38.6,6s19.3-6,38.6-6s19.3,6,38.6,6 s19.3-6,38.6-6s19.3,6,38.6,6s19.3-6,38.6-6c19.3,0,19.3,6,38.6,6c19.3,0,19.3-6,38.6-6c19.3,0,19.3,6,38.6,6"/>
          <path class="st1" d="M0-41.3c19.3,0,19.3-6,38.6-6s19.3,6,38.6,6s19.3-6,38.6-6s19.3,6,38.6,6s19.3-6,38.6-6s19.3,6,38.6,6 s19.3-6,38.6-6s19.3,6,38.6,6s19.3-6,38.6-6c19.3,0,19.3,6,38.6,6c19.3,0,19.3-6,38.6-6c19.3,0,19.3,6,38.6,6"/>
          <path class="st1" d="M0-49.3c19.3,0,19.3-6,38.6-6s19.3,6,38.6,6s19.3-6,38.6-6s19.3,6,38.6,6s19.3-6,38.6-6s19.3,6,38.6,6 s19.3-6,38.6-6s19.3,6,38.6,6s19.3-6,38.6-6c19.3,0,19.3,6,38.6,6c19.3,0,19.3-6,38.6-6c19.3,0,19.3,6,38.6,6"/>
          <path class="st1" d="M0-57.3c19.3,0,19.3-6,38.6-6s19.3,6,38.6,6s19.3-6,38.6-6s19.3,6,38.6,6s19.3-6,38.6-6s19.3,6,38.6,6 s19.3-6,38.6-6s19.3,6,38.6,6s19.3-6,38.6-6c19.3,0,19.3,6,38.6,6c19.3,0,19.3-6,38.6-6c19.3,0,19.3,6,38.6,6"/>
          <path class="st1" d="M0-65.4c19.3,0,19.3-6,38.6-6s19.3,6,38.6,6s19.3-6,38.6-6s19.3,6,38.6,6s19.3-6,38.6-6s19.3,6,38.6,6 s19.3-6,38.6-6s19.3,6,38.6,6s19.3-6,38.6-6c19.3,0,19.3,6,38.6,6c19.3,0,19.3-6,38.6-6c19.3,0,19.3,6,38.6,6"/>
          <path class="st1" d="M0-73.4c19.3,0,19.3-6,38.6-6s19.3,6,38.6,6s19.3-6,38.6-6s19.3,6,38.6,6s19.3-6,38.6-6s19.3,6,38.6,6 s19.3-6,38.6-6s19.3,6,38.6,6s19.3-6,38.6-6c19.3,0,19.3,6,38.6,6c19.3,0,19.3-6,38.6-6c19.3,0,19.3,6,38.6,6"/>
          <path class="st1" d="M0-81.5c19.3,0,19.3-6,38.6-6s19.3,6,38.6,6s19.3-6,38.6-6s19.3,6,38.6,6s19.3-6,38.6-6s19.3,6,38.6,6 s19.3-6,38.6-6s19.3,6,38.6,6s19.3-6,38.6-6c19.3,0,19.3,6,38.6,6c19.3,0,19.3-6,38.6-6c19.3,0,19.3,6,38.6,6"/>
          <path class="st1" d="M0-89.5c19.3,0,19.3-6,38.6-6s19.3,6,38.6,6s19.3-6,38.6-6s19.3,6,38.6,6s19.3-6,38.6-6s19.3,6,38.6,6 s19.3-6,38.6-6s19.3,6,38.6,6s19.3-6,38.6-6c19.3,0,19.3,6,38.6,6c19.3,0,19.3-6,38.6-6c19.3,0,19.3,6,38.6,6"/>
          <path class="st1" d="M0-97.6c19.3,0,19.3-6,38.6-6s19.3,6,38.6,6s19.3-6,38.6-6s19.3,6,38.6,6s19.3-6,38.6-6s19.3,6,38.6,6 s19.3-6,38.6-6s19.3,6,38.6,6s19.3-6,38.6-6c19.3,0,19.3,6,38.6,6c19.3,0,19.3-6,38.6-6c19.3,0,19.3,6,38.6,6"/>
          <path class="st1" d="M0-105.6c19.3,0,19.3-6,38.6-6s19.3,6,38.6,6s19.3-6,38.6-6s19.3,6,38.6,6s19.3-6,38.6-6s19.3,6,38.6,6 s19.3-6,38.6-6s19.3,6,38.6,6s19.3-6,38.6-6c19.3,0,19.3,6,38.6,6c19.3,0,19.3-6,38.6-6c19.3,0,19.3,6,38.6,6"/>
          <path class="st1" d="M0-113.7c19.3,0,19.3-6,38.6-6s19.3,6,38.6,6s19.3-6,38.6-6s19.3,6,38.6,6s19.3-6,38.6-6s19.3,6,38.6,6 s19.3-6,38.6-6s19.3,6,38.6,6s19.3-6,38.6-6c19.3,0,19.3,6,38.6,6c19.3,0,19.3-6,38.6-6c19.3,0,19.3,6,38.6,6"/>
          <path class="st1" d="M0-121.7c19.3,0,19.3-6,38.6-6s19.3,6,38.6,6s19.3-6,38.6-6s19.3,6,38.6,6s19.3-6,38.6-6s19.3,6,38.6,6 s19.3-6,38.6-6s19.3,6,38.6,6s19.3-6,38.6-6c19.3,0,19.3,6,38.6,6c19.3,0,19.3-6,38.6-6c19.3,0,19.3,6,38.6,6"/>
          <path class="st1" d="M0-129.8c19.3,0,19.3-6,38.6-6s19.3,6,38.6,6s19.3-6,38.6-6s19.3,6,38.6,6s19.3-6,38.6-6s19.3,6,38.6,6 s19.3-6,38.6-6s19.3,6,38.6,6s19.3-6,38.6-6c19.3,0,19.3,6,38.6,6c19.3,0,19.3-6,38.6-6c19.3,0,19.3,6,38.6,6"/>
          <path class="st1" d="M0-137.8c19.3,0,19.3-6,38.6-6s19.3,6,38.6,6s19.3-6,38.6-6s19.3,6,38.6,6s19.3-6,38.6-6s19.3,6,38.6,6 s19.3-6,38.6-6s19.3,6,38.6,6s19.3-6,38.6-6c19.3,0,19.3,6,38.6,6c19.3,0,19.3-6,38.6-6c19.3,0,19.3,6,38.6,6"/>
          <path class="st1" d="M0-145.9c19.3,0,19.3-6,38.6-6s19.3,6,38.6,6s19.3-6,38.6-6s19.3,6,38.6,6s19.3-6,38.6-6s19.3,6,38.6,6 s19.3-6,38.6-6s19.3,6,38.6,6s19.3-6,38.6-6c19.3,0,19.3,6,38.6,6c19.3,0,19.3-6,38.6-6c19.3,0,19.3,6,38.6,6"/>
          <path class="st1" d="M0-153.9c19.3,0,19.3-6,38.6-6s19.3,6,38.6,6s19.3-6,38.6-6s19.3,6,38.6,6s19.3-6,38.6-6s19.3,6,38.6,6 s19.3-6,38.6-6s19.3,6,38.6,6s19.3-6,38.6-6c19.3,0,19.3,6,38.6,6c19.3,0,19.3-6,38.6-6c19.3,0,19.3,6,38.6,6"/>
          <path class="st1" d="M0-162c19.3,0,19.3-6,38.6-6s19.3,6,38.6,6s19.3-6,38.6-6s19.3,6,38.6,6s19.3-6,38.6-6s19.3,6,38.6,6 s19.3-6,38.6-6s19.3,6,38.6,6s19.3-6,38.6-6c19.3,0,19.3,6,38.6,6c19.3,0,19.3-6,38.6-6c19.3,0,19.3,6,38.6,6"/>
          <path class="st1" d="M0-170c19.3,0,19.3-6,38.6-6s19.3,6,38.6,6s19.3-6,38.6-6s19.3,6,38.6,6s19.3-6,38.6-6s19.3,6,38.6,6 s19.3-6,38.6-6s19.3,6,38.6,6s19.3-6,38.6-6c19.3,0,19.3,6,38.6,6c19.3,0,19.3-6,38.6-6c19.3,0,19.3,6,38.6,6"/>
          <path class="st1" d="M0-178c19.3,0,19.3-6,38.6-6s19.3,6,38.6,6s19.3-6,38.6-6s19.3,6,38.6,6s19.3-6,38.6-6s19.3,6,38.6,6 s19.3-6,38.6-6s19.3,6,38.6,6s19.3-6,38.6-6c19.3,0,19.3,6,38.6,6c19.3,0,19.3-6,38.6-6c19.3,0,19.3,6,38.6,6"/>
          <path class="st1" d="M0-186.1c19.3,0,19.3-6,38.6-6s19.3,6,38.6,6s19.3-6,38.6-6s19.3,6,38.6,6s19.3-6,38.6-6s19.3,6,38.6,6 s19.3-6,38.6-6s19.3,6,38.6,6s19.3-6,38.6-6c19.3,0,19.3,6,38.6,6c19.3,0,19.3-6,38.6-6c19.3,0,19.3,6,38.6,6"/>
          <path class="st1" d="M0-194.1c19.3,0,19.3-6,38.6-6s19.3,6,38.6,6s19.3-6,38.6-6s19.3,6,38.6,6s19.3-6,38.6-6s19.3,6,38.6,6 s19.3-6,38.6-6s19.3,6,38.6,6s19.3-6,38.6-6c19.3,0,19.3,6,38.6,6c19.3,0,19.3-6,38.6-6c19.3,0,19.3,6,38.6,6"/>
          <path class="st1" d="M0-202.2c19.3,0,19.3-6,38.6-6s19.3,6,38.6,6s19.3-6,38.6-6s19.3,6,38.6,6s19.3-6,38.6-6s19.3,6,38.6,6 s19.3-6,38.6-6s19.3,6,38.6,6s19.3-6,38.6-6c19.3,0,19.3,6,38.6,6c19.3,0,19.3-6,38.6-6c19.3,0,19.3,6,38.6,6"/>
          <path class="st1" d="M0-210.2c19.3,0,19.3-6,38.6-6s19.3,6,38.6,6s19.3-6,38.6-6s19.3,6,38.6,6s19.3-6,38.6-6s19.3,6,38.6,6 s19.3-6,38.6-6s19.3,6,38.6,6s19.3-6,38.6-6c19.3,0,19.3,6,38.6,6c19.3,0,19.3-6,38.6-6c19.3,0,19.3,6,38.6,6"/>
          <path class="st1" d="M0-218.3c19.3,0,19.3-6,38.6-6s19.3,6,38.6,6s19.3-6,38.6-6s19.3,6,38.6,6s19.3-6,38.6-6s19.3,6,38.6,6 s19.3-6,38.6-6s19.3,6,38.6,6s19.3-6,38.6-6c19.3,0,19.3,6,38.6,6c19.3,0,19.3-6,38.6-6c19.3,0,19.3,6,38.6,6"/>
          <path class="st1" d="M0-226.3c19.3,0,19.3-6,38.6-6s19.3,6,38.6,6s19.3-6,38.6-6s19.3,6,38.6,6s19.3-6,38.6-6s19.3,6,38.6,6 s19.3-6,38.6-6s19.3,6,38.6,6s19.3-6,38.6-6c19.3,0,19.3,6,38.6,6c19.3,0,19.3-6,38.6-6c19.3,0,19.3,6,38.6,6"/>
          <path class="st1" d="M0-234.4c19.3,0,19.3-6,38.6-6s19.3,6,38.6,6s19.3-6,38.6-6s19.3,6,38.6,6s19.3-6,38.6-6s19.3,6,38.6,6 s19.3-6,38.6-6s19.3,6,38.6,6s19.3-6,38.6-6c19.3,0,19.3,6,38.6,6c19.3,0,19.3-6,38.6-6c19.3,0,19.3,6,38.6,6"/>
          <path class="st1" d="M0-242.4c19.3,0,19.3-6,38.6-6s19.3,6,38.6,6s19.3-6,38.6-6s19.3,6,38.6,6s19.3-6,38.6-6s19.3,6,38.6,6 s19.3-6,38.6-6s19.3,6,38.6,6s19.3-6,38.6-6c19.3,0,19.3,6,38.6,6c19.3,0,19.3-6,38.6-6c19.3,0,19.3,6,38.6,6"/>
          <path class="st1" d="M0-250.5c19.3,0,19.3-6,38.6-6s19.3,6,38.6,6s19.3-6,38.6-6s19.3,6,38.6,6s19.3-6,38.6-6s19.3,6,38.6,6 s19.3-6,38.6-6s19.3,6,38.6,6s19.3-6,38.6-6c19.3,0,19.3,6,38.6,6c19.3,0,19.3-6,38.6-6c19.3,0,19.3,6,38.6,6"/>
          <path class="st1" d="M0-258.5c19.3,0,19.3-6,38.6-6s19.3,6,38.6,6s19.3-6,38.6-6s19.3,6,38.6,6s19.3-6,38.6-6s19.3,6,38.6,6 s19.3-6,38.6-6s19.3,6,38.6,6s19.3-6,38.6-6c19.3,0,19.3,6,38.6,6c19.3,0,19.3-6,38.6-6c19.3,0,19.3,6,38.6,6"/>
          <path class="st1" d="M0-266.6c19.3,0,19.3-6,38.6-6s19.3,6,38.6,6s19.3-6,38.6-6s19.3,6,38.6,6s19.3-6,38.6-6s19.3,6,38.6,6 s19.3-6,38.6-6s19.3,6,38.6,6s19.3-6,38.6-6c19.3,0,19.3,6,38.6,6c19.3,0,19.3-6,38.6-6c19.3,0,19.3,6,38.6,6"/>
          <path class="st1" d="M0-274.6c19.3,0,19.3-6,38.6-6s19.3,6,38.6,6s19.3-6,38.6-6s19.3,6,38.6,6s19.3-6,38.6-6s19.3,6,38.6,6 s19.3-6,38.6-6s19.3,6,38.6,6s19.3-6,38.6-6c19.3,0,19.3,6,38.6,6c19.3,0,19.3-6,38.6-6c19.3,0,19.3,6,38.6,6"/>
          <path class="st1" d="M0-282.7c19.3,0,19.3-6,38.6-6s19.3,6,38.6,6s19.3-6,38.6-6s19.3,6,38.6,6s19.3-6,38.6-6s19.3,6,38.6,6 s19.3-6,38.6-6s19.3,6,38.6,6s19.3-6,38.6-6c19.3,0,19.3,6,38.6,6c19.3,0,19.3-6,38.6-6c19.3,0,19.3,6,38.6,6"/>
          <path class="st1" d="M0-290.7c19.3,0,19.3-6,38.6-6s19.3,6,38.6,6s19.3-6,38.6-6c19.2,0,19.2,6,38.5,6s19.3-6,38.6-6 s19.3,6,38.6,6s19.3-6,38.6-6s19.3,6,38.6,6s19.3-6,38.6-6c19.3,0,19.3,6,38.6,6c19.3,0,19.3-6,38.6-6c19.3,0,19.3,6,38.6,6"/>
        </g>
      </g>
    </g>
  </pattern>
  <g transform="matrix(1, 0, 0, 1, -124.999969, -155.690475)">
    <linearGradient id="SVGID_1_" gradientUnits="userSpaceOnUse" x1="646.4" y1="178.3217" x2="646.4" y2="188.6942" gradientTransform="matrix(1 0 0 -1 0 612)">
      <stop offset="0" style="stop-color:#FFFFFF;stop-opacity:0"/>
      <stop offset="0.1981" style="stop-color:#E9EDF0;stop-opacity:0.1981"/>
      <stop offset="0.5202" style="stop-color:#CCD4DB;stop-opacity:0.5202"/>
      <stop offset="0.7988" style="stop-color:#BAC4CE;stop-opacity:0.7988"/>
      <stop offset="1" style="stop-color:#B4BFCA"/>
    </linearGradient>
    <rect x="614.7" y="423.3" class="st2" width="63.4" height="10.4"/>
    <path class="st3" d="M636,426.2h-18.7c-0.5,0-0.9-0.4-0.9-0.9v-11.5c0-0.5,0.4-0.9,0.9-0.9H636c0.5,0,0.9,0.4,0.9,0.9v11.5 C636.9,425.7,636.5,426.2,636,426.2z"/>
    <path class="st3" d="M656.6,426.2h-18.7c-0.5,0-0.9-0.4-0.9-0.9v-11.5c0-0.5,0.4-0.9,0.9-0.9h18.7c0.5,0,0.9,0.4,0.9,0.9v11.5 C657.5,425.7,657.1,426.2,656.6,426.2z"/>
    <path class="st3" d="M677.1,426.2h-18.7c-0.5,0-0.9-0.4-0.9-0.9v-11.5c0-0.5,0.4-0.9,0.9-0.9h18.7c0.5,0,0.9,0.4,0.9,0.9v11.5 C678.1,425.7,677.6,426.2,677.1,426.2z"/>
    <linearGradient id="SVGID_2_" gradientUnits="userSpaceOnUse" x1="203.6828" y1="248.5515" x2="477.7849" y2="248.5515" gradientTransform="matrix(0.9639 0.2662 0.2662 -0.9639 -121.3247 530.1014)">
      <stop offset="0" style="stop-color:#FFFFFF;stop-opacity:0"/>
      <stop offset="0.1413" style="stop-color:#C8DFFF;stop-opacity:0.1413"/>
      <stop offset="0.3149" style="stop-color:#8CBBFF;stop-opacity:0.3149"/>
      <stop offset="0.4822" style="stop-color:#5A9DFF;stop-opacity:0.4822"/>
      <stop offset="0.6386" style="stop-color:#3386FF;stop-opacity:0.6386"/>
      <stop offset="0.7816" style="stop-color:#1776FF;stop-opacity:0.7816"/>
      <stop offset="0.9067" style="stop-color:#066CFF;stop-opacity:0.9067"/>
      <stop offset="1" style="stop-color:#0068FF"/>
    </linearGradient>
    <path class="st4" d="M231.4,364c0,0,39.9-56.3,110.2-23.1c0,0,31.2,14,69,8.5c38.2-5.5-20.9,31.4-20.9,31.4s-37.5,20.6-72.1,14.3 c-34.7-6.3-58.8,43-63.6,45.7c-4.8,2.7-24.8,13.4-83.2-33.5s-27-60.5-13.7-59.1C170.5,349.5,204.9,386.7,231.4,364z"/>
    <linearGradient id="SVGID_3_" gradientUnits="userSpaceOnUse" x1="511.012" y1="410.6874" x2="455.988" y2="345.1125" gradientTransform="matrix(1 0 0 -1 0 612)">
      <stop offset="0" style="stop-color:#FFFFFF;stop-opacity:0"/>
      <stop offset="0.0886" style="stop-color:#E4F7EC;stop-opacity:8.860064e-02"/>
      <stop offset="0.3406" style="stop-color:#9BE0BA;stop-opacity:0.3406"/>
      <stop offset="0.5667" style="stop-color:#61CF93;stop-opacity:0.5667"/>
      <stop offset="0.7589" style="stop-color:#38C276;stop-opacity:0.7589"/>
      <stop offset="0.9095" style="stop-color:#1EBA64;stop-opacity:0.9095"/>
      <stop offset="1" style="stop-color:#15B75E"/>
    </linearGradient>
    <circle class="st5" cx="483.5" cy="234.1" r="42.8"/>
    <pattern id="SVGID_5_" patternTransform="matrix(1.6573 0 0 -1.6573 11585.8086 -28990.959)" xlink:href="#SVGID_4_"/>
    <circle class="st6" cx="559.9" cy="332.9" r="72.9"/>
    <path class="st7" d="M602,183.5L602,183.5c-9-1-16.2-8.2-17.2-17.2l0,0c0-0.1-0.1-0.1-0.1-0.1c-0.1,0-0.1,0.1-0.1,0.1l0,0 c-1,9-8.2,16.2-17.2,17.2l0,0c-0.1,0-0.1,0.1-0.1,0.1c0,0.1,0.1,0.1,0.1,0.1l0,0c9,1,16.2,8.2,17.2,17.2l0,0c0,0.1,0.1,0.1,0.1,0.1 c0.1,0,0.1-0.1,0.1-0.1l0,0c1-9,8.2-16.2,17.2-17.2l0,0c0.1,0,0.1-0.1,0.1-0.1S602.1,183.6,602,183.5z"/>
    <path class="st8" d="M221.5,280.8L221.5,280.8c-4.6-0.5-8.3-4.2-8.8-8.8l0,0c0,0,0-0.1-0.1-0.1c0,0-0.1,0-0.1,0.1l0,0 c-0.5,4.6-4.2,8.3-8.8,8.8l0,0c0,0-0.1,0-0.1,0.1c0,0,0,0.1,0.1,0.1l0,0c4.6,0.5,8.3,4.2,8.8,8.8l0,0c0,0,0,0.1,0.1,0.1 c0,0,0.1,0,0.1-0.1l0,0c0.5-4.6,4.2-8.3,8.8-8.8l0,0C221.5,281,221.5,280.9,221.5,280.8C221.5,280.9,221.5,280.8,221.5,280.8z"/>
    <path class="st9" d="M405.1,194.6L405.1,194.6c-4.6-0.5-8.3-4.2-8.8-8.8l0,0c0,0,0-0.1-0.1-0.1c0,0-0.1,0-0.1,0.1l0,0 c-0.5,4.6-4.2,8.3-8.8,8.8l0,0c0,0-0.1,0-0.1,0.1c0,0,0,0.1,0.1,0.1l0,0c4.6,0.5,8.3,4.2,8.8,8.8l0,0c0,0,0,0.1,0.1,0.1 c0,0,0.1,0,0.1-0.1l0,0c0.5-4.6,4.2-8.3,8.8-8.8l0,0C405.1,194.7,405.2,194.7,405.1,194.6C405.2,194.6,405.1,194.6,405.1,194.6z"/>
    <g>
      <ellipse class="st10" cx="617.6" cy="384.7" rx="7.2" ry="7.2"/>
    </g>
    <circle class="st11" cx="172" cy="205" r="5.8"/>
    <path class="st11" d="M650.4,409.6h-18.7c-0.5,0-0.9-0.4-0.9-0.9v-11.5c0-0.5,0.4-0.9,0.9-0.9h18.7c0.5,0,0.9,0.4,0.9,0.9v11.5 C651.3,409.2,650.9,409.6,650.4,409.6z"/>
    <linearGradient id="SVGID_6_" gradientUnits="userSpaceOnUse" x1="202.3" y1="183.1848" x2="202.3" y2="189.3848" gradientTransform="matrix(1 0 0 -1 0 612)">
      <stop offset="0" style="stop-color:#FFFFFF;stop-opacity:0"/>
      <stop offset="0.1981" style="stop-color:#E9EDF0;stop-opacity:0.1981"/>
      <stop offset="0.5202" style="stop-color:#CCD4DB;stop-opacity:0.5202"/>
      <stop offset="0.7988" style="stop-color:#BAC4CE;stop-opacity:0.7988"/>
      <stop offset="1" style="stop-color:#B4BFCA"/>
    </linearGradient>
    <rect x="155.7" y="422.6" class="st12" width="93.2" height="6.2"/>
    <path class="st3" d="M157.4,421h89.7c2.1,0,2.8-2.8,0.9-3.8l-5.4-2.9l-17.6-9.4c-0.3-0.2-0.6-0.2-0.9-0.2h-43.4 c-0.3,0-0.6,0.1-0.9,0.2l-23.3,12.3C154.6,418.2,155.3,421,157.4,421z"/>
    <line class="st13" x1="160.6" y1="415.1" x2="179.7" y2="415.1"/>
    <line class="st13" x1="201.5" y1="415.1" x2="242.7" y2="415.1"/>
    <line class="st13" x1="132.8" y1="248.5" x2="191.7" y2="404.7"/>
    <line class="st13" x1="151.4" y1="241.1" x2="213.1" y2="404.7"/>
    <line class="st13" x1="171.2" y1="322.9" x2="197.5" y2="392.6"/>
    <polyline class="st3" points="142.3,267.5 259.5,210.3 267.9,197.5 257.3,187.6 135.3,247.1 &#9;"/>
    <line class="st13" x1="257.1" y1="190.1" x2="259.5" y2="210.3"/>
    <line class="st13" x1="268.9" y1="196.5" x2="286.5" y2="192"/>
    <line class="st14" x1="231.2" y1="211.8" x2="164.7" y2="245.2"/>
    <g>
      <g>
        <circle class="st15" cx="195.2" cy="395.8" r="1.3"/>
        <circle class="st15" cx="193.3" cy="390.9" r="1.3"/>
        <circle class="st15" cx="191.5" cy="386" r="1.3"/>
        <circle class="st15" cx="189.7" cy="381.2" r="1.3"/>
        <circle class="st15" cx="187.8" cy="376.3" r="1.3"/>
        <circle class="st15" cx="186" cy="371.4" r="1.3"/>
        <circle class="st15" cx="184.2" cy="366.5" r="1.3"/>
        <circle class="st15" cx="182.3" cy="361.7" r="1.3"/>
        <circle class="st15" cx="180.5" cy="356.8" r="1.3"/>
        <circle class="st15" cx="178.7" cy="351.9" r="1.3"/>
        <circle class="st15" cx="176.8" cy="347" r="1.3"/>
        <circle class="st15" cx="175" cy="342.2" r="1.3"/>
        <circle class="st15" cx="173.2" cy="337.3" r="1.3"/>
        <circle class="st15" cx="171.3" cy="332.4" r="1.3"/>
        <circle class="st15" cx="169.5" cy="327.5" r="1.3"/>
        <circle class="st15" cx="167.7" cy="322.7" r="1.3"/>
        <circle class="st15" cx="165.8" cy="317.8" r="1.3"/>
        <circle class="st15" cx="164" cy="312.9" r="1.3"/>
        <circle class="st15" cx="162.2" cy="308" r="1.3"/>
        <circle class="st15" cx="200.9" cy="396.4" r="1.3"/>
        <circle class="st15" cx="199.1" cy="391.5" r="1.3"/>
        <circle class="st15" cx="206.7" cy="397" r="1.3"/>
        <circle class="st15" cx="204.9" cy="392.1" r="1.3"/>
        <circle class="st15" cx="203.1" cy="387.2" r="1.3"/>
        <circle class="st15" cx="210.7" cy="392.7" r="1.3"/>
        <circle class="st15" cx="208.9" cy="387.8" r="1.3"/>
        <circle class="st15" cx="197.3" cy="386.6" r="1.3"/>
        <circle class="st15" cx="195.4" cy="381.8" r="1.3"/>
        <circle class="st15" cx="193.6" cy="376.9" r="1.3"/>
        <circle class="st15" cx="191.8" cy="372" r="1.3"/>
        <circle class="st15" cx="189.9" cy="367.1" r="1.3"/>
        <circle class="st15" cx="188.1" cy="362.3" r="1.3"/>
        <circle class="st15" cx="186.3" cy="357.4" r="1.3"/>
        <circle class="st15" cx="184.4" cy="352.5" r="1.3"/>
        <circle class="st15" cx="182.6" cy="347.6" r="1.3"/>
        <circle class="st15" cx="180.8" cy="342.8" r="1.3"/>
        <circle class="st15" cx="201.2" cy="382.4" r="1.3"/>
        <circle class="st15" cx="199.4" cy="377.5" r="1.3"/>
        <circle class="st15" cx="197.6" cy="372.6" r="1.3"/>
        <circle class="st15" cx="195.7" cy="367.7" r="1.3"/>
        <circle class="st15" cx="193.9" cy="362.9" r="1.3"/>
        <circle class="st15" cx="192.1" cy="358" r="1.3"/>
        <circle class="st15" cx="190.2" cy="353.1" r="1.3"/>
        <circle class="st15" cx="188.4" cy="348.2" r="1.3"/>
        <circle class="st15" cx="186.6" cy="343.4" r="1.3"/>
        <circle class="st15" cx="184.7" cy="338.5" r="1.3"/>
        <circle class="st15" cx="207" cy="383" r="1.3"/>
        <circle class="st15" cx="205.2" cy="378.1" r="1.3"/>
        <circle class="st15" cx="203.4" cy="373.2" r="1.3"/>
        <circle class="st15" cx="201.5" cy="368.3" r="1.3"/>
        <circle class="st15" cx="199.7" cy="363.5" r="1.3"/>
        <circle class="st15" cx="197.9" cy="358.6" r="1.3"/>
        <circle class="st15" cx="196" cy="353.7" r="1.3"/>
        <circle class="st15" cx="194.2" cy="348.8" r="1.3"/>
        <circle class="st15" cx="192.4" cy="344" r="1.3"/>
        <circle class="st15" cx="190.5" cy="339.1" r="1.3"/>
        <circle class="st15" cx="178.9" cy="337.9" r="1.3"/>
        <circle class="st15" cx="177.1" cy="333" r="1.3"/>
        <circle class="st15" cx="175.3" cy="328.1" r="1.3"/>
        <circle class="st15" cx="173.4" cy="323.3" r="1.3"/>
        <circle class="st15" cx="171.6" cy="318.4" r="1.3"/>
        <circle class="st15" cx="169.8" cy="313.5" r="1.3"/>
        <circle class="st15" cx="167.9" cy="308.6" r="1.3"/>
        <circle class="st15" cx="182.9" cy="333.6" r="1.3"/>
        <circle class="st15" cx="181.1" cy="328.7" r="1.3"/>
        <circle class="st15" cx="179.2" cy="323.9" r="1.3"/>
        <circle class="st15" cx="177.4" cy="319" r="1.3"/>
        <circle class="st15" cx="175.6" cy="314.1" r="1.3"/>
        <circle class="st15" cx="173.7" cy="309.2" r="1.3"/>
        <circle class="st15" cx="171.9" cy="304.4" r="1.3"/>
        <circle class="st15" cx="188.7" cy="334.2" r="1.3"/>
        <circle class="st15" cx="186.9" cy="329.3" r="1.3"/>
        <circle class="st15" cx="185" cy="324.5" r="1.3"/>
        <circle class="st15" cx="183.2" cy="319.6" r="1.3"/>
        <circle class="st15" cx="181.4" cy="314.7" r="1.3"/>
        <circle class="st15" cx="179.5" cy="309.8" r="1.3"/>
        <circle class="st15" cx="177.7" cy="305" r="1.3"/>
        <circle class="st15" cx="162.2" cy="308.2" r="1.3"/>
        <circle class="st15" cx="160.4" cy="303.4" r="1.3"/>
        <circle class="st15" cx="158.6" cy="298.5" r="1.3"/>
        <circle class="st15" cx="156.7" cy="293.6" r="1.3"/>
        <circle class="st15" cx="154.9" cy="288.7" r="1.3"/>
        <circle class="st15" cx="153.1" cy="283.9" r="1.3"/>
        <circle class="st15" cx="151.2" cy="279" r="1.3"/>
        <circle class="st15" cx="168" cy="308.8" r="1.3"/>
        <circle class="st15" cx="166.2" cy="304" r="1.3"/>
        <circle class="st15" cx="164.3" cy="299.1" r="1.3"/>
        <circle class="st15" cx="162.5" cy="294.2" r="1.3"/>
        <circle class="st15" cx="160.7" cy="289.3" r="1.3"/>
        <circle class="st15" cx="158.8" cy="284.5" r="1.3"/>
        <circle class="st15" cx="157" cy="279.6" r="1.3"/>
        <circle class="st15" cx="172" cy="304.6" r="1.3"/>
        <circle class="st15" cx="170.1" cy="299.7" r="1.3"/>
        <circle class="st15" cx="168.3" cy="294.8" r="1.3"/>
        <circle class="st15" cx="166.5" cy="289.9" r="1.3"/>
        <circle class="st15" cx="164.6" cy="285.1" r="1.3"/>
        <circle class="st15" cx="162.8" cy="280.2" r="1.3"/>
        <circle class="st15" cx="161" cy="275.3" r="1.3"/>
        <circle class="st15" cx="177.8" cy="305.2" r="1.3"/>
        <circle class="st15" cx="175.9" cy="300.3" r="1.3"/>
        <circle class="st15" cx="174.1" cy="295.4" r="1.3"/>
        <circle class="st15" cx="172.3" cy="290.5" r="1.3"/>
        <circle class="st15" cx="170.4" cy="285.7" r="1.3"/>
        <circle class="st15" cx="168.6" cy="280.8" r="1.3"/>
        <circle class="st15" cx="166.8" cy="275.9" r="1.3"/>
      </g>
    </g>
    <g>
      <g>
        <circle class="st15" cx="167.6" cy="239.6" r="1.3"/>
        <circle class="st15" cx="172.3" cy="237.3" r="1.3"/>
        <circle class="st15" cx="177" cy="235" r="1.3"/>
        <circle class="st15" cx="181.6" cy="232.7" r="1.3"/>
        <circle class="st15" cx="186.3" cy="230.4" r="1.3"/>
        <circle class="st15" cx="191" cy="228.1" r="1.3"/>
        <circle class="st15" cx="195.6" cy="225.8" r="1.3"/>
        <circle class="st15" cx="200.3" cy="223.5" r="1.3"/>
        <circle class="st15" cx="205" cy="221.2" r="1.3"/>
        <circle class="st15" cx="209.6" cy="218.9" r="1.3"/>
        <circle class="st15" cx="214.3" cy="216.6" r="1.3"/>
        <circle class="st15" cx="219" cy="214.3" r="1.3"/>
        <circle class="st15" cx="223.7" cy="212" r="1.3"/>
        <circle class="st15" cx="228.3" cy="209.6" r="1.3"/>
        <circle class="st15" cx="233" cy="207.3" r="1.3"/>
        <circle class="st15" cx="237.7" cy="205" r="1.3"/>
        <circle class="st15" cx="242.3" cy="202.7" r="1.3"/>
        <circle class="st15" cx="247" cy="200.4" r="1.3"/>
        <circle class="st15" cx="251.7" cy="198.1" r="1.3"/>
        <circle class="st15" cx="167.6" cy="245.4" r="1.3"/>
        <circle class="st15" cx="172.3" cy="243.1" r="1.3"/>
        <circle class="st15" cx="167.6" cy="251.3" r="1.3"/>
        <circle class="st15" cx="172.2" cy="248.9" r="1.3"/>
        <circle class="st15" cx="176.9" cy="246.6" r="1.3"/>
        <circle class="st15" cx="172.2" cy="254.8" r="1.3"/>
        <circle class="st15" cx="176.9" cy="252.5" r="1.3"/>
        <circle class="st15" cx="176.9" cy="240.8" r="1.3"/>
        <circle class="st15" cx="181.6" cy="238.5" r="1.3"/>
        <circle class="st15" cx="186.3" cy="236.2" r="1.3"/>
        <circle class="st15" cx="190.9" cy="233.9" r="1.3"/>
        <circle class="st15" cx="195.6" cy="231.6" r="1.3"/>
        <circle class="st15" cx="200.3" cy="229.3" r="1.3"/>
        <circle class="st15" cx="204.9" cy="227" r="1.3"/>
        <circle class="st15" cx="209.6" cy="224.7" r="1.3"/>
        <circle class="st15" cx="214.3" cy="222.4" r="1.3"/>
        <circle class="st15" cx="219" cy="220.1" r="1.3"/>
        <circle class="st15" cx="181.6" cy="244.3" r="1.3"/>
        <circle class="st15" cx="186.2" cy="242" r="1.3"/>
        <circle class="st15" cx="190.9" cy="239.7" r="1.3"/>
        <circle class="st15" cx="195.6" cy="237.4" r="1.3"/>
        <circle class="st15" cx="200.2" cy="235.1" r="1.3"/>
        <circle class="st15" cx="204.9" cy="232.8" r="1.3"/>
        <circle class="st15" cx="209.6" cy="230.5" r="1.3"/>
        <circle class="st15" cx="214.3" cy="228.2" r="1.3"/>
        <circle class="st15" cx="218.9" cy="225.9" r="1.3"/>
        <circle class="st15" cx="223.6" cy="223.6" r="1.3"/>
        <circle class="st15" cx="181.5" cy="250.2" r="1.3"/>
        <circle class="st15" cx="186.2" cy="247.9" r="1.3"/>
        <circle class="st15" cx="190.9" cy="245.6" r="1.3"/>
        <circle class="st15" cx="195.5" cy="243.2" r="1.3"/>
        <circle class="st15" cx="200.2" cy="240.9" r="1.3"/>
        <circle class="st15" cx="204.9" cy="238.6" r="1.3"/>
        <circle class="st15" cx="209.6" cy="236.3" r="1.3"/>
        <circle class="st15" cx="214.2" cy="234" r="1.3"/>
        <circle class="st15" cx="218.9" cy="231.7" r="1.3"/>
        <circle class="st15" cx="223.6" cy="229.4" r="1.3"/>
        <circle class="st15" cx="223.6" cy="217.8" r="1.3"/>
        <circle class="st15" cx="228.3" cy="215.5" r="1.3"/>
        <circle class="st15" cx="233" cy="213.2" r="1.3"/>
        <circle class="st15" cx="237.6" cy="210.9" r="1.3"/>
        <circle class="st15" cx="242.3" cy="208.6" r="1.3"/>
        <circle class="st15" cx="247" cy="206.3" r="1.3"/>
        <circle class="st15" cx="251.6" cy="203.9" r="1.3"/>
        <circle class="st15" cx="228.3" cy="221.3" r="1.3"/>
        <circle class="st15" cx="232.9" cy="219" r="1.3"/>
        <circle class="st15" cx="237.6" cy="216.7" r="1.3"/>
        <circle class="st15" cx="242.3" cy="214.4" r="1.3"/>
        <circle class="st15" cx="246.9" cy="212.1" r="1.3"/>
        <circle class="st15" cx="251.6" cy="209.8" r="1.3"/>
        <ellipse transform="matrix(0.1602 -0.9871 0.9871 0.1602 10.4245 427.2526)" class="st15" cx="256.3" cy="207.5" rx="1.3" ry="1.3"/>
        <circle class="st15" cx="228.2" cy="227.1" r="1.3"/>
        <circle class="st15" cx="232.9" cy="224.8" r="1.3"/>
        <circle class="st15" cx="237.6" cy="222.5" r="1.3"/>
        <circle class="st15" cx="242.2" cy="220.2" r="1.3"/>
        <circle class="st15" cx="246.9" cy="217.9" r="1.3"/>
        <circle class="st15" cx="251.6" cy="215.6" r="1.3"/>
        <ellipse transform="matrix(0.1602 -0.9871 0.9871 0.1602 4.6994 432.1235)" class="st15" cx="256.3" cy="213.3" rx="1.3" ry="1.3"/>
        <circle class="st15" cx="251.5" cy="198.2" r="1.3"/>
        <ellipse transform="matrix(0.1602 -0.9871 0.9871 0.1602 21.7908 417.412)" class="st15" cx="256.2" cy="195.9" rx="1.3" ry="1.3"/>
        <circle class="st15" cx="260.8" cy="193.6" r="1.3"/>
        <circle class="st15" cx="265.5" cy="191.3" r="1.3"/>
        <circle class="st15" cx="251.5" cy="204" r="1.3"/>
        <ellipse transform="matrix(0.1602 -0.9871 0.9871 0.1602 15.9817 422.1842)" class="st15" cx="256.1" cy="201.7" rx="1.3" ry="1.3"/>
        <circle class="st15" cx="260.8" cy="199.4" r="1.3"/>
        <circle class="st15" cx="265.5" cy="197.1" r="1.3"/>
        <circle class="st15" cx="270.1" cy="194.8" r="1.3"/>
        <ellipse transform="matrix(0.1602 -0.9871 0.9871 0.1602 10.1579 427.1392)" class="st15" cx="256.1" cy="207.6" rx="1.3" ry="1.3"/>
        <circle class="st15" cx="260.8" cy="205.3" r="1.3"/>
        <circle class="st15" cx="265.4" cy="202.9" r="1.3"/>
        <circle class="st15" cx="270.1" cy="200.6" r="1.3"/>
        <ellipse transform="matrix(0.1602 -0.9871 0.9871 0.1602 4.4328 432.0101)" class="st15" cx="256.1" cy="213.4" rx="1.3" ry="1.3"/>
        <circle class="st15" cx="260.7" cy="211.1" r="1.3"/>
      </g>
    </g>
    <g>
      <g>
        <circle class="st15" cx="250.4" cy="417.9" r="1.3"/>
        <circle class="st15" cx="245.2" cy="417.9" r="1.3"/>
        <circle class="st15" cx="239.9" cy="417.9" r="1.3"/>
        <circle class="st15" cx="234.7" cy="417.9" r="1.3"/>
        <circle class="st15" cx="229.5" cy="417.9" r="1.3"/>
        <circle class="st15" cx="224.3" cy="417.9" r="1.3"/>
        <circle class="st15" cx="219.1" cy="417.9" r="1.3"/>
        <circle class="st15" cx="213.9" cy="417.9" r="1.3"/>
        <circle class="st15" cx="208.7" cy="417.9" r="1.3"/>
        <circle class="st15" cx="203.5" cy="417.9" r="1.3"/>
        <circle class="st15" cx="198.3" cy="417.9" r="1.3"/>
        <circle class="st15" cx="193.1" cy="417.9" r="1.3"/>
        <circle class="st15" cx="247.8" cy="412.7" r="1.3"/>
        <circle class="st15" cx="242.6" cy="412.7" r="1.3"/>
        <circle class="st15" cx="237.3" cy="412.7" r="1.3"/>
        <circle class="st15" cx="232.1" cy="412.7" r="1.3"/>
        <circle class="st15" cx="226.9" cy="412.7" r="1.3"/>
        <circle class="st15" cx="221.7" cy="412.7" r="1.3"/>
        <circle class="st15" cx="216.5" cy="412.7" r="1.3"/>
        <circle class="st15" cx="211.3" cy="412.7" r="1.3"/>
        <circle class="st15" cx="206.1" cy="412.7" r="1.3"/>
        <circle class="st15" cx="239.9" cy="407.5" r="1.3"/>
        <circle class="st15" cx="234.7" cy="407.5" r="1.3"/>
        <circle class="st15" cx="229.5" cy="407.5" r="1.3"/>
        <circle class="st15" cx="224.3" cy="407.5" r="1.3"/>
        <circle class="st15" cx="219.1" cy="407.5" r="1.3"/>
        <circle class="st15" cx="213.9" cy="407.5" r="1.3"/>
        <circle class="st15" cx="208.7" cy="407.5" r="1.3"/>
        <circle class="st15" cx="203.5" cy="407.5" r="1.3"/>
        <circle class="st15" cx="232.1" cy="402.3" r="1.3"/>
        <circle class="st15" cx="226.9" cy="402.3" r="1.3"/>
        <circle class="st15" cx="221.7" cy="402.3" r="1.3"/>
        <circle class="st15" cx="216.5" cy="402.3" r="1.3"/>
        <circle class="st15" cx="211.3" cy="402.3" r="1.3"/>
        <circle class="st15" cx="206.1" cy="402.3" r="1.3"/>
        <circle class="st15" cx="200.9" cy="412.7" r="1.3"/>
        <circle class="st15" cx="195.7" cy="412.7" r="1.3"/>
        <circle class="st15" cx="198.3" cy="407.5" r="1.3"/>
        <circle class="st15" cx="200.9" cy="402.3" r="1.3"/>
      </g>
    </g>
    <circle class="st16" cx="147.5" cy="254.3" r="17.6"/>
    <circle class="st8" cx="147.5" cy="254.3" r="6.5"/>
    <g>
      <g>
        <g>
          <circle class="st15" cx="265.1" cy="457.5" r="1.3"/>
          <circle class="st15" cx="259.9" cy="457.5" r="1.3"/>
          <circle class="st15" cx="254.7" cy="457.5" r="1.3"/>
          <circle class="st15" cx="249.5" cy="457.5" r="1.3"/>
          <circle class="st15" cx="244.3" cy="457.5" r="1.3"/>
          <circle class="st15" cx="239.1" cy="457.5" r="1.3"/>
          <circle class="st15" cx="233.9" cy="457.5" r="1.3"/>
          <circle class="st15" cx="228.6" cy="457.5" r="1.3"/>
          <circle class="st15" cx="262.5" cy="452.3" r="1.3"/>
          <circle class="st15" cx="257.3" cy="452.3" r="1.3"/>
          <circle class="st15" cx="252.1" cy="452.3" r="1.3"/>
          <circle class="st15" cx="246.9" cy="452.3" r="1.3"/>
          <circle class="st15" cx="241.7" cy="452.3" r="1.3"/>
          <circle class="st15" cx="236.5" cy="452.3" r="1.3"/>
          <circle class="st15" cx="231.2" cy="452.3" r="1.3"/>
          <circle class="st15" cx="265.1" cy="447.1" r="1.3"/>
          <circle class="st15" cx="259.9" cy="447.1" r="1.3"/>
          <circle class="st15" cx="254.7" cy="447.1" r="1.3"/>
          <circle class="st15" cx="249.5" cy="447.1" r="1.3"/>
          <circle class="st15" cx="244.3" cy="447.1" r="1.3"/>
          <circle class="st15" cx="239.1" cy="447.1" r="1.3"/>
          <circle class="st15" cx="233.9" cy="447.1" r="1.3"/>
          <circle class="st15" cx="228.6" cy="447.1" r="1.3"/>
          <circle class="st15" cx="223.4" cy="457.5" r="1.3"/>
          <circle class="st15" cx="226" cy="452.3" r="1.3"/>
          <circle class="st15" cx="220.8" cy="452.3" r="1.3"/>
          <circle class="st15" cx="223.4" cy="447.1" r="1.3"/>
        </g>
      </g>
      <g>
        <g>
          <circle class="st15" cx="312.8" cy="457.5" r="1.3"/>
          <circle class="st15" cx="307.6" cy="457.5" r="1.3"/>
          <circle class="st15" cx="302.4" cy="457.5" r="1.3"/>
          <circle class="st15" cx="297.2" cy="457.5" r="1.3"/>
          <circle class="st15" cx="292" cy="457.5" r="1.3"/>
          <circle class="st15" cx="286.8" cy="457.5" r="1.3"/>
          <circle class="st15" cx="281.6" cy="457.5" r="1.3"/>
          <circle class="st15" cx="276.3" cy="457.5" r="1.3"/>
          <circle class="st15" cx="310.2" cy="452.3" r="1.3"/>
          <circle class="st15" cx="305" cy="452.3" r="1.3"/>
          <circle class="st15" cx="299.8" cy="452.3" r="1.3"/>
          <circle class="st15" cx="294.6" cy="452.3" r="1.3"/>
          <circle class="st15" cx="289.4" cy="452.3" r="1.3"/>
          <circle class="st15" cx="284.2" cy="452.3" r="1.3"/>
          <circle class="st15" cx="278.9" cy="452.3" r="1.3"/>
          <circle class="st15" cx="312.8" cy="447.1" r="1.3"/>
          <circle class="st15" cx="307.6" cy="447.1" r="1.3"/>
          <circle class="st15" cx="302.4" cy="447.1" r="1.3"/>
          <circle class="st15" cx="297.2" cy="447.1" r="1.3"/>
          <circle class="st15" cx="292" cy="447.1" r="1.3"/>
          <circle class="st15" cx="286.8" cy="447.1" r="1.3"/>
          <circle class="st15" cx="281.6" cy="447.1" r="1.3"/>
          <circle class="st15" cx="276.3" cy="447.1" r="1.3"/>
          <circle class="st15" cx="271.1" cy="457.5" r="1.3"/>
          <circle class="st15" cx="273.7" cy="452.3" r="1.3"/>
          <circle class="st15" cx="268.5" cy="452.3" r="1.3"/>
          <circle class="st15" cx="271.1" cy="447.1" r="1.3"/>
        </g>
      </g>
      <g>
        <g>
          <circle class="st15" cx="359.7" cy="457.5" r="1.3"/>
          <circle class="st15" cx="354.5" cy="457.5" r="1.3"/>
          <circle class="st15" cx="349.3" cy="457.5" r="1.3"/>
          <circle class="st15" cx="344.1" cy="457.5" r="1.3"/>
          <circle class="st15" cx="338.9" cy="457.5" r="1.3"/>
          <circle class="st15" cx="333.7" cy="457.5" r="1.3"/>
          <circle class="st15" cx="328.5" cy="457.5" r="1.3"/>
          <circle class="st15" cx="323.3" cy="457.5" r="1.3"/>
          <circle class="st15" cx="357.1" cy="452.3" r="1.3"/>
          <circle class="st15" cx="351.9" cy="452.3" r="1.3"/>
          <circle class="st15" cx="346.7" cy="452.3" r="1.3"/>
          <circle class="st15" cx="341.5" cy="452.3" r="1.3"/>
          <circle class="st15" cx="336.3" cy="452.3" r="1.3"/>
          <circle class="st15" cx="331.1" cy="452.3" r="1.3"/>
          <circle class="st15" cx="325.9" cy="452.3" r="1.3"/>
          <circle class="st15" cx="359.7" cy="447.1" r="1.3"/>
          <circle class="st15" cx="354.5" cy="447.1" r="1.3"/>
          <circle class="st15" cx="349.3" cy="447.1" r="1.3"/>
          <circle class="st15" cx="344.1" cy="447.1" r="1.3"/>
          <circle class="st15" cx="338.9" cy="447.1" r="1.3"/>
          <circle class="st15" cx="333.7" cy="447.1" r="1.3"/>
          <circle class="st15" cx="328.5" cy="447.1" r="1.3"/>
          <circle class="st15" cx="323.3" cy="447.1" r="1.3"/>
          <circle class="st15" cx="318.1" cy="457.5" r="1.3"/>
          <circle class="st15" cx="320.7" cy="452.3" r="1.3"/>
          <circle class="st15" cx="315.5" cy="452.3" r="1.3"/>
          <circle class="st15" cx="318.1" cy="447.1" r="1.3"/>
        </g>
      </g>
      <g>
        <g>
          <circle class="st15" cx="406.6" cy="457.5" r="1.3"/>
          <circle class="st15" cx="401.4" cy="457.5" r="1.3"/>
          <circle class="st15" cx="396.2" cy="457.5" r="1.3"/>
          <circle class="st15" cx="391" cy="457.5" r="1.3"/>
          <circle class="st15" cx="385.8" cy="457.5" r="1.3"/>
          <circle class="st15" cx="380.6" cy="457.5" r="1.3"/>
          <circle class="st15" cx="375.4" cy="457.5" r="1.3"/>
          <circle class="st15" cx="370.2" cy="457.5" r="1.3"/>
          <circle class="st15" cx="404" cy="452.3" r="1.3"/>
          <circle class="st15" cx="398.8" cy="452.3" r="1.3"/>
          <circle class="st15" cx="393.6" cy="452.3" r="1.3"/>
          <circle class="st15" cx="388.4" cy="452.3" r="1.3"/>
          <circle class="st15" cx="383.2" cy="452.3" r="1.3"/>
          <circle class="st15" cx="378" cy="452.3" r="1.3"/>
          <circle class="st15" cx="372.8" cy="452.3" r="1.3"/>
          <circle class="st15" cx="406.6" cy="447.1" r="1.3"/>
          <circle class="st15" cx="401.4" cy="447.1" r="1.3"/>
          <circle class="st15" cx="396.2" cy="447.1" r="1.3"/>
          <circle class="st15" cx="391" cy="447.1" r="1.3"/>
          <circle class="st15" cx="385.8" cy="447.1" r="1.3"/>
          <circle class="st15" cx="380.6" cy="447.1" r="1.3"/>
          <circle class="st15" cx="375.4" cy="447.1" r="1.3"/>
          <circle class="st15" cx="370.2" cy="447.1" r="1.3"/>
          <circle class="st15" cx="364.9" cy="457.5" r="1.3"/>
          <circle class="st15" cx="367.6" cy="452.3" r="1.3"/>
          <circle class="st15" cx="362.3" cy="452.3" r="1.3"/>
          <circle class="st15" cx="364.9" cy="447.1" r="1.3"/>
        </g>
      </g>
      <g>
        <g>
          <circle class="st15" cx="453.6" cy="457.5" r="1.3"/>
          <circle class="st15" cx="448.3" cy="457.5" r="1.3"/>
          <circle class="st15" cx="443.1" cy="457.5" r="1.3"/>
          <circle class="st15" cx="437.9" cy="457.5" r="1.3"/>
          <circle class="st15" cx="432.7" cy="457.5" r="1.3"/>
          <circle class="st15" cx="427.5" cy="457.5" r="1.3"/>
          <circle class="st15" cx="422.3" cy="457.5" r="1.3"/>
          <circle class="st15" cx="417.1" cy="457.5" r="1.3"/>
          <circle class="st15" cx="450.9" cy="452.3" r="1.3"/>
          <circle class="st15" cx="445.7" cy="452.3" r="1.3"/>
          <circle class="st15" cx="440.5" cy="452.3" r="1.3"/>
          <circle class="st15" cx="435.3" cy="452.3" r="1.3"/>
          <circle class="st15" cx="430.1" cy="452.3" r="1.3"/>
          <circle class="st15" cx="424.9" cy="452.3" r="1.3"/>
          <circle class="st15" cx="419.7" cy="452.3" r="1.3"/>
          <circle class="st15" cx="453.6" cy="447.1" r="1.3"/>
          <circle class="st15" cx="448.3" cy="447.1" r="1.3"/>
          <circle class="st15" cx="443.1" cy="447.1" r="1.3"/>
          <circle class="st15" cx="437.9" cy="447.1" r="1.3"/>
          <circle class="st15" cx="432.7" cy="447.1" r="1.3"/>
          <circle class="st15" cx="427.5" cy="447.1" r="1.3"/>
          <circle class="st15" cx="422.3" cy="447.1" r="1.3"/>
          <circle class="st15" cx="417.1" cy="447.1" r="1.3"/>
          <circle class="st15" cx="411.9" cy="457.5" r="1.3"/>
          <circle class="st15" cx="414.5" cy="452.3" r="1.3"/>
          <circle class="st15" cx="409.3" cy="452.3" r="1.3"/>
          <circle class="st15" cx="411.9" cy="447.1" r="1.3"/>
        </g>
      </g>
      <g>
        <g>
          <circle class="st15" cx="500.4" cy="457.5" r="1.3"/>
          <circle class="st15" cx="495.2" cy="457.5" r="1.3"/>
          <circle class="st15" cx="490" cy="457.5" r="1.3"/>
          <circle class="st15" cx="484.8" cy="457.5" r="1.3"/>
          <circle class="st15" cx="479.6" cy="457.5" r="1.3"/>
          <circle class="st15" cx="474.4" cy="457.5" r="1.3"/>
          <circle class="st15" cx="469.2" cy="457.5" r="1.3"/>
          <circle class="st15" cx="464" cy="457.5" r="1.3"/>
          <circle class="st15" cx="497.8" cy="452.3" r="1.3"/>
          <circle class="st15" cx="492.6" cy="452.3" r="1.3"/>
          <circle class="st15" cx="487.4" cy="452.3" r="1.3"/>
          <circle class="st15" cx="482.2" cy="452.3" r="1.3"/>
          <circle class="st15" cx="477" cy="452.3" r="1.3"/>
          <circle class="st15" cx="471.8" cy="452.3" r="1.3"/>
          <circle class="st15" cx="466.6" cy="452.3" r="1.3"/>
          <circle class="st15" cx="500.4" cy="447.1" r="1.3"/>
          <circle class="st15" cx="495.2" cy="447.1" r="1.3"/>
          <circle class="st15" cx="490" cy="447.1" r="1.3"/>
          <circle class="st15" cx="484.8" cy="447.1" r="1.3"/>
          <circle class="st15" cx="479.6" cy="447.1" r="1.3"/>
          <circle class="st15" cx="474.4" cy="447.1" r="1.3"/>
          <circle class="st15" cx="469.2" cy="447.1" r="1.3"/>
          <circle class="st15" cx="464" cy="447.1" r="1.3"/>
          <circle class="st15" cx="458.8" cy="457.5" r="1.3"/>
          <circle class="st15" cx="461.4" cy="452.3" r="1.3"/>
          <circle class="st15" cx="456.2" cy="452.3" r="1.3"/>
          <circle class="st15" cx="458.8" cy="447.1" r="1.3"/>
        </g>
      </g>
      <g>
        <g>
          <circle class="st15" cx="548.1" cy="457.5" r="1.3"/>
          <circle class="st15" cx="542.9" cy="457.5" r="1.3"/>
          <circle class="st15" cx="537.7" cy="457.5" r="1.3"/>
          <circle class="st15" cx="532.5" cy="457.5" r="1.3"/>
          <circle class="st15" cx="527.3" cy="457.5" r="1.3"/>
          <circle class="st15" cx="522.1" cy="457.5" r="1.3"/>
          <circle class="st15" cx="516.9" cy="457.5" r="1.3"/>
          <circle class="st15" cx="511.7" cy="457.5" r="1.3"/>
          <circle class="st15" cx="545.5" cy="452.3" r="1.3"/>
          <circle class="st15" cx="540.3" cy="452.3" r="1.3"/>
          <circle class="st15" cx="535.1" cy="452.3" r="1.3"/>
          <circle class="st15" cx="529.9" cy="452.3" r="1.3"/>
          <circle class="st15" cx="524.7" cy="452.3" r="1.3"/>
          <circle class="st15" cx="519.5" cy="452.3" r="1.3"/>
          <circle class="st15" cx="514.3" cy="452.3" r="1.3"/>
          <circle class="st15" cx="548.1" cy="447.1" r="1.3"/>
          <circle class="st15" cx="542.9" cy="447.1" r="1.3"/>
          <circle class="st15" cx="537.7" cy="447.1" r="1.3"/>
          <circle class="st15" cx="532.5" cy="447.1" r="1.3"/>
          <circle class="st15" cx="527.3" cy="447.1" r="1.3"/>
          <circle class="st15" cx="522.1" cy="447.1" r="1.3"/>
          <circle class="st15" cx="516.9" cy="447.1" r="1.3"/>
          <circle class="st15" cx="511.7" cy="447.1" r="1.3"/>
          <circle class="st15" cx="506.5" cy="457.5" r="1.3"/>
          <circle class="st15" cx="509.1" cy="452.3" r="1.3"/>
          <circle class="st15" cx="503.9" cy="452.3" r="1.3"/>
          <circle class="st15" cx="506.5" cy="447.1" r="1.3"/>
        </g>
      </g>
      <g>
        <g>
          <circle class="st15" cx="595.1" cy="457.5" r="1.3"/>
          <circle class="st15" cx="589.9" cy="457.5" r="1.3"/>
          <circle class="st15" cx="584.6" cy="457.5" r="1.3"/>
          <circle class="st15" cx="579.4" cy="457.5" r="1.3"/>
          <circle class="st15" cx="574.2" cy="457.5" r="1.3"/>
          <circle class="st15" cx="569" cy="457.5" r="1.3"/>
          <circle class="st15" cx="563.8" cy="457.5" r="1.3"/>
          <circle class="st15" cx="558.6" cy="457.5" r="1.3"/>
          <circle class="st15" cx="592.5" cy="452.3" r="1.3"/>
          <circle class="st15" cx="587.3" cy="452.3" r="1.3"/>
          <circle class="st15" cx="582" cy="452.3" r="1.3"/>
          <circle class="st15" cx="576.8" cy="452.3" r="1.3"/>
          <circle class="st15" cx="571.6" cy="452.3" r="1.3"/>
          <circle class="st15" cx="566.4" cy="452.3" r="1.3"/>
          <circle class="st15" cx="561.2" cy="452.3" r="1.3"/>
          <circle class="st15" cx="595.1" cy="447.1" r="1.3"/>
          <circle class="st15" cx="589.9" cy="447.1" r="1.3"/>
          <circle class="st15" cx="584.6" cy="447.1" r="1.3"/>
          <circle class="st15" cx="579.4" cy="447.1" r="1.3"/>
          <circle class="st15" cx="574.2" cy="447.1" r="1.3"/>
          <circle class="st15" cx="569" cy="447.1" r="1.3"/>
          <circle class="st15" cx="563.8" cy="447.1" r="1.3"/>
          <circle class="st15" cx="558.6" cy="447.1" r="1.3"/>
          <circle class="st15" cx="553.4" cy="457.5" r="1.3"/>
          <circle class="st15" cx="556" cy="452.3" r="1.3"/>
          <circle class="st15" cx="550.8" cy="452.3" r="1.3"/>
          <circle class="st15" cx="553.4" cy="447.1" r="1.3"/>
        </g>
      </g>
      <g>
        <g>
          <circle class="st15" cx="616.4" cy="457.5" r="1.3"/>
          <circle class="st15" cx="611.2" cy="457.5" r="1.3"/>
          <circle class="st15" cx="606" cy="457.5" r="1.3"/>
          <circle class="st15" cx="619" cy="452.3" r="1.3"/>
          <circle class="st15" cx="613.8" cy="452.3" r="1.3"/>
          <circle class="st15" cx="608.6" cy="452.3" r="1.3"/>
          <circle class="st15" cx="616.4" cy="447.1" r="1.3"/>
          <circle class="st15" cx="611.2" cy="447.1" r="1.3"/>
          <circle class="st15" cx="606" cy="447.1" r="1.3"/>
          <circle class="st15" cx="600.8" cy="457.5" r="1.3"/>
          <circle class="st15" cx="603.4" cy="452.3" r="1.3"/>
          <circle class="st15" cx="598.2" cy="452.3" r="1.3"/>
          <circle class="st15" cx="600.8" cy="447.1" r="1.3"/>
        </g>
      </g>
    </g>
    <g>
      <path class="st3" d="M608.8,448.4H232.4c-2,0-3.5-1.6-3.5-3.5V432c0-2,1.6-3.5,3.5-3.5h376.4c2,0,3.5,1.6,3.5,3.5v12.9 C612.4,446.8,610.8,448.4,608.8,448.4z"/>
      <path class="st3" d="M594,428.4H244.3V233c0-2,1.6-3.5,3.5-3.5h342.7c2,0,3.5,1.6,3.5,3.5V428.4L594,428.4z"/>
      <path class="st13" d="M581,416.7H258.6V244.9c0-1.3,1.1-2.4,2.4-2.4h317.6c1.3,0,2.4,1.1,2.4,2.4V416.7z"/>
      <rect x="258.6" y="242.4" class="st17" width="322.4" height="14.5"/>
      <circle class="st18" cx="267.8" cy="249.9" r="2.5"/>
      <circle class="st19" cx="275.8" cy="249.9" r="2.5"/>
      <circle class="st20" cx="283.8" cy="249.9" r="2.5"/>
      <polyline class="st13" points="390.6,428.4 394.4,438.4 445.7,438.2 450.7,428.4 &#9;&#9;"/>
    </g>
    <linearGradient id="SVGID_7_" gradientUnits="userSpaceOnUse" x1="302.2996" y1="313.5605" x2="302.2996" y2="391.7745" gradientTransform="matrix(0.9768 -0.2143 -0.2143 -0.9768 110.1904 614.9684)">
      <stop offset="0" style="stop-color:#FFFFFF;stop-opacity:0"/>
      <stop offset="0.0874" style="stop-color:#FEF7E8;stop-opacity:8.740598e-02"/>
      <stop offset="0.3228" style="stop-color:#FBE4AE;stop-opacity:0.3228"/>
      <stop offset="0.5401" style="stop-color:#F8D580;stop-opacity:0.5401"/>
      <stop offset="0.7322" style="stop-color:#F6CA5F;stop-opacity:0.7322"/>
      <stop offset="0.8921" style="stop-color:#F5C34B;stop-opacity:0.8921"/>
      <stop offset="1" style="stop-color:#F5C144"/>
    </linearGradient>
    <circle class="st21" cx="329.9" cy="205.7" r="39.1"/>
    <path class="st17" d="M318.6,161c-24.3,6.2-38.9,30.9-32.7,55.1l87.8-22.4C367.5,169.5,342.9,154.8,318.6,161z"/>
    <line class="st13" x1="284.5" y1="203.2" x2="368.7" y2="181.8"/>
    <g>
      <g id="Build_stage_job_row_1_1_">
        <g>
          <path class="st22" d="M557,400.1c0,0.3-0.2,0.6-0.6,0.6h-273c-0.3,0-0.6-0.2-0.6-0.6v-8.8c0-0.3,0.2-0.6,0.6-0.6h273 c0.3,0,0.6,0.2,0.6,0.6V400.1z"/>
        </g>
        <g id="Restart_build_stage_button_2_">
          <g>
            <g id="icon-clock_1_">
              <circle class="st23" cx="551" cy="395.5" r="2.5"/>
            </g>
          </g>
        </g>
        <line id="Build_stages_divider_2_" class="st22" x1="324.5" y1="392.4" x2="324.5" y2="398.5"/>
        <path class="st24" d="M531.9,396.8h-19.4c-0.6,0-1.1-0.5-1.1-1.1v-0.6c0-0.6,0.5-1.1,1.1-1.1h19.4c0.6,0,1.1,0.5,1.1,1.1v0.6 C533.1,396.3,532.6,396.8,531.9,396.8z"/>
        <circle id="Committer_avatar_36_" class="st25" cx="507.1" cy="395.5" r="1.5"/>
        <path class="st24" d="M436.1,396.8h-30.4c-0.6,0-1.1-0.5-1.1-1.1v-0.6c0-0.6,0.5-1.1,1.1-1.1h30.4c0.6,0,1.1,0.5,1.1,1.1v0.6 C437.2,396.3,436.7,396.8,436.1,396.8z"/>
        <circle id="Committer_avatar_35_" class="st25" cx="400.3" cy="395.5" r="1.5"/>
        <path class="st24" d="M368.3,396.8H350c-0.6,0-1.1-0.5-1.1-1.1v-0.6c0-0.6,0.5-1.1,1.1-1.1h18.3c0.6,0,1.1,0.5,1.1,1.1v0.6 C369.4,396.3,368.9,396.8,368.3,396.8z"/>
        <path class="st26" d="M310.5,396.8H303c-0.6,0-1.1-0.5-1.1-1.1v-0.6c0-0.6,0.5-1.1,1.1-1.1h7.5c0.6,0,1.1,0.5,1.1,1.1v0.6 C311.7,396.3,311.1,396.8,310.5,396.8z"/>
        <circle id="Committer_avatar_34_" class="st25" cx="344.6" cy="395.5" r="1.5"/>
        <circle id="Committer_avatar_33_" class="st25" cx="331.6" cy="395.5" r="1.5"/>
        <circle id="Committer_avatar_31_" class="st26" cx="289.2" cy="395.5" r="1.5"/>
        <circle id="Committer_avatar_30_" class="st25" cx="297.7" cy="395.5" r="1.5"/>
      </g>
      <g id="Build_stage_header_1_">
        <g id="Build_stage_status_and_name_1_">
          <circle id="Committer_avatar_28_" class="st26" cx="285.1" cy="382.9" r="1.5"/>
          <path class="st26" d="M297.1,384.9h-6.8c-0.6,0-1.1-0.5-1.1-1.1v-1.6c0-0.6,0.5-1.1,1.1-1.1h6.8c0.6,0,1.1,0.5,1.1,1.1v1.6 C298.3,384.3,297.8,384.9,297.1,384.9z"/>
        </g>
        <path class="st24" d="M531.9,384.4h-19.4c-0.6,0-1.1-0.5-1.1-1.1v-0.6c0-0.6,0.5-1.1,1.1-1.1h19.4c0.6,0,1.1,0.5,1.1,1.1v0.6 C533.1,383.9,532.6,384.4,531.9,384.4z"/>
        <circle id="Committer_avatar_27_" class="st25" cx="507.1" cy="383.1" r="1.5"/>
      </g>
      <g id="Build_Header_1_">
        <g id="Left_Build_Header_Column_1_">
          <g id="Cron_Label_1_">
            <path id="Cron_bg_container_1_" class="st24" d="M337.8,329.4c0,1.2-1,2.2-2.2,2.2h-8.1c-1.2,0-2.2-1-2.2-2.2v-0.6 c0-1.2,1-2.2,2.2-2.2h8.1c1.2,0,2.2,1,2.2,2.2V329.4z"/>
          </g>
        </g>
        <rect id="Build_Status_Color_Bar_1_" x="283" y="322.1" class="st26" width="2.8" height="42.7"/>
        <rect id="Build_Header_Container_1_" x="282.9" y="322.1" class="st22" width="273.9" height="42.7"/>
      </g>
      <g id="Build_Navigation_1_">
        <g id="More_Options_Dropdown_1_">
          <g id="More_options_Container_1_">
            <g>
              <path class="st24" d="M556.8,314.9c0,0.3-0.2,0.6-0.6,0.6H519c-0.3,0-0.6-0.2-0.6-0.6v-6.8c0-0.3,0.2-0.6,0.6-0.6h37.2 c0.3,0,0.6,0.2,0.6,0.6V314.9z"/>
              <path class="st22" d="M556.8,314.9c0,0.3-0.2,0.6-0.6,0.6H519c-0.3,0-0.6-0.2-0.6-0.6v-6.8c0-0.3,0.2-0.6,0.6-0.6h37.2 c0.3,0,0.6,0.2,0.6,0.6V314.9z"/>
            </g>
          </g>
          <g id="Tofuburger_1_">
            <line class="st27" x1="549.5" y1="310.1" x2="554.4" y2="310.1"/>
            <line class="st27" x1="549.5" y1="312.8" x2="554.4" y2="312.8"/>
            <line class="st27" x1="549.5" y1="311.4" x2="554.4" y2="311.4"/>
          </g>
        </g>
        <g id="Build_Tabs_1_">
          <g>
            <rect x="282.9" y="316.7" class="st24" width="274.1" height="0.6"/>
          </g>
          <g>
            <rect x="282.9" y="316.7" class="st28" width="17.1" height="0.6"/>
          </g>
        </g>
      </g>
      <g id="Org_x2F_Repo_Header_Section_1_">
        <g id="Status_Badge__x28_from_Shields.io_x29__1_">
          <g>
            <g>
              <defs>
                <path id="SVGID_8_" d="M397.5,290.2h22.6c0.5,0,0.8,0.4,0.8,0.8v3.9c0,0.5-0.4,0.8-0.8,0.8h-22.6c-0.5,0-0.8-0.4-0.8-0.8V291 C396.6,290.6,397,290.2,397.5,290.2z"/>
              </defs>
              <clipPath id="SVGID_9_">
                <path d="M 397.5 290.2 L 420.1 290.2 C 420.6 290.2 420.9 290.6 420.9 291 L 420.9 294.9 C 420.9 295.4 420.5 295.7 420.1 295.7 L 397.5 295.7 C 397 295.7 396.7 295.3 396.7 294.9 L 396.7 291 C 396.6 290.6 397 290.2 397.5 290.2 Z" style="overflow: visible;"/>
              </clipPath>
              <g class="st29">
                <path class="st30" d="M396.6,290.2h10.2v5.5h-10.2V290.2z"/>
                <path class="st31" d="M406.8,290.2h14.1v5.5h-14.1V290.2z"/>
                <linearGradient id="SVGID_10_" gradientUnits="userSpaceOnUse" x1="389.2244" y1="296.5595" x2="389.2244" y2="296.8352" gradientTransform="matrix(88 0 0 20 -33843 -5641)">
                  <stop offset="0" style="stop-color:#BABABA;stop-opacity:0.1"/>
                  <stop offset="1" style="stop-color:#000000;stop-opacity:0.1"/>
                </linearGradient>
                <path class="st32" d="M396.6,290.2h24.3v5.5h-24.3V290.2z"/>
              </g>
            </g>
          </g>
        </g>
        <path id="icon-github_3_" class="st33" d="M388.2,288.8c-2.3,0-4.1,1.9-4.1,4.2c0,1.9,1.2,3.5,2.8,4c0.2,0,0.3-0.1,0.3-0.2 s0-0.4,0-0.7c-1.1,0.3-1.4-0.6-1.4-0.6c-0.2-0.5-0.5-0.6-0.5-0.6c-0.4-0.3,0-0.3,0-0.3c0.4,0,0.6,0.4,0.6,0.4 c0.4,0.6,1,0.5,1.2,0.4c0-0.3,0.1-0.5,0.3-0.6c-0.9-0.1-1.9-0.5-1.9-2.1c0-0.5,0.2-0.8,0.4-1.1c0-0.1-0.2-0.5,0-1.1 c0,0,0.3-0.1,1.1,0.4c0.3-0.1,0.7-0.1,1-0.1c0.4,0,0.7,0,1,0.1c0.8-0.5,1.1-0.4,1.1-0.4c0.2,0.6,0.1,1,0,1.1 c0.3,0.3,0.4,0.7,0.4,1.1c0,1.6-1,2-1.9,2.1c0.1,0.1,0.3,0.4,0.3,0.8c0,0.6,0,1,0,1.2c0,0.1,0.1,0.2,0.3,0.2 c1.6-0.6,2.8-2.2,2.8-4C392.4,290.7,390.5,288.8,388.2,288.8z"/>
        <g id="icon-lock_1_">
          <g>
            <path class="st34" d="M286.9,295.7c0,0.3-0.2,0.6-0.6,0.6h-3.9c-0.3,0-0.6-0.2-0.6-0.6v-3.2c0-0.3,0.2-0.6,0.6-0.6h3.9 c0.3,0,0.6,0.2,0.6,0.6V295.7z"/>
          </g>
          <path class="st34" d="M283.4,291.9v-0.8c0-0.6,0.5-1,1-1c0.6,0,1,0.5,1,1v0.8"/>
          <path class="st34" d="M285.2,293.7c0-0.4-0.3-0.7-0.7-0.7s-0.7,0.3-0.7,0.7c0,0.3,0.1,0.5,0.3,0.6v0.1v0.6 c0,0.1,0.1,0.1,0.1,0.1h0.6c0.1,0,0.1-0.1,0.1-0.1v-0.6v-0.1C285.1,294.2,285.2,293.9,285.2,293.7z"/>
        </g>
      </g>
      <g id="TopBar_1_">
        <rect id="Background_container_1_" x="259.9" y="258.9" class="st35" width="319.6" height="20.2"/>
        <g id="Logo_1_">
          <path class="st36" d="M282.5,267.3h-1.6v-0.8h4.1v0.8h-1.6v4.7h-1v-4.7H282.5z"/>
          <path class="st36" d="M284.9,267.8h0.8l0.1,0.7l0,0c0.3-0.5,0.7-0.8,1.2-0.8c0.2,0,0.3,0,0.5,0.1l-0.2,0.8 c-0.1,0-0.3-0.1-0.4-0.1c-0.3,0-0.7,0.2-1,0.8v2.5h-1V267.8L284.9,267.8z"/>
          <path class="st36" d="M290.1,269.3c0-0.4-0.2-0.8-0.7-0.8c-0.4,0-0.8,0.2-1.2,0.4l-0.4-0.6c0.5-0.3,1-0.5,1.7-0.5 c1,0,1.5,0.6,1.5,1.8v2.4h-0.8l-0.1-0.5l0,0c-0.4,0.3-0.8,0.6-1.3,0.6c-0.7,0-1.2-0.5-1.2-1.2 C287.7,270,288.4,269.5,290.1,269.3z M289.2,271.3c0.3,0,0.6-0.2,0.9-0.5v-0.9c-1.1,0.1-1.5,0.4-1.5,0.8 C288.6,271.1,288.8,271.3,289.2,271.3z"/>
          <path class="st36" d="M291.3,267.8h1l0.7,2.1c0.1,0.4,0.2,0.8,0.3,1.2l0,0c0.1-0.4,0.2-0.8,0.4-1.2l0.7-2.1h0.9l-1.4,4.1h-1.1 L291.3,267.8z"/>
          <path class="st36" d="M295.6,266.6c0-0.3,0.3-0.6,0.6-0.6c0.3,0,0.6,0.2,0.6,0.6c0,0.3-0.3,0.5-0.6,0.5S295.6,266.9,295.6,266.6 z M295.8,267.8h1v4.1h-1V267.8L295.8,267.8z"/>
          <path class="st36" d="M297.7,270.9c0.4,0.3,0.7,0.5,1.1,0.5s0.7-0.2,0.7-0.5s-0.4-0.5-0.9-0.7s-1.2-0.5-1.2-1.2s0.6-1.2,1.5-1.2 c0.6,0,1,0.2,1.4,0.5l-0.4,0.6c-0.3-0.2-0.6-0.4-0.9-0.4c-0.4,0-0.6,0.2-0.6,0.5s0.4,0.5,0.9,0.6c0.6,0.2,1.2,0.5,1.2,1.2 s-0.6,1.3-1.6,1.3c-0.6,0-1.2-0.2-1.6-0.6L297.7,270.9z"/>
          <path class="st36" d="M305.2,266.4c0.7,0,1.2,0.3,1.6,0.7l-0.5,0.6c-0.3-0.3-0.6-0.5-1-0.5c-0.9,0-1.5,0.8-1.5,2s0.6,2,1.5,2 c0.5,0,0.8-0.2,1.2-0.5l0.5,0.6c-0.4,0.5-1,0.8-1.7,0.8c-1.4,0-2.5-1-2.5-2.8C302.6,267.4,303.8,266.4,305.2,266.4z"/>
          <path class="st36" d="M307.4,266.5h1v5.5h-1V266.5z"/>
        </g>
      </g>
      <text id="Organization__x2F__Repository_1_" transform="matrix(1 0 0 1 331.5277 295.7262)" class="st37 st38 st39" style="white-space: pre;"> / </text>
    </g>
    <path class="st24" d="M332.9,271h-14.8c-0.6,0-1.1-0.5-1.1-1.1v-1.6c0-0.6,0.5-1.1,1.1-1.1h14.8c0.6,0,1.1,0.5,1.1,1.1v1.6 C334.1,270.4,333.6,271,332.9,271z"/>
    <path class="st24" d="M329.4,295.4h-37.6c-0.6,0-1.1-0.5-1.1-1.1v-2.1c0-0.6,0.5-1.1,1.1-1.1h37.6c0.6,0,1.1,0.5,1.1,1.1v2.1 C330.5,294.9,330,295.4,329.4,295.4z"/>
    <path class="st24" d="M378.1,295.4h-37.6c-0.6,0-1.1-0.5-1.1-1.1v-2.1c0-0.6,0.5-1.1,1.1-1.1h37.6c0.6,0,1.1,0.5,1.1,1.1v2.1 C379.2,294.9,378.7,295.4,378.1,295.4z"/>
    <path class="st24" d="M356.6,271h-14.8c-0.6,0-1.1-0.5-1.1-1.1v-1.6c0-0.6,0.5-1.1,1.1-1.1h14.8c0.6,0,1.1,0.5,1.1,1.1v1.6 C357.8,270.4,357.2,271,356.6,271z"/>
    <path class="st24" d="M380.3,271h-14.8c-0.6,0-1.1-0.5-1.1-1.1v-1.6c0-0.6,0.5-1.1,1.1-1.1h14.8c0.6,0,1.1,0.5,1.1,1.1v1.6 C381.5,270.4,381,271,380.3,271z"/>
    <path class="st28" d="M298.9,313.1h-14.8c-0.6,0-1.1-0.5-1.1-1.1v-1.6c0-0.6,0.5-1.1,1.1-1.1h14.8c0.6,0,1.1,0.5,1.1,1.1v1.6 C300,312.6,299.5,313.1,298.9,313.1z"/>
    <path class="st24" d="M322.6,313.1h-14.8c-0.6,0-1.1-0.5-1.1-1.1v-1.6c0-0.6,0.5-1.1,1.1-1.1h14.8c0.6,0,1.1,0.5,1.1,1.1v1.6 C323.7,312.6,323.2,313.1,322.6,313.1z"/>
    <path class="st24" d="M346.3,313.1h-14.8c-0.6,0-1.1-0.5-1.1-1.1v-1.6c0-0.6,0.5-1.1,1.1-1.1h14.8c0.6,0,1.1,0.5,1.1,1.1v1.6 C347.4,312.6,346.9,313.1,346.3,313.1z"/>
    <path class="st24" d="M367.7,313.1h-14.8c-0.6,0-1.1-0.5-1.1-1.1v-1.6c0-0.6,0.5-1.1,1.1-1.1h14.8c0.6,0,1.1,0.5,1.1,1.1v1.6 C368.8,312.6,368.3,313.1,367.7,313.1z"/>
    <path class="st26" d="M321.2,330.4h-24.9c-0.6,0-1.1-0.5-1.1-1.1v-0.6c0-0.6,0.5-1.1,1.1-1.1h24.9c0.6,0,1.1,0.5,1.1,1.1v0.6 C322.3,329.9,321.8,330.4,321.2,330.4z"/>
    <path class="st24" d="M326.8,341H302c-0.6,0-1.1-0.5-1.1-1.1v-0.6c0-0.6,0.5-1.1,1.1-1.1h24.9c0.6,0,1.1,0.5,1.1,1.1v0.6 C328,340.5,327.5,341,326.8,341z"/>
    <path class="st24" d="M326.8,347.8H302c-0.6,0-1.1-0.5-1.1-1.1v-0.6c0-0.6,0.5-1.1,1.1-1.1h24.9c0.6,0,1.1,0.5,1.1,1.1v0.6 C328,347.3,327.5,347.8,326.8,347.8z"/>
    <path class="st26" d="M366.2,330.4h-24.9c-0.6,0-1.1-0.5-1.1-1.1v-0.6c0-0.6,0.5-1.1,1.1-1.1h24.9c0.6,0,1.1,0.5,1.1,1.1v0.6 C367.3,329.9,366.8,330.4,366.2,330.4z"/>
    <circle id="Committer_avatar_26_" class="st25" cx="296.6" cy="339.7" r="1.5"/>
    <circle id="Committer_avatar_24_" class="st26" cx="290" cy="329.2" r="1.5"/>
    <circle id="Committer_avatar_23_" class="st25" cx="296.6" cy="346.6" r="1.5"/>
    <path class="st24" d="M326.8,358.1H302c-0.6,0-1.1-0.5-1.1-1.1v-0.6c0-0.6,0.5-1.1,1.1-1.1h24.9c0.6,0,1.1,0.5,1.1,1.1v0.6 C328,357.6,327.5,358.1,326.8,358.1z"/>
    <circle id="Committer_avatar_22_" class="st25" cx="296.6" cy="357" r="1.5"/>
    <path class="st24" d="M463.6,347.8h-24.9c-0.6,0-1.1-0.5-1.1-1.1v-0.6c0-0.6,0.5-1.1,1.1-1.1h24.9c0.6,0,1.1,0.5,1.1,1.1v0.6 C464.8,347.3,464.2,347.8,463.6,347.8z"/>
    <path class="st40" d="M463.6,330.9h-24.9c-0.6,0-1.1-0.5-1.1-1.1v-0.6c0-0.6,0.5-1.1,1.1-1.1h24.9c0.6,0,1.1,0.5,1.1,1.1v0.6 C464.8,330.4,464.2,330.9,463.6,330.9z"/>
    <circle id="Committer_avatar_21_" class="st40" cx="433.4" cy="329.6" r="1.5"/>
    <circle id="Committer_avatar_20_" class="st25" cx="433.4" cy="346.6" r="1.5"/>
    <path class="st24" d="M463.6,358.1h-24.9c-0.6,0-1.1-0.5-1.1-1.1v-0.6c0-0.6,0.5-1.1,1.1-1.1h24.9c0.6,0,1.1,0.5,1.1,1.1v0.6 C464.8,357.6,464.2,358.1,463.6,358.1z"/>
    <circle id="Committer_avatar_18_" class="st25" cx="433.4" cy="357" r="1.5"/>
    <path class="st24" d="M551.9,332.3h-32.4c-0.6,0-1.1-0.5-1.1-1.1V328c0-0.6,0.5-1.1,1.1-1.1h32.4c0.6,0,1.1,0.5,1.1,1.1v3.2 C553.1,331.8,552.6,332.3,551.9,332.3z"/>
    <path class="st13" d="M647.7,412.8H629c-0.5,0-0.9-0.4-0.9-0.9v-11.5c0-0.5,0.4-0.9,0.9-0.9h18.7c0.5,0,0.9,0.4,0.9,0.9v11.5 C648.7,412.4,648.2,412.8,647.7,412.8z"/>
  </g>
</svg>
