<?xml version="1.0" encoding="utf-8"?>
<!-- Generator: Adobe Illustrator 16.0.4, SVG Export Plug-In . SVG Version: 6.00 Build 0)  -->
<!DOCTYPE svg PUBLIC "-//W3C//DTD SVG 1.1//EN" "http://www.w3.org/Graphics/SVG/1.1/DTD/svg11.dtd">
<svg version="1.1" id="Layer_1" xmlns="http://www.w3.org/2000/svg" xmlns:xlink="http://www.w3.org/1999/xlink" x="0px" y="0px"
	 width="15.374px" height="15.372px" viewBox="0 0 15.374 15.372" enable-background="new 0 0 15.374 15.372" xml:space="preserve">
<g>
	<path fill="#D0CFCE" d="M7.7,0.2c-4.142,0-7.5,3.358-7.5,7.5c0,4.141,3.358,7.5,7.5,7.5c4.143,0,7.5-3.359,7.5-7.5
		C15.2,3.558,11.843,0.2,7.7,0.2z M7.7,13.326c-3.102,0-5.625-2.523-5.625-5.625S4.599,2.075,7.7,2.075s5.625,2.523,5.625,5.625
		S10.802,13.326,7.7,13.326z"/>
	<path fill="#D0CFCE" d="M11.339,9.381L8.372,7.377V3.928c0-0.083-0.033-0.163-0.091-0.221C8.223,3.648,8.142,3.615,8.06,3.615
		h-0.82c-0.083,0-0.163,0.034-0.221,0.092C6.96,3.765,6.927,3.845,6.927,3.928v4.074c0,0.082,0.033,0.162,0.092,0.221
		c0.023,0.023,0.051,0.043,0.08,0.059l3.457,2.315c0.052,0.035,0.112,0.053,0.173,0.053c0.022,0,0.045-0.002,0.066-0.008
		c0.083-0.016,0.154-0.066,0.199-0.139l0.436-0.695C11.519,9.664,11.479,9.475,11.339,9.381z"/>
</g>
</svg>
