<?xml version="1.0" encoding="utf-8"?>
<!-- Generator: Adobe Illustrator 22.0.1, SVG Export Plug-In . SVG Version: 6.00 Build 0)  -->
<svg version="1.1" id="Layer_1" xmlns="http://www.w3.org/2000/svg" xmlns:xlink="http://www.w3.org/1999/xlink" x="0px" y="0px"
	 viewBox="0 0 147.3 56.2" style="enable-background:new 0 0 147.3 56.2;" xml:space="preserve">
<style type="text/css">
	.st0{fill:#E92C35;}
</style>
<g>
	<g>
		<polygon class="st0" points="11,22.3 20.7,22.3 20.7,25.4 14.5,25.4 14.5,29.3 20.6,29.3 20.6,32.3 14.5,32.3 14.5,36.5 
			20.7,36.5 20.7,39.6 11,39.6 		"/>
		<g>
			<path class="st0" d="M22.9,26.8h2.9c0,0.6,0,1.1,0,1.7c0.6-1,1.7-2.1,4-2.1c4.2,0,5,3.2,5,5.5v7.7h-3.1v-7c0-1.9-0.6-3.4-2.8-3.4
				c-2.2,0-2.9,1.5-2.9,3.3v7.1h-3.1V26.8z"/>
			<path class="st0" d="M50.3,38.1c0,2.1-0.4,3.5-1.2,4.5c-1.1,1.5-3.2,2.6-5.9,2.6c-4,0-5.9-2.4-6.4-4.4h3.5c0.3,0.6,0.8,1,1.3,1.3
				c0.6,0.3,1.3,0.4,1.7,0.4c1.8,0,3.8-1.3,3.8-3.9v-1.1c-0.6,1.1-2,2.3-4.2,2.3c-3.7,0-6.5-2.8-6.5-6.7c0-4.2,3-6.8,6.5-6.8
				c1.8,0,3.4,0.8,4.2,2.1v-1.7h3.1V38.1z M39.6,33.2c0,2.2,1.6,3.9,3.8,3.9c1.1,0,2.1-0.4,2.7-1.1c0.7-0.7,1.1-1.6,1.1-2.7
				c0-1-0.3-2-0.9-2.8c-0.6-0.8-1.6-1.3-2.9-1.3C41.3,29.2,39.6,30.8,39.6,33.2L39.6,33.2z"/>
			<rect x="52.8" y="26.8" class="st0" width="3.1" height="12.8"/>
			<path class="st0" d="M58.4,26.8h2.9c0,0.6,0,1.1,0,1.7c0.6-1,1.7-2.1,4-2.1c4.2,0,5,3.2,5,5.5v7.7h-3.1v-7c0-1.9-0.6-3.4-2.8-3.4
				c-2.2,0-2.9,1.5-2.9,3.3v7.1h-3.1V26.8z"/>
			<path class="st0" d="M74.5,34.2c0.1,2.1,2,3.2,3.7,3.2c1.5,0,2.5-0.7,3.1-1.7h3.2c-0.6,1.4-1.5,2.5-2.6,3.2
				c-1.1,0.7-2.3,1.1-3.7,1.1c-3.9,0-6.8-3.2-6.8-6.8c0-3.6,2.8-6.8,6.7-6.8c1.9,0,3.6,0.7,4.8,2c1.6,1.6,2.1,3.6,1.9,5.9H74.5z
				 M81.8,31.9c-0.1-1.2-1.4-2.9-3.6-2.9c-2.3,0-3.5,1.6-3.6,2.9H81.8z"/>
			<polygon class="st0" points="96.4,33.4 91.1,22.3 94.8,22.3 98.1,30.1 101.4,22.3 105.1,22.3 99.9,33.4 99.9,39.6 96.4,39.6 			
				"/>
			<path class="st0" d="M117.3,39.6h-3.1v-1.8c-0.8,1.5-2.5,2.2-4.3,2.2c-4.1,0-6.5-3.2-6.5-6.8c0-4,2.9-6.8,6.5-6.8
				c2.3,0,3.8,1.2,4.3,2.3v-1.9h3.1V39.6z M106.5,33.2c0,1.6,1.1,3.9,3.9,3.9c1.7,0,2.8-0.9,3.4-2.1c0.3-0.6,0.4-1.2,0.5-1.8
				c0-0.6-0.1-1.2-0.4-1.8c-0.5-1.2-1.7-2.3-3.6-2.3C107.9,29.2,106.5,31.2,106.5,33.2L106.5,33.2z"/>
			<path class="st0" d="M119.9,26.8h2.9v1.7c0.6-1.1,1.6-2.1,3.5-2.1v3.1h-0.1c-2.1,0-3.2,1-3.2,3.2v6.9h-3.1V26.8z"/>
			<path class="st0" d="M140.2,39.6h-2.9v-1.8c-0.6,1-1.8,2.2-4.4,2.2c-3.9,0-6.5-3.1-6.5-6.8c0-4.2,3-6.8,6.4-6.8
				c2.5,0,3.8,1.3,4.3,2.1v-1.9v-4.2h3.1V39.6z M129.5,33.2c0,2.2,1.6,3.9,3.9,3.9c1.1,0,2.1-0.4,2.8-1.2c0.7-0.7,1.1-1.7,1.1-2.8
				c0-1.1-0.4-2.1-1.1-2.8c-0.7-0.7-1.7-1.1-2.8-1.1C130.9,29.2,129.5,31.1,129.5,33.2L129.5,33.2z"/>
			<path class="st0" d="M49.7,22.6h2.8l2.4,2.3v-4.4c0-1-0.8-1.7-1.7-1.7c-0.4,0-0.8,0.1-1.1,0.4c-0.4-0.9-1.3-1.6-2.3-1.6
				c-1.4,0-2.5,1.1-2.5,2.5C47.1,21.5,48.3,22.6,49.7,22.6"/>
			<path class="st0" d="M142,22.7h-0.4v-0.4h1.3v0.4h-0.4v1.6H142V22.7z M143.1,22.3h0.6l0.5,1.4l0.5-1.4h0.6v2h-0.4v-1.5l-0.5,1.5
				h-0.3l-0.5-1.4v1.4h-0.4V22.3z"/>
		</g>
	</g>
</g>
</svg>
