<svg x="0px" y="0px" viewBox="0 0 28 27.7" style="enable-background:new 0 0 28 27.7;" xml:space="preserve">
  <path style="fill:#97A1AA" d="M11.1,27.7c-0.1,0-0.1,0-0.2,0C4.6,26.3,0,20.5,0,14C0,6.3,6.3,0,14,0s14,6.3,14,14c0,6.2-4,11.6-9.9,13.4 c-0.2,0.1-0.5,0-0.6-0.1c-0.2-0.1-0.3-0.4-0.3-0.6c0-1.9,0-4.5,0-5.1c0-0.5-0.1-0.9-0.2-1.2c-0.1-0.2-0.2-0.3-0.3-0.4 c0,0-0.1-0.1-0.1-0.1c-0.2-0.2-0.2-0.5-0.1-0.7c0.1-0.2,0.3-0.4,0.6-0.4l0.4,0c0.9-0.1,1.7-0.4,2.5-0.8c0.4-0.3,0.7-0.5,0.9-0.7	         c0.3-0.4,0.5-0.8,0.6-1.3c0.1-0.5,0.2-1,0.3-1.6c0-0.3,0-0.6,0-0.9c-0.1-0.9-0.4-1.6-0.9-2.2c-0.2-0.3-0.3-0.6-0.1-0.9c0-0.1,0.1-0.2,0.1-0.4l0-0.2c0.1-0.5,0-1-0.1-1.4c0,0,0,0,0,0c-0.3,0-0.6,0.1-0.9,0.3c-0.3,0.2-0.6,0.3-0.9,0.5l-0.5,0.3         c-0.2,0.1-0.5,0.1-0.6,0.1c-0.6-0.2-1.2-0.3-1.8-0.3c-0.5,0-1.9,0-2.4,0c-0.7,0-1.3,0.2-2,0.3c-0.2,0-0.4,0.1-0.7-0.1	         c-0.5-0.4-1.1-0.6-1.6-0.9C8.9,8.3,8.7,8.2,8.5,8.2C8.4,8.5,8.3,8.8,8.3,9c0,0.3,0,0.6,0.1,0.9c0,0.1,0,0.2,0.1,0.2 c0.1,0.2,0,0.6-0.1,0.8l-0.1,0.1c-0.1,0.1-0.2,0.2-0.3,0.4c-0.3,0.4-0.5,0.9-0.6,1.5c-0.1,0.5,0,1,0,1.4C7.5,15,7.6,15.5,7.7,16      c0.2,0.5,0.4,0.8,0.6,1.2c0.2,0.3,0.5,0.5,0.8,0.6c0.6,0.4,1.3,0.7,2,0.8c0.3,0.1,0.9,0.1,0.9,0.1c0.2,0,0.4,0.1,0.5,0.3    c0.1,0.2,0.2,0.4,0.1,0.6c0,0.1-0.3,1.4-1.2,1.9C10.5,22,9,22.1,8,21.1c-0.1-0.1-0.2-0.2-0.4-0.5c-0.3-0.4-0.7-1.1-1.2-1.2	         c-0.1,0-0.1,0-0.1,0c0,0.1-0.1,0.5,0.1,0.8c0.1,0.2,0.2,0.3,0.4,0.5c0.3,0.3,0.6,0.7,0.7,1.1C8,22.7,8.8,23,9.1,23.1 c0.5,0.2,1.6,0,1.9,0c0.2,0,0.4,0,0.6,0.2c0.2,0.1,0.3,0.3,0.3,0.5l0.1,3.2c0,0.2-0.1,0.4-0.3,0.6C11.5,27.6,11.3,27.7,11.1,27.7z		         M14,1.4C7.1,1.4,1.4,7.1,1.4,14c0,5.5,3.7,10.5,9,12l0-1.4c-0.5,0-1.2,0-1.7-0.1c-0.5-0.1-1.7-0.6-2.4-2.2 c-0.1-0.2-0.3-0.5-0.5-0.8c-0.1-0.2-0.3-0.3-0.4-0.5c-0.5-0.7-0.6-1.9-0.1-2.5c0.4-0.5,1-0.7,1.7-0.4c0.2,0.1,0.3,0.2,0.5,0.3    c-0.1-0.1-0.2-0.2-0.2-0.3c-0.4-0.5-0.7-1-0.9-1.6C6.2,15.9,6,15.3,6,14.6c-0.1-0.5-0.1-1.2,0-1.8c0.1-0.8,0.4-1.5,0.8-2.1	         c0.1-0.1,0.2-0.2,0.2-0.3c0,0,0-0.1,0-0.1C6.9,9.9,6.8,9.4,6.9,8.9c0-0.5,0.1-1,0.4-1.6c0.1-0.4,0.5-0.6,0.9-0.6	         c0.4,0,1,0.1,1.6,0.3c0.5,0.2,1,0.5,1.5,0.8c0.6-0.2,1.3-0.3,2-0.3c0.5,0,2,0,2.6,0c0.6,0.1,1.3,0.2,1.9,0.3l0.3-0.2       c0.3-0.2,0.6-0.3,0.9-0.5c0.5-0.3,1-0.4,1.5-0.5c0.2,0,0.3,0,0.5,0c0.4,0,0.8,0.2,0.9,0.5C22,8,22.3,8.9,22.1,9.8l0,0.1	         c0,0.1,0,0.3-0.1,0.4c0.6,0.8,1,1.7,1.1,2.7c0,0.4,0,0.8,0,1.2c-0.1,0.7-0.2,1.3-0.3,1.9c-0.2,0.7-0.5,1.3-0.9,1.8	         c-0.4,0.5-0.9,0.9-1.3,1.1c-0.7,0.4-1.5,0.7-2.3,0.9c0.2,0.5,0.3,1,0.3,1.6c0,0.5,0,2.4,0,4.1c4.8-1.9,8-6.5,8-11.7C26.6,7.1,20.9,1.4,14,1.4z M8,18.7c0.4,0.4,0.6,0.8,0.8,1C8.9,19.9,9,20,9,20.1c0.5,0.5,1.2,0.4,1.7,0.1c0.1,0,0.1-0.1,0.2-0.2      c0,0-0.1,0-0.1,0c-0.9-0.2-1.7-0.5-2.5-1C8.2,18.9,8.1,18.8,8,18.7z"/>
</svg>
