<svg x="0px" y="0px" viewBox="0 0 28 27.7" style="enable-background:new 0 0 28 27.7;" xml:space="preserve">
  <path style="fill:#9B8CBA" d="M6.1,26.7c-0.7,0-1.3-0.3-1.8-0.7c-0.5-0.5-0.7-1.1-0.7-1.8c0-2.5,0-5,0-7.6l0-13.3c0-1.7,0.9-2.6,2.6-2.6
			        l15.6,0c1.3,0,2.2,0.7,2.5,1.8c0,0.2,0.1,0.4,0.1,0.7l0,0c0,7,0,14,0,21c0,1.5-1,2.5-2.5,2.5l-4.6,0
			        C13.6,26.7,9.9,26.7,6.1,26.7C6.1,26.7,6.1,26.7,6.1,26.7z M8.2,1.7h-2c-1.1,0-1.6,0.5-1.6,1.6l0,13.3c0,2.5,0,5,0,7.6
			        c0,0.4,0.2,0.8,0.4,1.1c0.3,0.3,0.6,0.4,1.1,0.4c3.7,0,7.5,0,11.2,0l4.6,0c1,0,1.5-0.5,1.5-1.5c0-7,0-14,0-21v0
			        c0-0.2,0-0.3,0-0.4c-0.2-0.7-0.7-1.1-1.5-1.1L8.2,1.7z"/>

  <path style="fill:#9B8CBA" d="M15.7,7.8c0.4,0,0.9,0,1.3,0c0.4,0,0.8,0,1.2,0c0.2,0,0.4-0.1,0.5-0.2c0.8-1,1.4-2.1,2-3.2
			        c0.1-0.3,0.1-0.4-0.3-0.4c-0.9,0-1.7,0-2.6,0c-0.2,0-0.4,0.1-0.4,0.3c-0.5,1.2-1.1,2.3-1.9,3.3C15.3,7.8,15.4,7.8,15.7,7.8z"/>
  <path style="fill:#9B8CBA" d="M8.6,17.6c-0.1-0.1-0.1-0.2-0.2-0.1c-0.1,0-0.1,0.2-0.1,0.3c0,0.9,0,1.8,0,2.7c0,0,0,0,0,0c0,0.9,0,1.8,0,2.7
			        c0,0.1,0,0.2,0.1,0.3c0.1,0.1,0.2-0.1,0.3-0.1c0.8-0.8,1.7-1.7,2.5-2.5c0.2-0.2,0.2-0.4,0-0.6C10.3,19.3,9.4,18.4,8.6,17.6z"/>
  <path style="fill:#9B8CBA" d="M8.8,13.6c1.9-0.7,3.8-1.4,5.9-1.7c0.5-0.1,1-0.1,1.5,0.1c0.4,0.1,0.6,0.4,0.6,0.8c0,0.8,0,1.6,0,2.4
			        c0,2.5,0,5.1,0,7.6c0,0.6,0,0.6,0.6,0.6c0.6,0,1.2,0,1.8,0c0.4,0,0.5-0.1,0.5-0.5c0-1.8,0-3.5,0-5.3c0,0,0,0,0,0
			        c0-1.7,0-3.5,0-5.2c0-1.1-0.4-2-1.3-2.5c-0.6-0.4-1.3-0.5-2.1-0.6c-1.5-0.1-3,0.3-4.5,0.7c-0.6,0.2-0.6,0.2-0.6-0.4
			        c0-1.7,0-3.5,0-5.2c0-0.4-0.1-0.5-0.5-0.5c-0.7,0-1.4,0-2.1,0C8.4,3.9,8.2,4,8.2,4.4c0,3,0,5.9,0,8.9C8.2,13.8,8.3,13.8,8.8,13.6z
			        "/>
</svg>
