<svg x="0px" y="0px" viewBox="0 0 28 27.7" style="enable-background:new 0 0 28 27.7;" xml:space="preserve">
  <path style="fill:#ED8843" d="M14.6,1L14.6,1c0.4,0,0.8,0.1,1.1,0.2l10.7,4.2l-11.3,5.1c-0.3,0.1-0.7,0.2-1.2,0.2c-0.4,0-0.8-0.1-1-0.2
		                L1.7,6.2l11.6-5C13.7,1.1,14.1,1,14.6,1 M14.6,0C14,0,13.4,0.1,13,0.3L0.6,5.6c-0.8,0.4-0.8,0.9,0,1.2l11.8,4.7
		                c0.4,0.2,0.9,0.2,1.4,0.2c0.6,0,1.2-0.1,1.6-0.3L27.4,6c0.8-0.4,0.8-0.9,0-1.3L16,0.2C15.6,0.1,15.1,0,14.6,0L14.6,0z"/>
  <g>
    <path style="fill:#ED8843" d="M25.2,14.7l1.2,0.5l-11.3,5.1c-0.3,0.1-0.7,0.2-1.2,0.2c-0.4,0-0.8-0.1-1-0.2L1.7,16L3,15.4l8.8,3.5
			          c0.7,0.3,1.5,0.4,2,0.4c0.9,0,1.7-0.2,2.4-0.5L25.2,14.7 M25.1,13.6l-9.3,4.2c-0.5,0.2-1.2,0.4-2,0.4c-0.4,0-1.1,0-1.7-0.3L3,14.3
			          l-2.4,1c-0.8,0.4-0.8,0.9,0,1.2l11.8,4.7c0.4,0.2,0.9,0.2,1.4,0.2c0.6,0,1.2-0.1,1.6-0.3l11.9-5.4c0.8-0.4,0.8-0.9,0-1.3
			          L25.1,13.6L25.1,13.6z"/>
  </g>
  <g>
    <path style="fill:#ED8843" d="M25.2,19.6l1.2,0.5l-11.3,5.1c-0.3,0.1-0.7,0.2-1.2,0.2c-0.4,0-0.8-0.1-1-0.2L1.7,20.8L3,20.3l8.8,3.5
			          c0.7,0.3,1.5,0.4,2,0.4c0.9,0,1.7-0.2,2.4-0.5L25.2,19.6 M25.1,18.5l-9.3,4.2c-0.5,0.2-1.2,0.4-2,0.4c-0.4,0-1.1,0-1.7-0.3L3,19.2
			          l-2.4,1c-0.8,0.4-0.8,0.9,0,1.2l11.8,4.7c0.4,0.2,0.9,0.2,1.4,0.2c0.6,0,1.2-0.1,1.6-0.3l11.9-5.4c0.8-0.4,0.8-0.9,0-1.3
			          L25.1,18.5L25.1,18.5z"/>
  </g>
  <g>
    <path style="fill:#ED8843" d="M25.2,9.8l1.2,0.5l-11.3,5.1c-0.3,0.1-0.7,0.2-1.2,0.2c-0.4,0-0.8-0.1-1-0.2L1.7,11.1L3,10.5l8.8,3.5
			          c0.7,0.3,1.5,0.4,2,0.4c0.9,0,1.7-0.2,2.4-0.5L25.2,9.8 M25.1,8.7L15.8,13c-0.5,0.2-1.2,0.4-2,0.4c-0.4,0-1.1,0-1.7-0.3L3,9.4
			          l-2.4,1c-0.8,0.4-0.8,0.9,0,1.2l11.8,4.7c0.4,0.2,0.9,0.2,1.4,0.2c0.6,0,1.2-0.1,1.6-0.3l11.9-5.4c0.8-0.4,0.8-0.9,0-1.3L25.1,8.7
			          L25.1,8.7z"/>
  </g>
</svg>
