<svg version="1.1" id="pullrequest-icon" xmlns="http://www.w3.org/2000/svg" xmlns:xlink="http://www.w3.org/1999/xlink" x="0px" y="0px" viewBox="0 0 28 27.7" style="enable-background:new 0 0 28 27.7;" xml:space="preserve">
  <polygon style="fill:none" points="12.6,5.8 12.6,5.8 12.6,5.8 "/>
  <circle style="fill:none" cx="21.2" cy="22.8" r="1.3"/>
  <circle style="fill:none" cx="7.4" cy="22.8" r="1.3"/>
  <path style="fill:#E5C025" d="M7.4,2.4c-1.8,0-3.3,1.5-3.3,3.3c0,1.5,1,2.8,2.4,3.2l0.4,0.1v10.7l-0.4,0.1c-1.4,0.4-2.4,1.7-2.4,3.2
	               c0,1.8,1.5,3.3,3.3,3.3s3.3-1.5,3.3-3.3c0-1.5-1-2.8-2.4-3.2l-0.4-0.1V8.9l0.4-0.1c1.4-0.4,2.4-1.7,2.4-3.2
	               C10.6,3.8,9.2,2.4,7.4,2.4z M9.7,22.8c0,1.3-1,2.3-2.3,2.3s-2.3-1-2.3-2.3c0-1.3,1-2.3,2.3-2.3S9.7,21.6,9.7,22.8z M7.4,8
	               c-1.3,0-2.3-1-2.3-2.3c0-1.3,1-2.3,2.3-2.3s2.3,1,2.3,2.3C9.7,6.9,8.6,8,7.4,8z"/>
  <path style="fill:#E5C025" d="M12.7,6c0,0.1,0.1,0.2,0.2,0.2l0.1,0.1c0.4,0.5,1.4,1.4,3.1,3.1c0.2,0.2,0.5,0.2,0.7,0c0.2-0.2,0.2-0.5,0-0.7
	               l-2.4-2.4l2.8,0c0,0,0,0,0.1,0c0.4,0,1.6,0.1,2.5,0.9c0.6,0.6,1,1.5,1,2.6v9.7l-0.4,0.1c-1.4,0.4-2.4,1.7-2.4,3.2
	               c0,1.8,1.5,3.3,3.3,3.3s3.3-1.5,3.3-3.3c0-1.5-1-2.8-2.4-3.2l-0.4-0.1V9.9c0-1.4-0.4-2.6-1.3-3.4c-1.2-1.2-3-1.2-3.3-1.2h-2.8
	               L16.6,3c0.1-0.1,0.2-0.3,0.2-0.4c0-0.1-0.1-0.3-0.1-0.4s-0.2-0.1-0.4-0.1S16.1,2.2,16,2.3c-1.8,1.8-2.6,2.6-3.1,3.1l-0.1,0.1
	               c-0.1,0.1-0.1,0.1-0.2,0.2l0,0.1c0,0,0,0,0,0l0,0L12.7,6z M23.5,22.8c0,1.3-1,2.3-2.3,2.3s-2.3-1-2.3-2.3c0-1.3,1-2.3,2.3-2.3
	               S23.5,21.6,23.5,22.8z"/>
</svg>
