<?xml version="1.0" encoding="utf-8"?>
<!-- Generator: Adobe Illustrator 18.1.1, SVG Export Plug-In . SVG Version: 6.00 Build 0)  -->
<svg version="1.1" id="Layer_1" xmlns="http://www.w3.org/2000/svg" xmlns:xlink="http://www.w3.org/1999/xlink" x="0px" y="0px"
	 viewBox="0 0 16 16" enable-background="new 0 0 16 16" xml:space="preserve">
<g>
	<g>
		<g>
			<g>
				<path fill="#ADADAD" d="M0.4,9.8c-0.1,0-0.2-0.1-0.2-0.2C-0.7,5.3,2.1,1,6.4,0.2c4.3-0.9,8.6,1.9,9.4,6.3c0,0.1-0.1,0.2-0.2,0.3
					c-0.1,0-0.2-0.1-0.3-0.2c-0.8-4.1-4.8-6.7-8.9-5.9C2.4,1.4-0.2,5.4,0.6,9.5C0.6,9.6,0.6,9.7,0.4,9.8C0.4,9.8,0.4,9.8,0.4,9.8z"
					/>
			</g>
		</g>
	</g>
	<g>
		<g>
			<g>
				<path fill="#ADADAD" d="M15.8,8.4C15.8,8.4,15.8,8.4,15.8,8.4c-0.1,0-0.2-0.1-0.2-0.2c0-0.5,0-1.1-0.1-1.6
					c0-0.1,0.1-0.2,0.2-0.3c0.1,0,0.2,0.1,0.3,0.2C16,7,16,7.6,16,8.2C16,8.3,15.9,8.4,15.8,8.4z"/>
			</g>
			<g>
				<path fill="#ADADAD" d="M0.5,10.1c-0.1,0-0.2-0.1-0.2-0.2c0-0.1-0.1-0.2-0.1-0.3c0-0.1,0.1-0.2,0.2-0.3c0.1,0,0.2,0.1,0.3,0.2
					c0,0.1,0,0.2,0.1,0.3C0.7,9.9,0.6,10.1,0.5,10.1C0.5,10.1,0.5,10.1,0.5,10.1z"/>
			</g>
		</g>
	</g>
	<g>
		<path fill="#ADADAD" d="M6,15.7c-0.1,0-0.1,0-0.2-0.1c-0.1-0.1-0.1-0.2,0-0.3c1.8-2,2.5-4.7,2-7.3c0-0.1,0.1-0.2,0.2-0.3
			c0.1,0,0.2,0.1,0.3,0.2c0.6,2.8-0.2,5.6-2.1,7.7C6.1,15.7,6.1,15.7,6,15.7z"/>
	</g>
	<g>
		<path fill="#ADADAD" d="M8.3,16c0,0-0.1,0-0.1,0C8,15.9,8,15.7,8.1,15.6c1.6-2.4,2.2-5.2,1.6-8l0-0.1C9.6,7.2,9.3,6.8,9,6.6
			C8.6,6.3,8.1,6.2,7.7,6.3C7.2,6.4,6.8,6.7,6.6,7.1C6.3,7.4,6.3,7.8,6.3,8.2l0,0.1c0.5,2.4-0.3,4.9-2.1,6.5C4.1,15,4,15,3.9,14.9
			c-0.1-0.1-0.1-0.2,0-0.3c1.6-1.5,2.4-3.7,2-5.9l0,0l0-0.2c-0.1-0.6,0-1.2,0.3-1.6C6.5,6.3,7,6,7.6,5.9c0.6-0.1,1.2,0,1.6,0.3
			C9.7,6.5,10,7,10.1,7.6l0,0.2l0,0c0.5,2.9-0.1,5.7-1.7,8.1C8.4,16,8.3,16,8.3,16z"/>
	</g>
	<g>
		<path fill="#ADADAD" d="M10.8,15.5c0,0-0.1,0-0.1,0c-0.1-0.1-0.2-0.2-0.1-0.3c1.2-2.5,1.5-5.2,1-7.9l0-0.1C11.1,5.3,9.2,4,7.3,4.4
			C5.3,4.8,4.1,6.7,4.4,8.6l0,0.1c0.4,1.9-0.3,3.8-1.8,5c-0.1,0.1-0.2,0.1-0.3,0c-0.1-0.1-0.1-0.2,0-0.3c1.3-1.1,1.9-2.7,1.6-4.4
			l0-0.1C3.5,6.6,5,4.4,7.2,4c2.2-0.4,4.4,1,4.9,3.2l0,0.1l0,0c0.5,2.7,0.2,5.5-1.1,8C11,15.4,10.9,15.5,10.8,15.5z"/>
	</g>
	<g>
		<path fill="#ADADAD" d="M13.5,13.7C13.5,13.7,13.5,13.7,13.5,13.7c-0.2,0-0.3-0.2-0.2-0.3c0.6-2.1,0.6-4.3,0.2-6.4l0-0.1
			c-0.6-3-3.6-5-6.6-4.4C3.9,3.1,2,6,2.5,9l0,0.1c0.2,1.1-0.2,2.3-1.1,3c-0.1,0.1-0.2,0.1-0.3,0c-0.1-0.1-0.1-0.2,0-0.3
			c0.7-0.6,1.1-1.6,0.9-2.5l0-0.1C1.4,5.9,3.5,2.7,6.8,2.1c3.2-0.6,6.4,1.4,7.1,4.6l0,0l0,0.2c0.5,2.3,0.4,4.5-0.2,6.7
			C13.7,13.6,13.6,13.7,13.5,13.7z"/>
	</g>
</g>
</svg>
