<?xml version="1.0" encoding="utf-8"?>
<!-- Generator: Adobe Illustrator 16.0.4, SVG Export Plug-In . SVG Version: 6.00 Build 0)  -->
<!DOCTYPE svg PUBLIC "-//W3C//DTD SVG 1.1//EN" "http://www.w3.org/Graphics/SVG/1.1/DTD/svg11.dtd">
<svg version="1.1" id="Layer_1" xmlns="http://www.w3.org/2000/svg" xmlns:xlink="http://www.w3.org/1999/xlink" x="0px" y="0px"
	 width="14.249px" height="15.372px" viewBox="0 0 14.249 15.372" enable-background="new 0 0 14.249 15.372" xml:space="preserve">
<g>
	<rect x="0.77" y="4.9" fill="#F3F3F3" width="12.678" height="8.995"/>
	<g>
		<g>
			<g>
				<g>
					<path fill="#D0CFCE" d="M6.684,9.882c-0.19,0.138-0.372,0.271-0.544,0.404c-0.181,0.141-0.34,0.293-0.475,0.46
						c-0.139,0.17-0.25,0.366-0.328,0.581c-0.083,0.218-0.097,0.399-0.097,0.399c-0.015,0.2-0.028,0.405-0.028,0.454
						c0,0.05,0.158,0.092,0.351,0.092H8.46c0.192,0,0.351-0.164,0.351-0.366v-0.435c0-0.201-0.158-0.365-0.351-0.365H7.285
						c-0.193,0-0.322-0.027-0.288-0.061c0,0,0,0,0.035-0.029c0.138-0.115,0.282-0.221,0.429-0.32
						c0.154-0.106,0.303-0.209,0.453-0.314c0.16-0.112,0.306-0.24,0.431-0.378c0.132-0.146,0.236-0.31,0.318-0.497
						s0.124-0.413,0.124-0.672c0-0.25-0.049-0.479-0.142-0.684C8.551,7.95,8.425,7.774,8.269,7.636
						C8.114,7.499,7.934,7.394,7.729,7.32C7.53,7.248,7.314,7.211,7.092,7.211c-0.289,0-0.547,0.054-0.774,0.156
						c-0.229,0.106-0.42,0.256-0.572,0.445C5.596,7.999,5.483,8.22,5.409,8.469c-0.07,0.243-0.08,0.429-0.08,0.429
						C5.321,9.099,5.314,9.302,5.316,9.351s0.16,0.088,0.354,0.088h0.502c0.192,0,0.35-0.041,0.35-0.09
						c0-0.051,0.006-0.193,0.011-0.316c0,0,0,0,0.024-0.113c0.018-0.105,0.051-0.203,0.096-0.288
						c0.042-0.079,0.095-0.139,0.163-0.187C6.877,8.4,6.953,8.38,7.05,8.38c0.147,0,0.265,0.046,0.354,0.135
						c0.089,0.092,0.132,0.219,0.132,0.392c0,0.11-0.021,0.202-0.065,0.283C7.416,9.284,7.351,9.37,7.272,9.444"/>
				</g>
			</g>
		</g>
		<path fill="#D0CFCE" d="M12.835,0.072H1.382C0.621,0.072,0,0.628,0,1.479v12.417v0.86v0.14h0.026
			c0.062,0.27,0.287,0.477,0.564,0.477h13.035c0.276,0,0.502-0.207,0.564-0.477h0.026v-0.14v-0.86V1.479
			C14.217,0.628,13.729,0.072,12.835,0.072z M12.656,13.896H1.561V4.9h11.096V13.896z"/>
	</g>
</g>
</svg>
