<?xml version="1.0" encoding="utf-8"?>
<!-- Generator: Adobe Illustrator 16.0.4, SVG Export Plug-In . SVG Version: 6.00 Build 0)  -->
<!DOCTYPE svg PUBLIC "-//W3C//DTD SVG 1.1//EN" "http://www.w3.org/Graphics/SVG/1.1/DTD/svg11.dtd">
<svg version="1.1" id="Layer_1" xmlns="http://www.w3.org/2000/svg" xmlns:xlink="http://www.w3.org/1999/xlink" x="0px" y="0px"
	 width="95.5px" height="102.167px" viewBox="0 0 95.5 102.167" enable-background="new 0 0 95.5 102.167" xml:space="preserve">
<g>
	<g>
		<defs>
			<circle id="SVGID_1_" cx="47.852" cy="47.758" r="45.986"/>
		</defs>
		<clipPath id="SVGID_2_">
			<use xlink:href="#SVGID_1_"  overflow="visible"/>
		</clipPath>
		<g clip-path="url(#SVGID_2_)">
			<rect x="-31.067" y="-10.422" fill="#4D4C4D" width="139.824" height="115.678"/>
		</g>
	</g>
</g>
<g>
	<g>
		<g>
			<g>
				<defs>
					<circle id="SVGID_3_" cx="47.852" cy="48.043" r="45.986"/>
				</defs>
				<clipPath id="SVGID_4_">
					<use xlink:href="#SVGID_3_"  overflow="visible"/>
				</clipPath>
				<g clip-path="url(#SVGID_4_)">
					<polygon fill="#FFFFFF" points="26.296,24.688 27.556,24.688 27.556,24.322 26.733,24.322 26.733,20.89 25.511,20.89 
						25.511,21.254 26.296,21.254 					"/>
					<path fill="#FFFFFF" d="M29.212,24.762c0.157,0,0.33-0.057,0.517-0.168c0.188-0.109,0.348-0.276,0.481-0.494
						c0.021,0.248,0.049,0.445,0.084,0.588h0.457c-0.067-0.197-0.102-0.455-0.102-0.772v-1.856H30.21
						c-0.049-0.004-0.088-0.008-0.113-0.012c-0.166-0.017-0.292-0.025-0.375-0.025c-0.287,0-0.529,0.07-0.724,0.209
						s-0.351,0.326-0.467,0.566c-0.116,0.238-0.174,0.511-0.174,0.815c0,0.386,0.088,0.674,0.263,0.864
						C28.795,24.666,28.992,24.762,29.212,24.762z M29.103,22.699c0.18-0.209,0.405-0.312,0.676-0.312
						c0.133,0,0.277,0.02,0.434,0.061v1.129c-0.131,0.233-0.278,0.42-0.443,0.559s-0.316,0.207-0.453,0.207
						c-0.125,0-0.237-0.066-0.335-0.199c-0.099-0.133-0.147-0.329-0.147-0.59C28.833,23.193,28.923,22.908,29.103,22.699z"/>
					<path fill="#FFFFFF" d="M31.812,23.156c0.115-0.221,0.261-0.403,0.438-0.549c0.176-0.146,0.342-0.219,0.495-0.219
						c0.077,0,0.147,0.025,0.212,0.077c0.065,0.052,0.111,0.118,0.135,0.2c0.024,0.08,0.037,0.246,0.037,0.5v1.521h0.438v-1.469
						c0-0.391-0.025-0.652-0.076-0.785s-0.141-0.241-0.268-0.324c-0.127-0.082-0.269-0.123-0.424-0.123
						c-0.178,0-0.354,0.057-0.531,0.172c-0.178,0.113-0.329,0.273-0.455,0.476v-0.575h-0.438v2.629h0.438V23.156z"/>
					<path fill="#FFFFFF" d="M35.984,24.891c-0.026,0.106-0.077,0.199-0.151,0.279c-0.073,0.08-0.17,0.142-0.289,0.184
						c-0.119,0.043-0.246,0.064-0.38,0.064c-0.169,0-0.345-0.033-0.526-0.1c-0.182-0.064-0.334-0.139-0.458-0.224v0.442
						c0.327,0.162,0.649,0.244,0.968,0.244s0.588-0.066,0.812-0.201s0.368-0.32,0.43-0.554c0.026-0.101,0.045-0.2,0.057-0.298
						c0.011-0.098,0.017-0.367,0.017-0.811v-1.859h-0.439c-0.049-0.004-0.088-0.008-0.112-0.012
						c-0.167-0.017-0.293-0.025-0.376-0.025c-0.287,0-0.529,0.07-0.724,0.209s-0.351,0.326-0.467,0.566
						c-0.116,0.238-0.174,0.511-0.174,0.815c0,0.386,0.088,0.674,0.263,0.864c0.176,0.189,0.373,0.285,0.593,0.285
						c0.157,0,0.329-0.057,0.517-0.168c0.188-0.111,0.35-0.276,0.482-0.497v0.372C36.024,24.645,36.011,24.785,35.984,24.891z
						 M35.581,24.135c-0.165,0.139-0.316,0.207-0.453,0.207c-0.125,0-0.237-0.066-0.335-0.199c-0.099-0.133-0.147-0.329-0.147-0.59
						c0-0.359,0.09-0.645,0.27-0.854s0.405-0.312,0.676-0.312c0.134,0,0.277,0.02,0.434,0.061v1.129
						C35.894,23.81,35.747,23.996,35.581,24.135z"/>
					<path fill="#FFFFFF" d="M37.473,24.637c0.128,0.084,0.269,0.125,0.423,0.125c0.172,0,0.344-0.055,0.518-0.164
						c0.172-0.107,0.33-0.27,0.47-0.486v0.576h0.438v-2.629h-0.438v1.533c-0.115,0.221-0.262,0.404-0.439,0.549
						c-0.176,0.145-0.342,0.218-0.495,0.218c-0.075,0-0.146-0.025-0.211-0.078c-0.065-0.052-0.109-0.118-0.134-0.198
						c-0.024-0.081-0.036-0.248-0.036-0.5v-1.523H37.13v1.469c0,0.389,0.025,0.65,0.076,0.785
						C37.256,24.447,37.345,24.555,37.473,24.637z"/>
					<path fill="#FFFFFF" d="M40.78,24.762c0.158,0,0.33-0.057,0.518-0.168c0.188-0.109,0.348-0.276,0.48-0.494
						c0.021,0.248,0.049,0.445,0.084,0.588h0.457c-0.066-0.197-0.102-0.455-0.102-0.772v-1.856h-0.439
						c-0.049-0.004-0.086-0.008-0.111-0.012c-0.168-0.017-0.293-0.025-0.377-0.025c-0.287,0-0.527,0.07-0.723,0.209
						s-0.352,0.326-0.467,0.566c-0.117,0.238-0.174,0.511-0.174,0.815c0,0.386,0.088,0.674,0.262,0.864
						C40.364,24.666,40.561,24.762,40.78,24.762z M40.67,22.699c0.18-0.209,0.406-0.312,0.676-0.312c0.135,0,0.277,0.02,0.434,0.061
						v1.129c-0.131,0.233-0.277,0.42-0.443,0.559c-0.164,0.139-0.314,0.207-0.453,0.207c-0.125,0-0.236-0.066-0.334-0.199
						c-0.1-0.133-0.148-0.329-0.148-0.59C40.401,23.193,40.491,22.908,40.67,22.699z"/>
					<path fill="#FFFFFF" d="M43.702,24.762c0.156,0,0.33-0.057,0.518-0.168s0.348-0.276,0.48-0.497v0.372
						c0,0.176-0.012,0.316-0.039,0.422c-0.027,0.106-0.076,0.199-0.152,0.279c-0.072,0.08-0.17,0.142-0.289,0.184
						c-0.119,0.043-0.244,0.064-0.379,0.064c-0.17,0-0.346-0.033-0.527-0.1c-0.18-0.064-0.334-0.139-0.457-0.224v0.442
						c0.326,0.162,0.648,0.244,0.969,0.244c0.316,0,0.588-0.066,0.811-0.201c0.225-0.135,0.367-0.32,0.43-0.554
						c0.027-0.101,0.045-0.2,0.057-0.298s0.018-0.367,0.018-0.811v-1.859H44.7c-0.051-0.004-0.088-0.008-0.113-0.012
						c-0.168-0.017-0.293-0.025-0.375-0.025c-0.289,0-0.529,0.07-0.725,0.209s-0.35,0.326-0.467,0.566
						c-0.115,0.238-0.174,0.511-0.174,0.815c0,0.386,0.088,0.674,0.264,0.864C43.284,24.666,43.481,24.762,43.702,24.762z
						 M43.592,22.699c0.18-0.209,0.404-0.312,0.674-0.312c0.135,0,0.279,0.02,0.434,0.061v1.129
						c-0.129,0.233-0.277,0.42-0.441,0.559c-0.166,0.139-0.316,0.207-0.453,0.207c-0.127,0-0.238-0.066-0.336-0.199
						s-0.148-0.329-0.148-0.59C43.321,23.193,43.411,22.908,43.592,22.699z"/>
					<path fill="#FFFFFF" d="M46.393,24.584c0.186,0.117,0.398,0.178,0.635,0.178c0.312,0,0.643-0.084,0.992-0.249v-0.4
						c-0.34,0.189-0.652,0.284-0.936,0.284c-0.158,0-0.299-0.038-0.424-0.113c-0.125-0.076-0.225-0.189-0.299-0.34
						c-0.076-0.15-0.115-0.318-0.115-0.5h1.812v-0.095c0-0.464-0.094-0.806-0.283-1.029c-0.189-0.222-0.439-0.333-0.752-0.333
						c-0.236,0-0.449,0.061-0.641,0.184s-0.34,0.296-0.447,0.517c-0.107,0.222-0.16,0.452-0.16,0.691
						c0,0.249,0.057,0.483,0.168,0.702C46.057,24.299,46.206,24.466,46.393,24.584z M46.545,22.544
						c0.129-0.129,0.281-0.192,0.459-0.192c0.176,0,0.316,0.062,0.422,0.189s0.158,0.297,0.158,0.512v0.062h-1.312
						C46.325,22.863,46.415,22.674,46.545,22.544z"/>
					<path fill="#FFFFFF" d="M49.807,24.798c0.105,0,0.195-0.036,0.271-0.112c0.074-0.076,0.113-0.166,0.113-0.271
						s-0.039-0.196-0.115-0.271c-0.076-0.074-0.166-0.111-0.27-0.111s-0.193,0.037-0.27,0.111c-0.076,0.075-0.115,0.166-0.115,0.271
						s0.039,0.195,0.113,0.271C49.612,24.762,49.702,24.798,49.807,24.798z"/>
					<path fill="#FFFFFF" d="M49.807,22.753c0.105,0,0.195-0.038,0.271-0.112c0.074-0.075,0.113-0.166,0.113-0.271
						s-0.039-0.197-0.115-0.271c-0.076-0.075-0.166-0.112-0.27-0.112s-0.193,0.037-0.27,0.112c-0.076,0.073-0.115,0.165-0.115,0.271
						s0.039,0.196,0.113,0.271C49.612,22.715,49.702,22.753,49.807,22.753z"/>
					<path fill="#FFFFFF" d="M55.172,23.16c0.148-0.257,0.303-0.45,0.459-0.578c0.158-0.129,0.316-0.193,0.48-0.193
						c0.041,0,0.102,0.006,0.174,0.019v0.601h0.422v-0.949c-0.158-0.049-0.318-0.072-0.477-0.072c-0.217,0-0.412,0.053-0.588,0.161
						c-0.178,0.106-0.334,0.27-0.471,0.486v-0.575h-0.438v2.629h0.438V23.16z"/>
					<path fill="#FFFFFF" d="M57.717,24.637c0.129,0.084,0.27,0.125,0.422,0.125c0.174,0,0.346-0.055,0.518-0.164
						c0.174-0.107,0.33-0.27,0.473-0.486v0.576h0.438v-2.629h-0.438v1.533c-0.117,0.221-0.264,0.404-0.439,0.549
						s-0.342,0.218-0.496,0.218c-0.074,0-0.145-0.025-0.211-0.078c-0.064-0.052-0.109-0.118-0.133-0.198
						c-0.025-0.081-0.037-0.248-0.037-0.5v-1.523h-0.438v1.469c0,0.389,0.025,0.65,0.076,0.785
						C57.5,24.447,57.59,24.555,57.717,24.637z"/>
					<path fill="#FFFFFF" d="M60.815,24.699c0.168,0.018,0.293,0.025,0.375,0.025c0.287,0,0.527-0.068,0.723-0.207
						c0.193-0.139,0.35-0.328,0.467-0.567s0.176-0.511,0.176-0.815c0-0.387-0.088-0.674-0.264-0.863
						c-0.176-0.191-0.373-0.285-0.592-0.285c-0.158,0-0.33,0.056-0.516,0.166c-0.188,0.113-0.348,0.277-0.484,0.498V20.89h-0.438
						v3.798H60.7C60.75,24.693,60.79,24.696,60.815,24.699z M60.7,23.171c0.133-0.234,0.281-0.421,0.445-0.56
						c0.164-0.137,0.312-0.207,0.449-0.207c0.127,0,0.238,0.066,0.338,0.198c0.098,0.132,0.148,0.329,0.148,0.593
						c0,0.36-0.092,0.646-0.273,0.854c-0.18,0.207-0.404,0.312-0.668,0.312c-0.133,0-0.281-0.021-0.439-0.062V23.171z"/>
					<path fill="#FFFFFF" d="M64.391,24.032l-0.967-1.974h-0.482l1.215,2.525l-0.041,0.1c-0.037,0.102-0.104,0.222-0.193,0.361
						c-0.092,0.139-0.191,0.236-0.301,0.29c-0.109,0.055-0.234,0.083-0.377,0.083c-0.109,0-0.225-0.02-0.346-0.057v0.386
						c0.105,0.023,0.225,0.034,0.357,0.034c0.309,0,0.559-0.084,0.752-0.253c0.195-0.169,0.4-0.511,0.613-1.026l1.018-2.443H65.2
						L64.391,24.032z"/>
					<path fill="#FFFFFF" d="M27.785,29.834v-0.947c-0.158-0.049-0.316-0.072-0.476-0.072c-0.216,0-0.412,0.053-0.589,0.16
						s-0.333,0.27-0.47,0.486v-0.574h-0.438v2.629h0.438v-1.527c0.149-0.258,0.303-0.45,0.459-0.579
						c0.157-0.128,0.316-0.193,0.48-0.193c0.042,0,0.1,0.007,0.174,0.02v0.599H27.785z"/>
					<polygon fill="#FFFFFF" points="29.579,30.969 28.677,28.887 28.196,28.887 29.339,31.516 29.784,31.516 30.935,28.887 
						30.496,28.887 					"/>
					<path fill="#FFFFFF" d="M33.323,28.814c-0.103,0-0.192,0.029-0.271,0.088c-0.078,0.059-0.153,0.138-0.227,0.237
						c-0.073,0.101-0.136,0.229-0.188,0.39v-0.141c0-0.184-0.039-0.326-0.116-0.426s-0.18-0.148-0.308-0.148
						c-0.105,0-0.211,0.048-0.316,0.146c-0.104,0.097-0.217,0.273-0.338,0.528v-0.602h-0.383v2.629h0.383v-1.519
						c0.084-0.218,0.172-0.396,0.264-0.536c0.092-0.141,0.179-0.21,0.259-0.21c0.036,0,0.077,0.021,0.122,0.062
						c0.047,0.041,0.069,0.178,0.069,0.41v1.793h0.364v-1.457c0.098-0.289,0.192-0.495,0.287-0.62
						c0.093-0.124,0.18-0.188,0.262-0.188c0.033,0,0.063,0.015,0.092,0.044c0.027,0.027,0.047,0.068,0.057,0.123
						c0.009,0.053,0.014,0.154,0.014,0.302v1.796h0.384v-1.986c0-0.285-0.04-0.477-0.12-0.572S33.436,28.814,33.323,28.814z"/>
					<path fill="#FFFFFF" d="M35.616,28.926c-0.076-0.075-0.166-0.111-0.27-0.111s-0.193,0.036-0.27,0.111
						c-0.076,0.074-0.113,0.164-0.113,0.271c0,0.105,0.037,0.195,0.111,0.271c0.076,0.075,0.166,0.113,0.271,0.113
						c0.104,0,0.195-0.038,0.271-0.113s0.113-0.165,0.113-0.271C35.73,29.09,35.692,29,35.616,28.926z"/>
					<path fill="#FFFFFF" d="M35.347,30.859c-0.104,0-0.193,0.036-0.27,0.111c-0.076,0.074-0.113,0.164-0.113,0.271
						c0,0.105,0.037,0.196,0.111,0.271c0.076,0.075,0.166,0.113,0.271,0.113c0.104,0,0.195-0.038,0.271-0.113
						c0.075-0.074,0.113-0.165,0.113-0.271c0-0.107-0.038-0.197-0.114-0.271C35.54,30.896,35.45,30.859,35.347,30.859z"/>
					<rect x="31.544" y="36.681" fill="#FFFFFF" width="1.826" height="0.365"/>
					<polygon fill="#FFFFFF" points="39.045,34.545 38.472,34.545 38.605,35.86 38.905,35.86 					"/>
					<polygon fill="#FFFFFF" points="38.024,34.545 37.437,34.545 37.587,35.86 37.891,35.86 					"/>
					<path fill="#FFFFFF" d="M42.338,37.979h-0.879V34.69h-0.438c-0.252,0.232-0.551,0.421-0.895,0.567v0.396
						c0.217-0.077,0.387-0.152,0.512-0.226c0.123-0.073,0.252-0.162,0.383-0.269v2.818h-0.895v0.365h2.211V37.979z"/>
					<path fill="#FFFFFF" d="M44.293,38.341c0.076-0.075,0.113-0.166,0.113-0.271c0-0.106-0.039-0.196-0.115-0.271
						c-0.074-0.075-0.166-0.113-0.268-0.113c-0.104,0-0.193,0.038-0.271,0.113c-0.074,0.074-0.113,0.164-0.113,0.271
						c0,0.105,0.037,0.196,0.113,0.271c0.074,0.075,0.166,0.113,0.271,0.113C44.127,38.454,44.217,38.416,44.293,38.341z"/>
					<path fill="#FFFFFF" d="M45.784,37.508c0,0.268,0.096,0.492,0.287,0.674s0.479,0.272,0.863,0.272
						c0.383,0,0.67-0.098,0.861-0.292c0.191-0.193,0.287-0.422,0.287-0.686c0-0.169-0.041-0.322-0.121-0.459
						s-0.236-0.299-0.467-0.486l-0.197-0.158c0.211-0.172,0.354-0.307,0.426-0.401c0.07-0.095,0.125-0.19,0.162-0.286
						c0.035-0.098,0.053-0.197,0.053-0.301c0-0.15-0.039-0.289-0.117-0.417c-0.078-0.126-0.189-0.223-0.334-0.288
						c-0.145-0.064-0.307-0.097-0.486-0.097c-0.295,0-0.539,0.085-0.73,0.257s-0.287,0.379-0.287,0.623
						c0,0.184,0.053,0.352,0.16,0.504c0.107,0.153,0.217,0.27,0.328,0.348l0.08,0.059C46.04,36.729,45.784,37.107,45.784,37.508z
						 M46.52,35.743c-0.078-0.098-0.115-0.201-0.115-0.312c0-0.112,0.047-0.222,0.139-0.326c0.09-0.105,0.225-0.158,0.4-0.158
						c0.164,0,0.297,0.048,0.4,0.145c0.105,0.096,0.156,0.203,0.156,0.321c0,0.098-0.027,0.202-0.084,0.314
						c-0.057,0.114-0.195,0.255-0.418,0.422l-0.109-0.08C46.719,35.949,46.596,35.84,46.52,35.743z M46.881,36.606l0.141,0.11
						c0.062,0.051,0.178,0.157,0.34,0.32c0.164,0.162,0.244,0.323,0.244,0.482c0,0.161-0.066,0.297-0.201,0.404
						c-0.135,0.109-0.287,0.162-0.459,0.162c-0.186,0-0.348-0.056-0.482-0.169c-0.137-0.112-0.205-0.252-0.205-0.416
						C46.258,37.223,46.465,36.925,46.881,36.606z"/>
					<path fill="#FFFFFF" d="M49.807,38.454c0.105,0,0.195-0.038,0.271-0.113c0.074-0.075,0.113-0.166,0.113-0.271
						c0-0.106-0.039-0.196-0.115-0.271c-0.076-0.075-0.166-0.113-0.27-0.113s-0.193,0.038-0.27,0.113
						c-0.076,0.074-0.115,0.164-0.115,0.271c0,0.105,0.039,0.196,0.113,0.271C49.612,38.416,49.702,38.454,49.807,38.454z"/>
					<path fill="#FFFFFF" d="M51.641,35.131h1.895c-0.076,0.184-0.166,0.344-0.27,0.484l-0.137,0.176l-0.381,0.505
						c-0.088,0.116-0.205,0.28-0.35,0.494c-0.146,0.214-0.248,0.407-0.307,0.581s-0.086,0.389-0.086,0.645v0.328h0.475v-0.328
						c0-0.232,0.02-0.42,0.059-0.562c0.037-0.143,0.094-0.28,0.168-0.412c0.076-0.132,0.191-0.309,0.35-0.529l0.246-0.342
						c0.055-0.078,0.109-0.155,0.166-0.232c0.232-0.322,0.373-0.534,0.42-0.633c0.047-0.1,0.07-0.206,0.07-0.322V34.69h-2.318
						V35.131z"/>
					<polygon fill="#FFFFFF" points="55.825,34.545 55.959,35.86 56.258,35.86 56.399,34.545 					"/>
					<polygon fill="#FFFFFF" points="54.79,34.545 54.94,35.86 55.245,35.86 55.377,34.545 					"/>
					<rect x="31.544" y="43.51" fill="#FFFFFF" width="1.826" height="0.364"/>
					<polygon fill="#FFFFFF" points="38.605,42.688 38.905,42.688 39.045,41.372 38.472,41.372 					"/>
					<polygon fill="#FFFFFF" points="37.587,42.688 37.891,42.688 38.024,41.372 37.437,41.372 					"/>
					<path fill="#FFFFFF" d="M42.338,44.807h-0.879v-3.288h-0.438c-0.252,0.231-0.551,0.421-0.895,0.567v0.395
						c0.217-0.076,0.387-0.15,0.512-0.225c0.123-0.073,0.252-0.162,0.383-0.267v2.817h-0.895v0.363h2.211V44.807z"/>
					<path fill="#FFFFFF" d="M43.752,45.168c0.074,0.075,0.166,0.113,0.271,0.113c0.104,0,0.193-0.038,0.27-0.113
						c0.076-0.074,0.113-0.165,0.113-0.27c0-0.107-0.039-0.198-0.115-0.273c-0.074-0.074-0.166-0.111-0.268-0.111
						c-0.104,0-0.193,0.037-0.271,0.111c-0.074,0.075-0.113,0.166-0.113,0.273C43.639,45.003,43.676,45.094,43.752,45.168z"/>
					<path fill="#FFFFFF" d="M46.161,43.664c0.17,0.091,0.35,0.137,0.541,0.137c0.201,0,0.383-0.053,0.551-0.158
						s0.307-0.244,0.42-0.411v0.095c0,0.459-0.088,0.838-0.268,1.139c-0.18,0.299-0.432,0.449-0.758,0.449
						c-0.23,0-0.477-0.062-0.736-0.184v0.439c0.232,0.074,0.471,0.111,0.717,0.111c0.459,0,0.822-0.177,1.09-0.531
						c0.268-0.354,0.402-0.834,0.402-1.443c0-0.551-0.105-1.004-0.316-1.361s-0.529-0.535-0.957-0.535
						c-0.363,0-0.654,0.128-0.875,0.385c-0.223,0.256-0.334,0.557-0.334,0.902c0,0.22,0.045,0.412,0.135,0.58
						C45.86,43.442,45.991,43.571,46.161,43.664z M46.178,42.201c0.066-0.145,0.16-0.252,0.279-0.322
						c0.121-0.068,0.238-0.104,0.355-0.104c0.18,0,0.338,0.074,0.477,0.227c0.141,0.151,0.209,0.346,0.209,0.585
						c0,0.235-0.07,0.435-0.213,0.601c-0.141,0.166-0.324,0.249-0.545,0.249c-0.213,0-0.379-0.071-0.492-0.214
						c-0.115-0.144-0.174-0.325-0.174-0.547C46.075,42.504,46.11,42.346,46.178,42.201z"/>
					<path fill="#FFFFFF" d="M49.807,45.281c0.105,0,0.195-0.038,0.271-0.113c0.074-0.074,0.113-0.165,0.113-0.27
						c0-0.107-0.039-0.198-0.115-0.273c-0.076-0.074-0.166-0.111-0.27-0.111s-0.193,0.037-0.27,0.111
						c-0.076,0.075-0.115,0.166-0.115,0.273c0,0.104,0.039,0.195,0.113,0.27C49.612,45.243,49.702,45.281,49.807,45.281z"/>
					<path fill="#FFFFFF" d="M53.815,44.769h-1.756c0.01-0.187,0.059-0.347,0.146-0.483c0.088-0.135,0.203-0.273,0.346-0.418
						l0.225-0.221l0.268-0.267c0.275-0.271,0.465-0.494,0.564-0.666c0.102-0.173,0.15-0.341,0.15-0.507
						c0-0.146-0.037-0.285-0.117-0.416c-0.076-0.131-0.195-0.227-0.354-0.288c-0.16-0.062-0.334-0.093-0.523-0.093
						c-0.129,0-0.293,0.018-0.492,0.053c-0.197,0.035-0.396,0.1-0.594,0.195v0.387c0.186-0.084,0.322-0.141,0.404-0.168
						s0.18-0.051,0.289-0.071c0.111-0.021,0.211-0.03,0.301-0.03c0.156,0,0.297,0.043,0.424,0.127
						c0.125,0.086,0.188,0.208,0.188,0.363c0,0.098-0.027,0.197-0.082,0.297c-0.053,0.101-0.166,0.245-0.334,0.434
						c-0.17,0.188-0.279,0.309-0.328,0.36l-0.25,0.254c-0.133,0.137-0.26,0.278-0.379,0.427c-0.119,0.146-0.199,0.279-0.242,0.398
						c-0.043,0.117-0.064,0.229-0.064,0.333v0.401h2.211V44.769z"/>
					<polygon fill="#FFFFFF" points="54.79,41.372 54.94,42.688 55.245,42.688 55.377,41.372 					"/>
					<polygon fill="#FFFFFF" points="55.825,41.372 55.959,42.688 56.258,42.688 56.399,41.372 					"/>
					<rect x="31.544" y="50.337" fill="#FFFFFF" width="1.826" height="0.364"/>
					<polygon fill="#FFFFFF" points="37.587,49.516 37.891,49.516 38.024,48.2 37.437,48.2 					"/>
					<polygon fill="#FFFFFF" points="38.605,49.516 38.905,49.516 39.045,48.2 38.472,48.2 					"/>
					<path fill="#FFFFFF" d="M42.338,51.633h-0.879v-3.288h-0.438c-0.252,0.232-0.551,0.422-0.895,0.567v0.396
						c0.217-0.076,0.387-0.152,0.512-0.225c0.123-0.074,0.252-0.162,0.383-0.268v2.816h-0.895v0.365h2.211V51.633z"/>
					<path fill="#FFFFFF" d="M43.752,51.997c0.074,0.075,0.166,0.113,0.271,0.113c0.104,0,0.193-0.038,0.27-0.113
						c0.076-0.076,0.113-0.166,0.113-0.271c0-0.107-0.039-0.198-0.115-0.272c-0.074-0.074-0.166-0.111-0.268-0.111
						c-0.104,0-0.193,0.037-0.271,0.111c-0.074,0.074-0.113,0.165-0.113,0.272C43.639,51.831,43.676,51.92,43.752,51.997z"/>
					<path fill="#FFFFFF" d="M46.161,50.491c0.17,0.093,0.35,0.139,0.541,0.139c0.201,0,0.383-0.053,0.551-0.159
						s0.307-0.243,0.42-0.411v0.094c0,0.461-0.088,0.84-0.268,1.14s-0.432,0.449-0.758,0.449c-0.23,0-0.477-0.061-0.736-0.183v0.439
						c0.232,0.074,0.471,0.111,0.717,0.111c0.459,0,0.822-0.178,1.09-0.531s0.402-0.835,0.402-1.443
						c0-0.551-0.105-1.006-0.316-1.361c-0.211-0.358-0.529-0.536-0.957-0.536c-0.363,0-0.654,0.127-0.875,0.384
						c-0.223,0.257-0.334,0.558-0.334,0.903c0,0.22,0.045,0.413,0.135,0.579C45.86,50.271,45.991,50.4,46.161,50.491z
						 M46.178,49.029c0.066-0.146,0.16-0.251,0.279-0.321c0.121-0.071,0.238-0.106,0.355-0.106c0.18,0,0.338,0.077,0.477,0.227
						c0.141,0.152,0.209,0.348,0.209,0.586c0,0.236-0.07,0.436-0.213,0.602c-0.141,0.166-0.324,0.248-0.545,0.248
						c-0.213,0-0.379-0.071-0.492-0.215c-0.115-0.143-0.174-0.324-0.174-0.545C46.075,49.332,46.11,49.172,46.178,49.029z"/>
					<path fill="#FFFFFF" d="M49.807,52.11c0.105,0,0.195-0.038,0.271-0.113c0.074-0.076,0.113-0.166,0.113-0.271
						c0-0.107-0.039-0.198-0.115-0.272s-0.166-0.111-0.27-0.111s-0.193,0.037-0.27,0.111s-0.115,0.165-0.115,0.272
						c0,0.104,0.039,0.194,0.113,0.271C49.612,52.072,49.702,52.11,49.807,52.11z"/>
					<path fill="#FFFFFF" d="M53.51,50.189c-0.107-0.091-0.266-0.168-0.479-0.23c0.24-0.115,0.404-0.245,0.494-0.391
						s0.133-0.302,0.133-0.469c0-0.224-0.084-0.425-0.252-0.599c-0.168-0.174-0.475-0.262-0.92-0.262
						c-0.248,0-0.52,0.055-0.818,0.166v0.417c0.299-0.145,0.576-0.219,0.836-0.219c0.23,0,0.402,0.053,0.512,0.157
						c0.113,0.105,0.168,0.234,0.168,0.386c0,0.167-0.068,0.32-0.205,0.458c-0.137,0.137-0.357,0.205-0.664,0.205h-0.336v0.365
						h0.242c0.416,0,0.711,0.073,0.885,0.219c0.172,0.146,0.26,0.336,0.26,0.568c0,0.229-0.078,0.418-0.236,0.564
						c-0.158,0.147-0.357,0.221-0.6,0.221c-0.264,0-0.574-0.092-0.934-0.273v0.462c0.197,0.083,0.365,0.134,0.502,0.149
						c0.137,0.018,0.264,0.027,0.381,0.027c0.4,0,0.729-0.111,0.982-0.334c0.252-0.224,0.379-0.506,0.379-0.848
						c0-0.153-0.027-0.293-0.084-0.417C53.702,50.387,53.62,50.28,53.51,50.189z"/>
					<polygon fill="#FFFFFF" points="55.959,49.516 56.258,49.516 56.399,48.2 55.825,48.2 					"/>
					<polygon fill="#FFFFFF" points="54.94,49.516 55.245,49.516 55.377,48.2 54.79,48.2 					"/>
					<rect x="31.544" y="57.165" fill="#FFFFFF" width="1.826" height="0.365"/>
					<path fill="#FFFFFF" d="M38.544,55.466c0.066,0.048,0.13,0.072,0.191,0.072s0.125-0.024,0.191-0.072
						c0.066-0.049,0.1-0.121,0.1-0.218c0-0.1-0.033-0.172-0.1-0.221s-0.131-0.073-0.191-0.073s-0.125,0.024-0.191,0.073
						c-0.067,0.049-0.101,0.121-0.101,0.221C38.443,55.345,38.477,55.417,38.544,55.466z"/>
					<path fill="#FFFFFF" d="M38.429,59.221c-0.058,0.121-0.137,0.207-0.239,0.258s-0.226,0.077-0.372,0.077
						c-0.168,0-0.374-0.036-0.619-0.108v0.407c0.215,0.044,0.416,0.065,0.603,0.065c0.259,0,0.463-0.038,0.612-0.113
						c0.148-0.074,0.277-0.199,0.38-0.372c0.105-0.173,0.158-0.482,0.158-0.929v-2.309h-1.552v0.365h1.115v2.027
						C38.515,58.891,38.485,59.1,38.429,59.221z"/>
					<path fill="#FFFFFF" d="M40.274,56.198v2.629h0.438v-1.527c0.148-0.258,0.303-0.451,0.459-0.58
						c0.156-0.127,0.316-0.193,0.48-0.193c0.041,0,0.1,0.008,0.174,0.021v0.6h0.422v-0.948c-0.158-0.049-0.316-0.073-0.477-0.073
						c-0.215,0-0.412,0.054-0.588,0.161c-0.178,0.107-0.334,0.27-0.471,0.486v-0.574H40.274z"/>
					<path fill="#FFFFFF" d="M45.106,56.198h-0.438v1.532c-0.117,0.222-0.264,0.405-0.439,0.55
						c-0.178,0.145-0.342,0.217-0.496,0.217c-0.074,0-0.145-0.025-0.209-0.078c-0.066-0.051-0.111-0.117-0.135-0.198
						c-0.025-0.08-0.037-0.247-0.037-0.5v-1.522h-0.438v1.469c0,0.389,0.025,0.65,0.074,0.785c0.051,0.133,0.141,0.242,0.268,0.324
						c0.129,0.082,0.27,0.123,0.422,0.123c0.174,0,0.346-0.054,0.518-0.162c0.174-0.108,0.33-0.271,0.473-0.487v0.577h0.438V56.198z
						"/>
					<path fill="#FFFFFF" d="M47.831,56.409c-0.176-0.189-0.373-0.284-0.592-0.284c-0.158,0-0.33,0.056-0.518,0.167
						c-0.186,0.111-0.348,0.277-0.48,0.498v-1.762h-0.439v3.799h0.439c0.049,0.005,0.088,0.008,0.111,0.012
						c0.17,0.017,0.295,0.025,0.377,0.025c0.287,0,0.527-0.069,0.723-0.208s0.352-0.328,0.467-0.567
						c0.117-0.239,0.176-0.512,0.176-0.816C48.094,56.887,48.006,56.599,47.831,56.409z M47.346,58.188
						c-0.18,0.207-0.404,0.312-0.67,0.312c-0.133,0-0.277-0.021-0.436-0.062v-1.129c0.131-0.234,0.279-0.42,0.443-0.558
						c0.164-0.139,0.314-0.208,0.451-0.208c0.123,0,0.236,0.066,0.336,0.198c0.098,0.132,0.148,0.329,0.148,0.591
						C47.62,57.694,47.528,57.978,47.346,58.188z"/>
					<path fill="#FFFFFF" d="M49.93,58.171l-0.967-1.974h-0.482l1.215,2.524l-0.041,0.1c-0.039,0.102-0.102,0.222-0.193,0.36
						c-0.092,0.14-0.191,0.237-0.301,0.292c-0.109,0.054-0.236,0.082-0.377,0.082c-0.109,0-0.225-0.019-0.346-0.057v0.386
						c0.105,0.023,0.225,0.035,0.357,0.035c0.309,0,0.559-0.084,0.752-0.254c0.195-0.169,0.398-0.51,0.613-1.025l1.018-2.443h-0.439
						L49.93,58.171z"/>
					<rect x="51.79" y="57.165" fill="#FFFFFF" width="1.826" height="0.365"/>
					<path fill="#FFFFFF" d="M55.92,55.174h-0.438c-0.252,0.231-0.549,0.421-0.895,0.566v0.396c0.217-0.077,0.389-0.151,0.512-0.226
						c0.123-0.072,0.252-0.162,0.383-0.266v2.816h-0.895v0.365h2.211v-0.365H55.92V55.174z"/>
					<path fill="#FFFFFF" d="M58.502,58.936c0.383,0,0.67-0.096,0.861-0.29c0.191-0.193,0.287-0.422,0.287-0.686
						c0-0.171-0.041-0.323-0.119-0.459c-0.08-0.137-0.236-0.299-0.469-0.487l-0.197-0.157c0.213-0.173,0.355-0.307,0.426-0.401
						c0.072-0.095,0.125-0.19,0.162-0.287c0.035-0.097,0.055-0.196,0.055-0.3c0-0.151-0.039-0.29-0.119-0.417
						c-0.078-0.127-0.189-0.223-0.332-0.287c-0.146-0.066-0.309-0.1-0.488-0.1c-0.295,0-0.539,0.086-0.73,0.258
						c-0.191,0.173-0.287,0.38-0.287,0.623c0,0.184,0.055,0.352,0.16,0.505c0.107,0.153,0.217,0.269,0.328,0.347l0.08,0.06
						c-0.512,0.356-0.768,0.733-0.768,1.134c0,0.269,0.096,0.493,0.287,0.675C57.831,58.846,58.12,58.936,58.502,58.936z
						 M58.088,56.225c-0.076-0.098-0.115-0.201-0.115-0.311c0-0.111,0.045-0.222,0.137-0.326c0.094-0.105,0.229-0.158,0.404-0.158
						c0.162,0,0.297,0.049,0.4,0.145c0.104,0.098,0.156,0.204,0.156,0.322c0,0.098-0.029,0.201-0.086,0.314
						c-0.055,0.113-0.195,0.254-0.418,0.422l-0.109-0.08C58.288,56.432,58.165,56.323,58.088,56.225z M58.45,57.089l0.141,0.11
						c0.064,0.051,0.178,0.157,0.342,0.32c0.162,0.164,0.244,0.324,0.244,0.482c0,0.162-0.068,0.297-0.203,0.404
						c-0.135,0.109-0.287,0.163-0.457,0.163c-0.188,0-0.348-0.056-0.484-0.169s-0.205-0.252-0.205-0.418
						C57.827,57.706,58.034,57.408,58.45,57.089z"/>
					<path fill="#FFFFFF" d="M62.245,56.125c-0.102,0-0.191,0.03-0.271,0.089c-0.078,0.059-0.152,0.138-0.227,0.237
						c-0.072,0.1-0.135,0.229-0.188,0.39v-0.142c0-0.184-0.039-0.325-0.115-0.425c-0.078-0.1-0.18-0.149-0.309-0.149
						c-0.105,0-0.211,0.048-0.316,0.146c-0.104,0.098-0.217,0.274-0.338,0.53v-0.603h-0.383v2.629h0.383v-1.518
						c0.084-0.219,0.172-0.398,0.264-0.537c0.092-0.141,0.18-0.209,0.26-0.209c0.035,0,0.076,0.02,0.123,0.061
						c0.045,0.041,0.068,0.177,0.068,0.41v1.793h0.363V57.37c0.098-0.289,0.193-0.495,0.285-0.62
						c0.096-0.124,0.182-0.187,0.264-0.187c0.033,0,0.064,0.014,0.092,0.041c0.027,0.029,0.047,0.07,0.057,0.125
						s0.014,0.154,0.014,0.301v1.797h0.383V56.84c0-0.285-0.039-0.477-0.119-0.572S62.358,56.125,62.245,56.125z"/>
					<path fill="#FFFFFF" d="M64.27,56.125c-0.377,0-0.678,0.131-0.904,0.394c-0.225,0.262-0.338,0.594-0.338,0.992
						c0,0.4,0.113,0.732,0.338,0.994c0.227,0.264,0.527,0.395,0.904,0.395c0.373,0,0.674-0.131,0.9-0.395
						c0.225-0.262,0.338-0.594,0.338-0.994c0-0.398-0.113-0.73-0.338-0.992C64.944,56.255,64.643,56.125,64.27,56.125z
						 M64.827,58.262c-0.139,0.182-0.324,0.272-0.557,0.272c-0.236,0-0.422-0.091-0.561-0.272c-0.137-0.184-0.207-0.434-0.207-0.752
						c0-0.316,0.07-0.566,0.207-0.748c0.139-0.182,0.324-0.272,0.561-0.272c0.232,0,0.418,0.091,0.557,0.272
						c0.137,0.182,0.207,0.432,0.207,0.748C65.034,57.829,64.963,58.079,64.827,58.262z"/>
					<path fill="#FFFFFF" d="M67.838,56.198c-0.051-0.005-0.088-0.009-0.113-0.012c-0.168-0.018-0.293-0.026-0.377-0.026
						c-0.287,0-0.527,0.069-0.723,0.209c-0.195,0.139-0.352,0.327-0.467,0.567c-0.117,0.238-0.174,0.51-0.174,0.814
						c0,0.387,0.086,0.675,0.262,0.864c0.174,0.189,0.373,0.284,0.592,0.284c0.158,0,0.33-0.055,0.518-0.166
						c0.188-0.112,0.348-0.277,0.482-0.498v0.592h0.438v-3.799h-0.438V56.198z M67.838,57.715c-0.131,0.233-0.277,0.42-0.443,0.558
						s-0.314,0.207-0.453,0.207c-0.125,0-0.238-0.065-0.336-0.198s-0.146-0.33-0.146-0.591c0-0.359,0.09-0.644,0.27-0.853
						s0.404-0.313,0.676-0.313c0.133,0,0.277,0.021,0.434,0.062V57.715z"/>
					<path fill="#FFFFFF" d="M70.161,56.125c-0.234,0-0.449,0.062-0.641,0.185c-0.189,0.123-0.34,0.295-0.447,0.516
						c-0.105,0.222-0.158,0.452-0.158,0.691c0,0.25,0.055,0.484,0.168,0.703c0.111,0.218,0.262,0.387,0.447,0.503
						c0.188,0.118,0.398,0.177,0.635,0.177c0.312,0,0.645-0.082,0.994-0.248v-0.4c-0.342,0.189-0.654,0.284-0.936,0.284
						c-0.16,0-0.301-0.038-0.424-0.113c-0.125-0.075-0.225-0.188-0.301-0.34s-0.115-0.317-0.115-0.5h1.812v-0.095
						c0-0.463-0.094-0.806-0.283-1.029C70.723,56.237,70.473,56.125,70.161,56.125z M70.721,57.254h-1.311
						c0.051-0.252,0.143-0.443,0.271-0.571c0.129-0.13,0.283-0.193,0.461-0.193c0.176,0,0.314,0.063,0.42,0.189
						c0.105,0.128,0.158,0.298,0.158,0.512V57.254z"/>
					<path fill="#FFFFFF" d="M77.002,55.174h-0.342l-0.285,1.043h-0.668l0.273-1.043h-0.344l-0.275,1.043h-0.803v0.326h0.717
						L75.02,57.51h-0.461v0.33h0.375l-0.26,0.986h0.348l0.26-0.986h0.65l-0.27,0.986h0.35l0.268-0.986h0.838v-0.33H76.37
						l0.262-0.967h0.486v-0.326h-0.396L77.002,55.174z M76.022,57.51h-0.654l0.254-0.967h0.664L76.022,57.51z"/>
					<path fill="#FFFFFF" d="M81.92,58.799c0.16-0.092,0.285-0.224,0.373-0.395s0.133-0.451,0.133-0.84v-2.391h-1.297v0.364h0.822
						v2.015c0,0.363-0.031,0.601-0.09,0.711c-0.059,0.111-0.137,0.19-0.238,0.236c-0.098,0.048-0.209,0.072-0.328,0.072
						c-0.232,0-0.518-0.091-0.859-0.271v0.445c0.301,0.127,0.59,0.189,0.869,0.189C81.555,58.936,81.76,58.891,81.92,58.799z"/>
					<path fill="#FFFFFF" d="M85.26,56.799c0.096-0.111,0.174-0.239,0.229-0.381c0.053-0.144,0.082-0.285,0.082-0.426
						c0-0.152-0.041-0.295-0.123-0.426c-0.084-0.133-0.199-0.23-0.352-0.295c-0.148-0.065-0.383-0.098-0.701-0.098h-0.977v3.652
						h0.477v-1.555h0.473l0.967,1.555h0.566l-1.057-1.709C85.026,57.018,85.165,56.911,85.26,56.799z M83.895,56.909v-1.37h0.355
						c0.326,0,0.553,0.051,0.676,0.152c0.125,0.101,0.188,0.237,0.188,0.408c0,0.097-0.02,0.192-0.057,0.288
						s-0.094,0.186-0.166,0.271c-0.072,0.084-0.184,0.168-0.332,0.25H83.895z"/>
					<path fill="#FFFFFF" d="M88.051,57.73c-0.117,0.222-0.264,0.405-0.439,0.55s-0.342,0.217-0.496,0.217
						c-0.076,0-0.145-0.025-0.211-0.078c-0.064-0.051-0.109-0.117-0.133-0.198c-0.025-0.08-0.037-0.247-0.037-0.5v-1.522h-0.438
						v1.469c0,0.389,0.025,0.65,0.076,0.785c0.049,0.133,0.139,0.242,0.266,0.324c0.129,0.082,0.27,0.123,0.424,0.123
						c0.172,0,0.344-0.054,0.518-0.162c0.172-0.108,0.328-0.271,0.471-0.487v0.577h0.438v-2.629h-0.438V57.73z"/>
					<path fill="#FFFFFF" d="M90.62,56.125c-0.156,0-0.328,0.056-0.514,0.167c-0.188,0.111-0.348,0.277-0.484,0.498v-1.762h-0.438
						v3.799h0.438c0.051,0.005,0.088,0.008,0.113,0.012c0.17,0.017,0.295,0.025,0.377,0.025c0.287,0,0.527-0.069,0.723-0.208
						s0.35-0.328,0.467-0.567s0.176-0.512,0.176-0.816c0-0.385-0.088-0.673-0.264-0.863C91.038,56.219,90.84,56.125,90.62,56.125z
						 M90.731,58.188c-0.184,0.207-0.406,0.312-0.67,0.312c-0.135,0-0.281-0.021-0.439-0.062v-1.129
						c0.133-0.234,0.281-0.42,0.443-0.558c0.164-0.139,0.314-0.208,0.451-0.208c0.127,0,0.238,0.066,0.336,0.198
						c0.1,0.132,0.148,0.329,0.148,0.591C91,57.694,90.911,57.978,90.731,58.188z"/>
					<path fill="#FFFFFF" d="M93.313,58.171l-0.967-1.974h-0.482l1.213,2.524l-0.039,0.1c-0.037,0.102-0.104,0.222-0.193,0.36
						c-0.09,0.14-0.191,0.237-0.301,0.292c-0.109,0.054-0.234,0.082-0.377,0.082c-0.109,0-0.225-0.019-0.346-0.057v0.386
						c0.105,0.023,0.225,0.035,0.357,0.035c0.309,0,0.559-0.084,0.752-0.254c0.195-0.169,0.4-0.51,0.613-1.025l1.018-2.443H94.12
						L93.313,58.171z"/>
					<rect x="31.544" y="63.993" fill="#FFFFFF" width="1.826" height="0.364"/>
					<path fill="#FFFFFF" d="M38.429,66.049c-0.058,0.121-0.137,0.207-0.239,0.258s-0.226,0.076-0.372,0.076
						c-0.168,0-0.374-0.036-0.619-0.107v0.406c0.215,0.045,0.416,0.066,0.603,0.066c0.259,0,0.463-0.037,0.612-0.113
						c0.148-0.076,0.277-0.199,0.38-0.373c0.105-0.173,0.158-0.482,0.158-0.928v-2.309h-1.552v0.363h1.115v2.029
						C38.515,65.718,38.485,65.928,38.429,66.049z"/>
					<path fill="#FFFFFF" d="M38.735,61.783c-0.061,0-0.125,0.024-0.191,0.073c-0.067,0.049-0.101,0.122-0.101,0.22
						c0,0.097,0.033,0.169,0.101,0.218c0.066,0.049,0.13,0.072,0.191,0.072s0.125-0.023,0.191-0.072s0.1-0.121,0.1-0.218
						c0-0.098-0.033-0.171-0.1-0.22S38.795,61.783,38.735,61.783z"/>
					<path fill="#FFFFFF" d="M40.274,65.654h0.438v-1.526c0.148-0.259,0.303-0.451,0.459-0.58s0.316-0.192,0.48-0.192
						c0.041,0,0.1,0.005,0.174,0.019v0.6h0.422v-0.947c-0.158-0.049-0.316-0.072-0.477-0.072c-0.215,0-0.412,0.053-0.588,0.16
						c-0.178,0.107-0.334,0.27-0.471,0.485v-0.573h-0.438V65.654z"/>
					<path fill="#FFFFFF" d="M45.106,65.654v-2.628h-0.438v1.531c-0.117,0.221-0.264,0.404-0.439,0.549
						c-0.178,0.146-0.342,0.219-0.496,0.219c-0.074,0-0.145-0.026-0.209-0.078c-0.066-0.052-0.111-0.118-0.135-0.199
						c-0.025-0.08-0.037-0.247-0.037-0.499v-1.522h-0.438v1.468c0,0.39,0.025,0.651,0.074,0.784
						c0.051,0.135,0.141,0.242,0.268,0.325c0.129,0.083,0.27,0.124,0.422,0.124c0.174,0,0.346-0.055,0.518-0.162
						c0.174-0.108,0.33-0.271,0.473-0.488v0.577H45.106z"/>
					<path fill="#FFFFFF" d="M45.801,61.856v3.798h0.439c0.049,0.005,0.088,0.009,0.111,0.012c0.17,0.018,0.295,0.026,0.377,0.026
						c0.287,0,0.527-0.069,0.723-0.209c0.195-0.139,0.352-0.328,0.467-0.566c0.117-0.239,0.176-0.512,0.176-0.816
						c0-0.385-0.088-0.674-0.264-0.863s-0.373-0.283-0.592-0.283c-0.158,0-0.33,0.055-0.518,0.166
						c-0.186,0.111-0.348,0.277-0.48,0.496v-1.76H45.801z M46.684,63.579c0.164-0.139,0.314-0.207,0.451-0.207
						c0.123,0,0.236,0.065,0.336,0.198c0.098,0.132,0.148,0.329,0.148,0.591c0,0.361-0.092,0.646-0.273,0.854
						c-0.18,0.209-0.404,0.312-0.67,0.312c-0.133,0-0.277-0.02-0.436-0.062v-1.128C46.372,63.903,46.52,63.717,46.684,63.579z"/>
					<path fill="#FFFFFF" d="M49.93,65l-0.967-1.974h-0.482l1.215,2.525l-0.041,0.098c-0.039,0.102-0.102,0.222-0.193,0.361
						s-0.191,0.236-0.301,0.291s-0.236,0.082-0.377,0.082c-0.109,0-0.225-0.019-0.346-0.057v0.386
						c0.105,0.024,0.225,0.036,0.357,0.036c0.309,0,0.559-0.085,0.752-0.254c0.195-0.17,0.398-0.512,0.613-1.025l1.018-2.443h-0.439
						L49.93,65z"/>
					<rect x="51.79" y="63.993" fill="#FFFFFF" width="1.826" height="0.364"/>
					<path fill="#FFFFFF" d="M55.92,62.001h-0.438c-0.252,0.232-0.549,0.421-0.895,0.567v0.395c0.217-0.076,0.389-0.151,0.512-0.224
						c0.123-0.073,0.252-0.163,0.383-0.267v2.816h-0.895v0.364h2.211V65.29H55.92V62.001z"/>
					<path fill="#FFFFFF" d="M58.415,61.893c-0.361,0-0.654,0.129-0.877,0.385c-0.221,0.257-0.332,0.558-0.332,0.902
						c0,0.221,0.045,0.413,0.135,0.579c0.09,0.167,0.219,0.296,0.389,0.387c0.172,0.093,0.352,0.138,0.541,0.138
						c0.201,0,0.385-0.053,0.551-0.158c0.168-0.105,0.309-0.242,0.42-0.41v0.094c0,0.459-0.088,0.839-0.268,1.139
						c-0.178,0.3-0.432,0.45-0.758,0.45c-0.23,0-0.475-0.062-0.736-0.185v0.44c0.232,0.073,0.471,0.11,0.719,0.11
						c0.457,0,0.82-0.177,1.088-0.53c0.27-0.354,0.402-0.835,0.402-1.444c0-0.55-0.105-1.004-0.316-1.361
						C59.161,62.072,58.842,61.893,58.415,61.893z M58.854,63.671c-0.141,0.165-0.322,0.249-0.543,0.249
						c-0.215,0-0.379-0.072-0.494-0.215s-0.172-0.324-0.172-0.546c0-0.173,0.033-0.331,0.102-0.476s0.162-0.252,0.281-0.321
						c0.119-0.07,0.238-0.104,0.355-0.104c0.178,0,0.338,0.076,0.477,0.227c0.139,0.152,0.207,0.347,0.207,0.586
						C59.067,63.305,58.997,63.505,58.854,63.671z"/>
					<path fill="#FFFFFF" d="M62.245,62.954c-0.102,0-0.191,0.027-0.271,0.087c-0.078,0.059-0.152,0.138-0.227,0.237
						c-0.072,0.1-0.135,0.229-0.188,0.391v-0.142c0-0.184-0.039-0.325-0.115-0.425c-0.078-0.1-0.18-0.148-0.309-0.148
						c-0.105,0-0.211,0.047-0.316,0.145c-0.104,0.098-0.217,0.273-0.338,0.529v-0.602h-0.383v2.628h0.383v-1.519
						c0.084-0.217,0.172-0.396,0.264-0.536s0.18-0.21,0.26-0.21c0.035,0,0.076,0.021,0.123,0.062
						c0.045,0.04,0.068,0.177,0.068,0.409v1.793h0.363v-1.457c0.098-0.288,0.193-0.495,0.285-0.62
						c0.096-0.125,0.182-0.188,0.264-0.188c0.033,0,0.064,0.015,0.092,0.043c0.027,0.029,0.047,0.07,0.057,0.123
						c0.01,0.055,0.014,0.156,0.014,0.303v1.796h0.383v-1.985c0-0.287-0.039-0.477-0.119-0.572S62.358,62.954,62.245,62.954z"/>
					<path fill="#FFFFFF" d="M64.27,62.954c-0.377,0-0.678,0.13-0.904,0.391c-0.225,0.264-0.338,0.594-0.338,0.994
						s0.113,0.731,0.338,0.994c0.227,0.263,0.527,0.395,0.904,0.395c0.373,0,0.674-0.132,0.9-0.395
						c0.225-0.263,0.338-0.594,0.338-0.994s-0.113-0.73-0.338-0.994C64.944,63.083,64.643,62.954,64.27,62.954z M64.827,65.088
						c-0.139,0.184-0.324,0.273-0.557,0.273c-0.236,0-0.422-0.09-0.561-0.273c-0.137-0.182-0.207-0.432-0.207-0.75
						c0-0.316,0.07-0.566,0.207-0.748c0.139-0.183,0.324-0.273,0.561-0.273c0.232,0,0.418,0.091,0.557,0.273
						c0.137,0.182,0.207,0.432,0.207,0.748C65.034,64.657,64.963,64.907,64.827,65.088z"/>
					<path fill="#FFFFFF" d="M67.838,63.026c-0.051-0.006-0.088-0.01-0.113-0.013c-0.168-0.017-0.293-0.025-0.377-0.025
						c-0.287,0-0.527,0.069-0.723,0.208s-0.352,0.328-0.467,0.566c-0.117,0.24-0.174,0.512-0.174,0.815
						c0,0.387,0.086,0.675,0.262,0.864c0.174,0.189,0.373,0.285,0.592,0.285c0.158,0,0.33-0.056,0.518-0.167
						s0.348-0.277,0.482-0.497v0.591h0.438v-3.798h-0.438V63.026z M67.838,64.542c-0.131,0.234-0.277,0.421-0.443,0.559
						c-0.166,0.139-0.314,0.209-0.453,0.209c-0.125,0-0.238-0.067-0.336-0.2c-0.098-0.132-0.146-0.329-0.146-0.591
						c0-0.359,0.09-0.643,0.27-0.853s0.404-0.313,0.676-0.313c0.133,0,0.277,0.021,0.434,0.061V64.542z"/>
					<path fill="#FFFFFF" d="M70.161,62.954c-0.234,0-0.449,0.061-0.641,0.184c-0.189,0.123-0.34,0.295-0.447,0.516
						c-0.105,0.221-0.158,0.452-0.158,0.691c0,0.249,0.055,0.482,0.168,0.701c0.111,0.219,0.262,0.387,0.447,0.506
						c0.188,0.117,0.398,0.176,0.635,0.176c0.312,0,0.645-0.082,0.994-0.248v-0.4c-0.342,0.189-0.654,0.283-0.936,0.283
						c-0.16,0-0.301-0.037-0.424-0.113c-0.125-0.076-0.225-0.188-0.301-0.34c-0.076-0.15-0.115-0.317-0.115-0.5h1.812v-0.094
						c0-0.463-0.094-0.807-0.283-1.029S70.473,62.954,70.161,62.954z M70.721,64.083h-1.311c0.051-0.252,0.143-0.442,0.271-0.572
						c0.129-0.129,0.283-0.193,0.461-0.193c0.176,0,0.314,0.064,0.42,0.19s0.158,0.297,0.158,0.511V64.083z"/>
					<path fill="#FFFFFF" d="M77.002,62.001h-0.342l-0.285,1.042h-0.668l0.273-1.042h-0.344l-0.275,1.042h-0.803v0.328h0.717
						l-0.256,0.967h-0.461v0.33h0.375l-0.26,0.985h0.348l0.26-0.985h0.65l-0.27,0.985h0.35l0.268-0.985h0.838v-0.33H76.37
						l0.262-0.967h0.486v-0.328h-0.396L77.002,62.001z M76.022,64.338h-0.654l0.254-0.967h0.664L76.022,64.338z"/>
					<path fill="#FFFFFF" d="M81.92,65.626c0.16-0.092,0.285-0.222,0.373-0.394s0.133-0.451,0.133-0.84v-2.392h-1.297v0.364h0.822
						v2.016c0,0.363-0.031,0.6-0.09,0.711c-0.059,0.11-0.137,0.189-0.238,0.237c-0.098,0.046-0.209,0.069-0.328,0.069
						c-0.232,0-0.518-0.09-0.859-0.271v0.446c0.301,0.127,0.59,0.189,0.869,0.189C81.555,65.764,81.76,65.719,81.92,65.626z"/>
					<path fill="#FFFFFF" d="M85.26,63.627c0.096-0.112,0.174-0.24,0.229-0.383c0.053-0.143,0.082-0.284,0.082-0.426
						c0-0.151-0.041-0.293-0.123-0.424c-0.084-0.132-0.199-0.23-0.352-0.295c-0.148-0.066-0.383-0.099-0.701-0.099h-0.977v3.652
						h0.477V64.1h0.473l0.967,1.554h0.566l-1.057-1.708C85.026,63.845,85.165,63.739,85.26,63.627z M83.895,63.736v-1.37h0.355
						c0.326,0,0.553,0.052,0.676,0.152c0.125,0.102,0.188,0.238,0.188,0.409c0,0.096-0.02,0.192-0.057,0.288
						s-0.094,0.186-0.166,0.271c-0.072,0.084-0.184,0.168-0.332,0.249H83.895z"/>
					<path fill="#FFFFFF" d="M88.051,64.557c-0.117,0.221-0.264,0.404-0.439,0.549c-0.176,0.146-0.342,0.219-0.496,0.219
						c-0.076,0-0.145-0.026-0.211-0.078c-0.064-0.052-0.109-0.118-0.133-0.199c-0.025-0.08-0.037-0.247-0.037-0.499v-1.522h-0.438
						v1.468c0,0.39,0.025,0.651,0.076,0.784c0.049,0.135,0.139,0.242,0.266,0.325c0.129,0.083,0.27,0.124,0.424,0.124
						c0.172,0,0.344-0.055,0.518-0.162c0.172-0.108,0.328-0.271,0.471-0.488v0.577h0.438v-2.628h-0.438V64.557z"/>
					<path fill="#FFFFFF" d="M90.62,62.954c-0.156,0-0.328,0.055-0.514,0.166c-0.188,0.111-0.348,0.277-0.484,0.496v-1.76h-0.438
						v3.798h0.438c0.051,0.005,0.088,0.009,0.113,0.012c0.17,0.018,0.295,0.026,0.377,0.026c0.287,0,0.527-0.069,0.723-0.209
						c0.195-0.139,0.35-0.328,0.467-0.566c0.117-0.239,0.176-0.512,0.176-0.816c0-0.385-0.088-0.674-0.264-0.863
						S90.84,62.954,90.62,62.954z M90.731,65.014c-0.184,0.209-0.406,0.312-0.67,0.312c-0.135,0-0.281-0.02-0.439-0.062v-1.128
						c0.133-0.234,0.281-0.42,0.443-0.559c0.164-0.139,0.314-0.207,0.451-0.207c0.127,0,0.238,0.065,0.336,0.198
						c0.1,0.132,0.148,0.329,0.148,0.591C91,64.522,90.911,64.806,90.731,65.014z"/>
					<path fill="#FFFFFF" d="M93.313,65l-0.967-1.974h-0.482l1.213,2.525l-0.039,0.098C93,65.75,92.934,65.871,92.844,66.01
						s-0.191,0.236-0.301,0.291s-0.234,0.082-0.377,0.082c-0.109,0-0.225-0.019-0.346-0.057v0.386
						c0.105,0.024,0.225,0.036,0.357,0.036c0.309,0,0.559-0.085,0.752-0.254c0.195-0.17,0.4-0.512,0.613-1.025l1.018-2.443H94.12
						L93.313,65z"/>
					<rect x="31.544" y="70.82" fill="#FFFFFF" width="1.826" height="0.365"/>
					<path fill="#FFFFFF" d="M39.354,70.801v-0.949c-0.158-0.048-0.316-0.072-0.475-0.072c-0.216,0-0.414,0.054-0.59,0.162
						c-0.176,0.106-0.333,0.27-0.47,0.484v-0.574h-0.438v2.629h0.438v-1.527c0.15-0.257,0.303-0.449,0.459-0.578
						c0.157-0.129,0.316-0.193,0.48-0.193c0.043,0,0.102,0.007,0.174,0.019v0.601H39.354z"/>
					<path fill="#FFFFFF" d="M40.018,72.481h0.438c0.051,0.006,0.088,0.009,0.113,0.013c0.17,0.017,0.295,0.025,0.377,0.025
						c0.285,0,0.527-0.069,0.721-0.208c0.195-0.139,0.352-0.328,0.469-0.566c0.115-0.24,0.174-0.512,0.174-0.816
						c0-0.386-0.088-0.674-0.262-0.863c-0.178-0.19-0.375-0.285-0.594-0.285c-0.158,0-0.33,0.057-0.516,0.168
						c-0.188,0.11-0.348,0.275-0.482,0.496v-1.76h-0.438V72.481z M40.456,70.964c0.131-0.233,0.279-0.42,0.443-0.558
						c0.164-0.139,0.314-0.209,0.451-0.209c0.125,0,0.236,0.067,0.336,0.199s0.148,0.328,0.148,0.592
						c0,0.361-0.09,0.646-0.271,0.854s-0.404,0.312-0.67,0.312c-0.133,0-0.279-0.021-0.438-0.062V70.964z"/>
					<polygon fill="#FFFFFF" points="45.184,69.852 44.688,69.852 44.02,70.741 43.338,69.852 42.776,69.852 43.741,71.112 
						42.711,72.481 43.217,72.481 43.997,71.441 44.793,72.481 45.356,72.481 44.274,71.07 					"/>
					<path fill="#FFFFFF" d="M27.837,75.657h-0.344L27.209,76.7h-0.668l0.274-1.043h-0.345L26.196,76.7h-0.805v0.326h0.718
						l-0.256,0.968h-0.462v0.329h0.375l-0.26,0.986h0.348l0.26-0.986h0.652l-0.27,0.986h0.349l0.268-0.986h0.837v-0.329h-0.748
						l0.263-0.968h0.485V76.7h-0.396L27.837,75.657z M26.855,77.994H26.2l0.254-0.968h0.665L26.855,77.994z"/>
					<path fill="#FFFFFF" d="M31.347,78.149c0,0.389,0.025,0.65,0.074,0.785c0.051,0.134,0.14,0.242,0.268,0.324
						s0.269,0.123,0.422,0.123c0.173,0,0.346-0.054,0.518-0.162c0.174-0.107,0.33-0.27,0.471-0.486v0.576h0.438V76.68h-0.438v1.531
						c-0.115,0.223-0.262,0.405-0.438,0.551c-0.177,0.145-0.341,0.218-0.495,0.218c-0.075,0-0.146-0.026-0.211-0.078
						c-0.064-0.052-0.109-0.118-0.134-0.199s-0.036-0.247-0.036-0.499V76.68h-0.438V78.149z"/>
					<path fill="#FFFFFF" d="M34.704,77.777c0.115-0.22,0.26-0.401,0.437-0.548s0.341-0.22,0.495-0.22
						c0.077,0,0.148,0.026,0.213,0.079c0.065,0.051,0.109,0.117,0.135,0.197c0.023,0.081,0.037,0.248,0.037,0.501v1.522h0.437
						v-1.468c0-0.392-0.025-0.653-0.076-0.786c-0.051-0.135-0.14-0.242-0.267-0.324s-0.269-0.123-0.424-0.123
						c-0.178,0-0.355,0.057-0.531,0.171c-0.178,0.114-0.329,0.274-0.455,0.476V76.68h-0.438v2.629h0.438V77.777z"/>
					<path fill="#FFFFFF" d="M37.569,77.002c-0.26,0.265-0.39,0.596-0.39,0.994c0,0.265,0.058,0.501,0.172,0.709
						s0.274,0.373,0.479,0.494c0.204,0.121,0.438,0.182,0.701,0.182c0.265,0,0.544-0.049,0.837-0.148v-0.42
						c-0.248,0.084-0.42,0.134-0.512,0.146c-0.094,0.014-0.188,0.021-0.283,0.021c-0.316,0-0.55-0.108-0.697-0.323
						c-0.148-0.215-0.223-0.439-0.223-0.678c0-0.177,0.038-0.35,0.115-0.518c0.077-0.167,0.186-0.291,0.326-0.37
						c0.143-0.079,0.293-0.119,0.453-0.119c0.242,0,0.515,0.069,0.82,0.21V76.76c-0.303-0.102-0.59-0.152-0.861-0.152
						C38.143,76.608,37.829,76.74,37.569,77.002z"/>
					<path fill="#FFFFFF" d="M41.131,76.608c-0.375,0-0.676,0.131-0.902,0.393s-0.338,0.593-0.338,0.993
						c0,0.399,0.111,0.731,0.338,0.994s0.527,0.394,0.902,0.394s0.676-0.131,0.9-0.394c0.227-0.263,0.34-0.595,0.34-0.994
						c0-0.4-0.113-0.731-0.34-0.993C41.807,76.739,41.506,76.608,41.131,76.608z M41.688,78.745
						c-0.137,0.182-0.322,0.271-0.557,0.271s-0.42-0.09-0.559-0.271c-0.139-0.183-0.207-0.433-0.207-0.751
						c0-0.317,0.068-0.565,0.207-0.749c0.139-0.182,0.324-0.272,0.559-0.272s0.42,0.091,0.557,0.272
						c0.139,0.184,0.207,0.432,0.207,0.749C41.895,78.312,41.827,78.562,41.688,78.745z"/>
					<path fill="#FFFFFF" d="M44.891,76.608c-0.102,0-0.191,0.029-0.27,0.088c-0.08,0.059-0.154,0.139-0.229,0.238
						c-0.072,0.1-0.135,0.229-0.186,0.389v-0.141c0-0.184-0.039-0.326-0.117-0.426c-0.078-0.099-0.18-0.148-0.307-0.148
						c-0.107,0-0.213,0.048-0.318,0.146c-0.104,0.097-0.217,0.274-0.336,0.529V76.68h-0.385v2.629h0.385v-1.518
						c0.082-0.219,0.17-0.397,0.262-0.537c0.092-0.139,0.18-0.209,0.26-0.209c0.037,0,0.076,0.021,0.121,0.061
						c0.047,0.041,0.07,0.178,0.07,0.41v1.793h0.365v-1.457c0.096-0.289,0.191-0.494,0.285-0.619
						c0.094-0.126,0.18-0.188,0.262-0.188c0.033,0,0.064,0.014,0.092,0.043c0.027,0.027,0.047,0.068,0.057,0.123
						c0.01,0.054,0.014,0.154,0.014,0.302v1.796h0.385v-1.986c0-0.286-0.041-0.477-0.121-0.572S45.004,76.608,44.891,76.608z"/>
					<path fill="#FFFFFF" d="M47.784,76.608c-0.104,0-0.191,0.029-0.271,0.088c-0.078,0.059-0.152,0.139-0.227,0.238
						c-0.072,0.1-0.135,0.229-0.188,0.389v-0.141c0-0.184-0.039-0.326-0.115-0.426c-0.078-0.099-0.182-0.148-0.309-0.148
						c-0.105,0-0.211,0.048-0.316,0.146c-0.104,0.097-0.217,0.274-0.338,0.529V76.68h-0.383v2.629h0.383v-1.518
						c0.084-0.219,0.172-0.397,0.264-0.537c0.092-0.139,0.178-0.209,0.26-0.209c0.035,0,0.076,0.021,0.121,0.061
						c0.047,0.041,0.07,0.178,0.07,0.41v1.793h0.363v-1.457c0.098-0.289,0.193-0.494,0.287-0.619
						c0.092-0.126,0.18-0.188,0.262-0.188c0.033,0,0.062,0.014,0.092,0.043c0.027,0.027,0.047,0.068,0.057,0.123
						c0.01,0.054,0.014,0.154,0.014,0.302v1.796h0.385v-1.986c0-0.286-0.041-0.477-0.121-0.572S47.897,76.608,47.784,76.608z"/>
					<path fill="#FFFFFF" d="M49.915,76.608c-0.234,0-0.447,0.062-0.639,0.185c-0.191,0.122-0.34,0.294-0.447,0.516
						s-0.16,0.452-0.16,0.692c0,0.248,0.057,0.482,0.168,0.7c0.111,0.22,0.262,0.388,0.449,0.505
						c0.186,0.117,0.396,0.176,0.635,0.176c0.312,0,0.643-0.082,0.992-0.247v-0.399c-0.342,0.188-0.654,0.281-0.936,0.281
						c-0.158,0-0.301-0.036-0.424-0.112c-0.123-0.075-0.225-0.188-0.301-0.34s-0.113-0.317-0.113-0.501h1.812v-0.094
						c0-0.463-0.096-0.806-0.283-1.028C50.479,76.719,50.227,76.608,49.915,76.608z M50.475,77.737h-1.311
						c0.051-0.251,0.143-0.441,0.271-0.57c0.131-0.13,0.283-0.194,0.461-0.194c0.176,0,0.316,0.063,0.42,0.19
						c0.105,0.127,0.158,0.297,0.158,0.511V77.737z"/>
					<path fill="#FFFFFF" d="M53.467,76.731c-0.127-0.082-0.27-0.123-0.424-0.123c-0.178,0-0.355,0.057-0.531,0.171
						c-0.178,0.114-0.33,0.274-0.455,0.476V76.68H51.62v2.629h0.438v-1.532c0.115-0.22,0.26-0.401,0.438-0.548
						c0.176-0.146,0.342-0.22,0.494-0.22c0.078,0,0.148,0.026,0.213,0.079c0.066,0.051,0.111,0.117,0.135,0.197
						c0.023,0.081,0.035,0.248,0.035,0.501v1.522h0.439v-1.468c0-0.392-0.025-0.653-0.076-0.786
						C53.684,76.92,53.594,76.813,53.467,76.731z"/>
					<path fill="#FFFFFF" d="M55.03,78.323c0,0.289,0.039,0.503,0.115,0.641c0.078,0.139,0.193,0.242,0.346,0.312
						s0.32,0.105,0.504,0.105c0.086,0,0.176-0.008,0.268-0.023c0.092-0.018,0.242-0.068,0.447-0.155v-0.386
						c-0.234,0.133-0.457,0.199-0.668,0.199c-0.115,0-0.215-0.02-0.297-0.06c-0.086-0.042-0.152-0.105-0.203-0.192
						c-0.049-0.087-0.074-0.236-0.074-0.448v-1.052h1.17v-0.365h-1.17V75.84H55.03v1.059h-0.656v0.365h0.656V78.323z"/>
					<path fill="#FFFFFF" d="M61.528,78.957c-0.084-0.042-0.15-0.105-0.201-0.192s-0.076-0.236-0.076-0.448v-1.052h1.17v-0.365
						h-1.17V75.84h-0.436v1.059h-0.658v0.365h0.658v1.059c0,0.289,0.037,0.503,0.115,0.641c0.078,0.139,0.193,0.242,0.344,0.312
						c0.154,0.07,0.32,0.105,0.504,0.105c0.088,0,0.176-0.008,0.27-0.023c0.092-0.018,0.24-0.068,0.447-0.155v-0.386
						c-0.234,0.133-0.457,0.199-0.668,0.199C61.711,79.016,61.612,78.997,61.528,78.957z"/>
					<path fill="#FFFFFF" d="M63.188,75.51v3.799h0.438v-1.532c0.115-0.22,0.26-0.401,0.436-0.548
						c0.178-0.146,0.342-0.22,0.498-0.22c0.074,0,0.146,0.026,0.211,0.079c0.066,0.051,0.109,0.117,0.135,0.197
						c0.025,0.081,0.037,0.248,0.037,0.501v1.522h0.438v-1.468c0-0.292-0.008-0.485-0.021-0.577
						c-0.014-0.095-0.041-0.183-0.08-0.266c-0.049-0.109-0.135-0.201-0.258-0.276c-0.123-0.077-0.26-0.114-0.408-0.114
						c-0.178,0-0.355,0.057-0.531,0.171c-0.178,0.114-0.33,0.274-0.455,0.476V75.51H63.188z"/>
					<path fill="#FFFFFF" d="M67.229,75.949c0.068-0.048,0.1-0.121,0.1-0.218c0-0.098-0.031-0.172-0.1-0.221
						c-0.066-0.048-0.131-0.072-0.191-0.072s-0.123,0.024-0.191,0.072c-0.066,0.049-0.1,0.123-0.1,0.221
						c0,0.097,0.033,0.17,0.1,0.218c0.068,0.048,0.131,0.073,0.191,0.073S67.163,75.997,67.229,75.949z"/>
					<polygon fill="#FFFFFF" points="66.088,77.045 66.817,77.045 66.817,79.309 67.987,79.309 67.987,78.944 67.254,78.944 
						67.254,76.68 66.088,76.68 					"/>
					<path fill="#FFFFFF" d="M70.061,79.016c-0.139,0-0.305-0.021-0.5-0.068c-0.195-0.046-0.383-0.127-0.559-0.242v0.465
						c0.355,0.142,0.701,0.211,1.037,0.211c0.383,0,0.662-0.073,0.838-0.22s0.262-0.333,0.262-0.561
						c0-0.175-0.055-0.319-0.162-0.436c-0.111-0.116-0.301-0.224-0.572-0.323l-0.297-0.107c-0.203-0.074-0.35-0.139-0.439-0.195
						s-0.137-0.133-0.137-0.227c0-0.097,0.053-0.178,0.158-0.242c0.104-0.066,0.248-0.099,0.434-0.099
						c0.256,0,0.527,0.052,0.816,0.155v-0.398c-0.252-0.08-0.518-0.121-0.799-0.121c-0.377,0-0.648,0.068-0.814,0.209
						c-0.168,0.14-0.25,0.317-0.25,0.534c0,0.153,0.043,0.284,0.129,0.391c0.084,0.108,0.289,0.227,0.617,0.353l0.303,0.121
						l0.15,0.061c0.182,0.074,0.293,0.136,0.338,0.187c0.047,0.05,0.068,0.11,0.068,0.181c0,0.107-0.047,0.195-0.145,0.268
						C70.44,78.982,70.282,79.016,70.061,79.016z"/>
					<polygon fill="#FFFFFF" points="74.678,75.51 74.678,75.875 75.463,75.875 75.463,79.309 76.721,79.309 76.721,78.944 
						75.901,78.944 75.901,75.51 					"/>
					<polygon fill="#FFFFFF" points="78.385,79.309 79.555,79.309 79.555,78.944 78.823,78.944 78.823,76.68 77.657,76.68 
						77.657,77.045 78.385,77.045 					"/>
					<path fill="#FFFFFF" d="M78.606,76.022c0.061,0,0.125-0.025,0.191-0.073s0.102-0.121,0.102-0.218
						c0-0.098-0.035-0.172-0.102-0.221c-0.066-0.048-0.131-0.072-0.191-0.072c-0.059,0-0.123,0.024-0.189,0.072
						c-0.068,0.049-0.102,0.123-0.102,0.221c0,0.097,0.033,0.17,0.102,0.218C78.483,75.997,78.547,76.022,78.606,76.022z"/>
					<path fill="#FFFFFF" d="M81.965,76.608c-0.178,0-0.355,0.057-0.531,0.171c-0.178,0.114-0.33,0.274-0.455,0.476V76.68h-0.438
						v2.629h0.438v-1.532c0.115-0.22,0.26-0.401,0.438-0.548c0.176-0.146,0.34-0.22,0.494-0.22c0.078,0,0.148,0.026,0.213,0.079
						c0.064,0.051,0.109,0.117,0.135,0.197c0.023,0.081,0.035,0.248,0.035,0.501v1.522h0.439v-1.468
						c0-0.392-0.025-0.653-0.076-0.786c-0.053-0.135-0.141-0.242-0.27-0.324C82.262,76.649,82.12,76.608,81.965,76.608z"/>
					<path fill="#FFFFFF" d="M84.622,76.608c-0.234,0-0.449,0.062-0.641,0.185c-0.191,0.122-0.34,0.294-0.447,0.516
						C83.428,77.53,83.375,77.76,83.375,78c0,0.248,0.055,0.482,0.168,0.7c0.111,0.22,0.262,0.388,0.447,0.505
						c0.188,0.117,0.398,0.176,0.635,0.176c0.312,0,0.645-0.082,0.994-0.247v-0.399c-0.342,0.188-0.654,0.281-0.936,0.281
						c-0.16,0-0.301-0.036-0.426-0.112c-0.123-0.075-0.223-0.188-0.299-0.34s-0.115-0.317-0.115-0.501h1.812v-0.094
						c0-0.463-0.094-0.806-0.283-1.028C85.184,76.719,84.934,76.608,84.622,76.608z M85.182,77.737h-1.311
						c0.051-0.251,0.143-0.441,0.271-0.57c0.129-0.13,0.283-0.194,0.461-0.194c0.176,0,0.314,0.063,0.42,0.19
						s0.158,0.297,0.158,0.511V77.737z"/>
					<path fill="#FFFFFF" d="M90.366,75.949c0.068-0.048,0.102-0.121,0.102-0.218c0-0.098-0.033-0.172-0.102-0.221
						c-0.066-0.048-0.131-0.072-0.191-0.072c-0.059,0-0.123,0.024-0.191,0.072c-0.066,0.049-0.1,0.123-0.1,0.221
						c0,0.097,0.033,0.17,0.1,0.218c0.068,0.048,0.133,0.073,0.191,0.073C90.235,76.022,90.299,75.997,90.366,75.949z"/>
					<polygon fill="#FFFFFF" points="89.225,77.045 89.954,77.045 89.954,79.309 91.124,79.309 91.124,78.944 90.391,78.944 
						90.391,76.68 89.225,76.68 					"/>
					<path fill="#FFFFFF" d="M93.204,75.598c-0.164,0.106-0.285,0.242-0.365,0.408c-0.078,0.166-0.117,0.422-0.117,0.768v0.123
						h-0.584v0.365h0.584v2.047h0.438v-2.047h1.043v-0.365h-1.043v-0.169c0-0.28,0.031-0.478,0.092-0.595s0.143-0.201,0.25-0.253
						c0.105-0.052,0.23-0.077,0.369-0.077c0.176,0,0.377,0.037,0.605,0.111V75.5c-0.211-0.041-0.418-0.062-0.621-0.062
						C93.584,75.438,93.366,75.491,93.204,75.598z"/>
					<path fill="#FFFFFF" d="M27.837,82.485h-0.344l-0.284,1.043h-0.668l0.274-1.043h-0.345l-0.274,1.043h-0.805v0.326h0.718
						l-0.256,0.968h-0.462v0.329h0.375l-0.26,0.985h0.348l0.26-0.985h0.652l-0.27,0.985h0.349l0.268-0.985h0.837v-0.329h-0.748
						l0.263-0.968h0.485v-0.326h-0.396L27.837,82.485z M26.855,84.822H26.2l0.254-0.968h0.665L26.855,84.822z"/>
					<path fill="#FFFFFF" d="M32.806,84.67l-0.297-0.107c-0.203-0.074-0.348-0.141-0.438-0.195
						c-0.092-0.057-0.137-0.133-0.137-0.227c0-0.098,0.053-0.179,0.156-0.244c0.104-0.064,0.25-0.098,0.436-0.098
						c0.255,0,0.525,0.053,0.815,0.156v-0.397c-0.251-0.082-0.519-0.123-0.799-0.123c-0.376,0-0.647,0.07-0.813,0.21
						c-0.168,0.139-0.252,0.317-0.252,0.534c0,0.153,0.043,0.284,0.13,0.391c0.085,0.108,0.29,0.226,0.616,0.353l0.304,0.12
						l0.151,0.062c0.18,0.073,0.293,0.135,0.338,0.186c0.046,0.05,0.068,0.11,0.068,0.182c0,0.105-0.049,0.195-0.146,0.267
						c-0.098,0.071-0.257,0.107-0.478,0.107c-0.137,0-0.303-0.022-0.5-0.069c-0.195-0.047-0.381-0.127-0.557-0.242v0.464
						c0.354,0.142,0.699,0.212,1.035,0.212c0.385,0,0.664-0.073,0.839-0.22s0.263-0.334,0.263-0.562
						c0-0.174-0.055-0.318-0.164-0.436C33.269,84.877,33.077,84.77,32.806,84.67z"/>
					<path fill="#FFFFFF" d="M34.677,83.831c-0.259,0.264-0.389,0.594-0.389,0.992c0,0.266,0.057,0.502,0.172,0.711
						c0.113,0.207,0.273,0.371,0.479,0.494c0.205,0.121,0.439,0.182,0.702,0.182c0.265,0,0.545-0.05,0.837-0.148V85.64
						c-0.248,0.085-0.42,0.134-0.512,0.147c-0.093,0.014-0.188,0.02-0.283,0.02c-0.316,0-0.549-0.107-0.697-0.322
						s-0.223-0.44-0.223-0.678c0-0.177,0.039-0.35,0.115-0.518c0.077-0.168,0.186-0.291,0.328-0.371
						c0.141-0.078,0.291-0.119,0.451-0.119c0.242,0,0.516,0.07,0.82,0.211v-0.422c-0.302-0.103-0.589-0.153-0.86-0.153
						C35.25,83.435,34.937,83.567,34.677,83.831z"/>
					<path fill="#FFFFFF" d="M38.289,83.596c-0.176,0.107-0.333,0.27-0.47,0.486v-0.574h-0.438v2.628h0.438v-1.527
						c0.15-0.257,0.303-0.45,0.459-0.578c0.157-0.129,0.316-0.192,0.48-0.192c0.043,0,0.102,0.006,0.174,0.018v0.601h0.422v-0.948
						c-0.158-0.049-0.316-0.073-0.475-0.073C38.663,83.435,38.466,83.489,38.289,83.596z"/>
					<path fill="#FFFFFF" d="M41.2,82.776c0.066-0.048,0.1-0.121,0.1-0.217c0-0.1-0.033-0.172-0.1-0.221
						c-0.068-0.049-0.131-0.072-0.193-0.072c-0.059,0-0.123,0.023-0.189,0.072s-0.1,0.121-0.1,0.221c0,0.096,0.033,0.169,0.1,0.217
						c0.066,0.049,0.131,0.074,0.189,0.074C41.069,82.85,41.131,82.825,41.2,82.776z"/>
					<polygon fill="#FFFFFF" points="41.225,83.508 40.057,83.508 40.057,83.873 40.788,83.873 40.788,86.136 41.958,86.136 
						41.958,85.772 41.225,85.772 					"/>
					<path fill="#FFFFFF" d="M44.344,83.435c-0.156,0-0.328,0.056-0.514,0.167c-0.188,0.111-0.348,0.277-0.482,0.497v-0.591h-0.439
						v3.649h0.439v-1.021c0.049,0.005,0.086,0.009,0.113,0.013c0.168,0.018,0.295,0.025,0.375,0.025
						c0.287,0,0.529-0.069,0.723-0.209c0.195-0.139,0.35-0.328,0.467-0.566c0.119-0.24,0.176-0.511,0.176-0.815
						c0-0.386-0.088-0.674-0.264-0.863C44.764,83.53,44.565,83.435,44.344,83.435z M44.456,85.497
						c-0.182,0.209-0.406,0.312-0.67,0.312c-0.135,0-0.279-0.02-0.438-0.061V84.62c0.131-0.233,0.279-0.42,0.443-0.559
						s0.314-0.207,0.449-0.207c0.127,0,0.238,0.066,0.338,0.197c0.098,0.133,0.146,0.33,0.146,0.592
						C44.725,85.004,44.635,85.29,44.456,85.497z"/>
					<path fill="#FFFFFF" d="M47.067,85.784c-0.084-0.041-0.15-0.104-0.201-0.191s-0.076-0.237-0.076-0.449v-1.052h1.17v-0.364
						h-1.17v-1.059h-0.438v1.059h-0.656v0.364h0.656v1.06c0,0.289,0.039,0.502,0.117,0.64c0.078,0.139,0.191,0.242,0.344,0.313
						c0.152,0.07,0.322,0.105,0.504,0.105c0.088,0,0.176-0.008,0.268-0.024c0.094-0.017,0.244-0.068,0.449-0.153v-0.387
						c-0.234,0.133-0.457,0.2-0.67,0.2C47.25,85.845,47.151,85.825,47.067,85.784z"/>
					<path fill="#FFFFFF" d="M49.807,85.48c-0.104,0-0.193,0.038-0.27,0.112s-0.115,0.164-0.115,0.271
						c0,0.104,0.039,0.195,0.113,0.271c0.076,0.075,0.166,0.114,0.271,0.114s0.195-0.039,0.271-0.114
						c0.074-0.075,0.113-0.166,0.113-0.271c0-0.107-0.039-0.197-0.115-0.271S49.911,85.48,49.807,85.48z"/>
					<path fill="#FFFFFF" d="M49.807,83.435c-0.104,0-0.193,0.038-0.27,0.112s-0.115,0.165-0.115,0.271
						c0,0.105,0.039,0.195,0.113,0.271c0.076,0.075,0.166,0.112,0.271,0.112s0.195-0.037,0.271-0.112
						c0.074-0.075,0.113-0.165,0.113-0.271c0-0.106-0.039-0.197-0.115-0.271S49.911,83.435,49.807,83.435z"/>
					<path fill="#FFFFFF" d="M55.915,83.435c-0.158,0-0.33,0.056-0.516,0.167c-0.188,0.111-0.348,0.277-0.482,0.497v-1.761h-0.438
						v3.798h0.438c0.049,0.005,0.088,0.009,0.113,0.013c0.168,0.018,0.295,0.025,0.377,0.025c0.287,0,0.527-0.069,0.721-0.209
						c0.195-0.139,0.352-0.328,0.469-0.566c0.115-0.24,0.174-0.511,0.174-0.815c0-0.386-0.088-0.674-0.262-0.863
						C56.331,83.53,56.133,83.435,55.915,83.435z M56.024,85.497c-0.182,0.209-0.404,0.312-0.67,0.312
						c-0.133,0-0.279-0.02-0.438-0.061V84.62c0.131-0.233,0.279-0.42,0.443-0.559s0.314-0.207,0.451-0.207
						c0.125,0,0.238,0.066,0.336,0.197c0.1,0.133,0.148,0.33,0.148,0.592C56.295,85.004,56.204,85.29,56.024,85.497z"/>
					<path fill="#FFFFFF" d="M59.129,85.04c-0.117,0.222-0.264,0.404-0.439,0.55s-0.342,0.218-0.496,0.218
						c-0.074,0-0.145-0.025-0.211-0.077c-0.064-0.052-0.109-0.118-0.133-0.199c-0.025-0.081-0.037-0.247-0.037-0.5v-1.522h-0.438
						v1.469c0,0.389,0.025,0.65,0.076,0.785c0.049,0.133,0.139,0.242,0.266,0.324c0.129,0.082,0.27,0.123,0.422,0.123
						c0.174,0,0.346-0.054,0.518-0.162c0.174-0.108,0.33-0.271,0.473-0.486v0.575h0.438v-2.628h-0.438V85.04z"/>
					<path fill="#FFFFFF" d="M62.143,83.559c-0.127-0.083-0.268-0.124-0.424-0.124c-0.178,0-0.354,0.058-0.531,0.172
						s-0.33,0.272-0.455,0.476v-0.574h-0.438v2.628h0.438v-1.531c0.115-0.22,0.262-0.403,0.438-0.548
						c0.176-0.146,0.342-0.219,0.494-0.219c0.078,0,0.148,0.025,0.215,0.076c0.064,0.052,0.109,0.119,0.133,0.199
						c0.023,0.081,0.037,0.248,0.037,0.5v1.522h0.438v-1.468c0-0.391-0.025-0.652-0.076-0.786
						C62.36,83.75,62.27,83.641,62.143,83.559z"/>
					<path fill="#FFFFFF" d="M64.946,83.508c-0.051-0.005-0.088-0.008-0.113-0.012c-0.168-0.018-0.293-0.027-0.377-0.027
						c-0.287,0-0.529,0.07-0.723,0.21c-0.195,0.139-0.352,0.327-0.467,0.567c-0.117,0.239-0.174,0.51-0.174,0.814
						c0,0.387,0.086,0.674,0.262,0.863c0.176,0.191,0.373,0.285,0.594,0.285c0.156,0,0.328-0.056,0.516-0.168
						c0.189-0.11,0.35-0.275,0.482-0.496v0.591h0.438v-3.798h-0.438V83.508z M64.946,85.026c-0.131,0.232-0.277,0.42-0.443,0.558
						c-0.164,0.139-0.316,0.207-0.453,0.207c-0.125,0-0.236-0.065-0.334-0.199c-0.1-0.132-0.148-0.329-0.148-0.59
						c0-0.36,0.09-0.644,0.27-0.853s0.406-0.314,0.676-0.314c0.133,0,0.279,0.021,0.434,0.062V85.026z"/>
					<polygon fill="#FFFFFF" points="67.225,82.338 66,82.338 66,82.703 66.786,82.703 66.786,86.136 68.045,86.136 68.045,85.772 
						67.225,85.772 					"/>
					<path fill="#FFFFFF" d="M70.161,83.435c-0.234,0-0.449,0.062-0.641,0.185c-0.189,0.123-0.34,0.295-0.447,0.516
						c-0.105,0.221-0.158,0.451-0.158,0.691c0,0.25,0.055,0.484,0.168,0.702c0.111,0.219,0.262,0.388,0.447,0.504
						c0.188,0.118,0.398,0.177,0.635,0.177c0.312,0,0.645-0.082,0.994-0.248v-0.4c-0.342,0.189-0.654,0.284-0.936,0.284
						c-0.16,0-0.301-0.038-0.424-0.114c-0.125-0.075-0.225-0.188-0.301-0.339s-0.115-0.317-0.115-0.5h1.812v-0.094
						c0-0.464-0.094-0.808-0.283-1.028C70.723,83.546,70.473,83.435,70.161,83.435z M70.721,84.565h-1.311
						c0.051-0.252,0.143-0.441,0.271-0.571c0.129-0.128,0.283-0.194,0.461-0.194c0.176,0,0.314,0.064,0.42,0.189
						c0.105,0.128,0.158,0.299,0.158,0.513V84.565z"/>
					<path fill="#FFFFFF" d="M75.946,83.435c-0.236,0-0.449,0.062-0.641,0.185s-0.34,0.295-0.447,0.516
						c-0.105,0.221-0.16,0.451-0.16,0.691c0,0.25,0.057,0.484,0.168,0.702c0.113,0.219,0.262,0.388,0.449,0.504
						c0.186,0.118,0.398,0.177,0.635,0.177c0.312,0,0.643-0.082,0.994-0.248v-0.4c-0.344,0.189-0.656,0.284-0.938,0.284
						c-0.158,0-0.299-0.038-0.424-0.114c-0.123-0.075-0.223-0.188-0.301-0.339c-0.074-0.151-0.113-0.317-0.113-0.5h1.812v-0.094
						c0-0.464-0.096-0.808-0.285-1.028C76.508,83.546,76.258,83.435,75.946,83.435z M76.504,84.565h-1.311
						c0.053-0.252,0.143-0.441,0.271-0.571c0.131-0.128,0.283-0.194,0.461-0.194c0.176,0,0.316,0.064,0.422,0.189
						c0.104,0.128,0.156,0.299,0.156,0.513V84.565z"/>
					<polygon fill="#FFFFFF" points="79.891,83.508 79.393,83.508 78.725,84.395 78.045,83.508 77.483,83.508 78.448,84.766 
						77.417,86.136 77.922,86.136 78.702,85.096 79.5,86.136 80.063,86.136 78.979,84.726 					"/>
					<path fill="#FFFFFF" d="M81.731,83.435c-0.236,0-0.451,0.062-0.643,0.185c-0.189,0.123-0.34,0.295-0.445,0.516
						c-0.107,0.221-0.16,0.451-0.16,0.691c0,0.25,0.055,0.484,0.168,0.702c0.111,0.219,0.262,0.388,0.447,0.504
						c0.188,0.118,0.398,0.177,0.637,0.177c0.312,0,0.643-0.082,0.992-0.248v-0.4c-0.342,0.189-0.654,0.284-0.938,0.284
						c-0.156,0-0.299-0.038-0.422-0.114c-0.125-0.075-0.225-0.188-0.301-0.339s-0.113-0.317-0.113-0.5h1.811v-0.094
						c0-0.464-0.094-0.808-0.283-1.028C82.292,83.546,82.042,83.435,81.731,83.435z M82.29,84.565h-1.311
						c0.051-0.252,0.143-0.441,0.271-0.571c0.129-0.128,0.283-0.194,0.459-0.194s0.316,0.064,0.422,0.189
						c0.105,0.128,0.158,0.299,0.158,0.513V84.565z"/>
					<path fill="#FFFFFF" d="M83.844,83.831c-0.26,0.264-0.391,0.594-0.391,0.992c0,0.266,0.059,0.502,0.172,0.711
						c0.115,0.207,0.275,0.371,0.48,0.494c0.203,0.121,0.439,0.182,0.701,0.182c0.266,0,0.545-0.05,0.838-0.148V85.64
						c-0.25,0.085-0.42,0.134-0.512,0.147c-0.094,0.014-0.188,0.02-0.283,0.02c-0.316,0-0.549-0.107-0.697-0.322
						s-0.223-0.44-0.223-0.678c0-0.177,0.039-0.35,0.115-0.518s0.186-0.291,0.326-0.371c0.143-0.078,0.293-0.119,0.453-0.119
						c0.24,0,0.516,0.07,0.82,0.211v-0.422c-0.303-0.103-0.59-0.153-0.861-0.153C84.417,83.435,84.104,83.567,83.844,83.831z"/>
					<path fill="#FFFFFF" d="M90.348,83.596c-0.176,0.107-0.332,0.27-0.469,0.486v-0.574h-0.438v2.628h0.438v-1.527
						c0.148-0.257,0.301-0.45,0.459-0.578c0.156-0.129,0.316-0.192,0.479-0.192c0.043,0,0.102,0.006,0.176,0.018v0.601h0.42v-0.948
						c-0.158-0.049-0.316-0.073-0.475-0.073C90.721,83.435,90.524,83.489,90.348,83.596z"/>
					<path fill="#FFFFFF" d="M93.542,84.67l-0.297-0.107c-0.203-0.074-0.35-0.141-0.438-0.195c-0.092-0.057-0.139-0.133-0.139-0.227
						c0-0.098,0.053-0.179,0.158-0.244c0.104-0.064,0.248-0.098,0.436-0.098c0.254,0,0.525,0.053,0.814,0.156v-0.397
						c-0.252-0.082-0.518-0.123-0.799-0.123c-0.375,0-0.646,0.07-0.814,0.21c-0.166,0.139-0.25,0.317-0.25,0.534
						c0,0.153,0.043,0.284,0.129,0.391c0.086,0.108,0.291,0.226,0.617,0.353l0.303,0.12l0.152,0.062
						c0.18,0.073,0.293,0.135,0.338,0.186c0.045,0.05,0.068,0.11,0.068,0.182c0,0.105-0.049,0.195-0.146,0.267
						s-0.256,0.107-0.477,0.107c-0.137,0-0.303-0.022-0.5-0.069c-0.195-0.047-0.383-0.127-0.557-0.242v0.464
						c0.354,0.142,0.699,0.212,1.035,0.212c0.385,0,0.664-0.073,0.838-0.22c0.176-0.146,0.264-0.334,0.264-0.562
						c0-0.174-0.057-0.318-0.164-0.436C94.002,84.877,93.813,84.77,93.542,84.67z"/>
					<path fill="#FFFFFF" d="M96.405,83.435c-0.158,0-0.33,0.056-0.516,0.167c-0.188,0.111-0.348,0.277-0.482,0.497v-0.591h-0.438
						v3.649h0.438v-1.021c0.051,0.005,0.088,0.009,0.113,0.013c0.17,0.018,0.295,0.025,0.377,0.025c0.287,0,0.527-0.069,0.723-0.209
						c0.193-0.139,0.35-0.328,0.467-0.566c0.115-0.24,0.176-0.511,0.176-0.815c0-0.386-0.088-0.674-0.266-0.863
						C96.821,83.53,96.624,83.435,96.405,83.435z M96.514,85.497c-0.182,0.209-0.404,0.312-0.67,0.312
						c-0.133,0-0.279-0.02-0.438-0.061V84.62c0.131-0.233,0.279-0.42,0.443-0.559s0.314-0.207,0.451-0.207
						c0.125,0,0.238,0.066,0.336,0.197c0.1,0.133,0.148,0.33,0.148,0.592C96.786,85.004,96.696,85.29,96.514,85.497z"/>
				</g>
			</g>
		</g>
		<circle fill="none" stroke="#E7E8E6" stroke-width="2.6961" stroke-miterlimit="10" cx="47.852" cy="48.043" r="45.986"/>
	</g>
	<g>
		<circle fill="#34A665" cx="16.017" cy="88.016" r="14.151"/>
		<text transform="matrix(1 0 0 1 12.917 92.2349)" fill="#FFFFFF" font-family="'SourceSansPro-Regular'" font-size="14">2</text>
	</g>
</g>
</svg>
