<svg version="1.1" id="Layer_1" xmlns="http://www.w3.org/2000/svg" xmlns:xlink="http://www.w3.org/1999/xlink" x="0px" y="0px"
     width="95.5px" height="102.167px" viewBox="0 0 95.5 102.167" enable-background="new 0 0 95.5 102.167" xml:space="preserve">
  <g>
    <g>
      <g>
	<g>
	  <g>
	    <defs>
	      <circle id="SVGID_1_" cx="47.852" cy="48.139" r="45.986"/>
	    </defs>
	    <clipPath id="SVGID_2_">
	      <use xlink:href="#SVGID_1_"  overflow="visible"/>
	    </clipPath>
	    <g clip-path="url(#SVGID_2_)">
	      <polygon fill="#49494A" points="245.844,147.396 -24.516,147.396 -4.5,-5.964 245.844,-5.964 						"/>
	      <g>
		<path fill="#FFFFFF" d="M15.926,52.707v-0.562c-0.16,0-0.325-0.01-0.5-0.025c-0.172-0.017-0.333-0.043-0.485-0.076
					c-0.149-0.035-0.324-0.097-0.521-0.186v-0.689c0.159,0.082,0.314,0.151,0.466,0.209c0.151,0.059,0.312,0.104,0.482,0.137
					c0.17,0.033,0.354,0.058,0.558,0.069v-1.996l-0.385-0.209c-0.729-0.389-1.093-0.86-1.093-1.412
					c0-0.295,0.122-0.58,0.363-0.859c0.241-0.279,0.613-0.439,1.114-0.482v-0.595h0.502v0.595c0.283,0,0.617,0.05,1.003,0.146
					v0.621l-0.125-0.036c-0.361-0.101-0.653-0.161-0.878-0.183v1.951l0.404,0.23c0.377,0.217,0.638,0.43,0.777,0.642
					c0.142,0.21,0.21,0.433,0.21,0.67c0,0.213-0.052,0.419-0.161,0.618c-0.104,0.201-0.259,0.371-0.455,0.515
					c-0.202,0.146-0.459,0.242-0.775,0.299v0.609h-0.501V52.707z M15.926,48.823v-1.658c-0.242,0.056-0.427,0.146-0.558,0.273
					c-0.13,0.127-0.196,0.273-0.196,0.444c0,0.16,0.058,0.313,0.168,0.462C15.451,48.491,15.646,48.651,15.926,48.823z
					M16.428,49.883v1.65c0.261-0.094,0.438-0.207,0.529-0.342c0.093-0.136,0.138-0.287,0.138-0.454
					c0-0.163-0.045-0.302-0.136-0.419C16.867,50.203,16.691,50.058,16.428,49.883z"/>
		<path fill="#FFFFFF" d="M25.894,51.25c-0.203,0.333-0.45,0.587-0.734,0.757c-0.287,0.168-0.549,0.252-0.788,0.252
					c-0.337,0-0.638-0.143-0.905-0.432c-0.265-0.291-0.399-0.729-0.399-1.317c0-0.464,0.09-0.878,0.266-1.241
					c0.179-0.365,0.413-0.653,0.711-0.867c0.297-0.21,0.666-0.316,1.104-0.316c0.126,0,0.318,0.014,0.572,0.041
					c0.04,0.004,0.096,0.01,0.172,0.018h0.669v2.832c0,0.674-0.009,1.087-0.026,1.234c-0.017,0.15-0.045,0.303-0.085,0.455
					c-0.094,0.354-0.313,0.638-0.656,0.844c-0.339,0.205-0.752,0.308-1.235,0.308c-0.486,0-0.977-0.124-1.477-0.372V52.77
					c0.19,0.129,0.423,0.244,0.698,0.345c0.278,0.1,0.546,0.147,0.804,0.147c0.204,0,0.396-0.033,0.579-0.099
					c0.18-0.062,0.327-0.156,0.44-0.277c0.111-0.122,0.188-0.264,0.23-0.426c0.039-0.162,0.062-0.377,0.062-0.645V51.25H25.894z
					M25.894,50.458v-1.723c-0.237-0.061-0.459-0.091-0.663-0.091c-0.409,0-0.754,0.159-1.028,0.478
					c-0.273,0.317-0.412,0.75-0.412,1.299c0,0.397,0.077,0.697,0.225,0.899c0.15,0.201,0.321,0.305,0.514,0.305
					c0.208,0,0.439-0.105,0.689-0.316C25.469,51.096,25.695,50.813,25.894,50.458z"/>
		<path fill="#FFFFFF" d="M28.743,52.15v-3.449h-1.111v-0.555h1.778v3.449h1.116v0.556L28.743,52.15L28.743,52.15z
					M28.636,46.697c0-0.149,0.051-0.262,0.155-0.335c0.102-0.073,0.198-0.111,0.289-0.111c0.092,0,0.19,0.038,0.293,0.111
					c0.101,0.073,0.153,0.186,0.153,0.335c0,0.146-0.053,0.259-0.153,0.333c-0.103,0.072-0.201,0.109-0.293,0.109
					c-0.091,0-0.188-0.037-0.289-0.109C28.687,46.956,28.636,46.845,28.636,46.697z"/>
		<path fill="#FFFFFF" d="M35.378,51.99c-0.311,0.133-0.539,0.209-0.68,0.233c-0.142,0.024-0.278,0.036-0.409,0.036
					c-0.281,0-0.536-0.053-0.769-0.159s-0.406-0.269-0.523-0.478c-0.119-0.21-0.181-0.535-0.181-0.975v-1.615h-1v-0.556h1v-1.613
					h0.669v1.613h1.782v0.556h-1.782v1.603c0,0.323,0.038,0.551,0.115,0.684c0.076,0.132,0.179,0.23,0.306,0.293
					c0.129,0.062,0.279,0.094,0.454,0.094c0.322,0,0.662-0.103,1.018-0.306V51.99z"/>
		<path fill="#FFFFFF" d="M41.459,49.045c0.209-0.336,0.453-0.587,0.736-0.757c0.285-0.17,0.547-0.254,0.785-0.254
					c0.336,0,0.639,0.145,0.904,0.434c0.268,0.29,0.402,0.728,0.402,1.314c0,0.465-0.088,0.88-0.268,1.244
					c-0.176,0.364-0.414,0.653-0.713,0.864c-0.295,0.212-0.664,0.316-1.102,0.316c-0.123,0-0.312-0.013-0.572-0.037
					c-0.039-0.006-0.096-0.014-0.174-0.021v1.558h-0.664v-5.562h0.664v0.9H41.459z M41.459,49.839v1.72
					c0.242,0.062,0.465,0.092,0.668,0.092c0.404,0,0.746-0.158,1.021-0.475c0.275-0.317,0.414-0.751,0.414-1.303
					c0-0.398-0.076-0.699-0.225-0.9c-0.15-0.201-0.324-0.302-0.514-0.302c-0.207,0-0.438,0.105-0.688,0.315
					C41.889,49.198,41.663,49.483,41.459,49.839z"/>
		<path fill="#FFFFFF" d="M48.547,48.146v4.004h-0.666v-0.879c-0.217,0.331-0.455,0.577-0.717,0.743
					c-0.264,0.165-0.527,0.245-0.789,0.245c-0.234,0-0.449-0.061-0.643-0.188c-0.197-0.125-0.332-0.291-0.41-0.495
					c-0.076-0.203-0.115-0.601-0.115-1.196v-2.236h0.67v2.32c0,0.385,0.018,0.639,0.055,0.762
					c0.037,0.123,0.105,0.224,0.205,0.303c0.1,0.078,0.205,0.119,0.32,0.119c0.232,0,0.486-0.111,0.754-0.332
					c0.271-0.223,0.492-0.5,0.67-0.838v-2.333H48.547z"/>
		<path fill="#FFFFFF" d="M49.708,51.938v-0.705c0.267,0.174,0.549,0.297,0.849,0.365c0.299,0.071,0.555,0.106,0.762,0.106
					c0.338,0,0.58-0.055,0.729-0.162c0.146-0.109,0.223-0.244,0.223-0.408c0-0.107-0.035-0.199-0.104-0.275
					c-0.067-0.076-0.242-0.172-0.517-0.283l-0.229-0.094l-0.463-0.184c-0.496-0.193-0.812-0.372-0.938-0.538
					c-0.133-0.162-0.199-0.36-0.199-0.595c0-0.33,0.132-0.601,0.384-0.814c0.254-0.213,0.67-0.318,1.241-0.318
					c0.429,0,0.832,0.062,1.218,0.186v0.605c-0.44-0.157-0.854-0.235-1.242-0.235c-0.285,0-0.506,0.05-0.662,0.149
					c-0.159,0.098-0.239,0.221-0.239,0.37c0,0.144,0.067,0.258,0.209,0.345c0.135,0.086,0.354,0.184,0.666,0.297l0.45,0.166
					c0.416,0.15,0.707,0.314,0.871,0.49c0.168,0.177,0.252,0.399,0.252,0.664c0,0.346-0.133,0.632-0.399,0.854
					c-0.267,0.225-0.693,0.334-1.277,0.334C50.771,52.259,50.247,52.156,49.708,51.938z"/>
		<path fill="#FFFFFF" d="M54.068,52.15v-5.788h0.666v2.656c0.189-0.307,0.423-0.548,0.691-0.722
					c0.27-0.175,0.543-0.262,0.812-0.262c0.227,0,0.434,0.057,0.619,0.174c0.19,0.116,0.319,0.257,0.395,0.422
					c0.059,0.126,0.102,0.259,0.121,0.403c0.021,0.142,0.033,0.435,0.033,0.88v2.237h-0.668v-2.32
					c0-0.386-0.018-0.638-0.055-0.763c-0.039-0.123-0.105-0.223-0.203-0.302c-0.101-0.079-0.209-0.119-0.326-0.119
					c-0.234,0-0.486,0.112-0.754,0.334c-0.271,0.221-0.492,0.5-0.666,0.835v2.334L54.068,52.15L54.068,52.15z"/>
		<path fill="#FFFFFF" d="M64.532,52.259c-0.574,0-1.031-0.197-1.378-0.6c-0.344-0.4-0.516-0.905-0.516-1.516
					c0-0.609,0.172-1.113,0.516-1.512c0.347-0.399,0.804-0.599,1.378-0.599c0.569,0,1.026,0.199,1.372,0.599
					c0.343,0.399,0.515,0.903,0.515,1.512c0,0.61-0.172,1.115-0.515,1.516C65.559,52.062,65.102,52.259,64.532,52.259z
					M64.532,51.707c0.354,0,0.637-0.14,0.848-0.417c0.209-0.277,0.313-0.659,0.313-1.145c0-0.482-0.104-0.863-0.313-1.141
					c-0.211-0.277-0.491-0.415-0.848-0.415c-0.357,0-0.644,0.137-0.853,0.415c-0.213,0.277-0.316,0.658-0.316,1.141
					c0,0.485,0.104,0.867,0.316,1.145C63.889,51.567,64.174,51.707,64.532,51.707z"/>
		<path fill="#FFFFFF" d="M67.631,52.15v-4.004h0.666v0.873c0.211-0.329,0.447-0.575,0.717-0.738
					c0.271-0.165,0.568-0.246,0.898-0.246c0.24,0,0.484,0.037,0.725,0.111v1.445h-0.643v-0.914
					c-0.113-0.019-0.201-0.03-0.266-0.03c-0.248,0-0.492,0.098-0.732,0.293c-0.238,0.197-0.471,0.491-0.699,0.883v2.327H67.631z"
		      />
		<path fill="#FFFFFF" d="M72.823,52.15v-3.449H71.71v-0.555h1.778v3.449h1.115v0.556L72.823,52.15L72.823,52.15z
					M72.713,46.697c0-0.149,0.053-0.262,0.152-0.335c0.105-0.073,0.201-0.111,0.291-0.111c0.094,0,0.191,0.038,0.291,0.111
					c0.104,0.073,0.156,0.186,0.156,0.335c0,0.146-0.054,0.259-0.156,0.333c-0.1,0.072-0.197,0.109-0.291,0.109
					c-0.09,0-0.186-0.037-0.291-0.109C72.766,46.956,72.713,46.845,72.713,46.697z"/>
		<path fill="#FFFFFF" d="M78.786,51.25c-0.203,0.333-0.447,0.587-0.734,0.757c-0.286,0.168-0.551,0.252-0.788,0.252
					c-0.334,0-0.638-0.143-0.902-0.432c-0.269-0.291-0.4-0.729-0.4-1.317c0-0.464,0.088-0.878,0.266-1.241
					c0.176-0.365,0.414-0.653,0.711-0.867c0.297-0.21,0.664-0.316,1.103-0.316c0.127,0,0.317,0.014,0.573,0.041
					c0.037,0.004,0.097,0.01,0.171,0.018h0.67v2.832c0,0.674-0.009,1.087-0.024,1.234c-0.019,0.15-0.046,0.303-0.087,0.455
					c-0.096,0.354-0.313,0.638-0.651,0.844c-0.344,0.205-0.756,0.308-1.238,0.308c-0.488,0-0.979-0.124-1.475-0.372V52.77
					c0.188,0.129,0.42,0.244,0.698,0.345c0.275,0.1,0.544,0.147,0.802,0.147c0.203,0,0.395-0.033,0.576-0.099
					c0.184-0.062,0.329-0.156,0.442-0.277c0.112-0.122,0.188-0.264,0.229-0.426c0.043-0.162,0.062-0.377,0.062-0.645V51.25
					H78.786z M78.786,50.458v-1.723c-0.238-0.061-0.457-0.091-0.66-0.091c-0.412,0-0.756,0.159-1.03,0.478
					c-0.275,0.317-0.41,0.75-0.41,1.299c0,0.397,0.071,0.697,0.225,0.899c0.148,0.201,0.32,0.305,0.51,0.305
					c0.209,0,0.439-0.105,0.691-0.316S78.586,50.813,78.786,50.458z"/>
		<path fill="#FFFFFF" d="M81.637,52.15v-3.449h-1.113v-0.555h1.779v3.449h1.115v0.556L81.637,52.15L81.637,52.15z
					M81.529,46.697c0-0.149,0.052-0.262,0.154-0.335c0.101-0.073,0.199-0.111,0.287-0.111c0.094,0,0.191,0.038,0.293,0.111
					c0.104,0.073,0.152,0.186,0.152,0.335c0,0.146-0.049,0.259-0.152,0.333c-0.102,0.072-0.199,0.109-0.293,0.109
					c-0.088,0-0.188-0.037-0.287-0.109C81.581,46.956,81.529,46.845,81.529,46.697z"/>
		<path fill="#FFFFFF" d="M84.922,52.15v-4.004h0.666v0.873c0.191-0.307,0.422-0.548,0.691-0.722
					c0.27-0.175,0.543-0.262,0.812-0.262c0.236,0,0.451,0.062,0.646,0.188c0.193,0.126,0.332,0.289,0.408,0.493
					c0.076,0.203,0.114,0.603,0.114,1.198v2.237h-0.668v-2.32c0-0.386-0.018-0.638-0.055-0.763
					c-0.037-0.123-0.104-0.223-0.203-0.302c-0.101-0.079-0.207-0.119-0.326-0.119c-0.233,0-0.483,0.112-0.754,0.334
					c-0.271,0.221-0.492,0.5-0.666,0.835v2.334H84.922z"/>
		<path fill="#FFFFFF" d="M93.436,52.15v-4.004h0.586v0.917c0.183-0.39,0.355-0.659,0.513-0.806
					c0.159-0.148,0.319-0.222,0.483-0.222c0.193,0,0.349,0.076,0.467,0.227c0.119,0.152,0.179,0.369,0.179,0.647v0.216
					c0.08-0.244,0.174-0.441,0.285-0.593c0.11-0.15,0.227-0.273,0.346-0.362c0.121-0.091,0.261-0.134,0.414-0.134
					c0.172,0,0.315,0.072,0.44,0.218c0.121,0.146,0.183,0.437,0.183,0.872v3.026h-0.584v-2.736c0-0.225-0.008-0.378-0.022-0.46
					c-0.013-0.082-0.041-0.146-0.086-0.188c-0.041-0.042-0.089-0.064-0.14-0.064c-0.125,0-0.258,0.096-0.399,0.284
					c-0.142,0.191-0.287,0.505-0.437,0.945v2.22h-0.556v-2.732c0-0.354-0.034-0.562-0.104-0.624
					c-0.07-0.062-0.133-0.093-0.189-0.093c-0.121,0-0.254,0.106-0.393,0.317c-0.143,0.215-0.273,0.486-0.4,0.82v2.312h-0.586
					V52.15z"/>
	      </g>
	    </g>
	  </g>
	</g>
      </g>
      <g>
	<circle fill="none" stroke="#E7E8E6" stroke-width="2.6961" stroke-miterlimit="10" cx="47.852" cy="48.044" r="45.986"/>
      </g>
    </g>
    <g class="getting-started-hidden">
      <circle fill="#34A665" cx="16.017" cy="88.016" r="14.149"/>
      <g enable-background="new    ">
	<path fill="#FFFFFF" d="M13.87,90.387c0.532,0.56,1.232,1.064,2.283,1.064c1.079,0,1.849-0.645,1.849-1.639
				c0-1.065-0.729-1.779-2.858-1.779v-0.883c1.905,0,2.536-0.729,2.536-1.667c0-0.868-0.588-1.414-1.541-1.414
				c-0.742,0-1.373,0.378-1.905,0.91l-0.617-0.729c0.687-0.645,1.513-1.12,2.563-1.12c1.555,0,2.676,0.826,2.676,2.269
				c0,1.079-0.659,1.766-1.625,2.129v0.057c1.079,0.252,1.933,1.036,1.933,2.27c0,1.582-1.303,2.549-2.942,2.549
				c-1.429,0-2.339-0.603-2.941-1.261L13.87,90.387z"/>
      </g>
    </g>
  </g>
</svg>
