<svg version="1.1" id="Layer_1" xmlns="http://www.w3.org/2000/svg" xmlns:xlink="http://www.w3.org/1999/xlink" x="0px" y="0px"
     width="95.5px" height="102.167px" viewBox="0 0 95.5 102.167" enable-background="new 0 0 95.5 102.167" xml:space="preserve">
  <g>
    <g>
      <g>
	<defs>
	  <circle id="SVGID_1_" cx="47.852" cy="47.758" r="45.986"/>
	</defs>
	<clipPath id="SVGID_2_">
	  <use xlink:href="#SVGID_1_"  overflow="visible"/>
	</clipPath>
	<g clip-path="url(#SVGID_2_)">
	  <rect x="-31.067" y="-10.422" fill="#4D4C4D" width="139.824" height="115.677"/>
	</g>
      </g>
    </g>
  </g>
  <g>
    <g>
      <g>
	<g>
	  <g>
	    <defs>
	      <circle id="SVGID_3_" cx="47.852" cy="48.043" r="45.986"/>
	    </defs>
	    <clipPath id="SVGID_4_">
	      <use xlink:href="#SVGID_3_"  overflow="visible"/>
	    </clipPath>
	    <g clip-path="url(#SVGID_4_)">
	      <polygon fill="#FFFFFF" points="26.296,24.688 27.556,24.688 27.556,24.322 26.733,24.322 26.733,20.89 25.511,20.89
					      25.511,21.254 26.296,21.254 						"/>
	      <path fill="#FFFFFF" d="M29.212,24.762c0.157,0,0.33-0.057,0.517-0.168c0.188-0.109,0.348-0.276,0.481-0.494
				      c0.021,0.248,0.049,0.445,0.084,0.588h0.457c-0.067-0.197-0.102-0.455-0.102-0.772V22.06H30.21
				      c-0.049-0.004-0.088-0.008-0.113-0.012c-0.166-0.017-0.292-0.025-0.375-0.025c-0.287,0-0.529,0.07-0.724,0.209
				      s-0.351,0.326-0.467,0.566c-0.116,0.238-0.174,0.511-0.174,0.815c0,0.386,0.088,0.674,0.263,0.864
				      C28.795,24.666,28.992,24.762,29.212,24.762z M29.103,22.699c0.18-0.209,0.405-0.312,0.676-0.312
				      c0.133,0,0.277,0.02,0.434,0.061v1.129c-0.131,0.233-0.278,0.42-0.443,0.559c-0.165,0.139-0.316,0.207-0.453,0.207
				      c-0.125,0-0.237-0.066-0.335-0.199c-0.099-0.133-0.147-0.329-0.147-0.59C28.833,23.193,28.923,22.908,29.103,22.699z"/>
	      <path fill="#FFFFFF" d="M31.812,23.156c0.115-0.221,0.261-0.403,0.438-0.549c0.176-0.146,0.342-0.219,0.495-0.219
				      c0.077,0,0.147,0.025,0.212,0.077c0.065,0.052,0.111,0.118,0.135,0.2c0.024,0.08,0.037,0.246,0.037,0.5v1.521h0.438v-1.469
				      c0-0.391-0.025-0.652-0.076-0.785c-0.051-0.133-0.141-0.241-0.268-0.324c-0.127-0.082-0.269-0.123-0.424-0.123
				      c-0.178,0-0.354,0.057-0.531,0.172c-0.178,0.113-0.329,0.273-0.455,0.476v-0.575h-0.438v2.629h0.438L31.812,23.156
				      L31.812,23.156z"/>
	      <path fill="#FFFFFF" d="M35.984,24.891c-0.026,0.106-0.077,0.199-0.151,0.279c-0.073,0.08-0.17,0.142-0.289,0.184
				      c-0.119,0.043-0.246,0.064-0.38,0.064c-0.169,0-0.345-0.033-0.526-0.1c-0.182-0.064-0.334-0.139-0.458-0.224v0.442
				      c0.327,0.162,0.649,0.244,0.968,0.244s0.588-0.066,0.812-0.201c0.224-0.135,0.368-0.32,0.43-0.554
				      c0.026-0.101,0.045-0.2,0.057-0.298c0.011-0.098,0.017-0.367,0.017-0.811v-1.859h-0.439c-0.049-0.004-0.088-0.008-0.112-0.012
				      c-0.167-0.017-0.293-0.025-0.376-0.025c-0.287,0-0.529,0.07-0.724,0.209s-0.351,0.326-0.467,0.566
				      c-0.116,0.238-0.174,0.511-0.174,0.815c0,0.386,0.088,0.674,0.263,0.864c0.176,0.189,0.373,0.285,0.593,0.285
				      c0.157,0,0.329-0.057,0.517-0.168c0.188-0.111,0.35-0.276,0.482-0.497v0.372C36.024,24.645,36.011,24.785,35.984,24.891z
				      M35.581,24.135c-0.165,0.139-0.316,0.207-0.453,0.207c-0.125,0-0.237-0.066-0.335-0.199c-0.099-0.133-0.147-0.329-0.147-0.59
				      c0-0.359,0.09-0.645,0.27-0.854s0.405-0.312,0.676-0.312c0.134,0,0.277,0.02,0.434,0.061v1.129
				      C35.894,23.81,35.747,23.996,35.581,24.135z"/>
	      <path fill="#FFFFFF" d="M37.473,24.637c0.128,0.084,0.269,0.125,0.423,0.125c0.172,0,0.344-0.055,0.518-0.164
				      c0.172-0.107,0.33-0.27,0.47-0.486v0.576h0.438v-2.629h-0.438v1.533c-0.115,0.221-0.262,0.404-0.439,0.549
				      c-0.176,0.145-0.342,0.218-0.495,0.218c-0.075,0-0.146-0.025-0.211-0.078c-0.065-0.052-0.109-0.118-0.134-0.198
				      c-0.024-0.081-0.036-0.248-0.036-0.5V22.06H37.13v1.469c0,0.389,0.025,0.65,0.076,0.785
				      C37.256,24.447,37.345,24.555,37.473,24.637z"/>
	      <path fill="#FFFFFF" d="M40.78,24.762c0.158,0,0.33-0.057,0.518-0.168c0.188-0.109,0.348-0.276,0.48-0.494
				      c0.021,0.248,0.049,0.445,0.084,0.588h0.457c-0.066-0.197-0.102-0.455-0.102-0.772V22.06h-0.439
				      c-0.049-0.004-0.086-0.008-0.111-0.012c-0.168-0.017-0.293-0.025-0.377-0.025c-0.287,0-0.527,0.07-0.723,0.209
				      c-0.196,0.139-0.352,0.326-0.467,0.566c-0.117,0.238-0.174,0.511-0.174,0.815c0,0.386,0.088,0.674,0.262,0.864
				      C40.364,24.666,40.561,24.762,40.78,24.762z M40.67,22.699c0.18-0.209,0.406-0.312,0.676-0.312
				      c0.135,0,0.277,0.02,0.434,0.061v1.129c-0.131,0.233-0.277,0.42-0.443,0.559c-0.164,0.139-0.314,0.207-0.453,0.207
				      c-0.125,0-0.236-0.066-0.334-0.199c-0.1-0.133-0.148-0.329-0.148-0.59C40.401,23.193,40.491,22.908,40.67,22.699z"/>
	      <path fill="#FFFFFF" d="M43.702,24.762c0.156,0,0.33-0.057,0.518-0.168c0.188-0.111,0.348-0.276,0.48-0.497v0.372
				      c0,0.176-0.012,0.316-0.039,0.422c-0.027,0.106-0.076,0.199-0.152,0.279c-0.072,0.08-0.17,0.142-0.289,0.184
				      c-0.119,0.043-0.244,0.064-0.379,0.064c-0.17,0-0.346-0.033-0.527-0.1c-0.18-0.064-0.334-0.139-0.457-0.224v0.442
				      c0.326,0.162,0.648,0.244,0.969,0.244c0.316,0,0.588-0.066,0.811-0.201c0.225-0.135,0.367-0.32,0.43-0.554
				      c0.027-0.101,0.045-0.2,0.057-0.298s0.018-0.367,0.018-0.811v-1.859H44.7c-0.051-0.004-0.088-0.008-0.113-0.012
				      c-0.168-0.017-0.293-0.025-0.375-0.025c-0.289,0-0.529,0.07-0.725,0.209c-0.196,0.139-0.35,0.326-0.467,0.566
				      c-0.115,0.238-0.174,0.511-0.174,0.815c0,0.386,0.088,0.674,0.264,0.864C43.284,24.666,43.481,24.762,43.702,24.762z
				      M43.592,22.699c0.18-0.209,0.404-0.312,0.674-0.312c0.135,0,0.279,0.02,0.434,0.061v1.129
				      c-0.129,0.233-0.277,0.42-0.441,0.559c-0.166,0.139-0.316,0.207-0.453,0.207c-0.127,0-0.238-0.066-0.336-0.199
				      c-0.098-0.133-0.148-0.329-0.148-0.59C43.321,23.193,43.411,22.908,43.592,22.699z"/>
	      <path fill="#FFFFFF" d="M46.393,24.584c0.186,0.117,0.398,0.178,0.635,0.178c0.312,0,0.643-0.084,0.992-0.249v-0.4
				      c-0.34,0.189-0.652,0.284-0.936,0.284c-0.158,0-0.299-0.038-0.424-0.113c-0.125-0.076-0.225-0.189-0.299-0.34
				      c-0.076-0.15-0.115-0.318-0.115-0.5h1.812v-0.095c0-0.464-0.094-0.806-0.283-1.029c-0.189-0.222-0.439-0.333-0.752-0.333
				      c-0.236,0-0.449,0.061-0.641,0.184c-0.192,0.123-0.34,0.296-0.447,0.517c-0.107,0.222-0.16,0.452-0.16,0.691
				      c0,0.249,0.057,0.483,0.168,0.702C46.057,24.299,46.206,24.466,46.393,24.584z M46.545,22.544
				      c0.129-0.129,0.281-0.192,0.459-0.192c0.176,0,0.316,0.062,0.422,0.189c0.106,0.127,0.158,0.297,0.158,0.512v0.062h-1.312
				      C46.325,22.863,46.415,22.674,46.545,22.544z"/>
	      <path fill="#FFFFFF" d="M49.807,24.798c0.105,0,0.195-0.036,0.271-0.112c0.074-0.076,0.113-0.166,0.113-0.271
				      s-0.039-0.196-0.115-0.271c-0.076-0.074-0.166-0.111-0.27-0.111c-0.104,0-0.193,0.037-0.271,0.111
				      c-0.076,0.075-0.115,0.166-0.115,0.271s0.039,0.195,0.113,0.271C49.611,24.762,49.702,24.798,49.807,24.798z"/>
	      <path fill="#FFFFFF" d="M49.807,22.753c0.105,0,0.195-0.038,0.271-0.112c0.074-0.075,0.113-0.166,0.113-0.271
				      s-0.039-0.197-0.115-0.271c-0.076-0.075-0.166-0.112-0.27-0.112c-0.104,0-0.193,0.037-0.271,0.112
				      c-0.076,0.073-0.115,0.165-0.115,0.271s0.039,0.196,0.113,0.271C49.611,22.715,49.702,22.753,49.807,22.753z"/>
	      <path fill="#FFFFFF" d="M55.172,23.16c0.148-0.257,0.303-0.45,0.459-0.578c0.158-0.129,0.316-0.193,0.48-0.193
				      c0.041,0,0.102,0.006,0.174,0.019v0.601h0.422V22.06c-0.158-0.049-0.318-0.072-0.477-0.072c-0.217,0-0.412,0.053-0.588,0.161
				      c-0.179,0.106-0.334,0.27-0.472,0.486V22.06h-0.438v2.629h0.438L55.172,23.16L55.172,23.16z"/>
	      <path fill="#FFFFFF" d="M57.717,24.637c0.129,0.084,0.27,0.125,0.422,0.125c0.174,0,0.346-0.055,0.519-0.164
				      c0.174-0.107,0.329-0.27,0.473-0.486v0.576h0.438v-2.629H59.13v1.533c-0.116,0.221-0.264,0.404-0.438,0.549
				      c-0.176,0.145-0.342,0.218-0.496,0.218c-0.074,0-0.146-0.025-0.211-0.078c-0.064-0.052-0.109-0.118-0.133-0.198
				      c-0.025-0.081-0.037-0.248-0.037-0.5V22.06h-0.438v1.469c0,0.389,0.024,0.65,0.076,0.785
				      C57.5,24.447,57.59,24.555,57.717,24.637z"/>
	      <path fill="#FFFFFF" d="M60.814,24.699c0.168,0.018,0.293,0.025,0.375,0.025c0.287,0,0.527-0.068,0.724-0.207
				      c0.192-0.139,0.351-0.328,0.467-0.567c0.117-0.239,0.177-0.511,0.177-0.815c0-0.387-0.089-0.674-0.265-0.863
				      c-0.176-0.191-0.373-0.285-0.592-0.285c-0.158,0-0.33,0.056-0.517,0.166c-0.188,0.113-0.348,0.277-0.483,0.498V20.89h-0.438
				      v3.798H60.7C60.75,24.693,60.79,24.696,60.814,24.699z M60.7,23.171c0.133-0.234,0.28-0.421,0.444-0.56
				      c0.164-0.137,0.312-0.207,0.449-0.207c0.127,0,0.238,0.066,0.338,0.198c0.098,0.132,0.148,0.329,0.148,0.593
				      c0,0.36-0.092,0.646-0.273,0.854c-0.18,0.207-0.404,0.312-0.668,0.312c-0.133,0-0.281-0.021-0.438-0.062V23.171L60.7,23.171z"
		    />
	      <path fill="#FFFFFF" d="M64.391,24.032l-0.967-1.974h-0.482l1.216,2.525l-0.041,0.1c-0.037,0.102-0.104,0.222-0.193,0.361
				      c-0.092,0.139-0.19,0.236-0.301,0.29c-0.108,0.055-0.233,0.083-0.377,0.083c-0.108,0-0.226-0.02-0.347-0.057v0.386
				      c0.105,0.023,0.226,0.034,0.357,0.034c0.309,0,0.559-0.084,0.752-0.253c0.195-0.169,0.4-0.511,0.613-1.026l1.018-2.443H65.2
				      L64.391,24.032z"/>
	      <path fill="#FFFFFF" d="M27.785,29.834v-0.947c-0.158-0.049-0.316-0.072-0.476-0.072c-0.216,0-0.412,0.053-0.589,0.16
				      c-0.177,0.107-0.333,0.27-0.47,0.486v-0.574h-0.438v2.629h0.438v-1.527c0.149-0.258,0.303-0.45,0.459-0.579
				      c0.157-0.128,0.316-0.193,0.48-0.193c0.042,0,0.1,0.007,0.174,0.02v0.599h0.422V29.834z"/>
	      <polygon fill="#FFFFFF" points="29.579,30.969 28.677,28.887 28.196,28.887 29.339,31.516 29.784,31.516 30.935,28.887
					      30.496,28.887 						"/>
	      <path fill="#FFFFFF" d="M33.323,28.814c-0.103,0-0.192,0.029-0.271,0.088c-0.078,0.059-0.153,0.138-0.227,0.237
				      c-0.073,0.101-0.136,0.229-0.188,0.39v-0.141c0-0.184-0.039-0.326-0.116-0.426s-0.18-0.148-0.308-0.148
				      c-0.105,0-0.211,0.048-0.316,0.146c-0.104,0.097-0.217,0.273-0.338,0.528v-0.602h-0.383v2.629h0.383v-1.519
				      c0.084-0.218,0.172-0.396,0.264-0.536c0.092-0.141,0.179-0.21,0.259-0.21c0.036,0,0.077,0.021,0.122,0.062
				      c0.047,0.041,0.069,0.178,0.069,0.41v1.793h0.364v-1.457c0.098-0.289,0.192-0.495,0.287-0.62
				      c0.093-0.124,0.18-0.188,0.262-0.188c0.033,0,0.063,0.015,0.092,0.044c0.027,0.027,0.047,0.068,0.057,0.123
				      c0.009,0.053,0.014,0.154,0.014,0.302v1.796h0.384v-1.986c0-0.285-0.04-0.477-0.12-0.572
				      C33.533,28.862,33.436,28.814,33.323,28.814z"/>
	      <path fill="#FFFFFF" d="M35.616,28.926c-0.076-0.075-0.166-0.111-0.27-0.111s-0.193,0.036-0.27,0.111
				      C35,29,34.963,29.09,34.963,29.197c0,0.104,0.037,0.195,0.111,0.271c0.076,0.075,0.166,0.113,0.271,0.113
				      c0.104,0,0.195-0.038,0.271-0.113c0.076-0.075,0.113-0.165,0.113-0.271C35.73,29.09,35.692,29,35.616,28.926z"/>
	      <path fill="#FFFFFF" d="M35.347,30.859c-0.104,0-0.193,0.036-0.27,0.111c-0.076,0.074-0.113,0.164-0.113,0.271
				      c0,0.105,0.037,0.196,0.111,0.271c0.076,0.075,0.166,0.113,0.271,0.113c0.104,0,0.195-0.038,0.271-0.113
				      c0.075-0.074,0.113-0.165,0.113-0.271c0-0.107-0.038-0.197-0.114-0.271C35.54,30.896,35.45,30.859,35.347,30.859z"/>
	      <rect x="31.544" y="36.681" fill="#FFFFFF" width="1.826" height="0.365"/>
	      <polygon fill="#FFFFFF" points="39.045,34.545 38.472,34.545 38.605,35.86 38.905,35.86 						"/>
	      <polygon fill="#FFFFFF" points="38.024,34.545 37.437,34.545 37.587,35.86 37.891,35.86 						"/>
	      <path fill="#FFFFFF" d="M42.338,37.979h-0.879V34.69h-0.438c-0.252,0.232-0.551,0.421-0.895,0.567v0.396
				      c0.217-0.077,0.387-0.152,0.512-0.226c0.123-0.073,0.252-0.162,0.383-0.269v2.818h-0.895v0.365h2.211L42.338,37.979
				      L42.338,37.979z"/>
	      <path fill="#FFFFFF" d="M44.293,38.341c0.076-0.075,0.113-0.166,0.113-0.271c0-0.106-0.039-0.196-0.115-0.271
				      c-0.074-0.075-0.166-0.113-0.268-0.113c-0.104,0-0.193,0.038-0.271,0.113c-0.074,0.074-0.113,0.164-0.113,0.271
				      c0,0.105,0.037,0.196,0.113,0.271c0.074,0.075,0.166,0.113,0.271,0.113C44.127,38.454,44.217,38.416,44.293,38.341z"/>
	      <path fill="#FFFFFF" d="M45.784,37.508c0,0.268,0.096,0.492,0.287,0.674c0.191,0.182,0.479,0.272,0.863,0.272
				      c0.383,0,0.67-0.098,0.861-0.292c0.191-0.193,0.287-0.422,0.287-0.686c0-0.169-0.041-0.322-0.121-0.459
				      c-0.08-0.137-0.236-0.299-0.467-0.486l-0.197-0.158c0.211-0.172,0.354-0.307,0.426-0.401c0.07-0.095,0.125-0.19,0.162-0.286
				      c0.035-0.098,0.053-0.197,0.053-0.301c0-0.15-0.039-0.289-0.117-0.417c-0.078-0.126-0.189-0.223-0.334-0.288
				      c-0.145-0.064-0.307-0.097-0.486-0.097c-0.295,0-0.539,0.085-0.73,0.257c-0.191,0.172-0.287,0.379-0.287,0.623
				      c0,0.184,0.053,0.352,0.16,0.504c0.107,0.153,0.217,0.27,0.328,0.348l0.08,0.059C46.04,36.729,45.784,37.107,45.784,37.508z
				      M46.52,35.743c-0.078-0.098-0.115-0.201-0.115-0.312c0-0.112,0.047-0.222,0.139-0.326c0.09-0.105,0.225-0.158,0.4-0.158
				      c0.164,0,0.297,0.048,0.4,0.145c0.105,0.096,0.156,0.203,0.156,0.321c0,0.098-0.027,0.202-0.084,0.314
				      c-0.057,0.114-0.195,0.255-0.418,0.422l-0.109-0.08C46.719,35.949,46.596,35.84,46.52,35.743z M46.881,36.606l0.141,0.11
				      c0.062,0.051,0.178,0.157,0.34,0.32c0.164,0.162,0.244,0.323,0.244,0.482c0,0.161-0.066,0.297-0.201,0.404
				      c-0.135,0.109-0.287,0.162-0.459,0.162c-0.186,0-0.348-0.056-0.482-0.169c-0.137-0.112-0.205-0.252-0.205-0.416
				      C46.258,37.223,46.465,36.925,46.881,36.606z"/>
	      <path fill="#FFFFFF" d="M49.807,38.454c0.105,0,0.195-0.038,0.271-0.113c0.074-0.075,0.113-0.166,0.113-0.271
				      c0-0.106-0.039-0.196-0.115-0.271c-0.076-0.075-0.166-0.113-0.27-0.113c-0.104,0-0.193,0.038-0.271,0.113
				      c-0.076,0.074-0.115,0.164-0.115,0.271c0,0.105,0.039,0.196,0.113,0.271C49.611,38.416,49.702,38.454,49.807,38.454z"/>
	      <path fill="#FFFFFF" d="M51.641,35.131h1.896c-0.076,0.184-0.166,0.344-0.271,0.484l-0.137,0.176l-0.381,0.505
				      c-0.088,0.116-0.205,0.28-0.35,0.494c-0.146,0.214-0.248,0.407-0.308,0.581c-0.059,0.174-0.086,0.389-0.086,0.645v0.328h0.476
				      v-0.328c0-0.232,0.02-0.42,0.059-0.562c0.037-0.143,0.094-0.28,0.168-0.412c0.076-0.132,0.191-0.309,0.35-0.529l0.246-0.342
				      c0.055-0.078,0.109-0.155,0.166-0.232c0.232-0.322,0.373-0.534,0.42-0.633c0.047-0.1,0.07-0.206,0.07-0.322V34.69h-2.318
				      V35.131z"/>
	      <polygon fill="#FFFFFF" points="55.825,34.545 55.959,35.86 56.258,35.86 56.398,34.545 						"/>
	      <polygon fill="#FFFFFF" points="54.79,34.545 54.939,35.86 55.245,35.86 55.377,34.545 						"/>
	      <rect x="31.544" y="43.51" fill="#FFFFFF" width="1.826" height="0.364"/>
	      <polygon fill="#FFFFFF" points="38.605,42.688 38.905,42.688 39.045,41.372 38.472,41.372 						"/>
	      <polygon fill="#FFFFFF" points="37.587,42.688 37.891,42.688 38.024,41.372 37.437,41.372 						"/>
	      <path fill="#FFFFFF" d="M42.338,44.807h-0.879v-3.288h-0.438c-0.252,0.231-0.551,0.421-0.895,0.567v0.395
				      c0.217-0.076,0.387-0.15,0.512-0.225c0.123-0.073,0.252-0.162,0.383-0.267v2.817h-0.895v0.363h2.211L42.338,44.807
				      L42.338,44.807z"/>
	      <path fill="#FFFFFF" d="M43.752,45.168c0.074,0.075,0.166,0.113,0.271,0.113c0.104,0,0.193-0.038,0.27-0.113
				      c0.076-0.074,0.113-0.165,0.113-0.27c0-0.107-0.039-0.198-0.115-0.273c-0.074-0.074-0.166-0.111-0.268-0.111
				      c-0.104,0-0.193,0.037-0.271,0.111c-0.074,0.075-0.113,0.166-0.113,0.273C43.639,45.003,43.676,45.094,43.752,45.168z"/>
	      <path fill="#FFFFFF" d="M46.161,43.664c0.17,0.091,0.35,0.137,0.541,0.137c0.201,0,0.383-0.053,0.551-0.158
				      s0.307-0.244,0.42-0.411v0.095c0,0.459-0.088,0.838-0.268,1.139c-0.18,0.299-0.432,0.449-0.758,0.449
				      c-0.23,0-0.477-0.062-0.736-0.184v0.439c0.232,0.074,0.471,0.111,0.717,0.111c0.459,0,0.822-0.177,1.09-0.531
				      c0.268-0.354,0.402-0.834,0.402-1.443c0-0.551-0.105-1.004-0.316-1.361c-0.211-0.357-0.529-0.535-0.957-0.535
				      c-0.363,0-0.654,0.128-0.875,0.385c-0.223,0.256-0.334,0.557-0.334,0.902c0,0.22,0.045,0.412,0.135,0.58
				      C45.86,43.442,45.991,43.571,46.161,43.664z M46.178,42.201c0.066-0.145,0.16-0.252,0.279-0.322
				      c0.121-0.068,0.238-0.104,0.355-0.104c0.18,0,0.338,0.074,0.477,0.227c0.141,0.151,0.209,0.346,0.209,0.585
				      c0,0.235-0.07,0.435-0.213,0.601c-0.141,0.166-0.324,0.249-0.545,0.249c-0.213,0-0.379-0.071-0.492-0.214
				      c-0.115-0.144-0.174-0.325-0.174-0.547C46.075,42.504,46.11,42.346,46.178,42.201z"/>
	      <path fill="#FFFFFF" d="M49.807,45.281c0.105,0,0.195-0.038,0.271-0.113c0.074-0.074,0.113-0.165,0.113-0.27
				      c0-0.107-0.039-0.198-0.115-0.273c-0.076-0.074-0.166-0.111-0.27-0.111c-0.104,0-0.193,0.037-0.271,0.111
				      c-0.076,0.075-0.115,0.166-0.115,0.273c0,0.104,0.039,0.195,0.113,0.27C49.611,45.243,49.702,45.281,49.807,45.281z"/>
	      <path fill="#FFFFFF" d="M53.814,44.769h-1.756c0.01-0.187,0.06-0.347,0.146-0.483c0.088-0.135,0.203-0.273,0.346-0.418
				      l0.225-0.221l0.269-0.267c0.274-0.271,0.465-0.494,0.563-0.666c0.103-0.173,0.15-0.341,0.15-0.507
				      c0-0.146-0.037-0.285-0.117-0.416c-0.076-0.131-0.195-0.227-0.354-0.288c-0.16-0.062-0.334-0.093-0.523-0.093
				      c-0.129,0-0.293,0.018-0.492,0.053c-0.196,0.035-0.396,0.1-0.594,0.195v0.387c0.186-0.084,0.322-0.141,0.404-0.168
				      s0.18-0.051,0.289-0.071c0.111-0.021,0.211-0.03,0.301-0.03c0.156,0,0.297,0.043,0.424,0.127
				      c0.125,0.086,0.188,0.208,0.188,0.363c0,0.098-0.027,0.197-0.082,0.297c-0.054,0.101-0.166,0.245-0.334,0.434
				      c-0.17,0.188-0.279,0.309-0.328,0.36l-0.25,0.254c-0.133,0.137-0.261,0.278-0.379,0.427c-0.119,0.146-0.199,0.279-0.242,0.398
				      c-0.043,0.117-0.063,0.229-0.063,0.333v0.401h2.211v-0.401H53.814z"/>
	      <polygon fill="#FFFFFF" points="54.79,41.372 54.939,42.688 55.245,42.688 55.377,41.372 						"/>
	      <polygon fill="#FFFFFF" points="55.825,41.372 55.959,42.688 56.258,42.688 56.398,41.372 						"/>
	      <rect x="31.544" y="50.337" fill="#FFFFFF" width="1.826" height="0.364"/>
	      <polygon fill="#FFFFFF" points="37.587,49.516 37.891,49.516 38.024,48.2 37.437,48.2 						"/>
	      <polygon fill="#FFFFFF" points="38.605,49.516 38.905,49.516 39.045,48.2 38.472,48.2 						"/>
	      <path fill="#FFFFFF" d="M42.338,51.632h-0.879v-3.288h-0.438c-0.252,0.232-0.551,0.422-0.895,0.567v0.396
				      c0.217-0.076,0.387-0.152,0.512-0.225c0.123-0.074,0.252-0.162,0.383-0.268v2.815h-0.895v0.365h2.211L42.338,51.632
				      L42.338,51.632z"/>
	      <path fill="#FFFFFF" d="M43.752,51.998c0.074,0.074,0.166,0.112,0.271,0.112c0.104,0,0.193-0.038,0.27-0.112
				      c0.076-0.076,0.113-0.166,0.113-0.271c0-0.107-0.039-0.198-0.115-0.272c-0.074-0.074-0.166-0.111-0.268-0.111
				      c-0.104,0-0.193,0.037-0.271,0.111c-0.074,0.074-0.113,0.165-0.113,0.272C43.639,51.832,43.676,51.919,43.752,51.998z"/>
	      <path fill="#FFFFFF" d="M46.161,50.491c0.17,0.093,0.35,0.139,0.541,0.139c0.201,0,0.383-0.053,0.551-0.159
				      s0.307-0.243,0.42-0.411v0.094c0,0.461-0.088,0.84-0.268,1.14c-0.18,0.299-0.432,0.45-0.758,0.45
				      c-0.23,0-0.477-0.062-0.736-0.184V52c0.232,0.074,0.471,0.11,0.717,0.11c0.459,0,0.822-0.178,1.09-0.531
				      c0.268-0.353,0.402-0.835,0.402-1.443c0-0.551-0.105-1.006-0.316-1.361c-0.211-0.358-0.529-0.536-0.957-0.536
				      c-0.363,0-0.654,0.127-0.875,0.384c-0.223,0.257-0.334,0.558-0.334,0.903c0,0.22,0.045,0.413,0.135,0.579
				      C45.86,50.271,45.991,50.4,46.161,50.491z M46.178,49.029c0.066-0.146,0.16-0.251,0.279-0.321
				      c0.121-0.071,0.238-0.106,0.355-0.106c0.18,0,0.338,0.077,0.477,0.227c0.141,0.152,0.209,0.348,0.209,0.586
				      c0,0.236-0.07,0.436-0.213,0.602c-0.141,0.166-0.324,0.248-0.545,0.248c-0.213,0-0.379-0.071-0.492-0.215
				      c-0.115-0.143-0.174-0.324-0.174-0.545C46.075,49.332,46.11,49.172,46.178,49.029z"/>
	      <path fill="#FFFFFF" d="M49.807,52.11c0.105,0,0.195-0.038,0.271-0.112c0.074-0.076,0.113-0.166,0.113-0.271
				      c0-0.107-0.039-0.198-0.115-0.272c-0.076-0.074-0.166-0.111-0.27-0.111c-0.104,0-0.193,0.037-0.271,0.111
				      c-0.077,0.074-0.115,0.165-0.115,0.272c0,0.104,0.039,0.193,0.113,0.271C49.611,52.072,49.702,52.11,49.807,52.11z"/>
	      <path fill="#FFFFFF" d="M53.51,50.189c-0.107-0.091-0.266-0.168-0.479-0.23c0.24-0.115,0.404-0.245,0.494-0.391
				      s0.133-0.302,0.133-0.469c0-0.224-0.084-0.425-0.252-0.599s-0.475-0.262-0.92-0.262c-0.248,0-0.521,0.055-0.818,0.166v0.417
				      c0.299-0.145,0.576-0.219,0.836-0.219c0.23,0,0.402,0.053,0.512,0.157c0.113,0.105,0.168,0.234,0.168,0.386
				      c0,0.167-0.067,0.32-0.205,0.458c-0.137,0.137-0.356,0.205-0.664,0.205h-0.336v0.365h0.242c0.416,0,0.711,0.073,0.885,0.219
				      c0.172,0.146,0.261,0.336,0.261,0.568c0,0.229-0.078,0.418-0.236,0.564c-0.157,0.147-0.356,0.222-0.601,0.222
				      c-0.264,0-0.573-0.093-0.934-0.273v0.462c0.197,0.083,0.365,0.134,0.502,0.149c0.137,0.018,0.264,0.026,0.381,0.026
				      c0.4,0,0.729-0.11,0.982-0.334c0.252-0.224,0.379-0.506,0.379-0.848c0-0.153-0.027-0.293-0.084-0.417
				      C53.702,50.387,53.62,50.28,53.51,50.189z"/>
	      <polygon fill="#FFFFFF" points="55.959,49.516 56.258,49.516 56.398,48.2 55.825,48.2 						"/>
	      <polygon fill="#FFFFFF" points="54.939,49.516 55.245,49.516 55.377,48.2 54.79,48.2 						"/>
	      <rect x="31.544" y="57.166" fill="#FFFFFF" width="1.826" height="0.365"/>
	      <path fill="#FFFFFF" d="M38.544,55.466c0.066,0.048,0.13,0.072,0.191,0.072s0.125-0.024,0.191-0.072
				      c0.066-0.049,0.1-0.121,0.1-0.219c0-0.1-0.033-0.172-0.1-0.221c-0.067-0.049-0.131-0.072-0.191-0.072
				      s-0.125,0.023-0.191,0.072c-0.067,0.049-0.101,0.121-0.101,0.221C38.443,55.345,38.477,55.417,38.544,55.466z"/>
	      <path fill="#FFFFFF" d="M38.429,59.221c-0.058,0.12-0.137,0.206-0.239,0.258s-0.226,0.077-0.372,0.077
				      c-0.168,0-0.374-0.036-0.619-0.107v0.406c0.215,0.044,0.416,0.064,0.603,0.064c0.259,0,0.463-0.037,0.612-0.112
				      c0.148-0.074,0.277-0.199,0.38-0.372c0.105-0.173,0.158-0.482,0.158-0.93v-2.309H37.4v0.365h1.115v2.027
				      C38.515,58.891,38.485,59.1,38.429,59.221z"/>
	      <path fill="#FFFFFF" d="M40.274,56.199v2.629h0.438V57.3c0.148-0.258,0.303-0.451,0.459-0.58
				      c0.156-0.127,0.316-0.193,0.48-0.193c0.041,0,0.1,0.008,0.174,0.021v0.6h0.422v-0.947c-0.158-0.05-0.316-0.074-0.477-0.074
				      c-0.215,0-0.412,0.055-0.588,0.162c-0.178,0.106-0.334,0.27-0.471,0.485v-0.573h-0.437V56.199z"/>
	      <path fill="#FFFFFF" d="M45.106,56.199h-0.438v1.531c-0.117,0.223-0.264,0.404-0.439,0.551
				      c-0.178,0.145-0.342,0.217-0.496,0.217c-0.074,0-0.145-0.025-0.209-0.078c-0.066-0.051-0.111-0.117-0.135-0.198
				      c-0.025-0.08-0.037-0.247-0.037-0.5v-1.522h-0.438v1.469c0,0.39,0.025,0.65,0.074,0.785c0.051,0.133,0.141,0.242,0.268,0.324
				      c0.129,0.082,0.27,0.123,0.422,0.123c0.174,0,0.346-0.054,0.518-0.162c0.174-0.107,0.33-0.271,0.473-0.486v0.576h0.438
				      L45.106,56.199L45.106,56.199z"/>
	      <path fill="#FFFFFF" d="M47.831,56.41c-0.176-0.189-0.373-0.285-0.592-0.285c-0.158,0-0.33,0.057-0.518,0.168
				      c-0.186,0.11-0.348,0.276-0.48,0.498v-1.763h-0.439v3.8h0.439c0.049,0.004,0.088,0.008,0.111,0.012
				      c0.17,0.017,0.295,0.025,0.377,0.025c0.287,0,0.527-0.07,0.723-0.209c0.196-0.139,0.352-0.328,0.467-0.566
				      c0.117-0.239,0.176-0.512,0.176-0.816C48.094,56.887,48.006,56.599,47.831,56.41z M47.346,58.188
				      c-0.18,0.207-0.404,0.312-0.67,0.312c-0.133,0-0.277-0.021-0.436-0.062v-1.129c0.131-0.233,0.279-0.42,0.443-0.558
				      c0.164-0.14,0.314-0.209,0.451-0.209c0.123,0,0.236,0.066,0.336,0.199c0.098,0.131,0.148,0.328,0.148,0.59
				      C47.62,57.694,47.528,57.978,47.346,58.188z"/>
	      <path fill="#FFFFFF" d="M49.93,58.171l-0.967-1.975H48.48l1.215,2.524l-0.041,0.1c-0.038,0.103-0.102,0.222-0.192,0.36
				      c-0.092,0.14-0.19,0.236-0.301,0.292c-0.109,0.054-0.236,0.082-0.377,0.082c-0.109,0-0.226-0.019-0.347-0.058v0.387
				      c0.105,0.023,0.226,0.035,0.357,0.035c0.309,0,0.559-0.084,0.752-0.254c0.195-0.17,0.398-0.51,0.613-1.025l1.018-2.443h-0.439
				      L49.93,58.171z"/>
	      <rect x="51.79" y="57.166" fill="#FFFFFF" width="1.826" height="0.365"/>
	      <path fill="#FFFFFF" d="M55.92,55.173h-0.438c-0.252,0.232-0.549,0.422-0.896,0.566v0.396c0.218-0.077,0.39-0.151,0.513-0.227
				      c0.123-0.072,0.252-0.162,0.383-0.266v2.816h-0.896v0.365h2.211V58.46H55.92V55.173z"/>
	      <path fill="#FFFFFF" d="M58.502,58.936c0.383,0,0.67-0.097,0.861-0.29s0.287-0.422,0.287-0.686
				      c0-0.172-0.041-0.323-0.119-0.459c-0.08-0.137-0.236-0.299-0.469-0.487l-0.197-0.157c0.213-0.173,0.355-0.307,0.426-0.4
				      c0.072-0.096,0.125-0.19,0.162-0.287c0.035-0.098,0.055-0.196,0.055-0.301c0-0.15-0.039-0.289-0.119-0.416
				      c-0.078-0.127-0.188-0.224-0.332-0.287c-0.146-0.066-0.309-0.101-0.488-0.101c-0.295,0-0.539,0.086-0.729,0.259
				      c-0.19,0.172-0.287,0.379-0.287,0.622c0,0.185,0.056,0.353,0.16,0.505c0.106,0.153,0.218,0.27,0.328,0.348l0.08,0.06
				      c-0.513,0.356-0.769,0.733-0.769,1.134c0,0.27,0.097,0.493,0.287,0.676C57.831,58.846,58.12,58.936,58.502,58.936z
				      M58.088,56.225c-0.076-0.099-0.115-0.201-0.115-0.312c0-0.111,0.045-0.222,0.137-0.326c0.095-0.104,0.229-0.157,0.404-0.157
				      c0.162,0,0.297,0.049,0.4,0.146c0.104,0.098,0.156,0.203,0.156,0.321c0,0.099-0.029,0.201-0.086,0.313
				      c-0.055,0.113-0.195,0.254-0.418,0.422l-0.109-0.08C58.288,56.432,58.165,56.324,58.088,56.225z M58.45,57.089l0.141,0.109
				      c0.063,0.051,0.179,0.157,0.343,0.32c0.162,0.164,0.243,0.324,0.243,0.482c0,0.162-0.067,0.297-0.202,0.404
				      c-0.136,0.108-0.287,0.162-0.457,0.162c-0.188,0-0.349-0.056-0.484-0.169c-0.137-0.112-0.205-0.252-0.205-0.418
				      C57.827,57.707,58.034,57.408,58.45,57.089z"/>
	      <path fill="#FFFFFF" d="M62.245,56.125c-0.103,0-0.19,0.031-0.271,0.09c-0.078,0.059-0.152,0.138-0.228,0.236
				      c-0.072,0.1-0.136,0.229-0.188,0.391v-0.143c0-0.184-0.039-0.324-0.115-0.425c-0.077-0.101-0.18-0.149-0.309-0.149
				      c-0.105,0-0.211,0.049-0.316,0.146c-0.104,0.098-0.217,0.273-0.338,0.529v-0.602h-0.383v2.629h0.383v-1.519
				      c0.084-0.22,0.172-0.397,0.265-0.537c0.092-0.142,0.18-0.209,0.26-0.209c0.035,0,0.076,0.021,0.123,0.062
				      c0.045,0.041,0.067,0.176,0.067,0.41v1.793h0.363v-1.457c0.099-0.289,0.193-0.496,0.285-0.621
				      c0.096-0.123,0.182-0.187,0.264-0.187c0.033,0,0.064,0.015,0.093,0.041c0.026,0.028,0.047,0.069,0.057,0.125
				      c0.011,0.056,0.015,0.153,0.015,0.302v1.797h0.383v-1.988c0-0.284-0.039-0.477-0.119-0.571S62.357,56.125,62.245,56.125z"/>
	      <path fill="#FFFFFF" d="M64.27,56.125c-0.377,0-0.678,0.131-0.903,0.395c-0.226,0.262-0.339,0.594-0.339,0.992
				      c0,0.4,0.113,0.732,0.339,0.994c0.227,0.264,0.526,0.395,0.903,0.395c0.373,0,0.674-0.131,0.9-0.395
				      c0.225-0.262,0.338-0.594,0.338-0.994c0-0.398-0.113-0.73-0.338-0.992C64.943,56.255,64.643,56.125,64.27,56.125z
				      M64.827,58.262c-0.14,0.182-0.324,0.272-0.558,0.272c-0.235,0-0.422-0.092-0.561-0.272c-0.137-0.185-0.207-0.435-0.207-0.753
				      c0-0.315,0.07-0.565,0.207-0.747c0.139-0.183,0.324-0.272,0.561-0.272c0.232,0,0.418,0.092,0.558,0.272
				      c0.137,0.182,0.207,0.432,0.207,0.747C65.034,57.83,64.963,58.08,64.827,58.262z"/>
	      <path fill="#FFFFFF" d="M67.838,56.199c-0.051-0.006-0.088-0.01-0.113-0.013c-0.168-0.019-0.293-0.026-0.377-0.026
				      c-0.287,0-0.527,0.069-0.723,0.209c-0.195,0.139-0.352,0.327-0.467,0.567c-0.117,0.237-0.174,0.51-0.174,0.813
				      c0,0.388,0.086,0.676,0.262,0.865c0.174,0.188,0.373,0.283,0.592,0.283c0.158,0,0.33-0.055,0.518-0.166
				      c0.188-0.111,0.349-0.277,0.482-0.498v0.592h0.438v-3.799h-0.438V56.199z M67.838,57.714c-0.131,0.234-0.277,0.42-0.443,0.559
				      s-0.313,0.207-0.453,0.207c-0.125,0-0.237-0.064-0.336-0.197c-0.098-0.134-0.146-0.33-0.146-0.592
				      c0-0.359,0.09-0.645,0.271-0.854c0.18-0.209,0.403-0.312,0.676-0.312c0.133,0,0.277,0.021,0.434,0.062v1.127H67.838z"/>
	      <path fill="#FFFFFF" d="M70.161,56.125c-0.234,0-0.449,0.062-0.642,0.186c-0.188,0.123-0.34,0.295-0.446,0.516
				      c-0.105,0.223-0.158,0.452-0.158,0.691c0,0.25,0.056,0.484,0.168,0.703c0.11,0.218,0.263,0.387,0.446,0.503
				      c0.188,0.118,0.398,0.177,0.636,0.177c0.312,0,0.646-0.082,0.994-0.248v-0.4c-0.343,0.189-0.654,0.285-0.937,0.285
				      c-0.16,0-0.301-0.039-0.424-0.113c-0.125-0.075-0.225-0.188-0.301-0.34c-0.076-0.152-0.115-0.317-0.115-0.5h1.812v-0.096
				      c0-0.463-0.094-0.806-0.283-1.029C70.723,56.237,70.473,56.125,70.161,56.125z M70.721,57.253H69.41
				      c0.051-0.252,0.143-0.442,0.271-0.57c0.129-0.131,0.282-0.193,0.461-0.193c0.176,0,0.313,0.062,0.42,0.189
				      c0.104,0.128,0.158,0.298,0.158,0.512V57.253L70.721,57.253z"/>
	      <path fill="#FFFFFF" d="M77.002,55.173H76.66l-0.285,1.043h-0.668l0.273-1.043h-0.345l-0.274,1.043h-0.803v0.326h0.717
				      l-0.256,0.967h-0.461v0.33h0.375l-0.26,0.986h0.348l0.261-0.986h0.649l-0.27,0.986h0.35l0.268-0.986h0.839v-0.33H76.37
				      l0.262-0.967h0.486v-0.326h-0.396L77.002,55.173z M76.021,57.509h-0.653l0.254-0.967h0.664L76.021,57.509z"/>
	      <path fill="#FFFFFF" d="M81.92,58.798c0.16-0.092,0.285-0.223,0.373-0.395c0.088-0.171,0.133-0.451,0.133-0.84v-2.391h-1.297
				      v0.363h0.822v2.016c0,0.363-0.031,0.601-0.09,0.711c-0.06,0.111-0.137,0.189-0.238,0.236
				      c-0.098,0.047-0.209,0.071-0.328,0.071c-0.232,0-0.518-0.091-0.859-0.271v0.445c0.301,0.127,0.59,0.188,0.869,0.188
				      C81.555,58.936,81.76,58.891,81.92,58.798z"/>
	      <path fill="#FFFFFF" d="M85.26,56.798c0.096-0.11,0.174-0.238,0.229-0.381c0.054-0.144,0.082-0.285,0.082-0.426
				      c0-0.152-0.041-0.295-0.122-0.426c-0.085-0.133-0.199-0.23-0.353-0.295c-0.147-0.064-0.383-0.098-0.701-0.098h-0.977v3.652
				      h0.477V57.27h0.474l0.967,1.556H85.9l-1.057-1.709C85.025,57.018,85.165,56.912,85.26,56.798z M83.895,56.91v-1.371h0.355
				      c0.326,0,0.553,0.051,0.676,0.152c0.125,0.102,0.188,0.236,0.188,0.408c0,0.097-0.021,0.191-0.058,0.288
				      c-0.037,0.096-0.094,0.187-0.166,0.271s-0.184,0.168-0.332,0.25h-0.664V56.91z"/>
	      <path fill="#FFFFFF" d="M88.051,57.73c-0.117,0.223-0.264,0.404-0.439,0.551c-0.174,0.145-0.342,0.217-0.495,0.217
				      c-0.076,0-0.146-0.025-0.212-0.078c-0.063-0.051-0.108-0.117-0.133-0.198c-0.024-0.08-0.037-0.247-0.037-0.5v-1.522h-0.438
				      v1.469c0,0.39,0.025,0.65,0.076,0.785c0.049,0.133,0.139,0.242,0.266,0.324c0.129,0.082,0.271,0.123,0.424,0.123
				      c0.172,0,0.345-0.054,0.519-0.162c0.172-0.107,0.328-0.271,0.471-0.486v0.576h0.438v-2.629h-0.438L88.051,57.73L88.051,57.73z
				      "/>
	      <path fill="#FFFFFF" d="M90.62,56.125c-0.156,0-0.328,0.057-0.515,0.168c-0.188,0.11-0.348,0.276-0.483,0.498v-1.763h-0.438
				      v3.8h0.438c0.051,0.004,0.088,0.008,0.112,0.012c0.17,0.017,0.295,0.025,0.377,0.025c0.287,0,0.527-0.07,0.724-0.209
				      s0.351-0.328,0.467-0.566c0.117-0.239,0.177-0.512,0.177-0.816c0-0.385-0.088-0.673-0.265-0.863
				      C91.038,56.218,90.84,56.125,90.62,56.125z M90.73,58.188c-0.184,0.207-0.405,0.312-0.67,0.312
				      c-0.135,0-0.281-0.021-0.438-0.062v-1.129c0.133-0.233,0.28-0.42,0.442-0.558c0.164-0.14,0.314-0.209,0.451-0.209
				      c0.127,0,0.238,0.066,0.336,0.199C90.952,56.873,91,57.07,91,57.332C91,57.694,90.911,57.978,90.73,58.188z"/>
	      <path fill="#FFFFFF" d="M93.312,58.171l-0.967-1.975h-0.482l1.214,2.524l-0.039,0.1c-0.037,0.103-0.104,0.222-0.192,0.36
				      c-0.091,0.14-0.191,0.236-0.302,0.292c-0.108,0.054-0.233,0.082-0.377,0.082c-0.108,0-0.226-0.019-0.347-0.058v0.387
				      c0.105,0.023,0.226,0.035,0.357,0.035c0.309,0,0.559-0.084,0.752-0.254c0.195-0.17,0.4-0.51,0.613-1.025l1.018-2.443h-0.44
				      L93.312,58.171z"/>
	      <rect x="31.544" y="63.994" fill="#FFFFFF" width="1.826" height="0.363"/>
	      <path fill="#FFFFFF" d="M38.429,66.048c-0.058,0.121-0.137,0.207-0.239,0.259c-0.102,0.051-0.226,0.075-0.372,0.075
				      c-0.168,0-0.374-0.035-0.619-0.106v0.406c0.215,0.045,0.416,0.065,0.603,0.065c0.259,0,0.463-0.037,0.612-0.113
				      c0.148-0.075,0.277-0.198,0.38-0.372c0.105-0.173,0.158-0.481,0.158-0.929v-2.309H37.4v0.363h1.115v2.029
				      C38.515,65.718,38.485,65.927,38.429,66.048z"/>
	      <path fill="#FFFFFF" d="M38.735,61.783c-0.061,0-0.125,0.024-0.191,0.073c-0.067,0.05-0.101,0.122-0.101,0.22
				      s0.033,0.17,0.101,0.219c0.066,0.049,0.13,0.072,0.191,0.072s0.125-0.023,0.191-0.072c0.066-0.049,0.1-0.121,0.1-0.219
				      s-0.033-0.17-0.1-0.22C38.859,61.807,38.795,61.783,38.735,61.783z"/>
	      <path fill="#FFFFFF" d="M40.274,65.654h0.438v-1.525c0.148-0.26,0.303-0.451,0.459-0.58c0.156-0.129,0.316-0.192,0.48-0.192
				      c0.041,0,0.1,0.005,0.174,0.019v0.601h0.422v-0.947c-0.158-0.049-0.316-0.071-0.477-0.071c-0.215,0-0.412,0.053-0.588,0.16
				      c-0.178,0.106-0.334,0.27-0.471,0.484v-0.573h-0.438L40.274,65.654L40.274,65.654z"/>
	      <path fill="#FFFFFF" d="M45.106,65.654v-2.628h-0.438v1.531c-0.117,0.221-0.264,0.403-0.439,0.549
				      c-0.178,0.146-0.342,0.22-0.496,0.22c-0.074,0-0.145-0.027-0.209-0.078c-0.066-0.053-0.111-0.119-0.135-0.199
				      c-0.025-0.08-0.037-0.248-0.037-0.5v-1.521h-0.438v1.469c0,0.389,0.025,0.65,0.074,0.783c0.051,0.135,0.141,0.242,0.268,0.325
				      c0.129,0.083,0.27,0.124,0.422,0.124c0.174,0,0.346-0.055,0.518-0.162c0.174-0.107,0.33-0.271,0.473-0.488v0.578h0.437V65.654
				      z"/>
	      <path fill="#FFFFFF" d="M45.801,61.856v3.798h0.439c0.049,0.006,0.088,0.01,0.111,0.012c0.17,0.019,0.295,0.026,0.377,0.026
				      c0.287,0,0.527-0.069,0.723-0.209c0.195-0.14,0.352-0.327,0.467-0.565c0.117-0.24,0.176-0.512,0.176-0.816
				      c0-0.385-0.088-0.674-0.264-0.863c-0.176-0.189-0.373-0.283-0.592-0.283c-0.158,0-0.33,0.055-0.518,0.166
				      c-0.186,0.111-0.348,0.277-0.48,0.496v-1.76L45.801,61.856L45.801,61.856z M46.684,63.58c0.164-0.14,0.314-0.207,0.451-0.207
				      c0.123,0,0.236,0.064,0.336,0.197c0.098,0.133,0.148,0.329,0.148,0.592c0,0.36-0.092,0.646-0.273,0.854
				      c-0.18,0.209-0.404,0.312-0.67,0.312c-0.133,0-0.277-0.021-0.436-0.062v-1.128C46.372,63.903,46.52,63.716,46.684,63.58z"/>
	      <path fill="#FFFFFF" d="M49.93,65l-0.967-1.974H48.48l1.215,2.524l-0.041,0.099c-0.038,0.103-0.102,0.222-0.192,0.36
				      c-0.091,0.14-0.19,0.236-0.301,0.291c-0.11,0.056-0.236,0.082-0.377,0.082c-0.109,0-0.226-0.018-0.347-0.057v0.387
				      c0.105,0.023,0.226,0.035,0.357,0.035c0.309,0,0.559-0.084,0.752-0.254c0.195-0.17,0.398-0.512,0.613-1.025l1.018-2.442
				      h-0.439L49.93,65z"/>
	      <rect x="51.79" y="63.994" fill="#FFFFFF" width="1.826" height="0.363"/>
	      <path fill="#FFFFFF" d="M55.92,62.001h-0.438c-0.252,0.231-0.549,0.42-0.896,0.566v0.395c0.218-0.075,0.39-0.15,0.513-0.223
				      c0.123-0.074,0.252-0.164,0.383-0.268v2.816h-0.896v0.363h2.211v-0.361H55.92V62.001z"/>
	      <path fill="#FFFFFF" d="M58.415,61.893c-0.36,0-0.653,0.129-0.877,0.385c-0.222,0.257-0.332,0.558-0.332,0.902
				      c0,0.221,0.045,0.413,0.135,0.579c0.091,0.166,0.22,0.296,0.39,0.387c0.172,0.094,0.352,0.139,0.541,0.139
				      c0.201,0,0.385-0.054,0.551-0.158c0.168-0.105,0.309-0.242,0.42-0.41v0.094c0,0.459-0.088,0.839-0.268,1.139
				      c-0.179,0.301-0.433,0.45-0.759,0.45c-0.229,0-0.475-0.062-0.735-0.185v0.439c0.231,0.073,0.471,0.11,0.719,0.11
				      c0.457,0,0.82-0.177,1.088-0.53c0.27-0.354,0.402-0.835,0.402-1.443c0-0.551-0.105-1.004-0.316-1.361
				      C59.161,62.072,58.842,61.893,58.415,61.893z M58.854,63.671c-0.141,0.164-0.321,0.248-0.543,0.248
				      c-0.215,0-0.379-0.071-0.494-0.215c-0.114-0.143-0.172-0.324-0.172-0.545c0-0.174,0.033-0.332,0.103-0.477
				      s0.162-0.252,0.28-0.321c0.119-0.069,0.238-0.104,0.355-0.104c0.178,0,0.338,0.076,0.477,0.228
				      c0.14,0.152,0.207,0.347,0.207,0.586C59.066,63.305,58.997,63.505,58.854,63.671z"/>
	      <path fill="#FFFFFF" d="M62.245,62.955c-0.103,0-0.19,0.026-0.271,0.086c-0.078,0.06-0.152,0.139-0.228,0.237
				      c-0.072,0.101-0.136,0.229-0.188,0.392v-0.143c0-0.184-0.039-0.324-0.115-0.425c-0.077-0.101-0.18-0.147-0.309-0.147
				      c-0.105,0-0.211,0.047-0.316,0.145c-0.104,0.098-0.217,0.273-0.338,0.529v-0.603h-0.383v2.628h0.383v-1.52
				      c0.084-0.217,0.172-0.395,0.265-0.535c0.092-0.141,0.18-0.21,0.26-0.21c0.035,0,0.076,0.021,0.123,0.062
				      c0.045,0.041,0.067,0.178,0.067,0.409v1.793h0.363v-1.457c0.099-0.288,0.193-0.495,0.285-0.62
				      c0.096-0.125,0.182-0.188,0.264-0.188c0.033,0,0.064,0.015,0.093,0.043c0.026,0.029,0.047,0.07,0.057,0.123
				      c0.011,0.055,0.015,0.156,0.015,0.303v1.796h0.383v-1.985c0-0.287-0.039-0.477-0.119-0.571S62.357,62.955,62.245,62.955z"/>
	      <path fill="#FFFFFF" d="M64.27,62.955c-0.377,0-0.678,0.129-0.903,0.391c-0.226,0.264-0.339,0.594-0.339,0.994
				      s0.113,0.73,0.339,0.994c0.227,0.263,0.526,0.395,0.903,0.395c0.373,0,0.674-0.132,0.9-0.395
				      c0.225-0.264,0.338-0.594,0.338-0.994s-0.113-0.73-0.338-0.994C64.943,63.083,64.643,62.955,64.27,62.955z M64.827,65.087
				      c-0.14,0.185-0.324,0.273-0.558,0.273c-0.235,0-0.422-0.09-0.561-0.273c-0.137-0.182-0.207-0.432-0.207-0.75
				      c0-0.315,0.07-0.565,0.207-0.748c0.139-0.182,0.324-0.272,0.561-0.272c0.232,0,0.418,0.091,0.558,0.272
				      c0.137,0.183,0.207,0.433,0.207,0.748C65.034,64.658,64.963,64.908,64.827,65.087z"/>
	      <path fill="#FFFFFF" d="M67.838,63.026c-0.051-0.006-0.088-0.01-0.113-0.013c-0.168-0.018-0.293-0.025-0.377-0.025
				      c-0.287,0-0.527,0.069-0.723,0.208c-0.195,0.14-0.352,0.328-0.467,0.566c-0.117,0.239-0.174,0.512-0.174,0.815
				      c0,0.387,0.086,0.674,0.262,0.863c0.174,0.189,0.373,0.285,0.592,0.285c0.158,0,0.33-0.057,0.518-0.167
				      c0.188-0.11,0.349-0.276,0.482-0.497v0.591h0.438v-3.798h-0.438V63.026z M67.838,64.542c-0.131,0.233-0.277,0.42-0.443,0.559
				      s-0.313,0.209-0.453,0.209c-0.125,0-0.237-0.066-0.336-0.2c-0.098-0.132-0.146-0.329-0.146-0.591
				      c0-0.359,0.09-0.643,0.271-0.854c0.18-0.209,0.403-0.312,0.676-0.312c0.133,0,0.277,0.021,0.434,0.061v1.129H67.838z"/>
	      <path fill="#FFFFFF" d="M70.161,62.955c-0.234,0-0.449,0.061-0.642,0.184c-0.188,0.123-0.34,0.295-0.446,0.516
				      c-0.105,0.221-0.158,0.452-0.158,0.691c0,0.248,0.056,0.482,0.168,0.701c0.11,0.219,0.263,0.387,0.446,0.506
				      c0.188,0.117,0.398,0.176,0.636,0.176c0.312,0,0.646-0.082,0.994-0.248v-0.4c-0.343,0.189-0.654,0.283-0.937,0.283
				      c-0.16,0-0.301-0.037-0.424-0.113c-0.125-0.076-0.225-0.188-0.301-0.34c-0.076-0.15-0.115-0.316-0.115-0.5h1.812v-0.094
				      c0-0.463-0.094-0.807-0.283-1.029C70.723,63.065,70.473,62.955,70.161,62.955z M70.721,64.083H69.41
				      c0.051-0.252,0.143-0.442,0.271-0.572c0.129-0.129,0.282-0.193,0.461-0.193c0.176,0,0.313,0.064,0.42,0.189
				      c0.105,0.127,0.158,0.298,0.158,0.512V64.083L70.721,64.083z"/>
	      <path fill="#FFFFFF" d="M77.002,62.001H76.66l-0.285,1.041h-0.668l0.273-1.041h-0.345l-0.274,1.041h-0.803v0.328h0.717
				      l-0.256,0.967h-0.461v0.33h0.375l-0.261,0.985h0.349l0.26-0.985h0.65l-0.271,0.985h0.351l0.268-0.985h0.838v-0.33H76.37
				      l0.262-0.967h0.486v-0.328h-0.396L77.002,62.001z M76.021,64.337h-0.653l0.254-0.967h0.664L76.021,64.337z"/>
	      <path fill="#FFFFFF" d="M81.92,65.626c0.16-0.092,0.285-0.223,0.373-0.395s0.133-0.451,0.133-0.84V62h-1.297v0.365h0.822
				      v2.016c0,0.363-0.031,0.6-0.09,0.711c-0.06,0.109-0.137,0.189-0.238,0.236c-0.098,0.047-0.209,0.069-0.328,0.069
				      c-0.232,0-0.518-0.09-0.859-0.271v0.445c0.301,0.127,0.59,0.189,0.869,0.189C81.555,65.764,81.76,65.718,81.92,65.626z"/>
	      <path fill="#FFFFFF" d="M85.26,63.626c0.096-0.111,0.174-0.239,0.229-0.383c0.054-0.143,0.082-0.283,0.082-0.426
				      c0-0.15-0.041-0.293-0.122-0.424c-0.085-0.132-0.199-0.23-0.353-0.295c-0.147-0.066-0.383-0.1-0.701-0.1h-0.977v3.652h0.477
				      V64.1h0.474l0.967,1.554H85.9l-1.057-1.708C85.025,63.845,85.165,63.74,85.26,63.626z M83.895,63.736v-1.369h0.355
				      c0.326,0,0.553,0.051,0.676,0.151c0.125,0.103,0.188,0.237,0.188,0.409c0,0.096-0.021,0.191-0.058,0.287
				      c-0.037,0.097-0.094,0.187-0.166,0.271c-0.072,0.084-0.184,0.168-0.332,0.249L83.895,63.736L83.895,63.736z"/>
	      <path fill="#FFFFFF" d="M88.051,64.557c-0.117,0.221-0.264,0.403-0.439,0.549s-0.342,0.22-0.495,0.22
				      c-0.076,0-0.146-0.027-0.212-0.078c-0.063-0.053-0.108-0.119-0.133-0.199s-0.037-0.248-0.037-0.5v-1.521h-0.438v1.469
				      c0,0.389,0.025,0.65,0.076,0.783c0.049,0.135,0.139,0.242,0.266,0.325c0.129,0.083,0.271,0.124,0.424,0.124
				      c0.172,0,0.345-0.055,0.519-0.162c0.172-0.107,0.328-0.271,0.471-0.488v0.578h0.438v-2.629h-0.438L88.051,64.557
				      L88.051,64.557z"/>
	      <path fill="#FFFFFF" d="M90.62,62.955c-0.156,0-0.328,0.055-0.515,0.166c-0.188,0.11-0.348,0.276-0.483,0.496v-1.761h-0.438
				      v3.798h0.438c0.051,0.006,0.088,0.01,0.112,0.012c0.17,0.019,0.295,0.026,0.377,0.026c0.287,0,0.527-0.069,0.724-0.209
				      c0.194-0.14,0.351-0.327,0.467-0.565c0.117-0.24,0.177-0.512,0.177-0.816c0-0.385-0.088-0.674-0.265-0.863
				      C91.038,63.048,90.84,62.955,90.62,62.955z M90.73,65.014c-0.184,0.209-0.405,0.312-0.67,0.312
				      c-0.135,0-0.281-0.02-0.438-0.062v-1.128c0.133-0.234,0.28-0.42,0.442-0.559c0.164-0.14,0.314-0.207,0.451-0.207
				      c0.127,0,0.238,0.064,0.336,0.197C90.952,63.701,91,63.897,91,64.16C91,64.522,90.911,64.806,90.73,65.014z"/>
	      <path fill="#FFFFFF" d="M93.312,65l-0.967-1.974h-0.482l1.214,2.524l-0.039,0.099c-0.038,0.101-0.104,0.222-0.194,0.36
				      c-0.09,0.14-0.191,0.236-0.301,0.291c-0.109,0.056-0.234,0.082-0.377,0.082c-0.109,0-0.225-0.018-0.346-0.057v0.387
				      c0.104,0.023,0.225,0.035,0.356,0.035c0.31,0,0.56-0.084,0.753-0.254c0.194-0.17,0.399-0.512,0.612-1.025l1.019-2.442h-0.44
				      L93.312,65z"/>
	      <rect x="31.544" y="70.82" fill="#FFFFFF" width="1.826" height="0.365"/>
	      <path fill="#FFFFFF" d="M39.354,70.8v-0.948c-0.158-0.048-0.316-0.071-0.475-0.071c-0.216,0-0.414,0.053-0.59,0.161
				      c-0.176,0.106-0.333,0.271-0.47,0.483v-0.573h-0.438v2.629h0.438v-1.526c0.15-0.258,0.303-0.449,0.459-0.578
				      c0.157-0.129,0.316-0.193,0.48-0.193c0.043,0,0.102,0.007,0.174,0.02v0.6h0.422V70.8z"/>
	      <path fill="#FFFFFF" d="M40.018,72.481h0.438c0.051,0.006,0.088,0.009,0.113,0.013c0.17,0.018,0.295,0.025,0.377,0.025
				      c0.285,0,0.527-0.068,0.721-0.208c0.195-0.14,0.352-0.328,0.469-0.565c0.115-0.24,0.174-0.513,0.174-0.816
				      c0-0.387-0.088-0.674-0.262-0.863c-0.178-0.189-0.375-0.285-0.594-0.285c-0.158,0-0.33,0.057-0.516,0.168
				      c-0.188,0.11-0.348,0.275-0.482,0.496v-1.76h-0.438V72.481z M40.456,70.964c0.131-0.233,0.279-0.42,0.443-0.559
				      s0.314-0.209,0.451-0.209c0.125,0,0.236,0.067,0.336,0.199s0.148,0.328,0.148,0.592c0,0.361-0.09,0.646-0.271,0.854
				      c-0.181,0.209-0.404,0.312-0.67,0.312c-0.133,0-0.279-0.021-0.438-0.062L40.456,70.964L40.456,70.964z"/>
	      <polygon fill="#FFFFFF" points="45.184,69.852 44.688,69.852 44.02,70.742 43.338,69.852 42.776,69.852 43.741,71.112
					      42.711,72.481 43.217,72.481 43.997,71.441 44.793,72.481 45.356,72.481 44.274,71.07 						"/>
	      <path fill="#FFFFFF" d="M27.837,75.658h-0.344l-0.284,1.043h-0.668l0.274-1.043H26.47l-0.274,1.043h-0.805v0.325h0.718
				      l-0.256,0.968h-0.462v0.33h0.375l-0.26,0.985h0.348l0.26-0.985h0.652l-0.27,0.985h0.349l0.268-0.985h0.837v-0.33h-0.748
				      l0.263-0.968h0.485v-0.325h-0.396L27.837,75.658z M26.855,77.994H26.2l0.254-0.968h0.665L26.855,77.994z"/>
	      <path fill="#FFFFFF" d="M31.347,78.149c0,0.39,0.025,0.649,0.074,0.785c0.051,0.134,0.14,0.241,0.268,0.323
				      s0.269,0.123,0.422,0.123c0.173,0,0.346-0.053,0.518-0.162c0.174-0.106,0.33-0.27,0.471-0.485v0.576h0.438V76.68H33.1v1.53
				      c-0.115,0.224-0.262,0.406-0.438,0.552c-0.177,0.146-0.341,0.218-0.495,0.218c-0.075,0-0.146-0.025-0.211-0.078
				      c-0.064-0.052-0.109-0.117-0.134-0.199c-0.025-0.08-0.036-0.246-0.036-0.498V76.68h-0.438L31.347,78.149L31.347,78.149z"/>
	      <path fill="#FFFFFF" d="M34.704,77.777c0.115-0.22,0.26-0.4,0.437-0.548c0.177-0.147,0.341-0.22,0.495-0.22
				      c0.077,0,0.148,0.025,0.213,0.078c0.065,0.052,0.109,0.117,0.135,0.197c0.023,0.082,0.037,0.248,0.037,0.502v1.521h0.437
				      v-1.469c0-0.391-0.025-0.652-0.076-0.785c-0.051-0.135-0.14-0.242-0.267-0.324c-0.127-0.082-0.269-0.123-0.424-0.123
				      c-0.178,0-0.355,0.057-0.531,0.171c-0.178,0.114-0.329,0.274-0.455,0.476V76.68h-0.438v2.629h0.438L34.704,77.777
				      L34.704,77.777z"/>
	      <path fill="#FFFFFF" d="M37.569,77.001c-0.26,0.266-0.39,0.597-0.39,0.994c0,0.266,0.058,0.502,0.172,0.709
				      c0.114,0.209,0.274,0.373,0.479,0.494c0.204,0.121,0.438,0.182,0.701,0.182c0.265,0,0.544-0.049,0.837-0.147v-0.42
				      c-0.248,0.084-0.42,0.134-0.512,0.146c-0.094,0.015-0.188,0.021-0.283,0.021c-0.316,0-0.55-0.107-0.697-0.322
				      c-0.148-0.216-0.223-0.439-0.223-0.679c0-0.177,0.038-0.351,0.115-0.519c0.077-0.166,0.186-0.291,0.326-0.369
				      c0.143-0.079,0.293-0.119,0.453-0.119c0.242,0,0.515,0.068,0.82,0.21v-0.423c-0.303-0.102-0.59-0.151-0.861-0.151
				      C38.143,76.608,37.829,76.74,37.569,77.001z"/>
	      <path fill="#FFFFFF" d="M41.131,76.608c-0.375,0-0.676,0.132-0.902,0.394s-0.338,0.592-0.338,0.992
				      c0,0.399,0.111,0.731,0.338,0.994c0.227,0.264,0.527,0.395,0.902,0.395s0.676-0.131,0.9-0.395
				      c0.227-0.263,0.34-0.595,0.34-0.994c0-0.4-0.113-0.73-0.34-0.992C41.807,76.74,41.506,76.608,41.131,76.608z M41.688,78.746
				      c-0.137,0.182-0.322,0.271-0.557,0.271c-0.235,0-0.42-0.091-0.559-0.271c-0.139-0.184-0.207-0.434-0.207-0.752
				      c0-0.316,0.068-0.564,0.207-0.748c0.139-0.183,0.324-0.272,0.559-0.272c0.235,0,0.42,0.091,0.557,0.272
				      c0.139,0.184,0.207,0.432,0.207,0.748C41.895,78.312,41.827,78.562,41.688,78.746z"/>
	      <path fill="#FFFFFF" d="M44.891,76.608c-0.102,0-0.191,0.029-0.27,0.088c-0.08,0.06-0.154,0.14-0.229,0.238
				      c-0.072,0.101-0.135,0.229-0.186,0.39v-0.142c0-0.185-0.039-0.326-0.117-0.427c-0.078-0.098-0.18-0.147-0.307-0.147
				      c-0.107,0-0.213,0.048-0.318,0.146c-0.104,0.098-0.217,0.274-0.336,0.529V76.68h-0.385v2.629h0.385v-1.519
				      c0.082-0.219,0.17-0.396,0.262-0.537c0.092-0.139,0.18-0.209,0.26-0.209c0.037,0,0.076,0.021,0.121,0.062
				      c0.047,0.041,0.07,0.179,0.07,0.41v1.793h0.365v-1.457c0.096-0.289,0.191-0.494,0.285-0.619
				      c0.094-0.126,0.18-0.188,0.262-0.188c0.033,0,0.064,0.015,0.092,0.043c0.027,0.027,0.047,0.068,0.057,0.123
				      c0.01,0.055,0.014,0.154,0.014,0.303v1.796h0.385v-1.985c0-0.287-0.041-0.478-0.121-0.572
				      C45.1,76.656,45.004,76.608,44.891,76.608z"/>
	      <path fill="#FFFFFF" d="M47.784,76.608c-0.104,0-0.191,0.029-0.271,0.088c-0.078,0.06-0.152,0.14-0.227,0.238
				      c-0.072,0.101-0.135,0.229-0.188,0.39v-0.142c0-0.185-0.039-0.326-0.115-0.427c-0.078-0.098-0.182-0.147-0.309-0.147
				      c-0.105,0-0.211,0.048-0.316,0.146c-0.104,0.098-0.217,0.274-0.338,0.529V76.68h-0.383v2.629h0.383v-1.519
				      c0.084-0.219,0.172-0.396,0.264-0.537c0.092-0.139,0.178-0.209,0.26-0.209c0.035,0,0.076,0.021,0.121,0.062
				      c0.047,0.041,0.07,0.179,0.07,0.41v1.793h0.363v-1.457c0.098-0.289,0.193-0.494,0.287-0.619
				      c0.092-0.126,0.18-0.188,0.262-0.188c0.033,0,0.062,0.015,0.092,0.043c0.027,0.027,0.047,0.068,0.057,0.123
				      c0.01,0.055,0.014,0.154,0.014,0.303v1.796h0.385v-1.985c0-0.287-0.041-0.478-0.121-0.572
				      C47.994,76.656,47.897,76.608,47.784,76.608z"/>
	      <path fill="#FFFFFF" d="M49.915,76.608c-0.233,0-0.447,0.062-0.64,0.185c-0.19,0.123-0.34,0.295-0.446,0.517
				      s-0.16,0.452-0.16,0.692c0,0.248,0.058,0.481,0.168,0.699c0.111,0.221,0.263,0.389,0.449,0.506s0.396,0.176,0.635,0.176
				      c0.312,0,0.644-0.082,0.992-0.248v-0.398c-0.343,0.188-0.654,0.281-0.937,0.281c-0.158,0-0.301-0.036-0.424-0.112
				      c-0.123-0.075-0.225-0.188-0.301-0.34s-0.113-0.317-0.113-0.501h1.812V77.97c0-0.463-0.096-0.807-0.283-1.028
				      C50.479,76.718,50.227,76.608,49.915,76.608z M50.475,77.737h-1.311c0.051-0.251,0.143-0.44,0.271-0.569
				      c0.131-0.131,0.282-0.194,0.461-0.194c0.176,0,0.315,0.063,0.42,0.19s0.158,0.297,0.158,0.51V77.737L50.475,77.737z"/>
	      <path fill="#FFFFFF" d="M53.467,76.731c-0.127-0.082-0.27-0.123-0.424-0.123c-0.178,0-0.355,0.058-0.531,0.171
				      c-0.178,0.114-0.33,0.273-0.455,0.477V76.68H51.62v2.629h0.438v-1.532c0.114-0.22,0.26-0.4,0.438-0.548
				      c0.176-0.146,0.342-0.22,0.494-0.22c0.078,0,0.148,0.025,0.213,0.078c0.066,0.052,0.111,0.117,0.135,0.197
				      c0.023,0.082,0.035,0.248,0.035,0.502v1.521h0.439v-1.469c0-0.391-0.025-0.652-0.076-0.785
				      C53.684,76.919,53.594,76.813,53.467,76.731z"/>
	      <path fill="#FFFFFF" d="M55.029,78.324c0,0.288,0.039,0.502,0.115,0.641c0.078,0.139,0.193,0.242,0.347,0.312
				      c0.153,0.07,0.319,0.104,0.504,0.104c0.086,0,0.176-0.008,0.269-0.022c0.092-0.019,0.241-0.067,0.446-0.155v-0.386
				      c-0.233,0.134-0.457,0.199-0.668,0.199c-0.115,0-0.215-0.021-0.297-0.06c-0.086-0.043-0.152-0.105-0.203-0.192
				      c-0.049-0.087-0.074-0.236-0.074-0.448v-1.052h1.171v-0.365h-1.171v-1.06h-0.438v1.06h-0.655v0.365h0.655V78.324z"/>
	      <path fill="#FFFFFF" d="M61.527,78.957c-0.084-0.041-0.149-0.104-0.2-0.191c-0.052-0.088-0.076-0.236-0.076-0.448v-1.052h1.17
				      V76.9h-1.17v-1.061h-0.437v1.06h-0.657v0.365h0.657v1.06c0,0.288,0.037,0.502,0.115,0.641s0.193,0.242,0.344,0.312
				      c0.154,0.07,0.32,0.104,0.504,0.104c0.089,0,0.177-0.008,0.271-0.022c0.093-0.019,0.24-0.067,0.447-0.155v-0.386
				      c-0.233,0.134-0.457,0.199-0.668,0.199C61.711,79.016,61.611,78.998,61.527,78.957z"/>
	      <path fill="#FFFFFF" d="M63.188,75.509v3.8h0.438v-1.532c0.115-0.22,0.261-0.4,0.437-0.548c0.178-0.146,0.342-0.22,0.498-0.22
				      c0.073,0,0.146,0.025,0.211,0.078c0.065,0.052,0.108,0.117,0.135,0.197c0.025,0.082,0.037,0.248,0.037,0.502v1.521h0.438
				      v-1.469c0-0.291-0.008-0.484-0.021-0.576c-0.014-0.096-0.041-0.184-0.08-0.266c-0.049-0.109-0.135-0.201-0.258-0.276
				      c-0.123-0.077-0.26-0.114-0.408-0.114c-0.178,0-0.354,0.057-0.53,0.171c-0.179,0.114-0.33,0.274-0.455,0.476v-1.744H63.188z"
		    />
	      <path fill="#FFFFFF" d="M67.229,75.949c0.068-0.048,0.101-0.121,0.101-0.218c0-0.099-0.031-0.172-0.101-0.222
				      c-0.065-0.047-0.131-0.071-0.19-0.071s-0.123,0.024-0.19,0.071c-0.066,0.05-0.101,0.123-0.101,0.222
				      c0,0.097,0.032,0.17,0.101,0.218c0.067,0.049,0.131,0.073,0.19,0.073S67.163,75.998,67.229,75.949z"/>
	      <polygon fill="#FFFFFF" points="66.088,77.044 66.816,77.044 66.816,79.309 67.986,79.309 67.986,78.944 67.254,78.944
					      67.254,76.68 66.088,76.68 						"/>
	      <path fill="#FFFFFF" d="M70.061,79.016c-0.139,0-0.305-0.021-0.5-0.067c-0.194-0.047-0.383-0.128-0.559-0.242v0.465
				      c0.355,0.142,0.701,0.211,1.037,0.211c0.383,0,0.662-0.073,0.838-0.221c0.176-0.146,0.262-0.332,0.262-0.561
				      c0-0.176-0.055-0.318-0.162-0.436c-0.11-0.117-0.301-0.225-0.572-0.324l-0.297-0.106c-0.203-0.073-0.35-0.139-0.438-0.194
				      c-0.089-0.057-0.137-0.133-0.137-0.228c0-0.097,0.053-0.179,0.157-0.242c0.104-0.065,0.248-0.099,0.435-0.099
				      c0.256,0,0.526,0.052,0.815,0.154v-0.397c-0.252-0.08-0.518-0.121-0.799-0.121c-0.377,0-0.647,0.067-0.813,0.209
				      c-0.168,0.14-0.25,0.317-0.25,0.534c0,0.152,0.043,0.283,0.129,0.391c0.084,0.108,0.289,0.227,0.616,0.354l0.304,0.121
				      l0.149,0.061c0.183,0.074,0.293,0.137,0.338,0.188c0.048,0.05,0.068,0.109,0.068,0.181c0,0.106-0.047,0.194-0.145,0.269
				      C70.439,78.982,70.282,79.016,70.061,79.016z"/>
	      <polygon fill="#FFFFFF" points="74.678,75.509 74.678,75.875 75.463,75.875 75.463,79.309 76.721,79.309 76.721,78.944
					      75.9,78.944 75.9,75.509 						"/>
	      <polygon fill="#FFFFFF" points="78.385,79.309 79.555,79.309 79.555,78.944 78.823,78.944 78.823,76.68 77.657,76.68
					      77.657,77.044 78.385,77.044 						"/>
	      <path fill="#FFFFFF" d="M78.605,76.022c0.062,0,0.125-0.024,0.191-0.073c0.066-0.048,0.102-0.121,0.102-0.218
				      c0-0.099-0.035-0.172-0.102-0.222c-0.066-0.047-0.131-0.071-0.191-0.071c-0.059,0-0.123,0.024-0.188,0.071
				      c-0.067,0.05-0.103,0.123-0.103,0.222c0,0.097,0.033,0.17,0.103,0.218C78.482,75.998,78.547,76.022,78.605,76.022z"/>
	      <path fill="#FFFFFF" d="M81.965,76.608c-0.178,0-0.355,0.058-0.531,0.171c-0.178,0.114-0.33,0.273-0.455,0.477V76.68h-0.438
				      v2.629h0.438v-1.532c0.115-0.22,0.26-0.4,0.438-0.548c0.176-0.146,0.34-0.22,0.494-0.22c0.078,0,0.147,0.025,0.213,0.078
				      c0.063,0.052,0.108,0.117,0.135,0.197c0.023,0.082,0.035,0.248,0.035,0.502v1.521h0.438v-1.469
				      c0-0.391-0.024-0.652-0.075-0.785c-0.054-0.135-0.142-0.242-0.271-0.324C82.262,76.649,82.12,76.608,81.965,76.608z"/>
	      <path fill="#FFFFFF" d="M84.622,76.608c-0.233,0-0.449,0.062-0.642,0.185c-0.19,0.123-0.34,0.295-0.446,0.517
				      s-0.159,0.45-0.159,0.69c0,0.248,0.055,0.482,0.168,0.701c0.111,0.219,0.262,0.387,0.447,0.504
				      c0.188,0.117,0.398,0.176,0.635,0.176c0.312,0,0.645-0.082,0.994-0.246v-0.399c-0.342,0.188-0.654,0.281-0.936,0.281
				      c-0.16,0-0.302-0.036-0.427-0.112c-0.123-0.074-0.223-0.188-0.299-0.34s-0.115-0.316-0.115-0.501h1.812v-0.095
				      c0-0.463-0.094-0.805-0.282-1.027S84.934,76.608,84.622,76.608z M85.182,77.737h-1.311c0.051-0.251,0.143-0.44,0.271-0.569
				      c0.129-0.131,0.282-0.194,0.461-0.194c0.176,0,0.313,0.063,0.42,0.19c0.105,0.127,0.158,0.297,0.158,0.51V77.737
				      L85.182,77.737z"/>
	      <path fill="#FFFFFF" d="M90.366,75.949c0.067-0.048,0.102-0.121,0.102-0.218c0-0.099-0.032-0.172-0.102-0.222
				      c-0.066-0.047-0.132-0.071-0.191-0.071c-0.059,0-0.123,0.024-0.19,0.071c-0.066,0.05-0.101,0.123-0.101,0.222
				      c0,0.097,0.033,0.17,0.101,0.218c0.067,0.049,0.133,0.073,0.19,0.073C90.234,76.022,90.299,75.998,90.366,75.949z"/>
	      <polygon fill="#FFFFFF" points="89.225,77.044 89.954,77.044 89.954,79.309 91.124,79.309 91.124,78.944 90.391,78.944
					      90.391,76.68 89.225,76.68 						"/>
	      <path fill="#FFFFFF" d="M93.204,75.598c-0.164,0.106-0.285,0.241-0.365,0.407c-0.077,0.166-0.116,0.422-0.116,0.769v0.123
				      h-0.584v0.364h0.584v2.048h0.438v-2.048h1.043v-0.364H93.16v-0.169c0-0.279,0.031-0.479,0.092-0.596
				      c0.061-0.116,0.143-0.2,0.25-0.252c0.105-0.053,0.23-0.078,0.369-0.078c0.176,0,0.377,0.037,0.605,0.111V75.5
				      c-0.211-0.041-0.418-0.062-0.621-0.062C93.584,75.438,93.366,75.492,93.204,75.598z"/>
	      <path fill="#FFFFFF" d="M27.837,82.485h-0.344l-0.284,1.043h-0.668l0.274-1.043H26.47l-0.274,1.043h-0.805v0.326h0.718
				      l-0.256,0.968h-0.462v0.329h0.375l-0.26,0.985h0.348l0.26-0.985h0.652l-0.27,0.985h0.349l0.268-0.985h0.837v-0.329h-0.748
				      l0.263-0.968h0.485v-0.326h-0.396L27.837,82.485z M26.855,84.822H26.2l0.254-0.968h0.665L26.855,84.822z"/>
	      <path fill="#FFFFFF" d="M32.806,84.669l-0.297-0.106c-0.203-0.073-0.348-0.142-0.438-0.194
				      c-0.092-0.058-0.137-0.134-0.137-0.228c0-0.099,0.053-0.179,0.156-0.244c0.104-0.063,0.25-0.099,0.436-0.099
				      c0.255,0,0.525,0.054,0.815,0.156v-0.396c-0.251-0.082-0.519-0.123-0.799-0.123c-0.376,0-0.647,0.07-0.813,0.21
				      c-0.168,0.14-0.252,0.317-0.252,0.534c0,0.152,0.043,0.283,0.13,0.391c0.085,0.107,0.29,0.227,0.616,0.354l0.304,0.119
				      l0.151,0.062c0.18,0.072,0.293,0.135,0.338,0.186c0.046,0.051,0.068,0.11,0.068,0.183c0,0.104-0.049,0.194-0.146,0.267
				      c-0.098,0.071-0.257,0.107-0.478,0.107c-0.137,0-0.303-0.021-0.5-0.069c-0.195-0.047-0.381-0.127-0.557-0.241V86
				      c0.354,0.143,0.699,0.213,1.035,0.213c0.385,0,0.664-0.073,0.839-0.221c0.175-0.146,0.263-0.334,0.263-0.562
				      c0-0.175-0.055-0.318-0.164-0.437C33.269,84.876,33.077,84.77,32.806,84.669z"/>
	      <path fill="#FFFFFF" d="M34.677,83.832c-0.259,0.264-0.389,0.594-0.389,0.992c0,0.266,0.057,0.502,0.172,0.711
				      c0.113,0.207,0.273,0.371,0.479,0.493c0.205,0.121,0.439,0.183,0.702,0.183c0.265,0,0.545-0.051,0.837-0.148V85.64
				      c-0.248,0.085-0.42,0.134-0.512,0.146c-0.093,0.014-0.188,0.021-0.283,0.021c-0.316,0-0.549-0.106-0.697-0.322
				      c-0.148-0.215-0.223-0.44-0.223-0.678c0-0.177,0.039-0.351,0.115-0.519c0.077-0.168,0.186-0.291,0.328-0.371
				      c0.141-0.078,0.291-0.119,0.451-0.119c0.242,0,0.516,0.07,0.82,0.211v-0.422c-0.302-0.103-0.589-0.152-0.86-0.152
				      C35.25,83.435,34.937,83.567,34.677,83.832z"/>
	      <path fill="#FFFFFF" d="M38.289,83.596c-0.176,0.106-0.333,0.271-0.47,0.485v-0.574h-0.438v2.629h0.438v-1.527
				      c0.15-0.257,0.303-0.449,0.459-0.578c0.157-0.129,0.316-0.191,0.48-0.191c0.043,0,0.102,0.006,0.174,0.018v0.602h0.422v-0.949
				      c-0.158-0.049-0.316-0.072-0.475-0.072C38.663,83.435,38.466,83.49,38.289,83.596z"/>
	      <path fill="#FFFFFF" d="M41.2,82.776c0.066-0.048,0.1-0.12,0.1-0.217c0-0.101-0.033-0.172-0.1-0.222
				      c-0.068-0.049-0.131-0.071-0.193-0.071c-0.059,0-0.123,0.022-0.189,0.071s-0.1,0.121-0.1,0.222c0,0.097,0.033,0.169,0.1,0.217
				      c0.066,0.05,0.131,0.074,0.189,0.074C41.069,82.85,41.131,82.826,41.2,82.776z"/>
	      <polygon fill="#FFFFFF" points="41.225,83.507 40.057,83.507 40.057,83.873 40.788,83.873 40.788,86.136 41.958,86.136
					      41.958,85.772 41.225,85.772 						"/>
	      <path fill="#FFFFFF" d="M44.344,83.435c-0.156,0-0.328,0.057-0.514,0.167c-0.188,0.11-0.348,0.276-0.482,0.497v-0.592h-0.439
				      v3.65h0.439v-1.021c0.049,0.005,0.086,0.009,0.113,0.013c0.168,0.019,0.295,0.024,0.375,0.024
				      c0.287,0,0.529-0.068,0.723-0.209c0.195-0.139,0.35-0.328,0.467-0.565c0.119-0.239,0.176-0.511,0.176-0.815
				      c0-0.385-0.088-0.674-0.264-0.862C44.764,83.531,44.565,83.435,44.344,83.435z M44.456,85.498
				      c-0.182,0.209-0.406,0.312-0.67,0.312c-0.135,0-0.279-0.021-0.438-0.062v-1.127c0.131-0.233,0.279-0.42,0.443-0.56
				      s0.314-0.207,0.449-0.207c0.127,0,0.238,0.065,0.338,0.196c0.098,0.134,0.146,0.33,0.146,0.593
				      C44.725,85.003,44.635,85.291,44.456,85.498z"/>
	      <path fill="#FFFFFF" d="M47.067,85.785c-0.084-0.041-0.15-0.104-0.201-0.191c-0.051-0.088-0.076-0.237-0.076-0.449v-1.053
				      h1.17v-0.363h-1.17v-1.059h-0.438v1.059h-0.656v0.363h0.656v1.061c0,0.289,0.039,0.502,0.117,0.641
				      c0.078,0.139,0.191,0.242,0.344,0.312c0.152,0.07,0.322,0.105,0.504,0.105c0.088,0,0.176-0.008,0.268-0.024
				      c0.094-0.017,0.244-0.067,0.449-0.153v-0.387c-0.234,0.133-0.457,0.2-0.67,0.2C47.25,85.845,47.151,85.826,47.067,85.785z"/>
	      <path fill="#FFFFFF" d="M49.807,85.48c-0.104,0-0.193,0.038-0.27,0.111c-0.077,0.074-0.115,0.164-0.115,0.271
				      c0,0.104,0.039,0.195,0.113,0.271c0.076,0.074,0.166,0.113,0.271,0.113c0.104,0,0.194-0.039,0.271-0.113
				      c0.073-0.075,0.112-0.166,0.112-0.271c0-0.107-0.039-0.197-0.114-0.271C49.999,85.518,49.911,85.48,49.807,85.48z"/>
	      <path fill="#FFFFFF" d="M49.807,83.435c-0.104,0-0.193,0.038-0.27,0.111c-0.077,0.074-0.115,0.166-0.115,0.271
				      s0.039,0.195,0.113,0.271c0.076,0.074,0.166,0.111,0.271,0.111c0.104,0,0.194-0.037,0.271-0.111
				      c0.073-0.075,0.112-0.166,0.112-0.271s-0.039-0.197-0.114-0.271C49.999,83.473,49.911,83.435,49.807,83.435z"/>
	      <path fill="#FFFFFF" d="M55.915,83.435c-0.158,0-0.33,0.057-0.517,0.167c-0.188,0.11-0.348,0.276-0.481,0.497v-1.762h-0.438
				      v3.799h0.438c0.049,0.005,0.088,0.009,0.112,0.013c0.169,0.019,0.296,0.024,0.378,0.024c0.286,0,0.526-0.068,0.721-0.209
				      c0.195-0.139,0.353-0.328,0.47-0.565c0.114-0.239,0.174-0.511,0.174-0.815c0-0.385-0.088-0.674-0.263-0.862
				      C56.331,83.531,56.133,83.435,55.915,83.435z M56.023,85.498c-0.182,0.209-0.403,0.312-0.67,0.312
				      c-0.133,0-0.278-0.021-0.438-0.062v-1.127c0.131-0.233,0.279-0.42,0.443-0.56s0.313-0.207,0.451-0.207
				      c0.125,0,0.237,0.065,0.336,0.196c0.1,0.134,0.147,0.33,0.147,0.593C56.295,85.003,56.204,85.291,56.023,85.498z"/>
	      <path fill="#FFFFFF" d="M59.129,85.041c-0.117,0.222-0.264,0.403-0.439,0.549c-0.174,0.146-0.342,0.219-0.496,0.219
				      c-0.073,0-0.145-0.025-0.211-0.077c-0.063-0.052-0.108-0.118-0.133-0.198c-0.024-0.082-0.037-0.248-0.037-0.5v-1.523h-0.438
				      v1.47c0,0.39,0.025,0.649,0.076,0.785c0.049,0.133,0.139,0.241,0.266,0.323c0.129,0.082,0.27,0.123,0.422,0.123
				      c0.174,0,0.346-0.053,0.519-0.162c0.174-0.107,0.329-0.271,0.473-0.485v0.575h0.438v-2.629H59.13L59.129,85.041L59.129,85.041
				      z"/>
	      <path fill="#FFFFFF" d="M62.143,83.559c-0.127-0.083-0.268-0.124-0.424-0.124c-0.178,0-0.354,0.059-0.531,0.172
				      c-0.176,0.114-0.33,0.271-0.455,0.477v-0.574h-0.438v2.627h0.438v-1.53c0.115-0.22,0.263-0.403,0.438-0.548
				      c0.177-0.146,0.343-0.219,0.494-0.219c0.078,0,0.147,0.025,0.215,0.076c0.063,0.051,0.108,0.119,0.134,0.199
				      c0.022,0.08,0.036,0.247,0.036,0.5v1.521h0.438v-1.469c0-0.391-0.025-0.651-0.076-0.785
				      C62.359,83.75,62.27,83.641,62.143,83.559z"/>
	      <path fill="#FFFFFF" d="M64.945,83.507c-0.051-0.004-0.088-0.008-0.112-0.012c-0.168-0.018-0.293-0.027-0.377-0.027
				      c-0.287,0-0.529,0.07-0.724,0.211c-0.194,0.139-0.352,0.326-0.467,0.566c-0.117,0.239-0.174,0.51-0.174,0.814
				      c0,0.387,0.086,0.674,0.262,0.863c0.176,0.191,0.373,0.285,0.595,0.285c0.155,0,0.327-0.057,0.516-0.168
				      c0.188-0.11,0.351-0.275,0.481-0.496v0.59h0.438v-3.797h-0.438V83.507L64.945,83.507z M64.945,85.026
				      c-0.131,0.231-0.276,0.42-0.442,0.558c-0.164,0.14-0.315,0.207-0.453,0.207c-0.125,0-0.235-0.064-0.334-0.199
				      c-0.1-0.131-0.147-0.328-0.147-0.59c0-0.359,0.09-0.644,0.27-0.853s0.406-0.313,0.676-0.313c0.133,0,0.279,0.021,0.435,0.062
				      v1.129H64.945z"/>
	      <polygon fill="#FFFFFF" points="67.225,82.337 66,82.337 66,82.703 66.786,82.703 66.786,86.136 68.045,86.136 68.045,85.772
					      67.225,85.772 						"/>
	      <path fill="#FFFFFF" d="M70.161,83.435c-0.234,0-0.449,0.062-0.642,0.186c-0.188,0.123-0.34,0.295-0.446,0.516
				      c-0.105,0.221-0.158,0.451-0.158,0.691c0,0.25,0.056,0.483,0.168,0.701c0.11,0.219,0.263,0.389,0.446,0.504
				      c0.188,0.118,0.398,0.178,0.636,0.178c0.312,0,0.646-0.082,0.994-0.248v-0.4c-0.343,0.189-0.654,0.284-0.937,0.284
				      c-0.16,0-0.301-0.038-0.424-0.114c-0.125-0.074-0.225-0.188-0.301-0.339s-0.115-0.317-0.115-0.5h1.812v-0.095
				      c0-0.463-0.094-0.807-0.283-1.027C70.723,83.546,70.473,83.435,70.161,83.435z M70.721,84.565H69.41
				      c0.051-0.252,0.143-0.44,0.271-0.571c0.129-0.127,0.282-0.193,0.461-0.193c0.176,0,0.313,0.064,0.42,0.189
				      c0.104,0.127,0.158,0.299,0.158,0.512V84.565L70.721,84.565z"/>
	      <path fill="#FFFFFF" d="M75.945,83.435c-0.235,0-0.448,0.062-0.641,0.186c-0.191,0.123-0.34,0.295-0.447,0.516
				      c-0.104,0.221-0.159,0.451-0.159,0.691c0,0.25,0.057,0.483,0.168,0.701c0.112,0.219,0.262,0.389,0.448,0.504
				      c0.187,0.118,0.398,0.178,0.636,0.178c0.312,0,0.643-0.082,0.993-0.248v-0.4c-0.344,0.189-0.655,0.284-0.938,0.284
				      c-0.158,0-0.299-0.038-0.424-0.114c-0.123-0.074-0.223-0.188-0.301-0.339c-0.074-0.151-0.113-0.317-0.113-0.5h1.812v-0.095
				      c0-0.463-0.097-0.807-0.285-1.027C76.508,83.546,76.258,83.435,75.945,83.435z M76.504,84.565h-1.311
				      c0.053-0.252,0.143-0.44,0.271-0.571c0.132-0.127,0.283-0.193,0.461-0.193c0.177,0,0.316,0.064,0.423,0.189
				      c0.104,0.127,0.155,0.299,0.155,0.512L76.504,84.565L76.504,84.565z"/>
	      <polygon fill="#FFFFFF" points="79.891,83.507 79.393,83.507 78.725,84.395 78.045,83.507 77.482,83.507 78.448,84.766
					      77.417,86.136 77.922,86.136 78.702,85.096 79.5,86.136 80.062,86.136 78.979,84.726 						"/>
	      <path fill="#FFFFFF" d="M81.73,83.435c-0.235,0-0.451,0.062-0.643,0.186c-0.189,0.123-0.34,0.295-0.445,0.516
				      c-0.106,0.221-0.16,0.451-0.16,0.691c0,0.25,0.056,0.483,0.168,0.701c0.111,0.219,0.263,0.389,0.447,0.504
				      c0.188,0.118,0.398,0.178,0.637,0.178c0.312,0,0.644-0.082,0.992-0.248v-0.4c-0.342,0.189-0.653,0.284-0.938,0.284
				      c-0.156,0-0.299-0.038-0.422-0.114c-0.125-0.074-0.225-0.188-0.301-0.339s-0.113-0.317-0.113-0.5h1.811v-0.095
				      c0-0.463-0.094-0.807-0.283-1.027C82.292,83.546,82.042,83.435,81.73,83.435z M82.29,84.565h-1.312
				      c0.051-0.252,0.144-0.44,0.271-0.571c0.129-0.127,0.283-0.193,0.459-0.193s0.316,0.064,0.422,0.189
				      c0.105,0.127,0.158,0.299,0.158,0.512L82.29,84.565L82.29,84.565z"/>
	      <path fill="#FFFFFF" d="M83.844,83.832c-0.26,0.264-0.391,0.594-0.391,0.992c0,0.266,0.059,0.502,0.172,0.711
				      c0.115,0.207,0.275,0.371,0.48,0.493c0.203,0.121,0.438,0.183,0.701,0.183c0.266,0,0.545-0.051,0.838-0.148V85.64
				      c-0.25,0.085-0.42,0.134-0.513,0.146c-0.094,0.014-0.188,0.021-0.282,0.021c-0.316,0-0.55-0.106-0.697-0.322
				      c-0.148-0.215-0.223-0.44-0.223-0.678c0-0.177,0.038-0.351,0.114-0.519s0.187-0.291,0.326-0.371
				      c0.144-0.078,0.293-0.119,0.453-0.119c0.239,0,0.516,0.07,0.819,0.211v-0.422c-0.303-0.103-0.59-0.152-0.86-0.152
				      C84.417,83.435,84.104,83.567,83.844,83.832z"/>
	      <path fill="#FFFFFF" d="M90.348,83.596c-0.176,0.106-0.332,0.271-0.469,0.485v-0.574h-0.438v2.629h0.438v-1.527
				      c0.148-0.257,0.301-0.449,0.459-0.578c0.156-0.129,0.316-0.191,0.479-0.191c0.043,0,0.103,0.006,0.177,0.018v0.602h0.42
				      v-0.949c-0.158-0.049-0.315-0.072-0.476-0.072C90.721,83.435,90.523,83.49,90.348,83.596z"/>
	      <path fill="#FFFFFF" d="M93.542,84.669l-0.297-0.106c-0.203-0.073-0.351-0.142-0.438-0.194
				      c-0.092-0.058-0.139-0.134-0.139-0.228c0-0.099,0.053-0.179,0.158-0.244c0.104-0.063,0.248-0.099,0.436-0.099
				      c0.254,0,0.525,0.054,0.814,0.156v-0.396c-0.252-0.082-0.518-0.123-0.799-0.123c-0.375,0-0.646,0.07-0.814,0.21
				      c-0.166,0.14-0.25,0.317-0.25,0.534c0,0.152,0.043,0.283,0.129,0.391s0.291,0.227,0.617,0.354l0.303,0.119l0.152,0.062
				      c0.18,0.072,0.293,0.135,0.338,0.186s0.068,0.11,0.068,0.183c0,0.104-0.049,0.194-0.146,0.267
				      c-0.097,0.072-0.256,0.107-0.477,0.107c-0.137,0-0.303-0.021-0.5-0.069c-0.195-0.047-0.383-0.127-0.557-0.241V86
				      c0.354,0.143,0.698,0.213,1.034,0.213c0.386,0,0.664-0.073,0.839-0.221c0.176-0.146,0.264-0.334,0.264-0.562
				      c0-0.175-0.057-0.318-0.164-0.437C94.002,84.876,93.812,84.77,93.542,84.669z"/>
	      <path fill="#FFFFFF" d="M96.404,83.435c-0.157,0-0.329,0.057-0.516,0.167c-0.188,0.11-0.348,0.276-0.481,0.497v-0.592h-0.438
				      v3.65h0.438v-1.021c0.051,0.005,0.088,0.009,0.112,0.013c0.17,0.019,0.295,0.024,0.377,0.024c0.287,0,0.527-0.068,0.724-0.209
				      c0.192-0.139,0.351-0.328,0.467-0.565c0.115-0.239,0.177-0.511,0.177-0.815c0-0.385-0.089-0.674-0.267-0.862
				      C96.82,83.531,96.624,83.435,96.404,83.435z M96.514,85.498c-0.182,0.209-0.404,0.312-0.67,0.312
				      c-0.133,0-0.279-0.021-0.438-0.062v-1.127c0.131-0.233,0.279-0.42,0.443-0.56s0.313-0.207,0.45-0.207
				      c0.125,0,0.238,0.065,0.336,0.196c0.101,0.134,0.148,0.33,0.148,0.593C96.786,85.003,96.695,85.291,96.514,85.498z"/>
	    </g>
	  </g>
	</g>
      </g>
      <circle fill="none" stroke="#E7E8E6" stroke-width="2.6961" stroke-miterlimit="10" cx="47.852" cy="48.043" r="45.986"/>
    </g>
    <g class="getting-started-hidden">
      <circle fill="#34A665" cx="16.017" cy="88.016" r="14.151"/>
      <g enable-background="new    ">
	<path fill="#FFFFFF" d="M13.478,91.548c2.689-2.675,4.202-4.286,4.202-5.729c0-1.023-0.561-1.751-1.695-1.751
				c-0.743,0-1.387,0.476-1.905,1.078l-0.658-0.658c0.742-0.812,1.541-1.358,2.703-1.358c1.653,0,2.676,1.05,2.676,2.633
				c0,1.681-1.527,3.348-3.642,5.562c0.49-0.042,1.037-0.084,1.499-0.084h2.591v0.994h-5.771V91.548z"/>
      </g>
    </g>
  </g>
</svg>
