<svg version="1.1" id="Layer_1" xmlns="http://www.w3.org/2000/svg" xmlns:xlink="http://www.w3.org/1999/xlink" x="0px" y="0px"
     width="95.5px" height="102.167px" viewBox="0 0 95.5 102.167" enable-background="new 0 0 95.5 102.167" xml:space="preserve">
  <g>
    <g>
      <g>
	<defs>
	  <circle id="SVGID_1_" cx="47.852" cy="47.758" r="45.986"/>
	</defs>
	<clipPath id="SVGID_2_">
	  <use xlink:href="#SVGID_1_"  overflow="visible"/>
	</clipPath>
	<g clip-path="url(#SVGID_2_)">
	  <rect x="-31.067" y="-10.422" fill="#FFFFFF" width="139.824" height="115.677"/>
	</g>
      </g>
    </g>
  </g>
  <g>
    <circle fill="none" stroke="#E7E8E6" stroke-width="2.6961" stroke-miterlimit="10" cx="47.852" cy="47.758" r="45.986"/>
  </g>
  <g class="getting-started-hidden">
    <circle fill="#34A665" cx="16.018" cy="87.731" r="14.151"/>
    <g enable-background="new    ">
      <path fill="#FFFFFF" d="M14.024,90.999h2.045v-6.584h-1.625v-0.742c0.812-0.141,1.401-0.364,1.891-0.658h0.882v7.984h1.849v0.952
			      h-5.043V90.999z"/>
    </g>
  </g>
  <g>
    <g enable-background="new    ">
      <path fill="#575757" d="M79.821,45.512h-0.86v-0.741l0.908-0.06l0.119-1.625h0.824v1.625h1.565v0.801h-1.565v3.226
			      c0,0.717,0.228,1.123,0.896,1.123c0.203,0,0.466-0.084,0.657-0.155l0.19,0.741c-0.322,0.107-0.717,0.215-1.074,0.215
			      c-1.243,0-1.661-0.789-1.661-1.936V45.512z"/>
      <path fill="#575757" d="M83.691,44.711h0.812l0.084,1.052h0.035c0.395-0.729,0.992-1.195,1.649-1.195
			      c0.251,0,0.431,0.036,0.621,0.12l-0.19,0.859c-0.191-0.06-0.323-0.095-0.562-0.095c-0.49,0-1.075,0.358-1.469,1.338v3.728h-0.98
			      V44.711z"/>
      <path fill="#575757" d="M90.812,46.838c0-0.741-0.251-1.458-1.194-1.458c-0.682,0-1.279,0.311-1.732,0.621l-0.395-0.681
			      c0.537-0.347,1.35-0.753,2.282-0.753c1.421,0,2.019,0.944,2.019,2.39v3.561h-0.812l-0.083-0.693h-0.024
			      c-0.561,0.454-1.207,0.837-1.924,0.837c-0.979,0-1.708-0.609-1.708-1.649C87.239,47.747,88.338,47.113,90.812,46.838z
			      M89.223,49.873c0.562,0,1.027-0.274,1.589-0.776v-1.613c-1.947,0.239-2.604,0.718-2.604,1.458
			      C88.207,49.598,88.648,49.873,89.223,49.873z"/>
    </g>
    <g>
      <path fill="#B0B0B2" d="M72.991,45.847c-0.021,0-0.56,0-1.195,0s-0.791-0.369-0.34-0.819c0.451-0.451,0.832-0.831,0.844-0.845
			      c0.017-0.014,0.017-0.037,0-0.051c-0.012-0.014-0.375-0.376-0.805-0.806c-0.431-0.429-0.791-0.792-0.808-0.806
			      c-0.014-0.014-0.035-0.014-0.051,0c-0.014,0.014-0.393,0.394-0.844,0.844c-0.449,0.451-0.818,0.297-0.818-0.339
			      c0-0.638,0-1.174,0-1.194s-0.018-0.036-0.037-0.036c-0.019,0-0.53,0-1.139,0c-0.607,0-1.119,0-1.141,0
			      c-0.018,0-0.035,0.016-0.035,0.036s0,0.556,0,1.194c0,0.636-0.369,0.79-0.818,0.339c-0.451-0.451-0.83-0.83-0.846-0.844
			      c-0.014-0.014-0.037-0.014-0.051,0s-0.377,0.377-0.805,0.806c-0.431,0.43-0.793,0.792-0.808,0.806
			      c-0.014,0.014-0.014,0.037,0,0.051c0.015,0.014,0.396,0.394,0.847,0.845c0.45,0.45,0.297,0.819-0.341,0.819
			      c-0.639,0-1.176,0-1.192,0c-0.021,0-0.037,0.017-0.037,0.037c0,0.019,0,0.532,0,1.139s0,1.12,0,1.138
			      c0,0.021,0.016,0.037,0.037,0.037c0.018,0,0.555,0,1.192,0s0.791,0.368,0.341,0.819c-0.451,0.45-0.832,0.83-0.847,0.845
			      c-0.014,0.014-0.014,0.037,0,0.051c0.015,0.014,0.377,0.377,0.808,0.806c0.428,0.429,0.791,0.792,0.805,0.806s0.037,0.014,0.051,0
			      c0.016-0.014,0.395-0.395,0.846-0.844c0.449-0.451,0.818-0.299,0.818,0.338c0,0.639,0,1.174,0,1.195
			      c0,0.02,0.018,0.035,0.035,0.035c0.021,0,0.533,0,1.141,0c0.608,0,1.119,0,1.139,0c0.021,0,0.037-0.017,0.037-0.035
			      c0-0.021,0-0.557,0-1.195c0-0.637,0.369-0.789,0.818-0.338c0.451,0.449,0.832,0.83,0.844,0.843c0.016,0.015,0.037,0.015,0.051,0
			      c0.017-0.013,0.377-0.376,0.808-0.805c0.43-0.429,0.793-0.792,0.805-0.806c0.017-0.014,0.017-0.037,0-0.051
			      c-0.012-0.015-0.393-0.395-0.844-0.845c-0.451-0.451-0.297-0.819,0.34-0.819c0.638,0,1.175,0,1.195,0
			      c0.02,0,0.034-0.016,0.034-0.037c0-0.019,0-0.531,0-1.138s0-1.12,0-1.139C73.025,45.864,73.01,45.847,72.991,45.847z
			      M67.877,48.743c-0.969,0-1.756-0.787-1.756-1.755c0-0.97,0.787-1.756,1.756-1.756s1.756,0.786,1.756,1.756
			      C69.633,47.956,68.846,48.743,67.877,48.743z"/>
    </g>
    <g>
      <g>
	<path fill="#B7D5B6" d="M56.484,54.819c0,1.161-0.95,2.111-2.111,2.111H12.607c-1.162,0-2.112-0.95-2.112-2.111V38.138
				c0-1.162,0.95-2.112,2.112-2.112h41.766c1.161,0,2.111,0.95,2.111,2.112V54.819z"/>
      </g>
      <g>
	<path fill="#3AA85B" d="M33.145,53.439c0,0.641-0.523,1.163-1.164,1.163H13.946c-0.64,0-1.164-0.522-1.164-1.163V39.477
				c0-0.64,0.523-1.164,1.164-1.164h18.035c0.64,0,1.164,0.523,1.164,1.164V53.439z"/>
      </g>
      <path fill="#FFFFFF" d="M27.93,43.063c0.134-0.213,0.071-0.504-0.14-0.641l-1.346-0.881c-0.211-0.136-0.493-0.073-0.63,0.141
			      l-3.866,6.176c-0.138,0.215-0.419,0.277-0.629,0.139L19.12,46.55c-0.209-0.135-0.495-0.076-0.629,0.141l-0.869,1.387
			      c-0.139,0.214-0.076,0.506,0.133,0.644l3.445,2.282c0.211,0.139,0.582,0.209,0.83,0.152l0.516-0.114
			      c0.244-0.052,0.557-0.272,0.689-0.489L27.93,43.063z"/>
    </g>
  </g>
  <g>
    <g>
      <g>
	<g>
	  <rect x="50.816" y="56.623" fill="#FFFFFF" width="0.009" height="0.019"/>
	  <polygon fill="#FFFFFF" points="46.083,60.809 46.649,60.755 46.651,60.781 46.704,61.352 47.268,61.298 47.381,62.541
					  47.936,62.49 48.047,63.714 48.29,63.692 48.613,63.666 48.727,64.917 49.293,64.867 49.409,66.119 53.936,65.705
					  53.823,64.453 54.374,64.401 54.204,62.528 54.756,62.477 54.366,58.218 54.191,58.235 54.191,58.233 53.799,58.268
					  53.743,57.649 53.189,57.701 53.189,57.696 53.189,57.696 53.357,59.535 52.792,59.583 52.566,57.108 52.559,57.108
					  52.559,57.112 51.434,57.214 51.604,59.069 51.038,59.121 50.811,56.647 49.678,56.75 49.907,59.223 49.338,59.276
					  48.833,53.731 47.713,53.833 48.194,59.089 48.18,59.089 48.432,61.846 47.868,61.897 47.702,60.078 47.135,60.128
					  47.133,60.104 47.127,60.104 47.071,59.483 45.959,59.585 46.073,60.833 46.084,60.833 				"/>
	</g>
	<g>
	  <polygon fill="#231F20" points="49.338,59.276 49.907,59.223 49.678,56.75 50.811,56.647 51.038,59.121 51.604,59.069
					  51.434,57.214 52.559,57.112 52.502,56.494 51.377,56.596 51.377,56.589 50.816,56.641 50.762,56.026 49.624,56.13
					  49.396,53.671 48.857,53.721 48.803,53.108 47.657,53.212 47.713,53.833 48.833,53.731 				"/>

	  <rect x="52.679" y="57.078" transform="matrix(-0.9957 0.093 -0.093 -0.9957 111.1204 111.466)" fill="#231F20" width="0.567" height="2.489"/>
	  <polygon fill="#231F20" points="54.93,58.139 54.363,58.192 54.307,57.569 53.754,57.621 53.698,57 53.131,57.05 53.189,57.701
					  53.743,57.649 53.799,58.268 54.366,58.216 54.756,62.477 54.204,62.528 54.374,64.401 53.823,64.453 53.936,65.705
					  49.409,66.119 49.293,64.867 48.727,64.917 48.613,63.666 48.047,63.714 47.936,62.49 47.381,62.541 47.268,61.298
					  46.704,61.352 46.649,60.755 46.083,60.809 46.141,61.457 46.708,61.406 46.821,62.63 47.372,62.583 47.485,63.821
					  48.051,63.77 48.165,64.998 48.729,64.944 48.9,66.805 49.465,66.751 49.465,66.74 53.993,66.326 53.995,66.337 54.561,66.289
					  54.389,64.414 54.941,64.362 54.771,62.501 55.325,62.453 				"/>
	  <polygon fill="#231F20" points="47.075,59.483 47.135,60.128 47.702,60.078 47.868,61.897 48.432,61.846 47.7,53.83
					  47.133,53.878 47.641,59.43 47.096,59.479 47.04,58.862 45.901,58.964 45.901,58.962 45.334,59.016 45.504,60.889
					  46.071,60.835 45.958,59.585 				"/>
	</g>
      </g>
    </g>
  </g>
</svg>
