<?xml version="1.0" encoding="utf-8"?>
<!-- Generator: Adobe Illustrator 16.0.4, SVG Export Plug-In . SVG Version: 6.00 Build 0)  -->
<!DOCTYPE svg PUBLIC "-//W3C//DTD SVG 1.1//EN" "http://www.w3.org/Graphics/SVG/1.1/DTD/svg11.dtd">
<svg version="1.1" id="Layer_1" xmlns="http://www.w3.org/2000/svg" xmlns:xlink="http://www.w3.org/1999/xlink" x="0px" y="0px"
	 width="95.5px" height="102.167px" viewBox="0 0 95.5 102.167" enable-background="new 0 0 95.5 102.167" xml:space="preserve">
<g>
	<g>
		<defs>
			<circle id="SVGID_1_" cx="47.852" cy="47.758" r="45.986"/>
		</defs>
		<clipPath id="SVGID_2_">
			<use xlink:href="#SVGID_1_"  overflow="visible"/>
		</clipPath>
		<g clip-path="url(#SVGID_2_)">
			<rect x="-31.067" y="-10.422" fill="#FFFFFF" width="139.824" height="115.678"/>
		</g>
	</g>
</g>
<g>
	<circle fill="none" stroke="#E7E8E6" stroke-width="2.6961" stroke-miterlimit="10" cx="47.852" cy="47.758" r="45.986"/>
</g>
<g>
	<circle fill="#34A665" cx="16.018" cy="87.731" r="14.151"/>
	<text transform="matrix(1 0 0 1 12.9175 91.9507)" fill="#FFFFFF" font-family="'SourceSansPro-Regular'" font-size="14">1</text>
</g>
<g>
	<text transform="matrix(1 0 0 1 78.6743 50.5181)" fill="#575757" font-family="'SourceSansPro-Regular'" font-size="11.9454">tra</text>
	<g>
		<path fill="#B0B0B2" d="M72.991,45.847c-0.021,0-0.559,0-1.195,0s-0.791-0.369-0.34-0.819c0.451-0.451,0.832-0.831,0.844-0.845
			c0.016-0.014,0.016-0.037,0-0.051c-0.012-0.014-0.375-0.376-0.805-0.806c-0.43-0.429-0.791-0.792-0.807-0.806
			c-0.014-0.014-0.035-0.014-0.051,0c-0.014,0.014-0.393,0.394-0.844,0.844c-0.449,0.451-0.818,0.297-0.818-0.339
			c0-0.638,0-1.174,0-1.194c0-0.02-0.018-0.036-0.037-0.036s-0.531,0-1.139,0s-1.119,0-1.141,0c-0.018,0-0.035,0.016-0.035,0.036
			c0,0.02,0,0.556,0,1.194c0,0.636-0.369,0.79-0.818,0.339c-0.451-0.451-0.83-0.83-0.846-0.844c-0.014-0.014-0.037-0.014-0.051,0
			s-0.377,0.377-0.805,0.806c-0.43,0.43-0.793,0.792-0.807,0.806s-0.014,0.037,0,0.051s0.395,0.394,0.846,0.845
			c0.451,0.45,0.297,0.819-0.34,0.819c-0.639,0-1.176,0-1.193,0c-0.021,0-0.037,0.017-0.037,0.037c0,0.019,0,0.532,0,1.139
			s0,1.12,0,1.138c0,0.021,0.016,0.037,0.037,0.037c0.018,0,0.555,0,1.193,0c0.637,0,0.791,0.368,0.34,0.819
			c-0.451,0.45-0.832,0.83-0.846,0.845c-0.014,0.014-0.014,0.037,0,0.051s0.377,0.377,0.807,0.806
			c0.428,0.429,0.791,0.792,0.805,0.806s0.037,0.014,0.051,0c0.016-0.014,0.395-0.395,0.846-0.844
			c0.449-0.451,0.818-0.299,0.818,0.338c0,0.639,0,1.174,0,1.195c0,0.02,0.018,0.035,0.035,0.035c0.021,0,0.533,0,1.141,0
			s1.119,0,1.139,0s0.037-0.016,0.037-0.035c0-0.021,0-0.557,0-1.195c0-0.637,0.369-0.789,0.818-0.338
			c0.451,0.449,0.832,0.83,0.844,0.843c0.016,0.015,0.037,0.015,0.051,0c0.016-0.013,0.377-0.376,0.807-0.805
			s0.793-0.792,0.805-0.806c0.016-0.014,0.016-0.037,0-0.051c-0.012-0.015-0.393-0.395-0.844-0.845
			c-0.451-0.451-0.297-0.819,0.34-0.819s1.174,0,1.195,0c0.02,0,0.035-0.016,0.035-0.037c0-0.019,0-0.531,0-1.138s0-1.12,0-1.139
			C73.026,45.864,73.01,45.847,72.991,45.847z M67.877,48.743c-0.969,0-1.756-0.787-1.756-1.755c0-0.97,0.787-1.756,1.756-1.756
			s1.756,0.786,1.756,1.756C69.633,47.956,68.846,48.743,67.877,48.743z"/>
	</g>
	<g>
		<g>
			<path fill="#B7D5B6" d="M56.485,54.819c0,1.161-0.951,2.111-2.112,2.111H12.607c-1.162,0-2.112-0.95-2.112-2.111V38.138
				c0-1.162,0.95-2.112,2.112-2.112h41.766c1.161,0,2.112,0.95,2.112,2.112V54.819z"/>
		</g>
		<g>
			<path fill="#3AA85B" d="M33.145,53.439c0,0.64-0.523,1.163-1.164,1.163H13.946c-0.64,0-1.164-0.523-1.164-1.163V39.477
				c0-0.64,0.523-1.164,1.164-1.164h18.035c0.64,0,1.164,0.523,1.164,1.164V53.439z"/>
		</g>
		<path fill="#FFFFFF" d="M27.93,43.063c0.134-0.213,0.071-0.504-0.14-0.641l-1.346-0.881c-0.211-0.136-0.493-0.073-0.63,0.141
			l-3.866,6.176c-0.138,0.215-0.419,0.277-0.629,0.139l-2.199-1.447c-0.209-0.135-0.495-0.076-0.629,0.141l-0.869,1.387
			c-0.139,0.214-0.076,0.506,0.133,0.644l3.445,2.282c0.211,0.139,0.582,0.209,0.83,0.152l0.516-0.114
			c0.244-0.052,0.557-0.272,0.689-0.489L27.93,43.063z"/>
	</g>
</g>
<g>
	
		<image overflow="visible" opacity="0.3" width="71" height="87" xlink:href="8DC2F77BF9B6C697.png"  transform="matrix(0.24 0 0 0.24 41.8345 49.6079)">
	</image>
	<g>
		<g>
			<g>
				<rect x="50.817" y="56.623" fill="#FFFFFF" width="0.008" height="0.018"/>
				<polygon fill="#FFFFFF" points="46.083,60.809 46.649,60.756 46.651,60.78 46.704,61.352 47.268,61.299 47.381,62.54 
					47.936,62.489 48.047,63.715 48.29,63.692 48.614,63.665 48.727,64.917 49.293,64.866 49.409,66.118 53.936,65.704 
					53.823,64.452 54.374,64.401 54.204,62.528 54.756,62.477 54.366,58.219 54.192,58.235 54.192,58.233 53.799,58.268 
					53.743,57.649 53.19,57.7 53.19,57.696 53.19,57.696 53.358,59.534 52.792,59.584 52.567,57.108 52.559,57.108 52.559,57.112 
					51.434,57.215 51.604,59.069 51.038,59.12 50.811,56.647 49.678,56.75 49.907,59.223 49.338,59.276 48.833,53.731 
					47.713,53.833 48.194,59.09 48.18,59.09 48.432,61.846 47.868,61.897 47.702,60.077 47.135,60.129 47.133,60.104 47.127,60.104 
					47.071,59.483 45.959,59.586 46.073,60.833 46.084,60.833 				"/>
			</g>
			<g>
				<polygon fill="#231F20" points="49.338,59.276 49.907,59.223 49.678,56.75 50.811,56.647 51.038,59.12 51.604,59.069 
					51.434,57.215 52.559,57.112 52.502,56.493 51.377,56.596 51.377,56.59 50.817,56.641 50.762,56.026 49.624,56.131 
					49.397,53.672 48.858,53.721 48.803,53.108 47.657,53.213 47.713,53.833 48.833,53.731 				"/>
				
					<rect x="52.678" y="57.075" transform="matrix(0.9957 -0.093 0.093 0.9957 -5.1952 5.1794)" fill="#231F20" width="0.567" height="2.489"/>
				<polygon fill="#231F20" points="54.93,58.139 54.364,58.192 54.307,57.569 53.754,57.62 53.698,57 53.131,57.051 53.19,57.7 
					53.743,57.649 53.799,58.268 54.366,58.217 54.756,62.477 54.204,62.528 54.374,64.401 53.823,64.452 53.936,65.704 
					49.409,66.118 49.293,64.866 48.727,64.917 48.614,63.665 48.047,63.715 47.936,62.489 47.381,62.54 47.268,61.299 
					46.704,61.352 46.649,60.756 46.083,60.809 46.141,61.456 46.708,61.405 46.821,62.631 47.372,62.583 47.485,63.821 
					48.051,63.77 48.165,64.997 48.729,64.944 48.901,66.805 49.465,66.752 49.465,66.739 53.993,66.325 53.995,66.338 
					54.561,66.288 54.389,64.413 54.942,64.362 54.772,62.502 55.325,62.452 				"/>
				<polygon fill="#231F20" points="47.075,59.483 47.135,60.129 47.702,60.077 47.868,61.897 48.432,61.846 47.7,53.829 
					47.133,53.879 47.641,59.43 47.096,59.479 47.04,58.862 45.901,58.965 45.901,58.963 45.334,59.016 45.504,60.889 
					46.071,60.836 45.958,59.586 				"/>
			</g>
		</g>
	</g>
</g>
</svg>
