<?xml version="1.0" encoding="utf-8"?>
<!-- Generator: Adobe Illustrator 16.0.4, SVG Export Plug-In . SVG Version: 6.00 Build 0)  -->
<!DOCTYPE svg PUBLIC "-//W3C//DTD SVG 1.1//EN" "http://www.w3.org/Graphics/SVG/1.1/DTD/svg11.dtd">
<svg version="1.1" id="Layer_1" xmlns="http://www.w3.org/2000/svg" xmlns:xlink="http://www.w3.org/1999/xlink" x="0px" y="0px"
	 width="95.5px" height="102.167px" viewBox="0 0 95.5 102.167" enable-background="new 0 0 95.5 102.167" xml:space="preserve">
<g>
	<g>
		<g>
			<g>
				<defs>
					<circle id="SVGID_1_" cx="47.852" cy="48.139" r="45.986"/>
				</defs>
				<clipPath id="SVGID_2_">
					<use xlink:href="#SVGID_1_"  overflow="visible"/>
				</clipPath>
				<g clip-path="url(#SVGID_2_)">
					<polygon fill="#49494A" points="245.844,147.396 -24.516,147.396 -4.5,-5.964 245.844,-5.964 					"/>
					<g>
						<path fill="#FFFFFF" d="M15.926,52.707v-0.563c-0.16,0-0.325-0.009-0.5-0.025c-0.172-0.017-0.333-0.043-0.485-0.077
							c-0.149-0.034-0.324-0.096-0.521-0.185v-0.689c0.159,0.082,0.314,0.151,0.466,0.209c0.151,0.059,0.312,0.104,0.482,0.137
							s0.354,0.058,0.558,0.07v-1.996l-0.385-0.209c-0.729-0.389-1.093-0.86-1.093-1.412c0-0.295,0.122-0.58,0.363-0.859
							s0.613-0.439,1.114-0.482v-0.595h0.502v0.595c0.283,0,0.617,0.05,1.003,0.146v0.621l-0.125-0.036
							c-0.361-0.101-0.653-0.161-0.878-0.183v1.951l0.404,0.23c0.377,0.217,0.638,0.43,0.777,0.642c0.142,0.21,0.21,0.433,0.21,0.67
							c0,0.213-0.052,0.419-0.161,0.618c-0.104,0.201-0.259,0.371-0.455,0.516c-0.202,0.145-0.459,0.242-0.775,0.298v0.609H15.926z
							 M15.926,48.823v-1.658c-0.242,0.056-0.427,0.146-0.558,0.273c-0.13,0.127-0.196,0.273-0.196,0.444
							c0,0.16,0.058,0.313,0.168,0.462C15.451,48.491,15.646,48.651,15.926,48.823z M16.428,49.883v1.65
							c0.261-0.094,0.438-0.207,0.529-0.342c0.093-0.136,0.138-0.287,0.138-0.454c0-0.163-0.045-0.302-0.136-0.419
							C16.867,50.203,16.691,50.058,16.428,49.883z"/>
						<path fill="#FFFFFF" d="M25.894,51.25c-0.203,0.334-0.45,0.587-0.734,0.757c-0.287,0.169-0.549,0.253-0.788,0.253
							c-0.337,0-0.638-0.144-0.905-0.433c-0.265-0.29-0.399-0.729-0.399-1.316c0-0.464,0.09-0.878,0.266-1.241
							c0.179-0.365,0.413-0.653,0.711-0.867c0.297-0.21,0.666-0.316,1.104-0.316c0.126,0,0.318,0.014,0.572,0.041
							c0.04,0.004,0.096,0.01,0.172,0.018h0.669v2.832c0,0.674-0.009,1.087-0.026,1.235c-0.017,0.15-0.045,0.302-0.085,0.454
							c-0.094,0.355-0.313,0.638-0.656,0.844c-0.339,0.205-0.752,0.308-1.235,0.308c-0.486,0-0.977-0.124-1.477-0.372V52.77
							c0.19,0.129,0.423,0.244,0.698,0.344c0.278,0.1,0.546,0.148,0.804,0.148c0.204,0,0.396-0.033,0.579-0.098
							c0.18-0.063,0.327-0.156,0.44-0.278c0.111-0.122,0.188-0.264,0.23-0.425c0.039-0.162,0.062-0.377,0.062-0.645V51.25z
							 M25.894,50.458v-1.723c-0.237-0.061-0.459-0.091-0.663-0.091c-0.409,0-0.754,0.159-1.028,0.478
							c-0.273,0.317-0.412,0.75-0.412,1.299c0,0.397,0.077,0.697,0.225,0.899c0.15,0.201,0.321,0.304,0.514,0.304
							c0.208,0,0.439-0.105,0.689-0.316C25.469,51.096,25.695,50.813,25.894,50.458z"/>
						<path fill="#FFFFFF" d="M28.743,52.15v-3.449h-1.111v-0.555h1.778v3.449h1.116v0.556H28.743z M28.636,46.697
							c0-0.149,0.051-0.262,0.155-0.335c0.102-0.073,0.198-0.111,0.289-0.111c0.092,0,0.19,0.038,0.293,0.111
							c0.101,0.073,0.153,0.186,0.153,0.335c0,0.147-0.053,0.259-0.153,0.333c-0.103,0.072-0.201,0.109-0.293,0.109
							c-0.091,0-0.188-0.037-0.289-0.109C28.687,46.956,28.636,46.845,28.636,46.697z"/>
						<path fill="#FFFFFF" d="M35.378,51.989c-0.311,0.133-0.539,0.209-0.68,0.234c-0.142,0.025-0.278,0.037-0.409,0.037
							c-0.281,0-0.536-0.053-0.769-0.16s-0.406-0.268-0.523-0.477c-0.119-0.211-0.181-0.535-0.181-0.975v-1.615h-1v-0.556h1v-1.613
							h0.669v1.613h1.782v0.556h-1.782v1.603c0,0.323,0.038,0.551,0.115,0.684c0.076,0.132,0.179,0.23,0.306,0.293
							c0.129,0.062,0.279,0.093,0.454,0.093c0.322,0,0.662-0.102,1.018-0.305V51.989z"/>
						<path fill="#FFFFFF" d="M41.459,49.045c0.209-0.336,0.453-0.587,0.736-0.757c0.285-0.17,0.547-0.254,0.785-0.254
							c0.336,0,0.639,0.145,0.904,0.434c0.268,0.29,0.402,0.728,0.402,1.314c0,0.465-0.088,0.88-0.268,1.244
							c-0.176,0.364-0.414,0.653-0.713,0.864c-0.295,0.212-0.664,0.317-1.102,0.317c-0.123,0-0.312-0.013-0.572-0.038
							c-0.039-0.006-0.096-0.013-0.174-0.02v1.557h-0.664v-5.561h0.664V49.045z M41.459,49.839v1.72
							c0.242,0.062,0.465,0.092,0.668,0.092c0.404,0,0.746-0.158,1.021-0.475s0.414-0.751,0.414-1.303
							c0-0.398-0.076-0.699-0.225-0.9c-0.15-0.201-0.324-0.302-0.514-0.302c-0.207,0-0.438,0.105-0.688,0.315
							C41.889,49.198,41.663,49.483,41.459,49.839z"/>
						<path fill="#FFFFFF" d="M48.547,48.146v4.004h-0.666v-0.879c-0.217,0.331-0.455,0.577-0.717,0.743
							c-0.264,0.165-0.527,0.246-0.789,0.246c-0.234,0-0.449-0.062-0.643-0.188c-0.197-0.125-0.332-0.291-0.41-0.495
							c-0.076-0.203-0.115-0.601-0.115-1.196v-2.236h0.67v2.32c0,0.385,0.018,0.639,0.055,0.762s0.105,0.224,0.205,0.303
							c0.1,0.078,0.205,0.119,0.32,0.119c0.232,0,0.486-0.111,0.754-0.332c0.271-0.223,0.492-0.5,0.67-0.838v-2.333H48.547z"/>
						<path fill="#FFFFFF" d="M49.708,51.938v-0.705c0.266,0.174,0.549,0.297,0.848,0.365c0.299,0.072,0.555,0.107,0.762,0.107
							c0.338,0,0.58-0.055,0.729-0.162c0.146-0.109,0.223-0.244,0.223-0.408c0-0.107-0.035-0.199-0.105-0.275
							c-0.068-0.076-0.242-0.172-0.516-0.283l-0.23-0.094l-0.463-0.184c-0.496-0.193-0.811-0.372-0.938-0.538
							c-0.133-0.162-0.199-0.36-0.199-0.595c0-0.33,0.131-0.601,0.383-0.814c0.254-0.213,0.67-0.318,1.242-0.318
							c0.428,0,0.832,0.062,1.217,0.186v0.605c-0.441-0.157-0.854-0.235-1.242-0.235c-0.285,0-0.506,0.05-0.662,0.149
							c-0.16,0.098-0.24,0.221-0.24,0.37c0,0.144,0.068,0.258,0.209,0.345c0.135,0.086,0.355,0.184,0.666,0.297l0.451,0.166
							c0.416,0.15,0.707,0.314,0.871,0.49c0.168,0.177,0.252,0.399,0.252,0.664c0,0.346-0.133,0.632-0.4,0.854
							c-0.266,0.225-0.693,0.335-1.277,0.335C50.772,52.26,50.247,52.155,49.708,51.938z"/>
						<path fill="#FFFFFF" d="M54.069,52.15v-5.788h0.666v2.656c0.189-0.307,0.422-0.548,0.691-0.722
							c0.27-0.175,0.543-0.262,0.812-0.262c0.227,0,0.434,0.057,0.619,0.174c0.191,0.116,0.32,0.257,0.395,0.422
							c0.059,0.126,0.102,0.259,0.121,0.403c0.021,0.142,0.033,0.435,0.033,0.88v2.237h-0.668v-2.32
							c0-0.386-0.018-0.638-0.055-0.763c-0.039-0.123-0.105-0.223-0.203-0.302c-0.1-0.079-0.209-0.119-0.326-0.119
							c-0.234,0-0.486,0.112-0.754,0.334c-0.27,0.221-0.492,0.5-0.666,0.835v2.334H54.069z"/>
						<path fill="#FFFFFF" d="M64.532,52.26c-0.574,0-1.031-0.198-1.377-0.6c-0.344-0.4-0.516-0.905-0.516-1.516
							c0-0.609,0.172-1.113,0.516-1.512c0.346-0.399,0.803-0.599,1.377-0.599c0.57,0,1.027,0.199,1.373,0.599
							c0.342,0.399,0.514,0.903,0.514,1.512c0,0.61-0.172,1.115-0.514,1.516C65.559,52.062,65.102,52.26,64.532,52.26z
							 M64.532,51.706c0.355,0,0.637-0.139,0.848-0.416c0.209-0.277,0.314-0.659,0.314-1.145c0-0.482-0.105-0.863-0.314-1.141
							c-0.211-0.277-0.492-0.415-0.848-0.415c-0.357,0-0.643,0.137-0.852,0.415c-0.213,0.277-0.316,0.658-0.316,1.141
							c0,0.485,0.104,0.867,0.316,1.145C63.889,51.567,64.174,51.706,64.532,51.706z"/>
						<path fill="#FFFFFF" d="M67.631,52.15v-4.004h0.666v0.873c0.211-0.329,0.447-0.575,0.717-0.738
							c0.27-0.165,0.568-0.246,0.898-0.246c0.24,0,0.484,0.037,0.725,0.111v1.445h-0.643v-0.914c-0.113-0.019-0.201-0.03-0.266-0.03
							c-0.248,0-0.492,0.098-0.732,0.293c-0.238,0.197-0.471,0.491-0.699,0.883v2.327H67.631z"/>
						<path fill="#FFFFFF" d="M72.823,52.15v-3.449h-1.113v-0.555h1.779v3.449h1.115v0.556H72.823z M72.713,46.697
							c0-0.149,0.053-0.262,0.152-0.335c0.105-0.073,0.201-0.111,0.291-0.111c0.094,0,0.191,0.038,0.291,0.111
							c0.104,0.073,0.156,0.186,0.156,0.335c0,0.147-0.053,0.259-0.156,0.333c-0.1,0.072-0.197,0.109-0.291,0.109
							c-0.09,0-0.186-0.037-0.291-0.109C72.766,46.956,72.713,46.845,72.713,46.697z"/>
						<path fill="#FFFFFF" d="M78.786,51.25c-0.203,0.334-0.447,0.587-0.734,0.757c-0.287,0.169-0.551,0.253-0.789,0.253
							c-0.334,0-0.637-0.144-0.902-0.433c-0.268-0.29-0.4-0.729-0.4-1.316c0-0.464,0.088-0.878,0.266-1.241
							c0.176-0.365,0.414-0.653,0.711-0.867c0.297-0.21,0.664-0.316,1.102-0.316c0.127,0,0.318,0.014,0.574,0.041
							c0.037,0.004,0.096,0.01,0.17,0.018h0.67v2.832c0,0.674-0.008,1.087-0.025,1.235c-0.018,0.15-0.045,0.302-0.086,0.454
							c-0.096,0.355-0.314,0.638-0.652,0.844c-0.344,0.205-0.756,0.308-1.238,0.308c-0.488,0-0.979-0.124-1.475-0.372V52.77
							c0.188,0.129,0.42,0.244,0.699,0.344c0.275,0.1,0.543,0.148,0.801,0.148c0.203,0,0.395-0.033,0.576-0.098
							c0.184-0.063,0.33-0.156,0.443-0.278s0.189-0.264,0.229-0.425c0.043-0.162,0.062-0.377,0.062-0.645V51.25z M78.786,50.458
							v-1.723c-0.238-0.061-0.457-0.091-0.66-0.091c-0.412,0-0.756,0.159-1.031,0.478c-0.275,0.317-0.41,0.75-0.41,1.299
							c0,0.397,0.072,0.697,0.225,0.899c0.148,0.201,0.32,0.304,0.51,0.304c0.209,0,0.439-0.105,0.691-0.316
							S78.586,50.813,78.786,50.458z"/>
						<path fill="#FFFFFF" d="M81.637,52.15v-3.449h-1.113v-0.555h1.779v3.449h1.115v0.556H81.637z M81.53,46.697
							c0-0.149,0.051-0.262,0.154-0.335c0.1-0.073,0.199-0.111,0.287-0.111c0.094,0,0.191,0.038,0.293,0.111
							c0.104,0.073,0.152,0.186,0.152,0.335c0,0.147-0.049,0.259-0.152,0.333c-0.102,0.072-0.199,0.109-0.293,0.109
							c-0.088,0-0.188-0.037-0.287-0.109C81.581,46.956,81.53,46.845,81.53,46.697z"/>
						<path fill="#FFFFFF" d="M84.922,52.15v-4.004h0.666v0.873c0.191-0.307,0.422-0.548,0.691-0.722
							c0.27-0.175,0.543-0.262,0.812-0.262c0.236,0,0.451,0.062,0.645,0.188s0.332,0.289,0.408,0.493
							c0.076,0.203,0.115,0.603,0.115,1.198v2.237h-0.668v-2.32c0-0.386-0.018-0.638-0.055-0.763
							c-0.037-0.123-0.105-0.223-0.203-0.302c-0.1-0.079-0.207-0.119-0.326-0.119c-0.234,0-0.484,0.112-0.754,0.334
							c-0.27,0.221-0.492,0.5-0.666,0.835v2.334H84.922z"/>
						<path fill="#FFFFFF" d="M93.436,52.15v-4.004h0.586v0.917c0.182-0.39,0.355-0.659,0.512-0.806
							c0.16-0.148,0.32-0.222,0.484-0.222c0.193,0,0.348,0.076,0.467,0.227c0.119,0.152,0.178,0.369,0.178,0.647v0.216
							c0.08-0.244,0.174-0.441,0.285-0.593c0.111-0.15,0.227-0.273,0.346-0.362c0.121-0.091,0.26-0.134,0.414-0.134
							c0.172,0,0.316,0.072,0.441,0.218c0.121,0.146,0.182,0.437,0.182,0.872v3.026h-0.584v-2.736c0-0.225-0.008-0.378-0.023-0.46
							c-0.012-0.082-0.041-0.146-0.086-0.188c-0.041-0.042-0.088-0.064-0.139-0.064c-0.125,0-0.258,0.096-0.4,0.284
							c-0.141,0.191-0.287,0.505-0.436,0.945v2.22h-0.555v-2.732c0-0.354-0.035-0.562-0.104-0.624
							c-0.07-0.062-0.133-0.093-0.189-0.093c-0.121,0-0.254,0.106-0.393,0.317c-0.143,0.215-0.273,0.486-0.4,0.82v2.312H93.436z"/>
					</g>
				</g>
			</g>
		</g>
		<g>
			<circle fill="none" stroke="#E7E8E6" stroke-width="2.6961" stroke-miterlimit="10" cx="47.852" cy="48.044" r="45.986"/>
		</g>
	</g>
	<g>
		<circle fill="#34A665" cx="16.017" cy="88.016" r="14.15"/>
		<text transform="matrix(1 0 0 1 12.917 92.2368)" fill="#FFFFFF" font-family="'SourceSansPro-Regular'" font-size="14">3</text>
	</g>
</g>
</svg>
