<?xml version="1.0" encoding="utf-8"?>
<!-- Generator: Adobe Illustrator 16.0.4, SVG Export Plug-In . SVG Version: 6.00 Build 0)  -->
<!DOCTYPE svg PUBLIC "-//W3C//DTD SVG 1.1//EN" "http://www.w3.org/Graphics/SVG/1.1/DTD/svg11.dtd">
<svg version="1.1" id="Layer_1" xmlns="http://www.w3.org/2000/svg" xmlns:xlink="http://www.w3.org/1999/xlink" x="0px" y="0px"
	 width="5px" height="9px" viewBox="0 0 5 9" enable-background="new 0 0 5 9" xml:space="preserve">
<path fill="#FFFFFF" d="M2.187,6.817c-0.304,0-0.578,0.096-0.78,0.294C1.199,7.31,1.096,7.592,1.098,7.902
	C1.096,8.216,1.199,8.498,1.405,8.7C1.605,8.902,1.877,9,2.18,9c0.002,0,0.004,0,0.007,0c0.318,0.002,0.6-0.094,0.805-0.3
	c0.204-0.202,0.306-0.484,0.305-0.798C3.297,7.592,3.195,7.31,2.989,7.111C2.783,6.911,2.502,6.817,2.187,6.817z"/>
<path fill="#FFFFFF" d="M2.568,0C2.029,0,1.562,0.068,1.167,0.208C0.782,0.347,0.439,0.521,0.139,0.734L0,0.833L0.738,2.31
	l0.178-0.127c0.09-0.066,0.193-0.128,0.311-0.192c0.115-0.062,0.237-0.117,0.364-0.166c0.125-0.044,0.25-0.081,0.375-0.106
	c0.124-0.025,0.238-0.038,0.345-0.038c0.35,0,0.554,0.083,0.638,0.181C3.056,1.985,3.115,2.142,3.116,2.38
	c-0.001,0.176-0.04,0.314-0.115,0.432c-0.086,0.136-0.198,0.27-0.334,0.4C2.523,3.351,2.368,3.495,2.201,3.646
	C2.019,3.81,1.858,4.003,1.718,4.223C1.574,4.45,1.464,4.714,1.385,5.014C1.329,5.225,1.304,5.458,1.304,5.713
	c0,0.13,0.006,0.265,0.018,0.404L1.34,6.299h0.175h1.434v-0.2c0-0.305,0.05-0.542,0.136-0.713c0.096-0.192,0.211-0.361,0.347-0.509
	C3.575,4.729,3.731,4.584,3.904,4.45c0.19-0.149,0.364-0.319,0.524-0.513c0.163-0.202,0.298-0.442,0.406-0.719
	C4.948,2.925,5,2.572,5,2.159c0.003-0.645-0.222-1.191-0.661-1.581C3.899,0.185,3.297,0,2.568,0z"/>
</svg>
