<?xml version="1.0" encoding="utf-8"?>
<!-- Generator: Adobe Illustrator 16.0.4, SVG Export Plug-In . SVG Version: 6.00 Build 0)  -->
<!DOCTYPE svg PUBLIC "-//W3C//DTD SVG 1.1//EN" "http://www.w3.org/Graphics/SVG/1.1/DTD/svg11.dtd">
<svg version="1.1" id="Layer_1" xmlns="http://www.w3.org/2000/svg" xmlns:xlink="http://www.w3.org/1999/xlink" x="0px" y="0px"
	 width="13.604px" height="16.021px" viewBox="0 0 13.604 16.021" enable-background="new 0 0 13.604 16.021" xml:space="preserve">
<g>
	<path fill-rule="evenodd" clip-rule="evenodd" fill="#D0D1CF" d="M13.386,5.884c-2.124,1.461-2.068,4.632,0.076,6.041
		c-0.505,1.262-1.088,2.471-2.174,3.357c-0.573,0.468-1.21,0.591-1.912,0.352c-0.315-0.107-0.63-0.22-0.946-0.341
		c-0.93-0.365-1.851-0.335-2.769,0.033c-0.263,0.104-0.523,0.213-0.789,0.306c-0.629,0.228-1.216,0.13-1.756-0.26
		c-0.524-0.373-0.93-0.855-1.272-1.392c-0.949-1.495-1.514-3.129-1.695-4.885C0.054,8.172,0.193,7.269,0.586,6.417
		c0.862-1.871,2.79-2.719,4.791-2.119C5.615,4.371,5.852,4.441,6.085,4.53c0.724,0.282,1.439,0.258,2.166,0
		C8.69,4.374,9.145,4.22,9.605,4.151c1.448-0.21,2.892,0.361,3.762,1.681C13.379,5.845,13.382,5.868,13.386,5.884z"/>
	<path fill-rule="evenodd" clip-rule="evenodd" fill="#D0D1CF" d="M6.81,4.222c-0.058-2.288,2.165-4.194,4.099-4.081
		C11.013,2.093,9.085,4.284,6.81,4.222z"/>
</g>
</svg>
