<?xml version="1.0" encoding="utf-8"?>
<!-- Generator: Adobe Illustrator 16.0.4, SVG Export Plug-In . SVG Version: 6.00 Build 0)  -->
<!DOCTYPE svg PUBLIC "-//W3C//DTD SVG 1.1//EN" "http://www.w3.org/Graphics/SVG/1.1/DTD/svg11.dtd">
<svg version="1.1" id="Layer_1" xmlns="http://www.w3.org/2000/svg" xmlns:xlink="http://www.w3.org/1999/xlink" x="0px" y="0px"
	 width="16px" height="16px" viewBox="0 0 16 16" enable-background="new 0 0 16 16" xml:space="preserve">
<path fill="#969496" d="M15.312,2.454C15.312,2.453,15.312,2.453,15.312,2.454l-0.006-0.002c-0.014-0.004-0.024-0.008-0.039-0.011
	L8.2,0.528c-0.132-0.036-0.271-0.036-0.402,0L0.686,2.453C0.369,2.539,0.15,2.816,0.126,3.14C0.123,3.154,0.121,3.169,0.118,3.184
	c0,0.005-0.001,0.009-0.001,0.013c0,0.001,0,0.002,0,0.003C0.112,3.235,0.106,3.271,0.106,3.309v8.534
	c0,0.312,0.188,0.595,0.476,0.712l6.995,2.889c0.095,0.039,0.194,0.06,0.294,0.06c0.022,0,0.044-0.004,0.067-0.006
	c0.02,0.002,0.04,0.006,0.061,0.006c0.188,0,0.357-0.067,0.491-0.183l6.904-2.629c0.299-0.112,0.496-0.398,0.496-0.719V3.196
	C15.891,2.838,15.645,2.539,15.312,2.454z M7.999,2.069l4.166,1.127L7.999,4.323L3.833,3.196L7.999,2.069z M1.646,4.2l5.583,1.51
	v7.923l-5.583-2.305V4.2z M8.77,13.564V5.71l5.582-1.51v7.239L8.77,13.564z"/>
</svg>
