<?xml version="1.0" encoding="utf-8"?>
<!-- Generator: Adobe Illustrator 16.0.4, SVG Export Plug-In . SVG Version: 6.00 Build 0)  -->
<!DOCTYPE svg PUBLIC "-//W3C//DTD SVG 1.1//EN" "http://www.w3.org/Graphics/SVG/1.1/DTD/svg11.dtd">
<svg version="1.1" id="Layer_1" xmlns="http://www.w3.org/2000/svg" xmlns:xlink="http://www.w3.org/1999/xlink" x="0px" y="0px"
	 width="15.188px" height="14.188px" viewBox="0 0 15.188 14.188" enable-background="new 0 0 15.188 14.188" xml:space="preserve">
<path fill="#3CA85B" d="M15.049,2.449c0.193-0.308,0.101-0.728-0.2-0.924l-1.932-1.272c-0.303-0.195-0.709-0.104-0.904,0.203
	L6.463,9.365c-0.195,0.31-0.601,0.4-0.903,0.2L2.404,7.479C2.105,7.283,1.694,7.37,1.502,7.682l-1.248,2
	c-0.197,0.309-0.108,0.73,0.191,0.928l4.943,3.293c0.303,0.2,0.838,0.3,1.191,0.22l0.743-0.165c0.349-0.075,0.798-0.393,0.988-0.706
	L15.049,2.449z"/>
</svg>
