<?xml version="1.0" encoding="utf-8"?>
<!-- Generator: Adobe Illustrator 16.0.4, SVG Export Plug-In . SVG Version: 6.00 Build 0)  -->
<!DOCTYPE svg PUBLIC "-//W3C//DTD SVG 1.1//EN" "http://www.w3.org/Graphics/SVG/1.1/DTD/svg11.dtd">
<svg version="1.1" id="Layer_1" xmlns="http://www.w3.org/2000/svg" xmlns:xlink="http://www.w3.org/1999/xlink" x="0px" y="0px"
	 width="15.188px" height="15.229px" viewBox="0 0 15.188 15.229" enable-background="new 0 0 15.188 15.229" xml:space="preserve">
<g>
	<path fill="#A0A09F" d="M6.345,9.028c0.049,0.598,0.58,1.086,1.179,1.086h0.307c0.6,0,1.13-0.488,1.18-1.086l0.654-7.941
		C9.715,0.489,9.265,0,8.665,0H6.692c-0.6,0-1.05,0.489-1,1.086L6.345,9.028z"/>
	<path fill="#A0A09F" d="M7.68,11.785c-0.896,0-1.609,0.713-1.609,1.609C6.071,14.289,6.783,15,7.68,15
		c0.895,0,1.606-0.71,1.606-1.605C9.286,12.498,8.574,11.785,7.68,11.785z"/>
</g>
</svg>
