<?xml version="1.0" encoding="utf-8"?>
<!-- Generator: Adobe Illustrator 16.0.4, SVG Export Plug-In . SVG Version: 6.00 Build 0)  -->
<!DOCTYPE svg PUBLIC "-//W3C//DTD SVG 1.1//EN" "http://www.w3.org/Graphics/SVG/1.1/DTD/svg11.dtd">
<svg version="1.1" id="Layer_1" xmlns="http://www.w3.org/2000/svg" xmlns:xlink="http://www.w3.org/1999/xlink" x="0px" y="0px"
	 width="15.188px" height="15.229px" viewBox="0 0 15.188 15.229" enable-background="new 0 0 15.188 15.229" xml:space="preserve">
<g>
	<g>
		<path fill="#DB4242" d="M5.924,9.031c0.049,0.598,0.579,1.086,1.179,1.086h0.307c0.6,0,1.13-0.488,1.18-1.086l0.654-7.942
			c0.05-0.597-0.4-1.086-1-1.086H6.27c-0.6,0-1.05,0.489-1,1.086L5.924,9.031z"/>
	</g>
	<path fill="#DB4242" d="M7.258,11.788c-0.896,0-1.608,0.713-1.608,1.609c0,0.895,0.712,1.605,1.608,1.605
		c0.895,0,1.606-0.71,1.606-1.605C8.865,12.501,8.153,11.788,7.258,11.788z"/>
</g>
</svg>
