<?xml version="1.0" encoding="utf-8"?>
<!-- Generator: Adobe Illustrator 16.0.4, SVG Export Plug-In . SVG Version: 6.00 Build 0)  -->
<!DOCTYPE svg PUBLIC "-//W3C//DTD SVG 1.1//EN" "http://www.w3.org/Graphics/SVG/1.1/DTD/svg11.dtd">
<svg version="1.1" id="Layer_1" xmlns="http://www.w3.org/2000/svg" xmlns:xlink="http://www.w3.org/1999/xlink" x="0px" y="0px"
	 width="12.156px" height="15.196px" viewBox="0 0 12.156 15.196" enable-background="new 0 0 12.156 15.196" xml:space="preserve">
<g>
	<path fill="#D0D1CF" d="M3.093,11.376V4.823c0.596-0.344,0.995-0.988,0.995-1.725c0-1.105-0.895-1.998-1.996-1.998
		c-1.104,0-1.996,0.893-1.996,1.998c0,0.739,0.403,1.384,1.001,1.73v6.542c-0.598,0.346-1.001,0.992-1.001,1.732
		c0,1.103,0.895,1.996,1.996,1.996s1.996-0.894,1.996-1.996C4.088,12.364,3.688,11.721,3.093,11.376z M2.092,2.095
		c0.553,0,1.004,0.451,1.004,1.005c0,0.556-0.451,1.002-1.004,1.002c-0.555,0-1.005-0.446-1.005-1.002
		C1.087,2.546,1.537,2.095,2.092,2.095z M2.092,14.107c-0.555,0-1.005-0.448-1.005-1.001c0-0.557,0.451-1.006,1.005-1.006
		c0.553,0,1.004,0.449,1.004,1.006C3.096,13.659,2.645,14.107,2.092,14.107z"/>
	<path fill="#D0D1CF" d="M11.081,11.37V5.063c0-3.147-2.856-2.956-2.856-2.956H7.098V0.099L4.108,3.098L7.098,6.09v-2h1.127
		c0.869,0,0.857,0.973,0.857,0.973v6.314c-0.593,0.345-0.991,0.988-0.991,1.726c0,1.103,0.894,1.996,1.996,1.996
		c1.104,0,1.997-0.894,1.997-1.996C12.084,12.361,11.679,11.716,11.081,11.37z M10.087,14.107c-0.556,0-1.005-0.448-1.005-1.001
		c0-0.557,0.449-1.006,1.005-1.006c0.554,0,1.004,0.449,1.004,1.006C11.091,13.659,10.641,14.107,10.087,14.107z"/>
</g>
</svg>
