<?xml version="1.0" encoding="utf-8"?>
<!-- Generator: Adobe Illustrator 16.0.4, SVG Export Plug-In . SVG Version: 6.00 Build 0)  -->
<!DOCTYPE svg PUBLIC "-//W3C//DTD SVG 1.1//EN" "http://www.w3.org/Graphics/SVG/1.1/DTD/svg11.dtd">
<svg version="1.1" id="Layer_1" xmlns="http://www.w3.org/2000/svg" xmlns:xlink="http://www.w3.org/1999/xlink" x="0px" y="0px"
	 width="13.604px" height="16.021px" viewBox="0 0 13.604 16.021" enable-background="new 0 0 13.604 16.021" xml:space="preserve">
<g>
	<g>
		<g>
			<path fill="#808080" d="M13.163,12.911c-0.048-0.018-0.095-0.045-0.139-0.072c-0.302-0.175-0.502-0.413-0.485-0.791
				c0.01-0.265-0.083-0.508-0.24-0.715c-0.094-0.13-0.113-0.242-0.078-0.396c0.215-1.01,0.043-1.94-0.509-2.828
				c-0.509-0.822-1.038-1.627-1.6-2.408C9.761,5.208,9.598,4.665,9.57,4.06c-0.021-0.5-0.021-1.007-0.108-1.503
				C9.255,1.4,8.812,0.431,7.535,0.12c-0.328,0-0.657,0-0.985,0C6.49,0.137,6.431,0.152,6.371,0.167
				C5.72,0.347,5.134,0.61,4.861,1.303C4.682,1.76,4.633,2.24,4.649,2.723C4.67,3.346,4.722,3.971,4.753,4.593
				c0.031,0.612-0.142,1.109-0.526,1.582C3.688,6.833,3.198,7.53,2.941,8.364c-0.163,0.531-0.367,1.045-0.603,1.55
				c-0.072,0.158-0.136,0.327-0.118,0.503c0.035,0.308-0.063,0.54-0.242,0.802c-0.263,0.394-0.586,0.616-1.027,0.711
				c-0.101,0.023-0.2,0.045-0.297,0.077c-0.34,0.118-0.499,0.336-0.407,0.688c0.128,0.487,0.075,0.945-0.082,1.411
				c-0.117,0.352,0,0.565,0.341,0.715c0.199,0.085,0.407,0.15,0.621,0.175c0.813,0.08,1.576,0.354,2.339,0.633
				c0.261,0.096,0.53,0.159,0.805,0.194c0.313,0.04,0.622-0.035,0.81-0.282c0.208-0.273,0.476-0.326,0.771-0.363
				c0.104-0.014,0.204-0.025,0.305-0.04c0.841-0.11,1.675-0.098,2.507,0.08c0.114,0.026,0.215,0.049,0.274,0.165
				c0.358,0.689,1.361,0.668,1.849,0.221c0.386-0.357,0.824-0.641,1.284-0.896c0.396-0.218,0.802-0.423,1.177-0.671
				C13.769,13.687,13.687,13.1,13.163,12.911z M7.406,2.135c0.314-0.341,0.796-0.322,1.095,0.026
				c0.312,0.365,0.374,0.957,0.14,1.375C8.566,3.668,8.485,3.809,8.307,3.833C8.251,3.704,8.352,3.635,8.384,3.554
				c0.047-0.13,0.07-0.261,0.055-0.397C8.404,2.854,8.186,2.613,7.942,2.601C7.69,2.589,7.51,2.797,7.436,3.131
				C7.411,3.239,7.534,3.445,7.319,3.447c-0.178,0-0.188-0.188-0.212-0.336C7.046,2.734,7.151,2.405,7.406,2.135z M6.468,3.841
				c0.417,0.11,0.82,0.258,1.2,0.461C7.824,4.385,7.849,4.51,7.684,4.606c-0.41,0.23-0.791,0.509-1.233,0.682
				C6.396,5.31,6.335,5.321,6.296,5.333C6.073,5.329,5.46,4.873,5.374,4.674c-0.042-0.098,0.01-0.155,0.074-0.207
				c0.229-0.185,0.465-0.369,0.699-0.551C6.241,3.849,6.354,3.812,6.468,3.841z M5.426,2.11c0.19-0.098,0.361-0.062,0.507,0.077
				c0.294,0.283,0.375,0.646,0.334,1.04C6.253,3.354,6.159,3.409,6.019,3.445C5.971,3.243,5.98,3.056,5.879,2.896
				C5.779,2.746,5.654,2.62,5.462,2.649c-0.181,0.022-0.255,0.17-0.299,0.332C5.076,3.296,5.177,3.554,5.407,3.773
				c0.048,0.044,0.138,0.093,0.047,0.172C5.394,3.994,5.339,3.944,5.291,3.909C4.793,3.557,4.88,2.396,5.426,2.11z M4.622,15.083
				c-0.138,0.145-0.291,0.213-0.493,0.192c-0.258-0.029-0.507-0.091-0.74-0.192c-0.728-0.319-1.489-0.51-2.272-0.627
				c-0.181-0.026-0.411-0.031-0.407-0.338c0.006-0.038,0.006-0.104,0.024-0.159c0.116-0.377,0.204-0.749,0.104-1.144
				C0.78,12.588,0.88,12.434,1.12,12.39c0.081-0.016,0.158-0.044,0.238-0.058c0.43-0.07,0.753-0.263,0.937-0.69
				c0.155-0.364,0.349-0.379,0.64-0.115c0.193,0.177,0.341,0.383,0.473,0.604c0.374,0.627,0.753,1.245,1.203,1.819
				C4.957,14.391,4.939,14.744,4.622,15.083z M8.833,11.749c-0.039,0.33-0.051,0.654-0.045,0.983
				c0.005,0.151-0.053,0.265-0.152,0.378c-0.569,0.64-1.294,0.907-2.13,0.925c-0.107,0.003-0.216-0.016-0.318,0.004
				c-0.458,0.089-0.728-0.164-0.965-0.5c-0.064-0.092-0.068-0.135,0.027-0.208c0.265-0.213,0.282-0.476,0.05-0.732
				c-0.245-0.273-0.533-0.499-0.83-0.705c-0.659-0.461-0.832-1.062-0.626-1.814c0.074-0.267,0.146-0.53,0.282-0.771
				C4.35,8.912,4.47,8.473,4.632,8.049c0.077-0.198,0.165-0.391,0.29-0.563C5.174,7.13,5.325,6.738,5.366,6.246
				c0.177,0.157,0.316,0.293,0.479,0.397C6.1,6.804,6.352,6.83,6.624,6.677c0.361-0.202,0.733-0.39,1.103-0.586
				C7.855,6.023,7.95,6.023,8.028,6.177c0.57,1.114,1.08,2.257,1.408,3.468c0.133,0.49,0.107,0.999,0.02,1.504
				c-0.024,0.128-0.062,0.187-0.218,0.188C8.934,11.346,8.87,11.442,8.833,11.749z M12.727,13.726
				c-0.267,0.152-0.541,0.293-0.812,0.437c-0.371,0.198-0.729,0.416-1.024,0.726c-0.148,0.154-0.337,0.267-0.533,0.356
				c-0.388,0.179-0.746-0.009-0.824-0.436c-0.021-0.11-0.018-0.227-0.021-0.305c0.021-0.51,0.174-0.959,0.22-1.429
				c0.028-0.288,0.051-0.571,0-0.858c-0.025-0.15-0.026-0.306-0.008-0.459c0.008-0.062,0.037-0.125,0.109-0.129
				c0.087-0.002,0.08,0.075,0.092,0.131c0.015,0.092,0.023,0.185,0.047,0.271c0.108,0.404,0.387,0.602,0.801,0.542
				c0.405-0.06,0.781-0.184,1.016-0.559c0.035-0.06,0.066-0.148,0.152-0.128c0.085,0.018,0.076,0.108,0.085,0.178
				c0.02,0.121,0.032,0.243,0.059,0.365c0.057,0.271,0.188,0.495,0.428,0.647c0.07,0.046,0.145,0.081,0.212,0.124
				C13.073,13.421,13.075,13.521,12.727,13.726z"/>
		</g>
	</g>
</g>
</svg>
