<?xml version="1.0" encoding="utf-8"?>
<!-- Generator: Adobe Illustrator 16.0.4, SVG Export Plug-In . SVG Version: 6.00 Build 0)  -->
<!DOCTYPE svg PUBLIC "-//W3C//DTD SVG 1.1//EN" "http://www.w3.org/Graphics/SVG/1.1/DTD/svg11.dtd">
<svg version="1.1" id="Layer_1" xmlns="http://www.w3.org/2000/svg" xmlns:xlink="http://www.w3.org/1999/xlink" x="0px" y="0px"
	 width="15.188px" height="15.229px" viewBox="0 0 15.188 15.229" enable-background="new 0 0 15.188 15.229" xml:space="preserve">
<path fill="#DC4242" d="M0.242,3.171l3.445,3.443c0.275,0.276,0.427,0.644,0.427,1.037c0,0.393-0.152,0.76-0.427,1.036l-3.445,3.445
	c-0.121,0.12-0.121,0.325,0,0.446l2.454,2.454c0.159,0.156,0.289,0.156,0.446,0l3.444-3.444c0.276-0.276,0.644-0.43,1.037-0.43
	s0.76,0.153,1.036,0.43l3.444,3.444c0.158,0.156,0.288,0.156,0.447,0l2.453-2.454c0.121-0.121,0.121-0.326,0-0.448l-3.444-3.443
	c-0.571-0.571-0.571-1.501,0-2.073l3.444-3.443c0.121-0.121,0.121-0.326,0-0.448l-2.454-2.452c-0.159-0.16-0.288-0.16-0.446,0
	L8.656,3.714c-0.55,0.553-1.519,0.553-2.071,0L3.141,0.271c-0.16-0.161-0.288-0.158-0.446,0L0.241,2.724
	C0.12,2.845,0.12,3.05,0.242,3.171z"/>
</svg>
