<?xml version="1.0" encoding="utf-8"?>
<!-- Generator: Adobe Illustrator 16.0.4, SVG Export Plug-In . SVG Version: 6.00 Build 0)  -->
<!DOCTYPE svg PUBLIC "-//W3C//DTD SVG 1.1//EN" "http://www.w3.org/Graphics/SVG/1.1/DTD/svg11.dtd">
<svg version="1.1" id="Layer_1" xmlns="http://www.w3.org/2000/svg" xmlns:xlink="http://www.w3.org/1999/xlink" x="0px" y="0px"
	 width="13.604px" height="16.021px" viewBox="0 0 13.604 16.021" enable-background="new 0 0 13.604 16.021" xml:space="preserve">
<g>
	<path fill="none" d="M3.406,12.13c-0.131-0.221-0.278-0.427-0.472-0.604c-0.291-0.264-0.484-0.249-0.64,0.115
		c-0.183,0.429-0.507,0.62-0.936,0.691c-0.08,0.013-0.158,0.042-0.239,0.057c-0.24,0.044-0.34,0.198-0.283,0.426
		c0.101,0.395,0.013,0.767-0.104,1.144c-0.02,0.055-0.02,0.121-0.025,0.159c-0.004,0.307,0.228,0.311,0.407,0.338
		c0.784,0.117,1.546,0.307,2.273,0.627c0.233,0.102,0.482,0.163,0.74,0.192c0.202,0.021,0.356-0.049,0.493-0.192
		c0.317-0.339,0.335-0.692-0.012-1.134C4.159,13.375,3.78,12.757,3.406,12.13z"/>
	<path fill="none" d="M5.374,4.674C5.46,4.873,6.073,5.329,6.296,5.333c0.039-0.012,0.1-0.023,0.154-0.045
		c0.442-0.173,0.824-0.451,1.233-0.683c0.165-0.095,0.141-0.221-0.016-0.304c-0.38-0.204-0.783-0.351-1.2-0.461
		C6.354,3.812,6.241,3.849,6.148,3.916c-0.235,0.181-0.47,0.366-0.7,0.551C5.384,4.518,5.332,4.576,5.374,4.674z"/>
	<path fill="none" d="M12.721,13.203c-0.068-0.043-0.142-0.078-0.212-0.124c-0.239-0.152-0.371-0.377-0.428-0.648
		c-0.025-0.122-0.039-0.244-0.058-0.365c-0.009-0.068,0-0.16-0.085-0.178c-0.086-0.021-0.118,0.069-0.153,0.128
		c-0.233,0.375-0.609,0.499-1.015,0.559c-0.414,0.06-0.692-0.138-0.801-0.542c-0.023-0.088-0.032-0.181-0.047-0.271
		c-0.012-0.056-0.005-0.133-0.092-0.131c-0.072,0.004-0.102,0.067-0.109,0.129c-0.02,0.153-0.019,0.308,0.008,0.459
		c0.05,0.287,0.028,0.57,0,0.858c-0.046,0.47-0.199,0.919-0.22,1.429c0.005,0.078,0,0.193,0.021,0.304
		c0.079,0.427,0.438,0.614,0.825,0.436c0.196-0.091,0.384-0.202,0.533-0.357c0.297-0.309,0.653-0.526,1.024-0.725
		c0.271-0.144,0.546-0.283,0.812-0.437C13.075,13.521,13.073,13.421,12.721,13.203z"/>
	<g>
		<g>
			<path fill-rule="evenodd" clip-rule="evenodd" fill="#D0D1CF" d="M13.163,12.911c-0.048-0.018-0.094-0.045-0.138-0.072
				c-0.302-0.175-0.502-0.413-0.486-0.791c0.01-0.265-0.083-0.508-0.24-0.715c-0.094-0.13-0.113-0.242-0.078-0.397
				c0.215-1.009,0.043-1.94-0.509-2.828c-0.509-0.822-1.038-1.627-1.599-2.408C9.761,5.208,9.598,4.665,9.57,4.06
				c-0.021-0.5-0.021-1.007-0.109-1.503C9.255,1.4,8.812,0.431,7.535,0.12c-0.328,0-0.657,0-0.985,0
				C6.49,0.137,6.431,0.152,6.371,0.167C5.72,0.347,5.134,0.61,4.861,1.303C4.682,1.76,4.633,2.24,4.649,2.723
				c0.021,0.623,0.073,1.248,0.104,1.87c0.031,0.612-0.141,1.109-0.526,1.582C3.688,6.833,3.198,7.53,2.941,8.364
				c-0.163,0.531-0.368,1.045-0.603,1.55c-0.072,0.158-0.136,0.327-0.118,0.503c0.035,0.307-0.064,0.54-0.242,0.802
				c-0.263,0.393-0.586,0.616-1.028,0.71c-0.1,0.024-0.2,0.045-0.296,0.078c-0.34,0.118-0.499,0.336-0.408,0.687
				c0.128,0.487,0.076,0.945-0.082,1.411c-0.117,0.352,0,0.566,0.341,0.715c0.199,0.085,0.407,0.15,0.621,0.175
				c0.814,0.08,1.576,0.354,2.339,0.633c0.261,0.095,0.53,0.159,0.805,0.194c0.313,0.04,0.622-0.035,0.809-0.282
				c0.208-0.274,0.476-0.326,0.771-0.363c0.103-0.014,0.204-0.026,0.305-0.041c0.84-0.11,1.674-0.097,2.506,0.081
				c0.115,0.026,0.215,0.048,0.275,0.165c0.358,0.689,1.361,0.668,1.848,0.22c0.386-0.357,0.825-0.64,1.285-0.895
				c0.395-0.218,0.801-0.423,1.176-0.671C13.769,13.687,13.687,13.1,13.163,12.911z M7.406,2.135
				c0.315-0.341,0.796-0.323,1.095,0.026c0.312,0.365,0.374,0.957,0.14,1.375C8.566,3.668,8.485,3.809,8.307,3.833
				C8.251,3.704,8.352,3.636,8.384,3.554c0.047-0.129,0.07-0.26,0.055-0.397C8.404,2.854,8.186,2.613,7.942,2.601
				C7.69,2.589,7.51,2.797,7.436,3.131C7.411,3.239,7.534,3.445,7.319,3.447c-0.178,0-0.189-0.188-0.212-0.336
				C7.046,2.734,7.151,2.405,7.406,2.135z M6.468,3.841c0.417,0.11,0.82,0.257,1.2,0.461c0.156,0.083,0.181,0.209,0.016,0.304
				C7.274,4.837,6.893,5.115,6.45,5.288C6.396,5.31,6.335,5.321,6.296,5.333C6.073,5.329,5.46,4.873,5.374,4.674
				c-0.042-0.098,0.01-0.156,0.074-0.207c0.23-0.185,0.465-0.37,0.7-0.551C6.241,3.849,6.354,3.812,6.468,3.841z M5.426,2.11
				c0.19-0.098,0.361-0.061,0.507,0.077c0.294,0.283,0.375,0.647,0.334,1.04C6.253,3.354,6.159,3.409,6.019,3.445
				c-0.048-0.202-0.039-0.389-0.14-0.549c-0.1-0.15-0.225-0.276-0.417-0.247c-0.181,0.023-0.255,0.17-0.299,0.332
				C5.076,3.296,5.177,3.554,5.407,3.773c0.048,0.044,0.138,0.093,0.047,0.172c-0.06,0.049-0.115-0.001-0.163-0.036
				C4.793,3.557,4.88,2.396,5.426,2.11z M4.622,15.083c-0.137,0.144-0.291,0.213-0.493,0.192c-0.258-0.029-0.507-0.091-0.74-0.192
				c-0.728-0.32-1.489-0.51-2.273-0.627c-0.18-0.027-0.411-0.031-0.407-0.338c0.006-0.038,0.006-0.104,0.025-0.159
				c0.116-0.377,0.204-0.749,0.104-1.144C0.78,12.588,0.88,12.434,1.12,12.39c0.081-0.015,0.159-0.044,0.239-0.057
				c0.429-0.071,0.753-0.263,0.936-0.691c0.155-0.364,0.349-0.379,0.64-0.115c0.193,0.177,0.341,0.383,0.472,0.604
				c0.374,0.627,0.753,1.245,1.204,1.819C4.957,14.391,4.939,14.744,4.622,15.083z M8.833,11.749
				c-0.039,0.33-0.051,0.654-0.045,0.983c0.005,0.152-0.052,0.265-0.152,0.378c-0.569,0.64-1.294,0.907-2.13,0.925
				c-0.107,0.003-0.216-0.016-0.318,0.004c-0.458,0.089-0.728-0.164-0.965-0.5c-0.065-0.092-0.068-0.135,0.027-0.208
				c0.265-0.213,0.282-0.476,0.05-0.733c-0.245-0.273-0.533-0.499-0.83-0.705c-0.659-0.461-0.832-1.062-0.626-1.814
				c0.074-0.267,0.146-0.53,0.282-0.771C4.35,8.912,4.47,8.473,4.632,8.049c0.077-0.199,0.165-0.391,0.29-0.564
				c0.252-0.355,0.403-0.747,0.444-1.239c0.177,0.157,0.317,0.293,0.48,0.397C6.1,6.804,6.352,6.83,6.624,6.677
				c0.362-0.203,0.734-0.39,1.103-0.586c0.128-0.068,0.223-0.068,0.301,0.086c0.57,1.114,1.08,2.256,1.408,3.467
				c0.133,0.491,0.107,0.999,0.019,1.504c-0.024,0.128-0.062,0.187-0.217,0.189C8.934,11.346,8.87,11.442,8.833,11.749z
				 M12.727,13.726c-0.267,0.153-0.541,0.293-0.812,0.437c-0.371,0.198-0.728,0.416-1.024,0.725
				c-0.149,0.155-0.337,0.267-0.533,0.357c-0.388,0.179-0.746-0.009-0.825-0.436c-0.021-0.11-0.017-0.226-0.021-0.304
				c0.021-0.51,0.174-0.959,0.22-1.429c0.028-0.288,0.05-0.571,0-0.858c-0.026-0.151-0.027-0.306-0.008-0.459
				c0.008-0.062,0.037-0.125,0.109-0.129c0.087-0.002,0.08,0.075,0.092,0.131c0.015,0.091,0.023,0.184,0.047,0.271
				c0.108,0.404,0.387,0.602,0.801,0.542c0.405-0.06,0.781-0.184,1.015-0.559c0.035-0.059,0.067-0.148,0.153-0.128
				c0.085,0.018,0.076,0.109,0.085,0.178c0.019,0.121,0.032,0.243,0.058,0.365c0.057,0.271,0.188,0.496,0.428,0.648
				c0.07,0.046,0.144,0.081,0.212,0.124C13.073,13.421,13.075,13.521,12.727,13.726z"/>
		</g>
	</g>
</g>
</svg>
