<?xml version="1.0" encoding="utf-8"?>
<!-- Generator: Adobe Illustrator 16.0.4, SVG Export Plug-In . SVG Version: 6.00 Build 0)  -->
<!DOCTYPE svg PUBLIC "-//W3C//DTD SVG 1.1//EN" "http://www.w3.org/Graphics/SVG/1.1/DTD/svg11.dtd">
<svg version="1.1" id="Layer_1" xmlns="http://www.w3.org/2000/svg" xmlns:xlink="http://www.w3.org/1999/xlink" x="0px" y="0px"
	 width="14px" height="14px" viewBox="0 0 14 14" enable-background="new 0 0 14 14" xml:space="preserve">
<g>
	<path fill="#5BA4A4" d="M7,0.418C3.364,0.418,0.418,3.365,0.418,7c0,3.637,2.946,6.582,6.582,6.582S13.582,10.637,13.582,7
		C13.582,3.365,10.636,0.418,7,0.418z M7.437,10.936c-0.195,0.189-0.465,0.277-0.769,0.275c-0.003,0-0.005,0-0.007,0
		c-0.289,0-0.549-0.09-0.74-0.275c-0.196-0.186-0.295-0.445-0.293-0.732C5.626,9.918,5.725,9.658,5.923,9.477
		c0.193-0.182,0.455-0.27,0.745-0.27c0.302,0,0.57,0.086,0.767,0.27c0.197,0.182,0.295,0.441,0.294,0.727
		C7.729,10.49,7.632,10.75,7.437,10.936z M9.198,5.902C9.095,6.156,8.966,6.377,8.81,6.562C8.657,6.74,8.491,6.896,8.309,7.033
		c-0.164,0.123-0.314,0.256-0.45,0.393c-0.13,0.135-0.24,0.289-0.332,0.467c-0.082,0.156-0.13,0.375-0.13,0.654V8.73h-1.37H5.859
		L5.843,8.564C5.831,8.436,5.825,8.312,5.825,8.193c0-0.234,0.023-0.449,0.077-0.643c0.075-0.275,0.181-0.518,0.318-0.727
		c0.134-0.201,0.287-0.379,0.461-0.529c0.159-0.139,0.308-0.271,0.445-0.398c0.13-0.119,0.236-0.242,0.319-0.367
		c0.071-0.107,0.108-0.234,0.109-0.396C7.555,4.914,7.498,4.77,7.396,4.656C7.315,4.566,7.12,4.49,6.786,4.49
		c-0.102,0-0.211,0.012-0.329,0.035C6.338,4.549,6.218,4.582,6.099,4.623C5.978,4.668,5.86,4.719,5.751,4.775
		C5.639,4.834,5.54,4.891,5.454,4.951l-0.17,0.117L4.579,3.713l0.133-0.092c0.287-0.195,0.614-0.355,0.981-0.482
		C6.071,3.01,6.518,2.947,7.032,2.947c0.697,0,1.271,0.17,1.691,0.531c0.42,0.357,0.635,0.859,0.632,1.451
		C9.355,5.309,9.306,5.633,9.198,5.902z"/>
</g>
</svg>
