<?xml version="1.0" encoding="utf-8"?>
<!-- Generator: Adobe Illustrator 16.0.4, SVG Export Plug-In . SVG Version: 6.00 Build 0)  -->
<!DOCTYPE svg PUBLIC "-//W3C//DTD SVG 1.1//EN" "http://www.w3.org/Graphics/SVG/1.1/DTD/svg11.dtd">
<svg version="1.1" id="Layer_1" xmlns="http://www.w3.org/2000/svg" xmlns:xlink="http://www.w3.org/1999/xlink" x="0px" y="0px"
	 width="13.604px" height="16.021px" viewBox="0 0 13.604 16.021" enable-background="new 0 0 13.604 16.021" xml:space="preserve">
<g>
	<path fill="#969496" d="M13.386,5.884c-2.124,1.463-2.068,4.634,0.076,6.041c-0.505,1.264-1.088,2.473-2.174,3.357
		c-0.573,0.468-1.21,0.591-1.912,0.352c-0.315-0.105-0.63-0.22-0.946-0.341c-0.93-0.363-1.851-0.335-2.769,0.033
		c-0.265,0.104-0.523,0.213-0.789,0.306c-0.629,0.229-1.216,0.132-1.756-0.26c-0.524-0.373-0.932-0.854-1.272-1.392
		c-0.949-1.495-1.514-3.129-1.695-4.885C0.054,8.172,0.193,7.269,0.586,6.417c0.862-1.871,2.79-2.719,4.791-2.119
		C5.615,4.371,5.852,4.441,6.085,4.53c0.724,0.282,1.438,0.258,2.166,0C8.69,4.374,9.145,4.22,9.605,4.151
		c1.448-0.21,2.894,0.361,3.764,1.681C13.379,5.845,13.382,5.868,13.386,5.884z"/>
	<path fill="#969496" d="M6.81,4.222C6.752,1.934,8.975,0.028,10.91,0.141C11.013,2.093,9.085,4.284,6.81,4.222z"/>
</g>
</svg>
