<?xml version="1.0" encoding="utf-8"?>
<!-- Generator: Adobe Illustrator 22.1.0, SVG Export Plug-In . SVG Version: 6.00 Build 0)  -->
<svg version="1.1" id="icon-sign-out_1_" xmlns="http://www.w3.org/2000/svg" xmlns:xlink="http://www.w3.org/1999/xlink" x="0px"
	 y="0px" viewBox="0 0 15.49 13.78" style="enable-background:new 0 0 15.49 13.78;" xml:space="preserve">
<style type="text/css">
	.st0{fill:none;stroke:#686B6E;stroke-linecap:round;stroke-linejoin:round;stroke-miterlimit:10;}
</style>
<g id="icon-sign-out">
	<path class="st0" d="M10.99,10.78l2.45-4.87c0-0.01,0.01-0.02,0.01-0.03"/>
	<path class="st0" d="M14.99,6.5c0,0.01-0.01,0.02-0.01,0.03L13.64,9.2"/>
	<path class="st0" d="M11.21,4.07c-0.14-0.07-0.3-0.11-0.46-0.11c-0.11,0-0.22,0.02-0.32,0.05l0.27-0.58
		c0.25-0.52,0.05-1.16-0.44-1.42C10.12,1.94,9.96,1.9,9.81,1.9c-0.11,0-0.22,0.02-0.33,0.06c0.2-0.51,0-1.09-0.47-1.34
		C8.86,0.54,8.7,0.5,8.55,0.5c-0.39,0-0.75,0.24-0.93,0.6c-0.1-0.19-0.25-0.36-0.45-0.46c-0.14-0.07-0.3-0.11-0.46-0.11
		c-0.39,0-0.76,0.24-0.94,0.61L3.01,6.5L2.53,4.53c0-0.01-0.01-0.03-0.01-0.04C2.41,4,2.01,3.66,1.54,3.66
		c-0.06,0-0.12,0.01-0.18,0.02C0.92,3.76,0.56,4.15,0.5,4.62c0,0.05-0.12,5.31,1.61,7.17c0.37,0.4,0.77,0.71,1.22,0.95
		c0.01,0,0.01,0.01,0.02,0.01c0.64,0.35,1.33,0.53,2.02,0.53h0.14c0.5-0.02,0.98-0.13,1.44-0.33c0.4-0.18,0.97-0.5,1.41-1.02
		c0.2-0.24,0.33-0.5,0.45-0.75l0.07-0.14c0.11-0.21,0.31-0.64,0.31-0.64l2.44-4.86C11.9,4.97,11.7,4.33,11.21,4.07z"/>
	<path class="st0" d="M5.83,5.15l1.96-4.31"/>
	<path class="st0" d="M9.48,1.96L7.61,5.91"/>
	<path class="st0" d="M10.43,4.01L9.01,6.89"/>
</g>
</svg>
