<?xml version="1.0" encoding="utf-8"?>
<!-- Generator: Adobe Illustrator 18.1.1, SVG Export Plug-In . SVG Version: 6.00 Build 0)  -->
<svg version="1.1" id="Layer_1" xmlns="http://www.w3.org/2000/svg" xmlns:xlink="http://www.w3.org/1999/xlink" x="0px" y="0px"
	 viewBox="0 0 14.5 16" enable-background="new 0 0 14.5 16" xml:space="preserve">
<g>
	<path fill="#C2C3C5" d="M9.5,7.5c0.4-0.2,0.8-0.4,1.2-0.7c1.7-1.5,1.7-4.1,0-5.6c-1.7-1.5-4.6-1.5-6.3,0c-1.7,1.5-1.7,4.1,0,5.6
		C4.7,7,5.1,7.3,5.5,7.5l0,1.3L7,10.1l-1.5,1.4l0,0L7,12.8l-1.5,1.4l0,0l2,1.8l0,0h0l2-1.8L9.5,7.5z M6.4,3.7
		c-0.6-0.5-0.6-1.4,0-1.9s1.5-0.5,2.1,0s0.6,1.4,0,1.9C8,4.2,7,4.2,6.4,3.7z"/>
</g>
</svg>
