<?xml version="1.0" encoding="utf-8"?>
<!-- Generator: Adobe Illustrator 23.0.6, SVG Export Plug-In . SVG Version: 6.00 Build 0)  -->
<svg version="1.1" id="Layer_1" xmlns="http://www.w3.org/2000/svg" xmlns:xlink="http://www.w3.org/1999/xlink" x="0px" y="0px"
	 viewBox="0 0 90.426 88.298" style="enable-background:new 0 0 90.426 88.298;" xml:space="preserve">
<style type="text/css">
	.st0{fill:#326DE6;}
	.st1{fill:#FFFFFF;}
</style>
<g>
	<path id="path10349" class="st0" d="M74.927,26.523c-0.397-1.27-1.349-2.302-2.54-2.936L48.181,11.999
		c-0.635-0.317-1.349-0.397-1.984-0.397c-0.635,0-1.349,0-1.984,0.159L20.007,23.427c-1.19,0.556-2.063,1.587-2.381,2.936
		l-5.952,26.111c-0.238,1.349,0.079,2.698,0.873,3.809l16.746,20.714c0.952,0.952,2.302,1.587,3.651,1.667H59.61
		c1.429,0.159,2.778-0.476,3.651-1.667l16.746-20.714c0.794-1.111,1.111-2.46,0.952-3.809L74.927,26.523L74.927,26.523z"/>
	<path id="path10351" class="st1" d="M71.197,51.443L71.197,51.443c-0.079,0-0.159,0-0.159-0.079c0-0.079-0.159-0.079-0.317-0.079
		c-0.317-0.079-0.635-0.079-0.952-0.079c-0.159,0-0.317,0-0.476-0.079h-0.079c-0.873-0.079-1.825-0.238-2.698-0.476
		c-0.238-0.079-0.476-0.317-0.556-0.556c0.079,0,0,0,0,0l0,0l-0.635-0.159c0.317-2.302,0.159-4.682-0.317-6.984
		c-0.556-2.302-1.508-4.524-2.778-6.508l0.476-0.476l0,0v-0.079c0-0.238,0.079-0.556,0.238-0.714
		c0.714-0.635,1.429-1.111,2.222-1.587l0,0c0.159-0.079,0.317-0.159,0.476-0.238c0.317-0.159,0.556-0.317,0.873-0.476
		c0.079-0.079,0.159-0.079,0.238-0.159c0.079-0.079,0-0.079,0-0.159l0,0c0.714-0.556,0.873-1.508,0.317-2.222
		c-0.238-0.317-0.714-0.556-1.111-0.556c-0.397,0-0.794,0.159-1.111,0.397l0,0l-0.079,0.079c-0.079,0.079-0.159,0.159-0.238,0.159
		c-0.238,0.238-0.476,0.476-0.635,0.714c-0.079,0.159-0.238,0.238-0.317,0.317l0,0c-0.556,0.635-1.27,1.27-1.984,1.746
		c-0.159,0.079-0.317,0.159-0.476,0.159c-0.079,0-0.238,0-0.317-0.079h-0.079l-0.635,0.397c-0.635-0.635-1.349-1.27-1.984-1.905
		c-2.936-2.302-6.587-3.73-10.317-4.127l-0.079-0.635l0,0v0.079c-0.238-0.159-0.317-0.397-0.397-0.635c0-0.873,0-1.746,0.159-2.698
		v-0.079c0-0.159,0.079-0.317,0.079-0.476c0.079-0.317,0.079-0.635,0.159-0.952v-0.476l0,0c0.079-0.794-0.556-1.587-1.349-1.667
		c-0.476-0.079-0.952,0.159-1.349,0.556c-0.317,0.317-0.476,0.714-0.476,1.111l0,0v0.397c0,0.317,0.079,0.635,0.159,0.952
		c0.079,0.159,0.079,0.317,0.079,0.476v0.079c0.159,0.873,0.159,1.746,0.159,2.698c-0.079,0.238-0.159,0.476-0.397,0.635v0.159l0,0
		l-0.079,0.635c-0.873,0.079-1.746,0.238-2.698,0.397c-3.73,0.794-7.143,2.778-9.762,5.555l-0.476-0.317h-0.079
		c-0.079,0-0.159,0.079-0.317,0.079c-0.159,0-0.317-0.079-0.476-0.159c-0.714-0.556-1.429-1.19-1.984-1.825l0,0
		c-0.079-0.159-0.238-0.238-0.317-0.317c-0.238-0.238-0.397-0.476-0.635-0.714c-0.079-0.079-0.159-0.079-0.238-0.159
		c-0.079-0.079-0.079-0.079-0.079-0.079l0,0c-0.317-0.238-0.714-0.397-1.111-0.397c-0.476,0-0.873,0.159-1.111,0.556
		c-0.476,0.714-0.317,1.667,0.317,2.222l0,0c0.079,0,0.079,0.079,0.079,0.079s0.159,0.159,0.238,0.159
		c0.238,0.159,0.556,0.317,0.873,0.476c0.159,0.079,0.317,0.159,0.476,0.238l0,0c0.794,0.476,1.587,0.952,2.222,1.587
		c0.159,0.159,0.317,0.476,0.238,0.714v-0.079l0,0l0.476,0.476c-0.079,0.159-0.159,0.238-0.238,0.397
		c-2.46,3.889-3.492,8.492-2.778,13.016l-0.635,0.159l0,0c0,0.079-0.079,0.079-0.079,0.079c-0.079,0.238-0.317,0.397-0.556,0.556
		c-0.873,0.238-1.746,0.397-2.698,0.476l0,0c-0.159,0-0.317,0-0.476,0.079c-0.317,0-0.635,0.079-0.952,0.079
		c-0.079,0-0.159,0.079-0.317,0.079c-0.079,0-0.079,0-0.159,0.079l0,0c-0.873,0.159-1.429,0.952-1.27,1.825l0,0
		c0.159,0.714,0.873,1.19,1.587,1.111c0.159,0,0.238,0,0.397-0.079l0,0c0.079,0,0.079,0,0.079-0.079c0-0.079,0.238,0,0.317,0
		c0.317-0.079,0.635-0.238,0.873-0.317c0.159-0.079,0.317-0.159,0.476-0.159h0.079c0.873-0.317,1.667-0.556,2.619-0.714h0.079
		c0.238,0,0.476,0.079,0.635,0.238c0.079,0,0.079,0.079,0.079,0.079l0,0l0.714-0.079c1.19,3.651,3.413,6.905,6.508,9.286
		c0.714,0.556,1.349,1.032,2.143,1.429l-0.397,0.556l0,0c0,0.079,0.079,0.079,0.079,0.079c0.159,0.238,0.159,0.556,0.079,0.794
		c-0.317,0.794-0.794,1.587-1.27,2.302v0.079c-0.079,0.159-0.159,0.238-0.317,0.397c-0.159,0.159-0.317,0.476-0.556,0.794
		c-0.079,0.079-0.079,0.159-0.159,0.238c0,0,0,0.079-0.079,0.079l0,0c-0.397,0.794-0.079,1.746,0.635,2.143
		c0.159,0.079,0.397,0.159,0.556,0.159c0.635,0,1.19-0.397,1.508-0.952l0,0c0,0,0-0.079,0.079-0.079
		c0-0.079,0.079-0.159,0.159-0.238c0.079-0.317,0.238-0.556,0.317-0.873l0.159-0.476l0,0c0.238-0.873,0.635-1.667,1.032-2.46
		c0.159-0.238,0.397-0.397,0.635-0.476c0.079,0,0.079,0,0.079-0.079l0,0l0.317-0.635c2.222,0.873,4.524,1.27,6.905,1.27
		c1.429,0,2.857-0.159,4.286-0.556c0.873-0.159,1.746-0.476,2.54-0.714l0.317,0.556l0,0c0.079,0,0.079,0,0.079,0.079
		c0.238,0.079,0.476,0.238,0.635,0.476c0.397,0.794,0.794,1.587,1.032,2.46v0.079l0.159,0.476c0.079,0.317,0.159,0.635,0.317,0.873
		c0.079,0.079,0.079,0.159,0.159,0.238c0,0,0,0.079,0.079,0.079l0,0c0.317,0.556,0.873,0.952,1.508,0.952
		c0.238,0,0.397-0.079,0.635-0.159c0.317-0.159,0.635-0.476,0.714-0.873c0.079-0.397,0.079-0.794-0.079-1.19l0,0
		c0-0.079-0.079-0.079-0.079-0.079c0-0.079-0.079-0.159-0.159-0.238c-0.159-0.317-0.317-0.556-0.556-0.794
		c-0.079-0.159-0.159-0.238-0.317-0.397v-0.159c-0.556-0.714-0.952-1.508-1.27-2.302c-0.079-0.238-0.079-0.556,0.079-0.794
		c0-0.079,0.079-0.079,0.079-0.079l0,0l-0.238-0.635c4.048-2.46,7.143-6.27,8.571-10.793l0.635,0.079l0,0
		c0.079,0,0.079-0.079,0.079-0.079c0.159-0.159,0.397-0.238,0.635-0.238h0.079c0.873,0.159,1.746,0.397,2.54,0.714h0.079
		c0.159,0.079,0.317,0.159,0.476,0.159c0.317,0.159,0.556,0.317,0.873,0.397c0.079,0,0.159,0.079,0.317,0.079
		c0.079,0,0.079,0,0.159,0.079l0,0c0.159,0.079,0.238,0.079,0.397,0.079c0.714,0,1.349-0.476,1.587-1.111
		C72.546,52.236,71.911,51.602,71.197,51.443L71.197,51.443z M48.261,48.983l-2.143,1.032l-2.143-1.032l-0.556-2.302l1.508-1.905
		h2.381l1.508,1.905L48.261,48.983z M61.197,43.824c0.397,1.667,0.476,3.333,0.317,5l-7.54-2.143l0,0
		c-0.714-0.159-1.111-0.873-0.952-1.587c0.079-0.238,0.159-0.397,0.317-0.556l5.952-5.397C60.165,40.57,60.8,42.157,61.197,43.824z
		 M56.911,36.205l-6.508,4.603c-0.556,0.317-1.349,0.238-1.746-0.317c-0.159-0.159-0.238-0.317-0.238-0.556l-0.476-8.016
		C51.435,32.316,54.53,33.824,56.911,36.205L56.911,36.205z M42.547,32.157l1.587-0.317l-0.397,7.936l0,0
		c0,0.714-0.635,1.27-1.349,1.27c-0.238,0-0.397-0.079-0.635-0.159l-6.587-4.682C37.229,34.221,39.769,32.792,42.547,32.157z
		 M32.864,39.141l5.873,5.238l0,0c0.556,0.476,0.635,1.27,0.159,1.825c-0.159,0.238-0.317,0.317-0.635,0.397l-7.698,2.222
		C30.325,45.491,31.118,42.078,32.864,39.141z M31.515,52.554l7.857-1.349c0.635,0,1.27,0.397,1.349,1.032
		c0.079,0.238,0.079,0.556-0.079,0.794l0,0l-3.016,7.301C34.848,58.506,32.626,55.728,31.515,52.554z M49.53,62.395
		c-1.111,0.238-2.222,0.397-3.413,0.397c-1.667,0-3.413-0.317-5-0.794l3.889-7.063c0.397-0.476,1.032-0.635,1.587-0.317
		c0.238,0.159,0.397,0.317,0.635,0.556l0,0l3.809,6.905C50.562,62.157,50.086,62.236,49.53,62.395z M59.213,55.49
		c-1.19,1.905-2.857,3.571-4.762,4.762l-3.095-7.46c-0.159-0.635,0.159-1.27,0.714-1.508c0.238-0.079,0.476-0.159,0.714-0.159
		l7.936,1.349C60.324,53.586,59.848,54.617,59.213,55.49z"/>
</g>
</svg>
