<svg x="0px" y="0px" viewBox="-493 366 37 37" style="enable-background:new -493 366 37 37;" xml:space="preserve">
  <style type="text/css">
    .langugae-xcode{fill:#3BACFB;}
  </style>
  <g>
    <g>
      <g>
	<path class="langugae-xcode" d="M-471.6,401c-0.6,0-1.5-0.1-2.2-0.7c-0.4-0.4-0.6-0.9-0.7-1.5c0-1.3,1.6-5.5,3.7-10.9c0.5-1.3,1-2.6,1.4-3.6
			     c0.3-0.9,0.6-1.8,0.9-2.6c0.9-2.7,1.4-5.2,1.6-7.4c0-0.3,0-0.5,0-0.8c-0.1-2.3-1.6-2.8-2.9-2.8c-1.6,0-2.4,0.2-2.7,0.2
			     c-0.2,0-0.3,0-0.5-0.1c-0.1-0.1-0.2-0.3-0.2-0.4c0,0,0-0.1,0-0.1c-0.1-0.1-0.2-0.1-0.2-0.2c-0.2-0.3,0-0.7,0.5-1
			     c4.8-2.3,9.7-0.8,10.7-0.5c1,0.4,1.5,0.9,1.9,1.4c0.3,0.3,0.7,0.4,1,0.2c0.5-0.3,1-0.2,1.5-0.1c0.2,0,0.3,0.1,0.5,0.1h0
			     c0.3,0.1,0.6,0.2,0.7,0.4c0.3,0.4,0.1,1-0.1,1.8c-0.1,0.3-0.2,0.5-0.2,0.9c-0.4,1.5-0.8,1.9-1.7,1.7l-0.1,0
			     c-0.6-0.1-1-0.2-1.5-0.8c-0.1-0.1-0.8-1-2-0.2c-0.2,0.1-0.8,0.7-1.7,3.3c-0.5,1.4-1,3-1.2,4c-0.1,0.3-0.2,0.7-0.3,1.1
			     c-0.2,0.8-0.4,1.7-0.7,3c-0.4,1.9-1,4.5-1.8,8c-1.6,6.9-2.2,7.3-3,7.3c0,0-0.1,0-0.2,0C-471.4,401-471.5,401-471.6,401z
			     M-469.8,369.9c2.3,0,3.7,1.4,3.8,3.6c0,0.3,0,0.6,0,0.9c-0.2,2.3-0.7,4.8-1.6,7.6c-0.3,0.9-0.6,1.8-0.9,2.7
			     c-0.4,1-0.9,2.3-1.4,3.6c-1.5,3.9-3.6,9.3-3.6,10.5c0,0.3,0.1,0.6,0.4,0.8c0.5,0.5,1.5,0.5,1.8,0.5c0.1,0,0.1,0,0.2,0
			     c0.3,0,0.9-1.2,2.2-6.6c0.8-3.6,1.4-6.1,1.8-8c0.3-1.3,0.5-2.3,0.7-3c0.1-0.5,0.2-0.8,0.3-1.2c0.3-1,0.7-2.6,1.3-4.1
			     c1-2.8,1.7-3.5,2.1-3.8c1.3-0.9,2.6-0.4,3.2,0.4c0.3,0.4,0.4,0.4,0.9,0.5l0.1,0c0.1,0,0.2,0,0.3,0c0,0,0.2-0.1,0.4-1
			     c0.1-0.3,0.2-0.6,0.2-0.9c0.1-0.4,0.3-0.9,0.2-1.1c0,0,0,0-0.1,0l0,0c-0.2,0-0.4-0.1-0.6-0.1c-0.5-0.1-0.6-0.1-0.8,0
			     c-0.7,0.5-1.7,0.3-2.2-0.3c-0.4-0.5-0.7-0.9-1.5-1.2c-0.8-0.3-5-1.5-9.3,0.2c0,0.1,0,0.1,0,0.2
			     C-471.3,369.9-470.6,369.9-469.8,369.9z"/>
      </g>
      <g>
	<path class="langugae-xcode" d="M-461.5,376.3l3,19.1l-8.4,1.4c0.1-0.4,0.2-0.8,0.3-1.2l6.6-1.1c0.1,0,0.2-0.1,0.1-0.2l-2.5-16.1
			     c0.3-0.9,0.6-1.8,0.7-1.8c0,0,0,0,0,0c0,0,0,0,0,0C-461.6,376.4-461.5,376.3-461.5,376.3 M-461.5,375.4c-0.1,0-0.3,0-0.4,0.1
			     c0,0,0,0,0,0c-0.6,0.2-0.8,0.9-1.3,2.4c0,0.1,0,0.3,0,0.4l2.4,15.4l-5.9,1c-0.4,0.1-0.6,0.3-0.7,0.7c-0.1,0.4-0.2,0.8-0.3,1.2
			     c-0.1,0.3,0,0.6,0.2,0.9c0.2,0.2,0.4,0.3,0.7,0.3c0,0,0.1,0,0.2,0l8.4-1.4c0.5-0.1,0.8-0.5,0.8-1l-3-19.1c0-0.3-0.2-0.5-0.5-0.7
			     C-461.2,375.4-461.3,375.4-461.5,375.4L-461.5,375.4z"/>
      </g>
      <g>
	<path class="langugae-xcode" d="M-469.2,372.7c0.1,0.3,0.2,0.7,0.2,1.1c0,0.1,0,0.1,0,0.2l-21,3.5c-0.1,0-0.2,0.1-0.1,0.2l3.2,21
			     c0,0,0,0.1,0.1,0.1c0,0,0.1,0,0.1,0c0,0,0,0,0,0l10.9-1.8c-0.1,0.5-0.2,0.9-0.3,1.2l-11.6,1.9l-3.7-23.7L-469.2,372.7 M-476,397
			     L-476,397 M-469.2,371.8c0,0-0.1,0-0.1,0l-22.3,3.7c-0.5,0.1-0.8,0.5-0.8,1l3.7,23.7c0,0.2,0.2,0.5,0.4,0.6
			     c0.2,0.1,0.3,0.2,0.5,0.2c0,0,0.1,0,0.1,0l11.6-1.9c0.4-0.1,0.7-0.4,0.8-0.7c0.1-0.3,0.1-0.6,0.3-1.1c0-0.1,0.1-0.2,0.1-0.3
			     c0-0.5-0.4-0.9-0.9-0.9c0,0,0,0,0,0c0,0,0,0,0,0c0,0-0.1,0-0.1,0l-10.1,1.6l-2.9-19.5l20.3-3.3c0.4-0.1,0.8-0.5,0.8-0.9
			     c0-0.1,0-0.1,0-0.2c0-0.5-0.1-1-0.3-1.4C-468.6,372-468.9,371.8-469.2,371.8L-469.2,371.8z"/>
      </g>
    </g>
    <g>
      <path class="langugae-xcode" d="M-476.8,382.5c-0.1,0-0.1,0-0.2,0l-2.2-0.8c-0.1,0-0.2-0.1-0.3-0.2c0-0.1-0.1-0.2,0-0.4l0.5-1.3
			   c0-0.1,0.2-0.5,0.6-0.6c0.4-0.2,0.9-0.2,1.4,0.1c0.5,0.2,0.9,0.5,1,0.9c0.2,0.5,0,0.8,0,0.9l-0.5,1.2
			   C-476.4,382.4-476.6,382.5-476.8,382.5z M-478.4,380.9l1.3,0.5l0.3-0.8c0.1-0.2-0.1-0.4-0.5-0.6c-0.3-0.1-0.5-0.2-0.7-0.1
			   c-0.1,0-0.1,0.1-0.1,0.1c0,0,0,0,0,0L-478.4,380.9z"/>
    </g>
    <g>
      <path class="langugae-xcode" d="M-483.4,395.7c-0.1,0-0.1,0-0.2,0c-0.2-0.1-0.3-0.3-0.3-0.5l0.3-3.8c0-0.1,0.1-0.3,0.2-0.3
			   c0.1-0.1,0.3-0.1,0.4,0l2.1,0.8c0.1,0.1,0.2,0.2,0.3,0.3c0,0.1,0,0.3-0.1,0.4l-2.4,3C-483.2,395.7-483.3,395.7-483.4,395.7z
			   M-482.7,392.1l-0.1,1.7l1.1-1.4L-482.7,392.1z"/>
    </g>
    <g>
      <path class="langugae-xcode" d="M-480.2,391c-0.1,0-0.1,0-0.2,0l-2.2-0.8c-0.1,0-0.2-0.1-0.3-0.2c0-0.1-0.1-0.2,0-0.4l2.8-6.9
			   c0.1-0.2,0.4-0.3,0.6-0.3l2.1,0.8c0.1,0,0.2,0.1,0.3,0.2c0.1,0.1,0.1,0.2,0,0.4l-2.8,6.9C-479.8,390.8-480,391-480.2,391z
			   M-481.8,389.4l1.3,0.5l2.4-6.1l-1.3-0.5L-481.8,389.4z"/>
    </g>
    <g>
      <path class="langugae-xcode" d="M-485.3,389.2c-0.1,0-0.2,0-0.3-0.1c-0.1-0.1-0.2-0.2-0.2-0.3l-0.3-2.1c0-0.2,0.1-0.5,0.4-0.5l2.7-0.4
			   c0.2,0,0.3,0,0.4,0.2c0.1,0.1,0.1,0.3,0.1,0.5l-0.8,2.2c-0.1,0.1-0.2,0.3-0.3,0.3L-485.3,389.2
			   C-485.3,389.2-485.3,389.2-485.3,389.2z M-485.1,387l0.2,1.1l0.8-0.2l0.5-1.2L-485.1,387z"/>
    </g>
    <g>
      <path class="langugae-xcode" d="M-477.1,387.9c-0.1,0-0.3-0.1-0.4-0.2c-0.1-0.1-0.1-0.3-0.1-0.5l0.9-2.2c0.1-0.1,0.2-0.3,0.3-0.3l2.9-0.5
			   c0.2,0,0.3,0,0.4,0.2l1.5,1.9c0.1,0.1,0.1,0.3,0.1,0.4c-0.1,0.2-0.2,0.3-0.4,0.3L-477.1,387.9C-477,387.9-477.1,387.9-477.1,387.9
			   z M-475.9,385.6l-0.5,1.2l3.7-0.6l-0.8-1.1L-475.9,385.6z"/>
    </g>
    <g>
      <path class="langugae-xcode" d="M-465.2,386c-0.1,0-0.2-0.1-0.3-0.1c-0.1-0.1-0.1-0.3-0.1-0.4l0.5-2.2c0-0.2,0.2-0.3,0.4-0.4l0.8-0.1
			   c0.2,0,0.5,0.1,0.5,0.4l0.4,2c0,0.1,0,0.2-0.1,0.3c-0.1,0.1-0.2,0.2-0.3,0.2L-465.2,386C-465.2,386-465.2,386-465.2,386z
			   M-464.4,383.8l-0.3,1.2l0.5-0.1L-464.4,383.8z"/>
    </g>
    <g>
      <path class="langugae-xcode" d="M-471,385.7c-0.1,0-0.3-0.1-0.4-0.2l-5.3-6.4c0,0,0,0,0,0c0,0-0.3-0.3-0.3-0.8c0-0.4,0.2-0.8,0.7-1.2
			   c0.4-0.4,0.9-0.5,1.3-0.5c0.5,0.1,0.7,0.4,0.8,0.4l4.5,5.4c0.1,0.1,0.1,0.3,0.1,0.5l-0.9,2.5C-470.7,385.5-470.8,385.6-471,385.7
			   C-471,385.7-471,385.7-471,385.7z M-475.2,377.5c-0.1,0-0.3,0.1-0.5,0.3c-0.2,0.2-0.4,0.4-0.4,0.5c0,0.1,0,0.1,0.1,0.2l4.8,5.9
			   l0.6-1.5l-4.4-5.3C-475,377.5-475.1,377.5-475.2,377.5z"/>
    </g>
    <g>
      <path class="langugae-xcode" d="M-464.4,392.8c-0.2,0-0.5-0.2-0.7-0.5c-0.3-0.5-0.7-0.9-1.3-1.1c-0.1,0-0.3-0.1-0.4-0.3
			   c-0.1-0.1-0.2-0.3-0.1-0.4l0.6-2.8c0-0.2,0.2-0.3,0.5-0.4c0.3,0,0.5,0.2,0.7,0.3c0.1,0,0.1,0.1,0.2,0.2c0.7,0.6,1.6,1.7,1.2,4.3
			   c0,0.4-0.2,0.7-0.5,0.7C-464.3,392.8-464.3,392.8-464.4,392.8z M-465.9,390.4c0.6,0.2,1,0.5,1.4,1c0.2-1.9-0.6-2.6-0.9-2.9
			   L-465.9,390.4z"/>
    </g>
  </g>
</svg>
