<svg x="0px" y="0px" viewBox="-493 366 37 37" style="enable-background:new -493 366 37 37;" xml:space="preserve">
  <style type="text/css">
    .langugae-erlang{fill:#AA1E2D;}
  </style>
  <g>
    <path class="langugae-erlang" d="M-474.4,400c-5.6,0-10.8-3.1-13.6-8c-0.1-0.2-0.1-0.3,0-0.5c0.1-0.2,0.3-0.2,0.4-0.2h4.1
		         c-0.5-0.6-0.9-1.3-1.2-2c-1-2.2-1.3-4.6-0.9-7.1c0.2-1.7,0.8-3.2,1.7-4.5h-3.7c-0.2,0-0.3-0.1-0.4-0.2c-0.1-0.2-0.1-0.3,0-0.5
		         c2.7-4.9,7.9-8,13.6-8c5.6,0,10.8,3.1,13.6,8c0.1,0.2,0.1,0.3,0,0.5c-0.1,0.2-0.3,0.2-0.4,0.2h-3.7c0.7,1.2,1.1,2.4,1.2,3.8
		         c0,0.5,0,1.1,0,1.6l0,0.6c0,0.2,0,0.3-0.2,0.5c-0.2,0.2-0.4,0.2-0.5,0.2h-12.7l0,0.2c0,0.4,0.1,0.9,0.1,1.3
		         c0.1,0.8,0.3,1.5,0.6,2.1c0.3,0.7,0.7,1.2,1.2,1.6c0.9,0.7,1.9,1,3.2,0.8c0.8-0.1,1.6-0.5,2.3-1.1c0.7-0.6,1.3-1.3,2-2.3l0.1-0.1
		         c0.1-0.2,0.4-0.3,0.6-0.2l3.5,1.7c0.1,0.1,0.2,0.2,0.3,0.3s0,0.3,0,0.4c-0.4,0.7-0.9,1.4-1.4,2.2h3.4c0.2,0,0.3,0.1,0.4,0.2
		         c0.1,0.2,0.1,0.3,0,0.5C-463.6,396.9-468.8,400-474.4,400z M-486.6,392.3c2.7,4.2,7.3,6.7,12.2,6.7c5,0,9.6-2.6,12.2-6.7h-3.6
		         c-0.2,0-0.4-0.1-0.5-0.3s0-0.4,0.1-0.5c0.7-0.8,1.3-1.6,1.8-2.4l-2.6-1.3c-0.6,1-1.3,1.7-2,2.3c-0.9,0.7-1.8,1.2-2.8,1.3
		         c-1.6,0.2-2.9-0.1-4-1c-0.6-0.5-1-1.1-1.4-2c-0.3-0.7-0.6-1.5-0.7-2.4c-0.1-0.4-0.1-0.9-0.1-1.3l0-0.6c0,0,0-0.1,0-0.1
		         c0-0.3,0.2-0.5,0.5-0.5h12.9l0-0.3c0-0.5,0-1,0-1.5c-0.1-1.5-0.6-2.8-1.4-4l-0.1-0.1c-0.1-0.2-0.1-0.4,0-0.5
		         c0.1-0.2,0.2-0.3,0.4-0.3h3.7c-2.7-4.2-7.3-6.7-12.2-6.7s-9.6,2.6-12.2,6.7h3.8c0.2,0,0.3,0.1,0.4,0.3s0.1,0.3,0,0.5
		         c0,0-0.1,0.1-0.1,0.1c-1.1,1.4-1.8,3-2.1,4.8c-0.3,2.3,0,4.5,0.9,6.5c0.4,0.9,0.9,1.7,1.6,2.4c0.1,0.1,0.2,0.4,0.1,0.6
		         c-0.1,0.2-0.2,0.3-0.4,0.3H-486.6z M-471.3,381h-6.1c-0.1,0-0.3-0.1-0.4-0.2s-0.1-0.2-0.1-0.4c0-0.4,0.1-0.7,0.3-1.1l0,0
		         c0.5-1.2,1.4-1.9,2.6-2.2c0.8-0.2,1.6-0.1,2.3,0.2c0.9,0.4,1.6,1.2,1.8,2.2c0,0.2,0.1,0.4,0.1,0.6l0,0.2c0,0,0,0.1,0,0.2
		         C-470.8,380.8-471,381-471.3,381z M-476.8,380h4.9c0-0.1,0-0.1,0-0.2c-0.2-0.8-0.6-1.3-1.3-1.6c-0.5-0.2-1.1-0.3-1.6-0.1
		         c-0.9,0.2-1.6,0.8-1.9,1.6l0,0C-476.7,379.9-476.8,380-476.8,380z"/>
  </g>
</svg>
