<svg x="0px" y="0px" viewBox="-493 366 37 37" style="enable-background:new -493 366 37 37;" xml:space="preserve">
  <style type="text/css">
    .language-ruby{fill:#F0454E;}
  </style>
  <g>
    <g>
      <path class="language-ruby" d="M-474.4,395.8c-0.2,0-0.4-0.1-0.5-0.3l-5.6-15.2c-0.1-0.2,0-0.3,0.1-0.5c0.1-0.1,0.2-0.2,0.4-0.2h11.2
			   c0.2,0,0.3,0.1,0.4,0.2c0.1,0.1,0.1,0.3,0.1,0.5l-5.6,15.2C-474,395.7-474.2,395.8-474.4,395.8z M-479.2,380.7l4.9,13.2l4.9-13.2
			   H-479.2z"/>
    </g>
    <g>
      <path class="language-ruby" d="M-481.2,377.4L-481.2,377.4c-0.2,0-0.3-0.1-0.4-0.1l-5.7-5.7c-0.1-0.1-0.2-0.4-0.1-0.5
			   c0.1-0.2,0.3-0.3,0.5-0.3h11c0.2,0,0.4,0.1,0.5,0.3c0.1,0.2,0,0.4-0.1,0.5l-5.3,5.7C-481,377.4-481.1,377.4-481.2,377.4z
			   M-485.8,371.7l4.5,4.5l4.2-4.5H-485.8z"/>
    </g>
    <g>
      <path class="language-ruby" d="M-483.4,378.5h-8.6c-0.2,0-0.3-0.1-0.4-0.3c-0.1-0.2-0.1-0.3,0-0.5l3.2-5.4c0.1-0.1,0.2-0.2,0.4-0.2
			   c0.2,0,0.3,0,0.4,0.1l5.4,5.4c0.1,0.1,0.2,0.4,0.1,0.5C-483,378.4-483.2,378.5-483.4,378.5z M-491.1,377.5h6.5l-4.1-4.1
			   L-491.1,377.5z"/>
    </g>
    <g>
      <path class="language-ruby" d="M-469.5,378.5h-9.7c-0.2,0-0.4-0.1-0.5-0.3c-0.1-0.2,0-0.4,0.1-0.5l4.7-5c0.1-0.1,0.2-0.2,0.4-0.2
			   c0.1,0,0.3,0,0.4,0.1l5,5c0.1,0.1,0.2,0.4,0.1,0.5C-469.1,378.4-469.3,378.5-469.5,378.5z M-478.1,377.5h7.4l-3.8-3.8
			   L-478.1,377.5z"/>
    </g>
    <g>
      <path class="language-ruby" d="M-467.3,377.5L-467.3,377.5c-0.2,0-0.3-0.1-0.4-0.1l-5.7-5.7c-0.1-0.1-0.2-0.4-0.1-0.5
			   c0.1-0.2,0.3-0.3,0.5-0.3h11.5c0.2,0,0.4,0.1,0.5,0.3c0.1,0.2,0,0.4-0.1,0.5l-5.7,5.7C-467,377.4-467.1,377.5-467.3,377.5z
			   M-471.8,371.8l4.5,4.5l4.5-4.5H-471.8z"/>
    </g>
    <g>
      <path class="language-ruby" d="M-471.8,395.3h-0.2c-0.2,0-0.3-0.1-0.4-0.2c-0.1-0.1-0.1-0.3,0-0.5l6.2-14.7c0-0.1,0.1-0.1,0.1-0.2
			   c0.1-0.1,0.2-0.2,0.4-0.2h8.7c0.2,0,0.4,0.1,0.5,0.3s0,0.4-0.1,0.5l-14.8,14.7C-471.5,395.2-471.7,395.3-471.8,395.3z
			   M-465.4,380.6l-5.3,12.4l12.5-12.4H-465.4z"/>
    </g>
    <g>
      <path class="language-ruby" d="M-476.6,395.4h-0.3c-0.1,0-0.3-0.1-0.3-0.1l-15.1-14.7c-0.1-0.1-0.2-0.4-0.1-0.5c0.1-0.2,0.3-0.3,0.5-0.3h9.3
			   c0.1,0,0.3,0.1,0.4,0.1c0,0,0.1,0.1,0.1,0.2l6,14.7c0.1,0.2,0,0.3,0,0.5S-476.4,395.4-476.6,395.4z M-490.8,380.7l13,12.6
			   l-5.2-12.6H-490.8z"/>
    </g>
    <g>
      <path class="language-ruby" d="M-457,378.5h-8c-0.2,0-0.4-0.1-0.5-0.3c-0.1-0.2,0-0.4,0.1-0.5l5.3-5.3c0.1-0.1,0.3-0.2,0.4-0.1
			   c0.2,0,0.3,0.1,0.4,0.3l2.8,5.3c0.1,0.2,0.1,0.3,0,0.5C-456.6,378.4-456.8,378.5-457,378.5z M-463.8,377.5h6l-2.1-3.9
			   L-463.8,377.5z"/>
    </g>
  </g>
</svg>
