<?xml version="1.0" encoding="utf-8"?>
<!-- Generator: Adobe Illustrator 19.1.0, SVG Export Plug-In . SVG Version: 6.00 Build 0)  -->
<svg version="1.1" id="rust" xmlns="http://www.w3.org/2000/svg" xmlns:xlink="http://www.w3.org/1999/xlink" x="0px" y="0px"
	 viewBox="-493 366 37 37" style="enable-background:new -493 366 37 37;" xml:space="preserve">
<style type="text/css">
	.st0{fill:#C7C8CA;}
</style>
<g id="VZcqkP.tif">
	<g>
		<g>
			<path class="st0" d="M-474.5,402.3c-0.3,0-0.6-0.2-0.9-0.5c-0.2-0.2-0.3-0.4-0.4-0.6c-0.2-0.3-0.3-0.5-0.4-0.5
				c-0.1,0-0.2,0.1-0.5,0.4c-0.1,0.2-0.3,0.4-0.5,0.5c-0.1,0.1-0.5,0.4-1,0.3c-0.4-0.1-0.6-0.4-0.8-0.7c-0.1-0.2-0.2-0.4-0.2-0.7
				c-0.1-0.4-0.2-0.5-0.3-0.6c-0.1,0-0.3,0.1-0.5,0.3c-0.2,0.1-0.3,0.3-0.5,0.4c-0.2,0.1-0.6,0.3-1,0.1c-0.4-0.2-0.5-0.6-0.6-0.9
				c-0.1-0.4-0.2-1-0.3-1.1c-0.1,0-0.6,0.2-1,0.4c-0.4,0.2-0.8,0.3-1.2,0c-0.4-0.3-0.4-0.8-0.4-1.6l0,0c0-0.1,0-0.5,0-0.6
				c-0.2,0-0.5,0.1-0.6,0.1l-0.2,0.1c-0.1,0-0.3,0.1-0.4,0.1c-0.5,0.1-0.8,0-1.1-0.2c-0.2-0.2-0.3-0.6-0.3-1.1
				c0.1-0.5,0.2-1,0.1-1.1c-0.1,0-0.6,0-1.1-0.1c-0.2,0-0.8,0-1-0.5c-0.3-0.4-0.1-1,0-1.1c0.2-0.4,0.4-0.9,0.4-1.1
				c-0.1,0-0.5-0.1-1-0.2c-0.4-0.1-0.9-0.3-1-0.7c-0.2-0.4,0-0.8,0.3-1.2c0,0,0.1-0.1,0.1-0.1c0.2-0.3,0.4-0.6,0.5-0.8
				c-0.2-0.1-0.5-0.2-0.8-0.3c-0.5-0.2-1-0.4-1.1-0.9c-0.1-0.5,0.3-0.9,0.7-1.2c0.2-0.2,0.4-0.4,0.6-0.6c0,0,0.1-0.1,0.1-0.1
				c0,0-0.1,0-0.1-0.1c-0.3-0.2-0.6-0.3-0.9-0.5c-0.4-0.2-0.7-0.5-0.7-1c0-0.5,0.4-0.8,0.8-1l0.2-0.1c0.3-0.2,0.6-0.4,0.7-0.5
				c-0.1-0.1-0.4-0.4-0.6-0.6c-0.4-0.4-0.8-0.8-0.7-1.3c0.1-0.5,0.6-0.7,1.2-0.9c0.2-0.1,0.4-0.2,0.6-0.2c0.1,0,0.2-0.1,0.2-0.1
				c0,0,0-0.1-0.1-0.2c-0.6-0.9-0.9-1.4-0.7-1.9c0.2-0.5,0.8-0.6,1.8-0.8c0.1,0,0.2-0.1,0.3-0.1c0,0,0-0.1-0.1-0.2
				c-0.4-1-0.6-1.5-0.3-1.9c0.3-0.4,0.9-0.4,1.9-0.5c0.2,0,0.3,0,0.3,0c0,0,0-0.1,0-0.3c-0.2-1.1-0.3-1.6,0-2c0.4-0.4,0.9-0.3,1.9,0
				c0.3,0.1,0.4,0,0.4,0c0,0,0-0.1,0-0.4c0-1,0-1.6,0.4-1.9c0.4-0.3,0.9-0.1,1.9,0.3c0.2,0.1,0.3,0.1,0.3,0.1c0-0.1,0-0.2,0.1-0.4
				c0.2-1,0.3-1.6,0.8-1.8c0.5-0.2,1,0.1,1.8,0.7c0.2,0.2,0.3,0.2,0.4,0.2c0,0,0.1-0.1,0.1-0.3c0.2-0.8,0.5-1.5,1.2-1.7
				c0.6-0.1,1.1,0.4,1.7,1.1c0.1,0.1,0.2,0.2,0.2,0.2c0,0,0.1-0.1,0.2-0.3c0-0.1,0.1-0.2,0.2-0.3l0.1-0.1c0.4-0.7,0.7-1.1,1.2-1.1
				c0,0,0,0,0,0c0.5,0,0.8,0.4,1.2,1.1c0.1,0.2,0.3,0.4,0.4,0.6c0.1-0.1,0.4-0.3,0.5-0.5c0.5-0.5,0.9-0.9,1.4-0.8
				c0.5,0.1,0.7,0.6,1,1.3c0.1,0.2,0.2,0.5,0.3,0.6c0.2-0.1,0.4-0.3,0.6-0.4c0.6-0.4,1.1-0.8,1.6-0.6c0.5,0.2,0.6,0.7,0.7,1.6
				c0.1,0.3,0.1,0.5,0.1,0.6c0.1,0,0.2-0.1,0.5-0.2c0.1,0,0.1-0.1,0.2-0.1c0.2-0.1,0.3-0.2,0.5-0.2c0.4-0.1,0.8-0.1,1,0.1
				c0.3,0.2,0.4,0.5,0.4,1c0,0.2,0,0.4,0,0.6c-0.1,0.4-0.1,0.6,0,0.6c0.1,0.1,0.2,0,0.6-0.1c0.2-0.1,0.4-0.1,0.6-0.2
				c0.2,0,0.7-0.1,1.1,0.2c0.3,0.3,0.3,0.9,0.2,1c0,0.2-0.1,0.4-0.2,0.6c-0.1,0.3-0.2,0.5-0.1,0.6c0.1,0.1,0.2,0.1,0.6,0
				c0.2,0,0.4-0.1,0.6,0c0.2,0,0.7,0,1,0.4c0.2,0.4,0.1,0.8,0,1.2c-0.2,0.4-0.4,0.9-0.3,1c0.1,0,0.6,0.1,1.1,0.2
				c0.3,0.1,0.8,0.2,1,0.6s0,0.8-0.2,1.1c-0.3,0.4-0.6,0.9-0.6,1c0.1,0,0.6,0.3,1,0.4c0.2,0.1,0.7,0.3,0.8,0.9
				c0.1,0.5-0.4,0.9-0.5,1.1l-0.5-0.2l0.3,0.4c-0.3,0.2-0.5,0.5-0.6,0.6c0.1,0.1,0.5,0.3,0.8,0.5c0.4,0.3,0.9,0.6,0.9,1.1
				c0,0.5-0.4,0.8-0.9,1.1l-0.3,0.2c-0.1,0.1-0.4,0.2-0.5,0.3c0.1,0.1,0.3,0.3,0.4,0.4l0.2,0.1c0.1,0.1,0.2,0.2,0.3,0.3
				c0.3,0.3,0.5,0.7,0.4,1c-0.1,0.5-0.6,0.7-0.8,0.8c-0.4,0.2-0.9,0.4-1,0.5c0,0.1,0.3,0.5,0.5,0.9c0.2,0.3,0.4,0.6,0.2,1.1
				c-0.2,0.4-0.6,0.6-0.9,0.7c-0.2,0.1-0.5,0.1-0.7,0.1c-0.5,0-0.5,0-0.6,0.2c-0.1,0.1,0,0.3,0.2,0.6c0.1,0.2,0.2,0.4,0.3,0.6
				c0.1,0.4,0.1,0.8-0.1,1.1c-0.3,0.4-0.8,0.4-1,0.4c-0.5,0-1,0-1.1,0.1c0,0.1,0.1,0.6,0.1,1c0,0.2,0.1,0.8-0.3,1.2
				c-0.3,0.2-0.7,0.3-1.2,0.1c-0.6-0.2-0.9-0.2-1.1-0.2c0,0.1,0,0.4,0,0.6l0,0.3c0,0.5,0,1-0.4,1.3c-0.4,0.3-0.9,0.1-1.4-0.1
				l-0.2-0.1c-0.2-0.1-0.5-0.2-0.7-0.3c-0.1,0.2-0.1,0.5-0.1,0.6c-0.1,0.7-0.2,1.3-0.7,1.5c-0.5,0.2-0.9-0.1-1.6-0.5
				c-0.2-0.1-0.4-0.3-0.6-0.4c-0.1,0.2-0.2,0.4-0.3,0.6c-0.2,0.7-0.5,1.2-1,1.3c-0.5,0.1-0.9-0.3-1.5-0.9c-0.1-0.1-0.3-0.3-0.4-0.4
				c-0.1,0.1-0.3,0.4-0.4,0.5l-0.3,0.5C-473.8,402.1-474.1,402.3-474.5,402.3C-474.5,402.3-474.5,402.3-474.5,402.3z M-476.1,399.7
				c0,0,0.1,0,0.1,0c0.7,0.1,1,0.7,1.2,1.1c0.1,0.2,0.2,0.3,0.2,0.4c0,0,0.1,0.1,0.1,0.1c0,0,0-0.1,0.1-0.1l0.3-0.5
				c0.4-0.6,0.6-1,1.1-1.1c0.5,0,0.8,0.3,1.3,0.8c0.1,0.1,0.4,0.4,0.5,0.5c0.1-0.2,0.2-0.5,0.3-0.6c0.3-0.7,0.4-1.1,0.9-1.3
				c0.4-0.1,0.9,0.1,1.5,0.6c0.3,0.2,0.5,0.3,0.6,0.4c0-0.1,0.1-0.3,0.1-0.7c0.1-0.7,0.2-1.2,0.6-1.4c0.4-0.2,0.9,0,1.6,0.3l0.2,0.1
				c0.2,0.1,0.3,0.1,0.4,0.1c0-0.1,0-0.2,0-0.4l0-0.3c0-0.7,0-1.2,0.3-1.5c0.4-0.3,1-0.2,1.9,0c0,0,0.1,0,0.1,0c0.1,0,0.2,0,0.2,0
				c0-0.1,0-0.1,0-0.3c-0.1-0.9-0.2-1.4,0.1-1.8c0.3-0.4,0.8-0.4,1.8-0.4c0.1,0,0.2,0,0.2,0c0,0,0-0.1,0-0.2c0-0.1-0.1-0.3-0.2-0.4
				c-0.2-0.4-0.5-0.9-0.3-1.5c0.3-0.7,1-0.7,1.5-0.8c0.2,0,0.3,0,0.5,0c0.1,0,0.1,0,0.2-0.1c0,0,0-0.1-0.1-0.2
				c-0.5-0.8-0.8-1.3-0.7-1.8c0.1-0.5,0.6-0.7,1.5-1.2c0.1,0,0.1-0.1,0.2-0.1c0,0-0.1-0.1-0.1-0.1c-0.1-0.1-0.2-0.2-0.3-0.3
				l-0.2-0.2c-0.4-0.4-0.8-0.8-0.8-1.3c0-0.5,0.5-0.8,1-1.1l0.3-0.2c0.2-0.1,0.3-0.2,0.3-0.2c-0.1-0.1-0.2-0.1-0.3-0.2
				c-0.8-0.5-1.2-0.8-1.3-1.3c0-0.5,0.3-0.8,1-1.5c0,0,0.1-0.1,0.1-0.1c0.1-0.1,0.1-0.1,0.2-0.2c0,0-0.1-0.1-0.2-0.1
				c-0.9-0.4-1.4-0.6-1.5-1.1c-0.2-0.5,0.1-1,0.7-1.8c0-0.1,0.1-0.1,0.1-0.2c0,0-0.1,0-0.2-0.1c-1-0.2-1.5-0.3-1.8-0.8
				c-0.2-0.5,0-1,0.3-1.9c0-0.1,0.1-0.2,0.1-0.2c0,0-0.1,0-0.2,0c-0.1,0-0.3,0-0.4,0c-0.4,0.1-1.1,0.2-1.6-0.4
				c-0.4-0.5-0.2-1.1-0.1-1.6c0.1-0.2,0.1-0.3,0.1-0.4c0-0.1,0-0.1,0-0.2c0,0-0.1,0-0.2,0c-0.1,0-0.3,0.1-0.4,0.1
				c-0.4,0.1-1.1,0.4-1.6-0.1c-0.5-0.4-0.4-1.1-0.4-1.5c0-0.2,0-0.3,0-0.4c0-0.1,0-0.1,0-0.2c0,0-0.1,0-0.1,0
				c-0.1,0-0.2,0.1-0.4,0.2c-0.1,0-0.2,0.1-0.2,0.1c-0.6,0.3-1,0.4-1.4,0.2c-0.4-0.2-0.5-0.7-0.6-1.3c0-0.1-0.1-0.5-0.1-0.7
				c-0.1,0.1-0.3,0.2-0.6,0.4c-0.6,0.4-1,0.7-1.5,0.6c-0.4-0.1-0.6-0.6-0.9-1.3c-0.1-0.3-0.2-0.5-0.3-0.6c-0.1,0.1-0.2,0.2-0.5,0.5
				c-0.5,0.5-0.8,0.9-1.3,0.9c-0.5,0-0.7-0.5-1.1-1.1c-0.2-0.3-0.3-0.5-0.4-0.6c-0.1,0.1-0.2,0.3-0.4,0.5l-0.1,0.1
				c0,0.1-0.1,0.1-0.1,0.2c-0.3,0.5-0.6,0.8-1,0.8c-0.4,0-0.7-0.2-1.1-0.6c-0.5-0.6-0.6-0.7-0.7-0.8c0,0-0.1,0.2-0.4,1
				c-0.1,0.2-0.2,0.8-0.7,1c-0.5,0.2-0.9-0.1-1.3-0.3c-0.2-0.2-0.6-0.4-0.8-0.5c-0.1,0.2-0.1,0.6-0.2,0.9c-0.1,0.5-0.2,0.9-0.6,1.1
				c-0.4,0.2-0.8,0.1-1.2-0.1c-0.3-0.1-0.7-0.3-0.9-0.4c0,0.2,0,0.6,0,0.9c0,0.4,0,0.9-0.4,1.2c-0.4,0.3-0.9,0.2-1.2,0.2
				c-0.3-0.1-0.7-0.2-0.9-0.2c0,0.2,0.1,0.6,0.2,1c0.1,0.3,0.1,0.8-0.2,1.1c-0.3,0.4-0.7,0.4-1.1,0.4c-0.4,0-0.8,0-1,0
				c0.1,0.2,0.2,0.6,0.4,1c0.1,0.3,0.3,0.7,0,1.1c-0.2,0.4-0.6,0.5-0.9,0.6c-0.4,0.1-0.8,0.2-1,0.2c0.1,0.2,0.3,0.6,0.6,0.9
				c0.1,0.2,0.4,0.6,0.2,1.1c-0.2,0.5-0.7,0.7-0.8,0.7c-0.2,0.1-0.4,0.1-0.6,0.2c-0.2,0.1-0.4,0.2-0.5,0.2c0.1,0.1,0.2,0.2,0.3,0.3
				c0.7,0.6,1,1,1,1.4c0,0.5-0.5,0.7-1.3,1.2l-0.1,0.1c-0.1,0.1-0.2,0.1-0.2,0.2c0,0,0.1,0.1,0.2,0.2c0.3,0.2,0.5,0.3,0.8,0.5
				c0.4,0.2,0.6,0.5,0.6,0.8c0,0.3-0.1,0.6-0.5,0.9c-0.2,0.2-0.4,0.4-0.6,0.5c-0.1,0.1-0.2,0.2-0.3,0.3c0.1,0,0.2,0.1,0.4,0.2
				c0.9,0.3,1.3,0.5,1.5,1c0.1,0.5-0.1,0.9-0.7,1.6l-0.5-0.1l0.4,0.3c-0.1,0.1-0.1,0.2-0.1,0.2c0.1,0,0.2,0.1,0.3,0.1
				c0.9,0.2,1.4,0.3,1.7,0.8c0.2,0.5,0,1-0.3,1.9c0,0.1-0.1,0.2-0.1,0.2c0,0,0.1,0,0.2,0c1,0,1.5,0.1,1.8,0.5
				c0.3,0.4,0.2,0.9,0.1,1.9c0,0.1,0,0.1,0,0.2c0,0,0.1,0,0.2,0c0.1,0,0.2,0,0.3-0.1l0.3-0.1c0.6-0.1,1.1-0.3,1.5,0.1
				c0.4,0.3,0.4,0.9,0.3,1.5l0,0c0,0.4,0,0.6,0,0.7c0,0,0.1,0,0.2-0.1c0.9-0.4,1.4-0.5,1.9-0.3c0.5,0.2,0.6,0.8,0.8,1.7
				c0,0.1,0,0.2,0.1,0.2c0,0,0.1,0,0.1-0.1c0.1-0.1,0.2-0.2,0.4-0.3c0.3-0.3,0.8-0.7,1.4-0.5c0.7,0.2,0.9,0.8,1,1.3
				c0,0.2,0.1,0.3,0.1,0.4c0,0.1,0.1,0.1,0.1,0.1c0,0,0.1,0,0.1-0.1c0.1-0.1,0.2-0.2,0.3-0.4C-477.1,400.1-476.8,399.7-476.1,399.7z
				 M-474.5,397.6c-1.6,0-3.1-0.3-4.6-0.8c-0.9-0.3-1.4-0.8-1.5-1.7c-0.2-0.8-0.3-1.6-0.5-1.7c-0.2-0.1-1,0-1.8,0.2
				c-1.2,0.3-1.6-0.5-2-1c-0.1-0.1-0.2-0.2-0.3-0.4c-0.1-0.1-0.1-0.3-0.1-0.5c0.1-0.2,0.2-0.3,0.4-0.3l0.4,0c0.3,0,0.5,0,0.7,0l2,0
				c2.2,0,4.5,0,6.7,0c0.3,0,0.4,0,0.4,0c0,0,0-0.1,0-0.3c-0.1-0.8,0-1.5,0-2.3l0-0.2c0,0,0,0,0-0.1c0,0,0,0-0.1,0c-0.3,0-0.7,0-1,0
				c-0.3,0-0.7,0-1,0c-0.7,0-1.1-0.3-1.1-1.1c-0.1-1.1-0.1-1.6,0.3-1.9c0.4-0.4,0.9-0.4,1.9-0.4h1.1c2.1,0,2.9,0.7,3.3,2.7
				c0,0.2,0.1,0.5,0.1,0.7c0.1,0.4,0.2,0.9,0.3,1.3c0.3,1.2,0.9,1.6,2.2,1.6h4.6c0.2,0,0.4,0.1,0.4,0.3s0.1,0.4,0,0.5
				c-1,1.6-1.2,1.8-2.9,1.4l-0.3-0.1c-0.2,0-0.4-0.1-0.6-0.1c-0.4-0.1-0.5,0.1-0.6,0.3l-0.1,0.2c-0.1,0.2-0.1,0.5-0.1,0.7
				c0,0.1,0,0.1,0,0.2c0.2-0.8,0.8-1.2,1.6-1.2c0.5,0,0.9,0.2,1.1,0.5c0.3,0.3,0.4,0.7,0.4,1.1c0,0.9-0.7,1.5-1.6,1.5
				c-0.9,0-1.4-0.6-1.5-1.5c-0.3,1.2-1.2,1.6-2.2,1.8C-471.9,397.4-473.2,397.6-474.5,397.6z M-481.1,392.3c0.2,0,0.4,0.1,0.6,0.2
				c0.6,0.4,0.7,1.1,0.9,2.4c0.1,0.5,0.3,0.8,0.9,1c2.6,0.9,5.2,1,7.9,0.2c1.1-0.3,1.5-0.7,1.5-1.5c0-0.3,0.1-0.7,0.2-0.9l0.1-0.2
				c0.2-0.6,0.5-1,1-1.1h-0.7c-1.7,0-2.7-0.7-3.1-2.3c-0.1-0.4-0.2-0.9-0.3-1.4c0-0.2-0.1-0.4-0.1-0.7c-0.3-1.6-0.8-1.9-2.3-1.9
				h-1.1c-0.5,0-1.1,0-1.2,0.1c0,0.1,0,0.6,0,1.2c0,0.1,0,0.2,0,0.2c0,0,0,0,0.1,0c0.4,0,0.7,0,1.1,0c0.3,0,0.6,0,1,0
				c0.1,0,0.5,0,0.8,0.3c0.3,0.3,0.3,0.7,0.3,0.8l0,0.2c0,0.7,0,1.5,0,2.2c0,0.3,0,0.8-0.3,1.1c-0.3,0.3-0.7,0.4-1.1,0.3
				C-477.1,392.3-479.1,392.3-481.1,392.3z M-467.4,395.1c0.1,0.5,0.3,0.6,0.6,0.6c0.4,0,0.6-0.2,0.6-0.5c0-0.2,0-0.3-0.1-0.4
				c-0.1-0.1-0.3-0.2-0.4-0.2C-467,394.6-467.3,394.6-467.4,395.1z M-467.4,392.3c0.2,0,0.4,0.1,0.6,0.1l0.3,0.1
				c0.8,0.2,1,0.2,1.3-0.2H-467.4z M-483.9,392.3c0.2,0.3,0.4,0.3,0.7,0.3c0.6-0.1,1.1-0.2,1.5-0.3c0,0-0.1,0-0.1,0l-2,0
				C-483.8,392.3-483.8,392.3-483.9,392.3z M-482.3,396.6c-0.9,0-1.5-0.6-1.6-1.5c0,0,0-0.1,0-0.1c0.1-0.9,0.7-1.5,1.6-1.5
				c0.9,0,1.6,0.6,1.6,1.6c0,0.5-0.1,0.8-0.4,1.1S-481.8,396.6-482.3,396.6C-482.3,396.6-482.3,396.6-482.3,396.6z M-482.8,395.1
				c0.1,0.5,0.3,0.6,0.6,0.6c0,0,0,0,0,0c0.1,0,0.3,0,0.4-0.1c0.1-0.1,0.1-0.3,0.1-0.4c0-0.4-0.2-0.6-0.6-0.6
				C-482.5,394.5-482.8,394.6-482.8,395.1z M-464.8,388.4c-0.2,0-0.5,0-0.7-0.1c-0.8-0.2-1.2-0.7-1.4-1.4c-0.2-1.1-0.6-1.9-1.4-2.5
				c-0.1-0.1-0.5-0.4-0.5-0.8c0-0.4,0.4-0.6,0.7-0.7c0,0,0.1,0,0.1-0.1c1.2-0.9,1.8-2,1.7-3.1c-0.1-1.2-1.1-2.4-2.5-2.9
				c-0.6-0.3-1.3-0.4-2.1-0.4c0,0,0,0,0,0c-3,0-6,0-8.9,0l-4.1,0c-0.2,0-0.4-0.2-0.5-0.4l-0.1-0.2c0-0.2,0-0.3,0.1-0.5
				c1.9-2,4.2-3.3,6.9-3.9c0.8-0.2,1.2,0.3,1.4,0.6c0.6,0.6,1.2,1.3,1.4,1.3c0.2,0,0.7-0.5,1.3-1.1l0.2-0.2c0.6-0.6,1.2-0.7,2-0.5
				c3.3,0.9,6,2.8,7.9,5.7c0.4,0.6,0.4,1.2,0.1,1.8c-0.2,0.4-0.4,0.9-0.6,1.3l-0.2,0.4c-0.3,0.8-0.3,0.8,0.5,1.1l0.2,0.1
				c0.2,0.1,0.3,0.2,0.5,0.2c1.2,0.3,1.7,1.1,1.6,2.3c0,0.5-0.1,0.9-0.5,1.2c-0.3,0.2-0.6,0.3-1,0.2c0,0,0,0-0.1,0
				c0,0.1,0,0.2,0,0.2c0,0.1,0,0.2,0,0.2c-0.1,0.8-0.4,1.5-0.9,1.8C-464,388.3-464.3,388.4-464.8,388.4z M-467.5,383.7
				c0.9,0.7,1.5,1.7,1.7,3.1c0,0.3,0.2,0.5,0.6,0.6c0.3,0.1,0.7,0.1,1-0.1c0.3-0.2,0.5-0.6,0.5-1.1l0-0.2c0-0.3,0-0.7,0.3-1
				c0.2-0.2,0.5-0.2,0.9-0.2c0.2,0,0.3,0,0.3,0c0,0,0.1-0.1,0.1-0.5c0.1-0.8-0.2-1.1-0.8-1.3c-0.3-0.1-0.5-0.2-0.7-0.3l-0.2-0.1
				c-1.3-0.6-1.5-1.2-1-2.4l0.2-0.4c0.2-0.5,0.4-0.9,0.6-1.4c0.2-0.3,0.1-0.5-0.1-0.8c-1.8-2.7-4.2-4.4-7.3-5.3
				c-0.4-0.1-0.7-0.1-1,0.3l-0.2,0.2c-0.9,0.9-1.4,1.4-2,1.4c-0.7,0-1.2-0.6-2.1-1.6c-0.3-0.3-0.3-0.3-0.5-0.3
				c-2.2,0.5-4.1,1.5-5.8,3l3.2,0c3,0,6,0,8.9,0c0.8,0,1.7,0.2,2.5,0.5c1.8,0.7,3,2.2,3.1,3.7c0.2,1.5-0.6,2.9-2.1,4
				C-467.4,383.6-467.5,383.7-467.5,383.7z M-483.7,388.3C-483.7,388.3-483.7,388.3-483.7,388.3c-0.5,0-0.9,0-1.4,0l-0.6,0
				c-1.5,0-1.7-0.2-2-1.6c-0.1-0.3-0.1-0.7-0.1-1l0-0.4c-0.3-2.4-0.1-2.7,2-3.6c0.9-0.4,0.9-0.4,0.5-1.3c-0.1-0.2-0.2-0.6,0-1
				c0.2-0.3,0.7-0.4,0.8-0.4c0.6,0,1.1-0.1,1.5,0.2c0.3,0.3,0.3,0.8,0.3,1.4l0,3v0l0,0.9c0,0.8,0,1.7,0,2.5c0,0.2,0,0.6-0.3,0.9
				C-483.1,388.2-483.3,388.3-483.7,388.3z M-484.5,387.3c0.2,0,0.5,0,0.7,0c0.1,0,0.1,0,0.1,0c0,0,0-0.1,0-0.2c0-0.8,0-1.7,0-2.5
				l0-1.6l0-2.3c0-0.1,0-0.6-0.1-0.7c-0.1,0-0.4,0-0.7,0c0.5,1.4,0.3,1.9-1.1,2.5c-1.7,0.8-1.7,0.8-1.5,2.6l0,0.4
				c0,0.3,0.1,0.6,0.1,0.9c0.1,0.3,0.1,0.7,0.2,0.8c0.1,0,0.5,0,0.8,0l0.6,0C-484.9,387.3-484.7,387.3-484.5,387.3z M-476.8,382.7
				c-0.7,0-1.1-0.4-1.1-1.2c0-1.1-0.1-1.6,0.3-2c0.4-0.4,0.9-0.4,2-0.4h0.7h0l0.5,0c0.4,0,0.8,0,1.2,0c0.5,0,1,0.1,1.5,0.4
				c0.8,0.5,0.9,1.1,0.9,1.6c-0.1,0.6-0.4,1-1.1,1.3c-0.6,0.2-1.1,0.3-1.9,0.3l-0.7,0C-475.4,382.7-476.1,382.7-476.8,382.7
				C-476.8,382.7-476.8,382.7-476.8,382.7z M-476.9,381.7c0,0,0.1,0,0.1,0c0.7,0,1.4,0,2.1,0l0.7,0c0.6,0,1,0,1.5-0.2
				c0.4-0.2,0.5-0.3,0.5-0.5c0-0.2,0-0.4-0.4-0.6c-0.3-0.2-0.6-0.3-0.9-0.2c-0.4,0-0.8,0-1.2,0l-1.2,0c-0.6,0-1.1,0-1.2,0.1
				c-0.1,0.1,0,0.6,0,1.2C-476.9,381.6-476.9,381.7-476.9,381.7C-476.9,381.7-476.9,381.7-476.9,381.7z M-462.2,382.1
				C-462.2,382.1-462.2,382.1-462.2,382.1c-1-0.1-1.5-0.7-1.5-1.7c0-0.9,0.6-1.5,1.5-1.5c0,0,0,0,0,0c0.5,0,0.9,0.2,1.1,0.4
				c0.3,0.3,0.4,0.7,0.4,1.1C-460.6,381.4-461.2,382-462.2,382.1C-462.1,382.1-462.2,382.1-462.2,382.1z M-462.1,380
				c-0.4,0-0.5,0.2-0.5,0.5c0,0.3,0.1,0.5,0.5,0.6c0.5,0,0.6-0.3,0.6-0.5c0-0.1,0-0.3-0.1-0.4C-461.8,380-462,380-462.1,380z
				 M-487,382c-0.9,0-1.5-0.6-1.5-1.5c0-0.5,0.1-0.9,0.4-1.1c0.3-0.3,0.7-0.5,1.1-0.5c0.9,0,1.5,0.5,1.6,1.5c0,0,0,0.1,0,0.1
				C-485.5,381.4-486,382-487,382C-487,382-487,382-487,382z M-487,379.9C-487,379.9-487,379.9-487,379.9c-0.2,0-0.3,0-0.4,0.2
				c-0.1,0.1-0.1,0.3-0.1,0.4c0,0.4,0.2,0.6,0.6,0.5c0.3,0,0.5-0.1,0.5-0.6C-486.5,380-486.7,379.9-487,379.9z M-474.5,372.6
				C-474.5,372.6-474.5,372.6-474.5,372.6c-1-0.1-1.6-0.6-1.6-1.5c0-0.9,0.6-1.6,1.5-1.6c0.5,0,0.9,0.1,1.2,0.4
				c0.3,0.3,0.4,0.6,0.5,1.1C-472.9,371.9-473.5,372.5-474.5,372.6C-474.5,372.6-474.5,372.6-474.5,372.6z M-474.5,370.5
				C-474.5,370.5-474.5,370.5-474.5,370.5c-0.4,0-0.6,0.2-0.6,0.6c0,0.3,0.1,0.5,0.6,0.5c0.6-0.1,0.6-0.4,0.6-0.6
				c0-0.1,0-0.3-0.2-0.4C-474.2,370.5-474.4,370.5-474.5,370.5z"/>
		</g>
	</g>
</g>
</svg>
