<svg x="0px" y="0px" viewBox="-493 366 37 37" style="enable-background:new -493 366 37 37;" xml:space="preserve">
  <style type="text/css">
    .langugae-python{fill:#EAC821;}
  </style>
  <g>
    <g>
      <path class="langugae-python" d="M-484.9,393.1C-484.9,393.1-484.9,393.1-484.9,393.1c-4.4-0.6-7.6-4.2-7.6-8.6c0-4.8,3.9-8.7,8.7-8.7
			   c0.2,0,0.5,0,0.7,0c0-0.1,0-0.2,0.1-0.3c0.1-0.1,0.2-0.2,0.4-0.2h7.6c0.2,0,0.3-0.1,0.3-0.3c0-0.2-0.1-0.3-0.3-0.3h-7.5
			   c-0.1,0-0.3-0.1-0.4-0.2c-0.1-0.1-0.1-0.2-0.1-0.4c0.5-4.4,4.2-7.7,8.6-7.7c4.8,0,8.7,3.9,8.7,8.7c0,0.5-0.3,3.5-0.6,4.8l-0.1,0.5
			   c-0.5,2.1-1,3.4-4.4,3.4h-7.6c0,0,0,0-0.1,0c-0.5,0-2.5,0.1-3.9,1.4c-0.9,0.9-1.4,2.1-1.4,3.7l-0.4,3.7c0,0.1-0.1,0.3-0.2,0.3
			   C-484.7,393-484.8,393.1-484.9,393.1z M-483.8,376.8c-4.2,0-7.7,3.4-7.7,7.7c0,3.7,2.6,6.8,6.2,7.5l0.3-3.1c0-1.8,0.6-3.3,1.7-4.3
			   c1.7-1.6,3.9-1.7,4.6-1.7l0,0.5v-0.5h7.6c2.9,0,3-0.8,3.5-2.6l0.1-0.5c0.3-1.2,0.6-4.2,0.6-4.6c0-4.2-3.4-7.7-7.7-7.7
			   c-3.7,0-6.9,2.7-7.5,6.3h7c0.7,0,1.3,0.6,1.3,1.3s-0.6,1.3-1.3,1.3h-7c0,0.2,0,0.3-0.1,0.4c-0.1,0.1-0.3,0.2-0.4,0.1
			   C-483.1,376.9-483.5,376.8-483.8,376.8z M-478.7,373.7c-1,0-1.8-0.8-1.8-1.8s0.8-1.8,1.8-1.8s1.8,0.8,1.8,1.8
			   S-477.7,373.7-478.7,373.7z M-478.7,371.1c-0.4,0-0.8,0.4-0.8,0.8s0.4,0.8,0.8,0.8s0.8-0.4,0.8-0.8S-478.3,371.1-478.7,371.1z"/>
    </g>
    <g>
      <path class="langugae-python" d="M-474.5,402.5c-4.7,0-8.6-3.8-8.7-8.5c0,0,0-0.1,0.2-3.2c0.1-0.9,0.1-1.7,0.1-1.8c0-1.2,0.4-2.2,1-2.9
			   c1.2-1.2,3.1-1.1,3.1-1.1h7.7c4.6,0,5.1-2.4,5.6-4.3l0.1-0.5c0.2-0.9,0.3-1.9,0.4-2.7c0.1-0.5,0.1-1,0.2-1.3
			   c0.1-0.3,0.3-0.4,0.6-0.4c4.3,0.6,7.6,4.4,7.6,8.6c0,4.8-3.9,8.7-8.7,8.7c-0.2,0-0.5,0-0.7,0c0,0.1,0,0.3-0.1,0.4
			   c-0.1,0.1-0.2,0.2-0.4,0.2h-7.7c-0.2,0-0.3,0.1-0.3,0.3s0.1,0.3,0.3,0.3h7.7c0.1,0,0.3,0.1,0.4,0.2c0.1,0.1,0.1,0.2,0.1,0.4
			   C-466.4,399.2-470.1,402.5-474.5,402.5z M-478.7,386c-0.2,0-1.5,0-2.4,0.8c-0.5,0.5-0.7,1.2-0.7,2.2c0,0-0.1,0.9-0.1,1.8
			   c-0.1,1.4-0.2,3.1-0.2,3.2c0.1,4.1,3.5,7.5,7.7,7.5c3.7,0,6.8-2.6,7.5-6.2h-7.1c-0.7,0-1.3-0.6-1.3-1.3s0.6-1.3,1.3-1.3h7.1
			   c0,0,0,0,0,0c0-0.2,0-0.3,0.1-0.4c0.1-0.1,0.3-0.2,0.4-0.1c0.5,0.1,0.9,0.1,1.2,0.1c4.2,0,7.7-3.4,7.7-7.7c0-3.6-2.7-6.8-6.3-7.5
			   c0,0.2-0.1,0.4-0.1,0.7c-0.1,0.8-0.2,1.9-0.5,2.8l-0.1,0.5c-0.5,2-1.2,5.1-6.5,5.1H-478.7C-478.7,386-478.7,386-478.7,386z
			   M-470.7,399c-1,0-1.8-0.8-1.8-1.8s0.8-1.8,1.8-1.8s1.8,0.8,1.8,1.8S-469.8,399-470.7,399z M-470.7,396.4c-0.4,0-0.8,0.4-0.8,0.8
			   c0,0.4,0.4,0.8,0.8,0.8c0.4,0,0.8-0.4,0.8-0.8C-469.9,396.8-470.3,396.4-470.7,396.4z"/>
    </g>
  </g>
</svg>
