<svg x="0px" y="0px" viewBox="-493 366 37 37" style="enable-background:new -493 366 37 37;" xml:space="preserve">
  <style type="text/css">
    .language-go{fill:#58B5BF;}
  </style>
  <path class="language-go" d="M-468.7,402.3c-1.2,0-1.6-1-1.7-1.4c0,0-0.5-1.2-0.7-1.7c-1.1,0.2-2.3,0.3-3.6,0.3c-1.2,0-2.2-0.1-3.2-0.2
		       c-0.2,0.5-0.6,1.6-0.6,1.6c-0.2,0.5-0.8,2-2.8,1.2c-2-0.8-1.5-2.2-1.2-2.8l0.6-1.6c-2.6-1.9-3-5.2-3-8.4V387l-0.2,0.2
		       c-0.4,0.4-1.5,1.5-3.1,0c-1.5-1.5-0.4-2.6,0-3l0,0c0.3-0.3,0.9-1,2.2-2.2l1-1v-3.8c0-1.6,0.1-2.8,0.3-3.8
		       c-1.3-0.3-2.2-1.4-2.2-2.8c0-1.5,1.3-2.8,2.8-2.8c0.9,0,1.7,0.4,2.2,1c1.6-1.2,4-1.7,7.2-1.7c3.1,0,5.4,0.5,7.1,1.7
		       c0.5-0.6,1.3-1,2.1-1c1.5,0,2.8,1.3,2.8,2.8c0,1.3-0.9,2.4-2.1,2.7c0.2,1,0.3,2.3,0.3,3.8v3.9l3.2,3.1c0,0,0,0,0,0
		       c0.4,0.4,1.5,1.5,0,3c-1.5,1.5-2.6,0.4-3,0l-0.2-0.2v2.4c0,3.1-0.3,6.1-2.7,8.1l0.7,1.8c0.2,0.6,0.8,2-1.2,2.8
		       C-468,402.3-468.4,402.3-468.7,402.3z M-470.7,398c0.2,0,0.5,0.1,0.5,0.4l0.8,2.1c0.3,0.6,0.4,0.9,1.3,0.6
		       c0.9-0.4,0.8-0.7,0.6-1.3l-0.9-2.2c-0.1-0.2,0-0.5,0.2-0.7c2.1-1.5,2.5-4.1,2.6-7.4v-3.8c0-0.2,0.1-0.4,0.4-0.5
		       c0.2-0.1,0.5,0,0.6,0.1l1.1,1.1c0.5,0.5,0.7,0.7,1.4,0s0.5-0.9,0-1.4l-3.4-3.3c-0.1-0.1-0.2-0.3-0.2-0.4v-4.1
		       c0-1.8-0.1-3.1-0.4-4.2c0-0.2,0-0.4,0.1-0.5c0.1-0.1,0.3-0.2,0.5-0.2c0.9,0,1.7-0.7,1.7-1.7s-0.7-1.7-1.7-1.7
		       c-0.6,0-1.2,0.4-1.5,0.9c-0.1,0.2-0.2,0.3-0.4,0.3c-0.2,0-0.3,0-0.5-0.1c-1.4-1.2-3.7-1.8-6.9-1.8c-3.2,0-5.5,0.6-6.9,1.9
		       c-0.1,0.1-0.3,0.2-0.5,0.1c-0.2,0-0.3-0.2-0.4-0.3c-0.3-0.6-0.9-1-1.5-1c-0.9,0-1.7,0.7-1.7,1.7s0.7,1.7,1.7,1.7
		       c0.2,0,0.4,0.1,0.5,0.2s0.2,0.3,0.2,0.5c-0.3,1.1-0.4,2.4-0.4,4.2c0,0,0,0,0,0c0,0.1,0,1.9,0,4.1c0,0.2-0.1,0.3-0.2,0.4
		       l-3.5,3.4c-0.5,0.5-0.7,0.7,0,1.4c0.7,0.7,0.9,0.5,1.4,0l1.2-1.2c0.2-0.2,0.4-0.2,0.6-0.1c0.2,0.1,0.4,0.3,0.4,0.5v3.8
		       c0,3.5,0.5,6.2,2.9,7.7c0.2,0.1,0.3,0.4,0.2,0.7l-0.8,2c-0.2,0.6-0.3,0.9,0.6,1.3c0.9,0.4,1.1,0.1,1.3-0.6
		       c0.8-1.9,0.8-1.9,0.8-2l0-0.1c0.1-0.3,0.4-0.4,0.6-0.4c1,0.2,2.1,0.3,3.4,0.3c1.5,0,2.8-0.1,3.8-0.4
		       C-470.8,398-470.8,398-470.7,398z M-473.6,382.3h-0.4c-0.3,0-0.5-0.1-0.7-0.3c-0.2,0.2-0.5,0.3-0.7,0.3h-0.4
		       c-0.6,0-1.1-0.5-1.1-1.1v-1.1c-0.6-0.3-1.1-1-1.1-1.7c0-0.8,0.5-1.5,1.3-1.8c0.2-0.7,1-1.3,2.1-1.3c1,0,1.9,0.5,2,1.2
		       c0.8,0.2,1.3,1,1.3,1.8c0,0.8-0.5,1.5-1.2,1.8v1C-472.4,381.8-472.9,382.3-473.6,382.3z M-474.6,378.8c0.1,0,0.1,0,0.2,0
		       c0.3,0,0.5,0.3,0.5,0.6l0,1.9l0.3,0l0-1.4c0-0.3,0.2-0.5,0.5-0.6c0.4,0,0.7-0.4,0.7-0.8c0-0.4-0.3-0.8-0.8-0.8
		       c-0.2,0-0.3-0.1-0.4-0.2c-0.1-0.1-0.1-0.3-0.1-0.5c0-0.1-0.3-0.4-0.9-0.4c-0.6,0-1,0.3-1,0.4c0,0.2,0,0.3-0.1,0.5
		       c-0.1,0.1-0.3,0.2-0.4,0.2c-0.4,0-0.7,0.4-0.7,0.8c0,0.4,0.3,0.7,0.6,0.8c0.3,0.1,0.5,0.3,0.5,0.6v1.5l0.3,0l0-1.8
		       c0-0.3,0.2-0.5,0.5-0.6C-474.9,378.8-474.7,378.8-474.6,378.8z M-471,376.2c-1.8,0-3.3-1.5-3.3-3.3c0-1.8,1.5-3.3,3.3-3.3
		       c1.8,0,3.3,1.5,3.3,3.3C-467.7,374.7-469.2,376.2-471,376.2z M-471,370.7c-1.2,0-2.2,1-2.2,2.2c0,1.2,1,2.2,2.2,2.2
		       c1.2,0,2.2-1,2.2-2.2C-468.8,371.7-469.8,370.7-471,370.7z M-478.5,376.2c-1.8,0-3.3-1.5-3.3-3.3c0-1.8,1.5-3.3,3.3-3.3
		       c1.8,0,3.3,1.5,3.3,3.3C-475.1,374.7-476.6,376.2-478.5,376.2z M-478.5,370.7c-1.2,0-2.2,1-2.2,2.2c0,1.2,1,2.2,2.2,2.2
		       c1.2,0,2.2-1,2.2-2.2C-476.3,371.7-477.2,370.7-478.5,370.7z"/>

  <path class="language-go" d="M-470.9,374.4c-0.9,0-1.5-0.7-1.5-1.5c0-0.9,0.7-1.5,1.5-1.5c0.9,0,1.5,0.7,1.5,1.5
		       C-469.4,373.7-470.1,374.4-470.9,374.4z M-470.9,372.4c-0.2,0-0.4,0.2-0.4,0.4c0,0.2,0.2,0.4,0.4,0.4c0.2,0,0.4-0.2,0.4-0.4
		       C-470.5,372.6-470.7,372.4-470.9,372.4z"/>

  <path class="language-go" d="M-478.4,374.4c-0.9,0-1.5-0.7-1.5-1.5c0-0.9,0.7-1.5,1.5-1.5s1.5,0.7,1.5,1.5
		       C-476.9,373.7-477.6,374.4-478.4,374.4z M-478.4,372.4c-0.2,0-0.4,0.2-0.4,0.4c0,0.2,0.2,0.4,0.4,0.4c0.2,0,0.4-0.2,0.4-0.4
		       C-478,372.6-478.2,372.4-478.4,372.4z"/>

</svg>
