<svg x="0px" y="0px" viewBox="-493 366 37 37" style="enable-background:new -493 366 37 37;" xml:space="preserve">
  <style type="text/css">
    .language-perl{fill:#6082C6;}
  </style>
  <g>
    <path class="language-perl" d="M-475.2,397.4c-1,0-1.4-1-1.5-1.4c-0.2-0.5-0.3-1-0.5-1.5c-0.2-0.7-0.4-1.3-0.7-2l-0.1-0.3
		         c-0.5-1.4-1.1-2.7-2.4-3.2c-2.9-1.1-4.8-3.3-5.7-6.8c-0.3-1.2-0.8-2-1.5-2.4c-0.6-0.3-1.4-0.3-2.4,0c-0.2,0.1-0.4,0.1-0.6,0.1
		         c-0.8,0-1.4-0.3-1.8-0.8c-0.3-0.5-0.4-1.1-0.1-1.9c0.4-1.1,1.3-1.9,2.7-2.2c1.1-0.2,2.2-0.5,3.1-1.2c0.8-0.5,1.7-0.6,2.9-0.1
		         l0.3,0.1c0.4,0.2,0.7,0.3,1.1,0.2c0.5-0.1,0.8,0,1,0.3c0.2,0.3,0.3,0.7,0.1,1.3c-0.5,1.3-0.5,2.8-0.2,4.5c0.1,0.4,0.3,0.8,0.7,1
		         c0.4,0.3,1,0.3,1.5,0.1c0.9-0.3,1.4-1.4,1.7-2.2c0.1-0.3,0.2-0.5,0.3-0.6c1.2-2.2,3.1-3.5,4.9-3.5c1.9,0,3.6,1,4.4,2.7
		         c0.8-1.6,2.5-2.7,4.4-2.7c1.2,0,2.3,0.4,3.2,1.2c0,0,0.1,0.1,0.1,0.1c1.4,1.2,2.9,4.2,3.5,6.3l0,0c0.6,1.8,0.2,3.8,0.1,4.2
		         c-0.7,3.1-1.7,6.1-2.7,9l-0.1,0.2c-0.2,0.6-0.6,1.6-1.7,1.5c-1.1-0.1-1.3-1.1-1.3-1.7l0-0.3c-0.2-1.1-0.4-2.1-0.6-3.2l-0.1-0.7
		         c-0.1-0.6-0.4-1-0.8-1.4c-1.7-1.4-6.5-1.2-8.1,0.3c-0.3,0.3-0.5,0.7-0.7,1.2c-0.5,1.3-0.6,2.6-0.7,3.8c0,0.6-0.1,1.7-1.3,1.9
		         C-475,397.3-475.1,397.4-475.2,397.4z M-488.7,378.6c0.5,0,1,0.1,1.5,0.4c0.9,0.5,1.5,1.4,1.9,2.9c0.9,3.2,2.5,5.2,5.2,6.2
		         c1.7,0.6,2.4,2.3,2.9,3.8l0.1,0.3c0.3,0.7,0.5,1.4,0.7,2c0.2,0.5,0.3,1,0.5,1.5c0.3,0.7,0.5,0.9,0.8,0.9c0.4-0.1,0.5-0.3,0.5-1.1
		         c0.1-1.2,0.3-2.6,0.8-4c0.2-0.4,0.4-1.1,1-1.6c1.9-1.8,7.3-2,9.3-0.3c0.6,0.5,0.9,1.1,1.1,1.9l0.1,0.7c0.2,1.1,0.4,2.1,0.6,3.2
		         l0,0.3c0.1,0.7,0.2,0.9,0.5,0.9c0.4,0,0.5-0.2,0.8-0.9l0.1-0.2c1-2.8,2-5.8,2.7-8.8c0-0.2,0.4-2.2-0.1-3.8
		         c-0.7-2.2-2.2-4.9-3.3-5.9c0,0,0,0-0.1-0.1c-0.8-0.7-1.7-1-2.7-1c-1.9,0-3.5,1.3-4,3.1c0,0.2-0.2,0.3-0.4,0.3l0,0
		         c-0.2,0-0.4-0.1-0.4-0.3c-0.5-1.8-2.1-3.1-4-3.1c-1.5,0-3,1.2-4.1,3.1c-0.1,0.1-0.1,0.3-0.2,0.5c-0.4,0.9-0.9,2.3-2.3,2.7
		         c-0.8,0.2-1.6,0.1-2.3-0.2c-0.6-0.3-0.9-0.9-1.1-1.6c-0.3-1.9-0.3-3.5,0.2-4.9c0.1-0.2,0.1-0.4,0.1-0.4c0,0-0.1,0-0.2,0
		         c-0.6,0.1-1.1-0.1-1.6-0.3l-0.2-0.1c-0.9-0.3-1.5-0.3-2,0c-1.1,0.8-2.3,1.1-3.5,1.3c-1.1,0.2-1.8,0.8-2.1,1.6c-0.2,0.4-0.1,0.8,0,1
		         c0.2,0.3,0.5,0.4,1,0.4c0.1,0,0.3,0,0.4,0C-489.7,378.7-489.2,378.6-488.7,378.6z"/>
  </g>
</svg>
