<svg x="0px" y="0px" viewBox="0 0 37 37" style="enable-background:new 0 0 37 37;" xml:space="preserve">
  <style type="text/css">
    .language-clojure{fill:#5881D8;}
  </style>
  <g>
    <g>
      <path class="language-clojure" d="M18.5,28.2c-1.4,0-2.8-0.3-4.1-0.9c-0.2-0.1-0.3-0.3-0.3-0.5c0.6-3.1,2-5.8,3.1-7.5c0.1-0.2,0.3-0.2,0.5-0.2
			   c0.2,0,0.3,0.1,0.4,0.3c1,2.8,2.2,5.6,4.4,7.2c0.1,0.1,0.2,0.3,0.2,0.5c0,0.2-0.1,0.3-0.3,0.4C21.2,27.9,19.8,28.2,18.5,28.2z
			   M15.2,26.5c1.9,0.8,4.1,0.9,6.1,0.2c-1.7-1.6-2.8-3.8-3.7-6.1C16.6,22.2,15.6,24.2,15.2,26.5z"/>
    </g>
    <g>
      <path class="language-clojure" d="M27.4,27c-0.4,0-0.7,0-1.1-0.1c-0.2,0-0.4-0.2-0.4-0.3c-0.1-0.2,0-0.4,0.1-0.5c2.1-2,3.2-4.7,3.2-7.6
			   c0-5.9-4.8-10.7-10.7-10.7c-1.6,0-3.1,0.4-4.6,1.1c-0.2,0.1-0.3,0.1-0.5,0c-1.1-0.7-2.3-1-3.7-1c-2.1,0-4,0.3-5.6,1
			   C4,8.9,3.7,8.8,3.6,8.6C3.4,8.5,3.4,8.2,3.6,8c3.4-4.9,9-7.8,14.9-7.8c10.1,0,18.2,8.2,18.2,18.2c0,2.1-0.4,4.2-1.1,6.2
			   c0,0.1-0.1,0.2-0.2,0.2C33.5,26.3,30.7,27,27.4,27z M18.5,6.8c6.5,0,11.7,5.3,11.7,11.7c0,2.8-1,5.4-2.7,7.5c3,0,5.5-0.6,7.3-1.8
			   c0.6-1.9,1-3.8,1-5.7C35.8,9,28,1.2,18.5,1.2c-5.1,0-9.9,2.2-13.1,6.1C6.7,7,8.1,6.8,9.7,6.8c1.5,0,2.8,0.3,4,1
			   C15.2,7.1,16.8,6.8,18.5,6.8z"/>
    </g>
    <g>
      <path class="language-clojure" d="M18.5,36.8c-10.1,0-18.2-8.2-18.2-18.2c0-2.3,0.4-4.5,1.3-6.7c0-0.1,0.1-0.1,0.1-0.1c1-1.1,3.3-2.9,8.1-2.9
			   c0.8,0,1.5,0.1,2.1,0.4c0.2,0.1,0.3,0.2,0.3,0.4s0,0.4-0.2,0.5c-2.7,2.1-4.2,5.1-4.2,8.5c0,5.9,4.8,10.7,10.7,10.7
			   c2,0,3.9-0.5,5.6-1.6c0.1-0.1,0.3-0.1,0.4,0c0.9,0.3,1.8,0.5,2.9,0.5c2.4,0,4.5-0.3,6.3-1c0.2-0.1,0.4,0,0.6,0.1
			   c0.1,0.2,0.2,0.4,0.1,0.6C31,33.3,24.9,36.8,18.5,36.8z M2.4,12.3c-0.8,2-1.2,4.1-1.2,6.2C1.2,28,9,35.8,18.5,35.8
			   c5.6,0,10.9-2.8,14.1-7.4c-1.6,0.4-3.3,0.7-5.3,0.7c-1.1,0-2-0.1-3-0.4c-1.8,1.1-3.8,1.6-5.9,1.6C12,30.2,6.8,25,6.8,18.5
			   c0-3.3,1.4-6.4,3.8-8.6c-0.3,0-0.6-0.1-0.9-0.1C5.4,9.8,3.3,11.3,2.4,12.3z"/>
    </g>
    <g>
      <path class="language-clojure" d="M24.1,26.3c-0.1,0-0.2,0-0.2-0.1c-3-1.6-4.2-5.1-5.5-8.8c-0.9-2.6-1.8-5.3-3.5-7.2c-0.1-0.1-0.1-0.3-0.1-0.5
			   c0-0.2,0.2-0.3,0.3-0.3c1.1-0.4,2.2-0.6,3.3-0.6c5.4,0,9.7,4.4,9.7,9.7c0,3-1.4,5.8-3.8,7.7C24.4,26.2,24.2,26.3,24.1,26.3z
			   M16.2,10.1c1.5,2,2.4,4.6,3.2,6.9c1.2,3.4,2.3,6.6,4.7,8.1c2-1.7,3.1-4.1,3.1-6.7c0-4.8-3.9-8.7-8.7-8.7
			   C17.7,9.8,17,9.9,16.2,10.1z"/>
    </g>
    <g>
      <path class="language-clojure" d="M12.8,26.2c-0.1,0-0.2,0-0.3-0.1c-2.3-1.9-3.7-4.6-3.7-7.6c0-3.3,1.7-6.3,4.4-8.1c0.2-0.1,0.5-0.1,0.6,0.1
			   c1.6,1.5,2.5,3.9,3.4,6.6c0.1,0.2,0,0.3-0.1,0.5c-0.7,0.9-3,4.2-3.9,8.3c0,0.2-0.2,0.3-0.3,0.4C12.9,26.2,12.8,26.2,12.8,26.2z
			   M13.4,11.4c-2.3,1.6-3.6,4.3-3.6,7.1c0,2.4,1,4.6,2.7,6.3c1-3.6,2.8-6.4,3.7-7.7C15.4,14.8,14.6,12.8,13.4,11.4z"/>
    </g>
  </g>
</svg>
