<svg x="0px" y="0px" viewBox="-493 366 37 37" style="enable-background:new -493 366 37 37;" xml:space="preserve">
  <style type="text/css">
    .language-java{fill:#E04E3F;}
  </style>
  <g>
    <g>
      <path class="language-java" d="M-472.9,402.6h-9.8c-2.4,0-4.3-1.9-4.3-4.3v-16.1c0-1,0.8-1.8,1.8-1.8h14.9c1,0,1.8,0.8,1.8,1.8v2.4h3.8
			   c1.2,0.1,3.5,1,3.5,3.9c0,3.4-2.3,6.9-7.3,7.1v2.6C-468.6,400.7-470.5,402.6-472.9,402.6z M-485.2,381.4c-0.4,0-0.8,0.3-0.8,0.8
			   v16.1c0,1.8,1.5,3.3,3.3,3.3h9.8c1.8,0,3.3-1.5,3.3-3.3v-3.1c0-0.3,0.2-0.5,0.5-0.5c5.1,0,6.8-3.3,6.8-6.1c0-2.7-2.5-2.9-2.6-2.9
			   l-4.3,0c-0.3,0-0.5-0.2-0.5-0.5v-2.9c0-0.4-0.3-0.8-0.8-0.8H-485.2z M-468.8,393.2c-0.1,0-0.2,0-0.3,0c-0.3,0-0.5-0.2-0.5-0.5
			   v-5.2c0-0.3,0.2-0.5,0.5-0.5h4c0,0,0.5,0,0.9,0.3c0.4,0.3,0.5,0.8,0.5,1.5c0,1.2-0.4,2.2-1.2,3C-466.1,393-468,393.2-468.8,393.2z
			   M-468.6,388v4.2c0.8,0,2.2-0.2,3.1-1.1c0.6-0.5,0.9-1.3,0.9-2.3c0-0.5-0.1-0.7-0.2-0.8c-0.1-0.1-0.2-0.1-0.2-0.1L-468.6,388z"/>
    </g>
    <g>
      <g>
	<path class="language-java" d="M-478.4,380.1c-0.2,0-0.4-0.1-0.6-0.2c-0.3-0.2-0.5-0.4-0.6-0.8c-0.1-0.3-0.6-2.6,1.5-5.6
			     c1.5-2.2,1.6-3.7,0.2-4.7c-0.3-0.2-0.4-0.5-0.5-0.8c0-0.3,0-0.7,0.2-0.9s0.5-0.4,0.8-0.5c0.3,0,0.7,0,0.9,0.2
			     c2.5,1.8,2.6,4.9,0.3,8.1c-1.4,2-1.1,3.5-1.1,3.5c0.2,0.6-0.2,1.3-0.9,1.5c0,0,0,0,0,0l0,0C-478.2,380-478.3,380.1-478.4,380.1z
			     M-478.3,379.1l0.1,0.5L-478.3,379.1c0.1,0,0.2-0.2,0.2-0.3c0-0.1-0.4-1.9,1.3-4.4c1.2-1.7,2.7-4.7-0.1-6.8c-0.1,0-0.1,0-0.2,0
			     c0,0-0.1,0-0.2,0.1c-0.1,0.1,0,0.1,0,0.2c0,0,0,0.1,0.1,0.2c1,0.8,2.4,2.6,0,6.1c-1.8,2.6-1.4,4.7-1.3,4.7c0,0.1,0.1,0.1,0.1,0.1
			     C-478.5,379-478.4,379.1-478.3,379.1z"/>
      </g>
    </g>
    <g>
      <path class="language-java" d="M-481.8,380.1c-0.3,0-0.5-0.1-0.7-0.2c0,0,0,0-0.1,0c-0.4-0.3-1.6-1.7-0.7-5.4c0.7-3.2,0.9-3.7-1.1-5.2
			   c-0.3-0.2-0.4-0.5-0.5-0.8c0-0.3,0-0.7,0.2-0.9c0.2-0.3,0.5-0.4,0.8-0.5c0.3,0,0.7,0,0.9,0.2c3.3,2.5,2.8,4.5,2,7.8v0
			   c-0.5,2-0.2,2.8-0.1,3c0.2,0.2,0.3,0.3,0.3,0.6c0.1,0.3,0,0.7-0.1,0.9s-0.4,0.5-0.8,0.6C-481.6,380-481.7,380.1-481.8,380.1z
			   M-482,379C-482,379-482,379-482,379c0.1,0,0.1,0.1,0.3,0.1c0.1,0,0.1-0.1,0.1-0.1c0,0,0-0.1,0-0.2c0,0,0-0.1-0.1-0.1
			   c0,0-0.1-0.1-0.1-0.1c-0.2-0.3-0.7-1.4-0.1-3.8l0.5,0.1l-0.5-0.1c0.8-3.3,1.1-4.6-1.7-6.7c-0.1-0.1-0.1,0-0.2,0c0,0-0.1,0-0.2,0.1
			   c-0.1,0.1-0.1,0.1,0,0.2s0,0.1,0.1,0.2c2.5,1.9,2.2,3.1,1.5,6.3C-483.1,377.7-482.2,378.8-482,379z"/>
    </g>
    <g>
      <path class="language-java" d="M-474.7,380.1c-0.3,0-0.7-0.1-0.9-0.4c-0.2-0.2-0.3-0.4-0.3-0.7c-0.1-0.4-0.3-2.2,2.5-4.8
			   c2.4-2.2,2.8-2.6,2-4.9c-0.2-0.6,0.1-1.3,0.8-1.6l0,0c0.6-0.2,1.3,0.1,1.6,0.8c1.3,3.9-0.2,5.3-2.7,7.6c-1.5,1.4-1.7,2.2-1.7,2.4
			   c0.1,0.4,0,0.9-0.4,1.2C-474.1,380-474.4,380.1-474.7,380.1z M-470.2,368.7c-0.1,0-0.2,0.2-0.2,0.3c1,3,0.1,3.8-2.3,6
			   c-2.5,2.3-2.2,3.7-2.2,3.8c0,0.1,0,0.2,0.1,0.2c0.1,0.1,0.1,0.1,0.2,0.1c0,0,0.1,0,0.2-0.1c0.1-0.1,0.1-0.2,0.1-0.3
			   c0,0,0-0.1,0-0.2c0-0.3,0.1-1.5,2.1-3.3c2.5-2.3,3.5-3.2,2.5-6.5c0-0.1-0.1-0.1-0.1-0.1C-470.1,368.7-470.1,368.6-470.2,368.7
			   L-470.2,368.7z"/>
    </g>
  </g>
</svg>
