<svg x="0px" y="0px" viewBox="-493 366 37 37" style="enable-background:new -493 366 37 37;" xml:space="preserve">
  <style type="text/css">
    .language-php{fill:#777BB4;}
  </style>
  <g>
    <g>
      <path class="language-php" d="M-465.7,386.2L-465.7,386.2h-0.8h-0.3c-0.1,0-0.4,0-0.6-0.2c-0.2-0.2-0.1-0.5-0.1-0.6l0.6-3.5
			   c0.1-0.5,0.4-0.6,0.7-0.6h0.8c0.1,0,0.2,0,0.3,0c0.2,0,0.4,0,0.7,0c0.4,0,0.9,0.1,1.3,0.6c0.3,0.3,0.5,0.8,0.4,1.3
			   c0,0.5-0.1,0.9-0.2,1.3c-0.3,0.9-1,1.5-2,1.7C-465.3,386.1-465.5,386.2-465.7,386.2z M-466.2,385.1c0.2,0,0.3,0,0.5,0
			   c0.2,0,0.4,0,0.5,0c0.7-0.1,1.1-0.4,1.3-1c0.1-0.3,0.2-0.6,0.2-1c0-0.3-0.1-0.4-0.1-0.5c-0.2-0.2-0.4-0.2-0.7-0.3l0,0
			   c-0.2,0-0.4,0-0.5,0s-0.2,0-0.3,0h-0.7l-0.5,2.9C-466.4,385.1-466.3,385.1-466.2,385.1z"/>
    </g>
    <g>
      <path class="language-php" d="M-483.6,386.2L-483.6,386.2c-0.3,0-0.6,0-0.8,0h-0.4c-0.2,0-0.4-0.1-0.5-0.2c-0.1-0.1-0.2-0.3-0.1-0.6
			   l0.6-3.5c0.1-0.4,0.3-0.6,0.7-0.6h0.9c0.1,0,0.2,0,0.3,0c0.2,0,0.4,0,0.6,0l0,0c0.4,0,0.9,0.1,1.3,0.6c0.3,0.3,0.5,0.8,0.4,1.2
			   c0,0.4-0.1,0.7-0.2,1.1c-0.3,1-1,1.7-2.1,1.9C-483.2,386.1-483.4,386.2-483.6,386.2z M-484.1,385.1c0.1,0,0.3,0,0.4,0
			   c0.2,0,0.4,0,0.6,0c0.7-0.1,1.1-0.5,1.3-1.2c0.1-0.3,0.1-0.6,0.1-0.9c0-0.2,0-0.3-0.2-0.5c-0.2-0.2-0.4-0.2-0.7-0.3l0,0
			   c-0.2,0-0.4,0-0.5,0s-0.2,0-0.3,0h-0.5l-0.5,2.9C-484.3,385.1-484.2,385.1-484.1,385.1z"/>
    </g>
    <g>
      <path class="language-php" d="M-474.5,402.5c-9.9,0-18-8.1-18-18s8.1-18,18-18s18,8.1,18,18S-464.6,402.5-474.5,402.5z M-474.5,367.5
			   c-9.4,0-17,7.6-17,17s7.6,17,17,17s17-7.6,17-17S-465.1,367.5-474.5,367.5z M-468.1,390.2L-468.1,390.2c-0.6,0-1.2,0-1.8,0l0,0
			   c-0.1,0-0.4-0.1-0.5-0.2s-0.2-0.3-0.1-0.5l1.8-9.3c0.1-0.3,0.3-0.5,0.6-0.5h1.5c0.9,0,1.7,0,2.6,0c0.6,0,1.2,0.1,1.7,0.4
			   c0.9,0.4,1.4,1.1,1.5,2.1c0,0.2,0.1,0.5,0.1,0.7c0,1.2-0.3,2.2-1,3c-0.7,1-1.7,1.5-2.9,1.7c-0.3,0-0.5,0-0.8,0c-0.5,0-1,0-1.5,0
			   h-0.4l-0.3,1.5c0,0.2-0.1,0.3-0.1,0.5C-467.6,390-467.8,390.2-468.1,390.2z M-469,389.2c0.2,0,0.4,0,0.6,0c0-0.1,0-0.2,0-0.2
			   l0.3-1.7c0.1-0.3,0.2-0.6,0.7-0.6h0.6c0.5,0,0.9,0,1.4,0c0.3,0,0.5,0,0.7,0l0,0c0.9-0.2,1.7-0.6,2.3-1.4c0.5-0.7,0.8-1.5,0.8-2.4
			   c0-0.2,0-0.4,0-0.6c-0.1-0.6-0.4-1.1-1-1.3c-0.4-0.2-0.8-0.3-1.3-0.3c-0.9,0-1.7,0-2.6,0h-1.3l-1.7,8.5
			   C-469.3,389.2-469.2,389.2-469,389.2z M-486,390.2L-486,390.2h-1.8c-0.1,0-0.3,0-0.5-0.2c-0.2-0.2-0.1-0.4-0.1-0.5l1.8-9
			   c0-0.1,0-0.2,0-0.2c0-0.3,0.3-0.6,0.6-0.6c0.4,0,0.8,0,1.2,0h1.5c0.5,0,1,0,1.4,0c0.6,0,1.1,0.1,1.6,0.3c0.9,0.4,1.5,1.2,1.6,2.2
			   c0.2,1.4-0.1,2.6-0.9,3.6c-0.7,1-1.7,1.6-2.9,1.8l0,0c-0.2,0-0.5,0-0.7,0c-0.6,0-1.2,0-1.8,0h-0.1l-0.4,1.9
			   C-485.5,390-485.7,390.2-486,390.2z M-486,389.5v0.2V389.5h0.2H-486v-0.3h-0.1L-486,389.5l-0.3-0.1v0.1H-486z M-487.3,389.2h1
			   l0.4-2c0.1-0.3,0.3-0.6,0.7-0.6h0.4c0.6,0,1.2,0,1.8,0c0.2,0,0.4,0,0.6,0l0,0c0.9-0.2,1.7-0.6,2.3-1.4c0.6-0.8,0.9-1.8,0.7-2.9
			   c-0.1-0.7-0.4-1.1-1-1.4c-0.4-0.2-0.8-0.3-1.3-0.3s-0.9,0-1.4,0h-1.5c-0.3,0-0.6,0-0.9,0L-487.3,389.2z M-471.3,387.7
			   L-471.3,387.7h-1.9c-0.1,0-0.4-0.1-0.5-0.2c-0.2-0.2-0.1-0.4-0.1-0.5l0.8-4.4c0-0.1,0-0.2,0-0.3c-0.2-0.1-0.3-0.1-0.4-0.1h-1.5
			   l-1,4.9c-0.1,0.4-0.3,0.5-0.6,0.5h-1.8c-0.1,0-0.3,0-0.5-0.2c-0.2-0.2-0.1-0.4-0.1-0.5l1.8-9.2c0.1-0.3,0.3-0.5,0.6-0.5h1.8
			   c0.1,0,0.4,0.1,0.5,0.2c0.2,0.2,0.1,0.4,0.1,0.5l-0.3,1.8h0.3c0.5,0,0.9,0,1.4,0c0.8,0,1.4,0.2,2,0.6c0.6,0.4,0.9,1.1,0.9,1.8
			   c0,0.3-0.1,0.6-0.1,0.9l-0.7,4.1l0,0C-470.7,387.5-471,387.7-471.3,387.7z M-472,386.7h0.4l0.7-3.8c0.1-0.3,0.1-0.5,0.1-0.8
			   c0-0.4-0.1-0.7-0.4-0.9c-0.4-0.2-0.8-0.4-1.4-0.4c-0.5,0-0.9,0-1.4,0h-0.7c-0.3,0-0.4-0.1-0.5-0.2c-0.1-0.1-0.2-0.3-0.1-0.6
			   l0.3-1.7h-1l-1.7,8.5h1l1-4.8c0.1-0.4,0.3-0.6,0.7-0.6h1.8c0.2,0,0.4,0,0.6,0.1c0.5,0.1,0.7,0.4,0.8,0.9c0,0.2,0,0.4,0,0.6
			   l-0.7,3.9h0.5V386.7z"/>
    </g>
  </g>
</svg>
