<svg x="0px" y="0px" viewBox="-493 366 37 37" style="enable-background:new -493 366 37 37;" xml:space="preserve">
  <style type="text/css">
    .language-scala{fill:#DE322F;}
  </style>
  <g id="HmxsTF_2_">
    <g>
      <g>
	<path class="language-scala" d="M-484.5,402.3h-0.9c-0.3,0-0.6-0.3-0.6-0.6l0-2c0-1.7,0-3.3,0-5c0-1.2,0.5-1.8,1.7-2c3.8-0.5,7-0.9,10.2-1.4
			     c2.4-0.4,5.2-0.8,7.9-1.8c0.8-0.3,1.5-0.6,2.1-1.4c0.2-0.2,0.4-0.3,0.6-0.2c0.2,0.1,0.4,0.3,0.4,0.5l0,3.4c0,1.4,0,2.7,0,4.1
			     c0,0.9-0.4,1.6-1.2,2.1c-1.5,0.9-3.1,1.3-4.9,1.7c-3.4,0.8-6.8,1.2-10.2,1.7c-0.8,0.1-1.6,0.2-2.4,0.3c-0.2,0-0.5,0.1-0.8,0.1
			     c-0.6,0.1-1.2,0.1-1.8,0.3C-484.4,402.3-484.5,402.3-484.5,402.3z M-484.8,401.2h0.2c0.7-0.3,1.3-0.3,2-0.4c0.2,0,0.5,0,0.7-0.1
			     c0.8-0.1,1.6-0.2,2.4-0.3c3.3-0.5,6.8-0.9,10.1-1.7c1.7-0.4,3.2-0.7,4.5-1.5c0.5-0.3,0.7-0.6,0.7-1.1c0-1.4,0-2.7,0-4.1l0-2.1
			     c-0.5,0.4-1.1,0.6-1.6,0.8c-2.7,1-5.6,1.5-8.1,1.8c-3.2,0.5-6.4,0.9-10.2,1.4c-0.6,0.1-0.7,0.2-0.7,0.8c0,1.7,0,3.3,0,5
			     L-484.8,401.2z"/>
      </g>
      <g>
	<path class="language-scala" d="M-484.8,380.9c-0.2,0-0.5,0-0.7-0.2c-0.3-0.2-0.4-0.6-0.4-1c0-2.2,0-4.5,0-6.7c0-1.3,1.1-1.5,1.6-1.5l0.2,0
			     c1.3-0.2,2.6-0.4,3.9-0.5c0.9-0.1,1.8-0.2,2.7-0.4l0.8-0.1c3.5-0.5,7-1,10.4-2.1c0.8-0.3,1.5-0.6,2.2-1.4
			     c0.2-0.2,0.4-0.3,0.6-0.2c0.2,0.1,0.4,0.3,0.4,0.5l0,2.2c0,2,0,3.9,0,5.8c0,0.9-0.7,1.3-1.1,1.6c-1.2,0.8-2.6,1.2-3.9,1.5
			     c-3.7,0.9-7.5,1.4-11.2,1.9l-2.3,0.3c-1,0.1-1.9,0.3-2.9,0.5C-484.5,380.8-484.7,380.9-484.8,380.9z M-464.3,368.4
			     c-0.6,0.4-1.2,0.6-1.7,0.8c-3.5,1.2-7.1,1.7-10.6,2.2l-0.8,0.1c-0.9,0.1-1.8,0.3-2.7,0.4c-1.3,0.2-2.6,0.4-3.9,0.5l-0.2,0
			     c-0.6,0.1-0.6,0.1-0.6,0.4c0,2.2,0,4.5,0,6.7c0,0,0,0.1,0,0.1c0,0,0.1,0,0.1,0c1-0.2,2-0.3,3-0.5l2.3-0.3c3.6-0.5,7.4-1,11-1.9
			     c1.2-0.3,2.5-0.6,3.6-1.3c0.4-0.3,0.5-0.4,0.5-0.6c0-1.9,0-3.8,0-5.8V368.4z"/>
      </g>
      <g>
	<path class="language-scala" d="M-484.9,391.6c-0.2,0-0.5,0-0.7-0.2c-0.2-0.2-0.4-0.5-0.4-0.9l0-6.9c0-1.2,1.1-1.4,1.6-1.5l2.5-0.4
			     c2.1-0.3,4.1-0.6,6.2-0.9c2.9-0.4,5.7-0.9,8.4-1.7c1.2-0.4,2.2-0.7,3.2-1.7c0.2-0.2,0.4-0.2,0.6-0.1c0.2,0.1,0.4,0.3,0.4,0.5
			     l0,2.3c0,1.9,0,3.8,0,5.6c0,0.9-0.8,1.4-1.2,1.7c-1.3,0.8-2.7,1.2-4.3,1.5c-3.6,0.8-7.3,1.3-10.8,1.8c-0.9,0.1-1.9,0.3-2.8,0.4
			     c-0.8,0.1-1.5,0.2-2.3,0.4C-484.7,391.6-484.8,391.6-484.9,391.6z M-464.3,379.1c-0.9,0.6-1.8,0.9-2.7,1.2
			     c-2.8,0.8-5.6,1.3-8.5,1.7c-2.1,0.3-4.1,0.6-6.2,0.9l-2.5,0.4c-0.6,0.1-0.6,0.1-0.6,0.3l0,6.9c0,0,0,0,0,0
			     c0.8-0.2,1.6-0.3,2.4-0.4c0.9-0.1,1.9-0.3,2.8-0.4c3.5-0.5,7.2-1,10.7-1.8c1.5-0.3,2.8-0.7,3.9-1.4c0.4-0.3,0.7-0.4,0.7-0.7
			     c0-1.8,0-3.7,0-5.6L-464.3,379.1z"/>
      </g>
    </g>
  </g>
</svg>
