<?xml version="1.0" encoding="utf-8"?>
<svg version="1.1" xmlns="http://www.w3.org/2000/svg" viewBox="72 20 205 160">
  <defs>
    <style type="text/css">
      .st0{fill:#F4F4F4;}
      .st1{fill:#FAFAFA;}
      .st3{fill:#F1F1F1;}
      .st4{fill:none;stroke:#0068FF;stroke-width:3;stroke-linecap:round;stroke-linejoin:round;stroke-miterlimit:10;}
      .st5{fill:#BDBFC1;}
      .st6{fill:#15B75E;}
      .st7{fill:#FFFFFF;}
      .st8{fill:#404041;}
      .st9{fill:#D3D4D6;}
      .st10{fill:#FFE000;}
      .st11{fill:#A8AAAD;}
      .st12{fill:none;stroke:url(#SVGID_1_);stroke-width:6.1652;stroke-linecap:round;stroke-linejoin:round;stroke-miterlimit:10;}
    </style>
    <clipPath id="external-mask">
      <circle cy="122" fill="#ffffff" r="102" cx="175"></circle>
    </clipPath>
  </defs>
  <g clip-path="url(#external-mask)">
    <g>
      <g>
        <path class="st0" d="M258.26,181.32c11.47-16.38,18.26-36.28,18.45-57.75H71.96c0.19,21.47,6.98,41.37,18.45,57.75H258.26z"/>
        <path class="st1" d="M276.73,122.66c0-56.55-45.84-102.39-102.39-102.39S71.94,66.11,71.94,122.66c0,0.31,0.02,0.61,0.02,0.92
          h204.75C276.71,123.27,276.73,122.96,276.73,122.66z"/>
      </g>
    </g>
    <g>
      <animateTransform
        attributeName="transform"
        attributeType="XML"
        type="translate"
        from="-100 0"
        to="100 0"
        dur="3s"
        repeatCount="indefinite"
      />
      <polygon class="st3" points="216.47,147.81 213.82,146.04 190.05,130.1 188.25,132.79 214.68,150.5     "/>
      <polyline class="st4" points="159.35,123.23 187.75,96.77 217.43,123.23     "/>
      <g>
        <g>
          <path class="st5" d="M190.74,68.55h-5.98c-0.83,0-1.5-0.67-1.5-1.5V48.39c0-0.83,0.67-1.5,1.5-1.5s1.5,0.67,1.5,1.5v17.15h2.98
            V48.43c0-0.83,0.67-1.5,1.5-1.5s1.5,0.67,1.5,1.5v18.62C192.24,67.87,191.57,68.55,190.74,68.55z"/>
          <path class="st5" d="M194.63,93.13c-1.08,0-2.02,0-3.32,0c0,0.03,0.01,0.05,0.01,0.08c0,1.97-1.6,3.57-3.57,3.57
            s-3.57-1.6-3.57-3.57c0-1.92,1.54-3.49,3.45-3.55v0c0.04,0,0.08,0.01,0.12,0.01c0.91,0,1.66-0.74,1.66-1.66v-10
            c0-0.92-0.74-1.66-1.66-1.66c-0.91,0-1.66,0.74-1.66,1.66v8.53c-2.99,0.74-5.22,3.44-5.22,6.67c0,3.79,3.09,6.88,6.88,6.88
            c3.79,0,6.88-3.09,6.88-6.88C194.63,93.18,194.63,93.15,194.63,93.13z"/>
          <g>
            <path class="st6" d="M195.4,76.53c0,2.19-1.79,3.98-3.98,3.98h-7.32c-2.19,0-3.98-1.79-3.98-3.98v-9.52
              c0-2.19,1.79-3.98,3.98-3.98h7.32c2.19,0,3.98,1.79,3.98,3.98V76.53z"/>
          </g>
        </g>
      </g>
      <line class="st4" x1="187.75" y1="96.77" x2="217.43" y2="123.23"/>
      <g>
        <path class="st7" d="M217.43,168.26h-58.09c-0.82,0-1.48-0.66-1.48-1.48V124.7c0-0.82,0.66-1.48,1.48-1.48h58.09
          c0.82,0,1.48,0.66,1.48,1.48v42.08C218.91,167.6,218.25,168.26,217.43,168.26z"/>
        <path class="st8" d="M217.43,169.76h-58.09c-1.64,0-2.98-1.33-2.98-2.98V124.7c0-1.64,1.34-2.98,2.98-2.98h58.09
          c1.64,0,2.98,1.34,2.98,2.98v42.08C220.41,168.43,219.08,169.76,217.43,169.76z M217.43,166.76v1.5V166.76L217.43,166.76
          L217.43,166.76z M217.41,124.7l-58.06,0.02l0.02,42.06l58.04-0.02V124.7z"/>
      </g>
      <g>
        <polygon class="st7" points="160.46,139.51 159.37,139.51 159.37,152.15 196.27,152.15 196.27,150.21 160.46,150.21       "/>
        <path class="st9" d="M197.77,150.21h-1.5v1.94h-36.9v-12.64h1.09v-1.5v-1.5h-2.59c-0.83,0-1.5,0.67-1.5,1.5v15.64
          c0,0.83,0.67,1.5,1.5,1.5h39.9c0.83,0,1.5-0.67,1.5-1.5v-3.44H197.77z"/>
        <path class="st10" d="M201.16,134.57h-40.7v1.94h37.31c0.83,0,1.5,0.67,1.5,1.5v12.2h1.89V134.57z"/>
        <path class="st10" d="M160.46,139.51v10.7h35.81v-10.7H160.46z M164.27,142.51c0-0.1,0.08-0.19,0.19-0.19h9.46
          c0.1,0,0.19,0.08,0.19,0.19v0.93c0,0.1-0.08,0.19-0.19,0.19h-9.46c-0.1,0-0.19-0.08-0.19-0.19V142.51z M176.89,149.14
          c0,0.1-0.08,0.19-0.19,0.19h-12.25c-0.1,0-0.19-0.08-0.19-0.19v-0.93c0-0.1,0.08-0.19,0.19-0.19h12.25c0.1,0,0.19,0.08,0.19,0.19
          V149.14z M180.62,146.48h-16.17c-0.1,0-0.19-0.08-0.19-0.19v-0.93c0-0.1,0.08-0.19,0.19-0.19h16.17c0.1,0,0.19,0.08,0.19,0.19
          v0.93C180.81,146.4,180.72,146.48,180.62,146.48z"/>
        <path class="st11" d="M197.77,136.51h-37.31v1.5v1.5h35.81v10.7h1.5h1.5v-12.2C199.27,137.18,198.6,136.51,197.77,136.51z"/>
        <path class="st8" d="M164.45,143.63h9.46c0.1,0,0.19-0.08,0.19-0.19v-0.93c0-0.1-0.08-0.19-0.19-0.19h-9.46
          c-0.1,0-0.19,0.08-0.19,0.19v0.93C164.27,143.55,164.35,143.63,164.45,143.63z"/>
        <path class="st8" d="M180.62,145.18h-16.17c-0.1,0-0.19,0.08-0.19,0.19v0.93c0,0.1,0.08,0.19,0.19,0.19h16.17
          c0.1,0,0.19-0.08,0.19-0.19v-0.93C180.81,145.26,180.72,145.18,180.62,145.18z"/>
        <path class="st8" d="M176.7,148.03h-12.25c-0.1,0-0.19,0.08-0.19,0.19v0.93c0,0.1,0.08,0.19,0.19,0.19h12.25
          c0.1,0,0.19-0.08,0.19-0.19v-0.93C176.89,148.11,176.81,148.03,176.7,148.03z"/>
      </g>
      <linearGradient id="SVGID_1_" gradientUnits="userSpaceOnUse" x1="133.6436" y1="130.5217" x2="133.6436" y2="130.5217">
        <stop  offset="0" style="stop-color:#FFFFFF"/>
        <stop  offset="7.311761e-03" style="stop-color:#FDFEFE"/>
        <stop  offset="0.5044" style="stop-color:#82D8A9"/>
        <stop  offset="0.8446" style="stop-color:#34C073"/>
        <stop  offset="1" style="stop-color:#15B75E"/>
      </linearGradient>
      <path class="st12" d="M133.64,130.52"/>
    </g>
    <path class="st11" d="M101.88,50.31h144.92c-1.37-1.37-2.79-2.71-4.23-4H106.11C104.66,47.61,103.25,48.94,101.88,50.31z"/>
  </g>
</svg>
