<?xml version="1.0" encoding="utf-8"?>
<svg viewBox="0 0 205 160" xmlns="http://www.w3.org/2000/svg">
  <defs>
    <style type="text/css">
      .st0{fill:#F4F4F4;}
      .st1{fill:#FAFAFA;}
      .st2{fill:none;stroke:#F0F0F1;stroke-width:2;stroke-miterlimit:10;}
      .st3{fill:#F1F1F1;}
      .st4{fill:none;stroke:#0068FF;stroke-width:3;stroke-linecap:round;stroke-linejoin:round;stroke-miterlimit:10;}
      .st5{fill:none;stroke:#BDBFC1;stroke-width:3;stroke-linecap:round;stroke-linejoin:round;stroke-miterlimit:10;}
      .st6{fill:#BDBFC1;}
      .st7{fill:#15B75E;}
      .st8{fill:#FFFFFF;stroke:#404041;stroke-width:3;stroke-linecap:round;stroke-linejoin:round;stroke-miterlimit:10;}
      .st9{fill:#FFFFFF;stroke:#A8AAAD;stroke-width:3;stroke-linecap:round;stroke-linejoin:round;stroke-miterlimit:10;}
      .st10{fill:#404041;}
      .st11{fill:#FFE000;}
      .st12{fill:none;stroke:url(#SVGID_1_);stroke-width:6.1652;stroke-linecap:round;stroke-linejoin:round;stroke-miterlimit:10;}
      .st13{fill:#A8AAAD;}
    </style>
    <clipPath id="external-mask">
      <circle cy="112" fill="#ffffff" r="98" cx="102"></circle>
    </clipPath>
  </defs>
  <g clip-path="url(#external-mask)">
    <g transform="matrix(1, 0, 0, 1, -57.919998, -11.43)">
      <g>
        <path class="st0" d="M244.24,172.49c11.47-16.38,18.26-36.28,18.45-57.75H57.94c0.19,21.47,6.98,41.37,18.45,57.75H244.24z"/>
        <path class="st1" d="M262.71,113.82c0-56.55-45.84-102.39-102.39-102.39S57.92,57.27,57.92,113.82c0,0.31,0.02,0.61,0.02,0.92 h204.75C262.69,114.43,262.71,114.13,262.71,113.82z"/>
      </g>
    </g>
    <g transform="matrix(1, 0, 0, 1, -57.919998, -11.43)">
      <animateTransform
        attributeName="transform"
        attributeType="XML"
        type="translate"
        from="70 -10"
        to="-230 -10"
        dur="3s"
        repeatCount="indefinite"
      />
      <polygon class="st3" points="202.46,138.98 199.81,137.2 176.03,121.27 174.23,123.95 200.66,141.66 &#9;"/>
      <polyline class="st4" points="145.33,114.39 173.73,87.93 203.41,114.39 &#9;"/>
      <g>
        <g>
          <polyline class="st5" points="170.74,39.55 170.74,58.21 176.72,58.21 176.72,39.59 &#9;&#9;&#9;"/>
          <path class="st6" d="M180.61,84.29c-1.08,0-2.02,0-3.32,0c0,0.03,0.01,0.05,0.01,0.08c0,1.97-1.6,3.57-3.57,3.57 s-3.57-1.6-3.57-3.57c0-1.92,1.54-3.49,3.45-3.55v0c0.04,0,0.08,0.01,0.12,0.01c0.91,0,1.66-0.74,1.66-1.66v-10 c0-0.92-0.74-1.66-1.66-1.66c-0.91,0-1.66,0.74-1.66,1.66v8.53c-2.99,0.74-5.22,3.44-5.22,6.67c0,3.79,3.09,6.88,6.88,6.88 c3.79,0,6.88-3.09,6.88-6.88C180.61,84.34,180.61,84.32,180.61,84.29z"/>
          <g>
            <path class="st7" d="M181.38,67.69c0,2.19-1.79,3.98-3.98,3.98h-7.32c-2.19,0-3.98-1.79-3.98-3.98v-9.52 c0-2.19,1.79-3.98,3.98-3.98h7.32c2.19,0,3.98,1.79,3.98,3.98V67.69z"/>
          </g>
        </g>
      </g>
      <line class="st4" x1="173.73" y1="87.93" x2="203.41" y2="114.39"/>
      <g>
        <g>
          <path class="st8" d="M203.41,159.43h-58.09c-0.82,0-1.48-0.66-1.48-1.48v-42.08c0-0.82,0.66-1.48,1.48-1.48h58.09 c0.82,0,1.48,0.66,1.48,1.48v42.08C204.89,158.76,204.23,159.43,203.41,159.43z"/>
          <rect x="143.85" y="129.17" class="st9" width="39.9" height="15.64"/>
          <path class="st10" d="M160.08,134.6c0,0.1-0.08,0.19-0.19,0.19h-9.46c-0.1,0-0.19-0.08-0.19-0.19v-0.93 c0-0.1,0.08-0.19,0.19-0.19h9.46c0.1,0,0.19,0.08,0.19,0.19V134.6z"/>
          <path class="st10" d="M166.79,137.45c0,0.1-0.08,0.19-0.19,0.19h-16.17c-0.1,0-0.19-0.08-0.19-0.19v-0.93 c0-0.1,0.08-0.19,0.19-0.19h16.17c0.1,0,0.19,0.08,0.19,0.19V137.45z"/>
          <path class="st10" d="M162.87,140.3c0,0.1-0.08,0.19-0.19,0.19h-12.25c-0.1,0-0.19-0.08-0.19-0.19v-0.93 c0-0.1,0.08-0.19,0.19-0.19h12.25c0.1,0,0.19,0.08,0.19,0.19V140.3z"/>
        </g>
        <rect x="146.44" y="125.73" class="st11" width="40.7" height="15.64"/>
      </g>
      <linearGradient id="SVGID_1_" gradientUnits="userSpaceOnUse" x1="119.6239" y1="121.6837" x2="119.6239" y2="121.6837">
        <stop offset="0" style="stop-color:#FFFFFF"/>
        <stop offset="0.0073" style="stop-color:#FDFEFE"/>
        <stop offset="0.5044" style="stop-color:#82D8A9"/>
        <stop offset="0.8446" style="stop-color:#34C073"/>
        <stop offset="1" style="stop-color:#15B75E"/>
      </linearGradient>
      <path class="st12" d="M119.62,121.68"/>
    </g>
    <path class="st13" d="M 29.94 30.05 L 174.86 30.05 C 173.49 28.68 172.07 27.34 170.63 26.05 L 34.17 26.05 C 32.72 27.34 31.31 28.67 29.94 30.05 Z"/>
  </g>
</svg>
