<?xml version="1.0" encoding="utf-8"?>
<!-- Generator: Adobe Illustrator 22.0.1, SVG Export Plug-In . SVG Version: 6.00 Build 0)  -->
<svg version="1.1" id="Layer_1" xmlns="http://www.w3.org/2000/svg" xmlns:xlink="http://www.w3.org/1999/xlink" x="0px" y="0px"
	 viewBox="0 0 147.3 56.2" style="enable-background:new 0 0 147.3 56.2;" xml:space="preserve">
<style type="text/css">
	.st0{fill:#2FABDF;}
</style>
<g id="xpbVXC_1_">
	<g>
		<path class="st0" d="M90.5,17.8c1.1,0,2.1,0,3.2,0c0.2,0,0.4,0.1,0.6,0.1c3.7,0.6,6.7,2.2,9,5.2c0.1,0.1,0.1,0.3,0.4,0.2
			c0-0.4,0-0.9,0-1.4c0-1.1,0.3-1.4,1.4-1.4c4.1,0,8.2,0,12.3,0c3.8,0,7.6,0,11.4,0c0,0,0,0.1,0,0.1c-0.2,0.2-0.5,0.4-0.7,0.7
			c-3.3,3.5-6.6,6.9-9.9,10.4c-0.3,0.3-0.9,0.6-0.7,1c0.1,0.3,0.8,0.1,1.2,0.1c3.4,0,6.7,0,10.1,0c0,1.7,0,3.4,0,5
			c-0.4,0.6-1,0.7-1.6,0.7c-7.4,0-14.9,0-22.3,0c-0.2,0-0.3,0-0.5,0c-0.4,0-0.5-0.2-0.2-0.5c0.1-0.1,0.2-0.2,0.3-0.3
			c3.5-3.7,7-7.3,10.4-11c0.1-0.1,0.3-0.2,0.3-0.5c-0.1,0-0.1,0-0.1,0c-3.2,0-6.3,0-9.5,0c-0.6,0-0.5,0.3-0.4,0.7
			c0.4,1.5,0.4,2.9,0.1,4.4c-0.8,3.6-3,6.1-6.1,7.9c-1.7,0.9-3.5,1.4-5.3,1.7c-1.2,0-2.4,0-3.6,0c-0.4-0.1-0.7-0.2-1.1-0.2
			c-3.2-0.7-5.9-2.1-8-4.6c-1-1.2-1.6-2.5-2.1-3.9c0,0.2,0,0.4,0,0.7c0,1.7,0,3.3,0,5c0,0.6-0.2,0.8-0.8,0.8c-1.2,0-2.3,0-3.5,0
			c-1.2,0-1.5-0.3-1.5-1.5c0-2.2,0-4.4,0-6.6c0-0.3,0.2-0.7-0.2-0.8c-0.2-0.1-0.4,0.3-0.6,0.5c-2.5,2.8-5,5.6-7.6,8.4
			c-0.7,0.7-0.7,0.7-1.3,0c-2.6-2.9-5.2-5.7-7.8-8.6c-0.1-0.2-0.2-0.5-0.5-0.4c-0.2,0.1-0.1,0.4-0.1,0.6c0,2.3,0,4.6,0,7
			c0,1-0.4,1.3-1.3,1.3c-1.5,0-3,0-4.5,0c0-6,0-12,0-18c1.3,0,2.6,0,3.9,0c1.2,0,2.2,0.4,3,1.3c0.9,1,1.8,2,2.7,3
			c1.6,1.8,3.2,3.6,4.8,5.4c0.3,0.3,0.5,0.4,0.8,0c0.3-0.4,0.6-0.7,0.9-1c2.2-2.4,4.4-4.9,6.6-7.3c0.7-0.8,1.5-1.3,2.6-1.3
			c1.2,0,2.4,0,3.6,0c0.5,0,0.7,0.2,0.7,0.8c0,1.6,0,3.2,0,4.8c0,0.2,0,0.3,0,0.7c1.4-4.1,4.1-6.7,7.9-8.1
			C88.1,18.2,89.3,18,90.5,17.8z M92.2,35.1c1.1-0.1,2.2-0.2,3.2-0.8c2-1,3.3-2.6,3.3-4.9c0-2.2-1.1-3.7-2.9-4.8
			c-2.6-1.5-5.9-1.3-8.3,0.7c-2.5,2-2.6,5.6-0.4,7.8C88.5,34.5,90.2,35.1,92.2,35.1z"/>
	</g>
</g>
</svg>
