<svg width="56" height="56" viewBox="0 0 56 56" fill="none" xmlns="http://www.w3.org/2000/svg">
<circle cx="28" cy="28" r="28" fill="#3EAAAF"/>
<g clip-path="url(#clip0_217_14832)">
<path d="M16 19C16 17.3453 17.3453 16 19 16H37C38.6547 16 40 17.3453 40 19V32.5C40 34.1547 38.6547 35.5 37 35.5H30.4984L24.7 39.85C24.475 40.0187 24.1703 40.0469 23.9125 39.9203C23.6547 39.7937 23.5 39.5359 23.5 39.25V35.5H19C17.3453 35.5 16 34.1547 16 32.5V19ZM23.125 22.75C22.5016 22.75 22 23.2516 22 23.875C22 24.4984 22.5016 25 23.125 25H32.875C33.4984 25 34 24.4984 34 23.875C34 23.2516 33.4984 22.75 32.875 22.75H23.125ZM23.125 27.25C22.5016 27.25 22 27.7516 22 28.375C22 28.9984 22.5016 29.5 23.125 29.5H28.375C28.9984 29.5 29.5 28.9984 29.5 28.375C29.5 27.7516 28.9984 27.25 28.375 27.25H23.125Z" fill="white"/>
</g>
<defs>
<clipPath id="clip0_217_14832">
<rect width="24" height="24" fill="white" transform="translate(16 16)"/>
</clipPath>
</defs>
</svg>
