<?xml version="1.0" encoding="utf-8"?>
<!-- Generator: Adobe Illustrator 16.0.4, SVG Export Plug-In . SVG Version: 6.00 Build 0)  -->
<!DOCTYPE svg PUBLIC "-//W3C//DTD SVG 1.1//EN" "http://www.w3.org/Graphics/SVG/1.1/DTD/svg11.dtd">
<svg version="1.1" id="Layer_1" xmlns="http://www.w3.org/2000/svg" xmlns:xlink="http://www.w3.org/1999/xlink" x="0px" y="0px"
	 width="17px" height="21px" viewBox="0 0 17 21" enable-background="new 0 0 17 21" xml:space="preserve">
<g>
	<path fill="#FFFFFF" d="M4.466,15.587V6.761c0.801-0.465,1.34-1.332,1.34-2.325c0-1.486-1.205-2.689-2.689-2.689
		c-1.486,0-2.69,1.204-2.69,2.689c0,0.997,0.544,1.867,1.351,2.331v8.814c-0.807,0.465-1.351,1.335-1.351,2.332
		c0,1.485,1.204,2.689,2.69,2.689c1.484,0,2.689-1.204,2.689-2.689C5.806,16.92,5.267,16.054,4.466,15.587z M3.116,3.087
		c0.746,0,1.352,0.605,1.352,1.352c0,0.747-0.605,1.353-1.352,1.353c-0.748,0-1.354-0.605-1.354-1.353
		C1.763,3.692,2.368,3.087,3.116,3.087z M3.116,19.27c-0.748,0-1.354-0.606-1.354-1.353c0-0.747,0.605-1.353,1.354-1.353
		c0.746,0,1.352,0.605,1.352,1.353S3.862,19.27,3.116,19.27z"/>
	<g>
		<path fill="#FFFFFF" d="M15.224,15.58V7.083c0-4.239-3.844-3.981-3.844-3.981H9.86V0.397L5.833,4.436l4.027,4.03V5.776h1.52
			c1.17,0,1.154,1.307,1.154,1.307v8.506c-0.799,0.466-1.338,1.332-1.338,2.324c0,1.485,1.205,2.689,2.689,2.689
			c1.486,0,2.689-1.204,2.689-2.689C16.575,16.915,16.032,16.044,15.224,15.58z M13.886,19.27c-0.746,0-1.352-0.606-1.352-1.353
			c0-0.747,0.605-1.353,1.352-1.353c0.748,0,1.354,0.605,1.354,1.353S14.634,19.27,13.886,19.27z"/>
	</g>
</g>
</svg>
