<?xml version="1.0" encoding="utf-8"?>
<!-- Generator: Adobe Illustrator 16.0.4, SVG Export Plug-In . SVG Version: 6.00 Build 0)  -->
<!DOCTYPE svg PUBLIC "-//W3C//DTD SVG 1.1//EN" "http://www.w3.org/Graphics/SVG/1.1/DTD/svg11.dtd">
<svg version="1.1" id="Layer_1" xmlns="http://www.w3.org/2000/svg" xmlns:xlink="http://www.w3.org/1999/xlink" x="0px" y="0px"
	 width="17px" height="9.816px" viewBox="0 0 17 9.816" enable-background="new 0 0 17 9.816" xml:space="preserve">
<path fill="#FFFFFF" d="M12.93,3.683C12.412,1.708,10.614,0.25,8.475,0.25c-2.139,0-3.937,1.458-4.454,3.433H0.4v2.296h3.607
	c0.502,2,2.312,3.482,4.468,3.482c2.156,0,3.966-1.482,4.468-3.482h3.607V3.683H12.93z M8.475,7.165
	c-0.87,0-1.627-0.479-2.025-1.186C6.262,5.644,6.153,5.256,6.153,4.843c0-0.423,0.114-0.819,0.312-1.16
	c0.4-0.694,1.15-1.161,2.011-1.161c0.859,0,1.609,0.467,2.011,1.161c0.197,0.341,0.311,0.737,0.311,1.16
	c0,0.414-0.108,0.8-0.298,1.136C10.101,6.687,9.344,7.165,8.475,7.165z"/>
</svg>
