<?xml version="1.0" encoding="utf-8"?>
<!-- Generator: Adobe Illustrator 23.0.6, SVG Export Plug-In . SVG Version: 6.00 Build 0)  -->
<svg version="1.1" id="Layer_1" xmlns="http://www.w3.org/2000/svg" xmlns:xlink="http://www.w3.org/1999/xlink" x="0px" y="0px"
	 viewBox="0 0 179.222 165.288" style="enable-background:new 0 0 179.222 165.288;" xml:space="preserve">
<style type="text/css">
	.fake{fill:url(#this_fixes_gradient);}
	.st0{fill:none;}
	.st1{opacity:0.3;}
	.st2{fill:#E23C3C;}
	.st3{fill:url(#red-dash-circle-magnus);}
</style>
<pattern  x="-471.566" y="-226.067" width="101.204" height="171" patternUnits="userSpaceOnUse" id="New_Pattern_Swatch_5" viewBox="0 -171 101.204 171" style="overflow:visible;">
	<g>
		<rect y="-171" class="st0" width="101.204" height="171"/>
		<g>
			<g class="st1">
				<polygon class="st2" points="0,0 1.413,0 0,-1.359 				"/>
				<path class="st2" d="M2.172-9.171c0.003,0.008,0.012,0.017,0.018,0.023c0.216,0.207,0.574,0.21,0.791,0.003
					c0.216-0.208,0.213-0.552-0.003-0.759C2.971-9.911,2.962-9.92,2.953-9.923c0-0.006-0.006-0.012-0.009-0.014L0-12.768v1.514
					L2.157-9.18C2.16-9.178,2.166-9.171,2.172-9.171z"/>
				<path class="st2" d="M7.786-5.281L5.995-7.003c-0.003-0.003-0.003-0.003-0.006,0C5.774-7.188,5.439-7.179,5.232-6.98
					c-0.207,0.2-0.216,0.521-0.024,0.729c-0.003,0.003-0.003,0.003,0,0.006l1.791,1.721c0.003,0.003,0.006,0,0.009-0.003
					c0.216,0.173,0.538,0.159,0.74-0.034c0.201-0.193,0.216-0.504,0.036-0.712C7.786-5.275,7.789-5.278,7.786-5.281z"/>
				<path class="st2" d="M10.54-2.627c-0.003-0.009-0.006-0.011-0.012-0.017c-0.216-0.208-0.571-0.208-0.787,0
					c-0.216,0.208-0.216,0.549,0,0.757C9.747-1.882,9.75-1.879,9.759-1.876c0,0.006,0,0.006,0.003,0.009L11.704,0h1.575
					l-2.729-2.624C10.546-2.627,10.546-2.627,10.54-2.627z"/>
				<path class="st2" d="M6.229-17.431c0.216-0.208,0.216-0.549,0-0.757L0-24.177v1.514l5.441,5.232
					C5.658-17.223,6.013-17.223,6.229-17.431z"/>
				<path class="st2" d="M22.748-2.299c-0.006-0.011-0.012-0.017-0.021-0.026c-0.216-0.207-0.568-0.205-0.784,0.003
					c-0.216,0.208-0.219,0.547-0.003,0.754c0.009,0.009,0.015,0.014,0.026,0.02c0,0.006,0.006,0.012,0.009,0.014L23.57,0h1.574
					l-2.381-2.29C22.76-2.293,22.754-2.298,22.748-2.299z"/>
				<path class="st2" d="M19.307-5.602c0-0.011-0.006-0.017-0.012-0.023l-9.329-8.97c-0.003-0.003-0.003-0.003-0.009-0.003
					c-0.003-0.009-0.006-0.012-0.012-0.017c-0.216-0.207-0.571-0.207-0.787,0c-0.216,0.207-0.216,0.549,0,0.757
					c0.006,0.006,0.009,0.009,0.018,0.012c0,0.005,0,0.005,0.003,0.008l9.329,8.971c0.006,0.006,0.012,0.011,0.024,0.011
					c0.009,0.02,0.021,0.031,0.036,0.046c0.216,0.208,0.571,0.208,0.787,0c0.216-0.208,0.216-0.55,0-0.757
					C19.339-5.581,19.328-5.592,19.307-5.602z"/>
				<path class="st2" d="M26.684-9.923c0-0.006-0.006-0.012-0.009-0.014L14.184-21.947c-0.003-0.003-0.009-0.008-0.015-0.009
					c-0.006-0.011-0.012-0.017-0.021-0.025c-0.216-0.207-0.568-0.205-0.784,0.003c-0.216,0.208-0.219,0.547-0.003,0.754
					c0.009,0.009,0.015,0.015,0.027,0.02c0,0.006,0.006,0.011,0.009,0.014l12.49,12.01c0.003,0.002,0.008,0.009,0.015,0.009
					c0.003,0.008,0.012,0.017,0.018,0.023c0.216,0.207,0.574,0.21,0.791,0.003c0.216-0.208,0.213-0.552-0.003-0.759
					C26.702-9.911,26.693-9.92,26.684-9.923z"/>
				<path class="st2" d="M7.651-27.472c0.216-0.208,0.216-0.55,0-0.757l-4.064-3.908c-0.219-0.205-0.568-0.205-0.784,0.003
					C2.587-31.926,2.586-31.59,2.8-31.38l4.064,3.908C7.08-27.265,7.435-27.265,7.651-27.472z"/>
				<path class="st2" d="M30.389-6.36c-0.216-0.185-0.551-0.177-0.758,0.022c-0.207,0.199-0.216,0.521-0.024,0.729
					c-0.003,0.003-0.003,0.003,0,0.006l1.791,1.721c0.003,0.003,0.006,0,0.009-0.003c0.216,0.174,0.538,0.16,0.74-0.034
					c0.201-0.193,0.216-0.504,0.036-0.712c0.003-0.002,0.006-0.006,0.003-0.009L30.394-6.36C30.391-6.363,30.391-6.363,30.389-6.36z
					"/>
				<path class="st2" d="M31.179-16.258c-0.216,0.207-0.216,0.549,0,0.757L47.3,0h1.574L31.966-16.258
					C31.75-16.466,31.395-16.466,31.179-16.258z"/>
				<path class="st2" d="M11.468-35.963c-0.006-0.011-0.012-0.017-0.021-0.025c-0.216-0.208-0.568-0.205-0.784,0.003
					c-0.216,0.207-0.219,0.546-0.003,0.754c0.009,0.009,0.015,0.014,0.027,0.02c0,0.006,0.006,0.011,0.009,0.014l12.49,12.01
					c0.003,0.003,0.009,0.009,0.015,0.009c0.003,0.008,0.012,0.017,0.018,0.023c0.216,0.207,0.574,0.21,0.791,0.003
					c0.216-0.208,0.213-0.552-0.003-0.76c-0.006-0.005-0.015-0.013-0.023-0.016c0-0.006-0.006-0.012-0.009-0.014l-12.491-12.01
					C11.48-35.956,11.474-35.962,11.468-35.963z"/>
				<path class="st2" d="M9.074-38.21H7.562l0.666,0.641c0.003,0.003,0.006,0,0.009-0.003c0.216,0.173,0.538,0.159,0.74-0.034
					C9.146-37.77,9.175-38.012,9.074-38.21z"/>
				<path class="st2" d="M28.71-19.389l-1.791-1.723c-0.003-0.003-0.003-0.003-0.006,0c-0.216-0.185-0.551-0.177-0.758,0.023
					c-0.207,0.199-0.216,0.521-0.024,0.729c-0.003,0.002-0.003,0.002,0,0.005l1.791,1.722c0.003,0.003,0.006,0,0.009-0.003
					c0.216,0.174,0.538,0.159,0.74-0.034c0.201-0.194,0.216-0.503,0.036-0.711C28.71-19.384,28.713-19.386,28.71-19.389z"/>
				<path class="st2" d="M26.137-32.516c0.216-0.207,0.216-0.549,0-0.756l-4.064-3.908c-0.219-0.205-0.569-0.205-0.784,0.003
					c-0.216,0.208-0.216,0.544-0.003,0.754l4.063,3.907C25.566-32.308,25.921-32.308,26.137-32.516z"/>
				<path class="st2" d="M49.769-10.549c-0.219-0.205-0.569-0.205-0.785,0.003c-0.216,0.208-0.216,0.543-0.003,0.755l4.064,3.907
					c0.216,0.208,0.571,0.208,0.787,0c0.216-0.207,0.216-0.549,0-0.756L49.769-10.549z"/>
				<path class="st2" d="M32.908-26.762l-1.791-1.722c-0.003-0.003-0.003-0.003-0.006,0c-0.216-0.185-0.551-0.176-0.758,0.022
					c-0.207,0.199-0.216,0.521-0.024,0.728c-0.003,0.003-0.003,0.003,0,0.006l1.791,1.722c0.003,0.003,0.006,0,0.009-0.003
					c0.216,0.173,0.538,0.159,0.74-0.034c0.201-0.193,0.216-0.504,0.035-0.712C32.908-26.756,32.911-26.759,32.908-26.762z"/>
				<path class="st2" d="M59.214-1.461c-0.216-0.185-0.551-0.176-0.758,0.023c-0.207,0.199-0.216,0.521-0.023,0.728
					c-0.003,0.003-0.003,0.003,0,0.005L59.166,0h1.575l-1.52-1.462C59.217-1.464,59.217-1.464,59.214-1.461z"/>
				<path class="st2" d="M46.732-13.458c0-0.011-0.006-0.017-0.012-0.023l-9.329-8.971c-0.003-0.003-0.003-0.003-0.009-0.003
					c-0.003-0.009-0.006-0.011-0.012-0.017c-0.216-0.208-0.571-0.207-0.787,0c-0.216,0.208-0.216,0.549,0,0.757
					c0.006,0.006,0.009,0.009,0.018,0.012c0,0.006,0,0.006,0.003,0.009l9.329,8.97c0.005,0.006,0.012,0.012,0.024,0.012
					c0.008,0.019,0.02,0.031,0.035,0.046c0.216,0.208,0.571,0.208,0.788,0c0.216-0.208,0.216-0.55,0-0.758
					C46.764-13.438,46.753-13.45,46.732-13.458z"/>
				<path class="st2" d="M32.867-38.21h-1.575l2.006,1.929c0.216,0.207,0.571,0.207,0.788,0c0.216-0.208,0.216-0.549,0-0.757
					L32.867-38.21z"/>
				<path class="st2" d="M62.187-10.013c0-0.005-0.006-0.011-0.009-0.014l-12.49-12.01c-0.003-0.003-0.009-0.009-0.015-0.009
					c-0.006-0.012-0.012-0.017-0.021-0.026c-0.216-0.208-0.568-0.205-0.784,0.003c-0.216,0.207-0.219,0.546-0.003,0.754
					c0.009,0.009,0.015,0.014,0.026,0.02c0,0.005,0.006,0.011,0.009,0.014L61.39-9.27c0.003,0.003,0.009,0.009,0.015,0.009
					c0.003,0.008,0.012,0.017,0.018,0.022c0.216,0.208,0.575,0.211,0.79,0.003c0.216-0.208,0.213-0.552-0.003-0.759
					C62.205-10.001,62.195-10.01,62.187-10.013z"/>
				<path class="st2" d="M70.931-0.853c-0.216,0.208-0.216,0.543-0.003,0.754L71.031,0h1.575l-0.89-0.856
					C71.496-1.061,71.147-1.061,70.931-0.853z"/>
				<path class="st2" d="M68.319-4.122l-1.791-1.722c-0.003-0.003-0.003-0.003-0.006,0c-0.215-0.185-0.551-0.176-0.758,0.023
					c-0.207,0.199-0.216,0.521-0.023,0.729c-0.003,0.002-0.003,0.002,0,0.005l1.791,1.722c0.003,0.003,0.006,0,0.009-0.003
					c0.216,0.174,0.539,0.159,0.74-0.035c0.202-0.193,0.216-0.503,0.036-0.711C68.318-4.116,68.322-4.12,68.319-4.122z"/>
				<path class="st2" d="M45.287-24.765c0.009,0.02,0.021,0.031,0.035,0.046c0.216,0.207,0.572,0.207,0.787,0
					c0.216-0.208,0.216-0.549,0-0.758c-0.015-0.013-0.027-0.025-0.047-0.033c0-0.012-0.006-0.018-0.012-0.023l-9.329-8.971
					c-0.003-0.003-0.003-0.003-0.009-0.003c-0.003-0.009-0.006-0.012-0.012-0.017c-0.216-0.208-0.571-0.208-0.787,0
					c-0.216,0.208-0.216,0.55,0,0.757c0.006,0.006,0.009,0.009,0.018,0.011c0,0.006,0,0.006,0.003,0.009l9.329,8.97
					C45.27-24.771,45.276-24.765,45.287-24.765z"/>
				<path class="st2" d="M83.816-0.629c-0.006-0.006-0.015-0.015-0.023-0.017c0-0.006-0.006-0.011-0.009-0.014l-12.49-12.01
					c-0.003-0.002-0.009-0.008-0.015-0.008c-0.006-0.012-0.012-0.017-0.021-0.026c-0.216-0.208-0.569-0.205-0.784,0.003
					c-0.216,0.208-0.219,0.546-0.003,0.754c0.009,0.009,0.015,0.014,0.026,0.02c0,0.005,0.006,0.011,0.009,0.014L82.896,0h1.018
					C84.024-0.203,83.991-0.461,83.816-0.629z"/>
				<path class="st2" d="M44.733-38.21h-1.574l3.513,3.378c0.216,0.208,0.571,0.207,0.787,0c0.216-0.208,0.216-0.549,0-0.758
					L44.733-38.21z"/>
				<path class="st2" d="M67.182-15.111c0.003,0.003,0.006,0,0.009-0.002c0.216,0.173,0.539,0.159,0.74-0.034
					c0.202-0.193,0.216-0.504,0.036-0.712c0.003-0.003,0.006-0.006,0.003-0.009l-1.791-1.722c-0.003-0.003-0.003-0.003-0.006,0
					c-0.216-0.185-0.551-0.176-0.758,0.022c-0.207,0.2-0.216,0.521-0.024,0.728c-0.003,0.003-0.003,0.003,0,0.006L67.182-15.111z"/>
				<path class="st2" d="M62.548-21.068c0-0.012-0.006-0.017-0.012-0.023l-9.329-8.971c-0.003-0.003-0.003-0.003-0.009-0.003
					c-0.002-0.009-0.006-0.012-0.011-0.017c-0.216-0.208-0.571-0.208-0.787,0c-0.216,0.208-0.216,0.549,0,0.757
					c0.006,0.006,0.009,0.009,0.018,0.012c0,0.006,0,0.006,0.003,0.009l9.329,8.97c0.006,0.006,0.012,0.012,0.024,0.012
					c0.009,0.02,0.021,0.031,0.036,0.046c0.216,0.207,0.571,0.207,0.787,0c0.216-0.208,0.216-0.55,0-0.757
					C62.581-21.048,62.569-21.059,62.548-21.068z"/>
				<path class="st2" d="M59.274-35.637c-0.217-0.208-0.571-0.208-0.787,0c-0.216,0.207-0.216,0.549,0,0.756L80.59-13.626
					c0.217,0.207,0.571,0.207,0.788,0c0.216-0.208,0.216-0.549,0-0.757L59.274-35.637z"/>
				<path class="st2" d="M91.038-5.089c-0.006-0.011-0.012-0.017-0.021-0.025c-0.216-0.208-0.568-0.205-0.784,0.002
					c-0.216,0.207-0.219,0.546-0.003,0.754c0.009,0.009,0.014,0.014,0.026,0.02c0,0.005,0.006,0.012,0.009,0.014L94.762,0h1.574
					l-5.284-5.08C91.05-5.083,91.044-5.089,91.038-5.089z"/>
				<path class="st2" d="M87.187-8.797l-1.791-1.722c-0.003-0.003-0.003-0.003-0.006,0c-0.216-0.185-0.551-0.177-0.758,0.023
					c-0.207,0.199-0.216,0.521-0.024,0.728c-0.003,0.003-0.003,0.003,0,0.006L86.4-8.04c0.003,0.003,0.006,0,0.009-0.003
					c0.216,0.174,0.538,0.16,0.74-0.034c0.201-0.193,0.216-0.503,0.036-0.712C87.187-8.792,87.19-8.794,87.187-8.797z"/>
				<path class="st2" d="M86.237-19.611c0.003,0.009,0.012,0.017,0.018,0.023c0.216,0.208,0.574,0.211,0.79,0.003
					c0.216-0.208,0.213-0.552-0.003-0.759c-0.006-0.006-0.015-0.015-0.024-0.017c0-0.005-0.006-0.012-0.009-0.014l-12.49-12.01
					c-0.003-0.003-0.009-0.009-0.015-0.009c-0.006-0.011-0.012-0.016-0.021-0.025c-0.216-0.208-0.569-0.205-0.784,0.003
					c-0.216,0.207-0.219,0.546-0.003,0.754c0.009,0.009,0.015,0.014,0.027,0.02c0,0.005,0.006,0.011,0.009,0.014l12.49,12.01
					C86.225-19.617,86.231-19.612,86.237-19.611z"/>
				<path class="st2" d="M89.514-17.969c-0.219-0.204-0.568-0.204-0.784,0.003c-0.216,0.208-0.216,0.543-0.003,0.754l4.064,3.907
					c0.216,0.208,0.571,0.208,0.787,0c0.216-0.207,0.216-0.549,0-0.756L89.514-17.969z"/>
				<path class="st2" d="M101.173-5.244l0.031,0.03v-0.806c-0.009,0.008-0.019,0.013-0.028,0.022
					C100.96-5.791,100.96-5.455,101.173-5.244z"/>
				<path class="st2" d="M70.697-34.548c0.003,0.003,0.006,0,0.009-0.003c0.216,0.174,0.538,0.16,0.74-0.034
					c0.201-0.193,0.215-0.503,0.035-0.712c0.003-0.002,0.006-0.005,0.003-0.008l-1.79-1.722c-0.003-0.003-0.003-0.003-0.006,0
					c-0.216-0.185-0.551-0.176-0.758,0.023c-0.207,0.199-0.216,0.521-0.024,0.729c-0.003,0.003-0.003,0.003,0,0.006L70.697-34.548z"
					/>
				<path class="st2" d="M96.72-9.526l1.791,1.722c0.003,0.002,0.006,0,0.009-0.003c0.216,0.173,0.539,0.159,0.74-0.034
					c0.201-0.193,0.216-0.504,0.036-0.712c0.003-0.003,0.006-0.006,0.003-0.009l-1.791-1.722c-0.003-0.003-0.003-0.003-0.006,0
					c-0.215-0.185-0.551-0.176-0.758,0.022c-0.207,0.199-0.216,0.521-0.023,0.728C96.717-9.529,96.717-9.529,96.72-9.526z"/>
				<path class="st2" d="M97.249-21.184c-0.216,0.208-0.216,0.55,0,0.757l3.955,3.803v-1.514l-3.168-3.046
					C97.82-21.392,97.465-21.392,97.249-21.184z"/>
				<path class="st2" d="M80.155-36.862c0.003,0.003,0.009,0.008,0.015,0.009c0.003,0.008,0.012,0.017,0.018,0.022
					c0.216,0.208,0.575,0.211,0.791,0.003c0.216-0.207,0.213-0.552-0.003-0.759c-0.006-0.006-0.015-0.015-0.024-0.018
					c0-0.005-0.006-0.011-0.009-0.014l-0.614-0.59h-1.575L80.155-36.862z"/>
				<path class="st2" d="M85.495-32.486c-0.216,0.208-0.216,0.544-0.003,0.755l4.064,3.908c0.216,0.207,0.571,0.207,0.787,0
					c0.216-0.208,0.216-0.549,0-0.757l-4.064-3.907C86.061-32.693,85.711-32.693,85.495-32.486z"/>
				<path class="st2" d="M94.924-24.176l-1.791-1.722c-0.003-0.003-0.003-0.003-0.006,0c-0.216-0.185-0.551-0.176-0.758,0.023
					c-0.207,0.2-0.215,0.521-0.024,0.729c-0.003,0.003-0.003,0.003,0,0.006l1.791,1.722c0.003,0.003,0.006,0,0.009-0.003
					c0.216,0.174,0.538,0.16,0.74-0.034c0.201-0.193,0.216-0.503,0.036-0.712C94.924-24.17,94.927-24.173,94.924-24.176z"/>
				<path class="st2" d="M96.122-34.428c-0.003-0.009-0.006-0.012-0.012-0.017c-0.216-0.207-0.571-0.207-0.787,0
					c-0.216,0.208-0.216,0.549,0,0.757c0.006,0.005,0.009,0.008,0.018,0.011c0,0.005,0,0.005,0.003,0.009l5.861,5.635v-1.514
					l-5.073-4.878C96.128-34.428,96.128-34.428,96.122-34.428z"/>
				<path class="st2" d="M17.054-41.247c0.216-0.208,0.216-0.55,0-0.757l-4.064-3.908c-0.219-0.205-0.569-0.205-0.784,0.003
					c-0.216,0.208-0.216,0.544-0.003,0.754l4.064,3.908C16.483-41.04,16.839-41.04,17.054-41.247z"/>
				<path class="st2" d="M6.433-62.123c0.009,0.02,0.021,0.031,0.036,0.046c0.216,0.208,0.571,0.208,0.787,0
					c0.216-0.208,0.216-0.549,0-0.758c-0.015-0.014-0.027-0.025-0.047-0.033c0-0.012-0.006-0.017-0.012-0.023L0-69.812v1.514
					l6.41,6.163C6.416-62.129,6.421-62.123,6.433-62.123z"/>
				<path class="st2" d="M6.13-74.57c0.216-0.207,0.216-0.549,0-0.756L0-81.221v1.514l5.342,5.136
					C5.559-74.362,5.914-74.362,6.13-74.57z"/>
				<path class="st2" d="M20.302-60.192c0.003,0.009,0.012,0.017,0.018,0.023c0.216,0.208,0.574,0.211,0.791,0.003
					c0.216-0.208,0.213-0.552-0.003-0.76c-0.006-0.005-0.015-0.014-0.023-0.017c0-0.006-0.006-0.012-0.009-0.014L8.584-72.967
					c-0.003-0.003-0.009-0.009-0.015-0.009c-0.006-0.011-0.012-0.016-0.021-0.025c-0.216-0.208-0.568-0.205-0.784,0.003
					c-0.216,0.208-0.219,0.546-0.003,0.754c0.009,0.009,0.015,0.014,0.026,0.02c0,0.006,0.006,0.011,0.009,0.014L20.287-60.2
					C20.29-60.198,20.296-60.192,20.302-60.192z"/>
				<path class="st2" d="M27.927-52.854c0.216,0.208,0.571,0.208,0.787,0c0.216-0.208,0.216-0.549,0-0.757l-4.064-3.907
					c-0.219-0.205-0.568-0.205-0.784,0.003c-0.216,0.207-0.216,0.543-0.003,0.754L27.927-52.854z"/>
				<path class="st2" d="M40.382-41.636c0.216-0.208,0.216-0.549,0-0.756L36.318-46.3c-0.219-0.205-0.569-0.205-0.784,0.003
					c-0.216,0.207-0.216,0.543-0.003,0.754l4.064,3.908C39.811-41.428,40.166-41.428,40.382-41.636z"/>
				<path class="st2" d="M32.25-48.697c0.003,0.002,0.006,0,0.009-0.003c0.216,0.174,0.538,0.159,0.74-0.034
					c0.201-0.193,0.216-0.503,0.036-0.711c0.003-0.003,0.006-0.006,0.003-0.009l-1.791-1.722c-0.003-0.002-0.003-0.002-0.006,0
					c-0.216-0.185-0.551-0.176-0.758,0.023c-0.207,0.199-0.216,0.521-0.024,0.728c-0.003,0.002-0.003,0.002,0,0.005L32.25-48.697z"
					/>
				<path class="st2" d="M16.944-75.581c0.216-0.208,0.216-0.549,0-0.757L0-92.63v1.514l16.157,15.535
					C16.373-75.373,16.728-75.373,16.944-75.581z"/>
				<path class="st2" d="M44.238-48.585c0.003,0.008,0.012,0.017,0.018,0.022c0.216,0.208,0.574,0.211,0.79,0.003
					c0.216-0.207,0.213-0.552-0.003-0.76c-0.006-0.006-0.015-0.014-0.024-0.017c0-0.005-0.006-0.012-0.009-0.014L32.52-61.36
					c-0.003-0.003-0.009-0.009-0.015-0.009c-0.006-0.011-0.012-0.017-0.021-0.025c-0.216-0.208-0.568-0.205-0.784,0.003
					c-0.216,0.207-0.219,0.546-0.003,0.754c0.009,0.009,0.015,0.015,0.026,0.02c0,0.005,0.006,0.011,0.009,0.014l12.49,12.01
					C44.226-48.591,44.232-48.585,44.238-48.585z"/>
				<path class="st2" d="M25.165-66.919c0.003,0.002,0.006,0,0.009-0.003c0.216,0.173,0.538,0.159,0.74-0.035
					c0.201-0.193,0.216-0.503,0.036-0.711c0.003-0.003,0.006-0.006,0.003-0.008l-1.791-1.722c-0.003-0.003-0.003-0.003-0.006,0
					c-0.216-0.185-0.551-0.176-0.758,0.023c-0.207,0.199-0.216,0.521-0.024,0.729c-0.003,0.002-0.003,0.002,0,0.005L25.165-66.919z"
					/>
				<path class="st2" d="M19.856-84.19c0.216-0.207,0.216-0.549,0-0.757l-4.064-3.908c-0.219-0.205-0.569-0.205-0.784,0.003
					c-0.216,0.208-0.216,0.544-0.003,0.754l4.063,3.908C19.285-83.982,19.64-83.982,19.856-84.19z"/>
				<path class="st2" d="M52.646-52.661c0.216-0.207,0.216-0.549,0-0.756l-4.063-3.908c-0.219-0.205-0.568-0.205-0.784,0.003
					c-0.216,0.208-0.216,0.543-0.003,0.754l4.063,3.908C52.076-52.453,52.43-52.453,52.646-52.661z"/>
				<path class="st2" d="M7.712-96.623l-1.791-1.722c-0.003-0.003-0.003-0.003-0.006,0C5.7-98.53,5.365-98.521,5.158-98.322
					c-0.207,0.199-0.216,0.521-0.024,0.729c-0.003,0.003-0.003,0.003,0,0.006l1.791,1.722c0.003,0.003,0.006,0,0.009-0.003
					c0.216,0.173,0.539,0.16,0.74-0.034c0.202-0.193,0.216-0.504,0.036-0.711C7.712-96.617,7.715-96.62,7.712-96.623z"/>
				<path class="st2" d="M41.434-64.198c-0.003-0.003-0.003-0.003-0.006,0c-0.216-0.185-0.551-0.176-0.758,0.023
					c-0.207,0.2-0.216,0.521-0.024,0.729c-0.003,0.003-0.003,0.003,0,0.005l1.791,1.722c0.003,0.003,0.006,0,0.009-0.003
					c0.216,0.174,0.538,0.16,0.74-0.034c0.201-0.193,0.216-0.503,0.036-0.711c0.003-0.003,0.006-0.005,0.003-0.008L41.434-64.198z"
					/>
				<path class="st2" d="M33.946-69.895c0.009,0.02,0.021,0.031,0.036,0.046c0.216,0.207,0.571,0.207,0.787,0
					c0.216-0.208,0.216-0.549,0-0.757c-0.015-0.014-0.027-0.026-0.047-0.034c0-0.012-0.006-0.017-0.012-0.023l-9.329-8.97
					c-0.003-0.003-0.003-0.003-0.009-0.003c-0.003-0.009-0.006-0.012-0.012-0.017c-0.216-0.208-0.571-0.208-0.787,0
					c-0.216,0.208-0.216,0.55,0,0.757c0.006,0.006,0.009,0.009,0.018,0.011c0,0.006,0,0.006,0.003,0.009l9.329,8.97
					C33.928-69.901,33.934-69.895,33.946-69.895z"/>
				<path class="st2" d="M0.67-114.047c0.216-0.207,0.216-0.549,0-0.757L0-115.448v1.484C0.213-113.847,0.49-113.874,0.67-114.047z"
					/>
				<path class="st2" d="M52.499-64.211c0.216-0.208,0.216-0.549,0-0.757L30.396-86.222c-0.216-0.208-0.571-0.208-0.787,0
					c-0.216,0.208-0.216,0.549,0,0.757l22.104,21.254C51.928-64.003,52.283-64.003,52.499-64.211z"/>
				<path class="st2" d="M7.827-107.922c-0.219-0.205-0.568-0.205-0.784,0.003c-0.216,0.208-0.216,0.543-0.003,0.754l4.064,3.908
					c0.216,0.207,0.571,0.207,0.787-0.001c0.216-0.207,0.216-0.549,0-0.756L7.827-107.922z"/>
				<path class="st2" d="M4.611-111.015l-1.791-1.722c-0.003-0.002-0.003-0.002-0.006,0c-0.216-0.185-0.551-0.176-0.757,0.023
					c-0.207,0.199-0.216,0.521-0.024,0.729c-0.003,0.002-0.003,0.002,0,0.005l1.791,1.722c0.003,0.002,0.006,0,0.009-0.003
					c0.216,0.174,0.539,0.159,0.74-0.034c0.202-0.193,0.216-0.503,0.036-0.711C4.61-111.009,4.613-111.013,4.611-111.015z"/>
				<path class="st2" d="M23.884-90.98c0.009,0.02,0.02,0.031,0.035,0.046c0.216,0.207,0.571,0.207,0.788,0
					c0.216-0.208,0.216-0.549,0-0.758c-0.015-0.014-0.027-0.026-0.047-0.034c0-0.011-0.006-0.017-0.012-0.023l-9.329-8.97
					c-0.003-0.003-0.003-0.003-0.009-0.003c-0.003-0.009-0.006-0.011-0.012-0.017c-0.216-0.208-0.571-0.208-0.787,0
					c-0.216,0.208-0.216,0.55,0,0.757c0.006,0.006,0.009,0.009,0.018,0.012c0,0.006,0,0.006,0.003,0.009l9.329,8.97
					C23.866-90.986,23.872-90.98,23.884-90.98z"/>
				<path class="st2" d="M55.354-60.715c0,0.006,0,0.006,0.004,0.009l9.33,8.97c0.006,0.005,0.012,0.012,0.023,0.012
					c0.009,0.02,0.021,0.031,0.035,0.045c0.216,0.208,0.571,0.208,0.788,0c0.216-0.208,0.216-0.549,0-0.757
					c-0.015-0.014-0.027-0.026-0.048-0.034c0-0.011-0.006-0.017-0.011-0.023l-9.33-8.971c-0.003-0.003-0.003-0.003-0.009-0.003
					c-0.003-0.009-0.006-0.012-0.012-0.017c-0.216-0.208-0.571-0.208-0.787,0c-0.216,0.208-0.216,0.549,0,0.757
					C55.342-60.72,55.346-60.717,55.354-60.715z"/>
				<path class="st2" d="M37.111-89.66c0.216,0.208,0.571,0.208,0.787,0c0.216-0.208,0.216-0.549,0-0.757L15.794-111.67
					c-0.216-0.208-0.571-0.208-0.787,0c-0.216,0.208-0.216,0.549,0,0.757L37.111-89.66z"/>
				<path class="st2" d="M68.794-59.2c0.003,0.008,0.011,0.017,0.018,0.022c0.216,0.208,0.574,0.211,0.79,0.003
					c0.216-0.207,0.213-0.552-0.003-0.759c-0.006-0.006-0.015-0.014-0.023-0.017c0-0.005-0.006-0.011-0.009-0.014l-12.49-12.01
					c-0.003-0.003-0.009-0.009-0.015-0.009c-0.006-0.012-0.012-0.017-0.021-0.026c-0.216-0.208-0.568-0.205-0.784,0.003
					c-0.216,0.207-0.219,0.546-0.003,0.754c0.009,0.009,0.015,0.014,0.027,0.02c0,0.005,0.006,0.012,0.009,0.014l12.491,12.01
					C68.782-59.206,68.788-59.201,68.794-59.2z"/>
				<path class="st2" d="M54.726-74.224c0.003-0.003,0.006-0.005,0.003-0.008l-1.791-1.722c-0.003-0.003-0.003-0.003-0.006,0
					c-0.216-0.185-0.551-0.176-0.758,0.023c-0.207,0.199-0.216,0.521-0.024,0.729c-0.003,0.003-0.003,0.003,0,0.006l1.791,1.721
					c0.003,0.003,0.006,0,0.009-0.003c0.216,0.174,0.539,0.159,0.74-0.035C54.892-73.706,54.907-74.016,54.726-74.224z"/>
				<path class="st2" d="M10.812-114.958c0.009,0.02,0.021,0.031,0.036,0.045c0.216,0.208,0.571,0.208,0.787,0
					c0.216-0.208,0.216-0.549,0-0.758c-0.015-0.014-0.027-0.025-0.047-0.033c0-0.012-0.006-0.018-0.012-0.023l-9.329-8.971
					c-0.003-0.003-0.003-0.003-0.009-0.002c-0.003-0.009-0.006-0.012-0.012-0.017c-0.216-0.208-0.571-0.208-0.787,0
					c-0.216,0.208-0.216,0.55,0,0.757c0.006,0.006,0.009,0.009,0.018,0.011c0,0.006,0,0.006,0.003,0.009l9.329,8.971
					C10.794-114.965,10.8-114.958,10.812-114.958z"/>
				<path class="st2" d="M40.847-87.576c-0.003-0.009-0.006-0.012-0.012-0.017c-0.216-0.208-0.571-0.208-0.787,0
					c-0.216,0.208-0.216,0.55,0,0.757c0.006,0.006,0.009,0.009,0.018,0.012c0,0.006,0,0.006,0.003,0.009l9.329,8.971
					c0.006,0.005,0.012,0.011,0.023,0.011c0.009,0.02,0.021,0.031,0.036,0.045c0.216,0.208,0.571,0.208,0.788,0
					c0.216-0.207,0.216-0.549,0-0.758c-0.015-0.014-0.027-0.025-0.047-0.033c0-0.011-0.006-0.018-0.012-0.023l-9.329-8.97
					C40.853-87.576,40.853-87.576,40.847-87.576z"/>
				<path class="st2" d="M73.618-56.064c-0.003-0.009-0.006-0.012-0.012-0.018c-0.216-0.208-0.572-0.207-0.787,0
					c-0.216,0.208-0.216,0.55,0,0.757c0.006,0.006,0.009,0.009,0.018,0.012c0,0.006,0,0.006,0.003,0.009l9.33,8.97
					c0.006,0.006,0.011,0.012,0.023,0.012c0.009,0.02,0.021,0.031,0.036,0.046c0.216,0.207,0.571,0.207,0.787,0
					c0.216-0.208,0.216-0.549,0-0.758c-0.015-0.014-0.027-0.026-0.048-0.034c0-0.011-0.006-0.017-0.011-0.023l-9.329-8.971
					C73.624-56.065,73.624-56.065,73.618-56.064z"/>
				<path class="st2" d="M64.91-75.096c0.216-0.208,0.216-0.549,0-0.758L42.805-97.107c-0.216-0.208-0.571-0.208-0.787,0
					c-0.216,0.207-0.216,0.549,0,0.757l22.104,21.254C64.338-74.889,64.693-74.889,64.91-75.096z"/>
				<path class="st2" d="M22.732-114.9c0.003,0.008,0.012,0.016,0.018,0.022c0.216,0.208,0.574,0.211,0.79,0.003
					c0.216-0.207,0.213-0.552-0.003-0.759c-0.006-0.006-0.015-0.015-0.024-0.018c0-0.005-0.006-0.011-0.009-0.013l-12.49-12.01
					c-0.003-0.003-0.009-0.009-0.015-0.009c-0.006-0.012-0.012-0.017-0.021-0.026c-0.216-0.207-0.568-0.205-0.784,0.003
					c-0.216,0.208-0.219,0.547-0.003,0.755c0.009,0.008,0.015,0.014,0.026,0.02c0,0.006,0.006,0.012,0.009,0.014l12.49,12.01
					C22.72-114.906,22.726-114.9,22.732-114.9z"/>
				<path class="st2" d="M66.772-73.305c-0.216,0.207-0.219,0.546-0.003,0.754c0.009,0.009,0.015,0.014,0.026,0.02
					c0,0.005,0.006,0.012,0.009,0.014l12.49,12.01c0.003,0.003,0.009,0.008,0.015,0.009c0.003,0.009,0.011,0.017,0.018,0.022
					c0.216,0.208,0.574,0.211,0.79,0.003c0.216-0.207,0.213-0.552-0.003-0.759c-0.006-0.006-0.015-0.014-0.023-0.017
					c0-0.005-0.006-0.011-0.009-0.014l-12.49-12.01c-0.003-0.003-0.009-0.009-0.015-0.009c-0.006-0.012-0.012-0.017-0.021-0.026
					C67.34-73.516,66.988-73.513,66.772-73.305z"/>
				<path class="st2" d="M93.503-47.603c0.215-0.208,0.215-0.549,0-0.757l-4.064-3.907c-0.219-0.205-0.568-0.205-0.784,0.003
					c-0.216,0.207-0.216,0.543-0.003,0.754l4.064,3.908C92.932-47.395,93.287-47.395,93.503-47.603z"/>
				<path class="st2" d="M33.193-105.593c-0.216,0.208-0.216,0.543-0.003,0.754l4.064,3.908c0.216,0.208,0.571,0.208,0.787,0
					c0.216-0.208,0.216-0.549,0-0.756l-4.063-3.908C33.758-105.801,33.409-105.801,33.193-105.593z"/>
				<path class="st2" d="M0.88-135.918c0.216,0.174,0.539,0.16,0.74-0.034c0.202-0.193,0.216-0.504,0.036-0.712
					c0.003-0.002,0.006-0.005,0.003-0.008L0-138.266v1.514l0.871,0.837C0.874-135.911,0.877-135.915,0.88-135.918z"/>
				<path class="st2" d="M4.483-132.441l1.791,1.722c0.003,0.003,0.006,0,0.009-0.003c0.216,0.173,0.538,0.159,0.74-0.034
					c0.201-0.193,0.216-0.503,0.035-0.711c0.003-0.003,0.006-0.006,0.003-0.009l-1.791-1.722c-0.003-0.002-0.003-0.002-0.006,0
					c-0.216-0.185-0.551-0.176-0.758,0.022c-0.207,0.2-0.216,0.521-0.024,0.729C4.48-132.444,4.48-132.444,4.483-132.441z"/>
				<path class="st2" d="M28.09-111.257c-0.003-0.002-0.003-0.002-0.006,0.001c-0.216-0.186-0.551-0.177-0.758,0.022
					c-0.207,0.199-0.216,0.521-0.024,0.729c-0.003,0.003-0.003,0.003,0,0.005l1.791,1.722c0.003,0.003,0.006,0,0.009-0.003
					c0.216,0.173,0.538,0.159,0.74-0.034c0.201-0.193,0.216-0.504,0.035-0.711c0.003-0.003,0.006-0.006,0.003-0.009L28.09-111.257z"
					/>
				<path class="st2" d="M82.61-58.833c-0.003-0.003-0.003-0.003-0.006,0c-0.216-0.185-0.551-0.176-0.758,0.023
					c-0.207,0.199-0.216,0.52-0.023,0.729c-0.003,0.003-0.003,0.003,0,0.005l1.791,1.722c0.003,0.003,0.006,0,0.009-0.003
					c0.216,0.174,0.539,0.16,0.74-0.034c0.201-0.193,0.216-0.503,0.036-0.712c0.003-0.002,0.006-0.005,0.003-0.008L82.61-58.833z"/>
				<path class="st2" d="M10.945-138.394c-0.216,0.208-0.216,0.549,0,0.757l22.104,21.254c0.216,0.208,0.571,0.208,0.787,0
					c0.216-0.208,0.216-0.549,0-0.756l-22.104-21.254C11.516-138.602,11.162-138.602,10.945-138.394z"/>
				<path class="st2" d="M96.215-57.155c0-0.005-0.006-0.012-0.009-0.014l-12.491-12.01c-0.003-0.003-0.009-0.009-0.015-0.009
					c-0.006-0.011-0.012-0.017-0.021-0.025c-0.216-0.208-0.568-0.205-0.784,0.003c-0.216,0.207-0.219,0.546-0.003,0.754
					c0.009,0.009,0.015,0.014,0.026,0.02c0,0.005,0.006,0.011,0.009,0.014l12.49,12.01c0.003,0.003,0.009,0.008,0.015,0.009
					c0.003,0.008,0.012,0.017,0.018,0.023c0.216,0.208,0.574,0.211,0.791,0.002c0.215-0.208,0.212-0.552-0.003-0.759
					C96.233-57.143,96.224-57.152,96.215-57.155z"/>
				<path class="st2" d="M72.281-79.418c0.216-0.207,0.216-0.549,0-0.756l-4.064-3.908c-0.219-0.205-0.569-0.205-0.784,0.003
					c-0.216,0.208-0.216,0.543-0.003,0.754l4.064,3.908C71.71-79.21,72.065-79.21,72.281-79.418z"/>
				<path class="st2" d="M99.498-53.247c-0.216,0.208-0.216,0.543-0.003,0.754l1.708,1.643v-1.514l-0.921-0.886
					C100.063-53.455,99.714-53.455,99.498-53.247z"/>
				<path class="st2" d="M39.926-111.285c-0.003-0.003-0.003-0.003-0.006,0c-0.216-0.185-0.551-0.176-0.757,0.023
					c-0.207,0.199-0.216,0.521-0.024,0.728c-0.003,0.003-0.003,0.003,0,0.005l1.791,1.722c0.003,0.002,0.006,0,0.009-0.003
					c0.216,0.173,0.539,0.159,0.74-0.034c0.202-0.193,0.216-0.504,0.036-0.711c0.003-0.003,0.006-0.006,0.003-0.009L39.926-111.285z
					"/>
				<path class="st2" d="M59.956-92.025c-0.003-0.002-0.003-0.002-0.006,0c-0.216-0.185-0.55-0.176-0.758,0.023
					c-0.207,0.199-0.216,0.521-0.024,0.729c-0.003,0.003-0.003,0.003,0,0.005l1.791,1.722c0.003,0.003,0.005,0,0.009-0.003
					c0.216,0.174,0.539,0.16,0.74-0.034c0.201-0.194,0.216-0.504,0.036-0.712c0.003-0.003,0.006-0.005,0.003-0.008L59.956-92.025z"
					/>
				<path class="st2" d="M78.317-74.37c-0.003-0.003-0.003-0.003-0.006,0c-0.216-0.185-0.551-0.176-0.758,0.023
					c-0.207,0.199-0.216,0.521-0.023,0.728c-0.003,0.003-0.003,0.003,0,0.006l1.791,1.722c0.003,0.002,0.006,0,0.009-0.003
					c0.216,0.174,0.539,0.159,0.74-0.034c0.202-0.193,0.216-0.504,0.036-0.712c0.003-0.002,0.006-0.006,0.003-0.009L78.317-74.37z"
					/>
				<path class="st2" d="M5.615-142.774c0.009,0.02,0.021,0.031,0.036,0.046c0.216,0.208,0.571,0.208,0.787,0
					c0.216-0.208,0.216-0.549,0-0.757c-0.015-0.014-0.027-0.025-0.047-0.034c0-0.012-0.006-0.017-0.012-0.023L0-149.675v1.514
					l5.591,5.376C5.597-142.779,5.603-142.774,5.615-142.774z"/>
				<path class="st2" d="M45.853-104.829c-0.216,0.208-0.216,0.549,0,0.757c0.006,0.006,0.009,0.009,0.018,0.011
					c0,0.006,0,0.006,0.003,0.009l9.33,8.97c0.006,0.006,0.012,0.011,0.023,0.011c0.009,0.02,0.021,0.032,0.036,0.046
					c0.216,0.208,0.571,0.208,0.787,0c0.216-0.208,0.216-0.549,0-0.757c-0.014-0.014-0.026-0.026-0.047-0.034
					c0-0.011-0.006-0.017-0.012-0.023l-9.329-8.971c-0.003-0.002-0.003-0.002-0.009-0.002c-0.003-0.009-0.006-0.012-0.012-0.018
					C46.424-105.037,46.069-105.037,45.853-104.829z"/>
				<path class="st2" d="M58.739-104.605c-0.216-0.208-0.571-0.208-0.787,0c-0.216,0.208-0.216,0.549,0,0.757l22.104,21.254
					c0.216,0.208,0.572,0.208,0.788,0c0.216-0.208,0.216-0.549-0.001-0.757L58.739-104.605z"/>
				<path class="st2" d="M2.172-157.488c0.003,0.008,0.012,0.017,0.018,0.023c0.216,0.208,0.574,0.21,0.791,0.003
					c0.216-0.208,0.213-0.552-0.003-0.76c-0.006-0.005-0.015-0.014-0.023-0.017c0-0.006-0.006-0.011-0.009-0.014L0-161.084v1.514
					l2.157,2.074C2.16-157.493,2.166-157.488,2.172-157.488z"/>
				<path class="st2" d="M96.382-68.403c0-0.006-0.006-0.012-0.009-0.014l-12.491-12.01c-0.003-0.003-0.009-0.009-0.015-0.009
					c-0.006-0.01-0.011-0.017-0.021-0.025c-0.216-0.208-0.568-0.205-0.784,0.003c-0.216,0.207-0.219,0.546-0.003,0.754
					c0.009,0.009,0.014,0.014,0.026,0.02c0,0.006,0.006,0.012,0.009,0.014l12.49,12.01c0.003,0.003,0.009,0.009,0.015,0.009
					c0.003,0.008,0.012,0.017,0.017,0.023c0.216,0.207,0.575,0.21,0.791,0.003c0.216-0.208,0.213-0.552-0.003-0.76
					C96.4-68.392,96.391-68.4,96.382-68.403z"/>
				<path class="st2" d="M22.655-138.544c-0.216,0.208-0.216,0.544-0.003,0.755l4.064,3.907c0.216,0.208,0.571,0.208,0.787,0
					c0.216-0.208,0.216-0.549,0-0.757l-4.064-3.907C23.22-138.751,22.871-138.751,22.655-138.544z"/>
				<path class="st2" d="M50.064-112.188c-0.216,0.207-0.216,0.543-0.003,0.754l4.064,3.907c0.216,0.208,0.571,0.208,0.787,0
					c0.216-0.208,0.216-0.549,0-0.757l-4.064-3.907C50.63-112.396,50.281-112.396,50.064-112.188z"/>
				<path class="st2" d="M5.995-155.319c-0.003-0.003-0.003-0.003-0.006,0c-0.216-0.185-0.551-0.177-0.758,0.023
					c-0.207,0.199-0.216,0.521-0.024,0.729c-0.003,0.002-0.003,0.002,0,0.005l1.791,1.722c0.003,0.003,0.006,0,0.009-0.003
					c0.216,0.173,0.538,0.159,0.74-0.034c0.201-0.194,0.216-0.504,0.036-0.711c0.003-0.003,0.006-0.006,0.003-0.009L5.995-155.319z"
					/>
				<path class="st2" d="M100.33-64.613l-1.79-1.722c-0.003-0.003-0.003-0.003-0.006,0c-0.216-0.185-0.551-0.176-0.758,0.022
					c-0.207,0.199-0.216,0.521-0.024,0.729c-0.003,0.003-0.003,0.003,0,0.006l1.791,1.722c0.003,0.003,0.006,0,0.009-0.003
					c0.216,0.173,0.539,0.16,0.74-0.034c0.201-0.193,0.216-0.504,0.036-0.711C100.33-64.607,100.333-64.61,100.33-64.613z"/>
				<path class="st2" d="M32.725-128.103c0.003,0.003,0.006,0,0.009-0.003c0.216,0.174,0.538,0.159,0.74-0.034
					c0.201-0.193,0.216-0.503,0.036-0.711c0.003-0.003,0.006-0.005,0.003-0.008l-1.791-1.722c-0.003-0.003-0.003-0.003-0.006,0
					c-0.216-0.184-0.551-0.176-0.758,0.023c-0.207,0.199-0.216,0.521-0.024,0.729c-0.003,0.003-0.003,0.003,0,0.005L32.725-128.103z
					"/>
				<path class="st2" d="M19.89-141.947c0-0.011-0.006-0.017-0.012-0.023l-9.329-8.971c-0.003-0.003-0.003-0.003-0.009-0.003
					c-0.003-0.008-0.006-0.012-0.012-0.017c-0.216-0.208-0.571-0.208-0.787,0c-0.216,0.208-0.216,0.549,0,0.757
					c0.006,0.006,0.009,0.009,0.018,0.011c0,0.006,0,0.006,0.003,0.009l9.329,8.971c0.006,0.005,0.012,0.011,0.024,0.011
					c0.009,0.02,0.02,0.031,0.035,0.045c0.216,0.208,0.571,0.208,0.788,0c0.216-0.208,0.216-0.549,0-0.758
					C19.923-141.927,19.911-141.939,19.89-141.947z"/>
				<path class="st2" d="M36.187-124.775c0.006,0.006,0.009,0.009,0.018,0.012c0,0.005,0,0.005,0.003,0.009l9.33,8.97
					c0.006,0.006,0.012,0.012,0.024,0.012c0.009,0.02,0.021,0.031,0.036,0.046c0.216,0.208,0.571,0.208,0.787,0
					c0.216-0.208,0.216-0.55,0-0.757c-0.015-0.014-0.026-0.026-0.047-0.034c0-0.012-0.006-0.017-0.012-0.023l-9.329-8.971
					c-0.003-0.002-0.003-0.002-0.009-0.002c-0.003-0.009-0.006-0.012-0.012-0.018c-0.216-0.207-0.571-0.207-0.787,0
					C35.971-125.324,35.971-124.982,36.187-124.775z"/>
				<path class="st2" d="M5.441-165.747c0.216,0.208,0.571,0.208,0.788,0c0.216-0.208,0.216-0.549,0-0.757L1.553-171H0v0.021
					L5.441-165.747z"/>
				<path class="st2" d="M77.521-97.197c-0.216,0.207-0.216,0.549,0,0.757l22.104,21.254c0.216,0.207,0.572,0.207,0.788,0
					c0.216-0.208,0.216-0.55,0-0.758L78.308-97.197C78.092-97.405,77.737-97.405,77.521-97.197z"/>
				<path class="st2" d="M35.262-138.582c0-0.006-0.006-0.012-0.009-0.014l-12.491-12.01c-0.003-0.003-0.009-0.008-0.015-0.009
					c-0.006-0.011-0.012-0.017-0.021-0.026c-0.216-0.207-0.568-0.205-0.784,0.003c-0.216,0.208-0.219,0.546-0.003,0.754
					c0.009,0.009,0.015,0.015,0.026,0.02c0,0.006,0.006,0.011,0.009,0.014l12.49,12.01c0.003,0.003,0.009,0.009,0.015,0.009
					c0.003,0.008,0.012,0.017,0.018,0.022c0.216,0.208,0.574,0.211,0.791,0.003c0.216-0.208,0.213-0.552-0.003-0.76
					C35.28-138.57,35.271-138.579,35.262-138.582z"/>
				<path class="st2" d="M52.378-122.13c-0.003-0.002-0.003-0.002-0.006,0c-0.216-0.185-0.551-0.177-0.758,0.022
					c-0.207,0.2-0.216,0.521-0.023,0.729c-0.003,0.002-0.003,0.002,0,0.005l1.79,1.722c0.003,0.002,0.006,0,0.009-0.003
					c0.216,0.174,0.539,0.159,0.74-0.034c0.201-0.193,0.215-0.503,0.036-0.711c0.003-0.003,0.005-0.006,0.003-0.009L52.378-122.13z"
					/>
				<path class="st2" d="M70.868-104.351c-0.003-0.003-0.003-0.003-0.006,0c-0.216-0.185-0.551-0.176-0.758,0.022
					c-0.207,0.2-0.216,0.521-0.024,0.729c-0.003,0.003-0.003,0.003,0,0.006l1.79,1.722c0.003,0.003,0.006,0,0.009-0.003
					c0.216,0.173,0.539,0.16,0.74-0.034c0.201-0.193,0.215-0.504,0.036-0.711c0.002-0.003,0.005-0.006,0.002-0.009L70.868-104.351z"
					/>
				<path class="st2" d="M9.175-162.162c0,0.005,0,0.005,0.003,0.009l9.329,8.97c0.006,0.006,0.012,0.012,0.024,0.012
					c0.009,0.02,0.021,0.031,0.036,0.045c0.216,0.208,0.571,0.208,0.787,0c0.216-0.208,0.216-0.549,0-0.757
					c-0.015-0.014-0.027-0.026-0.047-0.034c0-0.012-0.006-0.017-0.012-0.023l-9.329-8.971c-0.003-0.003-0.003-0.003-0.009-0.003
					c-0.003-0.009-0.006-0.011-0.012-0.017c-0.216-0.208-0.571-0.208-0.787,0c-0.216,0.207-0.216,0.549,0,0.757
					C9.163-162.168,9.166-162.165,9.175-162.162z"/>
				<path class="st2" d="M48.446-124.407c0.009,0.02,0.021,0.031,0.036,0.046c0.216,0.207,0.571,0.207,0.787,0
					c0.216-0.208,0.216-0.55,0-0.758c-0.015-0.014-0.026-0.025-0.047-0.033c0-0.012-0.005-0.017-0.012-0.023l-9.329-8.97
					c-0.003-0.003-0.003-0.003-0.009-0.003c-0.003-0.009-0.006-0.012-0.012-0.017c-0.216-0.208-0.571-0.208-0.787,0
					c-0.216,0.208-0.216,0.549,0,0.757c0.006,0.006,0.009,0.008,0.018,0.011c0,0.006,0,0.006,0.003,0.009l9.33,8.971
					C48.429-124.413,48.435-124.407,48.446-124.407z"/>
				<path class="st2" d="M57.506-117.192c-0.002-0.009-0.005-0.011-0.012-0.017c-0.216-0.208-0.571-0.208-0.787,0
					c-0.216,0.208-0.217,0.549,0,0.757c0.006,0.005,0.009,0.009,0.017,0.012c0,0.005,0,0.005,0.003,0.009l9.33,8.97
					c0.006,0.006,0.012,0.011,0.024,0.011c0.009,0.02,0.02,0.031,0.035,0.045c0.216,0.208,0.571,0.208,0.788,0
					c0.216-0.207,0.216-0.549,0-0.757c-0.015-0.014-0.027-0.025-0.048-0.034c0-0.011-0.006-0.017-0.012-0.023l-9.33-8.97
					C57.513-117.192,57.513-117.192,57.506-117.192z"/>
				<path class="st2" d="M37.191-148.142c-0.216-0.208-0.571-0.208-0.787,0c-0.216,0.208-0.216,0.549,0,0.757l22.104,21.253
					c0.216,0.208,0.572,0.208,0.787,0c0.217-0.208,0.216-0.549,0-0.756L37.191-148.142z"/>
				<path class="st2" d="M13.389-169.52c0,0.006,0.006,0.012,0.009,0.014l12.49,12.01c0.003,0.003,0.008,0.008,0.015,0.008
					c0.003,0.008,0.012,0.017,0.018,0.023c0.216,0.208,0.574,0.21,0.791,0.003c0.216-0.208,0.213-0.552-0.003-0.76
					c-0.006-0.005-0.015-0.014-0.023-0.017c0-0.006-0.006-0.011-0.009-0.014l-12.491-12.011c-0.003-0.003-0.009-0.008-0.015-0.009
					c-0.006-0.011-0.012-0.017-0.021-0.025c-0.216-0.208-0.568-0.205-0.784,0.003c-0.216,0.208-0.219,0.547-0.003,0.755
					C13.371-169.532,13.377-169.526,13.389-169.52z"/>
				<path class="st2" d="M99.563-88.163c-0.006-0.012-0.012-0.017-0.021-0.026c-0.215-0.208-0.567-0.205-0.784,0.003
					c-0.216,0.207-0.219,0.546-0.003,0.754c0.009,0.009,0.015,0.014,0.026,0.02c0,0.005,0.006,0.011,0.009,0.013l2.413,2.32v-1.513
					l-1.626-1.563C99.575-88.157,99.57-88.163,99.563-88.163z"/>
				<path class="st2" d="M75.238-111.553c0-0.005-0.006-0.011-0.009-0.013l-12.491-12.011c-0.003-0.003-0.009-0.008-0.015-0.009
					c-0.006-0.011-0.012-0.017-0.021-0.026c-0.216-0.207-0.568-0.205-0.784,0.003c-0.216,0.208-0.219,0.547-0.003,0.754
					c0.009,0.008,0.014,0.014,0.026,0.02c0,0.006,0.006,0.012,0.009,0.014l12.49,12.01c0.003,0.003,0.009,0.009,0.015,0.009
					c0.003,0.008,0.012,0.017,0.017,0.022c0.216,0.208,0.575,0.211,0.791,0.003c0.216-0.207,0.213-0.552-0.003-0.759
					C75.255-111.541,75.246-111.55,75.238-111.553z"/>
				<path class="st2" d="M89.826-96.774c0.216-0.208,0.216-0.549,0-0.757l-4.064-3.908c-0.219-0.205-0.568-0.205-0.784,0.003
					c-0.216,0.208-0.217,0.543-0.003,0.754l4.064,3.907C89.255-96.566,89.61-96.567,89.826-96.774z"/>
				<path class="st2" d="M29.607-153.92l1.791,1.722c0.003,0.003,0.006,0,0.009-0.003c0.216,0.173,0.538,0.159,0.74-0.034
					c0.201-0.193,0.216-0.503,0.036-0.711c0.003-0.003,0.006-0.006,0.003-0.008l-1.791-1.722c-0.003-0.003-0.003-0.003-0.006,0
					c-0.216-0.185-0.551-0.176-0.758,0.023c-0.207,0.199-0.216,0.521-0.024,0.729C29.604-153.923,29.604-153.923,29.607-153.92z"/>
				<path class="st2" d="M78.464-108.456c-0.003-0.003-0.003-0.003-0.006,0c-0.215-0.185-0.551-0.176-0.758,0.023
					c-0.207,0.199-0.216,0.521-0.023,0.729c-0.003,0.002-0.003,0.002,0,0.005l1.791,1.722c0.003,0.002,0.006,0,0.009-0.003
					c0.216,0.174,0.539,0.159,0.74-0.034c0.202-0.193,0.216-0.503,0.036-0.711c0.003-0.003,0.006-0.006,0.003-0.009L78.464-108.456z
					"/>
				<path class="st2" d="M93.11-94.374c-0.003-0.003-0.003-0.003-0.006,0c-0.216-0.185-0.551-0.177-0.758,0.023
					c-0.207,0.2-0.216,0.521-0.023,0.729c-0.003,0.003-0.003,0.003,0,0.005l1.791,1.722c0.003,0.003,0.005,0,0.008-0.003
					c0.216,0.174,0.539,0.159,0.74-0.035c0.202-0.193,0.216-0.503,0.036-0.711c0.003-0.003,0.006-0.005,0.003-0.008L93.11-94.374z"
					/>
				<path class="st2" d="M53.283-142.563c0.216,0.208,0.572,0.208,0.788,0c0.216-0.208,0.216-0.549,0-0.757l-22.104-21.254
					c-0.216-0.208-0.571-0.208-0.787,0c-0.216,0.207-0.216,0.549,0,0.757L53.283-142.563z"/>
				<path class="st2" d="M73.958-123.441c-0.216,0.208-0.216,0.549,0,0.757l22.104,21.254c0.216,0.208,0.571,0.208,0.787,0
					c0.216-0.208,0.216-0.549,0-0.757l-22.104-21.254C74.529-123.649,74.174-123.649,73.958-123.441z"/>
				<path class="st2" d="M59.306-138.281c-0.006-0.011-0.012-0.017-0.021-0.026c-0.216-0.207-0.568-0.205-0.784,0.003
					c-0.216,0.208-0.219,0.547-0.004,0.754c0.009,0.008,0.015,0.015,0.026,0.02c0,0.006,0.006,0.011,0.009,0.014l12.49,12.01
					c0.003,0.002,0.009,0.009,0.015,0.009c0.003,0.008,0.012,0.017,0.018,0.023c0.216,0.208,0.575,0.211,0.791,0.003
					c0.216-0.208,0.213-0.552-0.003-0.759c-0.006-0.006-0.015-0.014-0.024-0.017c0-0.006-0.006-0.012-0.009-0.014L59.32-138.273
					C59.318-138.275,59.311-138.281,59.306-138.281z"/>
				<path class="st2" d="M26.132-168.67l1.791,1.722c0.003,0.003,0.006,0,0.009-0.003c0.216,0.174,0.538,0.16,0.74-0.034
					c0.201-0.193,0.216-0.504,0.036-0.712c0.003-0.003,0.006-0.005,0.003-0.008l-1.791-1.722c-0.003-0.003-0.003-0.003-0.006,0
					c-0.216-0.185-0.551-0.177-0.758,0.022c-0.207,0.199-0.216,0.521-0.024,0.729C26.129-168.673,26.129-168.673,26.132-168.67z"/>
				<path class="st2" d="M98.078-99.491l1.791,1.722c0.003,0.003,0.005,0,0.008-0.003c0.216,0.174,0.539,0.159,0.74-0.035
					c0.202-0.193,0.216-0.503,0.036-0.711c0.003-0.003,0.006-0.006,0.003-0.008l-1.791-1.722c-0.003-0.003-0.003-0.003-0.006,0
					c-0.216-0.185-0.551-0.176-0.757,0.023c-0.207,0.199-0.216,0.521-0.024,0.728C98.075-99.494,98.075-99.494,98.078-99.491z"/>
				<path class="st2" d="M66.884-142.403c-0.005-0.011-0.012-0.017-0.021-0.026c-0.216-0.208-0.568-0.205-0.784,0.003
					c-0.216,0.208-0.219,0.547-0.003,0.755c0.009,0.008,0.014,0.014,0.027,0.02c0,0.006,0.006,0.011,0.009,0.014l12.49,12.01
					c0.003,0.003,0.009,0.009,0.015,0.009c0.003,0.008,0.012,0.017,0.018,0.023c0.216,0.208,0.574,0.21,0.791,0.003
					c0.215-0.208,0.213-0.552-0.003-0.76c-0.006-0.005-0.015-0.014-0.023-0.017c-0.001-0.006-0.006-0.011-0.009-0.014
					l-12.491-12.011C66.896-142.397,66.89-142.403,66.884-142.403z"/>
				<path class="st2" d="M89.601-120.56c-0.006-0.011-0.012-0.017-0.021-0.026c-0.216-0.208-0.569-0.205-0.784,0.003
					c-0.216,0.208-0.219,0.546-0.003,0.754c0.009,0.009,0.015,0.015,0.026,0.02c0.001,0.006,0.007,0.012,0.009,0.014l12.375,11.899
					v-1.513l-11.588-11.143C89.613-120.554,89.607-120.56,89.601-120.56z"/>
				<path class="st2" d="M48.985-158.863c-0.216,0.208-0.216,0.543-0.003,0.754l4.064,3.908c0.216,0.207,0.571,0.207,0.787,0
					c0.216-0.208,0.216-0.549,0-0.756l-4.063-3.908C49.55-159.07,49.2-159.07,48.985-158.863z"/>
				<path class="st2" d="M86.35-122.935c0.216-0.208,0.216-0.549,0-0.757l-4.063-3.907c-0.219-0.205-0.569-0.205-0.784,0.002
					c-0.216,0.208-0.216,0.543-0.003,0.754l4.063,3.908C85.778-122.727,86.134-122.727,86.35-122.935z"/>
				<path class="st2" d="M59.22-149.778c-0.003-0.003-0.003-0.003-0.006,0c-0.216-0.185-0.551-0.177-0.758,0.022
					c-0.207,0.199-0.216,0.522-0.023,0.729c-0.003,0.003-0.003,0.003,0,0.006l1.791,1.722c0.003,0.003,0.005,0,0.008-0.003
					c0.216,0.173,0.539,0.159,0.74-0.034c0.202-0.193,0.216-0.504,0.036-0.712c0.003-0.003,0.006-0.006,0.003-0.009L59.22-149.778z"
					/>
				<path class="st2" d="M36.6-170.019c0,0.006,0,0.006,0.003,0.009l9.329,8.97c0.005,0.005,0.012,0.012,0.024,0.012
					c0.008,0.02,0.02,0.031,0.035,0.045c0.216,0.208,0.571,0.208,0.788,0c0.216-0.208,0.216-0.549,0-0.758
					c-0.015-0.014-0.027-0.025-0.048-0.033c0-0.012-0.006-0.017-0.012-0.023l-9.329-8.971c-0.003-0.003-0.003-0.003-0.009-0.003
					c-0.003-0.008-0.006-0.012-0.012-0.017c-0.216-0.208-0.571-0.208-0.787,0c-0.216,0.208-0.216,0.549,0,0.757
					C36.588-170.025,36.592-170.022,36.6-170.019z"/>
				<path class="st2" d="M48.891-169.61c0,0.006,0.006,0.012,0.009,0.014l12.49,12.01c0.003,0.002,0.009,0.008,0.015,0.009
					c0.003,0.008,0.012,0.017,0.018,0.022c0.216,0.208,0.575,0.211,0.79,0.003c0.216-0.207,0.213-0.552-0.003-0.759
					c-0.006-0.006-0.015-0.015-0.024-0.018c0-0.005-0.006-0.011-0.009-0.014l-12.49-12.01c-0.003-0.003-0.009-0.009-0.015-0.009
					c-0.006-0.011-0.012-0.017-0.021-0.025c-0.216-0.208-0.568-0.205-0.784,0.002c-0.216,0.208-0.219,0.547-0.003,0.754
					C48.873-169.622,48.88-169.616,48.891-169.61z"/>
				<path class="st2" d="M98.444-122.715c-0.216,0.208-0.216,0.543-0.003,0.754l2.763,2.656v-1.514l-1.975-1.899
					C99.01-122.922,98.66-122.922,98.444-122.715z"/>
				<path class="st2" d="M75.779-144.508c0.216-0.208,0.216-0.549,0-0.757l-4.063-3.907c-0.219-0.205-0.569-0.205-0.784,0.003
					c-0.216,0.207-0.216,0.544-0.003,0.754l4.064,3.907C75.208-144.3,75.563-144.3,75.779-144.508z"/>
				<path class="st2" d="M78.336-142.805c-0.003-0.003-0.003-0.003-0.006,0c-0.216-0.185-0.551-0.177-0.757,0.022
					c-0.207,0.2-0.216,0.521-0.024,0.729c-0.003,0.003-0.003,0.003,0,0.006l1.791,1.722c0.003,0.003,0.006,0,0.009-0.003
					c0.216,0.174,0.539,0.16,0.74-0.034c0.202-0.193,0.217-0.503,0.036-0.712c0.003-0.002,0.006-0.005,0.003-0.008L78.336-142.805z"
					/>
				<path class="st2" d="M66.528-154.16c-0.003-0.003-0.003-0.003-0.006,0c-0.215-0.185-0.551-0.176-0.758,0.022
					c-0.207,0.2-0.216,0.521-0.023,0.729c-0.003,0.003-0.003,0.003,0,0.005l1.791,1.722c0.003,0.003,0.006,0,0.009-0.003
					c0.216,0.174,0.539,0.16,0.74-0.034c0.202-0.193,0.216-0.503,0.036-0.712c0.003-0.003,0.006-0.005,0.003-0.008L66.528-154.16z"
					/>
				<path class="st2" d="M94.063-126.17l1.791,1.722c0.003,0.003,0.006,0,0.009-0.003c0.216,0.174,0.539,0.16,0.74-0.034
					c0.202-0.193,0.216-0.503,0.036-0.712c0.003-0.002,0.006-0.005,0.003-0.008l-1.791-1.722c-0.003-0.003-0.003-0.003-0.006,0
					c-0.215-0.185-0.55-0.176-0.757,0.023c-0.207,0.199-0.216,0.521-0.024,0.729C94.06-126.173,94.06-126.173,94.063-126.17z"/>
				<path class="st2" d="M92.15-129.512c0-0.012-0.006-0.017-0.012-0.023l-9.329-8.971c-0.003-0.003-0.003-0.003-0.009-0.003
					c-0.003-0.008-0.006-0.011-0.012-0.017c-0.216-0.208-0.571-0.208-0.787,0c-0.216,0.207-0.216,0.549,0,0.757
					c0.006,0.005,0.009,0.009,0.018,0.011c0,0.006,0,0.006,0.003,0.009l9.329,8.97c0.006,0.006,0.012,0.011,0.024,0.011
					c0.009,0.02,0.021,0.032,0.036,0.045c0.215,0.208,0.571,0.208,0.787,0c0.216-0.208,0.216-0.549,0-0.757
					C92.182-129.492,92.171-129.503,92.15-129.512z"/>
				<path class="st2" d="M70.497-160.245c0,0.006,0.006,0.012,0.009,0.014l12.49,12.01c0.003,0.003,0.009,0.009,0.015,0.009
					c0.003,0.008,0.011,0.017,0.018,0.022c0.216,0.208,0.574,0.211,0.79,0.003c0.216-0.208,0.213-0.552-0.003-0.76
					c-0.006-0.006-0.015-0.014-0.023-0.017c0-0.005-0.006-0.012-0.009-0.014l-12.49-12.01c-0.003-0.003-0.009-0.009-0.015-0.009
					c-0.006-0.012-0.012-0.017-0.021-0.026c-0.216-0.208-0.569-0.205-0.784,0.003c-0.216,0.207-0.219,0.546-0.003,0.754
					C70.479-160.256,70.485-160.25,70.497-160.245z"/>
				<path class="st2" d="M65.391-165.148l1.791,1.722c0.003,0.003,0.006,0,0.009-0.002c0.216,0.173,0.539,0.159,0.74-0.034
					c0.202-0.193,0.216-0.504,0.036-0.711c0.003-0.003,0.006-0.006,0.003-0.009l-1.791-1.722c-0.003-0.003-0.003-0.003-0.006,0
					c-0.216-0.185-0.551-0.177-0.758,0.022c-0.207,0.199-0.216,0.521-0.024,0.728C65.388-165.151,65.388-165.151,65.391-165.148z"/>
				<path class="st2" d="M96.978-134.776l1.79,1.722c0.003,0.003,0.006,0,0.009-0.003c0.216,0.174,0.539,0.159,0.74-0.034
					c0.201-0.193,0.215-0.503,0.036-0.711c0.002-0.003,0.005-0.006,0.002-0.009l-1.79-1.722c-0.003-0.003-0.003-0.003-0.006,0
					c-0.216-0.185-0.55-0.177-0.758,0.023c-0.207,0.199-0.216,0.521-0.024,0.728C96.975-134.779,96.975-134.779,96.978-134.776z"/>
				<path class="st2" d="M89.593-142.634c-0.207,0.199-0.216,0.521-0.024,0.728c-0.003,0.003-0.003,0.003,0,0.006l1.791,1.722
					c0.003,0.003,0.006,0,0.009-0.002c0.216,0.173,0.539,0.159,0.74-0.034c0.202-0.193,0.216-0.504,0.036-0.711
					c0.003-0.003,0.006-0.006,0.004-0.009l-1.791-1.722c-0.003-0.003-0.003-0.003-0.006,0.001
					C90.135-142.842,89.8-142.833,89.593-142.634z"/>
				<path class="st2" d="M61.773-168.638c0.009,0.02,0.021,0.031,0.036,0.046c0.216,0.208,0.571,0.208,0.787,0
					c0.216-0.208,0.216-0.549,0-0.757c-0.014-0.014-0.026-0.025-0.047-0.034c0-0.011-0.006-0.017-0.012-0.023L60.879-171h-1.575
					l2.444,2.35C61.755-168.644,61.761-168.638,61.773-168.638z"/>
				<path class="st2" d="M81.378-161.942c0.216-0.208,0.216-0.549,0-0.757l-8.632-8.3h-1.575l9.42,9.058
					C80.807-161.735,81.162-161.735,81.378-161.942z"/>
				<path class="st2" d="M91.038-153.405c-0.006-0.011-0.012-0.017-0.021-0.026c-0.216-0.208-0.568-0.205-0.784,0.003
					c-0.216,0.208-0.219,0.546-0.003,0.754c0.009,0.009,0.014,0.014,0.026,0.02c0,0.006,0.006,0.011,0.009,0.014l10.938,10.518
					v-1.514l-10.151-9.761C91.05-153.4,91.044-153.405,91.038-153.405z"/>
				<path class="st2" d="M84.609-158.078l1.791,1.722c0.003,0.002,0.006,0,0.009-0.003c0.216,0.174,0.538,0.159,0.74-0.034
					c0.201-0.193,0.216-0.504,0.036-0.711c0.003-0.003,0.006-0.006,0.003-0.008l-1.791-1.722c-0.003-0.003-0.003-0.003-0.006,0
					c-0.216-0.185-0.551-0.176-0.758,0.023c-0.207,0.199-0.216,0.52-0.024,0.729C84.606-158.081,84.606-158.081,84.609-158.078z"/>
				<path class="st2" d="M86.237-167.927c0.003,0.008,0.012,0.017,0.018,0.022c0.216,0.208,0.574,0.211,0.79,0.003
					c0.216-0.207,0.213-0.552-0.003-0.759c-0.006-0.006-0.015-0.015-0.024-0.017c0-0.005-0.006-0.012-0.009-0.014L84.61-171h-1.575
					l3.187,3.064C86.225-167.933,86.231-167.928,86.237-167.927z"/>
				<path class="st2" d="M92.791-161.62c0.216,0.207,0.571,0.207,0.787,0c0.216-0.208,0.216-0.549,0-0.757l-4.064-3.908
					c-0.219-0.205-0.568-0.205-0.784,0.003c-0.216,0.208-0.216,0.543-0.003,0.754L92.791-161.62z"/>
				<path class="st2" d="M101.173-153.561l0.031,0.03v-0.805c-0.009,0.008-0.019,0.013-0.028,0.022
					C100.96-154.107,100.96-153.771,101.173-153.561z"/>
				<path class="st2" d="M96.72-157.842l1.791,1.722c0.003,0.003,0.006,0,0.009-0.003c0.216,0.173,0.539,0.159,0.74-0.034
					c0.201-0.193,0.216-0.504,0.036-0.711c0.003-0.003,0.006-0.006,0.003-0.009l-1.791-1.722c-0.003-0.003-0.003-0.003-0.006,0
					c-0.215-0.185-0.551-0.176-0.758,0.023c-0.207,0.199-0.216,0.521-0.023,0.728C96.717-157.845,96.717-157.845,96.72-157.842z"/>
				<path class="st2" d="M97.249-169.5c-0.216,0.207-0.216,0.549,0,0.757l3.955,3.803v-1.514l-3.168-3.046
					C97.82-169.708,97.465-169.708,97.249-169.5z"/>
				<path class="st2" d="M4.365-42.041c0.216-0.207,0.216-0.549,0-0.756l-4.064-3.908C0.216-46.785,0.11-46.833,0-46.851v1.369
					l3.578,3.44C3.794-41.833,4.149-41.833,4.365-42.041z"/>
				<path class="st2" d="M9.012-38.318c0.003-0.003,0.006-0.006,0.003-0.009l-1.791-1.722c-0.003-0.002-0.003-0.002-0.006,0
					c-0.216-0.186-0.551-0.176-0.758,0.022c-0.207,0.2-0.216,0.521-0.024,0.729c-0.003,0.003-0.003,0.003,0,0.005l1.125,1.082h1.512
					C9.056-38.247,9.04-38.285,9.012-38.318z"/>
				<path class="st2" d="M0.062-56.836c0,0.006,0,0.006,0.003,0.009l9.329,8.97c0.006,0.006,0.012,0.012,0.024,0.012
					c0.009,0.02,0.02,0.031,0.035,0.046c0.216,0.208,0.571,0.208,0.788,0c0.216-0.208,0.216-0.549,0-0.757
					c-0.015-0.014-0.027-0.026-0.047-0.034c0-0.012-0.006-0.017-0.012-0.023l-9.329-8.971c-0.003-0.002-0.003-0.002-0.009-0.002
					c-0.003-0.009-0.006-0.012-0.012-0.018c-0.216-0.207-0.571-0.207-0.787,0C0.027-57.589,0.014-57.57,0-57.552v0.653
					c0.014,0.017,0.027,0.036,0.044,0.052C0.05-56.842,0.053-56.839,0.062-56.836z"/>
				<path class="st2" d="M11.982-58.292c-0.216-0.208-0.571-0.208-0.787,0c-0.216,0.208-0.216,0.55,0,0.757L31.293-38.21h1.575
					L11.982-58.292z"/>
				<path class="st2" d="M43.394-39.497c-0.219-0.205-0.568-0.205-0.784,0.003c-0.216,0.208-0.216,0.544-0.003,0.754l0.551,0.53
					h1.574L43.394-39.497z"/>
				<path class="st2" d="M49.577-44.204c-0.216,0.208-0.216,0.544-0.003,0.754l4.063,3.908c0.216,0.207,0.571,0.207,0.787,0
					c0.216-0.208,0.216-0.549,0-0.757l-4.063-3.908C50.143-44.411,49.793-44.411,49.577-44.204z"/>
				<path class="st2" d="M55.736-48.939c0,0.006,0,0.006,0.003,0.009l9.329,8.97c0.006,0.006,0.012,0.011,0.024,0.011
					c0.009,0.02,0.021,0.031,0.036,0.045c0.216,0.208,0.571,0.208,0.787,0c0.216-0.208,0.216-0.549,0-0.757
					c-0.014-0.014-0.026-0.025-0.047-0.034c0-0.011-0.006-0.017-0.012-0.023l-9.329-8.97c-0.003-0.003-0.003-0.003-0.009-0.003
					c-0.002-0.009-0.006-0.011-0.011-0.017c-0.216-0.208-0.571-0.208-0.787,0c-0.216,0.208-0.216,0.55,0,0.757
					C55.724-48.945,55.727-48.942,55.736-48.939z"/>
				<path class="st2" d="M80.329-38.21L68.452-49.63c-0.003-0.003-0.009-0.008-0.015-0.008c-0.006-0.012-0.012-0.017-0.021-0.026
					c-0.216-0.208-0.569-0.205-0.784,0.003c-0.216,0.208-0.219,0.546-0.003,0.754c0.009,0.009,0.015,0.014,0.026,0.02
					c0,0.006,0.006,0.012,0.009,0.015L78.754-38.21H80.329z"/>
				<path class="st2" d="M87.696-42.529c-0.216-0.185-0.551-0.176-0.757,0.023c-0.207,0.199-0.216,0.521-0.024,0.728
					c-0.003,0.002-0.003,0.002,0,0.005l1.791,1.722c0.003,0.002,0.006,0,0.009-0.003c0.216,0.174,0.538,0.159,0.74-0.034
					c0.201-0.193,0.216-0.504,0.036-0.711c0.003-0.003,0.006-0.006,0.003-0.009l-1.791-1.722
					C87.699-42.532,87.699-42.532,87.696-42.529z"/>
				<path class="st2" d="M95.499-45.684c-0.216,0.208-0.216,0.549,0,0.757l5.705,5.485v-1.514l-4.918-4.728
					C96.07-45.892,95.715-45.892,95.499-45.684z"/>
			</g>
		</g>
	</g>
</pattern>
<pattern  id="red-dash-circle-magnus" xlink:href="#New_Pattern_Swatch_5" patternTransform="matrix(1.1565 0 0 1.1565 1269.1934 953.9637)">
</pattern>
<circle class="st3" cx="89.338" cy="82.508" r="80.312"/>
</svg>
