<?xml version="1.0" encoding="iso-8859-1"?>
<!-- Generator: Adobe Illustrator 19.0.0, SVG Export Plug-In . SVG Version: 6.00 Build 0)  -->
<svg version="1.1" id="Capa_1" xmlns="http://www.w3.org/2000/svg" xmlns:xlink="http://www.w3.org/1999/xlink" x="0px" y="0px"
	 viewBox="0 0 480.61 480.61" style="enable-background:new 0 0 480.61 480.61;" xml:space="preserve">
<g>
	<path d="M469.012,20.343l-2.395-6.339l-6.339-2.394C439.878,3.906,418.436,0,396.547,0c-48.104,0-93.33,18.733-127.346,52.749
		l-48.227,48.227l-107.787,5.228l-90.214,90.213l77.783,24.777l-28.763,28.762l16.802,16.802l-37.224,57.056l105.235,105.237
		l57.057-37.224l16.802,16.802l28.763-28.763l24.775,77.783l90.216-90.214l5.227-107.786l48.227-48.227
		C477.832,161.462,493.98,86.459,469.012,20.343z M79.029,182.788l47.182-47.181l63.197-3.065l-64.773,64.773L79.029,182.788z
		 M160.805,390.623l-70.806-70.806l20.473-31.381l81.713,81.714L160.805,390.623z M345.015,354.412l-47.181,47.181l-14.527-45.606
		l64.773-64.773L345.015,354.412z M230.665,366.202L114.419,249.956L290.414,73.961C318.764,45.612,356.455,30,396.547,30
		c15.957,0,31.625,2.487,46.671,7.401c17.451,53.48,3.463,112.785-36.558,152.807L230.665,366.202z"/>
	<path d="M364.951,70.67c-12.02,0-23.32,4.681-31.819,13.18c-17.546,17.545-17.546,46.094,0,63.64
		c8.499,8.499,19.8,13.18,31.819,13.18s23.32-4.681,31.819-13.18c17.546-17.545,17.546-46.094,0-63.64
		C388.272,75.351,376.971,70.67,364.951,70.67z M375.558,126.277c-2.833,2.833-6.6,4.394-10.606,4.394s-7.773-1.561-10.606-4.393
		c-5.849-5.849-5.849-15.365,0-21.214c2.833-2.833,6.6-4.393,10.606-4.393s7.773,1.56,10.606,4.393
		C381.406,110.912,381.406,120.429,375.558,126.277z"/>
	<path d="M0.013,375.612l33.999-34l21.213,21.213l-33.999,33.999L0.013,375.612z M105.004,480.61l-21.213-21.213l33.999-33.999
		l21.213,21.213L105.004,480.61z M25.031,432.878l50.122-50.122l21.213,21.213l-50.122,50.122L25.031,432.878z"/>
</g>
<g>
</g>
<g>
</g>
<g>
</g>
<g>
</g>
<g>
</g>
<g>
</g>
<g>
</g>
<g>
</g>
<g>
</g>
<g>
</g>
<g>
</g>
<g>
</g>
<g>
</g>
<g>
</g>
<g>
</g>
</svg>
