<?xml version="1.0" encoding="utf-8"?>
<!-- Generator: Adobe Illustrator 22.1.0, SVG Export Plug-In . SVG Version: 6.00 Build 0)  -->
<svg version="1.1" id="sademail" xmlns="http://www.w3.org/2000/svg" xmlns:xlink="http://www.w3.org/1999/xlink" x="0px" y="0px"
	 viewBox="0 0 306.67 170.74" style="enable-background:new 0 0 306.67 170.74;" xml:space="preserve">
<style type="text/css">
	.st0{fill:#F9FAFB;}
	.st1{fill:#F3F3F3;}
	.st2{fill:none;stroke:#F0EFF0;stroke-width:2;stroke-miterlimit:10;}
	.st3{fill:none;stroke:#86888B;stroke-linecap:round;stroke-linejoin:round;stroke-miterlimit:10;}
	.st4{fill:#FFFFFF;stroke:#86888B;stroke-linecap:round;stroke-linejoin:round;stroke-miterlimit:10;}
	.st5{fill:#99A3AC;stroke:#86888B;stroke-linecap:round;stroke-linejoin:round;stroke-miterlimit:10;}
	.st6{fill:#F2F1F1;}
	.st7{fill:none;stroke:#EEEEEE;stroke-linecap:round;stroke-linejoin:round;stroke-miterlimit:10;}
	.st8{opacity:0.15;}
	.st9{opacity:0.05;}
	.st10{opacity:0.1;}
	.st11{fill:#7D7C7C;}
	.st12{fill:none;stroke:#B7B8B9;stroke-width:2;stroke-linecap:round;stroke-linejoin:round;stroke-miterlimit:10;}
	.st13{fill:none;stroke:#86888B;stroke-width:2;stroke-linecap:round;stroke-linejoin:round;stroke-miterlimit:10;}
</style>
<g>
	<g>
		<g>
			<path class="st0" d="M253.78,111.08c0-56.55-45.84-102.39-102.39-102.39S49,54.53,49,111.08c0,0.31,0.02,0.61,0.02,0.92h204.75
				C253.77,111.69,253.78,111.38,253.78,111.08z"/>
			<path class="st1" d="M235.31,169.74c11.47-16.38,18.26-36.28,18.45-57.75H49.02c0.19,21.47,6.98,41.37,18.45,57.75H235.31z"/>
		</g>
		<line class="st2" x1="0" y1="169.74" x2="306.67" y2="169.74"/>
	</g>
	<g>
		<polyline class="st3" points="230.77,52.87 230.77,149.97 76.15,149.97 76.15,52.87 		"/>
		<path class="st4" d="M157.44,99.93"/>
		<path class="st5" d="M75.87,52.87l-0.08,97.1h154.62v-97.1L156.14,1.48c-0.01,0-0.01-0.01-0.02-0.01l-0.05-0.03l0,0
			c-0.84-0.59-1.86-0.93-2.96-0.93c-1.1,0-2.12,0.35-2.96,0.93l-0.01,0L75.87,52.87z"/>
		<g>
			<path class="st6" d="M221.45,21.02c0-3.3-2.7-6-6-6H90.75c-3.3,0-6,2.7-6,6v115.5c0,3.3,2.7,6,6,6h124.7c3.3,0,6-2.7,6-6V21.02z"
				/>
			<path class="st7" d="M221.45,21.02c0-3.3-2.7-6-6-6H90.75c-3.3,0-6,2.7-6,6v115.5c0,3.3,2.7,6,6,6h124.7c3.3,0,6-2.7,6-6V21.02z"
				/>
		</g>
		<polygon class="st8" points="153.1,101.42 230.41,52.87 226.3,50.02 153.1,95.98 79.91,50.02 75.79,52.87 		"/>
		<polygon class="st5" points="75.79,52.87 153.1,101.42 230.87,52.87 230.87,149.97 75.79,149.97 		"/>
		<path class="st5" d="M156.14,98.58c-0.01,0-0.01-0.01-0.02-0.01l-0.05-0.03l0,0c-0.84-0.59-1.86-0.93-2.96-0.93
			c-1.1,0-2.12,0.35-2.96,0.93l-0.01,0l-74.34,51.44h154.62L156.14,98.58z"/>
		<path class="st9" d="M230.52,102.69c-2.38,24.47-36.12,43.87-77.41,43.87c-40.76,0-74.18-18.91-77.31-42.94v46.35h155.08v-47.28
			H230.52z"/>
		<polygon class="st10" points="149.36,99.07 145.12,96.4 75.79,144.37 75.79,149.97 		"/>
		<polygon class="st10" points="230.41,149.97 230.41,144.37 161.09,96.41 156.85,99.07 		"/>
		<polygon class="st10" points="169.06,10.42 137.15,10.42 130.49,15.02 175.71,15.02 		"/>
	</g>
	<g>
		<path class="st11" d="M148.48,49.15c0.12,1.17-0.06,1.61-0.93,1.61c0,0-1.63-2.19-6.01-2.19c-4.38,0-5.99,2.19-5.99,2.19
			c-0.86,0-1.11-0.62-0.93-1.61c0.18-0.99,0.7-6.9,6.92-6.9S148.36,47.98,148.48,49.15z"/>
		<path class="st11" d="M169.02,49.15c0.12,1.17-0.06,1.61-0.93,1.61c0,0-1.63-2.19-6.01-2.19s-5.99,2.19-5.99,2.19
			c-0.86,0-1.11-0.62-0.93-1.61c0.18-0.99,0.7-6.9,6.92-6.9C168.32,42.25,168.9,47.98,169.02,49.15z"/>
	</g>
	<path class="st12" d="M159.45,31.78c0,0,4.08,4.84,9.61,3.87"/>
	<path class="st12" d="M144.18,31.78c0,0-4.08,4.84-9.61,3.87"/>
	<g>
		<path class="st13" d="M167.22,66.12c-3.08-2.39-8.82-4-15.4-4s-12.32,1.61-15.4,4"/>
	</g>
</g>
</svg>
