<?xml version="1.0" encoding="utf-8"?>
<!-- Generator: Adobe Illustrator 16.0.4, SVG Export Plug-In . SVG Version: 6.00 Build 0)  -->
<!DOCTYPE svg PUBLIC "-//W3C//DTD SVG 1.1//EN" "http://www.w3.org/Graphics/SVG/1.1/DTD/svg11.dtd">
<svg version="1.1" id="Layer_1" xmlns="http://www.w3.org/2000/svg" xmlns:xlink="http://www.w3.org/1999/xlink" x="0px" y="0px"
	 width="14px" height="14px" viewBox="0 0 14 14" enable-background="new 0 0 14 14" xml:space="preserve">
<g>
	<path fill="#B0B0B2" d="M13.952,5.426c-0.027,0-0.746,0-1.6,0s-1.059-0.494-0.455-1.098c0.604-0.603,1.113-1.112,1.132-1.131
		s0.019-0.049,0-0.068c-0.019-0.019-0.505-0.504-1.08-1.079c-0.574-0.574-1.06-1.06-1.078-1.079c-0.02-0.02-0.05-0.02-0.068,0
		c-0.02,0.02-0.528,0.527-1.131,1.131C9.068,2.705,8.574,2.501,8.574,1.647s0-1.572,0-1.6C8.574,0.021,8.552,0,8.526,0
		C8.499,0,7.813,0,7,0S5.501,0,5.474,0C5.448,0,5.426,0.021,5.426,0.048c0,0.027,0,0.746,0,1.6S4.932,2.705,4.329,2.102
		C3.726,1.498,3.217,0.99,3.197,0.971c-0.019-0.02-0.049-0.02-0.068,0C3.11,0.99,2.625,1.476,2.05,2.05
		C1.476,2.625,0.99,3.11,0.971,3.129c-0.019,0.02-0.019,0.05,0,0.068c0.02,0.019,0.528,0.528,1.132,1.131
		c0.604,0.604,0.398,1.098-0.455,1.098s-1.573,0-1.6,0C0.021,5.426,0,5.448,0,5.475C0,5.5,0,6.187,0,7s0,1.5,0,1.525
		c0,0.027,0.021,0.049,0.048,0.049c0.026,0,0.746,0,1.6,0s1.059,0.494,0.455,1.098c-0.604,0.603-1.112,1.111-1.132,1.131
		c-0.019,0.019-0.019,0.049,0,0.067c0.02,0.02,0.505,0.505,1.079,1.079c0.575,0.575,1.061,1.061,1.079,1.08
		c0.02,0.019,0.05,0.019,0.068,0c0.019-0.02,0.528-0.527,1.132-1.131c0.603-0.604,1.097-0.399,1.097,0.454s0,1.572,0,1.6
		C5.426,13.979,5.448,14,5.474,14C5.501,14,6.187,14,7,14s1.499,0,1.526,0c0.025,0,0.048-0.021,0.048-0.048c0-0.027,0-0.746,0-1.6
		s0.494-1.059,1.098-0.455c0.603,0.604,1.112,1.112,1.131,1.131c0.019,0.02,0.049,0.02,0.068,0c0.019-0.019,0.504-0.504,1.079-1.079
		c0.574-0.574,1.061-1.06,1.079-1.079c0.019-0.019,0.019-0.049,0-0.067c-0.019-0.02-0.527-0.528-1.131-1.131
		c-0.604-0.604-0.399-1.098,0.454-1.098s1.572,0,1.6,0C13.979,8.574,14,8.553,14,8.525C14,8.5,14,7.813,14,7s0-1.5,0-1.525
		C14,5.448,13.979,5.426,13.952,5.426z M7.104,9.303c-1.298,0-2.351-1.053-2.351-2.351c0-1.299,1.053-2.352,2.351-2.352
		c1.299,0,2.352,1.053,2.352,2.352C9.456,8.25,8.403,9.303,7.104,9.303z"/>
</g>
</svg>
