<svg width="25" height="25" viewBox="0 0 25 25" fill="none" xmlns="http://www.w3.org/2000/svg">
<g clip-path="url(#clip0_1928_13374)">
<path d="M20.8352 13.2806C20.8352 7.08382 16.5072 3.07422 11.2656 3.07422C9.67959 3.07409 8.11887 3.47132 6.72593 4.22962C5.333 4.98793 4.15225 6.08315 3.29154 7.41524C2.43083 8.74734 1.91759 10.2739 1.79869 11.8554C1.67979 13.4369 1.95903 15.023 2.6109 16.4688C3.26276 17.9146 4.26649 19.174 5.53039 20.1321C6.79428 21.0901 8.27808 21.7162 9.84624 21.9532C11.4144 22.1902 13.017 22.0305 14.5075 21.4888C15.9981 20.947 17.3292 20.0404 18.3792 18.8518M24.1728 9.90302L20.8608 13.9126L24.1728 9.90302ZM16.2512 10.9958L20.8608 13.9126L16.2512 10.9958Z" stroke="#AAAAAA"/>
</g>
<defs>
<clipPath id="clip0_1928_13374">
<rect width="24" height="24" fill="white" transform="translate(0.972656 0.675781)"/>
</clipPath>
</defs>
</svg>

