<?xml version="1.0" encoding="utf-8"?>
<!-- Generator: Adobe Illustrator 23.0.6, SVG Export Plug-In . SVG Version: 6.00 Build 0)  -->
<svg version="1.1" id="Layer_1" xmlns="http://www.w3.org/2000/svg" xmlns:xlink="http://www.w3.org/1999/xlink" x="0px" y="0px"
	 viewBox="0 0 478.788 281.395" style="enable-background:new 0 0 478.788 281.395;" xml:space="preserve">

<defs>
  <filter id="grey-shadow">
    <feDropShadow dx="0" dy="0" stdDeviation="5" flood-color="#b4bfca" />
  </filter>
  <filter id="green-shadow">
    <feDropShadow dx="0" dy="0" stdDeviation="5" flood-color="#32d282" />
  </filter>
</defs>

<style type="text/css">
	.fake{fill:url(#this_fixes_gradient);}
	.st0{fill:#B4BFCA;}
	.st1{fill:#FFE000;}
	.st2{fill:#FFBA8B;}
	.st3{fill:#FFFFFF;filter:url(#grey-shadow);}
	.st4{fill:#66A4FF;}
	.st5{fill:#F1F1F1;}
	.st6{fill:none;}
	.st7{fill:#0068FF;}
	.st8{font-family:'Cousine-Regular';}
	.st9{font-size:10px;}
	.st10{fill:#CA3349;}
	.st11{fill:#F2EBAC;}
	.st12{fill:#E6CBAC;}
	.st13{fill:#656C67;}
	.st14{fill:#E4C9A2;}
	.st15{fill:#C6B299;}
	.st16{fill:#EAD498;}
	.st17{fill:#2D3136;}
	.st18{fill:#EDF6F9;}
	.st19{opacity:0.8;}
	.st20{opacity:0.75;fill:#EAD498;enable-background:new    ;}
	.st21{font-family:'SourceSansPro-Regular';}
	.st22{font-size:13px;}
	.st23{font-family:'SourceSansPro-Bold';}
	.st24{font-size:14px;}
	.st25{fill:#32D282;}
	.st26{fill:#FFFFFF;filter:url(#green-shadow);}
</style>
<g>
	<g>
		<path class="st0" d="M471.3,207.665c0.032,3.87-3.079,7.033-6.949,7.065c-3.87,0.032-7.033-3.079-7.065-6.949
			c-0.032-3.87,3.079-7.033,6.949-7.065C468.104,200.684,471.267,203.795,471.3,207.665z"/>
	</g>
</g>
<path class="st1" d="M409.951,129.612v-0.005c-4.078-0.466-7.309-3.704-7.766-7.785h-0.004c-0.002-0.03-0.026-0.055-0.057-0.055
	c-0.031,0-0.055,0.025-0.057,0.055h-0.003c-0.458,4.085-3.694,7.326-7.779,7.787v0.003c-0.03,0.002-0.055,0.026-0.055,0.057
	c0,0.031,0.025,0.055,0.055,0.057v0.003c4.08,0.46,7.315,3.696,7.777,7.775h0.006c0.002,0.03,0.026,0.055,0.057,0.055
	c0.031,0,0.055-0.025,0.057-0.055h0.004c0.462-4.075,3.69-7.308,7.765-7.773v-0.005c0.03-0.002,0.055-0.026,0.055-0.057
	C410.006,129.638,409.981,129.614,409.951,129.612z"/>
<g>

		<ellipse transform="matrix(0.149 -0.9888 0.9888 0.149 -158.486 352.2314)" class="st2" cx="125.392" cy="268.191" rx="5.547" ry="5.547"/>
</g>
<g>
	<g>
		<g>
			<path class="st3" d="M9.046,11.006c-1.65,0-3,1.35-3,3v152.869c0,1.65,1.35,3,3,3h347.707c1.65,0,3-1.35,3-3V14.006
				c0-1.65-1.35-3-3-3H9.046z"/>
		</g>
	</g>
	<circle class="st4" cx="31.173" cy="38.032" r="14.78"/>
	<rect x="16.393" y="61.018" class="st5" width="331.669" height="54.846"/>
	<g>
		<rect x="22.902" y="67.078" class="st6" width="326.16" height="43.606"/>
		<text transform="matrix(1 0 0 1 22.9013 74.3276)"><tspan x="0" y="0" class="st7 st8 st9">-&gt; </tspan><tspan x="0" y="15" class="st7 st8 st9"> [[ $TRAVIS_RUST_VERSION !:= “1.31.0” ]] </tspan><tspan x="0" y="30" class="st7 st8 st9"> &amp;&amp; cargo build --no-default-features --features alloc</tspan></text>
	</g>
	<g id="Mascot_2_">
		<g>
			<g>
				<path class="st10" d="M25.273,36.371c0,0-3.253,2.29-3.38,3.162l0.244-0.05c0,0,3.895-2.582,6.983-2.897l0.07-0.392
					L25.273,36.371z"/>
				<path class="st10" d="M30.38,36.043l-2.562,1.817l0.139,0.111c0.104-0.084,4.551-1.442,4.551-1.442l0.938-0.588
					C32.815,36.02,30.38,36.043,30.38,36.043z"/>
				<path class="st10" d="M32.606,38.241c1.819,0,4.547-1.782,4.547-1.782l-0.882-0.168c-0.044,0.044-1.422-0.048-1.422-0.048
					l-0.654-0.182l-1.563,1.781l-0.127,0.309C32.618,38.106,32.606,38.241,32.606,38.241z"/>
			</g>
			<path class="st10" d="M38.543,43.924l-0.562,0.158l-2.597-0.056l-1.624-1.263l-1.963,0.491l-2.271-0.197l-1.272,1.39
				l-2.386,0.713l-1.191-0.369c-0.038-0.033-0.06-0.052-0.06-0.052l0.535,1.309c0,0,1.211,1.299,1.888,1.451
				c0.677,0.153,1.899-0.011,2.816-0.153c0.917-0.142,1.648-0.469,1.942-1.004c0.295-0.535,0.338-0.688,0.338-0.688
				s0.873,1.233,1.626,1.375c0.753,0.142,2.99-0.622,2.99-0.622s1.364-0.371,1.604-0.84c0.24-0.469,0.873-2.008,0.873-2.008
				L38.543,43.924z M24.926,44.991c-0.013-0.006-0.025-0.012-0.038-0.017c-0.089-0.077-0.163-0.14-0.21-0.181L24.926,44.991z"/>
			<g>
				<path class="st11" d="M40.749,34.647c-0.006-0.07-0.013-0.14-0.022-0.21c-0.006-0.049-0.014-0.101-0.022-0.149
					c-0.187-0.158-0.4-0.298-0.622-0.426c-0.24-0.14-0.492-0.266-0.748-0.383c-0.255-0.12-0.517-0.229-0.78-0.335
					c-0.131-0.053-0.264-0.105-0.397-0.154c-0.133-0.052-0.267-0.1-0.401-0.149c0.282,0.047,0.561,0.111,0.838,0.182
					c0.18,0.047,0.359,0.099,0.537,0.154c-1.266-3.309-4.293-5.464-7.598-5.464c-3.305,0-6.332,2.155-7.598,5.464
					c0.178-0.056,0.357-0.108,0.537-0.154c0.277-0.071,0.556-0.135,0.838-0.182c-0.135,0.049-0.268,0.097-0.401,0.149
					c-0.132,0.049-0.265,0.101-0.397,0.154c-0.263,0.106-0.524,0.215-0.78,0.335c-0.256,0.117-0.508,0.243-0.748,0.383
					c-0.222,0.127-0.435,0.268-0.623,0.426c-0.008,0.048-0.016,0.099-0.022,0.149c-0.008,0.07-0.016,0.14-0.022,0.21
					c-0.012,0.141-0.017,0.283-0.019,0.424c-0.003,0.284,0.016,0.567,0.052,0.848c0.039,0.281,0.09,0.561,0.167,0.831
					c0.038,0.135,0.08,0.269,0.13,0.398c0.025,0.064,0.052,0.128,0.08,0.19c0.014,0.031,0.029,0.061,0.043,0.09l0.018,0.034
					c0.021,0.011,0.043,0.021,0.063,0.031l0.126,0.06c0.07,0.032,0.167,0.078,0.248,0.114c0.004-0.004,0.009-0.008,0.013-0.012
					l-0.234-0.89c0.05-0.014,0.493-0.128,1.258-0.274c-0.062-0.012-0.124-0.025-0.185-0.04c-0.174-0.043-0.346-0.096-0.512-0.163
					c-0.083-0.035-0.164-0.073-0.241-0.117c-0.078-0.045-0.154-0.095-0.213-0.162c0.84,0.274,2.576,0.15,4.118-0.01
					c1.411-0.145,2.825-0.24,4.247-0.243c1.422,0.003,2.837,0.097,4.247,0.243c1.543,0.159,3.279,0.284,4.119,0.01
					c-0.059,0.067-0.135,0.117-0.213,0.162c-0.077,0.044-0.159,0.082-0.241,0.117c-0.166,0.067-0.338,0.12-0.512,0.163
					c-0.026,0.006-0.052,0.012-0.078,0.017c0.838,0.156,1.326,0.282,1.379,0.296l-0.223,0.848c0.045-0.02,0.09-0.04,0.135-0.06
					l0.126-0.06c0.021-0.01,0.042-0.021,0.063-0.031l0.017-0.034c0.015-0.029,0.03-0.06,0.044-0.09
					c0.028-0.062,0.055-0.125,0.08-0.19c0.049-0.129,0.092-0.263,0.13-0.398c0.076-0.27,0.128-0.55,0.167-0.831
					c0.036-0.281,0.055-0.564,0.052-0.848C40.767,34.93,40.762,34.788,40.749,34.647z"/>
				<path class="st12" d="M32.487,46.415c-0.111,0.017-0.222,0.031-0.333,0.039c-0.071,0.003-0.147,0.011-0.215,0.011l-0.025,0.001
					c0.086-0.192,0.151-0.341,0.201-0.454C32.214,46.124,32.342,46.264,32.487,46.415z"/>
				<path class="st12" d="M32.729,46.661c0.345,0.342,0.773,0.538,1.244,0.573c-0.791,0.321-1.537,0.445-2.111,0.484
					c-0.573,0.038-1.153-0.029-1.722-0.185c0.048-0.009,0.083-0.015,0.125-0.02c0.047-0.006,1.067-0.139,1.527-0.822l0.043,0.001
					l0.113-0.001c0.076,0,0.146-0.006,0.219-0.009c0.174-0.015,0.343-0.04,0.51-0.073C32.693,46.626,32.711,46.643,32.729,46.661z"
					/>
				<path class="st13" d="M33.707,36.423c-0.033,0.043-0.07,0.091-0.11,0.14c-0.202,0.255-0.482,0.582-0.815,0.902
					c-0.386-0.012-0.783-0.019-1.192-0.019c-0.675,0-1.323,0.018-1.938,0.048c0.869-0.361,1.912-0.713,3.043-0.924
					C33.026,36.507,33.364,36.457,33.707,36.423z"/>
				<path class="st13" d="M28.623,36.812c-0.31,0.218-0.66,0.496-1,0.833c-0.87,0.087-1.628,0.193-2.254,0.294
					C26.331,37.496,27.429,37.089,28.623,36.812z"/>
				<path class="st13" d="M39.249,38.607l-0.354,2.475l-1.695,1.187l-4.42-0.502l-0.665-2.191C32.1,39.522,32.055,39.483,32,39.474
					c-0.164-0.026-0.309-0.04-0.429-0.04c-0.121,0-0.266,0.013-0.43,0.04c-0.055,0.009-0.099,0.048-0.116,0.101l-0.649,2.138
					l-4.395,0.978l-1.742-1.22l-0.343-2.778c0.075-0.042,0.151-0.084,0.227-0.126c0.108-0.023,0.229-0.048,0.363-0.074l0.323,2.621
					c0.005,0.041,0.028,0.077,0.061,0.101l1.198,0.84c0.025,0.017,0.054,0.026,0.083,0.026c0.011,0,0.021-0.001,0.032-0.003
					l3.614-0.804c0.012-0.003,0.025-0.007,0.036-0.013c0.034-0.018,0.06-0.049,0.071-0.086l0.651-2.143
					c0.175-0.045,0.622-0.149,1.015-0.149c0.392,0,0.839,0.104,1.014,0.149l0.651,2.143c0.017,0.056,0.065,0.095,0.123,0.102
					l3.614,0.41c0.035,0.004,0.071-0.005,0.1-0.025l1.199-0.839c0.032-0.023,0.054-0.059,0.06-0.099l0.32-2.239
					C38.89,38.531,39.091,38.573,39.249,38.607z"/>
				<path class="st13" d="M39.695,37.055l-0.311,1.18c-0.636-0.14-2.034-0.416-3.936-0.601c0.622-0.265,1.254-0.597,1.833-1.013
					C38.413,36.781,39.244,36.953,39.695,37.055z"/>
				<g>
					<path class="st14" d="M26.952,40.747c0.246-0.133,0.525-0.113,0.961-0.113c0.047,0.001,0.095,0.001,0.145-0.001
						c0.043-0.001,0.086-0.001,0.131-0.002c0.449-0.004,0.823,0.038,0.816-0.667c-0.007-0.705-0.32-1.275-0.769-1.271
						c-0.449,0.004-0.884,0.582-0.857,1.286c0.007,0.184,0.034,0.316,0.078,0.412C27.066,40.49,26.958,40.732,26.952,40.747z
						 M32.352,37.847c-0.174,0.141-0.358,0.273-0.549,0.388l-0.637,0.385c-0.4,0.049-0.747,0.148-0.766,0.153
						c-0.012,0.003-0.023,0.008-0.033,0.015c-0.031,0.018-0.054,0.048-0.066,0.083l-0.649,2.139l-3.469,0.771l-1.093-0.765
						l-0.318-2.575c0.62-0.114,1.45-0.246,2.447-0.357c-0.107,0.128-0.211,0.262-0.309,0.403l-0.593,0.852l0.864-0.576
						c0.013-0.009,0.563-0.371,1.463-0.811c0.897-0.067,1.887-0.111,2.946-0.111C31.849,37.839,32.103,37.842,32.352,37.847z"/>
					<path class="st14" d="M36.15,40.458c-0.004-0.017-0.099-0.3-0.517-0.251c0.048-0.105,0.07-0.246,0.054-0.44
						c-0.055-0.704-0.464-1.263-0.913-1.247c-0.449,0.016-0.736,0.599-0.711,1.304c0.025,0.705,0.401,0.7,0.85,0.684
						C35.517,40.497,35.848,40.312,36.15,40.458z M38.364,38.432l-0.313,2.189l-1.102,0.771l-3.464-0.394l-0.646-2.129
						c-0.015-0.047-0.052-0.084-0.099-0.098c-0.021-0.006-0.45-0.129-0.905-0.168l0.083-0.006c0.072-0.005,1.267-0.152,2.693-0.644
						C36.192,38.077,37.482,38.271,38.364,38.432z"/>
				</g>
				<g>
					<path class="st15" d="M26.952,40.747c0.246-0.133,0.525-0.113,0.961-0.113c0.047,0.001,0.095,0.001,0.145-0.001
						c0.043-0.001,0.086-0.001,0.131-0.002c0.449-0.004,0.823,0.038,0.816-0.667c-0.007-0.705-0.32-1.275-0.769-1.271
						c-0.449,0.004-0.884,0.582-0.857,1.286c0.007,0.184,0.034,0.316,0.078,0.412C27.066,40.49,26.958,40.732,26.952,40.747z
						 M32.352,37.847c-0.174,0.141-0.358,0.273-0.549,0.388l-0.637,0.385c-0.4,0.049-0.747,0.148-0.766,0.153
						c-0.012,0.003-0.023,0.008-0.033,0.015c-0.031,0.018-0.054,0.048-0.066,0.083l-0.649,2.139l-3.469,0.771l-1.093-0.765
						l-0.318-2.575c0.62-0.114,1.45-0.246,2.447-0.357c-0.107,0.128-0.211,0.262-0.309,0.403l-0.593,0.852l0.864-0.576
						c0.013-0.009,0.563-0.371,1.463-0.811c0.897-0.067,1.887-0.111,2.946-0.111C31.849,37.839,32.103,37.842,32.352,37.847z"/>
					<path class="st15" d="M36.15,40.458c-0.004-0.017-0.099-0.3-0.517-0.251c0.048-0.105,0.07-0.246,0.054-0.44
						c-0.055-0.704-0.464-1.263-0.913-1.247c-0.449,0.016-0.736,0.599-0.711,1.304c0.025,0.705,0.401,0.7,0.85,0.684
						C35.517,40.497,35.848,40.312,36.15,40.458z M38.364,38.432l-0.313,2.189l-1.102,0.771l-3.464-0.394l-0.646-2.129
						c-0.015-0.047-0.052-0.084-0.099-0.098c-0.021-0.006-0.45-0.129-0.905-0.168l0.083-0.006c0.072-0.005,1.267-0.152,2.693-0.644
						C36.192,38.077,37.482,38.271,38.364,38.432z"/>
				</g>
				<path class="st12" d="M39.876,39.395c0.053,0.044,0.095,0.157,0.048,0.686c-0.058,0.647-0.33,1.782-0.499,1.965
					c-0.186,0.036-0.575-0.007-0.813-0.062c0.041-0.163,0.053-0.241,0.086-0.408l0.416-0.291c0.033-0.023,0.055-0.059,0.061-0.098
					l0.29-2.035C39.641,39.247,39.822,39.35,39.876,39.395z"/>
				<path class="st12" d="M24.558,42.05c0.021,0.074,0.043,0.147,0.065,0.22c-0.224,0.066-0.679,0.129-0.885,0.093
					c-0.171-0.172-0.489-1.355-0.559-1.984c-0.057-0.509-0.017-0.619,0.035-0.662c0.06-0.05,0.285-0.179,0.48-0.283l0.263,2.138
					c0.005,0.041,0.027,0.077,0.061,0.101L24.558,42.05z"/>
				<path class="st12" d="M32.963,42.08l-0.016,0.136c0,0-0.479,0.444-1.25,0.543c-0.771,0.099-1.377-0.374-1.377-0.374
					c0.025,0.082,0.061,0.268,0.236,0.427c-0.205-0.025-0.427-0.041-0.66-0.041c-0.084,0-0.169,0.002-0.251,0.006
					c-0.474,0.025-1.142,0.742-1.611,1.465c-0.23,0.073-0.95,0.301-1.783,0.547c-0.778-1.078-1.16-2.179-1.199-2.293l0.001-0.001
					c-0.016-0.044-0.031-0.088-0.046-0.133l0.2,0.14v0.001l0.494,0.346l0.165,0.115c0.025,0.017,0.054,0.026,0.083,0.026
					c0.011,0,0.021-0.001,0.032-0.003l4.54-1.011c0.051-0.011,0.092-0.049,0.107-0.099l0.647-2.131
					c0.112-0.015,0.21-0.023,0.294-0.023c0.084,0,0.183,0.008,0.294,0.023l0.666,2.195c0.017,0.056,0.065,0.096,0.122,0.102
					L32.963,42.08z"/>
				<path class="st12" d="M38.146,41.962l0.147-0.103c-0.024,0.102-0.051,0.203-0.078,0.303c-0.204,0.653-0.444,1.231-0.711,1.741
					c-0.059,0.004-0.121,0.006-0.188,0.006c-0.206,0-0.417-0.017-0.65-0.039c-0.404-0.037-1.046-0.111-1.249-0.134
					c-0.175-0.139-0.772-0.614-1.269-1.005c-0.02-0.016-0.036-0.03-0.053-0.044c-0.087-0.074-0.187-0.158-0.389-0.158
					c-0.183,0-0.45,0.067-1.096,0.262c0.336-0.251,0.338-0.575,0.338-0.575l0.016-0.136l4.259,0.484
					c0.035,0.004,0.071-0.005,0.1-0.025l0.428-0.3L38.146,41.962z"/>
				<path class="st16" d="M35.011,33.001c0.013,0.379,0.003,1.066-0.173,1.709c-0.007,0.025-0.006,0.05,0,0.074
					c-0.225-0.024-0.449-0.044-0.674-0.062c0.252-0.528,0.307-1.091,0.319-1.289C34.677,33.295,34.87,33.13,35.011,33.001z"/>
				<path class="st16" d="M28.584,33.432c0.012,0.198,0.067,0.76,0.318,1.287c-0.225,0.018-0.449,0.039-0.673,0.062
					c0.006-0.023,0.007-0.048,0-0.073c-0.176-0.642-0.185-1.329-0.173-1.709C28.198,33.13,28.39,33.295,28.584,33.432z"/>
				<path class="st17" d="M36.15,40.458c-0.302-0.146-0.633,0.039-1.236,0.051c-0.449,0.016-0.825,0.021-0.85-0.684
					c-0.025-0.705,0.263-1.288,0.711-1.304c0.449-0.016,0.858,0.544,0.913,1.247c0.015,0.194-0.006,0.335-0.054,0.44
					C36.051,40.158,36.146,40.441,36.15,40.458z M34.74,39.425c0.126-0.003,0.227-0.107,0.225-0.234
					c-0.002-0.127-0.107-0.228-0.234-0.225c-0.127,0.002-0.227,0.107-0.225,0.234C34.509,39.327,34.613,39.428,34.74,39.425z"/>
				<ellipse class="st18" cx="34.736" cy="39.195" rx="0.229" ry="0.229"/>
				<path class="st17" d="M29.005,39.964c0.007,0.705-0.367,0.663-0.816,0.667c-0.045,0.001-0.089,0.002-0.131,0.002
					c-0.05,0.001-0.099,0.002-0.145,0.001c-0.436-0.001-0.714-0.02-0.961,0.113c0.006-0.015,0.114-0.257,0.505-0.355
					c-0.043-0.096-0.07-0.228-0.078-0.412c-0.027-0.705,0.408-1.282,0.857-1.286C28.685,38.689,28.999,39.259,29.005,39.964z
					 M28.312,39.596c0.126-0.003,0.226-0.109,0.223-0.235c-0.003-0.127-0.109-0.227-0.235-0.223
					c-0.127,0.003-0.227,0.109-0.224,0.235C28.08,39.499,28.185,39.599,28.312,39.596z"/>
				<ellipse class="st18" cx="28.306" cy="39.367" rx="0.229" ry="0.229"/>
				<g class="st19">
					<path class="st16" d="M25.578,35.177c0,0,0.07-0.909,0.212-1.257c0.073-0.179,0.522-0.294,0.865-0.375
						c0.343-0.082,0.889-0.245,0.996,0.237c0.106,0.481,0.277,0.832,0.392,0.987l-0.147-1.983l-2.358,0.571l-0.155,1.755
						l0.073,0.139L25.578,35.177"/>
					<path class="st16" d="M37.511,35.177c0,0-0.07-0.909-0.212-1.257c-0.073-0.179-0.522-0.294-0.865-0.375
						c-0.343-0.082-0.89-0.245-0.996,0.237c-0.106,0.481-0.277,0.832-0.392,0.987l0.147-1.983l2.358,0.571l0.155,1.755l-0.073,0.139
						L37.511,35.177"/>
				</g>
				<path class="st20" d="M34.178,29.242c0,0-0.063,4.755-1.173,4.755c-1.111,0-1.333,0-1.333,0H31.45c0,0-0.222,0-1.333,0
					c-1.111,0-1.2-4.753-1.2-4.753l-0.546,1.614l0.009,2.214l0.387,0.308l0.176,0.951l0.246,0.555l4.754,0.009l0.22-0.396
					l0.185-0.669l0.027-0.423l0.525-1.499L34.178,29.242z"/>
				<path class="st20" d="M37.676,33.676c0,0,0.229,1.64,0.834,1.936c0.605,0.296,0,0,0,0l-0.847-0.255L37.676,33.676z"/>
				<path class="st20" d="M25.391,33.676c0,0-0.229,1.64-0.834,1.936c-0.605,0.296,0,0,0,0l0.847-0.255L25.391,33.676z"/>
				<path class="st17" d="M37.839,35.349c0.288,0.094,0.578,0.194,0.84,0.348c-0.14-0.056-0.285-0.095-0.431-0.131
					c-0.145-0.037-0.292-0.068-0.439-0.097c-0.295-0.056-0.591-0.103-0.888-0.139c-0.297-0.039-0.594-0.071-0.893-0.097
					c-0.299-0.025-0.597-0.05-0.896-0.068c-1.196-0.074-2.396-0.092-3.597-0.093c-1.2,0.001-2.4,0.023-3.597,0.094
					c-0.299,0.017-0.597,0.043-0.896,0.068c-0.299,0.025-0.597,0.057-0.893,0.096c-0.298,0.036-0.594,0.083-0.888,0.139
					c-0.147,0.028-0.294,0.06-0.44,0.096c-0.145,0.036-0.291,0.076-0.431,0.131c0.262-0.153,0.552-0.254,0.841-0.348
					c0.024-0.008,0.049-0.015,0.073-0.022c-0.002-0.006-0.003-0.012-0.004-0.019c-0.005-0.033-0.112-0.821,0.074-1.949
					c0.009-0.054,0.048-0.098,0.101-0.112l0.305-0.087c0.066-2.365,1.04-3.477,1.071-3.512c-0.87,1.4-0.862,3.061-0.847,3.448
					l1.895-0.539c0.002-0.001,0.003-0.001,0.004-0.001c0.008-0.002,0.016-0.003,0.024-0.003c0.002,0,0.005-0.001,0.008-0.001
					c0.01-0.001,0.02,0.001,0.031,0.003c0.002,0,0.003,0.001,0.006,0.002c0.008,0.002,0.015,0.004,0.023,0.008
					c0.003,0.002,0.006,0.003,0.009,0.005c0.006,0.003,0.012,0.007,0.019,0.012c0.002,0.001,0.004,0.002,0.005,0.003
					c0.001,0.001,0.002,0.002,0.003,0.003c0.002,0.002,0.004,0.003,0.006,0.005c0.001,0.002,0.052,0.052,0.132,0.126
					c-0.019-0.624,0.011-2.415,0.864-3.9c-0.018,0.052-0.695,2.031-0.461,4.249c0.076,0.061,0.155,0.12,0.233,0.172
					c0.038,0.026,0.061,0.068,0.061,0.114c0.001,0.007,0.017,0.714,0.329,1.316c0.004,0.009,0.008,0.019,0.011,0.028
					c0.777-0.053,1.555-0.074,2.332-0.075c0.777,0.001,1.555,0.023,2.332,0.076c0.003-0.01,0.006-0.02,0.011-0.03
					c0.312-0.601,0.328-1.308,0.328-1.316c0.001-0.046,0.024-0.088,0.062-0.114c0.077-0.052,0.156-0.112,0.232-0.172
					c0.234-2.218-0.443-4.197-0.461-4.249c0.852,1.484,0.883,3.276,0.864,3.9c0.08-0.075,0.13-0.125,0.132-0.126
					c0.002-0.002,0.004-0.003,0.006-0.005c0.001-0.001,0.002-0.002,0.003-0.003c0.002-0.002,0.003-0.002,0.005-0.003
					c0.006-0.004,0.012-0.008,0.019-0.012c0.003-0.001,0.006-0.003,0.008-0.004c0.008-0.003,0.016-0.006,0.025-0.008
					c0.002,0,0.003-0.001,0.005-0.001c0.01-0.002,0.021-0.003,0.031-0.003c0.003,0,0.005,0.001,0.007,0.001
					c0.008,0.001,0.016,0.002,0.024,0.003c0.001,0.001,0.003,0.001,0.004,0.001l1.895,0.539c0.015-0.387,0.023-2.048-0.847-3.448
					c0.03,0.034,1.004,1.147,1.07,3.512l0.305,0.087c0.052,0.015,0.091,0.058,0.101,0.112c0.186,1.127,0.079,1.916,0.074,1.949
					c-0.001,0.007-0.003,0.013-0.004,0.019C37.79,35.334,37.814,35.341,37.839,35.349z M37.494,35.248
					c0.015-0.126,0.082-0.816-0.062-1.756l-2.145-0.61c0.019,0.363,0.028,1.151-0.178,1.902c-0.003,0.009-0.006,0.018-0.011,0.027
					c0.021,0.002,0.043,0.004,0.063,0.007c0.603,0.069,1.203,0.166,1.797,0.296C37.137,35.155,37.316,35.2,37.494,35.248z
					 M34.838,34.709c0.176-0.643,0.186-1.33,0.173-1.709c-0.141,0.129-0.334,0.294-0.528,0.431
					c-0.012,0.198-0.067,0.761-0.319,1.289c0.225,0.018,0.449,0.038,0.674,0.062C34.832,34.76,34.831,34.734,34.838,34.709z
					 M28.903,34.72c-0.252-0.528-0.307-1.089-0.318-1.287c-0.194-0.138-0.386-0.303-0.528-0.431
					c-0.012,0.38-0.003,1.067,0.173,1.709c0.007,0.025,0.006,0.049,0,0.073C28.454,34.758,28.678,34.738,28.903,34.72z
					 M27.969,34.81c-0.004-0.008-0.007-0.017-0.01-0.026c-0.206-0.751-0.197-1.539-0.179-1.902l-2.144,0.61
					c-0.144,0.939-0.077,1.629-0.062,1.756c0.178-0.048,0.357-0.093,0.536-0.134c0.296-0.066,0.595-0.121,0.894-0.171
					c0.3-0.05,0.601-0.088,0.902-0.125C27.927,34.815,27.948,34.813,27.969,34.81z"/>
				<g id="XMLID_2_">
					<g>
						<path class="st17" d="M33.794,29.304v1.78h-1.261v-0.52h-0.284v2.402h0.43v1.343h-2.207v-1.343h0.428v-2.402h-0.283v0.52
							h-1.261v-1.78H33.794z M33.415,30.706v-1.023h-0.55H31.87h-2.137v1.023h0.503v-0.52h1.042v3.159h-0.429v0.586h1.449v-0.586
							H31.87v-3.159h1.042v0.52H33.415z"/>
						<polygon class="st10" points="33.415,29.683 33.415,30.706 32.911,30.706 32.911,30.186 31.87,30.186 31.87,33.345
							32.298,33.345 32.298,33.931 30.849,33.931 30.849,33.345 31.278,33.345 31.278,30.186 30.236,30.186 30.236,30.706
							29.733,30.706 29.733,29.683 31.87,29.683 32.865,29.683 						"/>
					</g>
				</g>
				<path class="st13" d="M23.487,37.055c0.184-0.042,0.432-0.095,0.737-0.154c-0.187,0.128-0.409,0.288-0.65,0.481L23.487,37.055z"
					/>
				<path class="st15" d="M30.221,41.932c0,0,0.051,0.331-0.412,0.472c-0.463,0.142-3.395,1.016-3.73,0.968
					c-0.334-0.047-1.183-0.614-1.183-0.614l-0.206-0.732l1.256,0.783L30.221,41.932z"/>
				<path class="st15" d="M32.848,41.868c0,0-0.037,0.333,0.432,0.454c0.469,0.121,3.436,0.867,3.768,0.805
					c0.332-0.062,1.155-0.665,1.155-0.665l0.174-0.74l-1.155,0.689L32.848,41.868z"/>
				<path class="st15" d="M23.249,41.324c0,0,0.406,0.813,1.063,0.531l0.469,0.172l-0.047,0.344l-0.985,0.125l-0.266-0.156
					L23.249,41.324z"/>
				<path class="st15" d="M39.884,41.101c0,0-0.664,0.848-1.32,0.567l-0.211,0.136l0.047,0.344l0.985,0.125l0.266-0.156
					L39.884,41.101z"/>
				<path class="st15" d="M29.611,47.485c0,0,2.407,1.214,5.133-0.438l-0.875-0.06c0,0-1.91,0.756-3.422,0.338L29.611,47.485z"/>
				<path class="st17" d="M32.052,45.249l0.167,0.199c0.004,0.005,0.374,0.445,0.826,0.894c0.301,0.298,0.664,0.449,1.081,0.449
					c0.142,0,0.292-0.018,0.443-0.055c0.14-0.034,0.292-0.07,0.448-0.108c0.563-0.135,1.2-0.287,1.509-0.374
					c0.061-0.017,0.129-0.033,0.201-0.049c0.411-0.095,0.975-0.226,1.274-0.825c0.225-0.449,0.528-1.032,0.752-1.459
					c-0.195,0.09-0.399,0.187-0.544,0.263c-0.223,0.117-0.516,0.174-0.895,0.174c-0.225,0-0.446-0.019-0.69-0.041
					c-0.489-0.045-1.316-0.142-1.324-0.143l-0.063-0.007l-0.05-0.04c-0.007-0.005-0.732-0.583-1.318-1.043
					c-0.024-0.019-0.045-0.037-0.065-0.054c-0.062-0.053-0.062-0.053-0.098-0.053c-0.188,0-0.734,0.169-1.93,0.54l-0.073,0.023
					l-0.072-0.027c-0.008-0.003-0.793-0.294-1.733-0.294c-0.077,0-0.154,0.002-0.228,0.006c-0.094,0.005-0.623,0.256-1.299,1.325
					l-0.044,0.069l-0.077,0.025c-0.011,0.004-1.175,0.379-2.409,0.732L25.76,45.4l-0.076-0.035c-0.008-0.003-0.491-0.227-0.95-0.438
					c0.251,0.37,0.571,0.832,0.853,1.194c0.492,0.634,1.113,1.22,2.303,1.22c0.149,0,0.308-0.009,0.471-0.028
					c1.211-0.137,1.522-0.192,1.69-0.221c0.057-0.01,0.102-0.018,0.159-0.025c0.009-0.001,1-0.129,1.279-0.753
					c0.287-0.641,0.345-0.794,0.347-0.8l0.101-0.27c0,0,0.013-0.07,0.033-0.092c0,0.001,0,0.001,0.001,0.001l0.002,0.002
					C32.004,45.178,32.052,45.249,32.052,45.249z M24.512,33.145c-0.263,0.106-0.524,0.215-0.78,0.335
					c-0.256,0.117-0.508,0.243-0.748,0.383c-0.222,0.128-0.435,0.268-0.622,0.426c-0.008,0.048-0.016,0.1-0.022,0.149
					c-0.008,0.07-0.016,0.14-0.022,0.21c-0.012,0.141-0.017,0.283-0.019,0.424c-0.003,0.284,0.017,0.567,0.052,0.848
					c0.039,0.281,0.09,0.561,0.167,0.831c0.038,0.135,0.08,0.269,0.13,0.398c0.024,0.065,0.051,0.128,0.08,0.19
					c0.014,0.031,0.029,0.061,0.043,0.09l0.018,0.034c0.021,0.011,0.043,0.022,0.063,0.031l0.126,0.06
					c0.07,0.033,0.167,0.079,0.247,0.114c0.005-0.004,0.009-0.008,0.013-0.012l-0.233-0.89c0.049-0.013,0.493-0.128,1.258-0.274
					c-0.062-0.011-0.124-0.025-0.186-0.04c-0.174-0.043-0.346-0.096-0.512-0.163c-0.082-0.035-0.164-0.073-0.241-0.117
					c-0.077-0.044-0.154-0.095-0.213-0.162c0.84,0.274,2.575,0.15,4.118-0.009c1.411-0.146,2.825-0.24,4.247-0.243
					c1.422,0.003,2.837,0.097,4.247,0.243c1.544,0.159,3.28,0.284,4.119,0.009c-0.059,0.067-0.135,0.117-0.213,0.162
					c-0.077,0.044-0.159,0.082-0.241,0.117c-0.167,0.067-0.338,0.12-0.513,0.163c-0.026,0.006-0.051,0.012-0.077,0.017
					c0.838,0.155,1.326,0.282,1.378,0.296l-0.223,0.847c0.045-0.02,0.09-0.039,0.135-0.06l0.126-0.06
					c0.02-0.01,0.042-0.02,0.063-0.031l0.017-0.034c0.015-0.029,0.03-0.06,0.044-0.09c0.028-0.062,0.055-0.125,0.08-0.19
					c0.049-0.129,0.092-0.262,0.129-0.398c0.076-0.27,0.128-0.55,0.167-0.831c0.036-0.281,0.055-0.564,0.052-0.848
					c-0.001-0.142-0.006-0.284-0.018-0.424c-0.006-0.07-0.014-0.14-0.022-0.21c-0.006-0.049-0.014-0.101-0.022-0.149
					c-0.188-0.158-0.4-0.298-0.622-0.426c-0.24-0.14-0.492-0.266-0.748-0.383c-0.255-0.12-0.517-0.229-0.78-0.335
					c-0.132-0.053-0.264-0.105-0.397-0.154c-0.132-0.051-0.267-0.1-0.401-0.149c0.282,0.047,0.561,0.111,0.838,0.182
					c0.18,0.047,0.36,0.099,0.537,0.155c-1.266-3.309-4.293-5.464-7.598-5.464c-3.305,0-6.332,2.155-7.598,5.464
					c0.178-0.056,0.357-0.108,0.537-0.155c0.277-0.071,0.556-0.135,0.838-0.182c-0.135,0.049-0.268,0.097-0.402,0.149
					C24.777,33.04,24.644,33.091,24.512,33.145z M41.177,35.059c0.015,0.305,0.007,0.61-0.027,0.913
					c-0.032,0.303-0.089,0.602-0.169,0.899c-0.042,0.148-0.09,0.294-0.147,0.439c-0.029,0.072-0.059,0.145-0.093,0.216
					c-0.017,0.036-0.035,0.071-0.055,0.107l-0.03,0.054c-0.011,0.019-0.02,0.034-0.036,0.06l-0.031,0.048l-0.048,0.025
					c-0.051,0.027-0.094,0.047-0.14,0.068l-0.136,0.061c-0.091,0.039-0.182,0.076-0.274,0.111c-0.064,0.025-0.12,0.048-0.174,0.07
					l-0.151,0.574c-0.004-0.001-0.049-0.013-0.134-0.033l-0.008,0.06c0.167,0.087,0.494,0.264,0.606,0.356
					c0.225,0.186,0.24,0.479,0.191,1.029c-0.026,0.282-0.119,0.831-0.249,1.335c-0.224,0.867-0.343,0.969-0.497,1.009
					c-0.078,0.02-0.198,0.04-0.314,0.04c-0.237,0-0.56,0.007-0.777-0.046c-0.056,0.197-0.215,0.712-0.53,1.355
					c0.016-0.008,0.031-0.014,0.045-0.022c0.389-0.204,1.135-0.529,1.167-0.543l0.59-0.256l-0.302,0.568
					c-0.007,0.012-0.655,1.231-1.051,2.026c-0.394,0.788-1.133,0.959-1.575,1.061c-0.067,0.016-0.13,0.03-0.181,0.044
					c-0.317,0.089-0.96,0.242-1.526,0.379c-0.007,0.002-0.014,0.003-0.021,0.004c-0.349,0.215-0.729,0.408-1.145,0.566
					c-1.523,0.577-3.128,0.544-4.583,0.01c-0.236,0.03-0.547,0.068-0.961,0.115c-0.18,0.02-0.355,0.03-0.521,0.03
					c-1.386,0-2.121-0.704-2.658-1.393c-0.574-0.738-1.277-1.834-1.306-1.88l-0.407-0.635l0.688,0.31
					c0.329,0.148,1.309,0.602,1.589,0.732c0.023-0.006,0.045-0.013,0.067-0.019c-0.466-0.664-0.848-1.422-1.118-2.261
					c-0.229,0.069-0.583,0.123-0.858,0.123c-0.1,0-0.19-0.008-0.26-0.024c-0.154-0.035-0.329-0.183-0.568-1.024
					c-0.139-0.488-0.242-1.021-0.272-1.295c-0.06-0.535-0.049-0.822,0.174-1.007c0.134-0.112,0.587-0.35,0.68-0.398l-0.02-0.165
					c-1.437,0.845-2.299,1.591-2.316,1.606l-1.028,0.902l0.732-1.155c0.58-0.915,1.249-1.655,1.865-2.225
					c-0.026-0.01-0.049-0.02-0.074-0.031l-0.136-0.061c-0.047-0.022-0.089-0.042-0.14-0.068l-0.048-0.025l-0.031-0.048
					c-0.017-0.026-0.025-0.041-0.036-0.06l-0.03-0.054c-0.019-0.036-0.037-0.071-0.054-0.107c-0.034-0.072-0.065-0.144-0.093-0.216
					c-0.057-0.145-0.105-0.291-0.147-0.439c-0.081-0.297-0.137-0.597-0.169-0.899c-0.034-0.303-0.042-0.608-0.027-0.913
					c0.008-0.152,0.023-0.304,0.044-0.455c0.011-0.076,0.022-0.152,0.037-0.227c0.016-0.077,0.031-0.148,0.054-0.232l0.016-0.059
					l0.042-0.033c0.24-0.188,0.498-0.331,0.761-0.457c0.216-0.102,0.437-0.192,0.66-0.273c0.621-1.724,1.689-3.253,3.093-4.318
					c1.451-1.101,3.158-1.683,4.936-1.683s3.484,0.582,4.936,1.684c1.404,1.065,2.472,2.594,3.093,4.318
					c0.223,0.082,0.443,0.172,0.66,0.274c0.263,0.126,0.522,0.268,0.761,0.457l0.042,0.033l0.016,0.059
					c0.024,0.084,0.039,0.155,0.054,0.232c0.015,0.075,0.027,0.151,0.037,0.227C41.155,34.755,41.17,34.907,41.177,35.059z
					 M39.924,40.08c0.048-0.528,0.006-0.642-0.048-0.685c-0.054-0.045-0.235-0.148-0.411-0.243l-0.29,2.035
					c-0.005,0.04-0.028,0.075-0.061,0.098l-0.416,0.291c-0.033,0.167-0.045,0.245-0.085,0.408c0.238,0.055,0.627,0.098,0.813,0.062
					C39.594,41.862,39.866,40.727,39.924,40.08z M39.384,38.235l0.311-1.18c-0.451-0.102-1.283-0.273-2.415-0.434
					c-0.578,0.416-1.211,0.748-1.832,1.013C37.351,37.819,38.748,38.095,39.384,38.235z M38.895,41.082l0.354-2.475
					c-0.157-0.034-0.359-0.076-0.599-0.122l-0.32,2.239c-0.006,0.04-0.028,0.076-0.06,0.099l-1.199,0.839
					c-0.028,0.02-0.064,0.029-0.099,0.025l-3.614-0.411c-0.058-0.007-0.106-0.047-0.123-0.102l-0.651-2.143
					c-0.174-0.045-0.622-0.149-1.014-0.149c-0.393,0-0.841,0.104-1.015,0.149l-0.651,2.143c-0.011,0.037-0.037,0.068-0.071,0.086
					c-0.011,0.006-0.023,0.01-0.036,0.013l-3.614,0.804c-0.011,0.002-0.021,0.003-0.032,0.003c-0.029,0-0.058-0.009-0.083-0.026
					l-1.199-0.839c-0.034-0.023-0.056-0.06-0.061-0.101l-0.323-2.621c-0.134,0.026-0.255,0.051-0.364,0.073
					c-0.077,0.042-0.153,0.085-0.227,0.127l0.343,2.777l1.742,1.22l4.395-0.978l0.649-2.138c0.016-0.054,0.061-0.093,0.116-0.102
					c0.165-0.026,0.308-0.04,0.43-0.04c0.121,0,0.265,0.013,0.429,0.04c0.055,0.009,0.1,0.048,0.116,0.102l0.665,2.191l4.42,0.503
					L38.895,41.082z M38.051,40.621l0.313-2.19c-0.882-0.161-2.172-0.355-3.752-0.476c-1.427,0.492-2.621,0.638-2.693,0.643
					l-0.083,0.006c0.455,0.039,0.884,0.161,0.905,0.168c0.047,0.014,0.084,0.05,0.099,0.098l0.647,2.129l3.464,0.393L38.051,40.621z
					 M38.292,41.859l-0.147,0.103l-0.395,0.277l-0.428,0.3c-0.029,0.02-0.065,0.029-0.1,0.025l-4.259-0.484l-0.31-0.035
					c-0.057-0.007-0.106-0.047-0.122-0.102l-0.667-2.195c-0.111-0.015-0.211-0.023-0.294-0.023c-0.085,0-0.183,0.008-0.294,0.023
					l-0.647,2.132c-0.015,0.05-0.056,0.088-0.107,0.099l-4.54,1.011c-0.011,0.002-0.022,0.003-0.032,0.003
					c-0.029,0-0.058-0.009-0.083-0.026l-0.165-0.115l-0.494-0.346v-0.001l-0.2-0.14c0.014,0.045,0.03,0.089,0.046,0.133
					l-0.001,0.001c0.038,0.114,0.421,1.215,1.199,2.292c0.833-0.246,1.553-0.474,1.783-0.547c0.469-0.723,1.137-1.44,1.612-1.465
					c0.082-0.004,0.167-0.006,0.251-0.006c0.232,0,0.454,0.017,0.66,0.041c-0.175-0.159-0.21-0.345-0.236-0.427
					c0,0,0.606,0.474,1.377,0.375c0.771-0.1,1.25-0.544,1.25-0.544s-0.002,0.324-0.338,0.575c0.646-0.195,0.913-0.262,1.096-0.262
					c0.202,0,0.301,0.084,0.389,0.159c0.017,0.013,0.034,0.028,0.053,0.044c0.497,0.391,1.094,0.866,1.269,1.005
					c0.202,0.024,0.844,0.097,1.248,0.134c0.233,0.021,0.444,0.039,0.65,0.039c0.067,0,0.129-0.003,0.188-0.007
					c0.267-0.51,0.508-1.088,0.712-1.741C38.242,42.062,38.268,41.961,38.292,41.859z M36.721,36.466
					c-0.001-0.001-0.002-0.001-0.003-0.001c-0.342-0.025-0.684-0.049-1.027-0.068c-0.476-0.027-0.952-0.05-1.429-0.07
					c-0.028,0.041-0.084,0.122-0.165,0.233c-0.259,0.351-0.773,0.994-1.432,1.54c0.933-0.167,2.551-0.581,3.952-1.558
					C36.651,36.516,36.686,36.49,36.721,36.466z M33.598,36.563c0.039-0.049,0.076-0.097,0.109-0.14
					c-0.343,0.035-0.681,0.084-1.011,0.147c-1.13,0.212-2.174,0.563-3.043,0.924c0.615-0.03,1.263-0.048,1.938-0.048
					c0.409,0,0.806,0.007,1.192,0.018C33.115,37.145,33.396,36.818,33.598,36.563z M33.973,47.234
					c-0.471-0.035-0.899-0.23-1.244-0.573c-0.018-0.018-0.035-0.036-0.052-0.054c-0.167,0.034-0.336,0.058-0.51,0.074
					c-0.073,0.003-0.142,0.009-0.219,0.009l-0.113,0.001l-0.043-0.001c-0.46,0.684-1.48,0.817-1.527,0.823
					c-0.042,0.005-0.077,0.011-0.124,0.019c0.569,0.156,1.149,0.223,1.722,0.185C32.436,47.679,33.182,47.555,33.973,47.234z
					 M32.154,46.454c0.11-0.009,0.221-0.023,0.333-0.04c-0.145-0.15-0.272-0.29-0.373-0.403c-0.049,0.113-0.115,0.262-0.201,0.454
					h0.025C32.007,46.465,32.082,46.457,32.154,46.454z M31.803,38.235c0.191-0.115,0.374-0.247,0.549-0.388
					c-0.25-0.004-0.503-0.008-0.761-0.008c-1.06,0-2.049,0.043-2.947,0.111c-0.9,0.44-1.45,0.802-1.463,0.811l-0.864,0.576
					l0.594-0.852c0.098-0.141,0.202-0.276,0.309-0.403c-0.997,0.111-1.827,0.243-2.447,0.358l0.318,2.575l1.093,0.765l3.469-0.771
					l0.649-2.139c0.011-0.035,0.035-0.065,0.066-0.083c0.01-0.007,0.021-0.011,0.033-0.015c0.02-0.005,0.367-0.104,0.767-0.153
					L31.803,38.235z M32.202,36.271c-0.241-0.004-0.483-0.006-0.725-0.006h-0.001c-0.354,0.001-0.709,0.004-1.065,0.011
					l-0.655,0.311c-0.001,0.001-0.004,0.002-0.009,0.005c-0.098,0.048-0.959,0.482-1.769,1.257c0.726-0.382,1.792-0.88,3.047-1.266
					C31.402,36.466,31.796,36.36,32.202,36.271z M27.622,37.645c0.34-0.337,0.69-0.615,1-0.833
					c-1.193,0.277-2.292,0.684-3.254,1.127C25.995,37.837,26.753,37.732,27.622,37.645z M27.848,36.605
					c0.4-0.112,0.812-0.21,1.235-0.292c-0.606,0.022-1.213,0.05-1.818,0.084c-0.352,0.019-0.702,0.043-1.052,0.07
					c-0.175,0.013-0.35,0.027-0.523,0.047c-0.05,0.005-0.098,0.01-0.148,0.017c-0.457,0.273-2.208,1.373-3.411,2.811
					C23.299,38.528,25.334,37.308,27.848,36.605z M24.623,42.27c-0.023-0.072-0.044-0.146-0.065-0.22l-0.54-0.378
					c-0.034-0.024-0.056-0.06-0.061-0.101l-0.263-2.138c-0.195,0.104-0.42,0.233-0.48,0.283c-0.052,0.043-0.091,0.153-0.035,0.662
					c0.07,0.628,0.388,1.812,0.559,1.984C23.944,42.399,24.4,42.336,24.623,42.27z M24.224,36.901
					c-0.305,0.059-0.553,0.112-0.737,0.154l0.087,0.327C23.816,37.189,24.037,37.029,24.224,36.901z"/>
			</g>
		</g>
	</g>
	<g>
		<text transform="matrix(1 0 0 1 16.3926 139.5085)"><tspan x="0" y="0" class="st21 st22">I hope this helps, if you need any more help be sure to post  </tspan><tspan x="0" y="16" class="st21 st22">back here! </tspan></text>
	</g>
	<g>
		<text transform="matrix(1 0 0 1 55.6111 42.3746)" class="st7 st23 st24">MR. T</text>
	</g>
</g>
<g>
	<g>
		<g>
			<path class="st26" d="M160.466,157.751c-1.73,0-3.145,1.415-3.145,3.145v84.563c0,1.73,1.415,3.145,3.145,3.145h266.079
				c1.73,0,3.145-1.415,3.145-3.145v-84.563c0-1.73-1.415-3.145-3.145-3.145H160.466z"/>
		</g>
	</g>
	<circle class="st25" cx="182.447" cy="184.777" r="14.78"/>
	<g>
		<text transform="matrix(1 0 0 1 167.6672 225.7006)" class="st21 st22">That did the trick. Thanks a bunch!</text>
	</g>
	<g>
		<text transform="matrix(1 0 0 1 206.8857 189.1196)" class="st25 st23 st24">OLI</text>
	</g>
</g>
</svg>
