<?xml version="1.0" encoding="utf-8"?>
<!-- Generator: Adobe Illustrator 19.2.0, SVG Export Plug-In . SVG Version: 6.00 Build 0)  -->
<svg version="1.1" id="Layer_1" xmlns="http://www.w3.org/2000/svg" xmlns:xlink="http://www.w3.org/1999/xlink" x="0px" y="0px"
	 viewBox="0 0 140 46" style="enable-background:new 0 0 140 46;" xml:space="preserve">
<style type="text/css">
	.st0{fill:#EAEAEA;}
	.st1{fill:#F4F4F4;}
	.st2{fill:#939393;}
	.st3{fill:#E5CBA4;}
	.st4{fill:#BCBCBC;}
	.st5{fill:#464646;}
	.st6{fill:#EEF7FA;}
	.st7{fill:#696A6A;}
	.st8{fill:#C3C3C3;}
</style>
<g>
	<path class="st0" d="M45.12,16.326c-0.012-0.154-0.029-0.308-0.048-0.461c-0.013-0.108-0.031-0.222-0.049-0.327
		c-0.411-0.346-0.879-0.654-1.365-0.934c-0.527-0.308-1.079-0.584-1.642-0.84c-0.559-0.264-1.133-0.502-1.711-0.736
		c-0.288-0.117-0.579-0.23-0.871-0.339c-0.291-0.114-0.585-0.219-0.88-0.327c0.619,0.103,1.231,0.243,1.838,0.399
		c0.395,0.102,0.788,0.217,1.179,0.339C38.793,5.842,32.151,1.114,24.9,1.114c-7.252,0-13.893,4.728-16.67,11.988
		c0.391-0.122,0.784-0.236,1.178-0.339c0.608-0.156,1.221-0.297,1.839-0.399c-0.296,0.107-0.589,0.213-0.881,0.327
		c-0.291,0.108-0.582,0.222-0.871,0.339c-0.578,0.233-1.15,0.472-1.711,0.736c-0.562,0.256-1.114,0.532-1.641,0.84
		c-0.486,0.28-0.953,0.588-1.366,0.934c-0.017,0.105-0.035,0.218-0.048,0.327c-0.019,0.153-0.036,0.307-0.048,0.461
		c-0.027,0.309-0.038,0.62-0.041,0.931c-0.006,0.622,0.036,1.244,0.115,1.86c0.085,0.617,0.198,1.231,0.366,1.824
		c0.083,0.297,0.176,0.59,0.284,0.873c0.054,0.142,0.114,0.281,0.175,0.416c0.031,0.067,0.063,0.134,0.095,0.198l0.039,0.075
		c0.046,0.023,0.094,0.047,0.139,0.069l0.276,0.132c0.154,0.07,0.367,0.171,0.543,0.25c0.01-0.008,0.02-0.017,0.028-0.026
		l-0.513-1.952c0.109-0.03,1.082-0.281,2.759-0.6c-0.135-0.026-0.272-0.055-0.406-0.087c-0.382-0.095-0.759-0.211-1.124-0.359
		c-0.181-0.076-0.36-0.16-0.53-0.256c-0.17-0.098-0.338-0.208-0.467-0.355c1.843,0.601,5.651,0.329,9.036-0.021
		c3.096-0.319,6.199-0.526,9.318-0.532c3.12,0.006,6.224,0.213,9.318,0.532c3.387,0.35,7.195,0.622,9.037,0.021
		c-0.129,0.147-0.297,0.258-0.467,0.355c-0.17,0.096-0.348,0.179-0.529,0.256c-0.365,0.148-0.742,0.264-1.124,0.359
		c-0.057,0.014-0.114,0.026-0.17,0.038c1.839,0.341,2.91,0.619,3.025,0.649l-0.49,1.86c0.099-0.044,0.198-0.087,0.296-0.132
		l0.276-0.132c0.046-0.022,0.092-0.046,0.139-0.069l0.038-0.075c0.033-0.064,0.066-0.131,0.096-0.198
		c0.062-0.136,0.121-0.275,0.175-0.416c0.108-0.283,0.202-0.576,0.285-0.873c0.168-0.593,0.281-1.206,0.366-1.824
		c0.079-0.616,0.121-1.238,0.115-1.86C45.158,16.946,45.147,16.635,45.12,16.326z"/>
	<path class="st1" d="M26.991,42.145c-0.244,0.037-0.488,0.068-0.731,0.086c-0.156,0.008-0.322,0.023-0.472,0.023l-0.056,0.001
		c0.189-0.421,0.332-0.748,0.44-0.995C26.393,41.508,26.674,41.814,26.991,42.145z"/>
	<path class="st1" d="M27.522,42.685c0.758,0.75,1.697,1.18,2.73,1.257c-1.736,0.705-3.372,0.977-4.632,1.062
		c-1.256,0.084-2.53-0.064-3.778-0.406c0.105-0.019,0.181-0.032,0.274-0.043c0.103-0.012,2.341-0.304,3.35-1.804l0.095,0.002
		l0.248-0.002c0.168,0,0.32-0.014,0.48-0.02c0.381-0.033,0.753-0.087,1.119-0.161C27.444,42.608,27.482,42.646,27.522,42.685z"/>
	<path class="st2" d="M29.669,20.221c-0.073,0.095-0.154,0.199-0.24,0.308c-0.443,0.561-1.058,1.277-1.788,1.979
		c-0.848-0.026-1.719-0.041-2.615-0.041c-1.482,0-2.902,0.039-4.251,0.105c1.906-0.791,4.196-1.564,6.676-2.028
		C28.175,20.407,28.916,20.297,29.669,20.221z"/>
	<path class="st2" d="M18.513,21.075c-0.68,0.478-1.449,1.088-2.194,1.828c-1.908,0.191-3.573,0.422-4.946,0.644
		C13.484,22.577,15.894,21.683,18.513,21.075z"/>
	<path class="st2" d="M41.828,25.014l-0.776,5.431l-3.718,2.604l-9.697-1.102l-1.46-4.807c-0.035-0.117-0.133-0.203-0.254-0.223
		c-0.359-0.058-0.677-0.088-0.942-0.088c-0.266,0-0.583,0.03-0.944,0.088c-0.12,0.02-0.218,0.106-0.254,0.223l-1.424,4.69
		l-9.643,2.146l-3.821-2.677l-0.753-6.094c0.164-0.093,0.33-0.185,0.499-0.277c0.236-0.051,0.502-0.105,0.797-0.161l0.71,5.75
		c0.011,0.09,0.061,0.17,0.134,0.222l2.629,1.842c0.054,0.037,0.118,0.056,0.182,0.056c0.023,0,0.046-0.002,0.07-0.008l7.928-1.764
		c0.027-0.006,0.054-0.016,0.079-0.028c0.074-0.039,0.132-0.107,0.156-0.19l1.428-4.701c0.383-0.099,1.364-0.328,2.226-0.328
		c0.86,0,1.842,0.229,2.225,0.328l1.428,4.701c0.037,0.122,0.143,0.209,0.27,0.224l7.928,0.901c0.077,0.008,0.155-0.011,0.218-0.056
		l2.63-1.841c0.071-0.05,0.119-0.13,0.131-0.217l0.702-4.913C41.041,24.847,41.482,24.939,41.828,25.014z"/>
	<path class="st2" d="M42.808,21.608l-0.683,2.589c-1.396-0.308-4.462-0.912-8.636-1.318c1.364-0.581,2.752-1.311,4.021-2.222
		C39.993,21.008,41.817,21.384,42.808,21.608z"/>
	<g>
		<path class="st3" d="M14.848,29.709c0.541-0.292,1.152-0.249,2.108-0.247c0.103,0.003,0.208,0.001,0.319-0.001
			c0.094-0.001,0.189-0.003,0.289-0.005c0.985-0.01,1.805,0.084,1.79-1.463c-0.015-1.547-0.702-2.798-1.687-2.788
			c-0.985,0.008-1.939,1.276-1.88,2.822c0.016,0.403,0.075,0.693,0.17,0.903C15.098,29.145,14.861,29.676,14.848,29.709z
			 M26.695,23.345c-0.382,0.309-0.785,0.599-1.204,0.851l-1.398,0.844c-0.877,0.107-1.638,0.324-1.681,0.336
			c-0.026,0.007-0.05,0.018-0.073,0.032c-0.068,0.039-0.119,0.104-0.144,0.182l-1.424,4.692l-7.611,1.693l-2.397-1.679l-0.697-5.65
			c1.361-0.25,3.182-0.539,5.369-0.784c-0.234,0.281-0.462,0.575-0.678,0.884l-1.302,1.869l1.896-1.264
			c0.028-0.02,1.235-0.814,3.21-1.78c1.968-0.148,4.14-0.243,6.465-0.243C25.592,23.329,26.148,23.336,26.695,23.345z"/>
		<path class="st3" d="M35.029,29.075c-0.01-0.037-0.217-0.659-1.133-0.55c0.106-0.23,0.153-0.54,0.119-0.966
			c-0.121-1.544-1.019-2.771-2.003-2.736c-0.984,0.035-1.615,1.314-1.561,2.862c0.054,1.546,0.881,1.535,1.865,1.501
			C33.639,29.161,34.366,28.755,35.029,29.075z M39.887,24.629L39.2,29.433l-2.417,1.692l-7.601-0.864l-1.418-4.67
			c-0.032-0.103-0.113-0.183-0.217-0.214c-0.047-0.014-0.988-0.282-1.986-0.369l0.182-0.012c0.158-0.011,2.779-0.333,5.91-1.412
			C35.12,23.85,37.951,24.277,39.887,24.629z"/>
	</g>
	<g>
		<path class="st1" d="M14.848,29.709c0.541-0.292,1.152-0.249,2.108-0.247c0.103,0.003,0.208,0.001,0.319-0.001
			c0.094-0.001,0.189-0.003,0.289-0.005c0.985-0.01,1.805,0.084,1.79-1.463c-0.015-1.547-0.702-2.798-1.687-2.788
			c-0.985,0.008-1.939,1.276-1.88,2.822c0.016,0.403,0.075,0.693,0.17,0.903C15.098,29.145,14.861,29.676,14.848,29.709z
			 M26.695,23.345c-0.382,0.309-0.785,0.599-1.204,0.851l-1.398,0.844c-0.877,0.107-1.638,0.324-1.681,0.336
			c-0.026,0.007-0.05,0.018-0.073,0.032c-0.068,0.039-0.119,0.104-0.144,0.182l-1.424,4.692l-7.611,1.693l-2.397-1.679l-0.697-5.65
			c1.361-0.25,3.182-0.539,5.369-0.784c-0.234,0.281-0.462,0.575-0.678,0.884l-1.302,1.869l1.896-1.264
			c0.028-0.02,1.235-0.814,3.21-1.78c1.968-0.148,4.14-0.243,6.465-0.243C25.592,23.329,26.148,23.336,26.695,23.345z"/>
		<path class="st1" d="M35.029,29.075c-0.01-0.037-0.217-0.659-1.133-0.55c0.106-0.23,0.153-0.54,0.119-0.966
			c-0.121-1.544-1.019-2.771-2.003-2.736c-0.984,0.035-1.615,1.314-1.561,2.862c0.054,1.546,0.881,1.535,1.865,1.501
			C33.639,29.161,34.366,28.755,35.029,29.075z M39.887,24.629L39.2,29.433l-2.417,1.692l-7.601-0.864l-1.418-4.67
			c-0.032-0.103-0.113-0.183-0.217-0.214c-0.047-0.014-0.988-0.282-1.986-0.369l0.182-0.012c0.158-0.011,2.779-0.333,5.91-1.412
			C35.12,23.85,37.951,24.277,39.887,24.629z"/>
	</g>
	<path class="st1" d="M9.595,32.569c0.046,0.161,0.094,0.323,0.143,0.482c-0.491,0.144-1.49,0.282-1.941,0.203
		c-0.375-0.377-1.073-2.974-1.226-4.353c-0.125-1.117-0.037-1.359,0.076-1.453c0.132-0.111,0.626-0.392,1.053-0.621l0.578,4.69
		c0.011,0.09,0.059,0.17,0.134,0.222L9.595,32.569z"/>
	<path class="st1" d="M28.037,32.634l-0.035,0.299c0,0-1.051,0.974-2.742,1.192c-1.691,0.218-3.021-0.822-3.021-0.822
		c0.056,0.181,0.134,0.589,0.517,0.937c-0.451-0.054-0.937-0.09-1.448-0.09c-0.184,0-0.371,0.005-0.551,0.014
		c-1.041,0.054-2.505,1.628-3.535,3.214c-0.505,0.16-2.085,0.661-3.913,1.201c-1.706-2.364-2.545-4.78-2.63-5.03l0.001-0.001
		c-0.034-0.096-0.069-0.192-0.101-0.291l0.439,0.307v0.001l1.084,0.759l0.362,0.253c0.054,0.038,0.118,0.058,0.182,0.058
		c0.023,0,0.047-0.003,0.07-0.007l9.962-2.218c0.112-0.025,0.202-0.108,0.235-0.218l1.421-4.676c0.245-0.033,0.461-0.05,0.645-0.05
		c0.184,0,0.4,0.017,0.646,0.05l1.462,4.816c0.037,0.122,0.143,0.211,0.269,0.224L28.037,32.634z"/>
	<path class="st1" d="M39.407,32.376l0.322-0.226c-0.053,0.223-0.111,0.445-0.171,0.664c-0.447,1.433-0.975,2.7-1.561,3.82
		c-0.13,0.009-0.266,0.014-0.413,0.014c-0.452,0-0.914-0.038-1.425-0.085c-0.887-0.081-2.295-0.243-2.74-0.294
		c-0.383-0.305-1.694-1.347-2.784-2.205c-0.043-0.035-0.08-0.067-0.116-0.096c-0.192-0.162-0.41-0.347-0.852-0.347
		c-0.402,0-0.988,0.146-2.406,0.575c0.737-0.551,0.741-1.261,0.741-1.261l0.035-0.299l9.345,1.062
		c0.076,0.009,0.155-0.011,0.219-0.055l0.939-0.658L39.407,32.376z"/>
	<path class="st4" d="M32.53,12.714c0.028,0.831,0.008,2.338-0.38,3.749c-0.016,0.054-0.013,0.11,0,0.161
		c-0.493-0.052-0.985-0.096-1.478-0.136c0.553-1.159,0.674-2.393,0.7-2.828C31.796,13.358,32.219,12.996,32.53,12.714z"/>
	<path class="st4" d="M18.429,13.66c0.026,0.435,0.146,1.667,0.699,2.825c-0.493,0.039-0.985,0.085-1.477,0.137
		c0.013-0.051,0.015-0.105,0-0.159c-0.387-1.408-0.406-2.916-0.379-3.749C17.582,12.996,18.003,13.358,18.429,13.66z"/>
	<path class="st5" d="M35.029,29.075c-0.663-0.32-1.39,0.086-2.713,0.111c-0.984,0.035-1.811,0.045-1.865-1.501
		c-0.054-1.547,0.576-2.827,1.561-2.862c0.984-0.034,1.882,1.193,2.003,2.736c0.033,0.425-0.014,0.736-0.119,0.966
		C34.812,28.416,35.019,29.038,35.029,29.075z M31.936,26.81c0.277-0.006,0.499-0.235,0.494-0.513
		c-0.005-0.278-0.234-0.5-0.513-0.494c-0.278,0.005-0.499,0.234-0.494,0.512C31.428,26.593,31.657,26.815,31.936,26.81z"/>
	
		<ellipse transform="matrix(0.9998 -0.0183 0.0183 0.9998 -0.476 0.5887)" class="st6" cx="31.925" cy="26.303" rx="0.503" ry="0.503"/>
	<path class="st5" d="M19.353,27.992c0.014,1.547-0.805,1.454-1.79,1.463c-0.1,0.003-0.194,0.004-0.289,0.005
		c-0.111,0.003-0.217,0.004-0.319,0.001c-0.956-0.001-1.567-0.044-2.108,0.247c0.013-0.033,0.25-0.564,1.109-0.78
		c-0.095-0.21-0.154-0.5-0.17-0.903c-0.059-1.546,0.894-2.814,1.88-2.822C18.651,25.194,19.338,26.445,19.353,27.992z
		 M17.832,27.183c0.277-0.007,0.497-0.239,0.489-0.516c-0.008-0.278-0.239-0.498-0.516-0.49c-0.279,0.007-0.498,0.239-0.491,0.516
		C17.321,26.971,17.553,27.19,17.832,27.183z"/>
	
		<ellipse transform="matrix(0.9997 -0.0257 0.0257 0.9997 -0.6798 0.4667)" class="st6" cx="17.819" cy="26.681" rx="0.503" ry="0.503"/>
	<g>
		<path class="st4" d="M11.832,17.488c0,0,0.153-1.993,0.466-2.757c0.161-0.394,1.146-0.644,1.898-0.824
			c0.752-0.179,1.951-0.537,2.184,0.519c0.233,1.056,0.608,1.826,0.859,2.166l-0.322-4.351l-5.175,1.253l-0.34,3.85l0.161,0.304
			L11.832,17.488"/>
		<path class="st4" d="M38.015,17.488c0,0-0.153-1.993-0.465-2.757c-0.161-0.394-1.146-0.644-1.898-0.824
			c-0.752-0.179-1.952-0.537-2.185,0.519c-0.232,1.056-0.609,1.826-0.86,2.166l0.323-4.351l5.175,1.253l0.34,3.85l-0.161,0.304
			L38.015,17.488"/>
	</g>
	<path class="st4" d="M30.701,4.467c0,0-0.137,10.433-2.574,10.433s-2.924,0-2.924,0h-0.487c0,0-0.488,0-2.925,0
		S19.157,4.471,19.157,4.471L17.96,8.012l0.019,4.858l0.85,0.676l0.386,2.086l0.541,1.217l10.431,0.019l0.483-0.869l0.406-1.468
		l0.058-0.927l1.152-3.289L30.701,4.467z"/>
	<path class="st4" d="M38.376,14.195c0,0,0.502,3.599,1.829,4.248c1.327,0.649,0,0,0,0l-1.858-0.561L38.376,14.195z"/>
	<path class="st4" d="M11.423,14.195c0,0-0.502,3.599-1.829,4.248c-1.327,0.649,0,0,0,0l1.859-0.561L11.423,14.195z"/>
	<path class="st5" d="M38.733,17.866c0.632,0.207,1.267,0.426,1.843,0.763c-0.308-0.122-0.626-0.209-0.946-0.288
		c-0.319-0.081-0.641-0.15-0.963-0.212c-0.647-0.122-1.296-0.225-1.949-0.304c-0.652-0.085-1.304-0.156-1.96-0.212
		c-0.655-0.055-1.309-0.111-1.966-0.149c-2.625-0.161-5.258-0.202-7.892-0.205c-2.634,0.001-5.266,0.051-7.892,0.206
		c-0.656,0.038-1.311,0.094-1.966,0.149c-0.655,0.055-1.31,0.126-1.96,0.212c-0.653,0.079-1.302,0.183-1.949,0.304
		c-0.323,0.061-0.644,0.131-0.965,0.211c-0.319,0.079-0.638,0.166-0.946,0.288c0.575-0.336,1.211-0.557,1.844-0.764
		c0.053-0.017,0.107-0.032,0.161-0.049c-0.003-0.014-0.007-0.026-0.01-0.041c-0.011-0.073-0.245-1.802,0.163-4.276
		c0.02-0.118,0.105-0.214,0.221-0.247l0.669-0.191c0.145-5.189,2.282-7.629,2.349-7.705c-1.91,3.073-1.892,6.717-1.859,7.565
		l4.158-1.182c0.004-0.001,0.006-0.001,0.01-0.002c0.017-0.004,0.035-0.006,0.052-0.007c0.005,0,0.011-0.001,0.017-0.001
		c0.021-0.001,0.045,0.001,0.068,0.006c0.003,0,0.007,0.003,0.012,0.004c0.017,0.004,0.033,0.01,0.051,0.017
		c0.008,0.004,0.012,0.008,0.02,0.011c0.013,0.008,0.027,0.016,0.041,0.026c0.004,0.003,0.008,0.004,0.011,0.008
		c0.003,0.003,0.005,0.005,0.007,0.007c0.004,0.004,0.008,0.006,0.012,0.01c0.003,0.004,0.113,0.113,0.289,0.277
		c-0.042-1.37,0.023-5.3,1.895-8.557c-0.039,0.114-1.524,4.456-1.013,9.322c0.166,0.133,0.341,0.264,0.511,0.378
		c0.082,0.057,0.133,0.15,0.134,0.25c0.001,0.016,0.037,1.567,0.722,2.887c0.01,0.02,0.017,0.041,0.023,0.061
		c1.704-0.116,3.412-0.163,5.117-0.164c1.705,0.001,3.413,0.05,5.116,0.168c0.006-0.022,0.014-0.044,0.025-0.065
		c0.685-1.319,0.721-2.87,0.721-2.887c0.002-0.1,0.053-0.193,0.136-0.25c0.17-0.115,0.342-0.245,0.51-0.378
		c0.512-4.866-0.972-9.208-1.012-9.322c1.87,3.257,1.937,7.187,1.895,8.557c0.175-0.164,0.286-0.273,0.289-0.277
		c0.004-0.004,0.009-0.006,0.012-0.01c0.003-0.002,0.004-0.005,0.008-0.007c0.004-0.004,0.008-0.005,0.011-0.008
		c0.014-0.01,0.027-0.018,0.041-0.027c0.006-0.002,0.012-0.006,0.019-0.01c0.019-0.008,0.036-0.014,0.054-0.018
		c0.004,0,0.008-0.003,0.011-0.003c0.022-0.005,0.046-0.007,0.068-0.006c0.006,0,0.011,0.001,0.016,0.001
		c0.017,0.001,0.036,0.004,0.053,0.007c0.003,0.001,0.006,0.001,0.01,0.002l4.158,1.182c0.033-0.849,0.051-4.493-1.859-7.565
		c0.066,0.075,2.204,2.516,2.348,7.705l0.67,0.191c0.114,0.032,0.201,0.128,0.221,0.247c0.408,2.474,0.172,4.203,0.162,4.276
		c-0.002,0.015-0.006,0.028-0.01,0.042C38.626,17.832,38.679,17.848,38.733,17.866z M37.977,17.644
		c0.032-0.277,0.181-1.791-0.136-3.853l-4.706-1.338c0.042,0.797,0.061,2.526-0.391,4.174c-0.006,0.02-0.013,0.039-0.023,0.059
		c0.047,0.005,0.094,0.008,0.139,0.015c1.323,0.152,2.64,0.363,3.942,0.649C37.195,17.441,37.588,17.538,37.977,17.644z
		 M32.15,16.462c0.387-1.41,0.408-2.917,0.38-3.749c-0.31,0.282-0.733,0.644-1.158,0.946c-0.026,0.435-0.147,1.669-0.7,2.828
		c0.493,0.04,0.986,0.084,1.478,0.136C32.137,16.572,32.134,16.517,32.15,16.462z M19.128,16.485
		c-0.552-1.158-0.673-2.39-0.699-2.825c-0.426-0.302-0.848-0.664-1.158-0.946c-0.027,0.833-0.007,2.341,0.379,3.749
		c0.015,0.054,0.013,0.108,0,0.159C18.142,16.57,18.635,16.524,19.128,16.485z M17.079,16.683c-0.009-0.017-0.016-0.037-0.022-0.057
		c-0.453-1.648-0.433-3.377-0.393-4.174l-4.705,1.338c-0.316,2.06-0.169,3.574-0.137,3.852c0.391-0.106,0.782-0.203,1.177-0.294
		c0.65-0.144,1.306-0.265,1.962-0.376c0.658-0.11,1.318-0.193,1.978-0.273C16.986,16.693,17.032,16.689,17.079,16.683z"/>
	<g id="XMLID_3_">
		<g>
			<polygon class="st5" points="29.86,4.603 29.86,8.507 27.092,8.507 27.092,7.367 26.468,7.367 26.468,12.637 27.41,12.637 
				27.41,15.584 22.569,15.584 22.569,12.637 23.507,12.637 23.507,7.367 22.886,7.367 22.886,8.507 20.12,8.507 20.12,4.603 			"/>
		</g>
	</g>
	<g>
		<path class="st7" d="M11.049,20.107c0,0-7.137,5.023-7.416,6.937l0.536-0.11c0,0,8.546-5.665,15.321-6.355l0.153-0.86
			L11.049,20.107z"/>
		<path class="st7" d="M22.252,19.389l-5.622,3.987l0.304,0.244c0.229-0.185,9.985-3.165,9.985-3.165l2.057-1.29
			C27.597,19.338,22.252,19.389,22.252,19.389z"/>
		<path class="st7" d="M27.138,24.212c3.992,0,9.975-3.909,9.975-3.909l-1.934-0.368c-0.096,0.096-3.119-0.106-3.119-0.106
			l-1.435-0.399l-3.429,3.907l-0.279,0.678C27.163,23.914,27.138,24.212,27.138,24.212z"/>
	</g>
	<path class="st7" d="M40.164,36.679l-1.233,0.347l-5.698-0.123l-3.564-2.772l-4.308,1.078l-4.983-0.431l-2.79,3.049l-5.236,1.564
		l-2.614-0.811c-0.083-0.072-0.132-0.113-0.132-0.113l1.173,2.873c0,0,2.658,2.849,4.142,3.184c1.484,0.335,4.166-0.024,6.177-0.336
		c2.011-0.311,3.615-1.03,4.262-2.202c0.646-1.174,0.742-1.509,0.742-1.509s1.916,2.706,3.568,3.017
		c1.652,0.311,6.56-1.365,6.56-1.365s2.993-0.814,3.52-1.843c0.527-1.03,1.916-4.406,1.916-4.406L40.164,36.679z M10.287,39.02
		c-0.028-0.013-0.055-0.025-0.083-0.038c-0.196-0.169-0.357-0.308-0.462-0.398L10.287,39.02z M25.76,39.554l-0.036-0.033l0,0
		c0.043-0.048,0.088-0.097,0.133-0.145c0,0.001,0,0.001,0.001,0.001l0.004,0.004c0.07,0.05,0.14,0.103,0.211,0.156l-0.037,0.05l0,0
		l0.023,0.027c-0.136-0.103-0.218-0.165-0.218-0.165S25.812,39.487,25.76,39.554z"/>
	<path class="st2" d="M7.246,21.608c0.403-0.092,0.949-0.208,1.617-0.337c-0.411,0.28-0.897,0.632-1.427,1.054L7.246,21.608z"/>
	<path class="st8" d="M22.019,32.31c0,0,0.113,0.726-0.903,1.036c-1.016,0.311-7.45,2.228-8.184,2.124
		c-0.734-0.103-2.596-1.347-2.596-1.347l-0.452-1.606l2.756,1.718L22.019,32.31z"/>
	<path class="st8" d="M27.783,32.169c0,0-0.081,0.73,0.947,0.997c1.028,0.266,7.54,1.902,8.268,1.767
		c0.728-0.136,2.535-1.459,2.535-1.459l0.381-1.625l-2.533,1.511L27.783,32.169z"/>
	<path class="st8" d="M6.722,30.974c0,0,0.891,1.783,2.332,1.166l1.029,0.377L9.98,33.272l-2.16,0.274l-0.583-0.343L6.722,30.974z"
		/>
	<path class="st1" d="M40.235,31.837c-0.05,0.175-0.101,0.753-0.155,0.925c0.531,0.156,1.831,0.121,2.32,0.035
		c0.405-0.408,1.161-3.218,1.327-4.711c0.135-1.209-0.178-1.689-0.301-1.791c-0.143-0.12-0.677-0.424-1.14-0.672l-0.745,4.956
		c-0.012,0.097-0.064,0.184-0.145,0.24L40.235,31.837z"/>
	<path class="st8" d="M43.344,30.111c0,0-0.965,1.93-2.523,1.262l-1.113,0.408l0.111,0.817l2.338,0.297l0.631-0.371L43.344,30.111z"
		/>
	<path class="st8" d="M20.682,44.494c0,0,5.282,2.663,11.262-0.961l-1.921-0.131c0,0-4.191,1.659-7.508,0.742L20.682,44.494z"/>
	<polygon class="st7" points="29.027,7.678 29.027,5.432 27.822,5.432 25.637,5.432 20.949,5.432 20.949,7.678 22.053,7.678 
		22.053,6.537 24.338,6.537 24.338,13.469 23.398,13.469 23.398,14.755 26.578,14.755 26.578,13.469 25.637,13.469 25.637,6.537 
		27.923,6.537 27.923,7.678 	"/>
	<g>
		<path class="st5" d="M26.037,39.587l0.366,0.436c0.008,0.011,0.82,0.977,1.813,1.961c0.66,0.654,1.458,0.986,2.372,0.986
			c0.312,0,0.64-0.04,0.971-0.12c0.307-0.075,0.641-0.154,0.983-0.236c1.235-0.295,2.633-0.63,3.311-0.82
			c0.134-0.038,0.284-0.072,0.441-0.108c0.902-0.208,2.14-0.496,2.795-1.809c0.493-0.985,1.158-2.265,1.651-3.202
			c-0.427,0.197-0.875,0.411-1.193,0.578c-0.49,0.258-1.133,0.382-1.963,0.382c-0.494,0-0.978-0.042-1.515-0.089
			c-1.072-0.099-2.887-0.312-2.905-0.315l-0.139-0.015l-0.11-0.088c-0.016-0.012-1.606-1.279-2.891-2.289
			c-0.052-0.043-0.1-0.082-0.142-0.118c-0.135-0.115-0.135-0.115-0.216-0.115c-0.412,0-1.61,0.372-4.234,1.185l-0.161,0.051
			l-0.158-0.06c-0.018-0.006-1.74-0.644-3.803-0.644c-0.169,0-0.337,0.004-0.501,0.013c-0.207,0.011-1.366,0.561-2.85,2.908
			l-0.096,0.151l-0.17,0.055c-0.025,0.008-2.577,0.833-5.285,1.607l-0.176,0.05l-0.166-0.077c-0.018-0.007-1.077-0.499-2.085-0.962
			c0.55,0.812,1.253,1.825,1.871,2.62c1.08,1.391,2.442,2.677,5.053,2.677c0.328,0,0.675-0.02,1.033-0.061
			c2.656-0.3,3.34-0.421,3.708-0.486c0.125-0.021,0.223-0.039,0.349-0.055c0.02-0.003,2.195-0.284,2.805-1.653
			c0.629-1.407,0.756-1.742,0.761-1.755l0.222-0.592l-0.06-0.056c0.044-0.047,0.088-0.097,0.133-0.145c0,0.001,0,0.001,0.001,0.001
			l0.004,0.004c0.07,0.05,0.14,0.103,0.21,0.157L26.037,39.587z M9.495,13.029c-0.577,0.233-1.15,0.472-1.711,0.736
			c-0.562,0.257-1.114,0.532-1.641,0.839c-0.486,0.28-0.953,0.588-1.366,0.935c-0.018,0.104-0.034,0.218-0.048,0.326
			c-0.018,0.153-0.036,0.306-0.048,0.461c-0.027,0.309-0.038,0.62-0.041,0.931c-0.006,0.622,0.037,1.244,0.115,1.86
			c0.085,0.617,0.198,1.231,0.366,1.824c0.083,0.297,0.176,0.59,0.285,0.872c0.053,0.143,0.113,0.282,0.175,0.417
			c0.031,0.067,0.063,0.134,0.095,0.198l0.039,0.075c0.046,0.024,0.094,0.047,0.139,0.069l0.277,0.132
			c0.154,0.071,0.367,0.172,0.543,0.251c0.011-0.008,0.02-0.018,0.028-0.026l-0.512-1.952c0.108-0.03,1.082-0.281,2.759-0.601
			c-0.135-0.025-0.273-0.055-0.407-0.087c-0.381-0.095-0.759-0.211-1.123-0.358c-0.18-0.077-0.36-0.16-0.53-0.257
			c-0.17-0.097-0.337-0.208-0.467-0.355c1.843,0.602,5.65,0.329,9.036-0.02c3.096-0.319,6.199-0.526,9.318-0.533
			c3.119,0.007,6.224,0.214,9.318,0.533c3.387,0.349,7.195,0.622,9.038,0.02c-0.129,0.147-0.297,0.257-0.466,0.355
			c-0.169,0.096-0.349,0.179-0.53,0.257c-0.366,0.147-0.742,0.264-1.124,0.358c-0.056,0.013-0.113,0.026-0.17,0.038
			c1.839,0.341,2.91,0.619,3.024,0.65l-0.49,1.859c0.099-0.044,0.198-0.086,0.295-0.132l0.277-0.132
			c0.045-0.022,0.093-0.045,0.139-0.069l0.038-0.075c0.033-0.064,0.065-0.131,0.096-0.198c0.062-0.136,0.121-0.274,0.176-0.417
			c0.108-0.282,0.202-0.576,0.283-0.872c0.168-0.592,0.282-1.206,0.366-1.824c0.079-0.616,0.121-1.238,0.115-1.86
			c-0.002-0.311-0.014-0.622-0.04-0.931c-0.013-0.154-0.03-0.308-0.049-0.461c-0.013-0.108-0.031-0.222-0.049-0.326
			c-0.412-0.347-0.879-0.654-1.366-0.935c-0.527-0.307-1.079-0.583-1.642-0.839c-0.559-0.264-1.134-0.503-1.711-0.736
			c-0.289-0.117-0.58-0.23-0.872-0.339c-0.291-0.113-0.585-0.219-0.88-0.326c0.618,0.102,1.231,0.243,1.838,0.399
			c0.395,0.102,0.79,0.217,1.179,0.34C38.792,5.842,32.151,1.114,24.9,1.114c-7.252,0-13.893,4.728-16.67,11.988
			c0.39-0.122,0.783-0.237,1.178-0.34c0.608-0.155,1.221-0.297,1.839-0.399c-0.296,0.107-0.589,0.214-0.881,0.326
			C10.075,12.798,9.784,12.912,9.495,13.029z M46.059,17.23c0.033,0.668,0.016,1.338-0.059,2.003
			c-0.07,0.664-0.196,1.321-0.371,1.974c-0.092,0.324-0.197,0.645-0.322,0.963c-0.063,0.159-0.131,0.317-0.204,0.475
			c-0.037,0.078-0.076,0.155-0.12,0.235l-0.065,0.117c-0.024,0.043-0.043,0.075-0.08,0.132l-0.067,0.105l-0.106,0.054
			c-0.113,0.058-0.205,0.102-0.308,0.15l-0.298,0.134c-0.2,0.085-0.4,0.166-0.601,0.244c-0.14,0.055-0.264,0.105-0.381,0.155
			l-0.331,1.258c-0.008-0.002-0.108-0.028-0.294-0.072l-0.018,0.132c0.366,0.191,1.084,0.578,1.329,0.78
			c0.493,0.407,0.527,1.052,0.418,2.257c-0.056,0.619-0.261,1.822-0.546,2.928c-0.492,1.903-0.753,2.127-1.09,2.213
			c-0.171,0.044-0.434,0.088-0.69,0.088c-0.52,0-1.228,0.014-1.704-0.101c-0.122,0.433-0.471,1.562-1.162,2.973
			c0.035-0.017,0.069-0.031,0.1-0.047c0.852-0.448,2.491-1.161,2.56-1.192l1.294-0.562l-0.663,1.246
			c-0.015,0.027-1.437,2.7-2.307,4.445c-0.864,1.729-2.485,2.105-3.455,2.328c-0.146,0.035-0.285,0.067-0.397,0.097
			c-0.696,0.196-2.105,0.532-3.348,0.831c-0.015,0.004-0.03,0.008-0.045,0.01c-0.765,0.473-1.599,0.894-2.512,1.241
			c-3.341,1.266-6.863,1.194-10.055,0.021c-0.519,0.067-1.2,0.148-2.108,0.252c-0.394,0.044-0.778,0.067-1.143,0.067
			c-3.042,0-4.654-1.545-5.831-3.057c-1.26-1.62-2.801-4.024-2.866-4.125l-0.894-1.394l1.51,0.679
			c0.723,0.325,2.872,1.32,3.487,1.605c0.05-0.014,0.099-0.028,0.147-0.043c-1.022-1.458-1.86-3.12-2.453-4.962
			c-0.503,0.152-1.279,0.269-1.882,0.269c-0.22,0-0.418-0.017-0.57-0.052c-0.337-0.077-0.722-0.402-1.246-2.246
			c-0.304-1.071-0.531-2.239-0.597-2.841c-0.131-1.174-0.107-1.804,0.381-2.21c0.294-0.246,1.287-0.767,1.492-0.874L7.543,25.55
			C4.39,27.404,2.5,29.041,2.461,29.075l-2.255,1.979l1.607-2.534c1.271-2.008,2.74-3.631,4.092-4.881
			c-0.056-0.022-0.108-0.045-0.163-0.067l-0.298-0.134c-0.102-0.048-0.195-0.092-0.307-0.15l-0.106-0.054l-0.068-0.105
			c-0.038-0.057-0.055-0.089-0.08-0.132l-0.067-0.117c-0.042-0.08-0.082-0.157-0.119-0.235c-0.075-0.158-0.142-0.316-0.204-0.475
			c-0.125-0.318-0.23-0.638-0.322-0.963c-0.177-0.652-0.302-1.31-0.372-1.974c-0.074-0.665-0.093-1.335-0.059-2.003
			c0.018-0.334,0.05-0.667,0.096-0.999c0.024-0.166,0.049-0.333,0.082-0.498c0.034-0.168,0.068-0.325,0.119-0.509l0.036-0.129
			l0.093-0.073c0.526-0.413,1.094-0.725,1.671-1.002c0.475-0.223,0.959-0.42,1.447-0.6c1.363-3.783,3.707-7.137,6.787-9.475
			C17.255,1.529,21,0.252,24.9,0.252s7.645,1.277,10.829,3.694c3.08,2.338,5.424,5.692,6.786,9.474
			c0.489,0.18,0.972,0.376,1.449,0.601c0.577,0.277,1.144,0.589,1.67,1.002l0.093,0.073l0.036,0.129
			c0.052,0.184,0.085,0.341,0.119,0.509c0.033,0.165,0.06,0.331,0.082,0.498C46.01,16.562,46.043,16.896,46.059,17.23z
			 M43.308,28.245c0.105-1.159,0.013-1.408-0.104-1.503c-0.118-0.099-0.515-0.324-0.902-0.534l-0.637,4.464
			c-0.012,0.087-0.061,0.165-0.133,0.216l-0.912,0.638c-0.072,0.365-0.098,0.538-0.187,0.895c0.521,0.121,1.376,0.215,1.783,0.136
			C42.584,32.157,43.181,29.665,43.308,28.245z M42.125,24.198l0.683-2.589c-0.99-0.224-2.814-0.6-5.298-0.951
			c-1.268,0.912-2.656,1.641-4.02,2.223C37.663,23.286,40.729,23.89,42.125,24.198z M41.051,30.444l0.776-5.43
			c-0.345-0.075-0.787-0.167-1.314-0.268l-0.702,4.913c-0.013,0.087-0.061,0.166-0.132,0.216l-2.631,1.84
			c-0.062,0.044-0.141,0.064-0.217,0.056l-7.929-0.901c-0.127-0.014-0.233-0.102-0.27-0.223l-1.428-4.702
			c-0.383-0.099-1.364-0.328-2.224-0.328c-0.863,0-1.844,0.229-2.226,0.328l-1.428,4.702c-0.025,0.082-0.082,0.15-0.156,0.189
			c-0.024,0.013-0.051,0.022-0.079,0.029l-7.929,1.764c-0.025,0.005-0.046,0.008-0.07,0.008c-0.064,0-0.128-0.019-0.182-0.057
			l-2.63-1.841c-0.074-0.051-0.122-0.132-0.134-0.222l-0.709-5.75c-0.294,0.057-0.56,0.112-0.798,0.161
			c-0.168,0.093-0.335,0.186-0.499,0.278l0.752,6.093l3.822,2.678l9.643-2.145l1.424-4.69c0.036-0.118,0.134-0.205,0.254-0.224
			c0.361-0.058,0.677-0.088,0.944-0.088c0.264,0,0.582,0.03,0.941,0.088c0.121,0.019,0.219,0.106,0.254,0.224l1.46,4.806
			l9.697,1.103L41.051,30.444z M39.2,29.433l0.686-4.804c-1.935-0.352-4.766-0.778-8.233-1.044c-3.13,1.08-5.751,1.401-5.909,1.412
			l-0.183,0.013c0.998,0.086,1.939,0.354,1.986,0.368c0.104,0.031,0.184,0.11,0.217,0.214l1.419,4.671l7.6,0.863L39.2,29.433z
			 M39.729,32.149l-0.322,0.225l-0.867,0.608l-0.939,0.658c-0.064,0.044-0.142,0.064-0.219,0.056l-9.345-1.063l-0.68-0.077
			c-0.126-0.014-0.232-0.102-0.269-0.224l-1.463-4.816c-0.244-0.033-0.462-0.05-0.644-0.05c-0.186,0-0.402,0.017-0.646,0.05
			l-1.42,4.677c-0.033,0.109-0.123,0.192-0.235,0.217l-9.962,2.218c-0.024,0.005-0.047,0.007-0.07,0.007
			c-0.064,0-0.128-0.019-0.183-0.058l-0.362-0.252l-1.084-0.758v-0.003l-0.438-0.306c0.031,0.099,0.066,0.195,0.101,0.291
			l-0.001,0.001c0.084,0.25,0.924,2.665,2.63,5.029c1.827-0.539,3.408-1.04,3.912-1.2c1.029-1.586,2.495-3.16,3.536-3.214
			c0.179-0.008,0.366-0.014,0.551-0.014c0.509,0,0.996,0.037,1.447,0.09c-0.383-0.348-0.462-0.756-0.517-0.937
			c0,0,1.329,1.039,3.02,0.822c1.692-0.219,2.743-1.194,2.743-1.194s-0.005,0.711-0.742,1.262c1.418-0.429,2.004-0.576,2.406-0.576
			c0.443,0,0.661,0.185,0.852,0.348c0.037,0.03,0.074,0.061,0.116,0.096c1.09,0.858,2.401,1.9,2.784,2.205
			c0.444,0.052,1.852,0.212,2.739,0.294c0.512,0.046,0.974,0.085,1.426,0.085c0.146,0,0.283-0.006,0.412-0.014
			c0.587-1.119,1.114-2.388,1.561-3.819C39.618,32.595,39.676,32.373,39.729,32.149z M36.281,20.317
			c-0.002-0.001-0.005-0.003-0.007-0.003c-0.75-0.056-1.501-0.107-2.254-0.149c-1.045-0.06-2.09-0.109-3.134-0.153
			c-0.061,0.09-0.184,0.268-0.361,0.51c-0.569,0.769-1.697,2.181-3.143,3.378c2.047-0.367,5.598-1.275,8.67-3.418
			C36.129,20.427,36.205,20.37,36.281,20.317z M29.429,20.529c0.086-0.108,0.167-0.212,0.239-0.307
			c-0.752,0.076-1.494,0.185-2.218,0.323c-2.48,0.464-4.771,1.236-6.676,2.027c1.35-0.065,2.77-0.104,4.252-0.104
			c0.896,0,1.768,0.015,2.615,0.04C28.371,21.807,28.986,21.09,29.429,20.529z M30.251,43.942c-1.033-0.076-1.972-0.506-2.73-1.256
			c-0.039-0.04-0.077-0.079-0.115-0.117c-0.366,0.074-0.738,0.128-1.119,0.161c-0.16,0.006-0.312,0.02-0.48,0.02l-0.248,0.003
			l-0.095-0.003c-1.008,1.5-3.247,1.792-3.35,1.805c-0.092,0.011-0.168,0.024-0.273,0.043c1.248,0.342,2.522,0.49,3.778,0.406
			C26.879,44.919,28.516,44.646,30.251,43.942z M26.261,42.231c0.242-0.019,0.486-0.05,0.73-0.087
			c-0.317-0.33-0.597-0.636-0.818-0.885c-0.108,0.248-0.251,0.575-0.44,0.995h0.056C25.939,42.255,26.104,42.238,26.261,42.231z
			 M25.491,24.197c0.419-0.253,0.822-0.543,1.204-0.851c-0.547-0.009-1.103-0.017-1.669-0.017c-2.325,0-4.497,0.095-6.465,0.243
			c-1.975,0.965-3.182,1.76-3.21,1.78l-1.896,1.265l1.302-1.869c0.215-0.31,0.443-0.605,0.678-0.885
			c-2.187,0.244-4.008,0.534-5.369,0.785l0.697,5.649l2.397,1.679l7.611-1.692l1.425-4.693c0.024-0.077,0.076-0.142,0.144-0.182
			c0.022-0.014,0.046-0.025,0.072-0.032c0.044-0.012,0.805-0.229,1.682-0.336L25.491,24.197z M26.367,19.888
			c-0.53-0.008-1.06-0.013-1.59-0.014h-0.001c-0.777,0.001-1.557,0.009-2.337,0.025l-1.438,0.681
			c-0.001,0.001-0.009,0.005-0.02,0.011c-0.216,0.105-2.104,1.058-3.88,2.757c1.592-0.837,3.932-1.931,6.686-2.779
			C24.611,20.317,25.476,20.084,26.367,19.888z M16.318,22.902c0.746-0.74,1.515-1.35,2.194-1.827
			c-2.618,0.608-5.028,1.501-7.139,2.472C12.747,23.325,14.41,23.094,16.318,22.902z M16.813,20.621
			c0.877-0.246,1.782-0.461,2.709-0.641c-1.33,0.049-2.66,0.11-3.989,0.185c-0.772,0.043-1.54,0.095-2.308,0.153
			c-0.385,0.03-0.767,0.06-1.148,0.102c-0.109,0.011-0.216,0.022-0.325,0.037c-1.002,0.6-4.845,3.012-7.484,6.167
			C6.832,24.842,11.298,22.164,16.813,20.621z M9.738,33.05c-0.05-0.159-0.097-0.321-0.142-0.482L8.412,31.74
			c-0.075-0.052-0.122-0.132-0.134-0.222L7.7,26.828c-0.428,0.229-0.921,0.51-1.053,0.621c-0.114,0.094-0.201,0.335-0.077,1.452
			c0.153,1.378,0.851,3.975,1.227,4.353C8.248,33.333,9.248,33.195,9.738,33.05z M8.863,21.271
			c-0.669,0.129-1.214,0.246-1.617,0.337l0.19,0.717C7.966,21.903,8.452,21.551,8.863,21.271z"/>
		<g>
			<path class="st5" d="M55.061,19.986h-4.914v-2.548h12.818v2.548h-4.889v14.457h-3.016V19.986z"/>
			<path class="st5" d="M63.449,21.676h2.47l0.208,2.263h0.104c0.91-1.664,2.263-2.574,3.614-2.574c0.65,0,1.066,0.078,1.456,0.26
				l-0.52,2.6c-0.442-0.13-0.78-0.208-1.326-0.208c-1.014,0-2.236,0.702-3.016,2.626v7.801h-2.99V21.676z"/>
			<path class="st5" d="M80.054,26.279c-0.025-1.353-0.598-2.496-2.314-2.496c-1.273,0-2.47,0.572-3.588,1.248l-1.092-2.002
				c1.404-0.885,3.198-1.664,5.227-1.664c3.197,0,4.758,1.949,4.758,5.512v7.566H80.6l-0.233-1.404h-0.078
				c-1.145,0.962-2.444,1.717-3.952,1.717c-2.236,0-3.796-1.509-3.796-3.744C72.541,28.281,74.828,26.851,80.054,26.279z
				 M77.272,32.414c1.04,0,1.847-0.52,2.782-1.403v-2.86c-3.458,0.441-4.602,1.352-4.602,2.626
				C75.453,31.92,76.207,32.414,77.272,32.414z"/>
			<path class="st5" d="M84.531,21.676h3.043l2.027,6.63c0.338,1.248,0.729,2.549,1.066,3.849h0.104
				c0.364-1.3,0.729-2.601,1.093-3.849l2.028-6.63h2.886l-4.343,12.767h-3.458L84.531,21.676z"/>
			<path class="st5" d="M98.496,17.75c0-1.015,0.779-1.716,1.846-1.716s1.846,0.701,1.846,1.716c0,0.987-0.779,1.689-1.846,1.689
				S98.496,18.738,98.496,17.75z M98.834,21.676h2.99v12.767h-2.99V21.676z"/>
			<path class="st5" d="M105.545,31.063c1.144,0.884,2.236,1.43,3.536,1.43c1.378,0,2.028-0.649,2.028-1.534
				c0-1.065-1.379-1.534-2.73-2.054c-1.69-0.624-3.588-1.586-3.588-3.718c0-2.236,1.794-3.822,4.654-3.822
				c1.768,0,3.197,0.728,4.237,1.533l-1.378,1.82c-0.884-0.649-1.794-1.092-2.808-1.092c-1.274,0-1.872,0.598-1.872,1.404
				c0,0.988,1.273,1.404,2.652,1.897c1.741,0.65,3.666,1.482,3.666,3.874c0,2.185-1.742,3.953-4.967,3.953
				c-1.742,0-3.588-0.755-4.836-1.769L105.545,31.063z"/>
			<path class="st5" d="M129.126,17.126c2.08,0,3.771,1.014,4.836,2.158l-1.664,1.872c-0.884-0.858-1.846-1.404-3.146-1.404
				c-2.782,0-4.784,2.34-4.784,6.162c0,3.874,1.846,6.214,4.68,6.214c1.509,0,2.626-0.624,3.589-1.689l1.664,1.846
				c-1.379,1.586-3.146,2.471-5.305,2.471c-4.316,0-7.723-3.121-7.723-8.763C121.273,20.428,124.758,17.126,129.126,17.126z"/>
			<path class="st5" d="M136.777,17.438h3.017v17.005h-3.017V17.438z"/>
		</g>
	</g>
</g>
</svg>
