<?xml version="1.0" encoding="utf-8"?>
<!-- Generator: Adobe Illustrator 23.0.3, SVG Export Plug-In . SVG Version: 6.00 Build 0)  -->
<svg version="1.1" id="Layer_1" xmlns="http://www.w3.org/2000/svg" xmlns:xlink="http://www.w3.org/1999/xlink" x="0px" y="0px"
	 viewBox="0 0 235.353 227.029" style="enable-background:new 0 0 235.353 227.029;" xml:space="preserve">
<style type="text/css">
	.st0{fill:#FFE000;}
</style>
<g id="Waves__x2014__Large__x2014__Yellow">
	<path class="st0" d="M135.139,1.705c0.626-0.265,1.25-0.529,1.875-0.791c-2.18-0.362-4.375-0.675-6.589-0.914
		c-6.958,2.861-14.518,5.438-28.387,6.845C90.673,7.998,83.304,7.53,76.945,6.551c-2.015,0.741-3.996,1.544-5.953,2.389
		c7.747,1.518,16.319,2.812,31.388,1.283C119.026,8.533,127.217,5.062,135.139,1.705z"/>
	<path class="st0" d="M103.75,23.73c16.646-1.689,24.837-5.16,32.759-8.517c6.825-2.893,13.35-5.645,25.024-7.414
		c-2.069-0.833-4.167-1.602-6.288-2.318c-8.733,1.816-14.471,4.239-20.06,6.607c-8.043,3.409-15.641,6.629-31.777,8.266
		c-16.137,1.637-24.226,0.009-32.791-1.715c-4.308-0.867-8.699-1.746-14.174-2.176c-1.655,1.009-3.284,2.056-4.882,3.142
		c7.471,0.174,12.835,1.245,18.386,2.362C78.381,23.663,87.103,25.419,103.75,23.73z"/>
	<path class="st0" d="M71.317,35.474c8.435,1.697,17.157,3.452,33.804,1.763c16.646-1.689,24.837-5.16,32.759-8.517
		c8.043-3.409,15.641-6.629,31.778-8.266c5.646-0.573,10.293-0.74,14.334-0.649c-1.702-1.163-3.43-2.288-5.193-3.361
		c-2.865,0.084-5.992,0.279-9.484,0.633c-16.646,1.689-24.838,5.16-32.76,8.517c-8.043,3.409-15.641,6.629-31.777,8.266
		c-16.137,1.637-24.226,0.009-32.791-1.715c-8.435-1.697-17.157-3.452-33.804-1.763c-0.081,0.008-0.154,0.018-0.235,0.026
		c-1.376,1.268-2.721,2.567-4.033,3.897c1.463-0.196,2.983-0.381,4.611-0.546C54.662,32.122,62.752,33.75,71.317,35.474z"/>
	<path class="st0" d="M72.687,48.981c8.435,1.697,17.157,3.452,33.804,1.763c16.646-1.689,24.837-5.16,32.759-8.517
		c8.043-3.409,15.641-6.629,31.778-8.266c15.264-1.549,23.33-0.176,31.406,1.436c-1.404-1.457-2.844-2.876-4.32-4.257
		c-6.819-1.143-14.867-1.83-27.429-0.555c-16.646,1.689-24.838,5.16-32.76,8.517c-8.043,3.409-15.641,6.629-31.777,8.266
		c-16.137,1.637-24.226,0.009-32.791-1.715c-8.435-1.697-17.157-3.452-33.804-1.763c-6.541,0.664-11.765,1.605-16.192,2.704
		c-1.067,1.428-2.097,2.882-3.099,4.357c5.063-1.529,11.168-2.826,19.633-3.685C56.033,45.63,64.122,47.258,72.687,48.981z"/>
	<path class="st0" d="M74.058,62.489c8.435,1.697,17.157,3.452,33.804,1.763c16.646-1.689,24.837-5.16,32.759-8.517
		c8.043-3.409,15.641-6.629,31.778-8.266c16.138-1.637,24.23-0.01,32.795,1.714c3.125,0.629,6.292,1.265,9.884,1.731
		c-0.885-1.301-1.808-2.571-2.742-3.833c-2.217-0.37-4.33-0.795-6.472-1.226c-8.436-1.697-17.159-3.452-33.807-1.763
		c-16.646,1.689-24.838,5.16-32.76,8.517c-8.043,3.409-15.641,6.629-31.777,8.266c-16.137,1.637-24.226,0.009-32.791-1.715
		c-8.435-1.697-17.157-3.452-33.804-1.763c-13.631,1.383-21.591,3.962-28.378,6.693c-0.763,1.511-1.493,3.038-2.191,4.583
		c7.735-3.272,15.355-6.321,30.911-7.9C57.403,59.137,65.493,60.765,74.058,62.489z"/>
	<path class="st0" d="M42.637,74.282c16.137-1.637,24.226-0.009,32.791,1.714c8.435,1.698,17.157,3.453,33.804,1.764
		c16.646-1.689,24.837-5.16,32.759-8.518c8.043-3.408,15.641-6.628,31.778-8.265c16.138-1.637,24.23-0.01,32.794,1.713
		c4.955,0.997,10.022,2.009,16.722,2.336c-0.581-1.179-1.188-2.342-1.806-3.498c-5.424-0.397-9.776-1.265-14.246-2.165
		c-8.436-1.698-17.159-3.453-33.807-1.764c-16.646,1.689-24.838,5.16-32.76,8.518c-8.043,3.408-15.641,6.628-31.777,8.265
		c-16.137,1.637-24.226,0.009-32.791-1.714c-8.435-1.698-17.157-3.453-33.804-1.764c-16.646,1.689-24.837,5.16-32.759,8.518
		c-1.32,0.559-2.63,1.112-3.965,1.655c-0.439,1.366-0.844,2.744-1.233,4.13c2.294-0.872,4.421-1.77,6.523-2.661
		C18.903,79.139,26.501,75.919,42.637,74.282z"/>
	<path class="st0" d="M44.007,87.789c16.137-1.637,24.226-0.009,32.791,1.714c8.435,1.698,17.157,3.453,33.804,1.764
		c16.646-1.689,24.837-5.16,32.759-8.518c8.043-3.408,15.641-6.628,31.778-8.265c16.138-1.637,24.23-0.01,32.794,1.713
		c5.955,1.199,12.067,2.42,20.996,2.444c-0.391-1.138-0.787-2.274-1.212-3.394c-7.855-0.119-13.385-1.223-19.114-2.376
		c-8.436-1.698-17.159-3.453-33.807-1.764c-16.646,1.689-24.838,5.16-32.76,8.518c-8.043,3.408-15.641,6.628-31.777,8.265
		c-16.137,1.637-24.226,0.009-32.791-1.714c-8.435-1.698-17.157-3.453-33.804-1.764c-16.646,1.689-24.837,5.16-32.759,8.518
		c-2.961,1.255-5.865,2.483-9.154,3.617c-0.221,1.253-0.435,2.508-0.615,3.773c4.189-1.341,7.668-2.814,11.094-4.266
		C20.274,92.646,27.872,89.427,44.007,87.789z"/>
	<path class="st0" d="M45.378,101.297c16.137-1.637,24.226-0.009,32.791,1.714c8.435,1.698,17.157,3.453,33.804,1.764
		c16.646-1.689,24.837-5.16,32.759-8.518c8.043-3.408,15.641-6.628,31.778-8.265c16.138-1.637,24.23-0.01,32.794,1.713
		c6.473,1.303,13.13,2.633,23.393,2.421c-0.243-1.13-0.505-2.252-0.78-3.369c-9.413,0.139-15.548-1.093-21.943-2.379
		c-8.436-1.698-17.159-3.453-33.807-1.764c-16.646,1.689-24.838,5.16-32.76,8.518c-8.043,3.408-15.641,6.628-31.777,8.265
		c-16.137,1.637-24.226,0.009-32.791-1.714c-8.435-1.698-17.157-3.453-33.804-1.764c-16.646,1.689-24.837,5.16-32.759,8.518
		c-3.835,1.625-7.58,3.205-12.186,4.593c-0.059,1.178-0.067,2.367-0.09,3.553c5.35-1.532,9.516-3.291,13.601-5.023
		C21.644,106.154,29.242,102.934,45.378,101.297z"/>
	<path class="st0" d="M177.538,98.123c-16.646,1.689-24.838,5.16-32.76,8.518c-8.043,3.408-15.641,6.628-31.777,8.265
		c-16.137,1.637-24.226,0.009-32.791-1.714c-8.435-1.698-17.157-3.453-33.804-1.764c-16.646,1.689-24.837,5.16-32.759,8.518
		c-4.166,1.765-8.223,3.478-13.399,4.948c0.077,1.145,0.15,2.289,0.261,3.439c5.77-1.587,10.162-3.441,14.463-5.264
		c8.043-3.408,15.641-6.628,31.777-8.265c16.137-1.637,24.226-0.009,32.791,1.714c8.435,1.698,17.157,3.453,33.804,1.764
		c16.646-1.689,24.837-5.16,32.759-8.518c8.043-3.408,15.641-6.628,31.778-8.265c16.138-1.637,24.23-0.01,32.794,1.713
		c6.627,1.334,13.449,2.695,24.133,2.402c-0.015-0.158-0.02-0.315-0.036-0.473c-0.099-0.976-0.247-1.936-0.369-2.904
		c-10.043,0.256-16.417-1.015-23.058-2.351C202.91,98.189,194.187,96.434,177.538,98.123z"/>
	<path class="st0" d="M178.909,111.63c-16.646,1.689-24.838,5.16-32.76,8.518c-8.043,3.408-15.641,6.628-31.777,8.265
		c-16.137,1.637-24.226,0.009-32.791-1.714c-8.435-1.698-17.157-3.453-33.804-1.764c-16.646,1.689-24.837,5.16-32.759,8.518
		c-4.085,1.731-8.061,3.412-13.093,4.863c0.204,1.115,0.405,2.23,0.64,3.333c5.434-1.543,9.649-3.322,13.778-5.072
		c8.043-3.408,15.641-6.628,31.777-8.265c16.137-1.637,24.226-0.009,32.791,1.714c8.435,1.698,17.157,3.453,33.804,1.764
		c16.646-1.689,24.837-5.16,32.759-8.518c8.043-3.408,15.641-6.628,31.778-8.265c16.138-1.637,24.23-0.01,32.794,1.713
		c6.451,1.298,13.084,2.625,23.287,2.424c0.019-1.127,0.027-2.255,0.014-3.387c-9.8,0.21-16.083-1.046-22.631-2.363
		C204.28,111.696,195.557,109.941,178.909,111.63z"/>
	<path class="st0" d="M180.279,125.138c-16.646,1.689-24.838,5.16-32.76,8.518c-8.043,3.408-15.641,6.628-31.777,8.265
		c-16.137,1.637-24.226,0.009-32.791-1.714c-8.435-1.698-17.157-3.453-33.804-1.764c-16.646,1.689-24.837,5.16-32.759,8.518
		c-3.598,1.525-7.113,3.011-11.338,4.335c0.328,1.083,0.684,2.151,1.042,3.219c4.424-1.385,8.054-2.919,11.621-4.43
		c8.043-3.408,15.641-6.628,31.777-8.265c16.137-1.637,24.226-0.009,32.791,1.714c8.435,1.698,17.157,3.453,33.804,1.764
		c16.646-1.689,24.837-5.16,32.759-8.518c8.043-3.408,15.641-6.628,31.778-8.265c16.138-1.637,24.23-0.01,32.794,1.713
		c5.935,1.195,12.026,2.412,20.906,2.444c0.15-1.127,0.31-2.25,0.428-3.386c-8.692,0.014-14.565-1.158-20.663-2.385
		C205.651,125.204,196.928,123.449,180.279,125.138z"/>
	<path class="st0" d="M181.65,138.645c-16.646,1.689-24.838,5.16-32.76,8.518c-8.043,3.408-15.641,6.628-31.777,8.265
		c-16.137,1.637-24.226,0.009-32.791-1.714c-8.435-1.698-17.157-3.453-33.804-1.764c-16.646,1.689-24.837,5.16-32.759,8.518
		c-2.659,1.127-5.276,2.231-8.162,3.266c0.45,1.043,0.93,2.069,1.409,3.095c2.905-1.048,5.508-2.148,8.078-3.237
		c8.043-3.408,15.641-6.628,31.777-8.265c16.137-1.637,24.226-0.009,32.791,1.714c8.435,1.698,17.157,3.453,33.804,1.764
		c16.646-1.689,24.837-5.16,32.759-8.518c8.043-3.408,15.641-6.628,31.778-8.265c16.138-1.637,24.23-0.01,32.794,1.713
		c5.017,1.01,10.149,2.034,16.975,2.348c0.282-1.108,0.517-2.232,0.768-3.352c-6.798-0.262-11.852-1.272-17.073-2.322
		C207.021,138.712,198.298,136.956,181.65,138.645z"/>
	<path class="st0" d="M183.02,152.153c-16.646,1.689-24.838,5.16-32.76,8.518c-8.043,3.408-15.641,6.628-31.777,8.265
		c-16.137,1.637-24.226,0.009-32.791-1.714c-8.435-1.698-17.157-3.453-33.804-1.764c-16.646,1.689-24.837,5.16-32.759,8.518
		c-1.207,0.512-2.408,1.018-3.625,1.516c0.568,0.991,1.124,1.991,1.719,2.963c1.094-0.451,2.166-0.904,3.231-1.355
		c8.043-3.408,15.641-6.628,31.777-8.265c16.137-1.637,24.226-0.009,32.791,1.714c8.435,1.698,17.157,3.453,33.804,1.764
		c16.646-1.689,24.837-5.16,32.759-8.518c8.043-3.408,15.641-6.628,31.778-8.265c16.138-1.637,24.23-0.01,32.794,1.713
		c3.558,0.716,7.176,1.44,11.41,1.913c0.417-1.085,0.826-2.174,1.212-3.273c-4.393-0.449-8.127-1.197-11.951-1.967
		C208.392,152.219,199.669,150.464,183.02,152.153z"/>
	<path class="st0" d="M184.391,165.661c-16.646,1.689-24.838,5.16-32.76,8.518c-8.043,3.408-15.641,6.628-31.777,8.265
		c-16.137,1.637-24.226,0.009-32.791-1.714c-8.435-1.698-17.157-3.453-33.804-1.764c-15.119,1.534-23.26,4.539-30.563,7.593
		c0.692,0.943,1.397,1.873,2.116,2.793c7.071-2.926,14.654-5.575,28.789-7.009c16.137-1.637,24.226-0.009,32.791,1.714
		c8.435,1.698,17.157,3.453,33.804,1.764c16.646-1.689,24.837-5.16,32.759-8.518c8.043-3.408,15.641-6.628,31.778-8.265
		c16.138-1.637,24.23-0.01,32.794,1.713c1.448,0.292,2.909,0.584,4.413,0.861c0.548-1.045,1.083-2.097,1.6-3.158
		c-1.81-0.321-3.568-0.672-5.343-1.029C209.762,165.727,201.039,163.971,184.391,165.661z"/>
	<path class="st0" d="M153.001,187.686c-8.043,3.408-15.641,6.628-31.777,8.265c-16.137,1.637-24.226,0.009-32.791-1.714
		c-8.435-1.698-17.157-3.453-33.804-1.764c-10.303,1.045-17.363,2.774-23.129,4.735c0.854,0.916,1.725,1.816,2.608,2.704
		c5.3-1.694,11.705-3.134,20.864-4.063c16.137-1.637,24.226-0.009,32.791,1.714c8.435,1.698,17.157,3.453,33.804,1.764
		c16.646-1.689,24.837-5.16,32.759-8.518c8.043-3.408,15.641-6.628,31.778-8.265c13.57-1.377,21.448-0.443,28.704,0.913
		c0.692-1.011,1.361-2.037,2.022-3.069c-7.664-1.491-16.208-2.728-31.069-1.22C169.115,180.857,160.923,184.329,153.001,187.686z"/>
	<path class="st0" d="M154.371,201.194c-8.043,3.408-15.641,6.628-31.777,8.265c-16.137,1.637-24.226,0.009-32.791-1.714
		c-8.435-1.698-17.157-3.453-33.804-1.764c-5.062,0.514-9.333,1.194-13.061,1.983c1.153,0.947,2.335,1.859,3.523,2.762
		c2.919-0.528,6.165-0.992,9.88-1.369c16.137-1.637,24.226-0.009,32.791,1.714c8.435,1.698,17.157,3.453,33.804,1.764
		c16.646-1.689,24.837-5.16,32.759-8.518c8.043-3.408,15.641-6.628,31.778-8.265c7.366-0.747,13.046-0.81,17.869-0.498
		c0.93-1.039,1.828-2.106,2.72-3.177c-5.511-0.52-12.101-0.597-20.932,0.299C170.485,194.365,162.293,197.836,154.371,201.194z"/>
	<path class="st0" d="M155.742,214.701c-8.043,3.408-15.641,6.628-31.777,8.265c-16.137,1.637-24.226,0.009-32.791-1.714
		c-8.075-1.625-16.433-3.295-31.735-1.953c1.849,1.055,3.726,2.06,5.633,3.015c11.445-0.538,18.282,0.826,25.432,2.265
		c8.435,1.698,17.157,3.453,33.804,1.764c16.646-1.689,24.837-5.16,32.759-8.518c8.043-3.408,15.641-6.628,31.778-8.265
		c0.599-0.061,1.166-0.108,1.743-0.16c1.526-1.207,3.02-2.45,4.482-3.729c-2.051,0.111-4.223,0.274-6.567,0.512
		C171.856,207.872,163.664,211.344,155.742,214.701z"/>
</g>
</svg>
