<?xml version="1.0" encoding="utf-8"?>
<!-- Generator: Adobe Illustrator 22.0.1, SVG Export Plug-In . SVG Version: 6.00 Build 0)  -->
<svg version="1.1" id="Layer_1" xmlns="http://www.w3.org/2000/svg" xmlns:xlink="http://www.w3.org/1999/xlink" x="0px" y="0px"
	 viewBox="0 0 121.8 56.2" style="enable-background:new 0 0 121.8 56.2;" xml:space="preserve">
<style type="text/css">
	.st0{fill-rule:evenodd;clip-rule:evenodd;fill:#79A23F;}
</style>
<g>
	<path class="st0" d="M20.2,17.7c1,1.2,1.7,2.5,1.9,4.1c0.2,1.6,0,3.2-0.9,4.7c-0.7-1-1.7-1.5-2.8-1.6c-0.3,0-0.8,0.1-0.9-0.1
		c-0.2-0.2-0.1-0.6-0.1-1c-0.2-0.8-0.3-1.5-0.6-2.3c-0.3-0.7-0.7-1.3-1.1-2c1-0.9,2.2-1.5,3.6-1.7c0.2,0,0.4-0.1,0.6-0.2
		C19.9,17.7,20.1,17.7,20.2,17.7z"/>
	<path class="st0" d="M78.4,43.4c-0.1,0.1-0.2,0.1-0.2,0.1c-2.9,3-7.4,2.2-9-1.6c-1.2-2.7-0.5-6,1.7-7.8c1.8-1.5,4.8-1.6,6.5-0.2
		c0.4,0.3,0.7,0.6,1.1,0.9c0-0.2,0-0.4,0-0.6c0-2,0-4.1,0-6.1c0-1.2,1-1.8,1.9-1.3c0.5,0.3,0.6,0.7,0.6,1.3c0,3.2,0,6.4,0,9.5
		c0,2,0,4,0,6.1c0,0.9-0.4,1.5-1.2,1.5c-0.8,0-1.3-0.5-1.3-1.4C78.5,43.7,78.4,43.6,78.4,43.4z M78.5,39.1c0-0.1,0-0.2,0-0.4
		c0-1.8-1.4-3.4-3.1-3.6c-2-0.2-3.6,0.8-4.1,2.7c-0.1,0.6-0.2,1.2-0.2,1.8c0.1,2.4,2.3,4,4.6,3.4C77.5,42.5,78.5,41.1,78.5,39.1z"/>
	<path class="st0" d="M112.9,37.7c0.3-0.2,0.5-0.3,0.7-0.4c1.6-1.2,3.1-2.4,4.7-3.6c0.1-0.1,0.3-0.2,0.4-0.3
		c0.6-0.4,1.3-0.4,1.7,0.1c0.4,0.5,0.4,1.1-0.3,1.6c-0.8,0.6-1.5,1.2-2.3,1.8c-0.5,0.4-1,0.8-1.5,1.2c0.6,0.7,1.2,1.4,1.8,2.1
		c0.8,1,1.7,1.9,2.5,2.9c0.4,0.4,0.5,0.9,0.2,1.4c-0.3,0.5-0.7,0.6-1.2,0.5c-0.3-0.1-0.6-0.3-0.9-0.6c-1.3-1.4-2.5-2.9-3.8-4.3
		c-0.6-0.7-0.5-0.6-1.2-0.2c-0.6,0.4-0.9,0.9-0.8,1.6c0.1,0.7,0,1.4,0,2.1c0,0.8-0.5,1.4-1.3,1.4c-0.7,0-1.2-0.5-1.2-1.4
		c0-5.2,0-10.5,0-15.7c0-0.9,0.5-1.4,1.2-1.4c0.7,0,1.2,0.6,1.2,1.5c0,2.9,0,5.8,0,8.8C112.9,37.1,112.9,37.4,112.9,37.7z"/>
	<path class="st0" d="M90.7,39.9c-1.3,0-2.6,0-4,0c-0.5,0-0.6,0.2-0.5,0.6c0.4,1.6,1.7,2.7,3.3,2.8c1.4,0.1,2.7-0.4,3.7-1.3
		c0.5-0.5,1.1-0.5,1.5,0c0.4,0.4,0.4,1-0.1,1.4c-1.9,1.8-4.2,2.4-6.7,1.7c-2.4-0.7-3.9-2.4-4.3-4.9C83,35.8,86.4,33,89.6,33
		c3.2,0,5.6,2.3,6,5.2c0,0.2,0.1,0.4,0.1,0.5c0.1,0.8-0.3,1.2-1.1,1.2C93.3,39.9,92,39.9,90.7,39.9z M86.3,38.1
		c0.1,0,0.2,0.1,0.2,0.1c2.1,0,4.1,0,6.2,0c0.4,0,0.5-0.2,0.4-0.5c-0.7-2.7-3.8-3.2-5.5-2C86.8,36.3,86.3,37.1,86.3,38.1z"/>
	<path class="st0" d="M47.7,39.9c-1.3,0-2.6,0-3.9,0c-0.5,0-0.6,0.2-0.5,0.6c0.3,1.4,1.7,2.7,3.2,2.8c1.5,0.1,2.8-0.4,4-1.4
		c0.5-0.4,1.1-0.4,1.4,0c0.4,0.4,0.3,1-0.1,1.5c-1,1.1-2.3,1.7-3.8,1.9c-2.9,0.5-5.8-1.1-6.9-3.8c-1.4-3.6,0.7-7.7,4.5-8.4
		c4.2-0.8,7,2.3,7.1,5.7c0,0.7-0.3,1-1,1C50.3,39.9,49,39.9,47.7,39.9z M50.1,38.2c0-0.3,0-0.4,0-0.6c-0.3-1.2-1.5-2.7-3.6-2.6
		c-1.5,0.1-2.8,1.1-3.1,2.6c-0.1,0.5,0.1,0.5,0.5,0.5c1.5,0,3,0,4.6,0C48.9,38.2,49.5,38.2,50.1,38.2z"/>
	<path class="st0" d="M55.1,41c0.1-1.3,0-2.5,0.2-3.8c0.5-2.6,2.9-4.5,5.7-4.4c2.7,0.1,5,2.2,5.2,4.8c0.2,2.1,0.1,4.2,0.1,6.2
		c0,0.8-0.6,1.4-1.3,1.4c-0.8,0-1.2-0.6-1.2-1.5c0-1.7,0-3.4,0-5.2c0-0.5-0.1-0.9-0.2-1.4c-0.4-1.6-1.7-2.4-3.4-2.2
		c-1.4,0.1-2.5,1.3-2.5,2.8c0,0.7-0.1,1.5-0.1,2.2c0,1.2,0,2.4,0,3.5c0,1-0.5,1.6-1.2,1.6c-0.8,0-1.2-0.6-1.2-1.6
		C55.2,42.8,55.2,41.9,55.1,41C55.2,41,55.1,41,55.1,41z"/>
	<path class="st0" d="M35.5,35.4c-0.4,0-0.6-0.1-0.8-0.1c-1.6,0-3.2,0-4.8,0c-0.7,0-1.2-0.4-1.2-1c0-0.6,0.5-1,1.2-1
		c2.6,0,5.1,0,7.7,0c0.5,0,1,0.1,1.2,0.6c0.2,0.6,0,1-0.3,1.4c-1.9,2.3-3.8,4.5-5.7,6.8c-0.2,0.2-0.3,0.4-0.6,0.8
		c0.4,0,0.6,0.1,0.8,0.1c1.6,0,3.2,0,4.7,0c0.8,0,1.2,0.4,1.2,1c0,0.6-0.5,1-1.2,1c-2.6,0-5.1,0-7.7,0c-0.5,0-1-0.2-1.2-0.7
		c-0.2-0.5,0-0.9,0.3-1.3c1.9-2.3,3.8-4.5,5.7-6.8C35,36,35.2,35.8,35.5,35.4z"/>
	<path class="st0" d="M102.9,33c1.3-0.1,2.5,0.3,3.7,0.8c0.7,0.3,1,0.8,0.7,1.4c-0.2,0.6-0.8,0.8-1.5,0.5c-1.3-0.5-2.6-0.8-3.9-0.6
		c-0.3,0.1-0.6,0.1-0.9,0.3c-0.7,0.4-0.8,1.4-0.1,1.8c0.4,0.3,0.9,0.4,1.4,0.6c1,0.4,2.1,0.7,3.1,1.2c1.2,0.6,2,1.4,1.9,2.9
		c-0.1,1.4-0.9,2.3-2.1,2.8c-2.5,1-4.9,0.7-7.2-0.6c-0.4-0.2-0.7-0.6-0.6-1.1c0.2-0.7,0.7-0.9,1.4-0.6c1.2,0.6,2.4,1,3.8,0.9
		c0.6-0.1,1.2-0.2,1.7-0.5c1-0.5,1-1.5,0.1-2.1c-0.7-0.4-1.5-0.6-2.3-0.9c-0.9-0.4-2-0.7-2.8-1.3c-1.9-1.3-1.7-3.7,0.3-4.9
		C100.6,33.1,101.7,32.9,102.9,33z"/>
	<path class="st0" d="M15,26.6c-0.7-0.9-1.6-1.5-2.7-1.6c-0.2,0-0.3-0.2-0.4-0.3c-1.3-1.1-2.8-1.7-4.6-1.8c-0.4,0-0.6-0.2-0.5-0.6
		c0.2-1.5,0.7-2.9,1.6-4c0.1-0.1,0.3-0.2,0.5-0.3c3.7-0.1,7,3,7.3,6.7c0,0.5,0,0.9-0.5,1.2C15.5,26,15.3,26.3,15,26.6z"/>
	<path class="st0" d="M18.5,40.5c-0.8,1.6-1.9,2.8-3.5,3.5c-0.2,0.1-0.4,0-0.6,0c-3.5-1.5-5.3-6.3-3.5-9.7c0,0,0.1-0.1,0.1-0.1
		c0.7,0.5,1.4,1.1,2.1,1.5c0.9,0.5,1.6,1.1,2,2c0.6,1.1,1.6,1.9,2.7,2.5C18.1,40.3,18.2,40.4,18.5,40.5z"/>
	<path class="st0" d="M15.9,36.4c1-0.7,1.9-1.4,2.9-2.1c0.1-0.1,0.4-0.2,0.5-0.1c1.9,0.6,3.7,0.3,5.4-0.5c0.1,0,0.2,0,0.3-0.1
		c0.5,0.8,0.7,1.7,0.8,2.6c0.1,0.6-0.1,1.2-0.1,1.8c0,0.6-0.3,0.8-0.8,1c-3.2,1.3-6.9,0.3-8.9-2.4C16,36.6,15.9,36.5,15.9,36.4z"/>
	<path class="st0" d="M8.2,30.2c0.6,1,1.2,1.9,1.8,2.8c0.1,0.1,0.1,0.4,0,0.6c-0.8,1.4-1.2,2.9-1.1,4.5C8.9,38.6,9,39,9,39.6
		c-0.2,0.1-0.4,0.1-0.5,0.2c-1.3,0.1-2.6,0.1-3.8-0.4c-0.5-0.2-0.8-0.5-0.9-1.1C3.2,34.9,5,31.5,8,30.2C8.1,30.2,8.2,30.2,8.2,30.2z
		"/>
	<path class="st0" d="M20.1,33.1c0.3-0.4,0.5-0.7,0.8-1.1c0.7-1.1,1.1-2.3,1-3.7c0-0.2,0.1-0.4,0.2-0.6c0.7-0.9,1.2-1.9,1.4-3
		c0.1-0.4,0.2-0.4,0.6-0.3c1.4,0.4,2.7,1.2,3.6,2.3c0.2,0.2,0.3,0.6,0.2,0.9c-0.6,2.9-3.3,5.3-6.2,5.6c-0.5,0.1-1,0.1-1.5,0.1
		C20.1,33.2,20.1,33.1,20.1,33.1z"/>
	<path class="st0" d="M3.9,31.6c-1.3-1.1-2.2-2.5-2.5-4.2c0-0.2,0.1-0.4,0.2-0.6c2-2.6,6.1-3.4,9.1-1.8c-0.2,0.1-0.3,0.2-0.4,0.2
		c-1.2,0.6-1.8,1.6-2,2.9c-0.1,0.5-0.2,0.8-0.8,1c-1.2,0.3-2.2,1.1-3,2C4.3,31.3,4.1,31.4,3.9,31.6z"/>
</g>
</svg>
