<svg xmlns="http://www.w3.org/2000/svg" height="154" width="154">
  <path d="M0 640q0 209 103 385.5t279.5 279.5t385.5 103t385.5 -103t279.5 -279.5t103 -385.5t-103 -385.5t-279.5 -279.5t-385.5 -103t-385.5 103t-279.5 279.5t-103 385.5zM512 160q0 -14 9 -23t23 -9h448q14 0 23 9t9 23v160q0 14 -9 23t-23 9h-96v512q0 14 -9 23t-23 9h-320 q-14 0 -23 -9t-9 -23v-160q0 -14 9 -23t23 -9h96v-320h-96q-14 0 -23 -9t-9 -23v-160zM640 1056q0 -14 9 -23t23 -9h192q14 0 23 9t9 23v160q0 14 -9 23t-23 9h-192q-14 0 -23 -9t-9 -23v-160z" transform="scale(0.1, -0.1) translate(0, -1409)" fill="#ccc"/>
</svg>

