<?xml version="1.0" encoding="utf-8"?>
<!-- Generator: Adobe Illustrator 19.2.1, SVG Export Plug-In . SVG Version: 6.00 Build 0)  -->
<svg version="1.1" id="Tessa" xmlns="http://www.w3.org/2000/svg" xmlns:xlink="http://www.w3.org/1999/xlink" x="0px" y="0px"
	 viewBox="0 0 720 720" style="enable-background:new 0 0 720 720;" xml:space="preserve">
<style type="text/css">
	.st0{fill:#CB3349;}
	.st1{fill:#2D3136;}
	.st2{fill:#F4EDAE;}
	.st3{fill:#E6CCAD;}
	.st4{fill:#C7B39A;}
	.st5{fill:#9A9C9E;}
	.st6{opacity:0.75;}
	.st7{fill:#EBD599;}
	.st8{fill:#656C67;}
	.st9{fill:#FFFFFF;}
	.st10{fill:#414042;}
</style>
<g>
	<g>
		<g>
			<path class="st0" d="M95.1,333.8c6.1-1.6-14.5-3.5-7.4-5.8c0,6.5,64.6-61.6,65-55.7c-0.9,0.5-1.7,0.9-2.3,1.3
				c-8.2,5.2-10,14.9-10.6,33.4c-0.3,9.5,0.5,28.1,2.7,45.4c3.8,29.7,7.3,33.6,12.3,35.6c2.5,1,6.4,2.2,10.3,2.7
				c7.9,1-45.8,77-38.4,76.1c0.1,0.6,0.2,1.2,0.3,1.9c-3.4,6-6.8,9.1-6.8,9.1c11.7,35.3-9.7,54.9-9.7,54.9
				c8,36.6-25.2,45.3-25.2,45.3l-2.4,10.5c6.5,10.4,17.6,7.4,11.8,52.9s-36,53.1-36,53.1c2.3-7-10.7-23.8-10.7-23.8
				c-43.3-85.4,22.2-83.8,22.2-83.8l0.5-10.9c0,0-18.9-22.9-17-38.2c1.9-15.3,10.3-28.5,10.3-28.5s-11.9-22.1-10-36.9
				c1.9-14.9,8-23.7,8-23.7s-8.5-19.4-6.3-36.9c2.2-17.6,12.4-29.1,12.4-29.1s18.6-14.8,20.7-31.5C89.8,343.7,92.4,337.9,95.1,333.8
				z"/>
		</g>
		<g>
			<path class="st1" d="M152.5,272c0.1,0,0.2,0.1,0.2,0.4c-0.6,0.3-1.2,0.6-1.7,0.9C151.7,272.5,152.2,272,152.5,272 M151,273.3
				c-1.9,2.3-5.3,7.6-9.2,13.9c1.5-6.4,4.1-10.7,8.6-13.6C150.6,273.5,150.8,273.4,151,273.3 M141.8,287.2c-1.2,5.1-1.7,11.6-2,19.8
				c-0.3,9.5,0.5,28.1,2.7,45.4c3.8,29.7,7.3,33.6,12.3,35.6c2.5,1,6.4,2.2,10.3,2.7c7.8,1-45.3,76.1-38.5,76.1c0,0,0.1,0,0.1,0
				c0.1,0.6,0.2,1.2,0.3,1.9c-3.4,6-6.8,9.1-6.8,9.1c11.7,35.3-9.7,54.9-9.7,54.9c8,36.6-25.2,45.3-25.2,45.3l-2.4,10.5
				c-6.3,12.2,17.6,7.4,11.8,52.9c-5.7,45.5-36,53.1-36,53.1c0.6-26.5-21.9-49.7-21.3-68.9c1.1-35.5,22.1-38.8,29.9-38.8
				c1.8,0,2.9,0.2,2.9,0.2l0.5-10.9c0,0-18.9-22.9-17-38.2c1.9-15.3,10.3-28.5,10.3-28.5s-11.9-22.1-10-36.9c1.9-14.9,8-23.7,8-23.7
				s-8.5-19.4-6.3-36.9c2.2-17.6,12.4-29.1,12.4-29.1s18.6-14.8,20.7-31.5c0.9-7.5,3.6-13.3,6.3-17.4c6.1-1.6,12.8-3.5,19.9-5.8
				c0,0.3,0.1,0.4,0.2,0.4C117.2,328.5,131.4,303.9,141.8,287.2 M167.7,224.5l-26,42c-3.4,2.8-6.1,6.3-8.1,10.6l-30.1,36.3l14.6-8.5
				c-3.2,5.3-6.5,10.4-8.5,13.4c-5.7,1.8-11.6,3.5-17.5,5l-4.1,1.1l-2.3,3.5c-4.3,6.6-6.9,14-7.9,21.9c-1.3,10-12.8,21.2-16.7,24.3
				l-0.8,0.6l-0.6,0.7c-0.5,0.6-12.4,14.3-15,34.9c-1.8,14.5,2.4,29.6,5.1,37.4c-2.4,4.9-5.5,12.8-6.8,23.2
				c-1.7,13.3,4.6,29.5,8.5,38c-3,6-7.4,16.1-8.8,27.4c-1.8,14.5,8.3,31.4,14.9,40.6c-15.8,3.9-30.2,17.9-31.2,48.2
				c-0.4,11.6,4.9,22.6,10.5,34.2c5.4,11.4,11,23.2,10.8,34.8l-0.3,14.3l13.9-3.5c1.5-0.4,37.5-10,44.1-62.3
				c4.2-33.2-6.3-44.9-11.9-51.3c-0.1-0.1-0.1-0.1-0.2-0.2l0.1-0.3l1.1-4.7c14-6.2,31.4-21.8,27.6-50.3c6.5-8.4,17.2-27.5,10.2-55.5
				c1.3-1.7,2.7-3.9,4.2-6.4l1.9-3.3l-0.6-3.8c-0.1-0.4-0.1-0.9-0.2-1.3c2.7-5.7,10.3-18.2,16.1-27.8c21.8-35.9,25.7-43.7,21.9-51.5
				c-1.7-3.6-5.1-6-9.1-6.5c-2.8-0.4-5.7-1.2-7.5-1.9c-0.9-1.4-3.1-6.9-5.6-26.9c-2.1-16.7-2.9-34.5-2.6-43.6
				c0.3-7.4,0.7-12.4,1.4-16.1c3.1-5,5-7.9,6.2-9.5l5.9-3l-0.3-3.9l34.6-41.7l-37.9,21.9L167.7,224.5L167.7,224.5z"/>
		</g>
	</g>
	<g>
		<g>
			<path class="st1" d="M80.1,583.4c-1.9,0-3.7-1-4.7-2.8c-1.5-2.6-1.6-3.7,2-7.4c0.1-0.1,17.5-15.4,17.5-15.4s-8.1,20.7-8.5,21
				C85.5,579.3,81,583.4,80.1,583.4z"/>
		</g>
	</g>
	<g>
		<g>
			<path class="st1" d="M54.5,618c-3.6-16-2.7-19.1-1.1-23.2c3.6-9.2,7.7-11,8.1-11.2c2.4-1.8,5.8-1.3,7.6,1.2
				c1.8,2.4,1.3,5.8-1.1,7.6c-0.3,0.2-3.9,2.5-7.9,8C58.3,602.9,57,606.3,54.5,618z"/>
		</g>
	</g>
	<g>
		<g>
			<polygon class="st2" points="57.7,576.8 95.1,585.3 92.6,594.3 56.6,585.3 			"/>
		</g>
		<g>
			<path class="st1" d="M57.7,576.8l37.4,8.5l-2.5,9l-36-9L57.7,576.8 M57.7,571.3c-1.1,0-2.2,0.3-3.1,1c-1.3,0.9-2.1,2.3-2.3,3.8
				l-1.1,8.5c-0.3,2.7,1.4,5.3,4.1,6l36,9c0.4,0.1,0.9,0.2,1.3,0.2c2.4,0,4.6-1.6,5.3-4l2.5-9c0.4-1.4,0.2-3-0.6-4.3
				c-0.8-1.3-2-2.2-3.5-2.5l-37.4-8.5C58.5,571.4,58.1,571.3,57.7,571.3L57.7,571.3z"/>
		</g>
	</g>
	<g>
		<g>
			<path class="st0" d="M655.1,333.8c-6.1-1.6-12.8-3.5-19.9-5.8c0,6.5-64.6-61.6-65-55.7c0.9,0.5,1.7,0.9,2.3,1.3
				c8.2,5.2,10,14.9,10.6,33.4c0.3,9.5-0.5,28.1-2.7,45.4c-3.8,29.7-7.3,33.6-12.3,35.6c-2.5,1-6.4,2.2-10.3,2.7
				c-7.9,1,45.8,77,38.4,76.1c-0.1,0.6-0.2,1.2-0.3,1.9c3.4,6,6.8,9.1,6.8,9.1c-11.7,35.3,9.7,54.9,9.7,54.9
				c-8,36.6,25.2,45.3,25.2,45.3l2.4,10.5c-6.5,10.4-17.6,7.4-11.8,52.9s36,53.1,36,53.1c-2.3-7,10.7-23.8,10.7-23.8
				c43.3-85.4-22.2-83.8-22.2-83.8l-0.5-10.9c0,0,18.9-22.9,17-38.2c-1.9-15.3-9.7-28.3-9.7-28.3s11.3-22.2,9.4-37.1
				c-1.9-14.9-8-23.7-8-23.7s8.5-19.4,6.3-36.9c-2.2-17.6-12.4-29.1-12.4-29.1s8.7-14.8,6.5-31.5
				C660.4,343.7,657.7,337.9,655.1,333.8z"/>
		</g>
		<g>
			<path class="st1" d="M570.6,272c5.1,0,59.1,56.5,64.2,56.5c0.3,0,0.4-0.1,0.4-0.4c7.1,2.2,13.8,4.2,19.9,5.8
				c2.7,4.1,5.3,9.9,6.3,17.4c2.1,16.7-6.5,31.5-6.5,31.5s10.1,11.5,12.4,29.1c2.2,17.6-6.3,36.9-6.3,36.9s6.1,8.8,8,23.7
				c1.9,14.9-9.4,37.1-9.4,37.1s7.8,13,9.7,28.3c1.9,15.3-17,38.2-17,38.2l0.5,10.9c0,0,1.1-0.2,2.9-0.2c7.8,0,28.8,3.3,29.9,38.8
				c0.6,19.3-21.8,42.4-21.3,68.9c0,0-30.2-7.6-36-53.1c-5.7-45.5,18.1-40.6,11.8-52.9l-2.4-10.5c0,0-33.2-8.7-25.2-45.3
				c0,0-21.4-19.6-9.7-54.9c0,0-3.4-3.1-6.8-9.1c0.1-0.7,0.2-1.4,0.3-1.9c0,0,0.1,0,0.1,0c6.7,0-46.3-75.1-38.5-76.1
				c3.9-0.5,7.8-1.7,10.3-2.7c5-1.9,8.5-5.8,12.3-35.6c2.2-17.3,3-35.9,2.7-45.4c-0.7-18.4-2.4-28.1-10.6-33.4
				c-0.6-0.4-1.4-0.8-2.3-1.3C570.2,272.1,570.3,272,570.6,272 M570.6,261.1L570.6,261.1L570.6,261.1c-6,0-10.9,4.5-11.3,10.6
				l-0.5,7.2l6.4,3.3c0.9,0.5,1.3,0.7,1.4,0.8c3.1,2,4.9,6.5,5.6,24.5c0.3,9.1-0.5,27-2.6,43.6c-2.6,20-4.7,25.4-5.6,26.9
				c-1.8,0.7-4.7,1.6-7.5,1.9c-4,0.5-7.4,2.9-9.1,6.5c-3.8,7.9,0.1,15.6,21.9,51.5c5.8,9.5,13.4,22.1,16.1,27.8
				c-0.1,0.4-0.1,0.8-0.2,1.3l-0.6,3.8l1.9,3.3c1.4,2.5,2.9,4.7,4.2,6.4c-7.1,28,3.7,47.1,10.2,55.5c-3.8,28.5,13.6,44.1,27.6,50.3
				l1.1,4.7l0.1,0.3c-0.1,0.1-0.1,0.1-0.2,0.2c-5.6,6.3-16.1,18.1-11.9,51.3c6.6,52.3,42.6,61.9,44.1,62.3l13.9,3.5l-0.3-14.3
				c-0.2-11.7,5.4-23.4,10.8-34.8c5.6-11.7,10.8-22.7,10.5-34.2c-0.9-30.3-15.4-44.3-31.2-48.2c6.5-9.2,16.7-26,14.9-40.6
				c-1.4-11.3-5.6-21.4-8.4-27.3c3.6-8.4,9.7-24.8,8-38.2c-1.3-10.4-4.4-18.4-6.8-23.2c2.7-7.8,7-22.9,5.1-37.4
				c-1.6-12.8-6.8-22.9-10.6-28.9c2.9-7,6.4-18.8,4.8-31.7c-1-8-3.7-15.3-7.9-21.9l-2.3-3.5l-4.1-1.1c-6.6-1.8-13.1-3.7-19.5-5.6
				l-1.3-0.4c-5.4-4.3-18.2-16.5-27.1-25C580.5,264,576.8,261.1,570.6,261.1L570.6,261.1z"/>
		</g>
	</g>
	<g>
		<g>
			<path class="st1" d="M606.3,541.6c-1.3,0-2.6-0.5-3.7-1.4c-2.2-2-2.4-5.5-0.4-7.7l13.4-9.8l-4.3,17.2
				C610.3,541.1,607.8,541.6,606.3,541.6z"/>
		</g>
	</g>
	<g>
		<g>
			<path class="st1" d="M666,516.4c-1.7,0-5.5-5.5-6.5-6.9l-9-19.6l19.9,17.9c1.8,2.4,1.3,5.8-1.2,7.6
				C668.3,516,667.1,516.4,666,516.4z"/>
		</g>
	</g>
	<g>
		<g>
			<path class="st1" d="M57.8,516.4c-1.1,0-2.3-0.3-3.2-1.1c-2.4-1.8-3-5.2-1.2-7.6l19.9-17.9L64,509.3
				C62.9,510.8,59.5,516.4,57.8,516.4z"/>
		</g>
	</g>
	<g>
		<g>
			<path class="st0" d="M450,572.4c0,0-32.9,30.7-80.9,34c-49.3,3.4-86.5-30.1-86.5-30.1c1.4,5.3,3.2,17.1,13.8,27.6l-0.2,0
				c0,0,0.1,0,0.2,0c0,0,0.1,0.1,0.1,0.1l0.3,0c2,2.7,23,21.7,66.6,23.5c33,1.4,58.7-16.8,63-19.5l0.9-0.2l-0.1,0
				C449,592.8,450,572.4,450,572.4z"/>
		</g>
		<g>
			<path class="st0" d="M369.2,606.4c48-3.3,80.9-34,80.9-34c-34.4,14.9-46.8,10.4-62.2,9.8c-12.1-0.5-18.8,4-21.2,5.9
				c-2.9-2-9.6-5.5-20.7-4.6c-15.4,1.3-27.6,6.3-62.6-7.2l1.8,1.9C294,585.4,327.2,609.3,369.2,606.4z"/>
		</g>
	</g>
	<g>
		<polygon class="st3" points="93.3,320.6 93.3,456.4 104.2,497.3 141.1,517.1 163.6,571.7 182,598.3 563.3,573 592.7,502.7 
			609.1,454.3 632.9,325.4 361.4,296 		"/>
	</g>
	<g>
		<polygon class="st3" points="363,508.4 430.3,518.9 439,519.3 457.6,525.7 558.6,560.7 565.8,566.6 527.6,621.7 473.5,671.3 
			408.9,696.3 352.1,699.4 303.4,691.3 242.9,662.2 197.5,622.1 175.2,589.8 189.3,579.4 296.6,523.9 		"/>
	</g>
	<g>
		<path class="st4" d="M534.9,603c0,0-87.8,79.1-168.3,79.1S199.3,613,199.3,613S247,699.4,373,699.4S534.9,603,534.9,603z"/>
	</g>
	<g>
		<g>
			<path class="st3" d="M128.5,504.8l-0.2-0.2L110.2,492l-0.3-0.5c-0.7-0.7-1.2-1.5-1.5-2.4l-0.3-0.5L99.4,417c0,0,0,0,0,0l0,0
				c-6.5,3.5-13.9,7.7-15.9,9.4c-1.7,1.4-3.1,5.1-1.2,22.2c1.4,12.8,5.9,32.5,10.5,47.3c0,0.1,0.1,0.2,0.1,0.3
				c9.1,6.9,22.5,14.2,36.3,11.6c0.4,1.4,0.8,2.8,1.2,4.2c0.1,0,0.1,0,0.2,0c-0.4-1.4-0.8-2.8-1.3-4.3
				C129.1,506.6,128.8,505.7,128.5,504.8z"/>
		</g>
		<g>
			<path class="st3" d="M641.3,415.6c-1.7-1.4-12.5-7.4-13.8-8.1l-9.7,68.1c-0.2,1.3-0.9,2.5-2,3.3l-0.1,0.1l0,0l-5.2,3.6l-8.6,6
				c-0.3,1.7-0.6,3.1-0.9,4.4c13.6,3.3,26.8-6.5,34.3-13.6c-3.1,12-6.5,21.9-9.1,24.9c0,0,0,0,0.1,0c5.6-6.1,14.7-44.1,16.7-65.8
				C644.5,420.8,643.1,417,641.3,415.6z"/>
		</g>
	</g>
	<g>
		<path class="st4" d="M132.9,495.2l8.2,25.2c0,0,66.2,28,124.2,10.9s78.5-62.1,85.3-87.3S336.9,455,336.9,455
			s-73.7,45.7-117.3,45.7S132.9,495.2,132.9,495.2z"/>
	</g>
	<g>
		<path class="st4" d="M594.8,495.2l-8.2,25.2c0,0-66.2,28-124.2,10.9s-78.5-62.1-85.3-87.3c-6.8-25.2,13.6,10.9,13.6,10.9
			s73.7,45.7,117.3,45.7S594.8,495.2,594.8,495.2z"/>
	</g>
	<g>
		<g>
			<path class="st3" d="M600.9,493c-0.6,3.1-1.1,5.5-2.1,9.3c8,1.9,21,3.3,27.2,2.1c2.7-2.9,6.1-13,9.2-25
				C627.8,486.5,614.6,496.4,600.9,493z"/>
		</g>
		<g>
			<path class="st3" d="M130.5,511.9c-0.4-1.4-0.8-2.8-1.3-4.3c-13.9,2.6-27.4-4.8-36.5-11.8c3,9.5,5.9,16.9,8.2,19.2
				C107.7,516.3,123,514.1,130.5,511.9z"/>
		</g>
	</g>
	<path class="st4" d="M584.2,523c0,0,48-25.5,58-52s2.5-46,2.5-46s-8,48-51.5,70L584.2,523z"/>
	<path class="st4" d="M141.4,520c0,0-48-25.5-58-52s-2.5-46-2.5-46s8,48,51.5,70L141.4,520z"/>
	<g>
		<g>
			<path class="st1" d="M594.7,518c7.3,1.8,18.1,1.5,26,1.5c3.9,0,7.9-0.7,10.5-1.3c5.2-1.3,9.1-4.7,16.6-33.8
				c4.4-16.9,7.5-35.2,8.3-44.7c1.7-18.4,1.1-28.2-6.4-34.4c-3.7-3.1-14.5-8.9-20.1-11.8l-0.3,0l-2,13.9c0,0,12.1,6.7,13.9,8.2
				c1.8,1.5,3.2,5.3,1.6,22.9c-1.9,21.7-11,59.7-16.7,65.8c-6.2,1.2-19.3-0.2-27.2-2.1c1.3-5.5,1.8-8.1,2.8-13.7l-13.6,9.5
				c-0.8,3.4-1.7,6.8-2.6,10.2c-1.4,4.4-2.8,8.7-4.3,12.8c-5.8,16.7-12.4,31.8-19.6,45.5c0,0-0.1,0-0.1,0l0,0.1
				c0,0,5.8,1.1,15.1-3.2l0.2-0.1C587.5,541.8,592.9,524.6,594.7,518z"/>
		</g>
		<g>
			<path class="st1" d="M172.2,600.1l12.8-3.7c0.1,0,0.2-0.1,0.2-0.1l0-0.1c0,0-27.6-45.9-33.9-60.8c-3.7-8.7-5.7-14.6-6.2-16v0
				c-0.5-1.4-1-2.8-1.4-4.2l-5.7-13.8l-14.8-10.4c0.3,0.9,6,15.5,6.3,16.5c0.4,1.4,0.8,2.9,1.3,4.3c-7.5,2.2-22.7,4.3-29.6,3.1
				c-2.2-2.3-5.2-9.7-8.2-19.2c-4.6-14.8-9.1-34.5-10.5-47.3c-1.9-17.1-0.6-20.7,1.2-22.2c2-1.7,9.4-5.9,15.9-9.4l-1.7-14
				c-3.4,1.8-18.2,9.5-22.6,13.3c-7.4,6.2-7.8,15.8-5.8,33.7c1,9.2,4.5,27,9.1,43.4c8,28.1,13.9,33.1,19,34.3
				c2.3,0.6,5.3,0.8,8.7,0.8c9.2,0,21-1.8,28.7-4.1c9,28,21.8,53.4,37.3,75.6C172.1,599.9,172.2,600.1,172.2,600.1z"/>
		</g>
	</g>
	<g>
		<g>
			<path class="st5" d="M92.4,337.3l2.9,10.9c8.1-6.5,15.5-11.8,21.8-16.1C106.9,334.2,98.6,336,92.4,337.3z"/>
		</g>
	</g>
	<g>
		<path class="st4" d="M399.6,363.7l-6.5-3.5c-0.7-0.3-12-5.9-27.9-5.2l-0.7,0l-0.7,0c-16.3-0.7-27.8,5.2-28,5.2l-6.6,3.6l-6.9-2.8
			c-62-23.9-110.4-26.7-146-28.2l-63.5,11.3c-1.6,0.4-3.2,0.9-4.5,1.3c1.3,55.7,12.6,92.9,34.4,113.4c19,17.9,47.3,25.5,94.6,25.5
			c73.1,0,83.3-69.3,83.7-72.3l1.2-8.7l7.9-3.8c0.2-0.1,19-8.1,34.5-8.1c15.6,0,34.4,8,34.5,8.1l7.9,3.8l1.2,8.7
			c0.4,2.9,11.2,72.3,83.7,72.3c47.3,0,75.6-7.6,94.6-25.5c21.3-20,32.5-56,34.2-109.5l-88.4-20.5c-33,3.4-74.7,12.5-125.5,32.1
			L399.6,363.7z"/>
	</g>
	<g>
		<g>
			<path class="st0" d="M699.1,404.3c0,0-131-40.9-155.5-108.2l114.3,13.6C657.9,309.7,649.1,357,699.1,404.3z"/>
		</g>
		<g>
			<path class="st0" d="M225.9,266.7l-72.5,29.5c0,0,5,10.3,5.9,27.7l-86.6,10.3c0,0-2.1,47.3-52.1,94.6c0,0,106.9-25.7,160.7-91.7
				c-4.7,28.4-19.8,42.8-37.3,61.1c0,0,83.7-25.2,136.2-102.9c-3.1,11.9-13.2,50-21.8,64.1c0,0,286.7-71.6,292.7-143l-327.7,43.3
				C223.4,259.8,224.6,262.3,225.9,266.7z"/>
		</g>
		<g>
			<g>
				<path class="st1" d="M720,416.5l-22.5-7c-5.5-1.7-133.8-42.5-159-111.6l-3-8.3L664.3,305l-1.1,5.7c-0.1,0.7-7.3,45.3,39.6,89.6
					L720,416.5z M552.4,302.6c22.7,43.7,92.3,75.3,127.5,89c-27.1-33.6-28.7-64.6-28-77.1L552.4,302.6z"/>
			</g>
			<g>
				<path class="st1" d="M0,440.8l16.8-15.9c47.6-45,50.4-90.4,50.4-90.9l0.2-4.6l4.6-0.6l81.4-9.7c-1.4-12.9-5-20.5-5-20.6
					l-2.5-5.2l5.3-2.2l67.8-27.5c-0.4-0.9-0.6-1.4-0.6-1.5l-3.1-6.7l7.3-1.1l307.2-44.3l-0.6,6.8c-2.6,31.8-49.2,66.4-138.3,102.9
					c-65.2,26.6-130.4,44.7-131.1,44.9l-13.3,3.7l7.1-11.8c2.8-4.6,7.2-14.4,13.5-35.3c-51.9,60.6-118.5,81.3-121.7,82.2l-19.8,6
					l14.3-14.9c7.9-8.2,23.1-25.5,33.6-45.3c-54.1,54.8-147.1,83.4-151.5,84.8L0,440.8z M77.7,339.2c-1.6,11.6-8.5,42.9-37.6,77.1
					c12.1-4.6,28.2-11.2,45.6-19.8c32.7-16.2,76.4-42.9,99.3-78.1l14.3-21.9l-4.3,25.8c-3.9,23.3-19.1,46.5-32.1,62.9
					c27.7-12.5,77.7-40.7,112.8-92.7l17.9-26.5l-8.1,31c-6.3,24-11.9,42.1-16.8,54.1c21.6-6.4,70-21.4,118.3-41.2
					c93.7-38.3,123.3-67.4,130-86.7l-286,41.2c0.1,0.3,0.2,0.6,0.3,0.9l1.4,4.7l-72.2,29.3c1.7,5,3.8,13.4,4.4,24.4l0.3,5.1
					L77.7,339.2z"/>
			</g>
		</g>
	</g>
	<g>
		<path class="st2" d="M670.4,256.7c-0.2-2.4-0.4-4.7-0.7-7c-0.2-1.7-0.5-3.4-0.8-5c-6.3-5.3-13.4-10-20.8-14.2
			c-8-4.7-16.5-8.9-25.1-12.8c-8.5-4-17.3-7.7-26.1-11.2c-4.4-1.8-8.8-3.5-13.3-5.2c-4.4-1.7-8.9-3.4-13.4-5
			c9.4,1.6,18.8,3.7,28.1,6.1c6,1.5,12,3.3,18,5.2C573.9,96.7,472.5,24.6,361.9,24.6c-110.7,0-212,72.2-254.4,182.9
			c5.9-1.9,12-3.6,18-5.2c9.3-2.4,18.6-4.5,28.1-6.1c-4.5,1.6-9,3.3-13.5,5c-4.4,1.6-8.9,3.4-13.3,5.2c-8.8,3.6-17.6,7.2-26.1,11.2
			c-8.6,3.9-17,8.1-25,12.8c-7.4,4.3-14.6,9-20.8,14.2c-0.3,1.6-0.5,3.3-0.7,5c-0.3,2.3-0.5,4.7-0.7,7c-0.4,4.7-0.6,9.5-0.6,14.2
			c-0.1,9.5,0.5,19,1.7,28.4c1.3,9.4,3,18.8,5.6,27.8c1.3,4.5,2.7,9,4.3,13.3c0.8,2.2,1.7,4.3,2.7,6.4c0.5,1,0.9,2.1,1.4,3l0.6,1.2
			c0.7,0.3,1.4,0.7,2.1,1l4.2,2c2.4,1.1,5.6,2.6,8.3,3.8c0.2-0.1,0.3-0.3,0.4-0.4l-7.8-29.8c1.7-0.4,16.5-4.3,42.1-9.2
			c-2.1-0.4-4.1-0.8-6.2-1.3c-5.8-1.5,53.9-9.8,105.5-15.1c47.2-4.9,94.6-8,142.2-8.1c47.6,0.1,95,3.3,142.2,8.1
			c51.7,5.3,125.5,8.5,122.7,9.7c-5.6,2.2-11.3,4-17.1,5.5c-0.9,0.2-1.7,0.4-2.6,0.6c28.1,5.2,44.4,9.4,46.2,9.9l-7.5,28.4
			c1.5-0.7,3-1.3,4.5-2l4.2-2c0.7-0.3,1.4-0.7,2.1-1l0.6-1.2c0.5-1,1-2,1.5-3c0.9-2.1,1.8-4.2,2.7-6.4c1.6-4.3,3.1-8.8,4.3-13.3
			c2.6-9.1,4.3-18.4,5.6-27.8c1.2-9.4,1.9-18.9,1.8-28.4C671,266.2,670.8,261.4,670.4,256.7z"/>
	</g>
	<g class="st6">
		<path class="st7" d="M478.3,201.6c0.4,12.7,0.1,35.7-5.8,57.2c-0.2,0.8-0.2,1.7,0,2.5c-7.5-0.8-15-1.5-22.6-2.1
			c8.4-17.7,10.3-36.5,10.7-43.2C467.1,211.4,473.5,205.9,478.3,201.6z"/>
	</g>
	<g class="st6">
		<path class="st7" d="M263.1,216c0.4,6.6,2.2,25.4,10.7,43.1c-7.5,0.6-15,1.3-22.6,2.1c0.2-0.8,0.2-1.6,0-2.4
			c-5.9-21.5-6.2-44.5-5.8-57.2C250.2,205.9,256.6,211.4,263.1,216z"/>
	</g>
	<g>
		<path class="st1" d="M502.2,302.1c-23.8-2.5-47.7-4.5-71.6-5.9c-23.5-1.4-47-2.2-70.5-2.2c-23.4,0.1-46.8,0.8-70.1,2.2
			c-24.1,1.4-48.1,3.4-72.1,5.9c-51.7,5.3-111.4,13.7-105.5,15.1c1.1,0.3,2.1,0.5,3.2,0.7c1,0.2,2,0.5,3,0.6c0,0,22.8-0.4,64.1-0.8
			c0.4,0,0.8-0.1,1.2-0.1c4.8-0.4,9.6-0.7,14.4-1c5.7-0.4,11.5-0.8,17.2-1.1c1.2-0.1,2.4-0.2,3.6-0.2c3-0.2,6.1-0.3,9.1-0.5
			c7.1-0.4,14.3-0.8,21.4-1.1c10.1-0.5,20.3-0.9,30.4-1.3l44.5-1.2c11.9-0.2,23.8-0.4,35.6-0.4h0h0c8.1,0,16.2,0.1,24.3,0.2
			c0,0,0,0-0.1,0c0,0,0,0,0.1,0l69,1.9c15.9,0.7,31.9,1.4,47.8,2.3c4.4,0.2,8.7,0.5,13,0.8c0.3,0,0.6,0,0.9,0.1
			c5.1,0.3,10.2,0.7,15.3,1.1c24.2,0.1,49.1,0.3,74.8,0.6h0h0c0.9-0.2,1.7-0.4,2.6-0.6C613.5,315.8,553.8,307.4,502.2,302.1z"/>
	</g>
	<g>
		<g>
			<path class="st1" d="M650.3,583.4c-0.9,0-1.8-0.2-2.7-0.7c-0.5-0.3-12.1-24.9-12.1-24.9s17.4,15.4,17.5,15.4
				c2.6,1.5,3.5,4.8,2,7.4C654,582.4,652.2,583.4,650.3,583.4z"/>
		</g>
	</g>
	<g class="st6">
		<path class="st7" d="M236.2,197.6L164.4,218c-4.3,27.9-3,49.2-2.3,56.7l0.4-0.2c0,0,2.3-30.4,7.1-42.1c2.5-6,17.5-9.8,28.9-12.6
			c11.5-2.7,29.8-8.2,33.3,7.9c2.2,10,5.2,18.2,8.1,24.4C235.3,230,235.6,208.3,236.2,197.6z"/>
	</g>
	<g class="st6">
		<path class="st7" d="M487.5,197.6c0.6,11.1,0.9,34-4.3,57.1c3.3-6.3,6.9-15.5,9.4-26.9c3.6-16.1,21.9-10.7,33.3-7.9
			c11.5,2.7,26.5,6.6,29,12.6c4,9.9,6.3,33.2,6.9,40.1c0.7-8.9,1.4-28.9-2.5-54.5L487.5,197.6z"/>
	</g>
	<g class="st6">
		<path class="st7" d="M262.5,203.8c2.5,2,5.2,4,7.8,5.8c1.3,0.9,2,2.3,2.1,3.8c0,0.2,0.6,23.9,11,44c0.2,0.3,0.3,0.6,0.4,0.9
			c26-1.8,52.1-2.5,78.1-2.5c26,0,52.1,0.8,78.1,2.6c0.1-0.3,0.2-0.7,0.4-1c10.4-20.1,11-43.8,11-44c0-1.5,0.8-3,2.1-3.8
			c2.5-1.7,5-3.6,7.5-5.6l0.3-0.9c5.4-52.9-4.5-101.7-10.9-125.8C450,93.8,446.1,235,411.1,235c-37.2,0-44.6,0-44.6,0H359
			c0,0-7.4,0-44.6,0c-37.2,0-40.2-159.2-40.2-159.2l-1.9,5.7C266,106.9,257.2,153.5,262.5,203.8z"/>
	</g>
	<g class="st6">
		<path class="st7" d="M153.2,279.5c0-0.2-0.1-0.4-0.1-0.6c-0.1-0.8-1.9-14-0.8-34.8c-3.9,15.9-11,36.8-22.1,44
			c6.7-3.1,13.6-5.5,20.6-7.8C151.6,280,152.4,279.7,153.2,279.5z"/>
	</g>
	<g>
		<path class="st1" d="M443.4,678.1C417,688.8,392.1,693,373,694.2c-19.1,1.3-38.5-1-57.5-6.1c-0.1,0-0.2,0-0.3,0.1l-25.4,3.7
			c48.7,17.8,102.4,18.9,153.3-0.4c13.9-5.3,26.5-11.7,38.1-18.8c-0.6,0.1-22.2,5.1-37.7,5.5C443.5,678.2,443.5,678.1,443.4,678.1z"
			/>
	</g>
	<g>
		<path class="st1" d="M185.2,596.2c0,0,52.7,74.4,130,91.9l-9.7,4.2l-15.7-0.5c0,0-60.8-17.4-117.7-92l0.7-10.2L185.2,596.2z"/>
	</g>
	<g>
		<g>
			<path class="st1" d="M595.5,289.1c0,0-0.1,0-0.1-0.1c-0.6-0.3-1.3-0.7-1.9-1.1c-6.6-3.1-13.6-5.4-20.6-7.7
				c-0.8-0.3-1.6-0.5-2.5-0.7c0.1-0.2,0.1-0.4,0.2-0.6c0.1-0.8,1.9-14,0.8-34.8c-0.5-8.9-1.4-19.2-3.3-30.5
				c-0.3-1.8-1.6-3.3-3.4-3.8l-10.2-2.9c-2.2-79.2-34.8-116.4-35.8-117.6c29.1,46.9,28.9,102.5,28.4,115.5l-63.5-18c0,0-0.1,0-0.1,0
				c-0.3-0.1-0.5-0.1-0.8-0.1c-0.1,0-0.1,0-0.2,0c-0.3,0-0.7,0-1,0.1c0,0-0.1,0-0.2,0c-0.3,0.1-0.5,0.1-0.8,0.3
				c-0.1,0-0.2,0.1-0.3,0.1c-0.2,0.1-0.4,0.3-0.6,0.4c0,0-0.1,0.1-0.1,0.1c-0.1,0-0.1,0.1-0.1,0.1c-0.1,0.1-0.1,0.1-0.2,0.1
				c-0.1,0.1-1.8,1.7-4.4,4.2c0.2-5.9,0.2-15-0.4-26.1c-0.1-1-0.1-2.1-0.2-3.2c-2-27.9-8.6-67-28.3-101.3c0.2,0.5,2.1,6.2,4.6,15.8
				c6.3,24.1,16.3,72.9,10.9,125.8c0,0.2,0,0.5-0.1,0.7c-0.1,0.1-0.2,0.1-0.3,0.2c-2.5,2-5,3.9-7.5,5.6c-1.3,0.9-2,2.3-2.1,3.8
				c0,0.2-0.6,23.9-11,44c-0.2,0.3-0.3,0.7-0.4,1c-26-1.8-52-2.5-78.1-2.6c-26,0-52.1,0.7-78.1,2.5c-0.1-0.3-0.2-0.6-0.4-0.9
				c-10.5-20.1-11-43.8-11-44c0-1.5-0.8-3-2.1-3.8c-2.6-1.8-5.3-3.7-7.8-5.8c-5.3-50.3,3.4-97,9.8-122.4c3-12.1,5.5-19.3,5.7-19.9
				c-28.6,49.7-29.5,109.7-28.9,130.6c-2.7-2.5-4.4-4.2-4.4-4.2c0,0-0.1-0.1-0.2-0.1c0,0-0.1-0.1-0.1-0.1c0,0-0.1-0.1-0.2-0.1
				c-0.2-0.1-0.4-0.3-0.6-0.4c-0.1-0.1-0.2-0.1-0.3-0.2c-0.3-0.1-0.5-0.2-0.8-0.3c-0.1,0-0.1-0.1-0.2-0.1c-0.4-0.1-0.7-0.1-1-0.1
				c-0.1,0-0.2,0-0.3,0c-0.3,0-0.5,0.1-0.8,0.1c-0.1,0-0.1,0-0.2,0l-63.4,18c-0.5-13-0.8-68.6,28.4-115.5
				c-1,1.2-33.6,38.4-35.8,117.6l-10.2,2.9c-1.8,0.5-3.1,2-3.4,3.8c-1.9,11.3-2.8,21.5-3.3,30.4c-1.1,20.8,0.7,34.1,0.8,34.8
				c0,0.2,0.1,0.4,0.1,0.6c-0.8,0.3-1.6,0.5-2.5,0.7c-7,2.3-14,4.7-20.6,7.8c-0.6,0.4-1.2,0.8-1.9,1.1c0,0-0.1,0-0.1,0.1
				c-0.3,0.2-1.6,0.8-3,1.5c-0.6,0.3-1.1,0.5-1.6,0.8c0,0,0,0,0,0c-0.3,0.2-0.7,0.4-1,0.5c4.7-1.8,9.6-3.2,14.4-4.4
				c4.9-1.2,9.8-2.3,14.7-3.2c9.9-1.8,19.8-3.4,29.7-4.6c9.9-1.3,19.9-2.4,29.9-3.2c10-0.9,20-1.7,30-2.3
				c40.1-2.4,80.2-3.1,120.4-3.1c40.2,0,80.4,0.7,120.4,3.1c10,0.6,20,1.4,30,2.3c10,0.9,20,1.9,29.9,3.3c10,1.2,19.9,2.8,29.7,4.6
				c4.9,0.9,9.8,2,14.7,3.2c4.9,1.2,9.7,2.5,14.5,4.4c-0.3-0.2-0.5-0.3-0.8-0.4c-0.6-0.3-1.2-0.6-1.8-0.9
				C597.1,289.8,595.9,289.2,595.5,289.1z M240.4,262.4c-10.1,1.2-20.2,2.5-30.2,4.2c-10,1.7-20,3.5-29.9,5.7c-6,1.4-12,2.9-18,4.5
				c-0.1-0.5-0.1-1.2-0.2-2.1c-0.7-7.4-2-28.7,2.3-56.7l71.8-20.4c-0.5,10.7-0.8,32.3,3.8,54.5c0.6,3.1,1.4,6.1,2.2,9.2
				c0.1,0.3,0.2,0.6,0.3,0.9C241.8,262.3,241.1,262.3,240.4,262.4z M251.2,261.2c0.2-0.8,0.2-1.6,0-2.4c-5.9-21.5-6.2-44.5-5.8-57.2
				c4.8,4.3,11.2,9.8,17.7,14.4c0.4,6.6,2.2,25.4,10.7,43.1C266.2,259.8,258.7,260.4,251.2,261.2z M472.5,258.8
				c-0.2,0.8-0.2,1.7,0,2.5c-7.5-0.8-15-1.5-22.6-2.1c8.4-17.7,10.3-36.5,10.7-43.2c6.5-4.6,12.9-10.1,17.7-14.4
				C478.7,214.3,478.4,237.3,472.5,258.8z M561.8,272.5c-0.2,2.1-0.3,3.6-0.4,4.3c-5.9-1.6-11.9-3.1-18-4.5
				c-19.9-4.4-39.9-7.6-60.1-9.9c-0.7-0.1-1.4-0.1-2.1-0.2c0.1-0.3,0.3-0.6,0.3-0.9c0.6-2.2,1.1-4.4,1.6-6.6c5.2-23,4.9-46,4.3-57.1
				l71.8,20.4C563.3,243.6,562.5,263.6,561.8,272.5z"/>
		</g>
		<g>
			<path class="st1" d="M366.5,245.9c0,0,6,0,33.7,0v-45.4h-14.4V120h9.5v17.4h42.2V77.8H288.9v59.6h42.2V120h9.5v80.4h-14.3v45.4
				c27,0,32.8,0,32.8,0H366.5z M338.9,213.2h14.4V107.4h-34.9v17.4h-16.9V90.5h71.6h33.3h18.4v34.3H408v-17.4h-34.9v105.8h14.4v19.6
				h-48.5V213.2z"/>
		</g>
		<g>
			<path class="st1" d="M80.5,356.4c-1.8-0.8-3.6-1.7-5.1-2.4l-4.2-2c-0.7-0.3-1.4-0.7-2.1-1l0,0c0,0,0,0,0,0l-0.6-1.1
				c-0.5-1-1-2-1.4-3c-0.8-1.8-1.6-3.6-2.3-5.5c-0.1-0.3-0.2-0.5-0.3-0.8c-1.6-4.3-3.1-8.8-4.3-13.3c-2.5-9-4.3-18.4-5.6-27.8
				c-0.4-3-0.7-6-1-9c-0.6-6.4-0.9-12.9-0.8-19.3c0-2.1,0.1-4.2,0.2-6.4c0.1-2.6,0.2-5.2,0.5-7.9c0.2-2.4,0.5-4.7,0.7-7
				c0.2-1.6,0.5-3.4,0.7-5c6.3-5.3,13.4-10,20.8-14.3c8-4.7,16.5-8.9,25-12.8c8.6-4,17.3-7.7,26.1-11.2c4.4-1.8,8.9-3.5,13.3-5.2
				c0.6-0.2,1.2-0.4,1.8-0.7c3.9-1.5,7.7-2.9,11.6-4.3c-9.4,1.6-18.8,3.7-28.1,6.1c-6,1.5-12,3.3-18,5.2
				C149.8,96.7,251.2,24.6,361.9,24.6c17.3,0,34.4,1.8,51,5.2c89.9,18.3,167.6,84.3,203.4,177.8c0,0,0,0,0,0c0,0,0,0,0,0
				c-5.9-1.9-12-3.6-18-5.2c-9.3-2.4-18.6-4.5-28-6.1c3.9,1.4,7.8,2.8,11.7,4.3c0.6,0.2,1.2,0.4,1.7,0.6c4.5,1.7,8.9,3.4,13.3,5.2
				c8.8,3.6,17.6,7.2,26.1,11.2c8.6,3.9,17,8.1,25.1,12.8c7.4,4.3,14.6,9,20.8,14.3c0.3,1.6,0.6,3.3,0.8,5c0.3,2.3,0.5,4.7,0.7,7
				c0.4,4.7,0.6,9.5,0.6,14.2c0.1,9.5-0.6,19-1.8,28.4c-1.3,9.4-3,18.8-5.6,27.8c-1.3,4.5-2.7,9-4.3,13.3c-0.8,2.2-1.7,4.3-2.7,6.4
				c-0.5,1-1,2.1-1.5,3l-0.6,1.2c-0.7,0.3-1.4,0.7-2.1,1l-4.2,2c-1.5,0.7-3,1.3-4.5,2l-9.6,36.5l5.1-19.2c1.8-0.8,3.7-1.5,5.8-2.4
				c3.1-1.2,6.1-2.4,9.2-3.7l4.5-2c1.6-0.7,3-1.4,4.7-2.3l1.6-0.8l1-1.6c0.6-0.9,0.9-1.3,1.2-2l1-1.8c0.7-1.2,1.3-2.4,1.8-3.6
				c1.1-2.4,2.2-4.8,3.1-7.3c1.9-4.9,3.5-9.7,4.9-14.7c2.7-9.9,4.6-20,5.7-30.1c1.2-10.1,1.4-20.4,0.9-30.6
				c-0.2-5.1-0.8-10.2-1.5-15.2c-0.3-2.5-0.7-5.1-1.2-7.6c-0.5-2.6-1-5-1.8-7.8l-0.5-2l-1.4-1.1c-8-6.3-16.7-11.1-25.5-15.3
				c-7.3-3.4-14.6-6.4-22.1-9.2c-20.8-57.7-56.6-108.9-103.6-144.6c-48.6-36.9-105.7-56.4-165.3-56.4c-59.5,0-116.7,19.5-165.3,56.4
				c-47,35.7-82.8,86.8-103.6,144.6c-7.4,2.7-14.8,5.7-22.1,9.2c-8.8,4.2-17.5,9-25.5,15.3l-1.4,1.1l-0.5,2
				c-0.8,2.8-1.3,5.2-1.8,7.8c-0.5,2.5-0.9,5-1.2,7.6c-0.7,5-1.2,10.1-1.5,15.2c-0.5,10.2-0.2,20.4,0.9,30.6
				c1.1,10.1,3,20.2,5.7,30.1c1.4,4.9,3,9.8,4.9,14.7c0.9,2.4,2,4.8,3.1,7.3c0.6,1.2,1.2,2.4,1.8,3.6l1,1.8c0.4,0.7,0.6,1.1,1.2,2
				l1,1.6l1.6,0.8c1.7,0.9,3.1,1.6,4.7,2.3l4.5,2c0.8,0.3,1.6,0.7,2.5,1l11.7-10.4C82.7,357.4,81.6,356.9,80.5,356.4z"/>
		</g>
	</g>
	<g>
		<polygon class="st0" points="338.9,213.2 353.3,213.2 353.3,107.4 318.4,107.4 318.4,124.8 301.5,124.8 301.5,90.5 373.1,90.5 
			406.4,90.5 424.8,90.5 424.8,124.8 408,124.8 408,107.4 373.1,107.4 373.1,213.2 387.4,213.2 387.4,232.8 338.9,232.8 		"/>
	</g>
	<g>
		<path class="st1" d="M481.2,672.7c0,0,67.8-43,95.6-109.2l-8.4-3.1l-6.6,6.1c0,0-48.9,82-118.3,111.6l-0.9,4.7L481.2,672.7z"/>
	</g>
	<g>
		<path class="st1" d="M409.4,510.2c0,0-16,14.9-41.9,18.2c-25.8,3.3-46.1-12.5-46.1-12.5c0.9,2.7,2.1,8.9,7.8,14.2l-0.1,0
			c0,0,0,0,0.1,0c0,0,0,0,0,0l0.1,0c1.1,1.4,12.6,10.9,35.6,10.9c17.4,0,30.5-10.1,32.7-11.6l0.5-0.1l-0.1,0
			C409.3,521,409.4,510.2,409.4,510.2z"/>
	</g>
	<g>
		<path class="st8" d="M491.8,517.1c-73.7,0-105.5-54.4-114.2-90.4c-4.4-1.3-9.5-2.4-13.1-2.4c-3.6,0-8.6,1.1-13.1,2.4
			c-8.7,36-40.5,90.4-114.2,90.4c-97.1,0-161.8-31.1-161.8-182.8v-8.6l7-4.9c3.3-2.3,80.8-54.2,245.4,7.2c7.6-2.8,20.6-6.4,36.7-5.8
			c16.1-0.6,29.1,3,36.7,5.8c164.5-61.4,242.1-9.5,245.4-7.2l7,4.9v8.6C653.6,486,588.9,517.1,491.8,517.1z M364.5,391.5
			c15.5,0,34.3,8,34.5,8l7.9,3.8l1.2,8.7c0.4,2.9,11.2,72.3,83.7,72.3c47.3,0,75.6-7.6,94.6-25.5c22-20.7,33.2-58.3,34.4-114.8
			c-8.1-3.7-23.2-9.1-45.6-11.7c-33.1-3.8-89.3-1.9-168.5,28.6l-7,2.7l-6.5-3.5c-0.7-0.3-12-5.9-27.9-5.2l-0.7,0l-0.7,0
			c-16.3-0.7-27.8,5.2-28,5.2l-6.6,3.6l-6.9-2.8c-79.2-30.5-135.3-32.4-168.5-28.6c-22.3,2.6-37.4,8-45.6,11.7
			c1.1,56.5,12.4,94.1,34.4,114.8c19,17.9,47.3,25.5,94.6,25.5c73.1,0,83.3-69.3,83.7-72.3l1.2-8.7l7.9-3.8
			C330.1,399.4,349,391.5,364.5,391.5z"/>
	</g>
	<g>
		<g>
			<path class="st1" d="M665.3,618c3.6-16,2.7-19.1,1.1-23.2c-3.6-9.2-7.7-11-8.1-11.2c-2.4-1.8-5.8-1.3-7.6,1.2
				c-1.8,2.4-1.3,5.8,1.1,7.6c0.3,0.2,3.9,2.5,7.9,8C661.5,602.9,662.8,606.3,665.3,618z"/>
		</g>
	</g>
	<g>
		<circle class="st9" cx="248.9" cy="397" r="10.9"/>
	</g>
	<g>
		<circle class="st9" cx="481.7" cy="397" r="10.9"/>
	</g>
	<g>
		<g>
			<path class="st1" d="M491.8,522.5c-69.6,0-106.7-46.7-118.7-91.5c-3.6-0.9-6.6-1.4-8.6-1.4c-2,0-5,0.5-8.6,1.4
				c-12,44.8-49.1,91.5-118.7,91.5c-57.4,0-94.7-11.1-121.1-36C85.1,457.2,70,407.4,70,334.2v-12.9l11.7-6.4
				c9.7-5.8,31.4-16.3,67.3-20.5c52.3-6.2,112.5,3.2,178.9,27.8c8.4-2.9,21.1-6,36.6-5.5c15.5-0.5,28.2,2.5,36.6,5.5
				c66.4-24.6,126.6-34,178.9-27.8c35.9,4.2,57.6,14.7,67.3,20.5l0.4,0.2l11.3,6.2v12.9c0,73.1-15.1,122.9-46.2,152.3
				C586.5,511.4,549.1,522.5,491.8,522.5z M364.5,418.8c4.5,0,10.4,1.4,14.6,2.7l3,0.9l0.7,3.1c3.5,14.4,25.1,86.3,108.9,86.3
				c54.4,0,89.4-10.2,113.6-33c28.8-27.2,42.8-74.4,42.8-144.3v-6.5l-5.7-3.1c-0.1-0.1-0.4-0.2-0.7-0.4
				c-13.8-8.3-90.2-46.7-238.6,8.9l-1.9,0.7l-1.9-0.7c-7.5-2.8-19.6-6-34.6-5.5l-0.2,0l-0.2,0c-15.1-0.5-27.1,2.7-34.6,5.5l-1.9,0.7
				l-1.9-0.7c-65.5-24.5-124.6-33.9-175.6-27.9c-35.1,4.2-55.8,14.7-63,19c-0.3,0.2-0.6,0.3-0.7,0.4l-5.7,3.1v6.5
				c0,69.9,14,117.2,42.8,144.3c24.2,22.8,59.2,33,113.6,33c83.8,0,105.4-71.9,108.9-86.3l0.7-3.1l3-0.9
				C354.1,420.2,360,418.8,364.5,418.8z M491.8,489.8c-77.1,0-88.7-73.8-89.1-77l-0.8-5.8l-5.2-2.6l0,0c0,0-17.8-7.5-32.1-7.5
				c-14.4,0-32.2,7.5-32.3,7.6l-5,2.5l-0.8,5.8c-0.4,3.1-11.3,77-89.1,77c-48.8,0-78.2-8.1-98.3-27c-22.9-21.6-34.7-60-36.1-117.3
				l-0.1-4.1l3.9-1.2c1.1-0.3,2.2-0.7,3.5-1.1c26.4-8.5,88.3-28.5,205.9,16.8l5,2c6.1-2.3,23.9-8.4,42.8-8.4c19,0,37.9,6.2,44,8.4
				l5.1-2c117.7-45.4,179.5-25.4,205.9-16.8c1.3,0.4,2.4,0.8,3.5,1.1l3.9,1.2l-0.1,4.1c-1.3,57.3-13.1,95.7-36.1,117.3
				C570,481.7,540.6,489.8,491.8,489.8z M364.5,386c17.1,0,36.7,8.5,36.9,8.6l10.5,5.1l1.6,11.6c0.4,2.7,10.5,67.6,78.3,67.6
				c45.8,0,72.9-7.2,90.8-24c20.2-19,30.8-53.6,32.5-105.5c-25.5-8.2-84.7-27-198.3,16.7l-9,3.5l-2-0.8c-0.2-0.1-21.5-8.4-42-8.4
				c-20.5,0-40.5,8.3-40.7,8.4l-2.1,0.9l-9-3.6c-113.4-43.7-172.7-24.9-198.2-16.7c1.7,51.9,12.4,86.5,32.5,105.5
				c17.9,16.9,45.1,24,90.8,24c68.4,0,77.9-64.8,78.3-67.6l1.6-11.6l10.5-5.1C327.8,394.5,347.4,386,364.5,386z"/>
		</g>
	</g>
	<g>
		<g>
			<path class="st1" d="M515,376.4c-0.1,0.5-2.6,9-15.7,8.4c0.7,1.3,1.1-2.7-6-6.9C502.4,378.6,509,379.5,515,376.4z"/>
		</g>
		<g>
			<path class="st1" d="M518.8,381.5c-0.1,0.5-2.6,9-15.7,8.4c0.7,1.3,1.1-2.7-6-6.9C506.2,383.7,512.8,384.7,518.8,381.5z"/>
		</g>
		<g>
			<path class="st1" d="M521.7,387.8c-0.1,0.5-2.6,9-15.7,8.4c0.7,1.3,1.1-2.7-6-6.9C509.1,390.1,515.7,391,521.7,387.8z"/>
		</g>
		<g>
			<path class="st1" d="M480.3,441.3c1.2,0.2,2.3,0.3,3.4,0.4c15.6,1.4,22-6.5,22-6.5c2.2-3.2,3.6-7.8,4.2-14.3
				c2-23.5-8.5-44.2-23.4-46.1c-14.9-1.9-27.6,15.8-30.6,39.3C453,437.5,465.4,439.4,480.3,441.3z M474,395.9
				c0.6-4.2,4.5-7.1,8.7-6.5c4.2,0.6,7.1,4.5,6.5,8.7c-0.6,4.2-4.5,7.1-8.7,6.5C476.3,404,473.4,400,474,395.9z"/>
		</g>
	</g>
	<g>
		<g>
			<path class="st1" d="M215.5,375.9c0.1,0.5,2.4,9.1,15.6,8.6c-0.7,1.3-1-2.7,6.1-6.8C228.1,378.4,221.4,379.2,215.5,375.9z"/>
		</g>
		<g>
			<path class="st1" d="M211.6,381c0.1,0.5,2.4,9.1,15.6,8.6c-0.7,1.3-1-2.7,6.1-6.8C224.2,383.4,217.5,384.3,211.6,381z"/>
		</g>
		<g>
			<path class="st1" d="M208.6,387.3c0.1,0.5,2.4,9.1,15.6,8.6c-0.7,1.3-1-2.7,6.1-6.8C221.1,389.7,214.5,390.6,208.6,387.3z"/>
		</g>
		<g>
			<path class="st1" d="M273.9,414.6c-2.6-23.5-15-41.4-29.9-39.7c-14.9,1.7-25.8,22.2-24.1,45.8c0.4,6.5,1.9,11.1,4,14.3
				c0,0,6.3,8,21.9,6.8c1.1-0.1,2.2-0.2,3.4-0.4C264.1,439.7,276.6,438.1,273.9,414.6z M249.6,404.7c-4.2,0.5-8.1-2.4-8.6-6.6
				c-0.6-4.2,2.4-8.1,6.6-8.6c4.2-0.5,8.1,2.4,8.6,6.6C256.7,400.3,253.8,404.1,249.6,404.7z"/>
		</g>
	</g>
	<g>
		<path class="st10" d="M420.1,600.7c0,0-18.7-4.9-24.5-4.9c-5.8,0-31.8,7.2-31.8,7.2l-31.8-12.7l-24.5,10.3l30.7,10.8h20.2l5.6,2.7
			c0,0,17.4-1.3,25.7-2.7c8.3-1.4,30.7-10.8,30.7-10.8l19.4-10.9"/>
	</g>
	<g>
		<path class="st9" d="M361,603c0,0,0,3.7,2.7,3.7s33.4-0.2,53.8-6l-16.3-9.7l-39.6,1.1L361,603z"/>
	</g>
	<g>
		<path class="st9" d="M365.6,603c0,0,0,3.7-2.7,3.7s-33.4-0.2-53.8-6l16.3-9.7l39.6,1.1L365.6,603z"/>
	</g>
	<g>
		<path class="st0" d="M445,587c-0.1-0.1-0.2,0-0.2,0s-15.7,7.3-24-1c-8.3-8.3-21.4-16.4-31.8-16.4c-8.8,0-21.1,7.4-24.5,9.6
			c-4-2.2-18.3-9.6-27.1-9.6c-10.3,0-23.5,8.2-31.8,16.4c-8.3,8.3-24,1-24,1s-0.1,0-0.2,0c-0.1,0.1,0,0.1,0,0.1l27.7,29.5
			c0,0,13.8,15.5,21.8,19.8c8,4.3,26.4,7.5,31.7,7.5c0.1,0,0.7,0,0.7,0v0c0.1,0,0.3,0,0.3,0c5.3,0,23.7-3.2,31.7-7.5
			c8-4.3,21.8-19.8,21.8-19.8l27.7-29.5C445,587.2,445.1,587.1,445,587z M420.2,600.7c0,0-22.4,9.4-30.7,10.8
			c-8.3,1.4-26,2.7-26,2.7s-18.1-1.3-26.4-2.7c-8.3-1.4-30.7-10.8-30.7-10.8l-0.1,0l0.2,0c0,0,18.7-4.9,24.5-4.9
			c5.8,0,31.8,7.2,31.8,7.2c0,0,0.2,0,0.4,0c0.1,0,0.3,0,0.3,0c0.1,0,26-7.2,31.8-7.2c5.8,0,24.5,4.9,24.5,4.9H420.2L420.2,600.7z"
			/>
	</g>
	<g>
		<path class="st1" d="M363.5,616.9l-0.2,0c-0.7-0.1-18.3-1.3-26.7-2.8c-8.5-1.5-30.4-10.6-31.3-11l-0.3-0.1l-13.4-7.3l14.7,2.2
			c3.5-0.9,19.1-4.8,24.7-4.8c5.3,0,28.7,3.8,32.2,4.5c3.4-0.7,26.8-4.5,32.2-4.5c5.6,0,21.1,3.9,24.7,4.8l14.5-2.2l-13.4,7.5
			c-0.9,0.4-22.8,9.5-31.3,11c-8.3,1.4-25.5,2.7-26.2,2.8L363.5,616.9z M315.4,601.3c7.1,2.8,17.4,6.6,22.2,7.5
			c7.6,1.3,23.9,2.5,25.9,2.7c2-0.1,17.9-1.4,25.5-2.7c4.9-0.8,15.1-4.6,22.2-7.5c-5.9-1.4-12.9-2.8-15.7-2.8
			c-5.2,0-29.4,4.1-31.3,4.4c0,0-0.5,0.1-0.9,0.1c-0.3,0-0.8-0.1-0.8-0.1l-0.3,0c-2.8-0.5-26.1-4.4-31.2-4.4
			C328.2,598.5,321.3,599.9,315.4,601.3z"/>
	</g>
	<g>
		<g>
			<polygon class="st2" points="665.2,576.8 627.8,585.3 630.3,594.3 666.3,585.3 			"/>
		</g>
		<g>
			<path class="st1" d="M665.2,576.8l1.1,8.5l-36,9l-2.5-9L665.2,576.8 M665.2,571.3c-0.4,0-0.8,0-1.2,0.1l-37.4,8.5
				c-1.5,0.3-2.7,1.2-3.5,2.5c-0.8,1.3-1,2.8-0.6,4.3l2.5,9c0.7,2.4,2.9,4,5.3,4c0.4,0,0.9-0.1,1.3-0.2l36-9c2.7-0.7,4.4-3.2,4.1-6
				l-1.1-8.5c-0.2-1.5-1-2.9-2.3-3.8C667.4,571.7,666.3,571.3,665.2,571.3L665.2,571.3z"/>
		</g>
	</g>
	<g class="st6">
		<path class="st7" d="M570.8,279.5c0-0.2,0.1-0.4,0.1-0.6c0.1-0.8,1.9-14,0.8-34.8c3.9,15.9,11,36.8,22.1,44
			c-6.7-3.1-13.6-5.5-20.6-7.8C572.5,280,571.6,279.7,570.8,279.5z"/>
	</g>
	<path class="st1" d="M443.1,583.3c-0.1,0.1-13.2,5.9-19.3-0.2c-8.8-8.8-22.9-17.6-34.7-17.6c-8.5,0-19,5.5-24.7,9
		c-6.5-3.4-18.5-9-26.9-9c-11.8,0-25.9,8.9-34.7,17.6c-6.1,6-19.2,0.2-19.4,0.1c0,0-8.3-3-8.3-1.9c0,1.1,31.1,38,31.1,38
		c0.6,0.7,14.4,16.1,22.9,20.7c8.9,4.8,28.2,8,33.6,8c0.3,0,0.5,0,0.7,0l0.3,0c5.4,0,24.8-3.2,33.7-8c8.5-4.6,22.3-20,22.8-20.6
		c0,0,31-37.2,31-38.1C451.4,580.3,443.1,583.3,443.1,583.3z M414.3,613.9c-3.7,4.2-14.7,15.7-20.7,18.9c-7.2,3.9-25,7-29.7,7
		l-0.6,0l-0.4,0c-4.7,0-22.5-3.1-29.7-7c-6-3.3-17-14.8-20.8-19l-18.6-19.8c5.1,0.2,10.7-0.9,14.9-5.1c7.6-7.6,19.9-15.2,28.9-15.2
		c6.2,0,17.1,4.7,25.1,9.1l2.1,1.2l2-1.3c6.8-4.3,16.2-9,22.3-9c8.9,0,21.3,7.7,28.9,15.2c4.3,4.3,9.8,5.3,14.9,5.1L414.3,613.9z"/>
</g>
</svg>
