<?xml version="1.0" encoding="utf-8"?>
<!-- Generator: Adobe Illustrator 19.2.1, SVG Export Plug-In . SVG Version: 6.00 Build 0)  -->
<svg version="1.1" id="Tessa-Pride-4" xmlns="http://www.w3.org/2000/svg" xmlns:xlink="http://www.w3.org/1999/xlink" x="0px"
	 y="0px" viewBox="0 0 252.667 254.399" style="enable-background:new 0 0 252.667 254.399;" xml:space="preserve">
<style type="text/css">
	.st0{fill:#CB3349;}
	.st1{fill:#32994F;}
	.st2{fill:#1E72B7;}
	.st3{fill:#6F5BA7;}
	.st4{fill:#2D3136;}
	.st5{fill:#FFFFFF;}
	.st6{fill:#856A5B;}
	.st7{fill:#695348;}
	.st8{fill:#9A9C9E;}
	.st9{opacity:0.8;fill:#6A5853;}
	.st10{fill:#51B95B;}
	.st11{fill:none;stroke:#2D3136;stroke-width:4;stroke-linecap:round;stroke-linejoin:round;stroke-miterlimit:10;}
	.st12{fill:#F4EDAE;}
	.st13{fill:none;}
	.st14{fill:#E5D667;}
	.st15{fill:#DACD52;}
	.st16{fill:#E2453C;}
	.st17{fill:#E07E39;}
	.st18{fill:#8D9294;}
	.st19{fill:#C6B22F;}
	.st20{fill:#A34D24;}
	.st21{fill:#A82023;}
	.st22{fill:#CC4032;}
	.st23{fill:#A1A0A0;}
	.st24{fill:#414042;}
	.st25{fill:none;stroke:#2D3136;stroke-width:2;stroke-linecap:round;stroke-linejoin:round;stroke-miterlimit:10;}
	.st26{fill:#DD8142;}
	.st27{fill:#D8D8D8;}
	.st28{fill:none;stroke:#2D3136;stroke-width:3;stroke-linecap:round;stroke-linejoin:round;stroke-miterlimit:10;}
</style>
<g id="Tessa-Pride">
	<path class="st0" d="M29.319,118.142c2.226-0.596-5.313-1.299-2.702-2.117c-0.001,2.389,23.674-22.587,23.82-20.398
		c-0.333,0.169-0.625,0.328-0.85,0.471c-3.015,1.917-3.662,5.471-3.901,12.232c-0.122,3.472,0.174,10.295,0.985,16.629
		c1.392,10.898,2.684,12.328,4.499,13.038c0.917,0.365,2.346,0.794,3.763,0.973c2.887,0.364-16.799,28.202-14.07,27.898
		c0.03,0.204,0.068,0.443,0.109,0.7c-1.233,2.201-2.477,3.342-2.477,3.342c4.29,12.945-3.543,20.115-3.543,20.115
		c2.927,13.428-9.251,16.601-9.251,16.601l-0.88,3.856c2.365,3.82,6.442,2.714,4.34,19.379s-13.183,19.457-13.183,19.457
		c0.828-2.577-3.93-8.709-3.93-8.709c-15.862-31.307,8.153-30.709,8.153-30.709l0.17-4.002c0,0-6.94-8.397-6.232-14.007
		c0.708-5.61,3.784-10.439,3.784-10.439s-4.343-8.091-3.656-13.536c0.687-5.445,2.939-8.681,2.939-8.681s-3.127-7.099-2.315-13.534
		c0.812-6.435,4.53-10.659,4.53-10.659s6.83-5.429,7.6-11.534C27.367,121.764,28.346,119.647,29.319,118.142z"/>
	<path class="st0" d="M234.535,118.142c-2.226-0.596-4.687-1.299-7.298-2.117c0.001,2.389-23.674-22.587-23.82-20.398
		c0.333,0.169,0.625,0.328,0.85,0.471c3.015,1.917,3.662,5.471,3.901,12.232c0.122,3.472-0.174,10.295-0.985,16.629
		c-1.392,10.898-2.684,12.328-4.499,13.038c-0.917,0.365-2.346,0.794-3.763,0.973c-2.887,0.364,16.799,28.202,14.07,27.898
		c-0.03,0.204-0.068,0.443-0.109,0.7c1.234,2.201,2.477,3.342,2.477,3.342c-4.29,12.945,3.543,20.115,3.543,20.115
		c-2.927,13.428,9.251,16.601,9.251,16.601l0.88,3.856c-2.365,3.82-6.442,2.714-4.34,19.379
		c2.102,16.665,13.183,19.457,13.183,19.457c-0.828-2.577,3.93-8.709,3.93-8.709c15.862-31.307-8.153-30.709-8.153-30.709
		l-0.17-4.002c0,0,6.94-8.397,6.232-14.007c-0.708-5.61-3.568-10.38-3.568-10.38s4.127-8.15,3.44-13.595
		c-0.687-5.445-2.939-8.681-2.939-8.681s3.127-7.099,2.315-13.534c-0.812-6.435-4.53-10.659-4.53-10.659s3.17-5.429,2.4-11.534
		C236.487,121.764,235.508,119.647,234.535,118.142z"/>
	<path class="st1" d="M202.684,137.999c-0.917,0.365-2.346,0.794-3.763,0.973c-2.887,0.364,16.799,28.202,14.07,27.898
		c-0.03,0.204-0.068,0.443-0.109,0.7c1.234,2.201,2.477,3.342,2.477,3.342c-0.818,2.469-1.193,4.727-1.268,6.766l21.157-0.023
		l2.911,2.997c0.932-2.701,1.767-9.046,1.428-11.735c-0.687-5.445-2.939-8.681-2.939-8.681s3.127-7.099,2.315-13.534
		c-0.812-6.435-4.53-10.659-4.53-10.659s0.452-0.776,0.974-2.069l-29.877,0.033C204.68,136.866,203.777,137.571,202.684,137.999z"/>
	<path class="st1" d="M40.972,167.57c-0.041-0.256-0.079-0.496-0.109-0.7c-2.729,0.303,16.957-27.534,14.07-27.898
		c-1.417-0.179-2.846-0.608-3.763-0.973c-1.07-0.419-1.958-1.105-2.793-3.819l-26.962,0.03c-1.136,1.145-1.994,1.832-1.994,1.832
		s-3.718,4.224-4.53,10.659c-0.812,6.435,2.315,13.534,2.315,13.534s-2.252,3.236-2.939,8.681c-0.351,2.782,0.611,9.249,1.636,11.98
		l4.051-3.002l2.75-5.006l17.061,4.982c-0.057-2.09-0.427-4.411-1.271-6.959C38.496,170.911,39.739,169.77,40.972,167.57z"/>
	<path class="st2" d="M17.924,182.452c0,0-3.077,4.829-3.784,10.439c-0.708,5.61,6.232,14.007,6.232,14.007l-0.17,4.002
		c0,0-12.012-0.296-13.432,10.609l22.938-0.025c-0.341-7.036-3.101-7.117-4.886-10.001l0.88-3.856c0,0,12.178-3.173,9.251-16.601
		c0,0,5.048-4.628,4.815-13.156l-16.677-6.131L17.924,182.452z"/>
	<path class="st3" d="M12.049,241.61c0,0,4.758,6.132,3.93,8.709c0,0,11.08-2.793,13.182-19.457
		c0.515-4.083,0.658-7.095,0.547-9.378L6.77,221.509C6.183,226.021,7.407,232.447,12.049,241.61z"/>
	<path class="st2" d="M233.652,210.9l-0.17-4.002c0,0,6.94-8.397,6.232-14.007c-0.708-5.61-3.568-10.38-3.568-10.38
		s-4.565-9.312-4.988-11.86l-17.068,7.027c-0.316,8.651,4.811,13.348,4.811,13.348c-2.927,13.428,9.251,16.601,9.251,16.601
		l0.88,3.856c-1.767,2.854-4.49,2.961-4.876,9.785l22.892-0.025C245.471,210.608,233.652,210.9,233.652,210.9z"/>
	<path class="st3" d="M224.692,230.862c2.102,16.665,13.183,19.457,13.183,19.457c-0.828-2.577,3.93-8.709,3.93-8.709
		c4.734-9.343,5.915-15.843,5.244-20.367l-22.892,0.025C224.025,223.577,224.161,226.65,224.692,230.862z"/>
	<path class="st3" d="M29.708,221.484c-0.271-5.586-2.066-6.79-3.688-8.492l-7.809-1.955c-3.475,0.449-10.385,2.364-11.441,10.472
		c-0.587,4.512,0.636,10.938,5.279,20.101c0,0,4.758,6.132,3.93,8.709c0,0,11.08-2.793,13.182-19.457
		C29.677,226.779,29.819,223.767,29.708,221.484z"/>
	<g>
		<path class="st4" d="M50.348,95.492c0.052,0,0.082,0.044,0.088,0.136c-0.233,0.118-0.446,0.231-0.63,0.338
			C50.061,95.66,50.247,95.492,50.348,95.492 M49.807,95.966c-0.707,0.851-1.943,2.768-3.386,5.099
			c0.55-2.337,1.494-3.903,3.165-4.966C49.654,96.056,49.728,96.012,49.807,95.966 M46.421,101.065
			c-0.442,1.878-0.63,4.254-0.736,7.266c-0.122,3.472,0.174,10.295,0.985,16.629c1.392,10.898,2.684,12.328,4.499,13.038
			c0.917,0.365,2.346,0.794,3.763,0.973c2.871,0.362-16.585,27.901-14.112,27.901c0.014,0,0.028-0.001,0.042-0.002
			c0.03,0.204,0.068,0.443,0.109,0.699c-1.234,2.201-2.477,3.342-2.477,3.342c4.29,12.945-3.543,20.115-3.543,20.115
			c2.927,13.428-9.251,16.601-9.251,16.601l-0.88,3.856c-2.302,4.487,6.442,2.714,4.34,19.379
			c-2.102,16.665-13.183,19.457-13.183,19.457c0.204-9.718-8.013-18.2-7.792-25.266c0.406-12.998,8.082-14.218,10.948-14.218
			c0.662,0,1.067,0.065,1.067,0.065l0.17-4.002c0,0-6.94-8.397-6.232-14.007c0.708-5.61,3.784-10.439,3.784-10.439
			s-4.343-8.091-3.656-13.536c0.687-5.445,2.939-8.681,2.939-8.681s-3.127-7.099-2.315-13.534c0.812-6.435,4.53-10.659,4.53-10.659
			s6.83-5.429,7.6-11.534c0.346-2.744,1.325-4.861,2.298-6.367c2.226-0.596,4.687-1.299,7.298-2.117
			c0,0.109,0.029,0.161,0.083,0.161C37.417,116.187,42.629,107.195,46.421,101.065 M50.348,91.492c-1.484,0-2.525,0.775-3.13,1.377
			c-2.215,1.485-3.699,3.654-4.52,6.612c-0.858,1.394-1.778,2.911-2.695,4.425c-1.688,2.786-4.094,6.757-5.318,8.531
			c-2.096,0.646-4.246,1.264-6.401,1.841c-0.958,0.256-1.787,0.86-2.325,1.693c-1.561,2.415-2.539,5.119-2.907,8.037
			c-0.462,3.664-4.679,7.758-6.12,8.903c-0.185,0.147-0.357,0.311-0.514,0.489c-0.185,0.21-4.541,5.234-5.495,12.801
			c-0.672,5.326,0.884,10.866,1.878,13.712c-0.879,1.778-2.02,4.686-2.502,8.503c-0.615,4.874,1.695,10.829,3.114,13.923
			c-1.116,2.19-2.72,5.915-3.242,10.052c-0.672,5.323,3.048,11.512,5.442,14.866c-5.775,1.419-11.078,6.574-11.425,17.672
			c-0.133,4.241,1.793,8.277,3.832,12.55c1.991,4.172,4.049,8.486,3.959,12.757c-0.026,1.248,0.531,2.436,1.508,3.213
			c0.716,0.57,1.596,0.871,2.492,0.871c0.326,0,0.654-0.04,0.977-0.121c0.561-0.141,13.757-3.681,16.173-22.835
			c1.533-12.155-2.307-16.472-4.371-18.792c-0.022-0.025-0.044-0.05-0.068-0.076c0.011-0.04,0.021-0.081,0.03-0.122l0.394-1.725
			c5.131-2.269,11.501-7.979,10.104-18.437c2.372-3.079,6.312-10.076,3.721-20.339c0.474-0.634,0.999-1.416,1.521-2.347
			c0.441-0.787,0.603-1.701,0.46-2.592c-0.027-0.165-0.052-0.323-0.074-0.467c0.986-2.074,3.781-6.685,5.899-10.179
			c7.981-13.167,9.423-15.999,8.027-18.889c-0.636-1.316-1.885-2.212-3.34-2.395c-1.024-0.129-2.103-0.455-2.739-0.703
			c-0.318-0.53-1.122-2.531-2.056-9.847c-0.782-6.102-1.072-12.659-0.955-15.982c0.096-2.716,0.251-4.536,0.506-5.892
			c1.156-1.854,1.856-2.91,2.281-3.507c1.296-0.764,2.06-2.198,1.959-3.713C54.28,93.155,52.526,91.492,50.348,91.492L50.348,91.492
			z"/>
	</g>
	<g>
		<path class="st4" d="M23.814,209.616c-0.694,0-1.369-0.362-1.738-1.008c-0.547-0.957-0.596-1.367,0.738-2.725
			c0.045-0.046,6.421-5.65,6.421-5.65s-2.961,7.599-3.13,7.696C25.791,208.107,24.15,209.616,23.814,209.616z"/>
	</g>
	<g>
		<path class="st4" d="M14.437,222.303c-1.333-5.875-0.977-7.003-0.395-8.5c1.305-3.357,2.833-4.018,2.962-4.113
			c0.891-0.652,2.142-0.461,2.795,0.43c0.649,0.885,0.463,2.127-0.415,2.784c-0.103,0.08-1.427,0.899-2.885,2.92
			C15.838,216.741,15.354,217.991,14.437,222.303z"/>
	</g>
	<g>
		<polygon class="st5" points="15.612,207.188 29.33,210.305 28.411,213.591 15.221,210.289 		"/>
		<g>
			<path class="st4" d="M15.612,207.188l13.718,3.117l-0.919,3.286l-13.19-3.302L15.612,207.188 M15.612,205.188
				c-0.407,0-0.808,0.124-1.147,0.362c-0.462,0.324-0.766,0.828-0.837,1.388l-0.391,3.1c-0.127,1.004,0.517,1.945,1.499,2.19
				l13.19,3.302c0.163,0.041,0.326,0.06,0.487,0.06c0.877,0,1.678-0.58,1.925-1.462l0.919-3.286
				c0.147-0.527,0.072-1.092-0.208-1.562s-0.741-0.805-1.275-0.926l-13.718-3.116C15.908,205.205,15.76,205.188,15.612,205.188
				L15.612,205.188z"/>
		</g>
	</g>
	<path class="st3" d="M247.048,221.243c-1.17-7.886-7.967-9.763-11.405-10.206l-7.81,1.955c-1.601,1.679-3.371,2.873-3.677,8.276
		c-0.131,2.308,0.005,5.382,0.536,9.593c2.102,16.665,13.183,19.457,13.183,19.457c-0.828-2.577,3.93-8.709,3.93-8.709
		C246.538,232.267,247.719,225.767,247.048,221.243z"/>
	<g>
		<path class="st4" d="M203.557,95.492c1.865,0.002,21.652,20.695,23.536,20.695c0.094,0,0.144-0.052,0.144-0.161
			c2.611,0.818,5.072,1.521,7.298,2.117c0.973,1.505,1.952,3.622,2.298,6.367c0.77,6.105-2.4,11.534-2.4,11.534
			s3.718,4.224,4.53,10.659c0.812,6.435-2.315,13.534-2.315,13.534s2.252,3.236,2.939,8.681c0.687,5.445-3.44,13.595-3.44,13.595
			s2.86,4.77,3.568,10.38c0.708,5.61-6.232,14.007-6.232,14.007l0.17,4.002c0,0,0.405-0.065,1.067-0.065
			c2.866,0,10.542,1.22,10.948,14.218c0.221,7.066-7.996,15.548-7.792,25.266c0,0-11.08-2.793-13.183-19.457
			s6.641-14.892,4.34-19.379l-0.88-3.856c0,0-12.178-3.173-9.251-16.601c0,0-7.833-7.169-3.543-20.115c0,0-1.243-1.141-2.477-3.342
			c0.041-0.256,0.079-0.496,0.109-0.699c0.015,0.002,0.029,0.002,0.042,0.002c2.473,0-16.984-27.538-14.112-27.901
			c1.417-0.179,2.846-0.608,3.763-0.973c1.815-0.71,3.107-2.141,4.499-13.038c0.811-6.335,1.107-13.157,0.985-16.629
			c-0.239-6.761-0.886-10.316-3.901-12.232c-0.225-0.143-0.518-0.303-0.85-0.471C203.423,95.536,203.471,95.492,203.557,95.492
			 M203.56,91.492c-0.001,0-0.002,0-0.004,0c-2.207,0-3.983,1.663-4.131,3.869c-0.107,1.6,0.752,3.11,2.182,3.835
			c0.339,0.172,0.48,0.258,0.515,0.28c1.147,0.729,1.814,2.379,2.048,8.997c0.117,3.323-0.174,9.879-0.955,15.98
			c-0.935,7.316-1.738,9.317-2.056,9.848c-0.657,0.254-1.724,0.575-2.739,0.703c-1.455,0.184-2.703,1.079-3.339,2.395
			c-1.397,2.89,0.046,5.722,8.027,18.889c2.118,3.494,4.912,8.104,5.899,10.179c-0.022,0.144-0.047,0.302-0.074,0.467
			c-0.144,0.891,0.018,1.805,0.46,2.592c0.522,0.931,1.047,1.713,1.521,2.347c-2.591,10.263,1.349,17.26,3.721,20.339
			c-1.396,10.458,4.973,16.168,10.104,18.437l0.394,1.725c0.009,0.041,0.019,0.081,0.03,0.122c-0.023,0.026-0.046,0.052-0.068,0.076
			c-2.063,2.32-5.904,6.637-4.371,18.792c2.417,19.155,15.613,22.694,16.173,22.835c0.323,0.081,0.651,0.121,0.977,0.121
			c0.896,0,1.776-0.301,2.492-0.871c0.976-0.777,1.534-1.966,1.508-3.213c-0.09-4.271,1.969-8.585,3.959-12.757
			c2.039-4.273,3.964-8.309,3.832-12.55c-0.347-11.097-5.649-16.252-11.425-17.672c2.395-3.353,6.114-9.543,5.442-14.866
			c-0.522-4.135-2.039-7.837-3.077-9.986c1.336-3.07,3.565-9.102,2.949-13.989c-0.482-3.818-1.622-6.726-2.502-8.503
			c0.995-2.846,2.55-8.386,1.878-13.712c-0.59-4.678-2.48-8.384-3.881-10.582c1.051-2.574,2.346-6.898,1.752-11.611
			c-0.368-2.918-1.346-5.623-2.907-8.037c-0.538-0.833-1.367-1.436-2.325-1.693c-2.408-0.644-4.809-1.34-7.136-2.069
			c-0.14-0.044-0.281-0.08-0.423-0.108c-1.962-1.543-6.707-6.076-9.974-9.196C207.208,92.56,205.855,91.494,203.56,91.492
			L203.56,91.492z"/>
	</g>
	<g>
		<path class="st6" d="M226.417,115.053l-99.5-10.75l-98.25,9v36.534c-1.64,0.92-3.106,1.796-3.611,2.219
			c-0.637,0.527-1.126,1.873-0.434,8.122c0.522,4.695,2.174,11.913,3.86,17.32c0.011,0.036,0.022,0.069,0.034,0.105
			c2.965,2.253,7.143,4.583,11.575,4.437l2.118,1.138c0.023,0.074,0.043,0.15,0.066,0.223c0.02-0.006,0.042-0.011,0.061-0.017
			c-0.017-0.054-0.032-0.11-0.049-0.164l3.879,2.083l8.25,20l4.491,6.488l-0.241,0.179l8.167,11.833L83.5,238.47l22.167,10.667
			l17.833,3l20.833-1.167L168,241.803l19.833-18.167l12.346-17.785l0.737-0.049l10.75-25.75l6-17.75L226.417,115.053z"/>
		<path class="st6" d="M229.494,148.108c-0.62-0.522-4.583-2.716-5.048-2.973l-3.562,24.949c-0.071,0.484-0.341,0.922-0.747,1.209
			l-0.053,0.037l-0.001,0.002l-1.889,1.321l-3.157,2.209c-0.123,0.624-0.221,1.142-0.313,1.625
			c4.994,1.203,9.839-2.395,12.561-4.992c-1.124,4.383-2.372,8.034-3.346,9.136c0.008-0.002,0.018-0.003,0.026-0.004
			c2.065-2.24,5.404-16.172,6.112-24.112C230.664,150.035,230.148,148.64,229.494,148.108z"/>
	</g>
	<g>
		<path class="st4" d="M216.666,194.303c-0.479,0-0.959-0.171-1.342-0.518c-0.818-0.742-0.881-2.006-0.14-2.825l4.92-3.594
			l-1.594,6.312C218.115,194.114,217.211,194.303,216.666,194.303z"/>
	</g>
	<g>
		<path class="st4" d="M238.544,185.053c-0.615,0-2.006-2.008-2.398-2.542l-3.289-7.195l7.296,6.553
			c0.654,0.89,0.463,2.142-0.427,2.796C239.369,184.927,238.955,185.053,238.544,185.053z"/>
	</g>
	<g>
		<path class="st4" d="M15.665,185.053c-0.411,0-0.826-0.126-1.183-0.388c-0.89-0.654-1.082-1.906-0.428-2.796l7.296-6.553
			l-3.427,7.136C17.532,182.986,16.28,185.053,15.665,185.053z"/>
	</g>
	<path class="st7" d="M190.5,216.803c0,0-32.167,29-61.667,29S67.5,220.47,67.5,220.47s17.5,31.667,63.667,31.667
		S190.5,216.803,190.5,216.803z"/>
	<path class="st7" d="M43.167,177.303l3,9.25c0,0,24.25,10.25,45.5,4s28.75-22.75,31.25-32s-5,4-5,4s-27,16.75-43,16.75
		S43.167,177.303,43.167,177.303z"/>
	<path class="st7" d="M212.427,177.303l-3,9.25c0,0-24.25,10.25-45.5,4s-28.75-22.75-31.25-32s5,4,5,4s27,16.75,43,16.75
		S212.427,177.303,212.427,177.303z"/>
	<g>
		<path class="st7" d="M214.679,176.479c-0.217,1.119-0.397,2.016-0.753,3.424c2.921,0.681,7.7,1.208,9.983,0.763
			c0.978-1.063,2.24-4.746,3.374-9.171C224.553,174.1,219.689,177.714,214.679,176.479z"/>
		<path class="st7" d="M42.282,183.423c-0.163-0.517-0.31-1.042-0.462-1.564c-5.104,0.945-10.042-1.758-13.392-4.322
			c1.082,3.472,2.178,6.2,2.998,7.028C33.952,185.005,39.542,184.231,42.282,183.423z"/>
	</g>
	<g>
		<path class="st4" d="M212.41,185.641c2.67,0.643,6.623,0.56,9.533,0.56c1.428,0,2.9-0.247,3.855-0.494
			c1.89-0.477,3.35-1.735,6.096-12.372c1.598-6.183,2.745-12.915,3.059-16.375c0.609-6.738,0.412-10.345-2.339-12.624
			c-1.354-1.12-5.306-3.251-7.366-4.327l-0.118,0.006l-0.73,5.095c-0.002-0.001,4.437,2.444,5.095,2.998
			c0.654,0.532,1.17,1.927,0.582,8.407c-0.708,7.941-4.047,21.872-6.112,24.112c-2.278,0.445-7.062-0.082-9.972-0.757
			c0.494-1.999,0.642-2.966,1.044-5.008l-4.976,3.482c-0.296,1.252-0.62,2.493-0.955,3.723c-0.504,1.609-1.03,3.17-1.567,4.705
			c-2.141,6.107-4.551,11.65-7.17,16.656c-0.017,0.001-0.036,0.002-0.053,0.003l-0.002,0.036c0,0,2.127,0.411,5.546-1.163
			l0.056-0.042C209.78,194.371,211.73,188.063,212.41,185.641z"/>
		<path class="st4" d="M57.574,215.717l4.692-1.371c0.023-0.007,0.069-0.02,0.069-0.02l-0.014-0.019c0,0-10.125-16.82-12.44-22.274
			c-1.348-3.176-2.094-5.334-2.266-5.847v-0.01c-0.175-0.499-0.361-1.009-0.525-1.524L45,179.587l-5.43-3.796
			c0.099,0.343,2.204,5.685,2.304,6.029c0.152,0.522,0.3,1.047,0.462,1.564c-2.74,0.808-8.33,1.581-10.856,1.142
			c-0.82-0.829-1.916-3.557-2.998-7.028c-1.686-5.407-3.338-12.625-3.86-17.32c-0.692-6.249-0.203-7.595,0.434-8.122
			c0.73-0.61,3.453-2.165,5.828-3.434l-0.632-5.127c-1.246,0.648-6.666,3.499-8.294,4.859c-2.729,2.269-2.861,5.788-2.13,12.356
			c0.373,3.366,1.636,9.901,3.338,15.892c2.933,10.307,5.08,12.131,6.969,12.559c0.851,0.203,1.949,0.297,3.185,0.297
			c3.377,0,7.704-0.659,10.527-1.511c3.305,10.277,7.983,19.557,13.684,27.701C57.542,215.664,57.574,215.717,57.574,215.717z"/>
	</g>
	<g>
		<path class="st8" d="M28.345,119.438l1.06,4.009c2.971-2.367,5.689-4.327,7.984-5.892
			C33.65,118.274,30.602,118.927,28.345,119.438z"/>
	</g>
	<path class="st9" d="M140.921,129.081l-2.395-1.295c-0.251-0.125-4.407-2.151-10.233-1.906l-0.251,0.011l-0.251-0.011
		c-5.977-0.248-10.203,1.89-10.245,1.912l-2.432,1.315l-2.531-1.021c-22.722-8.758-40.45-9.794-53.504-10.32l-23.28,4.133
		c-0.603,0.163-1.156,0.325-1.646,0.478c0.475,20.423,4.607,34.042,12.592,41.566c6.961,6.56,17.325,9.358,34.656,9.358
		c26.78,0,30.531-25.413,30.678-26.494l0.431-3.176l2.879-1.408c0.061-0.03,6.951-2.955,12.654-2.955s12.594,2.925,12.654,2.955
		l2.879,1.408l0.431,3.176c0.152,1.059,4.121,26.494,30.678,26.494c17.331,0,27.695-2.799,34.656-9.358
		c7.793-7.345,11.906-20.515,12.541-40.132l-32.378-7.498c-12.094,1.26-27.365,4.59-46.001,11.772L140.921,129.081z"/>
	<path class="st0" d="M250.667,143.97c0,0-48-15-57-39.667l41.894,5C235.56,109.303,232.333,126.636,250.667,143.97z"/>
	<path class="st0" d="M77.247,93.567l-26.58,10.795c0,0,1.825,3.783,2.176,10.153l-31.737,3.787c0,0-0.773,17.334-19.106,34.667
		c0,0,39.167-9.417,58.906-33.588c-1.739,10.421-7.239,15.671-13.662,22.405c0,0,30.674-9.234,49.897-37.724
		c-1.144,4.377-4.827,18.317-7.973,23.49c0,0,105.084-26.233,107.257-52.4L76.334,91.029C76.334,91.029,76.764,91.926,77.247,93.567
		z"/>
	<g>
		<path class="st10" d="M2,152.97c0,0,22.762-5.474,42.327-18.785l-28.143,0.031C13.366,139.84,8.945,146.404,2,152.97z"/>
		<g>
			<path class="st10" d="M77.247,93.567l-26.58,10.795c0,0,1.825,3.783,2.176,10.153l-31.737,3.787c0,0-0.302,6.691-4.922,15.913
				l28.143-0.031c6.099-4.149,11.888-9.059,16.579-14.803c-1.059,6.35-3.52,10.777-6.73,14.792
				c-2.059,2.575-4.423,4.982-6.933,7.613c0,0,7.182-2.17,16.767-7.624c10.233-5.822,23.204-15.389,33.13-30.1
				c-1.144,4.377-4.827,18.317-7.973,23.49c0,0,66.033-16.487,94.489-36.358L76.459,91.314
				C76.621,91.695,76.92,92.456,77.247,93.567z"/>
			<path class="st10" d="M242.23,133.966c-8.753-13.425-6.669-24.663-6.669-24.663l-41.894-5
				c4.633,12.697,19.599,22.833,33.034,29.68c12.664,6.454,23.966,9.987,23.966,9.987
				C247.094,140.592,244.348,137.215,242.23,133.966z"/>
		</g>
	</g>
	<g>
		<path class="st11" d="M235.56,109.303l-41.894-5c9,24.667,57,39.667,57,39.667C232.333,126.636,235.56,109.303,235.56,109.303z"/>
		<path class="st11" d="M77.247,93.567l-26.58,10.795c0,0,1.825,3.783,2.176,10.153l-31.737,3.787c0,0-0.773,17.334-19.106,34.667
			c0,0,45.167-13.667,61.917-39.417c-1.739,10.421-10.25,21.5-16.674,28.234c0,0,30.674-9.234,49.897-37.724
			c-1.144,4.377-4.827,18.317-7.973,23.49c0,0,95.084-26.233,97.257-52.4L76.334,91.029C76.334,91.029,76.764,91.926,77.247,93.567z
			"/>
	</g>
	<path class="st12" d="M240.153,89.895c-0.071-0.863-0.165-1.725-0.268-2.576c-0.072-0.609-0.171-1.241-0.275-1.828
		c-2.301-1.933-4.915-3.657-7.633-5.217c-2.949-1.73-6.035-3.267-9.186-4.701c-3.125-1.477-6.338-2.811-9.566-4.113
		c-1.614-0.659-3.24-1.291-4.876-1.894c-1.626-0.637-3.268-1.23-4.915-1.829c3.454,0.571,6.88,1.362,10.28,2.236
		c2.213,0.565,4.409,1.207,6.594,1.894c-15.54-40.604-52.678-67.045-93.232-67.045c-40.559,0-77.693,26.441-93.223,67.045
		c2.18-0.687,4.382-1.329,6.584-1.894c3.399-0.873,6.826-1.665,10.285-2.236c-1.658,0.599-3.295,1.191-4.931,1.829
		c-1.625,0.604-3.251,1.235-4.865,1.894c-3.229,1.302-6.436,2.636-9.571,4.113c-3.142,1.434-6.227,2.971-9.176,4.701
		c-2.724,1.56-5.332,3.284-7.638,5.217c-0.093,0.587-0.193,1.219-0.269,1.828c-0.104,0.851-0.197,1.714-0.275,2.576
		c-0.148,1.729-0.209,3.465-0.22,5.205c-0.038,3.481,0.197,6.963,0.637,10.401c0.477,3.453,1.11,6.886,2.043,10.203
		c0.461,1.658,0.988,3.294,1.592,4.881c0.308,0.791,0.637,1.576,0.983,2.328c0.17,0.379,0.345,0.752,0.527,1.109l0.224,0.423
		c0.253,0.126,0.522,0.263,0.775,0.385l1.543,0.736c0.862,0.395,2.053,0.961,3.041,1.4c0.055-0.05,0.11-0.099,0.154-0.148
		l-2.866-10.917c0.609-0.165,6.051-1.571,15.431-3.361c-0.753-0.142-1.516-0.302-2.268-0.483
		c-2.136-0.532,19.742-3.581,38.676-5.541c17.309-1.785,34.667-2.938,52.113-2.976c17.441,0.038,34.805,1.191,52.108,2.976
		c18.94,1.961,45.979,3.108,44.969,3.537c-2.043,0.824-4.146,1.472-6.282,2.004c-0.319,0.077-0.638,0.143-0.956,0.215
		c10.291,1.905,16.277,3.459,16.913,3.629l-2.74,10.4c0.555-0.241,1.115-0.483,1.653-0.735l1.548-0.736
		c0.252-0.122,0.516-0.258,0.779-0.385l0.209-0.423c0.187-0.357,0.368-0.73,0.538-1.109c0.347-0.752,0.676-1.538,0.979-2.328
		c0.603-1.587,1.131-3.223,1.593-4.881c0.939-3.317,1.57-6.749,2.042-10.203c0.445-3.438,0.682-6.92,0.649-10.401
		C240.368,93.359,240.308,91.624,240.153,89.895z"/>
	<path class="st4" d="M178.491,106.522c-8.735-0.904-17.486-1.644-26.255-2.162c-8.6-0.507-17.217-0.801-25.853-0.82
		c-8.588,0.019-17.155,0.31-25.705,0.812c-8.815,0.519-17.615,1.261-26.408,2.17c-18.934,1.955-40.812,5.003-38.676,5.535
		c0.388,0.094,0.78,0.167,1.172,0.25c0.368,0.078,0.735,0.167,1.101,0.233c0,0,8.359-0.14,23.483-0.289
		c0.144-0.011,0.288-0.024,0.433-0.035c1.763-0.133,3.529-0.256,5.295-0.377c2.099-0.145,4.2-0.278,6.305-0.399
		c0.435-0.025,0.87-0.056,1.305-0.08c1.11-0.062,2.22-0.111,3.33-0.171c2.612-0.139,5.225-0.281,7.839-0.402
		c3.717-0.173,7.434-0.326,11.148-0.46l16.31-0.456c4.36-0.082,8.715-0.131,13.064-0.142h0.006h0.005
		c2.96,0.011,5.925,0.043,8.891,0.082c-0.009,0.002-0.017,0.004-0.026,0.006c0.009,0,0.017,0,0.026,0l25.271,0.686
		c5.843,0.247,11.686,0.527,17.529,0.857c1.596,0.089,3.188,0.192,4.78,0.294c0.111,0.007,0.223,0.016,0.334,0.023
		c1.873,0.121,3.747,0.254,5.62,0.387c8.861,0.053,18.003,0.121,27.408,0.206h0h0c0.318-0.072,0.636-0.138,0.956-0.215
		C219.314,111.525,197.431,108.477,178.491,106.522z"/>
	<g>
		<path class="st4" d="M232.787,209.616c-0.335,0-0.675-0.085-0.987-0.264c-0.169-0.097-4.431-9.12-4.431-9.12
			s6.394,5.634,6.422,5.651c0.952,0.554,1.28,1.775,0.729,2.729C234.15,209.255,233.478,209.616,232.787,209.616z"/>
	</g>
	<path class="st4" d="M156.967,244.329c-9.675,3.91-18.789,5.432-25.811,5.902c-7.001,0.472-14.106-0.353-21.064-2.251
		c-0.042,0.008-0.078,0.014-0.121,0.022l-9.299,1.361c17.84,6.54,37.508,6.933,56.173-0.137c5.084-1.934,9.72-4.275,13.979-6.898
		c-0.209,0.048-8.128,1.86-13.818,2.005C156.991,244.332,156.979,244.33,156.967,244.329z"/>
	<path class="st4" d="M62.32,214.306c0,0,19.327,27.27,47.649,33.696l-3.553,1.551l-5.747-0.19c0,0-22.274-6.37-43.139-33.715
		l0.26-3.72L62.32,214.306z"/>
	<g>
		<path class="st13" d="M106.576,74.028c0.002,0,0.004,0,0.006,0C106.579,74.028,106.577,74.028,106.576,74.028z"/>
		<path class="st13" d="M14.579,91.151c-0.095,0.032-0.179,0.061-0.254,0.086C14.399,91.212,14.485,91.183,14.579,91.151z"/>
		<path class="st13" d="M52.581,81.275c-0.002,0-0.003,0.001-0.005,0.001c0,0-0.001,0-0.002,0c0.489-0.1,0.975-0.199,1.472-0.298
			l0,0C53.552,81.077,53.068,81.176,52.581,81.275z"/>
		<path class="st13" d="M14.304,91.245c-0.082,0.028-0.153,0.052-0.209,0.072C14.152,91.297,14.22,91.273,14.304,91.245z"/>
		<path class="st13" d="M113.702,73.635c-0.571,0.026-1.138,0.055-1.706,0.084l-0.001,0c0.57-0.028,1.137-0.058,1.71-0.084
			C113.704,73.635,113.703,73.635,113.702,73.635z"/>
		<path class="st13" d="M118.466,73.451c-0.774,0.025-1.546,0.053-2.315,0.083l-0.001,0c0.772-0.03,1.545-0.058,2.322-0.083
			C118.469,73.451,118.468,73.451,118.466,73.451z"/>
		<path class="st13" d="M150.435,73.857c-0.006,0-0.013-0.001-0.019-0.001C150.423,73.856,150.429,73.857,150.435,73.857
			C150.436,73.857,150.435,73.857,150.435,73.857z"/>
		<path class="st13" d="M125.206,73.293c0,0-0.001,0-0.002,0c1.562-0.021,3.131-0.035,4.709-0.035
			C128.335,73.258,126.767,73.271,125.206,73.293z"/>
		<path class="st13" d="M239.997,91.042c-0.014-0.005-0.026-0.01-0.041-0.016C239.969,91.031,239.984,91.037,239.997,91.042z"/>
		<path class="st13" d="M17.736,90.123c-0.031,0.01-0.063,0.02-0.094,0.03C17.673,90.143,17.705,90.132,17.736,90.123z"/>
		<path class="st13" d="M50.506,81.704c0,0-0.001,0-0.002,0C50.505,81.704,50.505,81.704,50.506,81.704z"/>
		<path class="st13" d="M239.007,90.674c-0.014-0.005-0.028-0.01-0.042-0.015C238.979,90.663,238.994,90.669,239.007,90.674z"/>
		<path class="st13" d="M160.148,74.549c1.113,0.094,2.222,0.191,3.317,0.294l0,0C162.37,74.74,161.263,74.642,160.148,74.549z"/>
		<path class="st13" d="M15.377,90.884c-0.08,0.026-0.153,0.051-0.227,0.075C15.223,90.935,15.298,90.91,15.377,90.884z"/>
		<path class="st13" d="M14.949,91.026c-0.08,0.027-0.15,0.05-0.221,0.074C14.799,91.077,14.87,91.053,14.949,91.026z"/>
		<path class="st13" d="M15.87,90.722c-0.062,0.02-0.122,0.04-0.181,0.059C15.748,90.762,15.808,90.742,15.87,90.722z"/>
		<path class="st13" d="M16.443,90.535c-0.063,0.02-0.124,0.04-0.184,0.06C16.319,90.576,16.381,90.556,16.443,90.535z"/>
		<path class="st13" d="M17.073,90.333c-0.053,0.017-0.106,0.034-0.158,0.05C16.966,90.367,17.02,90.35,17.073,90.333z"/>
		<path class="st13" d="M137.441,73.344c-0.397-0.009-0.795-0.015-1.194-0.022c-0.001,0-0.002,0-0.003,0
			c0.4,0.007,0.801,0.014,1.199,0.022C137.443,73.344,137.442,73.344,137.441,73.344z"/>
		<path class="st13" d="M219.771,84.763c0.01,0.003,0.019,0.005,0.029,0.008c0,0,0,0,0,0
			C219.789,84.768,219.78,84.765,219.771,84.763z"/>
		<path class="st13" d="M216.191,83.837c-0.004-0.001-0.007-0.002-0.011-0.003c0.024,0.006,0.048,0.012,0.072,0.018
			c-0.001,0-0.002-0.001-0.004-0.001C216.23,83.846,216.21,83.841,216.191,83.837z"/>
		<path class="st13" d="M212.389,82.902c0.013,0.003,0.026,0.006,0.038,0.009c-0.011-0.003-0.022-0.005-0.032-0.008
			C212.392,82.903,212.391,82.902,212.389,82.902z"/>
		<path class="st13" d="M214.357,83.38c0.009,0.002,0.018,0.004,0.026,0.006l0,0C214.375,83.384,214.366,83.382,214.357,83.38z"/>
		<path class="st13" d="M210.433,82.44c-0.001,0-0.003-0.001-0.004-0.001c0.011,0.003,0.023,0.005,0.034,0.008
			c-0.001,0-0.002,0-0.003-0.001C210.451,82.444,210.442,82.442,210.433,82.44z"/>
		<path class="st13" d="M223.019,85.644c-0.002-0.001-0.004-0.001-0.006-0.002c0.022,0.006,0.045,0.013,0.068,0.019
			c-0.003-0.001-0.007-0.002-0.01-0.003C223.053,85.654,223.036,85.649,223.019,85.644z"/>
		<path class="st13" d="M238.226,90.392c0.005,0.002,0.009,0.003,0.014,0.005c-0.003-0.001-0.005-0.002-0.009-0.003
			C238.23,90.393,238.228,90.392,238.226,90.392z"/>
		<path class="st13" d="M230.054,87.698c0.009,0.003,0.018,0.005,0.027,0.008c-0.006-0.002-0.012-0.004-0.018-0.006
			C230.06,87.7,230.057,87.699,230.054,87.698z"/>
		<polygon class="st13" points="224.604,86.089 224.606,86.09 224.606,86.09 		"/>
		<path class="st13" d="M228.807,87.319c0.01,0.003,0.02,0.006,0.03,0.009c-0.003-0.001-0.006-0.002-0.009-0.003
			C228.821,87.323,228.814,87.321,228.807,87.319z"/>
		<path class="st13" d="M14.077,91.323c-0.001,0-0.002,0.001-0.003,0.001c-0.111,0.038-0.17,0.059-0.17,0.059
			s0.06-0.021,0.178-0.062C14.08,91.322,14.078,91.322,14.077,91.323z"/>
		<path class="st13" d="M206.267,81.498c-0.005-0.001-0.01-0.002-0.015-0.003c0.021,0.005,0.043,0.009,0.064,0.014
			c-0.002,0-0.003-0.001-0.005-0.001C206.296,81.504,206.281,81.501,206.267,81.498z"/>
		<path class="st14" d="M240.233,91.133c0,0-0.014-0.006-0.042-0.016c-0.037-0.014-0.107-0.041-0.194-0.074
			c-0.013-0.005-0.028-0.01-0.041-0.016c-0.099-0.038-0.22-0.083-0.371-0.14c-0.005-0.002-0.009-0.003-0.014-0.005
			c-0.158-0.059-0.348-0.129-0.563-0.207c-0.014-0.005-0.028-0.01-0.042-0.015c-0.215-0.079-0.456-0.166-0.724-0.262
			c-0.005-0.002-0.009-0.003-0.014-0.005l-0.001,0c-1.695-0.605-4.441-1.546-8.132-2.681c-0.004-0.001-0.009-0.003-0.013-0.004
			c-0.009-0.003-0.018-0.005-0.027-0.008c-0.395-0.121-0.801-0.245-1.218-0.371c-0.01-0.003-0.02-0.006-0.03-0.009
			c-0.005-0.002-0.01-0.003-0.015-0.005c-0.427-0.129-0.866-0.26-1.315-0.393c-0.005-0.001-0.01-0.003-0.014-0.004
			c-0.907-0.268-1.859-0.544-2.856-0.827c-0.001,0-0.002,0-0.002-0.001c-0.012-0.003-0.024-0.007-0.036-0.01
			c-0.485-0.138-0.981-0.277-1.488-0.418c-0.022-0.006-0.045-0.013-0.068-0.019c-0.505-0.14-1.019-0.281-1.544-0.424
			c-0.023-0.006-0.045-0.012-0.068-0.018c-0.524-0.142-1.057-0.285-1.601-0.43c-0.01-0.003-0.019-0.005-0.029-0.008
			c-0.017-0.005-0.034-0.009-0.051-0.014c-0.543-0.144-1.095-0.289-1.657-0.434c-0.029-0.007-0.058-0.015-0.086-0.022
			c-0.565-0.146-1.14-0.293-1.724-0.441c-0.024-0.006-0.048-0.012-0.072-0.018c-0.589-0.149-1.188-0.298-1.797-0.448
			c-0.009-0.002-0.017-0.004-0.026-0.006c-0.011-0.003-0.021-0.005-0.032-0.008c-0.613-0.151-1.234-0.302-1.866-0.453
			c-0.011-0.003-0.022-0.005-0.032-0.008c-0.013-0.003-0.026-0.006-0.038-0.009c-0.632-0.151-1.274-0.303-1.925-0.455
			c-0.011-0.003-0.023-0.005-0.034-0.008c-0.663-0.154-1.336-0.309-2.018-0.463c-0.006-0.001-0.013-0.003-0.019-0.004
			c-0.683-0.154-1.375-0.309-2.076-0.463c-0.021-0.005-0.043-0.009-0.064-0.014c-0.695-0.153-1.399-0.305-2.112-0.456
			c-0.006-0.001-0.012-0.003-0.019-0.004c-1.333-0.284-2.694-0.566-4.09-0.845c0.461,4.35,0.559,8.098,0.52,10.987
			c-0.026,1.889-0.11,3.416-0.193,4.493c-0.079-0.902-0.237-2.566-0.473-4.492c-0.428-3.497-1.114-7.872-2.07-10.206
			c-0.222-0.543-0.727-1.036-1.422-1.488h0c-6.059-1.144-12.646-2.223-19.705-3.151h0c-0.791,0.63-1.397,1.564-1.701,2.942
			c-0.924,4.198-2.253,7.581-3.448,9.874c1.056-4.674,1.495-9.335,1.642-13.258l0,0c-1.136-0.138-2.281-0.273-3.439-0.402
			c-0.149,4.451-0.68,9.927-2.118,15.169c-0.054,0.184-0.061,0.371-0.048,0.556c0.008,0.118,0.018,0.237,0.048,0.35
			c-1.175-0.124-2.35-0.237-3.525-0.346c-1.582-0.148-3.163-0.288-4.745-0.417c3.091-6.48,3.767-13.382,3.916-15.815
			c0.065-0.046,0.131-0.096,0.196-0.143c-1.095-0.103-2.204-0.2-3.317-0.294c-0.103-0.009-0.207-0.016-0.31-0.025
			c-0.102,1.929-0.701,9.263-4.01,15.645c-0.066,0.121-0.105,0.242-0.143,0.368c-9.522-0.653-19.072-0.933-28.61-0.939
			c-9.534,0.006-19.089,0.269-28.616,0.918c-0.039-0.115-0.077-0.237-0.132-0.346c-3.077-5.925-3.81-12.672-3.983-15.152
			c-1.149,0.111-2.302,0.219-3.434,0.339l0,0c0.187,2.7,0.935,9.244,3.885,15.428c-1.924,0.153-3.848,0.329-5.771,0.516
			c-0.832,0.081-1.663,0.159-2.494,0.247c0.022-0.078,0.023-0.162,0.033-0.244c0.026-0.211,0.026-0.428-0.033-0.646
			c-1.371-5.003-1.916-10.226-2.094-14.567l0,0c-1.159,0.142-2.305,0.289-3.444,0.438c0.156,3.514,0.551,7.569,1.405,11.671
			c-1.061-2.239-2.168-5.274-2.972-8.925c-0.225-1.02-0.62-1.791-1.126-2.385l0,0c-7.644,1.053-14.794,2.26-21.348,3.52l0,0
			c-0.147,0.182-0.274,0.368-0.354,0.562c-0.967,2.37-1.661,6.844-2.088,10.367c-0.344,2.838-0.515,5.058-0.515,5.058l-0.135,0.081
			c-0.096-1.028-0.224-2.791-0.261-5.138c-0.043-2.732,0.045-6.27,0.446-10.361c-0.496,0.099-0.983,0.199-1.472,0.298
			c-0.697,0.142-1.386,0.284-2.068,0.427c0,0-0.001,0-0.002,0c-15.641,3.271-27.155,6.648-32.768,8.419
			c-0.031,0.01-0.063,0.02-0.094,0.03c-0.198,0.063-0.386,0.123-0.57,0.181c-0.053,0.017-0.106,0.034-0.158,0.05
			c-0.164,0.053-0.32,0.103-0.472,0.152c-0.062,0.02-0.124,0.04-0.184,0.06c-0.135,0.044-0.266,0.086-0.39,0.127
			c-0.062,0.02-0.122,0.04-0.181,0.059c-0.108,0.036-0.213,0.07-0.312,0.103c-0.079,0.026-0.154,0.051-0.227,0.075
			c-0.068,0.023-0.138,0.046-0.201,0.067c-0.079,0.026-0.151,0.051-0.221,0.074c-0.05,0.017-0.104,0.035-0.15,0.051
			c-0.094,0.032-0.18,0.061-0.254,0.086c-0.007,0.002-0.015,0.005-0.021,0.007c-0.083,0.028-0.152,0.052-0.209,0.072
			c-0.004,0.001-0.009,0.003-0.013,0.004c-0.118,0.041-0.178,0.062-0.178,0.062c-0.072,1.236-0.12,2.475-0.127,3.717
			c-0.038,3.481,0.198,6.963,0.637,10.401c0.477,3.453,1.109,6.886,2.043,10.203c0.461,1.658,0.988,3.294,1.592,4.881
			c0.308,0.791,0.637,1.576,0.983,2.328c0.17,0.379,0.345,0.752,0.527,1.109l0.224,0.423c0.253,0.126,0.522,0.263,0.775,0.385
			l1.544,0.736c0.862,0.395,2.053,0.961,3.041,1.401c0.055-0.05,0.11-0.099,0.154-0.148l-2.867-10.917
			c0.609-0.165,6.051-1.571,15.431-3.361c-0.753-0.142-1.516-0.302-2.268-0.483c-2.136-0.532,19.742-3.581,38.676-5.541
			c17.309-1.785,34.667-2.938,52.113-2.976c17.441,0.038,34.805,1.192,52.108,2.976c18.94,1.961,45.979,3.108,44.969,3.537
			c-2.043,0.824-4.146,1.472-6.282,2.004c-0.319,0.077-0.638,0.143-0.956,0.215c10.291,1.905,16.276,3.459,16.913,3.629l-2.74,10.4
			c0.555-0.241,1.115-0.483,1.653-0.735l1.548-0.736c0.252-0.122,0.516-0.258,0.779-0.385l0.209-0.423
			c0.187-0.357,0.368-0.73,0.538-1.109c0.347-0.752,0.676-1.538,0.979-2.328c0.603-1.587,1.131-3.223,1.593-4.881
			c0.939-3.317,1.57-6.749,2.042-10.203c0.445-3.438,0.682-6.92,0.649-10.401C240.372,93.774,240.319,92.452,240.233,91.133z
			 M49.712,98.499c-2.551,0.836-5.113,1.713-7.551,2.84c2.73-1.769,4.789-5.784,6.286-9.994c0.737-2.072,1.339-4.191,1.814-6.115
			c-0.12,2.312-0.142,4.362-0.116,6.113c0.062,4.034,0.389,6.455,0.418,6.656c0.017,0.077,0.039,0.148,0.05,0.225
			C50.316,98.318,50.009,98.406,49.712,98.499z M204.556,98.499c-0.297-0.093-0.604-0.182-0.901-0.274
			c0.011-0.077,0.033-0.149,0.05-0.225c0.03-0.204,0.365-2.693,0.42-6.827c0.023-1.714-0.001-3.704-0.117-5.943
			c0.462,1.87,1.043,3.924,1.751,5.941c1.501,4.274,3.581,8.375,6.349,10.168C209.67,100.212,207.108,99.335,204.556,98.499z"/>
		<path class="st15" d="M150.416,73.856c-0.009,0-0.017-0.001-0.026-0.001c-2.115-0.122-4.256-0.227-6.424-0.313
			c-0.103-0.004-0.204-0.009-0.307-0.013c-2.048-0.08-4.121-0.14-6.215-0.185c-0.399-0.008-0.799-0.015-1.199-0.022
			c-2.091-0.038-4.197-0.063-6.331-0.063c-1.579,0-3.147,0.014-4.709,0.035c-0.57,0.008-1.135,0.021-1.703,0.031
			c-0.969,0.018-1.936,0.037-2.897,0.063c-0.713,0.019-1.423,0.041-2.132,0.064c-0.777,0.025-1.55,0.053-2.322,0.083
			c-0.817,0.032-1.633,0.064-2.444,0.101c-0.572,0.026-1.14,0.056-1.71,0.084c-1.819,0.091-3.624,0.194-5.414,0.309
			c-0.002,0-0.004,0-0.006,0c-1.458,0.094-2.898,0.2-4.335,0.308c1.931,4.607,4.37,7.584,7.448,7.584c13.63,0,16.354,0,16.354,0
			h2.724c0,0,2.729,0,16.354,0c3.151,0,5.612-3.122,7.538-7.915c-0.744-0.048-1.471-0.105-2.222-0.149
			C150.429,73.857,150.423,73.856,150.416,73.856z"/>
		<path class="st16" d="M94.26,25.669l0.701-2.072c0,0,0.129,6.784,0.838,15.723c9.978-1.082,20.595-1.825,30.949-1.825
			c10.688,0,21.699,0.777,32.016,1.896c0.551-7.45,0.707-13.419,0.744-15.237c0.991,3.769,2.22,9.197,3.152,15.68
			c24.742,2.93,44.557,7.572,44.557,7.572c-18.842-26.436-48.448-42.584-80.14-42.584c-31.766,0-61.428,16.222-80.259,42.762
			c0,0,19.842-4.793,44.672-7.771C92.305,34.16,93.349,29.314,94.26,25.669z"/>
		<path class="st17" d="M163.547,47.454c0.618,6.981,0.77,14.748-0.056,22.788l-0.119,0.34c-0.909,0.721-1.838,1.426-2.757,2.048
			c-0.461,0.318-0.747,0.839-0.757,1.399c0,0.012-0.005,0.192-0.021,0.492c0.104,0.009,0.206,0.019,0.31,0.027
			c1.115,0.093,2.222,0.191,3.317,0.294c2.31-1.658,4.59-3.613,6.278-5.146c0.053,1.557,0.073,3.546-0.002,5.791
			c1.158,0.13,2.303,0.264,3.439,0.402l0,0c0.118-3.161,0.047-5.844-0.049-7.66l26.32,7.485c0.238,1.551,0.428,3.044,0.579,4.474
			c2.15,0.43,4.221,0.866,6.221,1.305c0.005,0.001,0.01,0.002,0.015,0.003c0.015,0.003,0.029,0.006,0.044,0.01
			c0.002,0,0.003,0.001,0.005,0.001c1.41,0.31,2.781,0.62,4.113,0.93c0.001,0,0.003,0.001,0.004,0.001
			c0.009,0.002,0.018,0.004,0.027,0.006c0.001,0,0.002,0,0.003,0.001c0.652,0.152,1.293,0.303,1.925,0.455
			c0.002,0,0.004,0.001,0.006,0.001c0.011,0.003,0.022,0.005,0.032,0.008c0.654,0.157,1.297,0.313,1.931,0.469
			c0.009,0.002,0.017,0.004,0.026,0.006l0,0c0.609,0.15,1.207,0.299,1.797,0.448c0.004,0.001,0.007,0.002,0.011,0.003
			c0.019,0.005,0.038,0.01,0.057,0.014c0.001,0,0.002,0.001,0.004,0.001c1.215,0.307,2.388,0.611,3.518,0.911
			c0.009,0.002,0.019,0.005,0.028,0.007c0,0,0,0,0.001,0c1.113,0.295,2.184,0.586,3.213,0.872c0.002,0.001,0.004,0.001,0.006,0.002
			c0.017,0.005,0.034,0.009,0.051,0.014c0.003,0.001,0.007,0.002,0.01,0.003c0.519,0.144,1.027,0.287,1.524,0.428
			c0.001,0,0.001,0,0.002,0c0,0,0,0,0.001,0c1.501,0.426,2.903,0.837,4.201,1.229c0.007,0.002,0.014,0.004,0.021,0.006
			c0.003,0.001,0.006,0.002,0.009,0.003c0.417,0.126,0.823,0.249,1.218,0.371c0.003,0.001,0.006,0.002,0.009,0.003
			c0.006,0.002,0.012,0.004,0.018,0.006c3.698,1.137,6.449,2.079,8.145,2.685c0.002,0.001,0.004,0.001,0.006,0.002
			c0.003,0.001,0.005,0.002,0.009,0.003c0.269,0.096,0.509,0.183,0.724,0.262c0.014,0.005,0.028,0.01,0.042,0.015
			c0.429,0.157,0.745,0.275,0.948,0.352c0.015,0.006,0.027,0.01,0.041,0.016c0.151,0.058,0.236,0.091,0.236,0.091
			c-0.027-0.413-0.043-0.826-0.08-1.238c-0.071-0.863-0.165-1.725-0.268-2.576c-0.072-0.609-0.171-1.241-0.275-1.828
			c-2.301-1.933-4.915-3.657-7.633-5.217c-2.949-1.73-6.035-3.267-9.186-4.701c-3.125-1.477-6.338-2.811-9.566-4.113
			c-1.614-0.659-3.24-1.291-4.876-1.894c-1.626-0.637-3.268-1.23-4.915-1.829c3.454,0.571,6.88,1.362,10.28,2.236
			c2.213,0.565,4.409,1.207,6.594,1.894c-3.396-8.872-7.823-17.068-13.092-24.46c0,0-19.815-4.642-44.557-7.572
			C163.005,42.24,163.311,44.787,163.547,47.454z"/>
		<path class="st17" d="M102.24,74.334c1.435-0.109,2.88-0.211,4.336-0.305c0.002,0,0.004,0,0.006,0
			c1.789-0.116,3.594-0.218,5.414-0.309l0.001,0c0.568-0.029,1.135-0.058,1.706-0.084c0.001,0,0.002,0,0.003,0
			c0.812-0.037,1.627-0.07,2.444-0.101l0.001,0c0.769-0.03,1.541-0.057,2.315-0.083c0.002,0,0.003,0,0.005,0
			c2.226-0.072,4.469-0.127,6.733-0.158c0.001,0,0.001,0,0.001,0c1.562-0.021,3.13-0.034,4.708-0.034
			c2.134,0,4.24,0.026,6.331,0.063c0.001,0,0.002,0,0.003,0c0.398,0.007,0.797,0.014,1.194,0.022c0,0,0.002,0,0.002,0
			c4.427,0.094,8.754,0.268,12.972,0.512c0.006,0,0.013,0.001,0.019,0.001c0,0,0,0,0,0c0.746,0.043,1.487,0.089,2.227,0.136
			c2.742-6.835,4.394-17.066,5.385-26.533c0.292-2.793,0.527-5.517,0.715-8.069c-10.317-1.119-21.328-1.896-32.016-1.896
			c-10.354,0-20.971,0.743-30.949,1.825c0.206,2.593,0.46,5.365,0.774,8.208C97.635,57.133,99.382,67.517,102.24,74.334z"/>
		<path class="st17" d="M14.077,91.323c0.001,0,0.004-0.001,0.005-0.002c0.004-0.001,0.009-0.003,0.013-0.004
			c0.057-0.02,0.127-0.044,0.209-0.072c0.006-0.002,0.015-0.005,0.021-0.007c0.075-0.026,0.158-0.054,0.254-0.086
			c0.046-0.016,0.099-0.033,0.15-0.051c0.071-0.024,0.141-0.048,0.221-0.074c0.063-0.021,0.132-0.044,0.201-0.067
			c0.074-0.025,0.147-0.049,0.227-0.075c0.099-0.033,0.204-0.067,0.312-0.103c0.06-0.02,0.119-0.039,0.181-0.059
			c0.124-0.041,0.254-0.083,0.39-0.127c0.06-0.02,0.121-0.039,0.184-0.06c0.151-0.049,0.307-0.099,0.472-0.152
			c0.052-0.016,0.105-0.033,0.158-0.05c0.183-0.058,0.371-0.118,0.57-0.181c0.031-0.01,0.063-0.02,0.094-0.03
			c5.609-1.771,17.123-5.147,32.768-8.419c0.001,0,0.001,0,0.001,0c0.682-0.143,1.371-0.285,2.069-0.427c0.001,0,0.001,0,0.001,0
			c0.002,0,0.004-0.001,0.005-0.001c0.487-0.099,0.971-0.198,1.465-0.297c0.164-1.669,0.374-3.421,0.658-5.263l26.309-7.485
			c-0.098,1.937-0.173,4.859-0.02,8.297c1.139-0.149,2.285-0.296,3.444-0.438l0,0c-0.102-2.492-0.085-4.695-0.03-6.393
			c1.741,1.576,4.096,3.602,6.479,5.288c0.007,0.111,0.016,0.241,0.024,0.37l0,0c1.133-0.12,2.283-0.231,3.433-0.342
			c-0.042-0.607-0.052-0.967-0.053-0.984c-0.01-0.56-0.291-1.081-0.752-1.399c-0.95-0.643-1.927-1.373-2.861-2.12
			c-0.85-8.101-0.711-15.94-0.09-22.974c0.239-2.705,0.549-5.287,0.901-7.723c-24.829,2.979-44.672,7.771-44.672,7.771
			c-5.212,7.346-9.597,15.48-12.964,24.283c2.18-0.687,4.382-1.329,6.584-1.894c3.399-0.873,6.826-1.665,10.285-2.236
			c-1.658,0.599-3.295,1.191-4.931,1.829c-1.625,0.604-3.251,1.235-4.865,1.894c-3.229,1.302-6.436,2.636-9.571,4.113
			c-3.142,1.434-6.227,2.971-9.176,4.701c-2.724,1.56-5.332,3.284-7.638,5.217c-0.094,0.587-0.193,1.219-0.269,1.828
			c-0.104,0.852-0.198,1.714-0.275,2.576c-0.043,0.495-0.063,0.992-0.092,1.489c0,0,0.059-0.021,0.17-0.059
			C14.075,91.323,14.075,91.323,14.077,91.323z"/>
		<path class="st17" d="M90.911,75.355c1.132-0.119,2.285-0.228,3.434-0.339c0-0.001,0-0.002,0-0.003
			C93.194,75.125,92.044,75.236,90.911,75.355z"/>
		<path class="st17" d="M14.325,91.237c-0.007,0.002-0.015,0.005-0.021,0.007C14.31,91.243,14.318,91.24,14.325,91.237z"/>
		<path class="st17" d="M208.392,81.971c0.006,0.001,0.013,0.003,0.019,0.004c0.683,0.154,1.355,0.309,2.018,0.463
			c-1.332-0.31-2.703-0.621-4.113-0.93C207.017,81.663,207.709,81.817,208.392,81.971z"/>
		<path class="st17" d="M200.031,80.19c1.397,0.279,2.757,0.561,4.09,0.845c0.006,0.001,0.012,0.003,0.019,0.004
			c0.714,0.152,1.417,0.304,2.112,0.456C204.252,81.056,202.181,80.619,200.031,80.19L200.031,80.19z"/>
		<path class="st17" d="M239.57,90.881c0.005,0.002,0.009,0.003,0.014,0.005c0.151,0.056,0.272,0.102,0.371,0.14
			c-0.203-0.077-0.519-0.196-0.948-0.352C239.222,90.752,239.412,90.822,239.57,90.881z"/>
		<path class="st17" d="M238.965,90.658c-0.215-0.079-0.455-0.165-0.724-0.262C238.509,90.493,238.749,90.58,238.965,90.658z"/>
		<path class="st17" d="M14.729,91.101c-0.051,0.017-0.104,0.035-0.15,0.051C14.624,91.136,14.678,91.118,14.729,91.101z"/>
		<path class="st17" d="M16.915,90.384c-0.164,0.053-0.32,0.103-0.472,0.152C16.595,90.487,16.751,90.436,16.915,90.384z"/>
		<path class="st17" d="M52.574,81.277c-0.697,0.142-1.386,0.284-2.068,0.427C51.188,81.561,51.877,81.419,52.574,81.277z"/>
		<path class="st17" d="M17.642,90.152c-0.198,0.063-0.387,0.123-0.57,0.181C17.256,90.275,17.444,90.215,17.642,90.152z"/>
		<path class="st17" d="M240.191,91.116c0.028,0.011,0.042,0.016,0.042,0.016s-0.085-0.033-0.236-0.091
			C240.084,91.075,240.154,91.102,240.191,91.116z"/>
		<path class="st17" d="M50.504,81.704c-15.645,3.271-27.158,6.648-32.768,8.419C23.349,88.352,34.862,84.975,50.504,81.704z"/>
		<path class="st17" d="M16.26,90.595c-0.136,0.044-0.265,0.086-0.39,0.127C15.994,90.681,16.124,90.639,16.26,90.595z"/>
		<path class="st17" d="M15.15,90.959c-0.069,0.023-0.138,0.046-0.201,0.067C15.012,91.005,15.082,90.982,15.15,90.959z"/>
		<path class="st17" d="M15.689,90.781c-0.108,0.036-0.213,0.07-0.312,0.103C15.476,90.851,15.581,90.817,15.689,90.781z"/>
		<path class="st17" d="M14.094,91.317c-0.004,0.001-0.009,0.003-0.013,0.004C14.085,91.32,14.091,91.318,14.094,91.317z"/>
		<path class="st17" d="M102.24,74.334c0,0.001,0.001,0.002,0.001,0.003c1.437-0.108,2.877-0.215,4.335-0.308
			C105.119,74.122,103.675,74.224,102.24,74.334z"/>
		<path class="st17" d="M123.501,73.324c0.568-0.01,1.133-0.023,1.703-0.031c-2.264,0.031-4.507,0.086-6.733,0.158
			c0.709-0.023,1.419-0.045,2.132-0.064C121.565,73.361,122.532,73.342,123.501,73.324z"/>
		<path class="st17" d="M113.705,73.635c0.812-0.037,1.627-0.07,2.444-0.101C115.332,73.565,114.517,73.598,113.705,73.635z"/>
		<path class="st17" d="M150.436,73.857c0.751,0.043,1.478,0.101,2.222,0.149c0.002-0.004,0.003-0.008,0.005-0.013
			C151.923,73.946,151.182,73.9,150.436,73.857z"/>
		<path class="st17" d="M106.581,74.028c1.79-0.115,3.595-0.218,5.414-0.309C110.176,73.81,108.37,73.912,106.581,74.028z"/>
		<path class="st17" d="M143.966,73.542c2.168,0.086,4.309,0.191,6.424,0.313c0.009,0,0.017,0.001,0.026,0.001
			c-4.218-0.244-8.545-0.417-12.972-0.512c2.094,0.045,4.167,0.105,6.215,0.185C143.762,73.533,143.863,73.538,143.966,73.542z"/>
		<path class="st17" d="M159.838,74.524c0.103,0.008,0.208,0.016,0.31,0.025c-0.104-0.009-0.206-0.019-0.31-0.027
			C159.838,74.522,159.838,74.523,159.838,74.524z"/>
		<path class="st17" d="M129.914,73.258c2.134,0,4.24,0.026,6.331,0.063C134.153,73.284,132.048,73.258,129.914,73.258z"/>
		<path class="st17" d="M230.054,87.698c-0.395-0.121-0.801-0.245-1.218-0.371C229.253,87.453,229.659,87.577,230.054,87.698z"/>
		<path class="st17" d="M227.462,86.917c0.005,0.001,0.01,0.003,0.014,0.004c0.45,0.133,0.888,0.264,1.315,0.393
			c0.005,0.002,0.01,0.003,0.015,0.005c-1.298-0.392-2.699-0.803-4.201-1.229C225.602,86.373,226.555,86.649,227.462,86.917z"/>
		<path class="st17" d="M230.094,87.71c3.691,1.135,6.437,2.076,8.132,2.681l0.001,0c-1.696-0.606-4.448-1.548-8.145-2.685
			C230.085,87.708,230.089,87.709,230.094,87.71z"/>
		<path class="st17" d="M224.568,86.079c0.012,0.003,0.024,0.007,0.036,0.01c-0.497-0.141-1.005-0.284-1.524-0.428
			C223.586,85.802,224.082,85.941,224.568,86.079z"/>
		<path class="st17" d="M212.459,82.919c0.632,0.151,1.254,0.302,1.866,0.453c0.01,0.003,0.021,0.005,0.032,0.008
			c-0.633-0.156-1.277-0.312-1.931-0.469C212.438,82.914,212.449,82.916,212.459,82.919z"/>
		<path class="st17" d="M217.976,84.293c0.029,0.007,0.058,0.015,0.086,0.022c0.562,0.146,1.114,0.29,1.657,0.434
			c0.017,0.005,0.034,0.009,0.051,0.014c-1.131-0.3-2.304-0.604-3.518-0.911C216.837,84,217.411,84.147,217.976,84.293z"/>
		<path class="st17" d="M221.4,85.2c0.023,0.006,0.045,0.012,0.068,0.018c0.525,0.143,1.039,0.284,1.544,0.424
			c-1.029-0.286-2.101-0.577-3.213-0.872C220.343,84.915,220.876,85.058,221.4,85.2z"/>
		<path class="st17" d="M216.18,83.834c-0.589-0.149-1.188-0.298-1.797-0.448C214.992,83.536,215.591,83.685,216.18,83.834z"/>
		<path class="st17" d="M212.389,82.902c-0.633-0.151-1.274-0.303-1.925-0.455C211.115,82.599,211.756,82.75,212.389,82.902z"/>
		<polygon class="st18" points="163.465,74.843 163.465,74.843 163.465,74.843 		"/>
		<path class="st19" d="M163.465,74.843L163.465,74.843c-0.065,0.047-0.131,0.096-0.196,0.143
			c-0.149,2.432-0.825,9.335-3.916,15.815c1.582,0.129,3.163,0.269,4.745,0.417c1.175,0.11,2.35,0.222,3.525,0.346
			c-0.03-0.114-0.04-0.232-0.048-0.35c-0.012-0.185-0.005-0.372,0.048-0.556c1.438-5.242,1.969-10.718,2.118-15.169l0,0
			C167.685,75.258,165.591,75.043,163.465,74.843z"/>
		<path class="st20" d="M169.743,69.697c-1.688,1.533-3.968,3.488-6.278,5.146l0,0c2.126,0.2,4.219,0.415,6.276,0.645l0,0
			C169.817,73.243,169.797,71.254,169.743,69.697z"/>
		<path class="st19" d="M86.532,90.657c0.059,0.218,0.059,0.435,0.033,0.646c-0.01,0.082-0.012,0.166-0.033,0.244
			c0.831-0.088,1.663-0.166,2.494-0.247c1.923-0.187,3.847-0.363,5.771-0.516c-2.95-6.184-3.699-12.729-3.885-15.428
			c-2.189,0.231-4.35,0.475-6.473,0.734C84.616,80.431,85.161,85.654,86.532,90.657z"/>
		<path class="st20" d="M84.407,69.697c-0.054,1.698-0.072,3.901,0.03,6.393c2.124-0.259,4.285-0.504,6.473-0.734
			c-0.009-0.129-0.018-0.259-0.024-0.37C88.504,73.299,86.148,71.273,84.407,69.697z"/>
		<polygon class="st18" points="54.046,80.978 54.046,80.978 54.046,80.978 		"/>
		<path class="st19" d="M54.046,80.978c-0.401,4.091-0.489,7.629-0.446,10.361c0.037,2.347,0.165,4.11,0.261,5.138l0.135-0.081
			c0,0,0.171-2.22,0.515-5.058c0.427-3.523,1.121-7.998,2.088-10.367c0.08-0.194,0.207-0.38,0.354-0.562
			C55.971,80.598,55,80.788,54.046,80.978L54.046,80.978z"/>
		<path class="st19" d="M78.301,76.889c0.507,0.594,0.901,1.365,1.126,2.385c0.804,3.65,1.911,6.686,2.972,8.925
			c-0.855-4.103-1.249-8.157-1.405-11.671l0,0C80.089,76.646,79.192,76.767,78.301,76.889z"/>
		<path class="st19" d="M171.539,89.148c1.195-2.293,2.524-5.676,3.448-9.874c0.303-1.378,0.909-2.311,1.701-2.942
			c-1.156-0.152-2.327-0.299-3.507-0.442C173.034,79.813,172.595,84.474,171.539,89.148z"/>
		<path class="st19" d="M196.393,79.483c0.695,0.451,1.2,0.945,1.422,1.488c0.956,2.335,1.642,6.709,2.07,10.206
			c0.236,1.926,0.394,3.59,0.473,4.492c0.082-1.077,0.166-2.604,0.193-4.493c0.04-2.889-0.059-6.638-0.52-10.987l0,0
			C198.841,79.952,197.627,79.716,196.393,79.483z"/>
		<g>
			<path class="st20" d="M54.704,75.715c-0.284,1.842-0.494,3.594-0.658,5.263c0.955-0.191,1.925-0.38,2.907-0.569
				c6.553-1.26,13.704-2.467,21.348-3.52c0.891-0.123,1.788-0.243,2.693-0.362c-0.153-3.439-0.078-6.36,0.02-8.297L54.704,75.715z"
				/>
			<path class="st20" d="M199.452,75.715l-26.32-7.485c0.096,1.816,0.168,4.499,0.049,7.66c1.181,0.143,2.351,0.29,3.507,0.442h0
				c7.059,0.928,13.646,2.007,19.705,3.151h0c1.234,0.233,2.448,0.469,3.638,0.706C199.879,78.76,199.689,77.266,199.452,75.715z"/>
		</g>
		<polygon class="st18" points="200.031,80.19 200.031,80.19 200.031,80.19 		"/>
		<path class="st18" d="M156.912,74.291c-0.001,0-0.001,0-0.002,0c0.005,0,0.011,0.001,0.016,0.001
			c-0.004,0-0.008-0.001-0.012-0.001C156.914,74.291,156.912,74.291,156.912,74.291z"/>
		<path class="st18" d="M96.586,74.803c-0.228,0.021-0.46,0.039-0.688,0.06C96.126,74.842,96.358,74.824,96.586,74.803z"/>
		<path class="st18" d="M101.499,74.389c-0.115,0.009-0.232,0.017-0.347,0.026C101.266,74.406,101.383,74.398,101.499,74.389z"/>
		<path class="st19" d="M156.91,74.291c-1.398-0.106-2.829-0.193-4.252-0.285c-1.925,4.793-4.387,7.915-7.538,7.915
			c-13.624,0-16.354,0-16.354,0h-2.724c0,0-2.724,0-16.354,0c-3.078,0-5.516-2.978-7.448-7.584
			c-0.246,0.019-0.497,0.034-0.742,0.053c-0.115,0.009-0.232,0.017-0.347,0.026c-1.536,0.12-3.055,0.251-4.565,0.388
			c-0.228,0.021-0.46,0.039-0.688,0.06c-0.523,0.048-1.034,0.103-1.554,0.153c0.173,2.48,0.906,9.227,3.983,15.152
			c0.055,0.11,0.093,0.231,0.132,0.346c9.527-0.648,19.082-0.912,28.616-0.918c9.538,0.006,19.088,0.286,28.61,0.939
			c0.038-0.126,0.077-0.247,0.143-0.368c3.309-6.382,3.908-13.716,4.01-15.645c-0.966-0.08-1.935-0.158-2.912-0.232
			C156.92,74.291,156.915,74.291,156.91,74.291z"/>
		<path class="st21" d="M159.507,24.154c-0.037,1.819-0.194,7.787-0.744,15.237c1.311,0.142,2.61,0.29,3.896,0.442
			C161.727,33.352,160.499,27.924,159.507,24.154z"/>
		<path class="st21" d="M94.961,23.597l-0.701,2.072c-0.911,3.645-1.955,8.491-2.771,14.144c1.421-0.17,2.859-0.335,4.31-0.492
			C95.09,30.381,94.961,23.597,94.961,23.597z"/>
		<path class="st20" d="M152.662,73.993c1.429,0.091,2.844,0.191,4.247,0.297c0.001,0,0.001,0,0.002,0c0.001,0,0.002,0,0.002,0
			c0.005,0,0.009,0.001,0.013,0.001c0.975,0.074,1.95,0.149,2.912,0.229c0.016-0.301,0.021-0.48,0.021-0.492
			c0.011-0.56,0.297-1.081,0.757-1.399c0.919-0.622,1.847-1.326,2.757-2.048l0.119-0.34c0.826-8.04,0.674-15.807,0.056-22.788
			c-0.236-2.667-0.542-5.214-0.888-7.62c-1.286-0.152-2.585-0.3-3.896-0.442c-0.189,2.552-0.423,5.276-0.715,8.069
			C157.057,56.927,155.405,67.158,152.662,73.993z"/>
		<path class="st20" d="M96.586,74.803c1.509-0.137,3.03-0.267,4.565-0.388c0.115-0.009,0.232-0.017,0.347-0.026
			c0.246-0.019,0.494-0.037,0.741-0.056c-2.857-6.817-4.604-17.201-5.667-26.805c-0.314-2.843-0.569-5.615-0.774-8.208
			c-1.451,0.157-2.889,0.321-4.31,0.492c-0.352,2.435-0.662,5.018-0.901,7.723c-0.62,7.034-0.76,14.873,0.09,22.974
			c0.934,0.747,1.911,1.477,2.861,2.12c0.461,0.318,0.742,0.839,0.752,1.399c0.001,0.017,0.011,0.377,0.053,0.984
			c0.518-0.05,1.033-0.102,1.554-0.15C96.126,74.842,96.358,74.824,96.586,74.803z"/>
		<path class="st18" d="M101.499,74.389c0.245-0.019,0.496-0.034,0.742-0.053c0-0.001-0.001-0.002-0.001-0.003
			C101.993,74.352,101.745,74.37,101.499,74.389z"/>
		<path class="st18" d="M101.151,74.415c-1.535,0.121-3.056,0.251-4.565,0.388C98.096,74.667,99.615,74.536,101.151,74.415z"/>
		<path class="st18" d="M156.926,74.292c0.977,0.074,1.947,0.152,2.912,0.232c0-0.001,0-0.002,0-0.003
			C158.876,74.44,157.901,74.366,156.926,74.292z"/>
		<path class="st18" d="M152.658,74.006c1.423,0.091,2.854,0.179,4.252,0.285c-1.403-0.107-2.818-0.206-4.247-0.297
			C152.661,73.997,152.659,74.002,152.658,74.006z"/>
		<path class="st18" d="M94.344,75.014c0,0.001,0,0.002,0,0.003c0.52-0.05,1.031-0.105,1.554-0.153
			C95.377,74.912,94.862,74.963,94.344,75.014z"/>
		<path class="st19" d="M50.145,91.343c-0.027-1.751-0.004-3.801,0.116-6.113c-0.475,1.924-1.077,4.042-1.814,6.115
			c-1.497,4.21-3.556,8.225-6.286,9.994c2.438-1.127,5-2.004,7.551-2.84c0.297-0.093,0.604-0.182,0.901-0.274
			c-0.011-0.077-0.033-0.149-0.05-0.225C50.534,97.798,50.207,95.377,50.145,91.343z"/>
		<path class="st19" d="M205.759,91.171c-0.708-2.017-1.29-4.071-1.751-5.941c0.116,2.238,0.14,4.228,0.117,5.943
			c-0.055,4.134-0.391,6.622-0.42,6.827c-0.017,0.077-0.039,0.148-0.05,0.225c0.297,0.093,0.604,0.181,0.901,0.274
			c2.551,0.836,5.113,1.713,7.551,2.84C209.34,99.546,207.26,95.445,205.759,91.171z"/>
	</g>
	<g>
		<path class="st4" d="M212.705,101.748c-0.015-0.007-0.027-0.013-0.041-0.02c-0.235-0.115-0.465-0.246-0.69-0.393
			c-2.436-1.123-4.988-1.996-7.536-2.831c-0.302-0.099-0.599-0.187-0.901-0.275c0.023-0.077,0.044-0.154,0.056-0.23
			c0.038-0.289,0.693-5.127,0.298-12.757c-0.168-3.258-0.527-7.023-1.21-11.164c-0.109-0.659-0.593-1.196-1.23-1.378l-3.751-1.06
			c-0.807-29.028-12.757-42.668-13.13-43.091c10.675,17.183,10.582,37.561,10.396,42.311l-23.257-6.611
			c-0.016,0-0.033,0-0.054-0.011c-0.094-0.022-0.198-0.034-0.297-0.045c-0.022,0-0.049-0.005-0.088-0.005
			c-0.12-0.005-0.252,0.005-0.379,0.033c-0.017,0-0.038,0.017-0.061,0.017c-0.104,0.022-0.197,0.055-0.301,0.104
			c-0.038,0.016-0.072,0.039-0.105,0.05c-0.077,0.055-0.153,0.099-0.23,0.154c-0.017,0.011-0.038,0.022-0.055,0.038
			c-0.022,0.017-0.033,0.034-0.044,0.044c-0.022,0.022-0.049,0.038-0.066,0.055c-0.022,0.023-0.648,0.637-1.62,1.555
			c0.066-2.175,0.084-5.504-0.163-9.569c-0.023-0.385-0.049-0.776-0.078-1.173c-0.729-10.212-3.145-24.557-10.358-37.115
			c0.062,0.181,0.775,2.265,1.697,5.774c2.322,8.83,5.977,26.699,3.984,46.088c-0.008,0.089-0.015,0.178-0.024,0.267
			c-0.031,0.024-0.064,0.048-0.094,0.073c-0.909,0.721-1.837,1.426-2.756,2.048c-0.461,0.318-0.746,0.839-0.757,1.399
			c0,0.088-0.203,8.759-4.031,16.14c-0.066,0.121-0.105,0.242-0.143,0.368c-9.522-0.653-19.072-0.933-28.61-0.939
			c-9.534,0.006-19.089,0.269-28.616,0.918c-0.039-0.115-0.077-0.237-0.132-0.346c-3.833-7.381-4.031-16.052-4.037-16.14
			c-0.01-0.56-0.291-1.081-0.752-1.399c-0.95-0.643-1.927-1.373-2.861-2.12c-1.936-18.446,1.257-35.54,3.582-44.841
			c1.104-4.416,2.014-7.083,2.085-7.288C85.878,36.595,85.516,58.571,85.747,66.238c-0.988-0.918-1.603-1.532-1.62-1.555
			c-0.017-0.017-0.05-0.033-0.071-0.055c-0.011-0.011-0.022-0.027-0.039-0.044c-0.017-0.016-0.038-0.027-0.061-0.038
			c-0.077-0.055-0.154-0.099-0.23-0.142c-0.038-0.022-0.066-0.045-0.11-0.061c-0.099-0.049-0.187-0.082-0.286-0.093
			c-0.027-0.011-0.049-0.028-0.066-0.028c-0.132-0.028-0.264-0.038-0.385-0.033c-0.033,0-0.065,0.005-0.098,0.005
			c-0.094,0.011-0.187,0.022-0.286,0.045c-0.022,0.011-0.033,0.011-0.055,0.011l-23.25,6.611c-0.186-4.75-0.286-25.128,10.39-42.311
			c-0.374,0.423-12.323,14.063-13.136,43.091L52.71,72.7c-0.653,0.182-1.131,0.719-1.241,1.378
			c-0.681,4.136-1.04,7.896-1.209,11.151C49.865,92.867,50.521,97.71,50.563,98c0.017,0.077,0.039,0.148,0.05,0.225
			c-0.297,0.093-0.604,0.181-0.901,0.274c-2.551,0.836-5.113,1.713-7.551,2.84c-0.224,0.145-0.453,0.275-0.685,0.389
			c-0.015,0.007-0.026,0.013-0.041,0.02c-0.128,0.063-0.574,0.281-1.1,0.538c-0.206,0.101-0.4,0.195-0.572,0.28
			c0,0-0.002,0.001-0.003,0.001c-0.12,0.068-0.242,0.13-0.36,0.199c1.724-0.676,3.509-1.17,5.293-1.61
			c1.79-0.445,3.592-0.84,5.392-1.181c3.619-0.675,7.249-1.257,10.901-1.702c3.641-0.478,7.298-0.873,10.961-1.181
			c3.662-0.313,7.32-0.62,10.994-0.835c14.684-0.867,29.406-1.142,44.135-1.147c14.733,0.011,29.455,0.241,44.134,1.142
			c3.674,0.214,7.331,0.521,10.999,0.83c3.668,0.312,7.315,0.714,10.956,1.192c3.652,0.439,7.288,1.021,10.901,1.697
			c1.806,0.346,3.602,0.73,5.387,1.186c1.796,0.439,3.569,0.933,5.299,1.61c-0.096-0.055-0.194-0.105-0.289-0.159
			c-0.221-0.108-0.445-0.217-0.656-0.321C213.278,102.029,212.832,101.811,212.705,101.748z M82.556,91.981
			c-3.69,0.45-7.386,0.917-11.065,1.526c-3.668,0.627-7.337,1.296-10.972,2.103c-2.207,0.512-4.393,1.055-6.578,1.648
			c-0.02-0.174-0.049-0.44-0.08-0.781c-0.253-2.713-0.732-10.528,0.844-20.761l26.309-7.485c-0.198,3.916-0.305,11.852,1.386,19.968
			c0.235,1.125,0.503,2.254,0.811,3.376c0.034,0.11,0.078,0.22,0.126,0.319C83.072,91.925,82.82,91.948,82.556,91.981z
			 M86.532,91.547c0.077-0.28,0.083-0.587,0-0.889c-2.158-7.874-2.273-16.304-2.125-20.961c1.741,1.576,4.097,3.602,6.479,5.288
			c0.143,2.432,0.819,9.319,3.91,15.799C92.04,91.003,89.283,91.256,86.532,91.547z M167.624,90.657
			c-0.088,0.302-0.077,0.615,0,0.906c-2.757-0.291-5.513-0.538-8.27-0.764c3.091-6.48,3.767-13.382,3.916-15.815
			c2.377-1.686,4.738-3.712,6.474-5.288C169.902,74.343,169.787,82.772,167.624,90.657z M200.358,95.67
			c-0.058,0.761-0.115,1.301-0.149,1.594c-2.175-0.593-4.371-1.131-6.579-1.647c-7.276-1.598-14.64-2.784-22.042-3.63
			c-0.252-0.033-0.516-0.05-0.774-0.082c0.049-0.11,0.094-0.22,0.127-0.33c0.222-0.807,0.416-1.617,0.598-2.426
			c1.907-8.441,1.807-16.849,1.592-20.918l26.32,7.485C200.886,85.068,200.608,92.405,200.358,95.67z"/>
		<path class="st4" d="M128.766,85.921c0,0,2.181,0,12.334,0V69.274h-5.266V39.802h3.487v6.376h15.48V24.338h-54.469v21.839h15.469
			v-6.376h3.476v29.472h-5.25v16.647c9.885,0,12.015,0,12.015,0H128.766z M118.668,73.925h5.26V35.161H111.15v6.375h-6.178V28.984
			h45.178v12.553h-6.178v-6.375h-12.778v38.764h5.261v7.194h-17.786V73.925z"/>
		<path class="st4" d="M23.965,126.43c-0.663-0.307-1.327-0.618-1.863-0.864l-1.543-0.736c-0.253-0.122-0.522-0.258-0.775-0.385
			l-0.002-0.004c-0.001,0-0.002-0.001-0.002-0.001l-0.22-0.417c-0.182-0.357-0.358-0.73-0.527-1.109
			c-0.302-0.656-0.591-1.337-0.858-2.031c-0.04-0.101-0.086-0.196-0.125-0.297c-0.604-1.587-1.131-3.223-1.592-4.881
			c-0.934-3.317-1.566-6.744-2.043-10.203c-0.141-1.1-0.252-2.206-0.348-3.313c-0.206-2.356-0.316-4.723-0.294-7.088
			c0.007-0.777,0.028-1.553,0.058-2.329c0.035-0.961,0.086-1.92,0.168-2.877c0.077-0.862,0.17-1.725,0.275-2.576
			c0.077-0.604,0.17-1.241,0.269-1.828c2.306-1.939,4.914-3.657,7.638-5.228c2.944-1.719,6.029-3.257,9.176-4.69
			c3.135-1.477,6.342-2.816,9.566-4.118c1.62-0.648,3.245-1.286,4.871-1.895c0.223-0.085,0.449-0.164,0.672-0.248
			c1.413-0.54,2.828-1.058,4.259-1.575c-3.459,0.571-6.886,1.362-10.285,2.236c-2.202,0.565-4.404,1.207-6.584,1.894
			c15.53-40.604,52.663-67.045,93.223-67.045c6.337,0,12.59,0.646,18.69,1.89c32.942,6.719,61.43,30.896,74.542,65.155
			c-0.002-0.001-0.004-0.001-0.006-0.002c0,0.001,0,0.001,0,0.001c-2.18-0.686-4.388-1.328-6.595-1.894
			c-3.39-0.872-6.813-1.663-10.269-2.234c1.43,0.52,2.855,1.04,4.27,1.584c0.212,0.08,0.428,0.156,0.64,0.237
			c1.636,0.609,3.262,1.247,4.876,1.895c3.229,1.302,6.441,2.641,9.566,4.118c3.151,1.434,6.238,2.971,9.186,4.69
			c2.719,1.57,5.333,3.289,7.633,5.228c0.104,0.587,0.203,1.219,0.275,1.828c0.104,0.851,0.197,1.714,0.268,2.576
			c0.155,1.729,0.215,3.465,0.232,5.206c0.033,3.481-0.203,6.963-0.649,10.401c-0.472,3.453-1.104,6.886-2.042,10.203
			c-0.462,1.658-0.983,3.3-1.588,4.876c-0.307,0.802-0.637,1.581-0.983,2.334c-0.169,0.379-0.351,0.752-0.538,1.109l-0.209,0.423
			c-0.263,0.126-0.527,0.263-0.779,0.385l-1.548,0.736c-0.537,0.252-1.097,0.493-1.651,0.735l-3.522,13.378l1.856-7.035
			c0.653-0.28,1.345-0.56,2.13-0.862c1.12-0.445,2.241-0.889,3.361-1.372l1.658-0.747c0.576-0.269,1.094-0.516,1.725-0.841
			l0.592-0.302l0.374-0.588c0.208-0.318,0.319-0.494,0.451-0.736l0.362-0.654c0.247-0.45,0.467-0.878,0.67-1.318
			c0.418-0.884,0.791-1.768,1.142-2.658c0.697-1.779,1.285-3.57,1.802-5.381c0.983-3.646,1.686-7.326,2.076-11.038
			c0.423-3.718,0.516-7.463,0.329-11.202c-0.088-1.867-0.275-3.734-0.538-5.58c-0.12-0.934-0.264-1.867-0.456-2.784
			c-0.182-0.945-0.368-1.823-0.664-2.85l-0.198-0.725l-0.516-0.407c-2.944-2.311-6.118-4.058-9.341-5.601
			c-2.663-1.257-5.365-2.351-8.1-3.361c-7.621-21.153-20.725-39.912-37.951-52.981C169.83,7.15,148.887,0,127.075,0
			c-21.812,0-42.756,7.15-60.565,20.659c-17.226,13.069-30.33,31.827-37.951,52.986c-2.729,1.004-5.436,2.103-8.094,3.355
			c-3.229,1.543-6.403,3.29-9.346,5.601l-0.516,0.407l-0.198,0.725c-0.285,1.027-0.472,1.905-0.664,2.85
			c-0.186,0.917-0.324,1.85-0.456,2.784c-0.263,1.845-0.439,3.712-0.538,5.58c-0.187,3.739-0.083,7.484,0.329,11.202
			c0.395,3.712,1.087,7.391,2.075,11.038c0.516,1.812,1.104,3.602,1.801,5.381c0.347,0.89,0.726,1.774,1.143,2.658
			c0.208,0.44,0.433,0.868,0.664,1.318l0.369,0.654c0.142,0.242,0.236,0.418,0.45,0.736l0.373,0.588l0.594,0.302
			c0.631,0.325,1.153,0.572,1.724,0.841l1.664,0.747c0.307,0.126,0.598,0.252,0.912,0.378l4.289-3.824
			C24.763,126.799,24.365,126.615,23.965,126.43z"/>
	</g>
	<polygon class="st22" points="118.668,73.925 123.928,73.925 123.928,35.161 111.15,35.161 111.15,41.537 104.972,41.537 
		104.972,28.984 131.193,28.984 143.407,28.984 150.15,28.984 150.15,41.537 143.972,41.537 143.972,35.161 131.193,35.161 
		131.193,73.925 136.454,73.925 136.454,81.119 118.668,81.119 	"/>
	<path class="st4" d="M170.822,242.328c0,0,24.856-15.774,35.038-40.025l-3.068-1.126l-2.423,2.25c0,0-17.903,30.061-43.365,40.906
		l-0.337,1.72L170.822,242.328z"/>
	<path class="st4" d="M144.483,182.788c0,0-5.876,5.458-15.343,6.678c-9.462,1.214-16.892-4.597-16.892-4.597
		c0.312,1.006,0.751,3.277,2.876,5.214l-0.031,0c0,0,0.013,0.002,0.037,0.006c0.006,0.006,0.011,0.012,0.018,0.018l0.05,0
		c0.409,0.495,4.607,4.009,13.032,4.009c6.371,0,11.177-3.711,11.994-4.256l0.18-0.046l-0.027,0
		C144.447,186.738,144.483,182.788,144.483,182.788z"/>
	<g>
		<path class="st23" d="M174.683,185.303c-27.012,0-38.659-19.931-41.855-33.141c-1.618-0.471-3.472-0.892-4.786-0.892
			c-1.314,0-3.167,0.421-4.786,0.892c-3.196,13.21-14.845,33.141-41.856,33.141c-35.59,0-59.294-11.394-59.294-67
			c0-1.965,0.962-3.805,2.575-4.926c1.195-0.832,29.625-19.851,89.916,2.642c2.795-1.044,7.539-2.34,13.444-2.137
			c5.913-0.206,10.649,1.093,13.444,2.137c60.292-22.492,88.72-3.472,89.916-2.642c1.613,1.121,2.575,2.961,2.575,4.926
			C233.977,173.909,210.274,185.303,174.683,185.303z M128.042,139.271c5.682,0,12.585,2.92,12.646,2.949
			c1.804,0.879,3.05,2.601,3.318,4.589c0.153,1.059,4.12,26.494,30.678,26.494c17.331,0,27.695-2.799,34.656-9.358
			c8.049-7.586,12.184-21.366,12.603-42.066c-2.977-1.341-8.516-3.329-16.704-4.27c-12.143-1.394-32.711-0.708-61.736,10.479
			c-1.623,0.625-3.434,0.516-4.969-0.297c-0.162-0.083-4.356-2.16-10.239-1.91c-0.168,0.007-0.336,0.007-0.504,0
			c-5.975-0.25-10.203,1.891-10.245,1.913c-1.543,0.835-3.326,0.926-4.963,0.295c-29.028-11.188-49.595-11.873-61.737-10.479
			c-8.177,0.939-13.712,2.923-16.704,4.273c0.419,20.698,4.554,34.478,12.603,42.063c6.961,6.56,17.325,9.358,34.656,9.358
			c26.78,0,30.531-25.412,30.678-26.494c0.27-1.988,1.515-3.71,3.319-4.589C115.457,142.191,122.36,139.271,128.042,139.271z"/>
	</g>
	<g>
		<path class="st4" d="M238.271,222.303c1.333-5.875,0.977-7.003,0.395-8.5c-1.305-3.357-2.833-4.018-2.962-4.113
			c-0.891-0.652-2.142-0.461-2.795,0.43c-0.649,0.885-0.463,2.127,0.415,2.784c0.103,0.08,1.427,0.899,2.885,2.92
			C236.87,216.741,237.354,217.991,238.271,222.303z"/>
	</g>
	<circle class="st5" cx="85.667" cy="141.303" r="4"/>
	<circle class="st5" cx="171" cy="141.303" r="4"/>
	<g>
		<path class="st11" d="M174.683,185.303c-27.013,0-38.661-19.931-41.856-33.141c-1.618-0.471-3.471-0.892-4.786-0.892
			s-3.167,0.421-4.786,0.892c-3.195,13.209-14.843,33.141-41.856,33.141c-35.59,0-59.294-11.394-59.294-67v-3.557l3.12-1.707
			c1.188-0.65,29.449-19.476,89.374,2.978c2.795-1.043,7.538-2.339,13.441-2.136c5.914-0.21,10.646,1.092,13.441,2.136
			c59.928-22.453,88.187-3.628,89.374-2.978l3.12,1.708v3.556C233.977,173.909,210.274,185.303,174.683,185.303z M128.042,139.27
			c5.704,0,12.594,2.925,12.654,2.955l2.879,1.408l0.431,3.176c0.152,1.059,4.121,26.494,30.678,26.494
			c17.331,0,27.695-2.799,34.656-9.358c7.984-7.525,12.117-21.147,12.592-41.573c-8.423-2.644-33.824-11.477-78.43,5.715
			l-2.58,0.994l-2.395-1.295c-0.251-0.125-4.407-2.151-10.233-1.906l-0.251,0.011l-0.251-0.011
			c-5.977-0.248-10.203,1.89-10.245,1.912l-2.432,1.315l-2.531-1.021c-44.553-17.172-69.951-8.371-78.43-5.709
			c0.475,20.423,4.607,34.042,12.592,41.566c6.961,6.56,17.325,9.358,34.656,9.358c26.78,0,30.531-25.413,30.678-26.494l0.431-3.176
			l2.879-1.408C115.448,142.195,122.338,139.27,128.042,139.27z"/>
	</g>
	<g>
		<path class="st4" d="M183.191,133.734c-0.04,0.187-0.941,3.306-5.75,3.061c0.267,0.474,0.399-0.973-2.208-2.537
			C178.566,134.556,180.997,134.899,183.191,133.734z"/>
		<path class="st4" d="M184.593,135.611c-0.04,0.187-0.941,3.306-5.75,3.061c0.267,0.474,0.399-0.973-2.208-2.537
			C179.968,136.433,182.399,136.775,184.593,135.611z"/>
		<path class="st4" d="M185.668,137.94c-0.04,0.187-0.941,3.306-5.75,3.061c0.267,0.474,0.399-0.973-2.208-2.537
			C181.042,138.763,183.474,139.105,185.668,137.94z"/>
		<path class="st4" d="M170.497,157.532c0.423,0.061,0.834,0.112,1.238,0.157c5.735,0.517,8.078-2.368,8.078-2.368
			c0.788-1.174,1.329-2.843,1.53-5.225c0.731-8.628-3.117-16.21-8.577-16.911c-5.467-0.702-10.104,5.789-11.203,14.384
			C160.463,156.148,165.03,156.836,170.497,157.532z M168.17,140.884c0.219-1.539,1.647-2.606,3.184-2.382
			c1.545,0.219,2.612,1.652,2.382,3.189c-0.225,1.539-1.651,2.601-3.19,2.382C169.008,143.849,167.941,142.416,168.17,140.884z"/>
	</g>
	<g>
		<path class="st4" d="M73.443,133.578c0.037,0.188,0.889,3.32,5.701,3.152c-0.274,0.47-0.384-0.979,2.248-2.502
			C78.055,134.474,75.619,134.778,73.443,133.578z"/>
		<path class="st4" d="M72.012,135.433c0.037,0.188,0.889,3.32,5.701,3.152c-0.274,0.47-0.384-0.979,2.248-2.502
			C76.623,136.328,74.187,136.632,72.012,135.433z"/>
		<path class="st4" d="M70.9,137.745c0.037,0.188,0.889,3.32,5.701,3.152c-0.274,0.47-0.384-0.979,2.248-2.502
			C75.512,138.641,73.076,138.945,70.9,137.745z"/>
		<path class="st4" d="M94.85,147.752c-0.963-8.612-5.498-15.174-10.975-14.559c-5.471,0.615-9.438,8.136-8.842,16.774
			c0.164,2.385,0.679,4.062,1.448,5.249c0,0,2.297,2.922,8.04,2.495c0.405-0.039,0.816-0.083,1.241-0.137
			C91.238,156.963,95.815,156.347,94.85,147.752z M85.924,144.116c-1.542,0.195-2.951-0.89-3.152-2.432
			c-0.206-1.541,0.884-2.956,2.432-3.152c1.54-0.2,2.952,0.89,3.146,2.432C88.555,142.499,87.465,143.916,85.924,144.116z"/>
	</g>
	<path class="st24" d="M148.404,215.935c0,0-6.863-1.789-8.988-1.789c-2.125,0-11.669,2.644-11.669,2.644l-11.669-4.644
		l-8.988,3.789l11.248,3.965h7.409l2.053,1c0,0,6.367-0.473,9.409-1s11.248-3.965,11.248-3.965l7.096-4"/>
	<path class="st5" d="M126.748,216.791c0,0-0.002,1.346,1.002,1.346s12.247-0.069,19.707-2.201l-5.957-3.549l-14.5,0.417
		L126.748,216.791z"/>
	<path class="st5" d="M128.457,216.791c0,0,0.002,1.346-1.002,1.346s-12.247-0.069-19.707-2.201l5.957-3.549l14.5,0.417
		L128.457,216.791z"/>
	<path class="st3" d="M157.556,210.937c-0.019-0.019-0.056-0.002-0.056-0.002s-5.74,2.685-8.78-0.355
		c-3.04-3.04-7.859-6.027-11.644-6.027c-3.237,0-7.746,2.726-8.988,3.516c-1.452-0.79-6.694-3.516-9.931-3.516
		c-3.784,0-8.604,2.987-11.644,6.027c-3.04,3.04-8.78,0.355-8.78,0.355s-0.037-0.017-0.056,0.002
		c-0.019,0.019-0.005,0.048-0.005,0.048l10.155,10.816c0,0,5.072,5.668,7.989,7.251c2.917,1.583,9.666,2.758,11.616,2.758
		c0.019,0,0.245-0.001,0.252-0.001v-0.002c0.041,0.001,0.102,0.003,0.116,0.003c1.95,0,8.699-1.175,11.616-2.758
		c2.917-1.583,7.989-7.251,7.989-7.251l10.155-10.816C157.561,210.985,157.575,210.956,157.556,210.937z M148.457,215.935
		c0,0-8.206,3.438-11.248,3.965s-9.516,1-9.516,1s-6.627-0.473-9.669-1s-11.248-3.965-11.248-3.965l-0.019-0.011l0.072,0.011
		c0,0,6.863-1.789,8.988-1.789c2.122,0,11.639,2.636,11.666,2.643c0,0,0.087,0.013,0.142,0.013c0.055,0,0.126-0.013,0.126-0.013
		c0.027-0.007,9.544-2.643,11.666-2.643c2.125,0,8.988,1.789,8.988,1.789l0.072-0.011L148.457,215.935z"/>
	<path class="st2" d="M157.556,210.937c-0.019-0.019-0.056-0.002-0.056-0.002s-5.74,2.685-8.78-0.355
		c-3.04-3.04-7.859-6.027-11.644-6.027c-3.237,0-7.746,2.726-8.988,3.516c-1.452-0.79-6.694-3.516-9.931-3.516
		c-3.784,0-8.604,2.987-11.644,6.027c-3.04,3.04-8.78,0.355-8.78,0.355s-0.037-0.017-0.056,0.002
		c-0.019,0.019-0.005,0.048-0.005,0.048l0.422,0.45c2.611,1.677,5.598,3.191,8.996,4.433c1.257-0.321,6.844-1.721,8.726-1.721
		c2.122,0,11.639,2.636,11.666,2.643c0,0,0.087,0.013,0.142,0.013c0.055,0,0.126-0.013,0.126-0.013
		c0.027-0.007,9.544-2.643,11.666-2.643c1.768,0,6.801,1.235,8.449,1.651c2.851-1.04,5.887-2.381,9.041-4.114l0.655-0.698
		C157.561,210.985,157.575,210.956,157.556,210.937z"/>
	<path class="st25" d="M148.457,215.935c0,0-8.206,3.438-11.248,3.965s-9.516,1-9.516,1s-6.627-0.473-9.669-1
		s-11.248-3.965-11.248-3.965l-0.019-0.011l0.072,0.011c0,0,6.863-1.789,8.988-1.789c2.122,0,11.639,1.636,11.666,1.643
		c0,0,0.087,0.013,0.142,0.013c0.055,0,0.126-0.013,0.126-0.013c0.027-0.007,9.544-1.643,11.666-1.643
		c2.125,0,8.988,1.789,8.988,1.789l0.072-0.011L148.457,215.935z"/>
	<g>
		<polygon class="st5" points="238.242,207.188 224.524,210.305 225.442,213.591 238.633,210.289 		"/>
		<g>
			<path class="st4" d="M238.242,207.188l0.391,3.1l-13.19,3.302l-0.919-3.286L238.242,207.188 M238.242,205.188
				c-0.148,0-0.296,0.016-0.443,0.05l-13.718,3.116c-0.534,0.121-0.995,0.456-1.275,0.926c-0.28,0.47-0.355,1.035-0.208,1.562
				l0.918,3.286c0.246,0.882,1.048,1.462,1.925,1.462c0.161,0,0.324-0.02,0.487-0.06l13.19-3.302
				c0.982-0.246,1.625-1.186,1.499-2.19l-0.391-3.1c-0.071-0.56-0.375-1.064-0.837-1.388
				C239.05,205.313,238.649,205.188,238.242,205.188L238.242,205.188z"/>
		</g>
	</g>
	<g>
		<g>
			<path class="st15" d="M125.204,73.293c-0.429,0.006-0.848,0.022-1.276,0.03v0.602h-5.26v7.194h17.786v-7.194h-5.261v-0.654
				c-0.429-0.002-0.848-0.013-1.28-0.013C128.335,73.258,126.766,73.272,125.204,73.293z"/>
			<path class="st22" d="M111.15,35.161h12.778v2.358c0.941-0.012,1.882-0.025,2.819-0.025c1.477,0,2.96,0.018,4.446,0.046v-2.38
				h12.778v2.936c2.07,0.136,4.132,0.291,6.178,0.464v-9.578h-6.743h-12.213h-26.221v9.467c2.048-0.168,4.107-0.322,6.178-0.45
				V35.161z"/>
			<path class="st17" d="M125.206,73.293c1.561-0.021,3.129-0.034,4.707-0.034c0.431,0,0.851,0.011,1.28,0.013V47.49v-9.949
				c-1.486-0.029-2.969-0.046-4.446-0.046c-0.937,0-1.878,0.013-2.819,0.025v9.978v25.818c0.425-0.008,0.849-0.018,1.276-0.023
				C125.205,73.293,125.205,73.293,125.206,73.293z"/>
		</g>
		<path class="st26" d="M111.15,41.537v-3.536c-2.07,0.128-4.129,0.282-6.178,0.45v3.086H111.15z"/>
		<path class="st26" d="M143.972,41.537h6.178v-2.975c-2.047-0.173-4.108-0.328-6.178-0.464V41.537z"/>
	</g>
	<polygon class="st27" points="143.407,28.983 131.193,28.983 104.972,28.983 104.972,41.537 111.15,41.537 111.15,35.161 
		123.928,35.161 123.928,47.498 123.928,73.925 118.668,73.925 118.668,81.119 136.454,81.119 136.454,73.925 131.193,73.925 
		131.193,47.49 131.193,35.161 143.972,35.161 143.972,41.537 150.15,41.537 150.15,28.983 	"/>
	<path class="st28" d="M157.556,210.937c-0.019-0.019-0.056-0.002-0.056-0.002s-5.74,2.685-8.78-0.355
		c-3.04-3.04-7.859-6.027-11.644-6.027c-3.237,0-7.746,2.726-8.988,3.516c-1.452-0.79-6.694-3.516-9.931-3.516
		c-3.784,0-8.604,2.987-11.644,6.027c-3.04,3.04-8.78,0.355-8.78,0.355s-0.037-0.017-0.056,0.002
		c-0.019,0.019-0.005,0.048-0.005,0.048l10.155,10.816c0,0,5.072,5.668,7.989,7.251c2.917,1.583,9.666,2.758,11.616,2.758
		c0.019,0,0.245-0.001,0.252-0.001v-0.002c0.041,0.001,0.102,0.003,0.116,0.003c1.95,0,8.699-1.175,11.616-2.758
		c2.917-1.583,7.989-7.251,7.989-7.251l10.155-10.816C157.561,210.985,157.575,210.956,157.556,210.937z"/>
	<path class="st4" d="M148.539,216.991c0,0,1.729-0.646,4.062-2.229c2.333-1.583,2.083-2.354,2.083-2.354s-2.438,2.875-9.479,1.729
		C140.294,213.338,148.539,216.991,148.539,216.991z"/>
	<path class="st4" d="M106.735,216.991c0,0-1.729-0.646-4.062-2.229c-2.333-1.583-2.083-2.354-2.083-2.354s2.438,2.875,9.479,1.729
		C114.98,213.338,106.735,216.991,106.735,216.991z"/>
</g>
</svg>
