<?xml version="1.0" encoding="utf-8"?>
<!-- Generator: Adobe Illustrator 19.2.0, SVG Export Plug-In . SVG Version: 6.00 Build 0)  -->
<svg version="1.1" id="Layer_1" xmlns="http://www.w3.org/2000/svg" xmlns:xlink="http://www.w3.org/1999/xlink" x="0px" y="0px"
	 viewBox="0 0 200 200" style="enable-background:new 0 0 200 200;" xml:space="preserve">
<style type="text/css">
	.st0{fill:#84695A;}
	.st1{fill:#F4EDAE;}
	.st2{fill:#A1A0A0;}
	.st3{fill:#E5CAA3;}
	.st4{opacity:0.8;}
	.st5{fill:#695752;}
	.st6{opacity:0.75;fill:#EBD599;enable-background:new    ;}
	.st7{fill:#2D3136;}
	.st8{fill:#EDF6FA;}
	.st9{fill:#CB3349;}
	.st10{fill:#49433F;}
	.st11{fill:#685247;}
</style>
<g>
	<path class="st0" d="M174.536,137.72c-0.216,0.762-0.441,3.282-0.675,4.032c2.315,0.68,7.982,0.526,10.115,0.153
		c1.768-1.78,5.064-14.033,5.785-20.539c0.587-5.272-0.778-7.365-1.313-7.808c-0.622-0.522-2.952-1.848-4.971-2.929l-3.249,21.608
		c-0.052,0.425-0.278,0.802-0.634,1.046L174.536,137.72z"/>
	<g>
		<path class="st1" d="M195.832,70.086c-0.054-0.671-0.128-1.342-0.21-2.009c-0.058-0.473-0.133-0.967-0.215-1.424
			c-1.793-1.509-3.831-2.851-5.952-4.071c-2.299-1.343-4.704-2.546-7.159-3.663c-2.438-1.15-4.942-2.191-7.461-3.207
			c-1.257-0.51-2.525-1.005-3.798-1.477c-1.269-0.495-2.55-0.956-3.835-1.424c2.697,0.447,5.366,1.059,8.015,1.741
			c1.723,0.446,3.437,0.945,5.14,1.477c-12.112-31.654-41.07-52.269-72.687-52.269c-31.622,0-60.577,20.615-72.686,52.27
			c1.703-0.532,3.417-1.031,5.137-1.477c2.653-0.682,5.323-1.294,8.018-1.741c-1.289,0.468-2.567,0.929-3.84,1.424
			c-1.267,0.472-2.536,0.967-3.798,1.477c-2.519,1.016-5.016,2.057-7.46,3.207c-2.45,1.117-4.857,2.32-7.156,3.663
			c-2.121,1.219-4.157,2.562-5.957,4.071c-0.075,0.457-0.151,0.951-0.21,1.424c-0.081,0.667-0.155,1.338-0.21,2.009
			c-0.118,1.349-0.166,2.703-0.177,4.061c-0.027,2.713,0.156,5.426,0.5,8.11c0.37,2.692,0.864,5.366,1.595,7.951
			c0.36,1.295,0.768,2.572,1.24,3.808c0.237,0.617,0.495,1.225,0.764,1.816c0.134,0.294,0.274,0.585,0.413,0.864l0.172,0.328
			c0.199,0.101,0.408,0.204,0.607,0.3l1.204,0.575c0.671,0.305,1.6,0.746,2.368,1.09c0.043-0.037,0.086-0.075,0.123-0.114
			l-2.235-8.513c0.474-0.13,4.718-1.225,12.032-2.617c-0.59-0.112-1.186-0.241-1.772-0.381c-1.665-0.414-3.309-0.919-4.899-1.564
			c-0.79-0.333-1.568-0.697-2.309-1.115c-0.742-0.426-1.472-0.908-2.037-1.548c8.036,2.622,24.64,1.434,39.399-0.091
			c13.499-1.391,27.029-2.293,40.63-2.32c13.602,0.027,27.137,0.929,40.63,2.32c14.766,1.525,31.37,2.713,39.405,0.091
			c-0.564,0.64-1.293,1.123-2.035,1.548c-0.741,0.418-1.519,0.782-2.308,1.115c-1.592,0.645-3.234,1.15-4.899,1.564
			c-0.247,0.059-0.495,0.113-0.743,0.166c8.02,1.488,12.689,2.697,13.188,2.831l-2.138,8.11c0.43-0.194,0.864-0.381,1.29-0.574
			l1.202-0.575c0.2-0.097,0.403-0.199,0.607-0.3l0.166-0.328c0.146-0.279,0.286-0.57,0.419-0.864
			c0.27-0.591,0.528-1.199,0.764-1.816c0.473-1.236,0.882-2.513,1.241-3.808c0.731-2.585,1.225-5.259,1.595-7.951
			c0.345-2.685,0.526-5.398,0.501-8.11C196,72.79,195.951,71.436,195.832,70.086z"/>
		<path class="st0" d="M116.787,182.663c-1.064,0.16-2.128,0.295-3.186,0.375c-0.682,0.033-1.404,0.102-2.059,0.102l-0.242,0.005
			c0.822-1.837,1.446-3.26,1.919-4.339C114.182,179.886,115.407,181.223,116.787,182.663z"/>
		<path class="st0" d="M119.101,185.02c3.304,3.272,7.398,5.146,11.904,5.479c-7.569,3.074-14.702,4.26-20.197,4.63
			c-5.478,0.367-11.032-0.279-16.474-1.771c0.456-0.082,0.79-0.14,1.193-0.189c0.447-0.054,10.206-1.327,14.605-7.868l0.413,0.009
			l1.08-0.009c0.731,0,1.395-0.06,2.094-0.087c1.66-0.144,3.283-0.381,4.878-0.703C118.764,184.682,118.93,184.849,119.101,185.02z"
			/>
		<path class="st2" d="M128.464,87.073c-0.317,0.413-0.671,0.869-1.048,1.343c-1.933,2.444-4.614,5.57-7.794,8.627
			c-3.696-0.114-7.494-0.177-11.404-0.177c-6.46,0-12.655,0.171-18.537,0.457c8.311-3.449,18.296-6.818,29.109-8.842
			C121.948,87.883,125.181,87.405,128.464,87.073z"/>
		<path class="st2" d="M79.821,90.794c-2.966,2.084-6.317,4.744-9.566,7.971c-8.321,0.833-15.578,1.842-21.567,2.81
			C57.894,97.343,68.401,93.448,79.821,90.794z"/>
		<path class="st2" d="M181.48,107.971l-3.384,23.679l-16.212,11.355l-42.283-4.808l-6.365-20.961
			c-0.151-0.51-0.581-0.885-1.108-0.971c-1.567-0.253-2.953-0.382-4.108-0.382c-1.16,0-2.541,0.129-4.115,0.382
			c-0.522,0.086-0.95,0.461-1.106,0.971l-6.209,20.45l-42.047,9.357L37.88,135.372L34.597,108.8
			c0.715-0.404,1.441-0.806,2.176-1.209c1.031-0.222,2.191-0.457,3.475-0.704l3.094,25.073c0.048,0.392,0.264,0.741,0.586,0.967
			l11.462,8.032c0.236,0.16,0.516,0.246,0.795,0.246c0.101,0,0.199-0.01,0.306-0.033l34.57-7.692
			c0.119-0.027,0.237-0.069,0.344-0.124c0.322-0.171,0.575-0.466,0.682-0.827l6.225-20.498c1.67-0.43,5.947-1.429,9.706-1.429
			c3.749,0,8.03,0.999,9.701,1.429l6.225,20.498c0.161,0.532,0.624,0.912,1.176,0.977l34.57,3.927
			c0.335,0.037,0.677-0.05,0.952-0.242l11.469-8.025c0.31-0.22,0.52-0.566,0.573-0.946l3.062-21.421
			C178.048,107.243,179.971,107.645,181.48,107.971z"/>
		<path class="st2" d="M185.751,93.121l-2.976,11.29c-6.086-1.342-19.456-3.975-37.654-5.747c5.946-2.535,12-5.715,17.531-9.69
			C173.481,90.504,181.432,92.143,185.751,93.121z"/>
		<g>
			<path class="st3" d="M63.841,128.443c2.357-1.274,5.021-1.085,9.19-1.079c0.447,0.011,0.908,0.005,1.39-0.005
				c0.41-0.005,0.822-0.011,1.258-0.022c4.296-0.042,7.869,0.366,7.806-6.381c-0.065-6.746-3.062-12.198-7.354-12.155
				c-4.297,0.037-8.454,5.564-8.197,12.306c0.07,1.756,0.328,3.023,0.742,3.937C64.931,125.982,63.899,128.298,63.841,128.443z
				 M115.498,100.694c-1.665,1.349-3.421,2.61-5.249,3.712l-6.097,3.68c-3.824,0.466-7.143,1.412-7.331,1.467
				c-0.112,0.031-0.219,0.079-0.317,0.14c-0.296,0.171-0.521,0.455-0.629,0.794l-6.209,20.46l-33.185,7.38l-10.452-7.321
				l-3.041-24.634c5.936-1.09,13.874-2.352,23.41-3.42c-1.022,1.225-2.014,2.508-2.955,3.855l-5.677,8.149l8.266-5.511
				c0.123-0.086,5.387-3.549,13.998-7.761c8.582-0.644,18.053-1.059,28.188-1.059C110.689,100.624,113.113,100.652,115.498,100.694z
				"/>
			<path class="st3" d="M151.835,125.677c-0.042-0.16-0.945-2.873-4.942-2.397c0.461-1.003,0.666-2.356,0.521-4.21
				c-0.528-6.731-4.443-12.08-8.735-11.931c-4.292,0.152-7.042,5.731-6.805,12.478c0.236,6.741,3.84,6.694,8.132,6.543
				C145.776,126.053,148.945,124.28,151.835,125.677z M173.015,106.292l-2.992,20.944l-10.539,7.379l-33.141-3.766l-6.183-20.363
				c-0.14-0.451-0.494-0.799-0.945-0.934c-0.205-0.06-4.308-1.23-8.659-1.607l0.795-0.053c0.687-0.049,12.118-1.451,25.767-6.157
				C152.233,102.896,164.576,104.755,173.015,106.292z"/>
		</g>
		<g class="st4">
			<path class="st5" d="M63.841,128.443c2.357-1.274,5.021-1.085,9.19-1.079c0.447,0.011,0.908,0.005,1.39-0.005
				c0.41-0.005,0.822-0.011,1.258-0.022c4.296-0.042,7.869,0.366,7.806-6.381c-0.065-6.746-3.062-12.198-7.354-12.155
				c-4.297,0.037-8.454,5.564-8.197,12.306c0.07,1.756,0.328,3.023,0.742,3.937C64.931,125.982,63.899,128.298,63.841,128.443z
				 M115.498,100.694c-1.665,1.349-3.421,2.61-5.249,3.712l-6.097,3.68c-3.824,0.466-7.143,1.412-7.331,1.467
				c-0.112,0.031-0.219,0.079-0.317,0.14c-0.296,0.171-0.521,0.455-0.629,0.794l-6.209,20.46l-33.185,7.38l-10.452-7.321
				l-3.041-24.634c5.936-1.09,13.874-2.352,23.41-3.42c-1.022,1.225-2.014,2.508-2.955,3.855l-5.677,8.149l8.266-5.511
				c0.123-0.086,5.387-3.549,13.998-7.761c8.582-0.644,18.053-1.059,28.188-1.059C110.689,100.624,113.113,100.652,115.498,100.694z
				"/>
			<path class="st5" d="M151.835,125.677c-0.042-0.16-0.945-2.873-4.942-2.397c0.461-1.003,0.666-2.356,0.521-4.21
				c-0.528-6.731-4.443-12.08-8.735-11.931c-4.292,0.152-7.042,5.731-6.805,12.478c0.236,6.741,3.84,6.694,8.132,6.543
				C145.776,126.053,148.945,124.28,151.835,125.677z M173.015,106.292l-2.992,20.944l-10.539,7.379l-33.141-3.766l-6.183-20.363
				c-0.14-0.451-0.494-0.799-0.945-0.934c-0.205-0.06-4.308-1.23-8.659-1.607l0.795-0.053c0.687-0.049,12.118-1.451,25.767-6.157
				C152.233,102.896,164.576,104.755,173.015,106.292z"/>
		</g>
		<path class="st0" d="M40.936,140.91c0.199,0.704,0.408,1.407,0.624,2.1c-2.139,0.628-6.495,1.23-8.465,0.886
			c-1.633-1.645-4.679-12.966-5.345-18.978c-0.543-4.871-0.162-5.924,0.333-6.334c0.575-0.483,2.728-1.708,4.593-2.707l2.519,20.449
			c0.048,0.393,0.257,0.741,0.586,0.967L40.936,140.91z"/>
		<path class="st0" d="M121.347,141.196l-0.151,1.305c0,0-4.581,4.248-11.956,5.199c-7.375,0.95-13.171-3.582-13.171-3.582
			c0.242,0.788,0.586,2.567,2.256,4.086c-1.965-0.235-4.087-0.393-6.313-0.393c-0.804,0-1.616,0.023-2.401,0.061
			c-4.539,0.237-10.924,7.1-15.414,14.014c-2.203,0.697-9.089,2.883-17.06,5.237c-7.44-10.309-11.098-20.842-11.469-21.932
			l0.005-0.006c-0.15-0.419-0.301-0.839-0.441-1.268l1.913,1.338v0.005l4.726,3.309l1.58,1.101c0.236,0.167,0.515,0.253,0.794,0.253
			c0.102,0,0.204-0.011,0.305-0.031l43.435-9.67c0.487-0.107,0.881-0.473,1.025-0.95l6.194-20.39c1.069-0.145,2.008-0.22,2.814-0.22
			c0.801,0,1.746,0.075,2.815,0.22l6.374,20.997c0.162,0.532,0.624,0.919,1.171,0.977L121.347,141.196z"/>
		<path class="st0" d="M170.926,140.068l1.402-0.984c-0.232,0.973-0.484,1.94-0.747,2.896c-1.949,6.248-4.25,11.774-6.805,16.656
			c-0.565,0.039-1.161,0.061-1.8,0.061c-1.972,0-3.986-0.167-6.215-0.371c-3.868-0.355-10.007-1.058-11.946-1.283
			c-1.67-1.332-7.385-5.873-12.14-9.615c-0.187-0.151-0.348-0.291-0.505-0.42c-0.837-0.708-1.789-1.513-3.717-1.513
			c-1.751,0-4.308,0.638-10.489,2.508c3.212-2.401,3.233-5.5,3.233-5.5l0.151-1.305l40.748,4.629
			c0.332,0.038,0.676-0.048,0.955-0.241l4.094-2.868L170.926,140.068z"/>
		<path class="st6" d="M140.937,54.338c0.124,3.625,0.033,10.194-1.655,16.345c-0.068,0.237-0.058,0.479,0,0.704
			c-2.148-0.226-4.297-0.419-6.446-0.591c2.412-5.054,2.938-10.436,3.052-12.332C137.74,57.147,139.584,55.568,140.937,54.338z"/>
		<path class="st6" d="M79.456,58.463c0.112,1.896,0.638,7.267,3.046,12.317c-2.149,0.171-4.297,0.37-6.441,0.596
			c0.058-0.221,0.065-0.457,0-0.694c-1.686-6.139-1.772-12.714-1.654-16.345C75.76,55.568,77.597,57.147,79.456,58.463z"/>
		<path class="st7" d="M151.835,125.677c-2.89-1.396-6.059,0.377-11.828,0.484c-4.292,0.151-7.896,0.198-8.132-6.543
			c-0.237-6.747,2.513-12.326,6.805-12.478c4.292-0.15,8.207,5.2,8.735,11.931c0.145,1.854-0.06,3.207-0.521,4.21
			C150.89,122.804,151.793,125.516,151.835,125.677z M138.347,115.799c1.209-0.027,2.175-1.026,2.154-2.235
			c-0.021-1.214-1.02-2.181-2.235-2.153c-1.213,0.02-2.175,1.02-2.152,2.234C136.135,114.853,137.134,115.821,138.347,115.799z"/>
		
			<ellipse transform="matrix(0.9998 -0.0183 0.0183 0.9998 -2.0556 2.5499)" class="st8" cx="138.297" cy="113.588" rx="2.194" ry="2.194"/>
		<path class="st7" d="M83.484,120.955c0.063,6.747-3.509,6.339-7.806,6.381c-0.435,0.011-0.848,0.016-1.258,0.022
			c-0.482,0.011-0.944,0.016-1.39,0.005c-4.168-0.005-6.833-0.194-9.19,1.079c0.058-0.145,1.09-2.461,4.835-3.4
			c-0.414-0.914-0.673-2.181-0.742-3.937c-0.257-6.741,3.9-12.269,8.197-12.306C80.422,108.757,83.419,114.21,83.484,120.955z
			 M76.85,117.426c1.209-0.031,2.165-1.043,2.133-2.251c-0.033-1.214-1.041-2.17-2.25-2.137c-1.215,0.031-2.172,1.041-2.139,2.25
			C74.626,116.503,75.636,117.459,76.85,117.426z"/>
		
			<ellipse transform="matrix(0.9997 -0.0257 0.0257 0.9997 -2.9362 2.0117)" class="st8" cx="76.798" cy="115.241" rx="2.195" ry="2.195"/>
		<g>
			<path class="st6" d="M50.691,75.156c0,0,0.667-8.692,2.03-12.023c0.702-1.717,4.996-2.81,8.276-3.591
				c3.278-0.78,8.508-2.342,9.524,2.264c1.015,4.606,2.653,7.963,3.746,9.446l-1.404-18.97l-22.562,5.464l-1.484,16.786l0.703,1.327
				L50.691,75.156"/>
			<path class="st6" d="M164.855,75.156c0,0-0.666-8.692-2.029-12.023c-0.703-1.717-4.997-2.81-8.275-3.591
				c-3.28-0.78-8.51-2.342-9.526,2.264c-1.013,4.606-2.654,7.963-3.748,9.446l1.407-18.97l22.562,5.464l1.483,16.786l-0.703,1.327
				L164.855,75.156"/>
		</g>
		<path class="st6" d="M132.965,18.379c0,0-0.598,45.49-11.224,45.49s-12.75,0-12.75,0h-2.125c0,0-2.126,0-12.752,0
			S82.63,18.399,82.63,18.399l-5.22,15.438l0.085,21.183l3.707,2.947l1.685,9.096l2.357,5.307l45.482,0.084l2.105-3.791l1.769-6.4
			l0.254-4.043l5.023-14.341L132.965,18.379z"/>
		<path class="st6" d="M166.429,60.795c0,0,2.187,15.692,7.974,18.522c5.788,2.829,0,0,0,0l-8.103-2.444L166.429,60.795z"/>
		<path class="st6" d="M48.908,60.795c0,0-2.187,15.692-7.975,18.522c-5.788,2.829,0,0,0,0l8.104-2.444L48.908,60.795z"/>
		<path class="st7" d="M167.987,76.802c2.755,0.902,5.526,1.858,8.036,3.325c-1.343-0.532-2.729-0.913-4.126-1.257
			c-1.391-0.355-2.793-0.655-4.201-0.924c-2.82-0.531-5.65-0.982-8.498-1.327c-2.841-0.37-5.687-0.682-8.546-0.924
			c-2.858-0.241-5.709-0.483-8.573-0.65c-11.446-0.704-22.924-0.88-34.41-0.892c-11.483,0.006-22.962,0.221-34.409,0.897
			c-2.862,0.166-5.715,0.409-8.572,0.651c-2.857,0.241-5.71,0.548-8.546,0.923c-2.847,0.345-5.678,0.796-8.498,1.327
			c-1.407,0.264-2.81,0.57-4.206,0.919c-1.391,0.344-2.783,0.725-4.126,1.257c2.509-1.466,5.28-2.427,8.041-3.331
			c0.232-0.075,0.467-0.139,0.703-0.214c-0.015-0.059-0.032-0.113-0.043-0.177c-0.048-0.317-1.069-7.859,0.709-18.645
			c0.086-0.516,0.456-0.935,0.962-1.075l2.917-0.831c0.634-22.625,9.952-33.266,10.243-33.594
			c-8.326,13.397-8.25,29.286-8.106,32.986l18.128-5.152c0.016-0.005,0.026-0.005,0.042-0.01c0.076-0.016,0.151-0.027,0.226-0.032
			c0.021,0,0.049-0.006,0.075-0.006c0.092-0.005,0.195,0.006,0.297,0.027c0.015,0,0.031,0.011,0.053,0.016
			c0.075,0.016,0.145,0.042,0.224,0.075c0.033,0.016,0.054,0.033,0.086,0.049c0.058,0.033,0.119,0.07,0.177,0.112
			c0.016,0.011,0.034,0.016,0.049,0.033c0.011,0.011,0.021,0.022,0.032,0.032c0.016,0.016,0.037,0.027,0.054,0.044
			c0.012,0.016,0.494,0.493,1.262,1.209c-0.182-5.973,0.102-23.108,8.262-37.31c-0.172,0.498-6.646,19.428-4.415,40.645
			c0.724,0.58,1.486,1.149,2.229,1.649c0.359,0.247,0.58,0.655,0.585,1.09c0.006,0.07,0.161,6.833,3.148,12.586
			c0.042,0.086,0.074,0.177,0.102,0.268c7.429-0.505,14.878-0.709,22.312-0.714c7.436,0.005,14.88,0.22,22.307,0.731
			c0.027-0.097,0.06-0.193,0.109-0.285c2.986-5.753,3.142-12.516,3.142-12.586c0.01-0.436,0.231-0.843,0.591-1.09
			c0.741-0.5,1.493-1.069,2.224-1.649c2.234-21.217-4.24-40.147-4.411-40.645c8.153,14.201,8.444,31.336,8.262,37.31
			c0.762-0.715,1.246-1.192,1.261-1.209c0.016-0.016,0.039-0.027,0.053-0.044c0.012-0.01,0.018-0.021,0.033-0.032
			c0.016-0.016,0.033-0.022,0.049-0.033c0.06-0.042,0.119-0.079,0.177-0.118c0.028-0.01,0.054-0.027,0.081-0.043
			c0.081-0.033,0.155-0.059,0.236-0.08c0.016,0,0.033-0.011,0.049-0.011c0.096-0.021,0.2-0.032,0.296-0.027
			c0.027,0,0.049,0.006,0.07,0.006c0.075,0.005,0.156,0.016,0.231,0.032c0.012,0.006,0.028,0.006,0.042,0.01l18.129,5.152
			c0.146-3.7,0.221-19.59-8.104-32.986c0.289,0.328,9.609,10.969,10.237,33.594l2.922,0.831c0.499,0.14,0.875,0.559,0.962,1.075
			c1.777,10.786,0.752,18.328,0.708,18.645c-0.01,0.065-0.026,0.124-0.042,0.182C167.519,76.656,167.75,76.726,167.987,76.802z
			 M164.69,75.834c0.14-1.207,0.789-7.809-0.591-16.801l-20.52-5.833c0.184,3.475,0.265,11.012-1.707,18.199
			c-0.026,0.086-0.058,0.172-0.101,0.258c0.203,0.021,0.408,0.037,0.606,0.064c5.769,0.661,11.511,1.584,17.189,2.83
			C161.278,74.948,162.992,75.374,164.69,75.834z M139.281,70.682c1.688-6.15,1.779-12.72,1.655-16.345
			c-1.353,1.23-3.197,2.809-5.049,4.125c-0.114,1.896-0.64,7.278-3.052,12.332c2.149,0.173,4.298,0.366,6.446,0.591
			C139.223,71.162,139.213,70.92,139.281,70.682z M82.501,70.78c-2.408-5.05-2.934-10.422-3.046-12.317
			c-1.858-1.316-3.696-2.895-5.049-4.125c-0.119,3.631-0.032,10.206,1.654,16.345c0.065,0.237,0.058,0.473,0,0.694
			C78.205,71.15,80.352,70.952,82.501,70.78z M73.568,71.644c-0.039-0.075-0.07-0.161-0.098-0.247
			c-1.975-7.187-1.889-14.723-1.712-18.199l-20.514,5.833c-1.38,8.982-0.736,15.583-0.597,16.797
			c1.703-0.462,3.411-0.887,5.131-1.284c2.836-0.628,5.693-1.154,8.556-1.638c2.869-0.478,5.747-0.843,8.626-1.192
			C73.165,71.688,73.364,71.672,73.568,71.644z"/>
		<g id="XMLID_3_">
			<g>
				<path class="st7" d="M129.295,18.971v17.025h-12.068v-4.974h-2.72v22.981h4.109v12.85h-21.11v-12.85h4.092v-22.98h-2.711v4.974
					h-12.06V18.971H129.295z M125.669,32.378v-9.789h-5.257h-9.523H90.445v9.789h4.816v-4.974h9.964v30.225h-4.1v5.606h13.865
					v-5.606h-4.1V27.405h9.964v4.974L125.669,32.378L125.669,32.378z"/>
				<polygon class="st9" points="125.669,22.589 125.669,32.378 120.853,32.378 120.853,27.405 110.889,27.405 110.889,57.63 
					114.989,57.63 114.989,63.236 101.124,63.236 101.124,57.63 105.225,57.63 105.225,27.405 95.261,27.405 95.261,32.378 
					90.445,32.378 90.445,22.589 110.889,22.589 120.412,22.589 				"/>
			</g>
		</g>
		<g>
			<path class="st10" d="M47.278,86.574c0,0-31.118,21.903-32.335,30.247l2.335-0.48c0,0,37.264-24.699,66.803-27.711l0.669-3.749
				L47.278,86.574z"/>
			<path class="st10" d="M96.126,83.444l-24.511,17.385l1.325,1.063c0.999-0.806,43.539-13.798,43.539-13.798l8.969-5.623
				C119.43,83.22,96.126,83.444,96.126,83.444z"/>
			<path class="st10" d="M117.429,104.471c17.405,0,43.495-17.046,43.495-17.046l-8.434-1.605c-0.417,0.417-13.6-0.462-13.6-0.462
				l-6.258-1.738l-14.951,17.036l-1.217,2.956C117.539,103.175,117.429,104.471,117.429,104.471z"/>
		</g>
		<path class="st10" d="M174.225,158.834l-5.377,1.514l-24.843-0.537l-15.541-12.085l-18.784,4.7l-21.726-1.88L75.788,163.84
			l-22.828,6.819l-11.398-3.534c-0.363-0.313-0.574-0.494-0.574-0.494l5.116,12.527c0,0,11.588,12.424,18.061,13.885
			c6.472,1.461,18.165-0.105,26.935-1.463c8.769-1.357,15.764-4.489,18.583-9.603c2.818-5.117,3.236-6.578,3.236-6.578
			s8.353,11.797,15.556,13.155c7.203,1.357,28.605-5.952,28.605-5.952s13.051-3.549,15.346-8.038
			c2.297-4.489,8.353-19.209,8.353-19.209L174.225,158.834z M43.953,169.04c-0.12-0.055-0.241-0.111-0.361-0.166
			c-0.856-0.739-1.556-1.343-2.013-1.736L43.953,169.04z M111.422,171.366l-0.158-0.145l0,0c0.189-0.208,0.382-0.424,0.58-0.633
			c0,0.005,0,0.005,0.005,0.005l0.018,0.016c0.305,0.22,0.612,0.451,0.918,0.682l-0.161,0.22l0,0l0.099,0.118
			c-0.595-0.45-0.952-0.72-0.952-0.72S111.645,171.076,111.422,171.366z"/>
		<path class="st2" d="M30.694,93.121c1.759-0.399,4.136-0.907,7.051-1.47c-1.791,1.221-3.909,2.754-6.222,4.597L30.694,93.121z"/>
		<path class="st11" d="M95.11,139.782c0,0,0.492,3.165-3.938,4.519c-4.428,1.355-32.482,9.716-35.682,9.263
			c-3.199-0.451-11.319-5.874-11.319-5.874l-1.969-7.004l12.016,7.492L95.11,139.782z"/>
		<path class="st11" d="M120.242,139.169c0,0-0.354,3.182,4.131,4.345c4.484,1.161,32.875,8.295,36.05,7.704
			c3.176-0.591,11.053-6.361,11.053-6.361l1.663-7.084l-11.045,6.588L120.242,139.169z"/>
		<path class="st11" d="M28.412,133.958c0,0,3.887,7.775,10.166,5.083l4.485,1.645l-0.448,3.29l-9.419,1.195l-2.541-1.494
			L28.412,133.958z"/>
		<path class="st11" d="M187.313,130.958c0,0-3.887,7.775-10.166,5.083l-4.485,1.645l0.448,3.29l9.419,1.195l2.542-1.494
			L187.313,130.958z"/>
		<path class="st11" d="M89.279,192.906c0,0,23.03,11.611,49.106-4.188l-8.374-0.571c0,0-18.272,7.232-32.738,3.235L89.279,192.906z
			"/>
		<path class="st7" d="M112.626,171.511l1.594,1.899c0.036,0.046,3.577,4.26,7.906,8.552c2.879,2.853,6.357,4.297,10.343,4.297
			c1.361,0,2.791-0.175,4.235-0.523c1.34-0.326,2.796-0.673,4.287-1.03c5.384-1.287,11.482-2.749,14.438-3.577
			c0.585-0.166,1.238-0.315,1.925-0.472c3.935-0.909,9.329-2.163,12.187-7.889c2.149-4.297,5.047-9.874,7.197-13.961
			c-1.863,0.859-3.816,1.79-5.203,2.52c-2.138,1.123-4.938,1.667-8.558,1.667c-2.152,0-4.266-0.181-6.605-0.389
			c-4.675-0.43-12.586-1.361-12.667-1.372l-0.606-0.067l-0.478-0.383c-0.071-0.052-7.003-5.575-12.606-9.981
			c-0.227-0.186-0.434-0.358-0.621-0.513c-0.59-0.503-0.59-0.503-0.942-0.503c-1.797,0-7.02,1.62-18.462,5.167l-0.703,0.223
			l-0.689-0.26c-0.078-0.026-7.585-2.81-16.581-2.81c-0.736,0-1.47,0.019-2.185,0.056c-0.901,0.046-5.958,2.448-12.425,12.68
			l-0.419,0.657l-0.741,0.238c-0.107,0.037-11.238,3.63-23.042,7.005l-0.766,0.218l-0.725-0.337
			c-0.077-0.031-4.696-2.174-9.091-4.194c2.397,3.541,5.462,7.958,8.159,11.422c4.711,6.067,10.649,11.674,22.034,11.674
			c1.428,0,2.945-0.088,4.503-0.265c11.581-1.309,14.563-1.837,16.168-2.117c0.543-0.092,0.973-0.171,1.522-0.238
			c0.088-0.011,9.571-1.237,12.232-7.206c2.744-6.134,3.298-7.595,3.319-7.651l0.968-2.583l-0.263-0.245
			c0.192-0.207,0.383-0.424,0.58-0.632c0,0.005,0,0.005,0.005,0.005l0.019,0.016c0.306,0.218,0.611,0.45,0.916,0.684
			L112.626,171.511z M40.499,55.711c-2.516,1.014-5.016,2.06-7.46,3.209c-2.449,1.119-4.856,2.32-7.155,3.66
			c-2.121,1.222-4.157,2.563-5.954,4.076c-0.077,0.455-0.149,0.952-0.211,1.423c-0.078,0.667-0.156,1.336-0.208,2.009
			c-0.119,1.346-0.166,2.703-0.18,4.059c-0.026,2.713,0.16,5.426,0.502,8.112c0.372,2.692,0.864,5.369,1.594,7.952
			c0.363,1.295,0.767,2.573,1.243,3.804c0.233,0.623,0.492,1.228,0.762,1.818c0.134,0.294,0.274,0.585,0.413,0.864l0.172,0.326
			c0.201,0.104,0.409,0.207,0.605,0.3l1.206,0.574c0.673,0.311,1.6,0.751,2.366,1.093c0.046-0.037,0.088-0.078,0.124-0.114
			l-2.231-8.511c0.471-0.129,4.717-1.227,12.032-2.619c-0.59-0.109-1.191-0.238-1.775-0.379c-1.662-0.413-3.309-0.921-4.898-1.563
			c-0.787-0.336-1.569-0.699-2.309-1.119c-0.741-0.425-1.471-0.905-2.035-1.547c8.035,2.624,24.637,1.433,39.398-0.088
			c13.501-1.393,27.028-2.293,40.628-2.325c13.6,0.031,27.138,0.931,40.63,2.325c14.77,1.522,31.374,2.713,39.406,0.088
			c-0.564,0.642-1.293,1.122-2.034,1.547c-0.739,0.42-1.522,0.782-2.309,1.119c-1.595,0.642-3.236,1.149-4.903,1.563
			c-0.244,0.056-0.492,0.114-0.741,0.166c8.02,1.486,12.689,2.697,13.186,2.832l-2.138,8.107c0.43-0.192,0.864-0.377,1.288-0.574
			l1.207-0.574c0.196-0.094,0.404-0.196,0.606-0.3l0.166-0.326c0.144-0.279,0.284-0.57,0.419-0.864
			c0.27-0.591,0.528-1.196,0.767-1.818c0.471-1.231,0.879-2.51,1.236-3.804c0.731-2.583,1.228-5.26,1.595-7.952
			c0.346-2.686,0.528-5.4,0.502-8.112c-0.01-1.356-0.062-2.713-0.176-4.059c-0.057-0.673-0.13-1.341-0.213-2.009
			c-0.057-0.471-0.135-0.968-0.213-1.423c-1.797-1.513-3.831-2.853-5.954-4.076c-2.299-1.34-4.704-2.541-7.159-3.66
			c-2.438-1.149-4.943-2.195-7.46-3.209c-1.259-0.508-2.527-1.005-3.801-1.476c-1.267-0.491-2.552-0.956-3.835-1.423
			c2.696,0.445,5.369,1.06,8.013,1.739c1.724,0.446,3.444,0.948,5.141,1.481c-12.109-31.658-41.069-52.272-72.685-52.272
			c-31.622,0-60.576,20.614-72.684,52.272c1.702-0.533,3.416-1.035,5.135-1.481c2.651-0.678,5.322-1.294,8.02-1.739
			c-1.29,0.466-2.568,0.931-3.842,1.423C43.03,54.706,41.763,55.203,40.499,55.711z M199.929,74.028
			c0.146,2.914,0.068,5.833-0.258,8.733c-0.305,2.894-0.854,5.762-1.619,8.605c-0.4,1.414-0.86,2.811-1.404,4.198
			c-0.275,0.693-0.569,1.383-0.89,2.071c-0.161,0.341-0.331,0.678-0.523,1.025l-0.284,0.512c-0.104,0.186-0.187,0.326-0.348,0.574
			l-0.294,0.457l-0.461,0.237c-0.492,0.254-0.895,0.445-1.342,0.653l-1.298,0.585c-0.871,0.372-1.745,0.724-2.62,1.065
			c-0.611,0.239-1.15,0.457-1.662,0.674l-1.444,5.487c-0.036-0.009-0.471-0.12-1.283-0.315l-0.078,0.574
			c1.594,0.833,4.726,2.522,5.793,3.403c2.148,1.775,2.299,4.587,1.823,9.841c-0.244,2.697-1.139,7.946-2.381,12.767
			c-2.144,8.298-3.283,9.273-4.753,9.649c-0.746,0.192-1.894,0.383-3.008,0.383c-2.266,0-5.353,0.063-7.429-0.439
			c-0.533,1.888-2.055,6.812-5.068,12.962c0.151-0.073,0.3-0.135,0.435-0.207c3.717-1.952,10.861-5.064,11.162-5.199l5.643-2.452
			l-2.89,5.435c-0.067,0.118-6.264,11.773-10.059,19.383c-3.769,7.538-10.835,9.179-15.065,10.151
			c-0.637,0.151-1.241,0.291-1.733,0.425c-3.035,0.854-9.18,2.319-14.599,3.623c-0.064,0.016-0.13,0.033-0.197,0.042
			c-3.335,2.061-6.974,3.899-10.955,5.411c-14.568,5.518-29.923,5.208-43.844,0.092c-2.261,0.291-5.234,0.647-9.193,1.097
			c-1.72,0.192-3.392,0.291-4.985,0.291c-13.264,0-20.294-6.736-25.425-13.331c-5.493-7.062-12.212-17.546-12.497-17.985
			l-3.896-6.077l6.585,2.961c3.152,1.419,12.524,5.757,15.205,7c0.217-0.061,0.43-0.124,0.642-0.186
			c-4.457-6.357-8.112-13.605-10.695-21.634c-2.195,0.662-5.576,1.175-8.206,1.175c-0.961,0-1.822-0.072-2.484-0.228
			c-1.471-0.336-3.148-1.754-5.431-9.795c-1.325-4.668-2.314-9.764-2.603-12.387c-0.57-5.121-0.466-7.864,1.662-9.636
			c1.283-1.071,5.611-3.344,6.507-3.809l-0.192-1.58c-13.75,8.08-21.991,15.22-22.157,15.366L0,134.304l7.005-11.047
			c5.544-8.755,11.948-15.832,17.84-21.284c-0.244-0.098-0.471-0.196-0.71-0.294l-1.299-0.585c-0.445-0.208-0.849-0.399-1.34-0.653
			l-0.461-0.237l-0.295-0.457c-0.166-0.249-0.238-0.388-0.347-0.574l-0.29-0.512c-0.181-0.347-0.358-0.684-0.518-1.025
			c-0.327-0.689-0.621-1.378-0.89-2.071c-0.544-1.387-1.005-2.784-1.404-4.198c-0.771-2.843-1.315-5.71-1.62-8.605
			c-0.321-2.9-0.404-5.819-0.259-8.733c0.078-1.455,0.218-2.909,0.419-4.354c0.104-0.725,0.213-1.45,0.358-2.17
			c0.15-0.734,0.296-1.418,0.518-2.221l0.155-0.564l0.404-0.317c2.294-1.802,4.768-3.163,7.284-4.369
			c2.071-0.973,4.183-1.833,6.311-2.616c5.943-16.493,16.162-31.118,29.591-41.311C74.337,5.571,90.664,0.001,107.671,0.001
			s33.334,5.57,47.218,16.106c13.43,10.193,23.649,24.819,29.588,41.307c2.133,0.787,4.24,1.641,6.316,2.62
			c2.515,1.206,4.99,2.567,7.283,4.369l0.404,0.317l0.156,0.564c0.227,0.803,0.372,1.487,0.517,2.221
			c0.146,0.72,0.26,1.445,0.357,2.17C199.713,71.118,199.858,72.572,199.929,74.028z M187.934,122.059
			c0.456-5.052,0.058-6.139-0.455-6.554c-0.513-0.43-2.247-1.412-3.935-2.329l-2.779,19.464c-0.052,0.378-0.265,0.721-0.58,0.942
			l-3.977,2.781c-0.315,1.593-0.429,2.345-0.817,3.903c2.273,0.528,5.999,0.938,7.775,0.595
			C184.778,139.113,187.38,128.251,187.934,122.059z M182.773,104.411l2.977-11.29c-4.318-0.978-12.27-2.615-23.1-4.148
			c-5.53,3.976-11.582,7.155-17.53,9.691C163.319,100.435,176.69,103.07,182.773,104.411z M178.093,131.648l3.385-23.676
			c-1.506-0.326-3.431-0.729-5.731-1.169l-3.059,21.422c-0.057,0.378-0.265,0.725-0.575,0.943l-11.472,8.023
			c-0.27,0.192-0.616,0.28-0.947,0.243l-34.572-3.929c-0.554-0.063-1.015-0.446-1.176-0.973l-6.227-20.5
			c-1.668-0.431-5.949-1.43-9.696-1.43c-3.764,0-8.041,0.999-9.708,1.43l-6.228,20.5c-0.109,0.356-0.358,0.653-0.682,0.822
			c-0.104,0.057-0.223,0.098-0.343,0.125l-34.572,7.692c-0.109,0.022-0.202,0.033-0.306,0.033c-0.279,0-0.559-0.083-0.792-0.25
			l-11.467-8.029c-0.321-0.223-0.534-0.575-0.585-0.968l-3.091-25.072c-1.284,0.249-2.443,0.487-3.479,0.703
			c-0.734,0.405-1.46,0.809-2.174,1.213l3.281,26.568l16.666,11.675l42.047-9.354l6.207-20.449c0.156-0.514,0.585-0.892,1.108-0.975
			c1.574-0.253,2.95-0.382,4.116-0.382c1.153,0,2.536,0.129,4.105,0.382c0.528,0.083,0.957,0.461,1.108,0.975l6.367,20.956
			l42.282,4.808L178.093,131.648z M170.023,127.237l2.992-20.948c-8.439-1.536-20.78-3.394-35.897-4.554
			c-13.647,4.707-25.077,6.108-25.766,6.155l-0.797,0.057c4.353,0.374,8.454,1.544,8.66,1.605c0.452,0.135,0.804,0.481,0.944,0.933
			l6.186,20.366l33.138,3.764L170.023,127.237z M172.326,139.082l-1.404,0.983l-3.779,2.651l-4.095,2.868
			c-0.279,0.192-0.621,0.28-0.954,0.243l-40.746-4.633l-2.966-0.337c-0.549-0.063-1.01-0.446-1.171-0.977l-6.377-20.998
			c-1.066-0.145-2.014-0.219-2.81-0.219c-0.809,0-1.751,0.073-2.817,0.219l-6.192,20.392c-0.145,0.476-0.538,0.839-1.025,0.946
			l-43.435,9.672c-0.103,0.02-0.206,0.03-0.305,0.03c-0.279,0-0.559-0.083-0.798-0.253l-1.578-1.098l-4.726-3.307v-0.011
			l-1.91-1.335c0.135,0.43,0.289,0.85,0.441,1.268l-0.006,0.006c0.368,1.092,4.028,11.622,11.467,21.929
			c7.967-2.35,14.858-4.535,17.057-5.234c4.488-6.917,10.877-13.777,15.418-14.014c0.781-0.037,1.595-0.061,2.402-0.061
			c2.221,0,4.344,0.16,6.31,0.393c-1.671-1.517-2.013-3.298-2.256-4.085c0,0,5.793,4.53,13.17,3.584
			c7.378-0.953,11.959-5.204,11.959-5.204s-0.021,3.102-3.236,5.503c6.182-1.869,8.739-2.511,10.489-2.511
			c1.931,0,2.883,0.808,3.717,1.519c0.161,0.129,0.321,0.268,0.507,0.419c4.753,3.742,10.468,8.283,12.141,9.614
			c1.936,0.227,8.075,0.926,11.943,1.283c2.231,0.201,4.245,0.372,6.217,0.372c0.637,0,1.233-0.026,1.797-0.063
			c2.558-4.88,4.857-10.411,6.808-16.653C171.844,141.023,172.099,140.055,172.326,139.082z M157.292,87.489
			c-0.01-0.006-0.02-0.012-0.031-0.012c-3.272-0.243-6.543-0.466-9.826-0.651c-4.555-0.26-9.112-0.477-13.667-0.668
			c-0.265,0.394-0.802,1.17-1.574,2.225c-2.479,3.355-7.398,9.51-13.704,14.729c8.926-1.6,24.409-5.56,37.803-14.905
			C156.629,87.969,156.961,87.721,157.292,87.489z M127.416,88.415c0.377-0.471,0.729-0.926,1.044-1.34
			c-3.281,0.331-6.512,0.808-9.67,1.408c-10.814,2.024-20.801,5.389-29.11,8.837c5.887-0.285,12.078-0.455,18.54-0.455
			c3.908,0,7.708,0.067,11.404,0.176C122.803,93.985,125.485,90.859,127.416,88.415z M131.003,190.5
			c-4.503-0.332-8.598-2.205-11.903-5.477c-0.171-0.175-0.336-0.343-0.502-0.512c-1.598,0.321-3.22,0.559-4.881,0.704
			c-0.698,0.026-1.361,0.087-2.091,0.087l-1.083,0.011l-0.413-0.011c-4.396,6.539-14.159,7.813-14.605,7.87
			c-0.403,0.046-0.734,0.103-1.191,0.186c5.442,1.491,10.996,2.138,16.474,1.77C116.3,194.761,123.435,193.57,131.003,190.5z
			 M113.603,183.039c1.056-0.083,2.117-0.218,3.184-0.378c-1.383-1.438-2.604-2.775-3.568-3.857
			c-0.471,1.082-1.096,2.505-1.92,4.339h0.243C112.2,183.144,112.92,183.072,113.603,183.039z M110.249,104.407
			c1.827-1.103,3.582-2.366,5.249-3.712c-2.387-0.041-4.809-0.072-7.278-0.072c-10.137,0-19.606,0.415-28.189,1.061
			c-8.61,4.209-13.875,7.672-13.998,7.76l-8.268,5.514l5.679-8.149c0.937-1.353,1.931-2.636,2.956-3.857
			c-9.536,1.066-17.477,2.329-23.41,3.422l3.038,24.632l10.453,7.321l33.184-7.378l6.212-20.464
			c0.104-0.337,0.331-0.621,0.627-0.793c0.098-0.063,0.201-0.109,0.315-0.14c0.192-0.052,3.51-0.999,7.336-1.465L110.249,104.407z
			 M114.065,85.619c-2.31-0.036-4.623-0.057-6.933-0.062h-0.005c-3.39,0.005-6.787,0.041-10.189,0.109l-6.269,2.971
			c-0.005,0.005-0.041,0.021-0.088,0.048c-0.942,0.46-9.174,4.613-16.919,12.021c6.943-3.65,17.146-8.418,29.153-12.115
			C106.412,87.489,110.181,86.473,114.065,85.619z M70.251,98.763c3.251-3.225,6.605-5.886,9.567-7.967
			c-11.415,2.651-21.923,6.543-31.128,10.778C54.679,100.606,61.932,99.597,70.251,98.763z M72.41,88.814
			c3.825-1.072,7.771-2.009,11.813-2.796c-5.798,0.212-11.6,0.481-17.393,0.808c-3.366,0.186-6.715,0.414-10.065,0.667
			c-1.678,0.129-3.345,0.263-5.007,0.445c-0.476,0.046-0.942,0.098-1.418,0.16c-4.369,2.614-21.127,13.134-32.631,26.889
			C28.888,107.218,48.363,95.544,72.41,88.814z M41.56,143.011c-0.218-0.693-0.424-1.398-0.621-2.102l-5.162-3.612
			c-0.327-0.228-0.534-0.575-0.586-0.969l-2.516-20.449c-1.864,0.999-4.017,2.225-4.592,2.707c-0.497,0.409-0.875,1.46-0.336,6.332
			c0.668,6.01,3.712,17.333,5.348,18.979C35.063,144.244,39.422,143.639,41.56,143.011z M37.745,91.651
			c-2.915,0.564-5.292,1.071-7.051,1.47l0.829,3.127C33.836,94.404,35.954,92.872,37.745,91.651z"/>
	</g>
</g>
</svg>
