<?xml version="1.0" encoding="utf-8"?>
<!-- Generator: Adobe Illustrator 19.2.1, SVG Export Plug-In . SVG Version: 6.00 Build 0)  -->
<svg version="1.1" id="Travis-Pride-4" xmlns="http://www.w3.org/2000/svg" xmlns:xlink="http://www.w3.org/1999/xlink" x="0px"
	 y="0px" viewBox="0 0 229.921 228.052" enable-background="new 0 0 229.921 228.052" xml:space="preserve">
<g id="Travis-Pride">
	<g>
		<g>
			<path fill="#363B3F" d="M229.84,85.102c-0.082-1.674-0.248-3.344-0.482-5.006c-0.112-0.833-0.243-1.668-0.411-2.494
				c-0.166-0.844-0.332-1.63-0.594-2.554l-0.179-0.647l-0.465-0.364c-2.635-2.072-5.481-3.637-8.372-5.023
				c-2.387-1.125-4.809-2.107-7.261-3.012c-6.828-18.956-18.576-35.768-34.015-47.487C162.1,6.404,143.33,0,123.779,0
				c-19.551,0-38.321,6.404-54.284,18.516C54.056,30.234,42.309,47.047,35.477,66.007c-2.447,0.9-4.874,1.888-7.255,3.007
				c-2.893,1.386-5.737,2.951-8.374,5.023l-0.464,0.364l-0.179,0.647c-0.255,0.924-0.423,1.71-0.595,2.554
				c-0.166,0.827-0.292,1.661-0.411,2.494c-0.232,1.661-0.392,3.332-0.482,5.006c-0.166,3.349-0.071,6.706,0.298,10.04
				c0.351,3.327,0.976,6.623,1.863,9.891c0.459,1.625,0.988,3.232,1.614,4.826c0.309,0.797,0.648,1.589,1.023,2.382
				c0.184,0.392,0.387,0.78,0.595,1.178l0.333,0.589c0.125,0.214,0.208,0.374,0.399,0.66l0.339,0.525l0.53,0.272
				c0.565,0.292,1.029,0.513,1.541,0.752l1.494,0.672c0.275,0.113,0.536,0.227,0.816,0.339
				c-6.773,6.267-14.135,14.403-20.509,24.468L0,154.394l11.302-9.921c0.191-0.167,9.664-8.375,25.472-17.665l0.22,1.816
				c-1.03,0.535-6.005,3.148-7.48,4.379c-2.447,2.036-2.566,5.19-1.911,11.077c0.332,3.016,1.47,8.874,2.993,14.24
				c2.625,9.244,4.553,10.874,6.244,11.26c0.761,0.18,1.75,0.263,2.855,0.263c3.024,0,6.91-0.589,9.434-1.35
				c2.97,9.23,7.172,17.563,12.296,24.871c-0.244,0.072-0.488,0.144-0.738,0.214c-3.082-1.428-13.856-6.415-17.48-8.047l-7.57-3.404
				l4.476,6.987c0.328,0.505,8.052,12.557,14.367,20.676c5.898,7.581,13.98,15.325,29.229,15.325c1.832,0,3.754-0.114,5.731-0.334
				c4.551-0.517,7.969-0.927,10.568-1.261c16.005,5.881,33.656,6.237,50.404-0.106c4.577-1.738,8.76-3.851,12.594-6.22
				c0.077-0.011,0.153-0.03,0.226-0.048c6.23-1.499,13.294-3.183,16.783-4.165c0.566-0.155,1.26-0.316,1.993-0.489
				c4.863-1.117,12.987-3.004,17.319-11.67c4.363-8.749,11.487-22.147,11.564-22.283l3.322-6.248l-6.488,2.819
				c-0.345,0.155-8.559,3.732-12.832,5.976c-0.155,0.083-0.327,0.153-0.5,0.238c3.464-7.07,5.214-12.731,5.827-14.901
				c2.386,0.577,5.935,0.505,8.54,0.505c1.281,0,2.601-0.22,3.459-0.441c1.69-0.433,2.999-1.553,5.464-11.093
				c1.428-5.542,2.458-11.576,2.738-14.676c0.547-6.04,0.374-9.272-2.095-11.313c-1.227-1.013-4.828-2.954-6.66-3.912l0.09-0.66
				c0.934,0.225,1.434,0.352,1.475,0.363l1.66-6.308c0.588-0.25,1.208-0.5,1.911-0.775c1.007-0.392,2.011-0.797,3.012-1.225
				l1.492-0.672c0.513-0.239,0.976-0.459,1.543-0.752l0.53-0.272l0.338-0.525c0.185-0.286,0.28-0.445,0.4-0.66l0.327-0.589
				c0.22-0.399,0.416-0.786,0.601-1.178c0.37-0.792,0.708-1.585,1.023-2.382c0.626-1.594,1.154-3.201,1.614-4.826
				c0.879-3.268,1.511-6.564,1.862-9.891C229.918,91.808,230.008,88.451,229.84,85.102z"/>
			<g>
				<defs>
					<polygon id="SVGID_1_" points="187.205,185.08 166.201,183.28 148.197,169.277 127.993,176.079 102.988,171.278 
						90.185,185.881 76.583,191.082 60.379,194.682 55.778,192.482 41.375,187.681 53.178,204.284 65.18,218.287 82.984,222.488 
						110.79,218.887 124.592,212.086 129.193,200.884 137.195,210.686 151.198,217.487 174.403,212.686 194.007,204.284 
						207.009,178.479 					"/>
				</defs>
				<clipPath id="SVGID_2_">
					<use xlink:href="#SVGID_1_"  overflow="visible"/>
				</clipPath>
			</g>
			<path fill="#E5D667" d="M225.13,80.571c-0.062-0.772-0.148-1.542-0.241-2.31c-0.067-0.544-0.153-1.111-0.247-1.636
				c-2.062-1.735-4.404-3.279-6.842-4.681c-2.642-1.544-5.408-2.926-8.23-4.21c-2.803-1.322-5.681-2.519-8.577-3.687
				c-1.446-0.588-2.902-1.155-4.367-1.699c-1.459-0.569-2.932-1.099-4.409-1.636c3.1,0.513,6.168,1.217,9.214,2
				c1.981,0.513,3.952,1.086,5.909,1.699c-13.924-36.39-47.214-60.09-83.561-60.09c-36.352,0-69.64,23.7-83.561,60.09
				c1.958-0.613,3.928-1.186,5.905-1.699c3.05-0.783,6.119-1.488,9.218-2c-1.482,0.538-2.951,1.067-4.415,1.636
				c-1.457,0.544-2.915,1.111-4.366,1.699c-2.895,1.167-5.767,2.365-8.576,3.687c-2.816,1.285-5.584,2.666-8.226,4.21
				c-2.439,1.402-4.779,2.946-6.848,4.681c-0.086,0.525-0.173,1.092-0.241,1.636c-0.093,0.767-0.179,1.538-0.241,2.31
				c-0.135,1.55-0.19,3.107-0.204,4.668c-0.031,3.119,0.179,6.237,0.575,9.324c0.426,3.094,0.994,6.168,1.833,9.141
				c0.414,1.488,0.883,2.957,1.426,4.377c0.273,0.71,0.569,1.408,0.878,2.088c0.154,0.338,0.315,0.672,0.475,0.992l0.198,0.378
				c0.229,0.116,0.469,0.234,0.697,0.345l1.384,0.661c0.771,0.35,1.839,0.856,2.723,1.253c0.05-0.044,0.099-0.088,0.142-0.131
				l-2.57-9.786c0.545-0.148,5.423-1.408,13.833-3.008c-0.679-0.128-1.364-0.277-2.037-0.438c-1.914-0.475-3.804-1.056-5.632-1.797
				c-0.908-0.383-1.802-0.802-2.654-1.283c-0.853-0.489-1.693-1.044-2.342-1.78c9.238,3.015,28.326,1.649,45.294-0.105
				c15.519-1.599,31.073-2.636,46.708-2.666c15.636,0.03,31.197,1.067,46.708,2.666c16.975,1.753,36.063,3.119,45.3,0.105
				c-0.648,0.736-1.487,1.291-2.34,1.78c-0.852,0.481-1.746,0.9-2.654,1.283c-1.83,0.741-3.718,1.322-5.632,1.797
				c-0.284,0.069-0.57,0.13-0.854,0.192c9.22,1.71,14.587,3.099,15.161,3.254l-2.458,9.324c0.495-0.222,0.994-0.438,1.483-0.66
				l1.382-0.661c0.23-0.111,0.463-0.23,0.698-0.345l0.191-0.378c0.168-0.32,0.329-0.655,0.482-0.992
				c0.31-0.68,0.607-1.378,0.878-2.088c0.543-1.421,1.014-2.89,1.427-4.377c0.84-2.973,1.408-6.047,1.834-9.141
				c0.396-3.087,0.605-6.204,0.576-9.324C225.323,83.678,225.267,82.121,225.13,80.571z"/>
			<path fill="#856A5B" d="M134.26,209.988c-1.223,0.184-2.447,0.339-3.662,0.431c-0.784,0.037-1.614,0.117-2.366,0.117
				l-0.278,0.006c0.945-2.111,1.662-3.748,2.206-4.989C131.264,206.795,132.672,208.333,134.26,209.988z"/>
			<path fill="#856A5B" d="M136.919,212.698c3.798,3.762,8.504,5.915,13.685,6.298c-8.701,3.534-16.901,4.898-23.219,5.323
				c-6.297,0.422-12.682-0.32-18.938-2.036c0.525-0.094,0.908-0.161,1.371-0.217c0.513-0.062,11.733-1.525,16.791-9.046l0.474,0.011
				l1.242-0.011c0.84,0,1.604-0.069,2.408-0.1c1.909-0.166,3.774-0.438,5.608-0.808
				C136.532,212.309,136.723,212.501,136.919,212.698z"/>
			<path fill="#A1A0A0" d="M147.683,100.097c-0.364,0.475-0.771,0.999-1.205,1.544c-2.222,2.81-5.304,6.403-8.96,9.918
				c-4.249-0.131-8.615-0.205-13.11-0.205c-7.427,0-14.548,0.197-21.31,0.525c9.554-3.965,21.034-7.838,33.464-10.165
				C140.193,101.028,143.909,100.48,147.683,100.097z"/>
			<path fill="#A1A0A0" d="M91.763,104.376c-3.41,2.396-7.262,5.453-10.998,9.163c-9.566,0.958-17.909,2.118-24.793,3.23
				C66.556,111.904,78.634,107.426,91.763,104.376z"/>
			<path fill="#A1A0A0" d="M208.631,124.122l-3.89,27.221l-18.638,13.054l-48.609-5.526l-7.317-24.097
				c-0.173-0.586-0.668-1.017-1.274-1.116c-1.802-0.291-3.395-0.439-4.723-0.439c-1.333,0-2.921,0.148-4.73,0.439
				c-0.6,0.098-1.092,0.53-1.272,1.116l-7.138,23.51l-48.338,10.757l-19.155-13.418l-3.774-30.547
				c0.822-0.464,1.657-0.927,2.502-1.389c1.185-0.255,2.519-0.525,3.995-0.81l3.557,28.825c0.055,0.45,0.304,0.852,0.673,1.111
				l13.177,9.233c0.272,0.184,0.593,0.283,0.914,0.283c0.116,0,0.229-0.011,0.352-0.038l39.742-8.842
				c0.136-0.031,0.272-0.08,0.396-0.142c0.37-0.197,0.661-0.536,0.784-0.95l7.157-23.564c1.92-0.494,6.837-1.643,11.158-1.643
				c4.31,0,9.231,1.149,11.153,1.643l7.156,23.564c0.185,0.611,0.717,1.049,1.352,1.124l39.742,4.515
				c0.385,0.042,0.779-0.058,1.094-0.278l13.185-9.225c0.357-0.253,0.597-0.65,0.659-1.088l3.52-24.625
				C204.685,123.284,206.896,123.747,208.631,124.122z"/>
			<path fill="#A1A0A0" d="M213.54,107.05l-3.421,12.979c-6.996-1.542-22.367-4.57-43.287-6.608
				c6.835-2.915,13.795-6.57,20.154-11.14C199.435,104.041,208.575,105.926,213.54,107.05z"/>
			<g opacity="0.8">
				<path fill="#6A5853" d="M73.392,147.657c2.71-1.464,5.773-1.247,10.565-1.241c0.513,0.012,1.044,0.006,1.598-0.006
					c0.471-0.006,0.945-0.013,1.446-0.025c4.939-0.048,9.046,0.42,8.973-7.336c-0.075-7.755-3.52-14.023-8.454-13.973
					c-4.94,0.042-9.719,6.397-9.423,14.147c0.08,2.019,0.377,3.476,0.853,4.526C74.645,144.828,73.459,147.489,73.392,147.657z
					 M132.777,115.756c-1.914,1.55-3.933,3.001-6.034,4.266l-7.009,4.231c-4.396,0.536-8.211,1.624-8.428,1.686
					c-0.129,0.036-0.252,0.091-0.364,0.161c-0.34,0.197-0.599,0.524-0.723,0.913l-7.137,23.521l-38.15,8.485l-12.016-8.416
					l-3.496-28.32c6.824-1.253,15.95-2.704,26.912-3.932c-1.175,1.408-2.316,2.883-3.397,4.432l-6.526,9.368l9.503-6.336
					c0.142-0.099,6.193-4.081,16.092-8.922c9.866-0.741,20.753-1.217,32.405-1.217C127.249,115.675,130.035,115.708,132.777,115.756
					z"/>
				<path fill="#6A5853" d="M174.551,144.476c-0.048-0.184-1.087-3.302-5.681-2.755c0.53-1.153,0.766-2.708,0.599-4.84
					c-0.607-7.738-5.107-13.887-10.042-13.715c-4.934,0.175-8.095,6.589-7.823,14.345c0.271,7.75,4.415,7.695,9.348,7.522
					C167.585,144.909,171.229,142.871,174.551,144.476z M198.899,122.192l-3.44,24.077l-12.116,8.483l-38.099-4.329l-7.108-23.41
					c-0.161-0.519-0.568-0.919-1.087-1.074c-0.235-0.069-4.953-1.414-9.954-1.847l0.913-0.061c0.79-0.056,13.931-1.668,29.622-7.078
					C175.008,118.288,189.198,120.424,198.899,122.192z"/>
			</g>
			<path fill="#856A5B" d="M215.53,132.782c0.585,0.481,1.048,1.729,0.525,7.539c-0.642,7.114-3.632,19.599-5.485,21.612
				c-2.043,0.395-6.329-0.073-8.942-0.685c0.452-1.793,0.581-2.651,0.945-4.484l4.57-3.198c0.364-0.253,0.605-0.65,0.667-1.082
				l3.193-22.378C212.941,131.158,214.936,132.293,215.53,132.782z"/>
			<path fill="#856A5B" d="M47.061,161.989c0.229,0.81,0.469,1.617,0.717,2.414c-2.459,0.722-7.466,1.414-9.732,1.019
				c-1.878-1.891-5.379-14.906-6.145-21.817c-0.624-5.6-0.186-6.811,0.383-7.281c0.661-0.555,3.136-1.963,5.28-3.112l2.896,23.508
				c0.055,0.452,0.296,0.852,0.673,1.111L47.061,161.989z"/>
			<path fill="#856A5B" d="M139.502,162.317l-0.174,1.5c0,0-5.266,4.884-13.745,5.976c-8.479,1.092-15.142-4.118-15.142-4.118
				c0.278,0.906,0.674,2.951,2.594,4.698c-2.26-0.27-4.699-0.452-7.257-0.452c-0.924,0-1.858,0.027-2.76,0.07
				c-5.218,0.272-12.559,8.163-17.72,16.111c-2.533,0.802-10.449,3.315-19.612,6.02c-8.553-11.851-12.759-23.96-13.184-25.213
				l0.006-0.006c-0.173-0.481-0.346-0.964-0.507-1.458l2.2,1.538v0.006l5.434,3.804l1.816,1.266
				c0.271,0.192,0.592,0.291,0.913,0.291c0.118,0,0.234-0.012,0.351-0.036l49.933-11.116c0.56-0.123,1.012-0.544,1.178-1.092
				l7.121-23.441c1.229-0.167,2.308-0.253,3.235-0.253c0.921,0,2.007,0.086,3.236,0.253l7.328,24.138
				c0.187,0.611,0.717,1.057,1.347,1.124L139.502,162.317z"/>
			<path fill="#856A5B" d="M196.498,161.02l1.612-1.131c-0.267,1.119-0.557,2.23-0.859,3.329
				c-2.241,7.183-4.885,13.536-7.823,19.148c-0.65,0.045-1.335,0.07-2.069,0.07c-2.267,0-4.583-0.192-7.145-0.427
				c-4.447-0.408-11.504-1.216-13.734-1.475c-1.92-1.532-8.49-6.751-13.956-11.054c-0.215-0.173-0.4-0.334-0.581-0.483
				c-0.962-0.814-2.056-1.739-4.273-1.739c-2.013,0-4.953,0.733-12.059,2.883c3.692-2.76,3.716-6.323,3.716-6.323l0.174-1.5
				l46.844,5.321c0.381,0.044,0.777-0.055,1.098-0.277l4.706-3.298L196.498,161.02z"/>
			<path fill="#E2453C" d="M180.788,100.559c0.011,0,0.024,0.006,0.036,0.012c-0.383,0.272-0.764,0.556-1.149,0.828
				c-15.394,10.744-33.197,15.295-43.459,17.135c7.248-5.995,12.904-13.073,15.752-16.932c0.889-1.21,1.507-2.105,1.809-2.557
				c5.242,0.216,10.479,0.47,15.715,0.766C173.266,100.028,177.027,100.281,180.788,100.559z"/>
			<path fill="#E2453C" d="M123.163,98.354c2.654,0.006,5.309,0.033,7.965,0.069c-4.465,0.988-8.792,2.149-12.93,3.421
				c-13.801,4.248-25.535,9.725-33.512,13.925c8.904-8.516,18.365-13.289,19.446-13.818c0.054-0.033,0.099-0.052,0.105-0.056
				l7.207-3.415c3.907-0.073,7.81-0.119,11.713-0.125H123.163z"/>
			<path fill="#E2453C" d="M96.825,98.887c-4.65,0.9-9.182,1.982-13.584,3.21c-27.64,7.738-50.031,21.156-62.882,30.091
				c13.228-15.814,32.487-27.904,37.514-30.913c0.543-0.067,1.08-0.128,1.63-0.184c1.908-0.203,3.829-0.364,5.756-0.513
				c3.847-0.291,7.699-0.55,11.565-0.766C83.488,99.436,90.157,99.126,96.825,98.887z"/>
			<path fill="#CEBD3F" d="M162.022,62.466c0.142,4.168,0.038,11.72-1.903,18.79c-0.079,0.273-0.067,0.55,0,0.81
				c-2.469-0.259-4.94-0.481-7.41-0.68c2.773-5.811,3.378-11.998,3.509-14.176C158.347,65.696,160.466,63.88,162.022,62.466z"/>
			<path fill="#CEBD3F" d="M91.343,67.209c0.129,2.179,0.734,8.353,3.502,14.159c-2.471,0.197-4.94,0.425-7.405,0.686
				c0.067-0.255,0.075-0.525,0-0.799c-1.938-7.056-2.038-14.615-1.901-18.79C87.094,63.88,89.206,65.696,91.343,67.209z"/>
			<path fill="#363B3F" d="M174.551,144.476c-3.322-1.605-6.966,0.433-13.597,0.556c-4.934,0.173-9.078,0.228-9.348-7.522
				c-0.273-7.756,2.889-14.17,7.823-14.345c4.934-0.172,9.435,5.978,10.042,13.715c0.166,2.132-0.069,3.687-0.599,4.84
				C173.464,141.174,174.502,144.292,174.551,144.476z M159.045,133.121c1.39-0.031,2.501-1.18,2.476-2.569
				c-0.024-1.396-1.172-2.507-2.57-2.475c-1.395,0.023-2.501,1.172-2.474,2.568C156.501,132.033,157.65,133.146,159.045,133.121z"/>
			<path fill="#F4F4F4" d="M161.521,130.552c0.025,1.389-1.087,2.538-2.476,2.569c-1.395,0.025-2.543-1.088-2.568-2.477
				c-0.026-1.396,1.079-2.544,2.474-2.568C160.349,128.045,161.497,129.156,161.521,130.552z"/>
			<path fill="#363B3F" d="M95.974,139.049c0.073,7.756-4.034,7.288-8.973,7.336c-0.501,0.012-0.975,0.019-1.446,0.025
				c-0.554,0.012-1.085,0.019-1.598,0.006c-4.792-0.006-7.855-0.223-10.565,1.241c0.067-0.167,1.253-2.829,5.558-3.909
				c-0.476-1.05-0.773-2.507-0.853-4.526c-0.295-7.75,4.484-14.104,9.423-14.147C92.454,125.025,95.9,131.294,95.974,139.049z
				 M88.347,134.991c1.389-0.036,2.489-1.199,2.452-2.588c-0.037-1.396-1.197-2.494-2.586-2.457
				c-1.397,0.036-2.497,1.197-2.459,2.587C85.79,133.93,86.952,135.029,88.347,134.991z"/>
			
				<ellipse transform="matrix(0.9997 -0.0257 0.0257 0.9997 -3.3749 2.3122)" fill="#F4F4F4" cx="88.278" cy="132.469" rx="2.524" ry="2.523"/>
			<g>
				<path fill="#CEBD3F" d="M58.275,86.399c0,0,0.767-9.991,2.333-13.822c0.808-1.974,5.744-3.23,9.514-4.127
					c3.768-0.897,9.781-2.693,10.949,2.602c1.167,5.295,3.049,9.155,4.306,10.86l-1.614-21.809l-25.937,6.283l-1.706,19.296
					l0.808,1.527L58.275,86.399"/>
				<path fill="#CEBD3F" d="M189.519,86.399c0,0-0.765-9.991-2.333-13.822c-0.808-1.974-5.744-3.23-9.513-4.127
					c-3.77-0.897-9.784-2.693-10.951,2.602c-1.165,5.295-3.051,9.155-4.308,10.86l1.617-21.809l25.938,6.283l1.705,19.296
					l-0.808,1.527L189.519,86.399"/>
			</g>
			<path fill="#CEBD3F" d="M152.858,21.128c0,0-0.687,52.295-12.903,52.295c-12.215,0-14.658,0-14.658,0h-2.443c0,0-2.444,0-14.66,0
				S94.992,21.151,94.992,21.151l-6,17.748l0.097,24.352l4.261,3.388l1.937,10.457l2.71,6.1l52.287,0.097l2.42-4.357l2.034-7.358
				l0.291-4.648l5.774-16.486L152.858,21.128z"/>
			<path fill="#CEBD3F" d="M191.329,69.889c0,0,2.514,18.04,9.167,21.292c6.654,3.252,0,0,0,0l-9.315-2.808L191.329,69.889z"/>
			<path fill="#CEBD3F" d="M56.225,69.889c0,0-2.514,18.04-9.168,21.292c-6.654,3.252,0,0,0,0l9.316-2.808L56.225,69.889z"/>
			<path fill="#363B3F" d="M193.12,88.29c3.167,1.038,6.353,2.136,9.239,3.823c-1.544-0.611-3.137-1.05-4.744-1.446
				c-1.599-0.408-3.21-0.753-4.829-1.061c-3.242-0.611-6.495-1.13-9.769-1.525c-3.266-0.427-6.538-0.785-9.825-1.063
				c-3.285-0.278-6.563-0.555-9.855-0.747c-13.158-0.81-26.354-1.013-39.557-1.025c-13.201,0.006-26.397,0.253-39.557,1.031
				c-3.291,0.191-6.57,0.469-9.855,0.747c-3.284,0.277-6.564,0.63-9.824,1.061c-3.273,0.397-6.527,0.916-9.769,1.525
				c-1.618,0.303-3.23,0.656-4.835,1.056c-1.599,0.395-3.199,0.835-4.743,1.446c2.885-1.686,6.07-2.791,9.244-3.829
				c0.266-0.086,0.537-0.161,0.809-0.247c-0.018-0.067-0.036-0.13-0.05-0.203c-0.055-0.364-1.229-9.035,0.815-21.434
				c0.099-0.594,0.525-1.075,1.106-1.236l3.353-0.955c0.728-26.01,11.441-38.244,11.776-38.62
				c-9.571,15.402-9.484,33.668-9.318,37.922l20.841-5.923c0.019-0.005,0.03-0.005,0.049-0.011c0.088-0.019,0.173-0.031,0.259-0.037
				c0.024,0,0.056-0.006,0.086-0.006c0.106-0.006,0.224,0.006,0.342,0.031c0.017,0,0.036,0.012,0.061,0.019
				c0.086,0.017,0.166,0.048,0.258,0.086c0.037,0.019,0.062,0.037,0.099,0.056c0.067,0.038,0.136,0.08,0.204,0.128
				c0.019,0.013,0.039,0.019,0.056,0.038c0.013,0.012,0.024,0.025,0.037,0.038c0.019,0.019,0.043,0.031,0.062,0.05
				c0.013,0.019,0.568,0.567,1.451,1.389C86.526,52.5,86.853,32.8,96.233,16.475c-0.198,0.573-7.64,22.335-5.076,46.726
				c0.833,0.667,1.709,1.322,2.562,1.896c0.413,0.284,0.667,0.753,0.672,1.253c0.007,0.081,0.185,7.855,3.619,14.469
				c0.048,0.099,0.086,0.203,0.118,0.309c8.54-0.581,17.104-0.816,25.65-0.822c8.548,0.006,17.107,0.253,25.645,0.841
				c0.032-0.113,0.069-0.222,0.125-0.328c3.432-6.614,3.612-14.387,3.612-14.469c0.011-0.5,0.265-0.969,0.68-1.253
				c0.852-0.574,1.716-1.228,2.557-1.896c2.568-24.391-4.874-46.153-5.071-46.726c9.373,16.326,9.707,36.025,9.498,42.892
				c0.876-0.822,1.432-1.371,1.449-1.389c0.018-0.019,0.045-0.031,0.061-0.05c0.013-0.012,0.021-0.025,0.038-0.038
				c0.019-0.019,0.037-0.025,0.056-0.038c0.069-0.048,0.136-0.091,0.204-0.136c0.032-0.011,0.062-0.03,0.093-0.048
				c0.093-0.038,0.178-0.069,0.271-0.092c0.019,0,0.037-0.012,0.056-0.012c0.11-0.025,0.23-0.038,0.34-0.031
				c0.032,0,0.056,0.006,0.08,0.006c0.086,0.006,0.179,0.019,0.265,0.037c0.013,0.006,0.032,0.006,0.048,0.011l20.841,5.923
				c0.168-4.254,0.254-22.52-9.317-37.922c0.332,0.377,11.046,12.61,11.769,38.62l3.36,0.955c0.573,0.161,1.006,0.642,1.106,1.236
				c2.043,12.399,0.865,21.07,0.814,21.434c-0.011,0.073-0.03,0.142-0.049,0.209C192.582,88.122,192.847,88.202,193.12,88.29z
				 M189.329,87.177c0.161-1.388,0.908-8.977-0.68-19.315l-23.59-6.706c0.211,3.996,0.305,12.66-1.962,20.922
				c-0.03,0.099-0.067,0.199-0.116,0.297c0.233,0.025,0.468,0.044,0.696,0.073c6.632,0.76,13.233,1.822,19.76,3.254
				C185.407,86.16,187.377,86.647,189.329,87.177z M160.119,81.255c1.94-7.07,2.045-14.622,1.903-18.79
				c-1.555,1.414-3.675,3.23-5.804,4.743c-0.131,2.179-0.736,8.366-3.509,14.176c2.47,0.198,4.941,0.42,7.41,0.68
				C160.052,81.806,160.04,81.529,160.119,81.255z M94.844,81.368c-2.768-5.806-3.373-11.981-3.502-14.159
				c-2.136-1.513-4.248-3.329-5.804-4.743c-0.136,4.174-0.037,11.734,1.901,18.79c0.075,0.273,0.067,0.544,0,0.799
				C89.905,81.793,92.373,81.565,94.844,81.368z M84.575,82.362c-0.045-0.086-0.08-0.186-0.112-0.284
				c-2.271-8.261-2.172-16.925-1.968-20.922l-23.583,6.706c-1.586,10.326-0.846,17.915-0.686,19.31
				c1.958-0.531,3.921-1.021,5.898-1.477c3.26-0.722,6.545-1.327,9.836-1.883c3.298-0.549,6.607-0.969,9.917-1.371
				C84.111,82.41,84.34,82.393,84.575,82.362z"/>
			<path fill="#A1A0A0" d="M35.286,107.05c2.023-0.458,4.755-1.042,8.106-1.689c-2.059,1.403-4.494,3.165-7.153,5.284L35.286,107.05
				z"/>
			<path fill="#695348" d="M109.34,160.692c0,0,0.566,3.638-4.527,5.195c-5.091,1.558-37.342,11.169-41.02,10.649
				c-3.677-0.519-13.013-6.753-13.013-6.753l-2.263-8.052l13.014,7.012L109.34,160.692z"/>
			<g id="XMLID_3_">
				<polygon fill="#363B3F" points="148.629,21.816 148.629,41.389 134.755,41.389 134.755,35.67 131.628,35.67 131.628,62.089 
					136.352,62.089 136.352,76.862 112.084,76.862 112.084,62.089 116.789,62.089 116.789,35.67 113.672,35.67 113.672,41.389 
					99.807,41.389 99.807,21.816 				"/>
			</g>
			<path fill="#695348" d="M138.232,159.987c0,0-0.407,3.659,4.749,4.995c5.155,1.335,37.793,9.536,41.444,8.857
				c3.651-0.68,12.706-7.312,12.706-7.312l1.912-8.144l-12.697,7.573L138.232,159.987z"/>
			<path fill="#695348" d="M32.663,153.997c0,0,4.469,8.938,11.687,5.843l5.156,1.891l-0.515,3.782l-10.828,1.374l-2.922-1.718
				L32.663,153.997z"/>
			<path fill="#695348" d="M215.61,151.543c0,0-7.304,9.328-14.522,6.236l-2.321,1.497l0.515,3.78l10.828,1.375l2.921-1.719
				L215.61,151.543z"/>
			<path fill="#695348" d="M102.635,221.764c0,0,26.476,13.348,56.453-4.815l-9.627-0.656c0,0-21.005,8.314-37.635,3.719
				L102.635,221.764z"/>
			<polygon fill="#E2453C" points="138.417,25.975 127.469,25.975 103.967,25.975 103.967,37.229 109.503,37.229 109.503,31.512 
				120.958,31.512 120.958,66.258 116.244,66.258 116.244,72.703 132.183,72.703 132.183,66.258 127.469,66.258 127.469,31.512 
				138.924,31.512 138.924,37.229 144.46,37.229 144.46,25.975 			"/>
		</g>
		<g>
			<path fill="#E2453C" d="M156.836,178.729c-2.266-1.758-4.851-3.721-7.009-5.418c-0.261-0.214-0.752-0.522-0.967-0.7
				c-0.678-0.578-0.962-0.6-1.367-0.6c-2.066,0-7.895,1.934-21.05,6.012l-0.808,0.256l-0.792-0.298
				c-0.09-0.03-8.719-3.236-19.062-3.236c-0.095,0-0.202,0.002-0.302,0.003l-3.054,0.244c-1.154,0.479-3.585,2.023-6.676,5.257
				h0.014c-0.856,0.906-1.811,2.16-2.816,3.585L156.836,178.729z"/>
			<g>
				<path fill="#DACD52" d="M45.874,191.384c0.475,0.69,1.321,1.753,2.336,2.981l5.606-0.448c-1.481-1.121-2.914-2.122-3.804-2.533
					H45.874z"/>
				<path fill="#E07E39" d="M163.956,184.836c-0.045-0.033-2.502-1.989-5.778-4.587h0.599c-0.79-0.627-1.671-1.311-2.585-2.018
					l-62.826,5.02c-1.101,1.529-3.623,5.076-3.623,5.076c-0.251,0.382-0.503,0.772-0.758,1.175l-0.482,0.755l-0.851,0.274
					c-0.035,0.012-1.075,0.348-2.85,0.91l79.471-6.35L163.956,184.836z"/>
			</g>
			<path fill="#E5D667" d="M203.178,182.564c-2.142,0.988-4.387,2.058-5.982,2.897c-2.458,1.291-5.677,1.916-9.838,1.916
				c-2.474,0-4.904-0.208-7.593-0.447c-5.375-0.494-14.469-1.564-14.562-1.577l-0.697-0.077l-0.357-0.286l-78.883,6.303
				c-3.154,1.001-9.124,2.873-16.031,4.931l-0.129,0c-2.406,0.715-5.405,1.633-7.943,2.359l-0.881,0.25l-0.834-0.388
				c-0.034-0.014-3.011-2.556-5.764-4.629l-5.56,0.444c1.778,2.156,4.108,4.854,5.941,7.031l145.403-11.619
				c0.233-0.45,0.466-0.901,0.697-1.346C200.166,188.328,202.396,184.051,203.178,182.564z"/>
			<path fill="#51B95B" d="M196.144,196.238h-0.042c1.111-2.192,2.318-4.541,3.51-6.842L53.855,201.043
				c1.138,1.348,2.11,2.521,2.663,3.261h-0.047c0.582,0.78,1.346,1.731,1.907,2.452c0.351,0.452,0.71,0.9,1.074,1.345l66.518-5.315
				c0.874-2.029,1.115-2.663,1.13-2.701l1.4-3.837h-0.001l0.078-0.14l0.103,0.131h-0.011l2.638,3.114
				c0.019,0.025,0.951,1.133,2.45,2.812l61.875-4.944C195.81,196.883,195.988,196.547,196.144,196.238z"/>
			<g>
				<path fill="#1E72B7" d="M123.284,208.88c0.8-1.789,1.564-3.417,2.071-4.576h-0.045c0.278-0.635,0.513-1.179,0.715-1.647
					l-66.666,5.327c1.24,1.521,2.563,2.998,4.019,4.372H63.26c0.976,0.904,2.032,1.766,3.168,2.569l55.939-4.47
					C122.716,209.963,123.033,209.445,123.284,208.88z"/>
				<path fill="#1E72B7" d="M189.986,204.306h-0.083c1.934-1.289,3.699-3.081,5.002-5.692c0.227-0.455,0.516-0.994,0.796-1.524
					l-62.046,4.958c0.596,0.669,1.284,1.43,2.048,2.258h-0.044c1.293,1.397,2.981,3.131,4.582,4.721l48.294-3.859
					C189.03,204.906,189.519,204.626,189.986,204.306z"/>
			</g>
			<g>
				<path fill="#6F5BA7" d="M178.682,208.225c0.672-0.191,1.423-0.363,2.213-0.542c2.306-0.533,5.313-1.201,7.958-2.678
					l-48.74,3.895c0.094,0.094,0.19,0.191,0.283,0.283c1.374,1.362,2.874,2.427,4.478,3.228h-0.272
					c2.168,1.019,5.138,1.712,7.685,1.712c1.565,0,3.208-0.202,4.869-0.602c1.244-0.303,3.331-0.783,4.7-1.111h-0.08
					c0.103-0.025,0.205-0.049,0.309-0.074C168.273,210.857,175.283,209.177,178.682,208.225z"/>
				<path fill="#6F5BA7" d="M122.466,210.31l-56.215,4.492c4.373,3.141,10.009,5.374,17.457,5.374c1.641,0,3.386-0.102,5.177-0.305
					c13.313-1.505,16.742-2.111,18.587-2.433c0.624-0.106,1.119-0.197,1.75-0.273c0.079-0.01,7.203-1.101,11.574-4.808h-0.13
					C121.346,211.751,121.95,211.066,122.466,210.31z"/>
			</g>
		</g>
		<path fill="#363B3F" d="M229.84,85.102c-0.082-1.674-0.248-3.344-0.482-5.006c-0.112-0.833-0.243-1.668-0.411-2.494
			c-0.166-0.844-0.332-1.63-0.594-2.554l-0.179-0.647l-0.465-0.364c-2.635-2.072-5.481-3.637-8.372-5.023
			c-2.387-1.125-4.809-2.107-7.261-3.012c-6.828-18.956-18.576-35.768-34.015-47.487C162.1,6.404,143.33,0,123.779,0
			c-19.551,0-38.321,6.404-54.284,18.516C54.057,30.234,42.309,47.047,35.477,66.007c-2.447,0.9-4.874,1.888-7.255,3.007
			c-2.893,1.386-5.737,2.951-8.374,5.023l-0.464,0.364l-0.179,0.647c-0.255,0.924-0.423,1.71-0.595,2.554
			c-0.166,0.827-0.292,1.661-0.411,2.494c-0.232,1.661-0.392,3.332-0.482,5.006c-0.166,3.349-0.071,6.706,0.298,10.04
			c0.351,3.327,0.976,6.623,1.863,9.891c0.459,1.625,0.988,3.232,1.614,4.826c0.309,0.797,0.648,1.589,1.023,2.382
			c0.184,0.392,0.387,0.78,0.595,1.178l0.333,0.589c0.125,0.214,0.208,0.374,0.399,0.66l0.339,0.525l0.53,0.272
			c0.565,0.292,1.029,0.513,1.541,0.752l1.494,0.672c0.275,0.113,0.536,0.227,0.816,0.339c-6.773,6.267-14.135,14.403-20.509,24.468
			L0,154.394l11.302-9.921c0.191-0.167,9.664-8.375,25.472-17.665l0.22,1.816c-1.03,0.535-6.005,3.148-7.48,4.379
			c-2.447,2.036-2.566,5.19-1.911,11.077c0.332,3.016,1.47,8.874,2.993,14.24c2.625,9.244,4.553,10.874,6.244,11.26
			c0.761,0.18,1.75,0.263,2.855,0.263c3.024,0,6.91-0.589,9.434-1.35c2.97,9.23,7.172,17.563,12.296,24.871
			c-0.244,0.072-0.488,0.144-0.738,0.214c-3.082-1.428-13.856-6.415-17.48-8.047l-7.57-3.404l4.476,6.987
			c0.328,0.505,8.052,12.557,14.367,20.676c5.898,7.581,13.98,15.325,29.229,15.325c1.832,0,3.754-0.114,5.731-0.334
			c4.551-0.517,7.969-0.927,10.568-1.261c16.004,5.881,33.656,6.237,50.404-0.106c4.578-1.738,8.76-3.851,12.594-6.22
			c0.077-0.011,0.153-0.03,0.226-0.048c6.23-1.499,13.294-3.183,16.783-4.165c0.566-0.155,1.26-0.316,1.993-0.489
			c4.863-1.117,12.987-3.004,17.319-11.67c4.363-8.749,11.487-22.147,11.564-22.283l3.322-6.248l-6.488,2.819
			c-0.345,0.155-8.559,3.732-12.832,5.976c-0.155,0.083-0.327,0.153-0.501,0.238c3.464-7.07,5.214-12.731,5.827-14.901
			c2.386,0.577,5.935,0.505,8.54,0.505c1.281,0,2.601-0.22,3.459-0.441c1.69-0.433,2.999-1.553,5.464-11.093
			c1.428-5.542,2.458-11.576,2.738-14.676c0.547-6.04,0.374-9.272-2.095-11.313c-1.227-1.013-4.828-2.954-6.66-3.912l0.09-0.66
			c0.934,0.225,1.434,0.352,1.475,0.363l1.66-6.308c0.588-0.25,1.208-0.5,1.911-0.775c1.007-0.392,2.011-0.797,3.012-1.225
			l1.492-0.672c0.513-0.239,0.976-0.459,1.543-0.752l0.53-0.272l0.338-0.525c0.185-0.286,0.28-0.445,0.4-0.66l0.327-0.589
			c0.22-0.399,0.416-0.786,0.601-1.178c0.37-0.792,0.708-1.585,1.023-2.382c0.626-1.594,1.154-3.201,1.614-4.826
			c0.879-3.268,1.511-6.564,1.862-9.891C229.918,91.808,230.008,88.451,229.84,85.102z M20.359,132.189
			c13.225-15.813,32.49-27.907,37.512-30.913c0.547-0.072,1.083-0.131,1.63-0.184c1.911-0.209,3.827-0.363,5.756-0.511
			c3.851-0.292,7.701-0.555,11.57-0.767c6.66-0.377,13.33-0.686,19.995-0.93c-4.647,0.905-9.183,1.982-13.58,3.215
			C55.599,109.835,33.21,123.256,20.359,132.189z M35.286,107.05c2.023-0.458,4.755-1.042,8.106-1.689
			c-2.059,1.403-4.494,3.165-7.153,5.284L35.286,107.05z M76.333,118.352c-1.178,1.403-2.321,2.879-3.399,4.434l-6.528,9.368
			l9.505-6.339c0.142-0.102,6.195-4.082,16.092-8.921c9.868-0.744,20.753-1.221,32.407-1.221c2.839,0,5.623,0.036,8.367,0.083
			c-1.916,1.547-3.933,3.001-6.034,4.268l-7.005,4.231c-4.398,0.536-8.213,1.625-8.434,1.685c-0.13,0.036-0.25,0.089-0.362,0.161
			c-0.34,0.197-0.601,0.524-0.721,0.911l-7.141,23.525l-38.149,8.481l-12.017-8.416l-3.493-28.317
			C56.242,121.029,65.371,119.577,76.333,118.352z M55.974,116.767c10.582-4.868,22.662-9.343,35.785-12.39
			c-3.405,2.393-7.261,5.451-10.998,9.16C71.198,114.495,62.86,115.655,55.974,116.767z M128.011,124.028
			c0.792-0.053,13.932-1.664,29.621-7.075c17.379,1.333,31.566,3.469,41.268,5.235l-3.44,24.082l-12.118,8.481l-38.095-4.327
			l-7.111-23.413c-0.161-0.519-0.566-0.917-1.085-1.072c-0.237-0.07-4.951-1.416-9.956-1.846L128.011,124.028z M136.217,118.537
			c7.249-6,12.904-13.076,15.754-16.933c0.887-1.213,1.505-2.105,1.81-2.558c5.237,0.22,10.475,0.47,15.711,0.769
			c3.774,0.213,7.535,0.469,11.296,0.749c0.013,0,0.024,0.006,0.036,0.012c-0.381,0.267-0.762,0.553-1.149,0.827
			C164.278,112.145,146.479,116.697,136.217,118.537z M146.479,101.639c-2.22,2.81-5.304,6.404-8.958,9.916
			c-4.249-0.125-8.617-0.203-13.11-0.203c-7.429,0-14.546,0.197-21.314,0.524c9.552-3.963,21.034-7.831,33.465-10.158
			c3.63-0.691,7.345-1.238,11.117-1.619C147.317,100.575,146.912,101.099,146.479,101.639z M118.197,101.842
			c-13.803,4.249-25.533,9.73-33.514,13.926c8.904-8.516,18.367-13.29,19.45-13.818c0.054-0.031,0.095-0.05,0.101-0.055l7.207-3.416
			c3.911-0.077,7.816-0.119,11.713-0.125h0.006c2.655,0.006,5.315,0.03,7.97,0.072C126.664,99.408,122.332,100.575,118.197,101.842z
			 M38.047,165.423c-1.88-1.893-5.38-14.909-6.148-21.819c-0.619-5.601-0.184-6.809,0.387-7.28c0.661-0.553,3.136-1.963,5.279-3.112
			l2.892,23.508c0.06,0.453,0.298,0.852,0.673,1.114l5.934,4.152c0.226,0.81,0.463,1.619,0.713,2.416
			C45.32,165.126,40.309,165.821,38.047,165.423z M127.385,224.318c-6.297,0.424-12.682-0.32-18.938-2.035
			c0.525-0.095,0.906-0.161,1.369-0.214c0.513-0.066,11.737-1.53,16.791-9.047l0.474,0.012l1.246-0.012
			c0.838,0,1.601-0.07,2.404-0.1c1.911-0.167,3.774-0.441,5.612-0.81c0.191,0.195,0.381,0.388,0.577,0.589
			c3.798,3.762,8.506,5.915,13.683,6.297C141.902,222.527,133.699,223.896,127.385,224.318z M127.951,210.541
			c0.947-2.108,1.666-3.745,2.207-4.989c1.108,1.244,2.512,2.78,4.101,4.434c-1.227,0.184-2.447,0.339-3.661,0.434
			c-0.786,0.038-1.613,0.12-2.368,0.12H127.951z M197.196,185.461c1.595-0.839,3.84-1.91,5.982-2.897
			c-2.471,4.699-5.802,11.11-8.273,16.05c-3.285,6.583-9.487,8.024-14.01,9.069c-0.79,0.18-1.541,0.352-2.213,0.542
			c-3.399,0.952-10.409,2.632-16.598,4.112c-1.714,0.411-3.387,0.81-4.928,1.185c-1.66,0.4-3.303,0.602-4.869,0.602
			c-4.583,0-8.581-1.66-11.89-4.94c-4.977-4.934-9.048-9.779-9.089-9.832c0,0-2.73-3.238-2.73-3.244
			c-0.226,0.239-1.477,3.977-1.477,3.977c-0.024,0.064-0.661,1.744-3.815,8.796c-3.059,6.862-13.962,8.272-14.062,8.285
			c-0.631,0.077-1.126,0.167-1.75,0.273c-1.845,0.322-5.274,0.928-18.587,2.433c-1.791,0.203-3.535,0.305-5.177,0.305
			c-13.088,0-19.915-6.445-25.33-13.42c-3.1-3.982-6.624-9.06-9.38-13.131c5.053,2.322,10.362,4.785,10.451,4.821l0.834,0.388
			l0.881-0.25c13.57-3.88,26.366-8.011,26.489-8.053l0.851-0.274l0.482-0.755c7.434-11.762,13.248-14.523,14.284-14.576
			c0.822-0.042,1.666-0.064,2.512-0.064c10.342,0,18.972,3.201,19.062,3.23l0.792,0.298l0.808-0.256
			c13.155-4.077,19.159-5.94,21.224-5.94c0.405,0,0.405,0,1.083,0.578c0.215,0.178,0.452,0.375,0.713,0.589
			c6.441,5.065,14.41,11.415,14.492,11.474l0.549,0.441l0.697,0.077c0.093,0.012,9.188,1.083,14.562,1.577
			c2.689,0.239,5.119,0.447,7.593,0.447C191.519,187.377,194.739,186.752,197.196,185.461z M197.25,163.221
			c-2.243,7.177-4.885,13.534-7.827,19.145c-0.648,0.042-1.333,0.072-2.066,0.072c-2.267,0-4.583-0.197-7.147-0.428
			c-4.447-0.411-11.504-1.214-13.73-1.475c-1.924-1.53-8.493-6.75-13.958-11.052c-0.213-0.174-0.398-0.333-0.583-0.481
			c-0.958-0.817-2.052-1.746-4.273-1.746c-2.011,0-4.951,0.738-12.058,2.887c3.696-2.76,3.72-6.326,3.72-6.326
			s-5.266,4.887-13.748,5.983c-8.48,1.088-15.14-4.12-15.14-4.12c0.28,0.905,0.672,2.952,2.594,4.696
			c-2.259-0.267-4.701-0.452-7.254-0.452c-0.928,0-1.864,0.028-2.762,0.07c-5.22,0.273-12.565,8.16-17.724,16.111
			c-2.529,0.803-10.451,3.315-19.609,6.017c-8.553-11.849-12.76-23.955-13.183-25.21l0.007-0.006
			c-0.174-0.481-0.351-0.964-0.506-1.458l2.196,1.535v0.013l5.433,3.802l1.814,1.263c0.274,0.195,0.596,0.291,0.917,0.291
			c0.114,0,0.232-0.011,0.351-0.034l49.933-11.119c0.56-0.123,1.012-0.541,1.178-1.088l7.119-23.442
			c1.225-0.167,2.308-0.252,3.239-0.252c0.915,0,2.005,0.084,3.231,0.252l7.332,24.139c0.185,0.611,0.715,1.052,1.346,1.124
			l3.41,0.388l46.842,5.326c0.383,0.042,0.775-0.059,1.096-0.28l4.708-3.298l4.344-3.048l1.614-1.13
			C197.846,161.006,197.553,162.119,197.25,163.221z M186.103,164.398l-48.607-5.528l-7.319-24.091
			c-0.173-0.591-0.667-1.025-1.274-1.121c-1.804-0.291-3.393-0.439-4.719-0.439c-1.341,0-2.923,0.148-4.732,0.439
			c-0.602,0.095-1.094,0.53-1.274,1.121l-7.136,23.508l-48.338,10.754l-19.159-13.422l-3.772-30.542
			c0.821-0.464,1.655-0.928,2.499-1.394c1.191-0.248,2.524-0.522,4-0.808l3.553,28.823c0.059,0.452,0.303,0.856,0.672,1.113
			l13.183,9.23c0.268,0.192,0.589,0.288,0.91,0.288c0.12,0,0.226-0.012,0.351-0.038l39.744-8.842
			c0.138-0.031,0.274-0.078,0.394-0.144c0.374-0.195,0.659-0.536,0.785-0.945l7.16-23.567c1.916-0.495,6.833-1.644,11.161-1.644
			c4.308,0,9.229,1.149,11.147,1.644l7.158,23.567c0.185,0.606,0.715,1.047,1.352,1.119l39.744,4.517
			c0.381,0.042,0.779-0.059,1.089-0.28l13.188-9.224c0.357-0.252,0.595-0.65,0.661-1.085l3.516-24.627
			c2.644,0.506,4.857,0.969,6.588,1.344l-3.892,27.218L186.103,164.398z M215.528,132.783c0.59,0.477,1.047,1.727,0.523,7.534
			c-0.637,7.119-3.629,19.606-5.481,21.617c-2.041,0.394-6.326-0.078-8.938-0.685c0.447-1.791,0.577-2.655,0.94-4.487l4.572-3.198
			c0.362-0.255,0.607-0.649,0.667-1.083l3.195-22.376C212.945,131.16,214.938,132.289,215.528,132.783z M210.118,120.029
			c-6.994-1.541-22.365-4.57-43.285-6.606c6.837-2.916,13.795-6.57,20.152-11.141c12.451,1.763,21.592,3.645,26.556,4.768
			L210.118,120.029z M224.758,94.563c-0.422,3.096-0.993,6.173-1.834,9.143c-0.411,1.488-0.88,2.958-1.421,4.373
			c-0.274,0.716-0.571,1.411-0.881,2.091c-0.155,0.338-0.316,0.672-0.482,0.992l-0.191,0.375c-0.231,0.12-0.47,0.238-0.696,0.345
			l-1.388,0.661c-0.487,0.227-0.986,0.439-1.481,0.66l2.458-9.319c-0.572-0.155-5.939-1.547-15.159-3.255
			c0.286-0.059,0.572-0.127,0.852-0.191c1.916-0.475,3.802-1.06,5.636-1.797c0.904-0.386,1.804-0.803,2.654-1.286
			c0.851-0.488,1.69-1.041,2.338-1.778c-9.235,3.018-28.323,1.649-45.302-0.102c-15.509-1.602-31.073-2.636-46.708-2.672
			c-15.634,0.036-31.185,1.071-46.706,2.672c-16.969,1.75-36.055,3.119-45.292,0.102c0.649,0.738,1.489,1.291,2.34,1.778
			c0.85,0.483,1.749,0.9,2.654,1.286c1.826,0.738,3.72,1.322,5.63,1.797c0.672,0.161,1.362,0.309,2.041,0.434
			c-8.409,1.6-13.29,2.863-13.832,3.012l2.565,9.785c-0.041,0.041-0.089,0.089-0.143,0.131c-0.881-0.394-1.946-0.899-2.72-1.257
			l-1.387-0.661c-0.226-0.108-0.464-0.225-0.696-0.345l-0.197-0.375c-0.161-0.32-0.321-0.655-0.475-0.992
			c-0.31-0.68-0.608-1.375-0.876-2.091c-0.547-1.414-1.011-2.885-1.429-4.373c-0.838-2.969-1.404-6.047-1.832-9.143
			c-0.393-3.088-0.607-6.208-0.577-9.325c0.017-1.56,0.071-3.119,0.207-4.667c0.06-0.774,0.149-1.541,0.239-2.308
			c0.071-0.542,0.154-1.113,0.243-1.636c2.066-1.739,4.406-3.28,6.844-4.685c2.643-1.541,5.41-2.921,8.226-4.207
			c2.81-1.321,5.684-2.524,8.576-3.69c1.452-0.583,2.91-1.155,4.368-1.697c1.464-0.564,2.934-1.099,4.417-1.635
			c-3.102,0.511-6.172,1.219-9.22,1.999c-1.976,0.513-3.946,1.089-5.903,1.702C54.141,28.019,87.427,4.32,123.779,4.32
			c36.345,0,69.637,23.699,83.559,60.092c-1.951-0.613-3.929-1.189-5.911-1.702c-3.04-0.78-6.112-1.488-9.212-1.999
			c1.475,0.536,2.952,1.07,4.409,1.635c1.464,0.542,2.923,1.114,4.37,1.697c2.893,1.166,5.773,2.369,8.576,3.69
			c2.822,1.286,5.588,2.666,8.23,4.207c2.441,1.405,4.779,2.946,6.844,4.685c0.089,0.524,0.179,1.094,0.245,1.636
			c0.095,0.767,0.179,1.535,0.245,2.308c0.131,1.547,0.191,3.107,0.202,4.667C225.366,88.355,225.157,91.475,224.758,94.563z"/>
	</g>
</g>
</svg>
