<svg id="spain" xmlns="http://www.w3.org/2000/svg" viewBox="-496 375 30 20"><style>.st0{fill:#c42228}.st1{fill:#fbc215}.st2{fill:#aa1f24}.st3{fill:none;stroke:#c42228;stroke-width:.1;stroke-linecap:round;stroke-linejoin:round}.st4{fill:#c6b12e}.st5{fill:#fff}.st6{fill:#008c6e}.st7{fill:#295faa}.st8{fill:#cbcaca}.st10,.st11,.st12,.st13,.st14,.st9{fill:#aa1f24;stroke:#c42228;stroke-width:.1;stroke-linecap:round;stroke-linejoin:round}.st10,.st11,.st12,.st13,.st14{fill:#c6b12e}.st11,.st12,.st13,.st14{fill:#fff}.st12,.st13,.st14{fill:#008c6e}.st13,.st14{fill:#295faa}.st14{fill:#c4b32f}.st15{fill:none;stroke:#c6b12e;stroke-width:.26}.st16{fill:#da4446}.st17,.st18{fill:#e972a6;stroke:#c42228;stroke-width:.1;stroke-linecap:round;stroke-linejoin:round}.st18{fill:#ffd48f}.st19{fill:#3c57a5}</style><path class="st0" d="M-493.6 376.6h25.5v17h-25.5z"/><path class="st1" d="M-493.6 380.9h25.5v8.5h-25.5z"/><path class="st2" d="M-487.9 384.2s0-.1 0 0l-.1-.1v-.1-.1h.3c0 .3-.2.3-.2.3"/><path class="st3" d="M-487.9 384.2s0-.1 0 0l-.1-.1v-.1-.1h.3c0 .3-.2.3-.2.3z"/><path class="st4" d="M-487.6 384c0-.1 0-.1 0 0 0-.1.1-.1 0 0 .1 0 0 0 0 0"/><path class="st3" d="M-487.6 384c0-.1 0-.1 0 0 0-.1.1-.1 0 0 .1 0 0 0 0 0z"/><path class="st4" d="M-487.6 384c0-.1 0-.1 0 0 0-.1 0-.1 0 0"/><path class="st3" d="M-487.6 384c0-.1 0-.1 0 0 0-.1 0-.1 0 0z"/><path class="st4" d="M-487.6 383.9s0-.1 0 0c0-.1 0 0 0 0M-487.6 383.9"/><path class="st3" d="M-487.6 383.9"/><path class="st4" d="M-487.6 383.9"/><path class="st3" d="M-487.6 383.8s0 .1 0 0c0 .1 0 .1 0 0 0 .1 0 .1 0 0 0 .1 0 0 0 0"/><path class="st4" d="M-487.6 384.2h-.2v-.1c0-.1-.1-.1-.1-.1s.1 0 .2.1l.1.1.1-.1c.1-.1.1-.2.2-.1 0 0-.1 0-.1.1v.1h-.2"/><path class="st3" d="M-487.6 384.2h-.2v-.1c0-.1-.1-.1-.1-.1s.1 0 .2.1l.1.1.1-.1c.1-.1.1-.2.2-.1 0 0-.1 0-.1.1v.1h-.2z"/><path class="st3" d="M-487.9 384s.1 0 .2.1m.4-.1s-.1 0-.2.1"/><path class="st4" d="M-487.8 384.3c0-.1-.1-.1 0 0 0-.1.1-.1.2-.1h.3-.2c-.2 0-.3.1-.3.1"/><path class="st3" d="M-487.8 384.3c0-.1-.1-.1 0 0 0-.1.1-.1.2-.1h.3-.2c-.2 0-.3.1-.3.1"/><path class="st4" d="M-487.6 384.3h.2s-.1-.1-.2 0c-.1-.1-.2-.1-.2-.1 0 .1.1.1.2.1"/><path class="st3" d="M-487.6 384.3h.2s-.1-.1-.2 0c-.1-.1-.2-.1-.2-.1 0 .1.1.1.2.1z"/><path class="st4" d="M-487.3 384.2s-.1 0 0 0c-.1 0-.1-.1 0 0h-.1H-487.3"/><path class="st3" d="M-487.3 384.2s-.1 0 0 0c-.1 0-.1-.1 0 0h-.1H-487.3z"/><path class="st4" d="M-487.6 384.1c.1 0 .1 0 0 0 .1 0 .1 0 0 0 .1 0 .1.1.1.1l-.1-.1c.1.1.1.1 0 0 0 .1 0 .1 0 0 0 .1 0 .1 0 0-.1.1-.1.1 0 0l-.1.1c0-.1 0-.1.1-.1-.1 0-.1 0 0 0-.1 0-.1 0 0 0"/><path class="st3" d="M-487.6 384.1c.1 0 .1 0 0 0 .1 0 .1 0 0 0 .1 0 .1.1.1.1l-.1-.1c.1.1.1.1 0 0 0 .1 0 .1 0 0 0 .1 0 .1 0 0-.1.1-.1.1 0 0l-.1.1c0-.1 0-.1.1-.1-.1 0-.1 0 0 0-.1 0-.1 0 0 0z"/><path class="st4" d="M-487.6 384.2h-.3.6-.3"/><path class="st3" d="M-487.6 384.2h-.3.6-.3z"/><path class="st5" d="M-487.7 384.2"/><path class="st3" d="M-487.7 384.2z"/><path class="st2" d="M-487.6 384.2s.1 0 0 0c.1 0 0 0 0 0"/><path class="st3" d="M-487.6 384.2s.1 0 0 0c.1 0 0 0 0 0"/><path class="st6" d="M-487.8 384.2c.1 0 .1 0 0 0 .1 0 .1 0 0 0"/><path class="st3" d="M-487.8 384.2c.1 0 .1 0 0 0 .1 0 .1 0 0 0"/><path class="st2" d="M-487.9 384.3"/><path class="st3" d="M-487.9 384.3"/><path class="st5" d="M-487.5 384.2"/><path class="st3" d="M-487.5 384.2z"/><path class="st6" d="M-487.4 384.2c-.1 0-.1 0 0 0-.1 0-.1 0 0 0"/><path class="st3" d="M-487.4 384.2c-.1 0-.1 0 0 0-.1 0-.1 0 0 0"/><path class="st2" d="M-487.3 384.3"/><path class="st3" d="M-487.3 384.3"/><path class="st2" d="M-487.6 384.3h-.2.2"/><path class="st3" d="M-487.6 384.3h-.2.2z"/><path class="st4" d="M-487.3 384.1c-.1 0-.1 0 0 0"/><path class="st3" d="M-487.3 384.1c-.1 0-.1 0 0 0z"/><path class="st4" d="M-487.5 384.1"/><path class="st3" d="M-487.5 384.1z"/><path class="st4" d="M-487.7 384.1"/><path class="st3" d="M-487.7 384.1z"/><path class="st4" d="M-487.9 384.1c.1 0 .1 0 0 0 .1 0 .1 0 0 0 .1 0 0 0 0 0"/><path class="st3" d="M-487.9 384.1c.1 0 .1 0 0 0 .1 0 .1 0 0 0 .1 0 0 0 0 0z"/><path class="st4" d="M-487.6 384"/><path class="st3" d="M-487.6 384"/><path class="st4" d="M-487.7 384.1"/><path class="st3" d="M-487.7 384.1"/><path class="st4" d="M-487.5 384.1"/><path class="st3" d="M-487.5 384.1"/><path class="st4" d="M-487.8 384"/><path class="st3" d="M-487.8 384"/><path class="st4" d="M-487.8 384.1"/><path class="st3" d="M-487.8 384.1"/><path class="st4" d="M-487.7 384.1"/><path class="st3" d="M-487.7 384.1"/><path class="st4" d="M-487.9 384.1"/><path class="st3" d="M-487.9 384.1"/><path class="st4" d="M-487.8 384.1"/><path class="st3" d="M-487.8 384.1z"/><path class="st4" d="M-487.4 384"/><path class="st3" d="M-487.4 384"/><path class="st4" d="M-487.4 384.1"/><path class="st3" d="M-487.4 384.1"/><path class="st4" d="M-487.5 384.1"/><path class="st3" d="M-487.5 384.1"/><path class="st4" d="M-487.3 384.1"/><path class="st3" d="M-487.3 384.1"/><path class="st4" d="M-487.6 384.1"/><path class="st3" d="M-487.6 384.1z"/><path class="st4" d="M-487.4 384.1"/><path class="st3" d="M-487.4 384.1z"/><path class="st4" d="M-487.9 384.1s-.1 0 0 0c-.1 0-.1 0 0 0-.1 0-.1 0 0 0-.1 0-.1 0 0 0-.1 0 0 0 0 0"/><path class="st3" d="M-487.9 384.1s-.1 0 0 0c-.1 0-.1 0 0 0-.1 0-.1 0 0 0-.1 0-.1 0 0 0-.1 0 0 0 0 0z"/><path class="st4" d="M-487.9 384.1c0 .1 0 .1 0 0"/><path class="st3" d="M-487.9 384.1c0 .1 0 .1 0 0z"/><path class="st4" d="M-487.3 384.1s.1 0 0 0c.1 0 .1 0 0 0 .1 0 .1 0 0 0 .1 0 .1 0 0 0 .1 0 0 0 0 0"/><path class="st3" d="M-487.3 384.1s.1 0 0 0c.1 0 .1 0 0 0 .1 0 .1 0 0 0 .1 0 .1 0 0 0 .1 0 0 0 0 0z"/><path class="st4" d="M-487.3 384.1c0 .1 0 .1 0 0 .1 0 .1 0 0 0"/><path class="st3" d="M-487.3 384.1c0 .1 0 .1 0 0 .1 0 .1 0 0 0z"/><path class="st4" d="M-488 384.5h.8v-.2h-.8v.2z"/><path class="st3" d="M-488 384.5h.8v-.2h-.8v.2z"/><path class="st4" d="M-487.9 384.7h.6-.6c0-.1 0-.1 0 0 0-.1 0-.1 0 0 0-.1 0 0 0 0"/><path class="st3" d="M-487.9 384.7h.6-.6c0-.1 0-.1 0 0 0-.1 0-.1 0 0 0-.1 0 0 0 0z"/><path class="st4" d="M-487.9 384.7h.6-.6"/><path class="st3" d="M-487.9 384.7h.6-.6z"/><path class="st4" d="M-487.9 384.5h.6-.6c0 .1 0 .1 0 0"/><path class="st3" d="M-487.9 384.5h.6-.6c0 .1 0 .1 0 0z"/><path class="st7" d="M-487.1 387.9h-.1-.2-.2-.2-.1v.1h.7c0-.1.1 0 .1-.1"/><path class="st3" d="M-487.1 387.9h-.1-.2-.2-.2-.1v.1h.7c0-.1.1 0 .1-.1z"/><path class="st8" d="M-487.1 388h-.1-.2-.2-.2-.1v.1h.7c0-.1.1-.1.1-.1"/><path class="st3" d="M-487.1 388h-.1-.2-.2-.2-.1v.1h.7c0-.1.1-.1.1-.1"/><path class="st7" d="M-487.1 388h-.1-.2-.2-.2-.1v.1h.7s.1 0 .1-.1"/><path class="st3" d="M-487.1 388h-.1-.2-.2-.2-.1v.1h.7s.1 0 .1-.1"/><path class="st8" d="M-487.1 388.2h-.1-.2-.2-.2-.1v-.1h.7s.1 0 .1.1"/><path class="st3" d="M-487.1 388.2h-.1-.2-.2-.2-.1v-.1h.7s.1 0 .1.1"/><path class="st7" d="M-487.1 388.3h-.1-.2-.2-.2-.1v-.1h.7s.1 0 .1.1"/><path class="st3" d="M-487.1 388.3h-.1-.2-.2-.2-.1v-.1h.7s.1 0 .1.1z"/><path class="st4" d="M-487.9 387.5c0 .1 0 .1-.1.1h.8c-.1 0-.1 0-.1-.1h-.6"/><path class="st3" d="M-487.9 387.5c0 .1 0 .1-.1.1h.8c-.1 0-.1 0-.1-.1h-.6z"/><path class="st4" d="M-487.9 387.5h.6-.6"/><path class="st3" d="M-487.9 387.5h.6-.6z"/><path class="st4" d="M-488 387.8h.8v-.2h-.8v.2z"/><path class="st3" d="M-488 387.8h.8v-.2h-.8v.2z"/><path class="st2" d="M-488 386.8c-.1 0-.1.1-.1.1l.1.1c.1 0 .1.1.1.1s.1-.1.1-.2c-.2 0-.2-.1-.2-.1"/><path class="st3" d="M-488 386.8c-.1 0-.1.1-.1.1l.1.1c.1 0 .1.1.1.1s.1-.1.1-.2c-.2 0-.2-.1-.2-.1z"/><path class="st8" d="M-487.9 387.4h.6v-2.7h-.6v2.7z"/><path class="st3" d="M-487.5 384.7v2.7m.1-2.7v2.7M-487.9 387.4h.6v-2.7h-.6v2.7z"/><path class="st2" d="M-486.8 385.8c-.1 0-.3-.1-.6-.1h-.3c-.3.1-.6.2-.6.3l-.1-.3c0-.1.3-.3.6-.3h.3c.2 0 .4 0 .6.1l.1.3"/><path class="st3" d="M-486.8 385.8c-.1 0-.3-.1-.6-.1h-.3c-.3.1-.6.2-.6.3l-.1-.3c0-.1.3-.3.6-.3h.3c.2 0 .4 0 .6.1l.1.3"/><path class="st2" d="M-487.9 386.1c-.2 0-.3-.1-.3-.1 0-.1 0-.1.1-.2h.1l.1.3"/><path class="st3" d="M-487.9 386.1c-.2 0-.3-.1-.3-.1 0-.1 0-.1.1-.2h.1l.1.3"/><path class="st2" d="M-487.3 385.9c.1 0 .2 0 .2.1l-.2.2v-.3"/><path class="st3" d="M-487.3 385.9c.1 0 .2 0 .2.1l-.2.2v-.3"/><path class="st2" d="M-488.2 386.6s.1-.1.3-.2c.1 0 .2-.1.3-.1.3-.1.5-.3.5-.3v.3s-.2.2-.4.3c-.1 0-.3.1-.4.1-.2.1-.3.2-.3.2v-.3"/><path class="st3" d="M-488.2 386.6s.1-.1.3-.2c.1 0 .2-.1.3-.1.3-.1.5-.3.5-.3v.3s-.2.2-.4.3c-.1 0-.3.1-.4.1-.2.1-.3.2-.3.2v-.3z"/><path class="st4" d="M-487.9 385.6c.1 0 .1-.1.1-.1h-.2l.1.2v-.1c0 .1 0 .1 0 0zm0-.1c0 .1 0 .1 0 0 0 .1 0 .1 0 0M-487.7 385.4s0 .1 0 0v.2h0v-.2M-487.4 385.6c0-.1.1-.2.1-.2-.1.1-.1.1-.1.2 0-.1-.1-.2-.1-.2 0 .1 0 .2.1.2M-487.1 385.5c0-.1 0-.1 0 0 0-.1 0-.1 0 0-.1-.1-.1 0-.1 0 0 .1.1.1.1.1h-.1-.1.1c.1 0 .1 0 .1-.1 0 0-.1 0 0 0-.1-.1-.1-.1 0 0 0-.1 0-.1 0 0"/><path class="st2" d="M-482.5 384.1c-.1.1-.1 0 0 0h-.1l.1-.1h.6s.1 0 .1.1c-.6.1-.6 0-.7 0 .1 0 0 .1 0 0"/><path class="st3" d="M-482.5 384.1c-.1.1-.1 0 0 0h-.1l.1-.1h.6s.1 0 .1.1c-.6.1-.6 0-.7 0 .1 0 0 .1 0 0z"/><path class="st4" d="M-482.6 384c0-.1.1-.1 0 0 .1-.1.1-.1 0 0 .1 0 .1 0 0 0 .1 0 0 0 0 0"/><path class="st3" d="M-482.6 384c0-.1.1-.1 0 0 .1-.1.1-.1 0 0 .1 0 .1 0 0 0 .1 0 0 0 0 0z"/><path class="st4" d="M-482.5 384c0-.1 0-.1 0 0 0-.1 0-.1 0 0"/><path class="st3" d="M-482.5 384c0-.1 0-.1 0 0 0-.1 0-.1 0 0z"/><path class="st4" d="M-482.8 384.3c0-.1 0-.1 0 0 0-.1.1-.1.2-.1h.3-.2c-.1 0-.2.1-.3.1"/><path class="st3" d="M-482.8 384.3c0-.1 0-.1 0 0 0-.1.1-.1.2-.1h.3-.2c-.1 0-.2.1-.3.1"/><path class="st4" d="M-482.5 384.3h.2s-.1-.1-.2 0c-.1-.1-.2-.1-.2-.1 0 .1.1.1.2.1"/><path class="st3" d="M-482.5 384.3h.2s-.1-.1-.2 0c-.1-.1-.2-.1-.2-.1 0 .1.1.1.2.1z"/><path class="st5" d="M-482.3 384"/><path class="st3" d="M-482.3 384zM-482.3 384c0-.1 0-.1 0 0 0-.1 0-.1 0 0zm-.1-.1c.1 0 .1 0 0 0 .1 0 .1 0 0 0zm0 0zm-.1 0c.1 0 .1 0 0 0 .1 0 .1 0 0 0zM-482.2 384.1c0-.1 0-.1-.1-.1M-482.3 384c0-.1 0-.1-.1-.1h-.1M-482.2 384.1s.1-.1 0 0c.1-.1.1 0 0 0 .1 0 .1 0 0 0 .1 0 0 0 0 0zm0-.1c.1 0 .1 0 0 0 .1 0 .1 0 0 0 .1 0 0 0 0 0zm0 0zm0-.1c0 .1 0 .1 0 0 0 .1 0 .1 0 0zm-.1 0c0 .1 0 .1 0 0 0 .1 0 .1 0 0z"/><path class="st4" d="M-482.3 384.2s-.1-.1 0 0h-.1.3-.2"/><path class="st3" d="M-482.3 384.2s-.1-.1 0 0h-.1.3-.2z"/><path class="st5" d="M-482.8 384s.1 0 0 0c.1 0 .1 0 0 0 .1 0 .1 0 0 0 .1 0 0 0 0 0"/><path class="st3" d="M-482.8 384s.1 0 0 0c.1 0 .1 0 0 0 .1 0 .1 0 0 0 .1 0 0 0 0 0zM-482.7 384c0-.1 0-.1 0 0 0-.1 0-.1 0 0zm0-.1zm0 0c.1 0 .1 0 0 0 .1 0 .1 0 0 0zm.1 0zM-482.9 384.1c0-.1 0-.1.1-.1M-482.7 384s0-.1 0 0l.1-.1M-482.9 384.1s0-.1 0 0c0-.1 0 0 0 0zm0-.1zm0 0s.1 0 0 0c.1 0 0 0 0 0zm.1-.1c0 .1 0 .1 0 0 0 .1 0 .1 0 0zm0 0c0 .1 0 .1 0 0 0 .1 0 .1 0 0z"/><path class="st4" d="M-482.5 384.1s.1 0 0 0c.1 0 .1 0 0 0 .1 0 .1.1.1.1l-.1-.1c.1.1 0 .1 0 0 0 .1 0 .1 0 0 0 .1 0 .1 0 0-.1.1-.1.1 0 0l-.1.1c0-.1 0-.1.1-.1-.1 0-.1 0 0 0"/><path class="st3" d="M-482.5 384.1s.1 0 0 0c.1 0 .1 0 0 0 .1 0 .1.1.1.1l-.1-.1c.1.1 0 .1 0 0 0 .1 0 .1 0 0 0 .1 0 .1 0 0-.1.1-.1.1 0 0l-.1.1c0-.1 0-.1.1-.1-.1 0-.1 0 0 0z"/><path class="st4" d="M-482.5 384.2h-.3.6-.3"/><path class="st3" d="M-482.5 384.2h-.3.6-.3z"/><path class="st5" d="M-482.6 384.2"/><path class="st3" d="M-482.6 384.2z"/><path class="st2" d="M-482.5 384.2c-.1 0-.1 0 0 0-.1 0-.1 0 0 0"/><path class="st3" d="M-482.5 384.2c-.1 0-.1 0 0 0-.1 0-.1 0 0 0"/><path class="st6" d="M-482.7 384.2"/><path class="st3" d="M-482.7 384.2"/><path class="st2" d="M-482.8 384.3"/><path class="st3" d="M-482.8 384.3"/><path class="st5" d="M-482.5 384.2s.1 0 0 0c.1 0 .1 0 0 0 .1 0 .1 0 0 0 .1 0 0 0 0 0"/><path class="st3" d="M-482.5 384.2s.1 0 0 0c.1 0 .1 0 0 0 .1 0 .1 0 0 0 .1 0 0 0 0 0z"/><path class="st6" d="M-482.4 384.2c.1 0 .1 0 0 0 .1 0 .1 0 0 0"/><path class="st3" d="M-482.4 384.2c.1 0 .1 0 0 0 .1 0 .1 0 0 0"/><path class="st2" d="M-482.3 384.3"/><path class="st3" d="M-482.3 384.3"/><path class="st2" d="M-482.5 384.3h-.2.4-.2"/><path class="st3" d="M-482.5 384.3h-.2.4-.2z"/><path class="st4" d="M-482.3 384.1"/><path class="st3" d="M-482.3 384.1z"/><path class="st4" d="M-482.4 384.1"/><path class="st3" d="M-482.4 384.1z"/><path class="st4" d="M-482.6 384.1"/><path class="st3" d="M-482.6 384.1z"/><path class="st4" d="M-482.8 384.1"/><path class="st3" d="M-482.8 384.1z"/><path class="st4" d="M-482.5 384"/><path class="st3" d="M-482.5 384"/><path class="st4" d="M-482.6 384.1"/><path class="st3" d="M-482.6 384.1"/><path class="st4" d="M-482.5 384.1"/><path class="st3" d="M-482.5 384.1"/><path class="st4" d="M-482.7 384"/><path class="st3" d="M-482.7 384"/><path class="st4" d="M-482.8 384.1"/><path class="st3" d="M-482.8 384.1"/><path class="st4" d="M-482.6 384.1"/><path class="st3" d="M-482.6 384.1"/><path class="st4" d="M-482.8 384.1"/><path class="st3" d="M-482.8 384.1"/><path class="st4" d="M-482.7 384.1"/><path class="st3" d="M-482.7 384.1z"/><path class="st4" d="M-482.3 384"/><path class="st3" d="M-482.3 384"/><path class="st4" d="M-482.3 384.1"/><path class="st3" d="M-482.3 384.1"/><path class="st4" d="M-482.4 384.1"/><path class="st3" d="M-482.4 384.1"/><path class="st4" d="M-482.2 384.1"/><path class="st3" d="M-482.2 384.1"/><path class="st4" d="M-482.5 384.1"/><path class="st3" d="M-482.5 384.1z"/><path class="st4" d="M-482.4 384.1c.1 0 .1 0 0 0 .1 0 .1 0 0 0 .1 0 0 0 0 0"/><path class="st3" d="M-482.4 384.1c.1 0 .1 0 0 0 .1 0 .1 0 0 0 .1 0 0 0 0 0z"/><path class="st4" d="M-482.6 383.9s.1 0 0 0c.1 0 .1 0 0 0 .1 0 .1 0 0 0 .1 0 0 0 0 0M-482.5 383.9"/><path class="st3" d="M-482.5 383.9z"/><path class="st4" d="M-482.5 383.9"/><path class="st3" d="M-482.5 383.9s-.1 0 0 0c-.1 0 0 0 0 0"/><path class="st4" d="M-482.9 384.1"/><path class="st3" d="M-482.9 384.1z"/><path class="st4" d="M-482.9 384.1c.1 0 .1 0 0 0 0 .1 0 .1 0 0"/><path class="st3" d="M-482.9 384.1c.1 0 .1 0 0 0 0 .1 0 .1 0 0z"/><path class="st4" d="M-482.2 384.1s.1 0 0 0c.1 0 .1 0 0 0"/><path class="st3" d="M-482.2 384.1s.1 0 0 0c.1 0 .1 0 0 0z"/><path class="st4" d="M-482.2 384.1c0 .1 0 .1 0 0"/><path class="st3" d="M-482.2 384.1c0 .1 0 .1 0 0z"/><path class="st4" d="M-482.9 384.5h.8v-.2h-.8v.2z"/><path class="st3" d="M-482.9 384.5h.8v-.2h-.8v.2z"/><path class="st4" d="M-482.2 384.7h-.6.6c0-.1 0-.1 0 0 0-.1-.1-.1 0 0-.1-.1 0 0 0 0"/><path class="st3" d="M-482.2 384.7h-.6.6c0-.1 0-.1 0 0 0-.1-.1-.1 0 0-.1-.1 0 0 0 0z"/><path class="st4" d="M-482.8 384.7h.6-.6"/><path class="st3" d="M-482.8 384.7h.6-.6z"/><path class="st4" d="M-482.8 384.5h.6-.6c0 .1 0 .1 0 0"/><path class="st3" d="M-482.8 384.5h.6-.6c0 .1 0 .1 0 0z"/><path class="st7" d="M-483.1 387.9H-482.3v.1h-.1-.1-.1-.2-.2c0-.1 0 0-.1-.1"/><path class="st3" d="M-483.1 387.9H-482.3v.1h-.1-.1-.1-.2-.2c0-.1 0 0-.1-.1z"/><path class="st8" d="M-483.1 388H-482.3v.1h-.1-.1-.1-.2-.2c0-.1 0-.1-.1-.1"/><path class="st3" d="M-483.1 388H-482.3v.1h-.1-.1-.1-.2-.2c0-.1 0-.1-.1-.1"/><path class="st7" d="M-483.1 388H-482.3v.1h-.1-.1-.1-.2-.2l-.1-.1"/><path class="st3" d="M-483.1 388H-482.3v.1h-.1-.1-.1-.2-.2l-.1-.1"/><path class="st8" d="M-483 388.2H-482.2v-.1h-.1-.1-.1-.2-.2c-.1 0-.1 0-.1.1"/><path class="st3" d="M-483 388.2H-482.2v-.1h-.1-.1-.1-.2-.2c-.1 0-.1 0-.1.1"/><path class="st7" d="M-483 388.3H-482.2v-.1h-.1-.1-.1-.2-.2c-.1 0-.1 0-.1.1"/><path class="st3" d="M-483 388.3H-482.2v-.1h-.1-.1-.1-.2-.2c-.1 0-.1 0-.1.1z"/><path class="st4" d="M-482.2 387.5c0 .1 0 .1.1.1h-.8c.1 0 .1 0 .1-.1h.6"/><path class="st3" d="M-482.2 387.5c0 .1 0 .1.1.1h-.8c.1 0 .1 0 .1-.1h.6z"/><path class="st4" d="M-482.8 387.5h.6-.6"/><path class="st3" d="M-482.8 387.5h.6-.6z"/><path class="st4" d="M-482.9 387.8h.8v-.2h-.8v.2z"/><path class="st3" d="M-482.9 387.8h.8v-.2h-.8v.2z"/><path class="st2" d="M-482.1 386.8c.1 0 .1.1.1.1l-.1.1c-.1 0-.1.1-.1.1s-.1-.1-.1-.2c.1 0 .2-.1.2-.1"/><path class="st3" d="M-482.1 386.8c.1 0 .1.1.1.1l-.1.1c-.1 0-.1.1-.1.1s-.1-.1-.1-.2c.1 0 .2-.1.2-.1z"/><path class="st8" d="M-482.8 387.4h.6v-2.7h-.6v2.7z"/><path class="st3" d="M-482.4 384.7v2.7m.1-2.7v2.7M-482.8 387.4h.6v-2.7h-.6v2.7z"/><path class="st2" d="M-483.4 385.8c.1 0 .3-.1.6-.1h.3c.3.1.6.2.6.3l.1-.3c0-.1-.3-.3-.6-.3h-.3c-.2 0-.4 0-.6.1l-.1.3"/><path class="st3" d="M-483.4 385.8c.1 0 .3-.1.6-.1h.3c.3.1.6.2.6.3l.1-.3c0-.1-.3-.3-.6-.3h-.3c-.2 0-.4 0-.6.1l-.1.3"/><path class="st2" d="M-482.2 386.1c.2 0 .3-.1.3-.1 0-.1 0-.1-.1-.2h-.1l-.1.3"/><path class="st3" d="M-482.2 386.1c.2 0 .3-.1.3-.1 0-.1 0-.1-.1-.2h-.1l-.1.3"/><path class="st2" d="M-482.8 385.9c-.1 0-.2 0-.2.1l.2.2v-.3"/><path class="st3" d="M-482.8 385.9c-.1 0-.2 0-.2.1l.2.2v-.3"/><path class="st2" d="M-481.9 386.6s-.1-.1-.3-.2c-.1 0-.2-.1-.3-.1-.3-.1-.5-.3-.5-.3v.3s.2.2.4.3c.1 0 .3.1.4.1.2.1.3.2.3.2v-.3"/><path class="st3" d="M-481.9 386.6s-.1-.1-.3-.2c-.1 0-.2-.1-.3-.1-.3-.1-.5-.3-.5-.3v.3s.2.2.4.3c.1 0 .3.1.4.1.2.1.3.2.3.2v-.3z"/><path class="st4" d="M-483 385.6c0-.1 0-.2.1-.2-.1.1-.1.1-.1.2 0-.1-.1-.2-.1-.2 0 .1 0 .2.1.2M-482.8 385.4s-.1 0 0 0l-.1.2h.1v-.2M-482.6 385.4c.1 0 .1 0 0 0 .1 0 .1 0 0 0 .1 0 .1 0 0 0h-.1.1l-.1.2.1-.2M-482.5 385.7c.1 0 .1 0 0 0 .1-.1.1-.1.1 0v0h.1v-.1h-.2v.1m.1-.2s.1 0 0 0c.1 0 .1 0 0 0 .1.1 0 .1 0 0M-482.1 385.7s0 .1 0 0c0 .1 0 .1 0 0v.1-.2l-.2.1h.2zm-.1 0"/><path class="st3" d="M-485.9 383.4c.1-.1.1 0 .1 0 0 .1 0 .1-.1 0 0 .1 0 .1 0 0z"/><path class="st9" d="M-485.1 382.8c.2 0 .4 0 .6.1.1 0 .2.1.3.1h.2c.1 0 .2 0 .4.1.1 0 .2.1.3.2h-.1v.1l-.1.2-.1.1-.2.1h-.1v.1l-1.1-.1-1.1.1v-.1h-.1l-.2-.1-.1-.1-.1-.2v-.1h-.1c.1-.1.2-.1.3-.2.1-.1.3-.1.4-.1h.2c.1 0 .2 0 .3-.1 0 0 .2-.1.4-.1z"/><path class="st10" d="M-485.1 384.3c-.4 0-.8 0-1.1-.1.3-.1.6-.1 1.1-.1.4 0 .8 0 1.1.1-.3.1-.6.1-1.1.1"/><path class="st2" d="M-485.1 384.3c-.4 0-.7 0-1-.1.3-.1.6-.1 1-.1s.7 0 1 .1c-.2 0-.6.1-1 .1"/><path class="st3" d="M-485 384.3v-.3M-485.1 384.3v-.3M-485.2 384.3v-.3M-485.2 384.3v-.3M-485.3 384.3v-.3M-485.4 384.3v-.2m.1.2v-.3M-485.4 384.2v-.2m0 .2v-.2M-485.6 384.2v-.2m.1.2v-.2m0 .2v-.2M-485.6 384.2v-.2M-485.6 384.2v-.1M-485.7 384.2v-.1M-485.8 384.2v-.1m.1.1v-.1M-484.8 384.3v-.3m-.1.3v-.2m-.1.2v-.3"/><path class="st10" d="M-485.1 384c-.4 0-.8.1-1.1.1v-.1c0-.1-.1-.1-.1-.1.3-.1.7-.1 1.2-.1s.9.1 1.2.1c0 0-.1 0-.1.1v.1c-.3-.1-.6-.1-1.1-.1"/><path class="st10" d="M-485.1 383.8c-.5 0-.9.1-1.2.1.3-.1.8-.2 1.2-.1.5-.1.9 0 1.2.1-.3-.1-.7-.1-1.2-.1"/><path class="st3" d="M-485.1 384.3c-.4 0-.7 0-1-.1.3-.1.6-.1 1-.1s.7 0 1 .1c-.2 0-.6.1-1 .1z"/><path class="st11" d="M-485.4 383.9s0-.1 0 0c.1-.1.1 0 0 0 .1 0 .1 0 0 0"/><path class="st9" d="M-485.1 383.9h-.1.2-.1"/><path class="st12" d="M-485.6 383.9h-.1.1c.1-.1.1-.1.1 0s0 0-.1 0"/><path class="st11" d="M-485.9 383.9c0 .1 0 .1 0 0 0 .1 0 .1 0 0"/><path class="st9" d="M-486.2 384h.2-.2"/><path class="st12" d="M-484.5 383.9h0c-.1-.1-.1-.1-.1 0h.1"/><path class="st11" d="M-484.8 383.9s0-.1 0 0c0-.1.1 0 0 0 .1 0 0 0 0 0M-484.2 383.9c0 .1 0 .1 0 0 0 .1 0 .1 0 0"/><path class="st9" d="M-483.9 384h-.2.2"/><path class="st3" d="M-486.1 384.2c.3-.1.6-.1 1-.1s.8 0 1 .1"/><path class="st4" d="M-485.9 383.1l.1-.1c-.1 0-.1-.1-.1-.2s.2-.3.4-.3c.1 0 .2 0 .3.1v-.1c-.1 0-.2-.1-.3-.1-.3 0-.5.1-.5.3 0 .2.1.3.1.4"/><path class="st3" d="M-485.9 383.1l.1-.1c-.1 0-.1-.1-.1-.2s.2-.3.4-.3c.1 0 .2 0 .3.1v-.1c-.1 0-.2-.1-.3-.1-.3 0-.5.1-.5.3 0 .2.1.3.1.4"/><path class="st4" d="M-485.9 383.1c-.1-.1-.1-.2-.1-.3 0-.1.1-.2.2-.3-.1.1-.1.1-.1.2-.1.2 0 .3 0 .4"/><path class="st3" d="M-485.9 383.1c-.1-.1-.1-.2-.1-.3 0-.1.1-.2.2-.3-.1.1-.1.1-.1.2-.1.2 0 .3 0 .4"/><path class="st4" d="M-486.7 383.3c-.1-.1-.1-.1-.1-.2v-.1c.1-.1.3-.3.6-.3h.2v.1h-.2c-.2 0-.5.1-.5.2v.4-.1"/><path class="st3" d="M-486.7 383.3c-.1-.1-.1-.1-.1-.2v-.1c.1-.1.3-.3.6-.3h.2v.1h-.2c-.2 0-.5.1-.5.2v.4-.1z"/><path class="st4" d="M-486.6 382.8c-.1 0-.1.1-.1.1v.1c0 .1 0 .2.1.2l-.1.1c-.1-.1-.1-.1-.1-.2s.1-.3.2-.3"/><path class="st3" d="M-486.6 382.8c-.1 0-.1.1-.1.1v.1c0 .1 0 .2.1.2l-.1.1c-.1-.1-.1-.1-.1-.2s.1-.3.2-.3z"/><path class="st4" d="M-485.1 382.4c.1 0 .1 0 .1.1v.5l-.2.2-.2-.2v-.3-.2c.2 0 .3-.1.3-.1"/><path class="st3" d="M-485.1 382.4c.1 0 .1 0 .1.1v.5l-.2.2-.2-.2v-.3-.2c.2 0 .3-.1.3-.1z"/><path class="st4" d="M-485.1 382.5c.1 0 .1 0 0 0 .1.1.1.1.1.2v.3l-.1.1-.1-.1v-.3c.1-.1.1-.1.1-.2"/><path class="st3" d="M-485.1 382.5c.1 0 .1 0 0 0 .1.1.1.1.1.2v.3l-.1.1-.1-.1v-.3c.1-.1.1-.1.1-.2z"/><path class="st4" d="M-484.2 383.1l-.1-.1c.1 0 .1-.1.1-.2s-.2-.3-.4-.3c-.1 0-.2 0-.3.1v-.1c.1 0 .2-.1.3-.1.3 0 .5.1.5.3-.1.2-.1.3-.1.4"/><path class="st3" d="M-484.2 383.1l-.1-.1c.1 0 .1-.1.1-.2s-.2-.3-.4-.3c-.1 0-.2 0-.3.1v-.1c.1 0 .2-.1.3-.1.3 0 .5.1.5.3-.1.2-.1.3-.1.4"/><path class="st4" d="M-484.2 383.1c.1-.1.1-.2.1-.3 0-.1-.1-.2-.2-.3.1.1.1.1.1.2v.4"/><path class="st3" d="M-484.2 383.1c.1-.1.1-.2.1-.3 0-.1-.1-.2-.2-.3.1.1.1.1.1.2v.4"/><path class="st4" d="M-483.4 383.3c0-.1.1-.1.1-.2v-.1c-.1-.1-.3-.3-.6-.3h-.2v.1h.2c.2 0 .5.1.5.2v.1s-.1.1 0 .2v.1-.1"/><path class="st3" d="M-483.4 383.3c0-.1.1-.1.1-.2v-.1c-.1-.1-.3-.3-.6-.3h-.2v.1h.2c.2 0 .5.1.5.2v.1s-.1.1 0 .2v.1-.1z"/><path class="st4" d="M-483.5 382.8c.1 0 .1.1.1.1v.1c0 .1 0 .2-.1.2l.1.1c.1-.1.1-.1.1-.2s-.1-.3-.2-.3"/><path class="st3" d="M-483.5 382.8c.1 0 .1.1.1.1v.1c0 .1 0 .2-.1.2l.1.1c.1-.1.1-.1.1-.2s-.1-.3-.2-.3z"/><path class="st5" d="M-485.1 383c.1-.1.1 0 .1 0 0 .1 0 .1-.1 0 0 .1 0 .1 0 0"/><path class="st3" d="M-485.1 383c.1-.1.1 0 .1 0 0 .1 0 .1-.1 0 0 .1 0 .1 0 0z"/><path class="st11" d="M-485.1 382.9c.1-.1.1 0 .1 0 0 .1 0 .1-.1 0 0 .1 0 .1 0 0M-485.1 382.8h0M-485.1 382.7s0-.1 0 0c.1-.1.1 0 0 0 .1 0 .1 0 0 0M-485.1 382.6c.1 0 .1 0 0 0 .1 0 .1 0 0 0"/><path class="st10" d="M-485.1 383.4c.1 0 .1.1 0 0 0 .2.1.2.2.2s.1 0 .2-.1v-.1.1c0 .1.1.1.2.1s.2-.1.2-.2l.1-.1v.2c0 .1.1.2.2.2s.1 0 .1-.1v.1c0 .1 0 .1.1.1 0 0 .1 0 .1-.1l.1-.1v.1l-.1.1h-.1s-.1 0-.1-.1h-.1c-.1 0-.2-.1-.2-.1s-.1.1-.2.1-.1 0-.2-.1c0 0-.1.1-.2.1s-.2 0-.2-.1c0 .1-.1.1-.2.1s-.1 0-.2-.1c0 .1-.1.1-.2.1s-.1 0-.2-.1c0 .1-.1.1-.2.1h-.1l-.1.1h-.1c-.1 0-.1-.1-.1-.1v-.1s0 .1.1.1l.1.1c.1 0 .1-.1.1-.1v-.1l.1.1c.1 0 .2-.1.2-.2v-.2l.1.1c0 .1.1.2.2.2s.2-.1.2-.1v-.1.1c0 .1.1.1.2.1-.1 0 0 0 0-.2 0 .1 0 0 0 0"/><path class="st11" d="M-483.9 383.6c-.1 0-.1 0 0 0-.1 0-.1.1 0 0 0 .1 0 .1 0 0M-484.6 383.5s0-.1 0 0c-.1-.1-.1-.1 0 0-.1 0-.1 0 0 0-.1 0 0 0 0 0M-485.5 383.5s0-.1 0 0c.1-.1.1-.1 0 0 .1 0 .1 0 0 0M-486.2 383.6s.1 0 0 0c.1 0 .1.1 0 0 0 .1 0 .1 0 0"/><path class="st10" d="M-485.9 383.1l.1.1v.2h-.1v-.1-.2M-485.9 383.5c0-.1 0-.1 0 0 0-.1 0-.1-.1-.1h-.1s-.1 0-.1.1h.1c.1.1.2 0 .2 0"/><path class="st10" d="M-485.8 383.5s0-.1 0 0c0-.1 0-.1 0 0v-.1h.2l-.1.1h-.1"/><path class="st9" d="M-485.9 383.4c.1-.1.1 0 .1 0 0 .1 0 .1-.1 0 0 .1 0 .1 0 0"/><path class="st10" d="M-485.1 383l.1.1v.2h-.1-.1v-.1-.1c.1 0 .1 0 .1-.1"/><path class="st10" d="M-485.1 383.4s0-.1 0 0c0-.1 0-.1-.1-.1h-.1s-.1 0-.1.1l.1.1s.1 0 .2-.1M-485 383.4s0-.1 0 0c0-.1 0-.1.1-.1h.1s.1 0 .1.1l-.1.1c-.1 0-.1 0-.2-.1M-484.2 383.1l-.1.1v.2h.1v-.1-.2M-484.2 383.5c0-.1 0-.1 0 0 0-.1 0-.1.1-.1h.1s.1 0 .1.1h-.1c-.1.1-.2 0-.2 0M-484.3 383.5s-.1-.1 0 0c0-.1 0-.1 0 0v-.1h-.1-.1l.1.1h.1c-.1 0 0 0 0 0"/><path class="st9" d="M-484.4 383.4s.1 0 0 0c.1-.1.1 0 .1 0 .1.1.1.1-.1 0 .1.1 0 .1 0 0M-483.5 383.6c-.1 0-.1 0 0 0-.1 0-.2.1 0 0-.1.1-.1.1 0 0"/><path class="st10" d="M-483.6 383.6c.1-.1.1-.1.1 0 0 0 0-.1.1-.1h.1c0-.1 0-.1-.1-.1h-.1l-.1.1v.1c.1-.1 0-.1 0-.1s-.1 0-.1-.1h-.1s0 .1.1.1c-.1.1 0 .2.1.1-.1 0-.1 0 0 0M-486.5 383.6c-.1-.1-.1-.1-.1 0 0 0 0-.1-.1-.1h-.1c0-.1 0-.1.1-.1h.1l.1.1v.1c-.1-.1 0-.1 0-.1s.1 0 .1-.1h.1s0 .1-.1.1c.1.1 0 .2-.1.1.1 0 0 0 0 0"/><path class="st9" d="M-486.6 383.6s.1 0 0 0c.1 0 .1.1 0 0 .1.1.1.1 0 0M-485.1 383.4c0-.1 0-.1 0 0 .1-.1.1 0 .1 0h-.1"/><path class="st13" d="M-485.2 382.3c0-.1.1-.1.2-.1s.2.1.2.1-.1.1-.2.1c-.1.1-.2 0-.2-.1"/><path class="st10" d="M-485.1 381.9l-.1.2h.1v.2h-.1v.1h.3v-.1h-.1v-.2h.1v-.1l-.2-.1z"/><path class="st8" d="M-485.1 388.3c-.4 0-.9-.1-1.3-.3-.3-.1-.5-.4-.5-.7v-1.1h3.4v1.1c0 .3-.2.6-.5.7-.2.2-.6.3-1.1.3"/><path class="st3" d="M-485.1 388.3c-.4 0-.9-.1-1.3-.3-.3-.1-.5-.4-.5-.7v-1.1h3.4v1.1c0 .3-.2.6-.5.7-.2.2-.6.3-1.1.3z"/><path class="st8" d="M-485.1 386.2h1.7v-1.9h-1.7v1.9z"/><path class="st3" d="M-485.1 386.2h1.7v-1.9h-1.7v1.9z"/><path class="st2" d="M-485.1 387.3c0 .4-.4.8-.9.8s-.9-.4-.9-.8v-1.1h1.7v1.1"/><path class="st10" d="M-486.4 388c.1 0 .1.1.2.1v-1.9h-.2v1.8zM-486.8 387.3c0 .2.1.4.2.5v-1.7h-.2v1.2z"/><path class="st14" d="M-486 388.1h.2v-2h-.2v2z"/><path class="st10" d="M-485.6 388.1c.1 0 .2-.1.2-.1v-1.8h-.2v1.9z"/><path class="st2" d="M-486.8 386.2h1.7v-1.9h-1.7v1.9z"/><path class="st3" d="M-486.8 386.2h1.7v-1.9h-1.7v1.9z"/><path class="st10" d="M-485.2 387.8c.1-.1.2-.2.2-.4v-1.2h-.2v1.6z"/><path class="st3" d="M-485.1 387.3c0 .4-.4.8-.9.8s-.9-.4-.9-.8v-1.1h1.7v1.1"/><path class="st2" d="M-483.3 386.2v1.1c0 .4-.4.8-.9.8s-.9-.4-.9-.8v-1.1h1.8"/><path class="st3" d="M-483.3 386.2v1.1c0 .4-.4.8-.9.8s-.9-.4-.9-.8v-1.1h1.8"/><path class="st4" d="M-484.7 387s0 .1 0 0c0 .1-.1.1 0 0-.1.1-.1.1 0 0-.1.1-.1 0 0 0h-.1s0 .1.1.1v.1h.1v-.1c-.1 0-.1 0-.1-.1h.2-.2m.7 0h-.1l.2.2-.2-.2v.3h-.1v-.3l-.2.2.2-.2h-.1.3zm.1 0h.2l.1.1v.1h.1v-.1s.1 0 .1-.1h-.5m-.2.8h.1c0 .1-.1.1-.1 0 0 .1 0 .1-.1.1 0 0-.1 0-.1-.1h-.2.2v-.2h.1l.1.2c-.1 0 0 0 0 0zm-.4-.1c-.1 0-.1 0-.2-.1h-.1v-.1-.2h.1v.1l.1-.2-.1.2v.1c.1.2.1.2.2.2zm-.2-.1zm-.1-.2l-.1-.2h.1v.2zm.1-.2s0 .1 0 0c.1.1.1.2.1.2h-.1s-.1 0 0-.2zm.1.5c.1 0 .1.1.2.1v-.1h-.2m0 .1c.1 0 .1.1.2.1-.1 0-.2 0-.2-.1m.1-.4l.2-.1-.2.1m0 0l.1-.2h.1l-.2.2m.6.3c.1 0 .1 0 .2-.1h.1v-.1-.2h-.1v.1l-.1-.2.1.2v.1c-.1.2-.2.2-.2.2zm.2-.1c-.1 0-.1 0 0 0zm.1-.2l.1-.2h-.1v.2zm-.1-.2s0 .1 0 0c-.1.1-.1.2-.1.2h.1v-.2m-.2.5s-.1.1-.2.1v-.1h.2m.1.1c-.1 0-.1.1-.2.1.1 0 .1 0 .2-.1m-.1-.4l-.2-.1.2.1m0 0l-.1-.2h-.1l.2.2m-.7-.3l.2.1v-.1h-.2m.8 0l-.2.1v-.1h.2m-.4.8c0-.1 0-.1 0 0 0-.1 0-.1 0 0zm0-.3l.1-.2h-.1v.2m0 0l-.1-.2h.1v.2M-484.9 387s.1 0 0 0l.1-.3h.1v.2s.1 0 .1.1h.2-.5c.1 0 .1 0 0 0m.5 0h.1l-.2-.2.2.2v-.3h.1v.3l.2-.2-.2.2h.1-.3zm.7 0c.1 0 .1 0 0 0h0l.1-.3h-.1v.3h-.2.2m-1-.5l.2.2-.2-.2.2-.1v-.1h-.2s0-.1-.1-.1-.1 0-.1.1c0 .2.1.2.2.2l-.1.2h.1v-.2c-.1 0 0 0 0 0zm1.1 0v.2h-.1l.1-.2c-.1 0-.1 0 0 0l-.3.2.2-.2h-.2v-.1h.2s0-.1.1-.1c0 0 .1.1 0 .2.1 0 0 0 0 0zm-.6 0v.1h-.1l.1-.1c-.1 0-.1 0-.1-.1h-.1v-.1h.1s0-.1.1-.1c0 0 .1 0 .1.1h.1v.1l-.2.1c.1 0 0 0 0 0zm-.6.2l-.1.2h.1v-.2m.1 0l.1.2h-.1v-.2m1 0l-.1.2h.1v-.2m.1 0l.1.2h-.1v-.2m-.9 0l.2.1-.2-.1m-.1 0l.1.2h.1l-.2-.2m.7 0l-.2.1.2-.1m0 0l-.1.2h-.1l.2-.2m-.7.3l.2-.1v.1h-.2m-.2-.6s.1 0 0 0c.1.1 0 .1 0 0 0 .1 0 .1 0 0zm.4.1l-.2.1v-.1h.2m0-.1l-.2-.1v.1h.2m.6.6l-.2-.1v.1h.2m.1-.6c.1 0 .1 0 0 0 .1.1.1.1 0 0 0 .1 0 .1 0 0zm-.5 0c0 .1 0 .1 0 0 0 .1 0 .1 0 0zm.2.1l.2.1v-.1h-.2m0-.1l.2-.1v.1h-.2m-.2.2l-.1.2h.1v-.2m0 0l.1.2h-.1v-.2"/><path class="st15" d="M-484.1 387.8h.1c0 .1-.1.1-.1 0 0 .1 0 .1-.1.1 0 0-.1 0-.1-.1h-.2.2v-.2h.1l.1.2c-.1 0 0 0 0 0zm-.2-.7h-.2v-.1l.2.1c0-.1 0-.1 0 0l-.2-.3.2.2v-.3h.1v.3l.2-.2-.2.2h.1v.1h-.1l.2.2-.2-.2v.3h-.1v-.3c.1 0 .1 0 0 0l-.1.2.1-.2m-.4-.6l.2.2-.2-.2.2-.1v-.1h-.2s0-.1-.1-.1-.1 0-.1.1c0 .2.1.2.2.2l-.1.2h.1v-.2zm.2 1.2c-.1 0-.1 0-.2-.1h-.1v-.1-.2h.1v.1l.1-.2-.1.2v.1c.1.2.1.2.2.2zm-.3-.4v-.1s-.1 0-.1-.1c0 0 0-.1.1-.1v-.2h.1v.2s.1 0 .1.1h.2v.1h-.2l-.1.1h-.1m.1.3zm-.1-.2l-.1-.2h.1v.2zm.1-.2s0 .1 0 0c.1.1.1.2.1.2h-.1s-.1 0 0-.2zm.1.5c.1 0 .1.1.2.1v-.1h-.2m0 .1c.1 0 .1.1.2.1-.1 0-.2 0-.2-.1"/><path class="st15" d="M-484.5 387.4l.2-.1-.2.1m0 0l.1-.2h.1l-.2.2m-.3-.3c0-.1 0-.1 0 0 0-.1.1-.1 0 0 .1 0 0 0 0 0zm.9.6c.1 0 .1 0 .2-.1h.1v-.1-.2h-.1v.1l-.1-.2.1.2v.1c-.1.2-.2.2-.2.2zm.3-.4v-.1s.1 0 .1-.1c0 0 0-.1-.1-.1v-.2h-.1v.2s-.1 0-.1.1h-.2v.1h.2l.1.1h.1zm-.1.3c-.1 0-.1 0 0 0zm.1-.2l.1-.2h-.1v.2zm-.1-.2s0 .1 0 0c-.1.1-.1.2-.1.2h.1v-.2m.1-.7v.2h-.1l.1-.2c-.1 0-.1 0 0 0l-.3.2.2-.2h-.2v-.1h.2s0-.1.1-.1c0 0 .1.1 0 .2.1 0 0 0 0 0zm-.6 0v.1h-.1l.1-.1c-.1 0-.1 0-.1-.1h-.1v-.1h.1s0-.1.1-.1c0 0 .1 0 .1.1h.1v.1l-.2.1c.1 0 0 0 0 0zm.3 1.2s-.1.1-.2.1v-.1h.2m.1.1c-.1 0-.1.1-.2.1.1 0 .1 0 .2-.1m-1-1.1l-.1.2h.1v-.2m.1 0l.1.2h-.1v-.2m1 0l-.1.2h.1v-.2"/><path class="st15" d="M-483.6 386.7l.1.2h-.1v-.2m-.3.7l-.2-.1.2.1m0 0l-.1-.2h-.1l.2.2m-.6-.7l.2.1-.2-.1m-.1 0l.1.2h.1l-.2-.2m.7 0l-.2.1.2-.1m0 0l-.1.2h-.1l.2-.2m-.7.3l.2-.1v.1h-.2m0 .1l.2.1v-.1h-.2m-.2-.7s.1 0 0 0c.1.1 0 .1 0 0 0 .1 0 .1 0 0zm.4.1l-.2.1v-.1h.2m0-.1l-.2-.1v.1h.2m.7.7c0-.1 0-.1 0 0 .1-.1.1-.1 0 0 .1 0 .1 0 0 0zm-.1-.1l-.2-.1v.1h.2m0 .1l-.2.1v-.1h.2m-.4.8c0-.1 0-.1 0 0 0-.1 0-.1 0 0zm0-.3l.1-.2h-.1v.2m0 0l-.1-.2h.1v.2m.5-1.2c.1 0 .1 0 0 0 .1.1.1.1 0 0 0 .1 0 .1 0 0zm-.5 0c0 .1 0 .1 0 0 0 .1 0 .1 0 0zm.2.1l.2.1v-.1h-.2m0-.1l.2-.1v.1h-.2M-484.2 386.6l-.1.2h.1v-.2m0 0l.1.2h-.1v-.2"/><path class="st6" d="M-484.3 387.1c0-.1 0-.1 0 0 .1-.1.2 0 .2 0h-.2"/><path class="st16" d="M-484.2 384.8c0-.1 0-.1 0 0-.1 0-.1-.1-.2-.1h-.1-.1.1c.1 0 .1 0 .1.1h.2"/><path class="st3" d="M-484.2 384.8c0-.1 0-.1 0 0-.1 0-.1-.1-.2-.1h-.1-.1.1c.1 0 .1 0 .1.1h.2z"/><path class="st17" d="M-483.9 384.7v.5s0 .1.1.2c0 0 .1.1.2.1s.1-.2 0-.2v-.2-.1-.1-.1 0h.1v.1l-.1.1v.2l-.1.1v.2l.1.2s0 .1-.1.2h-.1V386.1h-.1c-.1 0 0 .1 0 .1v.1h.1c.1 0 0 0 0 0h.1v-.1-.1s0-.1.1-.1h.2l-.1-.1-.1-.1v-.1.1h-.1H-483.6v.2h.4v-.1h-.1.2s-1-1.3-.8-1.2c-.1-.1 0 0 0 0"/><path d="M-484.3 384.7s0-.1 0 0c0-.1 0-.1 0 0 0-.1 0-.1 0 0 0-.1 0-.1 0 0"/><path class="st3" d="M-484.3 384.7s0-.1 0 0c0-.1 0-.1 0 0 0-.1 0-.1 0 0 0-.1 0-.1 0 0z"/><path d="M-484.1 384.6"/><path class="st3" d="M-484.1 384.6zM-484 384.8"/><path class="st16" d="M-484.7 384.7s.1 0 0 0c.1 0 .1 0 0 0 .1 0 .1-.1 0 0 .1-.1.1-.1 0 0 .1-.1.1-.1 0 0 .1-.1 0 0 0 0"/><path class="st3" d="M-484.7 384.7s.1 0 0 0c.1 0 .1 0 0 0 .1 0 .1-.1 0 0 .1-.1.1-.1 0 0 .1-.1.1-.1 0 0 .1-.1 0 0 0 0z"/><path class="st16" d="M-484.7 384.7s-.1 0 0 0c-.1 0-.1 0 0 0-.1 0-.1 0 0 0-.1 0-.1 0 0 0-.1 0-.1 0 0 0"/><path class="st3" d="M-484.7 384.7s-.1 0 0 0c-.1 0-.1 0 0 0-.1 0-.1 0 0 0-.1 0-.1 0 0 0-.1 0-.1 0 0 0z"/><path class="st16" d="M-484.8 384.8s0 .1 0 0c0 .1 0 0 0 0"/><path class="st3" d="M-484.8 384.8s0 .1 0 0c0 .1 0 0 0 0z"/><path d="M-484.3 384.8"/><path class="st3" d="M-484.3 384.8"/><path d="M-484.3 384.8"/><path class="st3" d="M-484.3 384.8"/><path d="M-484.3 384.7"/><path class="st3" d="M-484.3 384.7"/><path d="M-484.2 384.7"/><path class="st3" d="M-484.4 384.9c-.1 0-.1.1 0 0-.1.1 0 0 0 0 0 .1 0 .1 0 0 0 .1.1 0 0 0 .1 0 0 .1 0 0l.1.1v.1h.1v.2m-.3-.2s.1 0 0 0c.1-.1.1-.1 0 0l.1-.1m.1.2c.1-.1.1-.1 0 0"/><path class="st16" d="M-484.7 385.1c-.1 0-.1.1 0 0-.1.1-.1.1 0 0 0 .1 0 .1 0 0 0 .1 0 .1 0 0 0 .1 0 0 0 0"/><path class="st3" d="M-484.7 385.1c-.1 0-.1.1 0 0-.1.1-.1.1 0 0 0 .1 0 .1 0 0 0 .1 0 .1 0 0 0 .1 0 0 0 0z"/><path class="st16" d="M-484.7 385.2c-.1.1-.1.1 0 0-.1.1-.1.1 0 0 0 .1 0 .1 0 0 0 .1 0 .1 0 0 0 .1 0 0 0 0"/><path class="st3" d="M-484.7 385.2c-.1.1-.1.1 0 0-.1.1-.1.1 0 0 0 .1 0 .1 0 0 0 .1 0 .1 0 0 0 .1 0 0 0 0z"/><path class="st16" d="M-484.7 385.3s0 .1 0 0c.1.1.1.1 0 0 .1.1.1.1 0 0 .1.1.1 0 0 0 .1 0 .1 0 0 0"/><path class="st3" d="M-484.7 385.3s0 .1 0 0c.1.1.1.1 0 0 .1.1.1.1 0 0 .1.1.1 0 0 0 .1 0 .1 0 0 0zM-484.1 385.4s.1 0 0 0c.1.1 0 .2 0 .2"/><path class="st16" d="M-484.4 385.6c-.1 0-.1 0 0 0-.1 0-.1 0 0 0-.1 0-.1 0 0 0-.1 0 0 0 0 0"/><path class="st3" d="M-484.4 385.6c-.1 0-.1 0 0 0-.1 0-.1 0 0 0-.1 0-.1 0 0 0-.1 0 0 0 0 0z"/><path class="st16" d="M-484.5 385.7c-.1 0-.1 0 0 0-.1 0 0 0 0 0"/><path class="st3" d="M-484.5 385.7c-.1 0-.1 0 0 0-.1 0 0 0 0 0z"/><path class="st16" d="M-484.4 385.8"/><path class="st3" d="M-484.4 385.8z"/><path class="st16" d="M-484 385.8c-.1 0-.1.1 0 0-.1.1-.1 0 0 0 0 0 0 .1 0 0 0 .1 0 0 0 0"/><path class="st3" d="M-484 385.8c-.1 0-.1.1 0 0-.1.1-.1 0 0 0 0 0 0 .1 0 0 0 .1 0 0 0 0z"/><path class="st16" d="M-484 385.9c0 .1 0 .1 0 0 0 .1 0 .1 0 0 0 0 .1 0 0 0 .1 0 0 0 0 0"/><path class="st3" d="M-484 385.9c0 .1 0 .1 0 0 0 .1 0 .1 0 0 0 0 .1 0 0 0 .1 0 0 0 0 0z"/><path class="st16" d="M-483.9 385.9s0 .1 0 0c0 .1.1.1 0 0 .1.1 0 .1 0 0 .1 0 .1 0 0 0 .1 0 0 0 0 0"/><path class="st3" d="M-483.9 385.9s0 .1 0 0c0 .1.1.1 0 0 .1.1 0 .1 0 0 .1 0 .1 0 0 0 .1 0 0 0 0 0z"/><path class="st18" d="M-485 387.8c.1 0 .1.1.1.1 0 .1-.1.1-.2.1s-.2-.1-.2-.1c0-.1 0-.1.1-.1h.2c-.1 0 0 0 0 0"/><path class="st12" d="M-485.1 388.2s-.1-.1-.2-.1h-.2l.1.1.1.1c.1-.1.2-.1.2-.1M-485 388.2s.1-.1.2-.1h.1l-.1.1h-.2"/><path class="st9" d="M-485 388.1l-.1-.1s0-.1.1-.1l.1.1c-.1 0-.1.1-.1.1"/><path class="st12" d="M-485.1 388.3s0-.1 0 0v-.2c.1 0 .1 0 0 .2.1-.1.1 0 0 0 .1 0 .1 0 0 0"/><path class="st5" d="M-483.4 383.4s.1-.1 0 0c.1-.1.1 0 0 0 .1 0 .1 0 0 0 .1 0 0 0 0 0"/><path class="st3" d="M-483.4 383.4s.1-.1 0 0c.1-.1.1 0 0 0 .1 0 .1 0 0 0 .1 0 0 0 0 0z"/><path class="st5" d="M-483.3 383.3s.1 0 0 0c.1 0 0 0 0 0"/><path class="st3" d="M-483.3 383.3s.1 0 0 0c.1 0 0 0 0 0z"/><path class="st5" d="M-483.3 383.2c.1 0 .1 0 0 0 .1 0 .1 0 0 0"/><path class="st3" d="M-483.3 383.2c.1 0 .1 0 0 0 .1 0 .1 0 0 0z"/><path class="st5" d="M-483.3 383.1s0-.1 0 0c.1-.1.1 0 0 0 .1 0 .1 0 0 0"/><path class="st3" d="M-483.3 383.1s0-.1 0 0c.1-.1.1 0 0 0 .1 0 .1 0 0 0z"/><path class="st5" d="M-483.3 383c0-.1 0-.1 0 0 .1-.1.1-.1 0 0 .1 0 .1 0 0 0"/><path class="st3" d="M-483.3 383c0-.1 0-.1 0 0 .1-.1.1-.1 0 0 .1 0 .1 0 0 0z"/><path class="st5" d="M-483.4 382.9c0-.1.1-.1 0 0 .1-.1.1-.1 0 0 .1 0 .1 0 0 0 .1 0 0 0 0 0"/><path class="st3" d="M-483.4 382.9c0-.1.1-.1 0 0 .1-.1.1-.1 0 0 .1 0 .1 0 0 0 .1 0 0 0 0 0z"/><path class="st5" d="M-483.4 382.8s0-.1 0 0c0-.1 0 0 0 0"/><path class="st3" d="M-483.4 382.8s0-.1 0 0c0-.1 0 0 0 0z"/><path class="st5" d="M-483.5 382.7"/><path class="st3" d="M-483.5 382.7z"/><path class="st5" d="M-483.6 382.7c0-.1 0-.1 0 0 0-.1 0-.1 0 0"/><path class="st3" d="M-483.6 382.7c0-.1 0-.1 0 0 0-.1 0-.1 0 0z"/><path class="st5" d="M-483.7 382.6s0 .1 0 0c0 .1 0 0 0 0"/><path class="st3" d="M-483.7 382.6s0 .1 0 0c0 .1 0 0 0 0z"/><path class="st5" d="M-483.9 382.6c.1 0 .1 0 0 0 .1 0 .1 0 0 0"/><path class="st3" d="M-483.9 382.6c.1 0 .1 0 0 0 .1 0 .1 0 0 0z"/><path class="st5" d="M-484 382.6c.1 0 .1 0 0 0 .1 0 .1 0 0 0"/><path class="st3" d="M-484 382.6c.1 0 .1 0 0 0 .1 0 .1 0 0 0z"/><path class="st5" d="M-484.1 382.6c.1 0 .1 0 0 0 .1 0 .1 0 0 0"/><path class="st3" d="M-484.1 382.6c.1 0 .1 0 0 0 .1 0 .1 0 0 0z"/><path class="st5" d="M-484.2 382.6s.1 0 0 0c.1 0 0 0 0 0"/><path class="st3" d="M-484.2 382.6s.1 0 0 0c.1 0 0 0 0 0z"/><path class="st11" d="M-484.2 382.7s.1 0 0 0c.1 0 .1 0 0 0 .1 0 .1 0 0 0 .1 0 0 0 0 0M-484.2 383s.1 0 0 0c.1 0 .1 0 0 0 .1 0 .1 0 0 0 .1 0 0 0 0 0M-484.2 383.1"/><path class="st5" d="M-484.3 382.5c.1 0 .1 0 0 0 .1 0 .1.1 0 0 0 .1 0 0 0 0"/><path class="st3" d="M-484.3 382.5c.1 0 .1 0 0 0 .1 0 .1.1 0 0 0 .1 0 0 0 0z"/><path class="st5" d="M-484.4 382.5c0-.1 0-.1 0 0 .1-.1.1-.1 0 0 .1 0 .1 0 0 0"/><path class="st3" d="M-484.4 382.5c0-.1 0-.1 0 0 .1-.1.1-.1 0 0 .1 0 .1 0 0 0z"/><path class="st5" d="M-484.5 382.4s.1 0 0 0c.1.1 0 .1 0 0 0 .1 0 .1 0 0"/><path class="st3" d="M-484.5 382.4s.1 0 0 0c.1.1 0 .1 0 0 0 .1 0 .1 0 0z"/><path class="st5" d="M-484.6 382.4"/><path class="st3" d="M-484.6 382.4z"/><path class="st5" d="M-484.7 382.4s0 .1 0 0c0 .1 0 0 0 0"/><path class="st3" d="M-484.7 382.4s0 .1 0 0c0 .1 0 0 0 0z"/><path class="st5" d="M-484.9 382.4s.1 0 0 0c.1 0 .1 0 0 0 .1.1.1.1 0 0 .1.1 0 .1 0 0"/><path class="st3" d="M-484.9 382.4s.1 0 0 0c.1 0 .1 0 0 0 .1.1.1.1 0 0 .1.1 0 .1 0 0z"/><path class="st5" d="M-485 382.5s0-.1 0 0c.1-.1.1 0 0 0 .1 0 .1 0 0 0"/><path class="st3" d="M-485 382.5s0-.1 0 0c.1-.1.1 0 0 0 .1 0 .1 0 0 0z"/><path class="st5" d="M-486.8 383.4s0-.1 0 0c0-.1 0 0 0 0"/><path class="st3" d="M-486.8 383.4s0-.1 0 0c0-.1 0 0 0 0z"/><path class="st5" d="M-486.9 383.3c.1 0 .1 0 0 0 .1 0 .1 0 0 0"/><path class="st3" d="M-486.9 383.3c.1 0 .1 0 0 0 .1 0 .1 0 0 0z"/><path class="st5" d="M-486.9 383.2"/><path class="st3" d="M-486.9 383.2z"/><path class="st5" d="M-486.9 383.1s0-.1 0 0c0-.1 0 0 0 0"/><path class="st3" d="M-486.9 383.1s0-.1 0 0c0-.1 0 0 0 0z"/><path class="st5" d="M-486.9 383c0-.1 0-.1 0 0 .1-.1.1-.1 0 0 .1 0 .1 0 0 0"/><path class="st3" d="M-486.9 383c0-.1 0-.1 0 0 .1-.1.1-.1 0 0 .1 0 .1 0 0 0z"/><path class="st5" d="M-486.8 382.9c0-.1 0-.1 0 0 0-.1 0-.1 0 0"/><path class="st3" d="M-486.8 382.9c0-.1 0-.1 0 0 0-.1 0-.1 0 0z"/><path class="st5" d="M-486.8 382.8s0-.1 0 0c.1-.1.1 0 0 0 .1 0 .1 0 0 0"/><path class="st3" d="M-486.8 382.8s0-.1 0 0c.1-.1.1 0 0 0 .1 0 .1 0 0 0z"/><path class="st5" d="M-486.7 382.7c.1 0 .1 0 0 0 .1 0 .1 0 0 0"/><path class="st3" d="M-486.7 382.7c.1 0 .1 0 0 0 .1 0 .1 0 0 0z"/><path class="st5" d="M-486.6 382.7c0-.1 0-.1 0 0 .1-.1.1-.1 0 0 .1 0 .1 0 0 0"/><path class="st3" d="M-486.6 382.7c0-.1 0-.1 0 0 .1-.1.1-.1 0 0 .1 0 .1 0 0 0z"/><path class="st5" d="M-486.5 382.6s.1 0 0 0c.1 0 .1 0 0 0 .1 0 .1.1 0 0 .1.1 0 0 0 0"/><path class="st3" d="M-486.5 382.6s.1 0 0 0c.1 0 .1 0 0 0 .1 0 .1.1 0 0 .1.1 0 0 0 0z"/><path class="st5" d="M-486.3 382.6"/><path class="st3" d="M-486.3 382.6z"/><path class="st5" d="M-486.2 382.6s.1 0 0 0c.1 0 0 0 0 0"/><path class="st3" d="M-486.2 382.6s.1 0 0 0c.1 0 0 0 0 0z"/><path class="st5" d="M-486.1 382.6s.1 0 0 0c.1 0 0 0 0 0"/><path class="st3" d="M-486.1 382.6s.1 0 0 0c.1 0 0 0 0 0z"/><path class="st5" d="M-486 382.6c.1 0 .1 0 0 0 .1 0 .1 0 0 0"/><path class="st3" d="M-486 382.6c.1 0 .1 0 0 0 .1 0 .1 0 0 0z"/><path class="st11" d="M-486.1 382.7s.1 0 0 0c.1 0 .1 0 0 0 .1 0 .1 0 0 0 .1 0 0 0 0 0M-486.1 382.8c.1 0 .1 0 0 0 .1 0 .1 0 0 0M-486.1 382.9c.1 0 .1 0 0 0 .1 0 .1 0 0 0M-486 383.1c.1 0 .1 0 0 0 .1 0 .1 0 0 0"/><path class="st5" d="M-485.9 382.5c.1 0 .1 0 0 0 .1 0 .1.1 0 0 0 .1 0 0 0 0"/><path class="st3" d="M-485.9 382.5c.1 0 .1 0 0 0 .1 0 .1.1 0 0 0 .1 0 0 0 0z"/><path class="st5" d="M-485.8 382.5c0-.1 0-.1 0 0 .1-.1.1-.1 0 0 .1 0 .1 0 0 0"/><path class="st3" d="M-485.8 382.5c0-.1 0-.1 0 0 .1-.1.1-.1 0 0 .1 0 .1 0 0 0z"/><path class="st5" d="M-485.7 382.4c.1 0 .1 0 0 0 .1.1.1.1 0 0 0 .1 0 .1 0 0"/><path class="st3" d="M-485.7 382.4c.1 0 .1 0 0 0 .1.1.1.1 0 0 0 .1 0 .1 0 0z"/><path class="st5" d="M-485.6 382.4c.1 0 .1 0 0 0 .1 0 .1 0 0 0"/><path class="st3" d="M-485.6 382.4c.1 0 .1 0 0 0 .1 0 .1 0 0 0z"/><path class="st5" d="M-485.5 382.4s.1 0 0 0c.1 0 .1 0 0 0 .1 0 .1.1 0 0 .1.1 0 0 0 0"/><path class="st3" d="M-485.5 382.4s.1 0 0 0c.1 0 .1 0 0 0 .1 0 .1.1 0 0 .1.1 0 0 0 0z"/><path class="st5" d="M-485.3 382.4c0 .1 0 .1 0 0 0 .1 0 .1 0 0"/><path class="st3" d="M-485.3 382.4c0 .1 0 .1 0 0 0 .1 0 .1 0 0z"/><path class="st5" d="M-485.2 382.5s0-.1 0 0c0-.1 0 0 0 0"/><path class="st3" d="M-485.2 382.5s0-.1 0 0c0-.1 0 0 0 0z"/><path class="st10" d="M-486.2 384.7v.2h-.1v.3h.1v.5h-.1v.3h1v-.3h-.1v-.5h.1v-.3h-.1v-.1h.1v-.1H-485.6v.1h.1v.1h-.1v-.3h.1v-.1H-485.8v.1h.1v.3h-.1l-.4-.2.1.1v-.1h-.1zm-.2 1.2h1m-1 0h1m-1-.1h1m-1-.1h1m-1 0h1m-.9-.1h.7m-.7-.1h.7m-.7 0h.7m-.7-.1h.7m-.7 0h.7m-.7-.1h.7m-.7-.1h.7m-.7 0h.8m-.8-.1h.8m-.8-.1h.8m-.8 0h.8m-.7-.1h.6m-.4-.1h.1m-.1 0h.1m-.1-.1h.1m-.1 0h.1m-.1-.1h.2m-.4.2h.1m-.2 0h.2M-485.6 384.8h-.1m.2 0h-.2M-486.2 384.8h.1m.1-.2h.1m.2.2h.1"/><path class="st10" d="M-485.7 385.9v-.2s0-.1-.2-.1c-.1 0-.2.1-.2.1v.2h.4z"/><path class="st10" d="M-486 385.8c-.1 0-.1-.1 0-.1v.1c0-.1 0 0 0 0zM-485.8 385.8c.1 0 .1-.1 0-.1v.1c0-.1 0 0 0 0zM-485.9 385.7c0-.1 0-.1 0 0 0-.1-.1-.1 0 0zM-486 385.5v-.2s0-.1-.1-.1-.1 0-.1.1v.2h.2zM-485.8 385.5v-.2s0-.1.1-.1.1 0 .1.1v.2h-.2zM-485.8 385.1v-.2h-.1v.2h.1zM-485.7 385.1v-.2h.2v.2h-.2zM-486.1 385.1v-.2h-.1v.2h.1z"/><path class="st19" d="M-485.8 385.9v-.1s0-.1-.1-.1-.1.1-.1.1v.1h.2zM-486 385.5v-.1s0-.1-.1-.1c0 0-.1 0-.1.1v.1h.2zM-485.8 385.5v-.1s0-.1.1-.1c0 0 .1 0 .1.1v.1h-.2z"/><path class="st2" d="M-485.6 386.2c0-.3.2-.6.6-.6s.6.3.6.6-.2.6-.6.6-.6-.3-.6-.6"/><path class="st3" d="M-485.6 386.2c0-.3.2-.6.6-.6s.6.3.6.6-.2.6-.6.6-.6-.3-.6-.6z"/><path class="st7" d="M-485.4 386.2c0-.3.2-.5.4-.5s.4.2.4.5-.2.5-.4.5c-.3-.1-.4-.3-.4-.5"/><path class="st3" d="M-485.4 386.2c0-.3.2-.5.4-.5s.4.2.4.5-.2.5-.4.5c-.3-.1-.4-.3-.4-.5z"/><path class="st4" d="M-485.2 385.9s-.1 0 0 0v.2h-.1v.1-.1h-.1c.2-.1.2-.1.2-.2"/><path class="st3" d="M-485.2 385.9s-.1 0 0 0v.2h-.1v.1-.1h-.1c.2-.1.2-.1.2-.2z"/><path class="st4" d="M-485.3 386.2h.1-.1z"/><path class="st3" d="M-485.3 386.2h.1-.1z"/><path class="st4" d="M-484.9 385.9v.2h-.1v.1-.1h-.1c.3-.1.3-.1.2-.2.1 0 0 0 0 0"/><path class="st3" d="M-484.9 385.9v.2h-.1v.1-.1h-.1c.3-.1.3-.1.2-.2.1 0 0 0 0 0z"/><path class="st4" d="M-484.9 386.2h.1-.1z"/><path class="st3" d="M-484.9 386.2h.1-.1z"/><path class="st4" d="M-485.1 386.2v.2h-.1v.1-.1h-.1c.3 0 .3-.1.2-.2.1 0 0 0 0 0"/><path class="st3" d="M-485.1 386.2v.2h-.1v.1-.1h-.1c.3 0 .3-.1.2-.2.1 0 0 0 0 0z"/><path class="st4" d="M-485.1 386.5h.1-.1z"/><path class="st3" d="M-485.1 386.5h.1-.1z"/><path class="st4" d="M-483.9 384.5c-.1 0-.1 0 0 0-.1.1-.1.1 0 0-.1 0-.1 0 0 0-.1 0-.1 0 0 0-.1 0-.1 0 0 0-.1 0-.1 0 0 0h-.1c-.1.1 0 .1.1 0v.2h-.1c.1-.1.1-.1.1-.2 0 .1 0 .1 0 0 0 .1 0 .1 0 0 0 .1 0 .1 0 0 0 .1 0 .1 0 0 0 .1 0 .1 0 0 0 .1 0 .1 0 0-.1.1-.1.1 0 0-.1.1 0 0 0 0"/><path class="st3" d="M-483.9 384.5c-.1 0-.1 0 0 0-.1.1-.1.1 0 0-.1 0-.1 0 0 0-.1 0-.1 0 0 0-.1 0-.1 0 0 0-.1 0-.1 0 0 0h-.1c-.1.1 0 .1.1 0v.2h-.1c.1-.1.1-.1.1-.2 0 .1 0 .1 0 0 0 .1 0 .1 0 0 0 .1 0 .1 0 0 0 .1 0 .1 0 0 0 .1 0 .1 0 0 0 .1 0 .1 0 0-.1.1-.1.1 0 0-.1.1 0 0 0 0z"/><path d="M-484 384.6"/><path class="st3" d="M-484 384.6z"/><path d="M-484 384.6"/><path class="st3" d="M-484 384.6"/><path d="M-484.1 384.5c.1 0 .1.1 0 0 .1.1.1.1 0 0"/><path class="st3" d="M-484.1 384.5c.1 0 .1.1 0 0 .1.1.1.1 0 0"/><path d="M-484.1 384.5"/><path class="st3" d="M-484.1 384.5z"/><path d="M-484 384.6"/><path class="st3" d="M-484 384.6z"/><path d="M-483.9 384.6"/><path class="st3" d="M-483.9 384.6"/><path d="M-483.9 384.7"/><path class="st3" d="M-483.9 384.7z"/><path class="st4" d="M-484 384.5"/><path class="st3" d="M-484 384.5"/><path class="st4" d="M-484.1 384.5"/><path class="st3" d="M-484.1 384.5"/><path class="st4" d="M-484 384.5"/><path class="st3" d="M-484 384.5"/><path class="st4" d="M-484 384.5"/><path class="st3" d="M-484 384.5z"/><path class="st4" d="M-484.1 384.5s0-.1 0 0c0-.1 0-.1 0 0 0-.1 0-.1 0 0 0-.1 0 0 0 0"/><path class="st3" d="M-484.1 384.5s0-.1 0 0c0-.1 0-.1 0 0 0-.1 0-.1 0 0 0-.1 0 0 0 0z"/><path class="st4" d="M-484.1 384.5"/><path class="st3" d="M-484.1 384.5"/><path class="st4" d="M-484.1 384.5s0-.1 0 0"/><path class="st3" d="M-484.1 384.5s0-.1 0 0z"/><path class="st4" d="M-483.9 384.5"/><path class="st3" d="M-483.9 384.5"/><path class="st4" d="M-484 384.5"/><path class="st3" d="M-484 384.5"/><path class="st4" d="M-483.9 384.6"/><path class="st3" d="M-483.9 384.6"/><path class="st4" d="M-484 384.5s.1 0 0 0c.1 0 .1 0 0 0 .1 0 0 0 0 0"/><path class="st3" d="M-484 384.5s.1 0 0 0c.1 0 .1 0 0 0 .1 0 0 0 0 0z"/><path class="st4" d="M-483.9 384.6"/><path class="st3" d="M-483.9 384.6"/><path class="st4" d="M-483.9 384.6"/><path class="st3" d="M-483.9 384.6"/><path class="st4" d="M-483.9 384.6"/><path class="st3" d="M-483.9 384.6"/><path class="st4" d="M-483.9 384.6"/><path class="st3" d="M-483.9 384.6z"/><path class="st4" d="M-483.8 384.7c0-.1 0 0 0 0"/><path class="st3" d="M-483.8 384.7c0-.1 0 0 0 0z"/><path class="st4" d="M-483.9 384.6"/><path class="st3" d="M-483.9 384.6"/><path class="st4" d="M-483.8 384.7"/><path class="st3" d="M-483.8 384.7zM-482.5 384.3"/></svg>