<?xml version="1.0" encoding="utf-8"?>
<!-- Generator: Adobe Illustrator 19.1.0, SVG Export Plug-In . SVG Version: 6.00 Build 0)  -->
<svg version="1.1" id="canada" xmlns="http://www.w3.org/2000/svg" xmlns:xlink="http://www.w3.org/1999/xlink" x="0px" y="0px"
	 viewBox="0 0 30 20" style="enable-background:new 0 0 30 20;" xml:space="preserve">
<style type="text/css">
	.st0{fill:#FFFFFF;}
	.st1{fill:#EB2227;}
</style>
<g>
	<path class="st0" d="M8.7,3.9c0,4.3,0,8.5,0,12.8h12.7c0-4.3,0-8.5,0-12.8H8.7z M20,10.6c-0.7,0.6-1.4,1.1-2.1,1.7
		c-0.3,0.3-0.3,0.3-0.2,0.7c0,0.1,0.1,0.2,0.1,0.3c0,0.1,0,0.1-0.1,0.1c-0.4-0.1-0.7-0.1-1.1-0.2c-0.4-0.1-0.7-0.1-1.1-0.1
		c-0.2,0-0.2,0.1-0.2,0.2c0,0,0,0.1,0,0.1c0,0,0,0,0,0c0,0.7,0,1.5,0.1,2.2c0,0.1,0,0.2-0.2,0.2c-0.3,0-0.3,0.1-0.3-0.3
		c0-0.4,0-0.9,0.1-1.3c0-0.3,0-0.5,0-0.8c0-0.2-0.1-0.3-0.3-0.3c-0.6,0.1-1.3,0.2-1.9,0.3c-0.1,0-0.2,0-0.3,0c-0.1,0-0.1,0-0.1-0.1
		c0.1-0.2,0.1-0.3,0.2-0.5c0.1-0.2,0-0.3-0.1-0.4c-0.7-0.6-1.5-1.2-2.2-1.8c-0.1-0.1-0.1-0.1,0-0.2c0.1-0.1,0.2-0.1,0.4-0.2
		c0.1-0.1,0.2-0.1,0.1-0.3c-0.1-0.4-0.2-0.8-0.3-1.3c-0.1-0.3-0.1-0.3,0.2-0.2c0.3,0.1,0.7,0.1,1,0.2c0.2,0,0.3,0,0.4-0.2
		c0-0.1,0.1-0.3,0.1-0.4c0-0.1,0.1-0.1,0.1,0c0.3,0.4,0.7,0.7,1,1.1c0.1,0.1,0.2,0.2,0.3,0.1c0.1-0.1,0.1-0.2,0.1-0.3
		c-0.1-0.8-0.3-1.6-0.4-2.4c0,0,0-0.1,0-0.1c0,0,0.1,0,0.1,0c0.2,0.1,0.3,0.2,0.5,0.3c0.2,0.1,0.4,0.1,0.5-0.2
		c0.3-0.5,0.5-0.9,0.8-1.4c0,0,0-0.1,0.1-0.1c0.1,0,0.1,0.1,0.1,0.1c0.3,0.5,0.5,0.9,0.8,1.4c0.1,0.2,0.2,0.3,0.5,0.1
		c0.2-0.1,0.3-0.2,0.5-0.3c0,0,0.1-0.1,0.1,0c0,0,0,0.1,0,0.1c-0.1,0.8-0.3,1.6-0.4,2.4c0,0,0,0,0,0c0,0.1,0,0.2,0.1,0.3
		c0.1,0.1,0.2,0,0.3-0.1c0.3-0.4,0.7-0.7,1-1.1C18,8,18,8,18,8c0,0,0,0.1,0.1,0.1c0,0.1,0.1,0.3,0.1,0.4c0.1,0.2,0.1,0.2,0.3,0.2
		c0.3-0.1,0.7-0.1,1-0.2c0.1,0,0.1,0,0.2,0c0.1,0,0.1,0,0.1,0.1c-0.1,0.3-0.2,0.6-0.3,1c0,0.2-0.1,0.3-0.1,0.5c0,0.1,0,0.2,0.1,0.2
		c0.1,0.1,0.3,0.1,0.4,0.2C20.1,10.5,20.1,10.5,20,10.6z"/>
	<path class="st1" d="M2.3,3.9v12.8h6.4c0-4.3,0-8.5,0-12.8H2.3z"/>
	<path class="st1" d="M27.8,3.9h-6.4c0,4.3,0,8.5,0,12.8h6.4V3.9z"/>
	<path class="st1" d="M20,10.4c-0.1-0.1-0.3-0.1-0.4-0.2c-0.1,0-0.1-0.1-0.1-0.2c0-0.2,0.1-0.3,0.1-0.5c0.1-0.3,0.2-0.6,0.3-1
		c0-0.1,0-0.1-0.1-0.1c-0.1,0-0.1,0-0.2,0c-0.3,0.1-0.7,0.1-1,0.2c-0.2,0-0.3,0-0.3-0.2c0-0.1-0.1-0.3-0.1-0.4c0,0,0-0.1-0.1-0.1
		C18,8,18,8,17.9,8c-0.3,0.4-0.7,0.7-1,1.1c-0.1,0.1-0.2,0.2-0.3,0.1c-0.1-0.1-0.1-0.2-0.1-0.3c0,0,0,0,0,0c0.1-0.8,0.3-1.6,0.4-2.4
		c0,0,0-0.1,0-0.1c0,0-0.1,0-0.1,0c-0.2,0.1-0.3,0.2-0.5,0.3c-0.2,0.1-0.4,0.1-0.5-0.1c-0.3-0.5-0.5-0.9-0.8-1.4c0,0,0-0.1-0.1-0.1
		c0,0-0.1,0.1-0.1,0.1c-0.3,0.5-0.5,0.9-0.8,1.4c-0.1,0.2-0.2,0.3-0.5,0.2c-0.2-0.1-0.3-0.2-0.5-0.3c0,0-0.1-0.1-0.1,0
		c0,0,0,0.1,0,0.1c0.1,0.8,0.3,1.6,0.4,2.4c0,0.1,0,0.2-0.1,0.3c-0.1,0.1-0.2,0-0.3-0.1c-0.3-0.4-0.7-0.7-1-1.1
		c-0.1-0.1-0.1-0.1-0.1,0C12,8.2,12,8.3,12,8.5c-0.1,0.2-0.1,0.3-0.4,0.2c-0.3-0.1-0.7-0.1-1-0.2c-0.3-0.1-0.3-0.1-0.2,0.2
		c0.1,0.4,0.2,0.8,0.3,1.3c0,0.1,0,0.2-0.1,0.3c-0.1,0.1-0.2,0.1-0.4,0.2c-0.1,0.1-0.1,0.1,0,0.2c0.7,0.6,1.5,1.2,2.2,1.8
		c0.1,0.1,0.2,0.3,0.1,0.4c-0.1,0.2-0.1,0.3-0.2,0.5c0,0.1,0,0.1,0.1,0.1c0.1,0,0.2,0,0.3,0c0.6-0.1,1.3-0.2,1.9-0.3
		c0.2,0,0.3,0,0.3,0.3c0,0.3,0,0.5,0,0.8c0,0.4,0,0.9-0.1,1.3c0,0.3,0,0.3,0.3,0.3c0.1,0,0.2,0,0.2-0.2c0-0.7,0-1.5-0.1-2.2
		c0,0,0,0,0,0c0,0,0-0.1,0-0.1c0-0.2,0.1-0.2,0.2-0.2c0.4,0,0.7,0.1,1.1,0.1c0.4,0.1,0.7,0.1,1.1,0.2c0.1,0,0.1,0,0.1-0.1
		c0-0.1-0.1-0.2-0.1-0.3c-0.1-0.4-0.1-0.4,0.2-0.7c0.7-0.6,1.4-1.1,2.1-1.7C20.1,10.5,20.1,10.5,20,10.4z"/>
</g>
</svg>
