<svg id="australia" xmlns="http://www.w3.org/2000/svg" viewBox="0 2 27 18"><style>.st0{fill:#293475}.st1{fill:#fff}.st2,.st3{fill:#cc202d}.st3{fill-rule:evenodd;clip-rule:evenodd}</style><path class="st0" d="M2.3 4h26v14h-26z"/><path class="st1" d="M15.1 6.1H9.7V4h-2v2.1H2.3v2.1h5.4v2.1h2V8.2h5.4z"/><path class="st1" d="M13.6 4L9.8 5.9H7.6L3.8 4H2.3v.7l2.8 1.4 3.5 1 3.7-1 2.8-1.4V4zM8.8 7.2l-3.7 1-2.8 1.4v.7h1.5l3.8-1.9h2.2l3.8 1.9h1.5v-.7l-2.8-1.4z"/><path class="st2" d="M15.1 6.5H9.3V4H8.1v2.5H2.3v1.3h5.8v2.5h1.2V7.8h5.8z"/><path class="st2" d="M5.6 6.1h1L2.3 4v.4zM14.1 4L9.9 6.1h.9L15.1 4zM11.8 8.2h-1l4.3 2.1v-.4zM2.3 10.3h1l4.2-2.1h-.9z"/><g><path class="st3" d="M21.9 14.8l-.1-.1c-.1-.1-.2-.1-.3-.2-.1.1-.2.1-.3.2l-.2.2v-.1-.1c0-.1.1-.2.1-.3v-.1c-.1-.1-.2-.1-.2-.2l-.1-.1-.1-.1h.7s.1 0 .1-.1.1-.2.1-.3v-.2l.1.3c0 .1.1.2.1.3 0 .1 0 .1.1.1H22.5h-.3l-.1.1c-.1.1-.2.1-.3.2v.1c0 .1.1.2.1.3l.1.3-.1-.2z"/><path class="st1" d="M21.5 13.4c.1.2.1.3.1.4 0 .1 0 .1.1.1h.5c-.1.1-.3.2-.4.3-.1 0-.1.1 0 .1 0 .1.1.3.1.4-.1-.1-.3-.2-.4-.3h-.1-.1c-.1.1-.2.2-.4.3.1-.2.1-.3.1-.4 0-.1 0-.1-.1-.2s-.2-.2-.4-.3h.5c.1 0 .1 0 .1-.1.3 0 .3-.1.4-.3m0-.3l-.1.3v.1c0 .1-.1.2-.1.3h-.2-.1-.4l.2.2.1.1c.1.1.2.1.2.2s-.1.2-.1.3v.1l-.2.3.2-.2.1-.1c.1-.1.2-.1.3-.2.1.1.2.1.3.2l.1.1.2.2v-.3-.1c0-.1-.1-.2-.1-.3.1-.1.2-.1.3-.2l.1-.1.2-.2h-.4H21.8c0-.1-.1-.2-.1-.3v-.1l-.2-.3z"/></g><g><path class="st3" d="M18.9 10.2l-.1-.1c-.1-.1-.2-.1-.3-.2-.1.1-.2.1-.2.2l-.3.1v-.1-.1c0-.1.1-.2.1-.3v-.1l-.2-.2-.1-.1-.1-.1h.7s.1 0 .1-.1.1-.2.1-.3v-.2s.1.2.1.3c0 .1.1.2.1.3 0 .1 0 .1.1.1H19.5l-.1.1-.1.1c-.1.1-.2.1-.3.2v.1c0 .1.1.2.1.3l.1.3-.3-.2z"/><path class="st1" d="M18.5 8.7c.1.2.1.3.1.4 0 .1 0 .1.1.1h.5c-.1.1-.3.2-.4.3-.1 0-.1.1 0 .1 0 .1.1.3.1.4-.1-.1-.3-.2-.4-.3h-.1-.1c-.1.1-.2.2-.4.3.1-.2.1-.3.1-.4 0-.1 0-.1-.1-.2s-.2-.2-.4-.3h.5c.1 0 .1 0 .1-.1.3 0 .4-.1.4-.3m0-.3l-.1.3v.1c0 .1-.1.2-.1.3h-.2-.1-.4l.2.2.1.1c.1.1.2.1.2.2s-.1.2-.1.3v.1l-.1.3.2-.2.1-.1c.1-.1.2-.1.2-.2.1.1.2.1.3.2l.1.1.2.2-.1-.3v-.1c0-.1-.1-.2-.1-.3.1-.1.2-.1.3-.2l.1-.1.2-.2H19 18.7c0-.1-.1-.2-.1-.3v-.1l-.1-.3z"/></g><g><path class="st3" d="M21.9 7.2l-.1-.1c-.1-.1-.2-.1-.3-.2-.1.1-.2.1-.2.2l-.2.2v-.1-.1c0-.1.1-.2.1-.3v-.1c-.1-.1-.2-.1-.2-.2l-.1-.1-.1-.1h.7s.1 0 .1-.1.1-.2.1-.3v-.2l.1.3c0 .1.1.2.1.3 0 .1 0 .1.1.1H22.6l-.1.1-.1.1c-.1.1-.2.1-.3.2v.1c0 .1.1.2.1.3l-.2.1-.1-.1z"/><path class="st1" d="M21.5 5.8c.1.2.1.3.1.4 0 .1 0 .1.1.1h.5c-.1.1-.3.2-.4.3-.1 0-.1.1 0 .1 0 .1.1.3.1.4-.1-.1-.3-.2-.4-.3h-.1-.1c0 .1-.1.2-.3.3.1-.2.1-.3.1-.4 0-.1 0-.1-.1-.2s-.2-.2-.4-.3h.5c.1 0 .1 0 .1-.1.2-.1.2-.2.3-.3m0-.4l-.1.3v.1c0 .1-.1.2-.1.3h-.2-.1-.4l.2.2.1.1c0 .1.1.2.1.2v.5l-.1.3.2-.2.1-.1c.1-.1.2-.1.3-.2.1.1.2.1.3.2l.1.1.2.2-.1-.3V7c0-.1-.1-.2-.1-.3.1-.1.2-.1.3-.2l.1-.1.2-.2h-.4H21.8c0-.1-.1-.2-.1-.3v-.1l-.2-.4z"/></g><g><path class="st3" d="M24.4 9.4l-.1-.1c-.1-.1-.2-.1-.3-.2-.1.1-.2.1-.2.2l-.2.2v-.1-.1c0-.1.1-.2.1-.3v-.1c-.1-.1-.2-.1-.2-.2l-.1-.1-.1-.1h.7s.1 0 .1-.1.1-.2.1-.3v-.2s.1.2.1.3c0 .1.1.2.1.3 0 .1 0 .1.1.1H25.1l-.1.1-.1.1c-.1.1-.2.1-.3.2v.1c0 .1.1.2.1.3l.1.3-.4-.3z"/><path class="st1" d="M24 8c.1.2.1.3.1.4 0 .1 0 .1.1.1h.5c-.1.1-.3.2-.4.3-.1 0-.1.1 0 .1 0 .1.1.3.1.4-.1-.1-.3-.2-.4-.3h-.1-.1c-.1.1-.2.2-.4.3.1-.2.1-.3.1-.4 0-.1 0-.1-.1-.2s-.2-.2-.4-.3h.5c.1 0 .1 0 .1-.1.3 0 .3-.2.4-.3m0-.4l-.1.3V8c0 .1-.1.2-.1.3h-.2-.1-.5l.2.2.1.1c.1.1.2.1.2.2s-.1.2-.1.3v.1l-.1.3.2-.2.1-.1c.1-.1.2-.1.2-.2.1.1.2.1.3.2l.1.1.2.2-.1-.3v-.1c0-.1-.1-.2-.1-.3.1-.1.2-.1.3-.2l.1-.1.4-.1h-.4H24.3c0-.1-.1-.2-.1-.3V8l-.2-.4z"/></g></svg>