<svg id="australia" xmlns="http://www.w3.org/2000/svg" viewBox="0 0 27 18"><style>.st0{fill:#f93}.st1{fill:#fff}.st2{fill:#128807}.st3{fill:#008}</style><path class="st0" d="M0 0h27v18H0z"/><path class="st1" d="M0 6h27v6H0z"/><path class="st2" d="M0 12h27v6H0z"/><circle class="st3" cx="-99" cy="-66" r="2.4"/><circle class="st1" cx="-99" cy="-66" r="2.1"/><circle class="st3" cx="-99" cy="-66" r=".4"/><g id="b"><g id="a"><ellipse transform="rotate(-82.501 -96.92 -65.73)" class="st3" cx="-96.9" cy="-65.7" rx=".1" ry=".1"/><path class="st3" d="M-99-63.9l.1-1.3-.1-.6-.1.6.1 1.3z"/></g><g transform="rotate(15)"><g id="a_1_"><ellipse transform="rotate(-67.5 -97.058 -65.195)" class="st3" cx="-97.1" cy="-65.2" rx=".1" ry=".1"/><path class="st3" d="M-99.5-64l.4-1.2.1-.6-.2.6-.3 1.2z"/></g></g></g><g id="c"><g id="b_1_"><g id="a_2_"><ellipse transform="rotate(-52.5 -97.328 -64.718)" class="st3" cx="-97.3" cy="-64.7" rx=".1" ry=".1"/><path class="st3" d="M-100.1-64.2l.7-1.1.2-.6-.4.5-.5 1.2z"/></g><g transform="rotate(30)"><g id="a_3_"><ellipse transform="rotate(-37.5 -97.715 -64.33)" class="st3" cx="-97.7" cy="-64.3" rx=".1" ry=".1"/><path class="st3" d="M-100.5-64.5l.9-.8.4-.5-.5.4-.8.9z"/></g></g></g></g><g id="d"><g id="b_2_"><g id="a_4_"><ellipse transform="rotate(-22.5 -98.192 -64.057)" class="st3" cx="-98.2" cy="-64.1" rx=".1" ry=".1"/><path class="st3" d="M-100.8-64.9l1.1-.6.5-.4-.6.2-1 .8z"/></g><g transform="rotate(15)"><g id="a_5_"><ellipse transform="rotate(-7.499 -98.746 -63.93)" class="st3" cx="-98.7" cy="-63.9" rx=".1" ry=".1"/><path class="st3" d="M-101-65.5l1.2-.3.6-.2-.6.1-1.2.4z"/></g></g></g><g id="c_1_"><g id="b_3_"><g id="a_6_"><ellipse transform="rotate(-82.501 -99.277 -63.921)" class="st3" cx="-99.3" cy="-63.9" rx=".1" ry=".1"/><path class="st3" d="M-101.1-66l1.3.1.6-.1-.6-.1-1.3.1z"/></g><g transform="rotate(60)"><g id="a_7_"><ellipse transform="rotate(-67.5 -99.802 -64.058)" class="st3" cx="-99.8" cy="-64.1" rx=".1" ry=".1"/><path class="st3" d="M-101-66.5l1.2.4.6.1-.6-.2-1.2-.3z"/></g></g></g></g></g><g id="b_4_"><g id="a_8_"><ellipse transform="rotate(-52.5 -100.273 -64.33)" class="st3" cx="-100.3" cy="-64.3" rx=".1" ry=".1"/><path class="st3" d="M-100.8-67.1l1.1.7.6.2-.5-.4-1.2-.5z"/></g><g transform="rotate(15)"><g id="a_9_"><ellipse transform="rotate(-37.5 -100.66 -64.718)" class="st3" cx="-100.7" cy="-64.7" rx=".1" ry=".1"/><path class="st3" d="M-100.5-67.5l.8.9.5.4-.4-.5-.9-.8z"/></g></g></g><g id="c_2_"><g id="b_5_"><g id="a_10_"><ellipse transform="rotate(-22.5 -100.935 -65.194)" class="st3" cx="-100.9" cy="-65.2" rx=".1" ry=".1"/><path class="st3" d="M-100.1-67.8l.6 1.1.4.5-.2-.6-.8-1z"/></g><g transform="rotate(30)"><g id="a_11_"><ellipse transform="rotate(-7.499 -101.103 -65.738)" class="st3" cx="-101.1" cy="-65.7" rx=".1" ry=".1"/><path class="st3" d="M-99.5-68l.3 1.2.2.6-.1-.6-.4-1.2z"/></g></g></g></g><g id="d_1_"><g id="b_6_"><g id="a_12_"><ellipse transform="rotate(-82.501 -101.085 -66.278)" class="st3" cx="-101.1" cy="-66.3" rx=".1" ry=".1"/><path class="st3" d="M-99-68.1l-.1 1.3.1.6.1-.6-.1-1.3z"/></g><g transform="rotate(15)"><g id="a_13_"><ellipse transform="rotate(-67.5 -100.938 -66.802)" class="st3" cx="-100.9" cy="-66.8" rx=".1" ry=".1"/><path class="st3" d="M-98.5-68l-.4 1.2-.1.6.2-.6.3-1.2z"/></g></g></g><g id="c_3_"><g id="b_7_"><g id="a_14_"><ellipse transform="rotate(-52.5 -100.66 -67.274)" class="st3" cx="-100.7" cy="-67.3" rx=".1" ry=".1"/><path class="st3" d="M-97.9-67.8l-.7 1.1-.2.6.4-.5.5-1.2z"/></g><g transform="rotate(120)"><g id="a_15_"><ellipse transform="rotate(-37.5 -100.272 -67.662)" class="st3" cx="-100.3" cy="-67.7" rx=".1" ry=".1"/><path class="st3" d="M-97.5-67.5l-.9.8-.4.5.5-.4.8-.9z"/></g></g></g></g></g><g id="b_8_"><g id="a_16_"><ellipse transform="rotate(-22.5 -99.799 -67.938)" class="st3" cx="-99.8" cy="-67.9" rx=".1" ry=".1"/><path class="st3" d="M-97.2-67.1l-1.1.6-.5.4.6-.2 1-.8z"/></g><g transform="rotate(15)"><g id="a_17_"><ellipse transform="rotate(-7.499 -99.295 -68.095)" class="st3" cx="-99.3" cy="-68.1" rx=".1" ry=".1"/><path class="st3" d="M-97-66.5l-1.2.3-.6.2.6-.1 1.2-.4z"/></g></g></g><g id="c_4_"><g id="b_9_"><g id="a_18_"><ellipse transform="rotate(-82.501 -98.729 -68.085)" class="st3" cx="-98.7" cy="-68.1" rx=".1" ry=".1"/><path class="st3" d="M-96.9-66l-1.3-.1-.6.1.6.1 1.3-.1z"/></g><g transform="rotate(30)"><g id="a_19_"><ellipse transform="rotate(-67.5 -98.195 -67.938)" class="st3" cx="-98.2" cy="-67.9" rx=".1" ry=".1"/><path class="st3" d="M-97-65.5l-1.2-.4-.6-.1.6.2 1.2.3z"/></g></g></g></g><g transform="translate(112.5 75)"><g id="d_2_"><g id="b_10_"><g id="a_20_"><ellipse transform="rotate(-52.5 -97.716 -67.662)" class="st3" cx="-97.7" cy="-67.7" rx=".1" ry=".1"/><path class="st3" d="M-97.2-64.9l-1.1-.7-.6-.2.5.4 1.2.5z"/></g><g transform="rotate(15)"><g id="a_21_"><ellipse transform="rotate(-37.5 -97.328 -67.274)" class="st3" cx="-97.3" cy="-67.3" rx=".1" ry=".1"/><path class="st3" d="M-97.5-64.5l-.8-.9-.5-.4.4.5.9.8z"/></g></g></g><g id="c_5_"><g id="b_11_"><g id="a_22_"><ellipse transform="rotate(-22.5 -97.055 -66.801)" class="st3" cx="-97.1" cy="-66.8" rx=".1" ry=".1"/><path class="st3" d="M-97.9-64.2l-.6-1.1-.4-.5.2.6.8 1z"/></g><g transform="rotate(-120)"><g id="a_23_"><ellipse transform="rotate(-7.499 -96.938 -66.287)" class="st3" cx="-96.9" cy="-66.3" rx=".1" ry=".1"/><path class="st3" d="M-98.5-64l-.3-1.2-.2-.6.1.6.4 1.2z"/></g></g></g></g></g></g></svg>