<svg id="Layer_1" xmlns="http://www.w3.org/2000/svg" viewBox="0 0 1141.312 600.312"><style>.st0{fill:#273476}.st1{fill:#fff}.st2{fill:#d0202d}.st3{fill:#ed2224}.st4{fill:none;stroke:#d1d3d4;stroke-width:7;stroke-miterlimit:10}</style><path class="st0" d="M.001 400.156v-200h288.508L0 55.902V544.41l288.509-144.254zM500.313 0h-388.51l388.51 194.255zM112.429 600h387.884V406.057zM0 0z"/><path class="st1" d="M500.313 600h40v.312h-40zM.001 200.156v40h540.312V0h-40v194.255L111.803 0H.001l400.314 200.156h-67.083L.001 33.541V0H0v55.902l288.509 144.254zM540.313 360.156H.001v40h288.508L0 544.41V600h.626l399.689-199.844h67.081L67.709 600h44.72l387.884-193.943V600h40z"/><path class="st2" d="M540.313 600h54.999v.312h-54.999zM.001 240.156v120h540.312V600h54.999V0h-54.999v240.156z"/><path class="st2" d="M400.315 400.156L.626 600h67.083l399.687-199.844zM333.232 200.156h67.083L.001 0v33.541z"/><path class="st1" d="M595.312 600h10v.312h-10z"/><g><path class="st3" d="M1141.312 0h-445v112.5h51.25v131.25h131.25v112.5h-131.25V487.5h-51.25V600h445z"/><path class="st1" d="M747.562 487.5V356.25h131.25v-112.5h-131.25V112.5h-51.25v375z"/></g><path class="st4" d="M643.625 0v600.312"/></svg>