<svg id="canada" xmlns="http://www.w3.org/2000/svg" viewBox="0 0 30 20"><style>.st0{fill:#fff}.st1{fill:#eb2227}</style><path class="st0" d="M8.7 3.9v12.8h12.7V3.9H8.7zM20 10.6c-.7.6-1.4 1.1-2.1 1.7-.3.3-.3.3-.2.7 0 .1.1.2.1.3 0 .1 0 .1-.1.1-.4-.1-.7-.1-1.1-.2-.4-.1-.7-.1-1.1-.1-.2 0-.2.1-.2.2v.1c0 .7 0 1.5.1 2.2 0 .1 0 .2-.2.2-.3 0-.3.1-.3-.3s0-.9.1-1.3v-.8c0-.2-.1-.3-.3-.3-.6.1-1.3.2-1.9.3h-.3c-.1 0-.1 0-.1-.1.1-.2.1-.3.2-.5s0-.3-.1-.4c-.7-.6-1.5-1.2-2.2-1.8-.1-.1-.1-.1 0-.2s.2-.1.4-.2c.1-.1.2-.1.1-.3-.1-.4-.2-.8-.3-1.3-.1-.3-.1-.3.2-.2.3.1.7.1 1 .2.2 0 .3 0 .4-.2 0-.1.1-.3.1-.4 0-.1.1-.1.1 0 .3.4.7.7 1 1.1.1.1.2.2.3.1.1-.1.1-.2.1-.3-.1-.8-.3-1.6-.4-2.4v-.1h.1c.2.1.3.2.5.3.2.1.4.1.5-.2.3-.5.5-.9.8-1.4 0 0 0-.1.1-.1s.1.1.1.1c.3.5.5.9.8 1.4.1.2.2.3.5.1.2-.1.3-.2.5-.3 0 0 .1-.1.1 0v.1c-.1.8-.3 1.6-.4 2.4 0 .1 0 .2.1.3.1.1.2 0 .3-.1.3-.4.7-.7 1-1.1L18 8s0 .1.1.1c0 .1.1.3.1.4.1.2.1.2.3.2.3-.1.7-.1 1-.2h.2c.1 0 .1 0 .1.1-.1.3-.2.6-.3 1 0 .2-.1.3-.1.5 0 .1 0 .2.1.2.1.1.3.1.4.2.2 0 .2 0 .1.1z"/><path class="st1" d="M2.3 3.9v12.8h6.4V3.9H2.3zM27.8 3.9h-6.4v12.8h6.4V3.9zM20 10.4c-.1-.1-.3-.1-.4-.2-.1 0-.1-.1-.1-.2 0-.2.1-.3.1-.5.1-.3.2-.6.3-1 0-.1 0-.1-.1-.1h-.2c-.3.1-.7.1-1 .2-.2 0-.3 0-.3-.2 0-.1-.1-.3-.1-.4 0 0 0-.1-.1-.1-.1.1-.1.1-.2.1-.3.4-.7.7-1 1.1-.1.1-.2.2-.3.1-.1-.1-.1-.2-.1-.3.1-.8.3-1.6.4-2.4v-.1h-.1c-.2.1-.3.2-.5.3-.2.1-.4.1-.5-.1-.3-.5-.5-.9-.8-1.4 0 0 0-.1-.1-.1l-.1.1c-.3.5-.5.9-.8 1.4-.1.2-.2.3-.5.2-.2-.1-.3-.2-.5-.3 0 0-.1-.1-.1 0v.1c.1.8.3 1.6.4 2.4 0 .1 0 .2-.1.3-.1.1-.2 0-.3-.1-.3-.4-.7-.7-1-1.1-.1-.1-.1-.1-.1 0 .2.1.2.2.2.4-.1.2-.1.3-.4.2-.3-.1-.7-.1-1-.2-.3-.1-.3-.1-.2.2.1.4.2.8.3 1.3 0 .1 0 .2-.1.3-.1.1-.2.1-.4.2-.1.1-.1.1 0 .2.7.6 1.5 1.2 2.2 1.8.1.1.2.3.1.4-.1.2-.1.3-.2.5 0 .1 0 .1.1.1h.3c.6-.1 1.3-.2 1.9-.3.2 0 .3 0 .3.3v.8c0 .4 0 .9-.1 1.3 0 .3 0 .3.3.3.1 0 .2 0 .2-.2 0-.7 0-1.5-.1-2.2v-.1c0-.2.1-.2.2-.2.4 0 .7.1 1.1.1.4.1.7.1 1.1.2.1 0 .1 0 .1-.1s-.1-.2-.1-.3c-.1-.4-.1-.4.2-.7.7-.6 1.4-1.1 2.1-1.7.2-.2.2-.2.1-.3z"/></svg>