<svg id="australia" xmlns="http://www.w3.org/2000/svg" width="36.023" height="18.003" viewBox="0 0 36.023 18.003"><defs><style>.cls-1{fill:#ce142b}.cls-2{fill:#fefdfd}.cls-3{fill:#00247d}</style></defs><title>flag-uk</title><g id="aRiJEB.tif"><path class="cls-1" d="M16.211 0h3.6v7.035c0 .137.035.169.17.169Q28 7.2 36.015 7.2v3.6H19.979c-.135 0-.171.032-.17.169q.007 3.518 0 7.035h-3.6v-7.035c0-.137-.035-.169-.17-.169H.008V7.2h16.036c.135 0 .171-.032.17-.169Q16.208 3.518 16.211 0z"/><path class="cls-2" d="M16.211 0v7.035c0 .137-.035.169-.17.169Q8.026 7.2.008 7.2V6H7.97c-.058-.033-.07-.044-.092-.053L.128 2.074a.112.112 0 0 0-.12-.034v-.69c.05.022.1.042.15.066l9.02 4.512A.669.669 0 0 0 9.491 6h2.339a.192.192 0 0 0 .133-.02l-.142-.072L.189.09A.365.365 0 0 1 .038 0h4.021c.033.021.065.044.1.061q5.36 2.682 10.721 5.362a.14.14 0 0 0 .131.034V0h1.2zM19.812 18v-7.035c0-.137.035-.169.17-.169Q28 10.8 36.015 10.8V12h-7.962l.091.054q3.875 1.938 7.751 3.873a.112.112 0 0 0 .119.033v.69c-.05-.022-.1-.042-.15-.066l-9.02-4.512a.669.669 0 0 0-.313-.072h-2.339a.19.19 0 0 0-.133.02l.141.08 11.633 5.818a.365.365 0 0 1 .151.09h-4.02c-.033-.021-.065-.044-.1-.061Q26.5 15.26 21.143 12.581a.14.14 0 0 0-.131-.034V18h-1.2zM.008 10.8h16.036c.135 0 .171.032.17.169q-.007 3.518 0 7.035h-1.2V12.52c-.065.03-.105.047-.144.066q-4.859 2.429-9.717 4.86c-.369.183-.741.354-1.094.554h-1.35c.052-.029.1-.06.156-.087l11.646-5.823c.042-.021.084-.044.125-.066L14.63 12h-2.437a.729.729 0 0 0-.343.08L.176 17.92a.306.306 0 0 0-.138.08c-.062-.027-.028-.081-.028-.12v-1.92a.163.163 0 0 0 .146-.047l7.655-3.824.162-.087H.008V10.8zM36.015 7.2H19.979c-.135 0-.171-.032-.17-.169q.007-3.518 0-7.035h1.2v5.487c.065-.03.105-.047.144-.066q4.859-2.429 9.717-4.86c.365-.183.737-.351 1.09-.557h1.35c-.052.029-.1.06-.156.087L21.512 5.91c-.042.021-.083.044-.125.066l.005.024h2.437a.729.729 0 0 0 .343-.08Q30.009 3 35.847.083A.306.306 0 0 0 35.985 0c.062.027.028.081.028.12v1.92a.163.163 0 0 0-.146.047l-7.656 3.827L28.05 6h7.965v1.2z"/><path class="cls-3" d="M21.012 18v-5.453a.14.14 0 0 1 .131.034l10.721 5.361c.035.017.066.041.1.061H21.012zM4.059 18c.353-.205.725-.374 1.09-.557q4.858-2.432 9.717-4.86c.039-.02.08-.037.144-.066V18H4.059zM31.964 0c-.353.205-.725.374-1.09.557q-4.858 2.432-9.717 4.86c-.039.02-.08.037-.144.066V0h10.951zM15.011 0v5.456a.14.14 0 0 1-.131-.034Q9.519 2.743 4.159.061c-.035-.017-.067-.04-.1-.061h10.952z"/><path class="cls-1" d="M35.985 0a.306.306 0 0 1-.138.083Q30.01 3 24.172 5.923a.729.729 0 0 1-.343.08h-2.437l-.006-.025c.042-.022.083-.045.125-.066L33.158.087c.053-.027.1-.058.156-.087h2.67zM.038 18a.306.306 0 0 1 .138-.08l11.675-5.84a.729.729 0 0 1 .343-.08h2.436l.006.025c-.042.022-.083.045-.125.066L2.865 17.917c-.053.027-.1.058-.156.087H.038z"/><path class="cls-3" d="M.008 2.04a.112.112 0 0 1 .119.033l7.751 3.874c.022.009.034.02.092.053H.008V2.04zM36.015 6H28.05c.08-.043.12-.066.162-.087l7.657-3.825a.163.163 0 0 1 .146-.047V6zM.008 12h7.965c-.08.043-.12.066-.162.087Q3.983 14 .154 15.916a.163.163 0 0 1-.146.047V12zM36.015 15.963a.112.112 0 0 1-.119-.033q-3.876-1.935-7.751-3.873l-.091-.054h7.961v3.961z"/><path class="cls-1" d="M35.985 18a.365.365 0 0 0-.151-.09L24.2 12.1l-.142-.072a.19.19 0 0 1 .134-.028h2.339a.669.669 0 0 1 .314.074q4.509 2.258 9.02 4.512c.049.024.1.044.15.066v1.26c-.003.03.034.079-.03.088zM.038 0a.365.365 0 0 0 .151.09l11.633 5.818.142.072a.192.192 0 0 1-.133.02H9.492a.669.669 0 0 1-.314-.074Q4.669 3.67.158 1.416c-.049-.024-.1-.044-.15-.066V.089C.01.061-.026.011.038 0z"/></g></svg>