<?xml version="1.0" encoding="utf-8"?>
<!-- Generator: Adobe Illustrator 19.2.1, SVG Export Plug-In . SVG Version: 6.00 Build 0)  -->
<svg version="1.1" id="netherlands" xmlns="http://www.w3.org/2000/svg" xmlns:xlink="http://www.w3.org/1999/xlink" x="0px"
	 y="0px" viewBox="0 0 21 14" style="enable-background:new 0 0 21 14;" xml:space="preserve">
<style type="text/css">
	.st0{fill:#FEFEFE;}
	.st1{fill:#AD1C28;}
	.st2{fill:#21468A;}
</style>
<g id="netherlands_1_">
	<g>
		<path class="st0" d="M21,4.7c0,1.6,0,3.1,0,4.7c0,0,0,0-0.1,0c-7,0-13.9,0-20.9,0c0,0,0,0-0.1,0c0-1.6,0-3.1,0-4.7c0,0,0,0,0.1,0
			C7,4.7,14,4.7,21,4.7C21,4.7,21,4.7,21,4.7z"/>
		<path class="st1" d="M21,4.7C21,4.7,21,4.7,21,4.7c-7,0-14,0-20.9,0c0,0,0,0-0.1,0C0,3.1,0,1.6,0,0c0,0,0,0,0,0C7,0,14,0,21,0
			c0,0,0,0,0,0C21,1.6,21,3.1,21,4.7z"/>
		<path class="st2" d="M0,9.3C0,9.3,0,9.3,0,9.3c7,0,14,0,20.9,0c0,0,0,0,0.1,0c0,1.5,0,3.1,0,4.6c0,0,0,0,0,0C14,14,7,14,0,14
			c0,0,0,0,0,0C0,12.4,0,10.9,0,9.3z"/>
	</g>
</g>
</svg>
