<svg id="usa" xmlns="http://www.w3.org/2000/svg" viewBox="-496 375 30 20"><style>.st0{fill:#f6f8f9}.st1{fill:#ea2127}.st2{fill:#212e60}.st3{fill-rule:evenodd;clip-rule:evenodd;fill:#f6f8f9}</style><path class="st0" d="M-493.5 378.4h25.5v13.4h-25.5z"/><path class="st1" d="M-493.5 390.8h25.5v1h-25.5zM-493.5 388.7h25.5v1h-25.5zM-493.5 386.7h25.5v1h-25.5zM-493.5 384.6h25.5v1h-25.5zM-493.5 382.5h25.5v1h-25.5zM-493.5 380.5h25.5v1h-25.5zM-493.5 378.4h25.5v1h-25.5z"/><path class="st2" d="M-493.5 378.4h10.2v7.2h-10.2z"/><g><path class="st3" d="M-484.4 384.6c0 .1.1.2.1.2s0 .1.1.1h.2c-.1.1-.1.1-.2.1v.1c0 .1.1.2.1.2-.1-.1-.1-.1-.2-.1h-.1c-.1 0-.1.1-.2.1 0-.1 0-.2.1-.2v-.1c-.1 0-.1-.1-.2-.1h.2s.1 0 .1-.1c-.1 0-.1-.1 0-.2zM-485.6 384.6c0 .1.1.2.1.2s0 .1.1.1h.2c-.1.1-.1.1-.2.1v.1c0 .1.1.2.1.2-.1-.1-.1-.1-.2-.1h-.1c-.1 0-.1.1-.2.1 0-.1 0-.2.1-.2v-.1c-.1 0-.1-.1-.2-.1h.2s.1 0 .1-.1v-.2zM-486.7 384.6c0 .1.1.2.1.2s0 .1.1.1h.2c-.1.1-.1.1-.2.1v.1c0 .1.1.2.1.2-.1-.1-.1-.1-.2-.1h-.1c-.1 0-.1.1-.2.1 0-.1 0-.2.1-.2v-.1c-.1 0-.1-.1-.2-.1h.2s.1 0 .1-.1c-.1 0 0-.1 0-.2zM-487.8 384.6c0 .1.1.2.1.2s0 .1.1.1h.2c-.1.1-.1.1-.2.1v.1c0 .1.1.2.1.2-.1-.1-.1-.1-.2-.1h-.1c-.1 0-.1.1-.2.1 0-.1 0-.2.1-.2v-.1c-.1 0-.1-.1-.2-.1h.2s.1 0 .1-.1c-.1 0-.1-.1 0-.2zM-489 384.6c0 .1.1.2.1.2s0 .1.1.1h.2c-.1.1-.1.1-.2.1v.1c0 .1.1.2.1.2-.1-.1-.1-.1-.2-.1h-.1c-.1 0-.1.1-.2.1 0-.1 0-.2.1-.2v-.1c-.1 0-.1-.1-.2-.1h.2s.1 0 .1-.1v-.2zM-490.1 384.6c0 .1.1.2.1.2s0 .1.1.1h.2c-.1.1-.1.1-.2.1v.1c0 .1.1.2.1.2-.1-.1-.1-.1-.2-.1h-.1c-.1 0-.1.1-.2.1 0-.1 0-.2.1-.2v-.1c-.1 0-.1-.1-.2-.1h.2s.1 0 .1-.1c-.1 0 0-.1 0-.2zM-491.2 384.6c0 .1.1.2.1.2s0 .1.1.1h.2c-.1.1-.1.1-.2.1v.1c0 .1.1.2.1.2-.1-.1-.1-.1-.2-.1h-.1c-.1 0-.1.1-.2.1 0-.1 0-.2.1-.2v-.1c-.1 0-.1-.1-.2-.1h.2s.1 0 .1-.1c-.1 0-.1-.1 0-.2zM-492.4 384.6c0 .1.1.2.1.2s0 .1.1.1h.2c-.1.1-.1.1-.2.1v.1c0 .1.1.2.1.2-.1-.1-.1-.1-.2-.1h-.1c-.1 0-.1.1-.2.1 0-.1 0-.2.1-.2v-.1c-.1 0-.1-.1-.2-.1h.2s.1 0 .1-.1v-.2z"/><g><path class="st3" d="M-484.4 382.2c0 .1.1.2.1.2s0 .1.1.1h.2c-.1.1-.1.1-.2.1v.1c0 .1.1.2.1.2-.1-.1-.1-.1-.2-.1h-.1c-.1 0-.1.1-.2.1 0-.1 0-.2.1-.2v-.1c-.1 0-.1-.1-.2-.1h.2s.1 0 .1-.1c-.1 0-.1-.1 0-.2zM-485.6 382.2c0 .1.1.2.1.2s0 .1.1.1h.2c-.1.1-.1.1-.2.1v.1c0 .1.1.2.1.2-.1-.1-.1-.1-.2-.1h-.1c-.1 0-.1.1-.2.1 0-.1 0-.2.1-.2v-.1c-.1 0-.1-.1-.2-.1h.2s.1 0 .1-.1v-.2zM-486.7 382.2c0 .1.1.2.1.2s0 .1.1.1h.2c-.1.1-.1.1-.2.1v.1c0 .1.1.2.1.2-.1-.1-.1-.1-.2-.1h-.1c-.1 0-.1.1-.2.1 0-.1 0-.2.1-.2v-.1c-.1 0-.1-.1-.2-.1h.2s.1 0 .1-.1c-.1 0 0-.1 0-.2zM-487.8 382.2c0 .1.1.2.1.2s0 .1.1.1h.2c-.1.1-.1.1-.2.1v.1c0 .1.1.2.1.2-.1-.1-.1-.1-.2-.1h-.1c-.1 0-.1.1-.2.1 0-.1 0-.2.1-.2v-.1c-.1 0-.1-.1-.2-.1h.2s.1 0 .1-.1c-.1 0-.1-.1 0-.2zM-489 382.2c0 .1.1.2.1.2s0 .1.1.1h.2c-.1.1-.1.1-.2.1v.1c0 .1.1.2.1.2-.1-.1-.1-.1-.2-.1h-.1c-.1 0-.1.1-.2.1 0-.1 0-.2.1-.2v-.1c-.1 0-.1-.1-.2-.1h.2s.1 0 .1-.1v-.2zM-490.1 382.2c0 .1.1.2.1.2s0 .1.1.1h.2c-.1.1-.1.1-.2.1v.1c0 .1.1.2.1.2-.1-.1-.1-.1-.2-.1h-.1c-.1 0-.1.1-.2.1 0-.1 0-.2.1-.2v-.1c-.1 0-.1-.1-.2-.1h.2s.1 0 .1-.1c-.1 0 0-.1 0-.2zM-491.2 382.2c0 .1.1.2.1.2s0 .1.1.1h.2c-.1.1-.1.1-.2.1v.1c0 .1.1.2.1.2-.1-.1-.1-.1-.2-.1h-.1c-.1 0-.1.1-.2.1 0-.1 0-.2.1-.2v-.1c-.1 0-.1-.1-.2-.1h.2s.1 0 .1-.1c-.1 0-.1-.1 0-.2zM-492.4 382.2c0 .1.1.2.1.2s0 .1.1.1h.2c-.1.1-.1.1-.2.1v.1c0 .1.1.2.1.2-.1-.1-.1-.1-.2-.1h-.1c-.1 0-.1.1-.2.1 0-.1 0-.2.1-.2v-.1c-.1 0-.1-.1-.2-.1h.2s.1 0 .1-.1v-.2z"/></g><g><path class="st3" d="M-484.4 379.8c0 .1.1.2.1.2s0 .1.1.1h.2c-.1.1-.1.1-.2.1v.1c0 .1.1.2.1.2-.1-.1-.1-.1-.2-.1h-.1c-.1 0-.1.1-.2.1 0-.1 0-.2.1-.2v-.1c-.1 0-.1-.1-.2-.1h.2s.1 0 .1-.1c-.1-.1-.1-.1 0-.2zM-485.6 379.8c0 .1.1.2.1.2s0 .1.1.1h.2c-.1.1-.1.1-.2.1v.1c0 .1.1.2.1.2-.1-.1-.1-.1-.2-.1h-.1c-.1 0-.1.1-.2.1 0-.1 0-.2.1-.2v-.1c-.1 0-.1-.1-.2-.1h.2s.1 0 .1-.1v-.2zM-486.7 379.8c0 .1.1.2.1.2s0 .1.1.1h.2c-.1.1-.1.1-.2.1v.1c0 .1.1.2.1.2-.1-.1-.1-.1-.2-.1h-.1c-.1 0-.1.1-.2.1 0-.1 0-.2.1-.2v-.1c-.1 0-.1-.1-.2-.1h.2s.1 0 .1-.1c-.1-.1 0-.1 0-.2zM-487.8 379.8c0 .1.1.2.1.2s0 .1.1.1h.2c-.1.1-.1.1-.2.1v.1c0 .1.1.2.1.2-.1-.1-.1-.1-.2-.1h-.1c-.1 0-.1.1-.2.1 0-.1 0-.2.1-.2v-.1c-.1 0-.1-.1-.2-.1h.2s.1 0 .1-.1c-.1-.1-.1-.1 0-.2zM-489 379.8c0 .1.1.2.1.2s0 .1.1.1h.2c-.1.1-.1.1-.2.1v.1c0 .1.1.2.1.2-.1-.1-.1-.1-.2-.1h-.1c-.1 0-.1.1-.2.1 0-.1 0-.2.1-.2v-.1c-.1 0-.1-.1-.2-.1h.2s.1 0 .1-.1v-.2zM-490.1 379.8c0 .1.1.2.1.2s0 .1.1.1h.2c-.1.1-.1.1-.2.1v.1c0 .1.1.2.1.2-.1-.1-.1-.1-.2-.1h-.1c-.1 0-.1.1-.2.1 0-.1 0-.2.1-.2v-.1c-.1 0-.1-.1-.2-.1h.2s.1 0 .1-.1c-.1-.1 0-.1 0-.2zM-491.2 379.8c0 .1.1.2.1.2s0 .1.1.1h.2c-.1.1-.1.1-.2.1v.1c0 .1.1.2.1.2-.1-.1-.1-.1-.2-.1h-.1c-.1 0-.1.1-.2.1 0-.1 0-.2.1-.2v-.1c-.1 0-.1-.1-.2-.1h.2s.1 0 .1-.1c-.1-.1-.1-.1 0-.2zM-492.4 379.8c0 .1.1.2.1.2s0 .1.1.1h.2c-.1.1-.1.1-.2.1v.1c0 .1.1.2.1.2-.1-.1-.1-.1-.2-.1h-.1c-.1 0-.1.1-.2.1 0-.1 0-.2.1-.2v-.1c-.1 0-.1-.1-.2-.1h.2s.1 0 .1-.1v-.2z"/></g><g><path class="st3" d="M-485 378.6c0 .1.1.2.1.2s0 .1.1.1h.2c-.1.1-.1.1-.2.1v.1c0 .1.1.2.1.2-.1-.1-.1-.1-.2-.1h-.1c-.1 0-.1.1-.2.1 0-.1 0-.2.1-.2v-.1c-.1 0-.1-.1-.2-.1h.2s.1 0 .1-.1c-.1-.1 0-.1 0-.2zM-483.9 378.6c0 .1.1.2.1.2s0 .1.1.1h.2c-.1.1-.1.1-.2.1v.1c0 .1.1.2.1.2-.1-.1-.1-.1-.2-.1h-.1c-.1 0-.1.1-.2.1 0-.1 0-.2.1-.2v-.1c-.1 0-.1-.1-.2-.1h.2s.1 0 .1-.1v-.2zM-486.1 378.6c0 .1.1.2.1.2s0 .1.1.1h.2c-.1.1-.1.1-.2.1v.1c0 .1.1.2.1.2-.1-.1-.1-.1-.2-.1h-.1c-.1 0-.1.1-.2.1 0-.1 0-.2.1-.2v-.1c-.1 0-.1-.1-.2-.1h.2s.1 0 .1-.1c-.1-.1-.1-.1 0-.2zM-487.3 378.6c0 .1.1.2.1.2s0 .1.1.1h.2c-.1.1-.1.1-.2.1v.1c0 .1.1.2.1.2-.1-.1-.1-.1-.2-.1h-.1c-.1 0-.1.1-.2.1 0-.1 0-.2.1-.2v-.1c-.1 0-.1-.1-.2-.1h.2s.1 0 .1-.1v-.2zM-488.4 378.6c0 .1.1.2.1.2s0 .1.1.1h.2c-.1.1-.1.1-.2.1v.1c0 .1.1.2.1.2-.1-.1-.1-.1-.2-.1h-.1c-.1 0-.1.1-.2.1 0-.1 0-.2.1-.2v-.1c-.1 0-.1-.1-.2-.1h.2s.1 0 .1-.1c-.1-.1 0-.1 0-.2zM-489.5 378.6c0 .1.1.2.1.2s0 .1.1.1h.2c-.1.1-.1.1-.2.1v.1c0 .1.1.2.1.2-.1-.1-.1-.1-.2-.1h-.1c-.1 0-.1.1-.2.1 0-.1 0-.2.1-.2v-.1c-.1 0-.1-.1-.2-.1h.2s.1 0 .1-.1c-.1-.1-.1-.1 0-.2zM-490.7 378.6c0 .1.1.2.1.2s0 .1.1.1h.2c-.1.1-.1.1-.2.1v.1c0 .1.1.2.1.2-.1-.1-.1-.1-.2-.1h-.1c-.1 0-.1.1-.2.1 0-.1 0-.2.1-.2v-.1c-.1 0-.1-.1-.2-.1h.2s.1 0 .1-.1v-.2zM-491.8 378.6c0 .1.1.2.1.2s0 .1.1.1h.2c-.1.1-.1.1-.2.1v.1c0 .1.1.2.1.2-.1-.1-.1-.1-.2-.1h-.1c-.1 0-.1.1-.2.1 0-.1 0-.2.1-.2v-.1c-.1 0-.1-.1-.2-.1h.2s.1 0 .1-.1c-.1-.1 0-.1 0-.2zM-492.9 378.6c0 .1.1.2.1.2s0 .1.1.1h.2c-.1.1-.1.1-.2.1v.1c0 .1.1.2.1.2-.1-.1-.1-.1-.2-.1h-.1c-.1 0-.1.1-.2.1 0-.1 0-.2.1-.2v-.1c-.1 0-.1-.1-.2-.1h.2s.1 0 .1-.1c-.1-.1-.1-.1 0-.2z"/></g><g><path class="st3" d="M-485 381c0 .1.1.2.1.2s0 .1.1.1h.2c-.1.1-.1.1-.2.1v.1c0 .1.1.2.1.2-.1-.1-.1-.1-.2-.1h-.1c-.1 0-.1.1-.2.1 0-.1 0-.2.1-.2v-.1c-.1 0-.1-.1-.2-.1h.2s.1 0 .1-.1c-.1-.1 0-.1 0-.2zM-483.9 381c0 .1.1.2.1.2s0 .1.1.1h.2c-.1.1-.1.1-.2.1v.1c0 .1.1.2.1.2-.1-.1-.1-.1-.2-.1h-.1c-.1 0-.1.1-.2.1 0-.1 0-.2.1-.2v-.1c-.1 0-.1-.1-.2-.1h.2s.1 0 .1-.1v-.2zM-486.1 381c0 .1.1.2.1.2s0 .1.1.1h.2c-.1.1-.1.1-.2.1v.1c0 .1.1.2.1.2-.1-.1-.1-.1-.2-.1h-.1c-.1 0-.1.1-.2.1 0-.1 0-.2.1-.2v-.1c-.1 0-.1-.1-.2-.1h.2s.1 0 .1-.1c-.1-.1-.1-.1 0-.2zM-487.3 381c0 .1.1.2.1.2s0 .1.1.1h.2c-.1.1-.1.1-.2.1v.1c0 .1.1.2.1.2-.1-.1-.1-.1-.2-.1h-.1c-.1 0-.1.1-.2.1 0-.1 0-.2.1-.2v-.1c-.1 0-.1-.1-.2-.1h.2s.1 0 .1-.1v-.2zM-488.4 381c0 .1.1.2.1.2s0 .1.1.1h.2c-.1.1-.1.1-.2.1v.1c0 .1.1.2.1.2-.1-.1-.1-.1-.2-.1h-.1c-.1 0-.1.1-.2.1 0-.1 0-.2.1-.2v-.1c-.1 0-.1-.1-.2-.1h.2s.1 0 .1-.1c-.1-.1 0-.1 0-.2zM-489.5 381c0 .1.1.2.1.2s0 .1.1.1h.2c-.1.1-.1.1-.2.1v.1c0 .1.1.2.1.2-.1-.1-.1-.1-.2-.1h-.1c-.1 0-.1.1-.2.1 0-.1 0-.2.1-.2v-.1c-.1 0-.1-.1-.2-.1h.2s.1 0 .1-.1c-.1-.1-.1-.1 0-.2zM-490.7 381c0 .1.1.2.1.2s0 .1.1.1h.2c-.1.1-.1.1-.2.1v.1c0 .1.1.2.1.2-.1-.1-.1-.1-.2-.1h-.1c-.1 0-.1.1-.2.1 0-.1 0-.2.1-.2v-.1c-.1 0-.1-.1-.2-.1h.2s.1 0 .1-.1v-.2zM-491.8 381c0 .1.1.2.1.2s0 .1.1.1h.2c-.1.1-.1.1-.2.1v.1c0 .1.1.2.1.2-.1-.1-.1-.1-.2-.1h-.1c-.1 0-.1.1-.2.1 0-.1 0-.2.1-.2v-.1c-.1 0-.1-.1-.2-.1h.2s.1 0 .1-.1c-.1-.1 0-.1 0-.2zM-492.9 381c0 .1.1.2.1.2s0 .1.1.1h.2c-.1.1-.1.1-.2.1v.1c0 .1.1.2.1.2-.1-.1-.1-.1-.2-.1h-.1c-.1 0-.1.1-.2.1 0-.1 0-.2.1-.2v-.1c-.1 0-.1-.1-.2-.1h.2s.1 0 .1-.1c-.1-.1-.1-.1 0-.2z"/></g><g><path class="st3" d="M-485 383.4c0 .1.1.2.1.2s0 .1.1.1h.2c-.1.1-.1.1-.2.1v.1c0 .1.1.2.1.2-.1-.1-.1-.1-.2-.1h-.1c-.1 0-.1.1-.2.1 0-.1 0-.2.1-.2v-.1c-.1 0-.1-.1-.2-.1h.2s.1 0 .1-.1c-.1 0 0-.1 0-.2zM-483.9 383.4c0 .1.1.2.1.2s0 .1.1.1h.2c-.1.1-.1.1-.2.1v.1c0 .1.1.2.1.2-.1-.1-.1-.1-.2-.1h-.1c-.1 0-.1.1-.2.1 0-.1 0-.2.1-.2v-.1c-.1 0-.1-.1-.2-.1h.2s.1 0 .1-.1v-.2zM-486.1 383.4c0 .1.1.2.1.2s0 .1.1.1h.2c-.1.1-.1.1-.2.1v.1c0 .1.1.2.1.2-.1-.1-.1-.1-.2-.1h-.1c-.1 0-.1.1-.2.1 0-.1 0-.2.1-.2v-.1c-.1 0-.1-.1-.2-.1h.2s.1 0 .1-.1c-.1 0-.1-.1 0-.2zM-487.3 383.4c0 .1.1.2.1.2s0 .1.1.1h.2c-.1.1-.1.1-.2.1v.1c0 .1.1.2.1.2-.1-.1-.1-.1-.2-.1h-.1c-.1 0-.1.1-.2.1 0-.1 0-.2.1-.2v-.1c-.1 0-.1-.1-.2-.1h.2s.1 0 .1-.1v-.2zM-488.4 383.4c0 .1.1.2.1.2s0 .1.1.1h.2c-.1.1-.1.1-.2.1v.1c0 .1.1.2.1.2-.1-.1-.1-.1-.2-.1h-.1c-.1 0-.1.1-.2.1 0-.1 0-.2.1-.2v-.1c-.1 0-.1-.1-.2-.1h.2s.1 0 .1-.1c-.1 0 0-.1 0-.2zM-489.5 383.4c0 .1.1.2.1.2s0 .1.1.1h.2c-.1.1-.1.1-.2.1v.1c0 .1.1.2.1.2-.1-.1-.1-.1-.2-.1h-.1c-.1 0-.1.1-.2.1 0-.1 0-.2.1-.2v-.1c-.1 0-.1-.1-.2-.1h.2s.1 0 .1-.1c-.1 0-.1-.1 0-.2zM-490.7 383.4c0 .1.1.2.1.2s0 .1.1.1h.2c-.1.1-.1.1-.2.1v.1c0 .1.1.2.1.2-.1-.1-.1-.1-.2-.1h-.1c-.1 0-.1.1-.2.1 0-.1 0-.2.1-.2v-.1c-.1 0-.1-.1-.2-.1h.2s.1 0 .1-.1v-.2zM-491.8 383.4c0 .1.1.2.1.2s0 .1.1.1h.2c-.1.1-.1.1-.2.1v.1c0 .1.1.2.1.2-.1-.1-.1-.1-.2-.1h-.1c-.1 0-.1.1-.2.1 0-.1 0-.2.1-.2v-.1c-.1 0-.1-.1-.2-.1h.2s.1 0 .1-.1c-.1 0 0-.1 0-.2zM-492.9 383.4c0 .1.1.2.1.2s0 .1.1.1h.2c-.1.1-.1.1-.2.1v.1c0 .1.1.2.1.2-.1-.1-.1-.1-.2-.1h-.1c-.1 0-.1.1-.2.1 0-.1 0-.2.1-.2v-.1c-.1 0-.1-.1-.2-.1h.2s.1 0 .1-.1c-.1 0-.1-.1 0-.2z"/></g></g></svg>