<?xml version="1.0" encoding="utf-8"?>
<!-- Generator: Adobe Illustrator 16.0.4, SVG Export Plug-In . SVG Version: 6.00 Build 0)  -->
<!DOCTYPE svg PUBLIC "-//W3C//DTD SVG 1.1//EN" "http://www.w3.org/Graphics/SVG/1.1/DTD/svg11.dtd">
<svg version="1.1" id="Layer_1" xmlns="http://www.w3.org/2000/svg" xmlns:xlink="http://www.w3.org/1999/xlink" x="0px" y="0px"
	 width="10px" height="10px" viewBox="0 0 10 10" enable-background="new 0 0 10 10" xml:space="preserve">
<g>
	<g>
		<path fill="#818181" d="M8.213,0.844h-0.56V0.482C7.653,0.216,7.438,0,7.17,0C6.904,0,6.688,0.216,6.688,0.482v0.362H5.08V0.482
			C5.08,0.216,4.863,0,4.596,0C4.33,0,4.114,0.216,4.114,0.482v0.362H2.516V0.482C2.516,0.216,2.3,0,2.033,0
			C1.766,0,1.55,0.216,1.55,0.482v0.362H1.001C0.448,0.844,0,1.293,0,1.846v7.153C0,9.553,0.448,10,1.001,10h7.212
			c0.553,0,1-0.447,1-1.001V1.846C9.213,1.293,8.766,0.844,8.213,0.844z M8.226,8.916H0.987V1.921H1.55v0.331
			c0,0.267,0.216,0.483,0.482,0.483c0.267,0,0.483-0.216,0.483-0.483V1.921h1.599v0.331c0,0.267,0.216,0.483,0.482,0.483
			c0.267,0,0.483-0.216,0.483-0.483V1.921h1.609v0.331c0,0.267,0.216,0.483,0.481,0.483c0.268,0,0.483-0.216,0.483-0.483V1.921
			h0.572V8.916z"/>
	</g>
	<g>
		<g>
			<path fill="#818181" d="M3.006,4.975c0-0.153-0.122-0.249-0.27-0.212L2.7,4.772c-0.147,0.037-0.3-0.055-0.338-0.204L2.347,4.513
				C2.31,4.365,2.398,4.209,2.544,4.165L2.962,4.04C3.108,3.996,3.34,3.96,3.476,3.96c0.136,0,0.248,0.125,0.248,0.278v2.773
				c0,0.153-0.125,0.277-0.278,0.277H3.283c-0.153,0-0.277-0.124-0.277-0.277V4.975z"/>
		</g>
		<g>
			<path fill="#818181" d="M4.337,6.992c0-0.154,0.097-0.358,0.215-0.455l0.67-0.549c0.118-0.098,0.308-0.261,0.42-0.363
				c0,0,0.367-0.333,0.367-0.607c0-0.278-0.185-0.43-0.444-0.43c-0.255,0-0.43,0.142-0.676,0.444L4.594,4.796
				C4.476,4.7,4.464,4.53,4.568,4.418c0,0,0.452-0.481,1.043-0.481c0.685,0,1.139,0.401,1.139,1.02l0,0
				c0,0.005-0.041,0.127-0.091,0.272c0,0-0.192,0.564-0.779,1.017L5.563,6.492c-0.122,0.093-0.097,0.17,0.057,0.17h0.885
				c0.153,0,0.278,0.124,0.278,0.277v0.072c0,0.153-0.125,0.277-0.278,0.277h-1.89c-0.153,0-0.278-0.124-0.278-0.277V6.992z"/>
		</g>
	</g>
</g>
</svg>
