<svg xmlns="http://www.w3.org/2000/svg" height="152" width="154">
  <path d="M0 640q0 209 103 385.5t279.5 279.5t385.5 103t385.5 -103t279.5 -279.5t103 -385.5q0 -251 -146.5 -451.5t-378.5 -277.5q-27 -5 -39.5 7t-12.5 30v211q0 97 -52 142q57 6 102.5 18t94 39t81 66.5t53 105t20.5 150.5q0 121 -79 206q37 91 -8 204q-28 9 -81 -11t-92 -44 l-38 -24q-93 26 -192 26t-192 -26q-16 11 -42.5 27t-83.5 38.5t-86 13.5q-44 -113 -7 -204q-79 -85 -79 -206q0 -85 20.5 -150t52.5 -105t80.5 -67t94 -39t102.5 -18q-40 -36 -49 -103q-21 -10 -45 -15t-57 -5t-65.5 21.5t-55.5 62.5q-19 32 -48.5 52t-49.5 24l-20 3 q-21 0 -29 -4.5t-5 -11.5t9 -14t13 -12l7 -5q22 -10 43.5 -38t31.5 -51l10 -23q13 -38 44 -61.5t67 -30t69.5 -7t55.5 3.5l23 4q0 -38 0.5 -89t0.5 -54q0 -18 -13 -30t-40 -7q-232 77 -378.5 277.5t-146.5 451.5z" transform="scale(0.1, -0.1) translate(0, -1409)"/>
</svg>

