<?xml version="1.0" encoding="utf-8"?>
<!-- Generator: Adobe Illustrator 16.0.4, SVG Export Plug-In . SVG Version: 6.00 Build 0)  -->
<!DOCTYPE svg PUBLIC "-//W3C//DTD SVG 1.1//EN" "http://www.w3.org/Graphics/SVG/1.1/DTD/svg11.dtd">
<svg version="1.1" id="Layer_1" xmlns="http://www.w3.org/2000/svg" xmlns:xlink="http://www.w3.org/1999/xlink" x="0px" y="0px"
	 width="154px" height="152px" viewBox="0 0 154 152" enable-background="new 0 0 154 152" xml:space="preserve">
<path fill="#818181" d="M0,76.9c0-13.934,3.433-26.784,10.3-38.55S26.483,17.267,38.25,10.4S62.867,0.1,76.8,0.1
	c13.934,0,26.784,3.433,38.55,10.3c11.768,6.867,21.084,16.184,27.95,27.95s10.3,24.617,10.3,38.55
	c0,16.732-4.883,31.783-14.649,45.149s-22.384,22.616-37.851,27.75c-1.8,0.333-3.116,0.101-3.949-0.7c-0.834-0.8-1.25-1.8-1.25-3
	V125c0-6.467-1.734-11.2-5.2-14.2c3.8-0.399,7.216-1,10.25-1.8c3.033-0.8,6.167-2.1,9.399-3.9c3.234-1.8,5.934-4.016,8.101-6.649
	s3.933-6.134,5.3-10.5s2.05-9.384,2.05-15.05c0-8.066-2.634-14.933-7.899-20.6c2.467-6.066,2.199-12.866-0.801-20.4
	c-1.866-0.6-4.566-0.233-8.1,1.1s-6.6,2.8-9.2,4.4L96,39.8c-6.2-1.733-12.6-2.6-19.2-2.6c-6.6,0-13,0.867-19.2,2.6
	c-1.067-0.733-2.483-1.633-4.25-2.7c-1.767-1.067-4.55-2.35-8.35-3.85s-6.667-1.95-8.6-1.35c-2.933,7.534-3.167,14.333-0.7,20.4
	c-5.267,5.667-7.9,12.534-7.9,20.6c0,5.667,0.684,10.667,2.05,15c1.367,4.333,3.117,7.833,5.25,10.5
	c2.133,2.666,4.816,4.899,8.05,6.699c3.233,1.801,6.367,3.101,9.4,3.9c3.034,0.8,6.45,1.4,10.25,1.8c-2.667,2.4-4.3,5.833-4.9,10.3
	c-1.4,0.667-2.9,1.167-4.5,1.5c-1.6,0.334-3.5,0.5-5.7,0.5c-2.2,0-4.383-0.717-6.55-2.149c-2.167-1.434-4.017-3.517-5.55-6.25
	c-1.267-2.134-2.883-3.866-4.85-5.2s-3.617-2.133-4.95-2.4l-2-0.3c-1.4,0-2.367,0.15-2.9,0.45s-0.7,0.684-0.5,1.15
	c0.2,0.467,0.5,0.934,0.9,1.399c0.4,0.467,0.833,0.866,1.3,1.2l0.7,0.5c1.467,0.666,2.917,1.934,4.35,3.8
	c1.434,1.866,2.483,3.567,3.15,5.101l1,2.3c0.867,2.533,2.333,4.583,4.4,6.149c2.066,1.566,4.3,2.566,6.7,3s4.717,0.667,6.95,0.7
	c2.233,0.034,4.083-0.083,5.55-0.35l2.3-0.4c0,2.534,0.017,5.5,0.05,8.9c0.033,3.399,0.05,5.2,0.05,5.399c0,1.2-0.433,2.2-1.3,3
	c-0.867,0.801-2.2,1.033-4,0.7c-15.467-5.134-28.083-14.384-37.85-27.75S0,93.633,0,76.9z"/>
</svg>
