<svg xmlns="http://www.w3.org/2000/svg" height="141" width="180">
  <path d="M0 64v128q0 26 19 45t45 19h1664q26 0 45 -19t19 -45v-128q0 -26 -19 -45t-45 -19h-1664q-26 0 -45 19t-19 45zM0 448v128q0 26 19 45t45 19h1664q26 0 45 -19t19 -45v-128q0 -26 -19 -45t-45 -19h-1664q-26 0 -45 19t-19 45zM0 832v128q0 26 19 45t45 19h1664 q26 0 45 -19t19 -45v-128q0 -26 -19 -45t-45 -19h-1664q-26 0 -45 19t-19 45zM0 1216v128q0 26 19 45t45 19h1664q26 0 45 -19t19 -45v-128q0 -26 -19 -45t-45 -19h-1664q-26 0 -45 19t-19 45z" transform="scale(0.1, -0.1) translate(0, -1409)"/>
</svg>

