<?xml version="1.0" encoding="utf-8"?>
<!-- Generator: Adobe Illustrator 16.0.4, SVG Export Plug-In . SVG Version: 6.00 Build 0)  -->
<!DOCTYPE svg PUBLIC "-//W3C//DTD SVG 1.1//EN" "http://www.w3.org/Graphics/SVG/1.1/DTD/svg11.dtd">
<svg version="1.1" id="Layer_1" xmlns="http://www.w3.org/2000/svg" xmlns:xlink="http://www.w3.org/1999/xlink" x="0px" y="0px"
	 width="154px" height="154px" viewBox="0 0 154 154" enable-background="new 0 0 154 154" xml:space="preserve">
<path fill="#FFFFFF" d="M0,76.9c0-10.4,2.033-20.333,6.1-29.8c4.066-9.467,9.533-17.633,16.4-24.5S37.533,10.267,47,6.2
	c9.467-4.067,19.4-6.1,29.8-6.1c9.8,0,19.284,1.85,28.45,5.55c9.166,3.7,17.316,8.917,24.45,15.65l13-12.9
	c1.933-2.066,4.267-2.533,7-1.4c2.6,1.133,3.899,3.1,3.899,5.9v44.8c0,1.733-0.633,3.233-1.899,4.5s-2.767,1.9-4.5,1.9h-44.8
	c-2.801,0-4.768-1.333-5.9-4c-1.133-2.6-0.666-4.9,1.4-6.9l13.8-13.8c-9.866-9.133-21.5-13.7-34.9-13.7
	c-6.933,0-13.55,1.35-19.85,4.05c-6.3,2.7-11.75,6.35-16.35,10.95c-4.6,4.6-8.25,10.05-10.95,16.35c-2.7,6.3-4.05,12.917-4.05,19.85
	c0,6.934,1.35,13.55,4.05,19.85c2.7,6.3,6.35,11.75,10.95,16.35c4.6,4.601,10.05,8.25,16.35,10.95c6.3,2.7,12.917,4.05,19.85,4.05
	c7.934,0,15.434-1.732,22.5-5.199c7.067-3.467,13.034-8.367,17.9-14.7c0.466-0.667,1.233-1.067,2.3-1.2c0.934,0,1.767,0.3,2.5,0.9
	l13.7,13.8c0.6,0.533,0.917,1.216,0.95,2.05s-0.217,1.584-0.75,2.25c-7.268,8.8-16.066,15.617-26.4,20.45s-21.233,7.25-32.7,7.25
	c-10.4,0-20.333-2.034-29.8-6.101s-17.633-9.533-24.5-16.399s-12.333-15.034-16.4-24.5C2.033,97.233,0,87.3,0,76.9z"/>
</svg>
