<?xml version="1.0" encoding="utf-8"?>
<!-- Generator: Adobe Illustrator 16.0.4, SVG Export Plug-In . SVG Version: 6.00 Build 0)  -->
<!DOCTYPE svg PUBLIC "-//W3C//DTD SVG 1.1//EN" "http://www.w3.org/Graphics/SVG/1.1/DTD/svg11.dtd">
<svg version="1.1" id="Layer_1" xmlns="http://www.w3.org/2000/svg" xmlns:xlink="http://www.w3.org/1999/xlink" x="0px" y="0px"
	 width="10px" height="10px" viewBox="0 0 10 10" enable-background="new 0 0 10 10" xml:space="preserve">
<g>
	<path fill="#818181" d="M4.99,0C2.235,0,0,2.235,0,4.99c0,2.755,2.235,4.99,4.99,4.99c2.755,0,4.99-2.234,4.99-4.99
		C9.979,2.235,7.745,0,4.99,0z M4.99,8.732c-2.062,0-3.742-1.68-3.742-3.743c0-2.062,1.68-3.742,3.742-3.742
		c2.063,0,3.743,1.68,3.743,3.742C8.732,7.053,7.053,8.732,4.99,8.732z"/>
	<path fill="#818181" d="M7.412,6.107L5.437,4.774V2.48c0-0.056-0.022-0.108-0.062-0.147C5.336,2.295,5.284,2.271,5.229,2.271H4.683
		c-0.056,0-0.108,0.023-0.147,0.062C4.497,2.373,4.476,2.424,4.476,2.48V5.19c0,0.055,0.021,0.108,0.061,0.146
		C4.552,5.354,4.57,5.365,4.589,5.375l2.3,1.541c0.035,0.022,0.074,0.035,0.114,0.035c0.016,0,0.03-0.001,0.046-0.006
		c0.054-0.012,0.102-0.044,0.131-0.092l0.29-0.464C7.529,6.296,7.503,6.171,7.412,6.107z"/>
</g>
</svg>
