<?xml version="1.0" encoding="utf-8"?>
<!-- Generator: Adobe Illustrator 16.0.4, SVG Export Plug-In . SVG Version: 6.00 Build 0)  -->
<!DOCTYPE svg PUBLIC "-//W3C//DTD SVG 1.1//EN" "http://www.w3.org/Graphics/SVG/1.1/DTD/svg11.dtd">
<svg version="1.1" id="Layer_1" xmlns="http://www.w3.org/2000/svg" xmlns:xlink="http://www.w3.org/1999/xlink" x="0px" y="0px"
	 width="154px" height="152px" viewBox="0 0 154 152" enable-background="new 0 0 154 152" xml:space="preserve">
<path fill="none" stroke="#000000" stroke-width="20" d="M73.424,20.029c-1.524-1.543-4.531-2.975-6.691-3.193l-34.615-3.429
	c-0.165-0.004-0.341-0.02-0.515-0.026c-2.107-0.015-4.784,1.007-6.207,2.414l-7.971,7.836c-1.543,1.522-2.664,4.542-2.485,6.688
	l2.81,34.761c0.169,2.157,1.561,5.177,3.086,6.73l63.536,64.547c0.763,0.772,1.772,1.162,2.788,1.174
	c0.999,0.008,2.013-0.366,2.785-1.125l46.974-46.248c1.546-1.521,1.567-4.04,0.047-5.571L73.424,20.029z"/>
<path d="M41.872,39.859c2.563-2.519,5.917-3.773,9.249-3.743c3.351,0.027,6.674,1.34,9.212,3.898
	c5.043,5.13,4.975,13.388-0.144,18.427c-2.577,2.546-5.914,3.793-9.256,3.763c-3.341-0.028-6.655-1.319-9.19-3.902
	C36.686,53.175,36.745,44.925,41.872,39.859z"/>
</svg>
