<?xml version="1.0" encoding="UTF-8"?>
<svg width="24px" height="24px" viewBox="0 0 24 24" version="1.1" xmlns="http://www.w3.org/2000/svg" xmlns:xlink="http://www.w3.org/1999/xlink">
    <!-- Generator: Sketch 60 (88103) - https://sketch.com -->
    <title>icon-admin</title>
    <desc>Created with Sketch.</desc>
    <defs>
        <path d="M19.598357,12.9902897 C19.8017709,12.3260177 19.9367464,11.6412226 20,10.9474217 L17.3919129,9.65715283 C17.3820619,9.4635259 17.3649524,9.26963919 17.3396337,9.07601227 L19.6704246,7.33163804 C19.4857622,6.67334114 19.2306739,6.02517587 18.9029996,5.3970141 L16.0149376,5.72425746 C15.9010466,5.56509544 15.7804155,5.41329401 15.6559822,5.26564915 L16.6765944,2.5331368 C16.1533697,2.06734108 15.5867662,1.6625084 14.9882766,1.32106342 L12.732232,3.16363664 C12.5522358,3.09245536 12.3697337,3.02854808 12.1850712,2.97174161 L11.5697314,0.122239116 C10.8869037,0.0146878454 10.1915463,-0.0228078874 9.49497916,0.013388917 L8.59136884,2.7852155 C8.40186732,2.82262464 8.21288427,2.86652842 8.02511099,2.91961129 L5.97161614,0.857172797 C5.65768133,0.99641792 5.34780788,1.15324187 5.0433784,1.32790444 C4.73894891,1.50248042 4.4473084,1.69082504 4.16828404,1.89146617 L4.90295889,4.71057375 C4.76228015,4.84592209 4.6287736,4.98689911 4.50045178,5.13159974 L1.65792893,4.50863368 C1.27408681,5.0922855 0.954275985,5.71204753 0.700829579,6.3565758 L2.84116849,8.33146652 C2.79632066,8.51989773 2.75890426,8.70988766 2.72883289,8.9013497 L0.00089235208,9.91754467 C-0.00826732028,10.6078818 0.0529987901,11.3023755 0.188838459,11.9903746 L3.05668003,12.4927135 C3.12071132,12.6749099 3.19027298,12.8561537 3.26951279,13.0350594 L1.52520009,15.3648174 C1.89988254,15.9659614 2.32831325,16.5148019 2.80133256,17.0076154 L5.4825242,15.8772879 C5.63616474,15.9971357 5.79429871,16.1100559 5.95606198,16.2169144 L5.7453031,19.1236563 C6.37429607,19.4205047 7.03189142,19.6506749 7.70650993,19.811309 L9.35205371,17.4081183 C9.54466606,17.4258703 9.73831536,17.4362617 9.93256955,17.4388596 L11.3244077,20 C12.0043837,19.9108935 12.681249,19.7508655 13.3442883,19.5162791 L13.4320829,16.6006178 C13.5176307,16.5557615 13.6031786,16.5110784 13.6876032,16.4624118 C13.7722005,16.4140917 13.8542055,16.3628273 13.9360377,16.311563 L16.489426,17.7125005 C17.0269086,17.2583086 17.5074458,16.7544975 17.9283586,16.212065 L16.4295424,13.7120609 C16.525719,13.5431136 16.6148098,13.3706159 16.6971604,13.1949142 L19.598357,12.9902897 L19.598357,12.9902897 Z M11.5727558,12.7596866 C10.029351,13.6450362 8.06218173,13.1086653 7.17887824,11.5621612 C6.29548833,10.0155705 6.83037863,8.04405696 8.37386983,7.15888057 C9.91701539,6.27344438 11.8844439,6.80972862 12.7677474,8.35640594 C13.6511373,9.90299668 13.1161606,11.8744236 11.5727558,12.7596866 L11.5727558,12.7596866 Z" id="path-1"></path>
    </defs>
    <g id="icon-admin" stroke="none" stroke-width="1" fill="none" fill-rule="evenodd">
        <g id="Icon-/-Database-/-Admin">
            <g id="cog" transform="translate(2.000000, 2.000000)">
                <mask id="mask-2" fill="white">
                    <use xlink:href="#path-1"></use>
                </mask>
                <g id="Mask"></g>
                <g id="✱-/-Color-/-Icons-/-Selected-/-On-Surface-/-Inactive" mask="url(#mask-2)" fill="#000000" fill-opacity="0.54">
                    <g transform="translate(-2.000000, -2.000000)" id="Rectangle">
                        <rect x="0" y="0" width="24" height="24"></rect>
                    </g>
                </g>
            </g>
        </g>
    </g>
</svg>