<?xml version="1.0" encoding="UTF-8"?>
<svg width="24px" height="24px" viewBox="0 0 24 24" version="1.1" xmlns="http://www.w3.org/2000/svg" xmlns:xlink="http://www.w3.org/1999/xlink">
    <!-- Generator: Sketch 60 (88103) - https://sketch.com -->
    <title>icon-alert-info</title>
    <desc>Created with Sketch.</desc>
    <defs>
        <path d="M12.0945288,3.00026439 C7.08871656,2.96276494 3.09531578,6.91895683 3.00157398,11.9063836 C2.90783218,16.91256 7.01372312,21 12.000787,21 C16.9878509,21 21,16.9500595 21,12.0001322 C21,7.0502049 17.0815927,3.03776384 12.0945288,3.00026439 L12.0945288,3.00026439 Z M11.9070452,16.7625622 C12.2445157,16.8750606 12.4507476,16.6313142 12.6194829,16.4063175 L13.2569271,15.6000793 L13.5194042,15.7875766 L12.8069665,16.8750606 C12.263264,17.6812987 11.1383624,18.2812899 10.2946862,17.9625446 C9.84472554,17.7750474 9.50725505,17.3438037 9.65724194,16.8000617 C10.1072026,15.1500859 10.5759116,13.3876118 11.0071239,11.8501344 C11.063369,11.6813869 11.1008657,11.4938896 11.1008657,11.3063924 C11.1008657,11.0438962 10.9133821,10.7626504 10.650905,10.7626504 L10.2009444,10.7626504 L10.2946862,10.5001542 L10.388428,10.4064056 L13.0881919,9.95641221 L13.6318943,9.95641221 L11.8320517,16.2563197 C11.7570583,16.5188158 11.6820649,16.7250628 11.9257935,16.781312 L11.9070452,16.7625622 Z M13.1631853,8.47518397 C12.4882444,8.47518397 11.9070452,7.98769113 11.9070452,7.31270105 C11.9070452,6.63771096 12.4507476,6.0564695 13.0694435,6.0564695 C13.7818812,6.0564695 14.3255837,6.54396234 14.3255837,7.21895242 C14.3255837,7.89394251 13.8381263,8.47518397 13.1631853,8.47518397 L13.1631853,8.47518397 Z" id="path-1"></path>
    </defs>
    <g id="icon-alert-info" stroke="none" stroke-width="1" fill="none" fill-rule="evenodd">
        <g id="Icon-/-Database-/-Alert-/-Info">
            <mask id="mask-2" fill="white">
                <use xlink:href="#path-1"></use>
            </mask>
            <g id="Mask"></g>
            <g id="✱-/-Color-/-Icons-/-Primary-or-Secondary" mask="url(#mask-2)" fill="#006089" fill-rule="evenodd">
                <g id="✱-/-Color-/-Primary-/-Main">
                    <g id="✱-/-Color-/-Primary-/-900">
                        <rect id="Rectangle-13" x="0" y="0" width="24" height="24"></rect>
                    </g>
                </g>
            </g>
        </g>
    </g>
</svg>