<?xml version="1.0" encoding="UTF-8"?>
<svg width="24px" height="24px" viewBox="0 0 24 24" version="1.1" xmlns="http://www.w3.org/2000/svg" xmlns:xlink="http://www.w3.org/1999/xlink">
    <!-- Generator: Sketch 60 (88103) - https://sketch.com -->
    <title>icon-notification-off</title>
    <desc>Created with Sketch.</desc>
    <defs>
        <path d="M19.5,18.44 L7.34,5.89 L4.77,3.24 L3.5,4.51 L6.3,7.31 L6.3,7.32 C5.78,8.31 5.5,9.48 5.5,10.74 L5.5,15.74 L3.5,17.74 L3.5,18.74 L17.23,18.74 L19.23,20.74 L20.5,19.47 L19.5,18.44 L19.5,18.44 Z M11.5,21.75 C12.61,21.75 13.5,20.86 13.5,19.75 L9.5,19.75 C9.5,20.86 10.39,21.75 11.5,21.75 Z M17.5,14.43 L17.5,10.75 C17.5,7.67 15.86,5.11 13,4.43 L13,3.75 C13,2.92 12.33,2.25 11.5,2.25 C10.67,2.25 10,2.92 10,3.75 L10,4.43 C9.85,4.46 9.71,4.51 9.58,4.55 C9.48,4.58 9.38,4.62 9.28,4.66 L9.27,4.66 C9.26,4.66 9.26,4.66 9.25,4.67 C9.02,4.76 8.79,4.87 8.57,4.98 C8.57,4.98 8.56,4.98 8.56,4.99 L17.5,14.43 Z" id="path-1"></path>
    </defs>
    <g id="icon-notification-off" stroke="none" stroke-width="1" fill="none" fill-rule="evenodd">
        <g id="Icon-/-Database-/-Notification-Off">
            <mask id="mask-2" fill="white">
                <use xlink:href="#path-1"></use>
            </mask>
            <g id="Mask" fill-rule="nonzero"></g>
            <g id="✱-/-Color-/-Icons-/-Selected-/-On-Surface-/-Inactive" mask="url(#mask-2)" fill="#000000" fill-opacity="0.54" fill-rule="evenodd">
                <rect id="Rectangle" x="0" y="0" width="24" height="24"></rect>
            </g>
        </g>
    </g>
</svg>