<?xml version="1.0" encoding="UTF-8"?>
<svg width="24px" height="24px" viewBox="0 0 24 24" version="1.1" xmlns="http://www.w3.org/2000/svg" xmlns:xlink="http://www.w3.org/1999/xlink">
    <!-- Generator: Sketch 60 (88103) - https://sketch.com -->
    <title>icon-poll</title>
    <desc>Created with Sketch.</desc>
    <defs>
        <path d="M19,3 L5,3 C3.9,3 3,3.9 3,5 L3,19 C3,20.1 3.9,21 5,21 L19,21 C20.1,21 21,20.1 21,19 L21,5 C21,3.9 20.1,3 19,3 Z M9,17 L7,17 L7,10 L9,10 L9,17 Z M13,17 L11,17 L11,7 L13,7 L13,17 Z M17,17 L15,17 L15,13 L17,13 L17,17 Z" id="path-1"></path>
    </defs>
    <g id="icon-poll" stroke="none" stroke-width="1" fill="none" fill-rule="evenodd">
        <g id="Icon-/-Poll-/-Filled">
            <mask id="mask-2" fill="white">
                <use xlink:href="#path-1"></use>
            </mask>
            <g id="icon/social/poll_24px" fill-rule="nonzero"></g>
            <g id="✱-/-Color-/-Icons-/-Selected-/-On-Surface-/-Inactive" mask="url(#mask-2)" fill="#000000" fill-opacity="0.54" fill-rule="evenodd">
                <rect id="Rectangle" x="0" y="0" width="24" height="24"></rect>
            </g>
        </g>
    </g>
</svg>