<?xml version="1.0" encoding="UTF-8"?>
<svg width="24px" height="24px" viewBox="0 0 24 24" version="1.1" xmlns="http://www.w3.org/2000/svg" xmlns:xlink="http://www.w3.org/1999/xlink">
    <!-- Generator: Sketch 60 (88103) - https://sketch.com -->
    <title>icon-notification-snooze</title>
    <desc>Created with Sketch.</desc>
    <defs>
        <path d="M12,21.75 C13.1,21.75 14,20.85 14,19.75 L10,19.75 C10,20.85 10.89,21.75 12,21.75 Z M18,15.75 L18,10.75 C18,7.68 16.36,5.11 13.5,4.43 L13.5,2.25 L10.5,2.25 L10.5,4.43 C7.63,5.11 6,7.68 6,10.75 L6,15.75 L4,17.75 L4,18.75 L20,18.75 L20,17.75 L18,15.75 Z M14.5,9.55 L11.7,12.95 L14.5,12.95 L14.5,14.75 L9.5,14.75 L9.5,12.95 L12.3,9.55 L9.5,9.55 L9.5,7.75 L14.5,7.75 L14.5,9.55 Z" id="path-1"></path>
    </defs>
    <g id="icon-notification-snooze" stroke="none" stroke-width="1" fill="none" fill-rule="evenodd">
        <g id="Icon-/-Database-/-Notification-Pause">
            <mask id="mask-2" fill="white">
                <use xlink:href="#path-1"></use>
            </mask>
            <g id="Mask" fill-rule="nonzero"></g>
            <g id="✱-/-Color-/-Icons-/-Selected-/-On-Surface-/-Inactive" mask="url(#mask-2)" fill="#9D9D9D" fill-rule="evenodd">
                <rect id="Rectangle" x="0" y="0" width="24" height="24"></rect>
            </g>
        </g>
    </g>
</svg>