<?xml version="1.0" encoding="UTF-8"?>
<svg width="24px" height="24px" viewBox="0 0 24 24" version="1.1" xmlns="http://www.w3.org/2000/svg" xmlns:xlink="http://www.w3.org/1999/xlink">
    <!-- Generator: Sketch 60 (88103) - https://sketch.com -->
    <title>icon-refresh</title>
    <desc>Created with Sketch.</desc>
    <defs>
        <path d="M18.3545966,5.64375 C16.7223265,4.0125 14.4821764,3 11.9943715,3 C7.01876173,3 3,7.0275 3,12 C3,16.9725 7.01876173,21 11.9943715,21 C16.1932458,21 19.6941839,18.13125 20.69606,14.25 L18.3545966,14.25 C17.4315197,16.87125 14.9324578,18.75 11.9943715,18.75 C8.26829268,18.75 5.24015009,15.72375 5.24015009,12 C5.24015009,8.27625 8.26829268,5.25 11.9943715,5.25 C13.8630394,5.25 15.5290807,6.02625 16.7448405,7.2525 L13.120075,10.875 L21,10.875 L21,3 L18.3545966,5.64375 Z" id="path-1"></path>
    </defs>
    <g id="icon-refresh" stroke="none" stroke-width="1" fill="none" fill-rule="evenodd">
        <g id="Icon-/-Database-/-Refresh">
            <mask id="mask-2" fill="white">
                <use xlink:href="#path-1"></use>
            </mask>
            <g id="Mask" fill-rule="nonzero"></g>
            <g id="✱-/-Color-/-Icons-/-Selected-/-On-Surface-/-Inactive" mask="url(#mask-2)" fill="#ffffff" fill-opacity="1" fill-rule="evenodd">
                <rect id="Rectangle" x="0" y="0" width="24" height="24"></rect>
            </g>
        </g>
    </g>
</svg>