<svg x="0px" y="0px" viewBox="0 0 15 15" style="enable-background:new 0 0 15 15;" xml:space="preserve">
<path d="M13.709,8.91l-1.13-0.659c0.037-0.247,0.076-0.494,0.076-0.751c0-0.281-0.039-0.552-0.083-0.82l1.117-0.672c0.48-0.289,0.636-0.917,0.348-1.397l-0.863-1.436c-0.289-0.48-0.917-0.636-1.397-0.348l-1.121,0.674c0,0-0.76-0.515-1.193-0.686V1.518c0-0.56-0.458-1.018-1.018-1.018H6.769c-0.56,0-1.018,0.458-1.018,1.018v1.296c-0.454,0.18-0.866,0.432-1.245,0.729l-1.132-0.66C2.891,2.601,2.264,2.766,1.982,3.25L1.138,4.697C0.856,5.181,1.021,5.808,1.504,6.09l1.13,0.659C2.597,6.996,2.558,7.243,2.558,7.5c0,0.281,0.039,0.552,0.083,0.82L1.524,8.992c-0.48,0.289-0.636,0.917-0.348,1.397l0.864,1.436c0.289,0.48,0.917,0.636,1.397,0.348l1.121-0.674c0.365,0.279,0.76,0.515,1.193,0.686v1.296c0,0.56,0.458,1.018,1.018,1.018h1.676c0.56,0,1.018-0.458,1.018-1.018v-1.296c0,0,0.866-0.432,1.245-0.729l1.132,0.66c0.484,0.282,1.11,0.117,1.392-0.367l0.844-1.448C14.358,9.819,14.193,9.192,13.709,8.91zM7.607,9.579c-1.148,0-2.079-0.931-2.079-2.079s0.931-2.079,2.079-2.079S9.686,6.352,9.686,7.5S8.755,9.579,7.607,9.579z"/>
</svg>
