<svg version="1.1" id="icon-builds" xmlns="http://www.w3.org/2000/svg" xmlns:xlink="http://www.w3.org/1999/xlink" x="0px"
	 y="0px" viewBox="0 0 15 15" style="enable-background:new 0 0 15 15;" xml:space="preserve">
<g id="builds">
	<path id="Path_19_" class="st0" d="M11.553,11.153c0,0.663,0.589,1.216,1.289,1.105c0.442-0.074,0.811-0.442,0.884-0.884
		c0.111-0.553-0.221-1.032-0.663-1.216c-0.258-0.111-0.405-0.368-0.405-0.663v-3.26"/>
	<path id="Stroke-2_19_" class="st0" d="M0.868,5.867c-0.221,0-0.368-1.75-0.368-1.75c0-0.221,0.147-0.442,0.332-0.479L3.448,2.68
		h3.193l7.491,1.032c0.221,0.036,0.368,0.22,0.368,0.404c0,0-0.184,1.75-0.368,1.75L0.868,5.867L0.868,5.867z M6.635,14.469V1.206
		c0-0.221-1.161-0.405-1.345-0.442L3.816,0.506C3.632,0.469,3.447,0.616,3.447,0.8v13.632h2.211L6.635,14.469z M8.845,14.469H1.237
		H8.845z"/>
</g>
</svg>
