<?xml version="1.0" encoding="utf-8"?>
<!-- Generator: Adobe Illustrator 18.1.1, SVG Export Plug-In . SVG Version: 6.00 Build 0)  -->
<svg version="1.1" id="Layer_1" xmlns="http://www.w3.org/2000/svg" xmlns:xlink="http://www.w3.org/1999/xlink" x="0px" y="0px"
	 viewBox="0 0 18 22.8" enable-background="new 0 0 18 22.8" xml:space="preserve">
<g>
	<g>
		<g>
			<path fill="#F9F9F9" d="M10.4,0.2H0.7c-0.3,0-0.5,0.2-0.5,0.5v21.3c0,0.3,0.2,0.5,0.5,0.5h16.6c0.3,0,0.5-0.2,0.5-0.5V6.5
				L10.4,0.2z"/>
		</g>
		<path fill="#C3C2C2" d="M17.9,6.3l-7.3-6.2c0,0-0.2-0.1-0.2-0.1H0.7C0.3,0,0,0.3,0,0.7v21.3c0,0.4,0.3,0.7,0.7,0.7h16.6
			c0.4,0,0.7-0.3,0.7-0.7V6.5C18,6.5,18,6.3,17.9,6.3z M17.3,22.3H0.7c-0.1,0-0.2-0.1-0.2-0.2V0.7c0-0.1,0.1-0.2,0.2-0.2h9.5V6
			c0,0.4,0.3,0.7,0.7,0.7h6.6v15.4C17.5,22.2,17.4,22.3,17.3,22.3z"/>
	</g>
	<g>
		<path fill="#9E9D9E" d="M10.4,11c-0.2-0.2-0.4-0.3-0.5-0.4s-0.4-0.1-0.6-0.1c-0.2,0-0.4,0.1-0.6,0.2c-0.1,0.1-0.2,0.3-0.2,0.5
			c0,0.2,0.1,0.3,0.2,0.4c0.1,0.1,0.3,0.2,0.5,0.3s0.4,0.2,0.7,0.3c0.2,0.1,0.5,0.2,0.7,0.4c0.2,0.2,0.4,0.4,0.5,0.6
			c0.1,0.2,0.2,0.5,0.2,0.8c0,0.5-0.1,0.9-0.4,1.3s-0.7,0.6-1.2,0.7v1.1h-1v-1c-0.3,0-0.6-0.1-1-0.3c-0.3-0.1-0.6-0.3-0.9-0.5l0.7-1
			c0.3,0.2,0.5,0.4,0.8,0.5c0.2,0.1,0.5,0.2,0.7,0.2c0.3,0,0.5-0.1,0.6-0.2c0.1-0.1,0.2-0.3,0.2-0.5c0-0.2-0.1-0.3-0.2-0.5
			c-0.1-0.1-0.3-0.2-0.5-0.4s-0.4-0.2-0.7-0.3c-0.2-0.1-0.5-0.2-0.7-0.4c-0.2-0.2-0.4-0.3-0.5-0.6C7.1,11.8,7,11.5,7,11.2
			c0-0.5,0.1-0.9,0.4-1.3c0.3-0.3,0.7-0.6,1.2-0.6V8.2h1v1c0.3,0,0.6,0.1,0.9,0.3c0.2,0.2,0.5,0.3,0.7,0.5L10.4,11z"/>
	</g>
</g>
<polygon fill="#E3E5E5" points="10.7,0.8 16.9,6.2 10.7,6.2 "/>
</svg>
