<?xml version="1.0" encoding="utf-8"?>
<!-- Generator: Adobe Illustrator 23.0.6, SVG Export Plug-In . SVG Version: 6.00 Build 0)  -->
<svg version="1.1" id="Layer_1" xmlns="http://www.w3.org/2000/svg" xmlns:xlink="http://www.w3.org/1999/xlink" x="0px" y="0px"
	 viewBox="0 0 18.062 17.764" style="enable-background:new 0 0 18.062 17.764;" xml:space="preserve">
<style type="text/css">
	.st0{fill:none;stroke:#9EA3A8;stroke-linecap:round;stroke-linejoin:round;stroke-miterlimit:10;}
	.st1{fill:#FFFFFF;stroke:#9EA3A8;stroke-linecap:round;stroke-linejoin:round;stroke-miterlimit:10;}
</style>
<g id="icon-freebsd">
	<g id="icon-encircled-help_1_">
		<path id="outter-circle_3_" class="st0" d="M16.076,7.422c0.142,0.556,0.218,1.139,0.218,1.739c0,3.866-3.134,7-7,7s-7-3.134-7-7
			s3.134-7,7-7c0.651,0,1.28,0.089,1.878,0.255"/>
		<path id="outter-circle_2_" class="st0" d="M11.171,2.415C13.574,3.083,15.457,5,16.076,7.422"/>
	</g>
	<path class="st1" d="M11.219,4.688c0.275,0.746,0.986,2.005,2.75,2.682c0.271,0.104,0.578,0.049,0.793-0.145
		c0.553-0.663,1.69-1.968,2.013-4.573c-0.005-0.409-0.328-0.747-0.737-0.763c-0.716-0.028-2.075,0.282-4.517,1.886
		C11.221,3.973,11.094,4.35,11.219,4.688z"/>
	<path class="st0" d="M5.819,3.083C5.056,2.577,3.952,2.045,2.345,1.815C1.936,1.812,1.592,2.129,1.569,2.538
		C1.532,3.174,1.753,4.324,2.899,6.31"/>
</g>
</svg>
