<?xml version="1.0" encoding="utf-8"?>
<!-- Generator: Adobe Illustrator 19.2.0, SVG Export Plug-In . SVG Version: 6.00 Build 0)  -->
<svg version="1.1" id="icon-private" xmlns="http://www.w3.org/2000/svg" xmlns:xlink="http://www.w3.org/1999/xlink" x="0px"
	 y="0px" viewBox="0 0 15 15" style="enable-background:new 0 0 15 15;" xml:space="preserve">
<style type="text/css">
	.st0{fill:none;stroke:#9D9D9D;stroke-linecap:round;stroke-linejoin:round;stroke-miterlimit:10;}
</style>
<g id="private">
	<path class="st0" d="M7.246,7.554c-0.712,0-1.29,0.578-1.29,1.29c0,0.482,0.265,0.902,0.657,1.123v2.082h0.001
		c0.008,0.343,0.288,0.618,0.633,0.618s0.624-0.275,0.633-0.618h0.001V9.967c0.392-0.221,0.657-0.641,0.657-1.123
		C8.536,8.132,7.958,7.554,7.246,7.554z"/>
	<path class="st0" d="M11.583,5.847h-0.612c0.001-0.603,0.001-1.683,0.001-1.698c0-2.012-1.637-3.649-3.649-3.649
		S3.674,2.137,3.674,4.149c0,0.015,0,1.095,0.001,1.698H3.063c-0.777,0-1.413,0.636-1.413,1.413v5.828
		c0,0.777,0.636,1.413,1.413,1.413h8.521c0.777,0,1.413-0.636,1.413-1.413V7.26C12.996,6.483,12.36,5.847,11.583,5.847z M5.841,4.03
		c0-0.817,0.665-1.482,1.482-1.482S8.805,3.213,8.805,4.03c0,0.012,0,0.975,0,1.817H5.842C5.841,5.006,5.841,4.043,5.841,4.03z"/>
</g>
</svg>
