<?xml version="1.0" encoding="utf-8"?>
<svg version="1.0" width="90.000000pt" height="99.000000pt" viewBox="12.018 19.53 66.264 60.241" preserveAspectRatio="xMidYMid meet" id="svg3840" xmlns="http://www.w3.org/2000/svg">
  <g id="g3838" transform="matrix(1, 0, 0, 1, 13.954999, -19.669504)">
    <path class="header__svg-logo__icon--path--3" d="M2,41.25a2,2,0,0,0-2,2.32L8.49,95.11a2.72,2.72,0,0,0,2.66,2.27H51.88a2,2,0,0,0,2-1.68l8.51-52.11a2,2,0,0,0-2-2.32ZM37.75,78.5h-13L21.23,60.12H40.9Z" id="path3834"/>
    <path class="header__svg-logo__icon--path--4" d="M59.67,60.12H40.9L37.75,78.5h-13L9.4,96.73a2.71,2.71,0,0,0,1.75.66H51.89a2,2,0,0,0,2-1.68Z" id="path3836"/>
  </g>
</svg>
