<svg xmlns="http://www.w3.org/2000/svg" viewBox="0 0 220.5 161.9"><path fill="#F1EFEF" d="M186.4 161.9c11.4-16.5 18.1-36.5 18.1-58 0-56.5-45.8-102.2-102.2-102.2S0 47.4 0 103.9c0 21.5 6.7 41.5 18.1 58h168.3z"/><path fill="#DEDCDB" d="M186.4 161.9c11.1-16.1 17.8-35.7 18-56.7H0c.3 21 6.9 40.5 18 56.7h168.4z"/><path fill="#3A3532" d="M95.8 138.7s-7.3-16.3-7.7-17.4c-.9-2.4-3.1-6.3-7.6-6.3-4.8 0-14.7-.1-23.8-.2h-1.4c-9.1.1-19.1.2-23.8.2-4.3 0-6.5 3.7-7.5 6.1-.5 1.2-7.8 17.5-7.8 17.5s-2.5 9.2 15.2 9.2c7.5 0 16.3-.1 24.7-.2 8.4.1 17.2.2 24.7.2 17.4.2 15-9.1 15-9.1z"/><path fill="#E46B25" d="M79.4 127.4S63.2 38.9 62.6 35.6c-.5-3.3-1.4-3.1-1.4-3.1h-1.9l3.2 105.2c15.4-1.7 16.9-10.3 16.9-10.3z"/><path fill="#F57E20" d="M51.8 32.6c-1.2.2-1.4 3-1.4 3l-17.3 92s3.2 10.7 23.9 10.5c2 0 3.9-.1 5.6-.3L59.3 32.6c-2.5-.1-6.7-.1-7.5 0z"/><path fill="#FFF" d="M60.3 105.9c-13.3 1.2-21.1-2.5-22.1-5.7l-2.3 12.5c.4 1.3 1.8 3.6 6.6 5 7.1 2 13.9 2.9 20.1 1.9 6.2-1.1 13.4-3.3 13.9-7.5-.7-3.6-1.4-7.8-2.2-12.1 0 .2-.1 4.7-14 5.9zM56.4 77.5c-10.8-.2-12.7-1.7-13.4-2.8l-2.4 13c.4 1.3 2.8 3.7 14.3 4.3 14.8.7 16.9-3.7 17.1-4.3-.8-4.2-1.6-8.5-2.3-12.7l-.1-.1c0-.1-1.7 2.8-13.2 2.6zM48.2 47.1l-2.6 14c.5.5 2.4 1.7 10.1 1.8 8.1.2 10.8-.9 11.6-1.6-1-5.3-1.8-10.1-2.6-14.1-.4.2-2.4.9-7.6.9-5.5-.1-8.2-.3-8.9-1z"/><path fill="#F4F4F4" d="M61.5 105.8l.4 13.9c.2 0 .4-.1.7-.1 6.2-1.1 13.4-3.3 13.9-7.5-.1-.4-.1-.8-.2-1.2-.1-.4-.1-.8-.2-1.2-.2-.9-.3-1.9-.5-2.9-.1-.4-.2-.9-.2-1.3-.3-1.7-.6-3.4-1-5.3v-.3-.2c-.1.5-.2 4.7-12.9 6.1zM60.7 77.4l.4 14.6c9.2-.6 10.8-3.8 10.9-4.3 0-.2-.1-.5-.1-.7-.3-1.8-.7-3.7-1-5.5 0-.1-.1-.3-.1-.4-.4-2.1-.8-4.1-1.1-6.1l-.1-.1c0-.1-1.2 2-8.9 2.5zM59.8 48l.5 14.9c4.6-.2 6.4-1 7-1.6-.1-.3-.1-.6-.2-.8 0-.2-.1-.3-.1-.5-.1-.4-.2-.8-.2-1.2-.1-.4-.1-.8-.2-1.2v-.2c-.1-.5-.2-1-.3-1.6 0-.2-.1-.4-.1-.6-.1-.5-.2-.9-.3-1.4v-.3c-.1-.3-.1-.6-.2-.9-.1-.3-.1-.6-.2-.9-.3-1.6-.6-3.1-.8-4.5-.3.2-1.7.7-4.9.8z"/><g><path fill="#D6D2D1" d="M190.6 137.2l-57.9-3.2c-14-.8-25.6 1.5-25.8 5.1-.2 3.6 11.1 7.2 25.1 8l57.9 3.2c1.7.1 1.8.1 3.4.2 2.2-3.9 4.1-8 5.7-12.2-3.1-.6-4.9-.9-8.4-1.1z"/><path fill="#3A3532" d="M130.4 72.3l22.8 11.4s7.4 2.1 4.3 10.3c-3.6 9.4-17.4 39.2-17.4 39.2s-1.9 2.8-4.6 3.5-28.4-.5-28.4-.5-8.5-2.1-5.7-11.1 16.4-40.8 16.4-40.8 4.5-14.1 12.6-12z"/><path fill="#E46B25" d="M122.7 129.2s87.3 21.8 90.5 22.7c3.2.9 3.4 0 3.4 0s.3-.7.8-1.7l-97.1-40.6c-4.8 14.8 2.4 19.6 2.4 19.6z"/><path fill="#F57E20" d="M220.4 143.3c.4-1.2-2.1-2.5-2.1-2.5L141.7 87s-11-1.5-19.4 17.4c-.8 1.9-1.5 3.6-2 5.2l97.1 40.6c1-2.2 2.8-6.1 3-6.9z"/><path fill="#FFF" d="M150.2 120.8c4.4-12.6 11-18.2 14.3-17.7l-10.4-7.3c-1.4-.2-4.1.1-7.3 4-4.8 5.6-8.4 11.4-10 17.5-1.6 6.1-2.6 13.6 1 15.8 3.6.9 7.7 1.9 12 3-.3-.2-4.3-2.2.4-15.3zM177.7 129c4.7-9.7 6.8-10.9 8.1-11l-10.8-7.6c-1.4-.1-4.6 1-9.8 11.3-6.8 13.1-3.6 16.9-3.2 17.4 4.2 1 8.4 2.1 12.6 3.1l.2-.1c-.1 0-2.1-2.7 2.9-13.1zM208.7 134.1l-11.7-8.2c-.7.2-2.5 1.5-5.8 8.4-3.5 7.3-3.7 10.2-3.3 11.2 5.2 1.3 10 2.5 13.9 3.5 0-.4.2-2.6 2.4-7.3 2.3-4.9 3.6-7.2 4.5-7.6z"/><path fill="#F4F4F4" d="M149.8 122l-12.8-5.4c-.1.2-.1.4-.2.6-1.6 6.1-2.6 13.6 1 15.8.4.1.8.2 1.1.3.4.1.8.2 1.1.3.9.2 1.9.5 2.8.7.4.1.9.2 1.3.3 1.7.4 3.4.9 5.2 1.3.1 0 .2 0 .3.1h.2c-.2-.1-4-2 0-14zM176 132.9l-13.4-5.6c-3.3 8.6-1 11.4-.6 11.7.2.1.5.1.7.2 1.8.4 3.6.9 5.4 1.4.1 0 .3.1.4.1 2 .5 4.1 1 6.1 1.5l.2-.1c-.1 0-1.6-2 1.2-9.2zM203.1 144.2l-13.7-5.7c-1.7 4.3-1.8 6.2-1.5 7 .3.1.6.1.8.2.2 0 .3.1.5.1l1.2.3 1.2.3c.1 0 .2 0 .2.1.5.1 1 .3 1.5.4.2 0 .4.1.6.1.5.1.9.2 1.4.3.1 0 .2 0 .3.1.3.1.6.1.9.2.3.1.6.2.9.2 1.6.4 3.1.8 4.5 1.1-.1-.2 0-1.7 1.2-4.7z"/></g></svg>