<?xml version="1.0" encoding="utf-8"?>
<!-- Generator: Adobe Illustrator 25.3.1, SVG Export Plug-In . SVG Version: 6.00 Build 0)  -->
<svg version="1.1" id="Layer_1" xmlns="http://www.w3.org/2000/svg" xmlns:xlink="http://www.w3.org/1999/xlink" x="0px" y="0px"
	 viewBox="0 0 31.2 25.5" style="enable-background:new 0 0 31.2 25.5;" xml:space="preserve">
<style type="text/css">
	.st0{fill:#9D9D9D;}
</style>
<g>
	<path class="st0" d="M15.4,24.2c-0.6,0-1.1-0.3-1.7-0.9c-3-3-6-6-9.1-9c-1.1-1.1-1.1-2.3,0-3.4C6,9.5,7.5,8.1,9,6.6l2.3-2.3l0.9,1
		c0.6,0.6,1.1,1.2,1.6,1.9l0.1,0.2l-0.1,0.3c0,0.1,0,0.2,0,0.3c0,0.5,0.3,0.9,0.7,1.2l0.2,0.1l0.1,0.3c0.3,1.1,0.3,2.2,0.3,3.3
		c0,0.5,0,1,0,1.5c0,0.5-0.1,1.1-0.4,1.8l-0.1,0.2l-0.2,0.1c-0.4,0.2-0.6,0.7-0.6,1.1c0,0.7,0.6,1.3,1.3,1.3c0.5,0,1-0.3,1.2-0.8
		l0.1-0.1c0.3-0.4,0.3-0.7,0-1.1c-0.8-0.8-0.8-1.7-0.8-2.5c0-0.9,0-1.8,0-2.9l0-2.9l1,1c0.2,0.2,0.5,0.4,0.7,0.6
		c0.6,0.5,1.1,0.9,1.4,1.7l0.1,0.2l0,0.2c0,0.1,0,0.2,0,0.3c0,0.7,0.6,1.3,1.3,1.3s1.3-0.6,1.3-1.3c0-0.8-0.8-1.5-1.6-1.3l-0.2,0.1
		l-0.2-0.1c-1-0.5-2.6-2.1-2.7-3.2c0-0.2-0.1-0.4-0.2-0.5c-0.2-0.6-0.8-1-1.4-0.9l-0.2,0l-0.2-0.1c-0.6-0.3-1.1-0.8-1.7-1.3
		c-0.3-0.3-0.7-0.6-1-0.8l-0.6-0.4L12.6,3c0.5-0.4,0.8-0.7,1.2-1.1C14.9,1,16.1,1,17,2C20,4.9,23,7.8,26.2,11l0,0c1,1,1,2.3,0,3.3
		c-2.9,2.9-6,6-9.1,9.1C16.5,23.9,15.9,24.2,15.4,24.2z M11.2,6L9.8,7.5c-1.5,1.5-2.9,2.9-4.4,4.4c-0.6,0.6-0.6,1.1,0,1.7
		c3,3,6,6,9,9c0.7,0.7,1,0.7,1.7,0c3.1-3.1,6.2-6.1,9.1-9c0.5-0.5,0.5-1.1,0-1.6c-3.2-3.2-6.2-6.2-9.1-9c-0.5-0.5-1-0.5-1.6,0
		c-0.4,0.3-0.8,0.7-1.2,1L13.2,4c0.2,0.1,0.3,0.3,0.5,0.4c0.5,0.4,0.9,0.8,1.4,1c1-0.1,2,0.6,2.4,1.6c0.1,0.2,0.2,0.5,0.3,0.9
		c0,0.4,1,1.6,1.9,2.1c1.5-0.2,2.9,1,2.9,2.5c0,1.4-1.1,2.5-2.5,2.5s-2.5-1.1-2.5-2.5c0-0.1,0-0.2,0-0.3c-0.2-0.3-0.4-0.6-0.8-0.9
		l0,0.1c0,1,0,2,0,2.9c0,0.8,0,1.2,0.5,1.7c0.7,0.7,0.8,1.7,0.2,2.5C17,19.5,16.1,20,15.1,20c-1.4,0-2.5-1.1-2.5-2.5
		c0-0.8,0.4-1.6,1.1-2c0.2-0.4,0.3-0.8,0.2-1.1c0-0.5,0-1.1,0-1.6c0-1,0-1.9-0.2-2.8C13,9.6,12.6,8.8,12.6,8c0-0.1,0-0.2,0-0.3
		C12.2,7.2,11.8,6.7,11.2,6L11.2,6z"/>
</g>
</svg>
