<svg version="1.1" id="Layer_1" xmlns="http://www.w3.org/2000/svg" xmlns:xlink="http://www.w3.org/1999/xlink" x="0px" y="0px"
	 viewBox="-506.8 377.5 17.5 19.5" style="enable-background:new -506.8 377.5 17.5 19.5;" xml:space="preserve">
<g>
	<g>
		<path class="st0" d="M-499.4,397c-4.1,0-7.4-3.3-7.4-7.4s3.3-7.4,7.4-7.4s7.4,3.3,7.4,7.4S-495.4,397-499.4,397z M-499.4,383.6
			c-3.3,0-6.1,2.7-6.1,6.1s2.7,6.1,6.1,6.1s6.1-2.7,6.1-6.1S-496.1,383.6-499.4,383.6z"/>
	</g>
	<g>
		<path class="st0" d="M-497.1,392c-0.1,0-0.2,0-0.4-0.1l-2.6-1.7c-0.2-0.1-0.3-0.3-0.3-0.5v-4.1c0-0.4,0.3-0.6,0.6-0.6
			s0.6,0.3,0.6,0.6v3.8l2.3,1.5c0.3,0.2,0.4,0.6,0.2,0.9C-496.6,391.9-496.9,392-497.1,392z"/>
	</g>
	<g>
		<path class="st0" d="M-499.4,381.9c-1.2,0-2.2-1-2.2-2.2s1-2.2,2.2-2.2c1.2,0,2.2,1,2.2,2.2S-498.2,381.9-499.4,381.9z
			 M-499.4,378.8c-0.5,0-0.9,0.4-0.9,0.9s0.4,0.9,0.9,0.9c0.5,0,0.9-0.4,0.9-0.9S-498.9,378.8-499.4,378.8z"/>
	</g>
	<g>
		<path class="st0" d="M-491.3,387.6c-0.3,0-0.7-0.2-0.8-0.5l-1.1-2.1c-0.2-0.5-0.1-1,0.4-1.3l1.1-0.6c0.5-0.2,1-0.1,1.3,0.4
			l1.1,2.1c0.2,0.5,0.1,1-0.4,1.3l-1.1,0.6C-491,387.6-491.2,387.6-491.3,387.6z M-492,384.6l0.8,1.5l0.4-0.2l-0.8-1.5L-492,384.6z"
			/>
	</g>
</g>
</svg>
