<?xml version="1.0" encoding="utf-8"?>
<!-- Generator: Adobe Illustrator 25.3.1, SVG Export Plug-In . SVG Version: 6.00 Build 0)  -->
<svg version="1.1" id="Layer_1" xmlns="http://www.w3.org/2000/svg" xmlns:xlink="http://www.w3.org/1999/xlink" x="0px" y="0px"
	 viewBox="0 0 31.2 25.5" style="enable-background:new 0 0 31.2 25.5;" xml:space="preserve">
<style type="text/css">
	.st0{clip-path:url(#SVGID_2_);}
	.st1{fill:none;stroke:#9D9D9D;stroke-width:1.2;stroke-miterlimit:10;}
	.st2{fill:#9D9D9D;}
</style>
<g>
	<path class="st1" d="M4.9,21.9h19.1c0,0,4.9,0,5.9-5.3c1-4.8-3.1-8-7.1-8c0,0-1-5.7-6-5.7c-6.5,0-6.8,4.7-6.8,4.7S6.6,6.8,4.5,8.9
		s-1,4.9-1,4.9s-2.8,1.8-2.5,3.9S2,21.4,4.9,21.9z"/>
	<g>
		<path class="st2" d="M5.4,18.4c0.5,0.3,1.2,0.6,2,0.6c1.1,0,1.8-0.6,1.8-1.5c0-0.8-0.5-1.3-1.6-1.7c-1.4-0.5-2.3-1.2-2.3-2.4
			c0-1.3,1.1-2.3,2.8-2.3c0.9,0,1.5,0.2,1.9,0.4l-0.3,0.9C9.4,12.2,8.8,12,8,12c-1.2,0-1.6,0.7-1.6,1.3c0,0.8,0.5,1.2,1.7,1.7
			c1.5,0.6,2.2,1.3,2.2,2.5c0,1.3-1,2.5-3,2.5c-0.8,0-1.7-0.2-2.2-0.5L5.4,18.4z"/>
		<path class="st2" d="M13.7,19.8l-2.8-8.6h1.2l1.3,4.2c0.4,1.2,0.7,2.2,0.9,3.2h0c0.2-1,0.6-2.1,1-3.2l1.5-4.2H18l-3.1,8.6H13.7z"
			/>
		<path class="st2" d="M18.9,19.8v-8.6h1.2l2.8,4.3c0.6,1,1.1,1.9,1.5,2.8l0,0c-0.1-1.1-0.1-2.2-0.1-3.5v-3.6h1v8.6h-1.1l-2.7-4.4
			c-0.6-1-1.2-1.9-1.6-2.9l0,0c0.1,1.1,0.1,2.1,0.1,3.5v3.7H18.9z"/>
	</g>
</g>
</svg>
