<svg version="1.1" id="icon-calendar" xmlns="http://www.w3.org/2000/svg" xmlns:xlink="http://www.w3.org/1999/xlink" x="0px"
	 y="0px" viewBox="0 0 15 15" style="enable-background:new 0 0 15 15;" xml:space="preserve">
<g id="calendar">
	<rect x="0.8" y="0.5" class="st0" width="13.359" height="14"/>
	<line class="st0" x1="14.052" y1="4.561" x2="1.121" y2="4.561"/>
	<path class="st1" d="M4.319,11.176c0.286-0.267,0.548-0.517,0.785-0.75c0.237-0.232,0.441-0.45,0.613-0.655
		c0.171-0.204,0.305-0.394,0.401-0.57s0.144-0.344,0.144-0.503c0-0.22-0.056-0.388-0.169-0.503C5.981,8.079,5.825,8.022,5.628,8.022
		c-0.164,0-0.31,0.046-0.436,0.137C5.066,8.251,4.945,8.357,4.833,8.48L4.27,7.923c0.22-0.235,0.446-0.412,0.675-0.531
		c0.23-0.119,0.505-0.18,0.824-0.18c0.22,0,0.421,0.034,0.602,0.102c0.18,0.068,0.336,0.164,0.468,0.288
		C6.971,7.728,7.072,7.877,7.142,8.05c0.07,0.174,0.106,0.369,0.106,0.584c0,0.187-0.04,0.379-0.12,0.574
		c-0.079,0.195-0.186,0.389-0.32,0.584c-0.134,0.195-0.286,0.389-0.458,0.584c-0.172,0.195-0.349,0.386-0.532,0.574
		c0.113-0.014,0.238-0.027,0.377-0.039c0.139-0.012,0.261-0.018,0.37-0.018h0.901v0.873H4.319V11.176z"/>
	<path class="st1" d="M8.997,10.743c0.049-0.312,0.119-0.61,0.211-0.894S9.417,9.287,9.56,9.015
		c0.144-0.272,0.321-0.554,0.532-0.845H8.086V7.297h3.112V7.93c-0.258,0.315-0.466,0.609-0.623,0.884
		c-0.158,0.274-0.28,0.559-0.367,0.852s-0.149,0.608-0.186,0.943c-0.038,0.336-0.066,0.721-0.084,1.158H8.895
		C8.914,11.397,8.948,11.055,8.997,10.743z"/>
</g>
</svg>
