<?xml version="1.0" encoding="utf-8"?>
<!-- Generator: Adobe Illustrator 22.1.0, SVG Export Plug-In . SVG Version: 6.00 Build 0)  -->
<svg version="1.1" id="icon-lock_1_" xmlns="http://www.w3.org/2000/svg" xmlns:xlink="http://www.w3.org/1999/xlink" x="0px"
	 y="0px" viewBox="0 0 16 16" style="enable-background:new 0 0 16 16;" xml:space="preserve">
<style type="text/css">
	.st0{fill:none;stroke:#9EA3A8;stroke-linecap:round;stroke-linejoin:round;stroke-miterlimit:10;}
</style>
<g id="icon-lock">
	<path id="base" class="st0" d="M13.337,13c0,1.1-0.9,2-2,2H4.163c-1.1,0-2-0.9-2-2V7.207c0-1.1,0.9-2,2-2h7.175c1.1,0,2,0.9,2,2V13
		z"/>
	<path id="lock-arch" class="st0" d="M5.427,5.207V3.323C5.427,2.04,6.467,1,7.75,1s2.323,1.04,2.323,2.323v1.884"/>
	<path id="keyhole" class="st0" d="M9.429,9.287c0-0.927-0.752-1.679-1.679-1.679S6.071,8.36,6.071,9.287
		c0,0.564,0.28,1.06,0.706,1.364c0,0.105,0,0.214,0,0.306v1.324c0,0.166,0.136,0.301,0.301,0.301h1.375
		c0.166,0,0.301-0.136,0.301-0.301v-1.348c0-0.094,0-0.204,0-0.309C9.162,10.319,9.429,9.836,9.429,9.287z"/>
</g>
</svg>
