<svg x="0px" y="0px" viewBox="-503.7 379.2 17 10" style="enable-background:new -503.7 379.2 17 10;" xml:space="preserve">
  <g>
    <path d="M-487.3,380.4h-15.7c-0.4,0-0.6-0.3-0.6-0.6s0.3-0.6,0.6-0.6h15.7c0.4,0,0.6,0.3,0.6,0.6 S-487,380.4-487.3,380.4z"/>
    <path d="M-487.3,384.8h-15.7c-0.4,0-0.6-0.3-0.6-0.6s0.3-0.6,0.6-0.6h15.7c0.4,0,0.6,0.3,0.6,0.6 S-487,384.8-487.3,384.8z"/>
    <path d="M-487.3,389.2h-15.7c-0.4,0-0.6-0.3-0.6-0.6s0.3-0.6,0.6-0.6h15.7c0.4,0,0.6,0.3,0.6,0.6 S-487,389.2-487.3,389.2z"/>
  </g>
</svg>
