<svg xmlns="http://www.w3.org/2000/svg" xmlns:xlink="http://www.w3.org/1999/xlink" x="0px" y="0px" width="28" height="28" viewBox="0 0 28 28" style="enable-background:new 0 0 28 28;" xml:space="preserve">
<style type="text/css">
	.st0{fill-rule:evenodd;clip-rule:evenodd;}
</style>
<path class="st0" d="M14,0C6.27,0,0,6.43,0,14.36c0,6.34,4.01,11.72,9.57,13.62c0.7,0.13,0.96-0.31,0.96-0.69
	c0-0.34-0.01-1.24-0.02-2.44c-3.89,0.87-4.72-1.92-4.72-1.92c-0.64-1.66-1.55-2.1-1.55-2.1c-1.27-0.89,0.1-0.87,0.1-0.87
	c1.4,0.1,2.14,1.48,2.14,1.48c1.25,2.19,3.28,1.56,4.07,1.19c0.13-0.93,0.49-1.56,0.89-1.92c-3.11-0.36-6.38-1.59-6.38-7.09
	c0-1.57,0.55-2.85,1.44-3.85c-0.14-0.36-0.62-1.82,0.14-3.8c0,0,1.18-0.39,3.85,1.47c1.12-0.32,2.31-0.48,3.5-0.48
	c1.19,0.01,2.39,0.16,3.5,0.48c2.67-1.86,3.85-1.47,3.85-1.47c0.76,1.98,0.28,3.44,0.14,3.8c0.9,1,1.44,2.28,1.44,3.85
	c0,5.51-3.27,6.73-6.39,7.08c0.5,0.44,0.95,1.32,0.95,2.66c0,1.92-0.02,3.47-0.02,3.94c0,0.38,0.25,0.83,0.96,0.69
	C23.99,26.07,28,20.7,28,14.36C28,6.43,21.73,0,14,0z"/>
</svg>
