<svg version="1.1" id="Layer_1" xmlns="http://www.w3.org/2000/svg" xmlns:xlink="http://www.w3.org/1999/xlink" x="0px" y="0px" viewBox="9.195775985717773 11.336002349853516 17.65546226501465 16.325002670288086" xml:space="preserve">
<style type="text/css">
	.st0{fill:#000000;}
</style>
<path class="st0" d="M26.799,20.482l-0.926-2.845c-0.005-0.026-0.013-0.052-0.023-0.077l-1.857-5.719
	c-0.102-0.303-0.387-0.506-0.706-0.504c-0.323,0.002-0.597,0.201-0.697,0.508l-1.77,5.449h-5.59l-1.773-5.45
	c-0.1-0.307-0.373-0.506-0.697-0.508c-0.001,0-0.003,0-0.004,0c-0.318,0-0.6,0.202-0.703,0.508l-1.856,5.726
	c-0.002,0.005-0.004,0.009-0.006,0.014l-0.943,2.896c-0.142,0.437,0.012,0.913,0.384,1.183l8.145,5.918
	c0.074,0.053,0.159,0.08,0.245,0.08c0.088,0,0.175-0.028,0.248-0.082c0,0,0.001-0.001,0.001-0.001l8.145-5.915
	C26.787,21.395,26.941,20.919,26.799,20.482z M14.625,18.131l2.271,6.987l-5.45-6.987H14.625z M19.154,25.12l2.177-6.699l0.094-0.29
	h3.182l-4.929,6.317L19.154,25.12z M23.293,12.382l1.596,4.913h-3.191L23.293,12.382z M20.55,18.128l-1.582,4.868l-0.942,2.899
	l-2.524-7.766H20.55z M12.756,12.382l1.599,4.913h-3.191L12.756,12.382z M10.123,20.991c-0.079-0.057-0.111-0.158-0.081-0.251
	l0.7-2.15l5.134,6.582L10.123,20.991z M25.926,20.991l-5.753,4.178l0.02-0.025l5.115-6.554l0.7,2.15
	C26.037,20.833,26.005,20.934,25.926,20.991z"></path>
</svg>