<svg version="1.1" id="icon-linux" xmlns="http://www.w3.org/2000/svg" xmlns:xlink="http://www.w3.org/1999/xlink" x="0px" y="0px"
	 viewBox="0 0 15 15" style="enable-background:new 0 0 15 15;" xml:space="preserve">
<g id="linux">
	<path class="st0" d="M12.875,9.231c-0.001-0.612-1.256-2.546-2.238-3.51C9.91,5.008,9.769,2.699,9.769,2.699
		C9.701,1.473,8.686,0.5,7.443,0.5S5.184,1.473,5.116,2.699c-0.168,1.05-0.134,2.286-0.868,3.022c-0.971,0.975-2.13,2.86-2.238,3.51
		c-0.002,0.014-0.008,0.054-0.008,0.06C1.978,9.587,2.135,9.843,2.364,9.875C2.468,9.889,2.57,9.854,2.656,9.784
		C2.678,9.765,2.73,9.712,2.747,9.693c0.074-0.08,0.919-0.429,1.277-0.58c0.27,1.987,1.357,3.641,3.418,3.641
		s3.254-1.689,3.524-3.676c0.359,0.151,1.097,0.535,1.171,0.615c0.017,0.019,0.069,0.072,0.092,0.091
		c0.086,0.07,0.188,0.105,0.292,0.091C12.75,9.843,12.875,9.646,12.875,9.231z"/>
	<path class="st0" d="M4.154,9.889c0-1.741,1.641-3.986,3.385-3.986s3.384,1.852,3.384,3.593"/>
	<path class="st1" d="M8.595,3.766c0-0.105-0.056-0.151-0.089-0.173c-0.12-0.079-0.463-0.26-1.056-0.26
		c-0.604,0-0.951,0.171-1.066,0.241C6.354,3.591,6.28,3.636,6.28,3.766c0,0.066,0.031,0.123,0.079,0.157
		C6.368,3.93,7.355,4.592,7.355,4.592s0.042,0.03,0.082,0.03c0.029,0,0.082-0.026,0.082-0.026s0.996-0.662,1.035-0.71
		C8.58,3.854,8.595,3.812,8.595,3.766z"/>
	<g>
		<path class="st1" d="M11.597,12.449c0-0.237-0.164-0.435-0.385-0.487c-0.019-0.005-0.072-0.014-0.079-0.015
			c-0.211-0.059-0.367-0.252-0.367-0.482c0-0.02,0.004-0.093,0.001-0.127c-0.024-0.256-0.237-0.458-0.499-0.458
			c-0.139,0-0.265,0.057-0.356,0.149c-0.017,0.017-0.082,0.088-0.1,0.101c-0.144,0.108-0.341,0.136-0.515,0.054
			c-0.012-0.006-0.058-0.037-0.07-0.046c-0.08-0.054-0.175-0.085-0.279-0.085c-0.216,0-0.397,0.137-0.47,0.328
			c-0.02,0.052-0.088,0.351-0.088,1.295c0,0.673,0.087,1.421,0.411,1.655c0,0,0.088,0.078,0.188,0.117
			C9.113,14.497,9.263,14.5,9.281,14.5c1.049,0,2.208-1.729,2.256-1.814C11.576,12.616,11.597,12.535,11.597,12.449z"/>
		<path class="st1" d="M3.278,12.449c0-0.237,0.164-0.435,0.385-0.487c0.019-0.005,0.072-0.014,0.079-0.015
			c0.211-0.059,0.367-0.252,0.367-0.482c0-0.02-0.004-0.093-0.001-0.127c0.024-0.256,0.237-0.458,0.499-0.458
			c0.139,0,0.265,0.057,0.356,0.149c0.017,0.017,0.082,0.088,0.1,0.101c0.144,0.108,0.341,0.136,0.515,0.054
			c0.012-0.006,0.058-0.037,0.07-0.046c0.08-0.054,0.175-0.085,0.279-0.085c0.216,0,0.397,0.137,0.47,0.328
			c0.02,0.052,0.088,0.351,0.088,1.295c0,0.673-0.087,1.421-0.411,1.655c0,0-0.088,0.078-0.188,0.117
			C5.762,14.497,5.612,14.5,5.594,14.5c-1.049,0-2.208-1.729-2.256-1.814C3.299,12.616,3.278,12.535,3.278,12.449z"/>
	</g>
</g>
</svg>
