<svg version="1.1" id="icon-mac" xmlns="http://www.w3.org/2000/svg" xmlns:xlink="http://www.w3.org/1999/xlink" x="0px" y="0px"
	 viewBox="0 0 15 15" style="enable-background:new 0 0 15 15;" xml:space="preserve">
<g id="mac">
	<path class="st0" d="M2.06,9.075c0-0.185,0-0.371,0-0.556C2.063,8.5,2.068,8.482,2.07,8.464c0.026-0.213,0.04-0.428,0.081-0.638
		c0.141-0.731,0.452-1.379,0.991-1.9c0.553-0.534,1.216-0.827,1.99-0.847C5.485,5.07,5.817,5.173,6.146,5.287
		c0.289,0.1,0.578,0.203,0.868,0.303c0.134,0.046,0.267,0.045,0.402-0.003c0.273-0.098,0.548-0.19,0.821-0.288
		c0.307-0.111,0.62-0.201,0.945-0.242c0.281-0.035,0.558-0.005,0.835,0.046c0.578,0.108,1.093,0.342,1.518,0.757
		c0.133,0.129,0.251,0.271,0.352,0.424c-0.006,0.008-0.008,0.012-0.011,0.014c-0.014,0.01-0.028,0.019-0.042,0.028
		c-0.35,0.227-0.657,0.501-0.883,0.855c-0.42,0.657-0.49,1.372-0.333,2.118c0.131,0.62,0.472,1.113,0.961,1.508
		c0.194,0.156,0.402,0.29,0.636,0.381c0,0.008,0,0.017,0,0.025c-0.005,0.009-0.011,0.017-0.014,0.027
		c-0.069,0.183-0.133,0.368-0.208,0.548c-0.235,0.567-0.553,1.086-0.921,1.576c-0.213,0.283-0.435,0.558-0.717,0.778
		c-0.348,0.272-0.735,0.4-1.179,0.323c-0.263-0.045-0.512-0.133-0.757-0.234C8.086,14.094,7.742,14,7.379,14
		c-0.278,0-0.548,0.052-0.81,0.142c-0.242,0.083-0.48,0.181-0.723,0.26c-0.137,0.045-0.281,0.067-0.422,0.099
		c-0.084,0-0.169,0-0.253,0c-0.091-0.024-0.184-0.041-0.273-0.072c-0.29-0.1-0.52-0.291-0.733-0.501
		c-0.33-0.325-0.595-0.703-0.853-1.085c-0.412-0.611-0.704-1.279-0.923-1.981C2.232,10.359,2.124,9.846,2.083,9.32
		C2.076,9.237,2.067,9.156,2.06,9.075z"/>
	<path class="st0" d="M9.93,0.5c0.02,0.265,0.012,0.53-0.035,0.792c-0.1,0.546-0.344,1.023-0.692,1.449
		C8.9,3.111,8.543,3.413,8.093,3.59C7.8,3.705,7.496,3.752,7.182,3.73c-0.019-0.001-0.037-0.005-0.06-0.008
		c0-0.181-0.015-0.361,0.002-0.539c0.11-1.121,1.027-2.3,2.436-2.632C9.65,0.531,9.741,0.517,9.831,0.5
		C9.864,0.5,9.897,0.5,9.93,0.5z"/>
</g>
</svg>
