<?xml version="1.0" standalone="no"?>
<!DOCTYPE svg PUBLIC "-//W3C//DTD SVG 20010904//EN"
 "http://www.w3.org/TR/2001/REC-SVG-20010904/DTD/svg10.dtd">
<svg version="1.0" xmlns="http://www.w3.org/2000/svg"
 width="90.000000pt" height="99.000000pt" viewBox="0 0 90.000000 99.000000"
 preserveAspectRatio="xMidYMid meet">
<metadata>
Created by potrace 1.15, written by Peter Selinger 2001-2017
</metadata>
<g transform="translate(0.000000,99.000000) scale(0.100000,-0.100000)"
fill="#000000" stroke="none">
<path d="M397 980 c-15 -5 -100 -51 -189 -102 -218 -126 -208 -109 -208 -387
0 -230 3 -243 57 -292 15 -14 96 -65 179 -112 146 -84 153 -87 214 -87 61 0
68 3 214 87 83 47 164 98 179 112 54 49 57 62 57 292 0 278 9 261 -208 387
-194 113 -224 123 -295 102z m167 -429 c64 -128 97 -204 93 -215 -11 -28 -25
-10 -82 105 -31 60 -57 109 -60 109 -3 0 -28 -46 -56 -102 -62 -125 -67 -132
-85 -117 -11 9 -1 36 52 141 l66 131 -18 39 c-9 21 -20 38 -23 38 -4 0 -45
-77 -91 -171 -90 -180 -105 -203 -116 -174 -10 24 185 415 206 415 10 0 50
-69 114 -199z"/>
</g>
</svg>
