<?xml version="1.0" encoding="utf-8"?>
<!-- Generator: Adobe Illustrator 21.1.0, SVG Export Plug-In . SVG Version: 6.00 Build 0)  -->
<svg version="1.1" id="icon-compare" xmlns="http://www.w3.org/2000/svg" xmlns:xlink="http://www.w3.org/1999/xlink" x="0px"
	 y="0px" viewBox="0 0 17 17" style="enable-background:new 0 0 17 17;" xml:space="preserve">
<style type="text/css">
	.st0{fill:none;stroke:#9D9D9D;stroke-linecap:round;stroke-linejoin:round;stroke-miterlimit:10;}
</style>
<g>
	<g>
		<circle class="st0" cx="3.8" cy="3.2" r="1.7"/>
		<path class="st0" d="M6.75,15.5c0,0,1.95-1.95,1.95-1.98H6.3c0,0-2.48,0.15-2.48-2.46s0-6.14,0-6.14"/>
		<path class="st0" d="M6.75,11.56c0,0,1.95,1.95,1.95,1.97"/>
	</g>
	<g>
		<circle class="st0" cx="13.2" cy="13.8" r="1.7"/>
		<path class="st0" d="M10.25,1.5c0,0-1.95,1.95-1.95,1.97h2.4c0,0,2.48-0.15,2.48,2.46s0,6.14,0,6.14"/>
		<path class="st0" d="M10.25,5.44c0,0-1.95-1.95-1.95-1.97"/>
	</g>
</g>
</svg>
