<svg version="1.1" id="icon-github" xmlns="http://www.w3.org/2000/svg" xmlns:xlink="http://www.w3.org/1999/xlink" x="0px"
	 y="0px" viewBox="0 0 15 15" style="enable-background:new 0 0 15 15;" xml:space="preserve">
<path id="github" class="st0" d="M10.384,11.324c0-0.408-0.06-0.807-0.243-1.179c-0.085-0.173-0.186-0.335-0.33-0.467
	C9.805,9.672,9.799,9.664,9.787,9.65c0.099-0.011,0.191-0.021,0.283-0.031c0.753-0.082,1.451-0.324,2.098-0.716
	c0.318-0.193,0.618-0.409,0.848-0.706c0.275-0.355,0.456-0.757,0.58-1.188c0.124-0.43,0.186-0.87,0.221-1.315
	c0.021-0.265,0.031-0.529,0.002-0.795c-0.083-0.743-0.35-1.405-0.853-1.964c-0.034-0.038-0.042-0.066-0.02-0.115
	c0.08-0.175,0.095-0.366,0.126-0.553c0.1-0.597-0.039-1.162-0.229-1.72c-0.013-0.038-0.039-0.046-0.071-0.045
	c-0.131,0.008-0.263,0.015-0.394,0.026c-0.326,0.029-0.628,0.14-0.912,0.293c-0.352,0.19-0.696,0.397-1.044,0.595
	c-0.022,0.012-0.055,0.017-0.079,0.011c-0.494-0.13-0.995-0.213-1.504-0.254C8.43,1.14,7.317,1.138,6.908,1.164
	C6.36,1.198,5.82,1.284,5.289,1.428c-0.038,0.01-0.064,0.003-0.096-0.017c-0.405-0.262-0.824-0.5-1.264-0.699
	c-0.33-0.15-0.679-0.195-1.035-0.211c-0.092-0.004-0.095,0-0.124,0.085C2.648,0.951,2.55,1.32,2.525,1.706
	C2.507,1.999,2.55,2.286,2.608,2.571c0.018,0.092,0.05,0.183,0.082,0.271c0.013,0.034,0.004,0.051-0.015,0.076
	C2.571,3.05,2.462,3.18,2.366,3.318C2.072,3.737,1.918,4.21,1.832,4.71c-0.07,0.409-0.043,0.819-0.001,1.228
	c0.044,0.431,0.121,0.854,0.258,1.266c0.129,0.39,0.312,0.751,0.576,1.067c0.201,0.24,0.45,0.424,0.714,0.59
	c0.526,0.332,1.094,0.563,1.704,0.683c0.226,0.044,0.752,0.105,0.752,0.105s-0.186,1.31-0.674,1.589
	c-0.538,0.307-1.365,0.371-1.929-0.192C3.03,10.844,2.536,9.892,1.847,9.635c-0.879-0.327-1.044,0.816-0.628,1.399
	c0.261,0.367,0.625,0.761,0.77,1.078c0.404,0.886,1.056,1.281,1.521,1.416c0.619,0.18,1.688-0.016,1.688-0.016l0.06,0.989
	l5.112-0.006C10.368,14.494,10.384,12.127,10.384,11.324z"/>
</svg>
