<svg x="0px" y="0px" width="15" height="15" viewBox="0 0 15 15" aria-labelledby="title">
    <title id="title">Cron job event</title>
    <circle cx="10.982" cy="5.518" r="3.518"></circle>
    <polyline points="10.869,3.361 10.869,5.518 12.228,6.399"></polyline>
    <path d="M7.391,5.364H6.705c-0.295,0-0.591,0.295-0.591,0.65v1.558H4.755V6.014c0-0.355-0.236-0.65-0.591-0.65H2.391c-0.295,0-0.591,0.295-0.591,0.65v1.558H1.091c-0.295,0-0.591,0.295-0.591,0.65v3.642c0,0.355,0.236,0.65,0.591,0.65h8.865c0.295,0,0.591-0.295,0.591-0.65V9.016"></path>
</svg>
