<?xml version="1.0" encoding="utf-8"?>
<!-- Generator: Adobe Illustrator 25.3.1, SVG Export Plug-In . SVG Version: 6.00 Build 0)  -->
<svg version="1.1" id="Layer_1" xmlns="http://www.w3.org/2000/svg" xmlns:xlink="http://www.w3.org/1999/xlink" x="0px" y="0px"
	 viewBox="0 0 31.2 25.5" style="enable-background:new 0 0 31.2 25.5;" xml:space="preserve">
<style type="text/css">
	.st0{clip-path:url(#SVGID_2_);}
	.st1{fill:none;stroke:#9D9D9D;stroke-width:1.2;stroke-miterlimit:10;}
	.st2{fill:#9D9D9D;}
</style>
<path class="st2" d="M9.7,22.5c-0.5,0.6-0.9,1.2-1.4,1.9c-2.1-1.4-3.6-3.2-4.5-5.5C1.1,12.2,4.5,3.3,13.3,1.4c2.8-0.6,5.5-0.2,8,1.1
	c0.3,0.2,0.5,0.2,0.8-0.1c0.4-0.4,0.9-0.8,1.3-1.3c1.8,1.2,3,2.8,3.8,4.7c1.5,3.7,1.3,7.3-0.1,10.9c-1.6,4-4.6,6.4-8.8,7.3
	c-2.8,0.6-5.5,0.1-8-1.2C10.1,22.7,9.9,22.6,9.7,22.5z M23.8,17.2c0.1-0.2,0.2-0.3,0.2-0.5c1.8-3.5,1.1-7.8-1.6-10.5
	c-2.7-2.7-6.1-3.5-9.8-2.6C10.2,4,8.3,5.5,6.7,7.3c0.1,0.1,0.1,0.2,0.2,0.2c0.5,0.3,0.5,0.6,0.2,1.2c-1.4,3-1.2,6,0.6,8.8
	c2.6,4.2,8.8,5.8,13.3,3.4c1.4-0.8,2.6-1.7,3.6-3C24.3,17.6,24.1,17.4,23.8,17.2z"/>
</svg>
