<?xml version="1.0" encoding="utf-8"?>
<!-- Generator: Adobe Illustrator 19.1.0, SVG Export Plug-In . SVG Version: 6.00 Build 0)  -->
<svg version="1.1" id="Layer_1" xmlns="http://www.w3.org/2000/svg" xmlns:xlink="http://www.w3.org/1999/xlink" x="0px" y="0px"
	 viewBox="-503.7 379.2 17 10" style="enable-background:new -503.7 379.2 17 10;" xml:space="preserve">
<style type="text/css">
	.st0{fill:#939798;}
</style>
<g id="tofuburger">
	<g>
		<g>
			<path class="st0" d="M-487.3,380.4h-15.7c-0.4,0-0.6-0.3-0.6-0.6s0.3-0.6,0.6-0.6h15.7c0.4,0,0.6,0.3,0.6,0.6
				S-487,380.4-487.3,380.4z"/>
		</g>
	</g>
	<g>
		<g>
			<path class="st0" d="M-487.3,384.8h-15.7c-0.4,0-0.6-0.3-0.6-0.6s0.3-0.6,0.6-0.6h15.7c0.4,0,0.6,0.3,0.6,0.6
				S-487,384.8-487.3,384.8z"/>
		</g>
	</g>
	<g>
		<g>
			<path class="st0" d="M-487.3,389.2h-15.7c-0.4,0-0.6-0.3-0.6-0.6s0.3-0.6,0.6-0.6h15.7c0.4,0,0.6,0.3,0.6,0.6
				S-487,389.2-487.3,389.2z"/>
		</g>
	</g>
</g>
</svg>
