<svg version="1.1" id="icon-repooctocat" xmlns="http://www.w3.org/2000/svg" xmlns:xlink="http://www.w3.org/1999/xlink" x="0px" y="0px" viewBox="0 0 15 15" style="enable-background:new 0 0 15 15;" xml:space="preserve" width="30px" height="30px">
<path id="repooctocat" class="st0" d="M7.5,0.5c-3.866,0-7,3.134-7,7c0,3.349,2.352,6.148,5.494,6.837l-0.027-1.679
	c0,0-0.738,0.136-1.165,0.011c-0.32-0.093-0.77-0.365-1.049-0.977c-0.1-0.218-0.351-0.49-0.531-0.743
	c-0.287-0.402-0.173-1.191,0.433-0.965c0.475,0.177,0.816,0.834,0.956,0.973C5,11.346,5.571,11.302,5.942,11.09
	c0.337-0.192,0.465-0.751,0.465-0.751s-0.363-0.042-0.519-0.072c-0.421-0.083-0.812-0.242-1.176-0.471
	C4.531,9.681,4.359,9.554,4.221,9.388C4.039,9.17,3.912,8.921,3.823,8.652C3.729,8.368,3.676,8.076,3.645,7.779
	C3.617,7.496,3.598,7.214,3.646,6.932c0.06-0.345,0.166-0.672,0.369-0.961c0.067-0.095,0.141-0.184,0.213-0.276
	c0.013-0.017,0.019-0.029,0.01-0.052C4.216,5.582,4.194,5.52,4.181,5.456c-0.039-0.197-0.07-0.395-0.057-0.597
	c0.017-0.266,0.084-0.521,0.169-0.772c0.02-0.059,0.022-0.062,0.085-0.059C4.625,4.039,4.866,4.07,5.093,4.174
	c0.304,0.138,0.592,0.302,0.872,0.482c0.022,0.014,0.04,0.019,0.066,0.012C6.397,4.569,6.77,4.509,7.148,4.485
	C7.43,4.468,8.197,4.469,8.479,4.492C8.83,4.52,9.176,4.577,9.517,4.667c0.017,0.004,0.04,0.001,0.055-0.007
	c0.24-0.136,0.477-0.279,0.72-0.41c0.196-0.106,0.404-0.182,0.629-0.202c0.09-0.008,0.181-0.013,0.272-0.018
	c0.022-0.001,0.04,0.004,0.049,0.031c0.131,0.385,0.226,0.775,0.158,1.187c-0.021,0.129-0.032,0.261-0.087,0.381
	c-0.015,0.034-0.01,0.053,0.014,0.079c0.347,0.386,0.531,0.843,0.589,1.355c0.021,0.183,0.013,0.366-0.001,0.548
	c-0.024,0.307-0.067,0.61-0.152,0.907s-0.21,0.574-0.4,0.819c-0.159,0.205-0.366,0.354-0.585,0.487
	c-0.447,0.27-0.928,0.437-1.448,0.494c-0.063,0.007-0.126,0.014-0.195,0.021c0.008,0.01,0.012,0.015,0.017,0.02
	c0.099,0.091,0.169,0.203,0.227,0.322c0.127,0.256,0.168,0.532,0.168,0.813c0,0.347-0.004,1.725-0.008,2.704
	C12.41,13.325,14.5,10.657,14.5,7.5C14.5,3.634,11.366,0.5,7.5,0.5z"/>
</svg>
