<svg width="16" height="16" viewBox="0 0 16 16" fill="none" xmlns="http://www.w3.org/2000/svg">
<path d="M4.304 11.3163V14.3032H2.31704V11.3163H4.304ZM4.51328 10.3098H2.10776C1.66941 10.3098 1.31055 10.6687 1.31055 11.107V14.5125C1.31055 14.9508 1.66941 15.3097 2.10776 15.3097H4.51328C4.95163 15.3097 5.3105 14.9508 5.3105 14.5125V11.107C5.3105 10.6687 4.95163 10.3098 4.51328 10.3098Z" fill="#9D9D9D"/>
<path d="M9.3206 7.3168V14.3036H7.33364V7.3168H9.3206ZM9.52989 6.3103H7.12436C6.68602 6.3103 6.32715 6.66917 6.32715 7.10752V14.5129C6.32715 14.9512 6.68602 15.3101 7.12436 15.3101H9.52989C9.96823 15.3101 10.3271 14.9512 10.3271 14.5129V7.10752C10.3271 6.66917 9.96823 6.3103 9.52989 6.3103Z" fill="#9D9D9D"/>
<path d="M14.304 2.31655V14.3032H12.317V2.31655H14.304ZM14.5133 1.31006H12.1078C11.6694 1.31006 11.3105 1.66893 11.3105 2.10727V14.5125C11.3105 14.9508 11.6694 15.3097 12.1078 15.3097H14.5133C14.9516 15.3097 15.3105 14.9508 15.3105 14.5125V2.10727C15.3105 1.66893 14.9516 1.31006 14.5133 1.31006Z" fill="#9D9D9D"/>
</svg>
