<?xml version="1.0" encoding="utf-8"?>
<!-- Generator: Adobe Illustrator 20.0.0, SVG Export Plug-In . SVG Version: 6.00 Build 0)  -->
<svg version="1.1" id="icon-debug" xmlns="http://www.w3.org/2000/svg" xmlns:xlink="http://www.w3.org/1999/xlink" x="0px" y="0px"
	 viewBox="0 0 15 15" style="enable-background:new 0 0 15 15;" xml:space="preserve">
<style type="text/css">
	.st0{fill:none;stroke:#9D9D9D;stroke-linecap:round;stroke-linejoin:round;stroke-miterlimit:10;}
</style>
<path id="Debug" class="st0" d="M14.474,7.606c0-0.741-0.562-1.344-1.254-1.344h-1.528l1.282-1.186
	c0.277-0.256,0.435-0.627,0.435-1.018V2.36c0-0.741-0.562-1.344-1.254-1.344c-0.692,0-1.255,0.603-1.255,1.344v1.082L9.846,4.417
	C9.754,4.327,9.67,4.224,9.571,4.146c0.04-0.159,0.063-1.259,0.063-1.43c0-1.155-0.958-2.091-2.141-2.091
	c-1.182,0-2.141,0.936-2.141,2.091c0,0.177,0.025,1.281,0.067,1.445C5.321,4.239,5.239,4.342,5.147,4.431L4.078,3.442V2.36
	c0-0.742-0.562-1.345-1.254-1.345S1.569,1.619,1.569,2.36v1.697c0,0.39,0.158,0.76,0.435,1.017l1.281,1.187H1.787
	c-0.692,0-1.254,0.603-1.254,1.344S1.095,8.95,1.787,8.95h1.598l-1.382,1.28c-0.276,0.256-0.434,0.627-0.434,1.017v1.697
	c0,0.742,0.562,1.345,1.254,1.345s1.255-0.603,1.255-1.345v-1.082l0.807-0.747c0.676,0.79,1.599,1.278,2.619,1.278
	c1.012,0,1.93-0.482,2.605-1.262l0.79,0.731v1.082c0,0.742,0.563,1.345,1.255,1.345c0.692,0,1.254-0.603,1.254-1.345v-1.697
	c0-0.389-0.158-0.759-0.434-1.017L11.593,8.95h1.627C13.912,8.95,14.474,8.347,14.474,7.606z"/>
</svg>
