<svg viewBox="0 0 12.608 16" xmlns="http://www.w3.org/2000/svg"><path d="m8.208 0h-7.808a.4.4 0 0 0 -.4.4v15.2a.4.4 0 0 0 .4.4h11.8a.4.4 0 0 0 .4-.4v-11.2z" fill="#e0dede"/><path d="m12.608 4.4h-4a.4.4 0 0 1 -.4-.4v-4z" fill="#aaa9a9"/><g fill="none" stroke="#666766" stroke-linecap="round" stroke-linejoin="round"><path d="m7.341 6.813a1.176 1.176 0 0 0 -.961-.4.959.959 0 0 0 -1.051 1.005c0 .582.317.87 1.119 1.2s1.057.757 1.057 1.277a1.1 1.1 0 0 1 -1.153 1.136 1.71 1.71 0 0 1 -1.249-.5"/><path d="m6.38 6.412v-1.168"/><path d="m6.38 12.197v-1.168"/></g></svg>