<svg xmlns="http://www.w3.org/2000/svg" height="154" width="154">
  <path d="M0 640q0 209 103 385.5t279.5 279.5t385.5 103t385.5 -103t279.5 -279.5t103 -385.5t-103 -385.5t-279.5 -279.5t-385.5 -103t-385.5 103t-279.5 279.5t-103 385.5zM224 640q0 -148 73 -273t198 -198t273 -73t273 73t198 198t73 273t-73 273t-198 198t-273 73t-273 -73 t-198 -198t-73 -273zM512 544v64q0 14 9 23t23 9h224v352q0 14 9 23t23 9h64q14 0 23 -9t9 -23v-448q0 -14 -9 -23t-23 -9h-320q-14 0 -23 9t-9 23z" transform="scale(0.1, -0.1) translate(0, -1409)" fill="#999"/>
</svg>

