<?xml version="1.0" encoding="utf-8"?>
<!-- Generator: Adobe Illustrator 16.0.4, SVG Export Plug-In . SVG Version: 6.00 Build 0)  -->
<!DOCTYPE svg PUBLIC "-//W3C//DTD SVG 1.1//EN" "http://www.w3.org/Graphics/SVG/1.1/DTD/svg11.dtd">
<svg version="1.1" id="Layer_1" xmlns="http://www.w3.org/2000/svg" xmlns:xlink="http://www.w3.org/1999/xlink" x="0px" y="0px"
	 width="16px" height="16px" viewBox="0 0 16 16" enable-background="new 0 0 16 16" xml:space="preserve">
<path fill-rule="evenodd" clip-rule="evenodd" fill="#D7E7D6" d="M7.999,0.25c-4.278,0-7.749,3.558-7.749,7.947
	c0,3.51,2.218,6.489,5.302,7.54c0.384,0.072,0.528-0.172,0.528-0.383c0-0.188-0.009-0.689-0.009-1.352
	c-2.157,0.479-2.612-1.066-2.612-1.066c-0.354-0.918-0.861-1.162-0.861-1.162c-0.705-0.492,0.052-0.482,0.052-0.482
	c0.779,0.057,1.189,0.82,1.189,0.82c0.688,1.211,1.812,0.861,2.255,0.66c0.067-0.514,0.269-0.865,0.491-1.064
	c-1.722-0.199-3.529-0.881-3.529-3.926c0-0.868,0.303-1.576,0.796-2.133C3.771,5.447,3.508,4.639,3.929,3.544
	c0,0,0.65-0.212,2.129,0.815C6.676,4.184,7.342,4.096,8,4.094c0.658,0.002,1.322,0.09,1.941,0.266
	c1.479-1.027,2.127-0.815,2.127-0.815c0.424,1.094,0.159,1.902,0.078,2.103c0.495,0.558,0.796,1.266,0.796,2.133
	c0,3.051-1.812,3.725-3.538,3.92c0.279,0.248,0.524,0.73,0.524,1.473c0,1.062-0.007,1.918-0.007,2.18
	c0,0.211,0.141,0.459,0.533,0.383c3.076-1.055,5.295-4.029,5.295-7.54C15.75,3.808,12.278,0.25,7.999,0.25"/>
</svg>
