<?xml version="1.0" encoding="utf-8"?>
<!-- Generator: Adobe Illustrator 16.0.4, SVG Export Plug-In . SVG Version: 6.00 Build 0)  -->
<!DOCTYPE svg PUBLIC "-//W3C//DTD SVG 1.1//EN" "http://www.w3.org/Graphics/SVG/1.1/DTD/svg11.dtd">
<svg version="1.1" id="Layer_1" xmlns="http://www.w3.org/2000/svg" xmlns:xlink="http://www.w3.org/1999/xlink" x="0px" y="0px"
	 width="13.443px" height="13.493px" viewBox="0 0 13.443 13.493" enable-background="new 0 0 13.443 13.493" xml:space="preserve">
<path fill="#E9E9E9" d="M0.083,2.718l3.099,3.098c0.248,0.248,0.385,0.578,0.385,0.934c0,0.354-0.137,0.684-0.385,0.932l-3.1,3.098
	c-0.108,0.109-0.109,0.295,0,0.402l2.208,2.207c0.143,0.141,0.259,0.141,0.401,0l3.098-3.098c0.249-0.248,0.58-0.387,0.934-0.387
	c0.353,0,0.684,0.139,0.932,0.387l3.099,3.098c0.142,0.141,0.259,0.141,0.402,0l2.207-2.207c0.108-0.107,0.108-0.293,0-0.402
	l-3.099-3.098c-0.514-0.514-0.514-1.35,0-1.865l3.099-3.098c0.108-0.109,0.108-0.293,0-0.404l-2.208-2.205
	c-0.143-0.145-0.26-0.145-0.401,0l-3.1,3.098c-0.495,0.498-1.367,0.498-1.863,0L2.691,0.108c-0.144-0.146-0.259-0.143-0.4,0
	L0.082,2.315C-0.027,2.425-0.027,2.608,0.083,2.718z"/>
</svg>
