<?xml version="1.0" encoding="utf-8"?>
<!-- Generator: Adobe Illustrator 16.0.4, SVG Export Plug-In . SVG Version: 6.00 Build 0)  -->
<!DOCTYPE svg PUBLIC "-//W3C//DTD SVG 1.1//EN" "http://www.w3.org/Graphics/SVG/1.1/DTD/svg11.dtd">
<svg version="1.1" id="Layer_1" xmlns="http://www.w3.org/2000/svg" xmlns:xlink="http://www.w3.org/1999/xlink" x="0px" y="0px"
	 width="14px" height="13px" viewBox="0 0 14 13" enable-background="new 0 0 14 13" xml:space="preserve">
<path fill="#FFFFFF" d="M13.904,2.135C14.085,1.85,14,1.46,13.718,1.276l-1.802-1.181c-0.283-0.182-0.662-0.097-0.844,0.188
	l-5.18,8.271C5.71,8.844,5.333,8.93,5.051,8.743L2.105,6.805C1.826,6.624,1.442,6.704,1.263,6.993L0.099,8.852
	c-0.186,0.287-0.102,0.678,0.178,0.86l4.614,3.06c0.283,0.186,0.781,0.277,1.112,0.203l0.69-0.152
	c0.328-0.069,0.746-0.365,0.924-0.655L13.904,2.135z"/>
</svg>
