<?xml version="1.0" encoding="utf-8"?>
<!-- Generator: Adobe Illustrator 16.0.4, SVG Export Plug-In . SVG Version: 6.00 Build 0)  -->
<!DOCTYPE svg PUBLIC "-//W3C//DTD SVG 1.1//EN" "http://www.w3.org/Graphics/SVG/1.1/DTD/svg11.dtd">
<svg version="1.1" id="Layer_1" xmlns="http://www.w3.org/2000/svg" xmlns:xlink="http://www.w3.org/1999/xlink" x="0px" y="0px"
	 width="100.266px" height="22px" viewBox="0 0 100.266 22" enable-background="new 0 0 100.266 22" xml:space="preserve">
<g>
	<path fill="#9d9d9d" d="M5.759,4.603H0V1.635h15.021v2.967H9.295v16.833H5.759V4.603z"/>
	<path fill="#9d9d9d" d="M14.709,6.57h2.894l0.245,2.633h0.123c1.064-1.936,2.649-2.995,4.237-2.995c0.76,0,1.247,0.09,1.705,0.301
		l-0.61,3.028c-0.518-0.152-0.914-0.242-1.554-0.242c-1.188,0-2.62,0.817-3.534,3.059v9.082h-3.504V6.57H14.709z"/>
	<path fill="#9d9d9d" d="M33.481,11.93c-0.032-1.574-0.702-2.907-2.713-2.907c-1.492,0-2.895,0.665-4.205,1.452l-1.281-2.331
		c1.646-1.03,3.748-1.937,6.125-1.937c3.75,0,5.578,2.271,5.578,6.417v8.812H34.12l-0.272-1.634h-0.094
		c-1.34,1.12-2.864,1.998-4.631,1.998c-2.622,0-4.45-1.758-4.45-4.36C24.673,14.26,27.355,12.595,33.481,11.93z M30.219,19.075
		c1.22,0,2.165-0.605,3.263-1.636v-3.33c-4.056,0.516-5.396,1.574-5.396,3.059C28.085,18.499,28.97,19.075,30.219,19.075z"/>
	<path fill="#9d9d9d" d="M37.988,6.57h3.566l2.376,7.721c0.396,1.453,0.854,2.967,1.249,4.48h0.123
		c0.428-1.515,0.853-3.027,1.28-4.48l2.376-7.721h3.384l-5.089,14.866h-4.054L37.988,6.57z"/>
	<path fill="#9d9d9d" d="M53.655,1.999C53.655,0.817,54.569,0,55.817,0c1.25,0,2.164,0.817,2.164,1.999
		c0,1.15-0.914,1.968-2.164,1.968C54.569,3.966,53.655,3.148,53.655,1.999z M54.051,6.57h3.505v14.866h-3.505V6.57z"/>
	<path fill="#9d9d9d" d="M61.21,17.501c1.341,1.026,2.62,1.664,4.144,1.664c1.617,0,2.377-0.757,2.377-1.785
		c0-1.243-1.613-1.789-3.201-2.394c-1.979-0.728-4.202-1.848-4.202-4.327c0-2.607,2.102-4.452,5.454-4.452
		c2.071,0,3.75,0.848,4.967,1.786l-1.614,2.119c-1.036-0.756-2.102-1.271-3.291-1.271c-1.495,0-2.194,0.696-2.194,1.634
		c0,1.151,1.493,1.636,3.106,2.21c2.044,0.758,4.298,1.728,4.298,4.513c0,2.542-2.042,4.603-5.819,4.603
		c-2.041,0-4.207-0.878-5.668-2.061L61.21,17.501z"/>
	<path fill="#9d9d9d" d="M88.242,1.272c2.436,0,4.418,1.18,5.667,2.512l-1.95,2.181c-1.036-1-2.162-1.635-3.688-1.635
		c-3.263,0-5.607,2.726-5.607,7.176c0,4.512,2.164,7.234,5.483,7.234c1.77,0,3.077-0.725,4.207-1.965l1.949,2.148
		c-1.614,1.846-3.685,2.876-6.216,2.876c-5.06,0-9.05-3.636-9.05-10.204C79.038,5.117,83.121,1.272,88.242,1.272z"/>
	<path fill="#9d9d9d" d="M96.467,1.635H100v19.801h-3.533V1.635z"/>
</g>
</svg>
