<svg xmlns="http://www.w3.org/2000/svg" height="153" width="141">
  <path d="M0 131q0 53 3.5 103.5t14 109t26.5 108.5t43 97.5t62 81t85.5 53.5t111.5 20q9 0 42 -21.5t74.5 -48t108 -48t133.5 -21.5t133.5 21.5t108 48t74.5 48t42 21.5q61 0 111.5 -20t85.5 -53.5t62 -81t43 -97.5t26.5 -108.5t14 -109t3.5 -103.5q0 -120 -73 -189.5t-194 -69.5 h-874q-121 0 -194 69.5t-73 189.5zM320 1024q0 159 112.5 271.5t271.5 112.5t271.5 -112.5t112.5 -271.5t-112.5 -271.5t-271.5 -112.5t-271.5 112.5t-112.5 271.5z" transform="scale(0.1, -0.1) translate(0, -1409)" fill="#999"/>
</svg>

