<?xml version="1.0" encoding="utf-8"?>
<!-- Generator: Adobe Illustrator 15.0.0, SVG Export Plug-In . SVG Version: 6.00 Build 0)  -->
<!DOCTYPE svg PUBLIC "-//W3C//DTD SVG 1.1//EN" "http://www.w3.org/Graphics/SVG/1.1/DTD/svg11.dtd">
<svg version="1.1" id="Layer_1" xmlns="http://www.w3.org/2000/svg" xmlns:xlink="http://www.w3.org/1999/xlink" x="0px" y="0px"
	 width="300px" height="68px" viewBox="0 0 300 68" enable-background="new 0 0 300 68" xml:space="preserve">
<path fill="#ED326B" d="M50.189,17.413c-3.695-3.694-8.608-5.729-13.85-5.729c-10.805,0.007-19.601,8.808-19.608,19.618
	l-0.006,3.321l2.582-1.76c1.756-1.195,3.79-1.828,5.882-1.828c0.625,0,1.255,0.057,1.875,0.17c1.951,0.355,3.7,1.238,5.116,2.565
	c0.324-0.715,0.707-1.409,1.158-2.072c0.185-0.271,0.38-0.533,0.583-0.788c-1.784-1.507-3.927-2.521-6.267-2.947
	c-0.816-0.148-1.646-0.224-2.469-0.224c-1.703,0-3.363,0.313-4.944,0.93c1.28-7.843,8.092-13.684,16.113-13.689
	c4.347,0,8.433,1.692,11.506,4.764c2.452,2.452,4.021,5.518,4.561,8.898c-1.581-0.617-3.248-0.933-4.961-0.94l-0.24-0.001
	c-0.175,0.004-0.349,0.007-0.521,0.018c-0.299,0.015-0.597,0.042-0.891,0.077c-0.087,0.009-0.175,0.023-0.261,0.035
	c-0.212,0.028-0.422,0.061-0.629,0.099c-0.093,0.017-0.184,0.034-0.275,0.054c-0.212,0.043-0.422,0.091-0.631,0.144
	c-0.074,0.019-0.149,0.037-0.224,0.057c-0.263,0.07-0.523,0.15-0.78,0.235c-0.016,0.006-0.031,0.01-0.046,0.016
	c-0.582,0.198-1.147,0.437-1.693,0.711c-0.015,0.008-0.03,0.016-0.046,0.023c-0.255,0.129-0.505,0.268-0.752,0.414
	c-0.02,0.012-0.041,0.024-0.061,0.036c-1.289,0.772-2.443,1.764-3.416,2.947c-0.04,0.05-0.08,0.098-0.119,0.147
	c-0.211,0.265-0.417,0.534-0.609,0.816c-0.164,0.241-0.316,0.486-0.463,0.735c-0.033,0.057-0.066,0.114-0.099,0.17
	c-0.135,0.234-0.263,0.472-0.382,0.711c-0.007,0.014-0.014,0.027-0.021,0.04c-0.278,0.562-0.513,1.138-0.71,1.727l0,0.001v0.001
	c-0.481,1.443-0.715,2.957-0.69,4.488c0.001,0.061,0.001,0.121,0.003,0.183c0.003,0.119,0.008,0.239,0.016,0.358
	c0.005,0.095,0.011,0.188,0.018,0.284c0.008,0.101,0.016,0.201,0.026,0.303c0.012,0.123,0.027,0.246,0.042,0.368
	c0.01,0.078,0.019,0.157,0.03,0.235c0.029,0.205,0.062,0.409,0.101,0.613c0.665,3.513,2.643,6.575,5.572,8.623l0.375,0.239
	l0.003-0.007c1.664,1.082,3.572,1.791,5.547,2.06l0.268,0.036l1.986-3.188l-0.713-0.02c-5.497-0.151-9.969-4.747-9.969-10.246
	c0-5.412,4.229-9.906,9.628-10.233l0.342-0.013c2.187-0.055,4.343,0.591,6.173,1.837l2.57,1.749l0.006-3.305
	C55.927,26.04,53.891,21.115,50.189,17.413"/>
<g>
	<path fill="#ED326B" d="M88.195,45.409c1.992,0,3.706-0.331,5.145-1.001c1.435-0.671,2.938-1.738,4.505-3.209l3.723,3.82
		c-3.625,4.017-8.026,6.025-13.201,6.025s-9.472-1.665-12.883-4.997c-3.412-3.332-5.119-7.544-5.119-12.637
		s1.739-9.339,5.217-12.735c3.479-3.398,7.871-5.094,13.177-5.094c5.307,0,9.741,1.958,13.3,5.875l-3.674,4.02
		c-1.633-1.569-3.175-2.664-4.628-3.283c-1.454-0.621-3.16-0.93-5.12-0.93c-3.462,0-6.368,1.117-8.718,3.354
		c-2.353,2.237-3.528,5.095-3.528,8.572c0,3.48,1.167,6.386,3.504,8.718C82.228,44.244,84.995,45.409,88.195,45.409z"/>
	<path fill="#ED326B" d="M128.901,47.152c-2.612,2.596-5.878,3.893-9.797,3.893c-3.918,0-7.185-1.297-9.797-3.893
		s-3.919-5.772-3.919-9.529c0-3.754,1.307-6.931,3.919-9.528c2.612-2.595,5.878-3.894,9.797-3.894c3.919,0,7.185,1.298,9.797,3.894
		c2.613,2.597,3.919,5.774,3.919,9.528C132.821,41.38,131.514,44.557,128.901,47.152z M113.202,43.771
		c1.55,1.585,3.518,2.377,5.902,2.377c2.383,0,4.351-0.792,5.904-2.377c1.549-1.583,2.326-3.633,2.326-6.147
		c0-2.514-0.777-4.562-2.326-6.147c-1.553-1.583-3.521-2.375-5.904-2.375c-2.385,0-4.352,0.793-5.902,2.375
		c-1.551,1.585-2.326,3.634-2.326,6.147C110.876,40.138,111.651,42.188,113.202,43.771z"/>
	<path fill="#ED326B" d="M141.049,47.321c-2.45-2.479-3.673-5.746-3.673-9.797c0-4.047,1.257-7.281,3.772-9.698
		c2.514-2.416,5.51-3.625,8.988-3.625c3.479,0,6.278,1.47,8.4,4.41V14.307h5.485v36.348h-5.485v-3.919
		c-2.025,2.872-4.98,4.309-8.866,4.309C146.373,51.045,143.499,49.805,141.049,47.321z M142.861,37.746
		c0,2.496,0.801,4.531,2.401,6.1c1.599,1.563,3.477,2.351,5.632,2.351c2.157,0,3.984-0.793,5.486-2.377
		c1.502-1.582,2.254-3.615,2.254-6.097s-0.752-4.557-2.254-6.222c-1.502-1.665-3.348-2.499-5.534-2.499
		c-2.189,0-4.067,0.834-5.634,2.499C143.645,33.166,142.861,35.248,142.861,37.746z"/>
	<path fill="#ED326B" d="M196.207,40.021h-20.428c0.128,1.896,0.995,3.423,2.597,4.581c1.6,1.16,3.43,1.738,5.485,1.738
		c3.266,0,5.746-1.026,7.447-3.085l3.134,3.431c-2.809,2.906-6.468,4.358-10.972,4.358c-3.661,0-6.77-1.217-9.332-3.651
		c-2.564-2.429-3.847-5.696-3.847-9.794s1.307-7.356,3.922-9.773c2.61-2.416,5.689-3.625,9.23-3.625
		c3.544,0,6.558,1.069,9.039,3.209c2.479,2.139,3.724,5.085,3.724,8.842V40.021z M175.779,35.714h14.941
		c0-2.187-0.687-3.871-2.058-5.045c-1.371-1.176-3.062-1.765-5.073-1.765c-2.007,0-3.812,0.611-5.411,1.838
		C176.579,31.967,175.779,33.624,175.779,35.714z"/>
	<path fill="#ED326B" d="M213.79,51.045c-3.625,0-6.743-1.231-9.354-3.7c-2.615-2.463-3.92-5.689-3.92-9.671
		c0-3.984,1.362-7.226,4.09-9.724c2.727-2.5,6.048-3.749,9.968-3.749c3.919,0,7.235,1.356,9.944,4.065l-3.231,3.968
		c-2.253-1.959-4.523-2.939-6.811-2.939c-2.284,0-4.27,0.76-5.951,2.278c-1.683,1.518-2.522,3.476-2.522,5.876
		c0,2.402,0.833,4.436,2.499,6.1c1.663,1.665,3.714,2.498,6.148,2.498c2.432,0,4.726-1.109,6.88-3.332l3.233,3.528
		C221.596,49.445,217.938,51.045,213.79,51.045z"/>
	<path fill="#ED326B" d="M251.705,47.152c-2.611,2.596-5.88,3.893-9.798,3.893s-7.182-1.297-9.794-3.893
		c-2.613-2.596-3.922-5.772-3.922-9.529c0-3.754,1.309-6.931,3.922-9.528c2.612-2.595,5.876-3.894,9.794-3.894
		s7.187,1.298,9.798,3.894c2.613,2.597,3.918,5.774,3.918,9.528C255.623,41.38,254.318,44.557,251.705,47.152z M236.004,43.771
		c1.553,1.585,3.52,2.377,5.903,2.377c2.383,0,4.351-0.792,5.903-2.377c1.55-1.583,2.329-3.633,2.329-6.147
		c0-2.514-0.779-4.562-2.329-6.147c-1.553-1.583-3.521-2.375-5.903-2.375c-2.384,0-4.351,0.793-5.903,2.375
		c-1.551,1.585-2.324,3.634-2.324,6.147C233.68,40.138,234.453,42.188,236.004,43.771z"/>
	<path fill="#ED326B" d="M268.314,50.655l-10.487-26.061h5.684l7.937,19.691l7.937-19.691h5.681l-10.485,26.061H268.314z"/>
</g>
</svg>
