<?xml version="1.0" encoding="utf-8"?>
<!-- Generator: Adobe Illustrator 15.0.0, SVG Export Plug-In . SVG Version: 6.00 Build 0)  -->
<!DOCTYPE svg PUBLIC "-//W3C//DTD SVG 1.1//EN" "http://www.w3.org/Graphics/SVG/1.1/DTD/svg11.dtd">
<svg version="1.1" id="Layer_1" xmlns="http://www.w3.org/2000/svg" xmlns:xlink="http://www.w3.org/1999/xlink" x="0px" y="0px"
	 width="40px" height="40px" viewBox="0 0 40 40" enable-background="new 0 0 40 40" xml:space="preserve">
<path fill="#FFFFFF" d="M32.058,6.933c-3.179-3.178-7.405-4.928-11.913-4.928C10.851,2.011,3.287,9.581,3.28,18.877l-0.005,2.858
	l2.22-1.515c1.51-1.028,3.26-1.573,5.059-1.573c0.537,0,1.079,0.05,1.612,0.146c1.678,0.306,3.182,1.065,4.4,2.208
	c0.279-0.615,0.607-1.213,0.996-1.783c0.159-0.234,0.327-0.459,0.501-0.679c-1.535-1.296-3.378-2.168-5.39-2.535
	c-0.702-0.127-1.416-0.192-2.123-0.192c-1.465,0-2.892,0.269-4.252,0.799C7.399,9.868,13.259,4.844,20.157,4.839
	c3.739,0,7.253,1.456,9.896,4.098c2.108,2.108,3.458,4.745,3.923,7.654c-1.359-0.532-2.793-0.803-4.267-0.81l-0.206-0.001
	c-0.15,0.003-0.302,0.006-0.449,0.015c-0.257,0.013-0.513,0.037-0.766,0.066c-0.075,0.008-0.15,0.02-0.224,0.03
	c-0.184,0.025-0.363,0.052-0.543,0.084c-0.079,0.014-0.157,0.03-0.236,0.046c-0.183,0.037-0.362,0.078-0.543,0.123
	c-0.063,0.017-0.128,0.032-0.192,0.049c-0.226,0.061-0.45,0.128-0.671,0.202c-0.013,0.005-0.026,0.008-0.039,0.013
	c-0.501,0.171-0.987,0.376-1.457,0.612c-0.013,0.006-0.025,0.013-0.039,0.02c-0.22,0.111-0.435,0.23-0.646,0.356
	c-0.017,0.01-0.035,0.021-0.053,0.031c-1.108,0.665-2.102,1.517-2.938,2.536c-0.033,0.041-0.068,0.083-0.103,0.125
	c-0.181,0.229-0.358,0.461-0.523,0.704C19.94,21,19.81,21.211,19.683,21.425c-0.029,0.05-0.057,0.099-0.085,0.147
	c-0.115,0.201-0.226,0.404-0.329,0.611c-0.005,0.012-0.012,0.022-0.017,0.034c-0.239,0.482-0.441,0.979-0.611,1.484c0,0,0,0,0,0.002
	l0,0c-0.414,1.241-0.615,2.543-0.594,3.861c0.001,0.052,0.001,0.104,0.003,0.154c0.002,0.104,0.007,0.207,0.014,0.31
	c0.004,0.082,0.01,0.163,0.015,0.244c0.007,0.088,0.014,0.173,0.022,0.261c0.011,0.106,0.023,0.211,0.036,0.317
	c0.009,0.067,0.016,0.134,0.026,0.201c0.025,0.177,0.053,0.353,0.087,0.528c0.572,3.021,2.274,5.655,4.792,7.416l0.322,0.207
	l0.003-0.006c1.43,0.929,3.071,1.54,4.771,1.771L28.368,39l1.708-2.742l-0.613-0.016c-4.728-0.132-8.574-4.084-8.574-8.814
	c0-4.654,3.638-8.521,8.281-8.801l0.294-0.011c1.881-0.048,3.736,0.508,5.311,1.58l2.21,1.504l0.005-2.842
	C36.991,14.352,35.24,10.116,32.058,6.933"/>
</svg>
