<?xml version="1.0" encoding="utf-8"?>
<!-- Generator: Adobe Illustrator 16.0.4, SVG Export Plug-In . SVG Version: 6.00 Build 0)  -->
<!DOCTYPE svg PUBLIC "-//W3C//DTD SVG 1.1//EN" "http://www.w3.org/Graphics/SVG/1.1/DTD/svg11.dtd">
<svg version="1.1" id="Layer_1" xmlns="http://www.w3.org/2000/svg" xmlns:xlink="http://www.w3.org/1999/xlink" x="0px" y="0px"
	 width="154px" height="152px" viewBox="0 0 154 152" enable-background="new 0 0 154 152" xml:space="preserve">
<g>
	<polygon fill="#FFFFFF" points="130.351,34.261 130.351,16.789 86.292,16.789 101.697,34.261 	"/>
	<polygon fill="#FFFFFF" points="154.008,67.817 154.008,50.348 98.743,50.348 83.337,67.817 	"/>
	<polygon fill="#FFFFFF" points="144.88,101.377 144.88,83.927 87.781,83.927 103.165,101.377 	"/>
	<polygon fill="#FFFFFF" points="109.396,134.958 109.396,117.485 97.266,117.485 81.873,134.958 	"/>
</g>
<polygon fill="#FFFFFF" points="60.836,73.358 89.697,40.631 73.842,22.652 44.968,55.389 16.096,22.652 0.239,40.631 
	29.102,73.358 0.239,106.083 16.096,124.075 44.968,91.338 73.842,124.075 89.697,106.083 "/>
</svg>
