<?xml version="1.0" encoding="utf-8"?>
<!-- Generator: Adobe Illustrator 16.0.4, SVG Export Plug-In . SVG Version: 6.00 Build 0)  -->
<!DOCTYPE svg PUBLIC "-//W3C//DTD SVG 1.1//EN" "http://www.w3.org/Graphics/SVG/1.1/DTD/svg11.dtd">
<svg version="1.1" id="Layer_1" xmlns="http://www.w3.org/2000/svg" xmlns:xlink="http://www.w3.org/1999/xlink" x="0px" y="0px"
	 width="180px" height="141px" viewBox="0 0 180 141" enable-background="new 0 0 180 141" xml:space="preserve">
<path fill="#FFFFFF" d="M0,134.5v-12.8c0-1.733,0.633-3.233,1.9-4.5s2.767-1.9,4.5-1.9h166.4c1.733,0,3.233,0.634,4.5,1.9
	s1.9,2.767,1.9,4.5v12.8c0,1.733-0.634,3.233-1.9,4.5s-2.767,1.9-4.5,1.9H6.4c-1.733,0-3.233-0.634-4.5-1.9S0,136.233,0,134.5z
	 M0,96.1V83.3c0-1.733,0.633-3.233,1.9-4.5S4.667,76.9,6.4,76.9h166.4c1.733,0,3.233,0.633,4.5,1.899s1.9,2.767,1.9,4.5v12.8
	c0,1.734-0.634,3.234-1.9,4.5c-1.267,1.268-2.767,1.9-4.5,1.9H6.4c-1.733,0-3.233-0.633-4.5-1.9C0.633,99.334,0,97.834,0,96.1z
	 M0,57.7V44.9c0-1.733,0.633-3.233,1.9-4.5s2.767-1.9,4.5-1.9h166.4c1.733,0,3.233,0.633,4.5,1.9s1.9,2.767,1.9,4.5v12.8
	c0,1.733-0.634,3.233-1.9,4.5s-2.767,1.9-4.5,1.9H6.4c-1.733,0-3.233-0.633-4.5-1.9S0,59.434,0,57.7z M0,19.3V6.5
	C0,4.767,0.633,3.267,1.9,2s2.767-1.9,4.5-1.9h166.4c1.733,0,3.233,0.633,4.5,1.9s1.9,2.767,1.9,4.5v12.8
	c0,1.733-0.634,3.233-1.9,4.5c-1.267,1.267-2.767,1.9-4.5,1.9H6.4c-1.733,0-3.233-0.633-4.5-1.9C0.633,22.533,0,21.033,0,19.3z"/>
</svg>
