<?xml version="1.0" encoding="utf-8"?>
<!-- Generator: Adobe Illustrator 16.0.4, SVG Export Plug-In . SVG Version: 6.00 Build 0)  -->
<!DOCTYPE svg PUBLIC "-//W3C//DTD SVG 1.1//EN" "http://www.w3.org/Graphics/SVG/1.1/DTD/svg11.dtd">
<svg version="1.1" id="Layer_1" xmlns="http://www.w3.org/2000/svg" xmlns:xlink="http://www.w3.org/1999/xlink" x="0px" y="0px"
	 width="63.279px" height="79.172px" viewBox="0 0 63.279 79.172" enable-background="new 0 0 63.279 79.172" xml:space="preserve">
<path fill="#5F8699" d="M16.757,58.186V25.394c2.975-1.73,4.977-4.951,4.977-8.641c0-5.519-4.474-9.992-9.992-9.992
	c-5.519,0-9.992,4.474-9.992,9.992c0,3.706,2.019,6.938,5.015,8.663v32.747c-2.996,1.725-5.015,4.958-5.015,8.663
	c0,5.519,4.474,9.992,9.992,9.992c5.518,0,9.992-4.474,9.992-9.992C21.734,63.137,19.732,59.917,16.757,58.186z M11.742,11.742
	c2.775,0,5.024,2.25,5.024,5.024s-2.249,5.024-5.024,5.024s-5.024-2.25-5.024-5.024S8.967,11.742,11.742,11.742z M11.742,71.864
	c-2.775,0-5.024-2.25-5.024-5.024s2.25-5.024,5.024-5.024s5.024,2.249,5.024,5.024S14.517,71.864,11.742,71.864z"/>
<path fill="#5F8699" d="M56.726,58.158V26.589c0-15.75-14.283-14.791-14.283-14.791h-5.645V1.75l-14.96,15.003l14.96,14.973v-9.992
	h5.645c4.347,0,4.291,4.855,4.291,4.855v31.602c-2.97,1.732-4.967,4.95-4.967,8.636c0,5.519,4.474,9.992,9.992,9.992
	c5.519,0,9.992-4.474,9.992-9.992C61.75,63.117,59.727,59.882,56.726,58.158z M51.758,71.864c-2.775,0-5.024-2.25-5.024-5.024
	s2.249-5.024,5.024-5.024s5.024,2.249,5.024,5.024S54.533,71.864,51.758,71.864z"/>
</svg>
