<?xml version="1.0" encoding="utf-8"?>
<!-- Generator: Adobe Illustrator 16.0.4, SVG Export Plug-In . SVG Version: 6.00 Build 0)  -->
<!DOCTYPE svg PUBLIC "-//W3C//DTD SVG 1.1//EN" "http://www.w3.org/Graphics/SVG/1.1/DTD/svg11.dtd">
<svg version="1.1" id="Layer_1" xmlns="http://www.w3.org/2000/svg" xmlns:xlink="http://www.w3.org/1999/xlink" x="0px" y="0px"
	 width="63.279px" height="37.61px" viewBox="0 0 63.279 37.61" enable-background="new 0 0 63.279 37.61" xml:space="preserve">
<path fill="#5F8699" d="M48.08,14.523c-1.927-7.34-8.606-12.754-16.55-12.754s-14.624,5.415-16.55,12.754H1.529v8.533h13.403
	c1.864,7.431,8.587,12.935,16.597,12.935s14.732-5.503,16.596-12.935h13.404v-8.533H48.08z M31.529,27.457
	c-3.229,0-6.042-1.774-7.52-4.401c-0.702-1.248-1.103-2.688-1.103-4.221c0-1.571,0.42-3.043,1.154-4.312
	c1.491-2.577,4.277-4.312,7.469-4.312s5.978,1.734,7.469,4.312c0.734,1.269,1.154,2.741,1.154,4.312
	c0,1.534-0.401,2.974-1.103,4.221C37.571,25.683,34.758,27.457,31.529,27.457z"/>
</svg>
