<?xml version="1.0" encoding="utf-8"?>
<!-- Generator: Adobe Illustrator 16.0.4, SVG Export Plug-In . SVG Version: 6.00 Build 0)  -->
<!DOCTYPE svg PUBLIC "-//W3C//DTD SVG 1.1//EN" "http://www.w3.org/Graphics/SVG/1.1/DTD/svg11.dtd">
<svg version="1.1" id="Layer_1" xmlns="http://www.w3.org/2000/svg" xmlns:xlink="http://www.w3.org/1999/xlink" x="0px" y="0px"
	 width="13.012px" height="10px" viewBox="0 0 13.012 10" enable-background="new 0 0 13.012 10" xml:space="preserve">
<g>
	<g>
		<polygon fill="#F2F2F2" points="11.01,1.479 11.01,0 7.281,0 8.586,1.479 		"/>
		<polygon fill="#F2F2F2" points="13.012,4.319 13.012,2.84 8.335,2.84 7.032,4.319 		"/>
		<polygon fill="#F2F2F2" points="12.239,7.158 12.239,5.681 7.407,5.681 8.709,7.158 		"/>
		<polygon fill="#F2F2F2" points="9.236,10 9.236,8.521 8.21,8.521 6.908,10 		"/>
	</g>
	<polygon fill="#F2F2F2" points="5.128,4.788 7.569,2.018 6.228,0.496 3.784,3.267 1.342,0.496 0,2.018 2.441,4.788 0,7.556 
		1.342,9.08 3.784,6.308 6.228,9.08 7.569,7.556 	"/>
</g>
</svg>
