<?xml version="1.0" encoding="utf-8"?>
<!-- Generator: Adobe Illustrator 16.0.4, SVG Export Plug-In . SVG Version: 6.00 Build 0)  -->
<!DOCTYPE svg PUBLIC "-//W3C//DTD SVG 1.1//EN" "http://www.w3.org/Graphics/SVG/1.1/DTD/svg11.dtd">
<svg version="1.1" id="Layer_1" xmlns="http://www.w3.org/2000/svg" xmlns:xlink="http://www.w3.org/1999/xlink" x="0px" y="0px"
	 width="154px" height="154px" viewBox="0 0 154 154" enable-background="new 0 0 154 154" xml:space="preserve">
<g>
	<path fill="#FFFFFF" d="M148.979,62.899l-22.846-4.233c-2.217-0.386-2.988-2.303-1.756-4.108l13.147-19.422
		c1.195-1.942,0.934-4.769-0.622-6.35l-12.588-12.6c-1.581-1.52-4.419-1.818-6.324-0.598L98.556,28.71
		c-1.818,1.27-3.723,0.461-4.108-1.718L90.227,4.109C89.841,1.93,87.624,0.1,85.383,0.1H67.604c-2.241,0-4.445,1.83-4.818,4.009
		l-4.208,22.884c-0.411,2.179-2.328,2.987-4.134,1.718L35.01,15.588c-1.917-1.221-4.731-0.922-6.324,0.598l-12.588,12.6
		c-1.531,1.581-1.83,4.407-0.597,6.35L28.61,54.557c1.258,1.806,0.474,3.723-1.73,4.108L4.009,62.899
		C1.843,63.272,0,65.463,0,67.705v17.778c0,2.242,1.843,4.471,4.009,4.855l22.884,4.184c2.191,0.424,2.987,2.305,1.718,4.135
		L15.501,118.09c-1.233,1.904-0.935,4.732,0.597,6.312l12.588,12.6c1.593,1.531,4.407,1.818,6.324,0.598l19.435-13.123
		c1.806-1.232,3.723-0.461,4.134,1.756l4.208,22.846c0.373,2.166,2.577,4.01,4.818,4.01h17.778c2.241,0,4.458-1.844,4.844-4.01
		l4.221-22.846c0.386-2.217,2.29-3.025,4.108-1.756L117.99,137.6c1.905,1.221,4.743,0.934,6.324-0.598l12.588-12.6
		c1.556-1.568,1.817-4.408,0.598-6.312l-13.123-19.434c-1.232-1.83-0.461-3.711,1.756-4.135l22.846-4.184
		c2.179-0.385,4.021-2.613,4.021-4.855V67.705C153,65.463,151.157,63.272,148.979,62.899z M76.506,104.309
		c-15.313,0-27.664-12.4-27.664-27.64c0-15.239,12.351-27.64,27.664-27.64c15.252,0,27.603,12.4,27.603,27.64
		C104.108,91.908,91.758,104.309,76.506,104.309z"/>
</g>
</svg>
