<?xml version="1.0" encoding="utf-8"?>
<!-- Generator: Adobe Illustrator 16.0.4, SVG Export Plug-In . SVG Version: 6.00 Build 0)  -->
<!DOCTYPE svg PUBLIC "-//W3C//DTD SVG 1.1//EN" "http://www.w3.org/Graphics/SVG/1.1/DTD/svg11.dtd">
<svg version="1.1" id="Layer_1" xmlns="http://www.w3.org/2000/svg" xmlns:xlink="http://www.w3.org/1999/xlink" x="0px" y="0px"
	 width="125.746px" height="37.983px" viewBox="0.344 -5.286 125.746 37.983" enable-background="new 0.344 -5.286 125.746 37.983"
	 xml:space="preserve">
<g>
	<path fill-rule="evenodd" clip-rule="evenodd" fill="#CBCBC8" d="M31.017,13.696c0,5.044,0,10.088,0,15.134
		c0,2.371-1.496,3.867-3.869,3.867c-7.598,0.001-15.195,0.001-22.791,0c-2.443-0.003-4.008-1.545-4.01-3.971
		c-0.005-9.988-0.005-19.976,0-29.964c0-2.062,0.999-3.476,2.755-3.953c0.319-0.088,0.64-0.092,0.964-0.094
		c7.779-0.001,15.559-0.002,23.338,0.002c2.086,0,3.609,1.522,3.61,3.602c0.005,5.126,0.001,10.252,0.001,15.377
		C31.017,13.696,31.017,13.696,31.017,13.696z M1.704,13.699c0,4.923,0.037,9.849-0.021,14.771C1.665,30.023,2.8,31.38,4.537,31.365
		c7.456-0.062,14.913-0.024,22.37-0.027c1.787,0,2.827-1.034,2.828-2.827c0.002-9.889,0.002-19.776-0.002-29.666
		c0-0.26-0.014-0.528-0.074-0.781c-0.332-1.362-1.289-2.065-2.834-2.066C19.45-4.007,12.073-4.006,4.698-4.006
		c-1.979,0-2.992,1.012-2.993,2.994C1.704,3.893,1.705,8.796,1.704,13.699z"/>
	<path fill-rule="evenodd" clip-rule="evenodd" fill="#CBCBC8" d="M38.284,13.415c0-3.424-0.002-6.848,0.001-10.271
		c0.001-0.813,0.038-0.849,0.864-0.853c0.588-0.004,1.176-0.004,1.764,0c0.781,0.005,0.803,0.025,0.803,0.833
		c0.003,1.904-0.002,3.809,0.003,5.714c0.002,0.733,0.006,0.722,0.696,0.51c1.787-0.548,3.592-1.026,5.487-0.777
		c2.083,0.274,3.365,1.642,3.394,3.769c0.052,3.87,0.014,7.74,0.027,11.609c0.001,0.467-0.213,0.597-0.629,0.59
		c-0.689-0.013-1.379-0.026-2.066,0.006c-0.557,0.023-0.75-0.198-0.744-0.747c0.02-1.985,0.008-3.971,0.006-5.956
		c0-1.661,0.004-3.322,0-4.984c-0.002-1.09-0.361-1.438-1.47-1.439c-1.482-0.004-2.878,0.398-4.263,0.875
		c-0.472,0.163-0.438,0.526-0.438,0.889c-0.003,2.674-0.002,5.349-0.002,8.021c0,0.853,0.002,1.703-0.001,2.554
		c-0.003,0.741-0.038,0.774-0.802,0.78c-0.566,0.002-1.134,0.002-1.701,0c-0.904-0.003-0.929-0.024-0.93-0.912
		C38.282,20.22,38.282,16.818,38.284,13.415z"/>
	<path fill-rule="evenodd" clip-rule="evenodd" fill="#CBCBC8" d="M100.934,8.72c0,1.804-0.009,3.606,0.01,5.408
		c0.003,0.288-0.206,0.752,0.238,0.831c0.471,0.083,1.015,0.241,1.438-0.191c0.625-0.64,1.164-1.348,1.678-2.077
		c0.713-1.015,1.308-2.098,1.812-3.227c0.175-0.392,0.408-0.545,0.835-0.531c0.851,0.026,1.701,0.004,2.552,0.01
		c0.658,0.005,0.711,0.079,0.411,0.644c-1.069,2.011-2.321,3.9-3.909,5.542c-0.43,0.444-0.431,0.734-0.062,1.216
		c1.779,2.32,3.272,4.822,4.58,7.438c0.335,0.671,0.29,0.748-0.462,0.752c-0.871,0.007-1.742-0.014-2.613,0.008
		c-0.453,0.012-0.687-0.171-0.853-0.594c-0.895-2.275-2.032-4.413-3.677-6.249c-0.258-0.287-1.518-0.469-1.817-0.257
		c-0.224,0.156-0.155,0.402-0.156,0.615c-0.006,1.903-0.021,3.809,0.007,5.712c0.009,0.578-0.172,0.809-0.762,0.775
		c-0.666-0.036-1.338-0.032-2.004,0c-0.539,0.023-0.697-0.198-0.695-0.717c0.017-3.16,0.009-6.319,0.009-9.479
		c-0.001-3.747-0.001-7.494,0.001-11.242c0-0.794,0.02-0.811,0.82-0.814c0.609-0.003,1.217,0.028,1.822-0.009
		c0.597-0.038,0.822,0.155,0.811,0.786C100.909,4.952,100.934,6.836,100.934,8.72z"/>
	<path fill-rule="evenodd" clip-rule="evenodd" fill="#CBCBC8" d="M62.784,17.276c-1.498,0-2.998,0.016-4.497-0.008
		c-0.502-0.009-0.688,0.161-0.665,0.668c0.034,0.712,0.115,1.414,0.303,2.1c0.353,1.302,1.033,1.849,2.39,1.926
		c1.876,0.106,3.659-0.335,5.415-0.927c1.023-0.345,1.023-0.347,1.245,0.702c0.35,1.646,0.348,1.643-1.263,2.21
		c-2.029,0.713-4.094,1.148-6.258,0.889c-3.246-0.39-4.735-1.798-5.109-5.067c-0.367-3.219-0.219-6.429,0.494-9.604
		c0.11-0.494,0.344-0.767,0.838-0.902c2.51-0.682,5.057-0.963,7.638-0.634c2.606,0.332,4.062,2.032,4.405,4.952
		c0.123,1.049,0.112,2.101,0.131,3.152c0.008,0.43-0.148,0.558-0.568,0.551C65.784,17.264,64.284,17.276,62.784,17.276z
		 M61.021,14.901c0.951,0,1.902,0.001,2.854-0.001c0.223-0.002,0.439,0.008,0.534-0.281c0.466-1.444-0.61-3.087-2.137-3.183
		c-1.253-0.079-2.508-0.015-3.757,0.132c-0.426,0.05-0.653,0.264-0.705,0.69c-0.081,0.683-0.179,1.362-0.197,2.053
		c-0.014,0.461,0.182,0.604,0.614,0.595C59.157,14.89,60.089,14.901,61.021,14.901z"/>
	<path fill-rule="evenodd" clip-rule="evenodd" fill="#CBCBC8" d="M94.61,16.603c0.063,1.41-0.101,2.811-0.602,4.159
		c-0.799,2.152-2.339,3.461-4.573,3.921c-2.049,0.42-4.068,0.326-6.009-0.534c-1.099-0.488-1.96-1.274-2.423-2.366
		c-1.35-3.183-1.369-6.424-0.102-9.628c0.787-1.986,2.409-3.028,4.46-3.455c1.265-0.263,2.536-0.259,3.804-0.063
		c3.08,0.474,4.887,2.354,5.311,5.465C94.588,14.926,94.638,15.751,94.61,16.603z M91.29,16.598c0-0.974-0.063-1.938-0.307-2.888
		c-0.342-1.332-1.197-2.049-2.547-2.251c-2.625-0.393-4.292,0.601-4.807,2.986c-0.377,1.741-0.349,3.506,0.074,5.238
		c0.292,1.194,1.028,1.988,2.312,2.195c0.707,0.111,1.414,0.148,2.115,0.049c1.287-0.181,2.185-0.892,2.669-2.11
		C91.212,18.782,91.292,17.697,91.29,16.598z"/>
	<path fill-rule="evenodd" clip-rule="evenodd" fill="#CBCBC8" d="M126.076,15.784c0,1.986-0.019,3.971,0.012,5.956
		c0.008,0.548-0.189,0.84-0.673,1.075c-2.374,1.161-4.848,1.941-7.501,2.082c-0.875,0.048-1.742,0.017-2.583-0.264
		c-1.43-0.474-2.125-1.555-2.381-2.962c-0.09-0.495-0.114-1.006-0.116-1.511c-0.009-3.465-0.006-6.93-0.004-10.394
		c0.001-0.799,0.029-0.821,0.815-0.827c0.668-0.004,1.339,0.025,2.005-0.022c0.504-0.036,0.613,0.161,0.611,0.624
		c-0.015,3.587-0.009,7.173-0.008,10.758c0,1.338,0.374,1.712,1.701,1.667c1.366-0.048,2.685-0.344,3.978-0.788
		c0.482-0.165,0.635-0.462,0.633-0.959c-0.016-3.443-0.008-6.888-0.008-10.333c0.001-0.944,0.003-0.944,0.939-0.946
		c0.627-0.001,1.257,0.025,1.883-0.007c0.538-0.029,0.708,0.194,0.703,0.711C126.065,11.691,126.076,13.739,126.076,15.784z"/>
	<path fill-rule="evenodd" clip-rule="evenodd" fill="#CBCBC8" d="M70.632,17.607c0-2.005,0.012-4.008-0.009-6.014
		c-0.005-0.487,0.151-0.773,0.603-0.992c2.16-1.044,4.445-1.605,6.824-1.839c0.344-0.034,0.488,0.111,0.488,0.441
		c0,0.628-0.01,1.255,0.006,1.882c0.01,0.42-0.189,0.56-0.586,0.59c-0.989,0.073-1.965,0.239-2.932,0.473
		c-0.662,0.16-0.9,0.474-0.894,1.174c0.036,3.442,0.017,6.886,0.017,10.328c0,0.852-0.032,0.884-0.891,0.887
		c-0.607,0.002-1.215,0.005-1.822,0c-0.744-0.009-0.801-0.059-0.803-0.794C70.629,21.698,70.632,19.654,70.632,17.607z"/>
	<path fill-rule="evenodd" clip-rule="evenodd" fill="#CBCBC8" d="M23.734,19.312c0,2.492-0.012,4.983,0.008,7.476
		c0.004,0.521-0.156,0.727-0.695,0.705c-0.871-0.034-1.742-0.008-2.613-0.009c-0.886-0.003-0.887-0.004-0.887-0.871
		c-0.001-3.585,0-7.17,0-10.756c0-1.135-0.02-2.27,0.005-3.402c0.013-0.613-0.291-0.944-0.827-1.117
		c-0.691-0.224-1.401-0.187-2.107-0.098c-2.898,0.365-5.617,1.366-8.338,2.363c-0.756,0.277-0.787,0.271-0.787-0.521
		C7.488,8.889,7.493,4.696,7.47,0.502C7.467-0.028,7.656-0.159,8.137-0.15c0.991,0.021,1.985,0.021,2.978-0.012
		c0.537-0.018,0.695,0.192,0.689,0.713c-0.02,2.472-0.01,4.943-0.008,7.414c0.001,0.799,0.004,0.793,0.787,0.546
		c2.057-0.651,4.146-1.109,6.324-1.015c1.027,0.045,2.017,0.261,2.898,0.802c1.334,0.817,1.871,2.108,1.896,3.6
		c0.043,2.471,0.012,4.942,0.012,7.414C23.72,19.312,23.727,19.312,23.734,19.312z"/>
	<path fill-rule="evenodd" clip-rule="evenodd" fill="#CBCBC8" d="M19.833,5.353c-0.607,0-1.215-0.004-1.822,0.002
		c-0.346,0.002-0.536-0.066-0.266-0.438c1.063-1.463,1.91-3.051,2.662-4.69c0.131-0.288,0.346-0.368,0.631-0.368
		c1.234,0.003,2.47,0.008,3.705-0.001c0.484-0.004,0.554,0.188,0.359,0.599c-0.773,1.635-1.714,3.165-2.826,4.592
		c-0.184,0.235-0.4,0.312-0.682,0.308C21.007,5.347,20.419,5.352,19.833,5.353z"/>
	<path fill-rule="evenodd" clip-rule="evenodd" fill="#CBCBC8" d="M7.534,23.116c0-1.252,0-2.505,0-3.759
		c0-0.135-0.068-0.311,0.094-0.378c0.162-0.066,0.246,0.106,0.342,0.199c1.193,1.179,2.377,2.365,3.576,3.539
		c0.287,0.281,0.318,0.489,0.007,0.796c-1.2,1.171-2.374,2.369-3.564,3.553c-0.103,0.101-0.193,0.312-0.386,0.204
		c-0.136-0.078-0.082-0.259-0.082-0.395c-0.004-1.254-0.002-2.507-0.002-3.76C7.523,23.116,7.529,23.116,7.534,23.116z"/>
</g>
</svg>
