<?xml version="1.0" encoding="utf-8"?>
<!-- Generator: Adobe Illustrator 16.0.4, SVG Export Plug-In . SVG Version: 6.00 Build 0)  -->
<!DOCTYPE svg PUBLIC "-//W3C//DTD SVG 1.1//EN" "http://www.w3.org/Graphics/SVG/1.1/DTD/svg11.dtd">
<svg version="1.1" id="Layer_1" xmlns="http://www.w3.org/2000/svg" xmlns:xlink="http://www.w3.org/1999/xlink" x="0px" y="0px"
	 width="101.428px" height="26.355px" viewBox="14.845 0.001 101.428 26.355" enable-background="new 14.845 0.001 101.428 26.355"
	 xml:space="preserve">
<g>
	<g>
		<path fill-rule="evenodd" clip-rule="evenodd" fill="#CBCBC8" d="M14.85,8.674c0.047-0.043,0.107-0.055,0.167-0.069
			c1.263-0.343,2.525-0.685,3.788-1.025c0.033-0.01,0.068-0.018,0.103-0.022c0.038-0.007,0.071,0.006,0.091,0.036
			c0.044,0.065,0.087,0.131,0.123,0.201c0.148,0.278,0.246,0.577,0.32,0.884c0.04,0.169,0.075,0.34,0.113,0.511
			c0.018,0.076,0.07,0.092,0.134,0.038c0.021-0.017,0.038-0.035,0.06-0.052c0.045-0.041,0.09-0.083,0.136-0.123
			c0.586-0.509,1.239-0.905,1.972-1.168c0.386-0.139,0.783-0.236,1.191-0.292c0.471-0.065,0.94-0.073,1.411-0.032
			c0.925,0.078,1.771,0.376,2.509,0.952c0.373,0.293,0.699,0.63,0.984,1.011c0.062,0.083,0.126,0.166,0.19,0.249
			c0.021,0.026,0.067,0.028,0.094,0.004c0.039-0.034,0.077-0.069,0.116-0.105c0.264-0.254,0.533-0.503,0.82-0.732
			c0.452-0.359,0.935-0.673,1.465-0.906c0.516-0.225,1.051-0.372,1.609-0.44c0.515-0.064,1.029-0.072,1.543-0.031
			c0.648,0.052,1.275,0.198,1.873,0.459c0.461,0.2,0.877,0.465,1.232,0.825c0.33,0.335,0.574,0.722,0.734,1.164
			c0.09,0.246,0.154,0.499,0.199,0.758c0.062,0.361,0.102,0.725,0.119,1.093c0.029,0.558,0.035,1.116,0.035,1.675
			c-0.001,3.858,0,7.718,0,11.576c0,0.097-0.004,0.192-0.007,0.289c-0.001,0.028-0.036,0.067-0.065,0.073
			c-0.025,0.006-0.051,0.013-0.076,0.014c-0.053,0.002-0.105,0.001-0.157,0.001c-1.292,0.001-2.585,0.001-3.876,0
			c-0.07,0-0.141-0.006-0.209-0.011c-0.042-0.003-0.078-0.045-0.08-0.088c-0.003-0.096-0.006-0.192-0.006-0.288
			c0-3.789,0-7.578,0-11.367c0-0.2-0.001-0.401-0.01-0.603c-0.011-0.297-0.033-0.593-0.098-0.883
			c-0.025-0.11-0.061-0.219-0.101-0.325c-0.118-0.311-0.349-0.495-0.67-0.562c-0.302-0.064-0.605-0.073-0.911-0.025
			c-0.269,0.04-0.527,0.115-0.78,0.215c-0.698,0.274-1.315,0.681-1.878,1.172c-0.026,0.022-0.049,0.051-0.075,0.08
			c-0.005,0.04-0.012,0.083-0.013,0.127c-0.001,0.087,0,0.174,0,0.262c0,3.964,0,7.927,0,11.892c0,0.095-0.001,0.191-0.005,0.287
			c-0.001,0.07-0.042,0.109-0.116,0.114c-0.077,0.003-0.156,0.004-0.234,0.004c-1.213,0.001-2.427,0.001-3.641,0
			c-0.07,0-0.141,0.001-0.21-0.001c-0.026-0.001-0.052-0.008-0.077-0.011c-0.029-0.005-0.066-0.041-0.069-0.07
			c-0.005-0.034-0.008-0.068-0.009-0.104c-0.002-0.087-0.001-0.175-0.001-0.262c0-3.562,0-7.124,0-10.686
			c0-0.28-0.005-0.559-0.005-0.838c-0.002-0.298-0.028-0.594-0.066-0.889c-0.025-0.198-0.066-0.396-0.143-0.583
			c-0.022-0.056-0.046-0.113-0.073-0.168c-0.138-0.271-0.356-0.448-0.651-0.525c-0.281-0.074-0.566-0.095-0.857-0.071
			c-0.43,0.035-0.841,0.146-1.238,0.311c-0.512,0.213-0.979,0.5-1.406,0.852c-0.047,0.039-0.092,0.081-0.139,0.12
			c-0.051,0.043-0.069,0.098-0.069,0.162c0,0.035-0.002,0.069-0.002,0.104c0,0.078,0,0.157,0,0.235c0,4.017,0,8.032,0,12.048
			c0,0.097-0.005,0.192-0.007,0.289c-0.001,0.029-0.037,0.066-0.066,0.072c-0.025,0.006-0.051,0.013-0.077,0.014
			c-0.06,0.002-0.122,0.001-0.183,0.001c-1.274,0.001-2.549,0.001-3.824,0c-0.087,0-0.174-0.008-0.261-0.013
			c-0.026-0.002-0.066-0.045-0.069-0.07c-0.003-0.034-0.008-0.068-0.008-0.104c-0.002-0.096-0.001-0.191-0.001-0.288
			c0-4.076,0.001-8.153-0.002-12.231c0-0.488-0.019-0.978-0.046-1.466c-0.021-0.418-0.062-0.834-0.138-1.248
			c-0.081-0.439-0.2-0.867-0.401-1.269C14.856,8.759,14.836,8.721,14.85,8.674z"/>
		<path fill-rule="evenodd" clip-rule="evenodd" fill="#CBCBC8" d="M101.089,9.944c0.074-0.051,0.129-0.094,0.186-0.13
			c0.455-0.278,0.922-0.537,1.404-0.762c0.744-0.347,1.496-0.673,2.271-0.943c0.619-0.215,1.252-0.383,1.898-0.491
			c0.387-0.064,0.777-0.117,1.172-0.128c0.209-0.006,0.418-0.022,0.627-0.029c0.385-0.012,0.77,0.016,1.15,0.051
			c0.645,0.06,1.277,0.183,1.891,0.404c0.469,0.17,0.914,0.389,1.318,0.685c0.637,0.464,1.111,1.056,1.398,1.792
			c0.146,0.385,0.236,0.785,0.289,1.193c0.055,0.407,0.059,0.818,0.066,1.229c0.014,0.611-0.008,1.222-0.014,1.833
			c-0.004,0.393-0.01,0.786-0.018,1.178c-0.014,0.698-0.025,1.396-0.041,2.096c-0.01,0.479-0.021,0.96-0.031,1.439
			c-0.01,0.507-0.012,1.013,0.035,1.518c0.023,0.252,0.061,0.503,0.125,0.748c0.127,0.474,0.359,0.889,0.697,1.242
			c0.182,0.19,0.377,0.364,0.582,0.527c0.055,0.042,0.107,0.089,0.16,0.135c0.02,0.02,0.021,0.051,0.01,0.072
			c-0.027,0.045-0.059,0.087-0.092,0.126c-0.172,0.199-0.344,0.396-0.516,0.595c-0.514,0.594-1.027,1.188-1.543,1.781
			c-0.021,0.027-0.047,0.053-0.068,0.079c-0.182,0.21-0.168,0.212-0.412,0.096c-0.541-0.258-1.031-0.587-1.465-1.002
			c-0.258-0.249-0.486-0.524-0.672-0.833c-0.027-0.045-0.057-0.087-0.086-0.13c-0.016-0.021-0.055-0.027-0.072-0.014
			c-0.037,0.033-0.078,0.066-0.117,0.103c-0.193,0.188-0.396,0.367-0.605,0.539c-0.568,0.472-1.215,0.784-1.926,0.968
			c-0.33,0.084-0.666,0.141-1.004,0.18c-0.516,0.062-1.029,0.062-1.543,0.035c-0.691-0.035-1.371-0.144-2.029-0.361
			c-0.367-0.121-0.717-0.273-1.053-0.467c-0.883-0.513-1.523-1.239-1.916-2.182c-0.193-0.462-0.314-0.942-0.383-1.439
			c-0.082-0.608-0.086-1.219-0.031-1.828c0.053-0.604,0.188-1.188,0.426-1.747c0.324-0.765,0.816-1.399,1.473-1.907
			c0.457-0.355,0.963-0.63,1.5-0.845c0.578-0.232,1.174-0.393,1.783-0.512c0.48-0.094,0.967-0.159,1.451-0.198
			c0.498-0.041,0.994-0.077,1.492-0.071c0.42,0.008,0.838-0.01,1.256,0.021c0.01,0.001,0.018-0.001,0.027-0.001
			c0.029-0.001,0.072-0.034,0.076-0.061c0.004-0.035,0.01-0.07,0.01-0.104c0.006-0.445-0.004-0.891-0.031-1.336
			c-0.012-0.217-0.047-0.434-0.1-0.645c-0.039-0.154-0.09-0.302-0.164-0.441c-0.145-0.273-0.361-0.47-0.646-0.586
			c-0.244-0.098-0.502-0.145-0.764-0.163c-0.742-0.051-1.463,0.064-2.168,0.289c-0.635,0.201-1.238,0.475-1.824,0.788
			c-0.43,0.23-0.848,0.483-1.258,0.751c-0.059,0.039-0.119,0.074-0.178,0.109c-0.029,0.018-0.074,0.004-0.094-0.025
			c-0.041-0.065-0.084-0.132-0.125-0.198c-0.207-0.346-0.41-0.69-0.617-1.036c-0.346-0.585-0.693-1.17-1.041-1.756
			C101.177,10.106,101.14,10.035,101.089,9.944z M110.113,19.725c0.014-0.58,0.027-1.112,0.039-1.644
			c0.008-0.335,0.014-0.321-0.33-0.326c-0.357-0.003-0.715,0.023-1.07,0.039c-0.43,0.02-0.852,0.078-1.27,0.171
			c-0.256,0.058-0.504,0.14-0.74,0.256c-0.477,0.234-0.811,0.595-0.98,1.104c-0.031,0.099-0.061,0.2-0.08,0.303
			c-0.082,0.423-0.107,0.848-0.047,1.275c0.064,0.43,0.219,0.824,0.498,1.163c0.404,0.49,0.938,0.716,1.562,0.711
			c0.352-0.002,0.691-0.081,1.018-0.219c0.465-0.195,0.863-0.486,1.223-0.837c0.107-0.105,0.156-0.219,0.156-0.369
			C110.093,20.794,110.105,20.235,110.113,19.725z"/>
		<path fill-rule="evenodd" clip-rule="evenodd" fill="#CBCBC8" d="M56.533,16.696c0.013,0.355-0.019,0.801-0.053,1.244
			c-0.063,0.812-0.194,1.611-0.433,2.392c-0.367,1.205-0.98,2.271-1.833,3.198c-0.452,0.493-0.952,0.924-1.521,1.273
			c-0.676,0.418-1.406,0.695-2.181,0.861c-0.8,0.171-1.608,0.228-2.423,0.193c-0.895-0.039-1.766-0.205-2.604-0.535
			c-1.24-0.49-2.26-1.272-3.064-2.335c-0.555-0.729-0.961-1.538-1.256-2.403c-0.197-0.579-0.336-1.173-0.434-1.777
			c-0.146-0.909-0.187-1.824-0.144-2.742c0.051-1.077,0.225-2.135,0.567-3.159c0.299-0.893,0.711-1.727,1.279-2.48
			c0.988-1.314,2.273-2.199,3.858-2.644c0.421-0.118,0.851-0.192,1.285-0.24c0.488-0.055,0.976-0.06,1.465-0.034
			c0.921,0.046,1.818,0.222,2.675,0.575c0.625,0.259,1.203,0.599,1.724,1.031c0.983,0.816,1.752,1.798,2.278,2.964
			c0.255,0.568,0.436,1.16,0.561,1.769c0.111,0.549,0.18,1.103,0.215,1.66C56.52,15.873,56.535,16.239,56.533,16.696z
			 M45.692,16.519c0.004,0.846,0.029,1.533,0.095,2.221c0.038,0.408,0.093,0.814,0.169,1.217c0.064,0.336,0.15,0.663,0.268,0.983
			c0.178,0.483,0.485,0.862,0.915,1.145c0.318,0.208,0.664,0.342,1.039,0.409c0.366,0.067,0.731,0.057,1.091-0.027
			c0.514-0.117,0.922-0.401,1.236-0.824c0.161-0.218,0.291-0.455,0.395-0.705c0.139-0.332,0.238-0.674,0.316-1.023
			c0.143-0.641,0.208-1.291,0.249-1.944c0.021-0.34,0.026-0.681,0.032-1.021c0.01-0.559-0.008-1.117-0.028-1.675
			c-0.001-0.061-0.004-0.122-0.011-0.183c-0.039-0.398-0.07-0.8-0.137-1.195c-0.064-0.379-0.146-0.753-0.268-1.118
			c-0.082-0.249-0.186-0.489-0.322-0.714c-0.273-0.458-0.658-0.783-1.154-0.983c-0.228-0.093-0.465-0.147-0.708-0.173
			c-0.642-0.069-1.232,0.07-1.754,0.458c-0.425,0.315-0.717,0.734-0.897,1.23c-0.062,0.171-0.114,0.348-0.164,0.523
			c-0.172,0.616-0.253,1.247-0.302,1.882C45.71,15.559,45.682,16.115,45.692,16.519z"/>
		<path fill-rule="evenodd" clip-rule="evenodd" fill="#CBCBC8" d="M64.861,7.842c2.051,0,4.104,0,6.154,0
			c0.096,0,0.193,0.003,0.289,0.009c0.055,0.002,0.094,0.044,0.096,0.104c0.004,0.052,0.006,0.104,0.006,0.157
			c0,0.89,0,1.781,0,2.671c0,0.044-0.002,0.088-0.002,0.132c0,0.054-0.018,0.103-0.047,0.147c-0.031,0.051-0.066,0.102-0.102,0.151
			c-2.086,3.016-4.172,6.031-6.258,9.046c-0.406,0.589-0.814,1.177-1.221,1.767c-0.04,0.058-0.076,0.117-0.113,0.175
			c-0.018,0.031,0.003,0.078,0.035,0.084c0.035,0.004,0.07,0.012,0.104,0.013c0.088,0.003,0.176,0.001,0.262,0.001
			c2.41,0,4.82,0,7.229,0c0.105,0,0.209,0.007,0.314,0.012c0.033,0.002,0.064,0.044,0.059,0.072
			c-0.014,0.042-0.023,0.084-0.039,0.125c-0.088,0.256-0.176,0.512-0.264,0.768c-0.227,0.659-0.453,1.32-0.682,1.979
			c-0.018,0.05-0.035,0.099-0.055,0.147c-0.023,0.054-0.066,0.078-0.123,0.082c-0.035,0.002-0.07,0.003-0.105,0.003
			c-0.051,0.001-0.104,0-0.156,0c-4.086,0-8.172,0.001-12.258,0c-0.096,0-0.191-0.007-0.287-0.012
			c-0.03-0.002-0.068-0.039-0.072-0.067c-0.004-0.044-0.01-0.086-0.01-0.129c0-0.83,0.002-1.66-0.002-2.489
			c0-0.112,0.035-0.201,0.099-0.289c0.251-0.346,0.499-0.694,0.749-1.042c2.008-2.792,4.015-5.585,6.022-8.378
			c0.418-0.582,0.838-1.162,1.254-1.745c0.045-0.062,0.102-0.119,0.119-0.199c0.004-0.013-0.006-0.036-0.018-0.043
			c-0.021-0.012-0.049-0.021-0.072-0.022c-0.096-0.003-0.193-0.004-0.289-0.004c-2.245,0-4.488,0-6.731-0.001
			c-0.105,0-0.209-0.002-0.314-0.007c-0.07-0.003-0.105-0.044-0.111-0.118c-0.004-0.053-0.006-0.104-0.006-0.157
			c0-0.89,0-1.781,0-2.672c0-0.061,0.008-0.121,0.013-0.183c0.003-0.031,0.037-0.067,0.065-0.071
			c0.035-0.007,0.07-0.014,0.104-0.014c0.096-0.002,0.191-0.002,0.288-0.002C60.809,7.842,62.835,7.842,64.861,7.842z"/>
		<path fill-rule="evenodd" clip-rule="evenodd" fill="#CBCBC8" d="M87.087,11.308c0,2.496-0.002,4.992,0,7.488
			c0,0.49,0.004,0.978,0.012,1.467c0.008,0.331,0.025,0.662,0.045,0.993c0.012,0.192,0.041,0.382,0.086,0.569
			c0.037,0.146,0.096,0.281,0.168,0.41c0.105,0.191,0.264,0.322,0.463,0.407c0.258,0.109,0.525,0.117,0.797,0.08
			c0.051-0.007,0.104-0.017,0.154-0.019c0.016-0.001,0.037,0.012,0.043,0.023c0.023,0.047,0.043,0.096,0.059,0.146
			c0.08,0.276,0.156,0.553,0.236,0.83c0.143,0.494,0.287,0.987,0.426,1.483c0.072,0.245,0.07,0.237-0.16,0.315
			c-0.465,0.156-0.939,0.26-1.426,0.324c-0.348,0.047-0.697,0.062-1.045,0.071c-0.252,0.008-0.506-0.015-0.758-0.042
			c-0.426-0.047-0.842-0.147-1.242-0.303c-0.467-0.183-0.896-0.431-1.268-0.77c-0.375-0.341-0.662-0.741-0.85-1.211
			c-0.131-0.325-0.24-0.656-0.303-1.001c-0.041-0.224-0.07-0.447-0.09-0.674c-0.059-0.724-0.057-1.448-0.057-2.172
			c-0.002-4.713-0.002-9.427-0.002-14.14c0-0.419-0.018-0.837-0.027-1.257c-0.004-0.175-0.006-0.349-0.012-0.524
			c-0.008-0.296-0.008-0.593-0.043-0.888c-0.006-0.053-0.006-0.104-0.008-0.157c-0.014-0.41-0.055-0.818-0.094-1.227
			c-0.014-0.139-0.02-0.278-0.027-0.418c-0.002-0.041,0.031-0.084,0.076-0.095c0.17-0.042,0.338-0.083,0.508-0.122
			c0.971-0.219,1.941-0.438,2.91-0.655c0.332-0.075,0.664-0.152,0.996-0.227c0.049-0.011,0.102-0.009,0.154-0.009
			c0.014,0.001,0.031,0.017,0.039,0.029c0.014,0.022,0.021,0.048,0.025,0.072c0.031,0.216,0.068,0.432,0.09,0.647
			c0.027,0.27,0.045,0.54,0.062,0.81c0.055,0.907,0.061,1.814,0.061,2.723C87.085,6.629,87.087,8.969,87.087,11.308z"/>
		<path fill-rule="evenodd" clip-rule="evenodd" fill="#CBCBC8" d="M96.673,11.295c0,2.427-0.002,4.854,0,7.281
			c0,0.549,0.004,1.1,0.016,1.649c0.004,0.331,0.021,0.662,0.041,0.994c0.012,0.191,0.041,0.381,0.084,0.568
			c0.039,0.173,0.111,0.331,0.197,0.482c0.096,0.165,0.232,0.283,0.404,0.359c0.152,0.066,0.312,0.109,0.482,0.11
			c0.156,0.002,0.312,0,0.469-0.039c0.043-0.011,0.084,0.018,0.1,0.061c0.018,0.042,0.031,0.083,0.043,0.124
			c0.221,0.771,0.441,1.543,0.662,2.314c0.014,0.051,0.025,0.103,0.033,0.153c0.008,0.034-0.014,0.075-0.041,0.088
			c-0.041,0.018-0.08,0.036-0.123,0.05c-0.336,0.116-0.684,0.206-1.037,0.271c-0.359,0.066-0.723,0.1-1.09,0.124
			c-0.352,0.023-0.699,0.013-1.047-0.021c-0.729-0.072-1.42-0.28-2.047-0.667c-0.562-0.346-1.01-0.805-1.303-1.399
			c-0.176-0.353-0.301-0.726-0.383-1.11c-0.059-0.291-0.094-0.586-0.113-0.883c-0.045-0.68-0.047-1.36-0.047-2.041
			c0-4.679,0-9.358,0-14.037c0-0.585-0.006-1.169-0.037-1.755c-0.008-0.13-0.01-0.261-0.014-0.393
			c-0.008-0.471-0.051-0.94-0.088-1.41c-0.027-0.321-0.057-0.644-0.086-0.966c-0.002-0.025-0.004-0.052-0.004-0.078
			c-0.002-0.054,0.029-0.097,0.088-0.112c0.025-0.006,0.051-0.01,0.076-0.016c0.451-0.103,0.902-0.205,1.354-0.307
			c0.979-0.223,1.957-0.445,2.934-0.666c0.045-0.009,0.088-0.017,0.129-0.022c0.072-0.012,0.117,0.021,0.129,0.095
			c0.047,0.284,0.09,0.569,0.115,0.856c0.086,0.931,0.102,1.864,0.102,2.799C96.673,6.268,96.673,8.781,96.673,11.295z"/>
		<path fill-rule="evenodd" clip-rule="evenodd" fill="#CBCBC8" d="M78.667,16.466c0,2.873,0,5.744,0,8.616
			c0,0.097,0,0.192-0.006,0.289c-0.004,0.067-0.025,0.104-0.117,0.111c-0.043,0.004-0.088,0.004-0.131,0.004
			c-1.371,0-2.74,0.001-4.111,0c-0.053,0-0.104-0.008-0.156-0.013c-0.029-0.003-0.064-0.041-0.068-0.07
			c-0.004-0.025-0.008-0.053-0.01-0.078c0-0.078,0-0.156,0-0.235c0-5.518,0-11.034,0-16.552c0-0.097,0-0.191,0.004-0.288
			c0.002-0.057,0.039-0.104,0.092-0.113c0.109-0.019,0.223-0.038,0.334-0.056c0.285-0.046,0.57-0.088,0.854-0.132
			c0.414-0.064,0.828-0.129,1.242-0.195c0.49-0.077,0.982-0.157,1.473-0.234c0.137-0.023,0.275-0.046,0.414-0.065
			c0.043-0.006,0.086-0.003,0.129,0.001c0.014,0.001,0.031,0.018,0.037,0.032c0.01,0.022,0.018,0.05,0.018,0.074
			c0.002,0.097,0.004,0.192,0.004,0.289C78.667,10.723,78.667,13.595,78.667,16.466z"/>
		<path fill-rule="evenodd" clip-rule="evenodd" fill="#CBCBC8" d="M76.345,5.813c-1.156,0.02-2.363-0.78-2.697-2.128
			c-0.426-1.721,0.701-3.139,2.07-3.479c0.631-0.157,1.246-0.125,1.84,0.146c0.801,0.366,1.312,0.991,1.553,1.833
			c0.086,0.295,0.123,0.6,0.105,0.906c-0.076,1.48-1.148,2.461-2.285,2.67C76.741,5.796,76.55,5.812,76.345,5.813z"/>
	</g>
</g>
</svg>
