<?xml version="1.0" encoding="utf-8"?>
<!-- Generator: Adobe Illustrator 16.0.4, SVG Export Plug-In . SVG Version: 6.00 Build 0)  -->
<!DOCTYPE svg PUBLIC "-//W3C//DTD SVG 1.1//EN" "http://www.w3.org/Graphics/SVG/1.1/DTD/svg11.dtd">
<svg version="1.1" id="Layer_1" xmlns="http://www.w3.org/2000/svg" xmlns:xlink="http://www.w3.org/1999/xlink" x="0px" y="0px"
	 width="124.93px" height="24.499px" viewBox="1.843 1.217 124.93 24.499" enable-background="new 1.843 1.217 124.93 24.499"
	 xml:space="preserve">
<g>
	<path fill-rule="evenodd" clip-rule="evenodd" fill="#CBCBC8" d="M21.278,14.543c0-1.045,0.018-2.09-0.004-3.135
		c-0.029-1.356,0.902-2.373,1.869-2.71c1.258-0.439,2.615-0.025,3.347,1.004c0.324,0.458,0.534,0.972,0.53,1.562
		c-0.013,1.874-0.012,3.748,0,5.621c0.006,0.824,0.195,1.594,0.83,2.186c0.836,0.775,1.812,1.043,2.891,0.65
		c1.189-0.434,1.82-1.348,1.846-2.6c0.039-1.91,0.016-3.825,0.012-5.735c-0.004-1.348,1.011-2.54,2.238-2.785
		c2.047-0.41,3.587,1.06,3.578,2.894c-0.008,1.873,0.025,3.748-0.012,5.621c-0.021,1.055,0.816,2.293,1.826,2.619
		c1.202,0.389,2.359,0.041,3.14-0.941c0.396-0.498,0.55-1.049,0.549-1.664c-0.003-1.836-0.013-3.671,0.003-5.507
		c0.008-0.882,0.273-1.68,0.949-2.295c0.883-0.807,1.916-1.021,3.012-0.604c1.177,0.449,1.83,1.363,1.846,2.644
		c0.023,2.051,0.041,4.104-0.004,6.155c-0.043,2.025-0.814,3.799-2.16,5.297c-0.82,0.916-1.797,1.658-2.931,2.156
		c-0.724,0.316-1.483,0.521-2.27,0.635c-1.364,0.197-2.692,0.057-3.988-0.389c-0.886-0.303-1.699-0.74-2.427-1.338
		c-0.452-0.371-0.514-0.355-0.975,0.016c-1.652,1.328-3.557,1.9-5.654,1.783c-2.41-0.131-4.418-1.168-5.986-2.975
		c-1.332-1.537-2.076-3.338-2.058-5.412C21.284,16.379,21.277,15.461,21.278,14.543L21.278,14.543z"/>
	<path fill-rule="evenodd" clip-rule="evenodd" fill="#CBCBC8" d="M12.869,13.528c-1.44,0-2.882-0.001-4.321,0.001
		c-0.478,0.002-0.498,0.022-0.5,0.497c-0.002,0.855,0.03,1.709-0.009,2.562c-0.067,1.479,1.394,2.939,2.923,2.92
		c2.04-0.031,4.08-0.018,6.119-0.006c1.238,0.008,2.146,0.605,2.701,1.686c0.541,1.053,0.505,2.111-0.178,3.111
		c-0.637,0.93-1.523,1.395-2.651,1.395c-2.04,0-4.079,0.033-6.118-0.01c-1.383-0.031-2.709-0.32-3.965-0.977
		c-1.246-0.652-2.27-1.537-3.134-2.611c-1.009-1.254-1.604-2.699-1.812-4.301C1.862,17.311,1.85,16.83,1.85,16.346
		c0.001-4.015-0.023-8.031,0.01-12.047c0.018-1.907,1.333-2.992,3.093-3.062c1.495-0.059,2.749,1.103,3.01,2.487
		c0.161,0.862,0.062,1.729,0.078,2.593c0.024,1.146-0.11,1.012,1.034,1.015c2.626,0.004,5.252,0.013,7.878-0.004
		c1.468-0.009,2.786,1.051,3.093,2.366c0.329,1.412-0.363,2.906-1.674,3.56c-0.391,0.193-0.816,0.279-1.258,0.278
		c-1.416-0.003-2.83,0-4.245,0C12.869,13.529,12.869,13.529,12.869,13.528z"/>
	<path fill-rule="evenodd" clip-rule="evenodd" fill="#CBCBC8" d="M103.124,18.807c-1.529,0-3.061,0-4.59,0
		c-0.559,0-0.654,0.166-0.385,0.664c0.318,0.592,0.912,0.814,1.486,0.994c1.312,0.408,2.652,0.5,3.986,0.084
		c0.596-0.186,1.166-0.443,1.725-0.721c0.693-0.348,1.404-0.557,2.201-0.424c1.662,0.271,2.162,1.986,1.252,3.326
		c-1.07,1.58-2.688,2.225-4.445,2.631c-1.398,0.324-2.828,0.418-4.252,0.316c-1.604-0.113-3.115-0.561-4.484-1.473
		c-0.861-0.572-1.615-1.236-2.248-2.041c-0.895-1.133-1.424-2.426-1.637-3.855c-0.221-1.49-0.109-2.955,0.408-4.363
		c0.615-1.679,1.625-3.062,3.213-3.977c1.471-0.847,3.059-1.22,4.74-1.261c1.24-0.031,2.473,0.012,3.682,0.309
		c1.299,0.319,2.477,0.849,3.555,1.682c1.262,0.975,2.098,2.202,2.592,3.679c0.363,1.082,0.5,2.189,0.01,3.281
		c-0.148,0.33-0.365,0.604-0.717,0.762c-0.564,0.254-1.145,0.4-1.771,0.391C106.003,18.795,104.564,18.807,103.124,18.807z
		 M101.048,14.905c0.865,0,1.732,0.004,2.598-0.004c0.359-0.002,0.443-0.125,0.305-0.453c-0.15-0.357-0.367-0.664-0.73-0.849
		c-1.119-0.568-2.285-0.672-3.488-0.342c-0.662,0.181-1.277,0.457-1.564,1.154c-0.156,0.385-0.088,0.49,0.32,0.492
		C99.341,14.908,100.193,14.905,101.048,14.905z"/>
	<path fill-rule="evenodd" clip-rule="evenodd" fill="#CBCBC8" d="M85.12,10.01c0.865-0.001,1.732-0.007,2.6,0
		c1.988,0.016,3.586,2.29,2.689,4.254c-0.609,1.34-1.666,1.934-3.092,1.943c-1.555,0.01-3.109,0-4.664,0
		c-0.457,0-0.512,0.049-0.482,0.508c0.02,0.328,0.062,0.658,0.121,0.982c0.219,1.219,1.281,1.758,2.387,1.795
		c0.953,0.029,1.91,0.004,2.867,0.008c2.049,0.006,3.553,1.922,3.012,3.896c-0.348,1.268-1.561,2.279-2.918,2.293
		c-1.084,0.014-2.17,0.051-3.25-0.006c-2.334-0.123-4.395-0.896-6.01-2.676c-0.709-0.781-1.129-1.701-1.484-2.68
		c-0.652-1.787-0.912-3.652-1.143-5.521c-0.105-0.869-0.1-1.75-0.17-2.625c-0.139-1.757-0.082-3.516-0.057-5.271
		c0.014-1.089,0.029-2.19,0.203-3.27c0.184-1.134,1.27-2.148,2.396-2.345c1.652-0.292,2.955,0.545,3.527,1.998
		c0.17,0.431,0.197,0.896,0.201,1.353c0.012,1.605,0.004,3.211,0.008,4.818c0,0.51,0.033,0.542,0.543,0.543
		C83.31,10.011,84.214,10.01,85.12,10.01z"/>
	<path fill-rule="evenodd" clip-rule="evenodd" fill="#CBCBC8" d="M65.644,6.785c0,0.893,0,1.785,0,2.677
		c0.002,0.542,0.008,0.547,0.564,0.548c1.76,0,3.52-0.006,5.277,0.002c1.543,0.004,2.92,1.358,2.975,2.896
		c0.057,1.611-1.045,2.88-2.291,3.171c-0.381,0.088-0.777,0.131-1.174,0.129c-1.492,0-2.982,0-4.475,0.002
		c-0.477,0-0.486,0.02-0.498,0.498c-0.014,0.57,0.074,1.127,0.352,1.623c0.455,0.816,1.225,1.127,2.104,1.16
		c0.955,0.037,1.912,0.031,2.869,0.004c1.27-0.037,2.162,0.631,2.77,1.613c0.584,0.945,0.459,2.637-0.449,3.541
		c-0.777,0.775-1.639,1.057-2.672,1.047c-0.867-0.01-1.734,0.02-2.602-0.006c-2.4-0.07-4.521-0.84-6.177-2.639
		c-0.907-0.984-1.37-2.213-1.742-3.48c-0.509-1.732-0.771-3.504-0.934-5.293c-0.089-0.986-0.196-1.975-0.165-2.969
		c0.02-0.626-0.086-1.245-0.074-1.868c0.03-1.666,0.1-3.332,0.148-4.998c0.029-1.021,0.395-1.897,1.198-2.536
		c0.854-0.681,1.85-0.858,2.88-0.517c1.073,0.357,1.772,1.119,2.059,2.229c0.043,0.17,0.055,0.352,0.055,0.528
		C65.648,5.025,65.646,5.905,65.644,6.785z"/>
	<path fill-rule="evenodd" clip-rule="evenodd" fill="#CBCBC8" d="M111.23,19.826c0-0.945,0-1.889,0-2.832
		c0-2.008,0.672-3.779,1.973-5.289c1.43-1.657,3.229-2.694,5.426-2.981c0.139-0.02,0.279-0.017,0.42-0.017
		c1.619-0.002,3.238,0.017,4.855-0.006c1.178-0.016,1.986,0.535,2.527,1.535c0.523,0.966,0.42,1.91-0.131,2.83
		c-0.539,0.9-1.342,1.312-2.381,1.306c-1.275-0.008-2.551-0.016-3.824,0.004c-0.746,0.01-1.461,0.131-2.074,0.631
		c-0.689,0.559-1.043,1.27-1.049,2.145c-0.012,1.848,0.004,3.695-0.01,5.545c-0.004,0.801-0.252,1.52-0.828,2.109
		c-1.102,1.131-2.686,1.133-3.838,0.217c-0.709-0.562-1.078-1.299-1.068-2.217C111.236,21.815,111.23,20.819,111.23,19.826z"/>
	<path fill-rule="evenodd" clip-rule="evenodd" fill="#CBCBC8" d="M57.612,17.627c0,1.658-0.004,3.314,0.002,4.973
		c0.002,1.074-0.454,1.857-1.322,2.518c-1.906,1.449-4.646-0.041-4.816-2.168c-0.025-0.318-0.059-0.633-0.059-0.951
		c0-2.971-0.004-5.939,0.004-8.911c0.002-0.368,0.03-0.741,0.104-1.101c0.265-1.305,1.459-2.328,2.898-2.42
		c1.127-0.072,2.491,0.671,2.961,1.901c0.154,0.401,0.232,0.8,0.231,1.226C57.608,14.34,57.612,15.985,57.612,17.627z"/>
	<path fill-rule="evenodd" clip-rule="evenodd" fill="#CBCBC8" d="M57.613,4.269c0.107,1.665-1.44,3.126-2.993,3.141
		c-1.723,0.015-3.182-1.346-3.175-3.05c0.007-1.781,1.325-3.107,3.071-3.143C56.229,1.184,57.602,2.556,57.613,4.269z"/>
</g>
</svg>
