<?xml version="1.0" encoding="utf-8"?>
<!-- Generator: Adobe Illustrator 16.0.4, SVG Export Plug-In . SVG Version: 6.00 Build 0)  -->
<!DOCTYPE svg PUBLIC "-//W3C//DTD SVG 1.1//EN" "http://www.w3.org/Graphics/SVG/1.1/DTD/svg11.dtd">
<svg version="1.1" id="Layer_1" xmlns="http://www.w3.org/2000/svg" xmlns:xlink="http://www.w3.org/1999/xlink" x="0px" y="0px"
	 width="463.218px" height="125.637px" viewBox="0 0 463.218 125.637" enable-background="new 0 0 463.218 125.637"
	 xml:space="preserve">
<g>
	<g>
		<g>
			<path fill-rule="evenodd" clip-rule="evenodd" fill="#CCCCC9" d="M361.795,12.246c0.047-0.043,0.107-0.055,0.166-0.069
				c1.264-0.343,2.525-0.685,3.789-1.025c0.033-0.01,0.068-0.018,0.102-0.022c0.039-0.007,0.072,0.006,0.092,0.036
				c0.043,0.065,0.086,0.131,0.123,0.201c0.148,0.278,0.246,0.577,0.32,0.884c0.039,0.169,0.074,0.34,0.113,0.511
				c0.018,0.076,0.07,0.092,0.133,0.038c0.021-0.017,0.039-0.035,0.061-0.052c0.045-0.041,0.09-0.083,0.135-0.123
				c0.586-0.509,1.24-0.905,1.973-1.168c0.385-0.139,0.783-0.236,1.191-0.292c0.471-0.065,0.939-0.073,1.41-0.032
				c0.926,0.078,1.771,0.376,2.51,0.952c0.373,0.293,0.699,0.63,0.984,1.011c0.062,0.083,0.125,0.166,0.189,0.249
				c0.021,0.026,0.068,0.028,0.094,0.004c0.039-0.034,0.078-0.069,0.117-0.105c0.264-0.254,0.533-0.503,0.82-0.732
				c0.451-0.359,0.934-0.673,1.465-0.906c0.516-0.225,1.051-0.372,1.609-0.44c0.514-0.064,1.029-0.072,1.543-0.031
				c0.648,0.052,1.275,0.198,1.873,0.459c0.461,0.2,0.877,0.465,1.232,0.825c0.33,0.335,0.574,0.722,0.734,1.164
				c0.09,0.246,0.154,0.499,0.199,0.758c0.061,0.361,0.102,0.725,0.119,1.093c0.029,0.558,0.035,1.116,0.035,1.675
				c-0.002,3.858,0,7.718,0,11.576c0,0.097-0.004,0.192-0.008,0.289c0,0.028-0.035,0.067-0.064,0.073
				c-0.025,0.006-0.051,0.013-0.076,0.014c-0.053,0.002-0.105,0.001-0.158,0.001c-1.291,0.001-2.584,0.001-3.875,0
				c-0.07,0-0.141-0.006-0.209-0.011c-0.043-0.003-0.078-0.045-0.08-0.088c-0.004-0.096-0.006-0.192-0.006-0.288
				c0-3.789,0-7.578,0-11.367c0-0.2-0.002-0.401-0.01-0.603c-0.012-0.297-0.033-0.593-0.098-0.883
				c-0.025-0.11-0.061-0.219-0.102-0.325c-0.117-0.311-0.348-0.495-0.67-0.562c-0.301-0.064-0.605-0.073-0.91-0.025
				c-0.27,0.04-0.527,0.115-0.781,0.215c-0.697,0.274-1.314,0.681-1.877,1.172c-0.027,0.022-0.049,0.051-0.076,0.08
				c-0.004,0.04-0.012,0.083-0.012,0.127c-0.002,0.087,0,0.174,0,0.262c0,3.964,0,7.927,0,11.892c0,0.095-0.002,0.191-0.006,0.287
				c0,0.07-0.041,0.109-0.115,0.114c-0.078,0.003-0.156,0.004-0.234,0.004c-1.213,0.001-2.428,0.001-3.641,0
				c-0.07,0-0.141,0.001-0.211-0.001c-0.025-0.001-0.051-0.008-0.076-0.011c-0.029-0.005-0.066-0.041-0.07-0.07
				c-0.004-0.034-0.008-0.068-0.008-0.104c-0.002-0.087-0.002-0.175-0.002-0.262c0-3.562,0-7.124,0-10.686
				c0-0.28-0.004-0.559-0.004-0.838c-0.002-0.298-0.029-0.594-0.066-0.889c-0.025-0.198-0.066-0.396-0.143-0.583
				c-0.023-0.056-0.047-0.113-0.074-0.168c-0.137-0.271-0.355-0.448-0.65-0.525c-0.281-0.074-0.566-0.095-0.857-0.071
				c-0.43,0.035-0.842,0.146-1.238,0.311c-0.512,0.213-0.979,0.5-1.406,0.852c-0.047,0.039-0.092,0.081-0.139,0.12
				c-0.051,0.043-0.07,0.098-0.07,0.162c0,0.035-0.002,0.069-0.002,0.104c0,0.078,0,0.157,0,0.235c0,4.017,0,8.032,0,12.048
				c0,0.097-0.004,0.192-0.006,0.289c-0.002,0.029-0.037,0.066-0.066,0.072c-0.025,0.006-0.051,0.013-0.078,0.014
				c-0.059,0.002-0.121,0.001-0.182,0.001c-1.275,0.001-2.549,0.001-3.824,0c-0.088,0-0.174-0.008-0.262-0.013
				c-0.025-0.002-0.066-0.045-0.068-0.07c-0.004-0.034-0.008-0.068-0.008-0.104c-0.002-0.096-0.002-0.191-0.002-0.288
				c0-4.076,0.002-8.153-0.002-12.231c0-0.488-0.018-0.978-0.045-1.466c-0.021-0.418-0.062-0.834-0.139-1.248
				c-0.08-0.439-0.199-0.867-0.4-1.269C361.801,12.331,361.779,12.293,361.795,12.246z"/>
			<path fill-rule="evenodd" clip-rule="evenodd" fill="#CCCCC9" d="M448.033,13.516c0.074-0.051,0.129-0.094,0.186-0.13
				c0.455-0.278,0.922-0.537,1.404-0.762c0.744-0.347,1.496-0.673,2.271-0.943c0.619-0.215,1.252-0.383,1.898-0.491
				c0.387-0.064,0.777-0.117,1.172-0.128c0.209-0.006,0.418-0.022,0.627-0.029c0.385-0.012,0.77,0.016,1.15,0.051
				c0.645,0.06,1.277,0.183,1.891,0.404c0.469,0.17,0.914,0.389,1.318,0.685c0.637,0.464,1.111,1.056,1.398,1.792
				c0.146,0.385,0.236,0.785,0.289,1.193c0.055,0.407,0.059,0.818,0.066,1.229c0.014,0.611-0.008,1.222-0.014,1.833
				c-0.004,0.393-0.01,0.786-0.018,1.178c-0.014,0.698-0.025,1.396-0.041,2.096c-0.01,0.479-0.021,0.96-0.031,1.439
				c-0.01,0.507-0.012,1.013,0.035,1.518c0.023,0.252,0.061,0.503,0.125,0.748c0.127,0.474,0.359,0.889,0.697,1.242
				c0.182,0.19,0.377,0.364,0.582,0.527c0.055,0.042,0.107,0.089,0.16,0.135c0.02,0.02,0.021,0.051,0.01,0.072
				c-0.027,0.045-0.059,0.087-0.092,0.126c-0.172,0.199-0.344,0.396-0.516,0.595c-0.514,0.594-1.027,1.188-1.543,1.781
				c-0.021,0.027-0.047,0.053-0.068,0.079c-0.182,0.21-0.168,0.212-0.412,0.096c-0.541-0.258-1.031-0.587-1.465-1.002
				c-0.258-0.249-0.486-0.524-0.672-0.833c-0.027-0.045-0.057-0.087-0.086-0.13c-0.016-0.021-0.055-0.027-0.072-0.014
				c-0.037,0.033-0.078,0.066-0.117,0.103c-0.193,0.188-0.396,0.367-0.605,0.539c-0.568,0.472-1.215,0.784-1.926,0.968
				c-0.33,0.084-0.666,0.141-1.004,0.18c-0.516,0.062-1.029,0.062-1.543,0.035c-0.691-0.035-1.371-0.144-2.029-0.361
				c-0.367-0.121-0.717-0.273-1.053-0.467c-0.883-0.513-1.523-1.239-1.916-2.182c-0.193-0.462-0.314-0.942-0.383-1.439
				c-0.082-0.608-0.086-1.219-0.031-1.828c0.053-0.604,0.188-1.188,0.426-1.747c0.324-0.765,0.816-1.399,1.473-1.907
				c0.457-0.355,0.963-0.63,1.5-0.845c0.578-0.232,1.174-0.393,1.783-0.512c0.48-0.094,0.967-0.159,1.451-0.198
				c0.498-0.041,0.994-0.077,1.492-0.071c0.42,0.008,0.838-0.01,1.256,0.021c0.01,0.001,0.018-0.001,0.027-0.001
				c0.029-0.001,0.072-0.034,0.076-0.061c0.004-0.035,0.01-0.07,0.01-0.104c0.006-0.445-0.004-0.891-0.031-1.336
				c-0.012-0.217-0.047-0.434-0.1-0.645c-0.039-0.154-0.09-0.302-0.164-0.441c-0.145-0.273-0.361-0.47-0.646-0.586
				c-0.244-0.098-0.502-0.145-0.764-0.163c-0.742-0.051-1.463,0.064-2.168,0.289c-0.635,0.201-1.238,0.475-1.824,0.788
				c-0.43,0.23-0.848,0.483-1.258,0.751c-0.059,0.039-0.119,0.074-0.178,0.109c-0.029,0.018-0.074,0.004-0.094-0.025
				c-0.041-0.065-0.084-0.132-0.125-0.198c-0.207-0.346-0.41-0.69-0.617-1.036c-0.346-0.585-0.693-1.17-1.041-1.756
				C448.121,13.678,448.084,13.607,448.033,13.516z M457.057,23.297c0.014-0.58,0.027-1.112,0.039-1.644
				c0.008-0.335,0.014-0.321-0.33-0.326c-0.357-0.003-0.715,0.023-1.07,0.039c-0.43,0.02-0.852,0.078-1.27,0.171
				c-0.256,0.058-0.504,0.14-0.74,0.256c-0.477,0.234-0.811,0.595-0.98,1.104c-0.031,0.099-0.061,0.2-0.08,0.303
				c-0.082,0.423-0.107,0.848-0.047,1.275c0.064,0.43,0.219,0.824,0.498,1.163c0.404,0.49,0.938,0.716,1.562,0.711
				c0.352-0.002,0.691-0.081,1.018-0.219c0.465-0.195,0.863-0.486,1.223-0.837c0.107-0.105,0.156-0.219,0.156-0.369
				C457.037,24.366,457.049,23.807,457.057,23.297z"/>
			<path fill-rule="evenodd" clip-rule="evenodd" fill="#CCCCC9" d="M403.477,20.268c0.014,0.355-0.018,0.801-0.053,1.244
				c-0.062,0.812-0.193,1.611-0.432,2.392c-0.367,1.205-0.98,2.271-1.834,3.198c-0.451,0.493-0.951,0.924-1.52,1.273
				c-0.676,0.418-1.406,0.695-2.182,0.861c-0.799,0.171-1.607,0.228-2.422,0.193c-0.895-0.039-1.766-0.205-2.604-0.535
				c-1.24-0.49-2.26-1.272-3.064-2.335c-0.555-0.729-0.961-1.538-1.256-2.403c-0.197-0.579-0.336-1.173-0.434-1.777
				c-0.146-0.909-0.188-1.824-0.145-2.742c0.051-1.077,0.225-2.135,0.568-3.159c0.299-0.893,0.711-1.727,1.279-2.48
				c0.988-1.314,2.273-2.199,3.857-2.644c0.422-0.118,0.852-0.192,1.285-0.24c0.488-0.055,0.977-0.06,1.465-0.034
				c0.922,0.046,1.818,0.222,2.676,0.575c0.625,0.259,1.203,0.599,1.723,1.031c0.984,0.816,1.752,1.798,2.279,2.964
				c0.254,0.568,0.436,1.16,0.561,1.769c0.111,0.549,0.18,1.103,0.215,1.66C403.465,19.445,403.479,19.811,403.477,20.268z
				 M392.637,20.091c0.004,0.846,0.029,1.533,0.094,2.221c0.039,0.408,0.094,0.814,0.17,1.217c0.064,0.336,0.15,0.663,0.268,0.983
				c0.178,0.483,0.484,0.862,0.914,1.145c0.318,0.208,0.664,0.342,1.039,0.409c0.367,0.067,0.732,0.057,1.092-0.027
				c0.514-0.117,0.922-0.401,1.236-0.824c0.16-0.218,0.291-0.455,0.395-0.705c0.139-0.332,0.238-0.674,0.316-1.023
				c0.143-0.641,0.207-1.291,0.248-1.944c0.021-0.34,0.027-0.681,0.033-1.021c0.01-0.559-0.008-1.117-0.029-1.675
				c0-0.061-0.004-0.122-0.01-0.183c-0.039-0.398-0.07-0.8-0.137-1.195c-0.064-0.379-0.146-0.753-0.268-1.118
				c-0.082-0.249-0.186-0.489-0.322-0.714c-0.273-0.458-0.658-0.783-1.154-0.983c-0.229-0.093-0.465-0.147-0.709-0.173
				c-0.641-0.069-1.232,0.07-1.754,0.458c-0.424,0.315-0.717,0.734-0.896,1.23c-0.062,0.171-0.115,0.348-0.164,0.523
				c-0.172,0.616-0.254,1.247-0.303,1.882C392.654,19.131,392.627,19.688,392.637,20.091z"/>
			<path fill-rule="evenodd" clip-rule="evenodd" fill="#CCCCC9" d="M411.805,11.414c2.051,0,4.104,0,6.154,0
				c0.096,0,0.193,0.003,0.289,0.009c0.055,0.002,0.094,0.044,0.096,0.104c0.004,0.052,0.006,0.104,0.006,0.157
				c0,0.89,0,1.781,0,2.671c0,0.044-0.002,0.088-0.002,0.132c0,0.054-0.018,0.103-0.047,0.147c-0.031,0.051-0.066,0.102-0.102,0.151
				c-2.086,3.016-4.172,6.031-6.258,9.046c-0.406,0.589-0.814,1.177-1.221,1.767c-0.041,0.058-0.076,0.117-0.113,0.175
				c-0.018,0.031,0.002,0.078,0.035,0.084c0.035,0.004,0.07,0.012,0.104,0.013c0.088,0.003,0.176,0.001,0.262,0.001
				c2.41,0,4.82,0,7.229,0c0.105,0,0.209,0.007,0.314,0.012c0.033,0.002,0.064,0.044,0.059,0.072
				c-0.014,0.042-0.023,0.084-0.039,0.125c-0.088,0.256-0.176,0.512-0.264,0.768c-0.227,0.659-0.453,1.32-0.682,1.979
				c-0.018,0.05-0.035,0.099-0.055,0.147c-0.023,0.054-0.066,0.078-0.123,0.082c-0.035,0.002-0.07,0.003-0.105,0.003
				c-0.051,0.001-0.104,0-0.156,0c-4.086,0-8.172,0.001-12.258,0c-0.096,0-0.191-0.007-0.287-0.012
				c-0.031-0.002-0.068-0.039-0.072-0.067c-0.004-0.044-0.01-0.086-0.01-0.129c0-0.83,0.002-1.66-0.002-2.489
				c0-0.112,0.035-0.201,0.098-0.289c0.252-0.346,0.5-0.694,0.75-1.042c2.008-2.792,4.014-5.585,6.021-8.378
				c0.418-0.582,0.838-1.162,1.254-1.745c0.045-0.062,0.102-0.119,0.119-0.199c0.004-0.013-0.006-0.036-0.018-0.043
				c-0.021-0.012-0.049-0.021-0.072-0.022c-0.096-0.003-0.193-0.004-0.289-0.004c-2.244,0-4.488,0-6.73-0.001
				c-0.105,0-0.209-0.002-0.314-0.007c-0.07-0.003-0.105-0.044-0.111-0.118c-0.004-0.053-0.006-0.104-0.006-0.157
				c0-0.89,0-1.781,0-2.672c0-0.061,0.008-0.121,0.012-0.183c0.004-0.031,0.037-0.067,0.066-0.071
				c0.035-0.007,0.07-0.014,0.104-0.014c0.096-0.002,0.191-0.002,0.289-0.002C407.754,11.414,409.779,11.414,411.805,11.414z"/>
			<path fill-rule="evenodd" clip-rule="evenodd" fill="#CCCCC9" d="M434.031,14.88c0,2.496-0.002,4.992,0,7.488
				c0,0.49,0.004,0.978,0.012,1.467c0.008,0.331,0.025,0.662,0.045,0.993c0.012,0.192,0.041,0.382,0.086,0.569
				c0.037,0.146,0.096,0.281,0.168,0.41c0.105,0.191,0.264,0.322,0.463,0.407c0.258,0.109,0.525,0.117,0.797,0.08
				c0.051-0.007,0.104-0.017,0.154-0.019c0.016-0.001,0.037,0.012,0.043,0.023c0.023,0.047,0.043,0.096,0.059,0.146
				c0.08,0.276,0.156,0.553,0.236,0.83c0.143,0.494,0.287,0.987,0.426,1.483c0.072,0.245,0.07,0.237-0.16,0.315
				c-0.465,0.156-0.939,0.26-1.426,0.324c-0.348,0.047-0.697,0.062-1.045,0.071c-0.252,0.008-0.506-0.015-0.758-0.042
				c-0.426-0.047-0.842-0.147-1.242-0.303c-0.467-0.183-0.896-0.431-1.268-0.77c-0.375-0.341-0.662-0.741-0.85-1.211
				c-0.131-0.325-0.24-0.656-0.303-1.001c-0.041-0.224-0.07-0.447-0.09-0.674c-0.059-0.724-0.057-1.448-0.057-2.172
				c-0.002-4.713-0.002-9.427-0.002-14.14c0-0.419-0.018-0.837-0.027-1.257c-0.004-0.175-0.006-0.349-0.012-0.524
				c-0.008-0.296-0.008-0.593-0.043-0.888c-0.006-0.053-0.006-0.104-0.008-0.157c-0.014-0.41-0.055-0.818-0.094-1.227
				c-0.014-0.139-0.02-0.278-0.027-0.418c-0.002-0.041,0.031-0.084,0.076-0.095c0.17-0.042,0.338-0.083,0.508-0.122
				c0.971-0.219,1.941-0.438,2.91-0.655c0.332-0.075,0.664-0.152,0.996-0.227c0.049-0.011,0.102-0.009,0.154-0.009
				c0.014,0.001,0.031,0.017,0.039,0.029c0.014,0.022,0.021,0.048,0.025,0.072c0.031,0.216,0.068,0.432,0.09,0.647
				c0.027,0.27,0.045,0.54,0.062,0.81c0.055,0.907,0.061,1.814,0.061,2.723C434.029,10.201,434.031,12.541,434.031,14.88z"/>
			<path fill-rule="evenodd" clip-rule="evenodd" fill="#CCCCC9" d="M443.617,14.867c0,2.427-0.002,4.854,0,7.281
				c0,0.549,0.004,1.1,0.016,1.649c0.004,0.331,0.021,0.662,0.041,0.994c0.012,0.191,0.041,0.381,0.084,0.568
				c0.039,0.173,0.111,0.331,0.197,0.482c0.096,0.165,0.232,0.283,0.404,0.359c0.152,0.066,0.312,0.109,0.482,0.11
				c0.156,0.002,0.312,0,0.469-0.039c0.043-0.011,0.084,0.018,0.1,0.061c0.018,0.042,0.031,0.083,0.043,0.124
				c0.221,0.771,0.441,1.543,0.662,2.314c0.014,0.051,0.025,0.103,0.033,0.153c0.008,0.034-0.014,0.075-0.041,0.088
				c-0.041,0.018-0.08,0.036-0.123,0.05c-0.336,0.116-0.684,0.206-1.037,0.271c-0.359,0.066-0.723,0.1-1.09,0.124
				c-0.352,0.023-0.699,0.013-1.047-0.021c-0.729-0.072-1.42-0.28-2.047-0.667c-0.562-0.346-1.01-0.805-1.303-1.399
				c-0.176-0.353-0.301-0.726-0.383-1.11c-0.059-0.291-0.094-0.586-0.113-0.883c-0.045-0.68-0.047-1.36-0.047-2.041
				c0-4.679,0-9.358,0-14.037c0-0.585-0.006-1.169-0.037-1.755c-0.008-0.13-0.01-0.261-0.014-0.393
				c-0.008-0.471-0.051-0.94-0.088-1.41c-0.027-0.321-0.057-0.644-0.086-0.966c-0.002-0.025-0.004-0.052-0.004-0.078
				c-0.002-0.054,0.029-0.097,0.088-0.112c0.025-0.006,0.051-0.01,0.076-0.016c0.451-0.103,0.902-0.205,1.354-0.307
				c0.979-0.223,1.957-0.445,2.934-0.666c0.045-0.009,0.088-0.017,0.129-0.022c0.072-0.012,0.117,0.021,0.129,0.095
				c0.047,0.284,0.09,0.569,0.115,0.856c0.086,0.931,0.102,1.864,0.102,2.799C443.617,9.84,443.617,12.354,443.617,14.867z"/>
			<path fill-rule="evenodd" clip-rule="evenodd" fill="#CCCCC9" d="M425.611,20.038c0,2.873,0,5.744,0,8.616
				c0,0.097,0,0.192-0.006,0.289c-0.004,0.067-0.025,0.104-0.117,0.111c-0.043,0.004-0.088,0.004-0.131,0.004
				c-1.371,0-2.74,0.001-4.111,0c-0.053,0-0.104-0.008-0.156-0.013c-0.029-0.003-0.064-0.041-0.068-0.07
				c-0.004-0.025-0.008-0.053-0.01-0.078c0-0.078,0-0.156,0-0.235c0-5.518,0-11.034,0-16.552c0-0.097,0-0.191,0.004-0.288
				c0.002-0.057,0.039-0.104,0.092-0.113c0.109-0.019,0.223-0.038,0.334-0.056c0.285-0.046,0.57-0.088,0.854-0.132
				c0.414-0.064,0.828-0.129,1.242-0.195c0.49-0.077,0.982-0.157,1.473-0.234c0.137-0.023,0.275-0.046,0.414-0.065
				c0.043-0.006,0.086-0.003,0.129,0.001c0.014,0.001,0.031,0.018,0.037,0.032c0.01,0.022,0.018,0.05,0.018,0.074
				c0.002,0.097,0.004,0.192,0.004,0.289C425.611,14.295,425.611,17.167,425.611,20.038z"/>
			<path fill-rule="evenodd" clip-rule="evenodd" fill="#CCCCC9" d="M423.289,9.385c-1.156,0.02-2.363-0.78-2.697-2.128
				c-0.426-1.721,0.701-3.139,2.07-3.479c0.631-0.157,1.246-0.125,1.84,0.146c0.801,0.366,1.312,0.991,1.553,1.833
				c0.086,0.295,0.123,0.6,0.105,0.906c-0.076,1.48-1.148,2.461-2.285,2.67C423.686,9.368,423.494,9.384,423.289,9.385z"/>
		</g>
	</g>
	<g>
		<g>
			<path fill-rule="evenodd" clip-rule="evenodd" fill="#CCCCC9" d="M59.963,17.556c0-3.516,0-7.032,0.002-10.547
				c0-0.301,0.002-0.602,0.015-0.9c0.013-0.35,0.196-0.536,0.546-0.596c1.389-0.24,2.775-0.496,4.164-0.734
				c0.406-0.068,0.678,0.095,0.698,0.532c0.021,0.472,0.02,0.943,0.02,1.415c0.001,1.757-0.013,3.515,0.003,5.273
				c0.009,0.939,0.03,0.934,0.934,0.785c1.732-0.285,3.442-0.433,5.221-0.132c2.51,0.423,3.963,2.167,4.086,4.7
				c0.118,2.396,0.152,4.81-0.006,7.2c-0.213,3.216-1.806,4.903-5.05,5.62c-2.261,0.498-4.58,0.455-6.894,0.119
				c-0.84-0.121-1.689-0.235-2.54-0.32c-1.117-0.109-1.184-0.171-1.194-1.354c-0.012-1.457-0.002-2.915-0.004-4.373
				C59.963,22.016,59.963,19.785,59.963,17.556z M65.415,21.827c0,1.071,0.009,2.144-0.004,3.215
				c-0.008,0.523,0.186,0.809,0.744,0.794c0.686-0.017,1.378,0.04,2.059-0.026c1.102-0.107,1.781-0.855,1.798-1.953
				c0.022-1.673,0.022-3.346,0.001-5.017c-0.016-1.104-0.541-1.62-1.643-1.726c-0.748-0.074-1.439,0.17-2.139,0.36
				c-0.557,0.153-0.842,0.521-0.825,1.137C65.432,19.683,65.413,20.755,65.415,21.827z"/>
			<path fill-rule="evenodd" clip-rule="evenodd" fill="#CCCCC9" d="M117.057,19.669c1.097-1.729,2.195-3.459,3.291-5.189
				c0.229-0.361,0.459-0.723,0.678-1.091c0.291-0.489,0.707-0.699,1.28-0.69c1.331,0.019,2.659-0.014,3.987,0.014
				c0.893,0.017,1.014,0.23,0.553,0.977c-1.328,2.149-2.637,4.312-4.045,6.409c-0.566,0.847-0.543,1.475-0.013,2.321
				c1.387,2.212,2.679,4.484,4.001,6.737c0.527,0.901,0.438,1.058-0.643,1.075c-1.242,0.019-2.488-0.024-3.729,0.015
				c-0.748,0.023-1.171-0.315-1.526-0.936c-1.068-1.856-2.18-3.687-3.281-5.521c-0.171-0.286-0.311-0.608-0.756-0.853
				c0,0.705,0,1.332,0,1.958c0,1.415,0.018,2.83-0.009,4.246c-0.019,0.911-0.17,1.066-1.048,1.086
				c-1.242,0.028-2.488,0.027-3.73-0.001c-0.781-0.016-0.83-0.099-0.875-0.93c-0.012-0.213-0.002-0.429-0.002-0.644
				c0-7.161,0-14.322,0-21.484c0-0.258,0.004-0.515,0.007-0.772c0.005-0.492,0.214-0.805,0.729-0.895
				c1.346-0.237,2.687-0.502,4.033-0.73c0.516-0.087,0.824,0.181,0.872,0.699c0.031,0.341,0.022,0.685,0.022,1.027
				c0,3.946,0,7.891,0,11.837c0,0.425,0,0.851,0,1.275C116.922,19.63,116.99,19.65,117.057,19.669z"/>
			<path fill-rule="evenodd" clip-rule="evenodd" fill="#CCCCC9" d="M53.414,23.264c-1.2,0-2.399-0.015-3.601,0.007
				c-0.398,0.008-0.896-0.171-1.111,0.382c-0.19,0.494,0.027,1.312,0.471,1.638c0.455,0.334,0.965,0.534,1.551,0.543
				c2.012,0.03,4.02,0.021,6.002-0.402c1.048-0.223,1.178-0.104,1.194,1.007c0.015,0.857,0,1.715,0,2.571
				c0.001,0.551-0.233,0.847-0.806,0.961c-2.79,0.554-5.588,0.788-8.406,0.279c-3.882-0.701-5.222-2.858-5.641-6.197
				c-0.262-2.095-0.248-4.264,0.135-6.398c0.398-2.226,1.551-3.808,3.675-4.547c2.856-0.992,5.702-0.972,8.481,0.372
				c1.613,0.78,2.414,2.182,2.772,3.806c0.36,1.629,0.376,3.312,0.29,4.983c-0.041,0.796-0.203,0.967-1.021,0.985
				c-1.328,0.028-2.656,0.007-3.985,0.007C53.414,23.261,53.414,23.262,53.414,23.264z M50.639,19.391c0-0.003,0-0.007,0-0.011
				c0.512,0,1.023,0.006,1.535-0.003c0.35-0.004,0.522-0.186,0.58-0.542c0.191-1.163-0.621-2.111-1.913-2.207
				c-1.185-0.09-2.165,0.725-2.186,1.813c-0.017,0.783,0.081,0.903,0.833,0.946C49.872,19.409,50.256,19.391,50.639,19.391z"/>
			<path fill-rule="evenodd" clip-rule="evenodd" fill="#CCCCC9" d="M92.676,21.44c0,1.071,0.074,2.148-0.016,3.214
				c-0.16,1.883-0.971,3.462-2.574,4.523c-1.277,0.848-2.745,1.189-4.256,1.288c-1.196,0.078-2.393,0.024-3.571-0.261
				c-2.706-0.655-4.767-2.468-5.097-5.394c-0.275-2.444-0.32-4.864,0.086-7.28c0.326-1.956,1.492-3.438,3.262-4.197
				c2.955-1.272,6.006-1.273,8.959,0.104c2.109,0.984,3.037,2.808,3.2,5.046c0.071,0.98,0.013,1.972,0.013,2.957
				C92.68,21.44,92.678,21.44,92.676,21.44z M82.631,21.469c0,0.812-0.002,1.622,0,2.435c0,0.387,0.043,0.752,0.305,1.08
				c0.615,0.771,1.854,1.101,2.93,0.747c0.894-0.292,1.355-0.956,1.372-2.074c0.022-1.409,0.022-2.817,0.001-4.227
				c-0.025-1.879-1.971-2.975-3.619-2.046c-0.633,0.358-1.026,0.866-0.996,1.653C82.657,19.847,82.631,20.658,82.631,21.469z"/>
			<path fill-rule="evenodd" clip-rule="evenodd" fill="#CCCCC9" d="M94.194,21.154c0.092-1.05-0.137-2.376,0.172-3.696
				c0.588-2.523,2.205-4.028,4.627-4.641c2.277-0.576,4.566-0.526,6.819,0.271c1.733,0.616,2.889,1.803,3.534,3.479
				c0.273,0.71,0.5,1.487,0.516,2.238c0.045,2.221,0.266,4.455-0.231,6.655c-0.493,2.173-1.813,3.642-3.903,4.405
				c-2.244,0.817-4.537,0.801-6.818,0.231c-2.85-0.711-4.658-3.048-4.715-5.976C94.178,23.224,94.194,22.323,94.194,21.154z
				 M104.245,21.546c0,0,0.002,0,0.004,0c0-0.773,0-1.545,0-2.315c0-0.043,0-0.085-0.002-0.129
				c-0.039-0.978-0.516-1.624-1.407-1.902c-1.72-0.537-3.139,0.422-3.198,2.214c-0.047,1.369-0.004,2.742-0.014,4.113
				c-0.007,0.814,0.147,1.582,0.943,1.961c0.922,0.439,1.898,0.567,2.826-0.02c0.531-0.335,0.873-0.797,0.854-1.481
				C104.225,23.174,104.245,22.359,104.245,21.546z"/>
			<path fill-rule="evenodd" clip-rule="evenodd" fill="#CCCCC9" d="M26.533,23.601c0,1.887,0.014,3.774-0.007,5.661
				c-0.008,0.886-0.082,0.95-0.957,0.973c-0.943,0.022-1.887,0.007-2.831,0.003c-0.255-0.002-0.61,0.048-0.71-0.188
				c-0.381-0.887-0.973-0.452-1.495-0.27c-1.263,0.436-2.53,0.749-3.89,0.716c-3.487-0.084-5.352-2.895-4.953-6.109
				c0.059-0.465,0.154-0.932,0.301-1.375c0.498-1.518,1.732-2.182,3.148-2.551c0.867-0.227,1.764-0.336,2.672-0.289
				c0.599,0.032,1.205,0.052,1.799-0.009c0.498-0.05,1.184,0.338,1.435-0.44c0.183-0.568-0.322-1.709-0.831-2.033
				c-0.455-0.291-0.961-0.329-1.483-0.327c-1.372,0.007-2.745,0.01-4.116-0.001c-1.246-0.009-1.246-0.021-1.053-1.21
				c0.143-0.886,0.059-1.79,0.289-2.678c0.129-0.491,0.279-0.776,0.816-0.764c2.607,0.062,5.238-0.251,7.817,0.295
				c2.544,0.538,3.724,1.957,4.036,5.065c0.01,0.086,0.003,0.172,0.003,0.258c0,1.758,0,3.516,0,5.273
				C26.526,23.601,26.53,23.601,26.533,23.601z M19.372,24.051c0,0.007,0,0.013,0,0.021c-0.381,0-0.768-0.035-1.146,0.008
				c-0.578,0.066-0.91,0.413-0.957,1.007c-0.049,0.632,0.252,1.138,0.855,1.225c0.756,0.108,1.523,0.139,2.244-0.233
				c0.648-0.333,0.88-0.848,0.688-1.57c-0.158-0.597-0.651-0.417-1.045-0.452C19.797,24.035,19.584,24.051,19.372,24.051z"/>
			<path fill-rule="evenodd" clip-rule="evenodd" fill="#CCCCC9" d="M2.817,23.737c0-1.802,0.014-3.602-0.004-5.401
				c-0.01-0.909-0.055-0.93-0.943-0.974c-1.861-0.091-1.861-0.091-1.862-1.961c0-0.558-0.021-1.116,0.008-1.672
				c0.042-0.815,0.198-0.954,0.99-1.024c0.544-0.049,1.214,0.227,1.606-0.184c0.467-0.492,0.156-1.229,0.201-1.858
				c0.055-0.809-0.105-1.637,0.109-2.431c0.689-2.55,2.113-3.751,5-3.992c1.191-0.101,2.398-0.016,3.6-0.026
				c0.498-0.004,0.835,0.15,0.834,0.718c-0.002,1.07,0,2.143,0,3.215c0,0.469-0.227,0.715-0.703,0.719
				c-0.6,0.005-1.201-0.021-1.799,0.023c-1.002,0.078-1.465,0.55-1.576,1.526c-0.012,0.085-0.012,0.17-0.012,0.256
				c0.001,2.372-0.189,2.002,1.939,2.035c0.473,0.008,0.943,0.008,1.416,0.005c0.555-0.006,0.785,0.28,0.713,0.809
				c-0.148,1.057-0.328,2.108-0.463,3.165c-0.061,0.479-0.305,0.674-0.762,0.671c-0.471-0.003-0.943,0.002-1.414,0.004
				c-1.426,0.007-1.433,0.007-1.434,1.389c-0.002,3.258,0,6.514,0.002,9.771c0.004,1.854,0.077,1.716-1.771,1.718
				c-0.9,0-1.801,0.016-2.701-0.007c-0.881-0.022-0.957-0.087-0.966-0.965C2.804,27.423,2.819,25.58,2.817,23.737z"/>
			<path fill-rule="evenodd" clip-rule="evenodd" fill="#CCCCC9" d="M33.723,21.532c0,0.729-0.012,1.458,0.002,2.186
				c0.027,1.429,0.582,2.021,2.016,2.105c1.544,0.093,3.076-0.027,4.594-0.344c0.25-0.053,0.502-0.119,0.756-0.133
				c0.352-0.021,0.584,0.166,0.589,0.526c0.015,1.114,0.019,2.23,0.004,3.343c-0.005,0.383-0.223,0.642-0.613,0.719
				c-2.571,0.502-5.151,0.905-7.755,0.261c-2.721-0.675-4.619-2.499-5.049-5.622c-0.312-2.27-0.361-4.533,0.082-6.765
				c0.489-2.448,1.926-4.167,4.413-4.854c1.878-0.52,3.769-0.692,5.71-0.312c0.748,0.147,1.533,0.12,2.279,0.332
				c0.84,0.239,0.93,0.334,0.949,1.256c0.018,0.815,0.021,1.63-0.003,2.443c-0.026,0.9-0.2,1.028-1.112,0.86
				c-1.515-0.281-3.035-0.506-4.584-0.434c-0.432,0.021-0.843,0.074-1.248,0.247c-0.666,0.286-1.02,0.759-1.021,1.482
				c-0.003,0.901,0,1.802,0,2.702C33.728,21.532,33.725,21.532,33.723,21.532z"/>
		</g>
	</g>
	<g>
		<path fill-rule="evenodd" clip-rule="evenodd" fill="#CCCCC9" d="M206.306,18.981c0,5.044,0,10.088,0,15.134
			c0,2.371-1.496,3.867-3.869,3.867c-7.598,0.001-15.195,0.001-22.791,0c-2.443-0.003-4.008-1.545-4.01-3.971
			c-0.005-9.988-0.005-19.976,0-29.964c0-2.062,0.999-3.476,2.755-3.953c0.319-0.088,0.64-0.092,0.964-0.094
			c7.779-0.001,15.559-0.002,23.338,0.002c2.086,0,3.609,1.522,3.61,3.602c0.005,5.126,0.001,10.252,0.001,15.377
			C206.306,18.981,206.306,18.981,206.306,18.981z M176.994,18.985c0,4.923,0.037,9.849-0.021,14.771
			c-0.018,1.552,1.117,2.909,2.854,2.895c7.456-0.062,14.913-0.024,22.37-0.027c1.787,0,2.827-1.034,2.828-2.827
			c0.002-9.889,0.002-19.776-0.002-29.666c0-0.26-0.014-0.528-0.074-0.781c-0.332-1.362-1.289-2.065-2.834-2.066
			c-7.375-0.004-14.752-0.003-22.127-0.003c-1.979,0-2.992,1.012-2.993,2.994C176.994,9.179,176.995,14.082,176.994,18.985z"/>
		<path fill-rule="evenodd" clip-rule="evenodd" fill="#CCCCC9" d="M213.574,18.701c0-3.424-0.002-6.848,0.001-10.271
			c0.001-0.813,0.038-0.849,0.864-0.853c0.588-0.004,1.176-0.004,1.764,0c0.781,0.005,0.803,0.025,0.803,0.833
			c0.003,1.904-0.002,3.809,0.003,5.714c0.002,0.733,0.006,0.722,0.696,0.51c1.787-0.548,3.592-1.026,5.487-0.777
			c2.083,0.274,3.365,1.642,3.394,3.769c0.052,3.87,0.014,7.74,0.027,11.609c0.001,0.467-0.213,0.597-0.629,0.59
			c-0.689-0.013-1.379-0.026-2.066,0.006c-0.557,0.023-0.75-0.198-0.744-0.747c0.02-1.985,0.008-3.971,0.006-5.956
			c0-1.661,0.004-3.322,0-4.984c-0.002-1.09-0.361-1.438-1.47-1.439c-1.482-0.004-2.878,0.398-4.263,0.875
			c-0.472,0.163-0.438,0.526-0.438,0.889c-0.003,2.674-0.002,5.349-0.002,8.021c0,0.853,0.002,1.703-0.001,2.554
			c-0.003,0.741-0.038,0.774-0.802,0.78c-0.566,0.002-1.134,0.002-1.701,0c-0.904-0.003-0.929-0.024-0.93-0.912
			C213.572,25.506,213.572,22.104,213.574,18.701z"/>
		<path fill-rule="evenodd" clip-rule="evenodd" fill="#CCCCC9" d="M276.223,14.006c0,1.804-0.008,3.606,0.01,5.408
			c0.004,0.288-0.205,0.752,0.238,0.831c0.471,0.083,1.016,0.241,1.439-0.191c0.625-0.64,1.164-1.348,1.678-2.077
			c0.713-1.015,1.307-2.098,1.811-3.227c0.176-0.392,0.408-0.545,0.836-0.531c0.85,0.026,1.701,0.004,2.551,0.01
			c0.658,0.005,0.711,0.079,0.412,0.644c-1.07,2.011-2.322,3.9-3.91,5.542c-0.43,0.444-0.43,0.734-0.062,1.216
			c1.779,2.32,3.273,4.822,4.58,7.438c0.336,0.671,0.291,0.748-0.461,0.752c-0.871,0.007-1.742-0.014-2.613,0.008
			c-0.453,0.012-0.688-0.171-0.854-0.594c-0.895-2.275-2.031-4.413-3.676-6.249c-0.258-0.287-1.518-0.469-1.818-0.257
			c-0.223,0.156-0.154,0.402-0.156,0.615c-0.006,1.903-0.021,3.809,0.008,5.712c0.008,0.578-0.172,0.809-0.762,0.775
			c-0.666-0.036-1.338-0.032-2.004,0c-0.539,0.023-0.697-0.198-0.695-0.717c0.016-3.16,0.008-6.319,0.008-9.479
			c0-3.747,0-7.494,0.002-11.242c0-0.794,0.02-0.811,0.82-0.814c0.609-0.003,1.217,0.028,1.822-0.009
			c0.596-0.038,0.822,0.155,0.811,0.786C276.199,10.238,276.223,12.122,276.223,14.006z"/>
		<path fill-rule="evenodd" clip-rule="evenodd" fill="#CCCCC9" d="M238.074,22.562c-1.498,0-2.998,0.016-4.498-0.008
			c-0.502-0.009-0.688,0.161-0.664,0.668c0.033,0.712,0.115,1.414,0.303,2.1c0.352,1.302,1.033,1.849,2.389,1.926
			c1.877,0.106,3.66-0.335,5.416-0.927c1.023-0.345,1.023-0.347,1.244,0.702c0.35,1.646,0.348,1.643-1.262,2.21
			c-2.029,0.713-4.094,1.148-6.258,0.889c-3.246-0.39-4.736-1.798-5.11-5.067c-0.367-3.219-0.219-6.429,0.494-9.604
			c0.11-0.494,0.344-0.767,0.838-0.902c2.51-0.682,5.057-0.963,7.637-0.634c2.607,0.332,4.062,2.032,4.406,4.952
			c0.123,1.049,0.111,2.101,0.131,3.152c0.008,0.43-0.148,0.558-0.568,0.551C241.074,22.55,239.574,22.562,238.074,22.562z
			 M236.311,20.187c0.951,0,1.902,0.001,2.854-0.001c0.223-0.002,0.439,0.008,0.533-0.281c0.467-1.444-0.609-3.087-2.137-3.183
			c-1.252-0.079-2.508-0.015-3.756,0.132c-0.426,0.05-0.654,0.264-0.705,0.69c-0.082,0.683-0.18,1.362-0.197,2.053
			c-0.014,0.461,0.182,0.604,0.613,0.595C234.447,20.176,235.379,20.187,236.311,20.187z"/>
		<path fill-rule="evenodd" clip-rule="evenodd" fill="#CCCCC9" d="M269.898,21.889c0.064,1.41-0.1,2.811-0.602,4.159
			c-0.799,2.152-2.338,3.461-4.572,3.921c-2.049,0.42-4.068,0.326-6.01-0.534c-1.098-0.488-1.959-1.274-2.422-2.366
			c-1.35-3.183-1.369-6.424-0.102-9.628c0.787-1.986,2.408-3.028,4.459-3.455c1.266-0.263,2.537-0.259,3.805-0.063
			c3.08,0.474,4.887,2.354,5.311,5.465C269.877,20.212,269.928,21.037,269.898,21.889z M266.58,21.884
			c0-0.974-0.064-1.938-0.307-2.888c-0.342-1.332-1.197-2.049-2.547-2.251c-2.625-0.393-4.293,0.601-4.807,2.986
			c-0.377,1.741-0.35,3.506,0.074,5.238c0.291,1.194,1.027,1.988,2.312,2.195c0.707,0.111,1.414,0.148,2.115,0.049
			c1.287-0.181,2.184-0.892,2.668-2.11C266.502,24.068,266.582,22.982,266.58,21.884z"/>
		<path fill-rule="evenodd" clip-rule="evenodd" fill="#CCCCC9" d="M301.365,21.07c0,1.986-0.018,3.971,0.012,5.956
			c0.008,0.548-0.189,0.84-0.672,1.075c-2.375,1.161-4.848,1.941-7.502,2.082c-0.875,0.048-1.742,0.017-2.582-0.264
			c-1.43-0.474-2.125-1.555-2.381-2.962c-0.09-0.495-0.115-1.006-0.117-1.511c-0.008-3.465-0.006-6.93-0.004-10.394
			c0.002-0.799,0.029-0.821,0.816-0.827c0.668-0.004,1.338,0.025,2.004-0.022c0.504-0.036,0.613,0.161,0.611,0.624
			c-0.014,3.587-0.008,7.173-0.008,10.758c0,1.338,0.375,1.712,1.701,1.667c1.367-0.048,2.686-0.344,3.979-0.788
			c0.482-0.165,0.635-0.462,0.633-0.959c-0.016-3.443-0.008-6.888-0.008-10.333c0-0.944,0.002-0.944,0.939-0.946
			c0.627-0.001,1.256,0.025,1.883-0.007c0.537-0.029,0.707,0.194,0.703,0.711C301.354,16.977,301.365,19.024,301.365,21.07z"/>
		<path fill-rule="evenodd" clip-rule="evenodd" fill="#CCCCC9" d="M245.922,22.893c0-2.005,0.012-4.008-0.01-6.014
			c-0.004-0.487,0.152-0.773,0.604-0.992c2.16-1.044,4.445-1.605,6.824-1.839c0.344-0.034,0.488,0.111,0.488,0.441
			c0,0.628-0.01,1.255,0.006,1.882c0.01,0.42-0.189,0.56-0.586,0.59c-0.99,0.073-1.965,0.239-2.932,0.473
			c-0.662,0.16-0.9,0.474-0.895,1.174c0.037,3.442,0.018,6.886,0.018,10.328c0,0.852-0.033,0.884-0.891,0.887
			c-0.607,0.002-1.215,0.005-1.822,0c-0.744-0.009-0.801-0.059-0.803-0.794C245.918,26.983,245.922,24.939,245.922,22.893z"/>
		<path fill-rule="evenodd" clip-rule="evenodd" fill="#CCCCC9" d="M199.023,24.598c0,2.492-0.012,4.983,0.008,7.476
			c0.004,0.521-0.156,0.727-0.695,0.705c-0.871-0.034-1.742-0.008-2.613-0.009c-0.886-0.003-0.887-0.004-0.887-0.871
			c-0.001-3.585,0-7.17,0-10.756c0-1.135-0.02-2.27,0.005-3.402c0.013-0.613-0.291-0.944-0.827-1.117
			c-0.691-0.224-1.401-0.187-2.107-0.098c-2.898,0.365-5.617,1.366-8.338,2.363c-0.756,0.277-0.787,0.271-0.787-0.521
			c-0.004-4.193,0.002-8.387-0.021-12.58c-0.003-0.53,0.187-0.661,0.667-0.652c0.991,0.021,1.985,0.021,2.978-0.012
			c0.537-0.018,0.695,0.192,0.689,0.713c-0.02,2.472-0.01,4.943-0.008,7.414c0.001,0.799,0.004,0.793,0.787,0.546
			c2.057-0.651,4.146-1.109,6.324-1.015c1.027,0.045,2.017,0.261,2.898,0.802c1.334,0.817,1.871,2.108,1.896,3.6
			c0.043,2.471,0.012,4.942,0.012,7.414C199.009,24.598,199.016,24.598,199.023,24.598z"/>
		<path fill-rule="evenodd" clip-rule="evenodd" fill="#CCCCC9" d="M195.123,10.639c-0.607,0-1.215-0.004-1.822,0.002
			c-0.346,0.002-0.536-0.066-0.266-0.438c1.063-1.463,1.91-3.051,2.662-4.69c0.131-0.288,0.346-0.368,0.631-0.368
			c1.234,0.003,2.47,0.008,3.705-0.001c0.484-0.004,0.554,0.188,0.359,0.599c-0.773,1.635-1.714,3.165-2.826,4.592
			c-0.184,0.235-0.4,0.312-0.682,0.308C196.296,10.633,195.708,10.638,195.123,10.639z"/>
		<path fill-rule="evenodd" clip-rule="evenodd" fill="#CCCCC9" d="M182.824,28.402c0-1.252,0-2.505,0-3.759
			c0-0.135-0.068-0.311,0.094-0.378c0.162-0.066,0.246,0.106,0.342,0.199c1.193,1.179,2.377,2.365,3.576,3.539
			c0.287,0.281,0.318,0.489,0.007,0.796c-1.2,1.171-2.374,2.369-3.564,3.553c-0.103,0.101-0.193,0.312-0.386,0.204
			c-0.136-0.078-0.082-0.259-0.082-0.395c-0.004-1.254-0.002-2.507-0.002-3.76C182.812,28.402,182.818,28.402,182.824,28.402z"/>
	</g>
</g>
<g>
	<g>
		<g>
			<path fill="#CCCCC9" d="M62.964,110.889c0,0-4.505-9.928-4.505-20.877c0-10.951,4.861-15.914,6.909-17.705
				c2.046-1.793,6.703-4.607,11.001-4.607c4.297,0,6.805,2.814,6.805,2.814l1.33-1.789c0,0-7.165-7.012-16.271-7.012
				c-9.109,0-17.295,6.756-21.134,13.561c-3.837,6.807-10.284,19.496-10.284,32.953l0.153,2.662H62.964z"/>
			<polygon fill="#CCCCC9" points="67.107,106.334 61.965,106.028 60.968,102.522 65.264,102.522 			"/>
			<polygon fill="#CCCCC9" points="59.816,90.446 59.612,93.848 63.679,95.665 63.551,92.442 			"/>
			<polygon fill="#CCCCC9" points="61.148,81.542 59.894,84.102 63.193,86.94 64.012,83.743 			"/>
			<polygon fill="#CCCCC9" points="63.014,75.35 65.061,73.534 67.083,76.401 65.906,78.497 			"/>
			<polygon fill="#CCCCC9" points="69.053,70.491 71.816,69.772 72.199,71.334 70.333,72.844 			"/>
			<polygon fill="#CCCCC9" points="77.495,69.211 77.495,70.668 80.105,71.026 80.105,69.799 			"/>
			<polygon fill="#CCCCC9" points="80.693,64.938 81.332,64.067 78.084,61.662 77.982,63.504 			"/>
			<polygon fill="#CCCCC9" points="64.497,58.695 65.086,61.458 69.078,61.458 68.693,58.823 			"/>
			<polygon fill="#CCCCC9" points="56.285,60.205 58.69,62.842 55.416,64.733 53.114,61.894 			"/>
			<polygon fill="#CCCCC9" points="45.36,68.569 48.841,70.874 46.18,73.995 42.648,71.641 			"/>
			<polygon fill="#CCCCC9" points="36.714,81.491 41.242,83.256 39.808,87.069 35.205,85.61 			"/>
			<polygon fill="#CCCCC9" points="36.917,98.147 36.048,103.211 31.239,102.7 31.826,97.788 			"/>
			<path fill="#CCCCC9" d="M40.814,121.743c2.016-0.25,2.762-2.381,2.762-3.973s-0.787-2.725-2.149-3.262
				c-1.362-0.537-3.933-0.441-3.933-0.441h-3.281v11.57h2.974v-2.992l2.649,2.629h4.547L40.814,121.743z M39.874,119.227h-2.571
				v-2.014h2.571V119.227z"/>
			<g>
				<path fill="#CCCCC9" d="M55.185,116.735c0-0.787-0.634-2.629-3.262-2.629s-0.018,0-2.609,0c-2.59,0-3.127,1.861-3.127,2.857
					c0,0.998,0,8.328,0,8.328h3.031v-1.938h2.937v1.938h3.031C55.185,125.292,55.185,117.52,55.185,116.735z M52.077,120.129h-2.821
					v-3.107h2.821V120.129z"/>
			</g>
			<rect x="58.198" y="114.124" fill="#CCCCC9" width="3.128" height="11.016"/>
			<polygon fill="#CCCCC9" points="67.677,122.012 67.677,114.124 64.55,114.124 64.55,122.012 64.55,125.139 67.677,125.139 
				72.091,125.139 72.091,122.012 			"/>
			<path fill="#CCCCC9" d="M79.689,118.252c-0.286,0-1.28,0-2.419,0l-0.21-0.021v-1.057h5.026v-3.068c-1.927,0-4.253-0.004-4.699,0
				c-2.42,0.018-3.705,1.322-3.705,2.844c0,0.328,0,0.643,0,1.172c0,2.834,3.014,3.197,4.013,3.197c0.247,0,0.804,0,1.504,0
				l0.049,0.023c0,0,0.537,0.016,0.537,0.701c0,0.684-0.537,0.662-0.537,0.662h-5.412v2.686c1.929,0,4.638,0,5.084,0
				c2.314,0,3.705-1.246,3.705-2.77c0-0.326,0-0.639,0-1.17C82.625,118.618,80.687,118.252,79.689,118.252z"/>
		</g>
	</g>
	<g>
		<path fill-rule="evenodd" clip-rule="evenodd" fill="#CCCCC9" d="M148.72,93.829c0-1.045,0.018-2.09-0.004-3.135
			c-0.029-1.357,0.902-2.373,1.869-2.711c1.258-0.439,2.615-0.025,3.347,1.004c0.324,0.459,0.534,0.973,0.53,1.562
			c-0.013,1.875-0.012,3.748,0,5.621c0.006,0.824,0.195,1.594,0.83,2.186c0.836,0.775,1.812,1.043,2.891,0.65
			c1.189-0.434,1.82-1.348,1.846-2.6c0.039-1.91,0.016-3.824,0.012-5.734c-0.004-1.348,1.011-2.541,2.238-2.785
			c2.047-0.41,3.587,1.059,3.578,2.893c-0.008,1.873,0.025,3.748-0.012,5.621c-0.021,1.055,0.816,2.293,1.826,2.619
			c1.202,0.389,2.359,0.041,3.14-0.941c0.396-0.498,0.55-1.049,0.549-1.664c-0.003-1.836-0.013-3.672,0.003-5.508
			c0.008-0.881,0.273-1.68,0.949-2.295c0.883-0.807,1.916-1.021,3.012-0.604c1.177,0.449,1.83,1.363,1.846,2.645
			c0.023,2.051,0.041,4.104-0.004,6.154c-0.043,2.025-0.814,3.799-2.16,5.297c-0.82,0.916-1.797,1.658-2.931,2.156
			c-0.724,0.316-1.483,0.521-2.27,0.635c-1.364,0.197-2.692,0.057-3.988-0.389c-0.886-0.303-1.699-0.74-2.427-1.338
			c-0.452-0.371-0.514-0.355-0.975,0.016c-1.652,1.328-3.557,1.9-5.654,1.783c-2.41-0.131-4.418-1.168-5.986-2.975
			c-1.332-1.537-2.076-3.338-2.058-5.412C148.726,95.665,148.719,94.747,148.72,93.829L148.72,93.829z"/>
		<path fill-rule="evenodd" clip-rule="evenodd" fill="#CCCCC9" d="M140.311,92.813c-1.44,0-2.882,0-4.321,0.002
			c-0.478,0.002-0.498,0.021-0.5,0.496c-0.002,0.855,0.03,1.709-0.009,2.562c-0.067,1.479,1.394,2.939,2.923,2.92
			c2.04-0.031,4.08-0.018,6.119-0.006c1.238,0.008,2.146,0.605,2.701,1.686c0.541,1.053,0.505,2.111-0.178,3.111
			c-0.637,0.93-1.523,1.395-2.651,1.395c-2.04,0-4.079,0.033-6.118-0.01c-1.383-0.031-2.709-0.32-3.965-0.977
			c-1.246-0.652-2.27-1.537-3.134-2.611c-1.009-1.254-1.604-2.699-1.812-4.301c-0.062-0.484-0.074-0.965-0.074-1.449
			c0.001-4.016-0.023-8.031,0.01-12.047c0.018-1.908,1.333-2.992,3.093-3.062c1.495-0.059,2.749,1.102,3.01,2.486
			c0.161,0.863,0.062,1.73,0.078,2.594c0.024,1.145-0.11,1.012,1.034,1.014c2.626,0.004,5.252,0.014,7.878-0.004
			c1.468-0.008,2.786,1.051,3.093,2.367c0.329,1.412-0.363,2.906-1.674,3.559c-0.391,0.193-0.816,0.279-1.258,0.279
			c-1.416-0.004-2.83,0-4.245,0C140.311,92.815,140.311,92.815,140.311,92.813z"/>
		<path fill-rule="evenodd" clip-rule="evenodd" fill="#CCCCC9" d="M230.566,98.092c-1.529,0-3.06,0-4.59,0
			c-0.558,0-0.654,0.166-0.385,0.664c0.318,0.592,0.912,0.814,1.486,0.994c1.312,0.408,2.652,0.5,3.987,0.084
			c0.595-0.186,1.166-0.443,1.724-0.721c0.693-0.348,1.404-0.557,2.201-0.424c1.662,0.271,2.162,1.986,1.252,3.326
			c-1.07,1.58-2.688,2.225-4.445,2.631c-1.399,0.324-2.828,0.418-4.252,0.316c-1.604-0.113-3.114-0.561-4.484-1.473
			c-0.86-0.572-1.614-1.236-2.248-2.041c-0.895-1.133-1.424-2.426-1.637-3.855c-0.221-1.49-0.108-2.955,0.408-4.363
			c0.615-1.68,1.626-3.062,3.213-3.977c1.471-0.848,3.059-1.221,4.741-1.262c1.239-0.031,2.472,0.012,3.681,0.309
			c1.299,0.32,2.477,0.85,3.555,1.682c1.262,0.975,2.098,2.203,2.592,3.68c0.363,1.082,0.5,2.189,0.01,3.281
			c-0.148,0.33-0.365,0.604-0.717,0.762c-0.564,0.254-1.145,0.4-1.771,0.391C233.445,98.081,232.006,98.092,230.566,98.092z
			 M228.49,94.19c0.865,0,1.732,0.004,2.598-0.004c0.36-0.002,0.444-0.125,0.305-0.453c-0.151-0.357-0.368-0.664-0.731-0.85
			c-1.119-0.568-2.285-0.672-3.487-0.342c-0.663,0.182-1.277,0.457-1.564,1.154c-0.157,0.385-0.089,0.49,0.319,0.492
			C226.783,94.194,227.635,94.19,228.49,94.19z"/>
		<path fill-rule="evenodd" clip-rule="evenodd" fill="#CCCCC9" d="M212.562,89.295c0.866-0.002,1.733-0.008,2.6,0
			c1.988,0.016,3.586,2.289,2.689,4.254c-0.609,1.34-1.666,1.934-3.092,1.943c-1.555,0.01-3.109,0-4.664,0
			c-0.457,0-0.512,0.049-0.482,0.508c0.021,0.328,0.063,0.658,0.122,0.982c0.219,1.219,1.28,1.758,2.386,1.795
			c0.954,0.029,1.91,0.004,2.867,0.008c2.049,0.006,3.553,1.922,3.012,3.896c-0.348,1.268-1.561,2.279-2.918,2.293
			c-1.083,0.014-2.169,0.051-3.249-0.006c-2.335-0.123-4.396-0.896-6.01-2.676c-0.71-0.781-1.13-1.701-1.485-2.68
			c-0.652-1.787-0.912-3.652-1.142-5.521c-0.106-0.869-0.101-1.75-0.17-2.625c-0.14-1.756-0.083-3.516-0.058-5.271
			c0.015-1.088,0.029-2.189,0.204-3.27c0.184-1.133,1.269-2.148,2.396-2.344c1.653-0.293,2.955,0.545,3.527,1.998
			c0.17,0.43,0.197,0.895,0.201,1.352c0.013,1.605,0.004,3.211,0.008,4.818c0,0.51,0.033,0.543,0.543,0.543
			C210.751,89.297,211.657,89.295,212.562,89.295z"/>
		<path fill-rule="evenodd" clip-rule="evenodd" fill="#CCCCC9" d="M193.086,86.071c0,0.893-0.001,1.785,0,2.676
			c0.001,0.543,0.007,0.547,0.564,0.549c1.759,0,3.519-0.006,5.277,0.002c1.542,0.004,2.919,1.357,2.974,2.895
			c0.057,1.611-1.045,2.881-2.291,3.172c-0.381,0.088-0.777,0.131-1.174,0.129c-1.491,0-2.982,0-4.475,0.002
			c-0.476,0-0.486,0.02-0.498,0.498c-0.014,0.57,0.074,1.127,0.352,1.623c0.455,0.816,1.225,1.127,2.104,1.16
			c0.954,0.037,1.912,0.031,2.868,0.004c1.27-0.037,2.162,0.631,2.77,1.613c0.584,0.945,0.459,2.637-0.449,3.541
			c-0.776,0.775-1.639,1.057-2.672,1.047c-0.867-0.01-1.734,0.02-2.601-0.006c-2.401-0.07-4.521-0.84-6.178-2.639
			c-0.907-0.984-1.37-2.213-1.742-3.48c-0.509-1.732-0.771-3.504-0.934-5.293c-0.089-0.986-0.196-1.975-0.165-2.969
			c0.02-0.627-0.086-1.246-0.074-1.869c0.03-1.666,0.1-3.332,0.148-4.998c0.029-1.021,0.395-1.896,1.198-2.535
			c0.854-0.682,1.85-0.859,2.88-0.518c1.072,0.357,1.771,1.119,2.059,2.229c0.043,0.17,0.055,0.352,0.056,0.529
			C193.09,84.311,193.087,85.19,193.086,86.071z"/>
		<path fill-rule="evenodd" clip-rule="evenodd" fill="#CCCCC9" d="M238.672,99.112c0-0.945,0-1.889,0-2.832
			c0-2.008,0.672-3.779,1.973-5.289c1.43-1.656,3.229-2.693,5.426-2.98c0.139-0.02,0.279-0.018,0.42-0.018
			c1.619-0.002,3.238,0.018,4.855-0.006c1.178-0.016,1.986,0.535,2.527,1.535c0.523,0.967,0.42,1.91-0.131,2.83
			c-0.539,0.9-1.342,1.312-2.381,1.307c-1.275-0.008-2.551-0.016-3.824,0.004c-0.746,0.01-1.461,0.131-2.074,0.631
			c-0.689,0.559-1.043,1.27-1.049,2.145c-0.012,1.848,0.004,3.695-0.01,5.545c-0.004,0.801-0.252,1.52-0.828,2.109
			c-1.102,1.131-2.686,1.133-3.838,0.217c-0.709-0.562-1.078-1.299-1.068-2.217C238.678,101.1,238.672,100.104,238.672,99.112z"/>
		<path fill-rule="evenodd" clip-rule="evenodd" fill="#CCCCC9" d="M185.054,96.913c0,1.658-0.004,3.314,0.002,4.973
			c0.002,1.074-0.454,1.857-1.322,2.518c-1.906,1.449-4.646-0.041-4.816-2.168c-0.025-0.318-0.059-0.633-0.059-0.951
			c0-2.971-0.004-5.939,0.004-8.91c0.002-0.369,0.03-0.742,0.104-1.102c0.265-1.305,1.459-2.328,2.898-2.42
			c1.127-0.072,2.491,0.672,2.961,1.902c0.154,0.4,0.232,0.799,0.231,1.225C185.05,93.625,185.054,95.27,185.054,96.913z"/>
		<path fill-rule="evenodd" clip-rule="evenodd" fill="#CCCCC9" d="M185.055,83.555c0.107,1.664-1.44,3.125-2.993,3.141
			c-1.723,0.014-3.182-1.346-3.175-3.051c0.007-1.781,1.325-3.107,3.071-3.143C183.671,80.469,185.044,81.842,185.055,83.555z"/>
	</g>
	<g>
		<path fill-rule="evenodd" clip-rule="evenodd" fill="#CCCCC9" d="M320.878,76.834c1.083,1.312,1.896,2.756,2.124,4.471
			c0.24,1.814-0.036,3.531-0.981,5.201c-0.821-1.078-1.874-1.605-3.136-1.729c-0.357-0.033-0.863,0.084-1.035-0.107
			c-0.2-0.221-0.074-0.713-0.152-1.074c-0.178-0.836-0.309-1.695-0.614-2.484c-0.296-0.766-0.784-1.459-1.22-2.24
			c1.102-0.98,2.396-1.656,3.932-1.854c0.232-0.029,0.457-0.119,0.686-0.184C320.613,76.834,320.746,76.834,320.878,76.834z"/>
		<path fill-rule="evenodd" clip-rule="evenodd" fill="#CCCCC9" d="M385.086,105.174c-0.125,0.057-0.173,0.062-0.2,0.092
			c-3.155,3.256-8.157,2.371-9.974-1.762c-1.322-3.01-0.537-6.617,1.86-8.549c2.007-1.615,5.244-1.742,7.149-0.268
			c0.409,0.318,0.79,0.672,1.227,1.045c0-0.199,0-0.428,0-0.658c0-2.248-0.01-4.498,0.004-6.748
			c0.008-1.283,1.053-1.986,2.078-1.418c0.541,0.301,0.711,0.795,0.709,1.391c-0.006,3.506-0.003,7.012-0.003,10.52
			c0,2.227,0.001,4.455-0.001,6.682c-0.001,1.016-0.488,1.605-1.329,1.625c-0.862,0.02-1.386-0.527-1.46-1.523
			C385.137,105.475,385.112,105.35,385.086,105.174z M385.146,100.452c0-0.133,0.002-0.266,0-0.396
			c-0.041-2-1.541-3.732-3.412-3.943c-2.168-0.244-3.953,0.898-4.471,2.941c-0.16,0.627-0.197,1.309-0.166,1.959
			c0.123,2.596,2.55,4.359,5.055,3.713C384.066,104.233,385.148,102.686,385.146,100.452z"/>
		<path fill-rule="evenodd" clip-rule="evenodd" fill="#CCCCC9" d="M423.15,98.934c0.34-0.223,0.543-0.338,0.727-0.479
			c1.729-1.332,3.455-2.67,5.182-4.006c0.139-0.107,0.277-0.217,0.422-0.318c0.66-0.467,1.396-0.412,1.834,0.131
			c0.482,0.604,0.402,1.221-0.281,1.785c-0.834,0.688-1.693,1.344-2.539,2.014c-0.549,0.436-1.094,0.873-1.709,1.365
			c0.705,0.822,1.359,1.588,2.02,2.35c0.926,1.066,1.859,2.123,2.779,3.195c0.408,0.475,0.539,1.006,0.197,1.578
			c-0.301,0.51-0.801,0.67-1.312,0.514c-0.352-0.105-0.688-0.385-0.941-0.668c-1.398-1.559-2.77-3.143-4.145-4.725
			c-0.625-0.717-0.588-0.676-1.354-0.168c-0.68,0.453-0.973,0.984-0.895,1.807c0.072,0.768,0.027,1.543,0.012,2.316
			c-0.021,0.93-0.578,1.514-1.4,1.498c-0.818-0.014-1.285-0.531-1.287-1.504c-0.006-5.779-0.006-11.561,0-17.34
			c0.002-0.945,0.57-1.596,1.328-1.578c0.801,0.02,1.357,0.676,1.359,1.652c0.008,3.221,0.004,6.441,0.004,9.662
			C423.15,98.27,423.15,98.522,423.15,98.934z"/>
		<path fill-rule="evenodd" clip-rule="evenodd" fill="#CCCCC9" d="M398.605,101.266c-1.456,0.002-2.912,0.012-4.367-0.004
			c-0.518-0.006-0.639,0.168-0.518,0.682c0.418,1.773,1.886,2.959,3.689,3.033c1.59,0.064,2.934-0.438,4.105-1.488
			c0.571-0.514,1.186-0.508,1.639-0.029c0.414,0.434,0.398,1.098-0.115,1.594c-2.09,2.02-4.592,2.688-7.367,1.926
			c-2.696-0.742-4.344-2.648-4.775-5.371c-0.768-4.842,3.012-7.932,6.516-7.955c3.531-0.025,6.23,2.59,6.562,5.734
			c0.021,0.197,0.085,0.389,0.104,0.586c0.081,0.852-0.307,1.285-1.172,1.291C401.473,101.272,400.039,101.266,398.605,101.266z
			 M393.766,99.305c0.133,0.043,0.193,0.08,0.254,0.08c2.268,0.006,4.536,0.006,6.805,0.014c0.443,0,0.506-0.215,0.406-0.598
			c-0.791-3.004-4.145-3.525-6.02-2.152C394.331,97.293,393.803,98.174,393.766,99.305z"/>
		<path fill-rule="evenodd" clip-rule="evenodd" fill="#CCCCC9" d="M351.208,101.266c-1.435,0-2.868,0.018-4.302-0.008
			c-0.527-0.01-0.638,0.176-0.549,0.67c0.291,1.598,1.857,2.941,3.479,3.045c1.685,0.107,3.116-0.406,4.367-1.514
			c0.544-0.48,1.161-0.471,1.579-0.02c0.402,0.438,0.372,1.102-0.104,1.613c-1.129,1.213-2.57,1.834-4.164,2.133
			c-3.206,0.6-6.405-1.17-7.599-4.186c-1.584-3.996,0.734-8.451,4.958-9.217c4.626-0.838,7.685,2.512,7.815,6.338
			c0.026,0.791-0.324,1.135-1.113,1.141C354.121,101.272,352.664,101.266,351.208,101.266z M353.903,99.399
			c-0.017-0.287,0.005-0.469-0.04-0.631c-0.375-1.371-1.631-2.953-4.023-2.814c-1.627,0.094-3.064,1.254-3.418,2.889
			c-0.111,0.508,0.15,0.559,0.534,0.559c1.673-0.004,3.347-0.002,5.021-0.002C352.589,99.399,353.201,99.399,353.903,99.399z"/>
		<path fill-rule="evenodd" clip-rule="evenodd" fill="#CCCCC9" d="M359.393,102.532c0.064-1.385-0.015-2.793,0.221-4.148
			c0.506-2.922,3.252-4.939,6.313-4.805c2.958,0.129,5.493,2.404,5.714,5.342c0.171,2.281,0.125,4.578,0.129,6.869
			c0.002,0.9-0.652,1.547-1.408,1.535c-0.828-0.012-1.367-0.641-1.369-1.613c-0.004-1.896,0.012-3.793-0.01-5.689
			c-0.006-0.502-0.061-1.018-0.19-1.5c-0.463-1.721-1.849-2.598-3.735-2.414c-1.502,0.148-2.707,1.48-2.801,3.123
			c-0.045,0.814-0.068,1.629-0.077,2.445c-0.013,1.299,0.003,2.602-0.006,3.902c-0.007,1.09-0.534,1.752-1.372,1.756
			c-0.833,0.004-1.345-0.662-1.347-1.758c-0.001-1.016-0.001-2.029-0.001-3.043C359.434,102.532,359.414,102.532,359.393,102.532z"
			/>
		<path fill-rule="evenodd" clip-rule="evenodd" fill="#CCCCC9" d="M337.76,96.309c-0.423-0.029-0.652-0.059-0.881-0.059
			c-1.764-0.004-3.527,0-5.291-0.004c-0.779-0.002-1.326-0.438-1.357-1.059c-0.031-0.627,0.534-1.113,1.357-1.115
			c2.82-0.008,5.643-0.002,8.464-0.004c0.583-0.002,1.104,0.104,1.374,0.701c0.274,0.617,0.014,1.102-0.38,1.564
			c-2.112,2.484-4.222,4.971-6.33,7.459c-0.192,0.229-0.372,0.467-0.667,0.838c0.396,0.029,0.622,0.061,0.848,0.061
			c1.74,0.004,3.482,0,5.224,0.004c0.862,0.002,1.348,0.406,1.35,1.104c0.003,0.684-0.511,1.15-1.331,1.152
			c-2.821,0.01-5.643,0.004-8.465,0.004c-0.603,0-1.072-0.227-1.332-0.793c-0.25-0.545,0.004-0.984,0.34-1.385
			c2.096-2.496,4.199-4.99,6.298-7.486C337.203,97.026,337.412,96.749,337.76,96.309z"/>
		<path fill-rule="evenodd" clip-rule="evenodd" fill="#CCCCC9" d="M412.048,93.694c1.438-0.074,2.812,0.279,4.126,0.9
			c0.793,0.375,1.068,0.883,0.809,1.492c-0.273,0.641-0.891,0.834-1.669,0.508c-1.386-0.58-2.813-0.877-4.313-0.615
			c-0.341,0.059-0.697,0.15-0.994,0.32c-0.807,0.459-0.859,1.518-0.076,2.016c0.475,0.303,1.035,0.475,1.566,0.682
			c1.148,0.443,2.332,0.807,3.447,1.32c1.346,0.621,2.248,1.598,2.141,3.238c-0.104,1.557-0.988,2.555-2.327,3.094
			c-2.756,1.111-5.438,0.729-7.995-0.689c-0.461-0.256-0.795-0.664-0.639-1.254c0.2-0.758,0.814-1.016,1.547-0.619
			c1.308,0.709,2.686,1.135,4.176,0.988c0.643-0.062,1.314-0.217,1.892-0.498c1.071-0.52,1.104-1.699,0.062-2.273
			c-0.784-0.432-1.665-0.684-2.491-1.047c-1.043-0.457-2.162-0.818-3.094-1.445c-2.09-1.41-1.895-4.129,0.303-5.373
			C409.605,93.821,410.787,93.627,412.048,93.694z"/>
		<path fill-rule="evenodd" clip-rule="evenodd" fill="#CCCCC9" d="M315.177,86.602c-0.774-1.025-1.718-1.646-2.946-1.797
			c-0.174-0.021-0.336-0.199-0.483-0.326c-1.455-1.244-3.14-1.926-5.052-2.002c-0.475-0.018-0.631-0.191-0.582-0.635
			c0.182-1.656,0.736-3.164,1.812-4.451c0.123-0.146,0.358-0.275,0.545-0.281c4.072-0.125,7.775,3.326,8.008,7.414
			c0.031,0.553-0.043,0.975-0.546,1.295C315.664,85.991,315.475,86.286,315.177,86.602z"/>
		<path fill-rule="evenodd" clip-rule="evenodd" fill="#CCCCC9" d="M318.981,101.979c-0.858,1.795-2.122,3.059-3.831,3.871
			c-0.165,0.08-0.436,0.047-0.616-0.031c-3.856-1.629-5.792-7-3.862-10.691c0.02-0.039,0.056-0.068,0.104-0.125
			c0.787,0.568,1.53,1.191,2.355,1.674c0.947,0.555,1.713,1.197,2.244,2.203c0.652,1.23,1.754,2.07,2.969,2.744
			C318.534,101.729,318.723,101.836,318.981,101.979z"/>
		<path fill-rule="evenodd" clip-rule="evenodd" fill="#CCCCC9" d="M316.119,97.493c1.088-0.791,2.113-1.549,3.156-2.279
			c0.158-0.109,0.429-0.178,0.605-0.125c2.073,0.619,4.049,0.322,5.975-0.566c0.077-0.037,0.166-0.047,0.295-0.08
			c0.549,0.885,0.773,1.871,0.867,2.871c0.062,0.672-0.062,1.359-0.07,2.041c-0.006,0.607-0.354,0.885-0.867,1.1
			c-3.544,1.475-7.639,0.361-9.798-2.684C316.22,97.682,316.173,97.584,316.119,97.493z"/>
		<path fill-rule="evenodd" clip-rule="evenodd" fill="#CCCCC9" d="M307.641,90.624c0.697,1.098,1.355,2.102,1.973,3.131
			c0.094,0.154,0.082,0.467-0.012,0.629c-0.902,1.545-1.341,3.199-1.224,4.988c0.033,0.502,0.119,0.998,0.188,1.57
			c-0.192,0.059-0.391,0.16-0.596,0.176c-1.437,0.105-2.854,0.07-4.223-0.488c-0.58-0.238-0.889-0.541-1.002-1.217
			c-0.594-3.586,1.41-7.338,4.743-8.744C307.568,90.635,307.655,90.62,307.641,90.624z"/>
		<path fill-rule="evenodd" clip-rule="evenodd" fill="#CCCCC9" d="M320.776,93.774c0.288-0.412,0.593-0.814,0.86-1.238
			c0.781-1.238,1.242-2.562,1.059-4.061c-0.025-0.207,0.099-0.477,0.237-0.65c0.787-0.984,1.288-2.102,1.558-3.318
			c0.092-0.414,0.246-0.496,0.635-0.379c1.579,0.475,2.945,1.293,4.006,2.555c0.201,0.24,0.297,0.701,0.229,1.014
			c-0.704,3.244-3.587,5.812-6.874,6.166c-0.552,0.061-1.106,0.092-1.66,0.137C320.811,93.924,320.793,93.848,320.776,93.774z"/>
		<path fill-rule="evenodd" clip-rule="evenodd" fill="#CCCCC9" d="M302.955,92.192c-1.487-1.262-2.441-2.77-2.791-4.633
			c-0.039-0.201,0.072-0.482,0.205-0.654c2.179-2.852,6.742-3.752,9.987-1.939c-0.171,0.092-0.31,0.168-0.451,0.24
			c-1.297,0.662-2.036,1.727-2.187,3.166c-0.062,0.6-0.273,0.918-0.893,1.096c-1.321,0.373-2.406,1.166-3.34,2.166
			C303.325,91.805,303.161,91.975,302.955,92.192z"/>
	</g>
</g>
</svg>
