<?xml version="1.0" encoding="utf-8"?>
<!-- Generator: Adobe Illustrator 16.0.4, SVG Export Plug-In . SVG Version: 6.00 Build 0)  -->
<!DOCTYPE svg PUBLIC "-//W3C//DTD SVG 1.1//EN" "http://www.w3.org/Graphics/SVG/1.1/DTD/svg11.dtd">
<svg version="1.1" id="Layer_1" xmlns="http://www.w3.org/2000/svg" xmlns:xlink="http://www.w3.org/1999/xlink" x="0px" y="0px"
	 width="131.821px" height="30.5px" viewBox="0 0 131.821 30.5" enable-background="new 0 0 131.821 30.5" xml:space="preserve">
<g>
	<path fill-rule="evenodd" clip-rule="evenodd" fill="#CCCCC9" d="M20.722,0c1.083,1.312,1.896,2.755,2.124,4.471
		c0.241,1.813-0.036,3.531-0.981,5.201c-0.821-1.078-1.874-1.605-3.136-1.729c-0.356-0.034-0.862,0.083-1.034-0.107
		c-0.201-0.222-0.075-0.714-0.152-1.075c-0.178-0.836-0.31-1.694-0.615-2.483c-0.295-0.767-0.784-1.46-1.22-2.241
		c1.102-0.979,2.397-1.655,3.931-1.853c0.233-0.029,0.458-0.12,0.687-0.184C20.458,0,20.59,0,20.722,0z"/>
	<path fill-rule="evenodd" clip-rule="evenodd" fill="#CCCCC9" d="M84.931,28.339c-0.125,0.057-0.174,0.063-0.201,0.092
		c-3.154,3.256-8.157,2.372-9.974-1.762c-1.322-3.01-0.537-6.616,1.86-8.548c2.008-1.616,5.244-1.743,7.149-0.269
		c0.409,0.318,0.79,0.672,1.228,1.045c0-0.199,0-0.428,0-0.657c0-2.249-0.011-4.499,0.004-6.748
		c0.008-1.283,1.053-1.987,2.077-1.419c0.541,0.302,0.712,0.795,0.71,1.391c-0.007,3.506-0.004,7.013-0.004,10.52
		c0,2.228,0.002,4.455,0,6.682c-0.002,1.016-0.488,1.606-1.33,1.625c-0.862,0.02-1.385-0.526-1.459-1.522
		C84.981,28.641,84.956,28.515,84.931,28.339z M84.991,23.616c0-0.133,0.002-0.265-0.001-0.396c-0.04-1.999-1.54-3.731-3.411-3.942
		c-2.168-0.244-3.953,0.898-4.472,2.94c-0.159,0.628-0.196,1.309-0.166,1.959c0.124,2.596,2.55,4.359,5.055,3.714
		C83.91,27.397,84.993,25.852,84.991,23.616z"/>
	<path fill-rule="evenodd" clip-rule="evenodd" fill="#CCCCC9" d="M122.994,22.099c0.341-0.223,0.544-0.338,0.727-0.478
		c1.729-1.333,3.455-2.67,5.182-4.006c0.14-0.107,0.277-0.218,0.422-0.319c0.661-0.467,1.396-0.412,1.835,0.132
		c0.482,0.603,0.402,1.22-0.282,1.784c-0.833,0.688-1.693,1.344-2.539,2.015c-0.549,0.436-1.094,0.873-1.709,1.364
		c0.706,0.822,1.36,1.589,2.021,2.35c0.925,1.066,1.859,2.124,2.779,3.195c0.408,0.476,0.539,1.007,0.197,1.579
		c-0.302,0.509-0.802,0.669-1.312,0.514c-0.352-0.105-0.688-0.385-0.941-0.668c-1.398-1.56-2.771-3.144-4.146-4.725
		c-0.625-0.718-0.588-0.677-1.353-0.168c-0.68,0.452-0.974,0.984-0.896,1.807c0.072,0.767,0.028,1.543,0.012,2.315
		c-0.021,0.931-0.577,1.514-1.399,1.499c-0.819-0.015-1.285-0.532-1.287-1.504c-0.006-5.78-0.006-11.561,0-17.341
		c0.002-0.945,0.57-1.595,1.327-1.577c0.802,0.019,1.357,0.675,1.36,1.651c0.007,3.221,0.003,6.441,0.003,9.662
		C122.994,21.435,122.994,21.687,122.994,22.099z"/>
	<path fill-rule="evenodd" clip-rule="evenodd" fill="#CCCCC9" d="M98.449,24.432c-1.456,0.001-2.911,0.011-4.366-0.005
		c-0.518-0.006-0.64,0.169-0.519,0.682c0.419,1.774,1.886,2.959,3.689,3.033c1.591,0.064,2.935-0.438,4.106-1.488
		c0.57-0.513,1.185-0.507,1.639-0.029c0.414,0.435,0.398,1.098-0.115,1.594c-2.09,2.021-4.593,2.688-7.368,1.926
		c-2.696-0.741-4.343-2.648-4.774-5.371c-0.769-4.841,3.011-7.931,6.516-7.955c3.53-0.024,6.229,2.59,6.562,5.735
		c0.021,0.197,0.084,0.389,0.104,0.586c0.08,0.851-0.308,1.284-1.173,1.29C101.316,24.437,99.883,24.431,98.449,24.432z
		 M93.61,22.471c0.133,0.042,0.193,0.08,0.254,0.08c2.268,0.006,4.535,0.006,6.804,0.013c0.444,0,0.507-0.215,0.406-0.597
		c-0.79-3.005-4.145-3.525-6.02-2.152C94.175,20.458,93.647,21.339,93.61,22.471z"/>
	<path fill-rule="evenodd" clip-rule="evenodd" fill="#CCCCC9" d="M51.052,24.431c-1.434,0.001-2.869,0.019-4.302-0.008
		c-0.526-0.009-0.637,0.177-0.548,0.67c0.29,1.598,1.857,2.942,3.479,3.046c1.685,0.107,3.116-0.406,4.367-1.514
		c0.544-0.481,1.162-0.472,1.579-0.02c0.402,0.437,0.372,1.101-0.104,1.612c-1.129,1.213-2.57,1.834-4.164,2.133
		c-3.206,0.601-6.405-1.169-7.599-4.185c-1.583-3.996,0.734-8.452,4.958-9.217c4.626-0.839,7.685,2.512,7.815,6.338
		c0.027,0.79-0.323,1.134-1.112,1.14C53.965,24.438,52.509,24.431,51.052,24.431z M53.748,22.564
		c-0.016-0.288,0.004-0.469-0.04-0.632c-0.375-1.371-1.63-2.952-4.023-2.814c-1.627,0.095-3.065,1.254-3.418,2.89
		c-0.11,0.508,0.151,0.559,0.535,0.558c1.673-0.004,3.347-0.001,5.021-0.001C52.433,22.564,53.045,22.564,53.748,22.564z"/>
	<path fill-rule="evenodd" clip-rule="evenodd" fill="#CCCCC9" d="M59.237,25.696c0.063-1.385-0.015-2.793,0.22-4.147
		c0.506-2.922,3.252-4.939,6.314-4.805c2.958,0.129,5.494,2.404,5.714,5.341c0.17,2.281,0.125,4.578,0.129,6.869
		c0.002,0.901-0.652,1.548-1.409,1.536c-0.828-0.013-1.366-0.641-1.368-1.614c-0.004-1.896,0.012-3.793-0.01-5.689
		c-0.006-0.502-0.061-1.017-0.191-1.5c-0.463-1.721-1.848-2.598-3.735-2.413c-1.502,0.147-2.708,1.479-2.8,3.123
		c-0.046,0.814-0.069,1.629-0.078,2.444c-0.012,1.3,0.003,2.602-0.006,3.903c-0.007,1.09-0.534,1.751-1.373,1.756
		c-0.833,0.004-1.344-0.663-1.346-1.758c-0.001-1.016,0-2.029,0-3.043C59.278,25.697,59.258,25.697,59.237,25.696z"/>
	<path fill-rule="evenodd" clip-rule="evenodd" fill="#CCCCC9" d="M37.604,19.474c-0.423-0.028-0.652-0.058-0.881-0.059
		c-1.764-0.004-3.527,0.001-5.29-0.004c-0.779-0.002-1.326-0.438-1.358-1.058c-0.031-0.628,0.535-1.113,1.357-1.116
		c2.821-0.008,5.643-0.001,8.464-0.004c0.583-0.001,1.105,0.104,1.374,0.702c0.275,0.616,0.015,1.101-0.379,1.563
		c-2.113,2.484-4.222,4.972-6.33,7.46c-0.193,0.228-0.372,0.466-0.667,0.837c0.396,0.029,0.622,0.062,0.847,0.062
		c1.741,0.004,3.483,0,5.224,0.003c0.862,0.003,1.348,0.406,1.35,1.104c0.002,0.684-0.511,1.15-1.331,1.152
		c-2.821,0.011-5.643,0.004-8.464,0.005c-0.603,0-1.072-0.227-1.332-0.793c-0.25-0.546,0.003-0.984,0.339-1.385
		c2.097-2.497,4.2-4.991,6.298-7.486C37.047,20.19,37.256,19.914,37.604,19.474z"/>
	<path fill-rule="evenodd" clip-rule="evenodd" fill="#CCCCC9" d="M111.892,16.858c1.438-0.074,2.812,0.279,4.126,0.9
		c0.794,0.376,1.068,0.883,0.81,1.492c-0.273,0.642-0.891,0.834-1.67,0.508c-1.385-0.579-2.812-0.877-4.312-0.614
		c-0.342,0.059-0.697,0.15-0.995,0.319c-0.806,0.46-0.859,1.518-0.076,2.016c0.475,0.303,1.035,0.475,1.567,0.682
		c1.148,0.443,2.332,0.807,3.446,1.321c1.346,0.621,2.248,1.598,2.141,3.238c-0.103,1.556-0.988,2.554-2.327,3.093
		c-2.756,1.112-5.438,0.729-7.994-0.689c-0.461-0.256-0.796-0.663-0.64-1.253c0.2-0.758,0.815-1.016,1.547-0.619
		c1.308,0.708,2.686,1.135,4.177,0.987c0.643-0.062,1.314-0.216,1.891-0.497c1.071-0.52,1.105-1.7,0.062-2.274
		c-0.784-0.431-1.664-0.684-2.49-1.047c-1.044-0.457-2.162-0.817-3.095-1.445c-2.089-1.409-1.894-4.129,0.303-5.373
		C109.45,16.986,110.632,16.793,111.892,16.858z"/>
	<path fill-rule="evenodd" clip-rule="evenodd" fill="#CCCCC9" d="M15.021,9.768c-0.774-1.025-1.718-1.646-2.947-1.798
		c-0.173-0.021-0.335-0.199-0.483-0.326c-1.455-1.244-3.14-1.926-5.051-2.001C6.064,5.625,5.909,5.45,5.958,5.007
		C6.139,3.351,6.694,1.844,7.77,0.556C7.893,0.409,8.128,0.28,8.315,0.274c4.072-0.125,7.774,3.326,8.007,7.414
		c0.032,0.554-0.043,0.975-0.545,1.296C15.509,9.155,15.319,9.45,15.021,9.768z"/>
	<path fill-rule="evenodd" clip-rule="evenodd" fill="#CCCCC9" d="M18.826,25.145c-0.858,1.794-2.123,3.058-3.831,3.871
		c-0.166,0.08-0.436,0.046-0.617-0.031c-3.857-1.63-5.792-7.001-3.862-10.692c0.019-0.038,0.056-0.068,0.104-0.125
		c0.787,0.568,1.53,1.191,2.354,1.674c0.948,0.555,1.713,1.197,2.245,2.203c0.652,1.23,1.754,2.071,2.969,2.745
		C18.378,24.895,18.567,25.001,18.826,25.145z"/>
	<path fill-rule="evenodd" clip-rule="evenodd" fill="#CCCCC9" d="M15.963,20.657c1.088-0.791,2.113-1.549,3.157-2.279
		c0.158-0.109,0.429-0.177,0.606-0.124c2.073,0.619,4.049,0.322,5.974-0.567c0.077-0.036,0.166-0.046,0.294-0.08
		c0.55,0.886,0.774,1.871,0.868,2.872c0.063,0.672-0.063,1.358-0.07,2.04c-0.006,0.608-0.354,0.885-0.868,1.1
		c-3.543,1.476-7.638,0.362-9.797-2.684C16.064,20.847,16.017,20.749,15.963,20.657z"/>
	<path fill-rule="evenodd" clip-rule="evenodd" fill="#CCCCC9" d="M7.485,13.788c0.697,1.098,1.354,2.103,1.972,3.131
		c0.094,0.155,0.083,0.467-0.012,0.629c-0.901,1.546-1.34,3.2-1.223,4.988c0.033,0.502,0.119,0.999,0.189,1.57
		c-0.193,0.06-0.391,0.161-0.596,0.177c-1.437,0.105-2.854,0.069-4.223-0.489c-0.581-0.238-0.889-0.54-1.001-1.216
		C1.997,18.991,4,15.24,7.333,13.834C7.413,13.801,7.5,13.784,7.485,13.788z"/>
	<path fill-rule="evenodd" clip-rule="evenodd" fill="#CCCCC9" d="M20.621,16.938c0.288-0.412,0.592-0.814,0.86-1.238
		c0.782-1.238,1.242-2.562,1.059-4.061c-0.025-0.207,0.099-0.477,0.237-0.65c0.787-0.984,1.289-2.101,1.558-3.318
		c0.091-0.414,0.246-0.496,0.634-0.378c1.58,0.474,2.945,1.292,4.006,2.555c0.202,0.24,0.297,0.701,0.229,1.014
		c-0.704,3.244-3.587,5.812-6.874,6.166c-0.552,0.06-1.107,0.092-1.661,0.137C20.654,17.089,20.637,17.014,20.621,16.938z"/>
	<path fill-rule="evenodd" clip-rule="evenodd" fill="#CCCCC9" d="M2.799,15.357c-1.487-1.263-2.441-2.77-2.792-4.633
		c-0.038-0.202,0.072-0.482,0.205-0.655c2.179-2.852,6.743-3.752,9.988-1.939c-0.171,0.092-0.31,0.168-0.451,0.24
		c-1.297,0.663-2.036,1.727-2.186,3.166c-0.063,0.6-0.273,0.919-0.894,1.096c-1.321,0.374-2.406,1.167-3.34,2.167
		C3.169,14.971,3.005,15.141,2.799,15.357z"/>
</g>
</svg>
