<?xml version="1.0" encoding="utf-8"?>
<!-- Generator: Adobe Illustrator 16.0.4, SVG Export Plug-In . SVG Version: 6.00 Build 0)  -->
<!DOCTYPE svg PUBLIC "-//W3C//DTD SVG 1.1//EN" "http://www.w3.org/Graphics/SVG/1.1/DTD/svg11.dtd">
<svg version="1.1" id="Layer_1" xmlns="http://www.w3.org/2000/svg" xmlns:xlink="http://www.w3.org/1999/xlink" x="0px" y="0px"
	 width="503.188px" height="128.655px" viewBox="0 0 503.188 128.655" enable-background="new 0 0 503.188 128.655"
	 xml:space="preserve">
<g opacity="0.2">
	<path fill="#DCDDDE" d="M72.426,7.641c3.342,0,6.073,2.734,6.073,6.074v47.733H53.36h-6.134H7.641V13.715
		c0-3.34,2.733-6.074,6.074-6.074H72.426 M72.426,0H13.715C6.153,0,0,6.153,0,13.715v47.733v7.641h7.641h39.585h6.134H78.5h7.641
		v-7.641V13.715C86.141,6.153,79.988,0,72.426,0L72.426,0z"/>
	<path fill="#DCDDDE" d="M155.836,7.641c3.341,0,6.074,2.734,6.074,6.074v47.733h-16.611h-8.354h-21.707h-8.633H91.052V13.715
		c0-3.34,2.731-6.074,6.073-6.074H155.836 M155.836,0H97.125c-7.562,0-13.714,6.153-13.714,13.715v47.733v7.641h7.641h15.554h8.633
		h21.707h8.354h16.611h7.641v-7.641V13.715C169.552,6.153,163.399,0,155.836,0L155.836,0z"/>
	<path fill="#DCDDDE" d="M239.246,7.641c3.341,0,6.073,2.734,6.073,6.074v47.733h-10.971h-6.143h-35.127h-6.142H174.46V13.715
		c0-3.34,2.733-6.074,6.073-6.074H239.246 M239.246,0h-58.712c-7.562,0-13.714,6.153-13.714,13.715v47.733v7.641h7.641h12.477h6.142
		h35.127h6.143h10.971h7.641v-7.641V13.715C252.959,6.153,246.808,0,239.246,0L239.246,0z"/>
	<path fill="#DCDDDE" d="M322.655,7.641c3.341,0,6.074,2.734,6.074,6.074v47.733h-11.992h-6.142h-35.127h-6.142h-11.455V13.715
		c0-3.34,2.731-6.074,6.072-6.074H322.655 M322.655,0h-58.711c-7.562,0-13.713,6.153-13.713,13.715v47.733v7.641h7.641h11.455h6.142
		h35.127h6.142h11.992h7.641v-7.641V13.715C336.37,6.153,330.217,0,322.655,0L322.655,0z"/>
	<path fill="#DCDDDE" d="M406.064,7.641c3.341,0,6.073,2.734,6.073,6.074v47.733h-11.063h-6.142h-35.127h-6.142H341.28V13.715
		c0-3.34,2.732-6.074,6.073-6.074H406.064 M406.064,0h-58.711c-7.562,0-13.714,6.153-13.714,13.715v47.733v7.641h7.641h12.384h6.142
		h35.127h6.142h11.063h7.641v-7.641V13.715C419.778,6.153,413.626,0,406.064,0L406.064,0z"/>
	<path fill="#DCDDDE" d="M489.474,7.641c3.341,0,6.073,2.734,6.073,6.074v47.733h-12.083h-6.142h-35.127h-6.141H424.69V13.715
		c0-3.34,2.732-6.074,6.073-6.074H489.474 M489.474,0h-58.711c-7.562,0-13.714,6.153-13.714,13.715v47.733v7.641h7.641h11.365h6.141
		h35.127h6.142h12.083h7.641v-7.641V13.715C503.188,6.153,497.037,0,489.474,0L489.474,0z"/>
	<path fill="#DCDDDE" d="M78.5,65.686v49.255c0,3.341-2.731,6.073-6.073,6.073H13.715c-3.341,0-6.074-2.732-6.074-6.073V65.686
		h39.585h6.134H78.5 M86.141,58.045H78.5H53.36h-6.134H7.641H0v7.641v49.255c0,7.562,6.153,13.714,13.715,13.714h58.711
		c7.562,0,13.714-6.151,13.714-13.714V65.686V58.045L86.141,58.045z"/>
	<path fill="#DCDDDE" d="M161.911,65.686v49.255c0,3.341-2.733,6.073-6.074,6.073H97.125c-3.342,0-6.073-2.732-6.073-6.073V65.686
		h49.759h6.876H161.911 M169.552,58.045h-7.641h-14.224h-6.876H91.052h-7.641v7.641v49.255c0,7.562,6.152,13.714,13.714,13.714
		h58.711c7.562,0,13.715-6.151,13.715-13.714V65.686V58.045L169.552,58.045z"/>
	<path fill="#DCDDDE" d="M245.319,65.686v49.255c0,3.341-2.732,6.073-6.073,6.073h-58.712c-3.34,0-6.073-2.732-6.073-6.073V65.686
		h12.448h6.131h35.204h6.13H245.319 M252.959,58.045h-7.641h-10.945h-6.13H193.04h-6.131H174.46h-7.641v7.641v49.255
		c0,7.562,6.152,13.714,13.714,13.714h58.712c7.562,0,13.714-6.151,13.714-13.714V65.686V58.045L252.959,58.045z"/>
	<path fill="#DCDDDE" d="M328.729,65.686v49.255c0,3.341-2.733,6.073-6.074,6.073h-58.711c-3.341,0-6.072-2.732-6.072-6.073V65.686
		h11.427h6.132h35.203h6.131H328.729 M336.37,58.045h-7.641h-11.965h-6.131H275.43h-6.132h-11.427h-7.641v7.641v49.255
		c0,7.562,6.152,13.714,13.713,13.714h58.711c7.562,0,13.715-6.151,13.715-13.714V65.686V58.045L336.37,58.045z"/>
	<path fill="#DCDDDE" d="M412.137,65.686v49.255c0,3.341-2.732,6.073-6.073,6.073h-58.711c-3.341,0-6.073-2.732-6.073-6.073V65.686
		h12.355h6.131h35.204h6.13H412.137 M419.778,58.045h-7.641H401.1h-6.13h-35.204h-6.131H341.28h-7.641v7.641v49.255
		c0,7.562,6.151,13.714,13.714,13.714h58.711c7.562,0,13.714-6.151,13.714-13.714V65.686V58.045L419.778,58.045z"/>
	<path fill="#DCDDDE" d="M495.547,65.686v49.255c0,3.341-2.732,6.073-6.073,6.073h-58.711c-3.341,0-6.073-2.732-6.073-6.073V65.686
		h11.337h6.13h35.204h6.13H495.547 M503.188,58.045h-7.641h-12.057h-6.13h-35.204h-6.13H424.69h-7.641v7.641v49.255
		c0,7.562,6.151,13.714,13.714,13.714h58.711c7.562,0,13.714-6.151,13.714-13.714V65.686V58.045L503.188,58.045z"/>
</g>
<g>
	<path fill="#D0E8CF" d="M78.5,13.715c0-3.34-2.731-6.074-6.073-6.074H13.715c-3.341,0-6.074,2.734-6.074,6.074v47.733H78.5V13.715z
		"/>
	<path fill="#B3DBB2" d="M7.641,114.941c0,3.341,2.733,6.073,6.074,6.073h58.711c3.342,0,6.073-2.732,6.073-6.073V65.686H7.641
		V114.941z"/>
	<path fill="#D0E8CF" d="M161.911,13.715c0-3.34-2.733-6.074-6.074-6.074H97.125c-3.342,0-6.073,2.734-6.073,6.074v47.733h70.858
		V13.715z"/>
	<path fill="#B3DBB2" d="M91.052,114.941c0,3.341,2.731,6.073,6.073,6.073h58.711c3.341,0,6.074-2.732,6.074-6.073V65.686H91.052
		V114.941z"/>
	<path fill="#D0E8CF" d="M245.319,13.715c0-3.34-2.732-6.074-6.073-6.074h-58.712c-3.34,0-6.073,2.734-6.073,6.074v47.733h70.858
		V13.715z"/>
	<path fill="#B3DBB2" d="M174.46,114.941c0,3.341,2.733,6.073,6.073,6.073h58.712c3.341,0,6.073-2.732,6.073-6.073V65.686H174.46
		V114.941z"/>
	<path fill="#B3DBB2" d="M257.872,114.941c0,3.341,2.731,6.073,6.072,6.073h58.711c3.341,0,6.074-2.732,6.074-6.073V65.686h-70.857
		V114.941z"/>
	<path fill="#D0E8CF" d="M328.729,13.715c0-3.34-2.733-6.074-6.074-6.074h-58.711c-3.341,0-6.072,2.734-6.072,6.074v47.733h70.857
		V13.715z"/>
	<path fill="#B3DBB2" d="M341.28,114.941c0,3.341,2.732,6.073,6.073,6.073h58.711c3.341,0,6.073-2.732,6.073-6.073V65.686H341.28
		V114.941z"/>
	<path fill="#D0E8CF" d="M412.137,13.715c0-3.34-2.732-6.074-6.073-6.074h-58.711c-3.341,0-6.073,2.734-6.073,6.074v47.733h70.857
		V13.715z"/>
	<path fill="#D0E8CF" d="M495.547,13.715c0-3.34-2.732-6.074-6.073-6.074h-58.711c-3.341,0-6.073,2.734-6.073,6.074v47.733h70.857
		V13.715z"/>
	<path fill="#B3DBB2" d="M424.69,114.941c0,3.341,2.732,6.073,6.073,6.073h58.711c3.341,0,6.073-2.732,6.073-6.073V65.686H424.69
		V114.941z"/>
</g>
<path fill="none" d="M360.328,73.917c0.39,3.474,1.185,6.719,2.386,9.737c1.2,3.02,2.97,5.536,5.308,7.547
	c2.336,2.013,5.452,3.019,9.348,3.019c3.895,0,7.011-1.006,9.349-3.019c2.336-2.011,4.104-4.527,5.306-7.547
	c1.201-3.019,1.997-6.264,2.386-9.737c0.328-2.919,0.51-5.655,0.562-8.23h-35.204C359.819,68.261,360,70.998,360.328,73.917z"/>
<path fill="none" d="M392.023,44.85c-1.202-2.984-2.97-5.485-5.306-7.498c-2.338-2.012-5.454-3.018-9.349-3.018
	c-3.896,0-7.012,1.006-9.348,3.018c-2.338,2.013-4.107,4.514-5.308,7.498c-1.201,2.987-1.996,6.232-2.386,9.737
	c-0.271,2.431-0.439,4.712-0.522,6.861h35.127c-0.083-2.149-0.253-4.431-0.523-6.861C394.02,51.083,393.224,47.837,392.023,44.85z"
	/>
<path fill="#39A85B" d="M360.328,54.587c0.39-3.505,1.185-6.75,2.386-9.737c1.2-2.984,2.97-5.485,5.308-7.498
	c2.336-2.012,5.452-3.018,9.348-3.018c3.895,0,7.011,1.006,9.349,3.018c2.336,2.013,4.104,4.514,5.306,7.498
	c1.201,2.987,1.997,6.232,2.386,9.737c0.271,2.431,0.44,4.712,0.523,6.861h6.142c-0.11-3.073-0.398-6.204-0.871-9.393
	c-0.617-4.153-1.785-7.919-3.505-11.296c-1.721-3.375-4.123-6.149-7.207-8.325c-3.083-2.174-7.124-3.262-12.122-3.262
	c-4.935,0-8.959,1.088-12.074,3.262c-3.116,2.176-5.535,4.95-7.255,8.325c-1.722,3.377-2.89,7.143-3.506,11.296
	c-0.472,3.169-0.758,6.3-0.87,9.393h6.142C359.888,59.299,360.057,57.018,360.328,54.587z"/>
<path fill="#39A85B" d="M394.409,73.917c-0.389,3.474-1.185,6.719-2.386,9.737c-1.202,3.02-2.97,5.536-5.306,7.547
	c-2.338,2.013-5.454,3.019-9.349,3.019c-3.896,0-7.012-1.006-9.348-3.019c-2.338-2.011-4.107-4.527-5.308-7.547
	c-1.201-3.019-1.996-6.264-2.386-9.737c-0.327-2.919-0.509-5.655-0.562-8.23h-6.131c0.062,3.529,0.352,7.131,0.898,10.812
	c0.616,4.155,1.784,7.921,3.506,11.295c1.72,3.377,4.139,6.136,7.255,8.277c3.115,2.142,7.14,3.214,12.074,3.214
	c4.998,0,9.039-1.072,12.122-3.214c3.084-2.142,5.486-4.9,7.207-8.277c1.72-3.374,2.888-7.14,3.505-11.295
	c0.542-3.655,0.832-7.257,0.897-10.812h-6.13C394.918,68.261,394.737,70.998,394.409,73.917z"/>
<path fill="#39A85B" d="M64.526,56.537c0.959-2.384,1.441-5.032,1.441-7.947c0-3.243-0.547-6.092-1.64-8.542
	s-2.616-4.486-4.569-6.109c-1.954-1.622-4.238-2.847-6.854-3.676c-2.617-0.827-5.449-1.242-8.494-1.242
	c-3.774,0-7.069,0.614-9.883,1.838c-2.816,1.227-5.15,2.931-7.004,5.116c-1.854,2.185-3.229,4.785-4.122,7.798
	c-0.894,3.014-1.308,6.308-1.241,9.884h6.258c-0.066-2.583,0.182-5.032,0.745-7.351c0.562-2.317,1.473-4.371,2.731-6.159
	c1.258-1.788,2.896-3.211,4.917-4.271c2.019-1.06,4.453-1.59,7.302-1.59c2.118,0,4.122,0.314,6.009,0.943
	c1.888,0.631,3.542,1.557,4.967,2.781c1.423,1.227,2.549,2.717,3.378,4.47c0.827,1.756,1.241,3.76,1.241,6.011
	c0,2.78-0.481,5.182-1.44,7.201c-0.935,1.967-2.328,3.886-4.172,5.757h7.785C62.939,59.917,63.823,58.282,64.526,56.537z"/>
<path fill="#39A85B" d="M47.441,67.016c-2.418,1.688-4.852,3.345-7.302,4.967c-2.45,1.623-4.834,3.312-7.151,5.066
	c-2.319,1.755-4.405,3.691-6.258,5.811c-1.854,2.12-3.345,4.504-4.47,7.152c-1.127,2.649-1.724,5.696-1.789,9.139h45.793v-5.762
	H27.624c0.397-2.317,1.391-4.453,2.98-6.407c1.589-1.952,3.427-3.758,5.513-5.413s4.255-3.162,6.507-4.52
	c2.25-1.357,4.205-2.599,5.86-3.726c2.317-1.456,4.52-3.029,6.605-4.718c1.145-0.927,2.212-1.903,3.218-2.92h-9.048
	C48.668,66.137,48.064,66.581,47.441,67.016z"/>
<polygon fill="#39A85B" points="134.352,38.755 134.55,38.755 134.55,61.449 140.312,61.449 140.312,29.617 134.649,29.617 
	112.469,61.449 118.627,61.449 "/>
<polygon fill="#39A85B" points="134.55,76.602 108.127,76.602 115.691,65.686 109.517,65.686 102.465,75.807 102.465,81.867 
	134.55,81.867 134.55,99.151 140.312,99.151 140.312,81.867 150.742,81.867 150.742,76.602 140.312,76.602 140.312,65.686 
	134.55,65.686 "/>
<g>
	<path fill="none" d="M195.434,70.351c-0.768,2.234-1.15,4.649-1.15,7.25c0,2.467,0.333,4.8,1,7c0.666,2.2,1.716,4.117,3.15,5.75
		c1.433,1.634,3.25,2.917,5.45,3.85c2.2,0.935,4.833,1.4,7.899,1.4c2.533,0,4.816-0.483,6.851-1.45c2.032-0.966,3.8-2.266,5.3-3.9
		c1.5-1.633,2.65-3.55,3.45-5.75c0.8-2.199,1.2-4.5,1.2-6.899c0-2.533-0.385-4.933-1.15-7.2c-0.635-1.875-1.512-3.534-2.603-5
		h-26.727C196.968,66.862,196.067,68.503,195.434,70.351z"/>
	<path fill="none" d="M461.549,59.101c-2.734,0-5.185,0.484-7.35,1.45c-0.576,0.257-1.126,0.543-1.655,0.85H470.3
		c-0.511-0.307-1.042-0.593-1.601-0.85C466.599,59.585,464.215,59.101,461.549,59.101z"/>
	<path fill="none" d="M294.008,58.301c-3.2,0-6.167,0.717-8.9,2.149c-0.552,0.289-1.077,0.61-1.588,0.95h20.799
		c-0.956-0.656-1.991-1.225-3.11-1.7C299.008,58.768,296.608,58.301,294.008,58.301z"/>
	<path fill="none" d="M211.684,59.101c-2.734,0-5.185,0.484-7.35,1.45c-0.577,0.257-1.125,0.543-1.655,0.85h17.755
		c-0.511-0.307-1.042-0.593-1.601-0.85C216.734,59.585,214.35,59.101,211.684,59.101z"/>
	<path fill="#39A85B" d="M193.684,55.151c0.466-3.633,1.4-7.016,2.8-10.15c1.4-3.133,3.366-5.732,5.9-7.8
		c2.532-2.065,5.833-3.1,9.899-3.1s7.383,1.2,9.95,3.6c2.565,2.4,4.116,5.534,4.65,9.4h6.3c-0.734-6.2-2.935-10.8-6.6-13.8
		c-3.668-3-8.635-4.5-14.9-4.5c-3.8,0-7.067,0.667-9.8,2c-2.734,1.334-5.018,3.066-6.851,5.199c-1.834,2.135-3.3,4.518-4.399,7.15
		c-1.101,2.635-1.95,5.234-2.55,7.8c-0.601,2.567-0.984,4.984-1.15,7.25c-0.087,1.188-0.15,2.25-0.192,3.2h6.367
		C193.221,59.391,193.406,57.315,193.684,55.151z"/>
	<path fill="#39A85B" d="M227.434,70.713c0.766,2.268,1.15,4.667,1.15,7.2c0,2.399-0.4,4.7-1.2,6.899c-0.8,2.2-1.95,4.117-3.45,5.75
		c-1.5,1.635-3.268,2.935-5.3,3.9c-2.034,0.967-4.317,1.45-6.851,1.45c-3.066,0-5.699-0.466-7.899-1.4
		c-2.2-0.933-4.018-2.216-5.45-3.85c-1.435-1.633-2.484-3.55-3.15-5.75c-0.667-2.2-1-4.533-1-7c0-2.601,0.383-5.016,1.15-7.25
		c0.633-1.848,1.534-3.489,2.671-4.95h-4.921h-0.2h-6.285c0.075,6.122,0.549,11.346,1.435,15.65c0.966,4.699,2.45,8.517,4.45,11.449
		c2,2.935,4.532,5.051,7.6,6.351c3.065,1.3,6.732,1.95,11,1.95c3.466,0,6.65-0.585,9.55-1.75c2.9-1.166,5.4-2.801,7.5-4.9
		c2.101-2.1,3.733-4.6,4.9-7.5c1.165-2.9,1.75-6.05,1.75-9.45c0-3.399-0.55-6.532-1.65-9.399c-0.321-0.838-0.693-1.631-1.091-2.4
		h-7.311C225.922,67.179,226.799,68.838,227.434,70.713z"/>
	<path fill="#39A85B" d="M204.334,60.551c2.165-0.966,4.615-1.45,7.35-1.45c2.666,0,5.05,0.484,7.15,1.45
		c0.559,0.257,1.089,0.543,1.601,0.85h9.021c-0.287-0.337-0.563-0.682-0.871-1c-2-2.065-4.418-3.683-7.25-4.85
		c-2.835-1.166-6.018-1.75-9.551-1.75c-4,0-7.684,1.066-11.05,3.199c-1.956,1.24-3.616,2.711-4.998,4.4h6.943
		C203.209,61.094,203.758,60.808,204.334,60.551z"/>
	<path fill="#39A85B" d="M285.108,60.451c2.733-1.433,5.7-2.149,8.9-2.149c2.6,0,5,0.467,7.2,1.399
		c1.119,0.476,2.154,1.044,3.11,1.7h8.909c-0.432-0.556-0.886-1.091-1.37-1.6c-2.034-2.133-4.5-3.801-7.399-5
		c-2.9-1.2-6.15-1.801-9.75-1.801c-2.801,0-5.535,0.567-8.2,1.7c-2.667,1.135-4.867,2.734-6.601,4.8l-0.199-0.199l4.5-23.2h30.6
		v-5.8h-35l-5.826,31.1h9.538C284.031,61.061,284.556,60.74,285.108,60.451z"/>
	<path fill="#39A85B" d="M310.558,69.583c0.9,2.199,1.35,4.6,1.35,7.199c0,2.535-0.399,4.95-1.199,7.25
		c-0.801,2.301-1.968,4.335-3.5,6.101c-1.535,1.767-3.367,3.167-5.5,4.2c-2.135,1.034-4.567,1.55-7.301,1.55
		c-2.399,0-4.634-0.383-6.699-1.15c-2.067-0.766-3.867-1.865-5.4-3.3c-1.534-1.433-2.75-3.15-3.65-5.15
		c-0.899-2-1.384-4.199-1.449-6.6h-6.301c0.066,3.334,0.7,6.334,1.9,9c1.2,2.667,2.815,4.917,4.85,6.75
		c2.033,1.834,4.434,3.234,7.2,4.2c2.766,0.966,5.783,1.45,9.05,1.45c3.333,0,6.483-0.585,9.45-1.75
		c2.966-1.166,5.55-2.801,7.75-4.9s3.933-4.6,5.2-7.5c1.266-2.9,1.9-6.05,1.9-9.45c0-3.532-0.551-6.782-1.65-9.75
		c-0.263-0.708-0.556-1.39-0.871-2.05h-7.31C309.239,66.868,309.976,68.16,310.558,69.583z"/>
	<path fill="#39A85B" d="M479.301,70.713c0.766,2.268,1.15,4.667,1.15,7.2c0,2.399-0.4,4.7-1.2,6.899c-0.8,2.2-1.95,4.117-3.45,5.75
		c-1.5,1.635-3.268,2.935-5.3,3.9c-2.034,0.967-4.317,1.45-6.851,1.45c-3.066,0-5.699-0.466-7.899-1.4
		c-2.2-0.933-4.018-2.216-5.45-3.85c-1.435-1.633-2.484-3.55-3.15-5.75c-0.667-2.2-1-4.533-1-7c0-2.601,0.383-5.016,1.15-7.25
		c0.634-1.848,1.534-3.489,2.671-4.95h-4.921h-0.2h-6.284c0.074,6.122,0.548,11.346,1.435,15.65c0.966,4.699,2.45,8.517,4.45,11.449
		c2,2.935,4.532,5.051,7.6,6.351c3.065,1.3,6.732,1.95,11,1.95c3.466,0,6.65-0.585,9.55-1.75c2.9-1.166,5.4-2.801,7.5-4.9
		c2.101-2.1,3.733-4.6,4.9-7.5c1.165-2.9,1.75-6.05,1.75-9.45c0-3.399-0.55-6.532-1.65-9.399c-0.321-0.838-0.693-1.631-1.092-2.4
		h-7.311C477.79,67.179,478.666,68.838,479.301,70.713z"/>
	<path fill="#39A85B" d="M445.551,55.151c0.466-3.633,1.4-7.016,2.8-10.15c1.4-3.133,3.366-5.732,5.9-7.8
		c2.532-2.065,5.833-3.1,9.899-3.1s7.383,1.2,9.95,3.6c2.565,2.4,4.116,5.534,4.65,9.4h6.3c-0.734-6.2-2.935-10.8-6.6-13.8
		c-3.668-3-8.635-4.5-14.9-4.5c-3.8,0-7.067,0.667-9.8,2c-2.734,1.334-5.018,3.066-6.851,5.199c-1.834,2.135-3.3,4.518-4.399,7.15
		c-1.101,2.635-1.95,5.234-2.55,7.8c-0.601,2.567-0.984,4.984-1.15,7.25c-0.088,1.188-0.15,2.25-0.192,3.2h6.367
		C445.088,59.391,445.273,57.315,445.551,55.151z"/>
	<path fill="#39A85B" d="M454.2,60.551c2.165-0.966,4.615-1.45,7.35-1.45c2.666,0,5.05,0.484,7.15,1.45
		c0.559,0.257,1.09,0.543,1.601,0.85h9.021c-0.286-0.337-0.563-0.682-0.871-1c-2-2.065-4.418-3.683-7.25-4.85
		c-2.835-1.166-6.018-1.75-9.551-1.75c-4,0-7.684,1.066-11.05,3.199c-1.956,1.24-3.615,2.711-4.997,4.4h6.942
		C453.074,61.094,453.624,60.808,454.2,60.551z"/>
</g>
<g>
	<g>
		<path fill="#FFFFFF" d="M21.776,66.719c0,1.577-0.896,2.867-1.993,2.867s-1.993-1.29-1.993-2.867v-7.713
			c0-1.577,0.896-2.867,1.993-2.867s1.993,1.29,1.993,2.867V66.719z"/>
	</g>
	<g>
		<path fill="#FFFFFF" d="M69.522,66.719c0,1.577-0.896,2.867-1.993,2.867s-1.993-1.29-1.993-2.867v-7.713
			c0-1.577,0.896-2.867,1.993-2.867s1.993,1.29,1.993,2.867V66.719z"/>
	</g>
</g>
<g>
	<g>
		<path fill="#FFFFFF" d="M104.366,66.719c0,1.577-0.897,2.867-1.994,2.867c-1.096,0-1.993-1.29-1.993-2.867v-7.713
			c0-1.577,0.897-2.867,1.993-2.867c1.097,0,1.994,1.29,1.994,2.867V66.719z"/>
	</g>
	<g>
		<path fill="#FFFFFF" d="M152.112,66.719c0,1.577-0.897,2.867-1.994,2.867c-1.096,0-1.993-1.29-1.993-2.867v-7.713
			c0-1.577,0.897-2.867,1.993-2.867c1.097,0,1.994,1.29,1.994,2.867V66.719z"/>
	</g>
</g>
<g>
	<g>
		<path fill="#FFFFFF" d="M271.071,66.719c0,1.577-0.896,2.867-1.993,2.867s-1.993-1.29-1.993-2.867v-7.713
			c0-1.577,0.896-2.867,1.993-2.867s1.993,1.29,1.993,2.867V66.719z"/>
	</g>
	<g>
		<path fill="#FFFFFF" d="M318.817,66.719c0,1.577-0.896,2.867-1.993,2.867s-1.993-1.29-1.993-2.867v-7.713
			c0-1.577,0.896-2.867,1.993-2.867s1.993,1.29,1.993,2.867V66.719z"/>
	</g>
</g>
<g>
	<g>
		<path fill="#FFFFFF" d="M355.188,66.719c0,1.577-0.896,2.867-1.993,2.867s-1.993-1.29-1.993-2.867v-7.713
			c0-1.577,0.896-2.867,1.993-2.867s1.993,1.29,1.993,2.867V66.719z"/>
	</g>
	<g>
		<path fill="#FFFFFF" d="M402.935,66.719c0,1.577-0.897,2.867-1.993,2.867c-1.097,0-1.994-1.29-1.994-2.867v-7.713
			c0-1.577,0.897-2.867,1.994-2.867c1.096,0,1.993,1.29,1.993,2.867V66.719z"/>
	</g>
</g>
<g>
	<g>
		<path fill="#FFFFFF" d="M438.542,66.719c0,1.577-0.897,2.867-1.994,2.867c-1.096,0-1.993-1.29-1.993-2.867v-7.713
			c0-1.577,0.897-2.867,1.993-2.867c1.097,0,1.994,1.29,1.994,2.867V66.719z"/>
	</g>
	<g>
		<path fill="#FFFFFF" d="M486.288,66.719c0,1.577-0.897,2.867-1.994,2.867c-1.096,0-1.993-1.29-1.993-2.867v-7.713
			c0-1.577,0.897-2.867,1.993-2.867c1.097,0,1.994,1.29,1.994,2.867V66.719z"/>
	</g>
</g>
<g>
	<g>
		<path fill="#FFFFFF" d="M187.717,66.719c0,1.577-0.896,2.867-1.992,2.867c-1.097,0-1.994-1.29-1.994-2.867v-7.713
			c0-1.577,0.897-2.867,1.994-2.867c1.096,0,1.992,1.29,1.992,2.867V66.719z"/>
	</g>
	<g>
		<path fill="#FFFFFF" d="M235.464,66.719c0,1.577-0.897,2.867-1.993,2.867c-1.098,0-1.994-1.29-1.994-2.867v-7.713
			c0-1.577,0.896-2.867,1.994-2.867c1.096,0,1.993,1.29,1.993,2.867V66.719z"/>
	</g>
</g>
</svg>
