<?xml version="1.0" encoding="utf-8"?>
<!-- Generator: Adobe Illustrator 16.0.4, SVG Export Plug-In . SVG Version: 6.00 Build 0)  -->
<!DOCTYPE svg PUBLIC "-//W3C//DTD SVG 1.1//EN" "http://www.w3.org/Graphics/SVG/1.1/DTD/svg11.dtd">
<svg version="1.1" id="Layer_1" xmlns="http://www.w3.org/2000/svg" xmlns:xlink="http://www.w3.org/1999/xlink" x="0px" y="0px"
	 width="127.108px" height="26.356px" viewBox="0 0 127.108 26.356" enable-background="new 0 0 127.108 26.356"
	 xml:space="preserve">
<g>
	<g>
		<path fill-rule="evenodd" clip-rule="evenodd" fill="#CCCCC9" d="M59.963,13.366c0-3.516,0-7.033,0.002-10.547
			c0-0.301,0.002-0.602,0.015-0.9c0.013-0.35,0.196-0.536,0.546-0.596c1.389-0.24,2.775-0.496,4.164-0.734
			c0.406-0.068,0.678,0.095,0.698,0.532c0.021,0.472,0.02,0.943,0.02,1.415c0.001,1.757-0.013,3.515,0.003,5.273
			c0.009,0.939,0.03,0.934,0.934,0.785c1.732-0.285,3.442-0.433,5.221-0.132c2.51,0.423,3.963,2.167,4.086,4.701
			c0.118,2.395,0.152,4.809-0.006,7.199c-0.213,3.217-1.806,4.904-5.05,5.621c-2.261,0.498-4.58,0.455-6.894,0.119
			c-0.84-0.121-1.689-0.236-2.54-0.32c-1.117-0.109-1.184-0.172-1.194-1.354c-0.012-1.457-0.002-2.916-0.004-4.373
			C59.963,17.825,59.963,15.594,59.963,13.366z M65.414,17.637c0,1.07,0.009,2.143-0.004,3.215
			c-0.008,0.523,0.186,0.809,0.744,0.793c0.686-0.016,1.378,0.041,2.059-0.025c1.102-0.107,1.781-0.855,1.798-1.953
			c0.022-1.674,0.022-3.346,0.001-5.018c-0.016-1.104-0.541-1.619-1.643-1.725c-0.748-0.074-1.439,0.17-2.139,0.359
			c-0.557,0.154-0.842,0.521-0.825,1.137C65.432,15.493,65.412,16.565,65.414,17.637z"/>
		<path fill-rule="evenodd" clip-rule="evenodd" fill="#CCCCC9" d="M117.057,15.479c1.097-1.729,2.195-3.459,3.291-5.19
			c0.229-0.361,0.459-0.723,0.678-1.091c0.291-0.489,0.707-0.699,1.28-0.69c1.331,0.019,2.659-0.014,3.987,0.014
			c0.893,0.017,1.014,0.23,0.553,0.977c-1.328,2.149-2.637,4.311-4.045,6.409c-0.566,0.848-0.543,1.475-0.013,2.322
			c1.387,2.211,2.679,4.484,4.001,6.736c0.527,0.902,0.438,1.059-0.643,1.076c-1.242,0.018-2.488-0.025-3.729,0.014
			c-0.748,0.023-1.171-0.314-1.526-0.936c-1.068-1.855-2.18-3.686-3.281-5.521c-0.171-0.285-0.311-0.607-0.756-0.852
			c0,0.705,0,1.332,0,1.957c0,1.416,0.018,2.83-0.009,4.246c-0.019,0.912-0.17,1.066-1.048,1.086c-1.242,0.029-2.488,0.027-3.73,0
			c-0.781-0.016-0.83-0.1-0.875-0.93c-0.012-0.213-0.002-0.43-0.002-0.645c0-7.16,0-14.322,0-21.484
			c0-0.258,0.004-0.515,0.007-0.772c0.005-0.492,0.214-0.805,0.729-0.895c1.346-0.237,2.687-0.502,4.033-0.73
			c0.516-0.087,0.824,0.181,0.872,0.699c0.031,0.341,0.022,0.685,0.022,1.027c0,3.946,0,7.891,0,11.836c0,0.426,0,0.852,0,1.275
			C116.922,15.44,116.989,15.459,117.057,15.479z"/>
		<path fill-rule="evenodd" clip-rule="evenodd" fill="#CCCCC9" d="M53.413,19.073c-1.2,0-2.399-0.014-3.601,0.008
			c-0.398,0.008-0.896-0.172-1.111,0.381c-0.19,0.494,0.027,1.312,0.471,1.639c0.455,0.334,0.965,0.533,1.551,0.543
			c2.012,0.029,4.02,0.02,6.002-0.402c1.048-0.223,1.178-0.104,1.194,1.006c0.015,0.857,0,1.715,0,2.572
			c0.001,0.551-0.233,0.846-0.806,0.961c-2.79,0.553-5.588,0.787-8.406,0.279c-3.882-0.701-5.222-2.859-5.641-6.197
			c-0.262-2.096-0.248-4.264,0.135-6.398c0.398-2.226,1.551-3.808,3.675-4.547c2.856-0.992,5.702-0.972,8.481,0.372
			c1.613,0.78,2.414,2.182,2.772,3.806c0.36,1.629,0.376,3.312,0.29,4.982c-0.041,0.797-0.203,0.967-1.021,0.986
			c-1.328,0.027-2.656,0.006-3.985,0.006C53.413,19.071,53.413,19.071,53.413,19.073z M50.639,15.2c0-0.002,0-0.006,0-0.01
			c0.512,0,1.023,0.006,1.535-0.004c0.35-0.004,0.522-0.186,0.58-0.541c0.191-1.164-0.621-2.111-1.913-2.207
			c-1.185-0.09-2.165,0.725-2.186,1.812c-0.017,0.783,0.081,0.904,0.833,0.947C49.871,15.219,50.256,15.2,50.639,15.2z"/>
		<path fill-rule="evenodd" clip-rule="evenodd" fill="#CCCCC9" d="M92.676,17.25c0,1.07,0.074,2.148-0.016,3.213
			c-0.16,1.883-0.971,3.463-2.574,4.523c-1.277,0.848-2.745,1.189-4.256,1.289c-1.196,0.078-2.393,0.023-3.571-0.262
			c-2.706-0.654-4.767-2.467-5.097-5.393c-0.275-2.445-0.32-4.865,0.086-7.281c0.326-1.956,1.492-3.437,3.262-4.197
			c2.955-1.272,6.006-1.273,8.959,0.104c2.109,0.984,3.037,2.808,3.2,5.046c0.071,0.98,0.013,1.971,0.013,2.957
			C92.68,17.25,92.678,17.25,92.676,17.25z M82.631,17.278c0,0.812-0.002,1.623,0,2.436c0,0.387,0.043,0.752,0.305,1.08
			c0.615,0.77,1.854,1.1,2.93,0.746c0.894-0.291,1.355-0.955,1.372-2.074c0.022-1.408,0.022-2.816,0.001-4.227
			c-0.025-1.879-1.971-2.974-3.619-2.045c-0.633,0.357-1.026,0.865-0.996,1.652C82.656,15.657,82.631,16.467,82.631,17.278z"/>
		<path fill-rule="evenodd" clip-rule="evenodd" fill="#CCCCC9" d="M94.193,16.963c0.092-1.049-0.137-2.375,0.172-3.695
			c0.588-2.524,2.205-4.029,4.627-4.641c2.277-0.576,4.566-0.526,6.819,0.271c1.733,0.616,2.889,1.803,3.534,3.479
			c0.273,0.709,0.5,1.487,0.516,2.239c0.045,2.221,0.266,4.455-0.231,6.654c-0.493,2.174-1.813,3.643-3.903,4.406
			c-2.244,0.816-4.537,0.801-6.818,0.23c-2.85-0.711-4.658-3.047-4.715-5.975C94.178,19.034,94.193,18.133,94.193,16.963z
			 M104.244,17.356c0,0,0.002,0,0.004,0c0-0.773,0-1.545,0-2.316c0-0.043,0-0.084-0.002-0.129c-0.039-0.977-0.516-1.623-1.407-1.902
			c-1.72-0.537-3.139,0.422-3.198,2.215c-0.047,1.369-0.004,2.742-0.014,4.113c-0.007,0.814,0.147,1.582,0.943,1.961
			c0.922,0.439,1.898,0.566,2.826-0.02c0.531-0.336,0.873-0.797,0.854-1.482C104.225,18.983,104.244,18.168,104.244,17.356z"/>
		<path fill-rule="evenodd" clip-rule="evenodd" fill="#CCCCC9" d="M26.532,19.411c0,1.887,0.014,3.773-0.007,5.66
			c-0.008,0.887-0.082,0.951-0.957,0.973c-0.943,0.023-1.887,0.008-2.831,0.004c-0.255-0.002-0.61,0.047-0.71-0.189
			c-0.381-0.887-0.973-0.451-1.495-0.27c-1.263,0.436-2.53,0.75-3.89,0.717c-3.487-0.084-5.352-2.895-4.953-6.109
			c0.059-0.465,0.154-0.932,0.301-1.375c0.498-1.518,1.732-2.182,3.148-2.551c0.867-0.227,1.764-0.336,2.672-0.289
			c0.599,0.031,1.205,0.051,1.799-0.01c0.498-0.049,1.184,0.338,1.435-0.439c0.183-0.568-0.322-1.709-0.831-2.033
			c-0.455-0.291-0.961-0.33-1.483-0.328c-1.372,0.008-2.745,0.01-4.116,0c-1.246-0.01-1.246-0.021-1.053-1.21
			c0.143-0.886,0.059-1.79,0.289-2.678c0.129-0.491,0.279-0.776,0.816-0.764c2.607,0.062,5.238-0.251,7.817,0.295
			c2.544,0.538,3.724,1.957,4.036,5.066c0.01,0.086,0.003,0.172,0.003,0.258c0,1.758,0,3.516,0,5.273
			C26.525,19.411,26.529,19.411,26.532,19.411z M19.371,19.86c0,0.008,0,0.014,0,0.021c-0.381,0-0.768-0.035-1.146,0.008
			c-0.578,0.066-0.91,0.412-0.957,1.006c-0.049,0.633,0.252,1.139,0.855,1.225c0.756,0.109,1.523,0.139,2.244-0.232
			c0.648-0.334,0.88-0.848,0.688-1.57c-0.158-0.598-0.651-0.418-1.045-0.453C19.797,19.844,19.584,19.86,19.371,19.86z"/>
		<path fill-rule="evenodd" clip-rule="evenodd" fill="#CCCCC9" d="M2.816,19.547c0-1.803,0.014-3.602-0.004-5.402
			c-0.01-0.908-0.055-0.93-0.943-0.973c-1.861-0.092-1.861-0.092-1.862-1.961c0-0.558-0.021-1.116,0.008-1.672
			c0.042-0.815,0.198-0.954,0.99-1.024c0.544-0.049,1.214,0.227,1.606-0.184c0.467-0.492,0.156-1.229,0.201-1.858
			c0.055-0.809-0.105-1.637,0.109-2.431c0.689-2.55,2.113-3.751,5-3.992c1.191-0.101,2.398-0.016,3.6-0.026
			c0.498-0.004,0.835,0.15,0.834,0.718c-0.002,1.07,0,2.143,0,3.215c0,0.469-0.227,0.715-0.703,0.719
			c-0.6,0.005-1.201-0.021-1.799,0.023c-1.002,0.078-1.465,0.55-1.576,1.526C8.266,6.31,8.266,6.395,8.266,6.48
			c0.001,2.372-0.189,2.002,1.939,2.035c0.473,0.008,0.943,0.008,1.416,0.005c0.555-0.006,0.785,0.28,0.713,0.809
			c-0.148,1.057-0.328,2.108-0.463,3.166c-0.061,0.479-0.305,0.674-0.762,0.67c-0.471-0.002-0.943,0.002-1.414,0.004
			c-1.426,0.008-1.433,0.008-1.434,1.389c-0.002,3.258,0,6.514,0.002,9.771c0.004,1.854,0.077,1.717-1.771,1.719
			c-0.9,0-1.801,0.016-2.701-0.008c-0.881-0.021-0.957-0.086-0.966-0.965C2.804,23.233,2.818,21.389,2.816,19.547z"/>
		<path fill-rule="evenodd" clip-rule="evenodd" fill="#CCCCC9" d="M33.723,17.342c0,0.729-0.012,1.457,0.002,2.186
			c0.027,1.428,0.582,2.021,2.016,2.105c1.544,0.092,3.076-0.027,4.594-0.344c0.25-0.053,0.502-0.119,0.756-0.133
			c0.352-0.021,0.584,0.166,0.589,0.525c0.015,1.115,0.019,2.23,0.004,3.344c-0.005,0.383-0.223,0.641-0.613,0.719
			c-2.571,0.502-5.151,0.904-7.755,0.26c-2.721-0.674-4.619-2.498-5.049-5.621c-0.312-2.27-0.361-4.533,0.082-6.766
			c0.489-2.448,1.926-4.167,4.413-4.853c1.878-0.52,3.769-0.692,5.71-0.312c0.748,0.147,1.533,0.12,2.279,0.332
			c0.84,0.239,0.93,0.334,0.949,1.256c0.018,0.815,0.021,1.63-0.003,2.443c-0.026,0.9-0.2,1.029-1.112,0.861
			c-1.515-0.281-3.035-0.506-4.584-0.434c-0.432,0.02-0.843,0.074-1.248,0.246c-0.666,0.287-1.02,0.76-1.021,1.482
			c-0.003,0.902,0,1.803,0,2.703C33.728,17.342,33.725,17.342,33.723,17.342z"/>
	</g>
</g>
</svg>
