<?xml version="1.0" encoding="utf-8"?>
<!-- Generator: Adobe Illustrator 16.0.4, SVG Export Plug-In . SVG Version: 6.00 Build 0)  -->
<!DOCTYPE svg PUBLIC "-//W3C//DTD SVG 1.1//EN" "http://www.w3.org/Graphics/SVG/1.1/DTD/svg11.dtd">
<svg version="1.1" id="Layer_1" xmlns="http://www.w3.org/2000/svg" xmlns:xlink="http://www.w3.org/1999/xlink" x="0px" y="0px"
	 width="53.267px" height="66.942px" viewBox="0 0 53.267 66.942" enable-background="new 0 0 53.267 66.942" xml:space="preserve">
<g>
	<g>
		<path fill="#CCCCC9" d="M31.726,52.193c0,0-4.505-9.927-4.505-20.877s4.86-15.914,6.909-17.705
			c2.046-1.792,6.703-4.606,11.002-4.606c4.297,0,6.805,2.814,6.805,2.814l1.33-1.79c0,0-7.164-7.012-16.271-7.012
			c-9.109,0-17.295,6.756-21.134,13.561C12.024,23.385,5.577,36.075,5.577,49.532l0.153,2.661H31.726z"/>
		<polygon fill="#CCCCC9" points="35.868,47.64 30.726,47.332 29.729,43.826 34.025,43.826 		"/>
		<polygon fill="#CCCCC9" points="28.577,31.75 28.373,35.153 32.44,36.969 32.312,33.746 		"/>
		<polygon fill="#CCCCC9" points="29.909,22.846 28.655,25.406 31.954,28.245 32.772,25.048 		"/>
		<polygon fill="#CCCCC9" points="31.774,16.655 33.822,14.838 35.844,17.705 34.667,19.802 		"/>
		<polygon fill="#CCCCC9" points="37.813,11.795 40.577,11.077 40.96,12.64 39.094,14.149 		"/>
		<polygon fill="#CCCCC9" points="46.256,10.516 46.256,11.974 48.866,12.331 48.866,11.104 		"/>
		<polygon fill="#CCCCC9" points="49.454,6.243 50.093,5.372 46.846,2.967 46.743,4.809 		"/>
		<polygon fill="#CCCCC9" points="33.259,0 33.848,2.763 37.839,2.763 37.454,0.128 		"/>
		<polygon fill="#CCCCC9" points="25.046,1.51 27.452,4.146 24.177,6.037 21.875,3.198 		"/>
		<polygon fill="#CCCCC9" points="14.122,9.874 17.603,12.179 14.941,15.3 11.41,12.945 		"/>
		<polygon fill="#CCCCC9" points="5.475,22.795 10.003,24.562 8.569,28.373 3.966,26.915 		"/>
		<polygon fill="#CCCCC9" points="5.679,39.452 4.81,44.517 0,44.005 0.587,39.092 		"/>
		<path fill="#CCCCC9" d="M9.575,63.048c2.016-0.251,2.762-2.381,2.762-3.973c0-1.593-0.787-2.726-2.149-3.263
			c-1.362-0.537-3.933-0.44-3.933-0.44H2.974v11.57h2.974v-2.993l2.649,2.629h4.547L9.575,63.048z M8.635,60.532H6.064v-2.014h2.571
			V60.532z"/>
		<g>
			<path fill="#CCCCC9" d="M23.946,58.039c0-0.787-0.634-2.629-3.262-2.629s-0.018,0-2.609,0c-2.59,0-3.127,1.861-3.127,2.858
				s0,8.328,0,8.328h3.031v-1.938h2.937v1.938h3.031C23.946,66.597,23.946,58.825,23.946,58.039z M20.838,61.435h-2.821v-3.107
				h2.821V61.435z"/>
		</g>
		<rect x="26.959" y="55.428" fill="#CCCCC9" width="3.128" height="11.016"/>
		<polygon fill="#CCCCC9" points="36.438,63.316 36.438,55.428 33.312,55.428 33.312,63.316 33.312,66.443 36.438,66.443 
			40.853,66.443 40.853,63.316 		"/>
		<path fill="#CCCCC9" d="M48.45,59.558c-0.285,0-1.279,0-2.418,0l-0.211-0.022v-1.056h5.026V55.41c-1.927,0-4.253-0.003-4.698,0
			c-2.42,0.018-3.705,1.323-3.705,2.845c0,0.328,0,0.642,0,1.172c0,2.833,3.014,3.197,4.012,3.197c0.247,0,0.805,0,1.504,0
			l0.05,0.023c0,0,0.537,0.016,0.537,0.7c0,0.684-0.537,0.663-0.537,0.663h-5.412v2.685c1.929,0,4.638,0,5.084,0
			c2.314,0,3.704-1.246,3.704-2.77c0-0.326,0-0.639,0-1.169C51.386,59.922,49.448,59.558,48.45,59.558z"/>
	</g>
</g>
</svg>
