<?xml version="1.0" encoding="utf-8"?>
<!-- Generator: Adobe Illustrator 16.0.4, SVG Export Plug-In . SVG Version: 6.00 Build 0)  -->
<!DOCTYPE svg PUBLIC "-//W3C//DTD SVG 1.1//EN" "http://www.w3.org/Graphics/SVG/1.1/DTD/svg11.dtd">
<svg version="1.1" id="Layer_1" xmlns="http://www.w3.org/2000/svg" xmlns:xlink="http://www.w3.org/1999/xlink" x="0px" y="0px"
	 width="298.708px" height="242.575px" viewBox="0 0 298.708 242.575" enable-background="new 0 0 298.708 242.575"
	 xml:space="preserve">
<path fill="#FFFFFF" d="M298.661,100.503L298.661,100.503c0.002-0.002,0-0.002,0-0.002l0.047-0.7l-0.406-0.06
	c-5.012-10.791-14.729-15.059-14.729-15.059S196.567,33.07,183.06,25.701c-13.509-7.368-17.548-11.408-23.981-11.84
	c-6.433-0.432-24.513,8.053-24.513,8.053s-92.252,38.768-107.73,44.73c-12.385,4.771-15.748,11.34-16.601,13.783l-0.212,0.002
	L0.454,223.038l288.11,19.065l0.574,0.308l0.019-0.269h0.002l-0.002-0.004L298.661,100.503z"/>
<g>
	<g>
		<path fill="#DC4242" d="M298.661,100.5l0.047-0.699l-0.406-0.06c-5.012-10.791-14.729-15.059-14.729-15.059
			S196.567,33.07,183.06,25.701c-13.509-7.368-17.548-11.408-23.981-11.84c-6.433-0.432-24.513,8.053-24.513,8.053
			s-92.252,38.768-107.73,44.73c-12.385,4.771-15.748,11.34-16.601,13.783l-0.212,0.002l-0.647,9.657L9.577,90.1
			c0.839-2.465,4.188-9.204,16.632-14.104c15.487-6.099,107.798-45.741,107.798-45.741s18.092-8.674,24.525-8.241
			c6.434,0.432,10.469,4.544,23.967,12.039c13.5,7.494,100.444,59.996,100.444,59.996s9.746,4.352,14.733,15.384l0.383,0.026
			l0.602-8.955h0.002C298.663,100.501,298.661,100.501,298.661,100.5z"/>
	</g>
</g>
<path fill="#EF4137" d="M298.014,110.154l0.046-0.695l-0.384-0.026C297.788,109.676,297.909,109.904,298.014,110.154z"/>
<g>
	<g>
		<g>
			<path fill="#EFEFEF" d="M296.429,113.738c0.312,1.453-0.622,2.896-2.075,3.208L63.22,166.495
				c-1.453,0.312-2.896-0.623-3.208-2.076L36.089,52.816c-0.312-1.453,0.622-2.896,2.075-3.208L269.295,0.06
				c1.453-0.312,2.896,0.622,3.207,2.075L296.429,113.738z"/>
		</g>
	</g>
</g>
<path fill="#DB4B4B" d="M289.139,242.411l9.568-142.609c0,0-26.559-1.513-52.027,8.896c-25.469,10.407-85.078,36.024-85.078,36.024
	s-9.669,3.658-9.975,8.216c-0.308,4.558,1.834,16.817,1.834,16.817L289.139,242.411z"/>
<g>
	<g>
		<path fill="#F9F9FA" d="M288.917,122.82c0.271,1.462-0.705,2.878-2.166,3.146L54.283,168.825
			c-1.461,0.268-2.877-0.707-3.146-2.168L30.445,54.41c-0.27-1.461,0.705-2.877,2.166-3.146L265.079,8.406
			c1.461-0.269,2.877,0.706,3.146,2.168L288.917,122.82z"/>
	</g>
</g>
<g>
	<g>
		<path fill="#7F8082" d="M221.625,12.859c-0.246-0.293-0.652-0.393-0.99-0.239c-0.344,0.155-0.532,0.52-0.465,0.903
			c0.018,0.092,0.045,0.182,0.072,0.274c0.268,0.972,0.536,1.942,0.807,2.915l1.65-0.305c-0.267-0.959-0.533-1.918-0.8-2.879
			C221.836,13.294,221.79,13.054,221.625,12.859z"/>
		<path fill="#7F8082" d="M230.918,10.82c-0.146-0.523-0.527-0.775-0.986-0.671c-0.455,0.104-0.727,0.562-0.625,1.072
			c0.031,0.159,0.082,0.315,0.125,0.472c0.314,1.137,4.117,14.831,5.709,20.54c0.247,0.888,0.1,1.674-0.533,2.327
			c-1.242,1.287-3.37,0.751-3.859-0.97c-0.767-2.706-1.508-5.421-2.261-8.134c-0.889-3.208-1.778-6.415-2.667-9.624
			c-0.623-2.253-1.246-4.509-1.865-6.764c-0.51-1.863,0.721-3.981,2.57-4.531c2.225-0.659,4.352,0.507,4.971,2.743
			c0.662,2.38,1.32,4.76,1.981,7.139l1.651-0.303c-0.68-2.445-1.356-4.892-2.034-7.337c-0.089-0.327-0.197-0.644-0.345-0.952
			c-1.045-2.213-3.51-3.5-5.938-3.094c-2.396,0.4-4.297,2.391-4.603,4.781c-0.123,0.963,0.054,1.887,0.306,2.801
			c0.538,1.943,1.077,3.885,1.614,5.828c1.539,5.555,3.078,11.107,4.619,16.661c0.131,0.469,0.283,0.931,0.424,1.397
			c0.656,2.192,3.289,3.393,5.459,2.379c1.656-0.774,2.674-2.736,2.205-4.436C235.231,26.327,231.276,12.112,230.918,10.82z"/>
	</g>
</g>
<g opacity="0.4">
	<g>
		<g>
			<path fill="#969696" d="M260.534,48.519c-0.119-0.651-0.396-1.207-0.85-1.684c-0.922-0.965-2.021-1.311-3.338-1.068
				c-8.072,1.487-16.146,2.965-24.219,4.445c-2.4,0.44-4.803,0.874-7.199,1.323c-1.996,0.376-3.196,2.132-2.834,4.116
				c2.322,12.66,4.644,25.32,6.97,37.977c0.041,0.229,0.089,0.459,0.174,0.671c0.476,1.188,1.976,2.47,3.884,2.104
				c1.903-0.364,3.81-0.703,5.713-1.052c0.143-0.025,0.285-0.054,0.482-0.087c0.391,2.132,0.771,4.206,1.174,6.402
				c1.346-1.955,2.614-3.807,3.905-5.688c1.879,1.297,3.735,2.579,5.591,3.861c0.032-0.021,0.062-0.041,0.094-0.061
				c-0.381-2.085-0.765-4.169-1.152-6.279c0.197-0.038,0.357-0.066,0.517-0.096c5.07-0.93,10.136-1.877,15.208-2.78
				c2.186-0.39,3.146-2.624,2.864-4.134C265.161,73.84,262.853,61.177,260.534,48.519z M264.061,85.908
				c0.126,0.778-0.583,1.595-1.447,1.764c-0.842,0.166-1.689,0.312-2.535,0.467c-3.74,0.688-7.481,1.372-11.223,2.059
				c-0.16,0.03-0.318,0.06-0.516,0.096c-0.194-1.064-0.385-2.104-0.582-3.178c-3.221,0.591-6.399,1.174-9.623,1.765
				c0.191,1.043,0.381,2.084,0.576,3.154c-0.153,0.037-0.269,0.073-0.385,0.095c-1.406,0.26-2.818,0.498-4.222,0.781
				c-0.964,0.195-2.013-0.475-2.149-1.489c-0.209-1.524-0.539-3.031-0.822-4.576c10.679-1.96,21.33-3.913,32.033-5.876
				C263.472,82.637,263.795,84.267,264.061,85.908z M262.59,77.729c-0.176,0.041-0.313,0.079-0.455,0.104
				c-8.248,1.516-16.496,3.024-24.742,4.549c-0.383,0.072-0.484-0.035-0.551-0.392c-1.698-9.31-3.406-18.617-5.114-27.923
				c-0.024-0.133-0.049-0.265-0.079-0.43c8.571-1.572,17.104-3.137,25.66-4.706C259.066,58.516,260.825,68.099,262.59,77.729z"/>
			<path fill="#969696" d="M238.622,55.66c-1.055,0.193-2.084,0.383-3.145,0.578c0.197,1.08,0.391,2.128,0.58,3.165
				c1.072-0.196,2.111-0.388,3.145-0.577C239.006,57.755,238.815,56.716,238.622,55.66z"/>
			<path fill="#969696" d="M242.15,74.897c-1.063,0.194-2.103,0.386-3.157,0.579c0.193,1.06,0.383,2.096,0.577,3.154
				c1.091-0.2,2.125-0.391,3.158-0.58C242.534,76.979,242.342,75.942,242.15,74.897z"/>
			<path fill="#969696" d="M240.978,68.477c-1.06,0.193-2.095,0.384-3.155,0.577c0.2,1.085,0.391,2.121,0.58,3.156
				c1.066-0.194,2.104-0.386,3.153-0.578C241.36,70.572,241.172,69.537,240.978,68.477z"/>
			<path fill="#969696" d="M239.807,62.089c-1.07,0.197-2.105,0.387-3.155,0.58c0.193,1.057,0.384,2.091,0.575,3.136
				c1.066-0.195,2.102-0.386,3.156-0.579C240.189,64.175,240.002,63.151,239.807,62.089z"/>
		</g>
	</g>
	<g enable-background="new    ">
		<path fill="#669999" d="M81.359,85.776l8.426-1.545c5.027-0.922,9.366,0.185,10.392,5.778c0.994,5.418-2.707,8.585-7.593,9.481
			l-3.187,0.584l1.436,7.824l-5.24,0.961L81.359,85.776z M91.506,95.408c2.867-0.526,4.015-2.054,3.573-4.462
			c-0.442-2.406-2.092-3.02-4.854-2.513l-2.867,0.526l1.279,6.976L91.506,95.408z"/>
		<path fill="#669999" d="M119.513,102.64l-5.952-7.509l-2.832,0.52l1.526,8.32l-5.24,0.961l-4.233-23.084l8.32-1.526
			c4.886-0.896,9.233,0.063,10.239,5.551c0.624,3.399-0.645,5.863-2.886,7.409l6.899,8.286L119.513,102.64z M109.969,91.509
			l2.655-0.487c2.727-0.5,3.999-1.941,3.583-4.207c-0.415-2.267-2.045-2.772-4.771-2.272l-2.656,0.487L109.969,91.509z"/>
		<path fill="#669999" d="M124.558,77.854l5.24-0.961l4.233,23.084l-5.239,0.961L124.558,77.854z"/>
		<path fill="#669999" d="M132.205,76.451l5.523-1.013l4.771,10.25c1.135,2.391,2.023,4.643,3.199,7.062l0.142-0.026
			c0.24-2.679,0.272-5.1,0.483-7.737l0.753-11.264l5.346-0.98l-2.742,24.363l-6.267,1.149L132.205,76.451z"/>
		<path fill="#669999" d="M168.29,88.021l-7.08,1.298l-0.41,5.747l-5.311,0.974l3.025-24.415l6.23-1.143l11.492,21.753l-5.523,1.013
			L168.29,88.021z M166.483,84.144l-0.957-2.02c-1.059-2.184-2.162-4.8-3.24-7.09l-0.143,0.026c-0.082,2.54-0.225,5.348-0.441,7.766
			l-0.176,2.228L166.483,84.144z"/>
		<path fill="#669999" d="M178.334,72.528l-6.373,1.169l-0.807-4.39l17.916-3.286l0.805,4.39l-6.338,1.162l3.43,18.694l-5.205,0.955
			L178.334,72.528z"/>
		<path fill="#669999" d="M192.649,65.365l14.48-2.656l0.805,4.39l-9.24,1.695l0.85,4.639l7.861-1.441l0.799,4.355l-7.861,1.441
			l0.975,5.31l9.594-1.76l0.807,4.391l-14.836,2.721L192.649,65.365z"/>
	</g>
	<g enable-background="new    ">
		<path fill="#262626" d="M138.81,103.91c0.899-0.165,1.694,0.141,2.234,0.555l-0.43,0.709c-0.481-0.352-1.017-0.541-1.639-0.426
			c-1.44,0.265-2.183,1.616-1.838,3.495c0.349,1.902,1.479,2.934,2.921,2.669c0.715-0.131,1.189-0.528,1.574-1.158l0.649,0.489
			c-0.461,0.799-1.136,1.34-2.093,1.515c-1.902,0.349-3.586-0.843-4.039-3.31C135.705,106.015,136.873,104.265,138.81,103.91z"/>
		<path fill="#262626" d="M142.37,107.271c-0.444-2.42,0.624-4.129,2.526-4.478c1.891-0.347,3.498,0.884,3.939,3.292
			c0.446,2.433-0.611,4.199-2.502,4.546C144.432,110.98,142.816,109.704,142.37,107.271z M147.846,106.267
			c-0.345-1.879-1.446-2.88-2.795-2.633c-1.359,0.25-2.034,1.576-1.689,3.455c0.347,1.891,1.459,2.95,2.818,2.7
			C147.528,109.542,148.191,108.157,147.846,106.267z"/>
		<path fill="#262626" d="M149.718,102.051l0.992-0.182l3.615,4.246l1.105,1.418l0.045-0.008c-0.186-0.752-0.422-1.591-0.568-2.386
			l-0.717-3.908l0.912-0.167l1.387,7.562l-0.992,0.182l-3.604-4.259l-1.105-1.407l-0.045,0.009c0.186,0.752,0.402,1.546,0.549,2.342
			l0.725,3.953l-0.91,0.167L149.718,102.051z"/>
		<path fill="#262626" d="M157.12,100.694l4.367-0.801l0.148,0.808l-3.398,0.624l0.469,2.559l2.881-0.529l0.148,0.807l-2.881,0.529
			l0.621,3.389l-0.969,0.178L157.12,100.694z"/>
		<path fill="#262626" d="M162.756,99.66l0.969-0.177l1.387,7.562l-0.969,0.177L162.756,99.66z"/>
		<path fill="#262626" d="M165.708,99.118l1.891-0.347c2.328-0.427,3.82,0.693,4.262,3.091c0.441,2.409-0.547,4.044-2.828,4.462
			l-1.938,0.355L165.708,99.118z M168.772,105.562c1.764-0.323,2.447-1.604,2.096-3.518c-0.35-1.901-1.432-2.799-3.195-2.476
			l-0.863,0.159l1.1,5.994L168.772,105.562z"/>
		<path fill="#262626" d="M172.752,97.827l4.355-0.799l0.148,0.808l-3.389,0.622l0.436,2.374l2.859-0.524l0.15,0.818l-2.859,0.524
			l0.504,2.743l3.504-0.643l0.15,0.818l-4.473,0.82L172.752,97.827z"/>
		<path fill="#262626" d="M178.77,96.723l0.99-0.182l3.615,4.246l1.105,1.418l0.047-0.008c-0.186-0.752-0.424-1.591-0.568-2.386
			l-0.717-3.908l0.91-0.167l1.387,7.562l-0.992,0.182l-3.604-4.259l-1.104-1.407l-0.047,0.009c0.186,0.752,0.402,1.546,0.549,2.342
			l0.725,3.953l-0.91,0.167L178.77,96.723z"/>
		<path fill="#262626" d="M187.899,95.883l-2.295,0.421l-0.148-0.808L191,94.479l0.148,0.808l-2.293,0.421l1.238,6.754l-0.957,0.175
			L187.899,95.883z"/>
		<path fill="#262626" d="M192.293,94.243l0.967-0.178l1.389,7.562l-0.969,0.178L192.293,94.243z"/>
		<path fill="#262626" d="M199.69,98.32l-2.756,0.505l-0.303,2.438l-0.98,0.18l1.172-8.031l1.084-0.199l3.945,7.092l-1.014,0.186
			L199.69,98.32z M199.305,97.592l-0.568-1.088c-0.42-0.792-0.814-1.578-1.217-2.41l-0.045,0.009
			c-0.082,0.92-0.172,1.794-0.283,2.684l-0.156,1.221L199.305,97.592z"/>
		<path fill="#262626" d="M201.469,92.56l0.969-0.178l1.236,6.743l3.297-0.604l0.15,0.818l-4.266,0.782L201.469,92.56z"/>
	</g>
</g>
<path fill="#DB4B4B" d="M0.454,223.038L10.023,80.43c0,0,26.524,2.051,50.374,15.767c23.85,13.718,79.501,47.068,79.501,47.068
	s9.096,4.917,8.789,9.474c-0.306,4.561-4.064,16.424-4.064,16.424L0.454,223.038z"/>
<path fill="#DC4242" stroke="#C13736" stroke-width="0.7832" stroke-miterlimit="10" d="M289.159,242.142
	c-4.893-11.367-15.091-15.82-15.091-15.82s-87.006-51.612-100.514-58.981c-13.507-7.369-17.548-11.408-23.98-11.84
	c-6.434-0.433-24.514,8.054-24.514,8.054s-92.25,38.767-107.729,44.729c-15.478,5.963-16.877,14.754-16.877,14.754L289.159,242.142z
	"/>
<circle fill="#FFFFFF" stroke="#E2E2E2" stroke-width="0.7832" stroke-miterlimit="10" cx="149.822" cy="163.865" r="23.911"/>
<path opacity="0.8" fill="#EEB2A5" enable-background="new    " d="M159.631,162.456l-2.248-0.188l0.309-3.721
	c0.303-3.604-2.375-6.764-5.98-7.063c-0.043-0.005-0.076-0.008-0.125-0.012c-0.031-0.003-0.078-0.005-0.114-0.007
	c-3.603-0.303-6.764,2.373-7.065,5.979l-0.31,3.716l-2.248-0.188c-0.542-0.043-1.024,0.364-1.07,0.905l-1.015,12.186
	c-0.045,0.542,0.362,1.023,0.905,1.068l17.781,1.482c0.545,0.045,1.026-0.361,1.071-0.904l1.017-12.185
	C160.581,162.981,160.174,162.499,159.631,162.456z M151.786,167.711c-0.129,0.17-0.295,0.326-0.474,0.438
	c-0.168,0.104-0.22,0.228-0.231,0.41c-0.064,0.869-0.14,1.737-0.215,2.604c-0.046,0.498-0.309,0.834-0.699,0.928
	c-0.565,0.136-1.103-0.256-1.106-0.859c-0.003-0.518,0.077-1.037,0.12-1.559c-0.007,0-0.011,0-0.019,0
	c0.034-0.416,0.06-0.832,0.109-1.243c0.025-0.211-0.029-0.343-0.19-0.486c-0.7-0.636-0.748-1.71-0.13-2.43
	c0.637-0.742,1.74-0.847,2.5-0.235C152.206,165.885,152.359,166.956,151.786,167.711z M147.357,161.432l0.309-3.717
	c0.15-1.793,1.731-3.141,3.534-2.99c0.043,0.003,0.155,0.014,0.155,0.014s0.054,0.004,0.084,0.008
	c1.794,0.147,3.136,1.739,2.985,3.529l-0.312,3.721L147.357,161.432z"/>
</svg>
