<?xml version="1.0" encoding="utf-8"?>
<!-- Generator: Adobe Illustrator 16.0.4, SVG Export Plug-In . SVG Version: 6.00 Build 0)  -->
<!DOCTYPE svg PUBLIC "-//W3C//DTD SVG 1.1//EN" "http://www.w3.org/Graphics/SVG/1.1/DTD/svg11.dtd">
<svg version="1.1" id="Layer_1" xmlns="http://www.w3.org/2000/svg" xmlns:xlink="http://www.w3.org/1999/xlink" x="0px" y="0px"
	 width="38.684px" height="30.748px" viewBox="0 0 38.684 30.748" enable-background="new 0 0 38.684 30.748" xml:space="preserve">
<g>
	<g>
		<path fill-rule="evenodd" clip-rule="evenodd" fill="#B8BABC" d="M26.16,12.392c-2.185,6.103-4.356,12.172-6.568,18.356
			c-2.208-6.168-4.381-12.239-6.57-18.356C17.411,12.392,21.752,12.392,26.16,12.392z"/>
		<path fill-rule="evenodd" clip-rule="evenodd" fill="#B8BABC" d="M18.3,30.604C12.212,24.517,6.167,18.471,0.051,12.353
			c0.588,0,1.119,0,1.651,0c3.001,0,6.005,0.003,9.008-0.003c0.259,0,0.429,0.036,0.542,0.327c2.325,5.921,4.663,11.835,6.998,17.75
			C18.267,30.472,18.275,30.521,18.3,30.604z"/>
		<path fill-rule="evenodd" clip-rule="evenodd" fill="#B8BABC" d="M38.684,12.355c-5.87,6.153-11.648,12.211-17.428,18.272
			c-0.018-0.012-0.035-0.021-0.053-0.033c0.43-1.137,0.855-2.275,1.285-3.414c1.809-4.81,3.623-9.618,5.424-14.433
			c0.111-0.298,0.253-0.396,0.567-0.393c3.191,0.009,6.384,0.002,9.576,0C38.229,12.355,38.399,12.355,38.684,12.355z"/>
		<path fill-rule="evenodd" clip-rule="evenodd" fill="#B8BABC" d="M25.132,10.77c-4.05,0-8.026,0-12.097,0
			c2.026-3.096,4.021-6.144,6.049-9.239C21.106,4.619,23.102,7.669,25.132,10.77z"/>
		<path fill-rule="evenodd" clip-rule="evenodd" fill="#B8BABC" d="M28.09,10.771c1.455-3.357,2.895-6.678,4.371-10.084
			c2.09,3.387,4.139,6.709,6.219,10.084C35.123,10.771,31.639,10.771,28.09,10.771z"/>
		<path fill-rule="evenodd" clip-rule="evenodd" fill="#B8BABC" d="M26.698,10.106c-2.201-3.388-4.362-6.714-6.558-10.09
			c3.495,0,6.938,0,10.427,0C29.275,3.382,27.999,6.713,26.698,10.106z"/>
		<path fill-rule="evenodd" clip-rule="evenodd" fill="#B8BABC" d="M7.932,0c3.492,0,6.92,0,10.445,0
			c-2.314,3.382-4.588,6.711-6.908,10.106C10.281,6.711,9.116,3.382,7.932,0z"/>
		<path fill-rule="evenodd" clip-rule="evenodd" fill="#B8BABC" d="M0,10.77C2.243,7.403,4.456,4.083,6.719,0.688
			c1.246,3.394,2.465,6.716,3.699,10.082C6.937,10.77,3.504,10.77,0,10.77z"/>
	</g>
</g>
</svg>
