<?xml version="1.0" encoding="utf-8"?>
<!-- Generator: Adobe Illustrator 16.0.4, SVG Export Plug-In . SVG Version: 6.00 Build 0)  -->
<!DOCTYPE svg PUBLIC "-//W3C//DTD SVG 1.1//EN" "http://www.w3.org/Graphics/SVG/1.1/DTD/svg11.dtd">
<svg version="1.1" id="Layer_1" xmlns="http://www.w3.org/2000/svg" xmlns:xlink="http://www.w3.org/1999/xlink" x="0px" y="0px"
	 width="24.388px" height="30.749px" viewBox="0 0 24.388 30.749" enable-background="new 0 0 24.388 30.749" xml:space="preserve">
<path fill-rule="evenodd" clip-rule="evenodd" fill="#B8BABC" d="M24.384,2.479c0-0.229-0.016-0.461-0.065-0.681
	c-0.286-1.182-1.12-1.796-2.464-1.796C15.448-0.001,9.032,0,2.624,0C0.901,0,0.02,0.883,0.02,2.603c0,4.261,0,8.524,0,12.786
	c0,4.283,0.03,8.562-0.02,12.845c-0.012,1.348,0.973,2.529,2.481,2.514c6.484-0.053,12.966-0.02,19.448-0.021
	c1.553,0,2.456-0.898,2.457-2.459C24.39,19.671,24.388,11.073,24.384,2.479z M8.578,23.919c-1.042,1.02-2.062,2.064-3.094,3.088
	c-0.091,0.092-0.172,0.273-0.336,0.18c-0.118-0.064-0.073-0.223-0.074-0.34c-0.003-1.092-0.002-2.184-0.002-3.268
	c0.005,0,0.011,0,0.017,0c0-1.092-0.001-2.182,0-3.268c0-0.119-0.06-0.271,0.081-0.33c0.138-0.061,0.215,0.092,0.294,0.174
	c1.042,1.025,2.067,2.053,3.112,3.072C8.824,23.474,8.85,23.654,8.578,23.919z M18.573,27.38c-0.757-0.029-1.517-0.01-2.274-0.012
	c-0.768-0.002-0.77-0.002-0.77-0.75c0-3.119,0-6.236,0-9.354c0-0.985-0.016-1.97,0.005-2.958c0.007-0.535-0.255-0.819-0.718-0.969
	c-0.601-0.199-1.222-0.166-1.832-0.082c-2.519,0.312-4.888,1.183-7.251,2.049c-0.656,0.242-0.682,0.234-0.683-0.454
	C5.044,11.21,5.053,7.562,5.033,3.921C5.03,3.459,5.192,3.348,5.609,3.349C6.474,3.37,7.339,3.37,8.199,3.343
	c0.468-0.02,0.604,0.166,0.601,0.619C8.784,6.109,8.786,8.257,8.79,10.407c0.001,0.691,0.003,0.688,0.687,0.475
	c1.788-0.568,3.603-0.963,5.496-0.883c0.896,0.04,1.754,0.228,2.521,0.697c1.159,0.708,1.625,1.832,1.65,3.131
	c0.031,2.146,0.007,4.293,0.007,6.442c0.006,0,0.013,0,0.019,0c0,2.168-0.01,4.336,0.006,6.498
	C19.175,27.218,19.039,27.4,18.573,27.38z M20.359,3.878c-0.676,1.424-1.488,2.75-2.456,3.992c-0.161,0.203-0.349,0.271-0.591,0.267
	c-0.511-0.009-1.021-0.003-1.531-0.002c-0.533,0-1.057-0.004-1.59,0.002C13.89,8.14,13.728,8.08,13.962,7.758
	c0.924-1.274,1.662-2.655,2.315-4.077c0.112-0.252,0.3-0.323,0.55-0.323c1.072,0.004,2.145,0.009,3.217-0.002
	C20.464,3.353,20.525,3.522,20.359,3.878z"/>
</svg>
