<?xml version="1.0" encoding="utf-8"?>
<!-- Generator: Adobe Illustrator 16.0.4, SVG Export Plug-In . SVG Version: 6.00 Build 0)  -->
<!DOCTYPE svg PUBLIC "-//W3C//DTD SVG 1.1//EN" "http://www.w3.org/Graphics/SVG/1.1/DTD/svg11.dtd">
<svg version="1.1" id="Layer_1" xmlns="http://www.w3.org/2000/svg" xmlns:xlink="http://www.w3.org/1999/xlink" x="0px" y="0px"
	 width="20.001px" height="18.668px" viewBox="0 0 20.001 18.668" enable-background="new 0 0 20.001 18.668" xml:space="preserve">
<path fill="#3CA85B" d="M19.865,3.065C20.123,2.656,20,2.096,19.6,1.833l-2.576-1.696c-0.403-0.26-0.945-0.141-1.207,0.271
	L8.419,12.286c-0.26,0.414-0.801,0.534-1.206,0.269L3.006,9.771c-0.399-0.26-0.946-0.143-1.202,0.271l-1.664,2.666
	c-0.263,0.412-0.145,0.975,0.255,1.237l6.591,4.391c0.405,0.269,1.118,0.401,1.589,0.295l0.99-0.222
	c0.466-0.099,1.064-0.523,1.317-0.94L19.865,3.065z"/>
</svg>
