<?xml version="1.0" encoding="utf-8"?>
<!-- Generator: Adobe Illustrator 16.0.4, SVG Export Plug-In . SVG Version: 6.00 Build 0)  -->
<!DOCTYPE svg PUBLIC "-//W3C//DTD SVG 1.1//EN" "http://www.w3.org/Graphics/SVG/1.1/DTD/svg11.dtd">
<svg version="1.1" id="Layer_1" xmlns="http://www.w3.org/2000/svg" xmlns:xlink="http://www.w3.org/1999/xlink" x="0px" y="0px"
	 width="32px" height="32px" viewBox="0 0 32 32" enable-background="new 0 0 32 32" xml:space="preserve">
<path fill-rule="evenodd" clip-rule="evenodd" fill="#B8BABC" d="M15.762,0C7.059,0,0,7.058,0,15.765
	c0,6.963,4.518,12.872,10.781,14.958c0.788,0.145,1.076-0.342,1.076-0.76c0-0.375-0.013-1.367-0.021-2.682
	c-4.386,0.953-5.31-2.113-5.31-2.113c-0.716-1.82-1.75-2.307-1.75-2.307c-1.431-0.979,0.108-0.957,0.108-0.957
	c1.582,0.111,2.416,1.623,2.416,1.623c1.405,2.41,3.688,1.715,4.586,1.311c0.143-1.02,0.55-1.713,1-2.107
	c-3.5-0.398-7.18-1.75-7.18-7.792c0-1.721,0.614-3.127,1.623-4.23C7.167,10.31,6.626,8.707,7.484,6.539c0,0,1.324-0.426,4.333,1.614
	c1.259-0.348,2.607-0.525,3.947-0.529c1.339,0.004,2.688,0.182,3.946,0.529c3.011-2.04,4.33-1.614,4.33-1.614
	c0.86,2.168,0.32,3.771,0.158,4.169c1.01,1.104,1.619,2.51,1.619,4.23c0,6.057-3.684,7.387-7.196,7.778
	c0.565,0.488,1.069,1.449,1.069,2.922c0,2.107-0.019,3.807-0.019,4.324c0,0.42,0.284,0.91,1.083,0.756
	c6.26-2.088,10.771-7.992,10.771-14.954C31.527,7.058,24.468,0,15.762,0z"/>
</svg>
