<?xml version="1.0" encoding="utf-8"?>
<!-- Generator: Adobe Illustrator 16.0.4, SVG Export Plug-In . SVG Version: 6.00 Build 0)  -->
<!DOCTYPE svg PUBLIC "-//W3C//DTD SVG 1.1//EN" "http://www.w3.org/Graphics/SVG/1.1/DTD/svg11.dtd">
<svg version="1.1" id="Layer_1" xmlns="http://www.w3.org/2000/svg" xmlns:xlink="http://www.w3.org/1999/xlink" x="0px" y="0px"
	 width="38.684px" height="30.748px" viewBox="0 0 38.684 30.748" enable-background="new 0 0 38.684 30.748" xml:space="preserve">
<g>
	<g>
		<g>
			<g>
				<path fill="#B8BABC" d="M13.479,23.3V9.866c1.22-0.707,2.04-2.027,2.04-3.535c0-2.264-1.833-4.096-4.093-4.096
					c-2.261,0-4.091,1.832-4.091,4.096c0,1.514,0.827,2.836,2.052,3.547v13.409c-1.226,0.711-2.052,2.033-2.052,3.553
					c0,2.26,1.832,4.092,4.091,4.092c2.26,0,4.093-1.832,4.093-4.092C15.519,25.325,14.698,24.005,13.479,23.3z M11.426,4.273
					c1.136,0,2.057,0.925,2.057,2.062c0,1.138-0.921,2.055-2.057,2.055c-1.138,0-2.058-0.917-2.058-2.055
					C9.368,5.198,10.288,4.273,11.426,4.273z M11.426,28.899c-1.138,0-2.058-0.918-2.058-2.055c0-1.139,0.922-2.061,2.058-2.061
					s2.057,0.922,2.057,2.061C13.483,27.981,12.562,28.899,11.426,28.899z"/>
			</g>
		</g>
		<g>
			<g>
				<path fill="#B8BABC" d="M29.852,23.286V10.358c0-6.452-5.854-6.061-5.854-6.061h-2.311V0.183L15.56,6.331l6.128,6.133v-4.1
					h2.311c1.782,0,1.76,1.994,1.76,1.994v12.944c-1.217,0.705-2.034,2.023-2.034,3.537c0,2.26,1.832,4.092,4.092,4.092
					c2.262,0,4.093-1.832,4.093-4.092C31.908,25.319,31.079,23.993,29.852,23.286z M27.815,28.899c-1.138,0-2.058-0.918-2.058-2.055
					c0-1.139,0.92-2.061,2.058-2.061c1.137,0,2.058,0.922,2.058,2.061C29.873,27.981,28.952,28.899,27.815,28.899z"/>
			</g>
		</g>
	</g>
</g>
</svg>
