<?xml version="1.0" encoding="utf-8"?>
<!-- Generator: Adobe Illustrator 22.0.1, SVG Export Plug-In . SVG Version: 6.00 Build 0)  -->
<svg version="1.1" id="Layer_1" xmlns="http://www.w3.org/2000/svg" xmlns:xlink="http://www.w3.org/1999/xlink" x="0px" y="0px"
	 viewBox="0 0 147.3 56.2" style="enable-background:new 0 0 147.3 56.2;" xml:space="preserve">
<style type="text/css">
	.st0{opacity:0.4;fill:#010101;}
</style>
<path id="icon-github" class="st0" d="M91.5,20.7c-7.6,0-13.8,6.4-13.8,14.2c0,6.3,4,11.6,9.5,13.5c0.7,0.1,0.9-0.3,0.9-0.7
	c0-0.3,0-1.2,0-2.4c-3.8,0.9-4.7-1.9-4.7-1.9c-0.6-1.6-1.5-2.1-1.5-2.1c-1.3-0.9,0.1-0.9,0.1-0.9c1.4,0.1,2.1,1.5,2.1,1.5
	c1.2,2.2,3.2,1.5,4,1.2c0.1-0.9,0.5-1.5,0.9-1.9c-3.1-0.4-6.3-1.6-6.3-7c0-1.6,0.5-2.8,1.4-3.8c-0.1-0.4-0.6-1.8,0.1-3.8
	c0,0,1.2-0.4,3.8,1.5c1.1-0.3,2.3-0.5,3.5-0.5c1.2,0,2.4,0.2,3.5,0.5c2.6-1.8,3.8-1.5,3.8-1.5c0.8,2,0.3,3.4,0.1,3.8
	c0.9,1,1.4,2.3,1.4,3.8c0,5.4-3.2,6.7-6.3,7c0.5,0.4,0.9,1.3,0.9,2.6c0,1.9,0,3.4,0,3.9c0,0.4,0.2,0.8,0.9,0.7
	c5.5-1.9,9.5-7.2,9.5-13.5C105.3,27,99.1,20.7,91.5,20.7z"/>
</svg>
