<?xml version="1.0" encoding="utf-8"?>
<!-- Generator: Adobe Illustrator 16.0.4, SVG Export Plug-In . SVG Version: 6.00 Build 0)  -->
<!DOCTYPE svg PUBLIC "-//W3C//DTD SVG 1.1//EN" "http://www.w3.org/Graphics/SVG/1.1/DTD/svg11.dtd">
<svg version="1.1" id="Layer_1" xmlns="http://www.w3.org/2000/svg" xmlns:xlink="http://www.w3.org/1999/xlink" x="0px" y="0px"
	 width="15.379px" height="15.001px" viewBox="0 0 15.379 15.001" enable-background="new 0 0 15.379 15.001" xml:space="preserve">
<path fill-rule="evenodd" clip-rule="evenodd" fill="#939598" d="M7.688,0C3.443,0,0,3.443,0,7.69c0,3.396,2.203,6.276,5.26,7.296
	c0.385,0.07,0.523-0.169,0.523-0.372c0-0.183-0.006-0.664-0.008-1.308c-2.141,0.468-2.592-1.027-2.592-1.027
	c-0.35-0.893-0.854-1.127-0.854-1.127c-0.697-0.479,0.053-0.469,0.053-0.469c0.771,0.057,1.178,0.791,1.178,0.791
	c0.686,1.176,1.799,0.838,2.236,0.643c0.072-0.498,0.271-0.836,0.49-1.029c-1.707-0.196-3.504-0.855-3.504-3.803
	c0-0.835,0.299-1.521,0.793-2.061C3.498,5.031,3.234,4.248,3.652,3.188c0,0,0.645-0.205,2.113,0.789
	c0.613-0.17,1.27-0.255,1.924-0.259c0.654,0.004,1.312,0.089,1.926,0.259c1.467-0.994,2.111-0.789,2.111-0.789
	c0.418,1.061,0.154,1.844,0.076,2.037c0.494,0.539,0.791,1.226,0.791,2.061c0,2.959-1.797,3.604-3.51,3.796
	c0.275,0.236,0.52,0.706,0.52,1.424c0,1.029-0.008,1.856-0.008,2.109c0,0.206,0.141,0.448,0.527,0.372
	c3.053-1.023,5.256-3.901,5.256-7.296C15.379,3.443,11.936,0,7.688,0z"/>
</svg>
