<?xml version="1.0" encoding="utf-8"?>
<!-- Generator: Adobe Illustrator 22.0.1, SVG Export Plug-In . SVG Version: 6.00 Build 0)  -->
<svg version="1.1" id="Layer_1" xmlns="http://www.w3.org/2000/svg" xmlns:xlink="http://www.w3.org/1999/xlink" x="0px" y="0px"
	 viewBox="0 0 147.3 56.2" style="enable-background:new 0 0 147.3 56.2;" xml:space="preserve">
<style type="text/css">
	.st0{opacity:0.4;}
	.st1{fill:#010101;}
</style>
<g class="st0">
	<g>
		<g>
			<g>
				<path class="st1" d="M84.2,47.5c-0.7,0-1.3-0.3-1.8-0.7c-0.5-0.5-0.7-1.1-0.7-1.8c0-2.5,0-5,0-7.6l0-13.3c0-1.7,0.9-2.6,2.6-2.6
					l15.6,0c1.3,0,2.2,0.7,2.5,1.8c0,0.2,0.1,0.4,0.1,0.7l0,0c0,7,0,14,0,21c0,1.5-1,2.5-2.5,2.5l-4.6,0
					C91.7,47.5,87.9,47.5,84.2,47.5C84.2,47.5,84.2,47.5,84.2,47.5z M86.3,22.5h-2c-1.1,0-1.6,0.5-1.6,1.6l0,13.3c0,2.5,0,5,0,7.6
					c0,0.4,0.2,0.8,0.4,1.1c0.3,0.3,0.6,0.4,1.1,0.4c3.7,0,7.5,0,11.2,0l4.6,0c1,0,1.5-0.5,1.5-1.5c0-7,0-14,0-21v0
					c0-0.2,0-0.3,0-0.4c-0.2-0.7-0.7-1.1-1.5-1.1L86.3,22.5z"/>
			</g>
		</g>
	</g>
	<g>
		<path class="st1" d="M93.7,28.6c0.4,0,0.9,0,1.3,0c0.4,0,0.8,0,1.2,0c0.2,0,0.4-0.1,0.5-0.2c0.8-1,1.4-2.1,2-3.2
			c0.1-0.3,0.1-0.4-0.3-0.4c-0.9,0-1.7,0-2.6,0c-0.2,0-0.4,0.1-0.4,0.3c-0.5,1.2-1.1,2.3-1.9,3.3C93.3,28.6,93.5,28.6,93.7,28.6z"/>
		<path class="st1" d="M86.6,38.4c-0.1-0.1-0.1-0.2-0.2-0.1c-0.1,0-0.1,0.2-0.1,0.3c0,0.9,0,1.8,0,2.7c0,0,0,0,0,0
			c0,0.9,0,1.8,0,2.7c0,0.1,0,0.2,0.1,0.3c0.1,0.1,0.2-0.1,0.3-0.1c0.8-0.8,1.7-1.7,2.5-2.5c0.2-0.2,0.2-0.4,0-0.6
			C88.3,40.1,87.5,39.3,86.6,38.4z"/>
		<path class="st1" d="M86.8,34.5c1.9-0.7,3.8-1.4,5.9-1.7c0.5-0.1,1-0.1,1.5,0.1c0.4,0.1,0.6,0.4,0.6,0.8c0,0.8,0,1.6,0,2.4
			c0,2.5,0,5.1,0,7.6c0,0.6,0,0.6,0.6,0.6c0.6,0,1.2,0,1.8,0c0.4,0,0.5-0.1,0.5-0.5c0-1.8,0-3.5,0-5.3c0,0,0,0,0,0
			c0-1.7,0-3.5,0-5.2c0-1.1-0.4-2-1.3-2.5c-0.6-0.4-1.3-0.5-2.1-0.6c-1.5-0.1-3,0.3-4.5,0.7c-0.6,0.2-0.6,0.2-0.6-0.4
			c0-1.7,0-3.5,0-5.2c0-0.4-0.1-0.5-0.5-0.5c-0.7,0-1.4,0-2.1,0c-0.3,0-0.5,0.1-0.5,0.5c0,3,0,5.9,0,8.9
			C86.3,34.7,86.3,34.7,86.8,34.5z"/>
	</g>
</g>
</svg>
