<?xml version="1.0" encoding="utf-8"?>
<!-- Generator: Adobe Illustrator 22.0.1, SVG Export Plug-In . SVG Version: 6.00 Build 0)  -->
<svg version="1.1" id="Layer_1" xmlns="http://www.w3.org/2000/svg" xmlns:xlink="http://www.w3.org/1999/xlink" x="0px" y="0px"
	 viewBox="0 0 61.2 61.9" style="enable-background:new 0 0 61.2 61.9;" xml:space="preserve">
<style type="text/css">
	.st0{opacity:0.8;fill:#9A1B1F;}
</style>
<path class="st0" d="M45.4,47.3c1-1.2,1.9-2.4,2.7-3.8c-1.5-0.8-3-1.5-4.5-2.3c0,0.1-0.1,0.1-0.1,0.2c-0.8,1.2-1.6,2.3-2.7,3.2
	c-1,0.8-2.1,1.4-3.4,1.5c-1.7,0.2-3.3-0.1-4.7-1.2c-0.8-0.6-1.3-1.4-1.7-2.3c-0.4-0.9-0.7-1.9-0.8-2.9c-0.1-0.8-0.1-1.6-0.2-2.4
	c0-0.1,0-0.1,0-0.2c0.1,0,0.2,0,0.2,0c5.6,0,11.3,0,16.9,0c0.3,0,0.2,0,0.2-0.2c0-0.9,0-1.9-0.1-2.8c-0.2-2-0.8-3.8-2-5.5
	c0-0.1-0.1-0.1-0.1-0.2c0.9,0,3.7,0,6,0c-3.3-6-9.7-10-17-10c-7.3,0-13.7,4-17,10c2.3,0,5.2,0,6.1,0c0,0,0,0.1,0,0.1
	c-1.5,1.9-2.4,4.1-2.8,6.5c-0.4,3.1-0.1,6,1.2,8.8c0.6,1.2,1.3,2.3,2.2,3.3c0,0,0.1,0.1,0.1,0.1c-1.1,0-4.3,0-6.7,0
	c3.3,6,9.7,10,17,10c7.3,0,13.7-4,17-10C49,47.3,46.2,47.3,45.4,47.3z M30.6,31.5c0.5-1.3,1.5-2.2,2.9-2.5c0.9-0.2,1.7-0.1,2.5,0.2
	c1.1,0.5,1.7,1.3,2,2.5c0.1,0.3,0.1,0.6,0.1,1c0,0,0,0.1,0,0.1c-2.6,0-5.3,0-7.9,0C30.3,32.3,30.4,31.9,30.6,31.5z"/>
</svg>
