<?xml version="1.0" encoding="utf-8"?>
<!-- Generator: Adobe Illustrator 22.0.1, SVG Export Plug-In . SVG Version: 6.00 Build 0)  -->
<svg version="1.1" id="Layer_1" xmlns="http://www.w3.org/2000/svg" xmlns:xlink="http://www.w3.org/1999/xlink" x="0px" y="0px"
	 viewBox="0 0 61.2 61.9" style="enable-background:new 0 0 61.2 61.9;" xml:space="preserve">
<style type="text/css">
	.st0{opacity:0.8;}
	.st1{fill:#40AAAF;}
</style>
<g class="st0">
	<g>
		<g>
			<path class="st1" d="M49.7,37.6L49.7,37.6c0,0-2.7-2.6-3.9-3.8c0-2.6,0-4.7,0-4.7l0,0c0-1.8-0.1-3.4-0.5-4.9c0,0,0,0,0,0
				c1.4,0,2.6-1.1,2.6-2.6c0-1.4-1.1-2.6-2.6-2.6c-1,0-1.9,0.6-2.3,1.4c-1.6-1.4-4.2-2.2-8.2-2.2c-4.1,0-6.7,0.8-8.3,2.3
				c-0.4-0.9-1.3-1.5-2.3-1.5c-1.4,0-2.6,1.1-2.6,2.6c0,1.4,1.1,2.6,2.6,2.6c0.1,0,0.1,0,0.2,0c-0.4,1.5-0.5,3.1-0.5,4.9l0,0
				c0,0,0,2.1,0,4.6c-1.2,1.1-3.9,3.8-3.9,3.8l0,0c-0.7,0.7-1.1,1.4,0,2.6c1.1,1.1,1.9,0.7,2.6,0l0,0c0,0,0.9-0.9,1.3-1.3
				c0,2.4,0,4.3,0,4.3c0,3.9,0.5,7.4,3.6,9.3c-0.5,1.2-0.9,2.2-0.9,2.2l0,0c-0.4,0.9-0.5,1.7,1,2.3c1.5,0.6,2-0.1,2.4-1l0,0
				c0,0,0.8-2.2,0.8-2.2c0,0,0-0.1,0.1-0.2c1.1,0.2,2.5,0.3,4,0.3c1.8,0,3.3-0.2,4.5-0.5c0,0.1,0.1,0.2,0.1,0.3c0,0,0.8,2.2,0.8,2.2
				l0,0c0.4,0.9,0.8,1.6,2.4,1c1.5-0.6,1.4-1.4,1-2.3l0,0c0,0-0.5-1.2-1-2.5c2.7-2,3.2-5.2,3.2-9c0,0,0-1.9,0-4.3
				c0.5,0.5,1.3,1.3,1.3,1.3l0,0c0.7,0.7,1.4,1.1,2.6,0S50.4,38.3,49.7,37.6z M30.6,27.6c-1.7,0-3.2-1.4-3.2-3.2s1.4-3.2,3.2-3.2
				c1.7,0,3.2,1.4,3.2,3.2S32.3,27.6,30.6,27.6z M36.7,32.2v1.7c0,0.3-0.3,0.6-0.6,0.6h-0.4c-0.3,0-0.6-0.3-0.6-0.6v-2.1
				c0,0,0,0,0,0c-0.1,0-0.1,0-0.2,0c-0.1,0-0.2,0-0.3,0v2.1c0,0.3-0.3,0.6-0.6,0.6h-0.4c-0.3,0-0.6-0.3-0.6-0.6v-1.7
				c-0.7-0.1-1.2-0.8-1.2-1.5c0-0.8,0.6-1.5,1.4-1.5c0-0.1,0-0.1,0-0.2c0-0.6,0.8-1.1,1.7-1.1c1,0,1.7,0.5,1.7,1.1
				c0,0.1,0,0.1,0,0.2c0.8,0,1.5,0.7,1.5,1.5C38.1,31.5,37.5,32.2,36.7,32.2z M39,27.6c-1.7,0-3.2-1.4-3.2-3.2s1.4-3.2,3.2-3.2
				c1.7,0,3.2,1.4,3.2,3.2S40.7,27.6,39,27.6z"/>
			<circle class="st1" cx="39.1" cy="24.3" r="1.1"/>
		</g>
	</g>
	<circle class="st1" cx="30.6" cy="24.3" r="1.1"/>
</g>
</svg>
