<?xml version="1.0" encoding="utf-8"?>
<!-- Generator: Adobe Illustrator 22.0.1, SVG Export Plug-In . SVG Version: 6.00 Build 0)  -->
<svg version="1.1" id="Layer_1" xmlns="http://www.w3.org/2000/svg" xmlns:xlink="http://www.w3.org/1999/xlink" x="0px" y="0px"
	 viewBox="0 0 61.2 61.9" style="enable-background:new 0 0 61.2 61.9;" xml:space="preserve">
<style type="text/css">
	.st0{opacity:0.8;}
	.st1{fill:#3977AB;}
	.st2{fill:#EDDE3F;}
</style>
<g class="st0">
	<path class="st1" d="M25.2,35.1l9.9,0c4.2,0,4.6-1.5,5.1-3.9c0-0.2,0.1-0.4,0.2-0.6c0.4-1.6,0.8-5.5,0.8-6.1
		c0-5.8-4.7-21.6-10.6-21.6c-5.5,0-9.9,15.1-10.5,20.4h9.8c0.6,0,1,0.5,1,1c0,0.6-0.5,1-1,1h-9.8c0,0.2,0.1,0.5,0.1,0.7
		c-0.6-0.1-1.1-0.1-1.7-0.1c-5.8,0-10.6,4.7-10.6,10.6c0,5.4,4,9.8,9.2,10.5l0.5-4.7c0-2.2,0.7-3.9,2-5.2
		C21.9,35,25.1,35.1,25.2,35.1z M25.2,22c-0.9,0-1.7-0.8-1.7-1.7c0-0.9,0.8-1.7,1.7-1.7s1.7,0.8,1.7,1.7C26.9,21.2,26.1,22,25.2,22z
		"/>
	<path class="st2" d="M44,26.1c-0.2,1-0.3,3.2-0.8,5.2c0,0.2-0.1,0.4-0.1,0.6c-0.6,2.6-1.4,6.1-7.9,6.1h-10c-0.1,0-2.2,0-3.6,1.3
		c-0.8,0.7-1.2,1.9-1.2,3.3c0,0.1-0.4,6.4-0.4,6.5c0.1,5.7,4.8,10.3,10.6,10.3c5.4,0,9.9-4.1,10.5-9.4h-10c-0.6,0-1-0.5-1-1
		c0-0.6,0.5-1,1-1h10c0-0.3-0.1-0.5-0.1-0.8c0.6,0.1,1.1,0.1,1.7,0.1c5.8,0,10.6-4.7,10.6-10.6C53.3,31.3,49.1,26.8,44,26.1z
		 M35.5,51.4c0.9,0,1.7,0.8,1.7,1.7c0,0.9-0.8,1.7-1.7,1.7c-0.9,0-1.7-0.8-1.7-1.7C33.8,52.2,34.6,51.4,35.5,51.4z"/>
</g>
</svg>
