<?xml version="1.0" encoding="utf-8"?>
<!-- Generator: Adobe Illustrator 22.0.1, SVG Export Plug-In . SVG Version: 6.00 Build 0)  -->
<svg version="1.1" id="Layer_1" xmlns="http://www.w3.org/2000/svg" xmlns:xlink="http://www.w3.org/1999/xlink" x="0px" y="0px"
	 viewBox="0 0 61.2 50.4" style="enable-background:new 0 0 61.2 50.4;" xml:space="preserve">
<style type="text/css">
	.st0{opacity:0.8;}
	.st1{fill:#EB1D26;}
</style>
<g class="st0">
	<polygon class="st1" points="36.7,21.1 22.2,21.1 29.4,40.8 	"/>
	<polygon class="st1" points="20.6,16.9 27.4,9.5 13.1,9.5 20.5,16.9 	"/>
	<polygon class="st1" points="17.7,18.3 10.8,11.3 6.6,18.3 	"/>
	<polygon class="st1" points="29.3,11.8 23.2,18.3 35.8,18.3 	"/>
	<polygon class="st1" points="38.7,17 46.1,9.6 31.2,9.6 38.6,17 	"/>
	<polygon class="st1" points="40.7,21.1 40.6,21.1 32.6,40.1 32.8,40.1 52,21.1 	"/>
	<polygon class="st1" points="18.7,21.2 18.7,21.1 6.6,21.1 26.2,40.2 26.6,40.2 	"/>
	<polygon class="st1" points="41.6,18.3 52,18.3 48.4,11.5 	"/>
</g>
</svg>
