<?xml version="1.0" encoding="utf-8"?>
<!-- Generator: Adobe Illustrator 22.0.1, SVG Export Plug-In . SVG Version: 6.00 Build 0)  -->
<svg version="1.1" id="Layer_1" xmlns="http://www.w3.org/2000/svg" xmlns:xlink="http://www.w3.org/1999/xlink" x="0px" y="0px"
	 viewBox="0 0 61.2 50.4" style="enable-background:new 0 0 61.2 50.4;" xml:space="preserve">
<style type="text/css">
	.st0{opacity:0.8;}
	.st1{fill:#2BACE2;}
	.st2{opacity:0.8;fill:#2BACE2;}
</style>
<g>
	<g class="st0">
		<path class="st1" d="M54.9,6.9c-1.2-0.2-1.8-0.6-2.4-0.1c-0.7,0.4-1.7,0.4-2.2-0.3c-0.5-0.7-1.1-1.4-2.5-1.9
			c-1.4-0.5-8-2.5-14.6,0.7c0,0-0.5,0.3-0.4,0.5c0,0,0.2,0.1,0.4,0c0.1-0.1,0.4-0.1,0.6-0.1l-0.7,0.8c0,0.1,0.1,0.1,0.2,0.1
			c0.5-0.1,1.7-0.4,4-0.4c2.7,0,4.6,1.5,4.8,4.5c0,0.4,0,0.7,0,1.2c-0.3,3-1,6.5-2.3,10.6c-0.4,1.2-0.8,2.4-1.3,3.7
			c-2.2,5.9-7.2,17.8-7.1,20.3c0.1,2.4,3,2.5,3.8,2.4c0,0,0,0,0,0c0,0,0,0,0,0c0,0,0,0,0,0c0,0,0,0,0,0c0.7-0.1,1.4,0.6,3.8-9.9
			c2-8.5,2.9-13,3.6-15.7c0.2-0.6,0.3-1.2,0.4-1.6c0.3-1.2,1-3.5,1.8-5.7c0.8-2.3,1.8-4.4,2.7-5c1.8-1.1,3.2-0.2,3.7,0.5
			c0.5,0.7,0.9,0.8,1.7,0.9c0.8,0.1,1.3,0.4,1.9-1.9C55.4,8.2,56.1,7.1,54.9,6.9z"/>
		<path class="st1" d="M53.4,41.7l-4.2-27.1c-0.1,0-0.1,0.1-0.2,0.1c-0.2-0.1-0.6,1.2-1,2.5l3.6,22.8c0,0.1-0.1,0.3-0.2,0.3L41.9,42
			c-0.2,0.6-0.3,1.2-0.4,1.7L53.4,41.7z"/>
		<path class="st1" d="M13.2,46.4c-0.1,0-0.1,0-0.1,0c-0.1,0-0.1-0.1-0.1-0.2L8.5,16.5c0-0.1,0.1-0.2,0.2-0.3l29.8-4.9
			c0-0.1,0-0.1,0-0.2c0-0.6-0.1-1.1-0.3-1.6L6.5,14.8l5.3,33.5l16.4-2.7c0.1-0.4,0.2-1,0.4-1.7L13.2,46.4
			C13.2,46.4,13.2,46.4,13.2,46.4z"/>
	</g>
	<path class="st2" d="M25.1,19.8c0,0,0.3-1.1,2-0.4c1.5,0.6,1,1.6,1,1.6l-0.7,1.8l-3.1-1.1L25.1,19.8z"/>
	<polygon class="st2" points="18.1,41.5 18.5,36.1 21.5,37.2 	"/>
	<polygon class="st2" points="19.6,33.6 23.6,23.8 26.6,24.9 22.7,34.7 	"/>
	<polygon class="st2" points="14.9,29.3 18.8,28.7 17.6,31.8 15.4,32.2 	"/>
	<polygon class="st2" points="28.3,27.2 32.4,26.5 34.4,29.2 27.1,30.4 	"/>
	<polygon class="st2" points="45.6,24.5 44.5,24.6 43.8,27.6 46.1,27.3 	"/>
	<path class="st2" d="M35.6,27.2l-7.5-9.1c0,0-0.9-0.8,0.5-1.9c1.3-1.1,1.9-0.2,1.9-0.2l6.4,7.7L35.6,27.2z"/>
	<path class="st2" d="M42.1,34.9c0.3,0.2,0.1,0.3,0.3,0.4c1,0.3,1.7,0.9,2.2,1.8s0.6-0.1,0.6-0.1c0.5-3.5-0.7-4.8-1.5-5.5
		c-0.4-0.3-0.5-0.6-0.8-0.6L42.1,34.9z"/>
</g>
</svg>
