<?xml version="1.0" encoding="utf-8"?>
<!-- Generator: Adobe Illustrator 22.0.1, SVG Export Plug-In . SVG Version: 6.00 Build 0)  -->
<svg version="1.1" id="Layer_1" xmlns="http://www.w3.org/2000/svg" xmlns:xlink="http://www.w3.org/1999/xlink" x="0px" y="0px"
	 viewBox="0 0 61.2 61.9" style="enable-background:new 0 0 61.2 61.9;" xml:space="preserve">
<style type="text/css">
	.st0{opacity:0.8;}
	.st1{fill:#DC1F26;}
	.st2{fill:none;stroke:#DC1F26;stroke-miterlimit:10;}
</style>
<g class="st0">
	<path class="st1" d="M50,41.5c0-4.2-3.9-4.5-3.9-4.5h-5.6v-3.8c0-0.9-0.7-1.6-1.6-1.6H19.6c-0.9,0-1.6,0.7-1.6,1.6v20.9
		c0,2.7,2.2,4.9,4.9,4.9h12.7c2.7,0,4.9-2.2,4.9-4.9v-4C47.2,50.1,50,45.7,50,41.5z M40.5,46.8v-6.7h5.2c0,0,1.2-0.1,1.2,1.7
		C46.9,46.9,41.4,46.9,40.5,46.8z"/>
	<g>
		<path class="st2" d="M28.7,29.8C28.7,29.8,28.7,29.8,28.7,29.8c-0.5,0.1-1-0.2-1.2-0.7c0-0.1-0.7-3,1.8-6.7c2.7-3.9,1.6-6,0.2-7
			c-0.4-0.3-0.5-0.9-0.2-1.3c0.3-0.4,0.9-11.5,1.3-11.2c2.9,2.2,3,16.7,0.3,20.7c-2,2.9-1.5,5.1-1.5,5.1
			C29.5,29.1,29.2,29.7,28.7,29.8z"/>
	</g>
	<path class="st2" d="M24.5,23.7c1-4.3,1.5-6.4-2.4-9.4c-0.4-0.3-1-0.2-1.3,0.2c-0.3,0.4-0.2,1,0.2,1.3c2.9,2.2,2.7,3.3,1.7,7.5
		c-1.1,4.6,0.4,6.1,0.7,6.4l0,0c0.2,0.2,0.6,0.3,0.9,0.2c0.5-0.1,0.8-0.7,0.7-1.2c-0.1-0.2-0.2-0.4-0.3-0.5
		C24.4,27.8,23.8,26.7,24.5,23.7z"/>
	<path class="st2" d="M38.8,15.1c-0.5,0.2-0.8,0.7-0.6,1.2c1.1,3.5,0.3,4.3-2.8,7.1c-3.4,3.1-3.2,5.2-3.1,5.6c0,0.2,0.1,0.4,0.2,0.5
		c0.4,0.4,1,0.4,1.4,0.1c0.3-0.3,0.4-0.7,0.3-1c0-0.2,0.1-1.5,2.5-3.7c3.3-3,4.9-4.4,3.4-9.1C39.8,15.2,39.3,14.9,38.8,15.1z"/>
</g>
</svg>
