<?xml version="1.0" encoding="utf-8"?>
<!-- Generator: Adobe Illustrator 22.0.1, SVG Export Plug-In . SVG Version: 6.00 Build 0)  -->
<svg version="1.1" id="Layer_1" xmlns="http://www.w3.org/2000/svg" xmlns:xlink="http://www.w3.org/1999/xlink" x="0px" y="0px"
	 viewBox="0 0 61.2 50.4" style="enable-background:new 0 0 61.2 50.4;" xml:space="preserve">
<style type="text/css">
	.st0{opacity:0.8;}
	.st1{fill:#5F82BA;}
</style>
<g class="st0">
	<path class="st1" d="M45.7,22.4c-0.4,0-0.8,0-1.2,0c-0.4,0-0.8,0-1.1,0c-0.2,0-0.2,0-0.3,0.2c-0.1,0.7-0.2,1.5-0.4,2.2
		c-0.1,0.8-0.3,1.5-0.4,2.3c0,0.2,0,0.3,0.2,0.3c0.5,0,1,0,1.5,0c0.3,0,0.6,0,0.8-0.1c1-0.2,1.8-0.7,2.1-1.7c0.2-0.5,0.2-1,0.3-1.5
		c0-0.4-0.1-0.8-0.4-1.1C46.7,22.6,46.2,22.5,45.7,22.4z"/>
	<path class="st1" d="M22.5,22.4c-0.4,0-0.8,0-1.2,0c-0.4,0-0.8,0-1.1,0c-0.2,0-0.2,0-0.2,0.2c0,0.1,0,0.2,0,0.3
		c-0.2,1.4-0.5,2.9-0.7,4.3c0,0.2,0,0.3,0.2,0.3c0.5,0,1,0,1.5,0c0.3,0,0.6,0,0.8-0.1c1.2-0.2,1.9-0.9,2.2-2
		c0.1-0.4,0.2-0.8,0.2-1.3c0-0.4-0.1-0.8-0.4-1.1C23.4,22.6,23,22.5,22.5,22.4z"/>
	<path class="st1" d="M32.8,3.2c-12.5,0-22.7,10.2-22.7,22.7s10.2,22.7,22.7,22.7c12.5,0,22.7-10.2,22.7-22.7S45.3,3.2,32.8,3.2z
		 M22.5,29.4c-0.3,0-0.6,0-0.8,0c-0.9,0-1.9,0-2.8,0c-0.1,0-0.2,0-0.2,0.2c-0.2,0.9-0.4,1.9-0.5,2.8c-0.1,0.3,0,0.3-0.3,0.3
		c-0.7,0-1.5,0-2.2,0c-0.2,0-0.2,0-0.1-0.2c0.3-1.3,0.5-2.7,0.8-4c0.5-2.6,1-5.1,1.5-7.7c0-0.1,0.1-0.2,0.1-0.3
		c0-0.1,0.1-0.2,0.2-0.2c0.7,0,1.4,0,2.1,0c0.2,0,0.4,0,0.6,0c0.9,0,1.8,0,2.6,0c0.7,0,1.3,0.1,1.9,0.4c1,0.4,1.6,1.2,1.7,2.3
		c0.2,1.5-0.1,3-1.1,4.2C25,28.5,23.9,29.1,22.5,29.4z M37.1,29.3c0,0.1-0.1,0.1-0.1,0.1c-0.4,0-0.8,0-1.3,0c-0.4,0-0.8,0-1.2,0
		c-0.1,0-0.1,0-0.1-0.1c0.2-1.1,0.4-2.2,0.6-3.3c0.2-0.8,0.3-1.6,0.5-2.4c0-0.2,0.1-0.4,0-0.5c-0.1-0.3-0.3-0.5-0.6-0.6
		c-0.2-0.1-0.4-0.1-0.6-0.1c-0.8,0-1.5,0-2.3,0c-0.2,0-0.2,0-0.3,0.2c-0.4,2.2-0.9,4.4-1.3,6.6c0,0.2,0,0.2-0.2,0.2
		c-0.8,0-1.5,0-2.3,0c-0.2,0-0.2,0-0.1-0.2c0.4-1.8,0.7-3.7,1.1-5.5c0.4-2.2,0.9-4.3,1.3-6.5c0-0.1,0.1-0.1,0.2-0.1
		c0.8,0,1.6,0,2.3,0c0.1,0,0.1,0,0.1,0.1c-0.2,1-0.4,1.9-0.5,2.9c0,0.2,0,0.3,0.2,0.3c0.9,0,1.8,0,2.7,0c0.8,0,1.5,0.2,2.2,0.6
		c0.6,0.4,0.9,1,0.9,1.8c0,0.5-0.2,1.1-0.3,1.6c-0.2,1.2-0.4,2.4-0.6,3.6C37.3,28.4,37.2,28.9,37.1,29.3z M45.7,29.4
		c-0.3,0.1-0.6,0-1,0c-0.9,0-1.7,0-2.6,0c0,0-0.1,0-0.1,0c-0.2,0-0.2,0-0.3,0.2c-0.1,0.7-0.3,1.3-0.4,2c-0.1,0.3-0.1,0.6-0.2,0.9
		c0,0.1-0.1,0.1-0.2,0.1c-0.8,0-1.6,0-2.4,0c-0.1,0-0.1,0-0.1-0.1c0.4-1.8,0.7-3.7,1.1-5.5c0.4-2.2,0.9-4.3,1.3-6.5
		c0-0.1,0.1-0.2,0.2-0.2c1.8,0,3.6,0,5.4,0c0.7,0,1.3,0.1,2,0.4c0.9,0.4,1.5,1.2,1.6,2.2c0,0.3,0.1,0.6,0.1,0.8
		c0,1.3-0.3,2.5-1.1,3.5C48.2,28.5,47.1,29.1,45.7,29.4z"/>
</g>
</svg>
