<?xml version="1.0" encoding="utf-8"?>
<!-- Generator: Adobe Illustrator 22.0.1, SVG Export Plug-In . SVG Version: 6.00 Build 0)  -->
<svg version="1.1" id="Layer_1" xmlns="http://www.w3.org/2000/svg" xmlns:xlink="http://www.w3.org/1999/xlink" x="0px" y="0px"
	 viewBox="0 0 61.2 50.4" style="enable-background:new 0 0 61.2 50.4;" xml:space="preserve">
<style type="text/css">
	.st0{opacity:0.8;}
	.st1{fill:#91C53E;}
</style>
<g class="st0">
	<path class="st1" d="M40.2,31.1c-0.4,0.3-0.9,0.4-1.4,0.5c-1.6,0.3-3.2,0.3-4.7,0.1c-2-0.3-3.2-1-3.5-3.1c0-0.3-0.2-0.5-0.6-0.5
		c-0.6,0-1.3,0-1.9,0c-0.4,0-0.6,0.2-0.6,0.6c0,1.2,0.3,2.3,1.1,3.3c1,1.3,2.3,1.9,3.8,2.3c1.8,0.4,3.7,0.5,5.6,0.3
		c1.3-0.1,2.6-0.4,3.8-1c1.6-0.8,2.5-2.1,2.7-3.9c0.2-1.6-0.1-3.1-1.5-4.2c-0.8-0.6-1.7-0.9-2.7-1.1c-1.7-0.4-3.5-0.6-5.2-0.9
		c-1-0.2-1.9-0.3-2.8-0.6c-0.8-0.3-1.1-0.8-1-1.7c0.1-0.6,0.4-1.1,1-1.4c0.4-0.2,0.8-0.3,1.2-0.4c1.4-0.3,2.8-0.2,4.3,0
		c1.5,0.2,2.6,1.1,2.9,2.6c0,0.1,0,0.1,0,0.2c0.1,0.3,0.3,0.5,0.6,0.5c0.6,0,1.1,0,1.7,0c0.7,0,0.9-0.2,0.8-0.9
		c-0.3-2.5-1.7-4.2-4.1-4.9c-1.3-0.4-2.7-0.5-4.2-0.5c-1.3,0-2.7,0.2-4.1,0.7c-2.4,0.9-3.6,2.7-3.4,5.2c0.1,1.3,0.7,2.4,1.9,3.1
		c0.8,0.5,1.8,0.8,2.7,1c1.5,0.3,2.9,0.4,4.4,0.6c1.1,0.2,2.2,0.3,3.3,0.8c0.6,0.3,0.9,0.7,0.9,1.4C41.3,29.9,41,30.6,40.2,31.1z"/>
	<path class="st1" d="M51.2,25.2c0-3.1,0-6.3,0-9.4c0-1.5-0.6-2.6-1.9-3.3C43.9,9.3,38.4,6.1,32.9,3c-1.2-0.7-2.4-0.7-3.6,0
		c-0.5,0.3-1,0.6-1.5,0.9c-5,2.9-10,5.8-15,8.7c-1.2,0.7-1.8,1.7-1.8,3c0,6.4,0,12.8,0,19.3c0,1.3,0.6,2.3,1.8,3
		c1.4,0.8,2.8,1.6,4.2,2.4c1.5,0.8,3.1,1.3,4.8,1.1c1.9-0.3,3.2-1.2,3.8-3c0.2-0.7,0.3-1.5,0.3-2.2c0-6.1,0-12.3,0-18.4
		c0-0.1,0-0.3,0-0.4c0-0.3-0.2-0.5-0.5-0.5c-0.7,0-1.4,0-2.1,0c-0.3,0-0.4,0.2-0.5,0.5c0,0.2,0,0.4,0,0.6c0,6,0,11.9,0,17.9
		c0,0.2,0,0.4,0,0.6c-0.1,1.1-0.9,2-2.1,2.1c-0.7,0-1.4-0.2-2.1-0.5c-1.3-0.8-2.6-1.6-4-2.3c-0.6-0.3-0.7-0.7-0.7-1.3
		c0-6.1,0-12.1,0-18.2c0-0.6,0.2-1,0.7-1.2c5.2-3,10.5-6,15.7-9.1c0.5-0.3,1-0.3,1.5,0c5.3,3.1,10.5,6.1,15.8,9.1
		c0.5,0.3,0.7,0.6,0.7,1.1c0,6.1,0,12.3,0,18.4c0,0.5-0.2,0.9-0.6,1.1c-5.4,3.1-10.7,6.2-16,9.3c-0.4,0.2-0.7,0.2-1.1,0
		c-1.2-0.8-2.5-1.5-3.8-2.2c-0.2-0.1-0.4-0.3-0.7-0.1c-0.8,0.5-1.6,0.8-2.5,1.1c-0.3,0.1-0.3,0.3,0,0.5c0.1,0.1,0.2,0.1,0.3,0.2
		c1.8,1,3.5,2.1,5.3,3.1c1.3,0.8,2.6,0.8,4,0c5.4-3.1,10.8-6.2,16.2-9.3c1.3-0.8,2-1.9,2-3.4C51.2,31.4,51.2,28.3,51.2,25.2z"/>
</g>
</svg>
