<?xml version="1.0" encoding="utf-8"?>
<!-- Generator: Adobe Illustrator 22.0.1, SVG Export Plug-In . SVG Version: 6.00 Build 0)  -->
<svg version="1.1" id="Layer_1" xmlns="http://www.w3.org/2000/svg" xmlns:xlink="http://www.w3.org/1999/xlink" x="0px" y="0px"
	 viewBox="0 0 61.2 61.9" style="enable-background:new 0 0 61.2 61.9;" xml:space="preserve">
<style type="text/css">
	.st0{opacity:0.8;fill:#39467F;}
</style>
<path class="st0" d="M55.6,30.6c-1-3.2-3.2-7.2-5-8.9c-0.1-0.1-0.1-0.1-0.2-0.1c-1.2-1-2.7-1.6-4.3-1.6c-3.1,0-5.8,2.2-6.5,5.1
	c-0.7-2.9-3.3-5.1-6.5-5.1c-2.7,0-5.1,2.2-6.6,4.9c-0.5,1-1.2,3.8-3.3,4.4c-1.8,0.5-3.7-0.3-4.1-2.2c-0.4-2.3-0.5-4.7,0.3-7
	c0.3-0.9,0.2-1.6-0.9-1.5c-0.9,0.1-1.6-0.2-2.3-0.5c-1.2-0.5-2.5-0.7-3.6,0.1c-1.5,1-3.1,1.5-4.9,1.8c-1.6,0.3-2.9,1.1-3.5,2.8
	c-0.6,1.8,0.3,3,2.1,3c0.2,0,0.5,0,0.7-0.1c3.8-1.2,5.5,0.6,6.4,4c1.2,4.4,3.4,7.8,8,9.5c2.4,0.9,3.2,3.4,4.1,5.6
	c0.7,1.7,1.2,3.4,1.8,5.1c0.3,0.9,0.8,1.9,1.9,1.7c1.2-0.2,1.3-1.2,1.3-2.2c0.1-1.9,0.4-3.9,1.1-5.7c0.3-0.8,0.7-1.5,1.3-2.1
	c2.6-2.4,10.1-2.7,12.8-0.5c0.8,0.6,1.2,1.4,1.4,2.4c0.3,1.9,0.7,3.8,1,5.7c0.2,1,0.1,2.2,1.4,2.3c1.3,0.1,1.6-1.1,1.9-2
	c1.6-4.3,3-8.6,4-13.1C55.8,35.8,56.3,33,55.6,30.6z"/>
</svg>
