<?xml version="1.0" encoding="utf-8"?>
<!-- Generator: Adobe Illustrator 22.0.1, SVG Export Plug-In . SVG Version: 6.00 Build 0)  -->
<svg version="1.1" id="Layer_1" xmlns="http://www.w3.org/2000/svg" xmlns:xlink="http://www.w3.org/1999/xlink" x="0px" y="0px"
	 viewBox="0 0 61.2 50.4" style="enable-background:new 0 0 61.2 50.4;" xml:space="preserve">
<style type="text/css">
	.st0{opacity:0.8;}
	.st1{fill:#97CA4A;}
	.st2{fill:#5F7FBF;}
	.st3{fill:#63B146;}
	.st4{fill:#97B2DC;}
</style>
<g class="st0">
	<path class="st1" d="M35.4,36.6c-3-2.2-4.6-5.9-6-9.6c-1.3,2-3.2,5.5-3.9,9.5c1.5,0.7,3.3,1.1,5.1,1.1C32.3,37.7,34,37.3,35.4,36.6
		z"/>
	<path class="st2" d="M19.2,11.2c2.1,0,3.8,0.5,5.1,1.4c1.9-0.9,4-1.4,6.3-1.4c8,0,14.5,6.5,14.5,14.5c0,4-1.7,7.7-4.3,10.3
		c0.4,0,0.8,0.1,1.3,0.1c4.8,0,8-1.1,10.1-2.6c0.9-2.4,1.4-5,1.4-7.8c0-12.7-10.3-23-23-23c-7.8,0-14.7,3.9-18.9,9.8
		C13.6,11.7,16.1,11.2,19.2,11.2z"/>
	<path class="st3" d="M42.1,38.7c-1.5,0-2.8-0.2-3.9-0.6c-2.2,1.4-4.8,2.2-7.6,2.2c-8,0-14.5-6.5-14.5-14.5c0-4.7,2.2-8.8,5.7-11.5
		c-0.8-0.3-1.6-0.4-2.5-0.4c-6,0-8.9,2.2-10,3.5c-1,2.6-1.6,5.5-1.6,8.4c0,12.7,10.3,23,23,23c8.5,0,15.9-4.6,19.9-11.4
		C48.3,38.2,45.6,38.7,42.1,38.7z"/>
	<path class="st4" d="M37.9,35.1c2.8-2.2,4.6-5.6,4.6-9.4c0-6.6-5.4-11.9-11.9-11.9c-1.4,0-2.8,0.3-4.1,0.7c2.2,2.5,3.5,6.2,4.6,9.5
		C32.8,28.7,34.3,33.2,37.9,35.1z" style="fill:#97B2DC;"/>
	<path class="st1" d="M18.7,25.7c0,3.8,1.8,7.2,4.5,9.3c1.2-5.4,4.1-9.6,5.2-11.1c-1.2-3.4-2.3-6.4-4.3-8.3
		C20.9,17.8,18.7,21.5,18.7,25.7z"/>
</g>
</svg>
