<?xml version="1.0" encoding="utf-8"?>
<!-- Generator: Adobe Illustrator 21.1.0, SVG Export Plug-In . SVG Version: 6.00 Build 0)  -->
<svg version="1.1" id="Layer_1" xmlns="http://www.w3.org/2000/svg" xmlns:xlink="http://www.w3.org/1999/xlink" x="0px" y="0px"
	 viewBox="0 0 93 148.8" style="enable-background:new 0 0 93 148.8;" xml:space="preserve">
<style type="text/css">
	.st0{fill:url(#SVGID_1_);}
	.st1{fill:url(#SVGID_2_);}
	.st2{fill:url(#SVGID_3_);}
	.st3{fill:url(#SVGID_4_);}
</style>
<title>oss-num</title>
<g id="oss-num-5">
	<g id="oss-5">
		
			<linearGradient id="SVGID_1_" gradientUnits="userSpaceOnUse" x1="46.5" y1="151.4252" x2="46.5" y2="80.8053" gradientTransform="matrix(1 0 0 -1 0 151.4252)">
			<stop  offset="0" style="stop-color:#61BB78"/>
			<stop  offset="0.541" style="stop-color:#5FBA76"/>
			<stop  offset="0.735" style="stop-color:#58B771"/>
			<stop  offset="0.874" style="stop-color:#4DB267"/>
			<stop  offset="0.985" style="stop-color:#3CAB58"/>
			<stop  offset="1" style="stop-color:#39AA56"/>
		</linearGradient>
		<path class="st0" d="M93,8c0-4.4-3.6-8-8-8H8C3.6,0,0,3.6,0,8v62.6h93V8z"/>
		
			<linearGradient id="SVGID_2_" gradientUnits="userSpaceOnUse" x1="46.4993" y1="2.627" x2="46.4993" y2="75.2431" gradientTransform="matrix(1 0 0 -1 0 151.4252)">
			<stop  offset="0" style="stop-color:#88CC9A"/>
			<stop  offset="0.465" style="stop-color:#86CA98"/>
			<stop  offset="0.717" style="stop-color:#7EC490"/>
			<stop  offset="0.918" style="stop-color:#70B982"/>
			<stop  offset="1" style="stop-color:#68B37A"/>
		</linearGradient>
		<path class="st1" d="M0,140.8c0,4.4,3.6,8,8,8H85c4.4,0,8-3.6,8-8V76.2H0V140.8z"/>
		
			<linearGradient id="SVGID_3_" gradientUnits="userSpaceOnUse" x1="45.6659" y1="122.3645" x2="45.6659" y2="80.8053" gradientTransform="matrix(1 0 0 -1 0 151.4252)">
			<stop  offset="0" style="stop-color:#F0F0F0"/>
			<stop  offset="0.533" style="stop-color:#EEEEEE"/>
			<stop  offset="0.823" style="stop-color:#E6E6E6"/>
			<stop  offset="1" style="stop-color:#DCDCDC"/>
		</linearGradient>
		<path class="st2" d="M68.3,67c-2.7-2.8-5.9-5-9.5-6.4c-4-1.6-8.2-2.4-12.5-2.3c-3.6,0-7.2,0.7-10.5,2.2c-3.3,1.3-6.2,3.5-8.5,6.2
			l-0.3-0.3l5.8-29.8h39.4v-7.4H27l-7.8,41.6h10.5c1.3-1.1,2.6-2,4.1-2.8c3.5-1.8,7.5-2.8,11.4-2.8c3.2,0,6.3,0.6,9.3,1.8
			c2.2,0.9,4.2,2.2,6,3.7h10.6C70.3,69.3,69.3,68.1,68.3,67z"/>
		
			<linearGradient id="SVGID_4_" gradientUnits="userSpaceOnUse" x1="46.0226" y1="31.6859" x2="46.0226" y2="75.2431" gradientTransform="matrix(1 0 0 -1 0 151.4252)">
			<stop  offset="0" style="stop-color:#FFFFFF"/>
			<stop  offset="0.57" style="stop-color:#FDFDFD"/>
			<stop  offset="0.879" style="stop-color:#F5F5F5"/>
			<stop  offset="1" style="stop-color:#EFEFEF"/>
		</linearGradient>
		<path class="st3" d="M66.6,79.2c1.2,2.9,1.8,6.1,1.7,9.3c0,3.2-0.5,6.3-1.5,9.3c-1,2.9-2.5,5.5-4.5,7.8c-2,2.3-4.4,4.1-7.1,5.4
			c-2.9,1.4-6.1,2.1-9.4,2c-2.9,0-5.9-0.5-8.6-1.5c-5.2-1.9-9.4-5.8-11.6-10.9c-1.2-2.7-1.8-5.6-1.9-8.5h-8.1c0,4,0.9,7.9,2.4,11.6
			c1.4,3.3,3.6,6.3,6.2,8.7c2.7,2.4,5.8,4.2,9.3,5.4c3.7,1.3,7.7,1.9,11.6,1.9c4.2,0,8.3-0.7,12.2-2.3c3.7-1.4,7.1-3.6,10-6.3
			c2.9-2.7,5.1-6,6.7-9.6c1.7-3.8,2.5-8,2.4-12.2c0-4.3-0.7-8.5-2.1-12.5c-0.1-0.2-0.2-0.4-0.3-0.7h-9
			C65.7,77.2,66.2,78.2,66.6,79.2z"/>
	</g>
</g>
</svg>
