<?xml version="1.0" encoding="utf-8"?>
<!-- Generator: Adobe Illustrator 21.1.0, SVG Export Plug-In . SVG Version: 6.00 Build 0)  -->
<svg version="1.1" id="Layer_1" xmlns="http://www.w3.org/2000/svg" xmlns:xlink="http://www.w3.org/1999/xlink" x="0px" y="0px"
	 viewBox="0 0 93 148.8" style="enable-background:new 0 0 93 148.8;" xml:space="preserve">
<style type="text/css">
	.st0{fill:url(#SVGID_1_);}
	.st1{fill:url(#SVGID_2_);}
	.st2{fill:url(#SVGID_3_);}
	.st3{fill:url(#SVGID_4_);}
</style>
<title>oss-num</title>
<g id="oss-num-3">
	<g id="oss-3">
		
			<linearGradient id="SVGID_1_" gradientUnits="userSpaceOnUse" x1="46.5" y1="2.627" x2="46.5" y2="75.2451" gradientTransform="matrix(1 0 0 -1 0 151.4294)">
			<stop  offset="0" style="stop-color:#88CC9A"/>
			<stop  offset="0.465" style="stop-color:#86CA98"/>
			<stop  offset="0.717" style="stop-color:#7EC490"/>
			<stop  offset="0.918" style="stop-color:#70B982"/>
			<stop  offset="1" style="stop-color:#68B37A"/>
		</linearGradient>
		<path class="st0" d="M0,140.8c0,4.4,3.6,8,8,8H85c4.4,0,8-3.6,8-8V76.2H0V140.8z"/>
		
			<linearGradient id="SVGID_2_" gradientUnits="userSpaceOnUse" x1="46.5" y1="151.4294" x2="46.5" y2="80.8075" gradientTransform="matrix(1 0 0 -1 0 151.4294)">
			<stop  offset="0" style="stop-color:#61BB78"/>
			<stop  offset="0.541" style="stop-color:#5FBA76"/>
			<stop  offset="0.735" style="stop-color:#58B771"/>
			<stop  offset="0.874" style="stop-color:#4DB267"/>
			<stop  offset="0.985" style="stop-color:#3CAB58"/>
			<stop  offset="1" style="stop-color:#39AA56"/>
		</linearGradient>
		<path class="st1" d="M93,8c0-4.4-3.6-8-8-8H8C3.6,0,0,3.6,0,8v62.6h93V8z"/>
		
			<linearGradient id="SVGID_3_" gradientUnits="userSpaceOnUse" x1="45.2662" y1="123.9896" x2="45.2662" y2="80.8075" gradientTransform="matrix(1 0 0 -1 0 151.4294)">
			<stop  offset="0" style="stop-color:#F0F0F0"/>
			<stop  offset="0.533" style="stop-color:#EEEEEE"/>
			<stop  offset="0.823" style="stop-color:#E6E6E6"/>
			<stop  offset="1" style="stop-color:#DCDCDC"/>
		</linearGradient>
		<path class="st2" d="M58.3,70.5v-0.3c4.5-1,8.5-3.5,11.3-7.2c2.6-3.7,4-8.2,3.9-12.7c0.1-3.6-0.7-7.2-2.4-10.4
			c-1.5-2.8-3.7-5.2-6.3-7.1C62,31,59,29.6,55.8,28.8c-3.4-0.9-6.8-1.4-10.3-1.4c-4.1-0.1-8.1,0.7-11.8,2.3
			c-3.4,1.4-6.4,3.5-8.9,6.2c-2.5,2.7-4.4,5.9-5.7,9.3c-1.4,3.8-2,7.8-2,11.8h8.1c-0.1-3.1,0.3-6.2,1.2-9.2c0.8-2.7,2.1-5.1,3.9-7.2
			c1.8-2,4-3.6,6.5-4.7c2.8-1.2,5.8-1.7,8.9-1.7c2.6,0,5.2,0.3,7.7,1c2.3,0.6,4.4,1.6,6.2,3.1c1.8,1.4,3.3,3.2,4.2,5.3
			c1.1,2.4,1.6,5,1.5,7.7c0.1,2.5-0.5,5.1-1.7,7.3c-1.1,2-2.5,3.7-4.3,5.1c-1.8,1.3-3.8,2.3-5.9,3c-2.1,0.6-4.2,0.9-6.4,1h-6.8v3
			h18.4C58.5,70.6,58.4,70.6,58.3,70.5z"/>
		
			<linearGradient id="SVGID_4_" gradientUnits="userSpaceOnUse" x1="45.8506" y1="31.3753" x2="45.8506" y2="75.2386" gradientTransform="matrix(1 0 0 -1 0 151.4294)">
			<stop  offset="0" style="stop-color:#FFFFFF"/>
			<stop  offset="0.57" style="stop-color:#FDFDFD"/>
			<stop  offset="0.879" style="stop-color:#F5F5F5"/>
			<stop  offset="1" style="stop-color:#EFEFEF"/>
		</linearGradient>
		<path class="st3" d="M62.4,79.1c2,1.6,3.6,3.6,4.6,5.9c1.2,2.7,1.7,5.5,1.7,8.4c0.1,2.9-0.6,5.9-1.9,8.5c-1.2,2.4-3,4.6-5.1,6.3
			c-2.2,1.7-4.7,3-7.3,3.9c-2.8,0.9-5.7,1.3-8.6,1.3c-3.3,0.1-6.6-0.5-9.7-1.7c-2.7-1.1-5.2-2.7-7.2-4.8c-2-2.1-3.5-4.7-4.4-7.5
			c-1-3.2-1.4-6.5-1.2-9.8H15c-0.4,4.4,0.1,8.8,1.6,13c1.3,3.6,3.5,6.9,6.3,9.5c2.9,2.6,6.3,4.6,10,5.9c4.1,1.4,8.4,2.1,12.8,2.1
			c4,0,8-0.6,11.8-1.7c3.6-1.1,7-2.8,9.9-5.2c2.8-2.3,5.1-5.2,6.8-8.6c1.7-3.7,2.6-7.7,2.5-11.8c0.2-5.4-1.5-10.6-4.8-14.9
			c-0.5-0.6-1-1.2-1.6-1.7h-13C59.1,76.9,60.8,77.9,62.4,79.1z"/>
	</g>
</g>
</svg>
