<?xml version="1.0" encoding="utf-8"?>
<!-- Generator: Adobe Illustrator 21.1.0, SVG Export Plug-In . SVG Version: 6.00 Build 0)  -->
<svg version="1.1" id="Layer_1" xmlns="http://www.w3.org/2000/svg" xmlns:xlink="http://www.w3.org/1999/xlink" x="0px" y="0px"
	 viewBox="0 0 93 148.8" style="enable-background:new 0 0 93 148.8;" xml:space="preserve">
<style type="text/css">
	.st0{fill:url(#SVGID_1_);}
	.st1{fill:url(#SVGID_2_);}
	.st2{fill:url(#SVGID_3_);}
	.st3{fill:url(#SVGID_4_);}
</style>
<title>oss-num</title>
<g id="oss-num-0">
	<g id="oss-0">
		
			<linearGradient id="SVGID_1_" gradientUnits="userSpaceOnUse" x1="46.5" y1="151.4294" x2="46.5" y2="80.8075" gradientTransform="matrix(1 0 0 -1 0 151.4294)">
			<stop  offset="0" style="stop-color:#61BB78"/>
			<stop  offset="0.541" style="stop-color:#5FBA76"/>
			<stop  offset="0.735" style="stop-color:#58B771"/>
			<stop  offset="0.874" style="stop-color:#4DB267"/>
			<stop  offset="0.985" style="stop-color:#3CAB58"/>
			<stop  offset="1" style="stop-color:#39AA56"/>
		</linearGradient>
		<path class="st0" d="M93,8c0-4.4-3.6-8-8-8H8C3.6,0,0,3.6,0,8v62.6h93V8z"/>
		
			<linearGradient id="SVGID_2_" gradientUnits="userSpaceOnUse" x1="46.5" y1="2.627" x2="46.5" y2="75.2451" gradientTransform="matrix(1 0 0 -1 0 151.4294)">
			<stop  offset="0" style="stop-color:#88CC9A"/>
			<stop  offset="0.465" style="stop-color:#86CA98"/>
			<stop  offset="0.717" style="stop-color:#7EC490"/>
			<stop  offset="0.918" style="stop-color:#70B982"/>
			<stop  offset="1" style="stop-color:#68B37A"/>
		</linearGradient>
		<path class="st1" d="M0,140.8c0,4.4,3.6,8,8,8H85c4.4,0,8-3.6,8-8V76.2H0V140.8z"/>
		
			<linearGradient id="SVGID_3_" gradientUnits="userSpaceOnUse" x1="44.9079" y1="123.9823" x2="44.9079" y2="80.8075" gradientTransform="matrix(1 0 0 -1 0 151.4294)">
			<stop  offset="0" style="stop-color:#F0F0F0"/>
			<stop  offset="0.533" style="stop-color:#EEEEEE"/>
			<stop  offset="0.823" style="stop-color:#E6E6E6"/>
			<stop  offset="1" style="stop-color:#DCDCDC"/>
		</linearGradient>
		<path class="st2" d="M70.4,42.8c-2.2-4.4-5.5-8.2-9.5-11c-4.1-2.9-9.4-4.3-16-4.3c-6.5,0-11.8,1.4-15.9,4.3
			c-4.1,2.8-7.4,6.6-9.6,11c-2.3,4.7-3.9,9.7-4.6,14.9c-0.6,4.3-1,8.6-1.2,12.9h8.1c0.1-3,0.3-6.2,0.7-9.6c0.5-4.4,1.5-8.7,3.2-12.9
			c1.5-3.8,3.9-7.2,7-9.9c3.1-2.7,7.2-4,12.3-4c5.1,0,9.3,1.3,12.3,4c3.1,2.7,5.5,6.1,7,9.9c1.6,4.1,2.7,8.5,3.2,12.9
			c0.4,3.4,0.6,6.6,0.7,9.6h8.1c-0.1-4.3-0.5-8.7-1.2-12.9C74.3,52.5,72.8,47.4,70.4,42.8z"/>
		
			<linearGradient id="SVGID_4_" gradientUnits="userSpaceOnUse" x1="44.9132" y1="31.3695" x2="44.9132" y2="75.2504" gradientTransform="matrix(1 0 0 -1 0 151.4294)">
			<stop  offset="0" style="stop-color:#FFFFFF"/>
			<stop  offset="0.57" style="stop-color:#FDFDFD"/>
			<stop  offset="0.879" style="stop-color:#F5F5F5"/>
			<stop  offset="1" style="stop-color:#EFEFEF"/>
		</linearGradient>
		<path class="st3" d="M67.4,86.6c-0.5,4.4-1.5,8.7-3.2,12.9c-1.5,3.8-3.9,7.3-7,10c-3.1,2.7-7.2,4-12.3,4s-9.3-1.3-12.3-4
			c-3.1-2.7-5.5-6.1-7-10c-1.6-4.1-2.7-8.5-3.2-12.9c-0.4-3.7-0.7-7.1-0.7-10.4h-8.1c0.1,4.6,0.5,9.2,1.2,13.8
			c0.7,5.2,2.3,10.2,4.6,14.9c2.2,4.4,5.5,8.2,9.6,10.9c4.1,2.8,9.4,4.2,15.9,4.2c6.6,0,11.9-1.4,16-4.2c4-2.8,7.3-6.5,9.5-10.9
			c2.3-4.7,3.9-9.7,4.6-14.9c0.7-4.6,1.1-9.2,1.2-13.8h-8.1C68.1,79.4,67.8,82.9,67.4,86.6z"/>
	</g>
</g>
</svg>
