<?xml version="1.0" encoding="utf-8"?>
<!-- Generator: Adobe Illustrator 21.1.0, SVG Export Plug-In . SVG Version: 6.00 Build 0)  -->
<svg version="1.1" id="Layer_1" xmlns="http://www.w3.org/2000/svg" xmlns:xlink="http://www.w3.org/1999/xlink" x="0px" y="0px"
	 viewBox="0 0 93 148.8" style="enable-background:new 0 0 93 148.8;" xml:space="preserve">
<style type="text/css">
	.st0{fill:url(#SVGID_1_);}
	.st1{fill:url(#SVGID_2_);}
	.st2{fill:url(#SVGID_3_);}
	.st3{fill:url(#SVGID_4_);}
	.st4{fill:url(#SVGID_5_);}
</style>
<title>oss-num</title>
<g id="oss-num-9">
	<g id="oss-9">
		
			<linearGradient id="SVGID_1_" gradientUnits="userSpaceOnUse" x1="46.5" y1="2.627" x2="46.5" y2="75.2451" gradientTransform="matrix(1 0 0 -1 0 151.4294)">
			<stop  offset="0" style="stop-color:#88CC9A"/>
			<stop  offset="0.465" style="stop-color:#86CA98"/>
			<stop  offset="0.717" style="stop-color:#7EC490"/>
			<stop  offset="0.918" style="stop-color:#70B982"/>
			<stop  offset="1" style="stop-color:#68B37A"/>
		</linearGradient>
		<path class="st0" d="M0,140.8c0,4.4,3.6,8,8,8H85c4.4,0,8-3.6,8-8V76.2H0V140.8z"/>
		
			<linearGradient id="SVGID_2_" gradientUnits="userSpaceOnUse" x1="46.5" y1="151.4294" x2="46.5" y2="80.8075" gradientTransform="matrix(1 0 0 -1 0 151.4294)">
			<stop  offset="0" style="stop-color:#61BB78"/>
			<stop  offset="0.541" style="stop-color:#5FBA76"/>
			<stop  offset="0.735" style="stop-color:#58B771"/>
			<stop  offset="0.874" style="stop-color:#4DB267"/>
			<stop  offset="0.985" style="stop-color:#3CAB58"/>
			<stop  offset="1" style="stop-color:#39AA56"/>
		</linearGradient>
		<path class="st1" d="M93,8c0-4.4-3.6-8-8-8H8C3.6,0,0,3.6,0,8v62.6h93V8z"/>
		
			<linearGradient id="SVGID_3_" gradientUnits="userSpaceOnUse" x1="45.7273" y1="123.9867" x2="45.7273" y2="80.7983" gradientTransform="matrix(1 0 0 -1 0 151.4294)">
			<stop  offset="0" style="stop-color:#F0F0F0"/>
			<stop  offset="0.533" style="stop-color:#EEEEEE"/>
			<stop  offset="0.823" style="stop-color:#E6E6E6"/>
			<stop  offset="1" style="stop-color:#DCDCDC"/>
		</linearGradient>
		<path class="st2" d="M24.3,66.7c-1-3-1.5-6.1-1.5-9.3c0-3,0.5-6,1.5-8.9c1.9-5.5,6-10,11.3-12.4c2.7-1.3,5.7-1.9,8.7-1.9
			c3.5-0.1,6.9,0.5,10.2,1.8c2.7,1.1,5.1,2.8,7,5c1.9,2.1,3.2,4.6,4.1,7.3c0.9,2.9,1.3,6,1.3,9.1c0,3.2-0.5,6.3-1.5,9.3
			c-0.5,1.3-1,2.6-1.8,3.9h12.9C76.6,64.7,76,58.8,74.9,53C74,47.8,72,42.7,69.2,38.2c-2.4-3.6-5.8-6.5-9.8-8.2
			c-4.5-1.8-9.3-2.6-14.1-2.5c-4.2,0-8.4,0.7-12.3,2.3c-3.6,1.5-6.9,3.6-9.6,6.4c-2.7,2.8-4.9,6-6.3,9.6c-1.5,3.9-2.3,8-2.3,12.2
			c0,4.1,0.7,8.2,2.1,12.1c0.1,0.2,0.2,0.4,0.3,0.6h8.9C25.4,69.4,24.8,68,24.3,66.7z"/>
		
			<linearGradient id="SVGID_4_" gradientUnits="userSpaceOnUse" x1="46.8511" y1="31.3638" x2="46.8511" y2="75.2438" gradientTransform="matrix(1 0 0 -1 0 151.4294)">
			<stop  offset="0" style="stop-color:#FFFFFF"/>
			<stop  offset="0.57" style="stop-color:#FDFDFD"/>
			<stop  offset="0.879" style="stop-color:#F5F5F5"/>
			<stop  offset="1" style="stop-color:#EFEFEF"/>
		</linearGradient>
		<path class="st3" d="M68.6,76.2c-0.1,3.2-0.4,6.6-0.8,10.1c-0.6,4.5-1.8,8.9-3.6,13.1c-1.7,3.9-4.3,7.3-7.5,10
			c-3.2,2.7-7.5,4-12.8,4c-4.7,0.2-9.3-1.5-12.8-4.6c-3.4-3.2-5.5-7.5-6-12.1H17c0.9,8,3.8,13.9,8.5,17.7c4.7,3.8,11.1,5.7,19.2,5.7
			c4.3,0.1,8.7-0.8,12.6-2.6c3.4-1.6,6.4-3.8,8.8-6.6c2.4-2.7,4.3-5.8,5.7-9.1c1.4-3.2,2.5-6.6,3.3-10c0.7-3.1,1.2-6.2,1.5-9.3
			c0.2-2.5,0.3-4.5,0.3-6.2L68.6,76.2z"/>
		
			<linearGradient id="SVGID_5_" gradientUnits="userSpaceOnUse" x1="43.4117" y1="63.3973" x2="43.4117" y2="75.2438" gradientTransform="matrix(1 0 0 -1 0 151.4294)">
			<stop  offset="0" style="stop-color:#FFFFFF"/>
			<stop  offset="0.57" style="stop-color:#FDFDFD"/>
			<stop  offset="0.879" style="stop-color:#F5F5F5"/>
			<stop  offset="1" style="stop-color:#EFEFEF"/>
		</linearGradient>
		<path class="st4" d="M32.3,85.8c3.9,1.5,8,2.3,12.2,2.3c8.9,0,17.2-4.5,22.2-11.8h-7.5c-1.5,1.3-3.2,2.4-5.1,3.2
			c-3,1.3-6.2,1.9-9.5,1.9c-3.2,0.1-6.3-0.6-9.2-1.9c-1.8-0.8-3.4-1.9-4.9-3.2H20.2c0.8,1.2,1.7,2.3,2.7,3.4
			C25.5,82.3,28.7,84.4,32.3,85.8z"/>
	</g>
</g>
</svg>
