<?xml version="1.0" encoding="utf-8"?>
<!-- Generator: Adobe Illustrator 21.1.0, SVG Export Plug-In . SVG Version: 6.00 Build 0)  -->
<svg version="1.1" id="Layer_1" xmlns="http://www.w3.org/2000/svg" xmlns:xlink="http://www.w3.org/1999/xlink" x="0px" y="0px"
	 viewBox="0 0 93 148.8" style="enable-background:new 0 0 93 148.8;" xml:space="preserve">
<style type="text/css">
	.st0{fill:url(#SVGID_1_);}
	.st1{fill:url(#SVGID_2_);}
	.st2{fill:url(#SVGID_3_);}
	.st3{fill:url(#SVGID_4_);}
</style>
<title>oss-num</title>
<g id="oss-num-2">
	<g id="oss-2">
		
			<linearGradient id="SVGID_1_" gradientUnits="userSpaceOnUse" x1="46.5" y1="151.4252" x2="46.5" y2="80.8053" gradientTransform="matrix(1 0 0 -1 0 151.4252)">
			<stop  offset="0" style="stop-color:#61BB78"/>
			<stop  offset="0.541" style="stop-color:#5FBA76"/>
			<stop  offset="0.735" style="stop-color:#58B771"/>
			<stop  offset="0.874" style="stop-color:#4DB267"/>
			<stop  offset="0.985" style="stop-color:#3CAB58"/>
			<stop  offset="1" style="stop-color:#39AA56"/>
		</linearGradient>
		<path class="st0" d="M93,8c0-4.4-3.6-8-8-8H8C3.6,0,0,3.6,0,8v62.6h93L93,8L93,8z"/>
		
			<linearGradient id="SVGID_2_" gradientUnits="userSpaceOnUse" x1="46.4993" y1="2.627" x2="46.4993" y2="75.2431" gradientTransform="matrix(1 0 0 -1 0 151.4252)">
			<stop  offset="0" style="stop-color:#88CC9A"/>
			<stop  offset="0.465" style="stop-color:#86CA98"/>
			<stop  offset="0.717" style="stop-color:#7EC490"/>
			<stop  offset="0.918" style="stop-color:#70B982"/>
			<stop  offset="1" style="stop-color:#68B37A"/>
		</linearGradient>
		<path class="st1" d="M0,140.8c0,4.4,3.6,8,8,8H85c4.4,0,8-3.6,8-8V76.2H0V140.8z"/>
		
			<linearGradient id="SVGID_3_" gradientUnits="userSpaceOnUse" x1="46.9601" y1="123.9878" x2="46.9601" y2="80.8053" gradientTransform="matrix(1 0 0 -1 0 151.4252)">
			<stop  offset="0" style="stop-color:#F0F0F0"/>
			<stop  offset="0.533" style="stop-color:#EEEEEE"/>
			<stop  offset="0.823" style="stop-color:#E6E6E6"/>
			<stop  offset="1" style="stop-color:#DCDCDC"/>
		</linearGradient>
		<path class="st2" d="M75.3,52.8c0.1-3.8-0.6-7.6-2.1-11.1c-1.3-3.1-3.4-5.8-5.9-7.9c-2.6-2.1-5.6-3.8-8.9-4.8
			c-3.6-1.1-7.3-1.6-11-1.6c-4.4-0.1-8.7,0.7-12.8,2.4c-3.5,1.5-6.6,3.7-9.1,6.6c-2.5,3-4.3,6.4-5.3,10.1c-1.2,4.2-1.7,8.5-1.6,12.8
			h8.1c-0.1-3.2,0.2-6.4,1-9.5c0.7-2.9,1.9-5.6,3.5-8c1.6-2.3,3.8-4.2,6.4-5.5c2.9-1.4,6.2-2.2,9.4-2.1c2.6,0,5.3,0.4,7.8,1.2
			c2.4,0.8,4.5,2,6.4,3.6c1.9,1.6,3.3,3.6,4.4,5.8c1.1,2.4,1.7,5.1,1.6,7.8c0.1,3.2-0.6,6.4-1.9,9.3c-1.4,2.9-3.3,5.4-5.6,7.7
			c-0.3,0.3-0.7,0.7-1,1h10.4c1.8-2.3,3.2-4.8,4.3-7.5C74.7,59.8,75.4,56.3,75.3,52.8z"/>
		
			<linearGradient id="SVGID_4_" gradientUnits="userSpaceOnUse" x1="46.0662" y1="33.172" x2="46.0662" y2="75.2365" gradientTransform="matrix(1 0 0 -1 0 151.4252)">
			<stop  offset="0" style="stop-color:#FFFFFF"/>
			<stop  offset="0.57" style="stop-color:#FDFDFD"/>
			<stop  offset="0.879" style="stop-color:#F5F5F5"/>
			<stop  offset="1" style="stop-color:#EFEFEF"/>
		</linearGradient>
		<path class="st3" d="M51.3,76.6c-3.1,2.2-6.3,4.3-9.4,6.4c-3.2,2.1-6.3,4.3-9.3,6.6c-3,2.2-5.7,4.7-8.1,7.5
			c-2.4,2.8-4.4,5.9-5.8,9.3c-1.5,3.8-2.3,7.8-2.3,11.8h59.3v-7.5h-50c0.5-3.1,1.9-5.9,3.9-8.3c2.1-2.6,4.5-4.9,7.1-7
			c2.7-2.1,5.5-4.1,8.4-5.8c2.9-1.8,5.4-3.4,7.6-4.8c3-1.9,5.8-3.9,8.6-6.1c1-0.8,1.9-1.7,2.9-2.5H52C51.8,76.3,51.6,76.5,51.3,76.6
			z"/>
	</g>
</g>
</svg>
