<?xml version="1.0" encoding="utf-8"?>
<!-- Generator: Adobe Illustrator 21.1.0, SVG Export Plug-In . SVG Version: 6.00 Build 0)  -->
<svg version="1.1" id="Layer_1" xmlns="http://www.w3.org/2000/svg" xmlns:xlink="http://www.w3.org/1999/xlink" x="0px" y="0px"
	 viewBox="0 0 93 148.8" style="enable-background:new 0 0 93 148.8;" xml:space="preserve">
<style type="text/css">
	.st0{fill:url(#SVGID_1_);}
	.st1{fill:url(#SVGID_2_);}
	.st2{fill:url(#SVGID_3_);}
	.st3{fill:url(#SVGID_4_);}
</style>
<title>oss-num</title>
<g id="oss-num-8">
	<g id="oss-8">
		
			<linearGradient id="SVGID_1_" gradientUnits="userSpaceOnUse" x1="46.5" y1="2.627" x2="46.5" y2="75.2451" gradientTransform="matrix(1 0 0 -1 0 151.4294)">
			<stop  offset="0" style="stop-color:#88CC9A"/>
			<stop  offset="0.465" style="stop-color:#86CA98"/>
			<stop  offset="0.717" style="stop-color:#7EC490"/>
			<stop  offset="0.918" style="stop-color:#70B982"/>
			<stop  offset="1" style="stop-color:#68B37A"/>
		</linearGradient>
		<path class="st0" d="M0,140.8c0,4.4,3.6,8,8,8H85c4.4,0,8-3.6,8-8V76.2H0V140.8z"/>
		
			<linearGradient id="SVGID_2_" gradientUnits="userSpaceOnUse" x1="46.5" y1="151.4294" x2="46.5" y2="80.8075" gradientTransform="matrix(1 0 0 -1 0 151.4294)">
			<stop  offset="0" style="stop-color:#61BB78"/>
			<stop  offset="0.541" style="stop-color:#5FBA76"/>
			<stop  offset="0.735" style="stop-color:#58B771"/>
			<stop  offset="0.874" style="stop-color:#4DB267"/>
			<stop  offset="0.985" style="stop-color:#3CAB58"/>
			<stop  offset="1" style="stop-color:#39AA56"/>
		</linearGradient>
		<path class="st1" d="M93,8c0-4.4-3.6-8-8-8H8C3.6,0,0,3.6,0,8v62.6h93V8z"/>
		
			<linearGradient id="SVGID_3_" gradientUnits="userSpaceOnUse" x1="45.867" y1="30.0559" x2="45.867" y2="75.2491" gradientTransform="matrix(1 0 0 -1 0 151.4294)">
			<stop  offset="0" style="stop-color:#FFFFFF"/>
			<stop  offset="0.57" style="stop-color:#FDFDFD"/>
			<stop  offset="0.879" style="stop-color:#F5F5F5"/>
			<stop  offset="1" style="stop-color:#EFEFEF"/>
		</linearGradient>
		<path class="st2" d="M61.9,79.6c4.5,3.5,7.1,9,6.9,14.7c0.1,3.1-0.5,6.2-1.8,9c-1.1,2.5-2.8,4.6-4.9,6.4c-2.1,1.7-4.6,3-7.3,3.7
			c-2.9,0.8-5.9,1.2-8.9,1.2c-3,0-6-0.4-8.9-1.3c-2.6-0.8-5.1-2.1-7.3-3.8c-2.1-1.7-3.8-3.9-4.9-6.4c-1.2-2.8-1.9-5.8-1.8-8.9
			c-0.1-3,0.6-5.9,1.9-8.6c1.2-2.4,2.9-4.5,5-6.2c1.8-1.5,4-2.6,6.2-3.3H22.7c-1,0.9-2,1.9-2.8,3c-3.2,4.4-5,9.7-5,15.2
			c-0.1,4.1,0.7,8.2,2.4,11.9c1.6,3.3,3.8,6.2,6.7,8.4c2.9,2.3,6.3,4,9.9,5c3.9,1.1,7.9,1.7,12,1.7c4.1,0,8.1-0.5,12-1.7
			c3.6-1,6.9-2.7,9.8-5c2.9-2.3,5.1-5.1,6.7-8.4c1.7-3.7,2.5-7.8,2.4-11.9c0.2-5.5-1.5-10.9-4.8-15.2c-0.9-1.1-1.8-2.1-2.9-2.9H55.4
			C57.7,76.9,59.9,78.1,61.9,79.6z"/>
		
			<linearGradient id="SVGID_4_" gradientUnits="userSpaceOnUse" x1="45.7913" y1="122.6702" x2="45.7913" y2="80.8062" gradientTransform="matrix(1 0 0 -1 0 151.4294)">
			<stop  offset="0" style="stop-color:#F0F0F0"/>
			<stop  offset="0.533" style="stop-color:#EEEEEE"/>
			<stop  offset="0.823" style="stop-color:#E6E6E6"/>
			<stop  offset="1" style="stop-color:#DCDCDC"/>
		</linearGradient>
		<path class="st3" d="M69.3,63.8c2.6-3.6,4-8.1,3.9-12.5c0.1-3.5-0.7-7-2.4-10c-1.5-2.8-3.7-5.2-6.3-7c-2.7-1.9-5.7-3.3-8.8-4.1
			c-6.5-1.8-13.3-1.8-19.8,0c-3.1,0.8-6.1,2.2-8.7,4.1c-2.6,1.8-4.7,4.2-6.2,7c-1.6,3.1-2.5,6.5-2.4,10c-0.2,4.5,1.2,8.9,3.8,12.5
			c2.4,3.2,5.8,5.5,9.5,6.8h28C63.6,69.4,66.9,67,69.3,63.8z M45.9,68c-2.4,0.1-4.8-0.2-7.1-0.8c-2.2-0.6-4.3-1.6-6.2-3
			c-1.8-1.4-3.3-3.2-4.4-5.3c-1.2-2.4-1.7-5-1.7-7.7c0-2.4,0.5-4.7,1.6-6.8c1-1.9,2.5-3.6,4.3-4.9c1.9-1.3,4-2.3,6.2-3
			c2.3-0.7,4.8-1,7.2-1c2.6,0,5.1,0.3,7.6,1c2.2,0.6,4.2,1.6,6,3c1.7,1.3,3.1,3,4.1,4.9c1,2.1,1.5,4.5,1.5,6.8
			c0.1,2.6-0.5,5.2-1.6,7.6c-1,2.1-2.5,3.9-4.2,5.3c-1.8,1.4-3.9,2.4-6.1,3C50.7,67.8,48.3,68.1,45.9,68z"/>
	</g>
</g>
</svg>
