<?xml version="1.0" encoding="utf-8"?>
<!-- Generator: Adobe Illustrator 22.0.1, SVG Export Plug-In . SVG Version: 6.00 Build 0)  -->
<svg version="1.1" id="Layer_1" xmlns="http://www.w3.org/2000/svg" xmlns:xlink="http://www.w3.org/1999/xlink" x="0px" y="0px"
	 viewBox="0 0 147.3 56.2" style="enable-background:new 0 0 147.3 56.2;" xml:space="preserve">
<style type="text/css">
	.st0{opacity:0.4;}
	.st1{fill:#010101;}
</style>
<g id="pull" class="st0">
	<g>
		<path class="st1" d="M88.3,26.1c0-2.1-1.7-3.8-3.8-3.8s-3.8,1.7-3.8,3.8c0,1.7,1.2,3.2,2.8,3.6v9.9c-1.6,0.4-2.8,1.9-2.8,3.6
			c0,2.1,1.7,3.8,3.8,3.8s3.8-1.7,3.8-3.8c0-1.7-1.2-3.2-2.8-3.6v-9.9C87.1,29.3,88.3,27.8,88.3,26.1z M82.7,26.1
			c0-1,0.8-1.8,1.8-1.8s1.8,0.8,1.8,1.8c0,1-0.8,1.8-1.8,1.8S82.7,27.1,82.7,26.1z M86.3,43.3c0,1-0.8,1.8-1.8,1.8s-1.8-0.8-1.8-1.8
			c0-1,0.8-1.8,1.8-1.8S86.3,42.3,86.3,43.3z"/>
	</g>
	<g>
		<path class="st1" d="M99.3,39.6v-9.3c0-1.6-0.5-2.8-1.4-3.7c-1.5-1.4-3.6-1.3-3.6-1.3h-1.6c0.5-0.5,1-1,1.5-1.5
			c0.4-0.4,0.4-1,0-1.4c-0.4-0.4-1-0.4-1.4,0c-1.8,1.8-2.7,2.7-3.1,3.1c-0.2,0.1-0.3,0.3-0.3,0.5c-0.1,0.1-0.1,0.2-0.1,0.3
			c0,0,0,0,0,0c0,0,0,0,0,0c0,0,0,0,0,0c0,0,0,0,0,0c0,0.1,0,0.2,0.1,0.3c0.1,0.2,0.2,0.4,0.4,0.5c0.4,0.5,1.3,1.4,3.1,3.1
			c0.2,0.2,0.5,0.3,0.7,0.3c0.3,0,0.5-0.1,0.7-0.3c0.4-0.4,0.4-1,0-1.4c-0.5-0.5-1-1-1.5-1.5l1.6,0c0,0,1.4-0.1,2.2,0.8
			c0.5,0.5,0.8,1.3,0.8,2.3v9.3c-1.6,0.4-2.8,1.9-2.8,3.6c0,2.1,1.7,3.8,3.8,3.8s3.8-1.7,3.8-3.8C102.1,41.5,100.9,40.1,99.3,39.6z
			 M98.3,45.1c-1,0-1.8-0.8-1.8-1.8c0-1,0.8-1.8,1.8-1.8c1,0,1.8,0.8,1.8,1.8C100.1,44.3,99.3,45.1,98.3,45.1z"/>
	</g>
</g>
</svg>
