<?xml version="1.0" encoding="utf-8"?>
<!-- Generator: Adobe Illustrator 23.0.6, SVG Export Plug-In . SVG Version: 6.00 Build 0)  -->
<svg version="1.1" id="Layer_1" xmlns="http://www.w3.org/2000/svg" xmlns:xlink="http://www.w3.org/1999/xlink" x="0px" y="0px"
	 viewBox="0 0 98.826 110.606" style="enable-background:new 0 0 98.826 110.606;" xml:space="preserve">
<style type="text/css">
	.st0{fill:none;stroke:#b4bfca;stroke-width:3;stroke-linecap:round;stroke-linejoin:round;stroke-miterlimit:10;transform-origin:center;}
	.st1{fill:none;stroke:#929497;stroke-width:3.3332;stroke-linecap:round;stroke-linejoin:round;stroke-miterlimit:10;}
</style>
<path class="st0 ring" d="M89.777,76.275c-6.041,16.248-21.689,27.823-40.04,27.823c-23.585,0-42.705-19.12-42.705-42.705
	s19.12-42.705,42.705-42.705c18.035,0,33.458,11.179,39.719,26.986"/>
<g id="icon-pullrequest_1_">
	<circle class="st1" cx="38.068" cy="46.373" r="4.722"/>
	<circle class="st1" cx="38.068" cy="75.428" r="4.722"/>
	<circle class="st1" cx="61.4" cy="75.428" r="4.722"/>
	<line class="st1" x1="38.068" y1="51.095" x2="38.068" y2="70.706"/>
	<path class="st1" d="M53.206,41.262c0,0-5.417,5.417-5.417,5.472h6.667c0,0,6.889-0.417,6.889,6.833s0,17.055,0,17.055"/>
	<path class="st1" d="M53.206,52.206c0,0-5.417-5.417-5.417-5.472"/>
</g>
</svg>
