<?xml version="1.0" encoding="utf-8"?>
<svg version="1.1" id="Layer_1" x="0px" y="0px" viewBox="0 0 88.5 88.5" style="enable-background:new 0 0 98.826 110.606;" xmlns="http://www.w3.org/2000/svg">
  <style type="text/css">
	.st0{fill:#FFFFFF;stroke:#EDEEEF;stroke-width:3;stroke-linecap:round;stroke-linejoin:round;stroke-miterlimit:10;}
	.st1{fill:none;stroke:#65BABE;stroke-width:2.2222;stroke-linecap:round;stroke-linejoin:round;stroke-miterlimit:10;}
	.st2{fill:#65BABE;}
</style>
  <circle class="st0" cx="44.25" cy="44.25" r="42.705"/>
  <g transform="matrix(1, 0, 0, 1, -7.162996, -15.549)">
    <g>
      <g>
        <path class="st1" d="M81.441,70.695c0,0.006-0.005,0.011-0.011,0.011H20.343c-0.006,0-0.011-0.005-0.011-0.011V50.718 c0-0.006,0.005-0.011,0.011-0.011H81.43c0.006,0,0.011,0.005,0.011,0.011V70.695z"/>
      </g>
    </g>
    <g>
      <path class="st2" d="M35.398,57.515c-0.234-0.208-0.515-0.359-0.835-0.447c-0.317-0.091-0.749-0.135-1.323-0.135h-1.86 c-0.372,0-0.645,0.084-0.832,0.257c-0.186,0.176-0.28,0.454-0.28,0.826v5.517c0,0.334,0.084,0.598,0.25,0.782 c0.171,0.19,0.397,0.285,0.672,0.285c0.265,0,0.487-0.097,0.662-0.286c0.169-0.186,0.255-0.451,0.255-0.791v-1.833h1.134 c0.932,0,1.649-0.204,2.132-0.609c0.494-0.413,0.743-1.021,0.743-1.807c0-0.366-0.061-0.701-0.18-0.996 C35.813,57.981,35.633,57.722,35.398,57.515z M34.256,59.305c0,0.22-0.048,0.397-0.142,0.524c-0.097,0.13-0.235,0.222-0.428,0.282 c-0.206,0.065-0.475,0.098-0.799,0.098h-0.782V58.41h0.782c0.736,0,1.03,0.141,1.143,0.256 C34.182,58.829,34.256,59.037,34.256,59.305z"/>
      <path class="st2" d="M41.118,58.289c-0.089-0.233-0.162-0.42-0.219-0.559c-0.06-0.145-0.137-0.289-0.23-0.426 c-0.101-0.143-0.232-0.263-0.392-0.353c-0.326-0.183-0.859-0.188-1.198,0c-0.162,0.093-0.294,0.215-0.391,0.361 c-0.092,0.136-0.178,0.305-0.255,0.503l-2.018,5.128c-0.077,0.192-0.133,0.342-0.167,0.449c-0.038,0.122-0.056,0.243-0.056,0.361 c0,0.224,0.09,0.423,0.269,0.595c0.177,0.168,0.384,0.253,0.617,0.253c0.279,0,0.488-0.089,0.62-0.265 c0.106-0.141,0.227-0.394,0.369-0.774l0.294-0.792h2.641l0.295,0.774l0.001,0.004c0.047,0.113,0.101,0.242,0.166,0.386 c0.069,0.162,0.137,0.282,0.203,0.366c0.073,0.093,0.165,0.167,0.27,0.219c0.107,0.054,0.235,0.081,0.381,0.081 c0.25,0,0.464-0.089,0.637-0.264c0.177-0.175,0.266-0.375,0.266-0.595c0-0.186-0.077-0.461-0.234-0.839L41.118,58.289z M40.468,61.294h-1.584l0.784-2.189L40.468,61.294z"/>
      <path class="st2" d="M49.144,60.446c-0.24-0.17-0.537-0.319-0.884-0.441c-0.332-0.115-0.707-0.221-1.113-0.318 c-0.316-0.079-0.546-0.14-0.684-0.182c-0.127-0.038-0.251-0.09-0.378-0.16c-0.111-0.061-0.199-0.133-0.26-0.216 c-0.052-0.069-0.078-0.153-0.078-0.254c0-0.166,0.087-0.308,0.263-0.435c0.195-0.14,0.462-0.21,0.793-0.21 c0.355,0,0.609,0.062,0.754,0.182c0.161,0.133,0.302,0.324,0.422,0.574c0.112,0.209,0.216,0.358,0.318,0.457 c0.255,0.246,0.814,0.246,1.114-0.094c0.154-0.174,0.232-0.373,0.232-0.595c0-0.218-0.055-0.443-0.166-0.667 c-0.11-0.221-0.282-0.434-0.512-0.63c-0.229-0.195-0.519-0.354-0.863-0.472c-0.342-0.115-0.747-0.174-1.202-0.174 c-0.573,0-1.081,0.088-1.508,0.261c-0.439,0.177-0.782,0.437-1.019,0.774c-0.238,0.339-0.358,0.73-0.358,1.162 c0,0.452,0.115,0.841,0.343,1.152c0.222,0.304,0.525,0.546,0.899,0.719c0.36,0.168,0.807,0.315,1.33,0.436 c0.387,0.089,0.682,0.169,0.902,0.244c0.201,0.068,0.363,0.166,0.485,0.292c0.109,0.11,0.162,0.254,0.162,0.442 c0,0.237-0.106,0.431-0.324,0.594c-0.233,0.175-0.547,0.263-0.931,0.263c-0.28,0-0.505-0.043-0.668-0.128 c-0.163-0.084-0.289-0.19-0.375-0.316c-0.097-0.14-0.19-0.319-0.275-0.532c-0.086-0.219-0.193-0.39-0.32-0.508 c-0.312-0.285-0.833-0.251-1.125,0.05c-0.158,0.163-0.239,0.36-0.239,0.587c0,0.339,0.113,0.688,0.336,1.039 c0.219,0.346,0.508,0.626,0.859,0.833c0.486,0.282,1.107,0.425,1.846,0.425c0.614,0,1.156-0.104,1.608-0.31 c0.463-0.21,0.82-0.507,1.063-0.881c0.242-0.375,0.365-0.804,0.365-1.273c0-0.392-0.072-0.729-0.215-1.005 C49.599,60.857,49.398,60.626,49.144,60.446z"/>
      <path class="st2" d="M56.108,60.446c-0.24-0.17-0.537-0.319-0.884-0.441c-0.332-0.115-0.707-0.221-1.113-0.318 c-0.316-0.079-0.546-0.14-0.684-0.182c-0.127-0.038-0.251-0.09-0.378-0.16c-0.111-0.061-0.199-0.133-0.26-0.216 c-0.052-0.069-0.078-0.153-0.078-0.254c0-0.166,0.087-0.308,0.263-0.435c0.195-0.14,0.462-0.21,0.793-0.21 c0.355,0,0.609,0.062,0.754,0.182c0.161,0.133,0.302,0.324,0.422,0.574c0.112,0.209,0.216,0.358,0.318,0.457 c0.255,0.246,0.814,0.246,1.114-0.094c0.154-0.174,0.232-0.373,0.232-0.595c0-0.218-0.055-0.443-0.166-0.667 c-0.11-0.221-0.282-0.434-0.512-0.63c-0.229-0.195-0.519-0.354-0.863-0.472c-0.342-0.115-0.747-0.174-1.202-0.174 c-0.573,0-1.081,0.088-1.508,0.261c-0.439,0.177-0.782,0.437-1.019,0.774c-0.238,0.339-0.358,0.73-0.358,1.162 c0,0.452,0.115,0.841,0.343,1.152c0.222,0.304,0.525,0.546,0.899,0.719c0.36,0.168,0.807,0.315,1.33,0.436 c0.387,0.089,0.682,0.169,0.902,0.244c0.201,0.068,0.363,0.166,0.485,0.292c0.109,0.11,0.162,0.254,0.162,0.442 c0,0.237-0.106,0.431-0.324,0.594c-0.233,0.175-0.547,0.263-0.931,0.263c-0.28,0-0.505-0.043-0.668-0.128 c-0.163-0.084-0.289-0.19-0.375-0.316c-0.097-0.14-0.19-0.319-0.275-0.532c-0.086-0.219-0.193-0.39-0.32-0.508 c-0.311-0.285-0.834-0.251-1.125,0.05c-0.158,0.163-0.239,0.36-0.239,0.587c0,0.339,0.113,0.688,0.336,1.039 c0.219,0.346,0.508,0.626,0.859,0.833c0.486,0.282,1.107,0.425,1.846,0.425c0.614,0,1.156-0.104,1.608-0.31 c0.463-0.21,0.82-0.507,1.063-0.881c0.242-0.375,0.365-0.804,0.365-1.273c0-0.392-0.072-0.729-0.215-1.005 C56.562,60.857,56.362,60.626,56.108,60.446z"/>
      <path class="st2" d="M63.091,62.939h-3.185v-1.647h2.814c0.273,0,0.486-0.069,0.635-0.208c0.145-0.142,0.219-0.322,0.219-0.538 c0-0.217-0.079-0.403-0.227-0.536c-0.144-0.132-0.355-0.2-0.627-0.2h-2.814v-1.369h3.073c0.279,0,0.496-0.068,0.647-0.205 c0.154-0.141,0.231-0.327,0.231-0.551c0-0.219-0.08-0.408-0.231-0.546c-0.149-0.137-0.367-0.205-0.647-0.205h-3.828 c-0.231,0-0.428,0.036-0.587,0.107c-0.176,0.081-0.305,0.21-0.384,0.382c-0.075,0.157-0.112,0.352-0.112,0.594v5.381 c0,0.365,0.089,0.639,0.263,0.815c0.178,0.18,0.446,0.268,0.82,0.268h3.94c0.278,0,0.495-0.071,0.647-0.209 c0.157-0.143,0.237-0.331,0.237-0.556c0-0.232-0.079-0.423-0.237-0.566C63.586,63.01,63.369,62.939,63.091,62.939z"/>
      <path class="st2" d="M70.321,57.631c-0.308-0.27-0.658-0.457-1.036-0.554c-0.366-0.095-0.807-0.143-1.313-0.143h-1.89 c-0.363,0-0.638,0.089-0.817,0.267c-0.179,0.18-0.266,0.447-0.266,0.816v5.249c0,0.246,0.023,0.454,0.068,0.616 c0.054,0.193,0.171,0.345,0.349,0.451c0.166,0.099,0.393,0.146,0.694,0.146H68c0.341,0,0.649-0.022,0.918-0.065 c0.276-0.044,0.539-0.124,0.784-0.235c0.246-0.113,0.475-0.264,0.68-0.449c0.257-0.235,0.473-0.51,0.639-0.814 c0.165-0.301,0.289-0.641,0.367-1.012c0.078-0.368,0.117-0.777,0.117-1.216C71.506,59.333,71.106,58.304,70.321,57.631z M69.647,60.677c0,0.939-0.222,1.602-0.663,1.975c-0.086,0.076-0.192,0.137-0.316,0.181c-0.133,0.048-0.257,0.076-0.379,0.088 c-0.132,0.012-0.315,0.018-0.548,0.018h-0.904v-4.47H67.6c0.419,0,0.781,0.046,1.075,0.136c0.268,0.084,0.49,0.275,0.679,0.587 C69.548,59.511,69.647,60.01,69.647,60.677z"/>
    </g>
  </g>
</svg>