<?xml version="1.0" encoding="utf-8"?>
<!-- Generator: Adobe Illustrator 16.0.4, SVG Export Plug-In . SVG Version: 6.00 Build 0)  -->
<!DOCTYPE svg PUBLIC "-//W3C//DTD SVG 1.1//EN" "http://www.w3.org/Graphics/SVG/1.1/DTD/svg11.dtd">
<svg version="1.1" id="Layer_1" xmlns="http://www.w3.org/2000/svg" xmlns:xlink="http://www.w3.org/1999/xlink" x="0px" y="0px"
	 width="65.5px" height="65.5px" viewBox="0 0 65.5 65.5" enable-background="new 0 0 65.5 65.5" xml:space="preserve">
<g>
	<g>
		<path fill="#EDEEEE" d="M32.753,65.25c-17.921,0-32.5-14.578-32.5-32.499c0-17.921,14.579-32.5,32.5-32.5s32.5,14.579,32.5,32.5
			C65.253,50.672,50.674,65.25,32.753,65.25z M32.753,3.251c-16.267,0-29.5,13.233-29.5,29.5c0,16.266,13.233,29.499,29.5,29.499
			s29.5-13.232,29.5-29.499C62.253,16.485,49.02,3.251,32.753,3.251z"/>
	</g>
	<path fill="#4FA5A2" d="M47.431,30.87c-1.68,0-3.144,0.927-3.909,2.294c-3.857-0.018-7.014-1.619-9.383-4.761
		c-0.835-1.107-1.434-2.231-1.843-3.142c0.983-0.822,1.609-2.057,1.609-3.439c0-2.474-2.005-4.479-4.479-4.479
		c-2.473,0-4.479,2.005-4.479,4.479c0,1.672,0.917,3.129,2.274,3.899l-0.001-0.001v14.706c-1.382,0.764-2.318,2.232-2.318,3.924
		c0,2.473,2.005,4.479,4.479,4.479c2.473,0,4.479-2.006,4.479-4.479c0-1.654-0.896-3.096-2.229-3.871v-8.186
		c3.106,3.454,7.191,5.272,11.914,5.282c0.772,1.346,2.223,2.25,3.885,2.25c2.474,0,4.479-2.004,4.479-4.477
		C51.909,32.875,49.904,30.87,47.431,30.87z M27.188,21.823c0-1.236,1.003-2.239,2.239-2.239s2.239,1.003,2.239,2.239
		s-1.003,2.24-2.239,2.24S27.188,23.059,27.188,21.823z M29.382,46.588c-1.237,0-2.239-1.002-2.239-2.238
		c0-1.238,1.002-2.24,2.239-2.24c1.236,0,2.239,1.002,2.239,2.24C31.621,45.586,30.618,46.588,29.382,46.588z M47.431,37.588
		c-1.236,0-2.239-1.004-2.239-2.24s1.003-2.238,2.239-2.238c1.237,0,2.239,1.002,2.239,2.238S48.668,37.588,47.431,37.588z"/>
</g>
</svg>
