<?xml version="1.0" encoding="utf-8"?>
<!-- Generator: Adobe Illustrator 16.0.4, SVG Export Plug-In . SVG Version: 6.00 Build 0)  -->
<!DOCTYPE svg PUBLIC "-//W3C//DTD SVG 1.1//EN" "http://www.w3.org/Graphics/SVG/1.1/DTD/svg11.dtd">
<svg version="1.1" id="Layer_1" xmlns="http://www.w3.org/2000/svg" xmlns:xlink="http://www.w3.org/1999/xlink" x="0px" y="0px"
	 width="65.5px" height="65.5px" viewBox="0 0 65.5 65.5" enable-background="new 0 0 65.5 65.5" xml:space="preserve">
<g>
	<g>
		<path fill="#EDEEEE" d="M32.753,65.25c-17.92,0-32.5-14.578-32.5-32.499c0-17.921,14.58-32.5,32.5-32.5
			c17.921,0,32.5,14.58,32.5,32.5C65.253,50.672,50.674,65.25,32.753,65.25z M32.753,3.251c-16.266,0-29.5,13.234-29.5,29.5
			c0,16.266,13.234,29.499,29.5,29.499c16.267,0,29.5-13.232,29.5-29.499C62.253,16.485,49.02,3.251,32.753,3.251z"/>
	</g>
	<g>
		<g>
			<g>
				<path fill="#939598" d="M16.186,21.915v24.023h32V21.915H16.186z M24.956,23.314c0.491,0,0.891,0.398,0.891,0.89
					c0,0.492-0.399,0.891-0.891,0.891c-0.492,0-0.89-0.398-0.89-0.891C24.066,23.713,24.464,23.314,24.956,23.314z M22.084,23.314
					c0.491,0,0.89,0.398,0.89,0.89c0,0.492-0.398,0.891-0.89,0.891s-0.89-0.398-0.89-0.891
					C21.194,23.713,21.593,23.314,22.084,23.314z M18.321,24.204c0-0.491,0.398-0.89,0.89-0.89c0.492,0,0.89,0.398,0.89,0.89
					c0,0.492-0.397,0.891-0.89,0.891C18.72,25.095,18.321,24.696,18.321,24.204z M45.516,43.268h-26.66V26.812h26.66V43.268z"/>
			</g>
			<g>
				<rect x="21.083" y="29.173" fill="#939598" width="15.721" height="1.779"/>
			</g>
			<g>
				<rect x="21.083" y="32.735" fill="#939598" width="11.713" height="1.779"/>
			</g>
			<g>
				<rect x="21.083" y="36.297" fill="#939598" width="20.619" height="1.779"/>
			</g>
		</g>
		<g>
			<g>
				<path fill="#2EB459" d="M46.241,34.239c-4.47,0-8.107-3.637-8.107-8.107c0-4.47,3.638-8.107,8.107-8.107
					c4.469,0,8.105,3.637,8.105,8.107C54.347,30.602,50.71,34.239,46.241,34.239z"/>
				<path fill="#FFFFFF" d="M46.241,18.548c4.188,0,7.582,3.396,7.582,7.584c0,4.188-3.395,7.583-7.582,7.583
					c-4.189,0-7.584-3.396-7.584-7.583C38.657,21.943,42.052,18.548,46.241,18.548 M46.241,17.502c-4.759,0-8.63,3.871-8.63,8.63
					c0,4.758,3.871,8.629,8.63,8.629c4.758,0,8.628-3.871,8.628-8.629C54.869,21.373,50.999,17.502,46.241,17.502L46.241,17.502z"/>
			</g>
			<g>
				<g>
					<path fill="#FFFFFF" d="M48.901,22.258l-3.314,5.201c-0.117,0.183-0.359,0.235-0.541,0.119l-1.885-1.217
						c-0.18-0.117-0.422-0.065-0.539,0.117l-0.744,1.168c-0.117,0.18-0.064,0.424,0.115,0.541l2.953,1.923
						c0.18,0.117,0.5,0.176,0.709,0.131l0.443-0.099c0.211-0.045,0.479-0.229,0.592-0.412l4.023-6.308
						c0.113-0.182,0.061-0.426-0.121-0.542l-1.152-0.74C49.261,22.024,49.017,22.077,48.901,22.258z"/>
				</g>
			</g>
		</g>
	</g>
</g>
</svg>
