<?xml version="1.0" encoding="utf-8"?>
<!-- Generator: Adobe Illustrator 16.0.4, SVG Export Plug-In . SVG Version: 6.00 Build 0)  -->
<!DOCTYPE svg PUBLIC "-//W3C//DTD SVG 1.1//EN" "http://www.w3.org/Graphics/SVG/1.1/DTD/svg11.dtd">
<svg version="1.1" id="Layer_1" xmlns="http://www.w3.org/2000/svg" xmlns:xlink="http://www.w3.org/1999/xlink" x="0px" y="0px"
	 width="65.5px" height="65.5px" viewBox="0 0 65.5 65.5" enable-background="new 0 0 65.5 65.5" xml:space="preserve">
<g>
	<g>
		<g>
			<path fill="none" d="M63.652,35.139c-0.01,0.129-0.018,0.256-0.029,0.383C63.635,35.395,63.643,35.268,63.652,35.139z"/>
		</g>
		<g>
			<path fill="none" d="M63.328,37.854c-0.011,0.062-0.022,0.123-0.033,0.186C63.306,37.977,63.317,37.917,63.328,37.854z"/>
		</g>
		<g>
			<path fill="none" d="M63.626,30.01c0.011,0.133,0.02,0.265,0.03,0.396C63.646,30.274,63.638,30.143,63.626,30.01z"/>
		</g>
		<g>
			<polygon fill="none" points="3.386,22.827 3.386,22.827 3.386,22.828 			"/>
		</g>
		<g>
			<path fill="none" d="M2.212,38.042c-0.011-0.062-0.023-0.127-0.033-0.189C2.188,37.915,2.201,37.979,2.212,38.042z"/>
		</g>
		<g>
			<path fill="none" d="M2.168,27.707c0.008-0.047,0.018-0.094,0.025-0.141C2.186,27.613,2.176,27.66,2.168,27.707z"/>
		</g>
		<g>
			<path fill="none" d="M1.883,35.524c-0.011-0.129-0.02-0.258-0.029-0.385C1.863,35.266,1.871,35.395,1.883,35.524z"/>
		</g>
		<g>
			<polygon fill="none" points="3.436,42.823 3.437,42.825 3.437,42.827 			"/>
		</g>
		<g>
			<path fill="none" d="M1.851,30.408c0.01-0.133,0.019-0.267,0.03-0.398C1.869,30.142,1.86,30.275,1.851,30.408z"/>
		</g>
		<g>
			<path fill="none" d="M63.313,27.568c0.008,0.046,0.017,0.092,0.024,0.137C63.33,27.66,63.321,27.614,63.313,27.568z"/>
		</g>
		<g>
			<path fill="#DFEFDA" d="M3.387,22.826c0.228-0.676,0.474-1.342,0.745-1.995C3.859,21.484,3.614,22.15,3.387,22.826z"/>
		</g>
		<g>
			<path fill="#DFEFDA" d="M3.386,22.827L3.386,22.827c-0.517,1.531-0.916,3.115-1.192,4.74c-0.008,0.047-0.018,0.094-0.025,0.141
				c-0.125,0.758-0.219,1.526-0.287,2.303c-0.012,0.132-0.021,0.266-0.03,0.398c-0.059,0.773-0.098,1.555-0.098,2.344
				c0,0.805,0.04,1.598,0.101,2.387c0.01,0.127,0.019,0.256,0.029,0.385c0.07,0.783,0.167,1.561,0.296,2.328
				c0.01,0.062,0.022,0.127,0.033,0.189c0.285,1.641,0.693,3.238,1.224,4.781l0.001,0.002l58.633,0.002
				c0.531-1.545,0.94-3.145,1.226-4.787c0.011-0.062,0.022-0.123,0.033-0.186c0.128-0.768,0.225-1.547,0.295-2.332
				c0.012-0.127,0.02-0.254,0.029-0.383c0.061-0.789,0.101-1.582,0.101-2.387c0-0.79-0.038-1.57-0.097-2.346
				c-0.011-0.132-0.02-0.264-0.03-0.396c-0.069-0.775-0.163-1.545-0.288-2.305c-0.008-0.045-0.017-0.091-0.024-0.137
				c-0.276-1.626-0.676-3.211-1.193-4.742H3.386z"/>
		</g>
		<g>
			<path fill="#DFEFDA" d="M62.12,22.827c-0.227-0.673-0.471-1.337-0.742-1.987C61.648,21.491,61.894,22.154,62.12,22.827
				L62.12,22.827z"/>
		</g>
		<g>
			<polygon fill="#6DBF5D" points="3.437,42.827 3.438,42.831 3.437,42.827 			"/>
		</g>
		<g>
			<path fill="#6DBF5D" d="M61.313,44.827c0.276-0.654,0.523-1.324,0.756-2H3.437c0.001,0,0.001,0.002,0.002,0.004
				c0.231,0.674,0.479,1.342,0.755,1.996H61.313z"/>
		</g>
		<g>
			<polygon fill="#6DBF5D" points="4.134,20.827 4.132,20.831 4.134,20.827 			"/>
		</g>
		<g>
			<polygon fill="#6DBF5D" points="61.373,20.827 61.373,20.827 61.378,20.839 			"/>
		</g>
		<g>
			<polygon fill="#6DBF5D" points="3.387,22.826 3.386,22.827 3.386,22.827 			"/>
		</g>
		<g>
			<path fill="#6DBF5D" d="M62.12,22.827c-0.227-0.673-0.472-1.336-0.742-1.987c-0.002-0.004-0.003-0.009-0.005-0.013H4.134
				c-0.001,0.001-0.001,0.003-0.002,0.004c-0.271,0.653-0.518,1.319-0.745,1.995l-0.001,0.001H62.12z"/>
		</g>
		<g>
			<path fill="#DFEFDA" d="M63.656,30.406c0.059,0.775,0.097,1.556,0.097,2.346C63.753,31.962,63.714,31.182,63.656,30.406z"/>
		</g>
		<g>
			<path fill="#DFEFDA" d="M63.753,32.752c0,0.805-0.04,1.598-0.101,2.387C63.713,34.35,63.753,33.557,63.753,32.752z"/>
		</g>
		<g>
			<path fill="#DFEFDA" d="M63.313,27.568c-0.274-1.627-0.676-3.21-1.193-4.742l0,0C62.638,24.357,63.037,25.942,63.313,27.568z"/>
		</g>
		<g>
			<path fill="#DFEFDA" d="M63.338,27.705c0.125,0.76,0.219,1.529,0.288,2.305C63.558,29.233,63.462,28.465,63.338,27.705z"/>
		</g>
		<g>
			<path fill="#DFEFDA" d="M62.069,42.827L62.069,42.827c0.531-1.545,0.942-3.143,1.226-4.787
				C63.01,39.682,62.601,41.282,62.069,42.827z"/>
		</g>
		<g>
			<path fill="#DFEFDA" d="M63.623,35.522c-0.07,0.785-0.167,1.564-0.295,2.332C63.455,37.084,63.554,36.309,63.623,35.522z"/>
		</g>
		<g>
			<path fill="#DFEFDA" d="M1.753,32.752c0-0.789,0.039-1.57,0.098-2.344C1.792,31.183,1.753,31.963,1.753,32.752z"/>
		</g>
		<g>
			<path fill="#DFEFDA" d="M1.854,35.139c-0.061-0.789-0.101-1.582-0.101-2.387C1.753,33.557,1.794,34.35,1.854,35.139z"/>
		</g>
		<g>
			<path fill="#DFEFDA" d="M2.193,27.566c0.276-1.625,0.676-3.209,1.192-4.739C2.869,24.357,2.468,25.94,2.193,27.566z"/>
		</g>
		<g>
			<path fill="#DFEFDA" d="M3.436,42.823c-0.53-1.543-0.938-3.141-1.224-4.781C2.494,39.682,2.905,41.28,3.436,42.823z"/>
		</g>
		<g>
			<path fill="#DFEFDA" d="M2.179,37.852c-0.129-0.768-0.226-1.545-0.296-2.328C1.953,36.309,2.051,37.084,2.179,37.852z"/>
		</g>
		<g>
			<path fill="#DFEFDA" d="M1.881,30.01c0.068-0.776,0.162-1.545,0.287-2.303C2.044,28.465,1.949,29.233,1.881,30.01z"/>
		</g>
	</g>
	<g>
		<g>
			<path fill="#EDEEEE" d="M32.753,65.25c-17.921,0-32.5-14.578-32.5-32.499c0-17.921,14.579-32.5,32.5-32.5s32.5,14.579,32.5,32.5
				C65.253,50.672,50.674,65.25,32.753,65.25z M32.753,3.251c-16.267,0-29.5,13.233-29.5,29.5c0,16.266,13.233,29.499,29.5,29.499
				s29.5-13.232,29.5-29.499C62.253,16.485,49.02,3.251,32.753,3.251z"/>
		</g>
	</g>
	<g>
		<path fill="#6DBF5D" d="M13.111,28.629h1.702l2.546,7.198h-1.631l-0.475-1.48h-2.65l-0.488,1.48h-1.573L13.111,28.629z
			 M13.012,33.106h1.843l-0.909-2.832L13.012,33.106z"/>
		<path fill="#6DBF5D" d="M19.638,35.827h-1.392v-7.198h1.392V35.827z"/>
		<path fill="#6DBF5D" d="M22.405,35.827h-1.392v-7.198h1.392V35.827z"/>
		<path fill="#6DBF5D" d="M27.972,29.869h-1.411v-1.284h1.411V29.869z M26.561,30.504h1.411v5.323h-1.411V30.504z"/>
		<path fill="#6DBF5D" d="M30.44,34.127c0.029,0.246,0.093,0.422,0.191,0.527c0.173,0.186,0.493,0.277,0.961,0.277
			c0.275,0,0.493-0.041,0.655-0.121c0.162-0.082,0.243-0.203,0.243-0.367c0-0.156-0.065-0.275-0.196-0.355
			c-0.13-0.082-0.615-0.223-1.455-0.42c-0.605-0.15-1.031-0.338-1.278-0.562c-0.248-0.221-0.371-0.54-0.371-0.957
			c0-0.491,0.193-0.914,0.58-1.267c0.386-0.354,0.93-0.53,1.632-0.53c0.665,0,1.207,0.133,1.627,0.397
			c0.419,0.266,0.659,0.724,0.722,1.375h-1.392c-0.02-0.179-0.07-0.32-0.152-0.425c-0.153-0.188-0.414-0.283-0.783-0.283
			c-0.304,0-0.52,0.047-0.648,0.142s-0.193,0.205-0.193,0.332c0,0.159,0.068,0.275,0.205,0.347c0.138,0.075,0.622,0.203,1.453,0.386
			c0.555,0.13,0.97,0.327,1.247,0.59c0.273,0.268,0.41,0.602,0.41,1.002c0,0.527-0.196,0.957-0.59,1.291
			c-0.393,0.334-1.001,0.5-1.822,0.5c-0.839,0-1.457-0.176-1.856-0.529c-0.4-0.354-0.6-0.803-0.6-1.35H30.44z"/>
		<path fill="#6DBF5D" d="M40.211,30.504h1.411l0.811,3.833l0.83-3.833h1.45l-1.543,5.323h-1.431l-0.835-3.877l-0.845,3.877h-1.445
			l-1.494-5.323h1.494l0.83,3.819L40.211,30.504z"/>
		<path fill="#6DBF5D" d="M48.947,30.611c0.371,0.167,0.678,0.429,0.92,0.788c0.218,0.315,0.359,0.683,0.424,1.1
			c0.038,0.245,0.053,0.597,0.046,1.056h-3.876c0.021,0.535,0.207,0.908,0.557,1.123c0.212,0.135,0.468,0.201,0.767,0.201
			c0.317,0,0.575-0.082,0.773-0.244c0.107-0.088,0.203-0.211,0.286-0.367h1.421c-0.038,0.316-0.21,0.637-0.517,0.963
			c-0.477,0.518-1.144,0.775-2.002,0.775c-0.708,0-1.333-0.219-1.875-0.654c-0.541-0.438-0.812-1.146-0.812-2.131
			c0-0.922,0.244-1.629,0.733-2.121c0.488-0.492,1.123-0.738,1.902-0.738C48.159,30.362,48.576,30.445,48.947,30.611z
			 M46.865,31.813c-0.196,0.203-0.32,0.478-0.37,0.824h2.397c-0.025-0.369-0.149-0.649-0.371-0.841s-0.497-0.287-0.825-0.287
			C47.339,31.51,47.062,31.611,46.865,31.813z"/>
		<path fill="#6DBF5D" d="M52.656,35.827h-1.392v-7.198h1.392V35.827z"/>
		<path fill="#6DBF5D" d="M55.424,35.827h-1.392v-7.198h1.392V35.827z"/>
	</g>
</g>
</svg>
