<?xml version="1.0" encoding="utf-8"?>
<!-- Generator: Adobe Illustrator 16.0.4, SVG Export Plug-In . SVG Version: 6.00 Build 0)  -->
<!DOCTYPE svg PUBLIC "-//W3C//DTD SVG 1.1//EN" "http://www.w3.org/Graphics/SVG/1.1/DTD/svg11.dtd">
<svg version="1.1" id="Layer_1" xmlns="http://www.w3.org/2000/svg" xmlns:xlink="http://www.w3.org/1999/xlink" x="0px" y="0px"
	 width="65.5px" height="65.5px" viewBox="0 0 65.5 65.5" enable-background="new 0 0 65.5 65.5" xml:space="preserve">
<g>
	<g>
		<path fill="#EDEEEE" d="M32.753,65.25c-17.92,0-32.5-14.578-32.5-32.499c0-17.921,14.58-32.5,32.5-32.5
			c17.92,0,32.5,14.579,32.5,32.5C65.253,50.672,50.673,65.25,32.753,65.25z M32.753,3.251c-16.266,0-29.5,13.233-29.5,29.5
			c0,16.266,13.234,29.499,29.5,29.499c16.266,0,29.5-13.232,29.5-29.499C62.253,16.485,49.019,3.251,32.753,3.251z"/>
	</g>
	<g>
		<path fill="#418793" d="M26.87,41.135V25.992c1.374-0.796,2.3-2.285,2.3-3.986c0-2.553-2.066-4.616-4.614-4.616
			s-4.612,2.063-4.612,4.616c0,1.706,0.932,3.199,2.314,4v15.116c-1.383,0.799-2.314,2.293-2.314,4.006
			c0,2.547,2.065,4.611,4.612,4.611c2.548,0,4.614-2.066,4.614-4.611C29.17,43.418,28.244,41.932,26.87,41.135z M24.556,19.688
			c1.282,0,2.319,1.042,2.319,2.323c0,1.283-1.037,2.317-2.319,2.317s-2.321-1.034-2.321-2.317
			C22.234,20.73,23.273,19.688,24.556,19.688z M24.556,47.45c-1.282,0-2.321-1.037-2.321-2.316c0-1.283,1.041-2.324,2.321-2.324
			s2.319,1.041,2.319,2.324C26.875,46.413,25.838,47.45,24.556,47.45z"/>
		<path fill="#418793" d="M45.327,41.122V26.548c0-7.275-6.597-6.833-6.597-6.833h-2.606v-4.638l-6.907,6.93l6.907,6.913V24.3h2.606
			c2.008,0,1.982,2.248,1.982,2.248v14.591c-1.372,0.795-2.293,2.281-2.293,3.988c0,2.547,2.064,4.611,4.612,4.611
			c2.55,0,4.614-2.064,4.614-4.611C47.646,43.413,46.713,41.918,45.327,41.122z M43.032,47.45c-1.282,0-2.319-1.037-2.319-2.316
			c0-1.283,1.037-2.324,2.319-2.324c1.281,0,2.319,1.041,2.319,2.324C45.352,46.413,44.313,47.45,43.032,47.45z"/>
	</g>
</g>
</svg>
