<?xml version="1.0" encoding="utf-8"?>
<svg version="1.1" id="Layer_1" x="0px" y="0px" viewBox="0 0 88.5 88.5" style="enable-background:new 0 0 98.826 110.606;" xmlns="http://www.w3.org/2000/svg">
  <style type="text/css">
	.st0{fill:#FFFFFF;stroke:#B1DBBB;stroke-width:3;stroke-linecap:round;stroke-linejoin:round;stroke-miterlimit:10;}
	.st1{fill:#F6E65C;}
	.st2{fill:#FBF2BF;}
	.st3{fill:#DBBE26;}
	.st4{fill:none;stroke:#666766;stroke-width:1.4444;stroke-linecap:round;stroke-linejoin:round;stroke-miterlimit:10;}
	.st5{fill:#50B964;stroke:#666766;stroke-width:1.4444;stroke-linecap:round;stroke-linejoin:round;stroke-miterlimit:10;}
	.st6{fill:#FFFFFF;stroke:#2EB459;stroke-width:1.4444;stroke-linecap:round;stroke-linejoin:round;stroke-miterlimit:10;}
	.st7{fill:none;stroke:#2EB459;stroke-width:1.4444;stroke-linecap:round;stroke-linejoin:round;stroke-miterlimit:10;}
</style>
  <circle class="st0" cx="44.25" cy="44.25" r="42.705"/>
  <g transform="matrix(1, 0, 0, 1, -6.050999, -14.812)">
    <g>
      <path class="st1" d="M77.376,72.231l0-3.795c0-0.642-0.52-1.162-1.162-1.162h-1.898v-4.023c0-10.607-7.02-19.572-16.667-22.508 c-0.007-0.054-0.012-0.103-0.017-0.142c-0.099-0.843-0.287-1.696-1.081-2.006c-1.286-0.503-10.403-0.503-11.689,0 c-0.793,0.31-0.982,1.163-1.081,2.006c-0.006,0.049-0.014,0.117-0.023,0.192c-9.56,2.989-16.497,11.913-16.497,22.458v4.023H25.2 c-0.642,0-1.162,0.52-1.162,1.162l0,3.795c-1.008,0-1.613,0.915-0.548,2.033l4.115,4.687c0.562,0.829,1.499,1.325,2.5,1.325 h41.202c1.001,0,1.938-0.496,2.5-1.325l4.115-4.687C78.989,73.145,78.383,72.231,77.376,72.231z"/>
    </g>
    <g>
      <path class="st2" d="M76.848,75.34c0,0-6.354,1.873-25.731,1.873S24.565,75.34,24.565,75.34l0,0l1.776,2.022 c0.593,0.874,2.001,2.842,3.057,2.842h42.158c1.056,0,2.924-1.968,3.517-2.842L76.848,75.34L76.848,75.34z"/>
    </g>
    <path class="st3" d="M71.16,70.27c0,0-0.009,0.003-0.013,0.005l0.013-2.056l0.923-1.403c0,0-1.589,0.256-2.153,1.435 c-0.545,1.14,0.013,2.388-2.317,3.04c-0.042,0.011-8.44,2.169-16.855,2.169c-8.448,0-16.913-2.158-16.956-2.169 c-2.33-0.653-1.772-1.901-2.317-3.04c-0.564-1.179-2.153-1.435-2.153-1.435l0.923,1.403l0.013,2.056 c-0.004-0.001-0.013-0.005-0.013-0.005l-0.1,2.391c0,0,8.015,2.768,20.553,2.768s20.553-2.768,20.553-2.768L71.16,70.27z"/>
    <g>
      <g>
        <path class="st2" d="M23.959,70.27c0,0,0.507-1.207,1.439-1.207c0.932,0,2.933,0,3.347,0c0.414,0,1.028,0.22,1.471,1.207 c0,0-0.005-0.574-0.008-0.613c-0.044-0.843-0.129-1.696-0.485-2.006c-0.577-0.503-4.668-0.503-5.245,0 c-0.356,0.31-0.441,1.163-0.485,2.006C23.989,69.706,23.959,70.27,23.959,70.27z"/>
      </g>
      <g>
        <path class="st2" d="M71.199,70.27c0,0,0.507-1.207,1.439-1.207c0.932,0,2.933,0,3.347,0c0.414,0,1.028,0.22,1.471,1.207 c0,0-0.005-0.574-0.008-0.613c-0.044-0.843-0.129-1.696-0.485-2.006c-0.577-0.503-4.668-0.503-5.245,0 c-0.356,0.31-0.441,1.163-0.485,2.006C71.23,69.706,71.199,70.27,71.199,70.27z"/>
      </g>
    </g>
    <path class="st4" d="M71.189,72.231l0-3.795c0-0.642,0.52-1.162,1.162-1.162h3.863c0.642,0,1.162,0.52,1.162,1.162l0,3.795 c1.008,0,1.613,0.915,0.548,2.033l-4.115,4.687c-0.562,0.829-1.499,1.325-2.5,1.325H30.106c-1.001,0-1.938-0.496-2.5-1.325 l-4.115-4.687c-1.065-1.118-0.46-2.033,0.548-2.033l0-3.795c0-0.642,0.52-1.162,1.162-1.162h3.863c0.642,0,1.162,0.52,1.162,1.162 l0,3.795"/>
    <g>
      <path class="st2" d="M30.738,50.823c-0.776,1.005-1.482,2.067-2.102,3.184c9.124-8.564,14.181-9.684,14.181-9.684l0.607-3.445 C38.115,42.607,33.638,46.172,30.738,50.823z"/>
      <path class="st2" d="M72.778,54.007c-0.62-1.117-1.326-2.179-2.102-3.184c-2.9-4.651-7.377-8.216-12.686-9.944l0.607,3.445 C58.597,44.323,63.654,45.443,72.778,54.007z"/>
    </g>
    <g>
      <path class="st3" d="M42.867,55.961v2.576c0,0,0.088,0.865,0.998,1.48c0.478,0.323,1.905,0.803,3.088,1.24 c0.701,0.259,0.81,0.521,0.849,0.874c0.03,0.278,0.545,5.312,0.763,7.451h-0.893c-0.335,0-0.608,0.169-0.608,0.378v0.751 c0,0.718,0.282,2.127,2.409,2.127h2.467c2.127,0,2.409-1.41,2.409-2.127v-0.751c0-0.208-0.273-0.378-0.608-0.378h-0.893 c0.218-2.138,0.733-7.173,0.763-7.451c0.039-0.353,0.149-0.615,0.849-0.874c1.183-0.438,2.61-0.917,3.088-1.24 c0.91-0.615,0.998-1.48,0.998-1.48v-2.576H42.867z"/>
      <path class="st2" d="M56.15,52.463H45.264c-1.134,0-2.124,0.577-2.397,2.134v0.627c0-0.293,0.251-0.531,0.56-0.531h14.56 c0.309,0,0.56,0.238,0.56,0.531v-0.627C58.274,53.039,57.284,52.463,56.15,52.463z"/>
      <path class="st5" d="M57.574,54.231H43.859c-0.293,0-0.531,0.238-0.531,0.531v3.718c0,0.293,0.238,0.531,0.531,0.531h1.75 c0.293,0,0.531-0.238,0.531-0.531v-1.428h3.003v10.965h-1.085c-0.293,0-0.531,0.238-0.531,0.531v2.067 c0,0.293,0.238,0.531,0.531,0.531h5.317c0.293,0,0.531-0.238,0.531-0.531v-2.067c0-0.293-0.238-0.531-0.531-0.531H52.29V57.052 h3.003v1.428c0,0.293,0.238,0.531,0.531,0.531h1.75c0.293,0,0.531-0.238,0.531-0.531v-3.718 C58.105,54.469,57.867,54.231,57.574,54.231z"/>
    </g>
    <g>
      <g>
        <path class="st3" d="M59.654,48.926l0.299-7.362l-2.276-0.822c0,0,0.849,6.851,0.9,8.184S59.593,50.617,59.654,48.926z"/>
      </g>
      <g>
        <path class="st3" d="M41.76,48.926l-0.299-7.362l2.276-0.822c0,0-0.849,6.851-0.9,8.184 C42.785,50.259,41.821,50.617,41.76,48.926z"/>
      </g>
    </g>
    <g>
      <path class="st2" d="M43.736,41.817c0,0,1.13-1.207,3.206-1.207c2.076,0,6.535,0,7.458,0s2.29,0.22,3.277,1.207 c0,0-0.012-1.178-0.017-1.216c-0.099-0.843-0.287-1.696-1.081-2.006c-1.286-0.503-10.403-0.503-11.689,0 c-0.793,0.31-0.982,1.163-1.081,2.006C43.804,40.65,43.736,41.817,43.736,41.817z"/>
    </g>
    <path class="st4" d="M58.771,49.849c0,0-1.006-8.116-1.139-9.248c-0.099-0.843-0.288-1.696-1.081-2.006 c-1.286-0.503-10.403-0.503-11.689,0c-0.793,0.31-0.982,1.163-1.081,2.006c-0.133,1.131-1.139,9.248-1.139,9.248"/>
    <g>
      <path class="st4" d="M43.403,40.781C33.826,43.76,27.18,52.693,27.18,63.251v4.023"/>
      <path class="st4" d="M57.876,40.74c9.647,2.937,16.358,11.904,16.358,22.511v4.023"/>
    </g>
    <g>
      <path class="st4" d="M63.316,74.453c-1.024,0.143-7.269,0.884-12.609,0.884s-11.585-0.742-12.609-0.884"/>
      <path class="st4" d="M34.991,73.895c-0.508-0.094-0.979-0.187-1.409-0.276"/>
      <path class="st4" d="M66.422,73.895c0.508-0.094,0.979-0.187,1.409-0.276"/>
    </g>
    <g>
      <g>
        <path class="st4" d="M38.984,66.868c-0.047-0.627-0.096-2.38-0.143-3.008c-0.243-3.208-2.075-4.69-2.075-4.69"/>
      </g>
      <g>
        <path class="st4" d="M62.43,66.868c0.047-0.627,0.096-2.38,0.143-3.008c0.243-3.208,2.075-4.69,2.075-4.69"/>
      </g>
    </g>
    <g>
      <circle class="st6" cx="64.433" cy="43.309" r="8.839"/>
      <polyline class="st7" points="60.638,43.58 63.98,46.267 68.228,40.352 &#9;&#9;"/>
    </g>
  </g>
</svg>