<?xml version="1.0" encoding="utf-8"?>
<!-- Generator: Adobe Illustrator 16.0.4, SVG Export Plug-In . SVG Version: 6.00 Build 0)  -->
<!DOCTYPE svg PUBLIC "-//W3C//DTD SVG 1.1//EN" "http://www.w3.org/Graphics/SVG/1.1/DTD/svg11.dtd">
<svg version="1.1" id="Layer_1" xmlns="http://www.w3.org/2000/svg" xmlns:xlink="http://www.w3.org/1999/xlink" x="0px" y="0px"
	 width="65.5px" height="65.5px" viewBox="0 0 65.5 65.5" enable-background="new 0 0 65.5 65.5" xml:space="preserve">
<g>
	<g>
		<path fill="#EDEEEE" d="M32.75,65.249c-17.92,0-32.499-14.579-32.499-32.499S14.83,0.251,32.75,0.251S65.249,14.83,65.249,32.75
			S50.67,65.249,32.75,65.249z M32.75,3.251c-16.266,0-29.499,13.233-29.499,29.499c0,16.266,13.233,29.499,29.499,29.499
			c16.266,0,29.499-13.233,29.499-29.499C62.249,16.484,49.016,3.251,32.75,3.251z"/>
	</g>
	<g>
		<path fill="#797A7D" d="M37.924,40.609c0.807,0.691,1.526,2.063,1.526,4.162c0,3.006-0.028,5.434-0.028,6.166
			c0,0.184,0.041,0.375,0.122,0.545h-11.39c0.086-0.17,0.125-0.361,0.125-0.545c0-0.533-0.021-1.944-0.032-3.82
			c-6.254,1.359-7.571-3.014-7.571-3.014c-1.023-2.6-2.495-3.291-2.495-3.291c-2.04-1.394,0.153-1.365,0.153-1.365
			c2.256,0.16,3.443,2.32,3.443,2.32c2.004,3.432,5.259,2.441,6.541,1.862c0.203-1.453,0.784-2.44,1.429-3.003
			c-4.989-0.568-10.24-2.496-10.24-11.11c0-2.455,0.876-4.461,2.315-6.033c-0.233-0.568-1.005-2.854,0.221-5.945
			c0,0,1.885-0.606,6.178,2.303c1.797-0.498,3.716-0.749,5.63-0.757c1.91,0.008,3.83,0.259,5.629,0.757
			c4.291-2.909,6.172-2.303,6.172-2.303c1.229,3.092,0.455,5.377,0.224,5.945c1.438,1.572,2.312,3.578,2.312,6.033
			C48.186,38.154,42.932,40.051,37.924,40.609z"/>
	</g>
</g>
</svg>
