<?xml version="1.0" encoding="utf-8"?>
<!-- Generator: Adobe Illustrator 16.0.4, SVG Export Plug-In . SVG Version: 6.00 Build 0)  -->
<!DOCTYPE svg PUBLIC "-//W3C//DTD SVG 1.1//EN" "http://www.w3.org/Graphics/SVG/1.1/DTD/svg11.dtd">
<svg version="1.1" id="Layer_1" xmlns="http://www.w3.org/2000/svg" xmlns:xlink="http://www.w3.org/1999/xlink" x="0px" y="0px"
	 width="65.5px" height="65.5px" viewBox="0 0 65.5 65.5" enable-background="new 0 0 65.5 65.5" xml:space="preserve">
<g>
	<g>
		<path fill="#EDEEEE" d="M32.75,65.249c-17.919,0-32.497-14.578-32.497-32.499c0-17.92,14.578-32.499,32.497-32.499
			c17.92,0,32.499,14.579,32.499,32.499C65.249,50.67,50.67,65.249,32.75,65.249z M32.75,3.251
			c-16.265,0-29.497,13.233-29.497,29.499c0,16.266,13.232,29.499,29.497,29.499c16.266,0,29.499-13.232,29.499-29.499
			C62.249,16.484,49.016,3.251,32.75,3.251z"/>
	</g>
	<g>
		<g>
			<g>
				<path fill="#E6C9A9" d="M47.536,36.883c-0.092-0.068-0.967-0.57-1.396-0.811c-0.004-7.709-6.246-13.958-13.939-13.958
					c-7.7,0-13.938,6.254-13.938,13.961c0,0.021,0,0.041,0,0.059l0,0c0,0,0,0.01,0.002,0.016c0,0.162,0,0.318,0.008,0.482
					c-0.536,0.293-1.41,0.779-1.495,0.854c-0.1,0.082-0.174,0.285-0.069,1.236c0.08,0.713,0.33,1.811,0.584,2.633
					c0.168,0.529,0.338,0.945,0.461,1.074c0.365,0.061,1.159-0.045,1.589-0.164c-0.019-0.08-0.043-0.162-0.062-0.246
					c0.684,2.537,1.809,5.305,3.643,7.016c3.148,2.941,6.611,3.734,8.543,3.938c0,0,0.282,0.076,0.766,0.055
					c0.478,0.021,0.763-0.055,0.763-0.055c1.935-0.203,5.395-0.996,8.539-3.938c1.921-1.789,3.065-4.729,3.736-7.352
					c-0.003,0.02-0.009,0.035-0.013,0.053c0.448,0.094,1.109,0.16,1.432,0.098c0.15-0.16,0.34-0.723,0.515-1.395
					c0.191-0.748,0.36-1.641,0.418-2.275C47.707,37.18,47.633,36.969,47.536,36.883z"/>
			</g>
			<g opacity="0.6">
				<path fill="#D8D5D5" d="M18.398,33.913c0,0,11.169-2.77,27.55-0.301l-0.721,6.346l-3.003,1.977l-7.45-1.256l-1.218-3.99
					l-2.961-0.074l-1.142,4.18l-7.676,1.711l-3.043-2.016L18.398,33.913z"/>
			</g>
			<g>
				<g>
					<path fill="#FFFFFF" d="M39.146,35.131c0,0.275-0.221,0.5-0.496,0.5s-0.502-0.225-0.502-0.5c0-0.277,0.227-0.502,0.502-0.502
						S39.146,34.854,39.146,35.131z"/>
				</g>
				<g>
					<path fill="#353434" d="M39.755,36.602c0.054-0.152,0.072-0.357,0.048-0.635c-0.101-1.059-0.976-1.811-1.759-1.711
						c-0.693,0.094-1.105,0.834-1.095,1.736c-0.002,0.137,0.004,0.273,0.022,0.418c0.138,1.055,0.777,0.9,1.562,0.799
						c0.076-0.01,0.152-0.02,0.227-0.029c0.086-0.01,0.171-0.02,0.251-0.037c0.761-0.105,1.305-0.195,1.761-0.059
						C40.766,37.081,40.453,36.651,39.755,36.602z M38.601,34.821c0.221-0.031,0.414,0.107,0.429,0.299
						c0.024,0.189-0.136,0.359-0.356,0.391c-0.222,0.025-0.418-0.109-0.438-0.299C38.212,35.02,38.377,34.848,38.601,34.821z
						 M36.957,36.165c0,0.061,0.007,0.119,0.015,0.178C36.964,36.284,36.957,36.225,36.957,36.165z"/>
				</g>
			</g>
			<g>
				<g>
					<circle fill="#FFFFFF" cx="26.746" cy="35.168" r="0.498"/>
				</g>
				<g>
					<path fill="#353434" d="M23.83,37.124c0.457-0.139,0.998-0.047,1.757,0.061c0.08,0.014,0.166,0.023,0.252,0.033
						c0.076,0.01,0.149,0.02,0.232,0.027c0.781,0.104,1.422,0.26,1.554-0.793c0.022-0.141,0.026-0.287,0.026-0.422
						c0.011-0.898-0.405-1.641-1.098-1.736c-0.782-0.1-1.658,0.654-1.756,1.717c-0.028,0.273-0.007,0.475,0.048,0.627
						C24.146,36.688,23.833,37.118,23.83,37.124z M27.166,35.25c-0.024,0.188-0.22,0.316-0.438,0.295
						c-0.223-0.023-0.383-0.201-0.367-0.391c0.026-0.186,0.221-0.324,0.441-0.295C27.02,34.883,27.183,35.061,27.166,35.25z
						 M27.625,36.379c0.008-0.057,0.017-0.121,0.019-0.18C27.642,36.258,27.633,36.323,27.625,36.379z"/>
				</g>
			</g>
			<g>
				<path fill="#545960" d="M46.911,32.436c-0.948-0.203-3.465-0.713-6.156-1.027c-3.424-0.4-7.302-0.599-13.63-0.229
					c-6.324,0.369-9.776,1.266-9.776,1.266l1.108,8.313l3.254,2.281l8.202-1.824l1.207-3.99c0.035-0.1,0.115-0.178,0.219-0.189
					c0.309-0.051,0.575-0.074,0.804-0.074c0.227,0,0.496,0.023,0.803,0.074c0.103,0.012,0.185,0.09,0.212,0.189l1.245,4.09
					l8.248,0.936l3.16-2.215L46.911,32.436z M44.646,39.553l-2.238,1.562c-0.052,0.039-0.117,0.057-0.183,0.049l-6.745-0.768
					c-0.106-0.008-0.197-0.088-0.228-0.189l-1.219-3.998c-0.322-0.084-1.16-0.281-1.891-0.281c-0.734,0-1.567,0.197-1.895,0.281
					l-1.212,3.998c-0.022,0.068-0.072,0.125-0.138,0.162c-0.021,0.01-0.041,0.02-0.064,0.021l-6.744,1.502
					c-0.022,0.004-0.044,0.008-0.06,0.008c-0.059,0-0.113-0.018-0.156-0.051l-2.236-1.566c-0.064-0.041-0.106-0.111-0.115-0.186
					l-0.736-5.625c2.18-0.41,7.297-1.225,13.397-1.225c5.989,0,11.047,0.799,13.296,1.223l-0.721,4.896
					C44.749,39.44,44.71,39.51,44.646,39.553z"/>
			</g>
			<g>
				<path fill="#A41E28" d="M46.417,45.309c-0.019,0.002-0.032,0.01-0.045,0.021c-0.035,0.014-0.064,0.031-0.095,0.039
					c-0.028,0.014-0.047,0.025-0.076,0.037c-0.021,0.01-0.041,0.018-0.06,0.029c-0.029,0.014-0.058,0.027-0.093,0.043
					c-0.013,0.008-0.024,0.012-0.037,0.02c-0.032,0.016-0.069,0.033-0.103,0.049c-0.008,0.006-0.015,0.01-0.019,0.014
					c-0.043,0.014-0.08,0.033-0.109,0.049c-0.006,0.004-0.006,0.006-0.013,0.01c-0.078,0.037-0.154,0.072-0.228,0.111
					c-0.024,0.016-0.052,0.027-0.076,0.041c-0.449,0.234-1.041,0.35-1.803,0.35c-0.45,0-0.891-0.037-1.385-0.08
					c-0.981-0.088-2.646-0.283-2.662-0.289l-0.127-0.01l-0.098-0.086c-0.018-0.01-1.475-1.172-2.651-2.096
					c-0.046-0.037-0.091-0.076-0.134-0.109c-0.124-0.107-0.124-0.107-0.197-0.107c-0.377,0-1.472,0.342-3.875,1.088l-0.151,0.047
					l-0.141-0.055c-0.019-0.004-1.597-0.588-3.487-0.588c-0.156,0-0.309,0.002-0.459,0.01c-0.19,0.01-1.249,0.516-2.612,2.662
					l-0.087,0.139L25.439,46.7c-0.019,0.008-2.363,0.76-4.841,1.467l-0.162,0.047l-0.149-0.068
					c-0.017-0.004-0.676-0.311-1.425-0.654c-0.104-0.088-0.197-0.17-0.281-0.246c-0.066-0.029-0.135-0.061-0.205-0.094
					c0.04,0.055,0.077,0.109,0.111,0.168c-0.034-0.018-0.071-0.037-0.111-0.053c0.04,0.016,0.077,0.035,0.111,0.053
					c0.131,0.189,0.268,0.393,0.413,0.596c0.266,0.383,0.542,0.779,0.823,1.15c0.125,0.168,0.249,0.328,0.368,0.488
					c0.987,1.271,2.235,2.451,4.626,2.451c0.304,0,0.619-0.02,0.947-0.059c0.078-0.012,0.149-0.014,0.223-0.023
					c0.072-0.006,0.14-0.018,0.21-0.023c2.08-0.242,2.646-0.342,2.965-0.395c0.081-0.018,0.156-0.029,0.227-0.039
					c0.029-0.006,0.062-0.012,0.091-0.018c0.014,0,0.718-0.09,1.407-0.422c0.473-0.23,0.936-0.574,1.169-1.086
					c0.575-1.287,0.692-1.598,0.695-1.611l0.203-0.533c0.019-0.029,0.039-0.055,0.068-0.074l0,0v0.002
					c0.014,0.008,0.028,0.016,0.039,0.025l0.123,0.166h0.002c0.022,0.02,0.043,0.035,0.062,0.051
					c-0.014-0.008-0.028-0.021-0.039-0.029l0.31,0.377c0.004,0,0.014,0.014,0.034,0.039c0.165,0.188,0.836,0.967,1.628,1.754
					c0.608,0.602,1.335,0.906,2.175,0.906c0.285,0,0.586-0.041,0.889-0.113c0.283-0.066,0.588-0.141,0.895-0.219
					c0.933-0.219,1.961-0.461,2.646-0.641c0.046-0.016,0.091-0.023,0.132-0.037c0.095-0.023,0.188-0.045,0.264-0.066
					c0.126-0.039,0.259-0.068,0.403-0.102c0.825-0.193,1.959-0.457,2.56-1.66c0.165-0.33,0.355-0.699,0.549-1.07
					c0.262-0.521,0.541-1.051,0.793-1.529c0.036-0.076,0.077-0.148,0.11-0.217c0.022-0.041,0.046-0.078,0.062-0.115
					C46.512,45.266,46.467,45.286,46.417,45.309z M34.083,48.584c0.056,0.039,0.113,0.086,0.167,0.123
					C34.2,48.672,34.139,48.625,34.083,48.584z M35.719,49.668c0.128,0.064,0.261,0.133,0.379,0.172
					C35.979,49.801,35.847,49.733,35.719,49.668z M45.156,46.608c-0.311,0.508-0.686,0.973-1.124,1.352
					C44.471,47.581,44.846,47.116,45.156,46.608L45.156,46.608l0.002-0.004L45.156,46.608l0.002-0.004l0,0v0.004H45.156
					L45.156,46.608z"/>
			</g>
			<g>
				<path fill="#9A7F62" d="M29.812,42.239c0,0,1.184,0.74,2.36,0.74c1.179,0,2.543-1.053,2.543-1.053s-0.245,1.736-2.522,1.736
					C29.913,43.663,29.812,42.239,29.812,42.239z"/>
			</g>
			<g opacity="0.4">
				<path fill="#A99580" d="M45.389,41.215c-0.044,0.174-0.085,0.346-0.132,0.521c0.448,0.094,1.109,0.16,1.432,0.098
					c0.15-0.16,0.34-0.723,0.515-1.395C46.804,40.817,46.112,41.334,45.389,41.215z"/>
			</g>
			<g opacity="0.4">
				<path fill="#A99580" d="M17.292,41.356c0.168,0.529,0.338,0.945,0.461,1.074c0.365,0.061,1.159-0.045,1.589-0.164
					c-0.019-0.08-0.043-0.162-0.062-0.246C18.523,42.137,17.791,41.739,17.292,41.356z"/>
			</g>
			<g>
				<g>
					<path fill="#D6BE36" d="M47.777,28.334c-0.009-0.121-0.026-0.242-0.044-0.363c-0.01-0.083-0.028-0.172-0.045-0.257
						c-0.325-0.265-0.697-0.497-1.086-0.71c-0.418-0.235-0.854-0.439-1.299-0.635c-0.078-0.034-0.248-0.104-0.248-0.104
						l-0.111-0.405c0,0-0.007-0.021-0.013-0.029c-2.008-4.929-6.292-8.293-11.139-8.986c-0.342-0.049-0.695-0.082-1.043-0.105
						c-0.354-0.021-0.706-0.026-1.063-0.021C26,16.831,20.865,20.64,18.8,26.375c-0.068,0.225-0.095,0.402-0.338,0.527
						c-0.432,0.221-0.865,0.435-1.273,0.682c-0.381,0.229-0.738,0.477-1.061,0.753c-0.011,0.086-0.021,0.177-0.03,0.261
						c-0.009,0.121-0.022,0.236-0.029,0.36c-0.01,0.138-0.019,0.271-0.019,0.407c0,0.107-0.004,0.218,0,0.323
						c0,0.343,0.027,0.688,0.062,1.032c0.016,0.141,0.035,0.281,0.057,0.428c0.053,0.351,0.125,0.708,0.213,1.057
						c0.028,0.122,0.068,0.244,0.102,0.363c0.072,0.236,0.145,0.463,0.236,0.68c0.041,0.096,0.078,0.193,0.127,0.285
						c0.141,0.025,0.311,0.051,0.492,0.08l0.367-0.674c0,0,3.359-1.826,13.83-2.036c0,0,7.746-0.412,14.774,1.393
						c0,0,0.411,0.139,0.459,0.488c0.034,0.293-0.12,0.444-0.173,0.489c0.188-0.053,0.662-0.518,0.699-0.625
						c0.08-0.227,0.152-0.459,0.21-0.691c0.039-0.146,0.073-0.304,0.103-0.458c0.065-0.321,0.117-0.647,0.156-0.979
						c0.052-0.483,0.078-0.975,0.062-1.457C47.818,28.816,47.806,28.574,47.777,28.334z"/>
				</g>
				<g>
					<path fill="#C1A82F" d="M27.207,29.118c0,0-4.351,0.541-4.509,0.563c-0.148,0.02-0.335-0.082-0.404-0.255
						c-0.375-1.004-0.348-3.001-0.348-3.001c0.031-1.208,0.304-2.146,0.724-3.149c0.419-1.004,4.531-3.182,4.415-2.687
						c-0.304,1.243-0.508,3.178-0.346,5.544C26.868,27.982,27.207,29.118,27.207,29.118z"/>
				</g>
				<g>
					<path fill="#C1A82F" d="M36.659,28.91c0,0,4.363,0.426,4.524,0.441c0.147,0.02,0.335-0.085,0.395-0.26
						c0.352-1.018,0.271-3.015,0.271-3.015c-0.065-1.203-0.358-2.134-0.809-3.131c-0.442-0.987-4.61-3.056-4.477-2.565
						c0.327,1.236,0.588,3.166,0.489,5.532C36.976,27.761,36.659,28.91,36.659,28.91z"/>
				</g>
				<g>
					<polygon fill="#A41E28" points="28.75,19.552 28.791,21.639 30.055,21.611 30.036,20.79 31.221,20.764 31.312,25.311 
						30.629,25.325 30.661,26.719 33.425,26.668 33.397,25.271 32.717,25.285 32.631,20.738 33.812,20.716 33.828,21.539 
						35.095,21.511 35.056,19.43 					"/>
				</g>
				<g>
					<path fill="#B59F31" d="M47.203,30.051c-1.803-0.619-4.615-1.462-6.664-1.738c0.009-0.009-5.216-0.589-8.222-0.461
						c-9.247,0.398-14.843,2.187-16.262,2.863c0,0.015,0.046,0.385,0.046,0.393c0.053,0.392,0.102,0.609,0.169,0.874
						c0.029,0.126,0.064,0.256,0.111,0.427c0.069,0.27,0.268,1.135,0.353,1.395c0.045,0.109,0.083,0.217,0.128,0.326
						c0.144,0.031,0.312,0.061,0.494,0.094l0.371-0.775c0,0,3.352-2.124,13.822-2.342c0,0,7.744-0.459,14.777,1.652l0.273,0.549
						c0.281-0.047,0.578-0.348,0.71-0.747c0.092-0.253,0.154-0.527,0.212-0.797c0.037-0.177,0.069-0.354,0.101-0.532
						c0.032-0.178,0.058-0.358,0.082-0.545C47.729,30.538,47.614,30.19,47.203,30.051z"/>
				</g>
			</g>
		</g>
	</g>
	<g>
		<g>
			<g>
				<path fill="#2EB459" d="M44.775,29.307c-4.472,0-8.109-3.637-8.109-8.105c0-4.472,3.638-8.109,8.109-8.109
					c4.469,0,8.104,3.638,8.104,8.109C52.88,25.67,49.244,29.307,44.775,29.307z"/>
			</g>
			<g>
				<path fill="#FFFFFF" d="M44.775,13.615c4.185,0,7.581,3.397,7.581,7.586c0,4.188-3.396,7.582-7.581,7.582
					c-4.19,0-7.586-3.395-7.586-7.582C37.189,17.012,40.585,13.615,44.775,13.615 M44.775,12.569c-4.76,0-8.632,3.873-8.632,8.632
					c0,4.758,3.872,8.628,8.632,8.628c4.757,0,8.627-3.87,8.627-8.628C53.402,16.441,49.532,12.569,44.775,12.569L44.775,12.569z"/>
			</g>
		</g>
		<g>
			<g>
				<g>
					<path fill="#FFFFFF" d="M47.436,17.325l-3.312,5.201c-0.121,0.185-0.362,0.236-0.541,0.121l-1.887-1.22
						c-0.179-0.115-0.422-0.063-0.537,0.119l-0.747,1.169c-0.115,0.179-0.063,0.42,0.118,0.541l2.952,1.921
						c0.177,0.118,0.496,0.176,0.707,0.131l0.445-0.098c0.21-0.045,0.477-0.227,0.592-0.412l4.022-6.307
						c0.109-0.185,0.062-0.428-0.121-0.543l-1.154-0.739C47.792,17.093,47.551,17.146,47.436,17.325z"/>
				</g>
			</g>
		</g>
	</g>
</g>
</svg>
