<?xml version="1.0" encoding="utf-8"?>
<!-- Generator: Adobe Illustrator 16.0.4, SVG Export Plug-In . SVG Version: 6.00 Build 0)  -->
<!DOCTYPE svg PUBLIC "-//W3C//DTD SVG 1.1//EN" "http://www.w3.org/Graphics/SVG/1.1/DTD/svg11.dtd">
<svg version="1.1" id="Layer_1" xmlns="http://www.w3.org/2000/svg" xmlns:xlink="http://www.w3.org/1999/xlink" x="0px" y="0px"
	 width="65.5px" height="65.5px" viewBox="0 0 65.5 65.5" enable-background="new 0 0 65.5 65.5" xml:space="preserve">
<g>
	<g>
		<path fill="#EDEEEE" d="M32.748,65.249C14.83,65.249,0.253,50.67,0.253,32.75c0-17.92,14.577-32.499,32.495-32.499
			c17.92,0,32.499,14.579,32.499,32.499C65.247,50.67,50.668,65.249,32.748,65.249z M32.748,3.251
			c-16.264,0-29.495,13.233-29.495,29.499c0,16.266,13.231,29.499,29.495,29.499c16.266,0,29.499-13.232,29.499-29.499
			C62.247,16.484,49.014,3.251,32.748,3.251z"/>
	</g>
	<g>
		<g>
			<polygon fill="none" points="28.913,31.727 30.861,37.528 36.832,35.528 34.838,29.699 			"/>
		</g>
		<g>
			<path fill="#E9A722" d="M39.725,43.991c0.407,1.195,1.524,1.947,2.72,1.947c0.309,0,0.621-0.053,0.93-0.156
				c1.506-0.512,2.305-2.148,1.794-3.654l-1.026-2.986l-5.448,1.828L39.725,43.991z"/>
		</g>
		<g>
			<path fill="#E9A722" d="M37.399,19.406c-0.513-1.501-2.149-2.305-3.651-1.788c-1.503,0.511-2.305,2.146-1.79,3.652l1.021,2.986
				l5.441-1.861L37.399,19.406z"/>
		</g>
		<g>
			<polygon fill="#E9A722" points="36.832,35.528 42.282,33.7 40.282,27.837 34.838,29.699 			"/>
		</g>
		<g>
			<path fill="#3EB791" d="M28.259,47.856c0.403,1.209,1.526,1.965,2.728,1.965c0.303,0,0.615-0.051,0.918-0.15
				c1.502-0.504,2.318-2.137,1.809-3.643l-1.021-3.047l-5.454,1.832L28.259,47.856z"/>
		</g>
		<g>
			<path fill="#3EB791" d="M26.09,23.308c-0.502-1.508-2.134-2.316-3.638-1.814c-1.51,0.505-2.318,2.139-1.812,3.645l1,2.992
				l5.443-1.86L26.09,23.308z"/>
		</g>
		<g>
			<polygon fill="#3EB791" points="28.913,31.727 23.473,33.584 25.407,39.358 30.861,37.528 			"/>
		</g>
		<g>
			<path fill="#6EC8DB" d="M43.253,26.824c1.504-0.516,2.307-2.148,1.792-3.653c-0.513-1.504-2.15-2.308-3.65-1.793l-2.975,1.017
				l1.862,5.442L43.253,26.824z"/>
		</g>
		<g>
			<polygon fill="#6EC8DB" points="34.838,29.699 32.979,24.256 27.083,26.271 28.913,31.727 			"/>
		</g>
		<g>
			<path fill="#6EC8DB" d="M18.675,29.143c-1.508,0.52-2.307,2.152-1.796,3.657c0.409,1.191,1.526,1.945,2.724,1.945
				c0.309,0,0.621-0.053,0.93-0.154l2.94-1.006l-1.833-5.454L18.675,29.143z"/>
		</g>
		<g>
			
				<rect x="33.755" y="23.171" transform="matrix(0.3238 0.9461 -0.9461 0.3238 49.4134 -17.0441)" fill="#658439" width="5.752" height="5.751"/>
		</g>
		<g>
			<polygon fill="#1A927C" points="27.083,26.271 21.64,28.131 23.473,33.584 28.913,31.727 			"/>
		</g>
		<g>
			<path fill="#DF1864" d="M48.938,34.5c-0.51-1.502-2.14-2.316-3.644-1.815L42.282,33.7l1.859,5.441l2.983-1
				C48.627,37.633,49.438,36.008,48.938,34.5z"/>
		</g>
		<g>
			<path fill="#DF1864" d="M22.569,40.309c-1.506,0.506-2.318,2.141-1.811,3.645c0.401,1.201,1.522,1.965,2.725,1.965
				c0.305,0,0.612-0.053,0.919-0.154l2.836-0.951l-1.831-5.455L22.569,40.309z"/>
		</g>
		<g>
			<polygon fill="#DF1864" points="30.861,37.528 32.692,42.981 38.693,40.969 36.832,35.528 			"/>
		</g>
		<g>
			<polygon fill="#CB2027" points="36.832,35.528 38.693,40.969 44.142,39.141 42.282,33.7 			"/>
		</g>
		<g>
			
				<rect x="26.173" y="38.293" transform="matrix(-0.3182 -0.948 0.948 -0.3182 -0.7356 81.8098)" fill="#351138" width="5.754" height="5.754"/>
		</g>
	</g>
</g>
</svg>
