<?xml version="1.0" encoding="utf-8"?>
<!-- Generator: Adobe Illustrator 16.0.4, SVG Export Plug-In . SVG Version: 6.00 Build 0)  -->
<!DOCTYPE svg PUBLIC "-//W3C//DTD SVG 1.1//EN" "http://www.w3.org/Graphics/SVG/1.1/DTD/svg11.dtd">
<svg version="1.1" id="Layer_1" xmlns="http://www.w3.org/2000/svg" xmlns:xlink="http://www.w3.org/1999/xlink" x="0px" y="0px"
	 width="65.5px" height="65.5px" viewBox="0 0 65.5 65.5" enable-background="new 0 0 65.5 65.5" xml:space="preserve">
<g>
	<g>
		<path fill="#EDEEEE" d="M32.748,65.249c-17.918,0-32.495-14.579-32.495-32.499c0-17.919,14.577-32.498,32.495-32.498
			c17.92,0,32.499,14.579,32.499,32.498C65.247,50.669,50.668,65.249,32.748,65.249z M32.748,3.251
			c-16.264,0-29.495,13.233-29.495,29.498c0,16.266,13.231,29.499,29.495,29.499c16.266,0,29.499-13.233,29.499-29.499
			C62.247,16.484,49.014,3.251,32.748,3.251z"/>
	</g>
	<g>
		<g>
			<path fill="#418793" d="M46.663,32.552h-3.861h-1.291v1.289c0,4.836-3.932,8.762-8.763,8.762c-4.835,0-8.768-3.926-8.768-8.762
				s3.933-8.76,8.768-8.76c0.37,0,0.726,0.019,1.088,0.062v3.891v3.116l2.204-2.197l6.915-6.951l0.915-0.905l-0.915-0.909
				l-6.915-6.932l-2.204-2.201v3.11v3.51c-0.362-0.025-0.725-0.04-1.088-0.04c-8.396,0-15.207,6.819-15.207,15.207
				c0,8.387,6.812,15.211,15.207,15.211c8.389,0,15.209-6.824,15.209-15.211v-1.289H46.663z"/>
		</g>
	</g>
</g>
</svg>
