<?xml version="1.0" encoding="utf-8"?>
<!-- Generator: Adobe Illustrator 16.0.4, SVG Export Plug-In . SVG Version: 6.00 Build 0)  -->
<!DOCTYPE svg PUBLIC "-//W3C//DTD SVG 1.1//EN" "http://www.w3.org/Graphics/SVG/1.1/DTD/svg11.dtd">
<svg version="1.1" id="Layer_1" xmlns="http://www.w3.org/2000/svg" xmlns:xlink="http://www.w3.org/1999/xlink" x="0px" y="0px"
	 width="65.5px" height="65.5px" viewBox="0 0 65.5 65.5" enable-background="new 0 0 65.5 65.5" xml:space="preserve">
<g>
	<g>
		<path fill="#EDEEEE" d="M32.752,65.249c-17.92,0-32.499-14.578-32.499-32.499c0-17.92,14.579-32.499,32.499-32.499
			S65.251,14.83,65.251,32.75C65.251,50.67,50.672,65.249,32.752,65.249z M32.752,3.251c-16.266,0-29.499,13.233-29.499,29.499
			c0,16.266,13.233,29.499,29.499,29.499c16.266,0,29.499-13.232,29.499-29.499C62.251,16.484,49.018,3.251,32.752,3.251z"/>
	</g>
	<g>
		<g>
			<path fill-rule="evenodd" clip-rule="evenodd" fill="#726AB0" d="M22.469,40.538c-0.113-0.121-0.223-0.334-0.42-0.25
				s-0.111,0.301-0.111,0.467c0,1.539,0,3.078,0,4.625c-0.01,0-0.021,0-0.026,0c0,1.531,0,3.074,0.002,4.619
				c0.004,0.164-0.06,0.389,0.105,0.479c0.232,0.131,0.348-0.123,0.477-0.25c1.459-1.449,2.903-2.928,4.376-4.367
				c0.387-0.375,0.348-0.633-0.004-0.98C25.391,43.438,23.939,41.983,22.469,40.538z"/>
		</g>
		<g>
			<path fill-rule="evenodd" clip-rule="evenodd" fill="#726AB0" d="M34.809,23.541c0.749-0.01,1.496-0.002,2.245-0.002
				c0.725-0.002,1.446-0.011,2.168,0.002c0.344,0.006,0.607-0.095,0.834-0.378c1.372-1.756,2.521-3.634,3.475-5.646
				c0.234-0.503,0.148-0.744-0.44-0.738c-1.519,0.013-3.04,0.006-4.551,0.001c-0.357,0-0.621,0.101-0.781,0.46
				c-0.924,2.01-1.968,3.964-3.271,5.766C34.152,23.459,34.385,23.547,34.809,23.541z"/>
		</g>
		<g>
			<path fill-rule="evenodd" clip-rule="evenodd" fill="#726AB0" d="M22.845,33.68c3.342-1.229,6.695-2.459,10.257-2.901
				c0.864-0.118,1.742-0.165,2.59,0.114c0.654,0.214,1.026,0.618,1.017,1.375c-0.029,1.398-0.01,2.789-0.01,4.181
				c0,4.406,0,8.812,0,13.227c0,1.059,0.004,1.059,1.09,1.061c1.072,0.002,2.148-0.027,3.216,0.016
				c0.663,0.025,0.855-0.227,0.855-0.867c-0.026-3.062-0.01-6.125-0.01-9.188c-0.009,0-0.019,0-0.028,0
				c0-3.043,0.038-6.078-0.009-9.111c-0.037-1.834-0.693-3.429-2.335-4.429c-1.087-0.663-2.294-0.927-3.565-0.984
				c-2.677-0.115-5.245,0.443-7.77,1.249c-0.969,0.299-0.973,0.307-0.975-0.673c-0.005-3.039-0.007-6.077,0.019-9.11
				c0.006-0.646-0.193-0.903-0.854-0.88c-1.215,0.039-2.437,0.039-3.66,0.011c-0.589-0.003-0.819,0.153-0.815,0.806
				c0.027,5.15,0.019,10.312,0.022,15.461C21.884,34.006,21.917,34.018,22.845,33.68z"/>
		</g>
	</g>
</g>
</svg>
