<?xml version="1.0" encoding="utf-8"?>
<svg version="1.1" id="Layer_1" x="0px" y="0px" viewBox="0 0 81.4 28.7" style="enable-background:new 0 0 147.3 56.2;" xmlns="http://www.w3.org/2000/svg" xmlns:bx="https://boxy-svg.com">
  <style type="text/css">
	.st0{fill:#CB2026;}
</style>
  <g transform="matrix(1, 0, 0, 1, -28.6, -0.8)" bx:origin="0 0">
    <path class="st0" d="M99.5,25.7v3.7h6.7c1.4,0,3.7-1,3.8-3.8v-1.4c0-2.4-2-3.8-3.8-3.8h-3.4v-1.7h6.6v-3.7h-6.4 c-1.6,0-3.8,1.4-3.8,3.9v1.3c0,2.5,2.2,3.8,3.8,3.8c4.6,0-1.1,0,3.2,0v1.8 M63.4,24.8c0,0,3.6-0.3,3.6-5s-4.4-5.1-4.4-5.1h-7.9 v14.7h3.9v-3.5l3.4,3.5H68L63.4,24.8z M61.9,21.8h-3.1v-3.4h3.2c0,0,0.9,0.3,0.9,1.7S61.9,21.8,61.9,21.8z M76.8,14.9h-4 c-2.9,0-3.8,2.6-3.8,3.8v10.7h4v-2.6h3.8v2.6h3.9V18.7C80.6,15.6,77.8,14.9,76.8,14.9z M76.7,22.7h-3.8v-3.6c0,0,0-0.8,1.3-0.8h1.4 c1.1,0,1.1,0.8,1.1,0.8L76.7,22.7L76.7,22.7z"/>
    <rect x="82.4" y="14.9" class="st0" width="4.2" height="14.6"/>
    <polygon class="st0" points="92.5,25.7 92.5,14.9 88.3,14.9 88.3,25.7 88.3,29.4 92.5,29.4 98.1,29.4 98.1,25.7 &#9;"/>
    <path class="st0" d="M30,29.4h16.3c0,0-3.1-14.2,7.2-19.9c2.2-1.1,9.4-5.2,21.1,3.5c0.4-0.3,0.7-0.6,0.7-0.6S64.5,1.8,52.6,3 c-6,0.5-13.3,6-17.7,13.2S30,29.4,30,29.4z"/>
    <path class="st0" d="M30,29.4h16.3c0,0-3.1-14.2,7.2-19.9c2.2-1.1,9.4-5.2,21.1,3.5c0.4-0.3,0.7-0.6,0.7-0.6S64.5,1.8,52.6,3 c-6,0.5-13.3,6-17.7,13.2S30,29.4,30,29.4z"/>
    <path class="st0" d="M30,29.4h16.3c0,0-3.1-14.2,7.2-19.9c2.2-1.1,9.4-5.2,21.1,3.5c0.4-0.3,0.7-0.6,0.7-0.6S64.5,1.8,52.6,3 c-6,0.5-13.4,6-17.7,13.2S30,29.4,30,29.4z M63.9,4.1L64,2.7c-0.2-0.1-0.7-0.3-2-0.7l-0.1,1.4C62.6,3.6,63.2,3.9,63.9,4.1z"/>
    <path class="st0" d="M61.9,8.5l-0.1,1.3c0.7,0,1.4,0.1,2,0.2L64,8.8C63.3,8.6,62.6,8.5,61.9,8.5z M54.3,2.1h0.2l-0.4-1.3 c-0.6,0-1.3,0-2,0.1l0.4,1.2C53.1,2.1,53.7,2.1,54.3,2.1z M55.3,9.6l0.5,1.4c0.6-0.3,1.2-0.5,1.8-0.7L57.1,9 C56.4,9.2,55.8,9.4,55.3,9.6z M46,4.2L45,2.8c-0.5,0.3-1,0.6-1.6,0.9l0.9,1.4C44.9,4.8,45.4,4.5,46,4.2z M50.2,13.5l1,1.5 c0.3-0.5,0.8-1,1.2-1.5l-0.9-1.4C51,12.5,50.6,13,50.2,13.5z M47.2,20.1l1.7,1.3c0.1-0.8,0.2-1.6,0.4-2.4l-1.5-1.2 C47.6,18.6,47.4,19.4,47.2,20.1z M38.2,10.3l-1.5-1.3c-0.5,0.5-1,1-1.5,1.5l1.6,1.4C37.2,11.4,37.7,10.9,38.2,10.3z M32,19.5 l-2.4-0.9c-0.4,0.9-0.8,1.9-1,2.5L31,22C31.2,21.3,31.7,20.3,32,19.5z M46.9,25.3c0,1.1,0.1,2,0.2,2.6l2.5,0.9 c-0.2-0.8-0.4-1.7-0.5-2.7L46.9,25.3z"/>
  </g>
</svg>