<?xml version="1.0" encoding="utf-8"?>
<!-- Generator: Adobe Illustrator 16.0.4, SVG Export Plug-In . SVG Version: 6.00 Build 0)  -->
<!DOCTYPE svg PUBLIC "-//W3C//DTD SVG 1.1//EN" "http://www.w3.org/Graphics/SVG/1.1/DTD/svg11.dtd">
<svg version="1.1" id="Layer_1" xmlns="http://www.w3.org/2000/svg" xmlns:xlink="http://www.w3.org/1999/xlink" x="0px" y="0px"
	 width="37px" height="37px" viewBox="0 0 37 37" enable-background="new 0 0 37 37" xml:space="preserve">
<g>
	<path fill="#F5F4F0" d="M23.119,19.085c0.189-0.003,0.344-0.159,0.337-0.348c0-0.189-0.16-0.342-0.35-0.338
		c-0.191,0.007-0.342,0.159-0.338,0.348C22.771,18.938,22.929,19.09,23.119,19.085z"/>
	<path fill="#F5F4F0" d="M13.636,25.689l1.615-1.452c0.139-0.124,0.326-0.191,0.508-0.172l2.748,0.209l2.555-0.542
		c0.182-0.038,0.371-0.002,0.524,0.104l1.882,1.285l1.914,0.189c0.195-0.479,0.355-0.979,0.475-1.494
		c-0.032-0.001-0.064-0.003-0.097-0.008l-5.25-0.721c-0.255-0.033-0.468-0.208-0.551-0.451l-0.933-2.7
		c-0.123-0.085-0.725-0.038-1.005,0.104l-0.946,2.653c-0.078,0.218-0.262,0.383-0.489,0.435l-5.148,1.186
		c-0.032,0.008-0.066,0.012-0.101,0.015c0.184,0.615,0.432,1.222,0.738,1.803L13.636,25.689z"/>
	<path fill="#F5F4F0" d="M14.144,18.656c-0.189,0-0.34,0.159-0.333,0.351c0.004,0.191,0.165,0.343,0.354,0.334
		c0.189-0.006,0.336-0.165,0.334-0.352C14.491,18.8,14.335,18.652,14.144,18.656z"/>
	<path fill="#F5F4F0" d="M19.065,29.721c-0.101,0.198-0.293,0.337-0.514,0.368l-1.717,0.245c0.541,0.158,1.105,0.247,1.691,0.247
		c0.775,0,1.539-0.163,2.267-0.458l-1.447-0.967L19.065,29.721z"/>
	<path fill="#F5F4F0" d="M25.813,26.72l-2.652-0.263c-0.113-0.01-0.221-0.051-0.314-0.114l-1.787-1.218l-2.364,0.501
		c-0.065,0.013-0.128,0.02-0.193,0.013l-2.558-0.195l-1.517,1.365c-0.078,0.068-0.171,0.121-0.27,0.146l-2.751,0.78
		c-0.122,0.03-0.244,0.036-0.363,0.002l1.603,1.82l5.359-0.766l0.466-0.934c0.089-0.174,0.246-0.304,0.434-0.354
		c0.19-0.055,0.391-0.02,0.554,0.093l2.022,1.351l4.502-1.039l0.955-1.544l-0.813,0.312C26.026,26.716,25.923,26.729,25.813,26.72z"
		/>
	<path fill="#F5F4F0" d="M28.026,13.846c-0.004,0-0.008,0-0.01,0c-0.147,0-0.285-0.05-0.398-0.132
		c-1.771-0.554-3.602-0.944-5.467-1.162c-0.372-0.043-0.64-0.381-0.596-0.755c0.043-0.37,0.348-0.642,0.756-0.596
		c1.614,0.188,3.206,0.502,4.759,0.933c-1.08-3.277-4.539-5.63-8.524-5.63c-3.979,0-7.441,2.353-8.523,5.627
		c1.41-0.391,2.854-0.683,4.32-0.875c0.391-0.047,0.716,0.217,0.764,0.587c0.048,0.374-0.215,0.715-0.587,0.764
		c-1.744,0.228-3.457,0.605-5.116,1.128c-0.066,0.035-0.139,0.059-0.217,0.068c-0.568,0.184-1.133,0.385-1.688,0.604
		c-0.065,0.306-0.103,0.768-0.036,1.444c0.047,0.468,0.135,0.878,0.263,1.226c7.015-1.771,14.605-1.773,21.635-0.002
		c0.128-0.347,0.216-0.756,0.263-1.224c0.059-0.576,0.045-1.068-0.035-1.444C29.071,14.204,28.552,14.019,28.026,13.846z
		 M20.666,13.137v1.7c0,0.375-0.305,0.681-0.681,0.681h-2.784c-0.376,0-0.681-0.306-0.681-0.681v-1.7
		c0-0.328,0.23-0.601,0.539-0.666v-1.028h-1.268c-0.375,0-0.681-0.305-0.681-0.681V8.513c0-0.376,0.306-0.681,0.681-0.681h5.604
		c0.376,0,0.681,0.305,0.681,0.681v2.249c0,0.376-0.305,0.681-0.681,0.681h-1.272v1.028C20.434,12.534,20.666,12.809,20.666,13.137z
		"/>
	<path fill="#F5F4F0" d="M20.483,10.081h0.232V9.193h-4.243v0.888h0.229c0.014-0.364,0.312-0.655,0.68-0.655h0.358
		c0.376,0,0.681,0.305,0.681,0.681v3.03c0,0.328-0.23,0.602-0.539,0.666v0.354h1.424v-0.354c-0.311-0.063-0.543-0.338-0.543-0.666
		v-3.03c0-0.376,0.305-0.681,0.681-0.681h0.359C20.17,9.426,20.47,9.717,20.483,10.081z"/>
	<path fill="#F5F4F0" d="M18.423,0C8.248,0,0,8.248,0,18.424c0,10.174,8.248,18.422,18.423,18.422s18.423-8.248,18.423-18.422
		C36.846,8.248,28.598,0,18.423,0z M30.976,15.986c-0.088,0.887-0.309,1.639-0.652,2.23c-0.154,0.266-0.465,0.396-0.764,0.314
		c-0.062-0.017-0.127-0.032-0.189-0.049L28.368,22c-0.037,0.165-0.136,0.31-0.274,0.406l-0.729,0.507
		c0.011,0.065,0.012,0.133,0.003,0.202c-0.081,0.609-0.212,1.203-0.386,1.775l1.355-0.521c0.273-0.108,0.581-0.025,0.77,0.2
		c0.186,0.225,0.207,0.544,0.053,0.792l-2.17,3.504c-0.094,0.154-0.248,0.265-0.425,0.305l-2.685,0.62
		c-1.521,1.345-3.393,2.151-5.354,2.151c-1.52,0-2.919-0.475-4.139-1.26l-1.913,0.273c-0.032,0.005-0.063,0.007-0.096,0.007
		c-0.193,0-0.382-0.083-0.511-0.23L8.06,26.406c-0.211-0.239-0.227-0.59-0.041-0.849c0.187-0.257,0.521-0.352,0.817-0.229
		l1.692,0.718c-0.359-0.805-0.621-1.64-0.77-2.47c-0.014-0.078-0.013-0.155,0-0.229l-0.79-0.597
		c-0.144-0.108-0.237-0.27-0.263-0.449L8.048,18.4c-0.176,0.045-0.35,0.088-0.523,0.135c-0.059,0.017-0.117,0.023-0.176,0.023
		c-0.238,0-0.466-0.126-0.588-0.34c-0.346-0.594-0.564-1.346-0.652-2.234c-0.094-0.944-0.03-1.728,0.191-2.322
		c0.065-0.182,0.205-0.324,0.383-0.396c0.594-0.241,1.197-0.464,1.807-0.667c0.9-4.281,5.143-7.457,10.057-7.457
		c4.924,0,9.158,3.175,10.059,7.461c0.605,0.202,1.205,0.422,1.795,0.66c0.178,0.072,0.316,0.215,0.383,0.393
		C31.006,14.256,31.071,15.038,30.976,15.986z"/>
	<path fill="#F5F4F0" d="M9.374,18.088l0.641,3.749l1.428,1.079l4.476-1.031l0.902-2.531c0.046-0.129,0.132-0.24,0.243-0.322
		c0.076-0.055,0.771-0.54,1.633-0.54c1.018,0,1.457,0.655,1.506,0.73l0.903,2.575l4.576,0.627l1.42-0.985l0.946-3.277
		C21.953,16.784,15.473,16.76,9.374,18.088z M13.976,20.897c-0.063,0-0.127,0-0.191,0c-0.078,0-0.146,0.004-0.218,0
		c-0.655,0-1.073-0.027-1.444,0.169c0.012-0.021,0.177-0.381,0.76-0.531c-0.063-0.146-0.106-0.341-0.117-0.619
		c-0.037-1.053,0.613-1.92,1.285-1.928c0.674-0.004,1.14,0.851,1.156,1.906C15.213,20.956,14.652,20.889,13.976,20.897z
		 M23.171,17.729c0.675-0.02,1.289,0.814,1.369,1.867c0.023,0.293-0.01,0.509-0.08,0.663c0.623-0.075,0.767,0.352,0.773,0.374
		c-0.454-0.218-0.951,0.062-1.852,0.076c-0.68,0.023-1.237,0.032-1.278-1.024C22.064,18.626,22.501,17.754,23.171,17.729z"/>
</g>
</svg>
