<?xml version="1.0" encoding="utf-8"?>
<!-- Generator: Adobe Illustrator 16.0.4, SVG Export Plug-In . SVG Version: 6.00 Build 0)  -->
<!DOCTYPE svg PUBLIC "-//W3C//DTD SVG 1.1//EN" "http://www.w3.org/Graphics/SVG/1.1/DTD/svg11.dtd">
<svg version="1.1" id="Layer_1" xmlns="http://www.w3.org/2000/svg" xmlns:xlink="http://www.w3.org/1999/xlink" x="0px" y="0px"
	 width="399.645px" height="117.895px" viewBox="0 0 399.645 117.895" enable-background="new 0 0 399.645 117.895"
	 xml:space="preserve">
<g>
	<g>
		<path fill="#FFFFFF" d="M398.909,112.402c0,2.2-1.8,4-4,4H4.017c-2.2,0-4-1.8-4-4V2.902c0-2.2,1.8-4,4-4h390.893c2.2,0,4,1.8,4,4
			V112.402z"/>
	</g>
	<g>
		<g>
			<path fill="#D1D0D0" d="M244.013,65.282c0,0-0.962-0.311-3.161,1.18c-0.921-0.257-1.906-0.383-2.885-0.388
				c-0.981,0.005-1.966,0.131-2.882,0.388c-2.203-1.49-3.171-1.18-3.171-1.18c-0.626,1.587-0.229,2.759-0.111,3.05
				c-0.737,0.805-1.187,1.831-1.187,3.089c0,4.414,2.69,5.399,5.247,5.691c-0.329,0.288-0.628,0.796-0.731,1.542
				c-0.655,0.29-2.323,0.8-3.351-0.957c0,0-0.608-1.107-1.767-1.189c0,0-1.124-0.012-0.077,0.699c0,0,0.754,0.354,1.279,1.685
				c0,0,0.675,2.243,3.879,1.544c0.005,0.962,0.016,1.687,0.016,1.962c0,0.156-0.061,0.325-0.19,0.437
				c0.971,0.267,1.988,0.422,3.045,0.422c1.055,0,2.073-0.155,3.044-0.42c-0.13-0.113-0.188-0.282-0.188-0.438
				c0-0.379,0.015-1.621,0.015-3.162c0-1.073-0.368-1.776-0.782-2.136c2.567-0.283,5.26-1.254,5.26-5.679
				c0-1.258-0.449-2.284-1.186-3.089C244.248,68.041,244.645,66.869,244.013,65.282z"/>
		</g>
		<g>
			<g>
				<rect x="56.733" y="96.324" fill="#F4F4F4" width="13.258" height="9.406"/>
			</g>
			<g>
				<g>
					<g>
						<g>
							<g>
								<path fill="#D1D0D0" d="M62.919,101.533c-0.201,0.143-0.391,0.283-0.57,0.422c-0.188,0.148-0.355,0.308-0.498,0.482
									c-0.143,0.176-0.259,0.382-0.342,0.608c-0.086,0.227-0.102,0.416-0.102,0.416c-0.015,0.21-0.029,0.425-0.029,0.476
									c0,0.052,0.167,0.096,0.368,0.096h3.028c0.201,0,0.367-0.172,0.367-0.383v-0.456c0-0.21-0.166-0.38-0.367-0.38h-1.229
									c-0.201,0-0.336-0.03-0.301-0.064c0,0,0,0,0.037-0.029c0.145-0.122,0.295-0.233,0.449-0.335
									c0.159-0.112,0.316-0.22,0.473-0.33c0.169-0.116,0.318-0.252,0.451-0.396c0.138-0.151,0.246-0.323,0.332-0.52
									c0.086-0.195,0.129-0.433,0.129-0.701c0-0.263-0.051-0.502-0.146-0.718c-0.098-0.209-0.23-0.394-0.393-0.536
									c-0.164-0.144-0.353-0.255-0.568-0.331c-0.206-0.074-0.432-0.114-0.664-0.114c-0.301,0-0.572,0.057-0.81,0.165
									c-0.239,0.11-0.44,0.267-0.599,0.464c-0.156,0.195-0.273,0.428-0.352,0.687c-0.074,0.256-0.084,0.447-0.084,0.447
									c-0.009,0.212-0.015,0.423-0.013,0.475c0.001,0.052,0.167,0.092,0.37,0.092h0.524c0.202,0,0.366-0.042,0.366-0.095
									s0.007-0.201,0.011-0.331c0,0,0,0,0.026-0.118c0.018-0.11,0.055-0.211,0.1-0.301c0.043-0.082,0.1-0.146,0.17-0.194
									c0.062-0.046,0.145-0.067,0.245-0.067c0.153,0,0.276,0.048,0.37,0.142c0.094,0.096,0.139,0.226,0.139,0.409
									c0,0.114-0.021,0.209-0.068,0.296c-0.057,0.099-0.125,0.189-0.207,0.268"/>
							</g>
						</g>
					</g>
				</g>
				<g>
					<path fill="#D1D0D0" d="M69.351,91.274H57.374c-0.796,0-1.446,0.581-1.446,1.472v12.984v0.898v0.146h0.028
						c0.065,0.283,0.301,0.499,0.59,0.499h13.633c0.289,0,0.523-0.216,0.59-0.499h0.027v-0.146v-0.898V92.746
						C70.796,91.855,70.286,91.274,69.351,91.274z M69.163,105.73H57.561v-9.406h11.603V105.73z"/>
				</g>
			</g>
		</g>
		<g>
			<path fill="#D1D0D0" d="M241.054,97.738c-0.609-2.324-2.725-4.039-5.241-4.039c-2.516,0-4.631,1.715-5.24,4.039h-4.26v2.703
				h4.244c0.591,2.352,2.72,4.096,5.256,4.096s4.666-1.744,5.256-4.096h4.245v-2.703H241.054z M235.812,101.834
				c-1.022,0-1.913-0.562-2.382-1.393c-0.222-0.396-0.35-0.852-0.35-1.338c0-0.498,0.134-0.963,0.367-1.365
				c0.471-0.816,1.354-1.365,2.364-1.365s1.893,0.549,2.365,1.365c0.232,0.402,0.365,0.867,0.365,1.365
				c0,0.486-0.126,0.941-0.35,1.338C237.726,101.271,236.835,101.834,235.812,101.834z"/>
		</g>
		<g>
			<g>
				<path fill="#D1D0D0" d="M71.319,72.797c0.785,0,1.426-0.638,1.426-1.424c0-0.787-0.641-1.426-1.426-1.426h-3.732l0.246-3.15
					c0.061-0.785-0.523-1.47-1.312-1.532c-0.783-0.061-1.469,0.525-1.529,1.31l-0.266,3.373h-3.164l0.25-3.15
					c0.062-0.785-0.525-1.47-1.311-1.532c-0.785-0.061-1.471,0.525-1.533,1.31l-0.264,3.373h-3.535
					c-0.789,0-1.426,0.639-1.426,1.426c0,0.786,0.637,1.424,1.426,1.424h3.311l-0.273,3.488h-3.99c-0.785,0-1.424,0.639-1.424,1.427
					s0.639,1.425,1.424,1.425h3.766L57.7,82.724c-0.062,0.785,0.525,1.471,1.309,1.532c0.039,0.005,0.076,0.005,0.113,0.005
					c0.736,0,1.361-0.566,1.42-1.313l0.299-3.811h3.164l-0.283,3.587c-0.061,0.785,0.527,1.471,1.311,1.532
					c0.037,0.005,0.074,0.005,0.113,0.005c0.736,0,1.357-0.566,1.42-1.313l0.299-3.811h3.502c0.789,0,1.426-0.637,1.426-1.425
					s-0.637-1.427-1.426-1.427h-3.279l0.273-3.488H71.319z M64.229,76.285h-3.164l0.273-3.488h3.162L64.229,76.285z"/>
			</g>
		</g>
	</g>
	<g>
		<path fill="#DC4242" d="M3.641-1.494c-2.2,0-4,1.624-4,3.609v110.582c0,1.986,1.8,3.61,4,3.61h31V-1.494H3.641z"/>
	</g>
	<g>
		<path fill="#DC4242" d="M53.199,13.25h1.02l0.105,1.32h0.045c0.495-0.915,1.245-1.5,2.07-1.5c0.315,0,0.54,0.045,0.78,0.15
			l-0.24,1.079c-0.24-0.074-0.405-0.119-0.705-0.119c-0.615,0-1.35,0.449-1.845,1.68v4.68h-1.23V13.25z"/>
		<path fill="#DC4242" d="M62.558,15.92c0-0.93-0.315-1.83-1.5-1.83c-0.855,0-1.605,0.391-2.175,0.78l-0.495-0.854
			c0.675-0.436,1.695-0.945,2.865-0.945c1.785,0,2.535,1.185,2.535,3v4.47h-1.02l-0.105-0.87h-0.03
			c-0.705,0.57-1.515,1.05-2.415,1.05c-1.229,0-2.145-0.765-2.145-2.069C58.073,17.061,59.453,16.266,62.558,15.92z M60.562,19.73
			c0.705,0,1.29-0.346,1.995-0.976V16.73c-2.445,0.3-3.27,0.899-3.27,1.83C59.288,19.385,59.842,19.73,60.562,19.73z"/>
		<path fill="#DC4242" d="M69.01,13.07c0.96,0,1.635,0.405,2.13,0.87l-0.615,0.795c-0.435-0.375-0.885-0.646-1.47-0.646
			c-1.32,0-2.28,1.141-2.28,2.82c0,1.665,0.915,2.79,2.25,2.79c0.69,0,1.275-0.345,1.71-0.735l0.555,0.811
			c-0.66,0.585-1.5,0.944-2.37,0.944c-1.935,0-3.42-1.395-3.42-3.81C65.5,14.465,67.135,13.07,69.01,13.07z"/>
		<path fill="#DC4242" d="M72.759,9.86h1.215v7.229h0.045l3.105-3.84h1.365l-2.445,2.925l2.775,4.365h-1.35l-2.13-3.51l-1.365,1.59
			v1.92h-1.215V9.86z"/>
		<path fill="#DC4242" d="M53.855,33.364h1.563l0.161,2.023h0.069c0.759-1.402,1.909-2.299,3.173-2.299
			c0.483,0,0.828,0.068,1.196,0.229l-0.368,1.655c-0.368-0.114-0.621-0.184-1.081-0.184c-0.943,0-2.07,0.69-2.829,2.575v7.175
			h-1.885V33.364z"/>
		<path fill="#DC4242" d="M68.15,37.458c0-1.426-0.482-2.806-2.299-2.806c-1.311,0-2.46,0.598-3.334,1.195l-0.759-1.311
			c1.035-0.667,2.599-1.448,4.392-1.448c2.736,0,3.886,1.816,3.886,4.599v6.853h-1.563l-0.161-1.334h-0.046
			c-1.081,0.874-2.323,1.61-3.702,1.61c-1.886,0-3.289-1.173-3.289-3.174C61.274,39.205,63.39,37.986,68.15,37.458z M65.092,43.298
			c1.081,0,1.978-0.528,3.058-1.494v-3.104c-3.748,0.46-5.013,1.38-5.013,2.806C63.137,42.77,63.988,43.298,65.092,43.298z"/>
		<path fill="#DC4242" d="M77.987,33.089c1.472,0,2.506,0.62,3.266,1.333l-0.943,1.219c-0.667-0.574-1.357-0.988-2.253-0.988
			c-2.024,0-3.496,1.747-3.496,4.323c0,2.552,1.403,4.276,3.449,4.276c1.058,0,1.955-0.528,2.622-1.126l0.851,1.241
			c-1.012,0.896-2.3,1.449-3.633,1.449c-2.966,0-5.243-2.139-5.243-5.841C72.606,35.228,75.113,33.089,77.987,33.089z"/>
		<path fill="#DC4242" d="M83.678,28.168h1.862v11.083h0.069l4.76-5.887h2.093l-3.749,4.484l4.254,6.691h-2.07l-3.265-5.381
			l-2.093,2.438v2.943h-1.862V28.168z"/>
	</g>
	<g>
		<g>
			<path fill="#989697" d="M257.305,71.939c1.86,0,2.91,1.335,2.91,3.42c0,0.255-0.016,0.495-0.045,0.675h-4.92
				c0.09,1.575,1.035,2.565,2.43,2.565c0.69,0,1.275-0.226,1.815-0.57l0.435,0.81c-0.63,0.405-1.41,0.75-2.399,0.75
				c-1.95,0-3.495-1.425-3.495-3.81S255.641,71.939,257.305,71.939z M259.135,75.225c0-1.485-0.66-2.311-1.8-2.311
				c-1.021,0-1.95,0.841-2.1,2.311H259.135z"/>
			<path fill="#989697" d="M262.006,68.729h1.23v2.91l-0.031,1.319c0.66-0.585,1.471-1.02,2.281-1.02
				c1.889,0,2.895,1.455,2.895,3.705c0,2.489-1.485,3.944-3.15,3.944c-0.675,0-1.439-0.33-2.084-0.899h-0.046l-0.104,0.72h-0.99
				V68.729z M265.021,78.555c1.2,0,2.085-1.096,2.085-2.896c0-1.604-0.54-2.685-1.92-2.685c-0.615,0-1.26,0.345-1.949,0.99v3.824
				C263.881,78.344,264.541,78.555,265.021,78.555z"/>
			<path fill="#989697" d="M269.944,77.475c0.569,0.569,1.29,1.095,2.415,1.095c1.17,0,2.1-0.855,2.1-2.19
				c0-1.319-0.811-2.1-2.04-2.1c-0.659,0-1.065,0.21-1.635,0.585l-0.66-0.42l0.315-4.604h4.785v1.064h-3.705l-0.256,2.835
				c0.451-0.24,0.885-0.39,1.471-0.39c1.635,0,2.97,0.93,2.97,3c0,2.069-1.56,3.239-3.226,3.239c-1.529,0-2.475-0.645-3.135-1.305
				L269.944,77.475z"/>
			<path fill="#989697" d="M280.674,69.734c-0.27-0.12-0.555-0.18-0.824-0.18c-0.689,0-1.02,0.479-1.02,1.41v1.154h1.545v1.005
				h-1.545v6.285h-1.23v-6.285h-0.99v-0.93l0.99-0.075v-1.154c0-1.485,0.675-2.415,2.13-2.415c0.45,0,0.885,0.104,1.215,0.24
				L280.674,69.734z"/>
			<path fill="#989697" d="M286.396,70.904h-4.77V69.84h6.165v0.765c-2.266,2.895-2.73,5.07-2.896,8.805h-1.274
				C283.785,75.81,284.506,73.529,286.396,70.904z"/>
			<path fill="#989697" d="M293.918,70.904h-4.77V69.84h6.164v0.765c-2.264,2.895-2.729,5.07-2.895,8.805h-1.275
				C291.309,75.81,292.028,73.529,293.918,70.904z"/>
			<path fill="#989697" d="M296.25,74.595c0-3.21,1.154-4.936,3.074-4.936c1.904,0,3.061,1.726,3.061,4.936
				s-1.156,4.994-3.061,4.994C297.404,79.589,296.25,77.805,296.25,74.595z M301.184,74.595c0-2.806-0.75-3.945-1.859-3.945
				c-1.125,0-1.875,1.14-1.875,3.945c0,2.805,0.75,4.005,1.875,4.005C300.434,78.6,301.184,77.399,301.184,74.595z"/>
		</g>
	</g>
	<g>
		<g>
			<path fill="#989697" d="M85.45,100.788h-1.305v2.64h-1.17v-2.64H78.67v-0.811l4.095-6.119h1.38v5.939h1.305V100.788z
				 M82.975,99.798v-2.774c0-0.511,0.045-1.335,0.075-1.846h-0.06c-0.24,0.465-0.51,0.886-0.78,1.351l-2.235,3.27H82.975z"/>
			<path fill="#989697" d="M90.13,96.138h1.02l0.105,1.05H91.3c0.63-0.689,1.395-1.229,2.265-1.229c1.11,0,1.709,0.525,2.01,1.395
				c0.765-0.824,1.515-1.395,2.4-1.395c1.5,0,2.22,0.99,2.22,2.85v4.62h-1.23v-4.455c0-1.364-0.435-1.949-1.35-1.949
				c-0.57,0-1.155,0.375-1.83,1.125v5.279h-1.23v-4.455c0-1.364-0.435-1.949-1.365-1.949c-0.54,0-1.155,0.375-1.83,1.125v5.279
				h-1.23V96.138z"/>
			<path fill="#989697" d="M102.172,93.843c0-0.479,0.375-0.795,0.855-0.795s0.855,0.315,0.855,0.795
				c0,0.466-0.375,0.795-0.855,0.795S102.172,94.309,102.172,93.843z M102.397,96.138h1.23v7.29h-1.23V96.138z"/>
			<path fill="#989697" d="M105.878,96.138h1.02l0.105,1.05h0.045c0.69-0.689,1.44-1.229,2.445-1.229c1.53,0,2.22,0.99,2.22,2.85
				v4.62h-1.23v-4.455c0-1.364-0.42-1.949-1.38-1.949c-0.75,0-1.26,0.39-1.995,1.125v5.279h-1.23V96.138z"/>
			<path fill="#989697" d="M113.871,96.138h1.245v4.455c0,1.365,0.405,1.95,1.365,1.95c0.75,0,1.26-0.375,1.95-1.23v-5.175h1.245
				v7.29h-1.02l-0.105-1.14h-0.045c-0.675,0.795-1.41,1.319-2.4,1.319c-1.545,0-2.235-0.989-2.235-2.85V96.138z"/>
			<path fill="#989697" d="M122.225,97.143h-1.08v-0.93l1.14-0.075l0.15-2.04h1.035v2.04h1.965v1.005h-1.965v4.05
				c0,0.9,0.285,1.41,1.125,1.41c0.255,0,0.585-0.104,0.825-0.194l0.24,0.93c-0.405,0.135-0.9,0.27-1.35,0.27
				c-1.56,0-2.085-0.989-2.085-2.43V97.143z"/>
			<path fill="#989697" d="M129.572,95.958c1.86,0,2.91,1.335,2.91,3.42c0,0.255-0.015,0.495-0.045,0.675h-4.92
				c0.09,1.575,1.035,2.565,2.43,2.565c0.69,0,1.275-0.226,1.815-0.57l0.435,0.81c-0.63,0.405-1.41,0.75-2.4,0.75
				c-1.95,0-3.495-1.425-3.495-3.81S127.907,95.958,129.572,95.958z M131.401,99.243c0-1.485-0.66-2.311-1.8-2.311
				c-1.02,0-1.95,0.841-2.1,2.311H131.401z"/>
			<path fill="#989697" d="M134.138,101.777c0.63,0.511,1.275,0.87,2.145,0.87c0.96,0,1.44-0.51,1.44-1.14
				c0-0.75-0.87-1.08-1.665-1.38c-1.035-0.375-2.175-0.87-2.175-2.1c0-1.17,0.93-2.07,2.505-2.07c0.915,0,1.71,0.375,2.265,0.825
				l-0.585,0.779c-0.495-0.375-1.02-0.645-1.665-0.645c-0.915,0-1.335,0.495-1.335,1.05c0,0.675,0.795,0.945,1.62,1.26
				c1.05,0.391,2.22,0.825,2.22,2.205c0,1.186-0.945,2.175-2.67,2.175c-1.035,0-2.025-0.435-2.715-1.005L134.138,101.777z"/>
			<path fill="#989697" d="M147.772,98.808c0-0.93-0.315-1.83-1.5-1.83c-0.855,0-1.605,0.391-2.175,0.78l-0.495-0.854
				c0.675-0.436,1.695-0.945,2.865-0.945c1.785,0,2.535,1.185,2.535,3v4.47h-1.02l-0.105-0.87h-0.03
				c-0.705,0.57-1.515,1.05-2.415,1.05c-1.229,0-2.145-0.765-2.145-2.069C143.288,99.948,144.667,99.153,147.772,98.808z
				 M145.777,102.618c0.705,0,1.29-0.346,1.995-0.976v-2.024c-2.445,0.3-3.27,0.899-3.27,1.83
				C144.502,102.272,145.058,102.618,145.777,102.618z"/>
			<path fill="#989697" d="M151.659,103.173v-0.061c-0.36-0.225-0.645-0.614-0.645-1.185c0-0.615,0.42-1.095,0.795-1.35v-0.061
				c-0.48-0.39-0.945-1.095-0.945-1.965c0-1.59,1.26-2.595,2.745-2.595c0.405,0,0.765,0.075,1.035,0.18h2.535v0.945h-1.5
				c0.345,0.33,0.6,0.885,0.6,1.5c0,1.56-1.185,2.535-2.67,2.535c-0.36,0-0.765-0.091-1.095-0.255
				c-0.255,0.225-0.465,0.465-0.465,0.869c0,0.466,0.3,0.795,1.29,0.795h1.41c1.695,0,2.55,0.525,2.55,1.74
				c0,1.35-1.425,2.52-3.69,2.52c-1.785,0-3.015-0.704-3.015-1.965C150.594,104.208,150.999,103.623,151.659,103.173z
				 M153.789,105.933c1.395,0,2.31-0.72,2.31-1.485c0-0.675-0.525-0.899-1.47-0.899h-1.26c-0.285,0-0.63-0.03-0.945-0.12
				c-0.525,0.375-0.75,0.81-0.75,1.229C151.674,105.438,152.469,105.933,153.789,105.933z M155.154,98.553
				c0-1.064-0.69-1.694-1.545-1.694s-1.545,0.63-1.545,1.694c0,1.065,0.705,1.74,1.545,1.74S155.154,99.618,155.154,98.553z"/>
			<path fill="#989697" d="M161.366,95.958c1.785,0,3.375,1.395,3.375,3.84c0,2.415-1.59,3.81-3.375,3.81
				c-1.785,0-3.375-1.395-3.375-3.81C157.991,97.353,159.581,95.958,161.366,95.958z M161.366,102.588c1.26,0,2.1-1.125,2.1-2.79
				c0-1.68-0.84-2.82-2.1-2.82c-1.245,0-2.1,1.141-2.1,2.82C159.266,101.463,160.121,102.588,161.366,102.588z"/>
		</g>
	</g>
	<g>
		<g>
			<path fill="#989697" d="M256.043,95.768h1.02l0.105,1.05h0.045c0.63-0.689,1.395-1.229,2.266-1.229
				c1.109,0,1.709,0.525,2.01,1.395c0.764-0.824,1.514-1.395,2.399-1.395c1.5,0,2.22,0.99,2.22,2.85v4.62h-1.23v-4.455
				c0-1.364-0.435-1.949-1.35-1.949c-0.57,0-1.154,0.375-1.83,1.125v5.279h-1.229v-4.455c0-1.364-0.435-1.949-1.364-1.949
				c-0.541,0-1.156,0.375-1.83,1.125v5.279h-1.23V95.768z"/>
			<path fill="#989697" d="M272.378,98.438c0-0.93-0.315-1.83-1.5-1.83c-0.854,0-1.604,0.391-2.175,0.78l-0.495-0.854
				c0.675-0.436,1.694-0.945,2.864-0.945c1.785,0,2.535,1.185,2.535,3v4.47h-1.02l-0.105-0.87h-0.029
				c-0.705,0.57-1.516,1.05-2.416,1.05c-1.229,0-2.145-0.765-2.145-2.069C267.893,99.578,269.273,98.783,272.378,98.438z
				 M270.383,102.248c0.705,0,1.29-0.346,1.995-0.976v-2.024c-2.445,0.3-3.271,0.899-3.271,1.83
				C269.107,101.902,269.662,102.248,270.383,102.248z"/>
			<path fill="#989697" d="M275.654,101.407c0.629,0.511,1.274,0.87,2.145,0.87c0.959,0,1.439-0.51,1.439-1.14
				c0-0.75-0.869-1.08-1.664-1.38c-1.035-0.375-2.176-0.87-2.176-2.1c0-1.17,0.93-2.07,2.505-2.07c0.915,0,1.71,0.375,2.265,0.825
				l-0.584,0.779c-0.496-0.375-1.021-0.645-1.666-0.645c-0.914,0-1.334,0.495-1.334,1.05c0,0.675,0.795,0.945,1.619,1.26
				c1.051,0.391,2.221,0.825,2.221,2.205c0,1.186-0.945,2.175-2.67,2.175c-1.035,0-2.025-0.435-2.715-1.005L275.654,101.407z"/>
			<path fill="#989697" d="M282.463,96.772h-1.08v-0.93l1.141-0.075l0.15-2.04h1.035v2.04h1.965v1.005h-1.965v4.05
				c0,0.9,0.284,1.41,1.125,1.41c0.254,0,0.584-0.104,0.824-0.194l0.24,0.93c-0.405,0.135-0.9,0.27-1.35,0.27
				c-1.561,0-2.086-0.989-2.086-2.43V96.772z"/>
			<path fill="#989697" d="M289.811,95.588c1.859,0,2.91,1.335,2.91,3.42c0,0.255-0.016,0.495-0.045,0.675h-4.92
				c0.09,1.575,1.035,2.565,2.43,2.565c0.689,0,1.275-0.226,1.814-0.57l0.436,0.81c-0.631,0.405-1.41,0.75-2.4,0.75
				c-1.949,0-3.494-1.425-3.494-3.81S288.146,95.588,289.811,95.588z M291.641,98.873c0-1.485-0.66-2.311-1.801-2.311
				c-1.02,0-1.949,0.841-2.1,2.311H291.641z"/>
			<path fill="#989697" d="M294.512,95.768h1.02l0.105,1.32h0.045c0.495-0.915,1.245-1.5,2.07-1.5c0.314,0,0.539,0.045,0.779,0.15
				l-0.24,1.079c-0.239-0.074-0.404-0.119-0.705-0.119c-0.614,0-1.35,0.449-1.844,1.68v4.68h-1.23V95.768z"/>
		</g>
	</g>
	<g>
		<path fill="#939598" d="M78.307,77.804c0.39,0.465,0.975,0.765,1.575,0.765c1.35,0,2.49-1.05,2.535-4.11
			c-0.6,0.766-1.455,1.23-2.25,1.23c-1.65,0-2.715-0.99-2.715-2.955c0-1.83,1.29-3.075,2.82-3.075c1.89,0,3.3,1.53,3.3,4.605
			c0,3.84-1.74,5.324-3.645,5.324c-1.02,0-1.785-0.435-2.31-1.005L78.307,77.804z M82.386,73.483c-0.165-1.86-0.9-2.85-2.115-2.85
			c-0.93,0-1.665,0.84-1.665,2.1c0,1.245,0.585,2.025,1.77,2.025C80.991,74.759,81.741,74.398,82.386,73.483z"/>
		<path fill="#939598" d="M91.515,76.769H90.21v2.64h-1.17v-2.64h-4.305v-0.811l4.095-6.119h1.38v5.939h1.305V76.769z M89.04,75.778
			v-2.774c0-0.511,0.045-1.335,0.075-1.846h-0.06c-0.24,0.465-0.51,0.886-0.78,1.351l-2.235,3.27H89.04z"/>
		<path fill="#939598" d="M92.106,78.673c2.88-2.864,4.5-4.59,4.5-6.135c0-1.095-0.6-1.875-1.815-1.875
			c-0.795,0-1.485,0.511-2.04,1.155l-0.705-0.705c0.795-0.87,1.65-1.455,2.895-1.455c1.77,0,2.865,1.125,2.865,2.82
			c0,1.8-1.635,3.585-3.9,5.955c0.525-0.045,1.11-0.091,1.605-0.091h2.775v1.065h-6.18V78.673z"/>
		<path fill="#939598" d="M106.506,69.733c-0.27-0.12-0.555-0.18-0.825-0.18c-0.69,0-1.02,0.479-1.02,1.41v1.154h1.545v1.005h-1.545
			v6.285h-1.23v-6.285h-0.99v-0.93l0.99-0.075v-1.154c0-1.485,0.675-2.415,2.13-2.415c0.45,0,0.885,0.104,1.215,0.24L106.506,69.733
			z"/>
		<path fill="#939598" d="M111.709,74.788c0-0.93-0.315-1.83-1.5-1.83c-0.855,0-1.605,0.391-2.175,0.78l-0.495-0.854
			c0.675-0.436,1.695-0.945,2.865-0.945c1.785,0,2.535,1.185,2.535,3v4.47h-1.02l-0.105-0.87h-0.03
			c-0.705,0.57-1.515,1.05-2.415,1.05c-1.229,0-2.145-0.765-2.145-2.069C107.225,75.929,108.604,75.134,111.709,74.788z
			 M109.714,78.599c0.705,0,1.29-0.346,1.995-0.976v-2.024c-2.445,0.3-3.27,0.899-3.27,1.83
			C108.439,78.253,108.994,78.599,109.714,78.599z"/>
		<path fill="#939598" d="M114.879,69.823c0-0.479,0.375-0.795,0.855-0.795s0.855,0.315,0.855,0.795
			c0,0.466-0.375,0.795-0.855,0.795S114.879,70.289,114.879,69.823z M115.104,72.118h1.23v7.29h-1.23V72.118z"/>
		<path fill="#939598" d="M118.585,68.729h1.23v9.3c0,0.39,0.165,0.54,0.345,0.54c0.075,0,0.135,0,0.27-0.03l0.165,0.93
			c-0.165,0.075-0.375,0.12-0.705,0.12c-0.93,0-1.305-0.585-1.305-1.649V68.729z"/>
		<path fill="#939598" d="M124.932,71.938c1.86,0,2.91,1.335,2.91,3.42c0,0.255-0.015,0.495-0.045,0.675h-4.92
			c0.09,1.575,1.035,2.565,2.43,2.565c0.69,0,1.275-0.226,1.815-0.57l0.435,0.81c-0.63,0.405-1.41,0.75-2.4,0.75
			c-1.95,0-3.495-1.425-3.495-3.81S123.267,71.938,124.932,71.938z M126.761,75.224c0-1.485-0.66-2.311-1.8-2.311
			c-1.02,0-1.95,0.841-2.1,2.311H126.761z"/>
		<path fill="#939598" d="M132.34,71.938c0.84,0,1.395,0.315,2.04,0.84l-0.06-1.245v-2.805h1.245v10.68h-1.02l-0.105-0.854h-0.045
			c-0.57,0.555-1.35,1.034-2.205,1.034c-1.83,0-3.015-1.38-3.015-3.81C129.175,73.408,130.675,71.938,132.34,71.938z M132.46,78.554
			c0.675,0,1.26-0.33,1.86-1.006v-3.81c-0.615-0.555-1.17-0.765-1.77-0.765c-1.17,0-2.1,1.125-2.1,2.79
			C130.45,77.503,131.185,78.554,132.46,78.554z"/>
	</g>
	<g>
		<g>
			<path fill="#FFFFFF" d="M17.755,6.772c-4.141,0-7.5,3.359-7.5,7.5c0,4.143,3.359,7.5,7.5,7.5s7.5-3.357,7.5-7.5
				C25.255,10.132,21.896,6.772,17.755,6.772z M21.729,16.679l-1.654,1.655l-2.096-2.096l-2.096,2.096l-1.654-1.655l2.096-2.095
				l-2.096-2.097l1.654-1.653l2.096,2.095l2.096-2.095l1.654,1.653l-2.096,2.096L21.729,16.679z"/>
		</g>
	</g>
</g>
</svg>
