<?xml version="1.0" encoding="utf-8"?>
<!-- Generator: Adobe Illustrator 16.0.4, SVG Export Plug-In . SVG Version: 6.00 Build 0)  -->
<!DOCTYPE svg PUBLIC "-//W3C//DTD SVG 1.1//EN" "http://www.w3.org/Graphics/SVG/1.1/DTD/svg11.dtd">
<svg version="1.1" id="Layer_1" xmlns="http://www.w3.org/2000/svg" xmlns:xlink="http://www.w3.org/1999/xlink" x="0px" y="0px"
	 width="399.645px" height="117.895px" viewBox="0 0 399.645 117.895" enable-background="new 0 0 399.645 117.895"
	 xml:space="preserve">
<g>
	<g>
		<path fill="#FFFFFF" d="M399.645,113.895c0,2.2-1.8,4-4,4H4.752c-2.2,0-4-1.8-4-4V4.395c0-2.2,1.8-4,4-4h390.893c2.2,0,4,1.8,4,4
			V113.895z"/>
	</g>
	<g>
		<path fill="#39A668" d="M4,0C1.8,0,0,1.624,0,3.609v110.582c0,1.986,1.8,3.61,4,3.61h31V0H4z"/>
	</g>
	<g>
		<path fill="#39A668" d="M53.559,19.746h1.02l0.105,1.32h0.045c0.495-0.915,1.245-1.5,2.07-1.5c0.315,0,0.54,0.045,0.78,0.15
			l-0.24,1.079c-0.24-0.074-0.405-0.119-0.705-0.119c-0.615,0-1.35,0.449-1.845,1.68v4.68h-1.23V19.746z"/>
		<path fill="#39A668" d="M62.917,22.416c0-0.93-0.315-1.83-1.5-1.83c-0.855,0-1.605,0.391-2.175,0.78l-0.495-0.854
			c0.675-0.436,1.695-0.945,2.865-0.945c1.785,0,2.535,1.185,2.535,3v4.47h-1.02l-0.105-0.87h-0.03
			c-0.705,0.57-1.515,1.05-2.415,1.05c-1.229,0-2.145-0.765-2.145-2.069C58.432,23.557,59.812,22.762,62.917,22.416z M60.922,26.227
			c0.705,0,1.29-0.346,1.995-0.976v-2.024c-2.445,0.3-3.27,0.899-3.27,1.83C59.647,25.881,60.202,26.227,60.922,26.227z"/>
		<path fill="#39A668" d="M66.086,17.451c0-0.479,0.375-0.795,0.855-0.795s0.855,0.315,0.855,0.795c0,0.466-0.375,0.795-0.855,0.795
			S66.086,17.917,66.086,17.451z M66.311,19.746h1.23v7.29h-1.23V19.746z"/>
		<path fill="#39A668" d="M69.792,16.356h1.23v9.3c0,0.39,0.165,0.54,0.345,0.54c0.075,0,0.135,0,0.27-0.03l0.165,0.93
			c-0.165,0.075-0.375,0.12-0.705,0.12c-0.93,0-1.305-0.585-1.305-1.649V16.356z"/>
		<path fill="#39A668" d="M73.52,25.386c0.63,0.511,1.275,0.87,2.145,0.87c0.96,0,1.44-0.51,1.44-1.14c0-0.75-0.87-1.08-1.665-1.38
			c-1.035-0.375-2.175-0.87-2.175-2.1c0-1.17,0.93-2.07,2.505-2.07c0.915,0,1.71,0.375,2.265,0.825l-0.585,0.779
			c-0.495-0.375-1.02-0.645-1.665-0.645c-0.915,0-1.335,0.495-1.335,1.05c0,0.675,0.795,0.945,1.62,1.26
			c1.05,0.391,2.22,0.825,2.22,2.205c0,1.186-0.945,2.175-2.67,2.175c-1.035,0-2.025-0.435-2.715-1.005L73.52,25.386z"/>
		<path fill="#39A668" d="M56.1,51.979v3.771h-1.885V39.86h1.563l0.161,1.288h0.069c1.012-0.851,2.253-1.563,3.564-1.563
			c2.874,0,4.415,2.23,4.415,5.702c0,3.795-2.277,6.025-4.829,6.025c-1.035,0-2.07-0.483-3.104-1.288L56.1,51.979z M58.836,49.726
			c1.839,0,3.196-1.679,3.196-4.438c0-2.46-0.828-4.116-2.943-4.116c-0.943,0-1.886,0.529-2.99,1.518v5.864
			C57.112,49.403,58.101,49.726,58.836,49.726z"/>
		<path fill="#39A668" d="M66.793,39.86h1.563l0.161,2.023h0.069c0.759-1.402,1.909-2.299,3.173-2.299
			c0.483,0,0.828,0.068,1.196,0.229l-0.368,1.655c-0.368-0.114-0.621-0.184-1.081-0.184c-0.943,0-2.07,0.69-2.829,2.575v7.175
			h-1.885V39.86z"/>
		<path fill="#39A668" d="M78.924,39.585c2.737,0,5.174,2.139,5.174,5.887c0,3.702-2.438,5.841-5.174,5.841
			c-2.736,0-5.174-2.139-5.174-5.841C73.75,41.724,76.188,39.585,78.924,39.585z M78.924,49.748c1.932,0,3.22-1.725,3.22-4.276
			c0-2.576-1.288-4.323-3.22-4.323c-1.908,0-3.219,1.747-3.219,4.323C75.705,48.023,77.016,49.748,78.924,49.748z"/>
		<path fill="#39A668" d="M91.519,39.585c1.472,0,2.506,0.62,3.266,1.333l-0.943,1.219c-0.667-0.574-1.357-0.988-2.253-0.988
			c-2.024,0-3.496,1.747-3.496,4.323c0,2.552,1.403,4.276,3.449,4.276c1.058,0,1.955-0.528,2.622-1.126l0.851,1.241
			c-1.012,0.896-2.3,1.449-3.633,1.449c-2.966,0-5.243-2.139-5.243-5.841C86.138,41.724,88.645,39.585,91.519,39.585z"/>
		<path fill="#39A668" d="M97.209,34.664h1.862v11.083h0.069l4.76-5.887h2.093l-3.749,4.484l4.254,6.691h-2.07l-3.265-5.381
			l-2.093,2.438v2.943h-1.862V34.664z"/>
		<path fill="#39A668" d="M112.265,39.585c2.851,0,4.461,2.046,4.461,5.242c0,0.392-0.023,0.759-0.069,1.035h-7.542
			c0.138,2.414,1.586,3.932,3.725,3.932c1.058,0,1.955-0.345,2.782-0.873l0.667,1.241c-0.966,0.621-2.162,1.15-3.679,1.15
			c-2.989,0-5.358-2.185-5.358-5.841S109.712,39.585,112.265,39.585z M115.07,44.62c0-2.276-1.012-3.541-2.759-3.541
			c-1.563,0-2.989,1.288-3.219,3.541H115.07z"/>
		<path fill="#39A668" d="M119.751,41.401h-1.656v-1.426l1.748-0.115l0.23-3.127h1.587v3.127h3.012v1.541h-3.012v6.209
			c0,1.379,0.437,2.161,1.725,2.161c0.391,0,0.896-0.161,1.265-0.299l0.368,1.426c-0.621,0.207-1.379,0.414-2.069,0.414
			c-2.392,0-3.196-1.519-3.196-3.726V41.401z"/>
		<path fill="#39A668" d="M127.305,48.507c0.966,0.781,1.955,1.334,3.289,1.334c1.472,0,2.208-0.782,2.208-1.748
			c0-1.149-1.334-1.655-2.553-2.115c-1.586-0.575-3.334-1.334-3.334-3.22c0-1.794,1.426-3.173,3.84-3.173
			c1.402,0,2.621,0.574,3.472,1.265l-0.897,1.195c-0.759-0.575-1.563-0.988-2.552-0.988c-1.403,0-2.047,0.759-2.047,1.609
			c0,1.035,1.219,1.448,2.483,1.932c1.61,0.598,3.403,1.265,3.403,3.38c0,1.816-1.449,3.335-4.093,3.335
			c-1.587,0-3.104-0.667-4.162-1.541L127.305,48.507z"/>
		<path fill="#39A668" d="M136.22,44.552h5.289V46h-5.289V44.552z"/>
		<path fill="#39A668" d="M144.35,39.86h1.563l0.161,2.023h0.069c0.759-1.402,1.909-2.299,3.173-2.299
			c0.483,0,0.828,0.068,1.196,0.229l-0.368,1.655c-0.368-0.114-0.621-0.184-1.081-0.184c-0.943,0-2.07,0.69-2.829,2.575v7.175
			h-1.885V39.86z"/>
		<path fill="#39A668" d="M158.645,43.954c0-1.426-0.483-2.806-2.299-2.806c-1.311,0-2.46,0.598-3.334,1.195l-0.759-1.311
			c1.035-0.667,2.599-1.448,4.392-1.448c2.736,0,3.886,1.816,3.886,4.599v6.853h-1.563l-0.161-1.334h-0.046
			c-1.081,0.874-2.323,1.61-3.702,1.61c-1.886,0-3.289-1.173-3.289-3.174C151.769,45.701,153.885,44.482,158.645,43.954z
			 M155.586,49.794c1.081,0,1.978-0.528,3.058-1.494v-3.104c-3.748,0.46-5.013,1.38-5.013,2.806
			C153.632,49.266,154.483,49.794,155.586,49.794z"/>
		<path fill="#39A668" d="M163.448,36.343c0-0.736,0.575-1.219,1.311-1.219s1.311,0.482,1.311,1.219
			c0,0.713-0.575,1.219-1.311,1.219S163.448,37.056,163.448,36.343z M163.793,39.86h1.885v11.176h-1.885V39.86z"/>
		<path fill="#39A668" d="M169.072,34.664h1.885v14.257c0,0.598,0.253,0.827,0.529,0.827c0.115,0,0.207,0,0.414-0.046l0.253,1.426
			c-0.253,0.115-0.575,0.185-1.081,0.185c-1.426,0-2-0.897-2-2.53V34.664z"/>
		<path fill="#39A668" d="M174.734,48.507c0.966,0.781,1.955,1.334,3.289,1.334c1.472,0,2.208-0.782,2.208-1.748
			c0-1.149-1.334-1.655-2.553-2.115c-1.586-0.575-3.334-1.334-3.334-3.22c0-1.794,1.426-3.173,3.84-3.173
			c1.402,0,2.621,0.574,3.472,1.265l-0.897,1.195c-0.759-0.575-1.563-0.988-2.552-0.988c-1.403,0-2.047,0.759-2.047,1.609
			c0,1.035,1.219,1.448,2.483,1.932c1.61,0.598,3.403,1.265,3.403,3.38c0,1.816-1.449,3.335-4.093,3.335
			c-1.587,0-3.104-0.667-4.162-1.541L174.734,48.507z"/>
	</g>
	<g>
		<g>
			<path fill="#989697" d="M257.664,73.431c1.86,0,2.91,1.336,2.91,3.42c0,0.256-0.016,0.496-0.045,0.676h-4.92
				c0.09,1.574,1.035,2.564,2.43,2.564c0.69,0,1.275-0.225,1.815-0.57l0.435,0.811c-0.63,0.404-1.41,0.75-2.399,0.75
				c-1.95,0-3.495-1.426-3.495-3.811S256,73.431,257.664,73.431z M259.494,76.716c0-1.484-0.66-2.311-1.8-2.311
				c-1.021,0-1.95,0.842-2.1,2.311H259.494z"/>
			<path fill="#989697" d="M262.365,70.222h1.23v2.91l-0.031,1.318c0.66-0.584,1.471-1.02,2.281-1.02
				c1.889,0,2.895,1.455,2.895,3.705c0,2.49-1.485,3.945-3.15,3.945c-0.675,0-1.439-0.33-2.084-0.9h-0.046l-0.104,0.721h-0.99
				V70.222z M265.38,80.046c1.2,0,2.085-1.096,2.085-2.895c0-1.605-0.54-2.686-1.92-2.686c-0.615,0-1.26,0.346-1.949,0.99v3.824
				C264.24,79.835,264.9,80.046,265.38,80.046z"/>
			<path fill="#989697" d="M270.304,78.966c0.569,0.57,1.29,1.096,2.415,1.096c1.17,0,2.1-0.855,2.1-2.191
				c0-1.318-0.811-2.1-2.04-2.1c-0.659,0-1.065,0.211-1.635,0.586l-0.66-0.42l0.315-4.605h4.785v1.064h-3.705l-0.256,2.836
				c0.451-0.24,0.885-0.391,1.471-0.391c1.635,0,2.97,0.93,2.97,3s-1.56,3.24-3.226,3.24c-1.529,0-2.475-0.645-3.135-1.305
				L270.304,78.966z"/>
			<path fill="#989697" d="M281.033,71.226c-0.27-0.119-0.555-0.18-0.824-0.18c-0.689,0-1.02,0.48-1.02,1.41v1.154h1.545v1.006
				h-1.545v6.285h-1.23v-6.285h-0.99v-0.93l0.99-0.076v-1.154c0-1.484,0.675-2.414,2.13-2.414c0.45,0,0.885,0.104,1.215,0.24
				L281.033,71.226z"/>
			<path fill="#989697" d="M286.755,72.396h-4.77v-1.064h6.165v0.766c-2.266,2.895-2.73,5.07-2.896,8.805h-1.274
				C284.145,77.302,284.865,75.021,286.755,72.396z"/>
			<path fill="#989697" d="M294.277,72.396h-4.77v-1.064h6.164v0.766c-2.264,2.895-2.729,5.07-2.895,8.805h-1.275
				C291.668,77.302,292.388,75.021,294.277,72.396z"/>
			<path fill="#989697" d="M296.609,76.087c0-3.211,1.154-4.936,3.074-4.936c1.904,0,3.061,1.725,3.061,4.936
				c0,3.209-1.156,4.994-3.061,4.994C297.764,81.081,296.609,79.296,296.609,76.087z M301.543,76.087
				c0-2.807-0.75-3.945-1.859-3.945c-1.125,0-1.875,1.139-1.875,3.945c0,2.805,0.75,4.004,1.875,4.004
				C300.793,80.091,301.543,78.892,301.543,76.087z"/>
		</g>
		<g>
			<path fill="#D1D0D0" d="M244.044,66.109c0,0-0.963-0.311-3.162,1.18c-0.92-0.257-1.906-0.383-2.885-0.388
				c-0.98,0.005-1.965,0.131-2.881,0.388c-2.203-1.49-3.172-1.18-3.172-1.18c-0.625,1.587-0.229,2.759-0.111,3.05
				c-0.736,0.805-1.186,1.831-1.186,3.089c0,4.414,2.689,5.399,5.246,5.691c-0.328,0.288-0.627,0.796-0.73,1.542
				c-0.656,0.29-2.324,0.8-3.352-0.957c0,0-0.607-1.107-1.766-1.189c0,0-1.125-0.012-0.078,0.699c0,0,0.754,0.354,1.279,1.685
				c0,0,0.676,2.243,3.879,1.544c0.006,0.962,0.016,1.687,0.016,1.962c0,0.156-0.061,0.325-0.189,0.437
				c0.971,0.267,1.988,0.422,3.045,0.422c1.055,0,2.072-0.155,3.043-0.42c-0.129-0.113-0.188-0.282-0.188-0.438
				c0-0.379,0.014-1.621,0.014-3.162c0-1.073-0.367-1.776-0.781-2.136c2.566-0.283,5.26-1.254,5.26-5.679
				c0-1.258-0.449-2.284-1.186-3.089C244.278,68.868,244.675,67.696,244.044,66.109z"/>
		</g>
	</g>
	<g>
		<g>
			<path fill="#989697" d="M82.377,104.185c2.88-2.864,4.5-4.59,4.5-6.135c0-1.095-0.6-1.875-1.815-1.875
				c-0.795,0-1.485,0.511-2.04,1.155l-0.705-0.705c0.795-0.87,1.65-1.455,2.895-1.455c1.77,0,2.865,1.125,2.865,2.82
				c0,1.8-1.635,3.585-3.9,5.955c0.525-0.045,1.11-0.091,1.605-0.091h2.775v1.065h-6.18V104.185z"/>
			<path fill="#989697" d="M93.492,97.63h1.02l0.105,1.05h0.045c0.63-0.689,1.395-1.229,2.265-1.229c1.11,0,1.709,0.525,2.01,1.395
				c0.765-0.824,1.515-1.395,2.4-1.395c1.5,0,2.22,0.99,2.22,2.85v4.62h-1.23v-4.455c0-1.364-0.435-1.949-1.35-1.949
				c-0.57,0-1.155,0.375-1.83,1.125v5.279h-1.23v-4.455c0-1.364-0.435-1.949-1.365-1.949c-0.54,0-1.155,0.375-1.83,1.125v5.279
				h-1.23V97.63z"/>
			<path fill="#989697" d="M105.534,95.335c0-0.479,0.375-0.795,0.855-0.795s0.855,0.315,0.855,0.795
				c0,0.466-0.375,0.795-0.855,0.795S105.534,95.801,105.534,95.335z M105.759,97.63h1.23v7.29h-1.23V97.63z"/>
			<path fill="#989697" d="M109.24,97.63h1.02l0.105,1.05h0.045c0.69-0.689,1.44-1.229,2.445-1.229c1.53,0,2.22,0.99,2.22,2.85v4.62
				h-1.23v-4.455c0-1.364-0.42-1.949-1.38-1.949c-0.75,0-1.26,0.39-1.995,1.125v5.279h-1.23V97.63z"/>
			<path fill="#989697" d="M117.233,97.63h1.245v4.455c0,1.365,0.405,1.95,1.365,1.95c0.75,0,1.26-0.375,1.95-1.23V97.63h1.245v7.29
				h-1.02l-0.105-1.14h-0.045c-0.675,0.795-1.41,1.319-2.4,1.319c-1.545,0-2.235-0.989-2.235-2.85V97.63z"/>
			<path fill="#989697" d="M125.587,98.635h-1.08v-0.93l1.14-0.075l0.15-2.04h1.035v2.04h1.965v1.005h-1.965v4.05
				c0,0.9,0.285,1.41,1.125,1.41c0.255,0,0.585-0.104,0.825-0.194l0.24,0.93c-0.405,0.135-0.9,0.27-1.35,0.27
				c-1.56,0-2.085-0.989-2.085-2.43V98.635z"/>
			<path fill="#989697" d="M132.934,97.45c1.86,0,2.91,1.335,2.91,3.42c0,0.255-0.015,0.495-0.045,0.675h-4.92
				c0.09,1.575,1.035,2.565,2.43,2.565c0.69,0,1.275-0.226,1.815-0.57l0.435,0.81c-0.63,0.405-1.41,0.75-2.4,0.75
				c-1.95,0-3.495-1.425-3.495-3.81S131.269,97.45,132.934,97.45z M134.763,100.735c0-1.485-0.66-2.311-1.8-2.311
				c-1.02,0-1.95,0.841-2.1,2.311H134.763z"/>
			<path fill="#989697" d="M137.5,103.27c0.63,0.511,1.275,0.87,2.145,0.87c0.96,0,1.44-0.51,1.44-1.14c0-0.75-0.87-1.08-1.665-1.38
				c-1.035-0.375-2.175-0.87-2.175-2.1c0-1.17,0.93-2.07,2.505-2.07c0.915,0,1.71,0.375,2.265,0.825l-0.585,0.779
				c-0.495-0.375-1.02-0.645-1.665-0.645c-0.915,0-1.335,0.495-1.335,1.05c0,0.675,0.795,0.945,1.62,1.26
				c1.05,0.391,2.22,0.825,2.22,2.205c0,1.186-0.945,2.175-2.67,2.175c-1.035,0-2.025-0.435-2.715-1.005L137.5,103.27z"/>
			<path fill="#989697" d="M151.134,100.3c0-0.93-0.315-1.83-1.5-1.83c-0.855,0-1.605,0.391-2.175,0.78l-0.495-0.854
				c0.675-0.436,1.695-0.945,2.865-0.945c1.785,0,2.535,1.185,2.535,3v4.47h-1.02l-0.105-0.87h-0.03
				c-0.705,0.57-1.515,1.05-2.415,1.05c-1.229,0-2.145-0.765-2.145-2.069C146.649,101.44,148.029,100.646,151.134,100.3z
				 M149.139,104.11c0.705,0,1.29-0.346,1.995-0.976v-2.024c-2.445,0.3-3.27,0.899-3.27,1.83
				C147.864,103.765,148.419,104.11,149.139,104.11z"/>
			<path fill="#989697" d="M155.021,104.665v-0.061c-0.36-0.225-0.645-0.614-0.645-1.185c0-0.615,0.42-1.095,0.795-1.35v-0.061
				c-0.48-0.39-0.945-1.095-0.945-1.965c0-1.59,1.26-2.595,2.745-2.595c0.405,0,0.765,0.075,1.035,0.18h2.535v0.945h-1.5
				c0.345,0.33,0.6,0.885,0.6,1.5c0,1.56-1.185,2.535-2.67,2.535c-0.36,0-0.765-0.091-1.095-0.255
				c-0.255,0.225-0.465,0.465-0.465,0.869c0,0.466,0.3,0.795,1.29,0.795h1.41c1.695,0,2.55,0.525,2.55,1.74
				c0,1.35-1.425,2.52-3.69,2.52c-1.785,0-3.015-0.704-3.015-1.965C153.956,105.7,154.361,105.115,155.021,104.665z M157.15,107.425
				c1.395,0,2.31-0.72,2.31-1.485c0-0.675-0.525-0.899-1.47-0.899h-1.26c-0.285,0-0.63-0.03-0.945-0.12
				c-0.525,0.375-0.75,0.81-0.75,1.229C155.036,106.93,155.831,107.425,157.15,107.425z M158.516,100.045
				c0-1.064-0.69-1.694-1.545-1.694s-1.545,0.63-1.545,1.694c0,1.065,0.705,1.74,1.545,1.74S158.516,101.11,158.516,100.045z"/>
			<path fill="#989697" d="M164.728,97.45c1.785,0,3.375,1.395,3.375,3.84c0,2.415-1.59,3.81-3.375,3.81
				c-1.785,0-3.375-1.395-3.375-3.81C161.353,98.845,162.942,97.45,164.728,97.45z M164.728,104.08c1.26,0,2.1-1.125,2.1-2.79
				c0-1.68-0.84-2.82-2.1-2.82c-1.245,0-2.1,1.141-2.1,2.82C162.627,102.955,163.482,104.08,164.728,104.08z"/>
		</g>
		<g>
			<g>
				<rect x="56.764" y="97.151" fill="#F4F4F4" width="13.258" height="9.406"/>
			</g>
			<g>
				<g>
					<g>
						<g>
							<g>
								<path fill="#D1D0D0" d="M62.949,102.36c-0.2,0.143-0.39,0.283-0.569,0.422c-0.189,0.148-0.355,0.308-0.498,0.482
									c-0.144,0.176-0.26,0.382-0.342,0.608c-0.087,0.227-0.102,0.416-0.102,0.416c-0.016,0.21-0.029,0.425-0.029,0.476
									c0,0.052,0.166,0.096,0.367,0.096h3.028c0.202,0,0.367-0.172,0.367-0.383v-0.456c0-0.21-0.165-0.38-0.367-0.38h-1.228
									c-0.201,0-0.337-0.03-0.301-0.064c0,0,0,0,0.036-0.029c0.146-0.122,0.295-0.233,0.45-0.335
									c0.158-0.112,0.315-0.22,0.473-0.33c0.168-0.116,0.318-0.252,0.45-0.396c0.138-0.151,0.247-0.323,0.333-0.52
									c0.085-0.195,0.128-0.433,0.128-0.701c0-0.263-0.05-0.502-0.146-0.718c-0.098-0.209-0.229-0.394-0.393-0.536
									c-0.163-0.144-0.353-0.255-0.567-0.331c-0.207-0.074-0.433-0.114-0.664-0.114c-0.302,0-0.573,0.057-0.811,0.165
									c-0.239,0.11-0.439,0.267-0.599,0.464c-0.155,0.195-0.273,0.428-0.352,0.687c-0.074,0.256-0.083,0.447-0.083,0.447
									c-0.01,0.212-0.016,0.423-0.014,0.475s0.168,0.092,0.37,0.092h0.524c0.202,0,0.367-0.042,0.367-0.095
									s0.006-0.201,0.01-0.331c0,0,0,0,0.027-0.118c0.018-0.11,0.054-0.211,0.1-0.301c0.043-0.082,0.099-0.146,0.17-0.194
									c0.062-0.046,0.145-0.067,0.244-0.067c0.154,0,0.276,0.048,0.37,0.142c0.095,0.096,0.14,0.226,0.14,0.409
									c0,0.114-0.022,0.209-0.069,0.296c-0.057,0.099-0.125,0.189-0.207,0.268"/>
							</g>
						</g>
					</g>
				</g>
				<g>
					<path fill="#D1D0D0" d="M69.381,92.102H57.404c-0.796,0-1.446,0.581-1.446,1.472v12.984v0.898v0.146h0.028
						c0.065,0.283,0.301,0.499,0.59,0.499h13.633c0.289,0,0.523-0.216,0.59-0.499h0.028v-0.146v-0.898V93.573
						C70.827,92.683,70.317,92.102,69.381,92.102z M69.194,106.558H57.591v-9.406h11.604V106.558z"/>
				</g>
			</g>
		</g>
	</g>
	<g>
		<g>
			<path fill="#D1D0D0" d="M241.085,98.565c-0.609-2.324-2.725-4.039-5.242-4.039c-2.516,0-4.631,1.715-5.24,4.039h-4.26v2.703
				h4.244c0.592,2.352,2.721,4.096,5.256,4.096c2.537,0,4.666-1.744,5.256-4.096h4.246v-2.703H241.085z M235.843,102.661
				c-1.021,0-1.912-0.562-2.381-1.393c-0.223-0.396-0.35-0.852-0.35-1.338c0-0.498,0.133-0.963,0.367-1.365
				c0.471-0.816,1.354-1.365,2.363-1.365c1.012,0,1.893,0.549,2.365,1.365c0.232,0.402,0.365,0.867,0.365,1.365
				c0,0.486-0.125,0.941-0.35,1.338C237.757,102.099,236.866,102.661,235.843,102.661z"/>
		</g>
		<g>
			<path fill="#989697" d="M254.935,97.26h1.021l0.104,1.05h0.045c0.63-0.689,1.396-1.229,2.265-1.229c1.11,0,1.71,0.525,2.01,1.395
				c0.766-0.824,1.516-1.395,2.4-1.395c1.5,0,2.22,0.99,2.22,2.85v4.62h-1.229v-4.455c0-1.364-0.436-1.949-1.35-1.949
				c-0.57,0-1.156,0.375-1.83,1.125v5.279h-1.23v-4.455c0-1.364-0.436-1.949-1.365-1.949c-0.539,0-1.154,0.375-1.83,1.125v5.279
				h-1.229V97.26z"/>
			<path fill="#989697" d="M271.27,99.93c0-0.93-0.314-1.83-1.5-1.83c-0.855,0-1.605,0.391-2.176,0.78l-0.494-0.854
				c0.675-0.436,1.695-0.945,2.865-0.945c1.785,0,2.535,1.185,2.535,3v4.47h-1.021l-0.104-0.87h-0.031
				c-0.705,0.57-1.514,1.05-2.414,1.05c-1.23,0-2.145-0.765-2.145-2.069C266.785,101.07,268.164,100.275,271.27,99.93z
				 M269.274,103.74c0.705,0,1.29-0.346,1.995-0.976v-2.024c-2.445,0.3-3.27,0.899-3.27,1.83
				C268,103.395,268.555,103.74,269.274,103.74z"/>
			<path fill="#989697" d="M274.545,102.899c0.631,0.511,1.275,0.87,2.145,0.87c0.961,0,1.44-0.51,1.44-1.14
				c0-0.75-0.87-1.08-1.665-1.38c-1.035-0.375-2.175-0.87-2.175-2.1c0-1.17,0.931-2.07,2.505-2.07c0.915,0,1.71,0.375,2.266,0.825
				l-0.586,0.779c-0.494-0.375-1.02-0.645-1.664-0.645c-0.916,0-1.336,0.495-1.336,1.05c0,0.675,0.795,0.945,1.621,1.26
				c1.049,0.391,2.219,0.825,2.219,2.205c0,1.186-0.944,2.175-2.67,2.175c-1.034,0-2.024-0.435-2.715-1.005L274.545,102.899z"/>
			<path fill="#989697" d="M281.355,98.265h-1.08v-0.93l1.14-0.075l0.149-2.04h1.035v2.04h1.965v1.005H282.6v4.05
				c0,0.9,0.285,1.41,1.125,1.41c0.256,0,0.586-0.104,0.825-0.194l0.24,0.93c-0.405,0.135-0.9,0.27-1.351,0.27
				c-1.56,0-2.084-0.989-2.084-2.43V98.265z"/>
			<path fill="#989697" d="M288.702,97.08c1.86,0,2.909,1.335,2.909,3.42c0,0.255-0.015,0.495-0.045,0.675h-4.92
				c0.091,1.575,1.035,2.565,2.431,2.565c0.69,0,1.274-0.226,1.815-0.57l0.435,0.81c-0.63,0.405-1.41,0.75-2.399,0.75
				c-1.951,0-3.496-1.425-3.496-3.81S287.037,97.08,288.702,97.08z M290.531,100.365c0-1.485-0.659-2.311-1.799-2.311
				c-1.021,0-1.95,0.841-2.1,2.311H290.531z"/>
			<path fill="#989697" d="M293.403,97.26h1.021l0.104,1.32h0.045c0.495-0.915,1.245-1.5,2.069-1.5c0.315,0,0.541,0.045,0.781,0.15
				l-0.24,1.079c-0.24-0.074-0.405-0.119-0.705-0.119c-0.615,0-1.35,0.449-1.846,1.68v4.68h-1.229V97.26z"/>
		</g>
	</g>
	<g>
		<path fill="#939598" d="M82.234,78.921c0.57,0.6,1.32,1.14,2.445,1.14c1.155,0,1.98-0.69,1.98-1.755c0-1.14-0.78-1.905-3.06-1.905
			v-0.944c2.04,0,2.715-0.78,2.715-1.785c0-0.931-0.63-1.516-1.65-1.516c-0.795,0-1.47,0.405-2.04,0.976l-0.66-0.78
			c0.735-0.689,1.62-1.2,2.745-1.2c1.665,0,2.865,0.886,2.865,2.431c0,1.154-0.705,1.89-1.74,2.279v0.061
			c1.155,0.27,2.07,1.109,2.07,2.43c0,1.695-1.395,2.729-3.15,2.729c-1.53,0-2.505-0.645-3.15-1.35L82.234,78.921z"/>
		<path fill="#939598" d="M89.11,80.165c2.88-2.864,4.5-4.59,4.5-6.135c0-1.095-0.6-1.875-1.815-1.875
			c-0.795,0-1.485,0.511-2.04,1.155l-0.705-0.705c0.795-0.87,1.65-1.455,2.895-1.455c1.77,0,2.865,1.125,2.865,2.82
			c0,1.8-1.635,3.585-3.9,5.955c0.525-0.045,1.11-0.091,1.605-0.091h2.775V80.9h-6.18V80.165z"/>
		<path fill="#939598" d="M98.312,75.876v-0.061c-0.705-0.495-1.335-1.2-1.335-2.205c0-1.47,1.17-2.46,2.715-2.46
			c1.665,0,2.7,1.065,2.7,2.551c0,1.005-0.735,1.859-1.32,2.31v0.06c0.855,0.495,1.665,1.17,1.665,2.46c0,1.425-1.23,2.55-3.09,2.55
			c-1.8,0-3.135-1.109-3.135-2.625C96.512,77.211,97.413,76.355,98.312,75.876z M99.677,80.165c1.11,0,1.875-0.689,1.875-1.68
			c0-1.229-1.215-1.68-2.595-2.234c-0.765,0.51-1.335,1.215-1.335,2.085C97.623,79.4,98.507,80.165,99.677,80.165z M101.327,73.761
			c0-0.945-0.615-1.695-1.665-1.695c-0.885,0-1.545,0.615-1.545,1.545c0,1.141,1.05,1.62,2.205,2.07
			C100.967,75.11,101.327,74.466,101.327,73.761z"/>
		<path fill="#939598" d="M109.315,72.936c-0.39-0.465-0.975-0.75-1.575-0.75c-1.335,0-2.46,1.035-2.52,4.065
			c0.6-0.735,1.455-1.2,2.235-1.2c1.65,0,2.729,0.99,2.729,2.955c0,1.829-1.29,3.074-2.834,3.074c-1.875,0-3.3-1.529-3.3-4.604
			c0-3.84,1.74-5.325,3.645-5.325c1.035,0,1.77,0.436,2.31,1.021L109.315,72.936z M109.015,78.006c0-1.245-0.585-2.025-1.77-2.025
			c-0.6,0-1.35,0.36-1.995,1.26c0.15,1.86,0.885,2.865,2.1,2.865C108.295,80.105,109.015,79.266,109.015,78.006z"/>
		<path fill="#939598" d="M116.275,81.516v2.46h-1.23V73.61h1.02l0.105,0.84h0.045c0.66-0.555,1.47-1.02,2.325-1.02
			c1.875,0,2.88,1.455,2.88,3.72c0,2.475-1.485,3.93-3.15,3.93c-0.675,0-1.35-0.314-2.025-0.84L116.275,81.516z M118.06,80.046
			c1.2,0,2.085-1.096,2.085-2.896c0-1.604-0.54-2.685-1.92-2.685c-0.615,0-1.23,0.345-1.95,0.99v3.824
			C116.935,79.835,117.58,80.046,118.06,80.046z"/>
		<path fill="#939598" d="M127.298,76.28c0-0.93-0.315-1.83-1.5-1.83c-0.855,0-1.605,0.391-2.175,0.78l-0.495-0.854
			c0.675-0.436,1.695-0.945,2.865-0.945c1.785,0,2.535,1.185,2.535,3v4.47h-1.02l-0.105-0.87h-0.03
			c-0.705,0.57-1.515,1.05-2.415,1.05c-1.229,0-2.145-0.765-2.145-2.069C122.813,77.421,124.193,76.626,127.298,76.28z
			 M125.303,80.091c0.705,0,1.29-0.346,1.995-0.976v-2.024c-2.445,0.3-3.27,0.899-3.27,1.83
			C124.028,79.745,124.583,80.091,125.303,80.091z"/>
		<path fill="#939598" d="M130.574,79.25c0.63,0.511,1.275,0.87,2.145,0.87c0.96,0,1.44-0.51,1.44-1.14c0-0.75-0.87-1.08-1.665-1.38
			c-1.035-0.375-2.175-0.87-2.175-2.1c0-1.17,0.93-2.07,2.505-2.07c0.915,0,1.71,0.375,2.265,0.825l-0.585,0.779
			c-0.495-0.375-1.02-0.645-1.665-0.645c-0.915,0-1.335,0.495-1.335,1.05c0,0.675,0.795,0.945,1.62,1.26
			c1.05,0.391,2.22,0.825,2.22,2.205c0,1.186-0.945,2.175-2.67,2.175c-1.035,0-2.025-0.435-2.715-1.005L130.574,79.25z"/>
		<path fill="#939598" d="M136.979,79.25c0.63,0.511,1.275,0.87,2.145,0.87c0.96,0,1.44-0.51,1.44-1.14c0-0.75-0.87-1.08-1.665-1.38
			c-1.035-0.375-2.175-0.87-2.175-2.1c0-1.17,0.93-2.07,2.505-2.07c0.915,0,1.71,0.375,2.265,0.825l-0.585,0.779
			c-0.495-0.375-1.02-0.645-1.665-0.645c-0.915,0-1.335,0.495-1.335,1.05c0,0.675,0.795,0.945,1.62,1.26
			c1.05,0.391,2.22,0.825,2.22,2.205c0,1.186-0.945,2.175-2.67,2.175c-1.035,0-2.025-0.435-2.715-1.005L136.979,79.25z"/>
		<path fill="#939598" d="M146.211,73.431c1.86,0,2.91,1.335,2.91,3.42c0,0.255-0.015,0.495-0.045,0.675h-4.92
			c0.09,1.575,1.035,2.565,2.43,2.565c0.69,0,1.275-0.226,1.815-0.57l0.435,0.81c-0.63,0.405-1.41,0.75-2.4,0.75
			c-1.95,0-3.495-1.425-3.495-3.81S144.546,73.431,146.211,73.431z M148.041,76.716c0-1.485-0.66-2.311-1.8-2.311
			c-1.02,0-1.95,0.841-2.1,2.311H148.041z"/>
		<path fill="#939598" d="M153.62,73.431c0.84,0,1.395,0.315,2.04,0.84l-0.06-1.245v-2.805h1.245V80.9h-1.02l-0.105-0.854h-0.045
			c-0.57,0.555-1.35,1.034-2.205,1.034c-1.83,0-3.015-1.38-3.015-3.81C150.455,74.9,151.955,73.431,153.62,73.431z M153.74,80.046
			c0.675,0,1.26-0.33,1.86-1.006v-3.81c-0.615-0.555-1.17-0.765-1.77-0.765c-1.17,0-2.1,1.125-2.1,2.79
			C151.73,78.995,152.465,80.046,153.74,80.046z"/>
	</g>
	<g>
		<g>
			<path fill="#D1D0D0" d="M71.35,73.624c0.785,0,1.426-0.638,1.426-1.424c0-0.787-0.641-1.426-1.426-1.426h-3.732l0.246-3.15
				c0.061-0.785-0.523-1.47-1.312-1.532c-0.784-0.061-1.469,0.525-1.529,1.31l-0.266,3.373h-3.164l0.249-3.15
				c0.062-0.785-0.525-1.47-1.31-1.532c-0.785-0.061-1.471,0.525-1.533,1.31l-0.265,3.373h-3.535c-0.788,0-1.426,0.639-1.426,1.426
				c0,0.786,0.638,1.424,1.426,1.424h3.312l-0.274,3.488h-3.989c-0.786,0-1.424,0.639-1.424,1.427s0.638,1.425,1.424,1.425h3.766
				l-0.281,3.587c-0.062,0.785,0.524,1.471,1.309,1.532c0.039,0.005,0.076,0.005,0.113,0.005c0.736,0,1.361-0.566,1.42-1.313
				l0.298-3.811h3.164l-0.282,3.587c-0.062,0.785,0.526,1.471,1.31,1.532c0.037,0.005,0.075,0.005,0.113,0.005
				c0.737,0,1.358-0.566,1.421-1.313l0.299-3.811h3.502c0.788,0,1.425-0.637,1.425-1.425s-0.637-1.427-1.425-1.427h-3.279
				l0.273-3.488H71.35z M64.26,77.112h-3.164l0.274-3.488h3.161L64.26,77.112z"/>
		</g>
	</g>
	<g>
		<g>
			<path fill="#FFFFFF" d="M17.942,8.353c-4.142,0-7.5,3.358-7.5,7.5s3.358,7.5,7.5,7.5c4.143,0,7.5-3.358,7.5-7.5
				S22.085,8.353,17.942,8.353z M21.982,13.601l-3.713,5.822c-0.104,0.169-0.353,0.34-0.545,0.381l-0.409,0.089
				c-0.194,0.043-0.489-0.011-0.656-0.118l-2.725-1.775c-0.165-0.106-0.214-0.334-0.105-0.5l0.688-1.078
				c0.105-0.168,0.332-0.215,0.497-0.109l1.739,1.125c0.167,0.107,0.391,0.059,0.498-0.108l3.058-4.802
				c0.108-0.166,0.332-0.215,0.499-0.109l1.064,0.686C22.038,13.209,22.089,13.435,21.982,13.601z"/>
		</g>
	</g>
</g>
</svg>
