<?xml version="1.0" encoding="utf-8"?>
<!-- Generator: Adobe Illustrator 16.0.4, SVG Export Plug-In . SVG Version: 6.00 Build 0)  -->
<!DOCTYPE svg PUBLIC "-//W3C//DTD SVG 1.1//EN" "http://www.w3.org/Graphics/SVG/1.1/DTD/svg11.dtd">
<svg version="1.1" id="Layer_1" xmlns="http://www.w3.org/2000/svg" xmlns:xlink="http://www.w3.org/1999/xlink" x="0px" y="0px"
	 width="399.645px" height="117.895px" viewBox="0 0 399.645 117.895" enable-background="new 0 0 399.645 117.895"
	 xml:space="preserve">
<g>
	<g>
		<path fill="#FFFFFF" d="M399.645,113.896c0,2.2-1.8,4-4,4H4.752c-2.2,0-4-1.8-4-4V4.396c0-2.2,1.8-4,4-4h390.893c2.2,0,4,1.8,4,4
			V113.896z"/>
	</g>
	<g>
		<path fill="#D1C929" d="M4.753,0c-2.2,0-4,1.624-4,3.609v110.582c0,1.986,1.8,3.61,4,3.61h31V0H4.753z"/>
	</g>
	<g>
		<path fill="#A49934" d="M54.327,14.744h1.23v8.115c0,1.484-0.54,2.43-1.995,2.43c-0.45,0-0.825-0.09-1.08-0.195l0.255-0.93
			c0.18,0.06,0.435,0.12,0.69,0.12c0.72,0,0.9-0.54,0.9-1.425V14.744z M54.102,12.449c0-0.479,0.375-0.795,0.855-0.795
			c0.465,0,0.84,0.315,0.84,0.795c0,0.466-0.375,0.795-0.84,0.795C54.477,13.244,54.102,12.915,54.102,12.449z"/>
		<path fill="#A49934" d="M57.82,14.744h1.02l0.105,1.32h0.045c0.495-0.915,1.245-1.5,2.07-1.5c0.315,0,0.54,0.045,0.78,0.15
			l-0.24,1.079c-0.24-0.074-0.405-0.119-0.705-0.119c-0.615,0-1.35,0.449-1.845,1.68v4.68h-1.23V14.744z"/>
		<path fill="#A49934" d="M63.084,14.744h1.245v4.455c0,1.365,0.405,1.95,1.365,1.95c0.75,0,1.26-0.375,1.95-1.23v-5.175h1.245v7.29
			h-1.02l-0.105-1.14H67.72c-0.675,0.795-1.41,1.319-2.4,1.319c-1.545,0-2.235-0.989-2.235-2.85V14.744z"/>
		<path fill="#A49934" d="M71.156,11.354h1.23v2.91l-0.03,1.319c0.66-0.585,1.47-1.02,2.28-1.02c1.89,0,2.895,1.455,2.895,3.705
			c0,2.489-1.485,3.944-3.15,3.944c-0.675,0-1.44-0.33-2.084-0.899h-0.045l-0.105,0.72h-0.99V11.354z M74.171,21.18
			c1.2,0,2.085-1.096,2.085-2.896c0-1.604-0.54-2.685-1.92-2.685c-0.615,0-1.26,0.345-1.95,0.99v3.824
			C73.031,20.969,73.691,21.18,74.171,21.18z"/>
		<path fill="#A49934" d="M79.348,24.149c0.825,0,1.35-0.66,1.65-1.561l0.165-0.54l-2.925-7.305h1.275l1.485,4.035
			c0.225,0.63,0.48,1.38,0.705,2.055h0.06c0.21-0.66,0.42-1.41,0.615-2.055l1.305-4.035h1.2l-2.745,7.89
			c-0.51,1.44-1.26,2.535-2.729,2.535c-0.33,0-0.615-0.06-0.855-0.149l0.24-0.976C78.942,24.089,79.167,24.149,79.348,24.149z"/>
		<path fill="#A49934" d="M54.99,34.858h1.885v12.44c0,2.276-0.828,3.726-3.058,3.726c-0.69,0-1.265-0.139-1.656-0.299l0.391-1.426
			c0.276,0.092,0.667,0.184,1.058,0.184c1.104,0,1.38-0.828,1.38-2.185V34.858z M54.645,31.341c0-0.736,0.575-1.219,1.311-1.219
			c0.713,0,1.288,0.482,1.288,1.219c0,0.713-0.575,1.219-1.288,1.219C55.22,32.56,54.645,32.054,54.645,31.341z"/>
		<path fill="#A49934" d="M60.287,34.858h1.563l0.161,2.023h0.069c0.759-1.402,1.909-2.299,3.173-2.299
			c0.483,0,0.828,0.068,1.196,0.229l-0.368,1.655c-0.368-0.114-0.621-0.184-1.081-0.184c-0.943,0-2.07,0.69-2.829,2.575v7.175
			h-1.885V34.858z"/>
		<path fill="#A49934" d="M68.307,34.858h1.908v6.83c0,2.092,0.621,2.989,2.093,2.989c1.149,0,1.932-0.575,2.989-1.886v-7.934h1.909
			v11.176h-1.564l-0.161-1.748h-0.069c-1.035,1.219-2.161,2.024-3.679,2.024c-2.368,0-3.426-1.519-3.426-4.369V34.858z"/>
		<path fill="#A49934" d="M80.623,29.662h1.885v4.461l-0.046,2.023c1.012-0.896,2.253-1.563,3.495-1.563
			c2.897,0,4.438,2.23,4.438,5.68c0,3.817-2.277,6.048-4.829,6.048c-1.035,0-2.208-0.506-3.196-1.38h-0.069l-0.161,1.104h-1.518
			V29.662z M85.245,44.724c1.839,0,3.196-1.679,3.196-4.438c0-2.46-0.828-4.116-2.943-4.116c-0.943,0-1.932,0.529-2.99,1.518v5.864
			C83.497,44.401,84.509,44.724,85.245,44.724z"/>
		<path fill="#A49934" d="M93.13,49.276c1.265,0,2.069-1.012,2.529-2.392l0.253-0.827l-4.484-11.199h1.955l2.276,6.186
			c0.345,0.966,0.736,2.116,1.081,3.15h0.092c0.322-1.012,0.644-2.161,0.943-3.15l2-6.186h1.84l-4.208,12.096
			c-0.782,2.207-1.932,3.886-4.186,3.886c-0.506,0-0.942-0.092-1.311-0.229l0.368-1.495C92.51,49.185,92.854,49.276,93.13,49.276z"
			/>
	</g>
	<g>
		<path fill="#FFFFFF" d="M18.877,8.43c-4.141,0-7.5,3.357-7.5,7.5c0,4.141,3.359,7.5,7.5,7.5c4.143,0,7.5-3.358,7.5-7.5
			C26.377,11.787,23.02,8.43,18.877,8.43z M14.816,17.296c-0.829,0-1.5-0.671-1.5-1.5s0.671-1.5,1.5-1.5c0.828,0,1.5,0.671,1.5,1.5
			S15.645,17.296,14.816,17.296z M18.818,17.296c-0.829,0-1.5-0.671-1.5-1.5s0.671-1.5,1.5-1.5c0.828,0,1.5,0.671,1.5,1.5
			S19.646,17.296,18.818,17.296z M22.822,17.296c-0.829,0-1.5-0.671-1.5-1.5s0.671-1.5,1.5-1.5c0.828,0,1.5,0.671,1.5,1.5
			S23.65,17.296,22.822,17.296z"/>
	</g>
	<g>
		<g>
			<g>
				<path fill="#D1D0D0" d="M244.954,66.776c0,0-0.962-0.311-3.161,1.18c-0.921-0.257-1.906-0.383-2.885-0.388
					c-0.981,0.005-1.966,0.131-2.882,0.388c-2.203-1.49-3.171-1.18-3.171-1.18c-0.626,1.587-0.229,2.759-0.111,3.05
					c-0.737,0.805-1.187,1.831-1.187,3.089c0,4.414,2.69,5.399,5.247,5.691c-0.329,0.288-0.628,0.796-0.731,1.542
					c-0.655,0.29-2.323,0.8-3.351-0.957c0,0-0.608-1.107-1.767-1.189c0,0-1.124-0.012-0.077,0.699c0,0,0.754,0.354,1.279,1.685
					c0,0,0.675,2.243,3.879,1.544c0.005,0.962,0.016,1.687,0.016,1.962c0,0.156-0.061,0.325-0.19,0.437
					c0.971,0.267,1.988,0.422,3.045,0.422c1.055,0,2.073-0.155,3.044-0.42c-0.13-0.113-0.188-0.282-0.188-0.438
					c0-0.379,0.015-1.621,0.015-3.162c0-1.073-0.368-1.776-0.782-2.136c2.567-0.283,5.26-1.254,5.26-5.679
					c0-1.258-0.449-2.284-1.186-3.089C245.189,69.535,245.586,68.363,244.954,66.776z"/>
			</g>
			<g>
				<g>
					<rect x="57.675" y="97.818" fill="#F4F4F4" width="13.258" height="9.406"/>
				</g>
				<g>
					<g>
						<g>
							<g>
								<g>
									<path fill="#D1D0D0" d="M63.86,103.027c-0.201,0.143-0.391,0.283-0.57,0.422c-0.188,0.148-0.355,0.308-0.498,0.482
										c-0.143,0.176-0.259,0.382-0.342,0.608c-0.086,0.227-0.102,0.416-0.102,0.416c-0.015,0.21-0.029,0.425-0.029,0.476
										c0,0.052,0.167,0.096,0.368,0.096h3.028c0.201,0,0.367-0.172,0.367-0.383v-0.456c0-0.21-0.166-0.38-0.367-0.38h-1.229
										c-0.201,0-0.336-0.03-0.301-0.064c0,0,0,0,0.037-0.029c0.145-0.122,0.295-0.233,0.449-0.335
										c0.159-0.112,0.316-0.22,0.473-0.33c0.169-0.116,0.318-0.252,0.451-0.396c0.138-0.151,0.246-0.323,0.332-0.52
										c0.086-0.195,0.129-0.433,0.129-0.701c0-0.263-0.051-0.502-0.146-0.718c-0.098-0.209-0.23-0.394-0.393-0.536
										c-0.164-0.144-0.353-0.255-0.568-0.331c-0.206-0.074-0.432-0.114-0.664-0.114c-0.301,0-0.572,0.057-0.81,0.165
										c-0.239,0.11-0.44,0.267-0.599,0.464c-0.156,0.195-0.273,0.428-0.352,0.687c-0.074,0.256-0.084,0.447-0.084,0.447
										c-0.009,0.212-0.015,0.423-0.013,0.475c0.001,0.052,0.167,0.092,0.37,0.092h0.524c0.202,0,0.366-0.042,0.366-0.095
										s0.007-0.201,0.011-0.331c0,0,0,0,0.026-0.118c0.018-0.11,0.055-0.211,0.1-0.301c0.043-0.082,0.1-0.146,0.17-0.194
										c0.062-0.046,0.145-0.067,0.245-0.067c0.153,0,0.276,0.048,0.37,0.142c0.094,0.096,0.139,0.226,0.139,0.409
										c0,0.114-0.021,0.209-0.068,0.296c-0.057,0.099-0.125,0.189-0.207,0.268"/>
								</g>
							</g>
						</g>
					</g>
					<g>
						<path fill="#D1D0D0" d="M70.292,92.769H58.315c-0.796,0-1.446,0.581-1.446,1.472v12.984v0.898v0.146h0.028
							c0.065,0.283,0.301,0.499,0.59,0.499H71.12c0.289,0,0.523-0.216,0.59-0.499h0.027v-0.146v-0.898V94.24
							C71.737,93.35,71.228,92.769,70.292,92.769z M70.104,107.225H58.502v-9.406h11.603V107.225z"/>
					</g>
				</g>
			</g>
			<g>
				<path fill="#D1D0D0" d="M241.995,99.232c-0.609-2.324-2.725-4.039-5.241-4.039c-2.516,0-4.631,1.715-5.24,4.039h-4.26v2.703
					h4.244c0.591,2.352,2.72,4.096,5.256,4.096s4.666-1.744,5.256-4.096h4.245v-2.703H241.995z M236.754,103.328
					c-1.022,0-1.913-0.562-2.382-1.393c-0.222-0.396-0.35-0.852-0.35-1.338c0-0.498,0.134-0.963,0.367-1.365
					c0.471-0.816,1.354-1.365,2.364-1.365s1.893,0.549,2.365,1.365c0.232,0.402,0.365,0.867,0.365,1.365
					c0,0.486-0.126,0.941-0.35,1.338C238.667,102.766,237.776,103.328,236.754,103.328z"/>
			</g>
			<g>
				<g>
					<path fill="#D1D0D0" d="M72.261,74.291c0.785,0,1.426-0.638,1.426-1.424c0-0.787-0.641-1.426-1.426-1.426h-3.732l0.246-3.15
						c0.061-0.785-0.523-1.47-1.312-1.532c-0.783-0.061-1.469,0.525-1.529,1.31l-0.266,3.373h-3.164l0.25-3.15
						c0.062-0.785-0.525-1.47-1.311-1.532c-0.785-0.061-1.471,0.525-1.533,1.31l-0.264,3.373H56.11
						c-0.789,0-1.426,0.639-1.426,1.426c0,0.786,0.637,1.424,1.426,1.424h3.311l-0.273,3.488h-3.99
						c-0.785,0-1.424,0.639-1.424,1.427s0.639,1.425,1.424,1.425h3.766l-0.281,3.587c-0.062,0.785,0.525,1.471,1.309,1.532
						c0.039,0.005,0.076,0.005,0.113,0.005c0.736,0,1.361-0.566,1.42-1.313l0.299-3.811h3.164l-0.283,3.587
						c-0.061,0.785,0.527,1.471,1.311,1.532c0.037,0.005,0.074,0.005,0.113,0.005c0.736,0,1.357-0.566,1.42-1.313l0.299-3.811h3.502
						c0.789,0,1.426-0.637,1.426-1.425s-0.637-1.427-1.426-1.427h-3.279l0.273-3.488H72.261z M65.171,77.779h-3.164l0.273-3.488
						h3.162L65.171,77.779z"/>
				</g>
			</g>
		</g>
		<g>
			<g>
				<path fill="#989697" d="M258.248,73.434c1.859,0,2.91,1.335,2.91,3.42c0,0.255-0.016,0.495-0.045,0.675h-4.92
					c0.09,1.575,1.035,2.565,2.43,2.565c0.689,0,1.275-0.226,1.814-0.57l0.436,0.81c-0.631,0.405-1.41,0.75-2.4,0.75
					c-1.949,0-3.494-1.425-3.494-3.81S256.583,73.434,258.248,73.434z M260.078,76.719c0-1.485-0.66-2.311-1.801-2.311
					c-1.02,0-1.949,0.841-2.1,2.311H260.078z"/>
				<path fill="#989697" d="M262.949,70.224h1.229v2.91l-0.03,1.319c0.66-0.585,1.471-1.02,2.28-1.02
					c1.89,0,2.895,1.455,2.895,3.705c0,2.489-1.485,3.944-3.149,3.944c-0.676,0-1.44-0.33-2.085-0.899h-0.046l-0.104,0.72h-0.989
					V70.224z M265.963,80.049c1.201,0,2.086-1.096,2.086-2.896c0-1.604-0.541-2.685-1.92-2.685c-0.615,0-1.26,0.345-1.95,0.99v3.824
					C264.824,79.838,265.483,80.049,265.963,80.049z"/>
				<path fill="#989697" d="M270.887,78.969c0.57,0.569,1.291,1.095,2.415,1.095c1.17,0,2.101-0.855,2.101-2.19
					c0-1.319-0.811-2.1-2.041-2.1c-0.659,0-1.064,0.21-1.635,0.585l-0.66-0.42l0.315-4.604h4.785v1.064h-3.705l-0.255,2.835
					c0.45-0.24,0.885-0.39,1.47-0.39c1.636,0,2.97,0.93,2.97,3c0,2.069-1.56,3.239-3.225,3.239c-1.529,0-2.475-0.645-3.135-1.305
					L270.887,78.969z"/>
				<path fill="#989697" d="M281.617,71.229c-0.27-0.12-0.555-0.18-0.824-0.18c-0.69,0-1.021,0.479-1.021,1.41v1.154h1.545v1.005
					h-1.545v6.285h-1.229v-6.285h-0.99v-0.93l0.99-0.075v-1.154c0-1.485,0.674-2.415,2.129-2.415c0.451,0,0.885,0.104,1.215,0.24
					L281.617,71.229z"/>
				<path fill="#989697" d="M287.338,72.398h-4.77v-1.064h6.165v0.765c-2.265,2.895-2.729,5.07-2.896,8.805h-1.274
					C284.729,77.304,285.449,75.023,287.338,72.398z"/>
				<path fill="#989697" d="M294.861,72.398h-4.77v-1.064h6.164v0.765c-2.265,2.895-2.73,5.07-2.895,8.805h-1.275
					C292.251,77.304,292.971,75.023,294.861,72.398z"/>
				<path fill="#989697" d="M297.192,76.089c0-3.21,1.155-4.936,3.075-4.936c1.904,0,3.06,1.726,3.06,4.936s-1.155,4.994-3.06,4.994
					C298.348,81.083,297.192,79.299,297.192,76.089z M302.127,76.089c0-2.806-0.75-3.945-1.859-3.945
					c-1.125,0-1.875,1.14-1.875,3.945c0,2.805,0.75,4.005,1.875,4.005C301.377,80.094,302.127,78.894,302.127,76.089z"/>
			</g>
		</g>
	</g>
	<g>
		<path fill="#989697" d="M83.394,72.055h-4.77V70.99h6.165v0.765c-2.265,2.895-2.73,5.07-2.895,8.805h-1.275
			C80.784,76.96,81.504,74.68,83.394,72.055z"/>
		<path fill="#989697" d="M86.454,78.58c0.57,0.6,1.32,1.14,2.445,1.14c1.155,0,1.98-0.69,1.98-1.755c0-1.14-0.78-1.905-3.06-1.905
			v-0.944c2.04,0,2.715-0.78,2.715-1.785c0-0.931-0.63-1.516-1.65-1.516c-0.795,0-1.47,0.405-2.04,0.976l-0.66-0.78
			c0.735-0.689,1.62-1.2,2.745-1.2c1.665,0,2.865,0.886,2.865,2.431c0,1.154-0.705,1.89-1.74,2.279v0.061
			c1.155,0.27,2.07,1.109,2.07,2.43c0,1.695-1.395,2.729-3.15,2.729c-1.53,0-2.505-0.645-3.15-1.35L86.454,78.58z"/>
		<path fill="#989697" d="M93.33,79.824c2.88-2.864,4.5-4.59,4.5-6.135c0-1.095-0.6-1.875-1.815-1.875
			c-0.795,0-1.485,0.511-2.04,1.155l-0.705-0.705c0.795-0.87,1.65-1.455,2.895-1.455c1.77,0,2.865,1.125,2.865,2.82
			c0,1.8-1.635,3.585-3.9,5.955c0.525-0.045,1.11-0.091,1.605-0.091h2.775v1.065h-6.18V79.824z"/>
		<path fill="#989697" d="M106.858,77.92h-1.305v2.64h-1.17v-2.64h-4.305v-0.811l4.095-6.119h1.38v5.939h1.305V77.92z
			 M104.383,76.93v-2.774c0-0.511,0.045-1.335,0.075-1.846h-0.06c-0.24,0.465-0.51,0.886-0.78,1.351l-2.235,3.27H104.383z"/>
		<path fill="#989697" d="M111.343,78.909c0.63,0.511,1.275,0.87,2.145,0.87c0.96,0,1.44-0.51,1.44-1.14
			c0-0.75-0.87-1.08-1.665-1.38c-1.035-0.375-2.175-0.87-2.175-2.1c0-1.17,0.93-2.07,2.505-2.07c0.915,0,1.71,0.375,2.265,0.825
			l-0.585,0.779c-0.495-0.375-1.02-0.645-1.665-0.645c-0.915,0-1.335,0.495-1.335,1.05c0,0.675,0.795,0.945,1.62,1.26
			c1.05,0.391,2.22,0.825,2.22,2.205c0,1.186-0.945,2.175-2.67,2.175c-1.035,0-2.025-0.435-2.715-1.005L111.343,78.909z"/>
		<path fill="#989697" d="M118.153,74.274h-1.08v-0.93l1.14-0.075l0.15-2.04h1.035v2.04h1.965v1.005h-1.965v4.05
			c0,0.9,0.285,1.41,1.125,1.41c0.255,0,0.585-0.104,0.825-0.194l0.24,0.93c-0.405,0.135-0.9,0.27-1.35,0.27
			c-1.56,0-2.085-0.989-2.085-2.43V74.274z"/>
		<path fill="#989697" d="M127.114,75.939c0-0.93-0.315-1.83-1.5-1.83c-0.855,0-1.605,0.391-2.175,0.78l-0.495-0.854
			c0.675-0.436,1.695-0.945,2.865-0.945c1.785,0,2.535,1.185,2.535,3v4.47h-1.02l-0.105-0.87h-0.03
			c-0.705,0.57-1.515,1.05-2.415,1.05c-1.229,0-2.145-0.765-2.145-2.069C122.629,77.08,124.009,76.285,127.114,75.939z
			 M125.119,79.75c0.705,0,1.29-0.346,1.995-0.976V76.75c-2.445,0.3-3.27,0.899-3.27,1.83
			C123.844,79.404,124.398,79.75,125.119,79.75z"/>
		<path fill="#989697" d="M130.531,73.27h1.02l0.105,1.32h0.045c0.495-0.915,1.245-1.5,2.07-1.5c0.315,0,0.54,0.045,0.78,0.15
			l-0.24,1.079c-0.24-0.074-0.405-0.119-0.705-0.119c-0.615,0-1.35,0.449-1.845,1.68v4.68h-1.23V73.27z"/>
		<path fill="#989697" d="M136.457,74.274h-1.08v-0.93l1.14-0.075l0.15-2.04h1.035v2.04h1.965v1.005h-1.965v4.05
			c0,0.9,0.285,1.41,1.125,1.41c0.255,0,0.585-0.104,0.825-0.194l0.24,0.93c-0.405,0.135-0.9,0.27-1.35,0.27
			c-1.56,0-2.085-0.989-2.085-2.43V74.274z"/>
		<path fill="#989697" d="M143.804,73.09c1.86,0,2.91,1.335,2.91,3.42c0,0.255-0.015,0.495-0.045,0.675h-4.92
			c0.09,1.575,1.035,2.565,2.43,2.565c0.69,0,1.275-0.226,1.815-0.57l0.435,0.81c-0.63,0.405-1.41,0.75-2.4,0.75
			c-1.95,0-3.495-1.425-3.495-3.81S142.139,73.09,143.804,73.09z M145.633,76.375c0-1.485-0.66-2.311-1.8-2.311
			c-1.02,0-1.95,0.841-2.1,2.311H145.633z"/>
		<path fill="#989697" d="M151.212,73.09c0.84,0,1.395,0.315,2.04,0.84l-0.06-1.245V69.88h1.245v10.68h-1.02l-0.105-0.854h-0.045
			c-0.57,0.555-1.35,1.034-2.205,1.034c-1.83,0-3.015-1.38-3.015-3.81C148.047,74.56,149.547,73.09,151.212,73.09z M151.332,79.705
			c0.675,0,1.26-0.33,1.86-1.006v-3.81c-0.615-0.555-1.17-0.765-1.77-0.765c-1.17,0-2.1,1.125-2.1,2.79
			C149.322,78.654,150.057,79.705,151.332,79.705z"/>
	</g>
	<g>
		<path fill="#989697" d="M83.727,97.452c0.96,0,1.635,0.405,2.13,0.87l-0.615,0.795c-0.435-0.375-0.885-0.646-1.47-0.646
			c-1.32,0-2.28,1.141-2.28,2.82c0,1.665,0.915,2.79,2.25,2.79c0.69,0,1.275-0.345,1.71-0.735l0.555,0.811
			c-0.66,0.585-1.5,0.944-2.37,0.944c-1.935,0-3.42-1.395-3.42-3.81C80.217,98.847,81.852,97.452,83.727,97.452z"/>
		<path fill="#989697" d="M87.378,97.632h1.245v4.455c0,1.365,0.405,1.95,1.365,1.95c0.75,0,1.26-0.375,1.95-1.23v-5.175h1.245v7.29
			h-1.02l-0.105-1.14h-0.045c-0.675,0.795-1.41,1.319-2.4,1.319c-1.545,0-2.235-0.989-2.235-2.85V97.632z"/>
		<path fill="#989697" d="M95.454,97.632h1.02l0.105,1.32h0.045c0.495-0.915,1.245-1.5,2.07-1.5c0.315,0,0.54,0.045,0.78,0.15
			l-0.24,1.079c-0.24-0.074-0.405-0.119-0.705-0.119c-0.615,0-1.35,0.449-1.845,1.68v4.68h-1.23V97.632z"/>
		<path fill="#989697" d="M100.734,97.632h1.02l0.105,1.32h0.045c0.495-0.915,1.245-1.5,2.07-1.5c0.315,0,0.54,0.045,0.78,0.15
			l-0.24,1.079c-0.24-0.074-0.405-0.119-0.705-0.119c-0.615,0-1.35,0.449-1.845,1.68v4.68h-1.23V97.632z"/>
		<path fill="#989697" d="M108.571,97.452c1.86,0,2.91,1.335,2.91,3.42c0,0.255-0.015,0.495-0.045,0.675h-4.92
			c0.09,1.575,1.035,2.565,2.43,2.565c0.69,0,1.275-0.226,1.815-0.57l0.435,0.81c-0.63,0.405-1.41,0.75-2.4,0.75
			c-1.95,0-3.495-1.425-3.495-3.81S106.906,97.452,108.571,97.452z M110.401,100.737c0-1.485-0.66-2.311-1.8-2.311
			c-1.02,0-1.95,0.841-2.1,2.311H110.401z"/>
		<path fill="#989697" d="M113.272,97.632h1.02l0.105,1.05h0.045c0.69-0.689,1.44-1.229,2.445-1.229c1.53,0,2.22,0.99,2.22,2.85
			v4.62h-1.23v-4.455c0-1.364-0.42-1.949-1.38-1.949c-0.75,0-1.26,0.39-1.995,1.125v5.279h-1.23V97.632z"/>
		<path fill="#989697" d="M121.505,98.637h-1.08v-0.93l1.14-0.075l0.15-2.04h1.035v2.04h1.965v1.005h-1.965v4.05
			c0,0.9,0.285,1.41,1.125,1.41c0.255,0,0.585-0.104,0.825-0.194l0.24,0.93c-0.405,0.135-0.9,0.27-1.35,0.27
			c-1.56,0-2.085-0.989-2.085-2.43V98.637z"/>
		<path fill="#989697" d="M126.236,94.242h1.23v9.3c0,0.39,0.165,0.54,0.345,0.54c0.075,0,0.135,0,0.27-0.03l0.165,0.93
			c-0.165,0.075-0.375,0.12-0.705,0.12c-0.93,0-1.305-0.585-1.305-1.649V94.242z"/>
		<path fill="#989697" d="M130.007,107.037c0.825,0,1.35-0.66,1.65-1.561l0.165-0.54l-2.925-7.305h1.275l1.485,4.035
			c0.225,0.63,0.48,1.38,0.705,2.055h0.06c0.21-0.66,0.42-1.41,0.615-2.055l1.305-4.035h1.2l-2.745,7.89
			c-0.51,1.44-1.26,2.535-2.729,2.535c-0.33,0-0.615-0.06-0.855-0.149l0.24-0.976C129.602,106.977,129.827,107.037,130.007,107.037z
			"/>
		<path fill="#989697" d="M139.982,97.632h1.02l0.105,1.32h0.045c0.495-0.915,1.245-1.5,2.07-1.5c0.315,0,0.54,0.045,0.78,0.15
			l-0.24,1.079c-0.24-0.074-0.405-0.119-0.705-0.119c-0.615,0-1.35,0.449-1.845,1.68v4.68h-1.23V97.632z"/>
		<path fill="#989697" d="M145.247,97.632h1.245v4.455c0,1.365,0.405,1.95,1.365,1.95c0.75,0,1.26-0.375,1.95-1.23v-5.175h1.245
			v7.29h-1.02l-0.105-1.14h-0.045c-0.675,0.795-1.41,1.319-2.4,1.319c-1.545,0-2.235-0.989-2.235-2.85V97.632z"/>
		<path fill="#989697" d="M153.318,97.632h1.02l0.105,1.05h0.045c0.69-0.689,1.44-1.229,2.445-1.229c1.53,0,2.22,0.99,2.22,2.85
			v4.62h-1.23v-4.455c0-1.364-0.42-1.949-1.38-1.949c-0.75,0-1.26,0.39-1.995,1.125v5.279h-1.23V97.632z"/>
		<path fill="#989697" d="M161.369,97.632h1.02l0.105,1.05h0.045c0.69-0.689,1.44-1.229,2.445-1.229c1.53,0,2.22,0.99,2.22,2.85
			v4.62h-1.23v-4.455c0-1.364-0.42-1.949-1.38-1.949c-0.75,0-1.26,0.39-1.995,1.125v5.279h-1.23V97.632z"/>
		<path fill="#989697" d="M169.166,95.337c0-0.479,0.375-0.795,0.855-0.795s0.855,0.315,0.855,0.795
			c0,0.466-0.375,0.795-0.855,0.795S169.166,95.803,169.166,95.337z M169.391,97.632h1.23v7.29h-1.23V97.632z"/>
		<path fill="#989697" d="M172.872,97.632h1.02l0.105,1.05h0.045c0.69-0.689,1.44-1.229,2.445-1.229c1.53,0,2.22,0.99,2.22,2.85
			v4.62h-1.23v-4.455c0-1.364-0.42-1.949-1.38-1.949c-0.75,0-1.26,0.39-1.995,1.125v5.279h-1.23V97.632z"/>
		<path fill="#989697" d="M181.416,104.667v-0.061c-0.36-0.225-0.645-0.614-0.645-1.185c0-0.615,0.42-1.095,0.795-1.35v-0.061
			c-0.48-0.39-0.945-1.095-0.945-1.965c0-1.59,1.26-2.595,2.745-2.595c0.405,0,0.765,0.075,1.035,0.18h2.535v0.945h-1.5
			c0.345,0.33,0.6,0.885,0.6,1.5c0,1.56-1.185,2.535-2.67,2.535c-0.36,0-0.765-0.091-1.095-0.255
			c-0.255,0.225-0.465,0.465-0.465,0.869c0,0.466,0.3,0.795,1.29,0.795h1.41c1.695,0,2.55,0.525,2.55,1.74
			c0,1.35-1.425,2.52-3.69,2.52c-1.785,0-3.015-0.704-3.015-1.965C180.351,105.702,180.756,105.117,181.416,104.667z
			 M183.546,107.427c1.395,0,2.31-0.72,2.31-1.485c0-0.675-0.525-0.899-1.47-0.899h-1.26c-0.285,0-0.63-0.03-0.945-0.12
			c-0.525,0.375-0.75,0.81-0.75,1.229C181.431,106.932,182.226,107.427,183.546,107.427z M184.911,100.047
			c0-1.064-0.69-1.694-1.545-1.694s-1.545,0.63-1.545,1.694c0,1.065,0.705,1.74,1.545,1.74S184.911,101.112,184.911,100.047z"/>
	</g>
	<g>
		<path fill="#989697" d="M257.155,97.585h1.021l0.104,1.051h0.045c0.63-0.689,1.396-1.23,2.265-1.23c1.11,0,1.71,0.525,2.01,1.395
			c0.766-0.824,1.516-1.395,2.4-1.395c1.5,0,2.22,0.99,2.22,2.85v4.621h-1.229v-4.455c0-1.365-0.436-1.949-1.35-1.949
			c-0.57,0-1.156,0.375-1.83,1.125v5.279h-1.23v-4.455c0-1.365-0.436-1.949-1.365-1.949c-0.539,0-1.154,0.375-1.83,1.125v5.279
			h-1.229V97.585z"/>
		<path fill="#989697" d="M273.49,100.255c0-0.93-0.314-1.83-1.5-1.83c-0.855,0-1.605,0.391-2.176,0.781l-0.494-0.855
			c0.675-0.436,1.695-0.945,2.865-0.945c1.785,0,2.535,1.186,2.535,3v4.471H273.7l-0.104-0.871h-0.031
			c-0.705,0.57-1.514,1.051-2.414,1.051c-1.23,0-2.145-0.766-2.145-2.07C269.006,101.396,270.385,100.601,273.49,100.255z
			 M271.495,104.065c0.705,0,1.29-0.346,1.995-0.975v-2.025c-2.445,0.301-3.27,0.9-3.27,1.83
			C270.221,103.72,270.775,104.065,271.495,104.065z"/>
		<path fill="#989697" d="M276.766,103.226c0.631,0.51,1.275,0.869,2.145,0.869c0.961,0,1.44-0.51,1.44-1.139
			c0-0.75-0.87-1.08-1.665-1.381c-1.035-0.375-2.175-0.869-2.175-2.1c0-1.17,0.931-2.07,2.505-2.07c0.915,0,1.71,0.375,2.266,0.826
			l-0.586,0.779c-0.494-0.375-1.02-0.645-1.664-0.645c-0.916,0-1.336,0.494-1.336,1.049c0,0.676,0.795,0.945,1.621,1.26
			c1.049,0.391,2.219,0.826,2.219,2.205c0,1.186-0.944,2.176-2.67,2.176c-1.034,0-2.024-0.436-2.715-1.006L276.766,103.226z"/>
		<path fill="#989697" d="M283.576,98.591h-1.08v-0.93l1.14-0.076l0.149-2.039h1.035v2.039h1.965v1.006h-1.965v4.049
			c0,0.9,0.285,1.41,1.125,1.41c0.256,0,0.586-0.104,0.825-0.193l0.24,0.93c-0.405,0.135-0.9,0.27-1.351,0.27
			c-1.56,0-2.084-0.99-2.084-2.43V98.591z"/>
		<path fill="#989697" d="M290.923,97.405c1.86,0,2.909,1.336,2.909,3.42c0,0.256-0.015,0.496-0.045,0.676h-4.92
			c0.091,1.574,1.035,2.564,2.431,2.564c0.69,0,1.274-0.225,1.815-0.57l0.435,0.811c-0.63,0.404-1.41,0.75-2.399,0.75
			c-1.951,0-3.496-1.426-3.496-3.811S289.258,97.405,290.923,97.405z M292.752,100.69c0-1.484-0.659-2.311-1.799-2.311
			c-1.021,0-1.95,0.842-2.1,2.311H292.752z"/>
		<path fill="#989697" d="M295.624,97.585h1.021l0.104,1.32h0.045c0.495-0.914,1.245-1.5,2.069-1.5c0.315,0,0.541,0.045,0.781,0.15
			l-0.24,1.08c-0.24-0.074-0.405-0.119-0.705-0.119c-0.615,0-1.35,0.449-1.846,1.68v4.68h-1.229V97.585z"/>
	</g>
</g>
</svg>
