<?xml version="1.0" encoding="utf-8"?>
<svg version="1.1" id="Layer_1" x="0px" y="0px" viewBox="0 0 30.4 30.4" style="enable-background:new 0 0 147.3 56.2;" xmlns="http://www.w3.org/2000/svg">
  <style type="text/css">
	.st0{fill:#439CD6;}
	.st1{fill:#FFFFFF;}
</style>
  <g transform="matrix(1, 0, 0, 1, -76.5, -19)">
    <g id="Dark_Blue">
      <circle class="st0" cx="91.7" cy="34.2" r="15.2"/>
    </g>
    <g id="Logo__x2014__FIXED">
      <path class="st1" d="M89,42.2c6.7,0,10.4-5.6,10.4-10.4c0-0.2,0-0.3,0-0.5c0.7-0.5,1.3-1.2,1.8-1.9c-0.7,0.3-1.4,0.5-2.1,0.6 c0.8-0.5,1.3-1.2,1.6-2c-0.7,0.4-1.5,0.7-2.3,0.9c-0.7-0.7-1.6-1.2-2.7-1.2c-2,0-3.7,1.6-3.7,3.7c0,0.3,0,0.6,0.1,0.8 c-3-0.2-5.7-1.6-7.5-3.8c-0.3,0.5-0.5,1.2-0.5,1.8c0,1.3,0.6,2.4,1.6,3c-0.6,0-1.2-0.2-1.7-0.5c0,0,0,0,0,0c0,1.8,1.3,3.2,2.9,3.6 c-0.3,0.1-0.6,0.1-1,0.1c-0.2,0-0.5,0-0.7-0.1c0.5,1.5,1.8,2.5,3.4,2.5c-1.3,1-2.8,1.6-4.5,1.6c-0.3,0-0.6,0-0.9-0.1 C85,41.6,86.9,42.2,89,42.2"/>
    </g>
  </g>
</svg>