<?xml version="1.0" encoding="utf-8"?>
<!-- Generator: Adobe Illustrator 16.0.4, SVG Export Plug-In . SVG Version: 6.00 Build 0)  -->
<!DOCTYPE svg PUBLIC "-//W3C//DTD SVG 1.1//EN" "http://www.w3.org/Graphics/SVG/1.1/DTD/svg11.dtd">
<svg version="1.1" id="Layer_1" xmlns="http://www.w3.org/2000/svg" xmlns:xlink="http://www.w3.org/1999/xlink" x="0px" y="0px"
	 width="15px" height="12.191px" viewBox="0 0 15 12.191" enable-background="new 0 0 15 12.191" xml:space="preserve">
<path fill="#939598" d="M15,1.443c-0.553,0.245-1.146,0.412-1.768,0.484c0.635-0.381,1.123-0.982,1.352-1.701
	c-0.594,0.352-1.252,0.607-1.951,0.746C12.068,0.375,11.27,0,10.383,0C8.686,0,7.307,1.378,7.307,3.078
	c0,0.242,0.027,0.477,0.082,0.701C4.828,3.651,2.561,2.426,1.043,0.564C0.779,1.02,0.625,1.547,0.625,2.111
	c0,1.067,0.545,2.011,1.371,2.562C1.49,4.656,1.018,4.518,0.602,4.288c0,0.013,0,0.026,0,0.039c0,1.49,1.061,2.733,2.467,3.018
	C2.812,7.414,2.541,7.452,2.262,7.452c-0.201,0-0.395-0.019-0.582-0.055c0.393,1.222,1.529,2.111,2.875,2.136
	c-1.053,0.826-2.379,1.318-3.822,1.318c-0.246,0-0.492-0.016-0.732-0.044c1.361,0.874,2.98,1.384,4.717,1.384
	c5.662,0,8.756-4.689,8.756-8.756c0-0.133-0.004-0.267-0.01-0.397C14.064,2.602,14.586,2.062,15,1.443z"/>
</svg>
