<?xml version="1.0" encoding="utf-8"?>
<!-- Generator: Adobe Illustrator 19.1.0, SVG Export Plug-In . SVG Version: 6.00 Build 0)  -->
<svg version="1.1" id="Layer_1" xmlns="http://www.w3.org/2000/svg" xmlns:xlink="http://www.w3.org/1999/xlink" x="0px" y="0px"
	 viewBox="-341 260.6 339.1 249.4" style="enable-background:new -341 260.6 339.1 249.4;" xml:space="preserve">
<style type="text/css">
	.st0{fill:#FFFFFF;}
	.st1{fill:#E9ECED;}
	.st2{fill:#C6D0D1;}
	.st3{fill:#24B34B;}
	.st4{fill:#747474;}
	.st5{fill:#989798;}
	.st6{fill:#F5F6F7;}
	.st7{fill:#38A569;}
	.st8{fill:#E8E8E8;}
	.st9{fill:#DB4443;}
	.st10{fill:#F9F9F8;}
	.st11{fill:#D2D6D8;}
	.st12{fill:#86BE98;}
	.st13{fill:#A1A1A0;}
	.st14{fill:#89BCBC;}
	.st15{fill:#F1EFEE;}
	.st16{fill:#E46769;}
	.st17{fill:#838283;}
	.st18{fill:#A7AEAE;}
	.st19{fill:#EFEEEE;}
	.st20{fill:#5E5F5F;}
	.st21{fill:#5CBA51;}
	.st22{fill:#E0E1E0;}
</style>
<path class="st0" d="M-55.5,394.6c0.8,0,1.5-0.7,1.5-1.5v-130c0-0.8-0.7-1.5-1.5-1.5h-245.4c-0.8,0-1.5,0.7-1.5,1.5v130
	c0,0.8,0.7,1.5,1.5,1.5H-55.5"/>
<g id="ServerRackLeft">
	<g>
		<g>
			<g>
				<path class="st1" d="M-243.3,493.7h-96.3c-0.7,0-1.4,0.6-1.4,1.4v12.2h99.1v-12.2C-241.9,494.3-242.5,493.7-243.3,493.7z"/>
			</g>
			<g>
				<path class="st2" d="M-341,508.6c0,0.7,0.6,1.4,1.4,1.4h96.4c0.7,0,1.4-0.6,1.4-1.4v-1.4H-341V508.6z"/>
			</g>
		</g>
		<g>
			<circle class="st3" cx="-253.2" cy="501.8" r="2.4"/>
		</g>
		<g>
			<g>
				<circle class="st4" cx="-288.5" cy="500" r="0.9"/>
			</g>
			<g>
				<circle class="st4" cx="-294.5" cy="500" r="0.9"/>
			</g>
			<g>
				<circle class="st4" cx="-300.4" cy="500" r="0.9"/>
			</g>
			<g>
				<circle class="st4" cx="-306.4" cy="500" r="0.9"/>
			</g>
			<g>
				<circle class="st4" cx="-312.4" cy="500" r="0.9"/>
			</g>
			<g>
				<circle class="st4" cx="-318.3" cy="500" r="0.9"/>
			</g>
			<g>
				<circle class="st4" cx="-324.3" cy="500" r="0.9"/>
			</g>
			<g>
				<circle class="st4" cx="-291.5" cy="503.7" r="0.9"/>
			</g>
			<g>
				<circle class="st4" cx="-297.5" cy="503.7" r="0.9"/>
			</g>
			<g>
				<circle class="st4" cx="-303.4" cy="503.7" r="0.9"/>
			</g>
			<g>
				<circle class="st4" cx="-309.4" cy="503.7" r="0.9"/>
			</g>
			<g>
				<circle class="st4" cx="-315.3" cy="503.7" r="0.9"/>
			</g>
			<g>
				<circle class="st4" cx="-321.3" cy="503.7" r="0.9"/>
			</g>
			<g>
				<circle class="st4" cx="-330.2" cy="500" r="0.9"/>
			</g>
			<g>
				<circle class="st4" cx="-327.3" cy="503.7" r="0.9"/>
			</g>
		</g>
	</g>
	<g>
		<g>
			<g>
				<path class="st1" d="M-243.3,476.8h-96.3c-0.7,0-1.4,0.6-1.4,1.4v12.2h99.1v-12.2C-241.9,477.4-242.5,476.8-243.3,476.8z"/>
			</g>
			<g>
				<path class="st2" d="M-341,491.7c0,0.7,0.6,1.4,1.4,1.4h96.4c0.7,0,1.4-0.6,1.4-1.4v-1.4H-341V491.7z"/>
			</g>
		</g>
		<g>
			<circle class="st3" cx="-253.2" cy="484.9" r="2.4"/>
		</g>
		<g>
			<g>
				<circle class="st4" cx="-288.5" cy="483" r="0.9"/>
			</g>
			<g>
				<circle class="st4" cx="-294.5" cy="483" r="0.9"/>
			</g>
			<g>
				<circle class="st4" cx="-300.4" cy="483" r="0.9"/>
			</g>
			<g>
				<circle class="st4" cx="-306.4" cy="483" r="0.9"/>
			</g>
			<g>
				<circle class="st4" cx="-312.4" cy="483" r="0.9"/>
			</g>
			<g>
				<circle class="st4" cx="-318.3" cy="483" r="0.9"/>
			</g>
			<g>
				<circle class="st4" cx="-324.3" cy="483" r="0.9"/>
			</g>
			<g>
				<circle class="st4" cx="-291.5" cy="486.8" r="0.9"/>
			</g>
			<g>
				<circle class="st4" cx="-297.5" cy="486.8" r="0.9"/>
			</g>
			<g>
				<circle class="st4" cx="-303.4" cy="486.8" r="0.9"/>
			</g>
			<g>
				<circle class="st4" cx="-309.4" cy="486.8" r="0.9"/>
			</g>
			<g>
				<circle class="st4" cx="-315.3" cy="486.8" r="0.9"/>
			</g>
			<g>
				<circle class="st4" cx="-321.3" cy="486.8" r="0.9"/>
			</g>
			<g>
				<circle class="st4" cx="-330.2" cy="483" r="0.9"/>
			</g>
			<g>
				<circle class="st4" cx="-327.3" cy="486.8" r="0.9"/>
			</g>
		</g>
	</g>
	<g>
		<g>
			<g>
				<path class="st1" d="M-243.3,459.8h-96.3c-0.7,0-1.4,0.6-1.4,1.4v12.2h99.1v-12.2C-241.9,460.4-242.5,459.8-243.3,459.8z"/>
			</g>
			<g>
				<path class="st2" d="M-341,474.7c0,0.7,0.6,1.4,1.4,1.4h96.4c0.7,0,1.4-0.6,1.4-1.4v-1.4H-341V474.7z"/>
			</g>
		</g>
		<g>
			<circle class="st3" cx="-253.2" cy="468" r="2.4"/>
		</g>
		<g>
			<g>
				<circle class="st4" cx="-288.5" cy="466.1" r="0.9"/>
			</g>
			<g>
				<circle class="st4" cx="-294.5" cy="466.1" r="0.9"/>
			</g>
			<g>
				<circle class="st4" cx="-300.4" cy="466.1" r="0.9"/>
			</g>
			<g>
				<circle class="st4" cx="-306.4" cy="466.1" r="0.9"/>
			</g>
			<g>
				<circle class="st4" cx="-312.4" cy="466.1" r="0.9"/>
			</g>
			<g>
				<circle class="st4" cx="-318.3" cy="466.1" r="0.9"/>
			</g>
			<g>
				<circle class="st4" cx="-324.3" cy="466.1" r="0.9"/>
			</g>
			<g>
				<circle class="st4" cx="-291.5" cy="469.8" r="0.9"/>
			</g>
			<g>
				<circle class="st4" cx="-297.5" cy="469.8" r="0.9"/>
			</g>
			<g>
				<circle class="st4" cx="-303.4" cy="469.8" r="0.9"/>
			</g>
			<g>
				<circle class="st4" cx="-309.4" cy="469.8" r="0.9"/>
			</g>
			<g>
				<circle class="st4" cx="-315.3" cy="469.8" r="0.9"/>
			</g>
			<g>
				<circle class="st4" cx="-321.3" cy="469.8" r="0.9"/>
			</g>
			<g>
				<circle class="st4" cx="-330.2" cy="466.1" r="0.9"/>
			</g>
			<g>
				<circle class="st4" cx="-327.3" cy="469.8" r="0.9"/>
			</g>
		</g>
	</g>
</g>
<g id="ServerRackMiddle">
	<g>
		<g>
			<g>
				<path class="st1" d="M-123.3,493.7h-96.4c-0.7,0-1.4,0.6-1.4,1.4v12.2h99.1v-12.2C-121.9,494.3-122.5,493.7-123.3,493.7z"/>
			</g>
			<g>
				<path class="st2" d="M-221,508.6c0,0.7,0.6,1.4,1.4,1.4h96.4c0.7,0,1.4-0.6,1.4-1.4v-1.4H-221V508.6z"/>
			</g>
		</g>
		<g>
			<circle class="st3" cx="-133.2" cy="501.8" r="2.4"/>
		</g>
		<g>
			<g>
				<circle class="st4" cx="-168.5" cy="500" r="0.9"/>
			</g>
			<g>
				<circle class="st4" cx="-174.5" cy="500" r="0.9"/>
			</g>
			<g>
				<circle class="st4" cx="-180.4" cy="500" r="0.9"/>
			</g>
			<g>
				<circle class="st4" cx="-186.4" cy="500" r="0.9"/>
			</g>
			<g>
				<circle class="st4" cx="-192.4" cy="500" r="0.9"/>
			</g>
			<g>
				<circle class="st4" cx="-198.3" cy="500" r="0.9"/>
			</g>
			<g>
				<circle class="st4" cx="-204.3" cy="500" r="0.9"/>
			</g>
			<g>
				<circle class="st4" cx="-171.5" cy="503.7" r="0.9"/>
			</g>
			<g>
				<circle class="st4" cx="-177.5" cy="503.7" r="0.9"/>
			</g>
			<g>
				<circle class="st4" cx="-183.4" cy="503.7" r="0.9"/>
			</g>
			<g>
				<circle class="st4" cx="-189.4" cy="503.7" r="0.9"/>
			</g>
			<g>
				<circle class="st4" cx="-195.3" cy="503.7" r="0.9"/>
			</g>
			<g>
				<circle class="st4" cx="-201.3" cy="503.7" r="0.9"/>
			</g>
			<g>
				<circle class="st4" cx="-210.2" cy="500" r="0.9"/>
			</g>
			<g>
				<circle class="st4" cx="-207.3" cy="503.7" r="0.9"/>
			</g>
		</g>
	</g>
	<g>
		<g>
			<g>
				<path class="st1" d="M-123.3,476.8h-96.4c-0.7,0-1.4,0.6-1.4,1.4v12.2h99.1v-12.2C-121.9,477.4-122.5,476.8-123.3,476.8z"/>
			</g>
			<g>
				<path class="st2" d="M-221,491.7c0,0.7,0.6,1.4,1.4,1.4h96.4c0.7,0,1.4-0.6,1.4-1.4v-1.4H-221V491.7z"/>
			</g>
		</g>
		<g>
			<circle class="st3" cx="-133.2" cy="484.9" r="2.4"/>
		</g>
		<g>
			<g>
				<circle class="st4" cx="-168.5" cy="483" r="0.9"/>
			</g>
			<g>
				<circle class="st4" cx="-174.5" cy="483" r="0.9"/>
			</g>
			<g>
				<circle class="st4" cx="-180.4" cy="483" r="0.9"/>
			</g>
			<g>
				<circle class="st4" cx="-186.4" cy="483" r="0.9"/>
			</g>
			<g>
				<circle class="st4" cx="-192.4" cy="483" r="0.9"/>
			</g>
			<g>
				<circle class="st4" cx="-198.3" cy="483" r="0.9"/>
			</g>
			<g>
				<circle class="st4" cx="-204.3" cy="483" r="0.9"/>
			</g>
			<g>
				<circle class="st4" cx="-171.5" cy="486.8" r="0.9"/>
			</g>
			<g>
				<circle class="st4" cx="-177.5" cy="486.8" r="0.9"/>
			</g>
			<g>
				<circle class="st4" cx="-183.4" cy="486.8" r="0.9"/>
			</g>
			<g>
				<circle class="st4" cx="-189.4" cy="486.8" r="0.9"/>
			</g>
			<g>
				<circle class="st4" cx="-195.3" cy="486.8" r="0.9"/>
			</g>
			<g>
				<circle class="st4" cx="-201.3" cy="486.8" r="0.9"/>
			</g>
			<g>
				<circle class="st4" cx="-210.2" cy="483" r="0.9"/>
			</g>
			<g>
				<circle class="st4" cx="-207.3" cy="486.8" r="0.9"/>
			</g>
		</g>
	</g>
	<g>
		<g>
			<g>
				<path class="st1" d="M-123.3,459.8h-96.4c-0.7,0-1.4,0.6-1.4,1.4v12.2h99.1v-12.2C-121.9,460.4-122.5,459.8-123.3,459.8z"/>
			</g>
			<g>
				<path class="st2" d="M-221,474.7c0,0.7,0.6,1.4,1.4,1.4h96.4c0.7,0,1.4-0.6,1.4-1.4v-1.4H-221V474.7z"/>
			</g>
		</g>
		<g>
			<circle class="st3" cx="-133.2" cy="468" r="2.4"/>
		</g>
		<g>
			<g>
				<circle class="st4" cx="-168.5" cy="466.1" r="0.9"/>
			</g>
			<g>
				<circle class="st4" cx="-174.5" cy="466.1" r="0.9"/>
			</g>
			<g>
				<circle class="st4" cx="-180.4" cy="466.1" r="0.9"/>
			</g>
			<g>
				<circle class="st4" cx="-186.4" cy="466.1" r="0.9"/>
			</g>
			<g>
				<circle class="st4" cx="-192.4" cy="466.1" r="0.9"/>
			</g>
			<g>
				<circle class="st4" cx="-198.3" cy="466.1" r="0.9"/>
			</g>
			<g>
				<circle class="st4" cx="-204.3" cy="466.1" r="0.9"/>
			</g>
			<g>
				<circle class="st4" cx="-171.5" cy="469.8" r="0.9"/>
			</g>
			<g>
				<circle class="st4" cx="-177.5" cy="469.8" r="0.9"/>
			</g>
			<g>
				<circle class="st4" cx="-183.4" cy="469.8" r="0.9"/>
			</g>
			<g>
				<circle class="st4" cx="-189.4" cy="469.8" r="0.9"/>
			</g>
			<g>
				<circle class="st4" cx="-195.3" cy="469.8" r="0.9"/>
			</g>
			<g>
				<circle class="st4" cx="-201.3" cy="469.8" r="0.9"/>
			</g>
			<g>
				<circle class="st4" cx="-210.2" cy="466.1" r="0.9"/>
			</g>
			<g>
				<circle class="st4" cx="-207.3" cy="469.8" r="0.9"/>
			</g>
		</g>
	</g>
</g>
<g id="ServerRackRight">
	<g>
		<g>
			<g>
				<path class="st1" d="M-3.3,493.7h-96.4c-0.7,0-1.4,0.6-1.4,1.4v12.2H-2v-12.2C-1.9,494.3-2.5,493.7-3.3,493.7z"/>
			</g>
			<g>
				<path class="st2" d="M-101,508.6c0,0.7,0.6,1.4,1.4,1.4h96.4c0.7,0,1.4-0.6,1.4-1.4v-1.4H-101V508.6z"/>
			</g>
		</g>
		<g>
			<circle class="st3" cx="-13.2" cy="501.8" r="2.4"/>
		</g>
		<g>
			<g>
				<circle class="st4" cx="-48.5" cy="500" r="0.9"/>
			</g>
			<g>
				<circle class="st4" cx="-54.5" cy="500" r="0.9"/>
			</g>
			<g>
				<circle class="st4" cx="-60.4" cy="500" r="0.9"/>
			</g>
			<g>
				<circle class="st4" cx="-66.4" cy="500" r="0.9"/>
			</g>
			<g>
				<circle class="st4" cx="-72.4" cy="500" r="0.9"/>
			</g>
			<g>
				<circle class="st4" cx="-78.3" cy="500" r="0.9"/>
			</g>
			<g>
				<circle class="st4" cx="-84.3" cy="500" r="0.9"/>
			</g>
			<g>
				<circle class="st4" cx="-51.5" cy="503.7" r="0.9"/>
			</g>
			<g>
				<circle class="st4" cx="-57.5" cy="503.7" r="0.9"/>
			</g>
			<g>
				<circle class="st4" cx="-63.4" cy="503.7" r="0.9"/>
			</g>
			<g>
				<circle class="st4" cx="-69.4" cy="503.7" r="0.9"/>
			</g>
			<g>
				<circle class="st4" cx="-75.3" cy="503.7" r="0.9"/>
			</g>
			<g>
				<circle class="st4" cx="-81.3" cy="503.7" r="0.9"/>
			</g>
			<g>
				<circle class="st4" cx="-90.2" cy="500" r="0.9"/>
			</g>
			<g>
				<circle class="st4" cx="-87.3" cy="503.7" r="0.9"/>
			</g>
		</g>
	</g>
	<g>
		<g>
			<g>
				<path class="st1" d="M-3.3,476.8h-96.4c-0.7,0-1.4,0.6-1.4,1.4v12.2H-2v-12.2C-1.9,477.4-2.5,476.8-3.3,476.8z"/>
			</g>
			<g>
				<path class="st2" d="M-101,491.7c0,0.7,0.6,1.4,1.4,1.4h96.4c0.7,0,1.4-0.6,1.4-1.4v-1.4H-101V491.7z"/>
			</g>
		</g>
		<g>
			<circle class="st3" cx="-13.2" cy="484.9" r="2.4"/>
		</g>
		<g>
			<g>
				<circle class="st4" cx="-48.5" cy="483" r="0.9"/>
			</g>
			<g>
				<circle class="st4" cx="-54.5" cy="483" r="0.9"/>
			</g>
			<g>
				<circle class="st4" cx="-60.4" cy="483" r="0.9"/>
			</g>
			<g>
				<circle class="st4" cx="-66.4" cy="483" r="0.9"/>
			</g>
			<g>
				<circle class="st4" cx="-72.4" cy="483" r="0.9"/>
			</g>
			<g>
				<circle class="st4" cx="-78.3" cy="483" r="0.9"/>
			</g>
			<g>
				<circle class="st4" cx="-84.3" cy="483" r="0.9"/>
			</g>
			<g>
				<circle class="st4" cx="-51.5" cy="486.8" r="0.9"/>
			</g>
			<g>
				<circle class="st4" cx="-57.5" cy="486.8" r="0.9"/>
			</g>
			<g>
				<circle class="st4" cx="-63.4" cy="486.8" r="0.9"/>
			</g>
			<g>
				<circle class="st4" cx="-69.4" cy="486.8" r="0.9"/>
			</g>
			<g>
				<circle class="st4" cx="-75.3" cy="486.8" r="0.9"/>
			</g>
			<g>
				<circle class="st4" cx="-81.3" cy="486.8" r="0.9"/>
			</g>
			<g>
				<circle class="st4" cx="-90.2" cy="483" r="0.9"/>
			</g>
			<g>
				<circle class="st4" cx="-87.3" cy="486.8" r="0.9"/>
			</g>
		</g>
	</g>
	<g>
		<g>
			<g>
				<path class="st1" d="M-3.3,459.8h-96.4c-0.7,0-1.4,0.6-1.4,1.4v12.2H-2v-12.2C-1.9,460.4-2.5,459.8-3.3,459.8z"/>
			</g>
			<g>
				<path class="st2" d="M-101,474.7c0,0.7,0.6,1.4,1.4,1.4h96.4c0.7,0,1.4-0.6,1.4-1.4v-1.4H-101V474.7z"/>
			</g>
		</g>
		<g>
			<circle class="st3" cx="-13.2" cy="468" r="2.4"/>
		</g>
		<g>
			<g>
				<circle class="st4" cx="-48.5" cy="466.1" r="0.9"/>
			</g>
			<g>
				<circle class="st4" cx="-54.5" cy="466.1" r="0.9"/>
			</g>
			<g>
				<circle class="st4" cx="-60.4" cy="466.1" r="0.9"/>
			</g>
			<g>
				<circle class="st4" cx="-66.4" cy="466.1" r="0.9"/>
			</g>
			<g>
				<circle class="st4" cx="-72.4" cy="466.1" r="0.9"/>
			</g>
			<g>
				<circle class="st4" cx="-78.3" cy="466.1" r="0.9"/>
			</g>
			<g>
				<circle class="st4" cx="-84.3" cy="466.1" r="0.9"/>
			</g>
			<g>
				<circle class="st4" cx="-51.5" cy="469.8" r="0.9"/>
			</g>
			<g>
				<circle class="st4" cx="-57.5" cy="469.8" r="0.9"/>
			</g>
			<g>
				<circle class="st4" cx="-63.4" cy="469.8" r="0.9"/>
			</g>
			<g>
				<circle class="st4" cx="-69.4" cy="469.8" r="0.9"/>
			</g>
			<g>
				<circle class="st4" cx="-75.3" cy="469.8" r="0.9"/>
			</g>
			<g>
				<circle class="st4" cx="-81.3" cy="469.8" r="0.9"/>
			</g>
			<g>
				<circle class="st4" cx="-90.2" cy="466.1" r="0.9"/>
			</g>
			<g>
				<circle class="st4" cx="-87.3" cy="469.8" r="0.9"/>
			</g>
		</g>
	</g>
</g>
<g id="DottedLines">
	<g>
		<g>
			<rect x="-176" y="411.8" class="st5" width="1" height="1"/>
		</g>
		<g>
			<path class="st5" d="M-175,439.9h-1V438h1V439.9z M-175,436h-1v-1.9h1V436z M-175,432.2h-1v-1.9h1V432.2z M-175,428.3h-1v-1.9h1
				V428.3z M-175,424.4h-1v-1.9h1V424.4z M-175,420.6h-1v-2h1V420.6z M-175,416.7h-1v-1.9h1V416.7z"/>
		</g>
		<g>
			<rect x="-176" y="441.8" class="st5" width="1" height="1"/>
		</g>
	</g>
	<g>
		<g>
			<path class="st5" d="M-163.7,412.8c0-0.6,0-1,0-1l1,0.1c0,0,0,0.4,0,1L-163.7,412.8z"/>
		</g>
		<g>
			<path class="st5" d="M-52.8,438.1c-0.1-0.7-0.1-1.3-0.2-1.9l1-0.2c0.1,0.6,0.2,1.3,0.3,2L-52.8,438.1z M-53.4,434.3
				c-0.2-0.6-0.4-1.2-0.6-1.8l0.9-0.4c0.2,0.6,0.5,1.3,0.6,1.9L-53.4,434.3z M-54.9,430.7c-0.3-0.6-0.7-1.1-1.1-1.5l0.8-0.6
				c0.4,0.5,0.8,1.1,1.2,1.7L-54.9,430.7z M-57.3,427.9c-0.5-0.4-1-0.7-1.6-1l0.4-0.9c0.6,0.3,1.2,0.7,1.8,1.1L-57.3,427.9z
				 M-60.6,426.3c-0.6-0.2-1.2-0.3-1.9-0.3l0.1-1c0.7,0,1.4,0.1,2.1,0.3L-60.6,426.3z M-64.5,426h-2v-1h2V426z M-68.4,426h-2v-1h2
				V426z M-72.4,426h-2v-1h2V426z M-76.4,426h-2v-1h2V426z M-80.3,426h-2v-1h2V426z M-84.3,426h-2v-1h2V426z M-88.3,426h-2v-1h2V426
				z M-92.2,426h-2v-1h2V426z M-96.2,426h-2v-1h2V426z M-100.1,426h-2v-1h2V426z M-104.1,426h-2v-1h2V426z M-108,426h-2v-1h2V426z
				 M-112,426h-2v-1h2V426z M-116,426h-2v-1h2V426z M-119.9,426h-2v-1h2V426z M-123.9,426h-2v-1h2V426z M-127.8,426h-2v-1h2V426z
				 M-131.8,426h-2v-1h2V426z M-135.8,426h-2v-1h2V426z M-139.7,426h-2v-1h2V426z M-143.7,426h-2v-1h2V426z M-147.7,426h-2v-1h2V426
				z M-151.6,426h-1.5c-0.2,0-0.3,0-0.5,0v-1c0.1,0,0.3,0,0.4,0h1.5v1H-151.6z M-155.7,425.7c-0.7-0.2-1.4-0.4-2-0.7l0.4-0.9
				c0.5,0.3,1.1,0.5,1.8,0.6L-155.7,425.7z M-159.4,423.9c-0.5-0.4-1-0.9-1.4-1.5l0.8-0.6c0.4,0.5,0.8,1,1.3,1.4L-159.4,423.9z
				 M-161.9,420.6c-0.3-0.6-0.6-1.2-0.8-1.9l0.9-0.3c0.2,0.6,0.5,1.2,0.7,1.8L-161.9,420.6z M-163.2,416.8c-0.1-0.6-0.2-1.3-0.3-2
				l1-0.1c0.1,0.7,0.2,1.3,0.3,1.9L-163.2,416.8z"/>
		</g>
		<g>
			<path class="st5" d="M-51.7,440.8h-1c0-0.3,0-0.7,0-1h1C-51.7,440.1-51.7,440.5-51.7,440.8z"/>
		</g>
	</g>
	<g>
		<g>
			<path class="st5" d="M-187.7,412.8h-1c0-0.6,0-0.9,0-1l1-0.1C-187.7,411.7-187.7,412.1-187.7,412.8z"/>
		</g>
		<g>
			<path class="st5" d="M-292.6,438l-1-0.1c0.1-0.7,0.1-1.4,0.3-2l1,0.2C-292.4,436.7-292.5,437.3-292.6,438z M-291.9,434.2l-1-0.3
				c0.2-0.7,0.4-1.3,0.7-2l0.9,0.4C-291.5,432.9-291.7,433.5-291.9,434.2z M-290.4,430.6l-0.9-0.5c0.4-0.6,0.8-1.2,1.2-1.7l0.7,0.7
				C-289.7,429.5-290.1,430-290.4,430.6z M-287.9,427.8l-0.6-0.8c0.6-0.4,1.2-0.8,1.8-1.1l0.4,0.9
				C-286.8,427.1-287.4,427.4-287.9,427.8z M-284.4,426.2l-0.2-1c0.9-0.2,1.6-0.2,2.1-0.3v1C-283,426-283.7,426-284.4,426.2z
				 M-198.2,426h-1.8v-1h2v1H-198.2z M-202.1,426h-2v-1h2V426z M-206.1,426h-2v-1h2V426z M-210.1,426h-2v-1h2V426z M-214.1,426h-2
				v-1h2V426z M-218.2,426h-2v-1h2V426z M-222.2,426h-2v-1h2V426z M-226.2,426h-2v-1h2V426z M-230.2,426h-2v-1h2V426z M-234.2,426
				h-2v-1h2V426z M-238.3,426h-2v-1h2V426z M-242.3,426h-2v-1h2V426z M-246.3,426h-2v-1h2V426z M-250.3,426h-2v-1h2V426z
				 M-254.4,426h-2v-1h2V426z M-258.4,426h-2v-1h2V426z M-262.4,426h-2v-1h2V426z M-266.4,426h-2v-1h2V426z M-270.5,426h-2v-1h2V426
				z M-274.5,426h-2v-1h2V426z M-278.5,426h-2v-1h2V426z M-195.9,425.8l-0.2-1c0.6-0.1,1.2-0.3,1.8-0.6l0.4,0.9
				C-194.5,425.4-195.2,425.6-195.9,425.8z M-192.1,424l-0.6-0.8c0.5-0.4,0.9-0.8,1.3-1.3l0.8,0.6
				C-191.1,423.1-191.6,423.6-192.1,424z M-189.5,420.7l-0.9-0.5c0.3-0.5,0.5-1.1,0.7-1.8l0.9,0.3
				C-188.9,419.5-189.2,420.1-189.5,420.7z M-188.1,416.8l-1-0.2c0.1-0.6,0.2-1.3,0.3-1.9l1,0.1C-187.9,415.5-188,416.2-188.1,416.8
				z"/>
		</g>
		<g>
			<path class="st5" d="M-292.7,440.8h-1c0-0.3,0-0.7,0-1h1C-292.7,440.2-292.7,440.5-292.7,440.8z"/>
		</g>
	</g>
</g>
<g id="TravisCI">
	<g>
		<g>
			<g>
				<path class="st6" d="M-59.8,291.2h-184.1v21.5h184.1c0.9,0,1.5-0.7,1.5-1.5v-18.4C-58.2,291.9-59,291.2-59.8,291.2z"/>
			</g>
		</g>
	</g>
	<g>
		<g>
			<path class="st7" d="M-248.3,291.2c-0.9,0-1.5,0.7-1.5,1.5v18.4c0,0.9,0.7,1.5,1.5,1.5h4.3v-21.5L-248.3,291.2L-248.3,291.2z"/>
		</g>
	</g>
	<g>
		<g>
			<rect x="-302.4" y="291.4" class="st7" width="1" height="14"/>
		</g>
	</g>
	<g>
		<g>
			<rect x="-302.4" y="261.6" class="st8" width="248.3" height="8.2"/>
		</g>
	</g>
	<g>
		<g>
			<rect x="-302.4" y="306.3" class="st9" width="1" height="14"/>
		</g>
	</g>
	<g>
		<g>
			<rect x="-302.4" y="351.1" class="st9" width="1" height="14"/>
		</g>
	</g>
	<g>
		<g>
			<rect x="-302.4" y="321.2" class="st7" width="1" height="14"/>
		</g>
	</g>
	<g>
		<g>
			<rect x="-302.4" y="336.3" class="st7" width="1" height="14"/>
		</g>
	</g>
	<g>
		<g>
			<rect x="-302.4" y="366" class="st7" width="1" height="14"/>
		</g>
	</g>
	<g>
		<g>
			<path class="st10" d="M-58.1,326c0,0.9-0.7,1.5-1.5,1.5h-188.7c-0.9,0-1.5-0.7-1.5-1.5v-2.2c0-0.9,0.7-1.5,1.5-1.5h188.7
				c0.9,0,1.5,0.7,1.5,1.5V326L-58.1,326z"/>
		</g>
	</g>
	<g>
		<g>
			<path class="st10" d="M-58.1,341.3c0,0.9-0.7,1.5-1.5,1.5h-188.7c-0.9,0-1.5-0.7-1.5-1.5v-2.2c0-0.9,0.7-1.5,1.5-1.5h188.7
				c0.9,0,1.5,0.7,1.5,1.5V341.3L-58.1,341.3z"/>
		</g>
	</g>
	<g>
		<g>
			<path class="st10" d="M-58.1,347.6c0,0.9-0.7,1.5-1.5,1.5h-188.7c-0.9,0-1.5-0.7-1.5-1.5v-2.2c0-0.9,0.7-1.5,1.5-1.5h188.7
				c0.9,0,1.5,0.7,1.5,1.5V347.6L-58.1,347.6z"/>
		</g>
	</g>
	<g>
		<g>
			<path class="st10" d="M-58.1,353.6c0,0.9-0.7,1.5-1.5,1.5h-188.7c-0.9,0-1.5-0.7-1.5-1.5v-2.2c0-0.9,0.7-1.5,1.5-1.5h188.7
				c0.9,0,1.5,0.7,1.5,1.5V353.6L-58.1,353.6z"/>
		</g>
	</g>
	<g>
		<g>
			<rect x="-302.4" y="381" class="st7" width="1" height="14"/>
		</g>
	</g>
	<g>
		<g>
			<rect x="-297.1" y="298.4" class="st11" width="14" height="1.5"/>
		</g>
	</g>
	<g>
		<g>
			<rect x="-298.9" y="276.6" class="st11" width="21.3" height="1.5"/>
		</g>
	</g>
	<g>
		<g>
			<rect x="-297.1" y="293.7" class="st12" width="18.2" height="1.5"/>
		</g>
	</g>
	<g>
		<g>
			<rect x="-281.8" y="265.1" class="st13" width="4.1" height="1.5"/>
		</g>
	</g>
	<g>
		<g>
			<rect x="-300" y="264.4" class="st13" width="14.9" height="2.8"/>
		</g>
	</g>
	<g>
		<g>
			<rect x="-264.4" y="265.1" class="st13" width="4.1" height="1.5"/>
		</g>
	</g>
	<g>
		<g>
			<rect x="-274.1" y="265.1" class="st13" width="6.1" height="1.5"/>
		</g>
	</g>
	<g>
		<g>
			<rect x="-261.2" y="293.7" class="st12" width="4.1" height="1.5"/>
		</g>
	</g>
	<g>
		<g>
			<rect x="-297.1" y="301.6" class="st11" width="20.1" height="1.5"/>
		</g>
	</g>
	<g>
		<g>
			<rect x="-242.2" y="293.3" class="st11" width="40.4" height="1.5"/>
		</g>
	</g>
	<g>
		<g>
			<rect x="-99.1" y="297.3" class="st11" width="16.4" height="1.5"/>
		</g>
	</g>
	<g>
		<g>
			<rect x="-99.1" y="293.9" class="st12" width="11.9" height="1.5"/>
		</g>
	</g>
	<g>
		<g>
			<rect x="-99.1" y="304.3" class="st11" width="19.2" height="1.5"/>
		</g>
	</g>
	<g>
		<g>
			<rect x="-99.1" y="308.1" class="st11" width="8.5" height="1.5"/>
		</g>
	</g>
	<g>
		<g>
			<rect x="-99.1" y="300.7" class="st11" width="26.4" height="1.5"/>
		</g>
	</g>
	<g>
		<g>
			<rect x="-249.8" y="285.6" class="st14" width="6.6" height="1.5"/>
		</g>
	</g>
	<g>
		<g>
			<rect x="-239" y="285.6" class="st11" width="8.1" height="1.5"/>
		</g>
	</g>
	<g>
		<g>
			<rect x="-226.8" y="285.6" class="st11" width="11.1" height="1.5"/>
		</g>
	</g>
	<g>
		<g>
			<rect x="-211.5" y="285.6" class="st11" width="11.4" height="1.5"/>
		</g>
	</g>
	<g>
		<g>
			<rect x="-249.8" y="288.6" class="st14" width="6.6" height="0.3"/>
		</g>
	</g>
	<g>
		<g>
			<rect x="-243.4" y="288.6" class="st15" width="189.4" height="0.3"/>
		</g>
	</g>
	<g>
		<g>
			<rect x="-300" y="285.5" class="st14" width="14.7" height="1.5"/>
		</g>
	</g>
	<g>
		<g>
			<rect x="-300" y="288.4" class="st14" width="6.6" height="0.3"/>
		</g>
	</g>
	<g>
		<g>
			<rect x="-293.6" y="288.4" class="st15" width="36.3" height="0.3"/>
		</g>
	</g>
	<g>
		<g>
			<rect x="-238" y="308.5" class="st11" width="40.4" height="1.5"/>
		</g>
	</g>
	<g>
		<g>
			<circle class="st12" cx="-299.2" cy="294.4" r="0.8"/>
		</g>
	</g>
	<g>
		<g>
			<circle class="st11" cx="-299.2" cy="299.1" r="0.8"/>
		</g>
	</g>
	<g>
		<g>
			<circle class="st12" cx="-247.8" cy="340.4" r="0.8"/>
		</g>
	</g>
	<g>
		<g>
			<circle class="st16" cx="-247.8" cy="346.5" r="0.8"/>
		</g>
	</g>
	<g>
		<g>
			<circle class="st16" cx="-247.8" cy="352.4" r="0.8"/>
		</g>
	</g>
	<g>
		<g>
			<circle class="st12" cx="-247.8" cy="324.8" r="0.8"/>
		</g>
	</g>
	<g>
		<g>
			<circle class="st11" cx="-262.8" cy="294.3" r="0.8"/>
		</g>
	</g>
	<g>
		<g>
			<circle class="st11" cx="-101.5" cy="294.3" r="0.8"/>
		</g>
	</g>
	<g>
		<g>
			<circle class="st11" cx="-101.5" cy="298" r="0.8"/>
		</g>
	</g>
	<g>
		<g>
			<circle class="st11" cx="-101.5" cy="301.6" r="0.8"/>
		</g>
	</g>
	<g>
		<g>
			<circle class="st11" cx="-101.5" cy="305.3" r="0.8"/>
		</g>
	</g>
	<g>
		<g>
			<circle class="st11" cx="-101.5" cy="308.9" r="0.8"/>
		</g>
	</g>
	<g>
		<g>
			<circle class="st11" cx="-259.6" cy="277.1" r="0.8"/>
		</g>
	</g>
	<g>
		<g>
			<circle class="st11" cx="-299.2" cy="302.4" r="0.8"/>
		</g>
	</g>
	<g>
		<g>
			<rect x="-297.1" y="328.2" class="st11" width="14" height="1.5"/>
		</g>
	</g>
	<g>
		<g>
			<rect x="-297.1" y="323.5" class="st12" width="18.2" height="1.5"/>
		</g>
	</g>
	<g>
		<g>
			<rect x="-261.2" y="323.5" class="st12" width="4.1" height="1.5"/>
		</g>
	</g>
	<g>
		<g>
			<rect x="-297.1" y="331.4" class="st11" width="20.1" height="1.5"/>
		</g>
	</g>
	<g>
		<g>
			<circle class="st12" cx="-299.2" cy="324.2" r="0.8"/>
		</g>
	</g>
	<g>
		<g>
			<circle class="st11" cx="-299.2" cy="328.8" r="0.8"/>
		</g>
	</g>
	<g>
		<g>
			<circle class="st11" cx="-262.8" cy="324.1" r="0.8"/>
		</g>
	</g>
	<g>
		<g>
			<circle class="st11" cx="-242.2" cy="324.8" r="0.8"/>
		</g>
	</g>
	<g>
		<g>
			<g>
				<rect x="-204.2" y="324.1" class="st11" width="16.6" height="1.5"/>
			</g>
		</g>
		<g>
			<g>
				<circle class="st11" cx="-206" cy="324.8" r="0.8"/>
			</g>
		</g>
	</g>
	<g>
		<g>
			<g>
				<rect x="-153.6" y="324.1" class="st11" width="22.4" height="1.5"/>
			</g>
		</g>
		<g>
			<g>
				<circle class="st11" cx="-155.5" cy="324.8" r="0.8"/>
			</g>
		</g>
	</g>
	<g>
		<g>
			<g>
				<rect x="-99.2" y="324.1" class="st11" width="9.5" height="1.5"/>
			</g>
		</g>
		<g>
			<g>
				<circle class="st11" cx="-101.5" cy="324.8" r="0.8"/>
			</g>
		</g>
	</g>
	<g>
		<g>
			<g>
				<rect x="-204.2" y="339.5" class="st11" width="16.6" height="1.5"/>
			</g>
		</g>
		<g>
			<g>
				<circle class="st11" cx="-206" cy="340.2" r="0.8"/>
			</g>
		</g>
	</g>
	<g>
		<g>
			<g>
				<rect x="-153.6" y="339.5" class="st11" width="22.4" height="1.5"/>
			</g>
		</g>
		<g>
			<g>
				<circle class="st11" cx="-155.5" cy="340.2" r="0.8"/>
			</g>
		</g>
	</g>
	<g>
		<g>
			<g>
				<rect x="-99.2" y="339.5" class="st11" width="9.5" height="1.5"/>
			</g>
		</g>
		<g>
			<g>
				<circle class="st11" cx="-101.5" cy="340.2" r="0.8"/>
			</g>
		</g>
	</g>
	<g>
		<g>
			<g>
				<rect x="-204.2" y="345.5" class="st11" width="16.6" height="1.5"/>
			</g>
		</g>
		<g>
			<g>
				<circle class="st11" cx="-206" cy="346.3" r="0.8"/>
			</g>
		</g>
	</g>
	<g>
		<g>
			<g>
				<rect x="-153.6" y="345.5" class="st11" width="22.4" height="1.5"/>
			</g>
		</g>
		<g>
			<g>
				<circle class="st11" cx="-155.5" cy="346.3" r="0.8"/>
			</g>
		</g>
	</g>
	<g>
		<g>
			<g>
				<rect x="-99.2" y="345.5" class="st11" width="9.5" height="1.5"/>
			</g>
		</g>
		<g>
			<g>
				<circle class="st11" cx="-101.5" cy="346.3" r="0.8"/>
			</g>
		</g>
	</g>
	<g>
		<g>
			<g>
				<rect x="-204.2" y="351.8" class="st11" width="16.6" height="1.5"/>
			</g>
		</g>
		<g>
			<g>
				<circle class="st11" cx="-206" cy="352.5" r="0.8"/>
			</g>
		</g>
	</g>
	<g>
		<g>
			<g>
				<rect x="-153.6" y="351.8" class="st11" width="22.4" height="1.5"/>
			</g>
		</g>
		<g>
			<g>
				<circle class="st11" cx="-155.5" cy="352.5" r="0.8"/>
			</g>
		</g>
	</g>
	<g>
		<g>
			<g>
				<rect x="-99.2" y="351.8" class="st11" width="9.5" height="1.5"/>
			</g>
		</g>
		<g>
			<g>
				<circle class="st11" cx="-101.5" cy="352.5" r="0.8"/>
			</g>
		</g>
	</g>
	<g>
		<g>
			<circle class="st11" cx="-240.8" cy="309.4" r="1.4"/>
		</g>
	</g>
	<g>
		<g>
			<circle class="st17" cx="-204.4" cy="277.7" r="1.4"/>
		</g>
	</g>
	<g>
		<g>
			<circle class="st0" cx="-247" cy="294" r="1.4"/>
		</g>
	</g>
	<g>
		<g>
			<circle class="st0" cx="-247" cy="298.4" r="1.4"/>
		</g>
	</g>
	<g>
		<g>
			<circle class="st11" cx="-242.2" cy="340.2" r="0.8"/>
		</g>
	</g>
	<g>
		<g>
			<circle class="st11" cx="-242.2" cy="346.3" r="0.8"/>
		</g>
	</g>
	<g>
		<g>
			<circle class="st11" cx="-242.2" cy="352.3" r="0.8"/>
		</g>
	</g>
	<g>
		<g>
			<circle class="st11" cx="-299.2" cy="332.1" r="0.8"/>
		</g>
	</g>
	<g>
		<g>
			<rect x="-297.1" y="343.2" class="st11" width="14" height="1.5"/>
		</g>
	</g>
	<g>
		<g>
			<rect x="-297.1" y="338.5" class="st12" width="18.2" height="1.5"/>
		</g>
	</g>
	<g>
		<g>
			<rect x="-261.2" y="338.5" class="st12" width="4.1" height="1.5"/>
		</g>
	</g>
	<g>
		<g>
			<rect x="-297.1" y="346.4" class="st11" width="20.1" height="1.5"/>
		</g>
	</g>
	<g>
		<g>
			<circle class="st12" cx="-299.2" cy="339.2" r="0.8"/>
		</g>
	</g>
	<g>
		<g>
			<circle class="st11" cx="-299.2" cy="343.8" r="0.8"/>
		</g>
	</g>
	<g>
		<g>
			<circle class="st11" cx="-262.8" cy="339.1" r="0.8"/>
		</g>
	</g>
	<g>
		<g>
			<circle class="st11" cx="-299.2" cy="347.1" r="0.8"/>
		</g>
	</g>
	<g>
		<g>
			<rect x="-297.1" y="358.1" class="st11" width="14" height="1.5"/>
		</g>
	</g>
	<g>
		<g>
			<rect x="-297.1" y="353.4" class="st16" width="18.2" height="1.5"/>
		</g>
	</g>
	<g>
		<g>
			<rect x="-261.2" y="353.4" class="st16" width="4.1" height="1.5"/>
		</g>
	</g>
	<g>
		<g>
			<rect x="-240.1" y="351.8" class="st16" width="14.8" height="1.5"/>
		</g>
	</g>
	<g>
		<g>
			<rect x="-240.1" y="345.7" class="st16" width="14.8" height="1.5"/>
		</g>
	</g>
	<g>
		<g>
			<rect x="-240.1" y="339.7" class="st12" width="14.8" height="1.5"/>
		</g>
	</g>
	<g>
		<g>
			<rect x="-240.1" y="324.1" class="st12" width="14.8" height="1.5"/>
		</g>
	</g>
	<g>
		<g>
			<rect x="-297.1" y="361.3" class="st11" width="20.1" height="1.5"/>
		</g>
	</g>
	<g>
		<g>
			<circle class="st16" cx="-299.2" cy="354.1" r="0.8"/>
		</g>
	</g>
	<g>
		<g>
			<circle class="st11" cx="-299.2" cy="358.7" r="0.8"/>
		</g>
	</g>
	<g>
		<g>
			<circle class="st11" cx="-262.8" cy="354" r="0.8"/>
		</g>
	</g>
	<g>
		<g>
			<circle class="st11" cx="-299.2" cy="362" r="0.8"/>
		</g>
	</g>
	<g>
		<g>
			<rect x="-297.1" y="313.4" class="st11" width="14" height="1.5"/>
		</g>
	</g>
	<g>
		<g>
			<rect x="-297.1" y="308.7" class="st16" width="18.2" height="1.5"/>
		</g>
	</g>
	<g>
		<g>
			<rect x="-261.2" y="308.7" class="st16" width="4.1" height="1.5"/>
		</g>
	</g>
	<g>
		<g>
			<rect x="-297.1" y="316.6" class="st11" width="20.1" height="1.5"/>
		</g>
	</g>
	<g>
		<g>
			<circle class="st16" cx="-299.2" cy="309.3" r="0.8"/>
		</g>
	</g>
	<g>
		<g>
			<circle class="st11" cx="-299.2" cy="314.1" r="0.8"/>
		</g>
	</g>
	<g>
		<g>
			<circle class="st11" cx="-262.8" cy="309.3" r="0.8"/>
		</g>
	</g>
	<g>
		<g>
			<path class="st18" d="M-59,286.4c0,0.4-0.3,0.8-0.8,0.8h-13.4c-0.4,0-0.8-0.3-0.8-0.8v-2.8c0-0.4,0.3-0.8,0.8-0.8h13.4
				c0.4,0,0.8,0.3,0.8,0.8V286.4z"/>
		</g>
	</g>
	<g>
		<g>
			<circle class="st11" cx="-299.2" cy="317.4" r="0.8"/>
		</g>
	</g>
	<g>
		<g>
			<rect x="-297.1" y="373.1" class="st11" width="14" height="1.5"/>
		</g>
	</g>
	<g>
		<g>
			<rect x="-297.1" y="368.4" class="st12" width="18.2" height="1.5"/>
		</g>
	</g>
	<g>
		<g>
			<rect x="-261.2" y="368.4" class="st12" width="4.1" height="1.5"/>
		</g>
	</g>
	<g>
		<g>
			<rect x="-297.1" y="376.3" class="st11" width="20.1" height="1.5"/>
		</g>
	</g>
	<g>
		<g>
			<circle class="st12" cx="-299.2" cy="369.1" r="0.8"/>
		</g>
	</g>
	<g>
		<g>
			<circle class="st11" cx="-299.2" cy="373.7" r="0.8"/>
		</g>
	</g>
	<g>
		<g>
			<circle class="st11" cx="-262.8" cy="369" r="0.8"/>
		</g>
	</g>
	<g>
		<g>
			<circle class="st11" cx="-299.2" cy="377" r="0.8"/>
		</g>
	</g>
	<g>
		<g>
			<rect x="-297.1" y="388.1" class="st11" width="14" height="1.5"/>
		</g>
	</g>
	<g>
		<g>
			<rect x="-297.1" y="383.4" class="st12" width="18.2" height="1.5"/>
		</g>
	</g>
	<g>
		<g>
			<rect x="-261.2" y="383.4" class="st12" width="4.1" height="1.5"/>
		</g>
	</g>
	<g>
		<g>
			<rect x="-297.1" y="391.2" class="st11" width="20.1" height="1.5"/>
		</g>
	</g>
	<g>
		<g>
			<circle class="st12" cx="-299.2" cy="384" r="0.8"/>
		</g>
	</g>
	<g>
		<g>
			<circle class="st11" cx="-299.2" cy="388.7" r="0.8"/>
		</g>
	</g>
	<g>
		<g>
			<circle class="st11" cx="-262.8" cy="383.9" r="0.8"/>
		</g>
	</g>
	<g>
		<g>
			<circle class="st11" cx="-299.2" cy="392" r="0.8"/>
		</g>
	</g>
	<g>
		<g>
			<g>
				<path class="st19" d="M-258.7,280.2h-40c-1,0-1.8-0.8-1.8-1.8v-2.2c0-1,0.8-1.8,1.8-1.8h40c1,0,1.8,0.8,1.8,1.8v2.2
					C-257,279.4-257.8,280.2-258.7,280.2z M-298.8,274.9c-0.7,0-1.4,0.6-1.4,1.4v2.2c0,0.7,0.6,1.4,1.4,1.4h40
					c0.7,0,1.4-0.6,1.4-1.4v-2.2c0-0.7-0.6-1.4-1.4-1.4H-298.8z"/>
			</g>
		</g>
	</g>
	<g>
		<g>
			<rect x="-255.3" y="269.6" class="st11" width="0.8" height="124.8"/>
		</g>
	</g>
	<g>
		<g>
			<circle class="st11" cx="-62.4" cy="294.8" r="1.9"/>
		</g>
	</g>
	<g>
		<g>
			<rect x="-70" y="284.3" class="st19" width="9.1" height="1.5"/>
		</g>
	</g>
	<g>
		<g>
			<circle class="st19" cx="-72.1" cy="285.1" r="0.8"/>
		</g>
	</g>
	<g>
		<g>
			<path class="st20" d="M-199.7,276.6c-0.4,0-0.7,0.2-0.7,0.5v1.8c0,0.2,0.3,0.5,0.7,0.5h4.7v-2.8H-199.7L-199.7,276.6z"/>
		</g>
	</g>
	<g>
		<g>
			<path class="st21" d="M-187.2,278.9v-1.8c0-0.2-0.3-0.5-0.7-0.5h-7.1v2.8h7.1C-187.5,279.4-187.2,279.2-187.2,278.9z"/>
		</g>
	</g>
	<g>
		<g>
			<rect x="-249.4" y="275.8" class="st11" width="40.5" height="3.4"/>
		</g>
	</g>
	<g>
		<path class="st22" d="M-55.5,395.6h-245.4c-1.4,0-2.5-1.1-2.5-2.5v-130c0-1.4,1.1-2.5,2.5-2.5h245.4c1.4,0,2.5,1.1,2.5,2.5v130
			C-53,394.5-54.1,395.6-55.5,395.6z M-300.9,261.6c-0.8,0-1.5,0.7-1.5,1.5v130c0,0.8,0.7,1.5,1.5,1.5h245.4c0.8,0,1.5-0.7,1.5-1.5
			v-130c0-0.8-0.7-1.5-1.5-1.5H-300.9z"/>
	</g>
</g>
</svg>
