<?xml version="1.0" encoding="utf-8"?>
<!-- Generator: Adobe Illustrator 19.1.0, SVG Export Plug-In . SVG Version: 6.00 Build 0)  -->
<svg version="1.1" id="Layer_1" xmlns="http://www.w3.org/2000/svg" xmlns:xlink="http://www.w3.org/1999/xlink" x="0px" y="0px"
	 viewBox="0 0 339.1 249.4" style="enable-background:new 0 0 339.1 249.4;" xml:space="preserve">
<style type="text/css">
	.st0{fill:#E9ECED;}
	.st1{fill:#C6D0D1;}
	.st2{fill:#24B34B;}
	.st3{fill:#747474;}
	.st4{fill:#989798;}
	.st5{fill:#F5F6F7;}
	.st6{fill:#38A569;}
	.st7{fill:#E8E8E8;}
	.st8{fill:#DB4443;}
	.st9{fill:#F9F9F8;}
	.st10{fill:#D2D6D8;}
	.st11{fill:#86BE98;}
	.st12{fill:#A1A1A0;}
	.st13{fill:#89BCBC;}
	.st14{fill:#F1EFEE;}
	.st15{fill:#E46769;}
	.st16{fill:#838283;}
	.st17{fill:#FFFFFF;}
	.st18{fill:#A7AEAE;}
	.st19{fill:#EFEEEE;}
	.st20{fill:#5E5F5F;}
	.st21{fill:#5CBA51;}
	.st22{fill:#E0E1E0;}
</style>
<g id="ServerRackLeft">
	<g>
		<g>
			<g>
				<path class="st0" d="M97.7,233.1H1.4c-0.7,0-1.4,0.6-1.4,1.4v12.2h99.1v-12.2C99.1,233.7,98.5,233.1,97.7,233.1z"/>
			</g>
			<g>
				<path class="st1" d="M0,248c0,0.7,0.6,1.4,1.4,1.4h96.4c0.7,0,1.4-0.6,1.4-1.4v-1.4H0V248z"/>
			</g>
		</g>
		<g>
			<circle class="st2" cx="87.8" cy="241.2" r="2.4"/>
		</g>
		<g>
			<g>
				<circle class="st3" cx="52.5" cy="239.4" r="0.9"/>
			</g>
			<g>
				<circle class="st3" cx="46.5" cy="239.4" r="0.9"/>
			</g>
			<g>
				<circle class="st3" cx="40.6" cy="239.4" r="0.9"/>
			</g>
			<g>
				<circle class="st3" cx="34.6" cy="239.4" r="0.9"/>
			</g>
			<g>
				<circle class="st3" cx="28.6" cy="239.4" r="0.9"/>
			</g>
			<g>
				<circle class="st3" cx="22.7" cy="239.4" r="0.9"/>
			</g>
			<g>
				<circle class="st3" cx="16.7" cy="239.4" r="0.9"/>
			</g>
			<g>
				<circle class="st3" cx="49.5" cy="243.1" r="0.9"/>
			</g>
			<g>
				<circle class="st3" cx="43.5" cy="243.1" r="0.9"/>
			</g>
			<g>
				<circle class="st3" cx="37.6" cy="243.1" r="0.9"/>
			</g>
			<g>
				<circle class="st3" cx="31.6" cy="243.1" r="0.9"/>
			</g>
			<g>
				<circle class="st3" cx="25.7" cy="243.1" r="0.9"/>
			</g>
			<g>
				<circle class="st3" cx="19.7" cy="243.1" r="0.9"/>
			</g>
			<g>
				<circle class="st3" cx="10.8" cy="239.4" r="0.9"/>
			</g>
			<g>
				<circle class="st3" cx="13.7" cy="243.1" r="0.9"/>
			</g>
		</g>
	</g>
	<g>
		<g>
			<g>
				<path class="st0" d="M97.7,216.2H1.4c-0.7,0-1.4,0.6-1.4,1.4v12.2h99.1v-12.2C99.1,216.8,98.5,216.2,97.7,216.2z"/>
			</g>
			<g>
				<path class="st1" d="M0,231.1c0,0.7,0.6,1.4,1.4,1.4h96.4c0.7,0,1.4-0.6,1.4-1.4v-1.4H0V231.1z"/>
			</g>
		</g>
		<g>
			<circle class="st2" cx="87.8" cy="224.3" r="2.4"/>
		</g>
		<g>
			<g>
				<circle class="st3" cx="52.5" cy="222.4" r="0.9"/>
			</g>
			<g>
				<circle class="st3" cx="46.5" cy="222.4" r="0.9"/>
			</g>
			<g>
				<circle class="st3" cx="40.6" cy="222.4" r="0.9"/>
			</g>
			<g>
				<circle class="st3" cx="34.6" cy="222.4" r="0.9"/>
			</g>
			<g>
				<circle class="st3" cx="28.6" cy="222.4" r="0.9"/>
			</g>
			<g>
				<circle class="st3" cx="22.7" cy="222.4" r="0.9"/>
			</g>
			<g>
				<circle class="st3" cx="16.7" cy="222.4" r="0.9"/>
			</g>
			<g>
				<circle class="st3" cx="49.5" cy="226.2" r="0.9"/>
			</g>
			<g>
				<circle class="st3" cx="43.5" cy="226.2" r="0.9"/>
			</g>
			<g>
				<circle class="st3" cx="37.6" cy="226.2" r="0.9"/>
			</g>
			<g>
				<circle class="st3" cx="31.6" cy="226.2" r="0.9"/>
			</g>
			<g>
				<circle class="st3" cx="25.7" cy="226.2" r="0.9"/>
			</g>
			<g>
				<circle class="st3" cx="19.7" cy="226.2" r="0.9"/>
			</g>
			<g>
				<circle class="st3" cx="10.8" cy="222.4" r="0.9"/>
			</g>
			<g>
				<circle class="st3" cx="13.7" cy="226.2" r="0.9"/>
			</g>
		</g>
	</g>
	<g>
		<g>
			<g>
				<path class="st0" d="M97.7,199.2H1.4c-0.7,0-1.4,0.6-1.4,1.4v12.2h99.1v-12.2C99.1,199.8,98.5,199.2,97.7,199.2z"/>
			</g>
			<g>
				<path class="st1" d="M0,214.1c0,0.7,0.6,1.4,1.4,1.4h96.4c0.7,0,1.4-0.6,1.4-1.4v-1.4H0V214.1z"/>
			</g>
		</g>
		<g>
			<circle class="st2" cx="87.8" cy="207.4" r="2.4"/>
		</g>
		<g>
			<g>
				<circle class="st3" cx="52.5" cy="205.5" r="0.9"/>
			</g>
			<g>
				<circle class="st3" cx="46.5" cy="205.5" r="0.9"/>
			</g>
			<g>
				<circle class="st3" cx="40.6" cy="205.5" r="0.9"/>
			</g>
			<g>
				<circle class="st3" cx="34.6" cy="205.5" r="0.9"/>
			</g>
			<g>
				<circle class="st3" cx="28.6" cy="205.5" r="0.9"/>
			</g>
			<g>
				<circle class="st3" cx="22.7" cy="205.5" r="0.9"/>
			</g>
			<g>
				<circle class="st3" cx="16.7" cy="205.5" r="0.9"/>
			</g>
			<g>
				<circle class="st3" cx="49.5" cy="209.2" r="0.9"/>
			</g>
			<g>
				<circle class="st3" cx="43.5" cy="209.2" r="0.9"/>
			</g>
			<g>
				<circle class="st3" cx="37.6" cy="209.2" r="0.9"/>
			</g>
			<g>
				<circle class="st3" cx="31.6" cy="209.2" r="0.9"/>
			</g>
			<g>
				<circle class="st3" cx="25.7" cy="209.2" r="0.9"/>
			</g>
			<g>
				<circle class="st3" cx="19.7" cy="209.2" r="0.9"/>
			</g>
			<g>
				<circle class="st3" cx="10.8" cy="205.5" r="0.9"/>
			</g>
			<g>
				<circle class="st3" cx="13.7" cy="209.2" r="0.9"/>
			</g>
		</g>
	</g>
</g>
<g id="ServerRackMiddle">
	<g>
		<g>
			<g>
				<path class="st0" d="M217.7,233.1h-96.4c-0.7,0-1.4,0.6-1.4,1.4v12.2h99.1v-12.2C219.1,233.7,218.5,233.1,217.7,233.1z"/>
			</g>
			<g>
				<path class="st1" d="M120,248c0,0.7,0.6,1.4,1.4,1.4h96.4c0.7,0,1.4-0.6,1.4-1.4v-1.4H120V248z"/>
			</g>
		</g>
		<g>
			<circle class="st2" cx="207.8" cy="241.2" r="2.4"/>
		</g>
		<g>
			<g>
				<circle class="st3" cx="172.5" cy="239.4" r="0.9"/>
			</g>
			<g>
				<circle class="st3" cx="166.5" cy="239.4" r="0.9"/>
			</g>
			<g>
				<circle class="st3" cx="160.6" cy="239.4" r="0.9"/>
			</g>
			<g>
				<circle class="st3" cx="154.6" cy="239.4" r="0.9"/>
			</g>
			<g>
				<circle class="st3" cx="148.6" cy="239.4" r="0.9"/>
			</g>
			<g>
				<circle class="st3" cx="142.7" cy="239.4" r="0.9"/>
			</g>
			<g>
				<circle class="st3" cx="136.7" cy="239.4" r="0.9"/>
			</g>
			<g>
				<circle class="st3" cx="169.5" cy="243.1" r="0.9"/>
			</g>
			<g>
				<circle class="st3" cx="163.5" cy="243.1" r="0.9"/>
			</g>
			<g>
				<circle class="st3" cx="157.6" cy="243.1" r="0.9"/>
			</g>
			<g>
				<circle class="st3" cx="151.6" cy="243.1" r="0.9"/>
			</g>
			<g>
				<circle class="st3" cx="145.7" cy="243.1" r="0.9"/>
			</g>
			<g>
				<circle class="st3" cx="139.7" cy="243.1" r="0.9"/>
			</g>
			<g>
				<circle class="st3" cx="130.8" cy="239.4" r="0.9"/>
			</g>
			<g>
				<circle class="st3" cx="133.7" cy="243.1" r="0.9"/>
			</g>
		</g>
	</g>
	<g>
		<g>
			<g>
				<path class="st0" d="M217.7,216.2h-96.4c-0.7,0-1.4,0.6-1.4,1.4v12.2h99.1v-12.2C219.1,216.8,218.5,216.2,217.7,216.2z"/>
			</g>
			<g>
				<path class="st1" d="M120,231.1c0,0.7,0.6,1.4,1.4,1.4h96.4c0.7,0,1.4-0.6,1.4-1.4v-1.4H120V231.1z"/>
			</g>
		</g>
		<g>
			<circle class="st2" cx="207.8" cy="224.3" r="2.4"/>
		</g>
		<g>
			<g>
				<circle class="st3" cx="172.5" cy="222.4" r="0.9"/>
			</g>
			<g>
				<circle class="st3" cx="166.5" cy="222.4" r="0.9"/>
			</g>
			<g>
				<circle class="st3" cx="160.6" cy="222.4" r="0.9"/>
			</g>
			<g>
				<circle class="st3" cx="154.6" cy="222.4" r="0.9"/>
			</g>
			<g>
				<circle class="st3" cx="148.6" cy="222.4" r="0.9"/>
			</g>
			<g>
				<circle class="st3" cx="142.7" cy="222.4" r="0.9"/>
			</g>
			<g>
				<circle class="st3" cx="136.7" cy="222.4" r="0.9"/>
			</g>
			<g>
				<circle class="st3" cx="169.5" cy="226.2" r="0.9"/>
			</g>
			<g>
				<circle class="st3" cx="163.5" cy="226.2" r="0.9"/>
			</g>
			<g>
				<circle class="st3" cx="157.6" cy="226.2" r="0.9"/>
			</g>
			<g>
				<circle class="st3" cx="151.6" cy="226.2" r="0.9"/>
			</g>
			<g>
				<circle class="st3" cx="145.7" cy="226.2" r="0.9"/>
			</g>
			<g>
				<circle class="st3" cx="139.7" cy="226.2" r="0.9"/>
			</g>
			<g>
				<circle class="st3" cx="130.8" cy="222.4" r="0.9"/>
			</g>
			<g>
				<circle class="st3" cx="133.7" cy="226.2" r="0.9"/>
			</g>
		</g>
	</g>
	<g>
		<g>
			<g>
				<path class="st0" d="M217.7,199.2h-96.4c-0.7,0-1.4,0.6-1.4,1.4v12.2h99.1v-12.2C219.1,199.8,218.5,199.2,217.7,199.2z"/>
			</g>
			<g>
				<path class="st1" d="M120,214.1c0,0.7,0.6,1.4,1.4,1.4h96.4c0.7,0,1.4-0.6,1.4-1.4v-1.4H120V214.1z"/>
			</g>
		</g>
		<g>
			<circle class="st2" cx="207.8" cy="207.4" r="2.4"/>
		</g>
		<g>
			<g>
				<circle class="st3" cx="172.5" cy="205.5" r="0.9"/>
			</g>
			<g>
				<circle class="st3" cx="166.5" cy="205.5" r="0.9"/>
			</g>
			<g>
				<circle class="st3" cx="160.6" cy="205.5" r="0.9"/>
			</g>
			<g>
				<circle class="st3" cx="154.6" cy="205.5" r="0.9"/>
			</g>
			<g>
				<circle class="st3" cx="148.6" cy="205.5" r="0.9"/>
			</g>
			<g>
				<circle class="st3" cx="142.7" cy="205.5" r="0.9"/>
			</g>
			<g>
				<circle class="st3" cx="136.7" cy="205.5" r="0.9"/>
			</g>
			<g>
				<circle class="st3" cx="169.5" cy="209.2" r="0.9"/>
			</g>
			<g>
				<circle class="st3" cx="163.5" cy="209.2" r="0.9"/>
			</g>
			<g>
				<circle class="st3" cx="157.6" cy="209.2" r="0.9"/>
			</g>
			<g>
				<circle class="st3" cx="151.6" cy="209.2" r="0.9"/>
			</g>
			<g>
				<circle class="st3" cx="145.7" cy="209.2" r="0.9"/>
			</g>
			<g>
				<circle class="st3" cx="139.7" cy="209.2" r="0.9"/>
			</g>
			<g>
				<circle class="st3" cx="130.8" cy="205.5" r="0.9"/>
			</g>
			<g>
				<circle class="st3" cx="133.7" cy="209.2" r="0.9"/>
			</g>
		</g>
	</g>
</g>
<g id="ServerRackRight">
	<g>
		<g>
			<g>
				<path class="st0" d="M337.7,233.1h-96.4c-0.7,0-1.4,0.6-1.4,1.4v12.2h99.1v-12.2C339.1,233.7,338.5,233.1,337.7,233.1z"/>
			</g>
			<g>
				<path class="st1" d="M240,248c0,0.7,0.6,1.4,1.4,1.4h96.4c0.7,0,1.4-0.6,1.4-1.4v-1.4H240V248z"/>
			</g>
		</g>
		<g>
			<circle class="st2" cx="327.8" cy="241.2" r="2.4"/>
		</g>
		<g>
			<g>
				<circle class="st3" cx="292.5" cy="239.4" r="0.9"/>
			</g>
			<g>
				<circle class="st3" cx="286.5" cy="239.4" r="0.9"/>
			</g>
			<g>
				<circle class="st3" cx="280.6" cy="239.4" r="0.9"/>
			</g>
			<g>
				<circle class="st3" cx="274.6" cy="239.4" r="0.9"/>
			</g>
			<g>
				<circle class="st3" cx="268.6" cy="239.4" r="0.9"/>
			</g>
			<g>
				<circle class="st3" cx="262.7" cy="239.4" r="0.9"/>
			</g>
			<g>
				<circle class="st3" cx="256.7" cy="239.4" r="0.9"/>
			</g>
			<g>
				<circle class="st3" cx="289.5" cy="243.1" r="0.9"/>
			</g>
			<g>
				<circle class="st3" cx="283.5" cy="243.1" r="0.9"/>
			</g>
			<g>
				<circle class="st3" cx="277.6" cy="243.1" r="0.9"/>
			</g>
			<g>
				<circle class="st3" cx="271.6" cy="243.1" r="0.9"/>
			</g>
			<g>
				<circle class="st3" cx="265.7" cy="243.1" r="0.9"/>
			</g>
			<g>
				<circle class="st3" cx="259.7" cy="243.1" r="0.9"/>
			</g>
			<g>
				<circle class="st3" cx="250.8" cy="239.4" r="0.9"/>
			</g>
			<g>
				<circle class="st3" cx="253.7" cy="243.1" r="0.9"/>
			</g>
		</g>
	</g>
	<g>
		<g>
			<g>
				<path class="st0" d="M337.7,216.2h-96.4c-0.7,0-1.4,0.6-1.4,1.4v12.2h99.1v-12.2C339.1,216.8,338.5,216.2,337.7,216.2z"/>
			</g>
			<g>
				<path class="st1" d="M240,231.1c0,0.7,0.6,1.4,1.4,1.4h96.4c0.7,0,1.4-0.6,1.4-1.4v-1.4H240V231.1z"/>
			</g>
		</g>
		<g>
			<circle class="st2" cx="327.8" cy="224.3" r="2.4"/>
		</g>
		<g>
			<g>
				<circle class="st3" cx="292.5" cy="222.4" r="0.9"/>
			</g>
			<g>
				<circle class="st3" cx="286.5" cy="222.4" r="0.9"/>
			</g>
			<g>
				<circle class="st3" cx="280.6" cy="222.4" r="0.9"/>
			</g>
			<g>
				<circle class="st3" cx="274.6" cy="222.4" r="0.9"/>
			</g>
			<g>
				<circle class="st3" cx="268.6" cy="222.4" r="0.9"/>
			</g>
			<g>
				<circle class="st3" cx="262.7" cy="222.4" r="0.9"/>
			</g>
			<g>
				<circle class="st3" cx="256.7" cy="222.4" r="0.9"/>
			</g>
			<g>
				<circle class="st3" cx="289.5" cy="226.2" r="0.9"/>
			</g>
			<g>
				<circle class="st3" cx="283.5" cy="226.2" r="0.9"/>
			</g>
			<g>
				<circle class="st3" cx="277.6" cy="226.2" r="0.9"/>
			</g>
			<g>
				<circle class="st3" cx="271.6" cy="226.2" r="0.9"/>
			</g>
			<g>
				<circle class="st3" cx="265.7" cy="226.2" r="0.9"/>
			</g>
			<g>
				<circle class="st3" cx="259.7" cy="226.2" r="0.9"/>
			</g>
			<g>
				<circle class="st3" cx="250.8" cy="222.4" r="0.9"/>
			</g>
			<g>
				<circle class="st3" cx="253.7" cy="226.2" r="0.9"/>
			</g>
		</g>
	</g>
	<g>
		<g>
			<g>
				<path class="st0" d="M337.7,199.2h-96.4c-0.7,0-1.4,0.6-1.4,1.4v12.2h99.1v-12.2C339.1,199.8,338.5,199.2,337.7,199.2z"/>
			</g>
			<g>
				<path class="st1" d="M240,214.1c0,0.7,0.6,1.4,1.4,1.4h96.4c0.7,0,1.4-0.6,1.4-1.4v-1.4H240V214.1z"/>
			</g>
		</g>
		<g>
			<circle class="st2" cx="327.8" cy="207.4" r="2.4"/>
		</g>
		<g>
			<g>
				<circle class="st3" cx="292.5" cy="205.5" r="0.9"/>
			</g>
			<g>
				<circle class="st3" cx="286.5" cy="205.5" r="0.9"/>
			</g>
			<g>
				<circle class="st3" cx="280.6" cy="205.5" r="0.9"/>
			</g>
			<g>
				<circle class="st3" cx="274.6" cy="205.5" r="0.9"/>
			</g>
			<g>
				<circle class="st3" cx="268.6" cy="205.5" r="0.9"/>
			</g>
			<g>
				<circle class="st3" cx="262.7" cy="205.5" r="0.9"/>
			</g>
			<g>
				<circle class="st3" cx="256.7" cy="205.5" r="0.9"/>
			</g>
			<g>
				<circle class="st3" cx="289.5" cy="209.2" r="0.9"/>
			</g>
			<g>
				<circle class="st3" cx="283.5" cy="209.2" r="0.9"/>
			</g>
			<g>
				<circle class="st3" cx="277.6" cy="209.2" r="0.9"/>
			</g>
			<g>
				<circle class="st3" cx="271.6" cy="209.2" r="0.9"/>
			</g>
			<g>
				<circle class="st3" cx="265.7" cy="209.2" r="0.9"/>
			</g>
			<g>
				<circle class="st3" cx="259.7" cy="209.2" r="0.9"/>
			</g>
			<g>
				<circle class="st3" cx="250.8" cy="205.5" r="0.9"/>
			</g>
			<g>
				<circle class="st3" cx="253.7" cy="209.2" r="0.9"/>
			</g>
		</g>
	</g>
</g>
<g id="DottedLines">
	<g>
		<g>
			<rect x="165" y="151.2" class="st4" width="1" height="1"/>
		</g>
		<g>
			<path class="st4" d="M166,179.3h-1v-1.9h1V179.3z M166,175.4h-1v-1.9h1V175.4z M166,171.6h-1v-1.9h1V171.6z M166,167.7h-1v-1.9h1
				V167.7z M166,163.8h-1v-1.9h1V163.8z M166,160h-1V158h1V160z M166,156.1h-1v-1.9h1V156.1z"/>
		</g>
		<g>
			<rect x="165" y="181.2" class="st4" width="1" height="1"/>
		</g>
	</g>
	<g>
		<g>
			<path class="st4" d="M177.3,152.2c0-0.6,0-1,0-1l1,0.1c0,0,0,0.4,0,1L177.3,152.2z"/>
		</g>
		<g>
			<path class="st4" d="M288.2,177.5c-0.1-0.7-0.1-1.3-0.2-1.9l1-0.2c0.1,0.6,0.2,1.3,0.3,2L288.2,177.5z M287.6,173.7
				c-0.2-0.6-0.4-1.2-0.6-1.8l0.9-0.4c0.2,0.6,0.5,1.3,0.6,1.9L287.6,173.7z M286.1,170.1c-0.3-0.6-0.7-1.1-1.1-1.5l0.8-0.6
				c0.4,0.5,0.8,1.1,1.2,1.7L286.1,170.1z M283.7,167.3c-0.5-0.4-1-0.7-1.6-1l0.4-0.9c0.6,0.3,1.2,0.7,1.8,1.1L283.7,167.3z
				 M280.4,165.7c-0.6-0.2-1.2-0.3-1.9-0.3l0.1-1c0.7,0,1.4,0.1,2.1,0.3L280.4,165.7z M276.5,165.4h-2v-1h2V165.4z M272.6,165.4h-2
				v-1h2V165.4z M268.6,165.4h-2v-1h2V165.4z M264.6,165.4h-2v-1h2V165.4z M260.7,165.4h-2v-1h2V165.4z M256.7,165.4h-2v-1h2V165.4z
				 M252.7,165.4h-2v-1h2V165.4z M248.8,165.4h-2v-1h2V165.4z M244.8,165.4h-2v-1h2V165.4z M240.9,165.4h-2v-1h2V165.4z
				 M236.9,165.4h-2v-1h2V165.4z M233,165.4h-2v-1h2V165.4z M229,165.4h-2v-1h2V165.4z M225,165.4h-2v-1h2V165.4z M221.1,165.4h-2
				v-1h2V165.4z M217.1,165.4h-2v-1h2V165.4z M213.2,165.4h-2v-1h2V165.4z M209.2,165.4h-2v-1h2V165.4z M205.2,165.4h-2v-1h2V165.4z
				 M201.3,165.4h-2v-1h2V165.4z M197.3,165.4h-2v-1h2V165.4z M193.3,165.4h-2v-1h2V165.4z M189.4,165.4h-1.5c-0.2,0-0.3,0-0.5,0
				l0-1c0.1,0,0.3,0,0.4,0h1.5V165.4z M185.3,165.1c-0.7-0.2-1.4-0.4-2-0.7l0.4-0.9c0.5,0.3,1.1,0.5,1.8,0.6L185.3,165.1z
				 M181.6,163.3c-0.5-0.4-1-0.9-1.4-1.5l0.8-0.6c0.4,0.5,0.8,1,1.3,1.4L181.6,163.3z M179.1,160c-0.3-0.6-0.6-1.2-0.8-1.9l0.9-0.3
				c0.2,0.6,0.5,1.2,0.7,1.8L179.1,160z M177.8,156.2c-0.1-0.6-0.2-1.3-0.3-2l1-0.1c0.1,0.7,0.2,1.3,0.3,1.9L177.8,156.2z"/>
		</g>
		<g>
			<path class="st4" d="M289.3,180.2h-1c0-0.3,0-0.7,0-1l1,0C289.3,179.5,289.3,179.9,289.3,180.2z"/>
		</g>
	</g>
	<g>
		<g>
			<path class="st4" d="M153.3,152.2l-1,0c0-0.6,0-0.9,0-1l1-0.1C153.3,151.1,153.3,151.5,153.3,152.2z"/>
		</g>
		<g>
			<path class="st4" d="M48.4,177.4l-1-0.1c0.1-0.7,0.1-1.4,0.3-2l1,0.2C48.6,176.1,48.5,176.7,48.4,177.4z M49.1,173.6l-1-0.3
				c0.2-0.7,0.4-1.3,0.7-2l0.9,0.4C49.5,172.3,49.3,172.9,49.1,173.6z M50.6,170l-0.9-0.5c0.4-0.6,0.8-1.2,1.2-1.7l0.7,0.7
				C51.3,168.9,50.9,169.4,50.6,170z M53.1,167.2l-0.6-0.8c0.6-0.4,1.2-0.8,1.8-1.1l0.4,0.9C54.2,166.5,53.6,166.8,53.1,167.2z
				 M56.6,165.6l-0.2-1c0.9-0.2,1.6-0.2,2.1-0.3l0,1C58,165.4,57.3,165.4,56.6,165.6z M142.8,165.4H141v-1l2,0l0,1L142.8,165.4z
				 M138.9,165.4h-2v-1h2V165.4z M134.9,165.4h-2v-1h2V165.4z M130.9,165.4h-2v-1h2V165.4z M126.9,165.4h-2v-1h2V165.4z
				 M122.8,165.4h-2v-1h2V165.4z M118.8,165.4h-2v-1h2V165.4z M114.8,165.4h-2v-1h2V165.4z M110.8,165.4h-2v-1h2V165.4z
				 M106.8,165.4h-2v-1h2V165.4z M102.7,165.4h-2v-1h2V165.4z M98.7,165.4h-2v-1h2V165.4z M94.7,165.4h-2v-1h2V165.4z M90.7,165.4
				h-2v-1h2V165.4z M86.6,165.4h-2v-1h2V165.4z M82.6,165.4h-2v-1h2V165.4z M78.6,165.4h-2v-1h2V165.4z M74.6,165.4h-2v-1h2V165.4z
				 M70.5,165.4h-2v-1h2V165.4z M66.5,165.4h-2v-1h2V165.4z M62.5,165.4h-2v-1h2V165.4z M145.1,165.2l-0.2-1
				c0.6-0.1,1.2-0.3,1.8-0.6l0.4,0.9C146.5,164.8,145.8,165,145.1,165.2z M148.9,163.4l-0.6-0.8c0.5-0.4,0.9-0.8,1.3-1.3l0.8,0.6
				C149.9,162.5,149.4,163,148.9,163.4z M151.5,160.1l-0.9-0.5c0.3-0.5,0.5-1.1,0.7-1.8l0.9,0.3
				C152.1,158.9,151.8,159.5,151.5,160.1z M152.9,156.2l-1-0.2c0.1-0.6,0.2-1.3,0.3-1.9l1,0.1C153.1,154.9,153,155.6,152.9,156.2z"
				/>
		</g>
		<g>
			<path class="st4" d="M48.3,180.2h-1c0-0.3,0-0.7,0-1l1,0C48.3,179.6,48.3,179.9,48.3,180.2z"/>
		</g>
	</g>
</g>
<g id="TravisCI">
	<g>
		<g>
			<g>
				<path class="st5" d="M281.2,30.6H97.1v21.5h184.1c0.9,0,1.5-0.7,1.5-1.5V32.2C282.8,31.3,282,30.6,281.2,30.6z"/>
			</g>
		</g>
	</g>
	<g>
		<g>
			<path class="st6" d="M92.7,30.6c-0.9,0-1.5,0.7-1.5,1.5v18.4c0,0.9,0.7,1.5,1.5,1.5H97V30.5L92.7,30.6L92.7,30.6z"/>
		</g>
	</g>
	<g>
		<g>
			<rect x="38.6" y="30.8" class="st6" width="1" height="14"/>
		</g>
	</g>
	<g>
		<g>
			<rect x="38.6" y="1" class="st7" width="248.3" height="8.2"/>
		</g>
	</g>
	<g>
		<g>
			<rect x="38.6" y="45.7" class="st8" width="1" height="14"/>
		</g>
	</g>
	<g>
		<g>
			<rect x="38.6" y="90.5" class="st8" width="1" height="14"/>
		</g>
	</g>
	<g>
		<g>
			<rect x="38.6" y="60.6" class="st6" width="1" height="14"/>
		</g>
	</g>
	<g>
		<g>
			<rect x="38.6" y="75.7" class="st6" width="1" height="14"/>
		</g>
	</g>
	<g>
		<g>
			<rect x="38.6" y="105.4" class="st6" width="1" height="14"/>
		</g>
	</g>
	<g>
		<g>
			<path class="st9" d="M282.9,65.4c0,0.9-0.7,1.5-1.5,1.5H92.7c-0.9,0-1.5-0.7-1.5-1.5v-2.2c0-0.9,0.7-1.5,1.5-1.5h188.7
				c0.9,0,1.5,0.7,1.5,1.5V65.4L282.9,65.4z"/>
		</g>
	</g>
	<g>
		<g>
			<path class="st9" d="M282.9,80.7c0,0.9-0.7,1.5-1.5,1.5H92.7c-0.9,0-1.5-0.7-1.5-1.5v-2.2c0-0.9,0.7-1.5,1.5-1.5h188.7
				c0.9,0,1.5,0.7,1.5,1.5V80.7L282.9,80.7z"/>
		</g>
	</g>
	<g>
		<g>
			<path class="st9" d="M282.9,87c0,0.9-0.7,1.5-1.5,1.5H92.7c-0.9,0-1.5-0.7-1.5-1.5v-2.2c0-0.9,0.7-1.5,1.5-1.5h188.7
				c0.9,0,1.5,0.7,1.5,1.5V87L282.9,87z"/>
		</g>
	</g>
	<g>
		<g>
			<path class="st9" d="M282.9,93c0,0.9-0.7,1.5-1.5,1.5H92.7c-0.9,0-1.5-0.7-1.5-1.5v-2.2c0-0.9,0.7-1.5,1.5-1.5h188.7
				c0.9,0,1.5,0.7,1.5,1.5V93L282.9,93z"/>
		</g>
	</g>
	<g>
		<g>
			<rect x="38.6" y="120.4" class="st6" width="1" height="14"/>
		</g>
	</g>
	<g>
		<g>
			<rect x="43.9" y="37.8" class="st10" width="14" height="1.5"/>
		</g>
	</g>
	<g>
		<g>
			<rect x="42.1" y="16" class="st10" width="21.3" height="1.5"/>
		</g>
	</g>
	<g>
		<g>
			<rect x="43.9" y="33.1" class="st11" width="18.2" height="1.5"/>
		</g>
	</g>
	<g>
		<g>
			<rect x="59.2" y="4.5" class="st12" width="4.1" height="1.5"/>
		</g>
	</g>
	<g>
		<g>
			<rect x="41" y="3.8" class="st12" width="14.9" height="2.8"/>
		</g>
	</g>
	<g>
		<g>
			<rect x="76.6" y="4.5" class="st12" width="4.1" height="1.5"/>
		</g>
	</g>
	<g>
		<g>
			<rect x="66.9" y="4.5" class="st12" width="6.1" height="1.5"/>
		</g>
	</g>
	<g>
		<g>
			<rect x="79.8" y="33.1" class="st11" width="4.1" height="1.5"/>
		</g>
	</g>
	<g>
		<g>
			<rect x="43.9" y="41" class="st10" width="20.1" height="1.5"/>
		</g>
	</g>
	<g>
		<g>
			<rect x="98.8" y="32.7" class="st10" width="40.4" height="1.5"/>
		</g>
	</g>
	<g>
		<g>
			<rect x="241.9" y="36.7" class="st10" width="16.4" height="1.5"/>
		</g>
	</g>
	<g>
		<g>
			<rect x="241.9" y="33.3" class="st11" width="11.9" height="1.5"/>
		</g>
	</g>
	<g>
		<g>
			<rect x="241.9" y="43.7" class="st10" width="19.2" height="1.5"/>
		</g>
	</g>
	<g>
		<g>
			<rect x="241.9" y="47.5" class="st10" width="8.5" height="1.5"/>
		</g>
	</g>
	<g>
		<g>
			<rect x="241.9" y="40.1" class="st10" width="26.4" height="1.5"/>
		</g>
	</g>
	<g>
		<g>
			<rect x="91.2" y="25" class="st13" width="6.6" height="1.5"/>
		</g>
	</g>
	<g>
		<g>
			<rect x="102" y="25" class="st10" width="8.1" height="1.5"/>
		</g>
	</g>
	<g>
		<g>
			<rect x="114.2" y="25" class="st10" width="11.1" height="1.5"/>
		</g>
	</g>
	<g>
		<g>
			<rect x="129.5" y="25" class="st10" width="11.4" height="1.5"/>
		</g>
	</g>
	<g>
		<g>
			<rect x="91.2" y="28" class="st13" width="6.6" height="0.3"/>
		</g>
	</g>
	<g>
		<g>
			<rect x="97.6" y="28" class="st14" width="189.4" height="0.3"/>
		</g>
	</g>
	<g>
		<g>
			<rect x="41" y="24.9" class="st13" width="14.7" height="1.5"/>
		</g>
	</g>
	<g>
		<g>
			<rect x="41" y="27.8" class="st13" width="6.6" height="0.3"/>
		</g>
	</g>
	<g>
		<g>
			<rect x="47.4" y="27.8" class="st14" width="36.3" height="0.3"/>
		</g>
	</g>
	<g>
		<g>
			<rect x="103" y="47.9" class="st10" width="40.4" height="1.5"/>
		</g>
	</g>
	<g>
		<g>
			<circle class="st11" cx="41.8" cy="33.8" r="0.8"/>
		</g>
	</g>
	<g>
		<g>
			<circle class="st10" cx="41.8" cy="38.5" r="0.8"/>
		</g>
	</g>
	<g>
		<g>
			<circle class="st11" cx="93.2" cy="79.8" r="0.8"/>
		</g>
	</g>
	<g>
		<g>
			<circle class="st15" cx="93.2" cy="85.9" r="0.8"/>
		</g>
	</g>
	<g>
		<g>
			<circle class="st15" cx="93.2" cy="91.8" r="0.8"/>
		</g>
	</g>
	<g>
		<g>
			<circle class="st11" cx="93.2" cy="64.2" r="0.8"/>
		</g>
	</g>
	<g>
		<g>
			<circle class="st10" cx="78.2" cy="33.7" r="0.8"/>
		</g>
	</g>
	<g>
		<g>
			<circle class="st10" cx="239.5" cy="33.7" r="0.8"/>
		</g>
	</g>
	<g>
		<g>
			<circle class="st10" cx="239.5" cy="37.4" r="0.8"/>
		</g>
	</g>
	<g>
		<g>
			<circle class="st10" cx="239.5" cy="41" r="0.8"/>
		</g>
	</g>
	<g>
		<g>
			<circle class="st10" cx="239.5" cy="44.7" r="0.8"/>
		</g>
	</g>
	<g>
		<g>
			<circle class="st10" cx="239.5" cy="48.3" r="0.8"/>
		</g>
	</g>
	<g>
		<g>
			<circle class="st10" cx="81.4" cy="16.5" r="0.8"/>
		</g>
	</g>
	<g>
		<g>
			<circle class="st10" cx="41.8" cy="41.8" r="0.8"/>
		</g>
	</g>
	<g>
		<g>
			<rect x="43.9" y="67.6" class="st10" width="14" height="1.5"/>
		</g>
	</g>
	<g>
		<g>
			<rect x="43.9" y="62.9" class="st11" width="18.2" height="1.5"/>
		</g>
	</g>
	<g>
		<g>
			<rect x="79.8" y="62.9" class="st11" width="4.1" height="1.5"/>
		</g>
	</g>
	<g>
		<g>
			<rect x="43.9" y="70.8" class="st10" width="20.1" height="1.5"/>
		</g>
	</g>
	<g>
		<g>
			<circle class="st11" cx="41.8" cy="63.6" r="0.8"/>
		</g>
	</g>
	<g>
		<g>
			<circle class="st10" cx="41.8" cy="68.2" r="0.8"/>
		</g>
	</g>
	<g>
		<g>
			<circle class="st10" cx="78.2" cy="63.5" r="0.8"/>
		</g>
	</g>
	<g>
		<g>
			<circle class="st10" cx="98.8" cy="64.2" r="0.8"/>
		</g>
	</g>
	<g>
		<g>
			<g>
				<rect x="136.8" y="63.5" class="st10" width="16.6" height="1.5"/>
			</g>
		</g>
		<g>
			<g>
				<circle class="st10" cx="135" cy="64.2" r="0.8"/>
			</g>
		</g>
	</g>
	<g>
		<g>
			<g>
				<rect x="187.4" y="63.5" class="st10" width="22.4" height="1.5"/>
			</g>
		</g>
		<g>
			<g>
				<circle class="st10" cx="185.5" cy="64.2" r="0.8"/>
			</g>
		</g>
	</g>
	<g>
		<g>
			<g>
				<rect x="241.8" y="63.5" class="st10" width="9.5" height="1.5"/>
			</g>
		</g>
		<g>
			<g>
				<circle class="st10" cx="239.5" cy="64.2" r="0.8"/>
			</g>
		</g>
	</g>
	<g>
		<g>
			<g>
				<rect x="136.8" y="78.9" class="st10" width="16.6" height="1.5"/>
			</g>
		</g>
		<g>
			<g>
				<circle class="st10" cx="135" cy="79.6" r="0.8"/>
			</g>
		</g>
	</g>
	<g>
		<g>
			<g>
				<rect x="187.4" y="78.9" class="st10" width="22.4" height="1.5"/>
			</g>
		</g>
		<g>
			<g>
				<circle class="st10" cx="185.5" cy="79.6" r="0.8"/>
			</g>
		</g>
	</g>
	<g>
		<g>
			<g>
				<rect x="241.8" y="78.9" class="st10" width="9.5" height="1.5"/>
			</g>
		</g>
		<g>
			<g>
				<circle class="st10" cx="239.5" cy="79.6" r="0.8"/>
			</g>
		</g>
	</g>
	<g>
		<g>
			<g>
				<rect x="136.8" y="84.9" class="st10" width="16.6" height="1.5"/>
			</g>
		</g>
		<g>
			<g>
				<circle class="st10" cx="135" cy="85.7" r="0.8"/>
			</g>
		</g>
	</g>
	<g>
		<g>
			<g>
				<rect x="187.4" y="84.9" class="st10" width="22.4" height="1.5"/>
			</g>
		</g>
		<g>
			<g>
				<circle class="st10" cx="185.5" cy="85.7" r="0.8"/>
			</g>
		</g>
	</g>
	<g>
		<g>
			<g>
				<rect x="241.8" y="84.9" class="st10" width="9.5" height="1.5"/>
			</g>
		</g>
		<g>
			<g>
				<circle class="st10" cx="239.5" cy="85.7" r="0.8"/>
			</g>
		</g>
	</g>
	<g>
		<g>
			<g>
				<rect x="136.8" y="91.2" class="st10" width="16.6" height="1.5"/>
			</g>
		</g>
		<g>
			<g>
				<circle class="st10" cx="135" cy="91.9" r="0.8"/>
			</g>
		</g>
	</g>
	<g>
		<g>
			<g>
				<rect x="187.4" y="91.2" class="st10" width="22.4" height="1.5"/>
			</g>
		</g>
		<g>
			<g>
				<circle class="st10" cx="185.5" cy="91.9" r="0.8"/>
			</g>
		</g>
	</g>
	<g>
		<g>
			<g>
				<rect x="241.8" y="91.2" class="st10" width="9.5" height="1.5"/>
			</g>
		</g>
		<g>
			<g>
				<circle class="st10" cx="239.5" cy="91.9" r="0.8"/>
			</g>
		</g>
	</g>
	<g>
		<g>
			<circle class="st10" cx="100.2" cy="48.8" r="1.4"/>
		</g>
	</g>
	<g>
		<g>
			<circle class="st16" cx="136.6" cy="17.1" r="1.4"/>
		</g>
	</g>
	<g>
		<g>
			<circle class="st17" cx="94" cy="33.4" r="1.4"/>
		</g>
	</g>
	<g>
		<g>
			<circle class="st17" cx="94" cy="37.8" r="1.4"/>
		</g>
	</g>
	<g>
		<g>
			<circle class="st10" cx="98.8" cy="79.6" r="0.8"/>
		</g>
	</g>
	<g>
		<g>
			<circle class="st10" cx="98.8" cy="85.7" r="0.8"/>
		</g>
	</g>
	<g>
		<g>
			<circle class="st10" cx="98.8" cy="91.7" r="0.8"/>
		</g>
	</g>
	<g>
		<g>
			<circle class="st10" cx="41.8" cy="71.5" r="0.8"/>
		</g>
	</g>
	<g>
		<g>
			<rect x="43.9" y="82.6" class="st10" width="14" height="1.5"/>
		</g>
	</g>
	<g>
		<g>
			<rect x="43.9" y="77.9" class="st11" width="18.2" height="1.5"/>
		</g>
	</g>
	<g>
		<g>
			<rect x="79.8" y="77.9" class="st11" width="4.1" height="1.5"/>
		</g>
	</g>
	<g>
		<g>
			<rect x="43.9" y="85.8" class="st10" width="20.1" height="1.5"/>
		</g>
	</g>
	<g>
		<g>
			<circle class="st11" cx="41.8" cy="78.6" r="0.8"/>
		</g>
	</g>
	<g>
		<g>
			<circle class="st10" cx="41.8" cy="83.2" r="0.8"/>
		</g>
	</g>
	<g>
		<g>
			<circle class="st10" cx="78.2" cy="78.5" r="0.8"/>
		</g>
	</g>
	<g>
		<g>
			<circle class="st10" cx="41.8" cy="86.5" r="0.8"/>
		</g>
	</g>
	<g>
		<g>
			<rect x="43.9" y="97.5" class="st10" width="14" height="1.5"/>
		</g>
	</g>
	<g>
		<g>
			<rect x="43.9" y="92.8" class="st15" width="18.2" height="1.5"/>
		</g>
	</g>
	<g>
		<g>
			<rect x="79.8" y="92.8" class="st15" width="4.1" height="1.5"/>
		</g>
	</g>
	<g>
		<g>
			<rect x="100.9" y="91.2" class="st15" width="14.8" height="1.5"/>
		</g>
	</g>
	<g>
		<g>
			<rect x="100.9" y="85.1" class="st15" width="14.8" height="1.5"/>
		</g>
	</g>
	<g>
		<g>
			<rect x="100.9" y="79.1" class="st11" width="14.8" height="1.5"/>
		</g>
	</g>
	<g>
		<g>
			<rect x="100.9" y="63.5" class="st11" width="14.8" height="1.5"/>
		</g>
	</g>
	<g>
		<g>
			<rect x="43.9" y="100.7" class="st10" width="20.1" height="1.5"/>
		</g>
	</g>
	<g>
		<g>
			<circle class="st15" cx="41.8" cy="93.5" r="0.8"/>
		</g>
	</g>
	<g>
		<g>
			<circle class="st10" cx="41.8" cy="98.1" r="0.8"/>
		</g>
	</g>
	<g>
		<g>
			<circle class="st10" cx="78.2" cy="93.4" r="0.8"/>
		</g>
	</g>
	<g>
		<g>
			<circle class="st10" cx="41.8" cy="101.4" r="0.8"/>
		</g>
	</g>
	<g>
		<g>
			<rect x="43.9" y="52.8" class="st10" width="14" height="1.5"/>
		</g>
	</g>
	<g>
		<g>
			<rect x="43.9" y="48.1" class="st15" width="18.2" height="1.5"/>
		</g>
	</g>
	<g>
		<g>
			<rect x="79.8" y="48.1" class="st15" width="4.1" height="1.5"/>
		</g>
	</g>
	<g>
		<g>
			<rect x="43.9" y="56" class="st10" width="20.1" height="1.5"/>
		</g>
	</g>
	<g>
		<g>
			<circle class="st15" cx="41.8" cy="48.7" r="0.8"/>
		</g>
	</g>
	<g>
		<g>
			<circle class="st10" cx="41.8" cy="53.5" r="0.8"/>
		</g>
	</g>
	<g>
		<g>
			<circle class="st10" cx="78.2" cy="48.7" r="0.8"/>
		</g>
	</g>
	<g>
		<g>
			<path class="st18" d="M282,25.8c0,0.4-0.3,0.8-0.8,0.8h-13.4c-0.4,0-0.8-0.3-0.8-0.8V23c0-0.4,0.3-0.8,0.8-0.8h13.4
				c0.4,0,0.8,0.3,0.8,0.8V25.8z"/>
		</g>
	</g>
	<g>
		<g>
			<circle class="st10" cx="41.8" cy="56.8" r="0.8"/>
		</g>
	</g>
	<g>
		<g>
			<rect x="43.9" y="112.5" class="st10" width="14" height="1.5"/>
		</g>
	</g>
	<g>
		<g>
			<rect x="43.9" y="107.8" class="st11" width="18.2" height="1.5"/>
		</g>
	</g>
	<g>
		<g>
			<rect x="79.8" y="107.8" class="st11" width="4.1" height="1.5"/>
		</g>
	</g>
	<g>
		<g>
			<rect x="43.9" y="115.7" class="st10" width="20.1" height="1.5"/>
		</g>
	</g>
	<g>
		<g>
			<circle class="st11" cx="41.8" cy="108.5" r="0.8"/>
		</g>
	</g>
	<g>
		<g>
			<circle class="st10" cx="41.8" cy="113.1" r="0.8"/>
		</g>
	</g>
	<g>
		<g>
			<circle class="st10" cx="78.2" cy="108.4" r="0.8"/>
		</g>
	</g>
	<g>
		<g>
			<circle class="st10" cx="41.8" cy="116.4" r="0.8"/>
		</g>
	</g>
	<g>
		<g>
			<rect x="43.9" y="127.5" class="st10" width="14" height="1.5"/>
		</g>
	</g>
	<g>
		<g>
			<rect x="43.9" y="122.8" class="st11" width="18.2" height="1.5"/>
		</g>
	</g>
	<g>
		<g>
			<rect x="79.8" y="122.8" class="st11" width="4.1" height="1.5"/>
		</g>
	</g>
	<g>
		<g>
			<rect x="43.9" y="130.6" class="st10" width="20.1" height="1.5"/>
		</g>
	</g>
	<g>
		<g>
			<circle class="st11" cx="41.8" cy="123.4" r="0.8"/>
		</g>
	</g>
	<g>
		<g>
			<circle class="st10" cx="41.8" cy="128.1" r="0.8"/>
		</g>
	</g>
	<g>
		<g>
			<circle class="st10" cx="78.2" cy="123.3" r="0.8"/>
		</g>
	</g>
	<g>
		<g>
			<circle class="st10" cx="41.8" cy="131.4" r="0.8"/>
		</g>
	</g>
	<g>
		<g>
			<g>
				<path class="st19" d="M82.3,19.6h-40c-1,0-1.8-0.8-1.8-1.8v-2.2c0-1,0.8-1.8,1.8-1.8h40c1,0,1.8,0.8,1.8,1.8v2.2
					C84,18.8,83.2,19.6,82.3,19.6z M42.2,14.3c-0.7,0-1.4,0.6-1.4,1.4v2.2c0,0.7,0.6,1.4,1.4,1.4h40c0.7,0,1.4-0.6,1.4-1.4v-2.2
					c0-0.7-0.6-1.4-1.4-1.4H42.2z"/>
			</g>
		</g>
	</g>
	<g>
		<g>
			<rect x="85.7" y="9" class="st10" width="0.8" height="124.8"/>
		</g>
	</g>
	<g>
		<g>
			<circle class="st10" cx="278.6" cy="34.2" r="1.9"/>
		</g>
	</g>
	<g>
		<g>
			<rect x="271" y="23.7" class="st19" width="9.1" height="1.5"/>
		</g>
	</g>
	<g>
		<g>
			<circle class="st19" cx="268.9" cy="24.5" r="0.8"/>
		</g>
	</g>
	<g>
		<g>
			<path class="st20" d="M141.3,16c-0.4,0-0.7,0.2-0.7,0.5v1.8c0,0.2,0.3,0.5,0.7,0.5h4.7V16L141.3,16L141.3,16z"/>
		</g>
	</g>
	<g>
		<g>
			<path class="st21" d="M153.8,18.3v-1.8c0-0.2-0.3-0.5-0.7-0.5h-7.1v2.8h7.1C153.5,18.8,153.8,18.6,153.8,18.3z"/>
		</g>
	</g>
	<g>
		<g>
			<rect x="91.6" y="15.2" class="st10" width="40.5" height="3.4"/>
		</g>
	</g>
	<g>
		<path class="st22" d="M285.5,135H40.1c-1.4,0-2.5-1.1-2.5-2.5V2.5c0-1.4,1.1-2.5,2.5-2.5h245.4c1.4,0,2.5,1.1,2.5,2.5v130
			C288,133.9,286.9,135,285.5,135z M40.1,1c-0.8,0-1.5,0.7-1.5,1.5v130c0,0.8,0.7,1.5,1.5,1.5h245.4c0.8,0,1.5-0.7,1.5-1.5V2.5
			c0-0.8-0.7-1.5-1.5-1.5H40.1z"/>
	</g>
</g>
</svg>
