<?xml version="1.0" encoding="utf-8"?>
<!-- Generator: Adobe Illustrator 19.2.1, SVG Export Plug-In . SVG Version: 6.00 Build 0)  -->
<svg version="1.1" id="Layer_1" xmlns="http://www.w3.org/2000/svg" xmlns:xlink="http://www.w3.org/1999/xlink" x="0px" y="0px"
	 viewBox="0 0 1141.312 600.312" style="enable-background:new 0 0 1141.312 600.312;" xml:space="preserve">
<style type="text/css">
	.st0{fill:#273476;}
	.st1{fill:#FFFFFF;}
	.st2{fill:#D0202D;}
	.st3{fill:#ED2224;}
	.st4{fill:none;stroke:#D1D3D4;stroke-width:7;stroke-miterlimit:10;}
</style>
<g>
	<g>
		<polygon class="st0" points="0.001,400.156 0.001,360.156 0.001,240.156 0.001,200.156 288.509,200.156 0,55.902 0,544.41 
			288.509,400.156 		"/>
		<polygon class="st0" points="500.313,0 111.803,0 500.313,194.255 		"/>
		<polygon class="st0" points="112.429,600 500.313,600 500.313,406.057 		"/>
		<polygon class="st0" points="0,0 0,0 0,0 		"/>
		<rect y="544.41" class="st1" width="0" height="55.59"/>
		<rect x="0" y="0" class="st1" width="0" height="55.902"/>
		<rect x="500.313" y="600" class="st1" width="40" height="0.312"/>
		<polygon class="st1" points="0.001,200.156 0.001,240.156 540.313,240.156 540.313,0 500.313,0 500.313,194.255 111.803,0 
			0.001,0 400.315,200.156 333.232,200.156 0.001,33.541 0.001,0 0,0 0,0 0,55.902 288.509,200.156 		"/>
		<polygon class="st1" points="540.313,360.156 0.001,360.156 0.001,400.156 288.509,400.156 0,544.41 0,600 0.626,600 
			400.315,400.156 467.396,400.156 67.709,600 112.429,600 500.313,406.057 500.313,600 540.313,600 		"/>
		<rect x="540.313" y="600" class="st2" width="54.999" height="0.312"/>
		<polygon class="st2" points="0.001,240.156 0.001,360.156 540.313,360.156 540.313,600 595.312,600 595.312,0 540.313,0 
			540.313,240.156 		"/>
		<polygon class="st2" points="400.315,400.156 0.626,600 67.709,600 467.396,400.156 		"/>
		<polygon class="st2" points="333.232,200.156 400.315,200.156 0.001,0 0.001,33.541 		"/>
		<rect x="595.312" y="600" class="st1" width="10" height="0.312"/>
	</g>
	<g>
		<polygon class="st3" points="1141.312,0 696.312,0 696.312,112.5 747.562,112.5 747.562,243.75 878.812,243.75 878.812,356.25 
			747.562,356.25 747.562,487.5 696.312,487.5 696.312,600 1141.312,600 		"/>
		<polygon class="st1" points="747.562,487.5 747.562,356.25 878.812,356.25 878.812,243.75 747.562,243.75 747.562,112.5 
			696.312,112.5 696.312,487.5 		"/>
	</g>
</g>
<line class="st4" x1="643.625" y1="0" x2="643.625" y2="600.312"/>
</svg>
