<?xml version="1.0" encoding="utf-8"?>
<!-- Generator: Adobe Illustrator 16.0.0, SVG Export Plug-In . SVG Version: 6.00 Build 0)  -->
<!DOCTYPE svg PUBLIC "-//W3C//DTD SVG 1.1//EN" "http://www.w3.org/Graphics/SVG/1.1/DTD/svg11.dtd">
<svg version="1.1" id="australia" xmlns="http://www.w3.org/2000/svg" xmlns:xlink="http://www.w3.org/1999/xlink" x="0px" y="0px"
	 width="306px" height="204px" viewBox="0 96 306 204" enable-background="new 0 96 306 204" xml:space="preserve">
<g>
	<rect y="96" fill="#FF9933" width="306" height="204"/>
	<rect y="164" fill="#FFFFFF" width="306" height="68"/>
	<rect y="232" fill="#128807" width="306" height="68"/>
	<g>
		<circle fill="#000088" cx="-1122" cy="-652" r="27.2"/>
		<circle fill="#FFFFFF" cx="-1122" cy="-652" r="23.8"/>
		<circle fill="#000088" cx="-1122" cy="-652" r="4.533"/>
		<g>
			<g>
				<g id="b">
					<g id="a">
						<ellipse fill="#000088" cx="-1098.023" cy="-649.087" rx="1.133" ry="1.133"/>
						<path fill="#000088" d="M-1122-628.2l1.133-14.733l-1.133-6.8l-1.133,6.8L-1122-628.2z"/>
					</g>
					<g transform="rotate(15)">
						<g id="a_1_">
							
								<ellipse transform="matrix(-0.9659 0.2588 -0.2588 -0.9659 -2281.3098 -991.153)" fill="#000088" cx="-1075.41" cy="-645.748" rx="1.133" ry="1.133"/>
							<path fill="#000088" d="M-1102.82-632.604l4.533-13.6l1.133-6.8l-2.266,6.8L-1102.82-632.604z"/>
						</g>
					</g>
				</g>
				<g id="c">
					<g id="b_1_">
						<g id="a_2_">
							<ellipse fill="#000088" cx="-1102.766" cy="-637.645" rx="1.133" ry="1.133"/>
							<path fill="#000088" d="M-1134.467-631.6l7.934-12.467l2.267-6.8l-4.533,5.667L-1134.467-631.6z"/>
						</g>
						<g transform="rotate(30)">
							<g id="a_3_">
								
									<ellipse transform="matrix(-0.866 0.5 -0.5 -0.866 -2299.3325 -675.5211)" fill="#000088" cx="-1059.163" cy="-645.814" rx="1.133" ry="1.133"/>
								<path fill="#000088" d="M-1091-647.862l10.2-9.067l4.533-5.667l-5.667,4.533L-1091-647.862z"/>
							</g>
						</g>
					</g>
				</g>
				<g>
					<g id="d">
						<g id="b_2_">
							<g id="a_4_">
								<ellipse fill="#000088" cx="-1113.139" cy="-630.413" rx="1.133" ry="1.133"/>
								<path fill="#000088" d="M-1142.4-639.533l12.466-6.8l5.667-4.534l-6.8,2.267L-1142.4-639.533z"/>
							</g>
							<g transform="rotate(15)">
								<g id="a_5_">
									
										<ellipse transform="matrix(-0.9659 0.2588 -0.2588 -0.9659 -2313.4998 -958.4341)" fill="#000088" cx="-1093.659" cy="-631.508" rx="1.133" ry="1.133"/>
									<path fill="#000088" d="M-1119.82-649.604l13.6-3.4l6.8-2.267l-6.8,1.134L-1119.82-649.604z"/>
								</g>
							</g>
						</g>
						<g id="c_1_">
							<g id="b_3_">
								<g id="a_6_">
									<ellipse fill="#000088" cx="-1124.881" cy="-628.118" rx="1.133" ry="1.133"/>
									<path fill="#000088" d="M-1145.8-652l14.733,1.133l6.8-1.133l-6.8-1.133L-1145.8-652z"/>
								</g>
								<g transform="rotate(60)">
									<g id="a_7_">
										
											<ellipse transform="matrix(-0.5 0.866 -0.866 -0.5 -2159.9609 -109.3684)" fill="#000088" cx="-1048.408" cy="-678.213" rx="1.133" ry="1.133"/>
										<path fill="#000088" d="M-1061.528-705.667l13.6,4.533l6.8,1.134l-6.8-2.267L-1061.528-705.667z"/>
									</g>
								</g>
							</g>
						</g>
					</g>
					<g>
						<g>
							<g>
								<g id="b_4_">
									<g id="a_8_">
										<ellipse fill="#000088" cx="-1136.41" cy="-632.665" rx="1.133" ry="1.133"/>
										<path fill="#000088" d="M-1142.4-664.467l12.466,7.934l6.8,2.267l-5.667-4.533L-1142.4-664.467z"/>
									</g>
									<g transform="rotate(15)">
										<g id="a_9_">
											
												<ellipse transform="matrix(-0.9659 0.2588 -0.2588 -0.9659 -2360.2439 -969.9532)" fill="#000088" cx="-1116.273" cy="-640.344" rx="1.133" ry="1.133"/>
											<path fill="#000088" d="M-1114.153-672.271l9.067,10.2l5.667,4.533l-4.533-5.666L-1114.153-672.271z"/>
										</g>
									</g>
								</g>
								<g id="c_2_">
									<g id="b_5_">
										<g id="a_10_">
											<ellipse fill="#000088" cx="-1143.619" cy="-643.1" rx="1.133" ry="1.133"/>
											<path fill="#000088" d="M-1134.467-672.4l6.8,12.466l4.533,5.667l-2.267-6.8L-1134.467-672.4z"/>
										</g>
										<g transform="rotate(30)">
											<g id="a_11_">
												
													<ellipse transform="matrix(-0.866 0.5 -0.5 -0.866 -2379.0327 -685.404)" fill="#000088" cx="-1097.689" cy="-661.434" rx="1.133" ry="1.133"/>
												<path fill="#000088" d="M-1079.667-687.528l3.4,13.6l2.267,6.8l-1.133-6.8L-1079.667-687.528z"/>
											</g>
										</g>
									</g>
								</g>
								<g>
									<g id="d_1_">
										<g id="b_6_">
											<g id="a_12_">
												<ellipse fill="#000088" cx="-1145.851" cy="-654.975" rx="1.133" ry="1.133"/>
												<path fill="#000088" d="M-1122-675.8l-1.133,14.733l1.133,6.8l1.133-6.8L-1122-675.8z"/>
											</g>
											<g transform="rotate(15)">
												<g id="a_13_">
													
														<ellipse transform="matrix(-0.9659 0.2588 -0.2588 -0.9659 -2371.8555 -1017.2811)" fill="#000088" cx="-1118.963" cy="-664.772" rx="1.134" ry="1.134"/>
													<path fill="#000088" d="M-1091.486-677.938l-4.534,13.6l-1.133,6.8l2.266-6.8L-1091.486-677.938z"/>
												</g>
											</g>
										</g>
										<g id="c_3_">
											<g id="b_7_">
												<g id="a_14_">
													<ellipse fill="#000088" cx="-1141.39" cy="-666.308" rx="1.133" ry="1.133"/>
													<path fill="#000088" d="M-1109.533-672.4l-7.934,12.466l-2.267,6.8l4.533-5.667L-1109.533-672.4z"/>
												</g>
												<g transform="rotate(120)">
													<g id="a_15_">
														
															<ellipse transform="matrix(0.5 0.866 -0.866 0.5 -1232.7639 505.1564)" fill="#000088" cx="-1053.862" cy="-815.03" rx="1.133" ry="1.133"/>
														<path fill="#000088" d="M-1021.862-813l-10.2,9.067l-4.533,5.667l5.666-4.533L-1021.862-813z"/>
													</g>
												</g>
											</g>
										</g>
									</g>
									<g>
										<g>
											<g>
												<g id="b_8_">
													<g id="a_16_">
														<ellipse fill="#000088" cx="-1130.931" cy="-673.58" rx="1.133" ry="1.133"/>
														<path fill="#000088" d="M-1101.6-664.467l-12.466,6.8l-5.667,4.533l6.8-2.267L-1101.6-664.467z"/>
													</g>
													<g transform="rotate(15)">
														<g id="a_17_">
															
																<ellipse transform="matrix(-0.9659 0.2588 -0.2588 -0.9659 -2339.2593 -1050.0784)" fill="#000088" cx="-1100.506" cy="-679.025" rx="1.133" ry="1.133"/>
															<path fill="#000088" d="M-1074.486-660.938l-13.6,3.4l-6.8,2.266l6.8-1.133L-1074.486-660.938z"/>
														</g>
													</g>
												</g>
												<g id="c_4_">
													<g id="b_9_">
														<g id="a_18_">
															<ellipse fill="#000088" cx="-1118.993" cy="-675.944" rx="1.133" ry="1.133"/>
															<path fill="#000088" d="M-1098.2-652l-14.733-1.133l-6.8,1.133l6.8,1.133L-1098.2-652z"/>
														</g>
														<g transform="rotate(30)">
															<g id="a_19_">
																
																	<ellipse transform="matrix(-0.866 0.5 -0.5 -0.866 -2329.7385 -749.0009)" fill="#000088" cx="-1064.522" cy="-686.628" rx="1.133" ry="1.133"/>
																<path fill="#000088" d="M-1051.334-659.195l-13.6-4.533l-6.8-1.133l6.8,2.267L-1051.334-659.195z"/>
															</g>
														</g>
													</g>
												</g>
												<g transform="translate(112.5,75)">
													<g id="d_2_">
														<g id="b_10_">
															<g id="a_20_">
																<ellipse fill="#000088" cx="54.753" cy="103.712" rx="1.133" ry="1.133"/>
																<path fill="#000088" d="M60.9,135.467l-12.467-7.934l-6.801-2.267l5.667,4.534L60.9,135.467z"/>
															</g>
															<g transform="rotate(15)">
																<g id="a_21_">
																	
																		<ellipse transform="matrix(-0.9659 0.2588 -0.2588 -0.9659 424.6191 -500.8338)" fill="#000088" cx="245.278" cy="-222.466" rx="1.134" ry="1.134"/>
																	<path fill="#000088" d="M243.32-190.556l-9.067-10.2l-5.666-4.533l4.533,5.667L243.32-190.556z"/>
																</g>
															</g>
														</g>
														<g id="c_5_">
															<g id="b_11_">
																<g id="a_22_">
																	<ellipse fill="#000088" cx="62.049" cy="114.107" rx="1.133" ry="1.133"/>
																	<path fill="#000088" d="M52.967,143.4l-6.8-12.467l-4.534-5.667l2.268,6.8L52.967,143.4z"/>
																</g>
																<g transform="rotate(-120)">
																	<g id="a_23_">
																		
																			<ellipse transform="matrix(0.5 -0.866 0.866 0.5 -1060.8418 -2197.7576)" fill="#000088" cx="-2433.73" cy="-180.165" rx="1.133" ry="1.133"/>
																		<path fill="#000088" d="M-2451.892-154.079l-3.4-13.6l-2.267-6.8l1.133,6.8L-2451.892-154.079z"/>
																	</g>
																</g>
															</g>
														</g>
													</g>
												</g>
											</g>
										</g>
									</g>
								</g>
							</g>
						</g>
					</g>
				</g>
			</g>
		</g>
	</g>
</g>
</svg>
