<?xml version="1.0" encoding="utf-8"?>
<!-- Generator: Adobe Illustrator 21.1.0, SVG Export Plug-In . SVG Version: 6.00 Build 0)  -->
<svg version="1.1" id="Poland_Chile" xmlns="http://www.w3.org/2000/svg" xmlns:xlink="http://www.w3.org/1999/xlink" x="0px"
	 y="0px" viewBox="0 0 306 160.951" style="enable-background:new 0 0 306 160.951;" xml:space="preserve">
<style type="text/css">
	.st0{fill:#E9E8E7;}
	.st1{fill:#D4213D;}
	.st2{fill:none;stroke:#D1D3D4;stroke-width:7;stroke-miterlimit:10;}
	.st3{fill:#003893;}
	.st4{fill:#FFFFFF;}
</style>
<g>
	<rect y="0.25" class="st0" width="141" height="80.476"/>
	<rect y="80.726" class="st1" width="141" height="80.476"/>
</g>
<line class="st2" x1="152.75" y1="0.25" x2="152.75" y2="161.202"/>
<g>
	<rect x="164.5" y="0.25" class="st3" width="94.188" height="80.126"/>
	<rect x="258.688" y="0.25" class="st0" width="47.214" height="80.126"/>
	<rect x="164.5" y="80.375" class="st1" width="141.402" height="80.126"/>
	<path class="st4" d="M230.238,34.287c0.26-0.191,0.209-0.347-0.114-0.347h-15.066c-0.322,0-0.668-0.25-0.769-0.557l-4.929-15
		c-0.101-0.306-0.199-0.506-0.22-0.444s-0.053,0.062-0.073,0s-0.119,0.138-0.22,0.444l-4.929,15
		c-0.101,0.306-0.447,0.557-0.769,0.557h-15.359c-0.322,0-0.372,0.155-0.111,0.344l12.402,8.987c0.261,0.189,0.392,0.594,0.292,0.9
		l-4.783,14.553c-0.101,0.306,0.034,0.407,0.299,0.223l12.732-8.806c0.265-0.183,0.699-0.183,0.964,0l12.732,8.806
		c0.265,0.183,0.4,0.083,0.299-0.223l-4.805-14.621c-0.101-0.306,0.03-0.713,0.289-0.903L230.238,34.287z"/>
</g>
</svg>
