<?xml version="1.0" encoding="utf-8"?>
<!-- Generator: Adobe Illustrator 16.0.0, SVG Export Plug-In . SVG Version: 6.00 Build 0)  -->
<!DOCTYPE svg PUBLIC "-//W3C//DTD SVG 1.1//EN" "http://www.w3.org/Graphics/SVG/1.1/DTD/svg11.dtd">
<svg version="1.1" id="usa" xmlns="http://www.w3.org/2000/svg" xmlns:xlink="http://www.w3.org/1999/xlink" x="0px" y="0px"
	 width="260.1px" height="136.68px" viewBox="-470.5 505.68 260.1 136.68" enable-background="new -470.5 505.68 260.1 136.68"
	 xml:space="preserve">
<g>
	<g>
		<rect x="-470.5" y="505.68" fill="#F6F8F9" width="260.1" height="136.68"/>
		<rect x="-470.5" y="632.16" fill="#EA2127" width="260.1" height="10.199"/>
		<rect x="-470.5" y="610.74" fill="#EA2127" width="260.1" height="10.199"/>
		<rect x="-470.5" y="590.34" fill="#EA2127" width="260.1" height="10.2"/>
		<rect x="-470.5" y="568.92" fill="#EA2127" width="260.1" height="10.2"/>
		<rect x="-470.5" y="547.5" fill="#EA2127" width="260.1" height="10.2"/>
		<rect x="-470.5" y="527.1" fill="#EA2127" width="260.1" height="10.2"/>
		<rect x="-470.5" y="505.68" fill="#EA2127" width="260.1" height="10.2"/>
	</g>
	<rect x="-470.5" y="505.68" fill="#212E60" width="104.04" height="73.44"/>
	<g>
		<g>
			<path fill="#F6F8F9" d="M-377.68,568.92c0,1.02,1.02,2.04,1.02,2.04s0,1.021,1.02,1.021s2.04,0,2.04,0
				c-1.02,1.02-1.02,1.02-2.04,1.02c0,0,0,0,0,1.021c0,1.02,1.02,2.04,1.02,2.04c-1.02-1.021-1.02-1.021-2.04-1.021c0,0,0,0-1.02,0
				s-1.02,1.021-2.04,1.021c0-1.021,0-2.04,1.02-2.04V573c-1.02,0-1.02-1.02-2.04-1.02c1.02,0,2.04,0,2.04,0s1.02,0,1.02-1.021
				C-378.7,570.96-378.7,569.939-377.68,568.92z"/>
			<path fill="#F6F8F9" d="M-389.92,568.92c0,1.02,1.02,2.04,1.02,2.04s0,1.021,1.02,1.021c1.021,0,2.041,0,2.041,0
				c-1.02,1.02-1.02,1.02-2.041,1.02c0,0,0,0,0,1.021c0,1.02,1.021,2.04,1.021,2.04c-1.021-1.021-1.021-1.021-2.041-1.021
				c0,0,0,0-1.02,0s-1.02,1.021-2.04,1.021c0-1.021,0-2.04,1.02-2.04V573c-1.02,0-1.02-1.02-2.04-1.02c1.02,0,2.04,0,2.04,0
				s1.02,0,1.02-1.021C-389.92,570.96-389.92,569.939-389.92,568.92z"/>
			<path fill="#F6F8F9" d="M-401.14,568.92c0,1.02,1.02,2.04,1.02,2.04s0,1.021,1.02,1.021s2.04,0,2.04,0
				c-1.02,1.02-1.02,1.02-2.04,1.02c0,0,0,0,0,1.021c0,1.02,1.02,2.04,1.02,2.04c-1.02-1.021-1.02-1.021-2.04-1.021c0,0,0,0-1.02,0
				s-1.02,1.021-2.041,1.021c0-1.021,0-2.04,1.021-2.04V573c-1.021,0-1.021-1.02-2.041-1.02c1.02,0,2.041,0,2.041,0
				s1.02,0,1.02-1.021C-402.16,570.96-401.14,569.939-401.14,568.92z"/>
			<path fill="#F6F8F9" d="M-412.36,568.92c0,1.02,1.02,2.04,1.02,2.04s0,1.021,1.02,1.021s2.04,0,2.04,0
				c-1.02,1.02-1.02,1.02-2.04,1.02c0,0,0,0,0,1.021c0,1.02,1.02,2.04,1.02,2.04c-1.02-1.021-1.02-1.021-2.04-1.021c0,0,0,0-1.02,0
				c-1.021,0-1.021,1.021-2.041,1.021c0-1.021,0-2.04,1.02-2.04V573c-1.02,0-1.02-1.02-2.04-1.02c1.02,0,2.04,0,2.04,0
				s1.021,0,1.021-1.021C-413.38,570.96-413.38,569.939-412.36,568.92z"/>
			<path fill="#F6F8F9" d="M-424.6,568.92c0,1.02,1.02,2.04,1.02,2.04s0,1.021,1.02,1.021s2.04,0,2.04,0
				c-1.02,1.02-1.02,1.02-2.04,1.02c0,0,0,0,0,1.021c0,1.02,1.02,2.04,1.02,2.04c-1.02-1.021-1.02-1.021-2.04-1.021c0,0,0,0-1.02,0
				s-1.02,1.021-2.04,1.021c0-1.021,0-2.04,1.02-2.04V573c-1.02,0-1.02-1.02-2.04-1.02c1.02,0,2.04,0,2.04,0s1.02,0,1.02-1.021
				C-424.6,570.96-424.6,569.939-424.6,568.92z"/>
			<path fill="#F6F8F9" d="M-435.82,568.92c0,1.02,1.02,2.04,1.02,2.04s0,1.021,1.02,1.021s2.04,0,2.04,0
				c-1.02,1.02-1.02,1.02-2.04,1.02c0,0,0,0,0,1.021c0,1.02,1.02,2.04,1.02,2.04c-1.02-1.021-1.02-1.021-2.04-1.021c0,0,0,0-1.02,0
				s-1.02,1.021-2.04,1.021c0-1.021,0-2.04,1.02-2.04V573c-1.02,0-1.02-1.02-2.04-1.02c1.02,0,2.04,0,2.04,0s1.02,0,1.02-1.021
				C-436.84,570.96-435.82,569.939-435.82,568.92z"/>
			<path fill="#F6F8F9" d="M-447.041,568.92c0,1.02,1.021,2.04,1.021,2.04s0,1.021,1.02,1.021s2.04,0,2.04,0
				c-1.02,1.02-1.02,1.02-2.04,1.02c0,0,0,0,0,1.021c0,1.02,1.02,2.04,1.02,2.04c-1.02-1.021-1.02-1.021-2.04-1.021c0,0,0,0-1.021,0
				c-1.02,0-1.02,1.021-2.04,1.021c0-1.021,0-2.04,1.02-2.04V573c-1.02,0-1.02-1.02-2.04-1.02c1.02,0,2.04,0,2.04,0
				s1.02,0,1.02-1.021C-448.06,570.96-448.06,569.939-447.041,568.92z"/>
			<path fill="#F6F8F9" d="M-459.28,568.92c0,1.02,1.02,2.04,1.02,2.04s0,1.021,1.02,1.021c1.021,0,2.041,0,2.041,0
				c-1.02,1.02-1.02,1.02-2.041,1.02c0,0,0,0,0,1.021c0,1.02,1.021,2.04,1.021,2.04c-1.021-1.021-1.021-1.021-2.041-1.021
				c0,0,0,0-1.02,0s-1.02,1.021-2.04,1.021c0-1.021,0-2.04,1.02-2.04V573c-1.02,0-1.02-1.02-2.04-1.02c1.02,0,2.04,0,2.04,0
				s1.02,0,1.02-1.021C-459.28,570.96-459.28,569.939-459.28,568.92z"/>
		</g>
		<g>
			<path fill="#F6F8F9" d="M-377.68,544.439c0,1.021,1.02,2.041,1.02,2.041s0,1.02,1.02,1.02s2.04,0,2.04,0
				c-1.02,1.021-1.02,1.021-2.04,1.021c0,0,0,0,0,1.02c0,1.021,1.02,2.04,1.02,2.04c-1.02-1.02-1.02-1.02-2.04-1.02c0,0,0,0-1.02,0
				s-1.02,1.02-2.04,1.02c0-1.02,0-2.04,1.02-2.04v-1.02c-1.02,0-1.02-1.021-2.04-1.021c1.02,0,2.04,0,2.04,0s1.02,0,1.02-1.02
				C-378.7,546.48-378.7,545.46-377.68,544.439z"/>
			<path fill="#F6F8F9" d="M-389.92,544.439c0,1.021,1.02,2.041,1.02,2.041s0,1.02,1.02,1.02c1.021,0,2.041,0,2.041,0
				c-1.02,1.021-1.02,1.021-2.041,1.021c0,0,0,0,0,1.02c0,1.021,1.021,2.04,1.021,2.04c-1.021-1.02-1.021-1.02-2.041-1.02
				c0,0,0,0-1.02,0s-1.02,1.02-2.04,1.02c0-1.02,0-2.04,1.02-2.04v-1.02c-1.02,0-1.02-1.021-2.04-1.021c1.02,0,2.04,0,2.04,0
				s1.02,0,1.02-1.02C-389.92,546.48-389.92,545.46-389.92,544.439z"/>
			<path fill="#F6F8F9" d="M-401.14,544.439c0,1.021,1.02,2.041,1.02,2.041s0,1.02,1.02,1.02s2.04,0,2.04,0
				c-1.02,1.021-1.02,1.021-2.04,1.021c0,0,0,0,0,1.02c0,1.021,1.02,2.04,1.02,2.04c-1.02-1.02-1.02-1.02-2.04-1.02c0,0,0,0-1.02,0
				s-1.02,1.02-2.041,1.02c0-1.02,0-2.04,1.021-2.04v-1.02c-1.021,0-1.021-1.021-2.041-1.021c1.02,0,2.041,0,2.041,0
				s1.02,0,1.02-1.02C-402.16,546.48-401.14,545.46-401.14,544.439z"/>
			<path fill="#F6F8F9" d="M-412.36,544.439c0,1.021,1.02,2.041,1.02,2.041s0,1.02,1.02,1.02s2.04,0,2.04,0
				c-1.02,1.021-1.02,1.021-2.04,1.021c0,0,0,0,0,1.02c0,1.021,1.02,2.04,1.02,2.04c-1.02-1.02-1.02-1.02-2.04-1.02c0,0,0,0-1.02,0
				c-1.021,0-1.021,1.02-2.041,1.02c0-1.02,0-2.04,1.02-2.04v-1.02c-1.02,0-1.02-1.021-2.04-1.021c1.02,0,2.04,0,2.04,0
				s1.021,0,1.021-1.02C-413.38,546.48-413.38,545.46-412.36,544.439z"/>
			<path fill="#F6F8F9" d="M-424.6,544.439c0,1.021,1.02,2.041,1.02,2.041s0,1.02,1.02,1.02s2.04,0,2.04,0
				c-1.02,1.021-1.02,1.021-2.04,1.021c0,0,0,0,0,1.02c0,1.021,1.02,2.04,1.02,2.04c-1.02-1.02-1.02-1.02-2.04-1.02c0,0,0,0-1.02,0
				s-1.02,1.02-2.04,1.02c0-1.02,0-2.04,1.02-2.04v-1.02c-1.02,0-1.02-1.021-2.04-1.021c1.02,0,2.04,0,2.04,0s1.02,0,1.02-1.02
				C-424.6,546.48-424.6,545.46-424.6,544.439z"/>
			<path fill="#F6F8F9" d="M-435.82,544.439c0,1.021,1.02,2.041,1.02,2.041s0,1.02,1.02,1.02s2.04,0,2.04,0
				c-1.02,1.021-1.02,1.021-2.04,1.021c0,0,0,0,0,1.02c0,1.021,1.02,2.04,1.02,2.04c-1.02-1.02-1.02-1.02-2.04-1.02c0,0,0,0-1.02,0
				s-1.02,1.02-2.04,1.02c0-1.02,0-2.04,1.02-2.04v-1.02c-1.02,0-1.02-1.021-2.04-1.021c1.02,0,2.04,0,2.04,0s1.02,0,1.02-1.02
				C-436.84,546.48-435.82,545.46-435.82,544.439z"/>
			<path fill="#F6F8F9" d="M-447.041,544.439c0,1.021,1.021,2.041,1.021,2.041s0,1.02,1.02,1.02s2.04,0,2.04,0
				c-1.02,1.021-1.02,1.021-2.04,1.021c0,0,0,0,0,1.02c0,1.021,1.02,2.04,1.02,2.04c-1.02-1.02-1.02-1.02-2.04-1.02c0,0,0,0-1.021,0
				c-1.02,0-1.02,1.02-2.04,1.02c0-1.02,0-2.04,1.02-2.04v-1.02c-1.02,0-1.02-1.021-2.04-1.021c1.02,0,2.04,0,2.04,0
				s1.02,0,1.02-1.02C-448.06,546.48-448.06,545.46-447.041,544.439z"/>
			<path fill="#F6F8F9" d="M-459.28,544.439c0,1.021,1.02,2.041,1.02,2.041s0,1.02,1.02,1.02c1.021,0,2.041,0,2.041,0
				c-1.02,1.021-1.02,1.021-2.041,1.021c0,0,0,0,0,1.02c0,1.021,1.021,2.04,1.021,2.04c-1.021-1.02-1.021-1.02-2.041-1.02
				c0,0,0,0-1.02,0s-1.02,1.02-2.04,1.02c0-1.02,0-2.04,1.02-2.04v-1.02c-1.02,0-1.02-1.021-2.04-1.021c1.02,0,2.04,0,2.04,0
				s1.02,0,1.02-1.02C-459.28,546.48-459.28,545.46-459.28,544.439z"/>
		</g>
		<g>
			<path fill="#F6F8F9" d="M-377.68,519.96c0,1.021,1.02,2.04,1.02,2.04s0,1.02,1.02,1.02s2.04,0,2.04,0
				c-1.02,1.021-1.02,1.021-2.04,1.021c0,0,0,0,0,1.021c0,1.02,1.02,2.04,1.02,2.04c-1.02-1.021-1.02-1.021-2.04-1.021
				c0,0,0,0-1.02,0s-1.02,1.021-2.04,1.021c0-1.021,0-2.04,1.02-2.04v-1.021c-1.02,0-1.02-1.021-2.04-1.021c1.02,0,2.04,0,2.04,0
				s1.02,0,1.02-1.02C-378.7,520.98-378.7,520.98-377.68,519.96z"/>
			<path fill="#F6F8F9" d="M-389.92,519.96c0,1.021,1.02,2.04,1.02,2.04s0,1.02,1.02,1.02c1.021,0,2.041,0,2.041,0
				c-1.02,1.021-1.02,1.021-2.041,1.021c0,0,0,0,0,1.021c0,1.02,1.021,2.04,1.021,2.04c-1.021-1.021-1.021-1.021-2.041-1.021
				c0,0,0,0-1.02,0s-1.02,1.021-2.04,1.021c0-1.021,0-2.04,1.02-2.04v-1.021c-1.02,0-1.02-1.021-2.04-1.021c1.02,0,2.04,0,2.04,0
				s1.02,0,1.02-1.02S-389.92,520.98-389.92,519.96z"/>
			<path fill="#F6F8F9" d="M-401.14,519.96c0,1.021,1.02,2.04,1.02,2.04s0,1.02,1.02,1.02s2.04,0,2.04,0
				c-1.02,1.021-1.02,1.021-2.04,1.021c0,0,0,0,0,1.021c0,1.02,1.02,2.04,1.02,2.04c-1.02-1.021-1.02-1.021-2.04-1.021
				c0,0,0,0-1.02,0s-1.02,1.021-2.041,1.021c0-1.021,0-2.04,1.021-2.04v-1.021c-1.021,0-1.021-1.021-2.041-1.021
				c1.02,0,2.041,0,2.041,0s1.02,0,1.02-1.02C-402.16,520.98-401.14,520.98-401.14,519.96z"/>
			<path fill="#F6F8F9" d="M-412.36,519.96c0,1.021,1.02,2.04,1.02,2.04s0,1.02,1.02,1.02s2.04,0,2.04,0
				c-1.02,1.021-1.02,1.021-2.04,1.021c0,0,0,0,0,1.021c0,1.02,1.02,2.04,1.02,2.04c-1.02-1.021-1.02-1.021-2.04-1.021
				c0,0,0,0-1.02,0c-1.021,0-1.021,1.021-2.041,1.021c0-1.021,0-2.04,1.02-2.04v-1.021c-1.02,0-1.02-1.021-2.04-1.021
				c1.02,0,2.04,0,2.04,0s1.021,0,1.021-1.02C-413.38,520.98-413.38,520.98-412.36,519.96z"/>
			<path fill="#F6F8F9" d="M-424.6,519.96c0,1.021,1.02,2.04,1.02,2.04s0,1.02,1.02,1.02s2.04,0,2.04,0
				c-1.02,1.021-1.02,1.021-2.04,1.021c0,0,0,0,0,1.021c0,1.02,1.02,2.04,1.02,2.04c-1.02-1.021-1.02-1.021-2.04-1.021
				c0,0,0,0-1.02,0s-1.02,1.021-2.04,1.021c0-1.021,0-2.04,1.02-2.04v-1.021c-1.02,0-1.02-1.021-2.04-1.021c1.02,0,2.04,0,2.04,0
				s1.02,0,1.02-1.02S-424.6,520.98-424.6,519.96z"/>
			<path fill="#F6F8F9" d="M-435.82,519.96c0,1.021,1.02,2.04,1.02,2.04s0,1.02,1.02,1.02s2.04,0,2.04,0
				c-1.02,1.021-1.02,1.021-2.04,1.021c0,0,0,0,0,1.021c0,1.02,1.02,2.04,1.02,2.04c-1.02-1.021-1.02-1.021-2.04-1.021
				c0,0,0,0-1.02,0s-1.02,1.021-2.04,1.021c0-1.021,0-2.04,1.02-2.04v-1.021c-1.02,0-1.02-1.021-2.04-1.021c1.02,0,2.04,0,2.04,0
				s1.02,0,1.02-1.02C-436.84,520.98-435.82,520.98-435.82,519.96z"/>
			<path fill="#F6F8F9" d="M-447.041,519.96c0,1.021,1.021,2.04,1.021,2.04s0,1.02,1.02,1.02s2.04,0,2.04,0
				c-1.02,1.021-1.02,1.021-2.04,1.021c0,0,0,0,0,1.021c0,1.02,1.02,2.04,1.02,2.04c-1.02-1.021-1.02-1.021-2.04-1.021
				c0,0,0,0-1.021,0c-1.02,0-1.02,1.021-2.04,1.021c0-1.021,0-2.04,1.02-2.04v-1.021c-1.02,0-1.02-1.021-2.04-1.021
				c1.02,0,2.04,0,2.04,0s1.02,0,1.02-1.02C-448.06,520.98-448.06,520.98-447.041,519.96z"/>
			<path fill="#F6F8F9" d="M-459.28,519.96c0,1.021,1.02,2.04,1.02,2.04s0,1.02,1.02,1.02c1.021,0,2.041,0,2.041,0
				c-1.02,1.021-1.02,1.021-2.041,1.021c0,0,0,0,0,1.021c0,1.02,1.021,2.04,1.021,2.04c-1.021-1.021-1.021-1.021-2.041-1.021
				c0,0,0,0-1.02,0s-1.02,1.021-2.04,1.021c0-1.021,0-2.04,1.02-2.04v-1.021c-1.02,0-1.02-1.021-2.04-1.021c1.02,0,2.04,0,2.04,0
				s1.02,0,1.02-1.02S-459.28,520.98-459.28,519.96z"/>
		</g>
		<g>
			<path fill="#F6F8F9" d="M-383.8,507.72c0,1.021,1.02,2.04,1.02,2.04s0,1.021,1.02,1.021s2.041,0,2.041,0
				c-1.021,1.021-1.021,1.021-2.041,1.021c0,0,0,0,0,1.02s1.02,2.04,1.02,2.04c-1.02-1.021-1.02-1.021-2.04-1.021c0,0,0,0-1.02,0
				s-1.02,1.021-2.04,1.021c0-1.021,0-2.04,1.02-2.04v-1.02c-1.02,0-1.02-1.021-2.04-1.021c1.02,0,2.04,0,2.04,0s1.02,0,1.02-1.021
				C-384.82,508.74-383.8,508.74-383.8,507.72z"/>
			<path fill="#F6F8F9" d="M-372.58,507.72c0,1.021,1.02,2.04,1.02,2.04s0,1.021,1.02,1.021s2.04,0,2.04,0
				c-1.02,1.021-1.02,1.021-2.04,1.021c0,0,0,0,0,1.02s1.02,2.04,1.02,2.04c-1.02-1.021-1.02-1.021-2.04-1.021c0,0,0,0-1.02,0
				s-1.02,1.021-2.04,1.021c0-1.021,0-2.04,1.02-2.04v-1.02c-1.02,0-1.02-1.021-2.04-1.021c1.02,0,2.04,0,2.04,0s1.02,0,1.02-1.021
				C-372.58,508.74-372.58,508.74-372.58,507.72z"/>
			<path fill="#F6F8F9" d="M-395.02,507.72c0,1.021,1.02,2.04,1.02,2.04s0,1.021,1.02,1.021s2.04,0,2.04,0
				c-1.02,1.021-1.02,1.021-2.04,1.021c0,0,0,0,0,1.02s1.02,2.04,1.02,2.04c-1.02-1.021-1.02-1.021-2.04-1.021c0,0,0,0-1.02,0
				c-1.021,0-1.021,1.021-2.041,1.021c0-1.021,0-2.04,1.02-2.04v-1.02c-1.02,0-1.02-1.021-2.04-1.021c1.02,0,2.04,0,2.04,0
				s1.021,0,1.021-1.021C-396.041,508.74-396.041,508.74-395.02,507.72z"/>
			<path fill="#F6F8F9" d="M-407.26,507.72c0,1.021,1.02,2.04,1.02,2.04s0,1.021,1.021,1.021c1.02,0,2.04,0,2.04,0
				c-1.02,1.021-1.02,1.021-2.04,1.021c0,0,0,0,0,1.02s1.02,2.04,1.02,2.04c-1.02-1.021-1.02-1.021-2.041-1.021c0,0,0,0-1.02,0
				s-1.02,1.021-2.04,1.021c0-1.021,0-2.04,1.02-2.04v-1.02c-1.02,0-1.02-1.021-2.04-1.021c1.02,0,2.04,0,2.04,0s1.02,0,1.02-1.021
				C-407.26,508.74-407.26,508.74-407.26,507.72z"/>
			<path fill="#F6F8F9" d="M-418.48,507.72c0,1.021,1.02,2.04,1.02,2.04s0,1.021,1.02,1.021s2.04,0,2.04,0
				c-1.02,1.021-1.02,1.021-2.04,1.021c0,0,0,0,0,1.02s1.02,2.04,1.02,2.04c-1.02-1.021-1.02-1.021-2.04-1.021c0,0,0,0-1.02,0
				s-1.02,1.021-2.04,1.021c0-1.021,0-2.04,1.02-2.04v-1.02c-1.02,0-1.02-1.021-2.041-1.021c1.021,0,2.041,0,2.041,0
				s1.02,0,1.02-1.021C-419.5,508.74-418.48,508.74-418.48,507.72z"/>
			<path fill="#F6F8F9" d="M-429.7,507.72c0,1.021,1.02,2.04,1.02,2.04s0,1.021,1.02,1.021s2.04,0,2.04,0
				c-1.02,1.021-1.02,1.021-2.04,1.021c0,0,0,0,0,1.02s1.02,2.04,1.02,2.04c-1.02-1.021-1.02-1.021-2.04-1.021c0,0,0,0-1.02,0
				s-1.02,1.021-2.04,1.021c0-1.021,0-2.04,1.02-2.04v-1.02c-1.02,0-1.02-1.021-2.04-1.021c1.02,0,2.04,0,2.04,0s1.02,0,1.02-1.021
				C-430.72,508.74-430.72,508.74-429.7,507.72z"/>
			<path fill="#F6F8F9" d="M-441.94,507.72c0,1.021,1.02,2.04,1.02,2.04s0,1.021,1.02,1.021s2.041,0,2.041,0
				c-1.021,1.021-1.021,1.021-2.041,1.021c0,0,0,0,0,1.02s1.02,2.04,1.02,2.04c-1.02-1.021-1.02-1.021-2.04-1.021c0,0,0,0-1.02,0
				s-1.02,1.021-2.04,1.021c0-1.021,0-2.04,1.02-2.04v-1.02c-1.02,0-1.02-1.021-2.04-1.021c1.02,0,2.04,0,2.04,0s1.02,0,1.02-1.021
				C-441.94,508.74-441.94,508.74-441.94,507.72z"/>
			<path fill="#F6F8F9" d="M-453.16,507.72c0,1.021,1.02,2.04,1.02,2.04s0,1.021,1.02,1.021s2.041,0,2.041,0
				c-1.021,1.021-1.021,1.021-2.041,1.021c0,0,0,0,0,1.02s1.02,2.04,1.02,2.04c-1.02-1.021-1.02-1.021-2.04-1.021c0,0,0,0-1.02,0
				s-1.02,1.021-2.04,1.021c0-1.021,0-2.04,1.02-2.04v-1.02c-1.02,0-1.02-1.021-2.04-1.021c1.02,0,2.04,0,2.04,0s1.02,0,1.02-1.021
				C-454.18,508.74-453.16,508.74-453.16,507.72z"/>
			<path fill="#F6F8F9" d="M-464.38,507.72c0,1.021,1.021,2.04,1.021,2.04s0,1.021,1.02,1.021s2.04,0,2.04,0
				c-1.02,1.021-1.02,1.021-2.04,1.021c0,0,0,0,0,1.02s1.02,2.04,1.02,2.04c-1.02-1.021-1.02-1.021-2.04-1.021c0,0,0,0-1.021,0
				c-1.02,0-1.02,1.021-2.04,1.021c0-1.021,0-2.04,1.02-2.04v-1.02c-1.02,0-1.02-1.021-2.04-1.021c1.02,0,2.04,0,2.04,0
				s1.02,0,1.02-1.021C-465.4,508.74-465.4,508.74-464.38,507.72z"/>
		</g>
		<g>
			<path fill="#F6F8F9" d="M-383.8,532.2c0,1.02,1.02,2.04,1.02,2.04s0,1.02,1.02,1.02s2.041,0,2.041,0
				c-1.021,1.021-1.021,1.021-2.041,1.021c0,0,0,0,0,1.021c0,1.02,1.02,2.039,1.02,2.039c-1.02-1.02-1.02-1.02-2.04-1.02
				c0,0,0,0-1.02,0s-1.02,1.02-2.04,1.02c0-1.02,0-2.039,1.02-2.039v-1.021c-1.02,0-1.02-1.021-2.04-1.021c1.02,0,2.04,0,2.04,0
				s1.02,0,1.02-1.02C-384.82,533.22-383.8,533.22-383.8,532.2z"/>
			<path fill="#F6F8F9" d="M-372.58,532.2c0,1.02,1.02,2.04,1.02,2.04s0,1.02,1.02,1.02s2.04,0,2.04,0
				c-1.02,1.021-1.02,1.021-2.04,1.021c0,0,0,0,0,1.021c0,1.02,1.02,2.039,1.02,2.039c-1.02-1.02-1.02-1.02-2.04-1.02
				c0,0,0,0-1.02,0s-1.02,1.02-2.04,1.02c0-1.02,0-2.039,1.02-2.039v-1.021c-1.02,0-1.02-1.021-2.04-1.021c1.02,0,2.04,0,2.04,0
				s1.02,0,1.02-1.02C-372.58,533.22-372.58,533.22-372.58,532.2z"/>
			<path fill="#F6F8F9" d="M-395.02,532.2c0,1.02,1.02,2.04,1.02,2.04s0,1.02,1.02,1.02s2.04,0,2.04,0
				c-1.02,1.021-1.02,1.021-2.04,1.021c0,0,0,0,0,1.021c0,1.02,1.02,2.039,1.02,2.039c-1.02-1.02-1.02-1.02-2.04-1.02
				c0,0,0,0-1.02,0c-1.021,0-1.021,1.02-2.041,1.02c0-1.02,0-2.039,1.02-2.039v-1.021c-1.02,0-1.02-1.021-2.04-1.021
				c1.02,0,2.04,0,2.04,0s1.021,0,1.021-1.02C-396.041,533.22-396.041,533.22-395.02,532.2z"/>
			<path fill="#F6F8F9" d="M-407.26,532.2c0,1.02,1.02,2.04,1.02,2.04s0,1.02,1.021,1.02c1.02,0,2.04,0,2.04,0
				c-1.02,1.021-1.02,1.021-2.04,1.021c0,0,0,0,0,1.021c0,1.02,1.02,2.039,1.02,2.039c-1.02-1.02-1.02-1.02-2.041-1.02
				c0,0,0,0-1.02,0s-1.02,1.02-2.04,1.02c0-1.02,0-2.039,1.02-2.039v-1.021c-1.02,0-1.02-1.021-2.04-1.021c1.02,0,2.04,0,2.04,0
				s1.02,0,1.02-1.02C-407.26,533.22-407.26,533.22-407.26,532.2z"/>
			<path fill="#F6F8F9" d="M-418.48,532.2c0,1.02,1.02,2.04,1.02,2.04s0,1.02,1.02,1.02s2.04,0,2.04,0
				c-1.02,1.021-1.02,1.021-2.04,1.021c0,0,0,0,0,1.021c0,1.02,1.02,2.039,1.02,2.039c-1.02-1.02-1.02-1.02-2.04-1.02
				c0,0,0,0-1.02,0s-1.02,1.02-2.04,1.02c0-1.02,0-2.039,1.02-2.039v-1.021c-1.02,0-1.02-1.021-2.041-1.021c1.021,0,2.041,0,2.041,0
				s1.02,0,1.02-1.02C-419.5,533.22-418.48,533.22-418.48,532.2z"/>
			<path fill="#F6F8F9" d="M-429.7,532.2c0,1.02,1.02,2.04,1.02,2.04s0,1.02,1.02,1.02s2.04,0,2.04,0
				c-1.02,1.021-1.02,1.021-2.04,1.021c0,0,0,0,0,1.021c0,1.02,1.02,2.039,1.02,2.039c-1.02-1.02-1.02-1.02-2.04-1.02
				c0,0,0,0-1.02,0s-1.02,1.02-2.04,1.02c0-1.02,0-2.039,1.02-2.039v-1.021c-1.02,0-1.02-1.021-2.04-1.021c1.02,0,2.04,0,2.04,0
				s1.02,0,1.02-1.02C-430.72,533.22-430.72,533.22-429.7,532.2z"/>
			<path fill="#F6F8F9" d="M-441.94,532.2c0,1.02,1.02,2.04,1.02,2.04s0,1.02,1.02,1.02s2.041,0,2.041,0
				c-1.021,1.021-1.021,1.021-2.041,1.021c0,0,0,0,0,1.021c0,1.02,1.02,2.039,1.02,2.039c-1.02-1.02-1.02-1.02-2.04-1.02
				c0,0,0,0-1.02,0s-1.02,1.02-2.04,1.02c0-1.02,0-2.039,1.02-2.039v-1.021c-1.02,0-1.02-1.021-2.04-1.021c1.02,0,2.04,0,2.04,0
				s1.02,0,1.02-1.02C-441.94,533.22-441.94,533.22-441.94,532.2z"/>
			<path fill="#F6F8F9" d="M-453.16,532.2c0,1.02,1.02,2.04,1.02,2.04s0,1.02,1.02,1.02s2.041,0,2.041,0
				c-1.021,1.021-1.021,1.021-2.041,1.021c0,0,0,0,0,1.021c0,1.02,1.02,2.039,1.02,2.039c-1.02-1.02-1.02-1.02-2.04-1.02
				c0,0,0,0-1.02,0s-1.02,1.02-2.04,1.02c0-1.02,0-2.039,1.02-2.039v-1.021c-1.02,0-1.02-1.021-2.04-1.021c1.02,0,2.04,0,2.04,0
				s1.02,0,1.02-1.02C-454.18,533.22-453.16,533.22-453.16,532.2z"/>
			<path fill="#F6F8F9" d="M-464.38,532.2c0,1.02,1.021,2.04,1.021,2.04s0,1.02,1.02,1.02s2.04,0,2.04,0
				c-1.02,1.021-1.02,1.021-2.04,1.021c0,0,0,0,0,1.021c0,1.02,1.02,2.039,1.02,2.039c-1.02-1.02-1.02-1.02-2.04-1.02
				c0,0,0,0-1.021,0c-1.02,0-1.02,1.02-2.04,1.02c0-1.02,0-2.039,1.02-2.039v-1.021c-1.02,0-1.02-1.021-2.04-1.021
				c1.02,0,2.04,0,2.04,0s1.02,0,1.02-1.02C-465.4,533.22-465.4,533.22-464.38,532.2z"/>
		</g>
		<g>
			<path fill="#F6F8F9" d="M-383.8,556.68c0,1.021,1.02,2.04,1.02,2.04s0,1.021,1.02,1.021s2.041,0,2.041,0
				c-1.021,1.02-1.021,1.02-2.041,1.02c0,0,0,0,0,1.021s1.02,2.04,1.02,2.04c-1.02-1.02-1.02-1.02-2.04-1.02c0,0,0,0-1.02,0
				s-1.02,1.02-2.04,1.02c0-1.02,0-2.04,1.02-2.04v-1.021c-1.02,0-1.02-1.02-2.04-1.02c1.02,0,2.04,0,2.04,0s1.02,0,1.02-1.021
				C-384.82,558.72-383.8,557.7-383.8,556.68z"/>
			<path fill="#F6F8F9" d="M-372.58,556.68c0,1.021,1.02,2.04,1.02,2.04s0,1.021,1.02,1.021s2.04,0,2.04,0
				c-1.02,1.02-1.02,1.02-2.04,1.02c0,0,0,0,0,1.021s1.02,2.04,1.02,2.04c-1.02-1.02-1.02-1.02-2.04-1.02c0,0,0,0-1.02,0
				s-1.02,1.02-2.04,1.02c0-1.02,0-2.04,1.02-2.04v-1.021c-1.02,0-1.02-1.02-2.04-1.02c1.02,0,2.04,0,2.04,0s1.02,0,1.02-1.021
				C-372.58,558.72-372.58,557.7-372.58,556.68z"/>
			<path fill="#F6F8F9" d="M-395.02,556.68c0,1.021,1.02,2.04,1.02,2.04s0,1.021,1.02,1.021s2.04,0,2.04,0
				c-1.02,1.02-1.02,1.02-2.04,1.02c0,0,0,0,0,1.021s1.02,2.04,1.02,2.04c-1.02-1.02-1.02-1.02-2.04-1.02c0,0,0,0-1.02,0
				c-1.021,0-1.021,1.02-2.041,1.02c0-1.02,0-2.04,1.02-2.04v-1.021c-1.02,0-1.02-1.02-2.04-1.02c1.02,0,2.04,0,2.04,0
				s1.021,0,1.021-1.021C-396.041,558.72-396.041,557.7-395.02,556.68z"/>
			<path fill="#F6F8F9" d="M-407.26,556.68c0,1.021,1.02,2.04,1.02,2.04s0,1.021,1.021,1.021c1.02,0,2.04,0,2.04,0
				c-1.02,1.02-1.02,1.02-2.04,1.02c0,0,0,0,0,1.021s1.02,2.04,1.02,2.04c-1.02-1.02-1.02-1.02-2.041-1.02c0,0,0,0-1.02,0
				s-1.02,1.02-2.04,1.02c0-1.02,0-2.04,1.02-2.04v-1.021c-1.02,0-1.02-1.02-2.04-1.02c1.02,0,2.04,0,2.04,0s1.02,0,1.02-1.021
				C-407.26,558.72-407.26,557.7-407.26,556.68z"/>
			<path fill="#F6F8F9" d="M-418.48,556.68c0,1.021,1.02,2.04,1.02,2.04s0,1.021,1.02,1.021s2.04,0,2.04,0
				c-1.02,1.02-1.02,1.02-2.04,1.02c0,0,0,0,0,1.021s1.02,2.04,1.02,2.04c-1.02-1.02-1.02-1.02-2.04-1.02c0,0,0,0-1.02,0
				s-1.02,1.02-2.04,1.02c0-1.02,0-2.04,1.02-2.04v-1.021c-1.02,0-1.02-1.02-2.041-1.02c1.021,0,2.041,0,2.041,0s1.02,0,1.02-1.021
				C-419.5,558.72-418.48,557.7-418.48,556.68z"/>
			<path fill="#F6F8F9" d="M-429.7,556.68c0,1.021,1.02,2.04,1.02,2.04s0,1.021,1.02,1.021s2.04,0,2.04,0
				c-1.02,1.02-1.02,1.02-2.04,1.02c0,0,0,0,0,1.021s1.02,2.04,1.02,2.04c-1.02-1.02-1.02-1.02-2.04-1.02c0,0,0,0-1.02,0
				s-1.02,1.02-2.04,1.02c0-1.02,0-2.04,1.02-2.04v-1.021c-1.02,0-1.02-1.02-2.04-1.02c1.02,0,2.04,0,2.04,0s1.02,0,1.02-1.021
				C-430.72,558.72-430.72,557.7-429.7,556.68z"/>
			<path fill="#F6F8F9" d="M-441.94,556.68c0,1.021,1.02,2.04,1.02,2.04s0,1.021,1.02,1.021s2.041,0,2.041,0
				c-1.021,1.02-1.021,1.02-2.041,1.02c0,0,0,0,0,1.021s1.02,2.04,1.02,2.04c-1.02-1.02-1.02-1.02-2.04-1.02c0,0,0,0-1.02,0
				s-1.02,1.02-2.04,1.02c0-1.02,0-2.04,1.02-2.04v-1.021c-1.02,0-1.02-1.02-2.04-1.02c1.02,0,2.04,0,2.04,0s1.02,0,1.02-1.021
				C-441.94,558.72-441.94,557.7-441.94,556.68z"/>
			<path fill="#F6F8F9" d="M-453.16,556.68c0,1.021,1.02,2.04,1.02,2.04s0,1.021,1.02,1.021s2.041,0,2.041,0
				c-1.021,1.02-1.021,1.02-2.041,1.02c0,0,0,0,0,1.021s1.02,2.04,1.02,2.04c-1.02-1.02-1.02-1.02-2.04-1.02c0,0,0,0-1.02,0
				s-1.02,1.02-2.04,1.02c0-1.02,0-2.04,1.02-2.04v-1.021c-1.02,0-1.02-1.02-2.04-1.02c1.02,0,2.04,0,2.04,0s1.02,0,1.02-1.021
				C-454.18,558.72-453.16,557.7-453.16,556.68z"/>
			<path fill="#F6F8F9" d="M-464.38,556.68c0,1.021,1.021,2.04,1.021,2.04s0,1.021,1.02,1.021s2.04,0,2.04,0
				c-1.02,1.02-1.02,1.02-2.04,1.02c0,0,0,0,0,1.021s1.02,2.04,1.02,2.04c-1.02-1.02-1.02-1.02-2.04-1.02c0,0,0,0-1.021,0
				c-1.02,0-1.02,1.02-2.04,1.02c0-1.02,0-2.04,1.02-2.04v-1.021c-1.02,0-1.02-1.02-2.04-1.02c1.02,0,2.04,0,2.04,0
				s1.02,0,1.02-1.021C-465.4,558.72-465.4,557.7-464.38,556.68z"/>
		</g>
	</g>
</g>
</svg>
