<?xml version="1.0" encoding="utf-8"?>
<!-- Generator: Adobe Illustrator 16.0.0, SVG Export Plug-In . SVG Version: 6.00 Build 0)  -->
<!DOCTYPE svg PUBLIC "-//W3C//DTD SVG 1.1//EN" "http://www.w3.org/Graphics/SVG/1.1/DTD/svg11.dtd">
<svg version="1.1" id="Layer_1" xmlns="http://www.w3.org/2000/svg" xmlns:xlink="http://www.w3.org/1999/xlink" x="0px" y="0px"
	 width="306px" height="160.951px" viewBox="0 117.524 306 160.951" enable-background="new 0 117.524 306 160.951"
	 xml:space="preserve">
<g>
	<g>
		<polygon fill="#273476" points="0,224.811 0,214.087 0,181.913 0,171.188 77.353,171.188 0,132.513 0,263.487 77.353,224.811 		
			"/>
		<polygon fill="#273476" points="134.14,117.524 29.976,117.524 134.14,169.606 		"/>
		<polygon fill="#273476" points="30.144,278.393 134.14,278.393 134.14,226.394 		"/>
		<path fill="#273476" d="M0,117.524L0,117.524L0,117.524z"/>
		<rect y="263.487" fill="#FFFFFF" width="0" height="14.905"/>
		<rect y="117.524" fill="#FFFFFF" width="0" height="14.988"/>
		<rect x="134.14" y="278.393" fill="#FFFFFF" width="10.725" height="0.083"/>
		<polygon fill="#FFFFFF" points="0,171.188 0,181.913 144.865,181.913 144.865,117.524 134.14,117.524 134.14,169.606 
			29.976,117.524 0,117.524 107.33,171.188 89.344,171.188 0,126.517 0,117.524 0,117.524 0,117.524 0,132.513 77.353,171.188 		"/>
		<polygon fill="#FFFFFF" points="144.865,214.087 0,214.087 0,224.811 77.353,224.811 0,263.487 0,278.393 0.168,278.393 
			107.33,224.811 125.314,224.811 18.154,278.393 30.144,278.393 134.14,226.394 134.14,278.393 144.865,278.393 		"/>
		<rect x="144.865" y="278.393" fill="#D0202D" width="14.746" height="0.083"/>
		<polygon fill="#D0202D" points="0,181.913 0,214.087 144.865,214.087 144.865,278.393 159.61,278.393 159.61,117.524 
			144.865,117.524 144.865,181.913 		"/>
		<polygon fill="#D0202D" points="107.33,224.811 0.168,278.393 18.154,278.393 125.314,224.811 		"/>
		<polygon fill="#D0202D" points="89.344,171.188 107.33,171.188 0,117.524 0,126.517 		"/>
		<rect x="159.61" y="278.393" fill="#FFFFFF" width="2.681" height="0.083"/>
	</g>
	<g>
		<polygon fill="#ED2224" points="306,117.524 186.689,117.524 186.689,147.687 200.431,147.687 200.431,182.877 235.621,182.877 
			235.621,213.039 200.431,213.039 200.431,248.229 186.689,248.229 186.689,278.393 306,278.393 		"/>
		<polygon fill="#FFFFFF" points="200.431,248.229 200.431,213.039 235.621,213.039 235.621,182.877 200.431,182.877 
			200.431,147.687 186.689,147.687 186.689,248.229 		"/>
	</g>
</g>
<line fill="none" stroke="#D1D3D4" stroke-width="7" stroke-miterlimit="10" x1="172.564" y1="117.524" x2="172.564" y2="278.476"/>
</svg>
