<?xml version="1.0" encoding="utf-8"?>
<!-- Generator: Adobe Illustrator 19.1.0, SVG Export Plug-In . SVG Version: 6.00 Build 0)  -->
<svg version="1.1" id="usa" xmlns="http://www.w3.org/2000/svg" xmlns:xlink="http://www.w3.org/1999/xlink" x="0px" y="0px"
	 viewBox="-496 375 30 20" style="enable-background:new -496 375 30 20;" xml:space="preserve">
<style type="text/css">
	.st0{fill:#F6F8F9;}
	.st1{fill:#EA2127;}
	.st2{fill:#212E60;}
	.st3{fill-rule:evenodd;clip-rule:evenodd;fill:#F6F8F9;}
</style>
<g>
	<g>
		<rect x="-493.5" y="378.4" class="st0" width="25.5" height="13.4"/>
		<rect x="-493.5" y="390.8" class="st1" width="25.5" height="1"/>
		<rect x="-493.5" y="388.7" class="st1" width="25.5" height="1"/>
		<rect x="-493.5" y="386.7" class="st1" width="25.5" height="1"/>
		<rect x="-493.5" y="384.6" class="st1" width="25.5" height="1"/>
		<rect x="-493.5" y="382.5" class="st1" width="25.5" height="1"/>
		<rect x="-493.5" y="380.5" class="st1" width="25.5" height="1"/>
		<rect x="-493.5" y="378.4" class="st1" width="25.5" height="1"/>
	</g>
	<rect x="-493.5" y="378.4" class="st2" width="10.2" height="7.2"/>
	<g>
		<g>
			<path class="st3" d="M-484.4,384.6c0,0.1,0.1,0.2,0.1,0.2c0,0,0,0.1,0.1,0.1c0.1,0,0.2,0,0.2,0c-0.1,0.1-0.1,0.1-0.2,0.1
				c0,0,0,0,0,0.1c0,0.1,0.1,0.2,0.1,0.2c-0.1-0.1-0.1-0.1-0.2-0.1c0,0,0,0-0.1,0c-0.1,0-0.1,0.1-0.2,0.1c0-0.1,0-0.2,0.1-0.2
				c0,0,0-0.1,0-0.1c-0.1,0-0.1-0.1-0.2-0.1c0.1,0,0.2,0,0.2,0c0,0,0.1,0,0.1-0.1C-484.5,384.8-484.5,384.7-484.4,384.6z"/>
			<path class="st3" d="M-485.6,384.6c0,0.1,0.1,0.2,0.1,0.2c0,0,0,0.1,0.1,0.1c0.1,0,0.2,0,0.2,0c-0.1,0.1-0.1,0.1-0.2,0.1
				c0,0,0,0,0,0.1c0,0.1,0.1,0.2,0.1,0.2c-0.1-0.1-0.1-0.1-0.2-0.1c0,0,0,0-0.1,0c-0.1,0-0.1,0.1-0.2,0.1c0-0.1,0-0.2,0.1-0.2
				c0,0,0-0.1,0-0.1c-0.1,0-0.1-0.1-0.2-0.1c0.1,0,0.2,0,0.2,0c0,0,0.1,0,0.1-0.1C-485.6,384.8-485.6,384.7-485.6,384.6z"/>
			<path class="st3" d="M-486.7,384.6c0,0.1,0.1,0.2,0.1,0.2c0,0,0,0.1,0.1,0.1c0.1,0,0.2,0,0.2,0c-0.1,0.1-0.1,0.1-0.2,0.1
				c0,0,0,0,0,0.1c0,0.1,0.1,0.2,0.1,0.2c-0.1-0.1-0.1-0.1-0.2-0.1c0,0,0,0-0.1,0c-0.1,0-0.1,0.1-0.2,0.1c0-0.1,0-0.2,0.1-0.2
				c0,0,0-0.1,0-0.1c-0.1,0-0.1-0.1-0.2-0.1c0.1,0,0.2,0,0.2,0c0,0,0.1,0,0.1-0.1C-486.8,384.8-486.7,384.7-486.7,384.6z"/>
			<path class="st3" d="M-487.8,384.6c0,0.1,0.1,0.2,0.1,0.2c0,0,0,0.1,0.1,0.1c0.1,0,0.2,0,0.2,0c-0.1,0.1-0.1,0.1-0.2,0.1
				c0,0,0,0,0,0.1c0,0.1,0.1,0.2,0.1,0.2c-0.1-0.1-0.1-0.1-0.2-0.1c0,0,0,0-0.1,0c-0.1,0-0.1,0.1-0.2,0.1c0-0.1,0-0.2,0.1-0.2
				c0,0,0-0.1,0-0.1c-0.1,0-0.1-0.1-0.2-0.1c0.1,0,0.2,0,0.2,0c0,0,0.1,0,0.1-0.1C-487.9,384.8-487.9,384.7-487.8,384.6z"/>
			<path class="st3" d="M-489,384.6c0,0.1,0.1,0.2,0.1,0.2c0,0,0,0.1,0.1,0.1c0.1,0,0.2,0,0.2,0c-0.1,0.1-0.1,0.1-0.2,0.1
				c0,0,0,0,0,0.1c0,0.1,0.1,0.2,0.1,0.2c-0.1-0.1-0.1-0.1-0.2-0.1c0,0,0,0-0.1,0c-0.1,0-0.1,0.1-0.2,0.1c0-0.1,0-0.2,0.1-0.2
				c0,0,0-0.1,0-0.1c-0.1,0-0.1-0.1-0.2-0.1c0.1,0,0.2,0,0.2,0c0,0,0.1,0,0.1-0.1C-489,384.8-489,384.7-489,384.6z"/>
			<path class="st3" d="M-490.1,384.6c0,0.1,0.1,0.2,0.1,0.2c0,0,0,0.1,0.1,0.1c0.1,0,0.2,0,0.2,0c-0.1,0.1-0.1,0.1-0.2,0.1
				c0,0,0,0,0,0.1c0,0.1,0.1,0.2,0.1,0.2c-0.1-0.1-0.1-0.1-0.2-0.1c0,0,0,0-0.1,0c-0.1,0-0.1,0.1-0.2,0.1c0-0.1,0-0.2,0.1-0.2
				c0,0,0-0.1,0-0.1c-0.1,0-0.1-0.1-0.2-0.1c0.1,0,0.2,0,0.2,0c0,0,0.1,0,0.1-0.1C-490.2,384.8-490.1,384.7-490.1,384.6z"/>
			<path class="st3" d="M-491.2,384.6c0,0.1,0.1,0.2,0.1,0.2c0,0,0,0.1,0.1,0.1c0.1,0,0.2,0,0.2,0c-0.1,0.1-0.1,0.1-0.2,0.1
				c0,0,0,0,0,0.1c0,0.1,0.1,0.2,0.1,0.2c-0.1-0.1-0.1-0.1-0.2-0.1c0,0,0,0-0.1,0c-0.1,0-0.1,0.1-0.2,0.1c0-0.1,0-0.2,0.1-0.2
				c0,0,0-0.1,0-0.1c-0.1,0-0.1-0.1-0.2-0.1c0.1,0,0.2,0,0.2,0c0,0,0.1,0,0.1-0.1C-491.3,384.8-491.3,384.7-491.2,384.6z"/>
			<path class="st3" d="M-492.4,384.6c0,0.1,0.1,0.2,0.1,0.2c0,0,0,0.1,0.1,0.1c0.1,0,0.2,0,0.2,0c-0.1,0.1-0.1,0.1-0.2,0.1
				c0,0,0,0,0,0.1c0,0.1,0.1,0.2,0.1,0.2c-0.1-0.1-0.1-0.1-0.2-0.1c0,0,0,0-0.1,0c-0.1,0-0.1,0.1-0.2,0.1c0-0.1,0-0.2,0.1-0.2
				c0,0,0-0.1,0-0.1c-0.1,0-0.1-0.1-0.2-0.1c0.1,0,0.2,0,0.2,0c0,0,0.1,0,0.1-0.1C-492.4,384.8-492.4,384.7-492.4,384.6z"/>
		</g>
		<g>
			<path class="st3" d="M-484.4,382.2c0,0.1,0.1,0.2,0.1,0.2c0,0,0,0.1,0.1,0.1c0.1,0,0.2,0,0.2,0c-0.1,0.1-0.1,0.1-0.2,0.1
				c0,0,0,0,0,0.1c0,0.1,0.1,0.2,0.1,0.2c-0.1-0.1-0.1-0.1-0.2-0.1c0,0,0,0-0.1,0c-0.1,0-0.1,0.1-0.2,0.1c0-0.1,0-0.2,0.1-0.2
				c0,0,0-0.1,0-0.1c-0.1,0-0.1-0.1-0.2-0.1c0.1,0,0.2,0,0.2,0c0,0,0.1,0,0.1-0.1C-484.5,382.4-484.5,382.3-484.4,382.2z"/>
			<path class="st3" d="M-485.6,382.2c0,0.1,0.1,0.2,0.1,0.2c0,0,0,0.1,0.1,0.1c0.1,0,0.2,0,0.2,0c-0.1,0.1-0.1,0.1-0.2,0.1
				c0,0,0,0,0,0.1c0,0.1,0.1,0.2,0.1,0.2c-0.1-0.1-0.1-0.1-0.2-0.1c0,0,0,0-0.1,0c-0.1,0-0.1,0.1-0.2,0.1c0-0.1,0-0.2,0.1-0.2
				c0,0,0-0.1,0-0.1c-0.1,0-0.1-0.1-0.2-0.1c0.1,0,0.2,0,0.2,0c0,0,0.1,0,0.1-0.1C-485.6,382.4-485.6,382.3-485.6,382.2z"/>
			<path class="st3" d="M-486.7,382.2c0,0.1,0.1,0.2,0.1,0.2c0,0,0,0.1,0.1,0.1c0.1,0,0.2,0,0.2,0c-0.1,0.1-0.1,0.1-0.2,0.1
				c0,0,0,0,0,0.1c0,0.1,0.1,0.2,0.1,0.2c-0.1-0.1-0.1-0.1-0.2-0.1c0,0,0,0-0.1,0c-0.1,0-0.1,0.1-0.2,0.1c0-0.1,0-0.2,0.1-0.2
				c0,0,0-0.1,0-0.1c-0.1,0-0.1-0.1-0.2-0.1c0.1,0,0.2,0,0.2,0c0,0,0.1,0,0.1-0.1C-486.8,382.4-486.7,382.3-486.7,382.2z"/>
			<path class="st3" d="M-487.8,382.2c0,0.1,0.1,0.2,0.1,0.2c0,0,0,0.1,0.1,0.1c0.1,0,0.2,0,0.2,0c-0.1,0.1-0.1,0.1-0.2,0.1
				c0,0,0,0,0,0.1c0,0.1,0.1,0.2,0.1,0.2c-0.1-0.1-0.1-0.1-0.2-0.1c0,0,0,0-0.1,0c-0.1,0-0.1,0.1-0.2,0.1c0-0.1,0-0.2,0.1-0.2
				c0,0,0-0.1,0-0.1c-0.1,0-0.1-0.1-0.2-0.1c0.1,0,0.2,0,0.2,0c0,0,0.1,0,0.1-0.1C-487.9,382.4-487.9,382.3-487.8,382.2z"/>
			<path class="st3" d="M-489,382.2c0,0.1,0.1,0.2,0.1,0.2c0,0,0,0.1,0.1,0.1c0.1,0,0.2,0,0.2,0c-0.1,0.1-0.1,0.1-0.2,0.1
				c0,0,0,0,0,0.1c0,0.1,0.1,0.2,0.1,0.2c-0.1-0.1-0.1-0.1-0.2-0.1c0,0,0,0-0.1,0c-0.1,0-0.1,0.1-0.2,0.1c0-0.1,0-0.2,0.1-0.2
				c0,0,0-0.1,0-0.1c-0.1,0-0.1-0.1-0.2-0.1c0.1,0,0.2,0,0.2,0c0,0,0.1,0,0.1-0.1C-489,382.4-489,382.3-489,382.2z"/>
			<path class="st3" d="M-490.1,382.2c0,0.1,0.1,0.2,0.1,0.2c0,0,0,0.1,0.1,0.1c0.1,0,0.2,0,0.2,0c-0.1,0.1-0.1,0.1-0.2,0.1
				c0,0,0,0,0,0.1c0,0.1,0.1,0.2,0.1,0.2c-0.1-0.1-0.1-0.1-0.2-0.1c0,0,0,0-0.1,0c-0.1,0-0.1,0.1-0.2,0.1c0-0.1,0-0.2,0.1-0.2
				c0,0,0-0.1,0-0.1c-0.1,0-0.1-0.1-0.2-0.1c0.1,0,0.2,0,0.2,0c0,0,0.1,0,0.1-0.1C-490.2,382.4-490.1,382.3-490.1,382.2z"/>
			<path class="st3" d="M-491.2,382.2c0,0.1,0.1,0.2,0.1,0.2c0,0,0,0.1,0.1,0.1c0.1,0,0.2,0,0.2,0c-0.1,0.1-0.1,0.1-0.2,0.1
				c0,0,0,0,0,0.1c0,0.1,0.1,0.2,0.1,0.2c-0.1-0.1-0.1-0.1-0.2-0.1c0,0,0,0-0.1,0c-0.1,0-0.1,0.1-0.2,0.1c0-0.1,0-0.2,0.1-0.2
				c0,0,0-0.1,0-0.1c-0.1,0-0.1-0.1-0.2-0.1c0.1,0,0.2,0,0.2,0c0,0,0.1,0,0.1-0.1C-491.3,382.4-491.3,382.3-491.2,382.2z"/>
			<path class="st3" d="M-492.4,382.2c0,0.1,0.1,0.2,0.1,0.2c0,0,0,0.1,0.1,0.1c0.1,0,0.2,0,0.2,0c-0.1,0.1-0.1,0.1-0.2,0.1
				c0,0,0,0,0,0.1c0,0.1,0.1,0.2,0.1,0.2c-0.1-0.1-0.1-0.1-0.2-0.1c0,0,0,0-0.1,0c-0.1,0-0.1,0.1-0.2,0.1c0-0.1,0-0.2,0.1-0.2
				c0,0,0-0.1,0-0.1c-0.1,0-0.1-0.1-0.2-0.1c0.1,0,0.2,0,0.2,0c0,0,0.1,0,0.1-0.1C-492.4,382.4-492.4,382.3-492.4,382.2z"/>
		</g>
		<g>
			<path class="st3" d="M-484.4,379.8c0,0.1,0.1,0.2,0.1,0.2c0,0,0,0.1,0.1,0.1c0.1,0,0.2,0,0.2,0c-0.1,0.1-0.1,0.1-0.2,0.1
				c0,0,0,0,0,0.1c0,0.1,0.1,0.2,0.1,0.2c-0.1-0.1-0.1-0.1-0.2-0.1c0,0,0,0-0.1,0c-0.1,0-0.1,0.1-0.2,0.1c0-0.1,0-0.2,0.1-0.2
				c0,0,0-0.1,0-0.1c-0.1,0-0.1-0.1-0.2-0.1c0.1,0,0.2,0,0.2,0c0,0,0.1,0,0.1-0.1C-484.5,379.9-484.5,379.9-484.4,379.8z"/>
			<path class="st3" d="M-485.6,379.8c0,0.1,0.1,0.2,0.1,0.2c0,0,0,0.1,0.1,0.1c0.1,0,0.2,0,0.2,0c-0.1,0.1-0.1,0.1-0.2,0.1
				c0,0,0,0,0,0.1c0,0.1,0.1,0.2,0.1,0.2c-0.1-0.1-0.1-0.1-0.2-0.1c0,0,0,0-0.1,0c-0.1,0-0.1,0.1-0.2,0.1c0-0.1,0-0.2,0.1-0.2
				c0,0,0-0.1,0-0.1c-0.1,0-0.1-0.1-0.2-0.1c0.1,0,0.2,0,0.2,0c0,0,0.1,0,0.1-0.1C-485.6,379.9-485.6,379.9-485.6,379.8z"/>
			<path class="st3" d="M-486.7,379.8c0,0.1,0.1,0.2,0.1,0.2c0,0,0,0.1,0.1,0.1c0.1,0,0.2,0,0.2,0c-0.1,0.1-0.1,0.1-0.2,0.1
				c0,0,0,0,0,0.1c0,0.1,0.1,0.2,0.1,0.2c-0.1-0.1-0.1-0.1-0.2-0.1c0,0,0,0-0.1,0c-0.1,0-0.1,0.1-0.2,0.1c0-0.1,0-0.2,0.1-0.2
				c0,0,0-0.1,0-0.1c-0.1,0-0.1-0.1-0.2-0.1c0.1,0,0.2,0,0.2,0c0,0,0.1,0,0.1-0.1C-486.8,379.9-486.7,379.9-486.7,379.8z"/>
			<path class="st3" d="M-487.8,379.8c0,0.1,0.1,0.2,0.1,0.2c0,0,0,0.1,0.1,0.1c0.1,0,0.2,0,0.2,0c-0.1,0.1-0.1,0.1-0.2,0.1
				c0,0,0,0,0,0.1c0,0.1,0.1,0.2,0.1,0.2c-0.1-0.1-0.1-0.1-0.2-0.1c0,0,0,0-0.1,0c-0.1,0-0.1,0.1-0.2,0.1c0-0.1,0-0.2,0.1-0.2
				c0,0,0-0.1,0-0.1c-0.1,0-0.1-0.1-0.2-0.1c0.1,0,0.2,0,0.2,0c0,0,0.1,0,0.1-0.1C-487.9,379.9-487.9,379.9-487.8,379.8z"/>
			<path class="st3" d="M-489,379.8c0,0.1,0.1,0.2,0.1,0.2c0,0,0,0.1,0.1,0.1c0.1,0,0.2,0,0.2,0c-0.1,0.1-0.1,0.1-0.2,0.1
				c0,0,0,0,0,0.1c0,0.1,0.1,0.2,0.1,0.2c-0.1-0.1-0.1-0.1-0.2-0.1c0,0,0,0-0.1,0c-0.1,0-0.1,0.1-0.2,0.1c0-0.1,0-0.2,0.1-0.2
				c0,0,0-0.1,0-0.1c-0.1,0-0.1-0.1-0.2-0.1c0.1,0,0.2,0,0.2,0c0,0,0.1,0,0.1-0.1C-489,379.9-489,379.9-489,379.8z"/>
			<path class="st3" d="M-490.1,379.8c0,0.1,0.1,0.2,0.1,0.2c0,0,0,0.1,0.1,0.1c0.1,0,0.2,0,0.2,0c-0.1,0.1-0.1,0.1-0.2,0.1
				c0,0,0,0,0,0.1c0,0.1,0.1,0.2,0.1,0.2c-0.1-0.1-0.1-0.1-0.2-0.1c0,0,0,0-0.1,0c-0.1,0-0.1,0.1-0.2,0.1c0-0.1,0-0.2,0.1-0.2
				c0,0,0-0.1,0-0.1c-0.1,0-0.1-0.1-0.2-0.1c0.1,0,0.2,0,0.2,0c0,0,0.1,0,0.1-0.1C-490.2,379.9-490.1,379.9-490.1,379.8z"/>
			<path class="st3" d="M-491.2,379.8c0,0.1,0.1,0.2,0.1,0.2c0,0,0,0.1,0.1,0.1c0.1,0,0.2,0,0.2,0c-0.1,0.1-0.1,0.1-0.2,0.1
				c0,0,0,0,0,0.1c0,0.1,0.1,0.2,0.1,0.2c-0.1-0.1-0.1-0.1-0.2-0.1c0,0,0,0-0.1,0c-0.1,0-0.1,0.1-0.2,0.1c0-0.1,0-0.2,0.1-0.2
				c0,0,0-0.1,0-0.1c-0.1,0-0.1-0.1-0.2-0.1c0.1,0,0.2,0,0.2,0c0,0,0.1,0,0.1-0.1C-491.3,379.9-491.3,379.9-491.2,379.8z"/>
			<path class="st3" d="M-492.4,379.8c0,0.1,0.1,0.2,0.1,0.2c0,0,0,0.1,0.1,0.1c0.1,0,0.2,0,0.2,0c-0.1,0.1-0.1,0.1-0.2,0.1
				c0,0,0,0,0,0.1c0,0.1,0.1,0.2,0.1,0.2c-0.1-0.1-0.1-0.1-0.2-0.1c0,0,0,0-0.1,0c-0.1,0-0.1,0.1-0.2,0.1c0-0.1,0-0.2,0.1-0.2
				c0,0,0-0.1,0-0.1c-0.1,0-0.1-0.1-0.2-0.1c0.1,0,0.2,0,0.2,0c0,0,0.1,0,0.1-0.1C-492.4,379.9-492.4,379.9-492.4,379.8z"/>
		</g>
		<g>
			<path class="st3" d="M-485,378.6c0,0.1,0.1,0.2,0.1,0.2c0,0,0,0.1,0.1,0.1c0.1,0,0.2,0,0.2,0c-0.1,0.1-0.1,0.1-0.2,0.1
				c0,0,0,0,0,0.1c0,0.1,0.1,0.2,0.1,0.2c-0.1-0.1-0.1-0.1-0.2-0.1c0,0,0,0-0.1,0c-0.1,0-0.1,0.1-0.2,0.1c0-0.1,0-0.2,0.1-0.2
				c0,0,0-0.1,0-0.1c-0.1,0-0.1-0.1-0.2-0.1c0.1,0,0.2,0,0.2,0c0,0,0.1,0,0.1-0.1C-485.1,378.7-485,378.7-485,378.6z"/>
			<path class="st3" d="M-483.9,378.6c0,0.1,0.1,0.2,0.1,0.2c0,0,0,0.1,0.1,0.1c0.1,0,0.2,0,0.2,0c-0.1,0.1-0.1,0.1-0.2,0.1
				c0,0,0,0,0,0.1c0,0.1,0.1,0.2,0.1,0.2c-0.1-0.1-0.1-0.1-0.2-0.1c0,0,0,0-0.1,0c-0.1,0-0.1,0.1-0.2,0.1c0-0.1,0-0.2,0.1-0.2
				c0,0,0-0.1,0-0.1c-0.1,0-0.1-0.1-0.2-0.1c0.1,0,0.2,0,0.2,0c0,0,0.1,0,0.1-0.1C-483.9,378.7-483.9,378.7-483.9,378.6z"/>
			<path class="st3" d="M-486.1,378.6c0,0.1,0.1,0.2,0.1,0.2c0,0,0,0.1,0.1,0.1c0.1,0,0.2,0,0.2,0c-0.1,0.1-0.1,0.1-0.2,0.1
				c0,0,0,0,0,0.1c0,0.1,0.1,0.2,0.1,0.2c-0.1-0.1-0.1-0.1-0.2-0.1c0,0,0,0-0.1,0c-0.1,0-0.1,0.1-0.2,0.1c0-0.1,0-0.2,0.1-0.2
				c0,0,0-0.1,0-0.1c-0.1,0-0.1-0.1-0.2-0.1c0.1,0,0.2,0,0.2,0c0,0,0.1,0,0.1-0.1C-486.2,378.7-486.2,378.7-486.1,378.6z"/>
			<path class="st3" d="M-487.3,378.6c0,0.1,0.1,0.2,0.1,0.2c0,0,0,0.1,0.1,0.1c0.1,0,0.2,0,0.2,0c-0.1,0.1-0.1,0.1-0.2,0.1
				c0,0,0,0,0,0.1c0,0.1,0.1,0.2,0.1,0.2c-0.1-0.1-0.1-0.1-0.2-0.1c0,0,0,0-0.1,0c-0.1,0-0.1,0.1-0.2,0.1c0-0.1,0-0.2,0.1-0.2
				c0,0,0-0.1,0-0.1c-0.1,0-0.1-0.1-0.2-0.1c0.1,0,0.2,0,0.2,0c0,0,0.1,0,0.1-0.1C-487.3,378.7-487.3,378.7-487.3,378.6z"/>
			<path class="st3" d="M-488.4,378.6c0,0.1,0.1,0.2,0.1,0.2c0,0,0,0.1,0.1,0.1c0.1,0,0.2,0,0.2,0c-0.1,0.1-0.1,0.1-0.2,0.1
				c0,0,0,0,0,0.1c0,0.1,0.1,0.2,0.1,0.2c-0.1-0.1-0.1-0.1-0.2-0.1c0,0,0,0-0.1,0c-0.1,0-0.1,0.1-0.2,0.1c0-0.1,0-0.2,0.1-0.2
				c0,0,0-0.1,0-0.1c-0.1,0-0.1-0.1-0.2-0.1c0.1,0,0.2,0,0.2,0c0,0,0.1,0,0.1-0.1C-488.5,378.7-488.4,378.7-488.4,378.6z"/>
			<path class="st3" d="M-489.5,378.6c0,0.1,0.1,0.2,0.1,0.2c0,0,0,0.1,0.1,0.1c0.1,0,0.2,0,0.2,0c-0.1,0.1-0.1,0.1-0.2,0.1
				c0,0,0,0,0,0.1c0,0.1,0.1,0.2,0.1,0.2c-0.1-0.1-0.1-0.1-0.2-0.1c0,0,0,0-0.1,0c-0.1,0-0.1,0.1-0.2,0.1c0-0.1,0-0.2,0.1-0.2
				c0,0,0-0.1,0-0.1c-0.1,0-0.1-0.1-0.2-0.1c0.1,0,0.2,0,0.2,0c0,0,0.1,0,0.1-0.1C-489.6,378.7-489.6,378.7-489.5,378.6z"/>
			<path class="st3" d="M-490.7,378.6c0,0.1,0.1,0.2,0.1,0.2c0,0,0,0.1,0.1,0.1c0.1,0,0.2,0,0.2,0c-0.1,0.1-0.1,0.1-0.2,0.1
				c0,0,0,0,0,0.1c0,0.1,0.1,0.2,0.1,0.2c-0.1-0.1-0.1-0.1-0.2-0.1c0,0,0,0-0.1,0c-0.1,0-0.1,0.1-0.2,0.1c0-0.1,0-0.2,0.1-0.2
				c0,0,0-0.1,0-0.1c-0.1,0-0.1-0.1-0.2-0.1c0.1,0,0.2,0,0.2,0c0,0,0.1,0,0.1-0.1C-490.7,378.7-490.7,378.7-490.7,378.6z"/>
			<path class="st3" d="M-491.8,378.6c0,0.1,0.1,0.2,0.1,0.2c0,0,0,0.1,0.1,0.1c0.1,0,0.2,0,0.2,0c-0.1,0.1-0.1,0.1-0.2,0.1
				c0,0,0,0,0,0.1c0,0.1,0.1,0.2,0.1,0.2c-0.1-0.1-0.1-0.1-0.2-0.1c0,0,0,0-0.1,0c-0.1,0-0.1,0.1-0.2,0.1c0-0.1,0-0.2,0.1-0.2
				c0,0,0-0.1,0-0.1c-0.1,0-0.1-0.1-0.2-0.1c0.1,0,0.2,0,0.2,0c0,0,0.1,0,0.1-0.1C-491.9,378.7-491.8,378.7-491.8,378.6z"/>
			<path class="st3" d="M-492.9,378.6c0,0.1,0.1,0.2,0.1,0.2c0,0,0,0.1,0.1,0.1c0.1,0,0.2,0,0.2,0c-0.1,0.1-0.1,0.1-0.2,0.1
				c0,0,0,0,0,0.1c0,0.1,0.1,0.2,0.1,0.2c-0.1-0.1-0.1-0.1-0.2-0.1c0,0,0,0-0.1,0c-0.1,0-0.1,0.1-0.2,0.1c0-0.1,0-0.2,0.1-0.2
				c0,0,0-0.1,0-0.1c-0.1,0-0.1-0.1-0.2-0.1c0.1,0,0.2,0,0.2,0c0,0,0.1,0,0.1-0.1C-493,378.7-493,378.7-492.9,378.6z"/>
		</g>
		<g>
			<path class="st3" d="M-485,381c0,0.1,0.1,0.2,0.1,0.2c0,0,0,0.1,0.1,0.1c0.1,0,0.2,0,0.2,0c-0.1,0.1-0.1,0.1-0.2,0.1
				c0,0,0,0,0,0.1c0,0.1,0.1,0.2,0.1,0.2c-0.1-0.1-0.1-0.1-0.2-0.1c0,0,0,0-0.1,0c-0.1,0-0.1,0.1-0.2,0.1c0-0.1,0-0.2,0.1-0.2
				c0,0,0-0.1,0-0.1c-0.1,0-0.1-0.1-0.2-0.1c0.1,0,0.2,0,0.2,0c0,0,0.1,0,0.1-0.1C-485.1,381.1-485,381.1-485,381z"/>
			<path class="st3" d="M-483.9,381c0,0.1,0.1,0.2,0.1,0.2c0,0,0,0.1,0.1,0.1c0.1,0,0.2,0,0.2,0c-0.1,0.1-0.1,0.1-0.2,0.1
				c0,0,0,0,0,0.1c0,0.1,0.1,0.2,0.1,0.2c-0.1-0.1-0.1-0.1-0.2-0.1c0,0,0,0-0.1,0c-0.1,0-0.1,0.1-0.2,0.1c0-0.1,0-0.2,0.1-0.2
				c0,0,0-0.1,0-0.1c-0.1,0-0.1-0.1-0.2-0.1c0.1,0,0.2,0,0.2,0c0,0,0.1,0,0.1-0.1C-483.9,381.1-483.9,381.1-483.9,381z"/>
			<path class="st3" d="M-486.1,381c0,0.1,0.1,0.2,0.1,0.2c0,0,0,0.1,0.1,0.1c0.1,0,0.2,0,0.2,0c-0.1,0.1-0.1,0.1-0.2,0.1
				c0,0,0,0,0,0.1c0,0.1,0.1,0.2,0.1,0.2c-0.1-0.1-0.1-0.1-0.2-0.1c0,0,0,0-0.1,0c-0.1,0-0.1,0.1-0.2,0.1c0-0.1,0-0.2,0.1-0.2
				c0,0,0-0.1,0-0.1c-0.1,0-0.1-0.1-0.2-0.1c0.1,0,0.2,0,0.2,0c0,0,0.1,0,0.1-0.1C-486.2,381.1-486.2,381.1-486.1,381z"/>
			<path class="st3" d="M-487.3,381c0,0.1,0.1,0.2,0.1,0.2c0,0,0,0.1,0.1,0.1c0.1,0,0.2,0,0.2,0c-0.1,0.1-0.1,0.1-0.2,0.1
				c0,0,0,0,0,0.1c0,0.1,0.1,0.2,0.1,0.2c-0.1-0.1-0.1-0.1-0.2-0.1c0,0,0,0-0.1,0c-0.1,0-0.1,0.1-0.2,0.1c0-0.1,0-0.2,0.1-0.2
				c0,0,0-0.1,0-0.1c-0.1,0-0.1-0.1-0.2-0.1c0.1,0,0.2,0,0.2,0c0,0,0.1,0,0.1-0.1C-487.3,381.1-487.3,381.1-487.3,381z"/>
			<path class="st3" d="M-488.4,381c0,0.1,0.1,0.2,0.1,0.2c0,0,0,0.1,0.1,0.1c0.1,0,0.2,0,0.2,0c-0.1,0.1-0.1,0.1-0.2,0.1
				c0,0,0,0,0,0.1c0,0.1,0.1,0.2,0.1,0.2c-0.1-0.1-0.1-0.1-0.2-0.1c0,0,0,0-0.1,0c-0.1,0-0.1,0.1-0.2,0.1c0-0.1,0-0.2,0.1-0.2
				c0,0,0-0.1,0-0.1c-0.1,0-0.1-0.1-0.2-0.1c0.1,0,0.2,0,0.2,0c0,0,0.1,0,0.1-0.1C-488.5,381.1-488.4,381.1-488.4,381z"/>
			<path class="st3" d="M-489.5,381c0,0.1,0.1,0.2,0.1,0.2c0,0,0,0.1,0.1,0.1c0.1,0,0.2,0,0.2,0c-0.1,0.1-0.1,0.1-0.2,0.1
				c0,0,0,0,0,0.1c0,0.1,0.1,0.2,0.1,0.2c-0.1-0.1-0.1-0.1-0.2-0.1c0,0,0,0-0.1,0c-0.1,0-0.1,0.1-0.2,0.1c0-0.1,0-0.2,0.1-0.2
				c0,0,0-0.1,0-0.1c-0.1,0-0.1-0.1-0.2-0.1c0.1,0,0.2,0,0.2,0c0,0,0.1,0,0.1-0.1C-489.6,381.1-489.6,381.1-489.5,381z"/>
			<path class="st3" d="M-490.7,381c0,0.1,0.1,0.2,0.1,0.2c0,0,0,0.1,0.1,0.1c0.1,0,0.2,0,0.2,0c-0.1,0.1-0.1,0.1-0.2,0.1
				c0,0,0,0,0,0.1c0,0.1,0.1,0.2,0.1,0.2c-0.1-0.1-0.1-0.1-0.2-0.1c0,0,0,0-0.1,0c-0.1,0-0.1,0.1-0.2,0.1c0-0.1,0-0.2,0.1-0.2
				c0,0,0-0.1,0-0.1c-0.1,0-0.1-0.1-0.2-0.1c0.1,0,0.2,0,0.2,0c0,0,0.1,0,0.1-0.1C-490.7,381.1-490.7,381.1-490.7,381z"/>
			<path class="st3" d="M-491.8,381c0,0.1,0.1,0.2,0.1,0.2c0,0,0,0.1,0.1,0.1c0.1,0,0.2,0,0.2,0c-0.1,0.1-0.1,0.1-0.2,0.1
				c0,0,0,0,0,0.1c0,0.1,0.1,0.2,0.1,0.2c-0.1-0.1-0.1-0.1-0.2-0.1c0,0,0,0-0.1,0c-0.1,0-0.1,0.1-0.2,0.1c0-0.1,0-0.2,0.1-0.2
				c0,0,0-0.1,0-0.1c-0.1,0-0.1-0.1-0.2-0.1c0.1,0,0.2,0,0.2,0c0,0,0.1,0,0.1-0.1C-491.9,381.1-491.8,381.1-491.8,381z"/>
			<path class="st3" d="M-492.9,381c0,0.1,0.1,0.2,0.1,0.2c0,0,0,0.1,0.1,0.1c0.1,0,0.2,0,0.2,0c-0.1,0.1-0.1,0.1-0.2,0.1
				c0,0,0,0,0,0.1c0,0.1,0.1,0.2,0.1,0.2c-0.1-0.1-0.1-0.1-0.2-0.1c0,0,0,0-0.1,0c-0.1,0-0.1,0.1-0.2,0.1c0-0.1,0-0.2,0.1-0.2
				c0,0,0-0.1,0-0.1c-0.1,0-0.1-0.1-0.2-0.1c0.1,0,0.2,0,0.2,0c0,0,0.1,0,0.1-0.1C-493,381.1-493,381.1-492.9,381z"/>
		</g>
		<g>
			<path class="st3" d="M-485,383.4c0,0.1,0.1,0.2,0.1,0.2c0,0,0,0.1,0.1,0.1c0.1,0,0.2,0,0.2,0c-0.1,0.1-0.1,0.1-0.2,0.1
				c0,0,0,0,0,0.1c0,0.1,0.1,0.2,0.1,0.2c-0.1-0.1-0.1-0.1-0.2-0.1c0,0,0,0-0.1,0c-0.1,0-0.1,0.1-0.2,0.1c0-0.1,0-0.2,0.1-0.2
				c0,0,0-0.1,0-0.1c-0.1,0-0.1-0.1-0.2-0.1c0.1,0,0.2,0,0.2,0c0,0,0.1,0,0.1-0.1C-485.1,383.6-485,383.5-485,383.4z"/>
			<path class="st3" d="M-483.9,383.4c0,0.1,0.1,0.2,0.1,0.2c0,0,0,0.1,0.1,0.1c0.1,0,0.2,0,0.2,0c-0.1,0.1-0.1,0.1-0.2,0.1
				c0,0,0,0,0,0.1c0,0.1,0.1,0.2,0.1,0.2c-0.1-0.1-0.1-0.1-0.2-0.1c0,0,0,0-0.1,0c-0.1,0-0.1,0.1-0.2,0.1c0-0.1,0-0.2,0.1-0.2
				c0,0,0-0.1,0-0.1c-0.1,0-0.1-0.1-0.2-0.1c0.1,0,0.2,0,0.2,0c0,0,0.1,0,0.1-0.1C-483.9,383.6-483.9,383.5-483.9,383.4z"/>
			<path class="st3" d="M-486.1,383.4c0,0.1,0.1,0.2,0.1,0.2c0,0,0,0.1,0.1,0.1c0.1,0,0.2,0,0.2,0c-0.1,0.1-0.1,0.1-0.2,0.1
				c0,0,0,0,0,0.1c0,0.1,0.1,0.2,0.1,0.2c-0.1-0.1-0.1-0.1-0.2-0.1c0,0,0,0-0.1,0c-0.1,0-0.1,0.1-0.2,0.1c0-0.1,0-0.2,0.1-0.2
				c0,0,0-0.1,0-0.1c-0.1,0-0.1-0.1-0.2-0.1c0.1,0,0.2,0,0.2,0c0,0,0.1,0,0.1-0.1C-486.2,383.6-486.2,383.5-486.1,383.4z"/>
			<path class="st3" d="M-487.3,383.4c0,0.1,0.1,0.2,0.1,0.2c0,0,0,0.1,0.1,0.1c0.1,0,0.2,0,0.2,0c-0.1,0.1-0.1,0.1-0.2,0.1
				c0,0,0,0,0,0.1c0,0.1,0.1,0.2,0.1,0.2c-0.1-0.1-0.1-0.1-0.2-0.1c0,0,0,0-0.1,0c-0.1,0-0.1,0.1-0.2,0.1c0-0.1,0-0.2,0.1-0.2
				c0,0,0-0.1,0-0.1c-0.1,0-0.1-0.1-0.2-0.1c0.1,0,0.2,0,0.2,0c0,0,0.1,0,0.1-0.1C-487.3,383.6-487.3,383.5-487.3,383.4z"/>
			<path class="st3" d="M-488.4,383.4c0,0.1,0.1,0.2,0.1,0.2c0,0,0,0.1,0.1,0.1c0.1,0,0.2,0,0.2,0c-0.1,0.1-0.1,0.1-0.2,0.1
				c0,0,0,0,0,0.1c0,0.1,0.1,0.2,0.1,0.2c-0.1-0.1-0.1-0.1-0.2-0.1c0,0,0,0-0.1,0c-0.1,0-0.1,0.1-0.2,0.1c0-0.1,0-0.2,0.1-0.2
				c0,0,0-0.1,0-0.1c-0.1,0-0.1-0.1-0.2-0.1c0.1,0,0.2,0,0.2,0c0,0,0.1,0,0.1-0.1C-488.5,383.6-488.4,383.5-488.4,383.4z"/>
			<path class="st3" d="M-489.5,383.4c0,0.1,0.1,0.2,0.1,0.2c0,0,0,0.1,0.1,0.1c0.1,0,0.2,0,0.2,0c-0.1,0.1-0.1,0.1-0.2,0.1
				c0,0,0,0,0,0.1c0,0.1,0.1,0.2,0.1,0.2c-0.1-0.1-0.1-0.1-0.2-0.1c0,0,0,0-0.1,0c-0.1,0-0.1,0.1-0.2,0.1c0-0.1,0-0.2,0.1-0.2
				c0,0,0-0.1,0-0.1c-0.1,0-0.1-0.1-0.2-0.1c0.1,0,0.2,0,0.2,0c0,0,0.1,0,0.1-0.1C-489.6,383.6-489.6,383.5-489.5,383.4z"/>
			<path class="st3" d="M-490.7,383.4c0,0.1,0.1,0.2,0.1,0.2c0,0,0,0.1,0.1,0.1c0.1,0,0.2,0,0.2,0c-0.1,0.1-0.1,0.1-0.2,0.1
				c0,0,0,0,0,0.1c0,0.1,0.1,0.2,0.1,0.2c-0.1-0.1-0.1-0.1-0.2-0.1c0,0,0,0-0.1,0c-0.1,0-0.1,0.1-0.2,0.1c0-0.1,0-0.2,0.1-0.2
				c0,0,0-0.1,0-0.1c-0.1,0-0.1-0.1-0.2-0.1c0.1,0,0.2,0,0.2,0c0,0,0.1,0,0.1-0.1C-490.7,383.6-490.7,383.5-490.7,383.4z"/>
			<path class="st3" d="M-491.8,383.4c0,0.1,0.1,0.2,0.1,0.2c0,0,0,0.1,0.1,0.1c0.1,0,0.2,0,0.2,0c-0.1,0.1-0.1,0.1-0.2,0.1
				c0,0,0,0,0,0.1c0,0.1,0.1,0.2,0.1,0.2c-0.1-0.1-0.1-0.1-0.2-0.1c0,0,0,0-0.1,0c-0.1,0-0.1,0.1-0.2,0.1c0-0.1,0-0.2,0.1-0.2
				c0,0,0-0.1,0-0.1c-0.1,0-0.1-0.1-0.2-0.1c0.1,0,0.2,0,0.2,0c0,0,0.1,0,0.1-0.1C-491.9,383.6-491.8,383.5-491.8,383.4z"/>
			<path class="st3" d="M-492.9,383.4c0,0.1,0.1,0.2,0.1,0.2c0,0,0,0.1,0.1,0.1c0.1,0,0.2,0,0.2,0c-0.1,0.1-0.1,0.1-0.2,0.1
				c0,0,0,0,0,0.1c0,0.1,0.1,0.2,0.1,0.2c-0.1-0.1-0.1-0.1-0.2-0.1c0,0,0,0-0.1,0c-0.1,0-0.1,0.1-0.2,0.1c0-0.1,0-0.2,0.1-0.2
				c0,0,0-0.1,0-0.1c-0.1,0-0.1-0.1-0.2-0.1c0.1,0,0.2,0,0.2,0c0,0,0.1,0,0.1-0.1C-493,383.6-493,383.5-492.9,383.4z"/>
		</g>
	</g>
</g>
</svg>
