<?xml version="1.0" encoding="utf-8"?>
<!-- Generator: Adobe Illustrator 19.1.0, SVG Export Plug-In . SVG Version: 6.00 Build 0)  -->
<svg version="1.1" id="australia" xmlns="http://www.w3.org/2000/svg" xmlns:xlink="http://www.w3.org/1999/xlink" x="0px" y="0px"
	 viewBox="0 2 27 18" style="enable-background:new 0 0 30 20;" xml:space="preserve">
<style type="text/css">
	.st0{fill:#293475;}
	.st1{fill:#FFFFFF;}
	.st2{fill:#CC202D;}
	.st3{fill-rule:evenodd;clip-rule:evenodd;fill:#CC202D;}
</style>
<g>
	<rect x="2.3" y="4" class="st0" width="26" height="14"/>
	<polygon class="st1" points="15.1,6.1 9.7,6.1 9.7,4 7.7,4 7.7,6.1 2.3,6.1 2.3,8.2 7.7,8.2 7.7,10.3 9.7,10.3 9.7,8.2 15.1,8.2 	
		"/>
	<g>
		<polygon class="st1" points="13.6,4 9.8,5.9 7.6,5.9 3.8,4 2.3,4 2.3,4.7 5.1,6.1 8.6,7.1 12.3,6.1 15.1,4.7 15.1,4 		"/>
		<polygon class="st1" points="8.8,7.2 5.1,8.2 2.3,9.6 2.3,10.3 3.8,10.3 7.6,8.4 9.8,8.4 13.6,10.3 15.1,10.3 15.1,9.6 12.3,8.2 
					"/>
	</g>
	<polygon class="st2" points="15.1,6.5 9.3,6.5 9.3,4 8.1,4 8.1,6.5 2.3,6.5 2.3,7.8 8.1,7.8 8.1,10.3 9.3,10.3 9.3,7.8 15.1,7.8 	
		"/>
	<g>
		<polygon class="st2" points="5.6,6.1 6.6,6.1 2.3,4 2.3,4.4 		"/>
		<polygon class="st2" points="14.1,4 9.9,6.1 10.8,6.1 15.1,4 		"/>
		<polygon class="st2" points="11.8,8.2 10.8,8.2 15.1,10.3 15.1,9.9 		"/>
		<polygon class="st2" points="2.3,10.3 3.3,10.3 7.5,8.2 6.6,8.2 		"/>
	</g>
	<g>
		<path class="st3" d="M21.9,14.8c0,0-0.1-0.1-0.1-0.1c-0.1-0.1-0.2-0.1-0.3-0.2c0,0,0,0,0,0c0,0,0,0,0,0c-0.1,0.1-0.2,0.1-0.3,0.2
			l-0.2,0.2l0-0.1c0,0,0-0.1,0-0.1c0-0.1,0.1-0.2,0.1-0.3c0-0.1,0-0.1,0-0.1c-0.1-0.1-0.2-0.1-0.2-0.2c0,0-0.1-0.1-0.1-0.1l-0.1-0.1
			h0.2c0.1,0,0.2,0,0.3,0c0.1,0,0.1,0,0.2,0l0,0c0,0,0.1,0,0.1-0.1c0-0.1,0.1-0.2,0.1-0.3c0,0,0-0.1,0-0.1l0-0.1l0.1,0.3
			c0,0.1,0.1,0.2,0.1,0.3c0,0.1,0,0.1,0.1,0.1l0,0c0.1,0,0.1,0,0.2,0c0,0,0.1,0,0.1,0c0,0,0.1,0,0.1,0h0.2L22.2,14
			c0,0-0.1,0.1-0.1,0.1c-0.1,0.1-0.2,0.1-0.3,0.2c0,0,0,0,0,0.1c0,0.1,0.1,0.2,0.1,0.3l0.1,0.3L21.9,14.8z"/>
		<path class="st1" d="M21.5,13.4c0.1,0.2,0.1,0.3,0.1,0.4c0,0.1,0,0.1,0.1,0.1c0,0,0,0,0,0c0.1,0,0.1,0,0.2,0c0.1,0,0.2,0,0.3,0
			c-0.1,0.1-0.3,0.2-0.4,0.3c-0.1,0-0.1,0.1,0,0.1c0,0.1,0.1,0.3,0.1,0.4c-0.1-0.1-0.3-0.2-0.4-0.3c0,0,0,0-0.1,0c0,0,0,0-0.1,0
			c-0.1,0.1-0.2,0.2-0.4,0.3c0.1-0.2,0.1-0.3,0.1-0.4c0-0.1,0-0.1-0.1-0.2c-0.1-0.1-0.2-0.2-0.4-0.3c0.1,0,0.2,0,0.3,0
			c0.1,0,0.1,0,0.2,0c0,0,0,0,0,0c0.1,0,0.1,0,0.1-0.1C21.4,13.7,21.4,13.6,21.5,13.4 M21.5,13.1l-0.1,0.3c0,0,0,0.1,0,0.1
			c0,0.1-0.1,0.2-0.1,0.3c0,0,0,0,0,0c0,0,0,0,0,0l0,0c-0.1,0-0.1,0-0.2,0c0,0-0.1,0-0.1,0c0,0-0.1,0-0.1,0h-0.3l0.2,0.2
			c0,0,0.1,0.1,0.1,0.1c0.1,0.1,0.2,0.1,0.2,0.2c0,0,0,0,0,0c0,0,0,0,0,0c0,0.1-0.1,0.2-0.1,0.3c0,0,0,0.1,0,0.1L20.8,15l0.2-0.2
			c0,0,0.1-0.1,0.1-0.1c0.1-0.1,0.2-0.1,0.3-0.2c0,0,0,0,0,0c0,0,0,0,0,0c0.1,0.1,0.2,0.1,0.3,0.2c0,0,0.1,0.1,0.1,0.1l0.2,0.2
			L22,14.7c0-0.1,0-0.1,0-0.1c0-0.1-0.1-0.2-0.1-0.3c0,0,0,0,0,0c0,0,0,0,0,0c0.1-0.1,0.2-0.1,0.3-0.2c0,0,0.1-0.1,0.1-0.1l0.2-0.2
			h-0.3c-0.1,0-0.1,0-0.1,0c0,0-0.1,0-0.1,0c-0.1,0-0.1,0-0.2,0l0,0c0,0,0,0,0,0c0,0,0,0,0,0c0-0.1-0.1-0.2-0.1-0.3c0,0,0-0.1,0-0.1
			L21.5,13.1L21.5,13.1z"/>
	</g>
	<g>
		<path class="st3" d="M18.9,10.2c0,0-0.1-0.1-0.1-0.1c-0.1-0.1-0.2-0.1-0.3-0.2c0,0,0,0,0,0c0,0,0,0,0,0c-0.1,0.1-0.2,0.1-0.2,0.2
			L18,10.2l0-0.1c0,0,0-0.1,0-0.1c0-0.1,0.1-0.2,0.1-0.3c0-0.1,0-0.1,0-0.1C18,9.5,18,9.5,17.9,9.4c0,0-0.1-0.1-0.1-0.1l-0.1-0.1
			h0.2c0.1,0,0.2,0,0.3,0c0.1,0,0.1,0,0.2,0l0,0c0,0,0.1,0,0.1-0.1c0-0.1,0.1-0.2,0.1-0.3c0,0,0-0.1,0-0.1l0-0.1
			c0,0,0.1,0.2,0.1,0.3c0,0.1,0.1,0.2,0.1,0.3c0,0.1,0,0.1,0.1,0.1l0,0c0.1,0,0.1,0,0.2,0c0,0,0.1,0,0.1,0c0,0,0.1,0,0.1,0h0.2
			l-0.1,0.1c0,0-0.1,0.1-0.1,0.1c-0.1,0.1-0.2,0.1-0.3,0.2c0,0,0,0,0,0.1c0,0.1,0.1,0.2,0.1,0.3l0.1,0.3L18.9,10.2z"/>
		<path class="st1" d="M18.5,8.7c0.1,0.2,0.1,0.3,0.1,0.4c0,0.1,0,0.1,0.1,0.1c0,0,0,0,0,0c0.1,0,0.1,0,0.2,0c0.1,0,0.2,0,0.3,0
			c-0.1,0.1-0.3,0.2-0.4,0.3c-0.1,0-0.1,0.1,0,0.1c0,0.1,0.1,0.3,0.1,0.4c-0.1-0.1-0.3-0.2-0.4-0.3c0,0,0,0-0.1,0c0,0,0,0-0.1,0
			c-0.1,0.1-0.2,0.2-0.4,0.3c0.1-0.2,0.1-0.3,0.1-0.4c0-0.1,0-0.1-0.1-0.2c-0.1-0.1-0.2-0.2-0.4-0.3c0.1,0,0.2,0,0.3,0
			c0.1,0,0.1,0,0.2,0c0,0,0,0,0,0c0.1,0,0.1,0,0.1-0.1C18.4,9,18.5,8.9,18.5,8.7 M18.5,8.4l-0.1,0.3c0,0,0,0.1,0,0.1
			c0,0.1-0.1,0.2-0.1,0.3c0,0,0,0,0,0c0,0,0,0,0,0l0,0c-0.1,0-0.1,0-0.2,0c0,0-0.1,0-0.1,0c0,0-0.1,0-0.1,0h-0.3l0.2,0.2
			c0,0,0.1,0.1,0.1,0.1c0.1,0.1,0.2,0.1,0.2,0.2c0,0,0,0,0,0c0,0,0,0,0,0c0,0.1-0.1,0.2-0.1,0.3c0,0,0,0.1,0,0.1l-0.1,0.3l0.2-0.2
			c0,0,0.1-0.1,0.1-0.1c0.1-0.1,0.2-0.1,0.2-0.2c0,0,0,0,0,0c0,0,0,0,0,0c0.1,0.1,0.2,0.1,0.3,0.2c0,0,0.1,0.1,0.1,0.1l0.2,0.2
			l-0.1-0.3c0,0,0-0.1,0-0.1c0-0.1-0.1-0.2-0.1-0.3c0,0,0,0,0,0c0,0,0,0,0,0c0.1-0.1,0.2-0.1,0.3-0.2c0,0,0.1-0.1,0.1-0.1l0.2-0.2
			h-0.3c-0.1,0-0.1,0-0.1,0c0,0-0.1,0-0.1,0c-0.1,0-0.1,0-0.2,0l0,0c0,0,0,0,0,0c0,0,0,0,0,0c0-0.1-0.1-0.2-0.1-0.3c0,0,0-0.1,0-0.1
			L18.5,8.4L18.5,8.4z"/>
	</g>
	<g>
		<path class="st3" d="M21.9,7.2c0,0-0.1-0.1-0.1-0.1C21.7,7,21.6,7,21.5,6.9c0,0,0,0,0,0c0,0,0,0,0,0c-0.1,0.1-0.2,0.1-0.2,0.2
			l-0.2,0.2l0-0.1c0,0,0-0.1,0-0.1c0-0.1,0.1-0.2,0.1-0.3c0-0.1,0-0.1,0-0.1c-0.1-0.1-0.2-0.1-0.2-0.2c0,0-0.1-0.1-0.1-0.1l-0.1-0.1
			h0.2c0.1,0,0.2,0,0.3,0c0.1,0,0.1,0,0.2,0l0,0c0,0,0.1,0,0.1-0.1c0-0.1,0.1-0.2,0.1-0.3c0,0,0-0.1,0-0.1l0-0.1l0.1,0.3
			c0,0.1,0.1,0.2,0.1,0.3c0,0.1,0,0.1,0.1,0.1l0,0c0.1,0,0.1,0,0.2,0c0,0,0.1,0,0.1,0c0,0,0.1,0,0.1,0h0.2l-0.1,0.1
			c0,0-0.1,0.1-0.1,0.1c-0.1,0.1-0.2,0.1-0.3,0.2c0,0,0,0,0,0.1c0,0.1,0.1,0.2,0.1,0.3L22,7.3L21.9,7.2z"/>
		<path class="st1" d="M21.5,5.8c0.1,0.2,0.1,0.3,0.1,0.4c0,0.1,0,0.1,0.1,0.1c0,0,0,0,0,0c0.1,0,0.1,0,0.2,0c0.1,0,0.2,0,0.3,0
			c-0.1,0.1-0.3,0.2-0.4,0.3c-0.1,0-0.1,0.1,0,0.1c0,0.1,0.1,0.3,0.1,0.4c-0.1-0.1-0.3-0.2-0.4-0.3c0,0,0,0-0.1,0c0,0,0,0-0.1,0
			C21.3,6.9,21.2,7,21,7.1c0.1-0.2,0.1-0.3,0.1-0.4c0-0.1,0-0.1-0.1-0.2c-0.1-0.1-0.2-0.2-0.4-0.3c0.1,0,0.2,0,0.3,0
			c0.1,0,0.1,0,0.2,0c0,0,0,0,0,0c0.1,0,0.1,0,0.1-0.1C21.4,6,21.4,5.9,21.5,5.8 M21.5,5.4l-0.1,0.3c0,0,0,0.1,0,0.1
			c0,0.1-0.1,0.2-0.1,0.3c0,0,0,0,0,0c0,0,0,0,0,0l0,0c-0.1,0-0.1,0-0.2,0c0,0-0.1,0-0.1,0c0,0-0.1,0-0.1,0h-0.3l0.2,0.2
			c0,0,0.1,0.1,0.1,0.1C20.9,6.5,21,6.6,21,6.6c0,0,0,0,0,0c0,0,0,0,0,0C21,6.8,21,6.9,21,7c0,0,0,0.1,0,0.1l-0.1,0.3l0.2-0.2
			c0,0,0.1-0.1,0.1-0.1C21.3,7,21.4,7,21.5,6.9c0,0,0,0,0,0c0,0,0,0,0,0c0.1,0.1,0.2,0.1,0.3,0.2c0,0,0.1,0.1,0.1,0.1l0.2,0.2
			L22,7.1c0,0,0-0.1,0-0.1c0-0.1-0.1-0.2-0.1-0.3c0,0,0,0,0,0c0,0,0,0,0,0c0.1-0.1,0.2-0.1,0.3-0.2c0,0,0.1-0.1,0.1-0.1l0.2-0.2
			h-0.3c-0.1,0-0.1,0-0.1,0c0,0-0.1,0-0.1,0c-0.1,0-0.1,0-0.2,0l0,0c0,0,0,0,0,0c0,0,0,0,0,0c0-0.1-0.1-0.2-0.1-0.3c0,0,0-0.1,0-0.1
			L21.5,5.4L21.5,5.4z"/>
	</g>
	<g>
		<path class="st3" d="M24.4,9.4c0,0-0.1-0.1-0.1-0.1c-0.1-0.1-0.2-0.1-0.3-0.2c0,0,0,0,0,0c0,0,0,0,0,0c-0.1,0.1-0.2,0.1-0.2,0.2
			l-0.2,0.2l0-0.1c0,0,0-0.1,0-0.1c0-0.1,0.1-0.2,0.1-0.3c0-0.1,0-0.1,0-0.1c-0.1-0.1-0.2-0.1-0.2-0.2c0,0-0.1-0.1-0.1-0.1l-0.1-0.1
			h0.2c0.1,0,0.2,0,0.3,0c0.1,0,0.1,0,0.2,0l0,0c0,0,0.1,0,0.1-0.1c0-0.1,0.1-0.2,0.1-0.3c0,0,0-0.1,0-0.1l0-0.1
			c0,0,0.1,0.2,0.1,0.3c0,0.1,0.1,0.2,0.1,0.3c0,0.1,0,0.1,0.1,0.1l0,0c0.1,0,0.1,0,0.2,0c0,0,0.1,0,0.1,0c0,0,0.1,0,0.1,0h0.2
			l-0.1,0.1c0,0-0.1,0.1-0.1,0.1c-0.1,0.1-0.2,0.1-0.3,0.2c0,0,0,0,0,0.1c0,0.1,0.1,0.2,0.1,0.3l0.1,0.3L24.4,9.4z"/>
		<path class="st1" d="M24,8c0.1,0.2,0.1,0.3,0.1,0.4c0,0.1,0,0.1,0.1,0.1c0,0,0,0,0,0c0.1,0,0.1,0,0.2,0c0.1,0,0.2,0,0.3,0
			c-0.1,0.1-0.3,0.2-0.4,0.3c-0.1,0-0.1,0.1,0,0.1c0,0.1,0.1,0.3,0.1,0.4c-0.1-0.1-0.3-0.2-0.4-0.3c0,0,0,0-0.1,0c0,0,0,0-0.1,0
			c-0.1,0.1-0.2,0.2-0.4,0.3c0.1-0.2,0.1-0.3,0.1-0.4c0-0.1,0-0.1-0.1-0.2c-0.1-0.1-0.2-0.2-0.4-0.3c0.1,0,0.2,0,0.3,0
			c0.1,0,0.1,0,0.2,0c0,0,0,0,0,0c0.1,0,0.1,0,0.1-0.1C23.9,8.3,23.9,8.1,24,8 M24,7.6l-0.1,0.3c0,0,0,0.1,0,0.1
			c0,0.1-0.1,0.2-0.1,0.3c0,0,0,0,0,0c0,0,0,0,0,0l0,0c-0.1,0-0.1,0-0.2,0c0,0-0.1,0-0.1,0c0,0-0.1,0-0.1,0H23l0.2,0.2
			c0,0,0.1,0.1,0.1,0.1c0.1,0.1,0.2,0.1,0.2,0.2c0,0,0,0,0,0c0,0,0,0,0,0c0,0.1-0.1,0.2-0.1,0.3c0,0,0,0.1,0,0.1l-0.1,0.3l0.2-0.2
			c0,0,0.1-0.1,0.1-0.1c0.1-0.1,0.2-0.1,0.2-0.2c0,0,0,0,0,0c0,0,0,0,0,0c0.1,0.1,0.2,0.1,0.3,0.2c0,0,0.1,0.1,0.1,0.1l0.2,0.2
			l-0.1-0.3c0,0,0-0.1,0-0.1c0-0.1-0.1-0.2-0.1-0.3c0,0,0,0,0,0c0,0,0,0,0,0c0.1-0.1,0.2-0.1,0.3-0.2c0,0,0.1-0.1,0.1-0.1L25,8.4
			h-0.3c-0.1,0-0.1,0-0.1,0c0,0-0.1,0-0.1,0c-0.1,0-0.1,0-0.2,0l0,0c0,0,0,0,0,0c0,0,0,0,0,0c0-0.1-0.1-0.2-0.1-0.3c0,0,0-0.1,0-0.1
			L24,7.6L24,7.6z"/>
	</g>
</g>
</svg>
