<?xml version="1.0" encoding="utf-8"?>
<!-- Generator: Adobe Illustrator 21.1.0, SVG Export Plug-In . SVG Version: 6.00 Build 0)  -->
<svg version="1.1" id="columbia" xmlns="http://www.w3.org/2000/svg" xmlns:xlink="http://www.w3.org/1999/xlink" x="0px" y="0px"
	 viewBox="0 0 30 20" style="enable-background:new 0 0 30 20;" xml:space="preserve">
<style type="text/css">
	.st0{fill:#FBD016;}
	.st1{fill:#003892;}
	.st2{fill:#CD1126;}
</style>
<g id="xNqFre_1_">
	<g>
		<path class="st0" d="M2.3,10.1c0-2.8,0-5.5,0-8.3c0-0.2,0-0.2,0.2-0.2c8.4,0,16.8,0,25.2,0c0.2,0,0.2,0.1,0.2,0.2
			c0,2.8,0,5.5,0,8.3C19.3,10.1,10.8,10.1,2.3,10.1z"/>
		<path class="st1" d="M2.3,10.1c8.5,0,17.1,0,25.6,0c0,1.4,0,2.8,0,4.3c-8.5,0-17.1,0-25.6,0C2.3,12.9,2.3,11.5,2.3,10.1z"/>
		<path class="st2" d="M2.3,14.4c8.5,0,17.1,0,25.6,0c0,1.4,0,2.7,0,4.1c0,0.1,0,0.2-0.2,0.2c-8.4,0-16.8,0-25.2,0
			c-0.1,0-0.2,0-0.2-0.2C2.3,17.1,2.3,15.7,2.3,14.4z"/>
	</g>
</g>
</svg>
