<?xml version="1.0" encoding="utf-8"?>
<!-- Generator: Adobe Illustrator 16.0.0, SVG Export Plug-In . SVG Version: 6.00 Build 0)  -->
<!DOCTYPE svg PUBLIC "-//W3C//DTD SVG 1.1//EN" "http://www.w3.org/Graphics/SVG/1.1/DTD/svg11.dtd">
<svg version="1.1" id="australia" xmlns="http://www.w3.org/2000/svg" xmlns:xlink="http://www.w3.org/1999/xlink" x="0px" y="0px"
	 width="294.667px" height="158.667px" viewBox="26.067 120.667 294.667 158.667"
	 enable-background="new 26.067 120.667 294.667 158.667" xml:space="preserve">
<g>
	<rect x="26.067" y="120.667" fill="#293475" width="294.667" height="158.667"/>
	<polygon fill="#FFFFFF" points="171.133,144.467 109.933,144.467 109.933,120.667 87.267,120.667 87.267,144.467 26.067,144.467 
		26.067,168.267 87.267,168.267 87.267,192.066 109.933,192.066 109.933,168.267 171.133,168.267 	"/>
	<g>
		<polygon fill="#FFFFFF" points="154.133,120.667 111.067,142.2 86.133,142.2 43.067,120.667 26.067,120.667 26.067,128.6 
			57.8,144.467 97.467,155.8 139.4,144.467 171.133,128.6 171.133,120.667 		"/>
		<polygon fill="#FFFFFF" points="99.733,156.933 57.8,168.267 26.067,184.133 26.067,192.066 43.067,192.066 86.133,170.533 
			111.067,170.533 154.133,192.066 171.133,192.066 171.133,184.133 139.4,168.267 		"/>
	</g>
	<polygon fill="#CC202D" points="171.133,149 105.4,149 105.4,120.667 91.8,120.667 91.8,149 26.067,149 26.067,163.733 
		91.8,163.733 91.8,192.066 105.4,192.066 105.4,163.733 171.133,163.733 	"/>
	<g>
		<polygon fill="#CC202D" points="63.467,144.467 74.8,144.467 26.067,120.667 26.067,125.2 		"/>
		<polygon fill="#CC202D" points="159.8,120.667 112.2,144.467 122.4,144.467 171.133,120.667 		"/>
		<polygon fill="#CC202D" points="133.733,168.267 122.4,168.267 171.133,192.066 171.133,187.533 		"/>
		<polygon fill="#CC202D" points="26.067,192.066 37.4,192.066 85,168.267 74.8,168.267 		"/>
	</g>
	<g>
		<path fill="#CC202D" d="M248.2,243.066l-1.134-1.133c-1.133-1.134-2.267-1.134-3.4-2.268l0,0l0,0
			c-1.133,1.134-2.266,1.134-3.399,2.268L238,244.2v-1.134v-1.133c0-1.134,1.133-2.268,1.133-3.4s0-1.133,0-1.133
			c-1.133-1.134-2.266-1.134-2.266-2.268L235.733,234l-1.134-1.133h2.268c1.133,0,2.266,0,3.399,0s1.134,0,2.267,0l0,0
			c0,0,1.133,0,1.133-1.134s1.134-2.267,1.134-3.399V227.2v-1.134l1.134,3.4c0,1.133,1.133,2.267,1.133,3.4
			c0,1.133,0,1.133,1.134,1.133l0,0c1.134,0,1.134,0,2.267,0h1.133h1.134H255h-3.4l-1.133,1.133c-1.133,1.134-2.267,1.134-3.4,2.268
			c0,0,0,0,0,1.133s1.134,2.267,1.134,3.4l1.134,3.4L248.2,243.066z"/>
		<path fill="#FFFFFF" d="M243.666,227.2c1.134,2.267,1.134,3.399,1.134,4.533s0,1.134,1.134,1.134l0,0c1.133,0,1.133,0,2.267,0
			s2.267,0,3.399,0c-1.133,1.133-3.399,2.266-4.533,3.399c-1.133,0-1.133,1.134,0,1.134c0,1.133,1.134,3.399,1.134,4.533
			c-1.134-1.134-3.4-2.268-4.534-3.4c0,0,0,0-1.133,0c0,0,0,0-1.133,0c-1.134,1.133-2.268,2.267-4.533,3.4
			c1.133-2.268,1.133-3.4,1.133-4.533c0-1.134,0-1.134-1.133-2.268c-1.134-1.133-2.268-2.266-4.533-3.399c1.133,0,2.266,0,3.399,0
			s1.134,0,2.267,0l0,0c1.133,0,1.133,0,1.133-1.134C242.533,230.6,242.533,229.467,243.666,227.2 M243.666,223.8l-1.133,3.4v1.134
			c0,1.133-1.133,2.266-1.133,3.399l0,0l0,0l0,0c-1.134,0-1.134,0-2.268,0H238h-1.133h-3.4l2.267,2.267l1.134,1.133
			c1.133,1.134,2.266,1.134,2.266,2.268l0,0l0,0c0,1.133-1.133,2.266-1.133,3.399v1.134l-2.267,3.4l2.267-2.268l1.133-1.133
			c1.134-1.134,2.268-1.134,3.4-2.268l0,0l0,0c1.133,1.134,2.267,1.134,3.4,2.268l1.133,1.133l2.268,2.268v-3.4
			c0-1.134,0-1.134,0-1.134c0-1.134-1.134-2.267-1.134-3.399l0,0l0,0c1.134-1.134,2.267-1.134,3.399-2.268l1.134-1.133l2.267-2.267
			h-3.4c-1.133,0-1.133,0-1.133,0h-1.133c-1.134,0-1.134,0-2.268,0l0,0l0,0l0,0c0-1.134-1.133-2.267-1.133-3.399V227.2
			L243.666,223.8L243.666,223.8z"/>
	</g>
	<g>
		<path fill="#CC202D" d="M214.2,190.933l-1.134-1.133c-1.133-1.133-2.267-1.133-3.4-2.267l0,0l0,0
			c-1.133,1.133-2.266,1.133-2.266,2.267l-3.4,1.133V189.8v-1.133c0-1.133,1.133-2.267,1.133-3.4s0-1.133,0-1.133
			C204,183,204,183,202.867,181.867l-1.134-1.133L200.6,179.6h2.268c1.133,0,2.266,0,3.399,0s1.134,0,2.267,0l0,0
			c0,0,1.133,0,1.133-1.133s1.134-2.267,1.134-3.4v-1.133V172.8c0,0,1.134,2.267,1.134,3.4c0,1.133,1.133,2.267,1.133,3.4
			s0,1.133,1.134,1.133l0,0c1.134,0,1.134,0,2.267,0h1.133h1.134H221l-1.133,1.133L218.733,183
			c-1.134,1.133-2.267,1.133-3.399,2.267c0,0,0,0,0,1.133s1.133,2.267,1.133,3.4l1.133,3.4L214.2,190.933z"/>
		<path fill="#FFFFFF" d="M209.666,173.933c1.134,2.267,1.134,3.4,1.134,4.534s0,1.133,1.134,1.133l0,0c1.133,0,1.133,0,2.267,0
			s2.267,0,3.399,0c-1.133,1.133-3.399,2.267-4.533,3.4c-1.133,0-1.133,1.133,0,1.133c0,1.133,1.134,3.4,1.134,4.533
			c-1.134-1.133-3.4-2.267-4.534-3.4c0,0,0,0-1.133,0c0,0,0,0-1.133,0c-1.134,1.133-2.268,2.267-4.533,3.4
			c1.133-2.267,1.133-3.4,1.133-4.533s0-1.133-1.133-2.267c-1.134-1.133-2.268-2.267-4.533-3.4c1.133,0,2.266,0,3.399,0
			s1.134,0,2.267,0l0,0c1.133,0,1.133,0,1.133-1.133C208.533,177.333,209.666,176.2,209.666,173.933 M209.666,170.533l-1.133,3.4
			v1.133c0,1.134-1.133,2.267-1.133,3.4l0,0l0,0l0,0c-1.134,0-1.134,0-2.268,0H204h-1.133h-3.4l2.267,2.267l1.134,1.133
			c1.133,1.133,2.266,1.133,2.266,2.267l0,0l0,0c0,1.133-1.133,2.267-1.133,3.4v1.133l-1.133,3.4l2.266-2.267l1.134-1.133
			c1.134-1.133,2.267-1.133,2.267-2.267l0,0l0,0c1.133,1.133,2.267,1.133,3.4,2.267l1.133,1.133l2.268,2.267l-1.134-3.4v-1.133
			c0-1.133-1.134-2.267-1.134-3.4l0,0l0,0c1.134-1.133,2.268-1.133,3.4-2.267l1.133-1.133l2.268-2.267h-3.4
			c-1.133,0-1.133,0-1.133,0H214.2c-1.134,0-1.134,0-2.267,0l0,0l0,0l0,0c0-1.133-1.134-2.267-1.134-3.4v-1.133L209.666,170.533
			L209.666,170.533z"/>
	</g>
	<g>
		<path fill="#CC202D" d="M248.2,156.933l-1.134-1.133c-1.133-1.133-2.267-1.133-3.4-2.267l0,0l0,0
			c-1.133,1.133-2.266,1.133-2.266,2.267l-2.268,2.267v-1.133V155.8c0-1.133,1.134-2.267,1.134-3.4s0-1.133,0-1.133
			C239.133,150.133,238,150.133,238,149l-1.133-1.133l-1.134-1.133H238c1.133,0,2.267,0,3.4,0c1.133,0,1.133,0,2.266,0l0,0
			c0,0,1.134,0,1.134-1.133s1.134-2.267,1.134-3.4v-1.134v-1.133l1.133,3.4c0,1.133,1.134,2.267,1.134,3.4s0,1.133,1.134,1.133l0,0
			c1.133,0,1.133,0,2.266,0h1.134h1.134h2.266L255,149l-1.133,1.133c-1.134,1.133-2.268,1.133-3.4,2.267c0,0,0,0,0,1.133
			s1.133,2.267,1.133,3.4l-2.266,1.133L248.2,156.933z"/>
		<path fill="#FFFFFF" d="M243.666,141.066c1.134,2.267,1.134,3.4,1.134,4.534s0,1.133,1.134,1.133l0,0c1.133,0,1.133,0,2.267,0
			s2.267,0,3.399,0c-1.133,1.133-3.399,2.267-4.533,3.4c-1.133,0-1.133,1.133,0,1.133c0,1.133,1.134,3.4,1.134,4.533
			c-1.134-1.133-3.4-2.267-4.534-3.4c0,0,0,0-1.133,0c0,0,0,0-1.133,0c0,1.133-1.134,2.267-3.4,3.4
			c1.133-2.267,1.133-3.4,1.133-4.533s0-1.133-1.133-2.267s-2.267-2.267-4.533-3.4c1.133,0,2.267,0,3.4,0c1.133,0,1.133,0,2.266,0
			l0,0c1.134,0,1.134,0,1.134-1.133C242.533,143.333,242.533,142.2,243.666,141.066 M243.666,136.533l-1.133,3.4v1.133
			c0,1.134-1.133,2.267-1.133,3.4l0,0l0,0l0,0c-1.134,0-1.134,0-2.268,0H238h-1.133h-3.4l2.267,2.267l1.134,1.133
			c0,1.133,1.133,2.267,1.133,2.267l0,0l0,0c0,2.267,0,3.4,0,4.533v1.133l-1.133,3.4l2.266-2.267l1.134-1.133
			c1.134-1.133,2.267-1.133,3.399-2.267l0,0l0,0c1.134,1.133,2.268,1.133,3.4,2.267l1.134,1.133l2.267,2.267l-1.133-3.4v-1.133
			c0-1.133-1.134-2.267-1.134-3.4l0,0l0,0c1.134-1.133,2.267-1.133,3.399-2.267l1.134-1.133L255,145.6h-3.4
			c-1.133,0-1.133,0-1.133,0h-1.133c-1.134,0-1.134,0-2.268,0l0,0l0,0l0,0c0-1.133-1.133-2.267-1.133-3.4v-1.134L243.666,136.533
			L243.666,136.533z"/>
	</g>
	<g>
		<path fill="#CC202D" d="M276.533,181.867l-1.133-1.133c-1.134-1.133-2.268-1.133-3.4-2.267l0,0l0,0
			c-1.133,1.133-2.267,1.133-2.267,2.267L267.467,183v-1.133v-1.133c0-1.133,1.133-2.267,1.133-3.4s0-1.133,0-1.133
			c-1.133-1.134-2.266-1.134-2.266-2.267L265.2,172.8l-1.134-1.133h2.268c1.133,0,2.266,0,3.399,0s1.134,0,2.267,0l0,0
			c0,0,1.133,0,1.133-1.133s1.134-2.267,1.134-3.4V166v-1.133c0,0,1.134,2.267,1.134,3.4s1.133,2.267,1.133,3.4s0,1.133,1.133,1.133
			l0,0c1.134,0,1.134,0,2.268,0h1.133h1.134h2.267l-1.133,1.133l-1.134,1.133c-1.134,1.134-2.267,1.134-3.4,2.267c0,0,0,0,0,1.133
			s1.134,2.267,1.134,3.4l1.133,3.4L276.533,181.867z"/>
		<path fill="#FFFFFF" d="M272,166c1.133,2.267,1.133,3.4,1.133,4.533s0,1.133,1.134,1.133l0,0c1.134,0,1.134,0,2.267,0
			s2.267,0,3.4,0c-1.134,1.133-3.4,2.267-4.533,3.4c-1.134,0-1.134,1.134,0,1.134c0,1.133,1.133,3.4,1.133,4.533
			c-1.133-1.133-3.4-2.267-4.533-3.4c0,0,0,0-1.133,0c0,0,0,0-1.134,0c-1.134,1.133-2.267,2.267-4.533,3.4
			c1.134-2.267,1.134-3.4,1.134-4.533c0-1.134,0-1.134-1.134-2.267s-2.267-2.267-4.534-3.4c1.134,0,2.268,0,3.4,0
			c1.134,0,1.134,0,2.268,0l0,0c1.133,0,1.133,0,1.133-1.133C270.867,169.4,270.867,167.133,272,166 M272,161.467l-1.133,3.4V166
			c0,1.133-1.134,2.267-1.134,3.4l0,0l0,0l0,0c-1.134,0-1.134,0-2.267,0h-1.133H265.2h-4.534l2.268,2.267l1.133,1.133
			c1.134,1.133,2.268,1.133,2.268,2.267l0,0l0,0c0,1.134-1.134,2.267-1.134,3.4v1.133l-1.134,3.4l2.268-2.267l1.133-1.133
			c1.133-1.133,2.267-1.133,2.267-2.267l0,0l0,0c1.134,1.133,2.267,1.133,3.399,2.267l1.134,1.133l2.267,2.267l-1.133-3.4v-1.133
			c0-1.133-1.134-2.267-1.134-3.4l0,0l0,0c1.134-1.133,2.267-1.133,3.399-2.267l1.134-1.133l4.534-1.133h-3.4
			c-1.134,0-1.134,0-1.134,0h-1.134c-1.133,0-1.133,0-2.266,0l0,0l0,0l0,0c0-1.133-1.134-2.267-1.134-3.4V166L272,161.467
			L272,161.467z"/>
	</g>
</g>
</svg>
