<?xml version="1.0" encoding="utf-8"?>
<!-- Generator: Adobe Illustrator 16.0.0, SVG Export Plug-In . SVG Version: 6.00 Build 0)  -->
<!DOCTYPE svg PUBLIC "-//W3C//DTD SVG 1.1//EN" "http://www.w3.org/Graphics/SVG/1.1/DTD/svg11.dtd">
<svg version="1.1" id="occupied-canada" xmlns="http://www.w3.org/2000/svg" xmlns:xlink="http://www.w3.org/1999/xlink" x="0px"
	 y="0px" width="260.101px" height="130.56px" viewBox="23.46 135.78 260.101 130.56"
	 enable-background="new 23.46 135.78 260.101 130.56" xml:space="preserve">
<g>
	<path fill="#FFFFFF" d="M218.279,266.34c0-43.859,0-86.7,0-130.56H88.74c0,43.86,0,86.701,0,130.56H218.279z M103.02,198
		c7.14-6.12,14.28-11.22,21.42-17.34c3.06-3.06,3.06-3.06,2.04-7.14c0-1.02-1.02-2.04-1.02-3.06s0-1.02,1.02-1.02
		c4.08,1.02,7.14,1.02,11.22,2.04c4.08,1.02,7.14,1.02,11.22,1.02c2.04,0,2.04-1.02,2.04-2.04v-1.02l0,0c0-7.14,0-15.3-1.02-22.44
		c0-1.02,0-2.04,2.04-2.04c3.06,0,3.06-1.02,3.06,3.06s0,9.18-1.021,13.26c0,3.06,0,5.1,0,8.16c0,2.04,1.021,3.06,3.061,3.06
		c6.12-1.02,13.26-2.04,19.38-3.06c1.021,0,2.04,0,3.06,0c1.021,0,1.021,0,1.021,1.02c-1.021,2.04-1.021,3.06-2.04,5.1
		s0,3.06,1.02,4.08c7.141,6.12,15.301,12.24,22.44,18.36c1.021,1.02,1.021,1.02,0,2.04s-2.04,1.021-4.08,2.04
		c-1.021,1.02-2.04,1.02-1.021,3.061c1.021,4.08,2.041,8.159,3.061,13.26c1.02,3.06,1.02,3.06-2.04,2.039
		c-3.06-1.02-7.14-1.02-10.2-2.039c-2.039,0-3.06,0-4.08,2.039c0,1.021-1.02,3.061-1.02,4.08c0,1.021-1.02,1.021-1.02,0
		c-3.061-4.08-7.141-7.14-10.201-11.22c-1.02-1.021-2.039-2.04-3.06-1.021c-1.021,1.021-1.021,2.041-1.021,3.061
		c1.021,8.16,3.061,16.32,4.08,24.48v1.02h-1.02c-2.04-1.02-3.061-2.04-5.1-3.061c-2.04-1.02-4.08-1.02-5.1,2.041
		c-3.061,5.1-5.101,9.18-8.161,14.279c0,0,0,1.021-1.02,1.021s-1.02-1.021-1.02-1.021c-3.06-5.1-5.1-9.18-8.16-14.279
		c-1.02-2.041-2.04-3.061-5.1-1.021c-2.04,1.021-3.06,2.04-5.1,3.06c0,0-1.02,1.021-1.02,0v-1.02c1.02-8.16,3.06-16.32,4.08-24.48
		l0,0c0-1.02,0-2.039-1.02-3.06s-2.04,0-3.06,1.021c-3.06,4.08-7.14,7.14-10.2,11.22c3.06-1.021,3.06-1.021,3.06-1.021
		s0-1.02-1.02-1.02c0-1.02-1.02-3.061-1.02-4.08c-1.02-2.04-1.02-2.04-3.06-2.04c-3.06,1.021-7.14,1.021-10.2,2.04
		c-1.02,0-1.02,0-2.04,0s-1.02,0-1.02-1.02c1.02-3.061,2.04-6.121,3.06-10.2c0-2.04,1.02-3.06,1.02-5.101c0-1.02,0-2.039-1.02-2.039
		c-1.02-1.021-3.06-1.021-4.08-2.041C102,199.02,102,199.02,103.02,198z"/>
	<path fill="#EB2227" d="M283.561,266.34V135.78h-65.281c0,43.86,0,86.701,0,130.56H283.561z"/>
	<path fill="#EB2227" d="M23.46,266.34h65.28c0-43.859,0-86.7,0-130.56H23.46V266.34z"/>
	<path fill="#EB2227" d="M103.02,200.04c1.02,1.021,3.06,1.021,4.08,2.04c1.02,0,1.02,1.02,1.02,2.04c0,2.04-1.02,3.06-1.02,5.101
		c-1.02,3.059-2.04,6.119-3.06,10.199c0,1.02,0,1.02,1.02,1.02s1.02,0,2.04,0c3.06-1.02,7.14-1.02,10.2-2.039
		c2.04,0,3.06,0,3.06,2.039c0,1.021,1.02,3.061,1.02,4.08c0,0,0,1.021,1.02,1.021c1.02-1.021,1.02-1.021,2.04-1.021
		c3.06-4.08,7.14-7.14,10.2-11.22c1.02-1.021,2.04-2.04,3.06-1.021c1.02,1.021,1.02,2.041,1.02,3.061l0,0
		c-1.02,8.16-3.06,16.32-4.08,24.48v1.02h1.02c2.04-1.02,3.06-2.04,5.1-3.061c2.04-1.02,4.08-1.02,5.1,1.021
		c3.06,5.101,5.1,9.181,8.16,14.28c0,0,0,1.02,1.021,1.02l1.021-1.02c3.06-5.1,5.1-9.18,8.16-14.28c1.02-2.04,2.039-3.06,5.1-2.04
		c2.039,1.02,3.06,2.04,5.1,3.061c0,0,1.02,1.02,1.02,0V238.8c-1.02-8.159-3.06-16.319-4.08-24.479c0-1.021,0-2.041,1.021-3.061
		s2.04,0,3.06,1.02c3.061,4.08,7.141,7.141,10.201,11.221c1.02,1.02,1.02,1.02,1.02,0c-2.04-1.02-2.04-2.04-2.04-4.08
		c1.021-2.04,1.021-3.061,4.08-2.04s7.14,1.021,10.2,2.04c3.06,1.02,3.06,1.02,2.039-2.04c-1.02-4.08-2.039-8.159-3.06-13.26
		c0-1.021,0-2.04,1.021-3.06c1.02-1.021,2.039-1.021,4.08-2.041c1.02-1.02,1.02-1.02,0-2.04c-7.141-6.12-15.301-12.24-22.44-18.36
		c-1.021-1.02-2.04-3.06-1.021-4.08c1.021-2.04,1.021-3.06,2.041-5.1c0-1.02,0-1.02-1.021-1.02s-2.04,0-3.06,0
		c-6.121,1.02-13.26,2.04-19.381,3.06c-2.039,0-3.06,0-3.06-3.06s0-5.1,0-8.16c0-4.08,0-9.18,1.021-13.26c0-3.06,0-3.06-3.061-3.06
		c-1.02,0-2.04,0-2.04,2.04c0,7.14,0,15.3,1.02,22.44l0,0v1.02c0,2.04-1.02,2.04-2.04,2.04c-4.08,0-7.14-1.02-11.22-1.02
		c-4.08-1.02-7.14-1.02-11.22-2.04c-1.02,0-1.02,0-1.02,1.02s1.02,2.04,1.02,3.06c1.02,4.08,1.02,4.08-2.04,7.14
		c-7.14,6.12-14.28,11.22-21.42,17.34C102,199.02,102,199.02,103.02,200.04z"/>
</g>
</svg>
