<?xml version="1.0" encoding="utf-8"?>
<!-- Generator: Adobe Illustrator 19.2.1, SVG Export Plug-In . SVG Version: 6.00 Build 0)  -->
<svg version="1.1" id="australia" xmlns="http://www.w3.org/2000/svg" xmlns:xlink="http://www.w3.org/1999/xlink" x="0px" y="0px"
	 viewBox="0 0 27 18" style="enable-background:new 0 0 27 18;" xml:space="preserve">
<style type="text/css">
	.st0{fill:#FF9933;}
	.st1{fill:#FFFFFF;}
	.st2{fill:#128807;}
	.st3{fill:#000088;}
</style>
<g>
	<rect class="st0" width="27" height="18"/>
	<rect y="6" class="st1" width="27" height="6"/>
	<rect y="12" class="st2" width="27" height="6"/>
	<g>
		<circle class="st3" cx="-99" cy="-66" r="2.4"/>
		<circle class="st1" cx="-99" cy="-66" r="2.1"/>
		<circle class="st3" cx="-99" cy="-66" r="0.4"/>
		<g>
			<g>
				<g id="b">
					<g id="a">
						
							<ellipse transform="matrix(0.1305 -0.9914 0.9914 0.1305 -19.104 -153.2358)" class="st3" cx="-96.9" cy="-65.7" rx="0.1" ry="0.1"/>
						<path class="st3" d="M-99-63.9l0.1-1.3l-0.1-0.6l-0.1,0.6L-99-63.9z"/>
					</g>
					<g transform="rotate(15)">
						<g id="a_1_">
							
								<ellipse transform="matrix(0.3827 -0.9239 0.9239 0.3827 0.3169 -129.9184)" class="st3" cx="-97.1" cy="-65.2" rx="0.1" ry="0.1"/>
							<path class="st3" d="M-99.5-64l0.4-1.2l0.1-0.6l-0.2,0.6L-99.5-64z"/>
						</g>
					</g>
				</g>
				<g id="c">
					<g id="b_1_">
						<g id="a_2_">
							
								<ellipse transform="matrix(0.6088 -0.7934 0.7934 0.6088 13.2663 -102.5418)" class="st3" cx="-97.3" cy="-64.7" rx="0.1" ry="0.1"/>
							<path class="st3" d="M-100.1-64.2l0.7-1.1l0.2-0.6l-0.4,0.5L-100.1-64.2z"/>
						</g>
						<g transform="rotate(30)">
							<g id="a_3_">
								
									<ellipse transform="matrix(0.7934 -0.6088 0.6088 0.7934 18.9702 -72.7835)" class="st3" cx="-97.7" cy="-64.3" rx="0.1" ry="0.1"/>
								<path class="st3" d="M-100.5-64.5l0.9-0.8l0.4-0.5l-0.5,0.4L-100.5-64.5z"/>
							</g>
						</g>
					</g>
				</g>
				<g>
					<g id="d">
						<g id="b_2_">
							<g id="a_4_">
								
									<ellipse transform="matrix(0.9239 -0.3827 0.3827 0.9239 17.0399 -42.4544)" class="st3" cx="-98.2" cy="-64.1" rx="0.1" ry="0.1"/>
								<path class="st3" d="M-100.8-64.9l1.1-0.6l0.5-0.4l-0.6,0.2L-100.8-64.9z"/>
							</g>
							<g transform="rotate(15)">
								<g id="a_5_">
									
										<ellipse transform="matrix(0.9914 -0.1305 0.1305 0.9914 7.4984 -13.4331)" class="st3" cx="-98.7" cy="-63.9" rx="0.1" ry="0.1"/>
									<path class="st3" d="M-101-65.5l1.2-0.3l0.6-0.2l-0.6,0.1L-101-65.5z"/>
								</g>
							</g>
						</g>
						<g id="c_1_">
							<g id="b_3_">
								<g id="a_6_">
									
										<ellipse transform="matrix(0.1305 -0.9914 0.9914 0.1305 -22.9451 -153.9998)" class="st3" cx="-99.3" cy="-63.9" rx="0.1" ry="0.1"/>
									<path class="st3" d="M-101.1-66l1.3,0.1l0.6-0.1l-0.6-0.1L-101.1-66z"/>
								</g>
								<g transform="rotate(60)">
									<g id="a_7_">
										
											<ellipse transform="matrix(0.3827 -0.9239 0.9239 0.3827 -2.4269 -131.7517)" class="st3" cx="-99.8" cy="-64.1" rx="0.1" ry="0.1"/>
										<path class="st3" d="M-101-66.5l1.2,0.4l0.6,0.1l-0.6-0.2L-101-66.5z"/>
									</g>
								</g>
							</g>
						</g>
					</g>
					<g>
						<g>
							<g>
								<g id="b_4_">
									<g id="a_8_">
										
											<ellipse transform="matrix(0.6088 -0.7934 0.7934 0.6088 11.8068 -104.7261)" class="st3" cx="-100.3" cy="-64.3" rx="0.1" ry="0.1"/>
										<path class="st3" d="M-100.8-67.1l1.1,0.7l0.6,0.2l-0.5-0.4L-100.8-67.1z"/>
									</g>
									<g transform="rotate(15)">
										<g id="a_9_">
											
												<ellipse transform="matrix(0.7934 -0.6088 0.6088 0.7934 18.5977 -74.6561)" class="st3" cx="-100.7" cy="-64.7" rx="0.1" ry="0.1"/>
											<path class="st3" d="M-100.5-67.5l0.8,0.9l0.5,0.4l-0.4-0.5L-100.5-67.5z"/>
										</g>
									</g>
								</g>
								<g id="c_2_">
									<g id="b_5_">
										<g id="a_10_">
											
												<ellipse transform="matrix(0.9239 -0.3827 0.3827 0.9239 17.266 -43.5909)" class="st3" cx="-100.9" cy="-65.2" rx="0.1" ry="0.1"/>
											<path class="st3" d="M-100.1-67.8l0.6,1.1l0.4,0.5l-0.2-0.6L-100.1-67.8z"/>
										</g>
										<g transform="rotate(30)">
											<g id="a_11_">
												
													<ellipse transform="matrix(0.9914 -0.1305 0.1305 0.9914 7.7142 -13.7561)" class="st3" cx="-101.1" cy="-65.7" rx="0.1" ry="0.1"/>
												<path class="st3" d="M-99.5-68l0.3,1.2l0.2,0.6l-0.1-0.6L-99.5-68z"/>
											</g>
										</g>
									</g>
								</g>
								<g>
									<g id="d_1_">
										<g id="b_6_">
											<g id="a_12_">
												
													<ellipse transform="matrix(0.1305 -0.9914 0.9914 0.1305 -22.1811 -157.8409)" class="st3" cx="-101.1" cy="-66.3" rx="0.1" ry="0.1"/>
												<path class="st3" d="M-99-68.1l-0.1,1.3l0.1,0.6l0.1-0.6L-99-68.1z"/>
											</g>
											<g transform="rotate(15)">
												<g id="a_13_">
													
														<ellipse transform="matrix(0.3827 -0.9239 0.9239 0.3827 -0.5935 -134.4955)" class="st3" cx="-100.9" cy="-66.8" rx="0.1" ry="0.1"/>
													<path class="st3" d="M-98.5-68l-0.4,1.2l-0.1,0.6l0.2-0.6L-98.5-68z"/>
												</g>
											</g>
										</g>
										<g id="c_3_">
											<g id="b_7_">
												<g id="a_14_">
													
														<ellipse transform="matrix(0.6088 -0.7934 0.7934 0.6088 13.9911 -106.1856)" class="st3" cx="-100.7" cy="-67.3" rx="0.1" ry="0.1"/>
													<path class="st3" d="M-97.9-67.8l-0.7,1.1l-0.2,0.6l0.4-0.5L-97.9-67.8z"/>
												</g>
												<g transform="rotate(120)">
													<g id="a_15_">
														
															<ellipse transform="matrix(0.7934 -0.6088 0.6088 0.7934 20.4703 -75.0286)" class="st3" cx="-100.3" cy="-67.7" rx="0.1" ry="0.1"/>
														<path class="st3" d="M-97.5-67.5l-0.9,0.8l-0.4,0.5l0.5-0.4L-97.5-67.5z"/>
													</g>
												</g>
											</g>
										</g>
									</g>
									<g>
										<g>
											<g>
												<g id="b_8_">
													<g id="a_16_">
														
															<ellipse transform="matrix(0.9239 -0.3827 0.3827 0.9239 18.4025 -43.3648)" class="st3" cx="-99.8" cy="-67.9" rx="0.1" ry="0.1"/>
														<path class="st3" d="M-97.2-67.1l-1.1,0.6l-0.5,0.4l0.6-0.2L-97.2-67.1z"/>
													</g>
													<g transform="rotate(15)">
														<g id="a_17_">
															
																<ellipse transform="matrix(0.9914 -0.1305 0.1305 0.9914 8.0372 -13.5403)" class="st3" cx="-99.3" cy="-68.1" rx="0.1" ry="0.1"/>
															<path class="st3" d="M-97-66.5l-1.2,0.3l-0.6,0.2l0.6-0.1L-97-66.5z"/>
														</g>
													</g>
												</g>
												<g id="c_4_">
													<g id="b_9_">
														<g id="a_18_">
															
																<ellipse transform="matrix(0.1305 -0.9914 0.9914 0.1305 -18.34 -157.0768)" class="st3" cx="-98.7" cy="-68.1" rx="0.1" ry="0.1"/>
															<path class="st3" d="M-96.9-66l-1.3-0.1l-0.6,0.1l0.6,0.1L-96.9-66z"/>
														</g>
														<g transform="rotate(30)">
															<g id="a_19_">
																
																	<ellipse transform="matrix(0.3827 -0.9239 0.9239 0.3827 2.1503 -132.6622)" class="st3" cx="-98.2" cy="-67.9" rx="0.1" ry="0.1"/>
																<path class="st3" d="M-97-65.5l-1.2-0.4l-0.6-0.1l0.6,0.2L-97-65.5z"/>
															</g>
														</g>
													</g>
												</g>
												<g transform="translate(112.5,75)">
													<g id="d_2_">
														<g id="b_10_">
															<g id="a_20_">
																
																	<ellipse transform="matrix(0.6088 -0.7934 0.7934 0.6088 15.4506 -104.0013)" class="st3" cx="-97.7" cy="-67.7" rx="0.1" ry="0.1"/>
																<path class="st3" d="M-97.2-64.9l-1.1-0.7l-0.6-0.2l0.5,0.4L-97.2-64.9z"/>
															</g>
															<g transform="rotate(15)">
																<g id="a_21_">
																	
																		<ellipse transform="matrix(0.7934 -0.6088 0.6088 0.7934 20.8428 -73.156)" class="st3" cx="-97.3" cy="-67.3" rx="0.1" ry="0.1"/>
																	<path class="st3" d="M-97.5-64.5l-0.8-0.9l-0.5-0.4l0.4,0.5L-97.5-64.5z"/>
																</g>
															</g>
														</g>
														<g id="c_5_">
															<g id="b_11_">
																<g id="a_22_">
																	
																		<ellipse transform="matrix(0.9239 -0.3827 0.3827 0.9239 18.1764 -42.2283)" class="st3" cx="-97.1" cy="-66.8" rx="0.1" ry="0.1"/>
																	<path class="st3" d="M-97.9-64.2l-0.6-1.1l-0.4-0.5l0.2,0.6L-97.9-64.2z"/>
																</g>
																<g transform="rotate(-120)">
																	<g id="a_23_">
																		
																			<ellipse transform="matrix(0.9914 -0.1305 0.1305 0.9914 7.8214 -13.2173)" class="st3" cx="-96.9" cy="-66.3" rx="0.1" ry="0.1"/>
																		<path class="st3" d="M-98.5-64l-0.3-1.2l-0.2-0.6l0.1,0.6L-98.5-64z"/>
																	</g>
																</g>
															</g>
														</g>
													</g>
												</g>
											</g>
										</g>
									</g>
								</g>
							</g>
						</g>
					</g>
				</g>
			</g>
		</g>
	</g>
</g>
</svg>
