<?xml version="1.0" encoding="utf-8"?>
<!-- Generator: Adobe Illustrator 21.1.0, SVG Export Plug-In . SVG Version: 6.00 Build 0)  -->
<svg version="1.1" id="occupied-canada" xmlns="http://www.w3.org/2000/svg" xmlns:xlink="http://www.w3.org/1999/xlink" x="0px"
	 y="0px" viewBox="0 0 30 20" style="enable-background:new 0 0 30 20;" xml:space="preserve">
<style type="text/css">
	.st0{fill:#FFFFFF;}
	.st1{fill:#EB2227;}
</style>
<g>
	<path class="st0" d="M21.4,16.7c0-4.3,0-8.5,0-12.8H8.7c0,4.3,0,8.5,0,12.8C8.7,16.7,21.4,16.7,21.4,16.7z M10.1,10
		c0.7-0.6,1.4-1.1,2.1-1.7C12.5,8,12.5,8,12.4,7.6c0-0.1-0.1-0.2-0.1-0.3s0-0.1,0.1-0.1c0.4,0.1,0.7,0.1,1.1,0.2
		c0.4,0.1,0.7,0.1,1.1,0.1c0.2,0,0.2-0.1,0.2-0.2V7.2l0,0c0-0.7,0-1.5-0.1-2.2c0-0.1,0-0.2,0.2-0.2c0.3,0,0.3-0.1,0.3,0.3
		c0,0.4,0,0.9-0.1,1.3c0,0.3,0,0.5,0,0.8c0,0.2,0.1,0.3,0.3,0.3c0.6-0.1,1.3-0.2,1.9-0.3c0.1,0,0.2,0,0.3,0s0.1,0,0.1,0.1
		c-0.1,0.2-0.1,0.3-0.2,0.5c-0.1,0.2,0,0.3,0.1,0.4c0.7,0.6,1.5,1.2,2.2,1.8c0.1,0.1,0.1,0.1,0,0.2c-0.1,0.1-0.2,0.1-0.4,0.2
		c-0.1,0.1-0.2,0.1-0.1,0.3c0.1,0.4,0.2,0.8,0.3,1.3c0.1,0.3,0.1,0.3-0.2,0.2c-0.3-0.1-0.7-0.1-1-0.2c-0.2,0-0.3,0-0.4,0.2
		c0,0.1-0.1,0.3-0.1,0.4s-0.1,0.1-0.1,0c-0.3-0.4-0.7-0.7-1-1.1c-0.1-0.1-0.2-0.2-0.3-0.1s-0.1,0.2-0.1,0.3c0.1,0.8,0.3,1.6,0.4,2.4
		v0.1h-0.1c-0.2-0.1-0.3-0.2-0.5-0.3c-0.2-0.1-0.4-0.1-0.5,0.2c-0.3,0.5-0.5,0.9-0.8,1.4c0,0,0,0.1-0.1,0.1s-0.1-0.1-0.1-0.1
		c-0.3-0.5-0.5-0.9-0.8-1.4c-0.1-0.2-0.2-0.3-0.5-0.1c-0.2,0.1-0.3,0.2-0.5,0.3c0,0-0.1,0.1-0.1,0v-0.1c0.1-0.8,0.3-1.6,0.4-2.4l0,0
		c0-0.1,0-0.2-0.1-0.3s-0.2,0-0.3,0.1c-0.3,0.4-0.7,0.7-1,1.1c0.3-0.1,0.3-0.1,0.3-0.1s0-0.1-0.1-0.1c0-0.1-0.1-0.3-0.1-0.4
		c-0.1-0.2-0.1-0.2-0.3-0.2c-0.3,0.1-0.7,0.1-1,0.2c-0.1,0-0.1,0-0.2,0s-0.1,0-0.1-0.1c0.1-0.3,0.2-0.6,0.3-1c0-0.2,0.1-0.3,0.1-0.5
		c0-0.1,0-0.2-0.1-0.2c-0.1-0.1-0.3-0.1-0.4-0.2C10,10.1,10,10.1,10.1,10z"/>
	<path class="st1" d="M27.8,16.7V3.9h-6.4c0,4.3,0,8.5,0,12.8C21.4,16.7,27.8,16.7,27.8,16.7z"/>
	<path class="st1" d="M2.3,16.7h6.4c0-4.3,0-8.5,0-12.8H2.3V16.7z"/>
	<path class="st1" d="M10.1,10.2c0.1,0.1,0.3,0.1,0.4,0.2c0.1,0,0.1,0.1,0.1,0.2c0,0.2-0.1,0.3-0.1,0.5c-0.1,0.3-0.2,0.6-0.3,1
		c0,0.1,0,0.1,0.1,0.1s0.1,0,0.2,0c0.3-0.1,0.7-0.1,1-0.2c0.2,0,0.3,0,0.3,0.2c0,0.1,0.1,0.3,0.1,0.4c0,0,0,0.1,0.1,0.1
		c0.1-0.1,0.1-0.1,0.2-0.1c0.3-0.4,0.7-0.7,1-1.1c0.1-0.1,0.2-0.2,0.3-0.1c0.1,0.1,0.1,0.2,0.1,0.3l0,0c-0.1,0.8-0.3,1.6-0.4,2.4
		v0.1h0.1c0.2-0.1,0.3-0.2,0.5-0.3c0.2-0.1,0.4-0.1,0.5,0.1c0.3,0.5,0.5,0.9,0.8,1.4c0,0,0,0.1,0.1,0.1l0.1-0.1
		c0.3-0.5,0.5-0.9,0.8-1.4c0.1-0.2,0.2-0.3,0.5-0.2c0.2,0.1,0.3,0.2,0.5,0.3c0,0,0.1,0.1,0.1,0V14c-0.1-0.8-0.3-1.6-0.4-2.4
		c0-0.1,0-0.2,0.1-0.3s0.2,0,0.3,0.1c0.3,0.4,0.7,0.7,1,1.1c0.1,0.1,0.1,0.1,0.1,0c-0.2-0.1-0.2-0.2-0.2-0.4
		c0.1-0.2,0.1-0.3,0.4-0.2c0.3,0.1,0.7,0.1,1,0.2c0.3,0.1,0.3,0.1,0.2-0.2c-0.1-0.4-0.2-0.8-0.3-1.3c0-0.1,0-0.2,0.1-0.3
		s0.2-0.1,0.4-0.2C20,10,20,10,19.9,9.9c-0.7-0.6-1.5-1.2-2.2-1.8c-0.1-0.1-0.2-0.3-0.1-0.4c0.1-0.2,0.1-0.3,0.2-0.5
		c0-0.1,0-0.1-0.1-0.1s-0.2,0-0.3,0c-0.6,0.1-1.3,0.2-1.9,0.3c-0.2,0-0.3,0-0.3-0.3s0-0.5,0-0.8c0-0.4,0-0.9,0.1-1.3
		c0-0.3,0-0.3-0.3-0.3c-0.1,0-0.2,0-0.2,0.2c0,0.7,0,1.5,0.1,2.2l0,0v0.1c0,0.2-0.1,0.2-0.2,0.2c-0.4,0-0.7-0.1-1.1-0.1
		c-0.4-0.1-0.7-0.1-1.1-0.2c-0.1,0-0.1,0-0.1,0.1s0.1,0.2,0.1,0.3c0.1,0.4,0.1,0.4-0.2,0.7c-0.7,0.6-1.4,1.1-2.1,1.7
		C10,10.1,10,10.1,10.1,10.2z"/>
</g>
</svg>
