<?xml version="1.0" encoding="utf-8"?>
<!-- Generator: Adobe Illustrator 19.1.0, SVG Export Plug-In . SVG Version: 6.00 Build 0)  -->
<svg version="1.1" id="Layer_1" xmlns="http://www.w3.org/2000/svg" xmlns:xlink="http://www.w3.org/1999/xlink" x="0px" y="0px"
	 viewBox="0 0 30 30" style="enable-background:new 0 0 30 30;" xml:space="preserve">
<style type="text/css">
	.st0{fill:#F4F3F1;}
</style>
<g>
	<path class="st0" d="M18.8,15.5c0.2,0,0.3-0.1,0.3-0.3c0-0.2-0.1-0.3-0.3-0.3c-0.2,0-0.3,0.1-0.3,0.3
		C18.5,15.4,18.7,15.5,18.8,15.5z"/>
	<path class="st0" d="M11.1,20.9l1.3-1.2c0.1-0.1,0.3-0.2,0.4-0.1l2.2,0.2l2.1-0.4c0.1,0,0.3,0,0.4,0.1l1.5,1l1.6,0.2
		c0.2-0.4,0.3-0.8,0.4-1.2c0,0-0.1,0-0.1,0l-4.3-0.6c-0.2,0-0.4-0.2-0.4-0.4l-0.8-2.2c-0.1-0.1-0.6,0-0.8,0.1l-0.8,2.2
		c-0.1,0.2-0.2,0.3-0.4,0.4l-4.2,1c0,0-0.1,0-0.1,0c0.1,0.5,0.4,1,0.6,1.5L11.1,20.9z"/>
	<path class="st0" d="M11.5,15.2c-0.2,0-0.3,0.1-0.3,0.3c0,0.2,0.1,0.3,0.3,0.3c0.2,0,0.3-0.1,0.3-0.3
		C11.8,15.3,11.7,15.2,11.5,15.2z"/>
	<path class="st0" d="M15.5,24.2c-0.1,0.2-0.2,0.3-0.4,0.3l-1.4,0.2c0.4,0.1,0.9,0.2,1.4,0.2c0.6,0,1.3-0.1,1.8-0.4l-1.2-0.8
		L15.5,24.2z"/>
	<path class="st0" d="M21,21.8l-2.2-0.2c-0.1,0-0.2,0-0.3-0.1l-1.5-1l-1.9,0.4c-0.1,0-0.1,0-0.2,0L13,20.7l-1.2,1.1
		c-0.1,0.1-0.1,0.1-0.2,0.1l-2.2,0.6c-0.1,0-0.2,0-0.3,0l1.3,1.5l4.4-0.6l0.4-0.8c0.1-0.1,0.2-0.2,0.4-0.3c0.2,0,0.3,0,0.5,0.1
		l1.6,1.1l3.7-0.8l0.8-1.3l-0.7,0.3C21.2,21.8,21.1,21.8,21,21.8z"/>
	<path class="st0" d="M22.8,11.3C22.8,11.3,22.8,11.3,22.8,11.3c-0.1,0-0.2,0-0.3-0.1c-1.4-0.5-2.9-0.8-4.5-0.9
		c-0.3,0-0.5-0.3-0.5-0.6c0-0.3,0.3-0.5,0.6-0.5c1.3,0.2,2.6,0.4,3.9,0.8c-0.9-2.7-3.7-4.6-6.9-4.6c-3.2,0-6.1,1.9-6.9,4.6
		c1.1-0.3,2.3-0.6,3.5-0.7c0.3,0,0.6,0.2,0.6,0.5c0,0.3-0.2,0.6-0.5,0.6c-1.4,0.2-2.8,0.5-4.2,0.9c-0.1,0-0.1,0-0.2,0.1
		c-0.5,0.1-0.9,0.3-1.4,0.5c-0.1,0.2-0.1,0.6,0,1.2c0,0.4,0.1,0.7,0.2,1c5.7-1.4,11.9-1.4,17.6,0c0.1-0.3,0.2-0.6,0.2-1
		c0-0.5,0-0.9,0-1.2C23.7,11.6,23.2,11.4,22.8,11.3z M16.8,10.7v1.4c0,0.3-0.2,0.6-0.6,0.6H14c-0.3,0-0.6-0.2-0.6-0.6v-1.4
		c0-0.3,0.2-0.5,0.4-0.5V9.3h-1c-0.3,0-0.6-0.2-0.6-0.6V6.9c0-0.3,0.2-0.6,0.6-0.6h4.6c0.3,0,0.6,0.2,0.6,0.6v1.8
		c0,0.3-0.2,0.6-0.6,0.6h-1v0.8C16.6,10.2,16.8,10.4,16.8,10.7z"/>
	<path class="st0" d="M16.7,8.2h0.2V7.5h-3.5v0.7h0.2c0-0.3,0.3-0.5,0.6-0.5h0.3c0.3,0,0.6,0.2,0.6,0.6v2.5c0,0.3-0.2,0.5-0.4,0.5
		v0.3h1.2v-0.3c-0.3-0.1-0.4-0.3-0.4-0.5V8.2c0-0.3,0.2-0.6,0.6-0.6h0.3C16.4,7.7,16.7,7.9,16.7,8.2z"/>
	<path class="st0" d="M15,0C6.7,0,0,6.7,0,15c0,8.3,6.7,15,15,15s15-6.7,15-15C30,6.7,23.3,0,15,0z M25.2,13
		c-0.1,0.7-0.3,1.3-0.5,1.8c-0.1,0.2-0.4,0.3-0.6,0.3c-0.1,0-0.1,0-0.2,0l-0.8,2.9c0,0.1-0.1,0.3-0.2,0.3l-0.6,0.4
		c0,0.1,0,0.1,0,0.2c-0.1,0.5-0.2,1-0.3,1.4l1.1-0.4c0.2-0.1,0.5,0,0.6,0.2c0.2,0.2,0.2,0.4,0,0.6L22,23.5c-0.1,0.1-0.2,0.2-0.3,0.2
		l-2.2,0.5c-1.2,1.1-2.8,1.8-4.4,1.8c-1.2,0-2.4-0.4-3.4-1l-1.6,0.2c0,0-0.1,0-0.1,0c-0.2,0-0.3-0.1-0.4-0.2l-3.1-3.5
		c-0.2-0.2-0.2-0.5,0-0.7c0.2-0.2,0.4-0.3,0.7-0.2l1.4,0.6c-0.3-0.7-0.5-1.3-0.6-2c0-0.1,0-0.1,0-0.2l-0.6-0.5
		c-0.1-0.1-0.2-0.2-0.2-0.4L6.6,15c-0.1,0-0.3,0.1-0.4,0.1c0,0-0.1,0-0.1,0c-0.2,0-0.4-0.1-0.5-0.3C5.2,14.4,5,13.7,5,13
		c-0.1-0.8,0-1.4,0.2-1.9c0.1-0.1,0.2-0.3,0.3-0.3c0.5-0.2,1-0.4,1.5-0.5c0.7-3.5,4.2-6.1,8.2-6.1c4,0,7.5,2.6,8.2,6.1
		c0.5,0.2,1,0.3,1.5,0.5c0.1,0.1,0.3,0.2,0.3,0.3C25.2,11.6,25.3,12.2,25.2,13z"/>
	<path class="st0" d="M7.6,14.7l0.5,3.1l1.2,0.9l3.6-0.8l0.7-2.1c0-0.1,0.1-0.2,0.2-0.3c0.1,0,0.6-0.4,1.3-0.4
		c0.8,0,1.2,0.5,1.2,0.6l0.7,2.1l3.7,0.5l1.2-0.8l0.8-2.7C17.9,13.7,12.6,13.6,7.6,14.7z M11.4,17c-0.1,0-0.1,0-0.2,0
		c-0.1,0-0.1,0-0.2,0c-0.5,0-0.9,0-1.2,0.1c0,0,0.1-0.3,0.6-0.4c-0.1-0.1-0.1-0.3-0.1-0.5c0-0.9,0.5-1.6,1-1.6
		c0.5,0,0.9,0.7,0.9,1.6C12.4,17.1,11.9,17,11.4,17z M18.9,14.4c0.5,0,1,0.7,1.1,1.5c0,0.2,0,0.4-0.1,0.5c0.5-0.1,0.6,0.3,0.6,0.3
		c-0.4-0.2-0.8,0.1-1.5,0.1c-0.6,0-1,0-1-0.8C18,15.2,18.3,14.5,18.9,14.4z"/>
</g>
</svg>
