<?xml version="1.0" encoding="utf-8"?>
<!-- Generator: Adobe Illustrator 19.1.0, SVG Export Plug-In . SVG Version: 6.00 Build 0)  -->
<svg version="1.1" id="Layer_1" xmlns="http://www.w3.org/2000/svg" xmlns:xlink="http://www.w3.org/1999/xlink" x="0px" y="0px"
	 viewBox="0 0 451 191.9" style="enable-background:new 0 0 451 191.9;" xml:space="preserve">
<style type="text/css">
	.st0{fill:#CB3449;}
	.st1{fill:#F3ECAC;}
	.st2{fill:#E6CCAD;}
	.st3{fill:#656C68;}
	.st4{fill:#E4C9A1;}
	.st5{fill:#C7B398;}
	.st6{fill:#EBD598;}
	.st7{fill:#2D3235;}
	.st8{fill:#EDF6FA;}
	.st9{opacity:0.8;}
	.st10{opacity:0.75;}
	.st11{fill:#B5DADE;}
	.st12{fill:#3AA85A;}
	.st13{fill:#92C0C9;}
	.st14{fill:#41A4AD;}
</style>
<g>
	<g>
		<g>
			<path class="st0" d="M64.7,88.6c0,0-18.5,13-19.2,17.9l1.4-0.3c0,0,22.1-14.7,39.6-16.4l0.4-2.2L64.7,88.6z"/>
		</g>
		<g>
			<path class="st0" d="M93.7,86.7L79.1,97.1l0.8,0.6c0.6-0.5,25.8-8.2,25.8-8.2l5.3-3.3C107.5,86.6,93.7,86.7,93.7,86.7z"/>
		</g>
		<g>
			<path class="st0" d="M106.3,99.2c10.3,0,25.8-10.1,25.8-10.1l-5-1c-0.2,0.2-8.1-0.3-8.1-0.3l-3.7-1L106.5,97l-0.7,1.8
				C106.4,98.4,106.3,99.2,106.3,99.2z"/>
		</g>
	</g>
	<g>
		<path class="st0" d="M140,131.5l-3.2,0.9l-14.7-0.3l-9.2-7.2l-11.1,2.8l-12.9-1.1l-7.2,7.9l-13.5,4l-6.8-2.1
			c-0.2-0.2-0.3-0.3-0.3-0.3l3,7.4c0,0,6.9,7.4,10.7,8.2c3.8,0.9,10.8-0.1,16-0.9c5.2-0.8,9.4-2.7,11-5.7c1.7-3,1.9-3.9,1.9-3.9
			s5,7,9.2,7.8c4.3,0.8,17-3.5,17-3.5s7.7-2.1,9.1-4.8c1.4-2.7,5-11.4,5-11.4L140,131.5z M62.7,137.5c-0.1,0-0.1-0.1-0.2-0.1
			c-0.5-0.4-0.9-0.8-1.2-1L62.7,137.5z"/>
	</g>
	<g>
		<g>
			<path class="st1" d="M152.6,78.8c0-0.4-0.1-0.8-0.1-1.2c0-0.3-0.1-0.6-0.1-0.8c-1.1-0.9-2.3-1.7-3.5-2.4
				c-1.4-0.8-2.8-1.5-4.2-2.2c-1.4-0.7-2.9-1.3-4.4-1.9c-0.7-0.3-1.5-0.6-2.3-0.9c-0.8-0.3-1.5-0.6-2.3-0.8c1.6,0.3,3.2,0.6,4.8,1
				c1,0.3,2,0.6,3,0.9c-7.2-18.8-24.4-31-43.1-31c-18.8,0-35.9,12.2-43.1,31c1-0.3,2-0.6,3-0.9c1.6-0.4,3.2-0.8,4.8-1
				c-0.8,0.3-1.5,0.6-2.3,0.8c-0.8,0.3-1.5,0.6-2.3,0.9c-1.5,0.6-3,1.2-4.4,1.9c-1.5,0.7-2.9,1.4-4.2,2.2c-1.3,0.7-2.5,1.5-3.5,2.4
				c0,0.3-0.1,0.6-0.1,0.8c0,0.4-0.1,0.8-0.1,1.2c-0.1,0.8-0.1,1.6-0.1,2.4c0,1.6,0.1,3.2,0.3,4.8c0.2,1.6,0.5,3.2,0.9,4.7
				c0.2,0.8,0.5,1.5,0.7,2.3c0.1,0.4,0.3,0.7,0.5,1.1c0.1,0.2,0.2,0.3,0.2,0.5l0.1,0.2c0.1,0.1,0.2,0.1,0.4,0.2l0.7,0.3
				c0.4,0.2,0.9,0.4,1.4,0.6c0,0,0.1,0,0.1-0.1l-1.3-5.1c0.3-0.1,2.8-0.7,7.1-1.6c-0.4-0.1-0.7-0.1-1.1-0.2c-1-0.2-2-0.5-2.9-0.9
				c-0.5-0.2-0.9-0.4-1.4-0.7c-0.4-0.3-0.9-0.5-1.2-0.9c4.8,1.6,14.6,0.9,23.4-0.1c8-0.8,16-1.4,24.1-1.4c8.1,0,16.1,0.6,24.1,1.4
				c8.8,0.9,18.6,1.6,23.4,0.1c-0.3,0.4-0.8,0.7-1.2,0.9c-0.4,0.2-0.9,0.5-1.4,0.7c-0.9,0.4-1.9,0.7-2.9,0.9c-0.1,0-0.3,0.1-0.4,0.1
				c4.8,0.9,7.5,1.6,7.8,1.7l-1.3,4.8c0.3-0.1,0.5-0.2,0.8-0.3l0.7-0.3c0.1-0.1,0.2-0.1,0.4-0.2l0.1-0.2c0.1-0.2,0.2-0.3,0.2-0.5
				c0.2-0.4,0.3-0.7,0.5-1.1c0.3-0.7,0.5-1.5,0.7-2.3c0.4-1.5,0.7-3.1,0.9-4.7c0.2-1.6,0.3-3.2,0.3-4.8
				C152.7,80.4,152.6,79.6,152.6,78.8z"/>
		</g>
		<g>
			<path class="st2" d="M105.7,145.6c-0.6,0.1-1.3,0.2-1.9,0.2c-0.4,0-0.8,0.1-1.2,0.1l-0.1,0c0.5-1.1,0.9-1.9,1.1-2.6
				C104.1,144,104.8,144.8,105.7,145.6z"/>
		</g>
		<g>
			<path class="st2" d="M107,147c2,1.9,4.4,3.1,7.1,3.3c-4.5,1.8-8.7,2.5-12,2.7c-3.2,0.2-6.5-0.2-9.8-1.1c0.3,0,0.5-0.1,0.7-0.1
				c0.3,0,6.1-0.8,8.7-4.7l0.2,0l0.6,0c0.4,0,0.8,0,1.2-0.1c1-0.1,1.9-0.2,2.9-0.4C106.8,146.8,106.9,146.9,107,147z"/>
		</g>
		<g>
			<path class="st3" d="M112.6,88.9c-0.2,0.2-0.4,0.5-0.6,0.8c-1.1,1.5-2.7,3.3-4.6,5.1c-2.2-0.1-4.4-0.1-6.8-0.1
				c-3.8,0-7.5,0.1-11,0.3c4.9-2,10.9-4,17.3-5.2C108.7,89.4,110.6,89.1,112.6,88.9z"/>
		</g>
		<g>
			<path class="st3" d="M83.7,91.1C82,92.3,80,93.9,78,95.8c-4.9,0.5-9.2,1.1-12.8,1.7C70.7,95,76.9,92.7,83.7,91.1z"/>
		</g>
		<g>
			<path class="st3" d="M144,101.3l-2,14l-9.6,6.7l-25.1-2.9l-3.8-12.4c-0.1-0.3-0.3-0.5-0.7-0.6c-0.9-0.2-1.8-0.2-2.4-0.2
				c-0.7,0-1.5,0.1-2.4,0.2c-0.3,0.1-0.6,0.3-0.7,0.6l-3.7,12.1l-24.9,5.6l-9.9-6.9l-1.9-15.8c0.4-0.2,0.9-0.5,1.3-0.7
				c0.6-0.1,1.3-0.3,2.1-0.4l1.8,14.9c0,0.2,0.2,0.4,0.3,0.6l6.8,4.8c0.1,0.1,0.3,0.1,0.5,0.1c0.1,0,0.1,0,0.2,0l20.5-4.6
				c0.1,0,0.1,0,0.2-0.1c0.2-0.1,0.3-0.3,0.4-0.5l3.7-12.2c1-0.3,3.5-0.8,5.8-0.8c2.2,0,4.8,0.6,5.8,0.8l3.7,12.2
				c0.1,0.3,0.4,0.5,0.7,0.6l20.5,2.3c0.2,0,0.4,0,0.6-0.1l6.8-4.8c0.2-0.1,0.3-0.3,0.3-0.6l1.8-12.7
				C142,100.9,143.1,101.1,144,101.3z"/>
		</g>
		<g>
			<path class="st3" d="M146.6,92.5l-1.8,6.7c-3.6-0.8-11.5-2.4-22.3-3.4c3.5-1.5,7.1-3.4,10.4-5.7C139.3,90.9,144,91.9,146.6,92.5z
				"/>
		</g>
		<g>
			<g>
				<path class="st4" d="M74.2,113.4c1.4-0.8,3-0.6,5.5-0.6c0.3,0,0.5,0,0.8,0c0.2,0,0.5,0,0.7,0c2.5,0,4.7,0.2,4.6-3.8
					c0-4-1.8-7.2-4.4-7.2c-2.5,0-5,3.3-4.9,7.3c0,1,0.2,1.8,0.4,2.3C74.9,112,74.3,113.4,74.2,113.4z M104.9,97
					c-1,0.8-2,1.5-3.1,2.2l-3.6,2.2c-2.3,0.3-4.2,0.8-4.3,0.9c-0.1,0-0.1,0-0.2,0.1c-0.2,0.1-0.3,0.3-0.4,0.5l-3.7,12.1l-19.7,4.4
					l-6.2-4.3l-1.8-14.6c3.5-0.6,8.2-1.4,13.9-2c-0.6,0.7-1.2,1.5-1.8,2.3l-3.4,4.8l4.9-3.3c0.1-0.1,3.2-2.1,8.3-4.6
					c5.1-0.4,10.7-0.6,16.7-0.6C102,96.9,103.5,96.9,104.9,97z"/>
			</g>
			<g>
				<path class="st4" d="M126.4,111.8c0-0.1-0.6-1.7-2.9-1.4c0.3-0.6,0.4-1.4,0.3-2.5c-0.3-4-2.6-7.2-5.2-7.1
					c-2.5,0.1-4.2,3.4-4,7.4c0.1,4,2.3,4,4.8,3.9C122.9,112,124.7,111,126.4,111.8z M139,100.3l-1.8,12.4l-6.3,4.4l-19.7-2.2
					l-3.7-12.1c-0.1-0.3-0.3-0.5-0.6-0.6c-0.1,0-2.6-0.7-5.1-1l0.5,0c0.4,0,7.2-0.9,15.3-3.7C126.7,98.3,134,99.4,139,100.3z"/>
			</g>
		</g>
		<g>
			<g>
				<path class="st5" d="M74.2,113.4c1.4-0.8,3-0.6,5.5-0.6c0.3,0,0.5,0,0.8,0c0.2,0,0.5,0,0.7,0c2.5,0,4.7,0.2,4.6-3.8
					c0-4-1.8-7.2-4.4-7.2c-2.5,0-5,3.3-4.9,7.3c0,1,0.2,1.8,0.4,2.3C74.9,112,74.3,113.4,74.2,113.4z M104.9,97
					c-1,0.8-2,1.5-3.1,2.2l-3.6,2.2c-2.3,0.3-4.2,0.8-4.3,0.9c-0.1,0-0.1,0-0.2,0.1c-0.2,0.1-0.3,0.3-0.4,0.5l-3.7,12.1l-19.7,4.4
					l-6.2-4.3l-1.8-14.6c3.5-0.6,8.2-1.4,13.9-2c-0.6,0.7-1.2,1.5-1.8,2.3l-3.4,4.8l4.9-3.3c0.1-0.1,3.2-2.1,8.3-4.6
					c5.1-0.4,10.7-0.6,16.7-0.6C102,96.9,103.5,96.9,104.9,97z"/>
			</g>
			<g>
				<path class="st5" d="M126.4,111.8c0-0.1-0.6-1.7-2.9-1.4c0.3-0.6,0.4-1.4,0.3-2.5c-0.3-4-2.6-7.2-5.2-7.1
					c-2.5,0.1-4.2,3.4-4,7.4c0.1,4,2.3,4,4.8,3.9C122.9,112,124.7,111,126.4,111.8z M139,100.3l-1.8,12.4l-6.3,4.4l-19.7-2.2
					l-3.7-12.1c-0.1-0.3-0.3-0.5-0.6-0.6c-0.1,0-2.6-0.7-5.1-1l0.5,0c0.4,0,7.2-0.9,15.3-3.7C126.7,98.3,134,99.4,139,100.3z"/>
			</g>
		</g>
		<g>
			<path class="st2" d="M147.6,105.8c0.3,0.2,0.5,0.9,0.3,3.9c-0.3,3.7-1.9,10.1-2.8,11.2c-1.1,0.2-3.3,0-4.6-0.4
				c0.2-0.9,0.3-1.4,0.5-2.3l2.4-1.7c0.2-0.1,0.3-0.3,0.3-0.6l1.6-11.5C146.3,104.9,147.3,105.5,147.6,105.8z"/>
		</g>
		<g>
			<path class="st2" d="M60.6,120.8c0.1,0.4,0.2,0.8,0.4,1.2c-1.3,0.4-3.9,0.7-5,0.5c-1-1-2.8-7.7-3.2-11.3
				c-0.3-2.9-0.1-3.5,0.2-3.8c0.3-0.3,1.6-1,2.7-1.6l1.5,12.1c0,0.2,0.2,0.4,0.3,0.6L60.6,120.8z"/>
		</g>
		<g>
			<path class="st2" d="M108.4,121l-0.1,0.8c0,0-2.7,2.5-7.1,3.1c-4.4,0.6-7.8-2.1-7.8-2.1c0.1,0.5,0.3,1.5,1.3,2.4
				c-1.2-0.1-2.4-0.2-3.7-0.2c-0.5,0-1,0-1.4,0c-2.7,0.1-6.5,4.2-9.1,8.3c-1.3,0.4-5.4,1.7-10.1,3.1c-4.4-6.1-6.6-12.4-6.8-13l0,0
				c-0.1-0.2-0.2-0.5-0.3-0.8l1.1,0.8v0l2.8,2l0.9,0.7c0.1,0.1,0.3,0.2,0.5,0.2c0.1,0,0.1,0,0.2,0l25.8-5.7c0.3-0.1,0.5-0.3,0.6-0.6
				l3.7-12.1c0.6-0.1,1.2-0.1,1.7-0.1c0.5,0,1,0,1.7,0.1l3.8,12.5c0.1,0.3,0.4,0.5,0.7,0.6L108.4,121z"/>
		</g>
		<g>
			<path class="st2" d="M137.8,120.3l0.8-0.6c-0.1,0.6-0.3,1.2-0.4,1.7c-1.2,3.7-2.5,7-4,9.9c-0.3,0-0.7,0-1.1,0
				c-1.2,0-2.4-0.1-3.7-0.2c-2.3-0.2-5.9-0.6-7.1-0.8c-1-0.8-4.4-3.5-7.2-5.7c-0.1-0.1-0.2-0.2-0.3-0.2c-0.5-0.4-1.1-0.9-2.2-0.9
				c-1,0-2.6,0.4-6.2,1.5c1.9-1.4,1.9-3.3,1.9-3.3l0.1-0.8l24.2,2.7c0.2,0,0.4,0,0.6-0.1l2.4-1.7L137.8,120.3z"/>
		</g>
		<g>
			<path class="st6" d="M120,69.5c0.1,2.2,0,6-1,9.7c0,0.1,0,0.3,0,0.4c-1.3-0.1-2.5-0.2-3.8-0.4c1.4-3,1.7-6.2,1.8-7.3
				C118.1,71.1,119.2,70.2,120,69.5z"/>
		</g>
		<g>
			<path class="st6" d="M83.5,71.9c0.1,1.1,0.4,4.3,1.8,7.3c-1.3,0.1-2.5,0.2-3.8,0.4c0-0.1,0-0.3,0-0.4c-1-3.6-1.1-7.5-1-9.7
				C81.3,70.2,82.4,71.1,83.5,71.9z"/>
		</g>
		<g>
			<path class="st7" d="M126.4,111.8c-1.7-0.8-3.6,0.2-7,0.3c-2.5,0.1-4.7,0.1-4.8-3.9c-0.1-4,1.5-7.3,4-7.4
				c2.5-0.1,4.9,3.1,5.2,7.1c0.1,1.1,0,1.9-0.3,2.5C125.9,110.1,126.4,111.7,126.4,111.8z M118.4,105.9c0.7,0,1.3-0.6,1.3-1.3
				c0-0.7-0.6-1.3-1.3-1.3c-0.7,0-1.3,0.6-1.3,1.3C117.1,105.4,117.7,105.9,118.4,105.9z"/>
		</g>
		<g>
			<path class="st8" d="M119.7,104.6c0,0.7-0.6,1.3-1.3,1.3c-0.7,0-1.3-0.6-1.3-1.3c0-0.7,0.6-1.3,1.3-1.3
				C119.1,103.3,119.7,103.9,119.7,104.6z"/>
		</g>
		<g>
			<path class="st7" d="M85.9,109c0,4-2.1,3.8-4.6,3.8c-0.3,0-0.5,0-0.7,0c-0.3,0-0.6,0-0.8,0c-2.5,0-4.1-0.1-5.5,0.6
				c0-0.1,0.6-1.5,2.9-2c-0.2-0.5-0.4-1.3-0.4-2.3c-0.2-4,2.3-7.3,4.9-7.3C84.1,101.8,85.9,105,85.9,109z M82,106.9
				c0.7,0,1.3-0.6,1.3-1.3c0-0.7-0.6-1.3-1.3-1.3c-0.7,0-1.3,0.6-1.3,1.3C80.6,106.4,81.2,106.9,82,106.9z"/>
		</g>
		<g>
			<circle class="st8" cx="81.9" cy="105.6" r="1.3"/>
		</g>
		<g class="st9">
			<g>
				<path class="st6" d="M66.4,81.8c0,0,0.4-5.2,1.2-7.1c0.4-1,3-1.7,4.9-2.1c1.9-0.5,5-1.4,5.7,1.3c0.6,2.7,1.6,4.7,2.2,5.6
					l-0.8-11.3l-13.4,3.2l-0.9,10l0.4,0.8L66.4,81.8"/>
			</g>
			<g>
				<path class="st6" d="M134.2,81.8c0,0-0.4-5.2-1.2-7.1c-0.4-1-3-1.7-4.9-2.1c-1.9-0.5-5-1.4-5.7,1.3c-0.6,2.7-1.6,4.7-2.2,5.6
					l0.8-11.3l13.4,3.2l0.9,10l-0.4,0.8L134.2,81.8"/>
			</g>
		</g>
		<g class="st10">
			<path class="st6" d="M115.3,48.1c0,0-0.4,27-6.7,27c-6.3,0-7.6,0-7.6,0h-1.3c0,0-1.3,0-7.6,0s-6.8-27-6.8-27l-3.1,9.2l0.1,12.6
				l2.2,1.7l1,5.4l1.4,3.1l27,0.1l1.2-2.2l1-3.8l0.2-2.4l3-8.5L115.3,48.1z"/>
		</g>
		<g class="st10">
			<path class="st6" d="M135.1,73.3c0,0,1.3,9.3,4.7,11c3.4,1.7,0,0,0,0l-4.8-1.4L135.1,73.3z"/>
		</g>
		<g class="st10">
			<path class="st6" d="M65.4,73.3c0,0-1.3,9.3-4.7,11c-3.4,1.7,0,0,0,0l4.8-1.4L65.4,73.3z"/>
		</g>
		<g>
			<path class="st7" d="M136,82.8c1.6,0.5,3.3,1.1,4.8,2c-0.8-0.3-1.6-0.5-2.4-0.7c-0.8-0.2-1.7-0.4-2.5-0.5c-1.7-0.3-3.4-0.6-5-0.8
				c-1.7-0.2-3.4-0.4-5.1-0.5c-1.7-0.1-3.4-0.3-5.1-0.4c-6.8-0.4-13.6-0.5-20.4-0.5c-6.8,0-13.6,0.1-20.4,0.5
				c-1.7,0.1-3.4,0.2-5.1,0.4c-1.7,0.1-3.4,0.3-5.1,0.5c-1.7,0.2-3.4,0.5-5,0.8c-0.8,0.2-1.7,0.3-2.5,0.5c-0.8,0.2-1.7,0.4-2.4,0.7
				c1.5-0.9,3.1-1.4,4.8-2c0.1,0,0.3-0.1,0.4-0.1c0,0,0-0.1,0-0.1c0-0.2-0.6-4.7,0.4-11.1c0.1-0.3,0.3-0.6,0.6-0.6l1.7-0.5
				c0.4-13.4,5.9-19.7,6.1-19.9c-4.9,7.9-4.9,17.4-4.8,19.6L79.6,67c0,0,0,0,0,0c0,0,0.1,0,0.1,0c0,0,0,0,0,0c0.1,0,0.1,0,0.2,0
				c0,0,0,0,0,0c0,0,0.1,0,0.1,0c0,0,0,0,0.1,0c0,0,0.1,0,0.1,0.1c0,0,0,0,0,0c0,0,0,0,0,0c0,0,0,0,0,0c0,0,0.3,0.3,0.7,0.7
				C81,64.3,81.2,54.2,86,45.7c-0.1,0.3-3.9,11.5-2.6,24.1c0.4,0.3,0.9,0.7,1.3,1c0.2,0.1,0.3,0.4,0.3,0.6c0,0,0.1,4.1,1.9,7.5
				c0,0.1,0,0.1,0.1,0.2c4.4-0.3,8.8-0.4,13.2-0.4c4.4,0,8.8,0.1,13.2,0.4c0-0.1,0-0.1,0.1-0.2c1.8-3.4,1.9-7.4,1.9-7.5
				c0-0.3,0.1-0.5,0.4-0.6c0.4-0.3,0.9-0.6,1.3-1c1.3-12.6-2.5-23.8-2.6-24.1c4.8,8.4,5,18.6,4.9,22.1c0.5-0.4,0.7-0.7,0.7-0.7
				c0,0,0,0,0,0c0,0,0,0,0,0c0,0,0,0,0,0c0,0,0.1,0,0.1-0.1c0,0,0,0,0,0c0,0,0.1,0,0.1,0c0,0,0,0,0,0c0.1,0,0.1,0,0.2,0c0,0,0,0,0,0
				c0,0,0.1,0,0.1,0c0,0,0,0,0,0l10.8,3.1c0.1-2.2,0.1-11.6-4.8-19.6c0.2,0.2,5.7,6.5,6.1,19.9l1.7,0.5c0.3,0.1,0.5,0.3,0.6,0.6
				c1.1,6.4,0.4,10.9,0.4,11.1c0,0,0,0.1,0,0.1C135.8,82.7,135.9,82.8,136,82.8z M134.1,82.2c0.1-0.7,0.5-4.6-0.4-10l-12.2-3.5
				c0.1,2.1,0.2,6.5-1,10.8c0,0.1,0,0.1-0.1,0.2c0.1,0,0.2,0,0.4,0c3.4,0.4,6.8,0.9,10.2,1.7C132.1,81.7,133.1,82,134.1,82.2z
				 M119,79.2c1-3.6,1.1-7.5,1-9.7c-0.8,0.7-1.9,1.7-3,2.4c-0.1,1.1-0.4,4.3-1.8,7.3c1.3,0.1,2.6,0.2,3.8,0.4
				C119,79.5,119,79.3,119,79.2z M85.3,79.2c-1.4-3-1.7-6.2-1.8-7.3c-1.1-0.8-2.2-1.7-3-2.4c-0.1,2.2,0,6.1,1,9.7c0,0.1,0,0.3,0,0.4
				C82.8,79.4,84,79.3,85.3,79.2z M80,79.7c0,0,0-0.1-0.1-0.1c-1.2-4.3-1.1-8.7-1-10.8l-12.2,3.5c-0.8,5.3-0.4,9.2-0.4,10
				c1-0.3,2-0.5,3-0.8c1.7-0.4,3.4-0.7,5.1-1c1.7-0.3,3.4-0.5,5.1-0.7C79.8,79.8,79.9,79.8,80,79.7z"/>
		</g>
		<g id="XMLID_1_">
			<g>
				<path class="st7" d="M113.1,48.5v10.1h-7.2v-3h-1.6v13.6h2.4v7.6H94.2v-7.6h2.4V55.7H95v3h-7.2V48.5H113.1z M110.9,56.5v-5.8
					h-3.1h-5.7H90v5.8h2.9v-3h5.9v17.9h-2.4v3.3h8.2v-3.3h-2.4V53.5h5.9v3H110.9z"/>
				<polygon class="st0" points="110.9,50.7 110.9,56.5 108.1,56.5 108.1,53.5 102.1,53.5 102.1,71.4 104.6,71.4 104.6,74.8 
					96.3,74.8 96.3,71.4 98.8,71.4 98.8,53.5 92.9,53.5 92.9,56.5 90,56.5 90,50.7 102.1,50.7 107.8,50.7 				"/>
			</g>
		</g>
		<g>
			<path class="st3" d="M54.6,92.5c1-0.2,2.5-0.5,4.2-0.9c-1.1,0.7-2.3,1.6-3.7,2.7L54.6,92.5z"/>
		</g>
		<g>
			<path class="st5" d="M92.8,120.2c0,0,0.3,1.9-2.3,2.7c-2.6,0.8-19.3,5.8-21.2,5.5c-1.9-0.3-6.7-3.5-6.7-3.5l-1.2-4.2l7.1,4.4
				L92.8,120.2z"/>
		</g>
		<g>
			<path class="st5" d="M107.7,119.8c0,0-0.2,1.9,2.5,2.6c2.7,0.7,19.5,4.9,21.4,4.6c1.9-0.4,6.6-3.8,6.6-3.8l1-4.2l-6.6,3.9
				L107.7,119.8z"/>
		</g>
		<g>
			<path class="st5" d="M53.2,116.7c0,0,2.3,4.6,6,3l2.7,1l-0.3,2l-5.6,0.7l-1.5-0.9L53.2,116.7z"/>
		</g>
		<g>
			<path class="st5" d="M147.6,115.4c0,0-3.8,4.8-7.5,3.2l-1.2,0.8l0.3,2l5.6,0.7l1.5-0.9L147.6,115.4z"/>
		</g>
		<g>
			<path class="st5" d="M89.3,151.7c0,0,13.7,6.9,29.1-2.5l-5-0.3c0,0-10.8,4.3-19.4,1.9L89.3,151.7z"/>
		</g>
		<g>
			<path class="st7" d="M103.2,139l0.9,1.1c0,0,2.1,2.5,4.7,5.1c1.7,1.7,3.8,2.5,6.1,2.5c0.8,0,1.7-0.1,2.5-0.3
				c0.8-0.2,1.7-0.4,2.5-0.6c3.2-0.8,6.8-1.6,8.6-2.1c0.3-0.1,0.7-0.2,1.1-0.3c2.3-0.5,5.5-1.3,7.2-4.7c1.3-2.5,3-5.9,4.3-8.3
				c-1.1,0.5-2.3,1.1-3.1,1.5c-1.3,0.7-2.9,1-5.1,1c-1.3,0-2.5-0.1-3.9-0.2c-2.8-0.3-7.5-0.8-7.5-0.8l-0.4,0l-0.3-0.2
				c0,0-4.2-3.3-7.5-5.9c-0.1-0.1-0.3-0.2-0.4-0.3c-0.3-0.3-0.3-0.3-0.6-0.3c-1.1,0-4.2,1-11,3.1l-0.4,0.1l-0.4-0.2
				c0,0-4.5-1.7-9.8-1.7c-0.4,0-0.9,0-1.3,0c-0.5,0-3.5,1.5-7.4,7.5l-0.2,0.4l-0.4,0.1c-0.1,0-6.7,2.2-13.7,4.2l-0.5,0.1l-0.4-0.2
				c0,0-2.8-1.3-5.4-2.5c1.4,2.1,3.2,4.7,4.8,6.8c2.8,3.6,6.3,6.9,13.1,6.9c0.8,0,1.7-0.1,2.7-0.2c6.9-0.8,8.6-1.1,9.6-1.3
				c0.3-0.1,0.6-0.1,0.9-0.1c0.1,0,5.7-0.7,7.3-4.3c1.6-3.6,2-4.5,2-4.5l0.6-1.5c0,0,0.1-0.4,0.2-0.5c0,0,0,0,0,0l0,0
				C102.9,138.6,103.2,139,103.2,139z M60.4,70.3c-1.5,0.6-3,1.2-4.4,1.9c-1.5,0.7-2.9,1.4-4.2,2.2c-1.3,0.7-2.5,1.5-3.5,2.4
				c0,0.3-0.1,0.6-0.1,0.8c0,0.4-0.1,0.8-0.1,1.2c-0.1,0.8-0.1,1.6-0.1,2.4c0,1.6,0.1,3.2,0.3,4.8c0.2,1.6,0.5,3.2,0.9,4.7
				c0.2,0.8,0.5,1.5,0.7,2.3c0.1,0.4,0.3,0.7,0.5,1.1c0.1,0.2,0.2,0.3,0.2,0.5l0.1,0.2c0.1,0.1,0.2,0.1,0.4,0.2l0.7,0.3
				c0.4,0.2,0.9,0.4,1.4,0.6c0,0,0.1,0,0.1-0.1l-1.3-5.1c0.3-0.1,2.8-0.7,7.1-1.6c-0.4-0.1-0.7-0.1-1.1-0.2c-1-0.2-2-0.5-2.9-0.9
				c-0.5-0.2-0.9-0.4-1.4-0.7c-0.4-0.3-0.9-0.5-1.2-0.9c4.8,1.6,14.6,0.9,23.4-0.1c8-0.8,16-1.4,24.1-1.4c8.1,0,16.1,0.6,24.1,1.4
				c8.8,0.9,18.6,1.6,23.4,0.1c-0.3,0.4-0.8,0.7-1.2,0.9c-0.4,0.2-0.9,0.5-1.4,0.7c-0.9,0.4-1.9,0.7-2.9,0.9c-0.1,0-0.3,0.1-0.4,0.1
				c4.8,0.9,7.5,1.6,7.8,1.7l-1.3,4.8c0.3-0.1,0.5-0.2,0.8-0.3l0.7-0.3c0.1-0.1,0.2-0.1,0.4-0.2l0.1-0.2c0.1-0.2,0.2-0.3,0.2-0.5
				c0.2-0.4,0.3-0.7,0.5-1.1c0.3-0.7,0.5-1.5,0.7-2.3c0.4-1.5,0.7-3.1,0.9-4.7c0.2-1.6,0.3-3.2,0.3-4.8c0-0.8,0-1.6-0.1-2.4
				c0-0.4-0.1-0.8-0.1-1.2c0-0.3-0.1-0.6-0.1-0.8c-1.1-0.9-2.3-1.7-3.5-2.4c-1.4-0.8-2.8-1.5-4.2-2.2c-1.4-0.7-2.9-1.3-4.4-1.9
				c-0.7-0.3-1.5-0.6-2.3-0.9c-0.8-0.3-1.5-0.6-2.3-0.8c1.6,0.3,3.2,0.6,4.8,1c1,0.3,2,0.6,3.1,0.9c-7.2-18.8-24.4-31-43.1-31
				c-18.8,0-35.9,12.2-43.1,31c1-0.3,2-0.6,3-0.9c1.6-0.4,3.2-0.8,4.8-1c-0.8,0.3-1.5,0.6-2.3,0.8C61.9,69.7,61.1,70,60.4,70.3z
				 M155,81.2c0.1,1.7,0,3.5-0.2,5.2c-0.2,1.7-0.5,3.4-1,5.1c-0.2,0.8-0.5,1.7-0.8,2.5c-0.2,0.4-0.3,0.8-0.5,1.2
				c-0.1,0.2-0.2,0.4-0.3,0.6l-0.2,0.3c-0.1,0.1-0.1,0.2-0.2,0.3l-0.2,0.3l-0.3,0.1c-0.3,0.2-0.5,0.3-0.8,0.4l-0.8,0.3
				c-0.5,0.2-1,0.4-1.6,0.6c-0.4,0.1-0.7,0.3-1,0.4l-0.9,3.3c0,0-0.3-0.1-0.8-0.2l0,0.3c0.9,0.5,2.8,1.5,3.4,2
				c1.3,1.1,1.4,2.7,1.1,5.8c-0.1,1.6-0.7,4.7-1.4,7.6c-1.3,4.9-1.9,5.5-2.8,5.7c-0.4,0.1-1.1,0.2-1.8,0.2c-1.3,0-3.2,0-4.4-0.3
				c-0.3,1.1-1.2,4-3,7.7c0.1,0,0.2-0.1,0.3-0.1c2.2-1.2,6.4-3,6.6-3.1l3.3-1.5l-1.7,3.2c0,0.1-3.7,7-6,11.5c-2.2,4.5-6.4,5.4-8.9,6
				c-0.4,0.1-0.7,0.2-1,0.3c-1.8,0.5-5.4,1.4-8.7,2.1c0,0-0.1,0-0.1,0c-2,1.2-4.1,2.3-6.5,3.2c-8.6,3.3-17.8,3.1-26,0.1
				c-1.3,0.2-3.1,0.4-5.5,0.7c-1,0.1-2,0.2-3,0.2c-7.9,0-12-4-15.1-7.9c-3.3-4.2-7.2-10.4-7.4-10.7l-2.3-3.6l3.9,1.8
				c1.9,0.8,7.4,3.4,9,4.2c0.1,0,0.3-0.1,0.4-0.1c-2.6-3.8-4.8-8.1-6.3-12.8c-1.3,0.4-3.3,0.7-4.9,0.7c-0.6,0-1.1,0-1.5-0.1
				c-0.9-0.2-1.9-1-3.2-5.8c-0.8-2.8-1.4-5.8-1.5-7.3c-0.3-3-0.3-4.7,1-5.7c0.8-0.6,3.3-2,3.9-2.3l-0.1-0.9c-8.2,4.8-13,9-13.1,9.1
				l-5.8,5.1l4.2-6.6c3.3-5.2,7.1-9.4,10.6-12.6c-0.1-0.1-0.3-0.1-0.4-0.2l-0.8-0.3c-0.3-0.1-0.5-0.2-0.8-0.4l-0.3-0.1l-0.2-0.3
				c-0.1-0.1-0.1-0.2-0.2-0.3l-0.2-0.3c-0.1-0.2-0.2-0.4-0.3-0.6c-0.2-0.4-0.4-0.8-0.5-1.2c-0.3-0.8-0.6-1.7-0.8-2.5
				c-0.5-1.7-0.8-3.4-1-5.1c-0.2-1.7-0.2-3.5-0.2-5.2c0-0.9,0.1-1.7,0.2-2.6c0.1-0.4,0.1-0.9,0.2-1.3c0.1-0.4,0.2-0.8,0.3-1.3
				l0.1-0.3l0.2-0.2c1.4-1.1,2.8-1.9,4.3-2.6c1.2-0.6,2.5-1.1,3.7-1.6c3.5-9.8,9.6-18.5,17.6-24.5c8.2-6.3,17.9-9.6,28-9.6
				c10.1,0,19.8,3.3,28,9.6c8,6,14,14.7,17.6,24.5c1.3,0.5,2.5,1,3.7,1.6c1.5,0.7,3,1.5,4.3,2.6l0.2,0.2l0.1,0.3
				c0.1,0.5,0.2,0.9,0.3,1.3c0.1,0.4,0.2,0.9,0.2,1.3C154.9,79.4,154.9,80.3,155,81.2z M147.9,109.7c0.3-3,0-3.6-0.3-3.9
				c-0.3-0.3-1.3-0.8-2.3-1.4l-1.6,11.5c0,0.2-0.2,0.4-0.3,0.6l-2.4,1.7c-0.2,0.9-0.3,1.4-0.5,2.3c1.3,0.3,3.6,0.6,4.6,0.4
				C146,119.8,147.5,113.3,147.9,109.7z M144.8,99.2l1.8-6.7c-2.6-0.6-7.3-1.6-13.7-2.5c-3.3,2.4-6.9,4.2-10.4,5.8
				C133.3,96.8,141.2,98.4,144.8,99.2z M142,115.3l2-14c-0.9-0.2-2-0.4-3.4-0.7l-1.8,12.7c0,0.2-0.2,0.4-0.3,0.6l-6.8,4.8
				c-0.2,0.1-0.4,0.2-0.6,0.1l-20.5-2.3c-0.3,0-0.6-0.3-0.7-0.6l-3.7-12.2c-1-0.3-3.5-0.8-5.8-0.8c-2.2,0-4.8,0.6-5.8,0.8L91,115.9
				c-0.1,0.2-0.2,0.4-0.4,0.5c-0.1,0-0.1,0.1-0.2,0.1L69.9,121c-0.1,0-0.1,0-0.2,0c-0.2,0-0.3,0-0.5-0.1l-6.8-4.8
				c-0.2-0.1-0.3-0.3-0.3-0.6l-1.8-14.9c-0.8,0.1-1.4,0.3-2.1,0.4c-0.4,0.2-0.9,0.5-1.3,0.7l1.9,15.8l9.9,6.9l24.9-5.6l3.7-12.1
				c0.1-0.3,0.3-0.5,0.7-0.6c0.9-0.2,1.8-0.2,2.4-0.2c0.7,0,1.5,0.1,2.4,0.2c0.3,0,0.6,0.3,0.7,0.6l3.8,12.4l25.1,2.9L142,115.3z
				 M137.2,112.7l1.8-12.4c-5-0.9-12.3-2-21.3-2.7c-8.1,2.8-14.9,3.6-15.3,3.7l-0.5,0c2.6,0.2,5,0.9,5.1,1c0.3,0.1,0.5,0.3,0.6,0.6
				l3.7,12.1l19.7,2.2L137.2,112.7z M138.6,119.8l-0.8,0.6l-2.2,1.6l-2.4,1.7c-0.2,0.1-0.4,0.2-0.6,0.1l-24.2-2.7l-1.8-0.2
				c-0.3,0-0.6-0.3-0.7-0.6l-3.8-12.5c-0.6-0.1-1.2-0.1-1.7-0.1c-0.5,0-1,0-1.7,0.1l-3.7,12.1c-0.1,0.3-0.3,0.5-0.6,0.6l-25.8,5.7
				c-0.1,0-0.1,0-0.2,0c-0.2,0-0.3,0-0.5-0.1l-0.9-0.7l-2.8-2v0l-1.1-0.8c0.1,0.3,0.2,0.5,0.3,0.8l0,0c0.2,0.6,2.4,6.9,6.8,13
				c4.7-1.4,8.8-2.7,10.1-3.1c2.7-4.1,6.5-8.2,9.1-8.3c0.5,0,0.9,0,1.4,0c1.3,0,2.6,0.1,3.7,0.2c-1-0.9-1.2-2-1.3-2.4
				c0,0,3.4,2.7,7.8,2.1c4.4-0.6,7.1-3.1,7.1-3.1s0,1.8-1.9,3.3c3.7-1.1,5.2-1.5,6.2-1.5c1.1,0,1.7,0.5,2.2,0.9
				c0.1,0.1,0.2,0.2,0.3,0.2c2.8,2.2,6.2,4.9,7.2,5.7c1.1,0.1,4.8,0.5,7.1,0.8c1.3,0.1,2.5,0.2,3.7,0.2c0.4,0,0.7,0,1.1,0
				c1.5-2.9,2.9-6.2,4-9.9C138.3,120.9,138.5,120.3,138.6,119.8z M129.7,89.1C129.7,89.1,129.7,89.1,129.7,89.1
				c-2-0.2-3.9-0.3-5.8-0.4c-2.7-0.2-5.4-0.3-8.1-0.4c-0.2,0.2-0.5,0.7-0.9,1.3c-1.5,2-4.4,5.6-8.1,8.7c5.3-0.9,14.5-3.3,22.4-8.8
				C129.3,89.4,129.5,89.3,129.7,89.1z M112,89.7c0.2-0.3,0.4-0.5,0.6-0.8c-1.9,0.2-3.9,0.5-5.7,0.8c-6.4,1.2-12.3,3.2-17.3,5.2
				c3.5-0.2,7.2-0.3,11-0.3c2.3,0,4.6,0,6.8,0.1C109.2,93,110.8,91.1,112,89.7z M114.1,150.3c-2.7-0.2-5.1-1.3-7.1-3.2
				c-0.1-0.1-0.2-0.2-0.3-0.3c-0.9,0.2-1.9,0.3-2.9,0.4c-0.4,0-0.8,0.1-1.2,0.1l-0.6,0l-0.2,0c-2.6,3.9-8.4,4.6-8.7,4.7
				c-0.2,0-0.4,0.1-0.7,0.1c3.2,0.9,6.5,1.3,9.8,1.1C105.4,152.8,109.6,152.1,114.1,150.3z M103.8,145.8c0.6,0,1.3-0.1,1.9-0.2
				c-0.8-0.9-1.5-1.6-2.1-2.3c-0.3,0.6-0.7,1.5-1.1,2.6h0.1C102.9,145.9,103.4,145.9,103.8,145.8z M101.8,99.2
				c1.1-0.7,2.1-1.4,3.1-2.2c-1.4,0-2.9,0-4.3,0c-6,0-11.6,0.2-16.7,0.6c-5.1,2.5-8.2,4.6-8.3,4.6l-4.9,3.3l3.4-4.8
				c0.6-0.8,1.1-1.6,1.8-2.3c-5.7,0.6-10.4,1.4-13.9,2l1.8,14.6l6.2,4.3l19.7-4.4l3.7-12.1c0.1-0.2,0.2-0.4,0.4-0.5
				c0.1,0,0.1-0.1,0.2-0.1c0.1,0,2.1-0.6,4.4-0.9L101.8,99.2z M104,88c-1.4,0-2.7,0-4.1,0h0c-2,0-4,0-6,0.1l-3.7,1.8c0,0,0,0-0.1,0
				c-0.6,0.3-5.4,2.7-10,7.1c4.1-2.2,10.2-5,17.3-7.2C99.5,89.1,101.7,88.5,104,88z M78,95.8c1.9-1.9,3.9-3.5,5.7-4.7
				c-6.8,1.6-13,3.9-18.5,6.4C68.8,96.9,73.1,96.3,78,95.8z M79.3,89.9c2.3-0.6,4.6-1.2,7-1.7c-3.4,0.1-6.9,0.3-10.3,0.5
				c-2,0.1-4,0.2-6,0.4c-1,0.1-2,0.2-3,0.3c-0.3,0-0.6,0.1-0.8,0.1c-2.6,1.6-12.5,7.8-19.4,16C53.5,100.8,65.1,93.9,79.3,89.9z
				 M61,122.1c-0.1-0.4-0.3-0.8-0.4-1.2l-3.1-2.1c-0.2-0.1-0.3-0.3-0.3-0.6L55.7,106c-1.1,0.6-2.4,1.3-2.7,1.6
				c-0.3,0.2-0.5,0.9-0.2,3.8c0.4,3.6,2.2,10.3,3.2,11.3C57.2,122.8,59.8,122.5,61,122.1z M58.8,91.6c-1.7,0.3-3.1,0.6-4.2,0.9
				l0.5,1.9C56.4,93.2,57.7,92.3,58.8,91.6z"/>
		</g>
	</g>
</g>
<g>
	<path class="st11" d="M451,191.8H0V0h451V191.8z M1,190.8h449V1H1V190.8z"/>
</g>
<g>
	<polygon class="st11" points="427.6,122.4 422.4,122.4 422.4,121.4 426.6,121.4 426.6,86.2 422.4,86.2 422.4,85.2 427.6,85.2 	"/>
</g>
<g>
	<polygon class="st11" points="427.6,191.9 422.4,191.9 422.4,190.9 426.6,190.9 426.6,155.7 422.4,155.7 422.4,154.7 427.6,154.7 	
		"/>
</g>
<g>
	<g>
		<path class="st12" d="M434.6,103.1l-2.7-4.7h0.7l1.6,2.9c0.3,0.4,0.5,0.8,0.8,1.3h0.1c0.3-0.5,0.5-0.9,0.7-1.3l1.6-2.9h0.7
			l-2.7,4.7l2.9,5h-0.7l-1.7-3c-0.3-0.5-0.5-1-0.9-1.5h-0.1c-0.3,0.6-0.6,1.1-0.8,1.5l-1.7,3h-0.7L434.6,103.1z"/>
	</g>
</g>
<g>
	<g>
		<path class="st12" d="M434.6,172.5l-2.7-4.7h0.7l1.6,2.9c0.3,0.4,0.5,0.8,0.8,1.3h0.1c0.3-0.5,0.5-0.9,0.7-1.3l1.6-2.9h0.7
			l-2.7,4.7l2.9,5h-0.7l-1.7-3c-0.3-0.5-0.5-1-0.9-1.5h-0.1c-0.3,0.6-0.6,1.1-0.8,1.5l-1.7,3h-0.7L434.6,172.5z"/>
	</g>
</g>
<g>
	<polygon class="st11" points="173.8,33.7 172.8,33.7 172.8,29.4 155.7,29.4 155.7,33.7 154.7,33.7 154.7,28.4 173.8,28.4 	"/>
</g>
<g>
	<g>
		<path class="st13" d="M155,22.8c0.3,0,0.6,0.2,0.6,0.7c0,0.4-0.3,0.7-0.6,0.7s-0.6-0.2-0.6-0.7C154.4,23,154.7,22.8,155,22.8z"/>
	</g>
	<g>
		<path class="st13" d="M157.4,22.4c0.6,0.6,1.3,1.1,2.6,1.1c1.3,0,2.3-1,2.3-2.5c0-1.5-0.9-2.4-2.3-2.4c-0.7,0-1.2,0.2-1.8,0.6
			l-0.5-0.3l0.3-4.4h4.3v0.6h-3.8l-0.3,3.4c0.5-0.3,1-0.5,1.7-0.5c1.6,0,2.9,0.9,2.9,3c0,2-1.5,3.1-3,3.1c-1.5,0-2.4-0.7-3-1.3
			L157.4,22.4z"/>
	</g>
	<g>
		<path class="st13" d="M169.7,18.9l-2.7-4.7h0.7l1.6,2.9c0.3,0.4,0.5,0.8,0.8,1.3h0.1c0.3-0.5,0.5-0.9,0.7-1.3l1.6-2.9h0.7
			l-2.7,4.7l2.9,5h-0.7l-1.7-3c-0.3-0.5-0.5-1-0.9-1.5H170c-0.3,0.6-0.6,1.1-0.8,1.5l-1.7,3h-0.7L169.7,18.9z"/>
	</g>
</g>
<g>
	<g>
		<path class="st13" d="M434.6,103.1l-2.7-4.7h0.7l1.6,2.9c0.3,0.4,0.5,0.8,0.8,1.3h0.1c0.3-0.5,0.5-0.9,0.7-1.3l1.6-2.9h0.7
			l-2.7,4.7l2.9,5h-0.7l-1.7-3c-0.3-0.5-0.5-1-0.9-1.5h-0.1c-0.3,0.6-0.6,1.1-0.8,1.5l-1.7,3h-0.7L434.6,103.1z"/>
	</g>
</g>
<g>
	<g>
		<path class="st13" d="M434.6,172.5l-2.7-4.7h0.7l1.6,2.9c0.3,0.4,0.5,0.8,0.8,1.3h0.1c0.3-0.5,0.5-0.9,0.7-1.3l1.6-2.9h0.7
			l-2.7,4.7l2.9,5h-0.7l-1.7-3c-0.3-0.5-0.5-1-0.9-1.5h-0.1c-0.3,0.6-0.6,1.1-0.8,1.5l-1.7,3h-0.7L434.6,172.5z"/>
	</g>
</g>
<g>
	<g>
		<rect x="173" y="37.2" class="st14" width="1" height="0.5"/>
	</g>
	<g>
		<path class="st14" d="M174,152.4h-1v-1h1V152.4z M174,149.4h-1v-1h1V149.4z M174,146.3h-1v-1h1V146.3z M174,143.3h-1v-1h1V143.3z
			 M174,140.3h-1v-1h1V140.3z M174,137.3h-1v-1h1V137.3z M174,134.3h-1v-1h1V134.3z M174,131.2h-1v-1h1V131.2z M174,128.2h-1v-1h1
			V128.2z M174,125.2h-1v-1h1V125.2z M174,122.2h-1v-1h1V122.2z M174,119.2h-1v-1h1V119.2z M174,116.2h-1v-1h1V116.2z M174,113.1h-1
			v-1h1V113.1z M174,110.1h-1v-1h1V110.1z M174,107.1h-1v-1h1V107.1z M174,104.1h-1v-1h1V104.1z M174,101.1h-1v-1h1V101.1z M174,98
			h-1v-1h1V98z M174,95h-1v-1h1V95z M174,92h-1v-1h1V92z M174,89h-1v-1h1V89z M174,86h-1v-1h1V86z M174,83h-1v-1h1V83z M174,79.9h-1
			v-1h1V79.9z M174,76.9h-1v-1h1V76.9z M174,73.9h-1v-1h1V73.9z M174,70.9h-1v-1h1V70.9z M174,67.9h-1v-1h1V67.9z M174,64.8h-1v-1h1
			V64.8z M174,61.8h-1v-1h1V61.8z M174,58.8h-1v-1h1V58.8z M174,55.8h-1v-1h1V55.8z M174,52.8h-1v-1h1V52.8z M174,49.8h-1v-1h1V49.8
			z M174,46.7h-1v-1h1V46.7z M174,43.7h-1v-1h1V43.7z M174,40.7h-1v-1h1V40.7z"/>
	</g>
	<g>
		<rect x="173" y="154.4" class="st14" width="1" height="0.5"/>
	</g>
</g>
<g>
	<g>
		<rect x="154.8" y="37.2" class="st14" width="1" height="0.5"/>
	</g>
	<g>
		<path class="st14" d="M155.8,152.4h-1v-1h1V152.4z M155.8,149.4h-1v-1h1V149.4z M155.8,146.3h-1v-1h1V146.3z M155.8,143.3h-1v-1h1
			V143.3z M155.8,140.3h-1v-1h1V140.3z M155.8,137.3h-1v-1h1V137.3z M155.8,134.3h-1v-1h1V134.3z M155.8,131.2h-1v-1h1V131.2z
			 M155.8,128.2h-1v-1h1V128.2z M155.8,125.2h-1v-1h1V125.2z M155.8,122.2h-1v-1h1V122.2z M155.8,119.2h-1v-1h1V119.2z M155.8,116.2
			h-1v-1h1V116.2z M155.8,113.1h-1v-1h1V113.1z M155.8,110.1h-1v-1h1V110.1z M155.8,107.1h-1v-1h1V107.1z M155.8,104.1h-1v-1h1
			V104.1z M155.8,101.1h-1v-1h1V101.1z M155.8,98h-1v-1h1V98z M155.8,95h-1v-1h1V95z M155.8,92h-1v-1h1V92z M155.8,89h-1v-1h1V89z
			 M155.8,86h-1v-1h1V86z M155.8,83h-1v-1h1V83z M155.8,79.9h-1v-1h1V79.9z M155.8,76.9h-1v-1h1V76.9z M155.8,73.9h-1v-1h1V73.9z
			 M155.8,70.9h-1v-1h1V70.9z M155.8,67.9h-1v-1h1V67.9z M155.8,64.8h-1v-1h1V64.8z M155.8,61.8h-1v-1h1V61.8z M155.8,58.8h-1v-1h1
			V58.8z M155.8,55.8h-1v-1h1V55.8z M155.8,52.8h-1v-1h1V52.8z M155.8,49.8h-1v-1h1V49.8z M155.8,46.7h-1v-1h1V46.7z M155.8,43.7h-1
			v-1h1V43.7z M155.8,40.7h-1v-1h1V40.7z"/>
	</g>
	<g>
		<rect x="154.8" y="154.4" class="st14" width="1" height="0.5"/>
	</g>
</g>
<g>
	<g>
		<rect x="414" y="121.7" class="st14" width="0.5" height="1"/>
	</g>
	<g>
		<path class="st14" d="M412,122.7h-1v-1h1V122.7z M409,122.7h-1v-1h1V122.7z M406,122.7h-1v-1h1V122.7z M403,122.7h-1v-1h1V122.7z
			 M399.9,122.7h-1v-1h1V122.7z M396.9,122.7h-1v-1h1V122.7z M393.9,122.7h-1v-1h1V122.7z M390.9,122.7h-1v-1h1V122.7z M387.9,122.7
			h-1v-1h1V122.7z M384.9,122.7h-1v-1h1V122.7z M381.9,122.7h-1v-1h1V122.7z M378.9,122.7h-1v-1h1V122.7z M375.9,122.7h-1v-1h1
			V122.7z M372.8,122.7h-1v-1h1V122.7z M369.8,122.7h-1v-1h1V122.7z M366.8,122.7h-1v-1h1V122.7z M363.8,122.7h-1v-1h1V122.7z
			 M360.8,122.7h-1v-1h1V122.7z M357.8,122.7h-1v-1h1V122.7z M354.8,122.7h-1v-1h1V122.7z M351.8,122.7h-1v-1h1V122.7z M348.7,122.7
			h-1v-1h1V122.7z M345.7,122.7h-1v-1h1V122.7z M342.7,122.7h-1v-1h1V122.7z M339.7,122.7h-1v-1h1V122.7z M336.7,122.7h-1v-1h1
			V122.7z M333.7,122.7h-1v-1h1V122.7z M330.7,122.7h-1v-1h1V122.7z M327.7,122.7h-1v-1h1V122.7z M324.7,122.7h-1v-1h1V122.7z
			 M321.6,122.7h-1v-1h1V122.7z M318.6,122.7h-1v-1h1V122.7z M315.6,122.7h-1v-1h1V122.7z M312.6,122.7h-1v-1h1V122.7z M309.6,122.7
			h-1v-1h1V122.7z M306.6,122.7h-1v-1h1V122.7z M303.6,122.7h-1v-1h1V122.7z M300.6,122.7h-1v-1h1V122.7z M297.5,122.7h-1v-1h1
			V122.7z M294.5,122.7h-1v-1h1V122.7z M291.5,122.7h-1v-1h1V122.7z M288.5,122.7h-1v-1h1V122.7z M285.5,122.7h-1v-1h1V122.7z
			 M282.5,122.7h-1v-1h1V122.7z M279.5,122.7h-1v-1h1V122.7z M276.5,122.7h-1v-1h1V122.7z M273.5,122.7h-1v-1h1V122.7z M270.4,122.7
			h-1v-1h1V122.7z M267.4,122.7h-1v-1h1V122.7z M264.4,122.7h-1v-1h1V122.7z M261.4,122.7h-1v-1h1V122.7z M258.4,122.7h-1v-1h1
			V122.7z M255.4,122.7h-1v-1h1V122.7z M252.4,122.7h-1v-1h1V122.7z M249.4,122.7h-1v-1h1V122.7z M246.3,122.7h-1v-1h1V122.7z
			 M243.3,122.7h-1v-1h1V122.7z M240.3,122.7h-1v-1h1V122.7z M237.3,122.7h-1v-1h1V122.7z M234.3,122.7h-1v-1h1V122.7z M231.3,122.7
			h-1v-1h1V122.7z M228.3,122.7h-1v-1h1V122.7z M225.3,122.7h-1v-1h1V122.7z M222.3,122.7h-1v-1h1V122.7z M219.2,122.7h-1v-1h1
			V122.7z M216.2,122.7h-1v-1h1V122.7z M213.2,122.7h-1v-1h1V122.7z"/>
	</g>
	<g>
		<rect x="209.7" y="121.7" class="st14" width="0.5" height="1"/>
	</g>
</g>
<g>
	<g>
		<rect x="414" y="85.2" class="st14" width="0.5" height="1"/>
	</g>
	<g>
		<path class="st14" d="M412,86.2h-1v-1h1V86.2z M409,86.2h-1v-1h1V86.2z M406,86.2h-1v-1h1V86.2z M403,86.2h-1v-1h1V86.2z
			 M399.9,86.2h-1v-1h1V86.2z M396.9,86.2h-1v-1h1V86.2z M393.9,86.2h-1v-1h1V86.2z M390.9,86.2h-1v-1h1V86.2z M387.9,86.2h-1v-1h1
			V86.2z M384.9,86.2h-1v-1h1V86.2z M381.9,86.2h-1v-1h1V86.2z M378.9,86.2h-1v-1h1V86.2z M375.9,86.2h-1v-1h1V86.2z M372.8,86.2h-1
			v-1h1V86.2z M369.8,86.2h-1v-1h1V86.2z M366.8,86.2h-1v-1h1V86.2z M363.8,86.2h-1v-1h1V86.2z M360.8,86.2h-1v-1h1V86.2z
			 M357.8,86.2h-1v-1h1V86.2z M354.8,86.2h-1v-1h1V86.2z M351.8,86.2h-1v-1h1V86.2z M348.7,86.2h-1v-1h1V86.2z M345.7,86.2h-1v-1h1
			V86.2z M342.7,86.2h-1v-1h1V86.2z M339.7,86.2h-1v-1h1V86.2z M336.7,86.2h-1v-1h1V86.2z M333.7,86.2h-1v-1h1V86.2z M330.7,86.2h-1
			v-1h1V86.2z M327.7,86.2h-1v-1h1V86.2z M324.7,86.2h-1v-1h1V86.2z M321.6,86.2h-1v-1h1V86.2z M318.6,86.2h-1v-1h1V86.2z
			 M315.6,86.2h-1v-1h1V86.2z M312.6,86.2h-1v-1h1V86.2z M309.6,86.2h-1v-1h1V86.2z M306.6,86.2h-1v-1h1V86.2z M303.6,86.2h-1v-1h1
			V86.2z M300.6,86.2h-1v-1h1V86.2z M297.5,86.2h-1v-1h1V86.2z M294.5,86.2h-1v-1h1V86.2z M291.5,86.2h-1v-1h1V86.2z M288.5,86.2h-1
			v-1h1V86.2z M285.5,86.2h-1v-1h1V86.2z M282.5,86.2h-1v-1h1V86.2z M279.5,86.2h-1v-1h1V86.2z M276.5,86.2h-1v-1h1V86.2z
			 M273.5,86.2h-1v-1h1V86.2z M270.4,86.2h-1v-1h1V86.2z M267.4,86.2h-1v-1h1V86.2z M264.4,86.2h-1v-1h1V86.2z M261.4,86.2h-1v-1h1
			V86.2z M258.4,86.2h-1v-1h1V86.2z M255.4,86.2h-1v-1h1V86.2z M252.4,86.2h-1v-1h1V86.2z M249.4,86.2h-1v-1h1V86.2z M246.3,86.2h-1
			v-1h1V86.2z M243.3,86.2h-1v-1h1V86.2z M240.3,86.2h-1v-1h1V86.2z M237.3,86.2h-1v-1h1V86.2z M234.3,86.2h-1v-1h1V86.2z
			 M231.3,86.2h-1v-1h1V86.2z M228.3,86.2h-1v-1h1V86.2z M225.3,86.2h-1v-1h1V86.2z M222.3,86.2h-1v-1h1V86.2z M219.2,86.2h-1v-1h1
			V86.2z M216.2,86.2h-1v-1h1V86.2z M213.2,86.2h-1v-1h1V86.2z"/>
	</g>
	<g>
		<rect x="209.7" y="85.2" class="st14" width="0.5" height="1"/>
	</g>
</g>
<g>
	<path class="st14" d="M414.6,155.4h-1v-1h0.5v-0.5h1v1h-0.5V155.4z M411.6,155.4h-1v-1h1V155.4z M408.6,155.4h-1v-1h1V155.4z
		 M405.6,155.4h-1v-1h1V155.4z M402.6,155.4h-1v-1h1V155.4z M399.6,155.4h-1v-1h1V155.4z M396.6,155.4h-1v-1h1V155.4z M393.6,155.4
		h-1v-1h1V155.4z M390.6,155.4h-1v-1h1V155.4z M387.6,155.4h-1v-1h1V155.4z M384.6,155.4h-1v-1h1V155.4z M381.6,155.4h-1v-1h1V155.4
		z M378.6,155.4h-1v-1h1V155.4z M375.6,155.4h-1v-1h1V155.4z M372.6,155.4h-1v-1h1V155.4z M369.6,155.4h-1v-1h1V155.4z M366.6,155.4
		h-1v-1h1V155.4z M363.6,155.4h-1v-1h1V155.4z M360.6,155.4h-1v-1h1V155.4z M357.6,155.4h-1v-1h1V155.4z M354.6,155.4h-1v-1h1V155.4
		z M351.6,155.4h-1v-1h1V155.4z M348.6,155.4h-1v-1h1V155.4z M345.6,155.4h-1v-1h1V155.4z M342.6,155.4h-1v-1h1V155.4z M339.6,155.4
		h-1v-1h1V155.4z M336.6,155.4h-1v-1h1V155.4z M333.6,155.4h-1v-1h1V155.4z M330.6,155.4h-1v-1h1V155.4z M327.6,155.4h-1v-1h1V155.4
		z M324.6,155.4h-1v-1h1V155.4z M321.6,155.4h-1v-1h1V155.4z M318.6,155.4h-1v-1h1V155.4z M315.6,155.4h-1v-1h1V155.4z M312.6,155.4
		h-1v-1h1V155.4z M309.6,155.4h-1v-1h1V155.4z M306.6,155.4h-1v-1h1V155.4z M303.6,155.4h-1v-1h1V155.4z M300.6,155.4h-1v-1h1V155.4
		z M297.6,155.4h-1v-1h1V155.4z M294.6,155.4h-1v-1h1V155.4z M291.6,155.4h-1v-1h1V155.4z M288.6,155.4h-1v-1h1V155.4z M285.6,155.4
		h-1v-1h1V155.4z M282.6,155.4h-1v-1h1V155.4z M279.6,155.4h-1v-1h1V155.4z M276.6,155.4h-1v-1h1V155.4z M273.6,155.4h-1v-1h1V155.4
		z M270.6,155.4h-1v-1h1V155.4z M267.6,155.4h-1v-1h1V155.4z M264.6,155.4h-1v-1h1V155.4z M261.6,155.4h-1v-1h1V155.4z M258.6,155.4
		h-1v-1h1V155.4z M255.6,155.4h-1v-1h1V155.4z M252.6,155.4h-1v-1h1V155.4z M249.6,155.4h-1v-1h1V155.4z M246.6,155.4h-1v-1h1V155.4
		z M243.6,155.4h-1v-1h1V155.4z M240.6,155.4h-1v-1h1V155.4z M237.6,155.4h-1v-1h1V155.4z M234.6,155.4h-1v-1h1V155.4z M231.6,155.4
		h-1v-1h1V155.4z M228.6,155.4h-1v-1h1V155.4z M225.6,155.4h-1v-1h1V155.4z M222.6,155.4h-1v-1h1V155.4z M219.6,155.4h-1v-1h1V155.4
		z M216.6,155.4h-1v-1h1V155.4z M213.6,155.4h-1v-1h1V155.4z M210.6,155.4h-1v-1h1V155.4z M207.6,155.4h-1v-1h1V155.4z M204.6,155.4
		h-1v-1h1V155.4z M201.6,155.4h-1v-1h1V155.4z M198.6,155.4h-1v-1h1V155.4z M195.6,155.4h-1v-1h1V155.4z M192.6,155.4h-1v-1h1V155.4
		z M189.6,155.4h-1v-1h1V155.4z M186.6,155.4h-1v-1h1V155.4z M183.6,155.4h-1v-1h1V155.4z M180.6,155.4h-1v-1h1V155.4z M177.6,155.4
		h-1v-1h1V155.4z M174.6,155.4h-1v-1h1V155.4z M171.6,155.4h-1v-1h1V155.4z M168.6,155.4h-1v-1h1V155.4z M165.6,155.4h-1v-1h1V155.4
		z M162.6,155.4h-1v-1h1V155.4z M159.6,155.4h-1v-1h1V155.4z M156.6,155.4h-1v-1h1V155.4z M153.6,155.4h-1v-1h1V155.4z M150.6,155.4
		h-1v-1h1V155.4z M147.6,155.4h-1v-1h1V155.4z M144.6,155.4h-1v-1h1V155.4z M141.6,155.4h-1v-1h1V155.4z M138.6,155.4h-1v-1h1V155.4
		z M135.6,155.4h-1v-1h1V155.4z M132.6,155.4h-1v-1h1V155.4z M129.6,155.4h-1v-1h1V155.4z M126.6,155.4h-1v-1h1V155.4z M123.6,155.4
		h-1v-1h1V155.4z M120.6,155.4h-1v-1h1V155.4z M117.6,155.4h-1v-1h1V155.4z M114.6,155.4h-1v-1h1V155.4z M111.6,155.4h-1v-1h1V155.4
		z M108.6,155.4h-1v-1h1V155.4z M105.6,155.4h-1v-1h1V155.4z M102.6,155.4h-1v-1h1V155.4z M99.6,155.4h-1v-1h1V155.4z M96.6,155.4
		h-1v-1h1V155.4z M93.6,155.4h-1v-1h1V155.4z M90.6,155.4h-1v-1h1V155.4z M87.6,155.4h-1v-1h1V155.4z M84.6,155.4h-1v-1h1V155.4z
		 M81.6,155.4h-1v-1h1V155.4z M78.6,155.4h-1v-1h1V155.4z M75.6,155.4h-1v-1h1V155.4z M72.6,155.4h-1v-1h1V155.4z M69.6,155.4h-1v-1
		h1V155.4z M66.6,155.4h-1v-1h1V155.4z M63.6,155.4h-1v-1h1V155.4z M60.6,155.4h-1v-1h1V155.4z M57.6,155.4h-1v-1h1V155.4z
		 M54.6,155.4h-1v-1h1V155.4z M51.6,155.4h-1v-1h1V155.4z M48.6,155.4h-1v-1h1V155.4z M45.6,155.4h-1v-1h1V155.4z M42.6,155.4h-1v-1
		h1V155.4z M39.6,155.4h-1v-1h1V155.4z M37.3,154.7h-1v-1h1V154.7z M415.1,151.9h-1v-1h1V151.9z M37.3,151.7h-1v-1h1V151.7z
		 M415.1,148.9h-1v-1h1V148.9z M37.3,148.7h-1v-1h1V148.7z M415.1,145.9h-1v-1h1V145.9z M37.3,145.7h-1v-1h1V145.7z M415.1,142.9h-1
		v-1h1V142.9z M37.3,142.7h-1v-1h1V142.7z M415.1,139.9h-1v-1h1V139.9z M37.3,139.7h-1v-1h1V139.7z M415.1,136.9h-1v-1h1V136.9z
		 M37.3,136.7h-1v-1h1V136.7z M415.1,133.9h-1v-1h1V133.9z M37.3,133.7h-1v-1h1V133.7z M415.1,130.9h-1v-1h1V130.9z M37.3,130.7h-1
		v-1h1V130.7z M415.1,127.9h-1v-1h1V127.9z M37.3,127.7h-1v-1h1V127.7z M415.1,124.9h-1v-1h1V124.9z M37.3,124.7h-1v-1h1V124.7z
		 M415.1,121.9h-1v-1h1V121.9z M37.3,121.7h-1v-1h1V121.7z M415.1,118.9h-1v-1h1V118.9z M37.3,118.7h-1v-1h1V118.7z M415.1,115.9h-1
		v-1h1V115.9z M37.3,115.7h-1v-1h1V115.7z M415.1,112.9h-1v-1h1V112.9z M37.3,112.7h-1v-1h1V112.7z M415.1,109.9h-1v-1h1V109.9z
		 M37.3,109.7h-1v-1h1V109.7z M415.1,106.9h-1v-1h1V106.9z M37.3,106.7h-1v-1h1V106.7z M415.1,103.9h-1v-1h1V103.9z M37.3,103.7h-1
		v-1h1V103.7z M415.1,100.9h-1v-1h1V100.9z M37.3,100.7h-1v-1h1V100.7z M415.1,97.9h-1v-1h1V97.9z M37.3,97.7h-1v-1h1V97.7z
		 M415.1,94.9h-1v-1h1V94.9z M37.3,94.7h-1v-1h1V94.7z M415.1,91.9h-1v-1h1V91.9z M37.3,91.7h-1v-1h1V91.7z M415.1,88.9h-1v-1h1
		V88.9z M37.3,88.7h-1v-1h1V88.7z M415.1,85.9h-1v-1h1V85.9z M37.3,85.7h-1v-1h1V85.7z M415.1,82.9h-1v-1h1V82.9z M37.3,82.7h-1v-1
		h1V82.7z M415.1,79.9h-1v-1h1V79.9z M37.3,79.7h-1v-1h1V79.7z M415.1,76.9h-1v-1h1V76.9z M37.3,76.7h-1v-1h1V76.7z M415.1,73.9h-1
		v-1h1V73.9z M37.3,73.7h-1v-1h1V73.7z M415.1,70.9h-1v-1h1V70.9z M37.3,70.7h-1v-1h1V70.7z M415.1,67.9h-1v-1h1V67.9z M37.3,67.7
		h-1v-1h1V67.7z M415.1,64.9h-1v-1h1V64.9z M37.3,64.7h-1v-1h1V64.7z M415.1,61.9h-1v-1h1V61.9z M37.3,61.7h-1v-1h1V61.7z
		 M415.1,58.9h-1v-1h1V58.9z M37.3,58.7h-1v-1h1V58.7z M415.1,55.9h-1v-1h1V55.9z M37.3,55.7h-1v-1h1V55.7z M415.1,52.9h-1v-1h1
		V52.9z M37.3,52.7h-1v-1h1V52.7z M415.1,49.9h-1v-1h1V49.9z M37.3,49.7h-1v-1h1V49.7z M415.1,46.9h-1v-1h1V46.9z M37.3,46.7h-1v-1
		h1V46.7z M415.1,43.9h-1v-1h1V43.9z M37.3,43.7h-1v-1h1V43.7z M415.1,40.9h-1v-1h1V40.9z M37.3,40.7h-1v-1h1V40.7z M415.1,37.9h-1
		v-0.7h0.2v-0.5h0.8V37.9z M37.3,37.7h-1v-1h1L37.3,37.7z M412.3,37.7h-1v-1h1V37.7z M409.3,37.7h-1v-1h1V37.7z M406.3,37.7h-1v-1h1
		V37.7z M403.3,37.7h-1v-1h1V37.7z M400.3,37.7h-1v-1h1V37.7z M397.3,37.7h-1v-1h1V37.7z M394.3,37.7h-1v-1h1V37.7z M391.3,37.7h-1
		v-1h1V37.7z M388.3,37.7h-1v-1h1V37.7z M385.3,37.7h-1v-1h1V37.7z M382.3,37.7h-1v-1h1V37.7z M379.3,37.7h-1v-1h1V37.7z
		 M376.3,37.7h-1v-1h1V37.7z M373.3,37.7h-1v-1h1V37.7z M370.3,37.7h-1v-1h1V37.7z M367.3,37.7h-1v-1h1V37.7z M364.3,37.7h-1v-1h1
		V37.7z M361.3,37.7h-1v-1h1V37.7z M358.3,37.7h-1v-1h1V37.7z M355.3,37.7h-1v-1h1V37.7z M352.3,37.7h-1v-1h1V37.7z M349.3,37.7h-1
		v-1h1V37.7z M346.3,37.7h-1v-1h1V37.7z M343.3,37.7h-1v-1h1V37.7z M340.3,37.7h-1v-1h1V37.7z M337.3,37.7h-1v-1h1V37.7z
		 M334.3,37.7h-1v-1h1V37.7z M331.3,37.7h-1v-1h1V37.7z M328.3,37.7h-1v-1h1V37.7z M325.3,37.7h-1v-1h1V37.7z M322.3,37.7h-1v-1h1
		V37.7z M319.3,37.7h-1v-1h1V37.7z M316.3,37.7h-1v-1h1V37.7z M313.3,37.7h-1v-1h1V37.7z M310.3,37.7h-1v-1h1V37.7z M307.3,37.7h-1
		v-1h1V37.7z M304.3,37.7h-1v-1h1V37.7z M301.3,37.7h-1v-1h1V37.7z M298.3,37.7h-1v-1h1V37.7z M295.3,37.7h-1v-1h1V37.7z
		 M292.3,37.7h-1v-1h1V37.7z M289.3,37.7h-1v-1h1V37.7z M286.3,37.7h-1v-1h1V37.7z M283.3,37.7h-1v-1h1V37.7z M280.3,37.7h-1v-1h1
		V37.7z M277.3,37.7h-1v-1h1V37.7z M274.3,37.7h-1v-1h1V37.7z M271.3,37.7h-1v-1h1V37.7z M268.3,37.7h-1v-1h1V37.7z M265.3,37.7h-1
		v-1h1V37.7z M262.3,37.7h-1v-1h1V37.7z M259.3,37.7h-1v-1h1V37.7z M256.3,37.7h-1v-1h1V37.7z M253.3,37.7h-1v-1h1V37.7z
		 M250.3,37.7h-1v-1h1V37.7z M247.3,37.7h-1v-1h1V37.7z M244.3,37.7h-1v-1h1V37.7z M241.3,37.7h-1v-1h1V37.7z M238.3,37.7h-1v-1h1
		V37.7z M235.3,37.7h-1v-1h1V37.7z M232.3,37.7h-1v-1h1V37.7z M229.3,37.7h-1v-1h1V37.7z M226.3,37.7h-1v-1h1V37.7z M223.3,37.7h-1
		v-1h1V37.7z M220.3,37.7h-1v-1h1V37.7z M217.3,37.7h-1v-1h1V37.7z M214.3,37.7h-1v-1h1V37.7z M211.3,37.7h-1v-1h1V37.7z
		 M208.3,37.7h-1v-1h1V37.7z M205.3,37.7h-1v-1h1V37.7z M202.3,37.7h-1v-1h1V37.7z M199.3,37.7h-1v-1h1V37.7z M196.3,37.7h-1v-1h1
		V37.7z M193.3,37.7h-1v-1h1V37.7z M190.3,37.7h-1v-1h1V37.7z M187.3,37.7h-1v-1h1V37.7z M184.3,37.7h-1v-1h1V37.7z M181.3,37.7h-1
		v-1h1V37.7z M178.3,37.7h-1v-1h1V37.7z M175.3,37.7h-1v-1h1V37.7z M172.3,37.7h-1v-1h1V37.7z M169.3,37.7h-1v-1h1V37.7z
		 M166.3,37.7h-1v-1h1V37.7z M163.3,37.7h-1v-1h1V37.7z M160.3,37.7h-1v-1h1V37.7z M157.3,37.7h-1v-1h1V37.7z M154.3,37.7h-1v-1h1
		V37.7z M151.3,37.7h-1v-1h1V37.7z M148.3,37.7h-1v-1h1V37.7z M145.3,37.7h-1v-1h1V37.7z M142.3,37.7h-1v-1h1V37.7z M139.3,37.7h-1
		v-1h1V37.7z M136.3,37.7h-1v-1h1V37.7z M133.3,37.7h-1v-1h1V37.7z M130.3,37.7h-1v-1h1V37.7z M127.3,37.7h-1v-1h1V37.7z
		 M124.3,37.7h-1v-1h1V37.7z M121.3,37.7h-1v-1h1V37.7z M118.3,37.7h-1v-1h1V37.7z M115.3,37.7h-1v-1h1V37.7z M112.3,37.7h-1v-1h1
		V37.7z M109.3,37.7h-1v-1h1V37.7z M106.3,37.7h-1v-1h1V37.7z M103.3,37.7h-1v-1h1V37.7z M100.3,37.7h-1v-1h1V37.7z M97.3,37.7h-1
		v-1h1V37.7z M94.3,37.7h-1v-1h1V37.7z M91.3,37.7h-1v-1h1V37.7z M88.3,37.7h-1v-1h1V37.7z M85.3,37.7h-1v-1h1V37.7z M82.3,37.7h-1
		v-1h1V37.7z M79.3,37.7h-1v-1h1V37.7z M76.3,37.7h-1v-1h1V37.7z M73.3,37.7h-1v-1h1V37.7z M70.3,37.7h-1v-1h1V37.7z M67.3,37.7h-1
		v-1h1V37.7z M64.3,37.7h-1v-1h1V37.7z M61.3,37.7h-1v-1h1V37.7z M58.3,37.7h-1v-1h1V37.7z M55.3,37.7h-1v-1h1V37.7z M52.3,37.7h-1
		v-1h1V37.7z M49.3,37.7h-1v-1h1V37.7z M46.3,37.7h-1v-1h1V37.7z M43.3,37.7h-1v-1h1V37.7z M40.3,37.7h-1v-1h1V37.7z"/>
</g>
<g>
	<g>
		<path class="st7" d="M187.8,81.3H174v-7.2h36v7.2h-13.7v40.6h-8.5V81.3z"/>
	</g>
	<g>
		<path class="st7" d="M209.3,86.1h6.9l0.6,6.4h0.3c2.6-4.7,6.4-7.2,10.2-7.2c1.8,0,3,0.2,4.1,0.7l-1.5,7.3
			c-1.2-0.4-2.2-0.6-3.7-0.6c-2.8,0-6.3,2-8.5,7.4v21.9h-8.4V86.1z"/>
	</g>
	<g>
		<path class="st7" d="M254.3,99c-0.1-3.8-1.7-7-6.5-7c-3.6,0-6.9,1.6-10.1,3.5l-3.1-5.6c3.9-2.5,9-4.7,14.7-4.7
			c9,0,13.4,5.5,13.4,15.5v21.3h-6.9l-0.7-3.9h-0.2c-3.2,2.7-6.9,4.8-11.1,4.8c-6.3,0-10.7-4.2-10.7-10.5
			C233.2,104.6,239.6,100.6,254.3,99z M246.5,116.2c2.9,0,5.2-1.5,7.8-3.9v-8c-9.7,1.2-12.9,3.8-12.9,7.4
			C241.4,114.9,243.5,116.2,246.5,116.2z"/>
	</g>
	<g>
		<path class="st7" d="M265.1,86.1h8.5l5.7,18.6c0.9,3.5,2,7.2,3,10.8h0.3c1-3.7,2-7.3,3.1-10.8l5.7-18.6h8.1l-12.2,35.9h-9.7
			L265.1,86.1z"/>
	</g>
	<g>
		<path class="st7" d="M302.6,75c0-2.8,2.2-4.8,5.2-4.8s5.2,2,5.2,4.8c0,2.8-2.2,4.7-5.2,4.7S302.6,77.8,302.6,75z M303.6,86.1h8.4
			v35.9h-8.4V86.1z"/>
	</g>
	<g>
		<path class="st7" d="M320.8,112.4c3.2,2.5,6.3,4,9.9,4c3.9,0,5.7-1.8,5.7-4.3c0-3-3.9-4.3-7.7-5.8c-4.7-1.8-10.1-4.5-10.1-10.4
			c0-6.3,5-10.7,13.1-10.7c5,0,9,2,11.9,4.3l-3.9,5.1c-2.5-1.8-5-3.1-7.9-3.1c-3.6,0-5.3,1.7-5.3,3.9c0,2.8,3.6,3.9,7.5,5.3
			c4.9,1.8,10.3,4.2,10.3,10.9c0,6.1-4.9,11.1-14,11.1c-4.9,0-10.1-2.1-13.6-5L320.8,112.4z"/>
	</g>
	<g>
		<path class="st7" d="M385.6,73.3c5.8,0,10.6,2.8,13.6,6.1l-4.7,5.3c-2.5-2.4-5.2-3.9-8.8-3.9c-7.8,0-13.4,6.6-13.4,17.3
			c0,10.9,5.2,17.5,13.1,17.5c4.2,0,7.4-1.8,10.1-4.7l4.7,5.2c-3.9,4.5-8.8,6.9-14.9,6.9c-12.1,0-21.7-8.8-21.7-24.6
			C363.5,82.6,373.3,73.3,385.6,73.3z"/>
	</g>
	<g>
		<path class="st7" d="M405.3,74.2h8.5v47.8h-8.5V74.2z"/>
	</g>
</g>
</svg>
