<?xml version="1.0" encoding="utf-8"?>
<!-- Generator: Adobe Illustrator 19.2.1, SVG Export Plug-In . SVG Version: 6.00 Build 0)  -->
<svg version="1.1" id="Mascot-Default" xmlns="http://www.w3.org/2000/svg" xmlns:xlink="http://www.w3.org/1999/xlink" x="0px"
	 y="0px" viewBox="0 0 111.2 110.3" style="enable-background:new 0 0 111.2 110.3;" xml:space="preserve">
<style type="text/css">
	.st0{fill:#CA3349;}
	.st1{fill:#F2EBAC;}
	.st2{fill:#E6CBAC;}
	.st3{fill:#656C67;}
	.st4{fill:#E4C9A2;}
	.st5{fill:#C6B299;}
	.st6{fill:#EAD498;}
	.st7{fill:#2D3136;}
	.st8{fill:#EDF6F9;}
	.st9{opacity:0.8;}
	.st10{opacity:0.75;fill:#EAD498;enable-background:new    ;}
</style>
<g id="Mascot">
	<g>
		<g>
			<path class="st0" d="M26.6,48.1c0,0-17.3,12.2-18,16.8l1.3-0.3c0,0,20.7-13.7,37.1-15.4l0.4-2.1L26.6,48.1z"/>
			<path class="st0" d="M53.7,46.4L40.1,56l0.7,0.6C41.4,56.2,65,49,65,49l5-3.1C66.7,46.3,53.7,46.4,53.7,46.4z"/>
			<path class="st0" d="M65.6,58.1c9.7,0,24.2-9.5,24.2-9.5L85,47.7c-0.2,0.2-7.6-0.3-7.6-0.3l-3.5-1l-8.3,9.5L65,57.6
				C65.6,57.3,65.6,58.1,65.6,58.1z"/>
		</g>
		<path class="st0" d="M97.1,88.3l-3,0.8l-13.8-0.3l-8.6-6.7l-10.4,2.6l-12.1-1l-6.8,7.4l-12.7,3.8l-6.3-2c-0.2-0.2-0.3-0.3-0.3-0.3
			l2.8,7c0,0,6.4,6.9,10,7.7c3.6,0.8,10.1-0.1,15-0.8c4.9-0.8,8.8-2.5,10.3-5.3c1.6-2.8,1.8-3.7,1.8-3.7s4.6,6.6,8.6,7.3
			c4,0.8,15.9-3.3,15.9-3.3s7.3-2,8.5-4.5c1.3-2.5,4.6-10.7,4.6-10.7L97.1,88.3z M24.7,94c-0.1,0-0.1-0.1-0.2-0.1
			c-0.5-0.4-0.9-0.7-1.1-1L24.7,94z"/>
		<g>
			<path class="st1" d="M108.9,39c0-0.4-0.1-0.7-0.1-1.1c0-0.3-0.1-0.5-0.1-0.8c-1-0.8-2.1-1.6-3.3-2.3c-1.3-0.7-2.6-1.4-4-2
				c-1.4-0.6-2.7-1.2-4.1-1.8c-0.7-0.3-1.4-0.6-2.1-0.8c-0.7-0.3-1.4-0.5-2.1-0.8c1.5,0.2,3,0.6,4.5,1c1,0.2,1.9,0.5,2.9,0.8
				C93.5,13.5,77.4,2.1,59.8,2.1c-17.6,0-33.7,11.5-40.4,29.1c0.9-0.3,1.9-0.6,2.9-0.8c1.5-0.4,3-0.7,4.5-1
				c-0.7,0.3-1.4,0.5-2.1,0.8c-0.7,0.3-1.4,0.5-2.1,0.8c-1.4,0.6-2.8,1.1-4.1,1.8c-1.4,0.6-2.7,1.3-4,2c-1.2,0.7-2.3,1.4-3.3,2.3
				c0,0.3-0.1,0.5-0.1,0.8c0,0.4-0.1,0.7-0.1,1.1c-0.1,0.7-0.1,1.5-0.1,2.3c0,1.5,0.1,3,0.3,4.5c0.2,1.5,0.5,3,0.9,4.4
				c0.2,0.7,0.4,1.4,0.7,2.1c0.1,0.3,0.3,0.7,0.4,1c0.1,0.2,0.2,0.3,0.2,0.5l0.1,0.2c0.1,0.1,0.2,0.1,0.3,0.2l0.7,0.3
				c0.4,0.2,0.9,0.4,1.3,0.6c0,0,0,0,0.1-0.1l-1.2-4.7c0.3-0.1,2.6-0.7,6.7-1.5c-0.3-0.1-0.7-0.1-1-0.2c-0.9-0.2-1.8-0.5-2.7-0.9
				c-0.4-0.2-0.9-0.4-1.3-0.6c-0.4-0.2-0.8-0.5-1.1-0.9c4.5,1.5,13.7,0.8,21.9-0.1c7.5-0.8,15-1.3,22.6-1.3c7.6,0,15.1,0.5,22.6,1.3
				c8.2,0.8,17.4,1.5,21.9,0.1c-0.3,0.4-0.7,0.6-1.1,0.9c-0.4,0.2-0.8,0.4-1.3,0.6c-0.9,0.4-1.8,0.6-2.7,0.9c-0.1,0-0.3,0.1-0.4,0.1
				c4.5,0.8,7.1,1.5,7.3,1.6l-1.2,4.5c0.2-0.1,0.5-0.2,0.7-0.3l0.7-0.3c0.1-0.1,0.2-0.1,0.3-0.2l0.1-0.2c0.1-0.2,0.2-0.3,0.2-0.5
				c0.2-0.3,0.3-0.7,0.4-1c0.3-0.7,0.5-1.4,0.7-2.1c0.4-1.4,0.7-2.9,0.9-4.4c0.2-1.5,0.3-3,0.3-4.5C108.9,40.5,108.9,39.7,108.9,39z
				"/>
			<path class="st2" d="M64.9,101.5c-0.6,0.1-1.2,0.2-1.8,0.2c-0.4,0-0.8,0.1-1.1,0.1l-0.1,0c0.5-1,0.8-1.8,1.1-2.4
				C63.5,100,64.1,100.7,64.9,101.5z"/>
			<path class="st2" d="M66.2,102.8c1.8,1.8,4.1,2.9,6.6,3c-4.2,1.7-8.2,2.4-11.2,2.6c-3,0.2-6.1-0.2-9.2-1c0.3,0,0.4-0.1,0.7-0.1
				c0.2,0,5.7-0.7,8.1-4.4l0.2,0l0.6,0c0.4,0,0.8,0,1.2,0c0.9-0.1,1.8-0.2,2.7-0.4C66,102.7,66.1,102.7,66.2,102.8z"/>
			<path class="st3" d="M71.4,48.4c-0.2,0.2-0.4,0.5-0.6,0.7c-1.1,1.4-2.6,3.1-4.3,4.8c-2.1-0.1-4.2-0.1-6.3-0.1
				c-3.6,0-7,0.1-10.3,0.3c4.6-1.9,10.2-3.8,16.2-4.9C67.8,48.8,69.6,48.6,71.4,48.4z"/>
			<path class="st3" d="M44.4,50.5c-1.6,1.2-3.5,2.6-5.3,4.4c-4.6,0.5-8.7,1-12,1.6C32.2,54.1,38,51.9,44.4,50.5z"/>
			<path class="st3" d="M100.9,60L99,73.2l-9,6.3l-23.5-2.7l-3.5-11.7c-0.1-0.3-0.3-0.5-0.6-0.5c-0.9-0.1-1.6-0.2-2.3-0.2
				c-0.6,0-1.4,0.1-2.3,0.2c-0.3,0-0.5,0.3-0.6,0.5l-3.5,11.4l-23.4,5.2l-9.3-6.5l-1.8-14.8c0.4-0.2,0.8-0.4,1.2-0.7
				c0.6-0.1,1.2-0.3,1.9-0.4l1.7,13.9c0,0.2,0.1,0.4,0.3,0.5l6.4,4.5c0.1,0.1,0.3,0.1,0.4,0.1c0.1,0,0.1,0,0.2,0l19.2-4.3
				c0.1,0,0.1,0,0.2-0.1c0.2-0.1,0.3-0.3,0.4-0.5l3.5-11.4c0.9-0.2,3.3-0.8,5.4-0.8c2.1,0,4.5,0.6,5.4,0.8l3.5,11.4
				c0.1,0.3,0.3,0.5,0.7,0.5l19.2,2.2c0.2,0,0.4,0,0.5-0.1l6.4-4.5c0.2-0.1,0.3-0.3,0.3-0.5l1.7-11.9C99,59.6,100,59.8,100.9,60z"/>
			<path class="st3" d="M103.2,51.8l-1.7,6.3c-3.4-0.7-10.8-2.2-20.9-3.2c3.3-1.4,6.7-3.2,9.7-5.4C96.4,50.3,100.8,51.2,103.2,51.8z
				"/>
			<g>
				<path class="st4" d="M35.5,71.4c1.3-0.7,2.8-0.6,5.1-0.6c0.2,0,0.5,0,0.8,0c0.2,0,0.5,0,0.7,0c2.4,0,4.4,0.2,4.3-3.5
					c0-3.7-1.7-6.8-4.1-6.8c-2.4,0-4.7,3.1-4.6,6.8c0,1,0.2,1.7,0.4,2.2C36.1,70,35.5,71.3,35.5,71.4z M64.2,56
					c-0.9,0.7-1.9,1.5-2.9,2.1l-3.4,2c-2.1,0.3-4,0.8-4.1,0.8c-0.1,0-0.1,0-0.2,0.1c-0.2,0.1-0.3,0.3-0.3,0.4l-3.5,11.4l-18.4,4.1
					l-5.8-4.1l-1.7-13.7c3.3-0.6,7.7-1.3,13-1.9c-0.6,0.7-1.1,1.4-1.6,2.1l-3.2,4.5l4.6-3.1c0.1,0,3-2,7.8-4.3
					c4.8-0.4,10-0.6,15.7-0.6C61.5,55.9,62.9,55.9,64.2,56z"/>
				<path class="st4" d="M84.4,69.9c0-0.1-0.5-1.6-2.7-1.3c0.3-0.6,0.4-1.3,0.3-2.3c-0.3-3.7-2.5-6.7-4.9-6.6
					c-2.4,0.1-3.9,3.2-3.8,6.9c0.1,3.7,2.1,3.7,4.5,3.6C81,70.1,82.8,69.1,84.4,69.9z M96.2,59.1l-1.7,11.6l-5.9,4.1l-18.4-2.1
					l-3.4-11.3c-0.1-0.3-0.3-0.4-0.5-0.5c-0.1,0-2.4-0.7-4.8-0.9l0.4,0c0.4,0,6.7-0.8,14.3-3.4C84.6,57.2,91.5,58.2,96.2,59.1z"/>
			</g>
			<g>
				<path class="st5" d="M35.5,71.4c1.3-0.7,2.8-0.6,5.1-0.6c0.2,0,0.5,0,0.8,0c0.2,0,0.5,0,0.7,0c2.4,0,4.4,0.2,4.3-3.5
					c0-3.7-1.7-6.8-4.1-6.8c-2.4,0-4.7,3.1-4.6,6.8c0,1,0.2,1.7,0.4,2.2C36.1,70,35.5,71.3,35.5,71.4z M64.2,56
					c-0.9,0.7-1.9,1.5-2.9,2.1l-3.4,2c-2.1,0.3-4,0.8-4.1,0.8c-0.1,0-0.1,0-0.2,0.1c-0.2,0.1-0.3,0.3-0.3,0.4l-3.5,11.4l-18.4,4.1
					l-5.8-4.1l-1.7-13.7c3.3-0.6,7.7-1.3,13-1.9c-0.6,0.7-1.1,1.4-1.6,2.1l-3.2,4.5l4.6-3.1c0.1,0,3-2,7.8-4.3
					c4.8-0.4,10-0.6,15.7-0.6C61.5,55.9,62.9,55.9,64.2,56z"/>
				<path class="st5" d="M84.4,69.9c0-0.1-0.5-1.6-2.7-1.3c0.3-0.6,0.4-1.3,0.3-2.3c-0.3-3.7-2.5-6.7-4.9-6.6
					c-2.4,0.1-3.9,3.2-3.8,6.9c0.1,3.7,2.1,3.7,4.5,3.6C81,70.1,82.8,69.1,84.4,69.9z M96.2,59.1l-1.7,11.6l-5.9,4.1l-18.4-2.1
					l-3.4-11.3c-0.1-0.3-0.3-0.4-0.5-0.5c-0.1,0-2.4-0.7-4.8-0.9l0.4,0c0.4,0,6.7-0.8,14.3-3.4C84.6,57.2,91.5,58.2,96.2,59.1z"/>
			</g>
			<path class="st2" d="M104.2,64.2c0.3,0.2,0.5,0.8,0.3,3.6c-0.3,3.4-1.8,9.5-2.7,10.4c-1,0.2-3.1,0-4.3-0.3
				c0.2-0.9,0.3-1.3,0.5-2.2l2.2-1.5c0.2-0.1,0.3-0.3,0.3-0.5l1.5-10.8C103,63.4,103.9,64,104.2,64.2z"/>
			<path class="st2" d="M22.8,78.3c0.1,0.4,0.2,0.8,0.3,1.2c-1.2,0.3-3.6,0.7-4.7,0.5c-0.9-0.9-2.6-7.2-3-10.5
				c-0.3-2.7-0.1-3.3,0.2-3.5c0.3-0.3,1.5-0.9,2.6-1.5l1.4,11.4c0,0.2,0.1,0.4,0.3,0.5L22.8,78.3z"/>
			<path class="st2" d="M67.4,78.5l-0.1,0.7c0,0-2.5,2.4-6.6,2.9c-4.1,0.5-7.3-2-7.3-2c0.1,0.4,0.3,1.4,1.3,2.3
				c-1.1-0.1-2.3-0.2-3.5-0.2c-0.4,0-0.9,0-1.3,0c-2.5,0.1-6.1,3.9-8.6,7.8c-1.2,0.4-5.1,1.6-9.5,2.9c-4.1-5.7-6.2-11.6-6.4-12.2
				l0,0c-0.1-0.2-0.2-0.5-0.2-0.7l1.1,0.7v0l2.6,1.8l0.9,0.6c0.1,0.1,0.3,0.1,0.4,0.1c0.1,0,0.1,0,0.2,0l24.1-5.4
				c0.3-0.1,0.5-0.3,0.6-0.5l3.4-11.3C59.1,66,59.6,66,60,66c0.4,0,1,0,1.6,0.1l3.5,11.7c0.1,0.3,0.3,0.5,0.7,0.5L67.4,78.5z"/>
			<path class="st2" d="M95,77.9l0.8-0.5c-0.1,0.5-0.3,1.1-0.4,1.6c-1.1,3.5-2.4,6.5-3.8,9.3c-0.3,0-0.6,0-1,0
				c-1.1,0-2.2-0.1-3.5-0.2c-2.1-0.2-5.6-0.6-6.6-0.7c-0.9-0.7-4.1-3.3-6.7-5.3c-0.1-0.1-0.2-0.2-0.3-0.2c-0.5-0.4-1-0.8-2.1-0.8
				c-1,0-2.4,0.4-5.8,1.4c1.8-1.3,1.8-3.1,1.8-3.1l0.1-0.7l22.6,2.6c0.2,0,0.4,0,0.5-0.1l2.3-1.6L95,77.9z"/>
			<path class="st6" d="M78.3,30.2c0.1,2,0,5.7-0.9,9.1c0,0.1,0,0.3,0,0.4c-1.2-0.1-2.4-0.2-3.6-0.3c1.3-2.8,1.6-5.8,1.7-6.9
				C76.6,31.8,77.6,30.9,78.3,30.2z"/>
			<path class="st6" d="M44.2,32.5c0.1,1.1,0.4,4,1.7,6.8c-1.2,0.1-2.4,0.2-3.6,0.3c0-0.1,0-0.3,0-0.4c-0.9-3.4-1-7.1-0.9-9.1
				C42.1,30.9,43.1,31.8,44.2,32.5z"/>
			<path class="st7" d="M84.4,69.9c-1.6-0.8-3.4,0.2-6.6,0.3c-2.4,0.1-4.4,0.1-4.5-3.6c-0.1-3.8,1.4-6.9,3.8-6.9
				c2.4-0.1,4.6,2.9,4.9,6.6c0.1,1,0,1.8-0.3,2.3C83.9,68.3,84.4,69.8,84.4,69.9z M76.9,64.4c0.7,0,1.2-0.6,1.2-1.2
				c0-0.7-0.6-1.2-1.2-1.2c-0.7,0-1.2,0.6-1.2,1.2C75.7,63.8,76.2,64.4,76.9,64.4z"/>
			
				<ellipse transform="matrix(0.9998 -1.830059e-02 1.830059e-02 0.9998 -1.1426 1.4175)" class="st8" cx="76.9" cy="63.1" rx="1.2" ry="1.2"/>
			<path class="st7" d="M46.4,67.2c0,3.8-2,3.5-4.3,3.5c-0.2,0-0.5,0-0.7,0c-0.3,0-0.5,0-0.8,0c-2.3,0-3.8-0.1-5.1,0.6
				c0-0.1,0.6-1.4,2.7-1.9c-0.2-0.5-0.4-1.2-0.4-2.2c-0.1-3.7,2.2-6.8,4.6-6.8C44.7,60.5,46.4,63.5,46.4,67.2z M42.7,65.3
				c0.7,0,1.2-0.6,1.2-1.3c0-0.7-0.6-1.2-1.3-1.2c-0.7,0-1.2,0.6-1.2,1.3C41.5,64.8,42,65.3,42.7,65.3z"/>
			
				<ellipse transform="matrix(0.9997 -2.569922e-02 2.569922e-02 0.9997 -1.632 1.1181)" class="st8" cx="42.7" cy="64.1" rx="1.2" ry="1.2"/>
			<g class="st9">
				<path class="st6" d="M28.2,41.8c0,0,0.4-4.8,1.1-6.7c0.4-1,2.8-1.6,4.6-2c1.8-0.4,4.7-1.3,5.3,1.3c0.6,2.6,1.5,4.4,2.1,5.3
					l-0.8-10.5l-12.5,3l-0.8,9.3l0.4,0.7L28.2,41.8"/>
				<path class="st6" d="M91.6,41.8c0,0-0.4-4.8-1.1-6.7c-0.4-1-2.8-1.6-4.6-2c-1.8-0.4-4.7-1.3-5.3,1.3c-0.6,2.6-1.5,4.4-2.1,5.3
					l0.8-10.5l12.5,3l0.8,9.3l-0.4,0.7L91.6,41.8"/>
			</g>
			<path class="st10" d="M73.9,10.2c0,0-0.3,25.3-6.2,25.3s-7.1,0-7.1,0h-1.2c0,0-1.2,0-7.1,0s-6.4-25.3-6.4-25.3L43,18.8l0,11.8
				l2.1,1.6l0.9,5.1l1.3,2.9l25.3,0l1.2-2.1l1-3.6l0.1-2.2l2.8-8L73.9,10.2z"/>
			<path class="st10" d="M92.5,33.8c0,0,1.2,8.7,4.4,10.3c3.2,1.6,0,0,0,0l-4.5-1.4L92.5,33.8z"/>
			<path class="st10" d="M27.2,33.8c0,0-1.2,8.7-4.4,10.3c-3.2,1.6,0,0,0,0l4.5-1.4L27.2,33.8z"/>
			<path class="st7" d="M93.4,42.7c1.5,0.5,3.1,1,4.5,1.8c-0.7-0.3-1.5-0.5-2.3-0.7c-0.8-0.2-1.6-0.4-2.3-0.5
				c-1.6-0.3-3.1-0.5-4.7-0.7c-1.6-0.2-3.2-0.4-4.8-0.5c-1.6-0.1-3.2-0.3-4.8-0.4c-6.4-0.4-12.7-0.5-19.1-0.5
				c-6.4,0-12.8,0.1-19.1,0.5c-1.6,0.1-3.2,0.2-4.8,0.4c-1.6,0.1-3.2,0.3-4.8,0.5c-1.6,0.2-3.2,0.4-4.7,0.7
				c-0.8,0.1-1.6,0.3-2.3,0.5c-0.8,0.2-1.5,0.4-2.3,0.7c1.4-0.8,2.9-1.3,4.5-1.9c0.1,0,0.3-0.1,0.4-0.1c0,0,0-0.1,0-0.1
				c0-0.2-0.6-4.4,0.4-10.4c0-0.3,0.3-0.5,0.5-0.6l1.6-0.5c0.4-12.6,5.5-18.5,5.7-18.7c-4.6,7.4-4.6,16.3-4.5,18.3l10.1-2.9
				c0,0,0,0,0,0c0,0,0.1,0,0.1,0c0,0,0,0,0,0c0.1,0,0.1,0,0.2,0c0,0,0,0,0,0c0,0,0.1,0,0.1,0c0,0,0,0,0,0c0,0,0.1,0,0.1,0.1
				c0,0,0,0,0,0c0,0,0,0,0,0c0,0,0,0,0,0c0,0,0.3,0.3,0.7,0.7C41.8,25.4,42,15.9,46.5,8c-0.1,0.3-3.7,10.8-2.5,22.6
				c0.4,0.3,0.8,0.6,1.2,0.9c0.2,0.1,0.3,0.4,0.3,0.6c0,0,0.1,3.8,1.7,7c0,0,0,0.1,0.1,0.1c4.1-0.3,8.3-0.4,12.4-0.4
				c4.1,0,8.3,0.1,12.4,0.4c0-0.1,0-0.1,0.1-0.2c1.7-3.2,1.7-7,1.7-7c0-0.2,0.1-0.5,0.3-0.6c0.4-0.3,0.8-0.6,1.2-0.9
				C76.9,18.8,73.3,8.2,73.2,8c4.5,7.9,4.7,17.4,4.6,20.7c0.4-0.4,0.7-0.7,0.7-0.7c0,0,0,0,0,0c0,0,0,0,0,0c0,0,0,0,0,0
				c0,0,0.1,0,0.1-0.1c0,0,0,0,0,0c0,0,0.1,0,0.1,0c0,0,0,0,0,0c0.1,0,0.1,0,0.2,0c0,0,0,0,0,0c0,0,0.1,0,0.1,0c0,0,0,0,0,0
				l10.1,2.9c0.1-2.1,0.1-10.9-4.5-18.3c0.2,0.2,5.3,6.1,5.7,18.7l1.6,0.5c0.3,0.1,0.5,0.3,0.5,0.6c1,6,0.4,10.2,0.4,10.4
				c0,0,0,0.1,0,0.1C93.1,42.6,93.2,42.6,93.4,42.7z M91.5,42.2c0.1-0.7,0.4-4.3-0.3-9.3l-11.4-3.2c0.1,1.9,0.1,6.1-0.9,10.1
				c0,0,0,0.1-0.1,0.1c0.1,0,0.2,0,0.3,0c3.2,0.4,6.4,0.9,9.6,1.6C89.6,41.7,90.6,41.9,91.5,42.2z M77.4,39.3c0.9-3.4,1-7.1,0.9-9.1
				c-0.8,0.7-1.8,1.6-2.8,2.3c-0.1,1.1-0.4,4-1.7,6.9c1.2,0.1,2.4,0.2,3.6,0.3C77.4,39.6,77.4,39.4,77.4,39.3z M45.9,39.3
				c-1.3-2.8-1.6-5.8-1.7-6.8c-1-0.7-2.1-1.6-2.8-2.3c-0.1,2,0,5.7,0.9,9.1c0,0.1,0,0.3,0,0.4C43.5,39.5,44.7,39.4,45.9,39.3z
				 M40.9,39.8c0,0,0-0.1-0.1-0.1c-1.1-4-1-8.2-1-10.1l-11.4,3.2c-0.8,5-0.4,8.7-0.3,9.3c0.9-0.3,1.9-0.5,2.9-0.7
				c1.6-0.3,3.2-0.6,4.8-0.9c1.6-0.3,3.2-0.5,4.8-0.7C40.7,39.8,40.8,39.8,40.9,39.8z"/>
			<g id="XMLID_2_">
				<g>
					<path class="st7" d="M71.9,10.5V20h-6.7v-2.8h-1.5V30h2.3v7.1H54.2V30h2.3V17.2H55V20h-6.7v-9.5H71.9z M69.9,18v-5.4h-2.9h-5.3
						H50.3V18h2.7v-2.8h5.5V32h-2.3v3.1h7.7V32h-2.3V15.2h5.5V18H69.9z"/>
					<polygon class="st0" points="69.9,12.6 69.9,18 67.2,18 67.2,15.2 61.6,15.2 61.6,32 63.9,32 63.9,35.2 56.2,35.2 56.2,32 
						58.5,32 58.5,15.2 52.9,15.2 52.9,18 50.3,18 50.3,12.6 61.6,12.6 66.9,12.6 					"/>
				</g>
				<g>
				</g>
			</g>
			<path class="st3" d="M17.1,51.8c1-0.2,2.3-0.5,3.9-0.8c-1,0.7-2.2,1.5-3.5,2.6L17.1,51.8z"/>
			<path class="st5" d="M52.9,77.7c0,0,0.3,1.8-2.2,2.5c-2.5,0.8-18.1,5.4-19.8,5.1c-1.8-0.3-6.3-3.3-6.3-3.3l-1.1-3.9l6.7,4.2
				L52.9,77.7z"/>
			<path class="st5" d="M66.8,77.4c0,0-0.2,1.8,2.3,2.4c2.5,0.6,18.3,4.6,20,4.3c1.8-0.3,6.1-3.5,6.1-3.5l0.9-3.9l-6.1,3.7
				L66.8,77.4z"/>
			<path class="st5" d="M15.8,74.5c0,0,2.2,4.3,5.7,2.8l2.5,0.9L23.7,80l-5.2,0.7L17,79.9L15.8,74.5z"/>
			<path class="st5" d="M104.2,73.3c0,0-3.5,4.5-7,3L96.1,77l0.2,1.8l5.2,0.7l1.4-0.8L104.2,73.3z"/>
			<path class="st5" d="M49.6,107.2c0,0,12.8,6.5,27.3-2.3l-4.7-0.3c0,0-10.2,4-18.2,1.8L49.6,107.2z"/>
			<path class="st7" d="M62.6,95.3l0.9,1.1c0,0,2,2.4,4.4,4.8c1.6,1.6,3.5,2.4,5.7,2.4c0.8,0,1.6-0.1,2.4-0.3
				c0.7-0.2,1.6-0.4,2.4-0.6c3-0.7,6.4-1.5,8-2c0.3-0.1,0.7-0.2,1.1-0.3c2.2-0.5,5.2-1.2,6.8-4.4c1.2-2.4,2.8-5.5,4-7.8
				c-1,0.5-2.1,1-2.9,1.4c-1.2,0.6-2.7,0.9-4.8,0.9c-1.2,0-2.4-0.1-3.7-0.2c-2.6-0.2-7-0.8-7-0.8l-0.3,0l-0.3-0.2c0,0-3.9-3.1-7-5.5
				c-0.1-0.1-0.2-0.2-0.3-0.3c-0.3-0.3-0.3-0.3-0.5-0.3c-1,0-3.9,0.9-10.3,2.9l-0.4,0.1l-0.4-0.1c0,0-4.2-1.6-9.2-1.6
				c-0.4,0-0.8,0-1.2,0c-0.5,0-3.3,1.4-6.9,7L42.8,92l-0.4,0.1c-0.1,0-6.2,2-12.8,3.9l-0.4,0.1L28.7,96c0,0-2.6-1.2-5.1-2.3
				c1.3,2,3,4.4,4.5,6.3c2.6,3.4,5.9,6.5,12.2,6.5c0.8,0,1.6,0,2.5-0.1c6.4-0.7,8.1-1,9-1.2c0.3-0.1,0.5-0.1,0.8-0.1
				c0,0,5.3-0.7,6.8-4c1.5-3.4,1.8-4.2,1.8-4.3l0.5-1.4c0,0,0.1-0.4,0.2-0.5c0,0,0,0,0,0l0,0C62.4,95,62.6,95.3,62.6,95.3z M22.5,31
				c-1.4,0.6-2.8,1.1-4.1,1.8c-1.4,0.6-2.7,1.3-4,2c-1.2,0.7-2.3,1.4-3.3,2.3c0,0.3-0.1,0.5-0.1,0.8c0,0.4-0.1,0.7-0.1,1.1
				c-0.1,0.7-0.1,1.5-0.1,2.3c0,1.5,0.1,3,0.3,4.5c0.2,1.5,0.5,3,0.9,4.4c0.2,0.7,0.4,1.4,0.7,2.1c0.1,0.3,0.3,0.7,0.4,1
				c0.1,0.2,0.2,0.3,0.2,0.5l0.1,0.2c0.1,0.1,0.2,0.1,0.3,0.2l0.7,0.3c0.4,0.2,0.9,0.4,1.3,0.6c0,0,0,0,0.1-0.1l-1.2-4.7
				c0.3-0.1,2.6-0.7,6.7-1.5c-0.3-0.1-0.7-0.1-1-0.2c-0.9-0.2-1.8-0.5-2.7-0.9c-0.4-0.2-0.9-0.4-1.3-0.6c-0.4-0.2-0.8-0.5-1.1-0.9
				c4.5,1.5,13.7,0.8,21.9,0c7.5-0.8,15-1.3,22.6-1.3c7.6,0,15.1,0.5,22.6,1.3c8.2,0.8,17.4,1.5,21.9,0c-0.3,0.4-0.7,0.6-1.1,0.9
				c-0.4,0.2-0.8,0.4-1.3,0.6c-0.9,0.4-1.8,0.6-2.7,0.9c-0.1,0-0.3,0.1-0.4,0.1c4.5,0.8,7.1,1.5,7.3,1.6l-1.2,4.5
				c0.2-0.1,0.5-0.2,0.7-0.3l0.7-0.3c0.1-0.1,0.2-0.1,0.3-0.2l0.1-0.2c0.1-0.2,0.2-0.3,0.2-0.5c0.2-0.3,0.3-0.7,0.4-1
				c0.3-0.7,0.5-1.4,0.7-2.1c0.4-1.4,0.7-2.9,0.9-4.4c0.2-1.5,0.3-3,0.3-4.5c0-0.8,0-1.5-0.1-2.3c0-0.4-0.1-0.7-0.1-1.1
				c0-0.3-0.1-0.5-0.1-0.8c-1-0.8-2.1-1.6-3.3-2.3c-1.3-0.7-2.6-1.4-4-2c-1.4-0.6-2.7-1.2-4.1-1.8c-0.7-0.3-1.4-0.6-2.1-0.8
				c-0.7-0.3-1.4-0.5-2.1-0.8c1.5,0.2,3,0.6,4.5,1c1,0.2,1.9,0.5,2.9,0.8C93.5,13.5,77.4,2.1,59.8,2.1c-17.6,0-33.7,11.5-40.4,29.1
				c0.9-0.3,1.9-0.6,2.9-0.8c1.5-0.4,3-0.7,4.5-1c-0.7,0.3-1.4,0.5-2.1,0.8C23.9,30.4,23.2,30.7,22.5,31z M111.1,41.1
				c0.1,1.6,0,3.2-0.1,4.9c-0.2,1.6-0.5,3.2-0.9,4.8c-0.2,0.8-0.5,1.6-0.8,2.3c-0.2,0.4-0.3,0.8-0.5,1.2c-0.1,0.2-0.2,0.4-0.3,0.6
				l-0.2,0.3c-0.1,0.1-0.1,0.2-0.2,0.3l-0.2,0.3l-0.3,0.1c-0.3,0.1-0.5,0.2-0.7,0.4l-0.7,0.3c-0.5,0.2-1,0.4-1.5,0.6
				c-0.3,0.1-0.6,0.3-0.9,0.4l-0.8,3c0,0-0.3-0.1-0.7-0.2l0,0.3c0.9,0.5,2.6,1.4,3.2,1.9c1.2,1,1.3,2.5,1,5.5
				c-0.1,1.5-0.6,4.4-1.3,7.1c-1.2,4.6-1.8,5.2-2.6,5.4c-0.4,0.1-1.1,0.2-1.7,0.2c-1.3,0-3,0-4.1-0.2c-0.3,1-1.1,3.8-2.8,7.2
				c0.1,0,0.2-0.1,0.2-0.1c2.1-1.1,6-2.8,6.2-2.9l3.1-1.4l-1.6,3c0,0.1-3.5,6.5-5.6,10.8c-2.1,4.2-6,5.1-8.4,5.6
				c-0.4,0.1-0.7,0.2-1,0.2c-1.7,0.5-5.1,1.3-8.1,2c0,0-0.1,0-0.1,0c-1.9,1.1-3.9,2.2-6.1,3c-8.1,3.1-16.6,2.9-24.4,0.1
				c-1.3,0.2-2.9,0.4-5.1,0.6c-1,0.1-1.9,0.2-2.8,0.2c-7.4,0-11.3-3.7-14.1-7.4c-3.1-3.9-6.8-9.8-6.9-10l-2.2-3.4l3.7,1.6
				c1.8,0.8,7,3.2,8.5,3.9c0.1,0,0.2-0.1,0.4-0.1c-2.5-3.5-4.5-7.6-5.9-12c-1.2,0.4-3.1,0.7-4.6,0.7c-0.5,0-1,0-1.4-0.1
				c-0.8-0.2-1.7-1-3-5.4c-0.7-2.6-1.3-5.4-1.4-6.9c-0.3-2.8-0.3-4.4,0.9-5.4c0.7-0.6,3.1-1.9,3.6-2.1l-0.1-0.9
				c-7.6,4.5-12.2,8.5-12.3,8.5L0,74.7l3.9-6.1c3.1-4.9,6.6-8.8,9.9-11.8c-0.1-0.1-0.3-0.1-0.4-0.2l-0.7-0.3
				c-0.2-0.1-0.5-0.2-0.7-0.4l-0.3-0.1l-0.2-0.3c-0.1-0.1-0.1-0.2-0.2-0.3l-0.2-0.3c-0.1-0.2-0.2-0.4-0.3-0.6
				c-0.2-0.4-0.3-0.8-0.5-1.2c-0.3-0.8-0.6-1.5-0.8-2.3c-0.4-1.6-0.7-3.2-0.9-4.8c-0.2-1.6-0.2-3.2-0.1-4.9c0-0.8,0.1-1.6,0.2-2.4
				c0.1-0.4,0.1-0.8,0.2-1.2c0.1-0.4,0.2-0.8,0.3-1.2L9.4,36l0.2-0.2c1.3-1,2.7-1.8,4-2.4c1.2-0.5,2.3-1,3.5-1.5
				c3.3-9.2,9-17.3,16.4-23c7.7-5.9,16.8-9,26.2-9s18.5,3.1,26.2,9c7.5,5.7,13.1,13.8,16.4,23c1.2,0.4,2.4,0.9,3.5,1.5
				c1.4,0.7,2.8,1.4,4,2.4l0.2,0.2l0.1,0.3c0.1,0.4,0.2,0.8,0.3,1.2c0.1,0.4,0.1,0.8,0.2,1.2C111,39.5,111.1,40.3,111.1,41.1z
				 M104.5,67.8c0.3-2.8,0-3.4-0.3-3.6c-0.3-0.2-1.2-0.8-2.2-1.3l-1.5,10.8c0,0.2-0.1,0.4-0.3,0.5l-2.2,1.5
				c-0.2,0.9-0.2,1.3-0.5,2.2c1.3,0.3,3.3,0.5,4.3,0.3C102.7,77.3,104.2,71.3,104.5,67.8z M101.6,58l1.7-6.3
				c-2.4-0.5-6.8-1.5-12.8-2.3c-3.1,2.2-6.4,4-9.7,5.4C90.8,55.8,98.2,57.3,101.6,58z M99,73.2l1.9-13.2c-0.8-0.2-1.9-0.4-3.2-0.6
				L96,71.3c0,0.2-0.1,0.4-0.3,0.5l-6.4,4.5c-0.2,0.1-0.3,0.2-0.5,0.1l-19.2-2.2c-0.3,0-0.6-0.2-0.7-0.5l-3.5-11.4
				c-0.9-0.2-3.3-0.8-5.4-0.8c-2.1,0-4.5,0.6-5.4,0.8l-3.5,11.4c-0.1,0.2-0.2,0.4-0.4,0.5c-0.1,0-0.1,0.1-0.2,0.1l-19.2,4.3
				c-0.1,0-0.1,0-0.2,0c-0.2,0-0.3,0-0.4-0.1l-6.4-4.5c-0.2-0.1-0.3-0.3-0.3-0.5l-1.7-13.9c-0.7,0.1-1.4,0.3-1.9,0.4
				c-0.4,0.2-0.8,0.4-1.2,0.7l1.8,14.8l9.3,6.5l23.4-5.2l3.5-11.4c0.1-0.3,0.3-0.5,0.6-0.5c0.9-0.1,1.6-0.2,2.3-0.2
				c0.6,0,1.4,0.1,2.3,0.2c0.3,0,0.5,0.3,0.6,0.5l3.5,11.6L90,79.5L99,73.2z M94.5,70.7l1.7-11.6c-4.7-0.9-11.6-1.9-20-2.5
				c-7.6,2.6-13.9,3.4-14.3,3.4l-0.4,0c2.4,0.2,4.7,0.9,4.8,0.9c0.3,0.1,0.4,0.3,0.5,0.5l3.4,11.3l18.4,2.1L94.5,70.7z M95.8,77.3
				L95,77.9l-2.1,1.5l-2.3,1.6c-0.2,0.1-0.3,0.2-0.5,0.1l-22.6-2.6l-1.6-0.2c-0.3,0-0.6-0.2-0.7-0.5l-3.5-11.7C61,66,60.5,66,60,66
				c-0.4,0-1,0-1.6,0.1L55,77.4c-0.1,0.3-0.3,0.5-0.6,0.5l-24.1,5.4c-0.1,0-0.1,0-0.2,0c-0.2,0-0.3,0-0.4-0.1l-0.9-0.6l-2.6-1.8v0
				L25.1,80c0.1,0.2,0.2,0.5,0.2,0.7l0,0c0.2,0.6,2.2,6.5,6.4,12.2c4.4-1.3,8.3-2.5,9.5-2.9c2.5-3.8,6-7.7,8.6-7.8
				c0.4,0,0.9,0,1.3,0c1.2,0,2.4,0.1,3.5,0.2c-0.9-0.8-1.1-1.8-1.3-2.3c0,0,3.2,2.5,7.3,2c4.1-0.5,6.6-2.9,6.6-2.9s0,1.7-1.8,3.1
				c3.4-1,4.9-1.4,5.8-1.4c1.1,0,1.6,0.4,2.1,0.8c0.1,0.1,0.2,0.1,0.3,0.2c2.6,2.1,5.8,4.6,6.7,5.3c1.1,0.1,4.5,0.5,6.6,0.7
				c1.2,0.1,2.4,0.2,3.5,0.2c0.4,0,0.7,0,1,0c1.4-2.7,2.7-5.8,3.8-9.3C95.5,78.4,95.7,77.8,95.8,77.3z M87.4,48.6
				C87.4,48.6,87.4,48.6,87.4,48.6c-1.8-0.1-3.7-0.3-5.5-0.4c-2.5-0.1-5.1-0.3-7.6-0.4c-0.1,0.2-0.4,0.7-0.9,1.2
				c-1.4,1.9-4.1,5.3-7.6,8.2c5-0.9,13.6-3.1,21-8.3C87.1,48.9,87.2,48.8,87.4,48.6z M70.8,49.1c0.2-0.3,0.4-0.5,0.6-0.7
				c-1.8,0.2-3.6,0.4-5.4,0.8c-6,1.1-11.6,3-16.2,4.9c3.3-0.2,6.7-0.3,10.3-0.3c2.2,0,4.3,0,6.3,0.1C68.3,52.2,69.7,50.5,70.8,49.1z
				 M72.8,105.9c-2.5-0.2-4.8-1.2-6.6-3c-0.1-0.1-0.2-0.2-0.3-0.3c-0.9,0.2-1.8,0.3-2.7,0.4c-0.4,0-0.8,0-1.2,0l-0.6,0l-0.2,0
				c-2.4,3.6-7.9,4.3-8.1,4.4c-0.2,0-0.4,0.1-0.7,0.1c3,0.8,6.1,1.2,9.2,1C64.6,108.3,68.6,107.6,72.8,105.9z M63.1,101.7
				c0.6,0,1.2-0.1,1.8-0.2c-0.8-0.8-1.4-1.5-2-2.1c-0.3,0.6-0.6,1.4-1.1,2.4H62C62.4,101.8,62.8,101.8,63.1,101.7z M61.3,58
				c1-0.6,2-1.3,2.9-2.1c-1.3,0-2.7,0-4,0c-5.6,0-10.9,0.2-15.7,0.6c-4.8,2.3-7.7,4.3-7.8,4.3l-4.6,3.1l3.2-4.5
				c0.5-0.8,1.1-1.5,1.6-2.1c-5.3,0.6-9.7,1.3-13,1.9l1.7,13.7l5.8,4.1l18.4-4.1l3.5-11.4c0.1-0.2,0.2-0.3,0.3-0.4
				c0.1,0,0.1-0.1,0.2-0.1c0.1,0,2-0.6,4.1-0.8L61.3,58z M63.4,47.6c-1.3,0-2.6,0-3.9,0h0c-1.9,0-3.8,0-5.7,0.1l-3.5,1.7
				c0,0,0,0,0,0c-0.5,0.3-5.1,2.6-9.4,6.7c3.9-2,9.5-4.7,16.2-6.7C59.1,48.6,61.2,48.1,63.4,47.6z M39,54.9c1.8-1.8,3.7-3.3,5.3-4.4
				c-6.3,1.5-12.2,3.6-17.3,6C30.4,55.9,34.4,55.4,39,54.9z M40.2,49.4c2.1-0.6,4.3-1.1,6.6-1.6c-3.2,0.1-6.4,0.3-9.7,0.4
				c-1.9,0.1-3.7,0.2-5.6,0.4c-0.9,0.1-1.9,0.1-2.8,0.2c-0.3,0-0.5,0.1-0.8,0.1c-2.4,1.5-11.7,7.3-18.1,14.9
				C16.1,59.6,26.9,53.1,40.2,49.4z M23.1,79.5c-0.1-0.4-0.2-0.8-0.3-1.2l-2.9-2c-0.2-0.1-0.3-0.3-0.3-0.5l-1.4-11.4
				c-1,0.6-2.2,1.2-2.6,1.5c-0.3,0.2-0.5,0.8-0.2,3.5c0.4,3.3,2.1,9.6,3,10.5C19.5,80.2,21.9,79.8,23.1,79.5z M21,50.9
				c-1.6,0.3-2.9,0.6-3.9,0.8l0.5,1.7C18.8,52.5,20,51.6,21,50.9z"/>
		</g>
	</g>
</g>
</svg>
