<?xml version="1.0" encoding="utf-8"?>
<!-- Generator: Adobe Illustrator 19.1.0, SVG Export Plug-In . SVG Version: 6.00 Build 0)  -->
<svg version="1.1" id="Travis_CI_Logo" xmlns="http://www.w3.org/2000/svg" xmlns:xlink="http://www.w3.org/1999/xlink" x="0px"
	 y="0px" viewBox="0 0 377.4 117.7" style="enable-background:new 0 0 377.4 117.7;" xml:space="preserve">
<style type="text/css">
	.st0{fill:#CB3449;}
	.st1{fill:#F3ECAC;}
	.st2{fill:#E6CCAD;}
	.st3{fill:#656C68;}
	.st4{fill:#E4C9A1;}
	.st5{fill:#C7B398;}
	.st6{fill:#EBD598;}
	.st7{fill:#2D3235;}
	.st8{fill:#EDF6FA;}
	.st9{opacity:0.8;}
	.st10{opacity:0.75;fill:#EBD598;}
</style>
<g>
	<g id="Travis_CI_Mascot">
		<g>
			<path class="st0" d="M28.3,51.4c0,0-18.5,13-19.2,17.9l1.4-0.3c0,0,22.1-14.7,39.6-16.4l0.4-2.2L28.3,51.4z"/>
			<path class="st0" d="M57.3,49.5L42.8,59.8l0.8,0.6c0.6-0.5,25.8-8.2,25.8-8.2l5.3-3.3C71.2,49.4,57.3,49.5,57.3,49.5z"/>
			<path class="st0" d="M70,62c10.3,0,25.8-10.1,25.8-10.1l-5-1c-0.2,0.2-8.1-0.3-8.1-0.3l-3.7-1l-8.9,10.1l-0.7,1.8
				C70,61.2,70,62,70,62z"/>
		</g>
		<path class="st0" d="M103.7,94.2l-3.2,0.9l-14.7-0.3l-9.2-7.2l-11.1,2.8l-12.9-1.1l-7.2,7.9l-13.5,4L25,99.2
			c-0.2-0.2-0.3-0.3-0.3-0.3l3,7.4c0,0,6.9,7.4,10.7,8.2c3.8,0.9,10.8-0.1,16-0.9c5.2-0.8,9.4-2.7,11-5.7c1.7-3,1.9-3.9,1.9-3.9
			s5,7,9.2,7.8c4.3,0.8,17-3.5,17-3.5s7.7-2.1,9.1-4.8c1.4-2.7,5-11.4,5-11.4L103.7,94.2z M26.4,100.3c-0.1,0-0.1-0.1-0.2-0.1
			c-0.5-0.4-0.9-0.8-1.2-1L26.4,100.3z"/>
		<g>
			<path class="st1" d="M116.2,41.6c0-0.4-0.1-0.8-0.1-1.2c0-0.3-0.1-0.6-0.1-0.8c-1.1-0.9-2.3-1.7-3.5-2.4
				c-1.4-0.8-2.8-1.5-4.2-2.2c-1.4-0.7-2.9-1.3-4.4-1.9c-0.7-0.3-1.5-0.6-2.3-0.9c-0.8-0.3-1.5-0.6-2.3-0.8c1.6,0.3,3.2,0.6,4.8,1
				c1,0.3,2,0.6,3,0.9c-7.2-18.8-24.4-31-43.1-31c-18.8,0-35.9,12.2-43.1,31c1-0.3,2-0.6,3-0.9c1.6-0.4,3.2-0.8,4.8-1
				c-0.8,0.3-1.5,0.6-2.3,0.8c-0.8,0.3-1.5,0.6-2.3,0.9c-1.5,0.6-3,1.2-4.4,1.9c-1.5,0.7-2.9,1.4-4.2,2.2c-1.3,0.7-2.5,1.5-3.5,2.4
				c0,0.3-0.1,0.6-0.1,0.8c0,0.4-0.1,0.8-0.1,1.2c-0.1,0.8-0.1,1.6-0.1,2.4c0,1.6,0.1,3.2,0.3,4.8c0.2,1.6,0.5,3.2,0.9,4.7
				c0.2,0.8,0.5,1.5,0.7,2.3c0.1,0.4,0.3,0.7,0.5,1.1c0.1,0.2,0.2,0.3,0.2,0.5l0.1,0.2c0.1,0.1,0.2,0.1,0.4,0.2l0.7,0.3
				c0.4,0.2,0.9,0.4,1.4,0.6c0,0,0.1,0,0.1-0.1l-1.3-5.1c0.3-0.1,2.8-0.7,7.1-1.6c-0.4-0.1-0.7-0.1-1.1-0.2c-1-0.2-2-0.5-2.9-0.9
				c-0.5-0.2-0.9-0.4-1.4-0.7c-0.4-0.3-0.9-0.5-1.2-0.9c4.8,1.6,14.6,0.9,23.4-0.1c8-0.8,16-1.4,24.1-1.4c8.1,0,16.1,0.6,24.1,1.4
				c8.8,0.9,18.6,1.6,23.4,0.1c-0.3,0.4-0.8,0.7-1.2,0.9c-0.4,0.2-0.9,0.5-1.4,0.7c-0.9,0.4-1.9,0.7-2.9,0.9c-0.1,0-0.3,0.1-0.4,0.1
				c4.8,0.9,7.5,1.6,7.8,1.7l-1.3,4.8c0.3-0.1,0.5-0.2,0.8-0.3l0.7-0.3c0.1-0.1,0.2-0.1,0.4-0.2l0.1-0.2c0.1-0.2,0.2-0.3,0.2-0.5
				c0.2-0.4,0.3-0.7,0.5-1.1c0.3-0.7,0.5-1.5,0.7-2.3c0.4-1.5,0.7-3.1,0.9-4.7c0.2-1.6,0.3-3.2,0.3-4.8
				C116.3,43.2,116.3,42.4,116.2,41.6z"/>
			<path class="st2" d="M69.3,108.4c-0.6,0.1-1.3,0.2-1.9,0.2c-0.4,0-0.8,0.1-1.2,0.1l-0.1,0c0.5-1.1,0.9-1.9,1.1-2.6
				C67.7,106.7,68.5,107.5,69.3,108.4z"/>
			<path class="st2" d="M70.7,109.8c2,1.9,4.4,3.1,7.1,3.3c-4.5,1.8-8.7,2.5-12,2.7c-3.2,0.2-6.5-0.2-9.8-1.1c0.3,0,0.5-0.1,0.7-0.1
				c0.3,0,6.1-0.8,8.7-4.7l0.2,0l0.6,0c0.4,0,0.8,0,1.2-0.1c1-0.1,1.9-0.2,2.9-0.4C70.5,109.6,70.6,109.7,70.7,109.8z"/>
			<path class="st3" d="M76.2,51.7c-0.2,0.2-0.4,0.5-0.6,0.8c-1.1,1.5-2.7,3.3-4.6,5.1c-2.2-0.1-4.4-0.1-6.8-0.1
				c-3.8,0-7.5,0.1-11,0.3c4.9-2,10.9-4,17.3-5.2C72.4,52.1,74.3,51.9,76.2,51.7z"/>
			<path class="st3" d="M47.4,53.9c-1.8,1.2-3.7,2.8-5.7,4.7c-4.9,0.5-9.2,1.1-12.8,1.7C34.3,57.8,40.6,55.4,47.4,53.9z"/>
			<path class="st3" d="M107.7,64.1l-2,14L96,84.8L71,82l-3.8-12.4c-0.1-0.3-0.3-0.5-0.7-0.6c-0.9-0.2-1.8-0.2-2.4-0.2
				c-0.7,0-1.5,0.1-2.4,0.2c-0.3,0.1-0.6,0.3-0.7,0.6l-3.7,12.1l-24.9,5.6l-9.9-6.9l-1.9-15.8c0.4-0.2,0.9-0.5,1.3-0.7
				c0.6-0.1,1.3-0.3,2.1-0.4l1.8,14.9c0,0.2,0.2,0.4,0.3,0.6l6.8,4.8c0.1,0.1,0.3,0.1,0.5,0.1c0.1,0,0.1,0,0.2,0L54,79.2
				c0.1,0,0.1,0,0.2-0.1c0.2-0.1,0.3-0.3,0.4-0.5l3.7-12.2c1-0.3,3.5-0.8,5.8-0.8c2.2,0,4.8,0.6,5.8,0.8l3.7,12.2
				c0.1,0.3,0.4,0.5,0.7,0.6l20.5,2.3c0.2,0,0.4,0,0.6-0.1l6.8-4.8c0.2-0.1,0.3-0.3,0.3-0.6l1.8-12.7
				C105.6,63.6,106.8,63.9,107.7,64.1z"/>
			<path class="st3" d="M110.2,55.2l-1.8,6.7c-3.6-0.8-11.5-2.4-22.3-3.4c3.5-1.5,7.1-3.4,10.4-5.7
				C102.9,53.7,107.6,54.7,110.2,55.2z"/>
			<g>
				<path class="st4" d="M37.9,76.2c1.4-0.8,3-0.6,5.5-0.6c0.3,0,0.5,0,0.8,0c0.2,0,0.5,0,0.7,0c2.5,0,4.7,0.2,4.6-3.8
					c0-4-1.8-7.2-4.4-7.2c-2.5,0-5,3.3-4.9,7.3c0,1,0.2,1.8,0.4,2.3C38.5,74.7,37.9,76.1,37.9,76.2z M68.5,59.7
					c-1,0.8-2,1.5-3.1,2.2l-3.6,2.2c-2.3,0.3-4.2,0.8-4.3,0.9c-0.1,0-0.1,0-0.2,0.1c-0.2,0.1-0.3,0.3-0.4,0.5l-3.7,12.1l-19.7,4.4
					l-6.2-4.3l-1.8-14.6c3.5-0.6,8.2-1.4,13.9-2c-0.6,0.7-1.2,1.5-1.8,2.3l-3.4,4.8l4.9-3.3c0.1-0.1,3.2-2.1,8.3-4.6
					c5.1-0.4,10.7-0.6,16.7-0.6C65.7,59.7,67.1,59.7,68.5,59.7z"/>
				<path class="st4" d="M90.1,74.6c0-0.1-0.6-1.7-2.9-1.4c0.3-0.6,0.4-1.4,0.3-2.5c-0.3-4-2.6-7.2-5.2-7.1c-2.5,0.1-4.2,3.4-4,7.4
					c0.1,4,2.3,4,4.8,3.9C86.5,74.8,88.4,73.7,90.1,74.6z M102.7,63.1l-1.8,12.4l-6.3,4.4L75,77.6l-3.7-12.1
					c-0.1-0.3-0.3-0.5-0.6-0.6c-0.1,0-2.6-0.7-5.1-1l0.5,0c0.4,0,7.2-0.9,15.3-3.7C90.3,61,97.6,62.2,102.7,63.1z"/>
			</g>
			<g>
				<path class="st5" d="M37.9,76.2c1.4-0.8,3-0.6,5.5-0.6c0.3,0,0.5,0,0.8,0c0.2,0,0.5,0,0.7,0c2.5,0,4.7,0.2,4.6-3.8
					c0-4-1.8-7.2-4.4-7.2c-2.5,0-5,3.3-4.9,7.3c0,1,0.2,1.8,0.4,2.3C38.5,74.7,37.9,76.1,37.9,76.2z M68.5,59.7
					c-1,0.8-2,1.5-3.1,2.2l-3.6,2.2c-2.3,0.3-4.2,0.8-4.3,0.9c-0.1,0-0.1,0-0.2,0.1c-0.2,0.1-0.3,0.3-0.4,0.5l-3.7,12.1l-19.7,4.4
					l-6.2-4.3l-1.8-14.6c3.5-0.6,8.2-1.4,13.9-2c-0.6,0.7-1.2,1.5-1.8,2.3l-3.4,4.8l4.9-3.3c0.1-0.1,3.2-2.1,8.3-4.6
					c5.1-0.4,10.7-0.6,16.7-0.6C65.7,59.7,67.1,59.7,68.5,59.7z"/>
				<path class="st5" d="M90.1,74.6c0-0.1-0.6-1.7-2.9-1.4c0.3-0.6,0.4-1.4,0.3-2.5c-0.3-4-2.6-7.2-5.2-7.1c-2.5,0.1-4.2,3.4-4,7.4
					c0.1,4,2.3,4,4.8,3.9C86.5,74.8,88.4,73.7,90.1,74.6z M102.7,63.1l-1.8,12.4l-6.3,4.4L75,77.6l-3.7-12.1
					c-0.1-0.3-0.3-0.5-0.6-0.6c-0.1,0-2.6-0.7-5.1-1l0.5,0c0.4,0,7.2-0.9,15.3-3.7C90.3,61,97.6,62.2,102.7,63.1z"/>
			</g>
			<path class="st2" d="M111.2,68.5c0.3,0.2,0.5,0.9,0.3,3.9c-0.3,3.7-1.9,10.1-2.8,11.2c-1.1,0.2-3.3,0-4.6-0.4
				c0.2-0.9,0.3-1.4,0.5-2.3l2.4-1.7c0.2-0.1,0.3-0.3,0.3-0.6l1.6-11.5C109.9,67.7,110.9,68.3,111.2,68.5z"/>
			<path class="st2" d="M24.3,83.6c0.1,0.4,0.2,0.8,0.4,1.2c-1.3,0.4-3.9,0.7-5,0.5c-1-1-2.8-7.7-3.2-11.3c-0.3-2.9-0.1-3.5,0.2-3.8
				c0.3-0.3,1.6-1,2.7-1.6l1.5,12.1c0,0.2,0.2,0.4,0.3,0.6L24.3,83.6z"/>
			<path class="st2" d="M72,83.8l-0.1,0.8c0,0-2.7,2.5-7.1,3.1c-4.4,0.6-7.8-2.1-7.8-2.1c0.1,0.5,0.3,1.5,1.3,2.4
				c-1.2-0.1-2.4-0.2-3.7-0.2c-0.5,0-1,0-1.4,0c-2.7,0.1-6.5,4.2-9.1,8.3c-1.3,0.4-5.4,1.7-10.1,3.1c-4.4-6.1-6.6-12.4-6.8-13l0,0
				c-0.1-0.2-0.2-0.5-0.3-0.8l1.1,0.8v0l2.8,2l0.9,0.7c0.1,0.1,0.3,0.2,0.5,0.2c0.1,0,0.1,0,0.2,0l25.8-5.7c0.3-0.1,0.5-0.3,0.6-0.6
				l3.7-12.1c0.6-0.1,1.2-0.1,1.7-0.1c0.5,0,1,0,1.7,0.1L69.5,83c0.1,0.3,0.4,0.5,0.7,0.6L72,83.8z"/>
			<path class="st2" d="M101.4,83.1l0.8-0.6c-0.1,0.6-0.3,1.2-0.4,1.7c-1.2,3.7-2.5,7-4,9.9c-0.3,0-0.7,0-1.1,0
				c-1.2,0-2.4-0.1-3.7-0.2c-2.3-0.2-5.9-0.6-7.1-0.8c-1-0.8-4.4-3.5-7.2-5.7c-0.1-0.1-0.2-0.2-0.3-0.2c-0.5-0.4-1.1-0.9-2.2-0.9
				c-1,0-2.6,0.4-6.2,1.5c1.9-1.4,1.9-3.3,1.9-3.3l0.1-0.8l24.2,2.7c0.2,0,0.4,0,0.6-0.1l2.4-1.7L101.4,83.1z"/>
			<path class="st6" d="M83.6,32.2c0.1,2.2,0,6-1,9.7c0,0.1,0,0.3,0,0.4c-1.3-0.1-2.5-0.2-3.8-0.4c1.4-3,1.7-6.2,1.8-7.3
				C81.7,33.9,82.8,33,83.6,32.2z"/>
			<path class="st6" d="M47.1,34.7c0.1,1.1,0.4,4.3,1.8,7.3c-1.3,0.1-2.5,0.2-3.8,0.4c0-0.1,0-0.3,0-0.4c-1-3.6-1.1-7.5-1-9.7
				C44.9,33,46,33.9,47.1,34.7z"/>
			<path class="st7" d="M90.1,74.6c-1.7-0.8-3.6,0.2-7,0.3c-2.5,0.1-4.7,0.1-4.8-3.9c-0.1-4,1.5-7.3,4-7.4c2.5-0.1,4.9,3.1,5.2,7.1
				c0.1,1.1,0,1.9-0.3,2.5C89.5,72.9,90.1,74.5,90.1,74.6z M82.1,68.7c0.7,0,1.3-0.6,1.3-1.3c0-0.7-0.6-1.3-1.3-1.3
				c-0.7,0-1.3,0.6-1.3,1.3C80.8,68.1,81.4,68.7,82.1,68.7z"/>
			<path class="st8" d="M83.4,67.4c0,0.7-0.6,1.3-1.3,1.3c-0.7,0-1.3-0.6-1.3-1.3c0-0.7,0.6-1.3,1.3-1.3
				C82.8,66.1,83.3,66.7,83.4,67.4z"/>
			<path class="st7" d="M49.5,71.8c0,4-2.1,3.8-4.6,3.8c-0.3,0-0.5,0-0.7,0c-0.3,0-0.6,0-0.8,0c-2.5,0-4.1-0.1-5.5,0.6
				c0-0.1,0.6-1.5,2.9-2c-0.2-0.5-0.4-1.3-0.4-2.3c-0.2-4,2.3-7.3,4.9-7.3C47.7,64.5,49.5,67.8,49.5,71.8z M45.6,69.7
				c0.7,0,1.3-0.6,1.3-1.3c0-0.7-0.6-1.3-1.3-1.3c-0.7,0-1.3,0.6-1.3,1.3C44.3,69.1,44.9,69.7,45.6,69.7z"/>
			<circle class="st8" cx="45.6" cy="68.4" r="1.3"/>
			<g class="st9">
				<path class="st6" d="M30.1,44.6c0,0,0.4-5.2,1.2-7.1c0.4-1,3-1.7,4.9-2.1c1.9-0.5,5-1.4,5.7,1.3c0.6,2.7,1.6,4.7,2.2,5.6
					L43.2,31l-13.4,3.2l-0.9,10l0.4,0.8L30.1,44.6"/>
				<path class="st6" d="M97.8,44.6c0,0-0.4-5.2-1.2-7.1c-0.4-1-3-1.7-4.9-2.1c-1.9-0.5-5-1.4-5.7,1.3c-0.6,2.7-1.6,4.7-2.2,5.6
					L84.7,31L98,34.3l0.9,10L98.5,45L97.8,44.6"/>
			</g>
			<path class="st10" d="M78.9,10.9c0,0-0.4,27-6.7,27c-6.3,0-7.6,0-7.6,0h-1.3c0,0-1.3,0-7.6,0s-6.8-27-6.8-27l-3.1,9.2L46,32.6
				l2.2,1.7l1,5.4l1.4,3.1l27,0.1l1.2-2.2l1-3.8l0.2-2.4l3-8.5L78.9,10.9z"/>
			<path class="st10" d="M98.7,36.1c0,0,1.3,9.3,4.7,11c3.4,1.7,0,0,0,0l-4.8-1.4L98.7,36.1z"/>
			<path class="st10" d="M29,36.1c0,0-1.3,9.3-4.7,11c-3.4,1.7,0,0,0,0l4.8-1.4L29,36.1z"/>
			<path class="st7" d="M99.7,45.6c1.6,0.5,3.3,1.1,4.8,2c-0.8-0.3-1.6-0.5-2.4-0.7c-0.8-0.2-1.7-0.4-2.5-0.5
				c-1.7-0.3-3.4-0.6-5-0.8c-1.7-0.2-3.4-0.4-5.1-0.5c-1.7-0.1-3.4-0.3-5.1-0.4C77.5,44.1,70.7,44,63.9,44c-6.8,0-13.6,0.1-20.4,0.5
				c-1.7,0.1-3.4,0.2-5.1,0.4c-1.7,0.1-3.4,0.3-5.1,0.5c-1.7,0.2-3.4,0.5-5,0.8c-0.8,0.2-1.7,0.3-2.5,0.5c-0.8,0.2-1.7,0.4-2.4,0.7
				c1.5-0.9,3.1-1.4,4.8-2c0.1,0,0.3-0.1,0.4-0.1c0,0,0-0.1,0-0.1c0-0.2-0.6-4.7,0.4-11.1c0.1-0.3,0.3-0.6,0.6-0.6l1.7-0.5
				c0.4-13.4,5.9-19.7,6.1-19.9c-4.9,7.9-4.9,17.4-4.8,19.6l10.8-3.1c0,0,0,0,0,0c0,0,0.1,0,0.1,0c0,0,0,0,0,0c0.1,0,0.1,0,0.2,0
				c0,0,0,0,0,0c0,0,0.1,0,0.1,0c0,0,0,0,0.1,0c0,0,0.1,0,0.1,0.1c0,0,0,0,0,0c0,0,0,0,0,0c0,0,0,0,0,0c0,0,0.3,0.3,0.7,0.7
				c-0.1-3.5,0.1-13.7,4.9-22.1C49.6,8.8,45.7,20,47,32.6c0.4,0.3,0.9,0.7,1.3,1c0.2,0.1,0.3,0.4,0.3,0.6c0,0,0.1,4.1,1.9,7.5
				c0,0.1,0,0.1,0.1,0.2c4.4-0.3,8.8-0.4,13.2-0.4c4.4,0,8.8,0.1,13.2,0.4c0-0.1,0-0.1,0.1-0.2c1.8-3.4,1.9-7.4,1.9-7.5
				c0-0.3,0.1-0.5,0.4-0.6c0.4-0.3,0.9-0.6,1.3-1C82,20,78.2,8.8,78.1,8.5c4.8,8.4,5,18.6,4.9,22.1c0.5-0.4,0.7-0.7,0.7-0.7
				c0,0,0,0,0,0c0,0,0,0,0,0c0,0,0,0,0,0c0,0,0.1,0,0.1-0.1c0,0,0,0,0,0c0,0,0.1,0,0.1,0c0,0,0,0,0,0c0.1,0,0.1,0,0.2,0c0,0,0,0,0,0
				c0,0,0.1,0,0.1,0c0,0,0,0,0,0l10.8,3.1c0.1-2.2,0.1-11.6-4.8-19.6c0.2,0.2,5.7,6.5,6.1,19.9l1.7,0.5c0.3,0.1,0.5,0.3,0.6,0.6
				c1.1,6.4,0.4,10.9,0.4,11.1c0,0,0,0.1,0,0.1C99.4,45.5,99.5,45.5,99.7,45.6z M97.7,45c0.1-0.7,0.5-4.6-0.4-10l-12.2-3.5
				c0.1,2.1,0.2,6.5-1,10.8c0,0.1,0,0.1-0.1,0.2c0.1,0,0.2,0,0.4,0c3.4,0.4,6.8,0.9,10.2,1.7C95.7,44.5,96.7,44.7,97.7,45z
				 M82.6,41.9c1-3.6,1.1-7.5,1-9.7c-0.8,0.7-1.9,1.7-3,2.4c-0.1,1.1-0.4,4.3-1.8,7.3c1.3,0.1,2.6,0.2,3.8,0.4
				C82.6,42.2,82.6,42.1,82.6,41.9z M48.9,42c-1.4-3-1.7-6.2-1.8-7.3c-1.1-0.8-2.2-1.7-3-2.4c-0.1,2.2,0,6.1,1,9.7
				c0,0.1,0,0.3,0,0.4C46.4,42.2,47.7,42.1,48.9,42z M43.6,42.5c0,0,0-0.1-0.1-0.1c-1.2-4.3-1.1-8.7-1-10.8L30.4,35
				c-0.8,5.3-0.4,9.2-0.4,10c1-0.3,2-0.5,3-0.8c1.7-0.4,3.4-0.7,5.1-1c1.7-0.3,3.4-0.5,5.1-0.7C43.4,42.5,43.5,42.5,43.6,42.5z"/>
			<g id="XMLID_1_">
				<g>
					<path class="st7" d="M76.7,11.3v10.1h-7.2v-3h-1.6v13.6h2.4v7.6H57.8v-7.6h2.4V18.4h-1.6v3h-7.2V11.3H76.7z M74.5,19.2v-5.8
						h-3.1h-5.7H53.7v5.8h2.9v-3h5.9v17.9H60v3.3h8.2v-3.3h-2.4V16.3h5.9v3H74.5z"/>
					<polygon class="st0" points="74.5,13.4 74.5,19.2 71.7,19.2 71.7,16.3 65.8,16.3 65.8,34.2 68.2,34.2 68.2,37.5 60,37.5 
						60,34.2 62.4,34.2 62.4,16.3 56.5,16.3 56.5,19.2 53.7,19.2 53.7,13.4 65.8,13.4 71.4,13.4 					"/>
				</g>
				<g>
				</g>
			</g>
			<path class="st3" d="M18.2,55.2c1-0.2,2.5-0.5,4.2-0.9c-1.1,0.7-2.3,1.6-3.7,2.7L18.2,55.2z"/>
			<path class="st5" d="M56.4,82.9c0,0,0.3,1.9-2.3,2.7c-2.6,0.8-19.3,5.8-21.2,5.5c-1.9-0.3-6.7-3.5-6.7-3.5L25,83.5l7.1,4.4
				L56.4,82.9z"/>
			<path class="st5" d="M71.3,82.6c0,0-0.2,1.9,2.5,2.6c2.7,0.7,19.5,4.9,21.4,4.6c1.9-0.4,6.6-3.8,6.6-3.8l1-4.2l-6.6,3.9
				L71.3,82.6z"/>
			<path class="st5" d="M16.9,79.5c0,0,2.3,4.6,6,3l2.7,1l-0.3,2l-5.6,0.7l-1.5-0.9L16.9,79.5z"/>
			<path class="st5" d="M111.3,78.2c0,0-3.8,4.8-7.5,3.2l-1.2,0.8l0.3,2l5.6,0.7l1.5-0.9L111.3,78.2z"/>
			<path class="st5" d="M53,114.5c0,0,13.7,6.9,29.1-2.5l-5-0.3c0,0-10.8,4.3-19.4,1.9L53,114.5z"/>
			<path class="st7" d="M66.8,101.8l0.9,1.1c0,0,2.1,2.5,4.7,5.1c1.7,1.7,3.8,2.5,6.1,2.5c0.8,0,1.7-0.1,2.5-0.3
				c0.8-0.2,1.7-0.4,2.5-0.6c3.2-0.8,6.8-1.6,8.6-2.1c0.3-0.1,0.7-0.2,1.1-0.3c2.3-0.5,5.5-1.3,7.2-4.7c1.3-2.5,3-5.9,4.3-8.3
				c-1.1,0.5-2.3,1.1-3.1,1.5c-1.3,0.7-2.9,1-5.1,1c-1.3,0-2.5-0.1-3.9-0.2c-2.8-0.3-7.5-0.8-7.5-0.8l-0.4,0l-0.3-0.2
				c0,0-4.2-3.3-7.5-5.9c-0.1-0.1-0.3-0.2-0.4-0.3c-0.3-0.3-0.3-0.3-0.6-0.3c-1.1,0-4.2,1-11,3.1l-0.4,0.1l-0.4-0.2
				c0,0-4.5-1.7-9.8-1.7c-0.4,0-0.9,0-1.3,0c-0.5,0-3.5,1.5-7.4,7.5l-0.2,0.4l-0.4,0.1c-0.1,0-6.7,2.2-13.7,4.2l-0.5,0.1l-0.4-0.2
				c0,0-2.8-1.3-5.4-2.5c1.4,2.1,3.2,4.7,4.8,6.8c2.8,3.6,6.3,6.9,13.1,6.9c0.8,0,1.7-0.1,2.7-0.2c6.9-0.8,8.6-1.1,9.6-1.3
				c0.3-0.1,0.6-0.1,0.9-0.1c0.1,0,5.7-0.7,7.3-4.3c1.6-3.6,2-4.5,2-4.5l0.6-1.5c0,0,0.1-0.4,0.2-0.5c0,0,0,0,0,0l0,0
				C66.6,101.4,66.8,101.8,66.8,101.8z M24,33.1c-1.5,0.6-3,1.2-4.4,1.9c-1.5,0.7-2.9,1.4-4.2,2.2c-1.3,0.7-2.5,1.5-3.5,2.4
				c0,0.3-0.1,0.6-0.1,0.8c0,0.4-0.1,0.8-0.1,1.2c-0.1,0.8-0.1,1.6-0.1,2.4c0,1.6,0.1,3.2,0.3,4.8c0.2,1.6,0.5,3.2,0.9,4.7
				c0.2,0.8,0.5,1.5,0.7,2.3c0.1,0.4,0.3,0.7,0.5,1.1c0.1,0.2,0.2,0.3,0.2,0.5l0.1,0.2c0.1,0.1,0.2,0.1,0.4,0.2l0.7,0.3
				c0.4,0.2,0.9,0.4,1.4,0.6c0,0,0.1,0,0.1-0.1l-1.3-5.1c0.3-0.1,2.8-0.7,7.1-1.6c-0.4-0.1-0.7-0.1-1.1-0.2c-1-0.2-2-0.5-2.9-0.9
				c-0.5-0.2-0.9-0.4-1.4-0.7c-0.4-0.3-0.9-0.5-1.2-0.9c4.8,1.6,14.6,0.9,23.4-0.1c8-0.8,16-1.4,24.1-1.4c8.1,0,16.1,0.6,24.1,1.4
				c8.8,0.9,18.6,1.6,23.4,0.1c-0.3,0.4-0.8,0.7-1.2,0.9c-0.4,0.2-0.9,0.5-1.4,0.7c-0.9,0.4-1.9,0.7-2.9,0.9c-0.1,0-0.3,0.1-0.4,0.1
				c4.8,0.9,7.5,1.6,7.8,1.7l-1.3,4.8c0.3-0.1,0.5-0.2,0.8-0.3l0.7-0.3c0.1-0.1,0.2-0.1,0.4-0.2l0.1-0.2c0.1-0.2,0.2-0.3,0.2-0.5
				c0.2-0.4,0.3-0.7,0.5-1.1c0.3-0.7,0.5-1.5,0.7-2.3c0.4-1.5,0.7-3.1,0.9-4.7c0.2-1.6,0.3-3.2,0.3-4.8c0-0.8,0-1.6-0.1-2.4
				c0-0.4-0.1-0.8-0.1-1.2c0-0.3-0.1-0.6-0.1-0.8c-1.1-0.9-2.3-1.7-3.5-2.4c-1.4-0.8-2.8-1.5-4.2-2.2c-1.4-0.7-2.9-1.3-4.4-1.9
				c-0.7-0.3-1.5-0.6-2.3-0.9c-0.8-0.3-1.5-0.6-2.3-0.8c1.6,0.3,3.2,0.6,4.8,1c1,0.3,2,0.6,3.1,0.9c-7.2-18.8-24.4-31-43.1-31
				c-18.8,0-35.9,12.2-43.1,31c1-0.3,2-0.6,3-0.9c1.6-0.4,3.2-0.8,4.8-1c-0.8,0.3-1.5,0.6-2.3,0.8C25.5,32.5,24.8,32.8,24,33.1z
				 M118.6,43.9c0.1,1.7,0,3.5-0.2,5.2c-0.2,1.7-0.5,3.4-1,5.1c-0.2,0.8-0.5,1.7-0.8,2.5c-0.2,0.4-0.3,0.8-0.5,1.2
				c-0.1,0.2-0.2,0.4-0.3,0.6l-0.2,0.3c-0.1,0.1-0.1,0.2-0.2,0.3l-0.2,0.3l-0.3,0.1c-0.3,0.2-0.5,0.3-0.8,0.4l-0.8,0.3
				c-0.5,0.2-1,0.4-1.6,0.6c-0.4,0.1-0.7,0.3-1,0.4l-0.9,3.3c0,0-0.3-0.1-0.8-0.2l0,0.3c0.9,0.5,2.8,1.5,3.4,2
				c1.3,1.1,1.4,2.7,1.1,5.8c-0.1,1.6-0.7,4.7-1.4,7.6c-1.3,4.9-1.9,5.5-2.8,5.7c-0.4,0.1-1.1,0.2-1.8,0.2c-1.3,0-3.2,0-4.4-0.3
				c-0.3,1.1-1.2,4-3,7.7c0.1,0,0.2-0.1,0.3-0.1c2.2-1.2,6.4-3,6.6-3.1l3.3-1.5l-1.7,3.2c0,0.1-3.7,7-6,11.5c-2.2,4.5-6.4,5.4-8.9,6
				c-0.4,0.1-0.7,0.2-1,0.3c-1.8,0.5-5.4,1.4-8.7,2.1c0,0-0.1,0-0.1,0c-2,1.2-4.1,2.3-6.5,3.2c-8.6,3.3-17.8,3.1-26,0.1
				c-1.3,0.2-3.1,0.4-5.5,0.7c-1,0.1-2,0.2-3,0.2c-7.9,0-12-4-15.1-7.9c-3.3-4.2-7.2-10.4-7.4-10.7L18.4,94l3.9,1.8
				c1.9,0.8,7.4,3.4,9,4.2c0.1,0,0.3-0.1,0.4-0.1c-2.6-3.8-4.8-8.1-6.3-12.8c-1.3,0.4-3.3,0.7-4.9,0.7c-0.6,0-1.1,0-1.5-0.1
				c-0.9-0.2-1.9-1-3.2-5.8c-0.8-2.8-1.4-5.8-1.5-7.3c-0.3-3-0.3-4.7,1-5.7c0.8-0.6,3.3-2,3.9-2.3L19,65.4c-8.2,4.8-13,9-13.1,9.1
				L0,79.7l4.2-6.6c3.3-5.2,7.1-9.4,10.6-12.6c-0.1-0.1-0.3-0.1-0.4-0.2L13.5,60c-0.3-0.1-0.5-0.2-0.8-0.4l-0.3-0.1l-0.2-0.3
				c-0.1-0.1-0.1-0.2-0.2-0.3l-0.2-0.3c-0.1-0.2-0.2-0.4-0.3-0.6c-0.2-0.4-0.4-0.8-0.5-1.2c-0.3-0.8-0.6-1.7-0.8-2.5
				c-0.5-1.7-0.8-3.4-1-5.1c-0.2-1.7-0.2-3.5-0.2-5.2c0-0.9,0.1-1.7,0.2-2.6c0.1-0.4,0.1-0.9,0.2-1.3c0.1-0.4,0.2-0.8,0.3-1.3
				l0.1-0.3l0.2-0.2c1.4-1.1,2.8-1.9,4.3-2.6c1.2-0.6,2.5-1.1,3.7-1.6c3.5-9.8,9.6-18.5,17.6-24.5C44.1,3.3,53.8,0,63.9,0
				c10.1,0,19.8,3.3,28,9.6c8,6,14,14.7,17.6,24.5c1.3,0.5,2.5,1,3.7,1.6c1.5,0.7,3,1.5,4.3,2.6l0.2,0.2l0.1,0.3
				c0.1,0.5,0.2,0.9,0.3,1.3c0.1,0.4,0.2,0.9,0.2,1.3C118.5,42.2,118.6,43.1,118.6,43.9z M111.5,72.4c0.3-3,0-3.6-0.3-3.9
				c-0.3-0.3-1.3-0.8-2.3-1.4l-1.6,11.5c0,0.2-0.2,0.4-0.3,0.6l-2.4,1.7c-0.2,0.9-0.3,1.4-0.5,2.3c1.3,0.3,3.6,0.6,4.6,0.4
				C109.6,82.5,111.2,76.1,111.5,72.4z M108.4,61.9l1.8-6.7c-2.6-0.6-7.3-1.6-13.7-2.5c-3.3,2.4-6.9,4.2-10.4,5.8
				C96.9,59.6,104.8,61.2,108.4,61.9z M105.7,78.1l2-14c-0.9-0.2-2-0.4-3.4-0.7l-1.8,12.7c0,0.2-0.2,0.4-0.3,0.6l-6.8,4.8
				c-0.2,0.1-0.4,0.2-0.6,0.1l-20.5-2.3c-0.3,0-0.6-0.3-0.7-0.6l-3.7-12.2c-1-0.3-3.5-0.8-5.8-0.8c-2.2,0-4.8,0.6-5.8,0.8l-3.7,12.2
				c-0.1,0.2-0.2,0.4-0.4,0.5c-0.1,0-0.1,0.1-0.2,0.1l-20.5,4.6c-0.1,0-0.1,0-0.2,0c-0.2,0-0.3,0-0.5-0.1l-6.8-4.8
				c-0.2-0.1-0.3-0.3-0.3-0.6l-1.8-14.9c-0.8,0.1-1.4,0.3-2.1,0.4c-0.4,0.2-0.9,0.5-1.3,0.7l1.9,15.8l9.9,6.9l24.9-5.6L61,69.6
				c0.1-0.3,0.3-0.5,0.7-0.6c0.9-0.2,1.8-0.2,2.4-0.2c0.7,0,1.5,0.1,2.4,0.2c0.3,0,0.6,0.3,0.7,0.6L71,82L96,84.8L105.7,78.1z
				 M100.9,75.5l1.8-12.4c-5-0.9-12.3-2-21.3-2.7C73.3,63.2,66.5,64,66.1,64l-0.5,0c2.6,0.2,5,0.9,5.1,1c0.3,0.1,0.5,0.3,0.6,0.6
				L75,77.6l19.7,2.2L100.9,75.5z M102.2,82.5l-0.8,0.6l-2.2,1.6l-2.4,1.7c-0.2,0.1-0.4,0.2-0.6,0.1L72,83.8l-1.8-0.2
				c-0.3,0-0.6-0.3-0.7-0.6l-3.8-12.5c-0.6-0.1-1.2-0.1-1.7-0.1c-0.5,0-1,0-1.7,0.1l-3.7,12.1c-0.1,0.3-0.3,0.5-0.6,0.6l-25.8,5.7
				c-0.1,0-0.1,0-0.2,0c-0.2,0-0.3,0-0.5-0.1l-0.9-0.7l-2.8-2v0l-1.1-0.8c0.1,0.3,0.2,0.5,0.3,0.8l0,0c0.2,0.6,2.4,6.9,6.8,13
				c4.7-1.4,8.8-2.7,10.1-3.1c2.7-4.1,6.5-8.2,9.1-8.3c0.5,0,0.9,0,1.4,0c1.3,0,2.6,0.1,3.7,0.2c-1-0.9-1.2-2-1.3-2.4
				c0,0,3.4,2.7,7.8,2.1c4.4-0.6,7.1-3.1,7.1-3.1s0,1.8-1.9,3.3c3.7-1.1,5.2-1.5,6.2-1.5c1.1,0,1.7,0.5,2.2,0.9
				c0.1,0.1,0.2,0.2,0.3,0.2c2.8,2.2,6.2,4.9,7.2,5.7c1.1,0.1,4.8,0.5,7.1,0.8c1.3,0.1,2.5,0.2,3.7,0.2c0.4,0,0.7,0,1.1,0
				c1.5-2.9,2.9-6.2,4-9.9C102,83.7,102.1,83.1,102.2,82.5z M93.3,51.9C93.3,51.9,93.3,51.9,93.3,51.9c-2-0.2-3.9-0.3-5.8-0.4
				c-2.7-0.2-5.4-0.3-8.1-0.4c-0.2,0.2-0.5,0.7-0.9,1.3c-1.5,2-4.4,5.6-8.1,8.7c5.3-0.9,14.5-3.3,22.4-8.8
				C92.9,52.2,93.1,52,93.3,51.9z M75.6,52.5c0.2-0.3,0.4-0.5,0.6-0.8c-1.9,0.2-3.9,0.5-5.7,0.8c-6.4,1.2-12.3,3.2-17.3,5.2
				c3.5-0.2,7.2-0.3,11-0.3c2.3,0,4.6,0,6.8,0.1C72.9,55.8,74.5,53.9,75.6,52.5z M77.7,113c-2.7-0.2-5.1-1.3-7.1-3.2
				c-0.1-0.1-0.2-0.2-0.3-0.3c-0.9,0.2-1.9,0.3-2.9,0.4c-0.4,0-0.8,0.1-1.2,0.1l-0.6,0l-0.2,0c-2.6,3.9-8.4,4.6-8.7,4.7
				c-0.2,0-0.4,0.1-0.7,0.1c3.2,0.9,6.5,1.3,9.8,1.1C69,115.6,73.2,114.8,77.7,113z M67.4,108.6c0.6,0,1.3-0.1,1.9-0.2
				c-0.8-0.9-1.5-1.6-2.1-2.3c-0.3,0.6-0.7,1.5-1.1,2.6h0.1C66.6,108.7,67,108.6,67.4,108.6z M65.4,61.9c1.1-0.7,2.1-1.4,3.1-2.2
				c-1.4,0-2.9,0-4.3,0c-6,0-11.6,0.2-16.7,0.6c-5.1,2.5-8.2,4.6-8.3,4.6l-4.9,3.3l3.4-4.8c0.6-0.8,1.1-1.6,1.8-2.3
				c-5.7,0.6-10.4,1.4-13.9,2l1.8,14.6l6.2,4.3l19.7-4.4l3.7-12.1c0.1-0.2,0.2-0.4,0.4-0.5c0.1,0,0.1-0.1,0.2-0.1
				c0.1,0,2.1-0.6,4.4-0.9L65.4,61.9z M67.7,50.8c-1.4,0-2.7,0-4.1,0h0c-2,0-4,0-6,0.1l-3.7,1.8c0,0,0,0-0.1,0
				c-0.6,0.3-5.4,2.7-10,7.1c4.1-2.2,10.2-5,17.3-7.2C63.1,51.9,65.4,51.3,67.7,50.8z M41.7,58.6c1.9-1.9,3.9-3.5,5.7-4.7
				c-6.8,1.6-13,3.9-18.5,6.4C32.4,59.7,36.7,59.1,41.7,58.6z M43,52.7c2.3-0.6,4.6-1.2,7-1.7c-3.4,0.1-6.9,0.3-10.3,0.5
				c-2,0.1-4,0.2-6,0.4c-1,0.1-2,0.2-3,0.3c-0.3,0-0.6,0.1-0.8,0.1c-2.6,1.6-12.5,7.8-19.4,16C17.1,63.6,28.7,56.7,43,52.7z
				 M24.7,84.8c-0.1-0.4-0.3-0.8-0.4-1.2l-3.1-2.1c-0.2-0.1-0.3-0.3-0.3-0.6l-1.5-12.1c-1.1,0.6-2.4,1.3-2.7,1.6
				c-0.3,0.2-0.5,0.9-0.2,3.8c0.4,3.6,2.2,10.3,3.2,11.3C20.8,85.6,23.4,85.2,24.7,84.8z M22.4,54.4c-1.7,0.3-3.1,0.6-4.2,0.9
				l0.5,1.9C20.1,56,21.3,55.1,22.4,54.4z"/>
		</g>
	</g>
	<g id="Travis_CI">
		<path class="st7" d="M151.5,44.1h-13.8v-7.2h36v7.2H160v40.6h-8.5V44.1z"/>
		<path class="st7" d="M172.9,48.8h6.9l0.6,6.4h0.3c2.6-4.7,6.4-7.2,10.2-7.2c1.8,0,3,0.2,4.1,0.7l-1.5,7.3
			c-1.2-0.4-2.2-0.6-3.7-0.6c-2.8,0-6.3,2-8.5,7.4v21.9h-8.4V48.8z"/>
		<path class="st7" d="M217.9,61.8c-0.1-3.8-1.7-7-6.5-7c-3.6,0-6.9,1.6-10.1,3.5l-3.1-5.6c3.9-2.5,9-4.7,14.7-4.7
			c9,0,13.4,5.5,13.4,15.5v21.3h-6.9l-0.7-3.9h-0.2c-3.2,2.7-6.9,4.8-11.1,4.8c-6.3,0-10.7-4.2-10.7-10.5
			C196.8,67.4,203.2,63.4,217.9,61.8z M210.1,79c2.9,0,5.2-1.5,7.8-3.9v-8c-9.7,1.2-12.9,3.8-12.9,7.4C205,77.6,207.1,79,210.1,79z"
			/>
		<path class="st7" d="M228.7,48.8h8.5l5.7,18.6c0.9,3.5,2,7.2,3,10.8h0.3c1-3.7,2-7.3,3.1-10.8l5.7-18.6h8.1l-12.2,35.9h-9.7
			L228.7,48.8z"/>
		<path class="st7" d="M266.3,37.8c0-2.8,2.2-4.8,5.2-4.8s5.2,2,5.2,4.8c0,2.8-2.2,4.7-5.2,4.7S266.3,40.6,266.3,37.8z M267.2,48.8
			h8.4v35.9h-8.4V48.8z"/>
		<path class="st7" d="M284.4,75.2c3.2,2.5,6.3,4,9.9,4c3.9,0,5.7-1.8,5.7-4.3c0-3-3.9-4.3-7.7-5.8c-4.7-1.8-10.1-4.5-10.1-10.4
			c0-6.3,5-10.7,13.1-10.7c5,0,9,2,11.9,4.3l-3.9,5.1c-2.5-1.8-5-3.1-7.9-3.1c-3.6,0-5.3,1.7-5.3,3.9c0,2.8,3.6,3.9,7.5,5.3
			c4.9,1.8,10.3,4.2,10.3,10.9c0,6.1-4.9,11.1-14,11.1c-4.9,0-10.1-2.1-13.6-5L284.4,75.2z"/>
		<path class="st7" d="M349.2,36.1c5.8,0,10.6,2.8,13.6,6.1l-4.7,5.3c-2.5-2.4-5.2-3.9-8.8-3.9c-7.8,0-13.4,6.6-13.4,17.3
			c0,10.9,5.2,17.5,13.1,17.5c4.2,0,7.4-1.8,10.1-4.7l4.7,5.2c-3.9,4.5-8.8,6.9-14.9,6.9c-12.1,0-21.7-8.8-21.7-24.6
			C327.1,45.3,336.9,36.1,349.2,36.1z"/>
		<path class="st7" d="M368.9,36.9h8.5v47.8h-8.5V36.9z"/>
	</g>
</g>
</svg>
