<?xml version="1.0" encoding="utf-8"?>
<!-- Generator: Adobe Illustrator 19.1.0, SVG Export Plug-In . SVG Version: 6.00 Build 0)  -->
<svg version="1.1" id="Layer_1" xmlns="http://www.w3.org/2000/svg" xmlns:xlink="http://www.w3.org/1999/xlink" x="0px" y="0px"
	 viewBox="0 0 451 191.9" style="enable-background:new 0 0 451 191.9;" xml:space="preserve">
<style type="text/css">
	.st0{fill:#CB3449;}
	.st1{fill:#F3ECAC;}
	.st2{fill:#E6CCAD;}
	.st3{fill:#656C68;}
	.st4{fill:#E4C9A1;}
	.st5{fill:#C7B398;}
	.st6{fill:#EBD598;}
	.st7{fill:#2D3235;}
	.st8{fill:#EDF6FA;}
	.st9{opacity:0.8;}
	.st10{opacity:0.75;}
	.st11{fill:#B5D3D7;}
	.st12{fill:#3AA85A;}
	.st13{fill:#E6EEEF;}
	.st14{fill:#EDF6F6;}
	.st15{fill:#FFFFFF;}
</style>
<g>
	<g>
		<g>
			<path class="st0" d="M64.9,89.2c0,0-18.5,13-19.2,17.9l1.4-0.3c0,0,22.1-14.7,39.6-16.4l0.4-2.2L64.9,89.2z"/>
		</g>
		<g>
			<path class="st0" d="M93.9,87.4L79.3,97.7l0.8,0.6c0.6-0.5,25.8-8.2,25.8-8.2l5.3-3.3C107.7,87.3,93.9,87.4,93.9,87.4z"/>
		</g>
		<g>
			<path class="st0" d="M106.5,99.9c10.3,0,25.8-10.1,25.8-10.1l-5-1c-0.2,0.2-8.1-0.3-8.1-0.3l-3.7-1l-8.9,10.1l-0.7,1.8
				C106.6,99.1,106.5,99.9,106.5,99.9z"/>
		</g>
	</g>
	<g>
		<path class="st0" d="M140.2,132.1L137,133l-14.7-0.3l-9.2-7.2l-11.1,2.8L89,127.2l-7.2,7.9l-13.5,4l-6.8-2.1
			c-0.2-0.2-0.3-0.3-0.3-0.3l3,7.4c0,0,6.9,7.4,10.7,8.2c3.8,0.9,10.8-0.1,16-0.9c5.2-0.8,9.4-2.7,11-5.7c1.7-3,1.9-3.9,1.9-3.9
			s5,7,9.2,7.8c4.3,0.8,17-3.5,17-3.5s7.7-2.1,9.1-4.8c1.4-2.7,5-11.4,5-11.4L140.2,132.1z M62.9,138.2c-0.1,0-0.1-0.1-0.2-0.1
			c-0.5-0.4-0.9-0.8-1.2-1L62.9,138.2z"/>
	</g>
	<g>
		<g>
			<path class="st1" d="M152.7,79.5c0-0.4-0.1-0.8-0.1-1.2c0-0.3-0.1-0.6-0.1-0.8c-1.1-0.9-2.3-1.7-3.5-2.4
				c-1.4-0.8-2.8-1.5-4.2-2.2c-1.4-0.7-2.9-1.3-4.4-1.9c-0.7-0.3-1.5-0.6-2.3-0.9c-0.8-0.3-1.5-0.6-2.3-0.8c1.6,0.3,3.2,0.6,4.8,1
				c1,0.3,2,0.6,3,0.9c-7.2-18.8-24.4-31-43.1-31c-18.8,0-35.9,12.2-43.1,31c1-0.3,2-0.6,3-0.9c1.6-0.4,3.2-0.8,4.8-1
				c-0.8,0.3-1.5,0.6-2.3,0.8c-0.8,0.3-1.5,0.6-2.3,0.9c-1.5,0.6-3,1.2-4.4,1.9c-1.5,0.7-2.9,1.4-4.2,2.2c-1.3,0.7-2.5,1.5-3.5,2.4
				c0,0.3-0.1,0.6-0.1,0.8c0,0.4-0.1,0.8-0.1,1.2C48,80.3,48,81.1,48,81.9c0,1.6,0.1,3.2,0.3,4.8c0.2,1.6,0.5,3.2,0.9,4.7
				c0.2,0.8,0.5,1.5,0.7,2.3c0.1,0.4,0.3,0.7,0.5,1.1c0.1,0.2,0.2,0.3,0.2,0.5l0.1,0.2c0.1,0.1,0.2,0.1,0.4,0.2l0.7,0.3
				c0.4,0.2,0.9,0.4,1.4,0.6c0,0,0.1,0,0.1-0.1L52,91.5c0.3-0.1,2.8-0.7,7.1-1.6c-0.4-0.1-0.7-0.1-1.1-0.2c-1-0.2-2-0.5-2.9-0.9
				c-0.5-0.2-0.9-0.4-1.4-0.7c-0.4-0.3-0.9-0.5-1.2-0.9c4.8,1.6,14.6,0.9,23.4-0.1c8-0.8,16-1.4,24.1-1.4c8.1,0,16.1,0.6,24.1,1.4
				c8.8,0.9,18.6,1.6,23.4,0.1c-0.3,0.4-0.8,0.7-1.2,0.9c-0.4,0.2-0.9,0.5-1.4,0.7c-0.9,0.4-1.9,0.7-2.9,0.9c-0.1,0-0.3,0.1-0.4,0.1
				c4.8,0.9,7.5,1.6,7.8,1.7l-1.3,4.8c0.3-0.1,0.5-0.2,0.8-0.3l0.7-0.3c0.1-0.1,0.2-0.1,0.4-0.2l0.1-0.2c0.1-0.2,0.2-0.3,0.2-0.5
				c0.2-0.4,0.3-0.7,0.5-1.1c0.3-0.7,0.5-1.5,0.7-2.3c0.4-1.5,0.7-3.1,0.9-4.7c0.2-1.6,0.3-3.2,0.3-4.8
				C152.8,81.1,152.8,80.3,152.7,79.5z"/>
		</g>
		<g>
			<path class="st2" d="M105.8,146.3c-0.6,0.1-1.3,0.2-1.9,0.2c-0.4,0-0.8,0.1-1.2,0.1l-0.1,0c0.5-1.1,0.9-1.9,1.1-2.6
				C104.3,144.6,105,145.4,105.8,146.3z"/>
		</g>
		<g>
			<path class="st2" d="M107.2,147.7c2,1.9,4.4,3.1,7.1,3.3c-4.5,1.8-8.7,2.5-12,2.7c-3.2,0.2-6.5-0.2-9.8-1.1
				c0.3,0,0.5-0.1,0.7-0.1c0.3,0,6.1-0.8,8.7-4.7l0.2,0l0.6,0c0.4,0,0.8,0,1.2-0.1c1-0.1,1.9-0.2,2.9-0.4
				C107,147.5,107.1,147.6,107.2,147.7z"/>
		</g>
		<g>
			<path class="st3" d="M112.8,89.5c-0.2,0.2-0.4,0.5-0.6,0.8c-1.1,1.5-2.7,3.3-4.6,5.1c-2.2-0.1-4.4-0.1-6.8-0.1
				c-3.8,0-7.5,0.1-11,0.3c4.9-2,10.9-4,17.3-5.2C108.9,90,110.8,89.7,112.8,89.5z"/>
		</g>
		<g>
			<path class="st3" d="M83.9,91.7c-1.8,1.2-3.7,2.8-5.7,4.7c-4.9,0.5-9.2,1.1-12.8,1.7C70.9,95.6,77.1,93.3,83.9,91.7z"/>
		</g>
		<g>
			<path class="st3" d="M144.2,101.9l-2,14l-9.6,6.7l-25.1-2.9l-3.8-12.4c-0.1-0.3-0.3-0.5-0.7-0.6c-0.9-0.2-1.8-0.2-2.4-0.2
				c-0.7,0-1.5,0.1-2.4,0.2c-0.3,0.1-0.6,0.3-0.7,0.6l-3.7,12.1l-24.9,5.6l-9.9-6.9l-1.9-15.8c0.4-0.2,0.9-0.5,1.3-0.7
				c0.6-0.1,1.3-0.3,2.1-0.4l1.8,14.9c0,0.2,0.2,0.4,0.3,0.6l6.8,4.8c0.1,0.1,0.3,0.1,0.5,0.1c0.1,0,0.1,0,0.2,0l20.5-4.6
				c0.1,0,0.1,0,0.2-0.1c0.2-0.1,0.3-0.3,0.4-0.5l3.7-12.2c1-0.3,3.5-0.8,5.8-0.8c2.2,0,4.8,0.6,5.8,0.8l3.7,12.2
				c0.1,0.3,0.4,0.5,0.7,0.6l20.5,2.3c0.2,0,0.4,0,0.6-0.1l6.8-4.8c0.2-0.1,0.3-0.3,0.3-0.6l1.8-12.7
				C142.2,101.5,143.3,101.7,144.2,101.9z"/>
		</g>
		<g>
			<path class="st3" d="M146.8,93.1l-1.8,6.7c-3.6-0.8-11.5-2.4-22.3-3.4c3.5-1.5,7.1-3.4,10.4-5.7
				C139.5,91.6,144.2,92.5,146.8,93.1z"/>
		</g>
		<g>
			<g>
				<path class="st4" d="M74.4,114.1c1.4-0.8,3-0.6,5.5-0.6c0.3,0,0.5,0,0.8,0c0.2,0,0.5,0,0.7,0c2.5,0,4.7,0.2,4.6-3.8
					c0-4-1.8-7.2-4.4-7.2c-2.5,0-5,3.3-4.9,7.3c0,1,0.2,1.8,0.4,2.3C75.1,112.6,74.5,114,74.4,114.1z M105.1,97.6
					c-1,0.8-2,1.5-3.1,2.2l-3.6,2.2c-2.3,0.3-4.2,0.8-4.3,0.9c-0.1,0-0.1,0-0.2,0.1c-0.2,0.1-0.3,0.3-0.4,0.5l-3.7,12.1l-19.7,4.4
					l-6.2-4.3L62,101c3.5-0.6,8.2-1.4,13.9-2c-0.6,0.7-1.2,1.5-1.8,2.3l-3.4,4.8l4.9-3.3c0.1-0.1,3.2-2.1,8.3-4.6
					c5.1-0.4,10.7-0.6,16.7-0.6C102.2,97.6,103.7,97.6,105.1,97.6z"/>
			</g>
			<g>
				<path class="st4" d="M126.6,112.4c0-0.1-0.6-1.7-2.9-1.4c0.3-0.6,0.4-1.4,0.3-2.5c-0.3-4-2.6-7.2-5.2-7.1
					c-2.5,0.1-4.2,3.4-4,7.4c0.1,4,2.3,4,4.8,3.9C123,112.7,124.9,111.6,126.6,112.4z M139.2,100.9l-1.8,12.4l-6.3,4.4l-19.7-2.2
					l-3.7-12.1c-0.1-0.3-0.3-0.5-0.6-0.6c-0.1,0-2.6-0.7-5.1-1l0.5,0c0.4,0,7.2-0.9,15.3-3.7C126.9,98.9,134.2,100,139.2,100.9z"/>
			</g>
		</g>
		<g>
			<g>
				<path class="st5" d="M74.4,114.1c1.4-0.8,3-0.6,5.5-0.6c0.3,0,0.5,0,0.8,0c0.2,0,0.5,0,0.7,0c2.5,0,4.7,0.2,4.6-3.8
					c0-4-1.8-7.2-4.4-7.2c-2.5,0-5,3.3-4.9,7.3c0,1,0.2,1.8,0.4,2.3C75.1,112.6,74.5,114,74.4,114.1z M105.1,97.6
					c-1,0.8-2,1.5-3.1,2.2l-3.6,2.2c-2.3,0.3-4.2,0.8-4.3,0.9c-0.1,0-0.1,0-0.2,0.1c-0.2,0.1-0.3,0.3-0.4,0.5l-3.7,12.1l-19.7,4.4
					l-6.2-4.3L62,101c3.5-0.6,8.2-1.4,13.9-2c-0.6,0.7-1.2,1.5-1.8,2.3l-3.4,4.8l4.9-3.3c0.1-0.1,3.2-2.1,8.3-4.6
					c5.1-0.4,10.7-0.6,16.7-0.6C102.2,97.6,103.7,97.6,105.1,97.6z"/>
			</g>
			<g>
				<path class="st5" d="M126.6,112.4c0-0.1-0.6-1.7-2.9-1.4c0.3-0.6,0.4-1.4,0.3-2.5c-0.3-4-2.6-7.2-5.2-7.1
					c-2.5,0.1-4.2,3.4-4,7.4c0.1,4,2.3,4,4.8,3.9C123,112.7,124.9,111.6,126.6,112.4z M139.2,100.9l-1.8,12.4l-6.3,4.4l-19.7-2.2
					l-3.7-12.1c-0.1-0.3-0.3-0.5-0.6-0.6c-0.1,0-2.6-0.7-5.1-1l0.5,0c0.4,0,7.2-0.9,15.3-3.7C126.9,98.9,134.2,100,139.2,100.9z"/>
			</g>
		</g>
		<g>
			<path class="st2" d="M147.8,106.4c0.3,0.2,0.5,0.9,0.3,3.9c-0.3,3.7-1.9,10.1-2.8,11.2c-1.1,0.2-3.3,0-4.6-0.4
				c0.2-0.9,0.3-1.4,0.5-2.3l2.4-1.7c0.2-0.1,0.3-0.3,0.3-0.6l1.6-11.5C146.4,105.6,147.5,106.2,147.8,106.4z"/>
		</g>
		<g>
			<path class="st2" d="M60.8,121.5c0.1,0.4,0.2,0.8,0.4,1.2c-1.3,0.4-3.9,0.7-5,0.5c-1-1-2.8-7.7-3.2-11.3
				c-0.3-2.9-0.1-3.5,0.2-3.8c0.3-0.3,1.6-1,2.7-1.6l1.5,12.1c0,0.2,0.2,0.4,0.3,0.6L60.8,121.5z"/>
		</g>
		<g>
			<path class="st2" d="M108.5,121.7l-0.1,0.8c0,0-2.7,2.5-7.1,3.1c-4.4,0.6-7.8-2.1-7.8-2.1c0.1,0.5,0.3,1.5,1.3,2.4
				c-1.2-0.1-2.4-0.2-3.7-0.2c-0.5,0-1,0-1.4,0c-2.7,0.1-6.5,4.2-9.1,8.3c-1.3,0.4-5.4,1.7-10.1,3.1c-4.4-6.1-6.6-12.4-6.8-13l0,0
				c-0.1-0.2-0.2-0.5-0.3-0.8l1.1,0.8v0l2.8,2l0.9,0.7c0.1,0.1,0.3,0.2,0.5,0.2c0.1,0,0.1,0,0.2,0l25.8-5.7c0.3-0.1,0.5-0.3,0.6-0.6
				l3.7-12.1c0.6-0.1,1.2-0.1,1.7-0.1c0.5,0,1,0,1.7,0.1l3.8,12.5c0.1,0.3,0.4,0.5,0.7,0.6L108.5,121.7z"/>
		</g>
		<g>
			<path class="st2" d="M138,121l0.8-0.6c-0.1,0.6-0.3,1.2-0.4,1.7c-1.2,3.7-2.5,7-4,9.9c-0.3,0-0.7,0-1.1,0c-1.2,0-2.4-0.1-3.7-0.2
				c-2.3-0.2-5.9-0.6-7.1-0.8c-1-0.8-4.4-3.5-7.2-5.7c-0.1-0.1-0.2-0.2-0.3-0.2c-0.5-0.4-1.1-0.9-2.2-0.9c-1,0-2.6,0.4-6.2,1.5
				c1.9-1.4,1.9-3.3,1.9-3.3l0.1-0.8l24.2,2.7c0.2,0,0.4,0,0.6-0.1l2.4-1.7L138,121z"/>
		</g>
		<g>
			<path class="st6" d="M120.2,70.1c0.1,2.2,0,6-1,9.7c0,0.1,0,0.3,0,0.4c-1.3-0.1-2.5-0.2-3.8-0.4c1.4-3,1.7-6.2,1.8-7.3
				C118.3,71.8,119.4,70.8,120.2,70.1z"/>
		</g>
		<g>
			<path class="st6" d="M83.7,72.6c0.1,1.1,0.4,4.3,1.8,7.3c-1.3,0.1-2.5,0.2-3.8,0.4c0-0.1,0-0.3,0-0.4c-1-3.6-1.1-7.5-1-9.7
				C81.5,70.8,82.6,71.8,83.7,72.6z"/>
		</g>
		<g>
			<path class="st7" d="M126.6,112.4c-1.7-0.8-3.6,0.2-7,0.3c-2.5,0.1-4.7,0.1-4.8-3.9c-0.1-4,1.5-7.3,4-7.4
				c2.5-0.1,4.9,3.1,5.2,7.1c0.1,1.1,0,1.9-0.3,2.5C126.1,110.7,126.6,112.3,126.6,112.4z M118.6,106.6c0.7,0,1.3-0.6,1.3-1.3
				c0-0.7-0.6-1.3-1.3-1.3c-0.7,0-1.3,0.6-1.3,1.3C117.3,106,117.9,106.6,118.6,106.6z"/>
		</g>
		<g>
			<path class="st8" d="M119.9,105.3c0,0.7-0.6,1.3-1.3,1.3c-0.7,0-1.3-0.6-1.3-1.3c0-0.7,0.6-1.3,1.3-1.3
				C119.3,104,119.9,104.5,119.9,105.3z"/>
		</g>
		<g>
			<path class="st7" d="M86.1,109.6c0,4-2.1,3.8-4.6,3.8c-0.3,0-0.5,0-0.7,0c-0.3,0-0.6,0-0.8,0c-2.5,0-4.1-0.1-5.5,0.6
				c0-0.1,0.6-1.5,2.9-2c-0.2-0.5-0.4-1.3-0.4-2.3c-0.2-4,2.3-7.3,4.9-7.3C84.3,102.4,86,105.6,86.1,109.6z M82.1,107.5
				c0.7,0,1.3-0.6,1.3-1.3c0-0.7-0.6-1.3-1.3-1.3c-0.7,0-1.3,0.6-1.3,1.3C80.8,107,81.4,107.6,82.1,107.5z"/>
		</g>
		<g>
			<circle class="st8" cx="82.1" cy="106.2" r="1.3"/>
		</g>
		<g class="st9">
			<g>
				<path class="st6" d="M66.6,82.5c0,0,0.4-5.2,1.2-7.1c0.4-1,3-1.7,4.9-2.1c1.9-0.5,5-1.4,5.7,1.3c0.6,2.7,1.6,4.7,2.2,5.6
					l-0.8-11.3l-13.4,3.2l-0.9,10l0.4,0.8L66.6,82.5"/>
			</g>
			<g>
				<path class="st6" d="M134.4,82.5c0,0-0.4-5.2-1.2-7.1c-0.4-1-3-1.7-4.9-2.1c-1.9-0.5-5-1.4-5.7,1.3c-0.6,2.7-1.6,4.7-2.2,5.6
					l0.8-11.3l13.4,3.2l0.9,10l-0.4,0.8L134.4,82.5"/>
			</g>
		</g>
		<g class="st10">
			<path class="st6" d="M115.4,48.8c0,0-0.4,27-6.7,27c-6.3,0-7.6,0-7.6,0H100c0,0-1.3,0-7.6,0s-6.8-27-6.8-27L82.5,58l0.1,12.6
				l2.2,1.7l1,5.4l1.4,3.1l27,0.1l1.2-2.2l1-3.8l0.2-2.4l3-8.5L115.4,48.8z"/>
		</g>
		<g class="st10">
			<path class="st6" d="M135.3,73.9c0,0,1.3,9.3,4.7,11c3.4,1.7,0,0,0,0l-4.8-1.4L135.3,73.9z"/>
		</g>
		<g class="st10">
			<path class="st6" d="M65.6,73.9c0,0-1.3,9.3-4.7,11c-3.4,1.7,0,0,0,0l4.8-1.4L65.6,73.9z"/>
		</g>
		<g>
			<path class="st7" d="M136.2,83.4c1.6,0.5,3.3,1.1,4.8,2c-0.8-0.3-1.6-0.5-2.4-0.7c-0.8-0.2-1.7-0.4-2.5-0.5
				c-1.7-0.3-3.4-0.6-5-0.8c-1.7-0.2-3.4-0.4-5.1-0.5c-1.7-0.1-3.4-0.3-5.1-0.4c-6.8-0.4-13.6-0.5-20.4-0.5
				c-6.8,0-13.6,0.1-20.4,0.5c-1.7,0.1-3.4,0.2-5.1,0.4c-1.7,0.1-3.4,0.3-5.1,0.5c-1.7,0.2-3.4,0.5-5,0.8c-0.8,0.2-1.7,0.3-2.5,0.5
				c-0.8,0.2-1.7,0.4-2.4,0.7c1.5-0.9,3.1-1.4,4.8-2c0.1,0,0.3-0.1,0.4-0.1c0,0,0-0.1,0-0.1c0-0.2-0.6-4.7,0.4-11.1
				c0.1-0.3,0.3-0.6,0.6-0.6l1.7-0.5c0.4-13.4,5.9-19.7,6.1-19.9C68.9,59,68.9,68.5,69,70.7l10.8-3.1c0,0,0,0,0,0c0,0,0.1,0,0.1,0
				c0,0,0,0,0,0c0.1,0,0.1,0,0.2,0c0,0,0,0,0,0c0,0,0.1,0,0.1,0c0,0,0,0,0.1,0c0,0,0.1,0,0.1,0.1c0,0,0,0,0,0c0,0,0,0,0,0
				c0,0,0,0,0,0c0,0,0.3,0.3,0.7,0.7c-0.1-3.5,0.1-13.7,4.9-22.1c-0.1,0.3-3.9,11.5-2.6,24.1c0.4,0.3,0.9,0.7,1.3,1
				c0.2,0.1,0.3,0.4,0.3,0.6c0,0,0.1,4.1,1.9,7.5c0,0.1,0,0.1,0.1,0.2c4.4-0.3,8.8-0.4,13.2-0.4c4.4,0,8.8,0.1,13.2,0.4
				c0-0.1,0-0.1,0.1-0.2c1.8-3.4,1.9-7.4,1.9-7.5c0-0.3,0.1-0.5,0.4-0.6c0.4-0.3,0.9-0.6,1.3-1c1.3-12.6-2.5-23.8-2.6-24.1
				c4.8,8.4,5,18.6,4.9,22.1c0.5-0.4,0.7-0.7,0.7-0.7c0,0,0,0,0,0c0,0,0,0,0,0c0,0,0,0,0,0c0,0,0.1,0,0.1-0.1c0,0,0,0,0,0
				c0,0,0.1,0,0.1,0c0,0,0,0,0,0c0.1,0,0.1,0,0.2,0c0,0,0,0,0,0c0,0,0.1,0,0.1,0c0,0,0,0,0,0l10.8,3.1c0.1-2.2,0.1-11.6-4.8-19.6
				c0.2,0.2,5.7,6.5,6.1,19.9l1.7,0.5c0.3,0.1,0.5,0.3,0.6,0.6c1.1,6.4,0.4,10.9,0.4,11.1c0,0,0,0.1,0,0.1
				C135.9,83.4,136.1,83.4,136.2,83.4z M134.3,82.9c0.1-0.7,0.5-4.6-0.4-10l-12.2-3.5c0.1,2.1,0.2,6.5-1,10.8c0,0.1,0,0.1-0.1,0.2
				c0.1,0,0.2,0,0.4,0c3.4,0.4,6.8,0.9,10.2,1.7C132.2,82.3,133.3,82.6,134.3,82.9z M119.2,79.8c1-3.6,1.1-7.5,1-9.7
				c-0.8,0.7-1.9,1.7-3,2.4c-0.1,1.1-0.4,4.3-1.8,7.3c1.3,0.1,2.6,0.2,3.8,0.4C119.1,80.1,119.1,80,119.2,79.8z M85.5,79.9
				c-1.4-3-1.7-6.2-1.8-7.3c-1.1-0.8-2.2-1.7-3-2.4c-0.1,2.2,0,6.1,1,9.7c0,0.1,0,0.3,0,0.4C82.9,80.1,84.2,80,85.5,79.9z
				 M80.2,80.4c0,0,0-0.1-0.1-0.1c-1.2-4.3-1.1-8.7-1-10.8l-12.2,3.5c-0.8,5.3-0.4,9.2-0.4,10c1-0.3,2-0.5,3-0.8
				c1.7-0.4,3.4-0.7,5.1-1c1.7-0.3,3.4-0.5,5.1-0.7C80,80.4,80.1,80.4,80.2,80.4z"/>
		</g>
		<g id="XMLID_2_">
			<g>
				<path class="st7" d="M113.2,49.1v10.1h-7.2v-3h-1.6v13.6h2.4v7.6H94.4v-7.6h2.4V56.3h-1.6v3H88V49.1H113.2z M111.1,57.1v-5.8
					H108h-5.7H90.2v5.8h2.9v-3H99v17.9h-2.4v3.3h8.2v-3.3h-2.4V54.2h5.9v3H111.1z"/>
				<polygon class="st0" points="111.1,51.3 111.1,57.1 108.2,57.1 108.2,54.2 102.3,54.2 102.3,72.1 104.8,72.1 104.8,75.4 
					96.5,75.4 96.5,72.1 99,72.1 99,54.2 93.1,54.2 93.1,57.1 90.2,57.1 90.2,51.3 102.3,51.3 108,51.3 				"/>
			</g>
		</g>
		<g>
			<path class="st3" d="M54.8,93.1c1-0.2,2.5-0.5,4.2-0.9c-1.1,0.7-2.3,1.6-3.7,2.7L54.8,93.1z"/>
		</g>
		<g>
			<path class="st5" d="M93,120.8c0,0,0.3,1.9-2.3,2.7c-2.6,0.8-19.3,5.8-21.2,5.5c-1.9-0.3-6.7-3.5-6.7-3.5l-1.2-4.2l7.1,4.4
				L93,120.8z"/>
		</g>
		<g>
			<path class="st5" d="M107.9,120.4c0,0-0.2,1.9,2.5,2.6c2.7,0.7,19.5,4.9,21.4,4.6c1.9-0.4,6.6-3.8,6.6-3.8l1-4.2l-6.6,3.9
				L107.9,120.4z"/>
		</g>
		<g>
			<path class="st5" d="M53.4,117.4c0,0,2.3,4.6,6,3l2.7,1l-0.3,2l-5.6,0.7l-1.5-0.9L53.4,117.4z"/>
		</g>
		<g>
			<path class="st5" d="M147.8,116.1c0,0-3.8,4.8-7.5,3.2l-1.2,0.8l0.3,2l5.6,0.7l1.5-0.9L147.8,116.1z"/>
		</g>
		<g>
			<path class="st5" d="M89.5,152.3c0,0,13.7,6.9,29.1-2.5l-5-0.3c0,0-10.8,4.3-19.4,1.9L89.5,152.3z"/>
		</g>
		<g>
			<path class="st7" d="M103.4,139.6l0.9,1.1c0,0,2.1,2.5,4.7,5.1c1.7,1.7,3.8,2.5,6.1,2.5c0.8,0,1.7-0.1,2.5-0.3
				c0.8-0.2,1.7-0.4,2.5-0.6c3.2-0.8,6.8-1.6,8.6-2.1c0.3-0.1,0.7-0.2,1.1-0.3c2.3-0.5,5.5-1.3,7.2-4.7c1.3-2.5,3-5.9,4.3-8.3
				c-1.1,0.5-2.3,1.1-3.1,1.5c-1.3,0.7-2.9,1-5.1,1c-1.3,0-2.5-0.1-3.9-0.2c-2.8-0.3-7.5-0.8-7.5-0.8l-0.4,0l-0.3-0.2
				c0,0-4.2-3.3-7.5-5.9c-0.1-0.1-0.3-0.2-0.4-0.3c-0.3-0.3-0.3-0.3-0.6-0.3c-1.1,0-4.2,1-11,3.1l-0.4,0.1l-0.4-0.2
				c0,0-4.5-1.7-9.8-1.7c-0.4,0-0.9,0-1.3,0c-0.5,0-3.5,1.5-7.4,7.5l-0.2,0.4l-0.4,0.1c-0.1,0-6.7,2.2-13.7,4.2l-0.5,0.1l-0.4-0.2
				c0,0-2.8-1.3-5.4-2.5c1.4,2.1,3.2,4.7,4.8,6.8c2.8,3.6,6.3,6.9,13.1,6.9c0.8,0,1.7-0.1,2.7-0.2c6.9-0.8,8.6-1.1,9.6-1.3
				c0.3-0.1,0.6-0.1,0.9-0.1c0.1,0,5.7-0.7,7.3-4.3c1.6-3.6,2-4.5,2-4.5l0.6-1.5c0,0,0.1-0.4,0.2-0.5c0,0,0,0,0,0l0,0
				C103.1,139.2,103.4,139.6,103.4,139.6z M60.6,70.9c-1.5,0.6-3,1.2-4.4,1.9c-1.5,0.7-2.9,1.4-4.2,2.2c-1.3,0.7-2.5,1.5-3.5,2.4
				c0,0.3-0.1,0.6-0.1,0.8c0,0.4-0.1,0.8-0.1,1.2c-0.1,0.8-0.1,1.6-0.1,2.4c0,1.6,0.1,3.2,0.3,4.8c0.2,1.6,0.5,3.2,0.9,4.7
				c0.2,0.8,0.5,1.5,0.7,2.3c0.1,0.4,0.3,0.7,0.5,1.1c0.1,0.2,0.2,0.3,0.2,0.5l0.1,0.2c0.1,0.1,0.2,0.1,0.4,0.2l0.7,0.3
				c0.4,0.2,0.9,0.4,1.4,0.6c0,0,0.1,0,0.1-0.1L52,91.5c0.3-0.1,2.8-0.7,7.1-1.6c-0.4-0.1-0.7-0.1-1.1-0.2c-1-0.2-2-0.5-2.9-0.9
				c-0.5-0.2-0.9-0.4-1.4-0.7c-0.4-0.3-0.9-0.5-1.2-0.9c4.8,1.6,14.6,0.9,23.4-0.1c8-0.8,16-1.4,24.1-1.4c8.1,0,16.1,0.6,24.1,1.4
				c8.8,0.9,18.6,1.6,23.4,0.1c-0.3,0.4-0.8,0.7-1.2,0.9c-0.4,0.2-0.9,0.5-1.4,0.7c-0.9,0.4-1.9,0.7-2.9,0.9c-0.1,0-0.3,0.1-0.4,0.1
				c4.8,0.9,7.5,1.6,7.8,1.7l-1.3,4.8c0.3-0.1,0.5-0.2,0.8-0.3l0.7-0.3c0.1-0.1,0.2-0.1,0.4-0.2l0.1-0.2c0.1-0.2,0.2-0.3,0.2-0.5
				c0.2-0.4,0.3-0.7,0.5-1.1c0.3-0.7,0.5-1.5,0.7-2.3c0.4-1.5,0.7-3.1,0.9-4.7c0.2-1.6,0.3-3.2,0.3-4.8c0-0.8,0-1.6-0.1-2.4
				c0-0.4-0.1-0.8-0.1-1.2c0-0.3-0.1-0.6-0.1-0.8c-1.1-0.9-2.3-1.7-3.5-2.4c-1.4-0.8-2.8-1.5-4.2-2.2c-1.4-0.7-2.9-1.3-4.4-1.9
				c-0.7-0.3-1.5-0.6-2.3-0.9c-0.8-0.3-1.5-0.6-2.3-0.8c1.6,0.3,3.2,0.6,4.8,1c1,0.3,2,0.6,3.1,0.9c-7.2-18.8-24.4-31-43.1-31
				c-18.8,0-35.9,12.2-43.1,31c1-0.3,2-0.6,3-0.9c1.6-0.4,3.2-0.8,4.8-1c-0.8,0.3-1.5,0.6-2.3,0.8C62.1,70.3,61.3,70.6,60.6,70.9z
				 M155.2,81.8c0.1,1.7,0,3.5-0.2,5.2c-0.2,1.7-0.5,3.4-1,5.1c-0.2,0.8-0.5,1.7-0.8,2.5c-0.2,0.4-0.3,0.8-0.5,1.2
				c-0.1,0.2-0.2,0.4-0.3,0.6l-0.2,0.3c-0.1,0.1-0.1,0.2-0.2,0.3l-0.2,0.3l-0.3,0.1c-0.3,0.2-0.5,0.3-0.8,0.4l-0.8,0.3
				c-0.5,0.2-1,0.4-1.6,0.6c-0.4,0.1-0.7,0.3-1,0.4l-0.9,3.3c0,0-0.3-0.1-0.8-0.2l0,0.3c0.9,0.5,2.8,1.5,3.4,2
				c1.3,1.1,1.4,2.7,1.1,5.8c-0.1,1.6-0.7,4.7-1.4,7.6c-1.3,4.9-1.9,5.5-2.8,5.7c-0.4,0.1-1.1,0.2-1.8,0.2c-1.3,0-3.2,0-4.4-0.3
				c-0.3,1.1-1.2,4-3,7.7c0.1,0,0.2-0.1,0.3-0.1c2.2-1.2,6.4-3,6.6-3.1l3.3-1.5l-1.7,3.2c0,0.1-3.7,7-6,11.5c-2.2,4.5-6.4,5.4-8.9,6
				c-0.4,0.1-0.7,0.2-1,0.3c-1.8,0.5-5.4,1.4-8.7,2.1c0,0-0.1,0-0.1,0c-2,1.2-4.1,2.3-6.5,3.2c-8.6,3.3-17.8,3.1-26,0.1
				c-1.3,0.2-3.1,0.4-5.5,0.7c-1,0.1-2,0.2-3,0.2c-7.9,0-12-4-15.1-7.9c-3.3-4.2-7.2-10.4-7.4-10.7l-2.3-3.6l3.9,1.8
				c1.9,0.8,7.4,3.4,9,4.2c0.1,0,0.3-0.1,0.4-0.1c-2.6-3.8-4.8-8.1-6.3-12.8c-1.3,0.4-3.3,0.7-4.9,0.7c-0.6,0-1.1,0-1.5-0.1
				c-0.9-0.2-1.9-1-3.2-5.8c-0.8-2.8-1.4-5.8-1.5-7.3c-0.3-3-0.3-4.7,1-5.7c0.8-0.6,3.3-2,3.9-2.3l-0.1-0.9c-8.2,4.8-13,9-13.1,9.1
				l-5.8,5.1l4.2-6.6c3.3-5.2,7.1-9.4,10.6-12.6c-0.1-0.1-0.3-0.1-0.4-0.2l-0.8-0.3c-0.3-0.1-0.5-0.2-0.8-0.4L49,97.3l-0.2-0.3
				c-0.1-0.1-0.1-0.2-0.2-0.3l-0.2-0.3c-0.1-0.2-0.2-0.4-0.3-0.6c-0.2-0.4-0.4-0.8-0.5-1.2c-0.3-0.8-0.6-1.7-0.8-2.5
				c-0.5-1.7-0.8-3.4-1-5.1c-0.2-1.7-0.2-3.5-0.2-5.2c0-0.9,0.1-1.7,0.2-2.6c0.1-0.4,0.1-0.9,0.2-1.3c0.1-0.4,0.2-0.8,0.3-1.3
				l0.1-0.3l0.2-0.2c1.4-1.1,2.8-1.9,4.3-2.6c1.2-0.6,2.5-1.1,3.7-1.6c3.5-9.8,9.6-18.5,17.6-24.5c8.2-6.3,17.9-9.6,28-9.6
				c10.1,0,19.8,3.3,28,9.6c8,6,14,14.7,17.6,24.5c1.3,0.5,2.5,1,3.7,1.6c1.5,0.7,3,1.5,4.3,2.6l0.2,0.2l0.1,0.3
				c0.1,0.5,0.2,0.9,0.3,1.3c0.1,0.4,0.2,0.9,0.2,1.3C155,80.1,155.1,80.9,155.2,81.8z M148,110.3c0.3-3,0-3.6-0.3-3.9
				c-0.3-0.3-1.3-0.8-2.3-1.4l-1.6,11.5c0,0.2-0.2,0.4-0.3,0.6l-2.4,1.7c-0.2,0.9-0.3,1.4-0.5,2.3c1.3,0.3,3.6,0.6,4.6,0.4
				C146.2,120.4,147.7,114,148,110.3z M145,99.8l1.8-6.7c-2.6-0.6-7.3-1.6-13.7-2.5c-3.3,2.4-6.9,4.2-10.4,5.8
				C133.4,97.5,141.4,99,145,99.8z M142.2,116l2-14c-0.9-0.2-2-0.4-3.4-0.7L139,114c0,0.2-0.2,0.4-0.3,0.6l-6.8,4.8
				c-0.2,0.1-0.4,0.2-0.6,0.1l-20.5-2.3c-0.3,0-0.6-0.3-0.7-0.6l-3.7-12.2c-1-0.3-3.5-0.8-5.8-0.8c-2.2,0-4.8,0.6-5.8,0.8l-3.7,12.2
				c-0.1,0.2-0.2,0.4-0.4,0.5c-0.1,0-0.1,0.1-0.2,0.1l-20.5,4.6c-0.1,0-0.1,0-0.2,0c-0.2,0-0.3,0-0.5-0.1l-6.8-4.8
				c-0.2-0.1-0.3-0.3-0.3-0.6l-1.8-14.9c-0.8,0.1-1.4,0.3-2.1,0.4c-0.4,0.2-0.9,0.5-1.3,0.7l1.9,15.8l9.9,6.9l24.9-5.6l3.7-12.1
				c0.1-0.3,0.3-0.5,0.7-0.6c0.9-0.2,1.8-0.2,2.4-0.2c0.7,0,1.5,0.1,2.4,0.2c0.3,0,0.6,0.3,0.7,0.6l3.8,12.4l25.1,2.9L142.2,116z
				 M137.4,113.4l1.8-12.4c-5-0.9-12.3-2-21.3-2.7c-8.1,2.8-14.9,3.6-15.3,3.7l-0.5,0c2.6,0.2,5,0.9,5.1,1c0.3,0.1,0.5,0.3,0.6,0.6
				l3.7,12.1l19.7,2.2L137.4,113.4z M138.8,120.4L138,121l-2.2,1.6l-2.4,1.7c-0.2,0.1-0.4,0.2-0.6,0.1l-24.2-2.7l-1.8-0.2
				c-0.3,0-0.6-0.3-0.7-0.6l-3.8-12.5c-0.6-0.1-1.2-0.1-1.7-0.1c-0.5,0-1,0-1.7,0.1l-3.7,12.1c-0.1,0.3-0.3,0.5-0.6,0.6l-25.8,5.7
				c-0.1,0-0.1,0-0.2,0c-0.2,0-0.3,0-0.5-0.1l-0.9-0.7l-2.8-2v0l-1.1-0.8c0.1,0.3,0.2,0.5,0.3,0.8l0,0c0.2,0.6,2.4,6.9,6.8,13
				c4.7-1.4,8.8-2.7,10.1-3.1c2.7-4.1,6.5-8.2,9.1-8.3c0.5,0,0.9,0,1.4,0c1.3,0,2.6,0.1,3.7,0.2c-1-0.9-1.2-2-1.3-2.4
				c0,0,3.4,2.7,7.8,2.1c4.4-0.6,7.1-3.1,7.1-3.1s0,1.8-1.9,3.3c3.7-1.1,5.2-1.5,6.2-1.5c1.1,0,1.7,0.5,2.2,0.9
				c0.1,0.1,0.2,0.2,0.3,0.2c2.8,2.2,6.2,4.9,7.2,5.7c1.1,0.1,4.8,0.5,7.1,0.8c1.3,0.1,2.5,0.2,3.7,0.2c0.4,0,0.7,0,1.1,0
				c1.5-2.9,2.9-6.2,4-9.9C138.5,121.5,138.7,121,138.8,120.4z M129.9,89.8C129.9,89.8,129.9,89.8,129.9,89.8
				c-2-0.2-3.9-0.3-5.8-0.4c-2.7-0.2-5.4-0.3-8.1-0.4c-0.2,0.2-0.5,0.7-0.9,1.3c-1.5,2-4.4,5.6-8.1,8.7c5.3-0.9,14.5-3.3,22.4-8.8
				C129.5,90.1,129.7,89.9,129.9,89.8z M112.1,90.3c0.2-0.3,0.4-0.5,0.6-0.8c-1.9,0.2-3.9,0.5-5.7,0.8c-6.4,1.2-12.3,3.2-17.3,5.2
				c3.5-0.2,7.2-0.3,11-0.3c2.3,0,4.6,0,6.8,0.1C109.4,93.6,111,91.8,112.1,90.3z M114.3,150.9c-2.7-0.2-5.1-1.3-7.1-3.2
				c-0.1-0.1-0.2-0.2-0.3-0.3c-0.9,0.2-1.9,0.3-2.9,0.4c-0.4,0-0.8,0.1-1.2,0.1l-0.6,0l-0.2,0c-2.6,3.9-8.4,4.6-8.7,4.7
				c-0.2,0-0.4,0.1-0.7,0.1c3.2,0.9,6.5,1.3,9.8,1.1C105.5,153.4,109.8,152.7,114.3,150.9z M103.9,146.5c0.6,0,1.3-0.1,1.9-0.2
				c-0.8-0.9-1.5-1.6-2.1-2.3c-0.3,0.6-0.7,1.5-1.1,2.6h0.1C103.1,146.5,103.5,146.5,103.9,146.5z M102,99.8
				c1.1-0.7,2.1-1.4,3.1-2.2c-1.4,0-2.9,0-4.3,0c-6,0-11.6,0.2-16.7,0.6c-5.1,2.5-8.2,4.6-8.3,4.6l-4.9,3.3l3.4-4.8
				c0.6-0.8,1.1-1.6,1.8-2.3c-5.7,0.6-10.4,1.4-13.9,2l1.8,14.6l6.2,4.3l19.7-4.4l3.7-12.1c0.1-0.2,0.2-0.4,0.4-0.5
				c0.1,0,0.1-0.1,0.2-0.1c0.1,0,2.1-0.6,4.4-0.9L102,99.8z M104.2,88.7c-1.4,0-2.7,0-4.1,0h0c-2,0-4,0-6,0.1l-3.7,1.8
				c0,0,0,0-0.1,0c-0.6,0.3-5.4,2.7-10,7.1c4.1-2.2,10.2-5,17.3-7.2C99.7,89.8,101.9,89.2,104.2,88.7z M78.2,96.5
				c1.9-1.9,3.9-3.5,5.7-4.7c-6.8,1.6-13,3.9-18.5,6.4C69,97.6,73.3,97,78.2,96.5z M79.5,90.6c2.3-0.6,4.6-1.2,7-1.7
				c-3.4,0.1-6.9,0.3-10.3,0.5c-2,0.1-4,0.2-6,0.4c-1,0.1-2,0.2-3,0.3c-0.3,0-0.6,0.1-0.8,0.1c-2.6,1.6-12.5,7.8-19.4,16
				C53.7,101.5,65.2,94.6,79.5,90.6z M61.2,122.7c-0.1-0.4-0.3-0.8-0.4-1.2l-3.1-2.1c-0.2-0.1-0.3-0.3-0.3-0.6l-1.5-12.1
				c-1.1,0.6-2.4,1.3-2.7,1.6c-0.3,0.2-0.5,0.9-0.2,3.8c0.4,3.6,2.2,10.3,3.2,11.3C57.3,123.5,59.9,123.1,61.2,122.7z M58.9,92.3
				c-1.7,0.3-3.1,0.6-4.2,0.9l0.5,1.9C56.6,93.9,57.9,93,58.9,92.3z"/>
		</g>
	</g>
</g>
<g>
	<path class="st11" d="M451.2,192.5H0.2V0.6h451V192.5z M1.2,191.5h449V1.6H1.2V191.5z"/>
</g>
<g>
	<polygon class="st11" points="427.7,123.1 422.5,123.1 422.5,122.1 426.7,122.1 426.7,86.9 422.5,86.9 422.5,85.9 427.7,85.9 	"/>
</g>
<g>
	<polygon class="st11" points="427.7,192.5 422.5,192.5 422.5,191.5 426.7,191.5 426.7,156.3 422.5,156.3 422.5,155.3 427.7,155.3 	
		"/>
</g>
<g>
	<g>
		<path class="st12" d="M434.8,103.7l-2.7-4.7h0.7l1.6,2.9c0.3,0.4,0.5,0.8,0.8,1.3h0.1c0.3-0.5,0.5-0.9,0.7-1.3l1.6-2.9h0.7
			l-2.7,4.7l2.9,5h-0.7l-1.7-3c-0.3-0.5-0.5-1-0.9-1.5h-0.1c-0.3,0.6-0.6,1.1-0.8,1.5l-1.7,3h-0.7L434.8,103.7z"/>
	</g>
</g>
<g>
	<g>
		<path class="st12" d="M434.8,173.2l-2.7-4.7h0.7l1.6,2.9c0.3,0.4,0.5,0.8,0.8,1.3h0.1c0.3-0.5,0.5-0.9,0.7-1.3l1.6-2.9h0.7
			l-2.7,4.7l2.9,5h-0.7l-1.7-3c-0.3-0.5-0.5-1-0.9-1.5h-0.1c-0.3,0.6-0.6,1.1-0.8,1.5l-1.7,3h-0.7L434.8,173.2z"/>
	</g>
</g>
<g>
	<polygon class="st11" points="174,34.3 173,34.3 173,30.1 155.9,30.1 155.9,34.3 154.9,34.3 154.9,29.1 174,29.1 	"/>
</g>
<g>
	<g>
		<path class="st13" d="M155.2,23.4c0.3,0,0.6,0.2,0.6,0.7c0,0.4-0.3,0.7-0.6,0.7s-0.6-0.2-0.6-0.7
			C154.6,23.7,154.9,23.4,155.2,23.4z"/>
	</g>
	<g>
		<path class="st13" d="M157.6,23c0.6,0.6,1.3,1.1,2.6,1.1c1.3,0,2.3-1,2.3-2.5c0-1.5-0.9-2.4-2.3-2.4c-0.7,0-1.2,0.2-1.8,0.6
			l-0.5-0.3l0.3-4.4h4.3v0.6h-3.8l-0.3,3.4c0.5-0.3,1-0.5,1.7-0.5c1.6,0,2.9,0.9,2.9,3c0,2-1.5,3.1-3,3.1c-1.5,0-2.4-0.7-3-1.3
			L157.6,23z"/>
	</g>
	<g>
		<path class="st13" d="M169.9,19.6l-2.7-4.7h0.7l1.6,2.9c0.3,0.4,0.5,0.8,0.8,1.3h0.1c0.3-0.5,0.5-0.9,0.7-1.3l1.6-2.9h0.7
			l-2.7,4.7l2.9,5h-0.7l-1.7-3c-0.3-0.5-0.5-1-0.9-1.5h-0.1c-0.3,0.6-0.6,1.1-0.8,1.5l-1.7,3H167L169.9,19.6z"/>
	</g>
</g>
<g>
	<g>
		<path class="st13" d="M434.8,103.7l-2.7-4.7h0.7l1.6,2.9c0.3,0.4,0.5,0.8,0.8,1.3h0.1c0.3-0.5,0.5-0.9,0.7-1.3l1.6-2.9h0.7
			l-2.7,4.7l2.9,5h-0.7l-1.7-3c-0.3-0.5-0.5-1-0.9-1.5h-0.1c-0.3,0.6-0.6,1.1-0.8,1.5l-1.7,3h-0.7L434.8,103.7z"/>
	</g>
</g>
<g>
	<g>
		<path class="st13" d="M434.8,173.2l-2.7-4.7h0.7l1.6,2.9c0.3,0.4,0.5,0.8,0.8,1.3h0.1c0.3-0.5,0.5-0.9,0.7-1.3l1.6-2.9h0.7
			l-2.7,4.7l2.9,5h-0.7l-1.7-3c-0.3-0.5-0.5-1-0.9-1.5h-0.1c-0.3,0.6-0.6,1.1-0.8,1.5l-1.7,3h-0.7L434.8,173.2z"/>
	</g>
</g>
<g>
	<g>
		<rect x="173.2" y="37.8" class="st14" width="1" height="0.5"/>
	</g>
	<g>
		<path class="st14" d="M174.2,153h-1v-1h1V153z M174.2,150h-1v-1h1V150z M174.2,147h-1v-1h1V147z M174.2,144h-1v-1h1V144z
			 M174.2,140.9h-1v-1h1V140.9z M174.2,137.9h-1v-1h1V137.9z M174.2,134.9h-1v-1h1V134.9z M174.2,131.9h-1v-1h1V131.9z M174.2,128.9
			h-1v-1h1V128.9z M174.2,125.9h-1v-1h1V125.9z M174.2,122.8h-1v-1h1V122.8z M174.2,119.8h-1v-1h1V119.8z M174.2,116.8h-1v-1h1
			V116.8z M174.2,113.8h-1v-1h1V113.8z M174.2,110.8h-1v-1h1V110.8z M174.2,107.7h-1v-1h1V107.7z M174.2,104.7h-1v-1h1V104.7z
			 M174.2,101.7h-1v-1h1V101.7z M174.2,98.7h-1v-1h1V98.7z M174.2,95.7h-1v-1h1V95.7z M174.2,92.7h-1v-1h1V92.7z M174.2,89.6h-1v-1
			h1V89.6z M174.2,86.6h-1v-1h1V86.6z M174.2,83.6h-1v-1h1V83.6z M174.2,80.6h-1v-1h1V80.6z M174.2,77.6h-1v-1h1V77.6z M174.2,74.5
			h-1v-1h1V74.5z M174.2,71.5h-1v-1h1V71.5z M174.2,68.5h-1v-1h1V68.5z M174.2,65.5h-1v-1h1V65.5z M174.2,62.5h-1v-1h1V62.5z
			 M174.2,59.5h-1v-1h1V59.5z M174.2,56.4h-1v-1h1V56.4z M174.2,53.4h-1v-1h1V53.4z M174.2,50.4h-1v-1h1V50.4z M174.2,47.4h-1v-1h1
			V47.4z M174.2,44.4h-1v-1h1V44.4z M174.2,41.3h-1v-1h1V41.3z"/>
	</g>
	<g>
		<rect x="173.2" y="155" class="st14" width="1" height="0.5"/>
	</g>
</g>
<g>
	<g>
		<rect x="155" y="37.8" class="st14" width="1" height="0.5"/>
	</g>
	<g>
		<path class="st14" d="M156,153h-1v-1h1V153z M156,150h-1v-1h1V150z M156,147h-1v-1h1V147z M156,144h-1v-1h1V144z M156,140.9h-1v-1
			h1V140.9z M156,137.9h-1v-1h1V137.9z M156,134.9h-1v-1h1V134.9z M156,131.9h-1v-1h1V131.9z M156,128.9h-1v-1h1V128.9z M156,125.9
			h-1v-1h1V125.9z M156,122.8h-1v-1h1V122.8z M156,119.8h-1v-1h1V119.8z M156,116.8h-1v-1h1V116.8z M156,113.8h-1v-1h1V113.8z
			 M156,110.8h-1v-1h1V110.8z M156,107.7h-1v-1h1V107.7z M156,104.7h-1v-1h1V104.7z M156,101.7h-1v-1h1V101.7z M156,98.7h-1v-1h1
			V98.7z M156,95.7h-1v-1h1V95.7z M156,92.7h-1v-1h1V92.7z M156,89.6h-1v-1h1V89.6z M156,86.6h-1v-1h1V86.6z M156,83.6h-1v-1h1V83.6
			z M156,80.6h-1v-1h1V80.6z M156,77.6h-1v-1h1V77.6z M156,74.5h-1v-1h1V74.5z M156,71.5h-1v-1h1V71.5z M156,68.5h-1v-1h1V68.5z
			 M156,65.5h-1v-1h1V65.5z M156,62.5h-1v-1h1V62.5z M156,59.5h-1v-1h1V59.5z M156,56.4h-1v-1h1V56.4z M156,53.4h-1v-1h1V53.4z
			 M156,50.4h-1v-1h1V50.4z M156,47.4h-1v-1h1V47.4z M156,44.4h-1v-1h1V44.4z M156,41.3h-1v-1h1V41.3z"/>
	</g>
	<g>
		<rect x="155" y="155" class="st14" width="1" height="0.5"/>
	</g>
</g>
<g>
	<g>
		<rect x="414.2" y="122.4" class="st14" width="0.5" height="1"/>
	</g>
	<g>
		<path class="st14" d="M412.2,123.4h-1v-1h1V123.4z M409.2,123.4h-1v-1h1V123.4z M406.2,123.4h-1v-1h1V123.4z M403.1,123.4h-1v-1h1
			V123.4z M400.1,123.4h-1v-1h1V123.4z M397.1,123.4h-1v-1h1V123.4z M394.1,123.4h-1v-1h1V123.4z M391.1,123.4h-1v-1h1V123.4z
			 M388.1,123.4h-1v-1h1V123.4z M385.1,123.4h-1v-1h1V123.4z M382.1,123.4h-1v-1h1V123.4z M379,123.4h-1v-1h1V123.4z M376,123.4h-1
			v-1h1V123.4z M373,123.4h-1v-1h1V123.4z M370,123.4h-1v-1h1V123.4z M367,123.4h-1v-1h1V123.4z M364,123.4h-1v-1h1V123.4z
			 M361,123.4h-1v-1h1V123.4z M358,123.4h-1v-1h1V123.4z M355,123.4h-1v-1h1V123.4z M351.9,123.4h-1v-1h1V123.4z M348.9,123.4h-1v-1
			h1V123.4z M345.9,123.4h-1v-1h1V123.4z M342.9,123.4h-1v-1h1V123.4z M339.9,123.4h-1v-1h1V123.4z M336.9,123.4h-1v-1h1V123.4z
			 M333.9,123.4h-1v-1h1V123.4z M330.9,123.4h-1v-1h1V123.4z M327.8,123.4h-1v-1h1V123.4z M324.8,123.4h-1v-1h1V123.4z M321.8,123.4
			h-1v-1h1V123.4z M318.8,123.4h-1v-1h1V123.4z M315.8,123.4h-1v-1h1V123.4z M312.8,123.4h-1v-1h1V123.4z M309.8,123.4h-1v-1h1
			V123.4z M306.8,123.4h-1v-1h1V123.4z M303.8,123.4h-1v-1h1V123.4z M300.7,123.4h-1v-1h1V123.4z M297.7,123.4h-1v-1h1V123.4z
			 M294.7,123.4h-1v-1h1V123.4z M291.7,123.4h-1v-1h1V123.4z M288.7,123.4h-1v-1h1V123.4z M285.7,123.4h-1v-1h1V123.4z M282.7,123.4
			h-1v-1h1V123.4z M279.7,123.4h-1v-1h1V123.4z M276.7,123.4h-1v-1h1V123.4z M273.6,123.4h-1v-1h1V123.4z M270.6,123.4h-1v-1h1
			V123.4z M267.6,123.4h-1v-1h1V123.4z M264.6,123.4h-1v-1h1V123.4z M261.6,123.4h-1v-1h1V123.4z M258.6,123.4h-1v-1h1V123.4z
			 M255.6,123.4h-1v-1h1V123.4z M252.6,123.4h-1v-1h1V123.4z M249.5,123.4h-1v-1h1V123.4z M246.5,123.4h-1v-1h1V123.4z M243.5,123.4
			h-1v-1h1V123.4z M240.5,123.4h-1v-1h1V123.4z M237.5,123.4h-1v-1h1V123.4z M234.5,123.4h-1v-1h1V123.4z M231.5,123.4h-1v-1h1
			V123.4z M228.5,123.4h-1v-1h1V123.4z M225.4,123.4h-1v-1h1V123.4z M222.4,123.4h-1v-1h1V123.4z M219.4,123.4h-1v-1h1V123.4z
			 M216.4,123.4h-1v-1h1V123.4z M213.4,123.4h-1v-1h1V123.4z"/>
	</g>
	<g>
		<rect x="209.9" y="122.4" class="st14" width="0.5" height="1"/>
	</g>
</g>
<g>
	<g>
		<rect x="414.2" y="85.9" class="st14" width="0.5" height="1"/>
	</g>
	<g>
		<path class="st14" d="M412.2,86.9h-1v-1h1V86.9z M409.2,86.9h-1v-1h1V86.9z M406.2,86.9h-1v-1h1V86.9z M403.1,86.9h-1v-1h1V86.9z
			 M400.1,86.9h-1v-1h1V86.9z M397.1,86.9h-1v-1h1V86.9z M394.1,86.9h-1v-1h1V86.9z M391.1,86.9h-1v-1h1V86.9z M388.1,86.9h-1v-1h1
			V86.9z M385.1,86.9h-1v-1h1V86.9z M382.1,86.9h-1v-1h1V86.9z M379,86.9h-1v-1h1V86.9z M376,86.9h-1v-1h1V86.9z M373,86.9h-1v-1h1
			V86.9z M370,86.9h-1v-1h1V86.9z M367,86.9h-1v-1h1V86.9z M364,86.9h-1v-1h1V86.9z M361,86.9h-1v-1h1V86.9z M358,86.9h-1v-1h1V86.9
			z M355,86.9h-1v-1h1V86.9z M351.9,86.9h-1v-1h1V86.9z M348.9,86.9h-1v-1h1V86.9z M345.9,86.9h-1v-1h1V86.9z M342.9,86.9h-1v-1h1
			V86.9z M339.9,86.9h-1v-1h1V86.9z M336.9,86.9h-1v-1h1V86.9z M333.9,86.9h-1v-1h1V86.9z M330.9,86.9h-1v-1h1V86.9z M327.8,86.9h-1
			v-1h1V86.9z M324.8,86.9h-1v-1h1V86.9z M321.8,86.9h-1v-1h1V86.9z M318.8,86.9h-1v-1h1V86.9z M315.8,86.9h-1v-1h1V86.9z
			 M312.8,86.9h-1v-1h1V86.9z M309.8,86.9h-1v-1h1V86.9z M306.8,86.9h-1v-1h1V86.9z M303.8,86.9h-1v-1h1V86.9z M300.7,86.9h-1v-1h1
			V86.9z M297.7,86.9h-1v-1h1V86.9z M294.7,86.9h-1v-1h1V86.9z M291.7,86.9h-1v-1h1V86.9z M288.7,86.9h-1v-1h1V86.9z M285.7,86.9h-1
			v-1h1V86.9z M282.7,86.9h-1v-1h1V86.9z M279.7,86.9h-1v-1h1V86.9z M276.7,86.9h-1v-1h1V86.9z M273.6,86.9h-1v-1h1V86.9z
			 M270.6,86.9h-1v-1h1V86.9z M267.6,86.9h-1v-1h1V86.9z M264.6,86.9h-1v-1h1V86.9z M261.6,86.9h-1v-1h1V86.9z M258.6,86.9h-1v-1h1
			V86.9z M255.6,86.9h-1v-1h1V86.9z M252.6,86.9h-1v-1h1V86.9z M249.5,86.9h-1v-1h1V86.9z M246.5,86.9h-1v-1h1V86.9z M243.5,86.9h-1
			v-1h1V86.9z M240.5,86.9h-1v-1h1V86.9z M237.5,86.9h-1v-1h1V86.9z M234.5,86.9h-1v-1h1V86.9z M231.5,86.9h-1v-1h1V86.9z
			 M228.5,86.9h-1v-1h1V86.9z M225.4,86.9h-1v-1h1V86.9z M222.4,86.9h-1v-1h1V86.9z M219.4,86.9h-1v-1h1V86.9z M216.4,86.9h-1v-1h1
			V86.9z M213.4,86.9h-1v-1h1V86.9z"/>
	</g>
	<g>
		<rect x="209.9" y="85.9" class="st14" width="0.5" height="1"/>
	</g>
</g>
<g>
	<path class="st11" d="M414.8,156h-1v-1h0.5v-0.5h1v1h-0.5V156z M411.8,156h-1v-1h1V156z M408.8,156h-1v-1h1V156z M405.8,156h-1v-1
		h1V156z M402.8,156h-1v-1h1V156z M399.8,156h-1v-1h1V156z M396.8,156h-1v-1h1V156z M393.8,156h-1v-1h1V156z M390.8,156h-1v-1h1V156
		z M387.8,156h-1v-1h1V156z M384.8,156h-1v-1h1V156z M381.8,156h-1v-1h1V156z M378.8,156h-1v-1h1V156z M375.8,156h-1v-1h1V156z
		 M372.8,156h-1v-1h1V156z M369.8,156h-1v-1h1V156z M366.8,156h-1v-1h1V156z M363.8,156h-1v-1h1V156z M360.8,156h-1v-1h1V156z
		 M357.8,156h-1v-1h1V156z M354.8,156h-1v-1h1V156z M351.8,156h-1v-1h1V156z M348.8,156h-1v-1h1V156z M345.8,156h-1v-1h1V156z
		 M342.8,156h-1v-1h1V156z M339.8,156h-1v-1h1V156z M336.8,156h-1v-1h1V156z M333.8,156h-1v-1h1V156z M330.8,156h-1v-1h1V156z
		 M327.8,156h-1v-1h1V156z M324.8,156h-1v-1h1V156z M321.8,156h-1v-1h1V156z M318.8,156h-1v-1h1V156z M315.8,156h-1v-1h1V156z
		 M312.8,156h-1v-1h1V156z M309.8,156h-1v-1h1V156z M306.8,156h-1v-1h1V156z M303.8,156h-1v-1h1V156z M300.8,156h-1v-1h1V156z
		 M297.8,156h-1v-1h1V156z M294.8,156h-1v-1h1V156z M291.8,156h-1v-1h1V156z M288.8,156h-1v-1h1V156z M285.8,156h-1v-1h1V156z
		 M282.8,156h-1v-1h1V156z M279.8,156h-1v-1h1V156z M276.8,156h-1v-1h1V156z M273.8,156h-1v-1h1V156z M270.8,156h-1v-1h1V156z
		 M267.8,156h-1v-1h1V156z M264.8,156h-1v-1h1V156z M261.8,156h-1v-1h1V156z M258.8,156h-1v-1h1V156z M255.8,156h-1v-1h1V156z
		 M252.8,156h-1v-1h1V156z M249.8,156h-1v-1h1V156z M246.8,156h-1v-1h1V156z M243.8,156h-1v-1h1V156z M240.8,156h-1v-1h1V156z
		 M237.8,156h-1v-1h1V156z M234.8,156h-1v-1h1V156z M231.8,156h-1v-1h1V156z M228.8,156h-1v-1h1V156z M225.8,156h-1v-1h1V156z
		 M222.8,156h-1v-1h1V156z M219.8,156h-1v-1h1V156z M216.8,156h-1v-1h1V156z M213.8,156h-1v-1h1V156z M210.8,156h-1v-1h1V156z
		 M207.8,156h-1v-1h1V156z M204.8,156h-1v-1h1V156z M201.8,156h-1v-1h1V156z M198.8,156h-1v-1h1V156z M195.8,156h-1v-1h1V156z
		 M192.8,156h-1v-1h1V156z M189.8,156h-1v-1h1V156z M186.8,156h-1v-1h1V156z M183.8,156h-1v-1h1V156z M180.8,156h-1v-1h1V156z
		 M177.8,156h-1v-1h1V156z M174.8,156h-1v-1h1V156z M171.8,156h-1v-1h1V156z M168.8,156h-1v-1h1V156z M165.8,156h-1v-1h1V156z
		 M162.8,156h-1v-1h1V156z M159.8,156h-1v-1h1V156z M156.8,156h-1v-1h1V156z M153.8,156h-1v-1h1V156z M150.8,156h-1v-1h1V156z
		 M147.8,156h-1v-1h1V156z M144.8,156h-1v-1h1V156z M141.8,156h-1v-1h1V156z M138.8,156h-1v-1h1V156z M135.8,156h-1v-1h1V156z
		 M132.8,156h-1v-1h1V156z M129.8,156h-1v-1h1V156z M126.8,156h-1v-1h1V156z M123.8,156h-1v-1h1V156z M120.8,156h-1v-1h1V156z
		 M117.8,156h-1v-1h1V156z M114.8,156h-1v-1h1V156z M111.8,156h-1v-1h1V156z M108.8,156h-1v-1h1V156z M105.8,156h-1v-1h1V156z
		 M102.8,156h-1v-1h1V156z M99.8,156h-1v-1h1V156z M96.8,156h-1v-1h1V156z M93.8,156h-1v-1h1V156z M90.8,156h-1v-1h1V156z M87.8,156
		h-1v-1h1V156z M84.8,156h-1v-1h1V156z M81.8,156h-1v-1h1V156z M78.8,156h-1v-1h1V156z M75.8,156h-1v-1h1V156z M72.8,156h-1v-1h1
		V156z M69.8,156h-1v-1h1V156z M66.8,156h-1v-1h1V156z M63.8,156h-1v-1h1V156z M60.8,156h-1v-1h1V156z M57.8,156h-1v-1h1V156z
		 M54.8,156h-1v-1h1V156z M51.8,156h-1v-1h1V156z M48.8,156h-1v-1h1V156z M45.8,156h-1v-1h1V156z M42.8,156h-1v-1h1V156z M39.8,156
		h-1v-1h1V156z M37.5,155.3h-1v-1h1V155.3z M415.3,152.5h-1v-1h1V152.5z M37.5,152.3h-1v-1h1V152.3z M415.3,149.5h-1v-1h1V149.5z
		 M37.5,149.3h-1v-1h1V149.3z M415.3,146.5h-1v-1h1V146.5z M37.5,146.3h-1v-1h1V146.3z M415.3,143.5h-1v-1h1V143.5z M37.5,143.3h-1
		v-1h1V143.3z M415.3,140.5h-1v-1h1V140.5z M37.5,140.3h-1v-1h1V140.3z M415.3,137.5h-1v-1h1V137.5z M37.5,137.3h-1v-1h1V137.3z
		 M415.3,134.5h-1v-1h1V134.5z M37.5,134.3h-1v-1h1V134.3z M415.3,131.5h-1v-1h1V131.5z M37.5,131.3h-1v-1h1V131.3z M415.3,128.5h-1
		v-1h1V128.5z M37.5,128.3h-1v-1h1V128.3z M415.3,125.5h-1v-1h1V125.5z M37.5,125.3h-1v-1h1V125.3z M415.3,122.5h-1v-1h1V122.5z
		 M37.5,122.3h-1v-1h1V122.3z M415.3,119.5h-1v-1h1V119.5z M37.5,119.3h-1v-1h1V119.3z M415.3,116.5h-1v-1h1V116.5z M37.5,116.3h-1
		v-1h1V116.3z M415.3,113.5h-1v-1h1V113.5z M37.5,113.3h-1v-1h1V113.3z M415.3,110.5h-1v-1h1V110.5z M37.5,110.3h-1v-1h1V110.3z
		 M415.3,107.5h-1v-1h1V107.5z M37.5,107.3h-1v-1h1V107.3z M415.3,104.5h-1v-1h1V104.5z M37.5,104.3h-1v-1h1V104.3z M415.3,101.5h-1
		v-1h1V101.5z M37.5,101.3h-1v-1h1V101.3z M415.3,98.5h-1v-1h1V98.5z M37.5,98.3h-1v-1h1V98.3z M415.3,95.5h-1v-1h1V95.5z
		 M37.5,95.3h-1v-1h1V95.3z M415.3,92.5h-1v-1h1V92.5z M37.5,92.3h-1v-1h1V92.3z M415.3,89.5h-1v-1h1V89.5z M37.5,89.3h-1v-1h1V89.3
		z M415.3,86.5h-1v-1h1V86.5z M37.5,86.3h-1v-1h1V86.3z M415.3,83.5h-1v-1h1V83.5z M37.5,83.3h-1v-1h1V83.3z M415.3,80.5h-1v-1h1
		V80.5z M37.5,80.3h-1v-1h1V80.3z M415.3,77.5h-1v-1h1V77.5z M37.5,77.3h-1v-1h1V77.3z M415.3,74.5h-1v-1h1V74.5z M37.5,74.3h-1v-1
		h1V74.3z M415.3,71.5h-1v-1h1V71.5z M37.5,71.3h-1v-1h1V71.3z M415.3,68.5h-1v-1h1V68.5z M37.5,68.3h-1v-1h1V68.3z M415.3,65.5h-1
		v-1h1V65.5z M37.5,65.3h-1v-1h1V65.3z M415.3,62.5h-1v-1h1V62.5z M37.5,62.3h-1v-1h1V62.3z M415.3,59.5h-1v-1h1V59.5z M37.5,59.3
		h-1v-1h1V59.3z M415.3,56.5h-1v-1h1V56.5z M37.5,56.3h-1v-1h1V56.3z M415.3,53.5h-1v-1h1V53.5z M37.5,53.3h-1v-1h1V53.3z
		 M415.3,50.5h-1v-1h1V50.5z M37.5,50.3h-1v-1h1V50.3z M415.3,47.5h-1v-1h1V47.5z M37.5,47.3h-1v-1h1V47.3z M415.3,44.5h-1v-1h1
		V44.5z M37.5,44.3h-1v-1h1V44.3z M415.3,41.5h-1v-1h1V41.5z M37.5,41.3h-1v-1h1V41.3z M415.3,38.5h-1v-0.7h0.2v-0.5h0.8V38.5z
		 M37.5,38.3h-1v-1h1L37.5,38.3z M412.5,38.3h-1v-1h1V38.3z M409.5,38.3h-1v-1h1V38.3z M406.5,38.3h-1v-1h1V38.3z M403.5,38.3h-1v-1
		h1V38.3z M400.5,38.3h-1v-1h1V38.3z M397.5,38.3h-1v-1h1V38.3z M394.5,38.3h-1v-1h1V38.3z M391.5,38.3h-1v-1h1V38.3z M388.5,38.3
		h-1v-1h1V38.3z M385.5,38.3h-1v-1h1V38.3z M382.5,38.3h-1v-1h1V38.3z M379.5,38.3h-1v-1h1V38.3z M376.5,38.3h-1v-1h1V38.3z
		 M373.5,38.3h-1v-1h1V38.3z M370.5,38.3h-1v-1h1V38.3z M367.5,38.3h-1v-1h1V38.3z M364.5,38.3h-1v-1h1V38.3z M361.5,38.3h-1v-1h1
		V38.3z M358.5,38.3h-1v-1h1V38.3z M355.5,38.3h-1v-1h1V38.3z M352.5,38.3h-1v-1h1V38.3z M349.5,38.3h-1v-1h1V38.3z M346.5,38.3h-1
		v-1h1V38.3z M343.5,38.3h-1v-1h1V38.3z M340.5,38.3h-1v-1h1V38.3z M337.5,38.3h-1v-1h1V38.3z M334.5,38.3h-1v-1h1V38.3z
		 M331.5,38.3h-1v-1h1V38.3z M328.5,38.3h-1v-1h1V38.3z M325.5,38.3h-1v-1h1V38.3z M322.5,38.3h-1v-1h1V38.3z M319.5,38.3h-1v-1h1
		V38.3z M316.5,38.3h-1v-1h1V38.3z M313.5,38.3h-1v-1h1V38.3z M310.5,38.3h-1v-1h1V38.3z M307.5,38.3h-1v-1h1V38.3z M304.5,38.3h-1
		v-1h1V38.3z M301.5,38.3h-1v-1h1V38.3z M298.5,38.3h-1v-1h1V38.3z M295.5,38.3h-1v-1h1V38.3z M292.5,38.3h-1v-1h1V38.3z
		 M289.5,38.3h-1v-1h1V38.3z M286.5,38.3h-1v-1h1V38.3z M283.5,38.3h-1v-1h1V38.3z M280.5,38.3h-1v-1h1V38.3z M277.5,38.3h-1v-1h1
		V38.3z M274.5,38.3h-1v-1h1V38.3z M271.5,38.3h-1v-1h1V38.3z M268.5,38.3h-1v-1h1V38.3z M265.5,38.3h-1v-1h1V38.3z M262.5,38.3h-1
		v-1h1V38.3z M259.5,38.3h-1v-1h1V38.3z M256.5,38.3h-1v-1h1V38.3z M253.5,38.3h-1v-1h1V38.3z M250.5,38.3h-1v-1h1V38.3z
		 M247.5,38.3h-1v-1h1V38.3z M244.5,38.3h-1v-1h1V38.3z M241.5,38.3h-1v-1h1V38.3z M238.5,38.3h-1v-1h1V38.3z M235.5,38.3h-1v-1h1
		V38.3z M232.5,38.3h-1v-1h1V38.3z M229.5,38.3h-1v-1h1V38.3z M226.5,38.3h-1v-1h1V38.3z M223.5,38.3h-1v-1h1V38.3z M220.5,38.3h-1
		v-1h1V38.3z M217.5,38.3h-1v-1h1V38.3z M214.5,38.3h-1v-1h1V38.3z M211.5,38.3h-1v-1h1V38.3z M208.5,38.3h-1v-1h1V38.3z
		 M205.5,38.3h-1v-1h1V38.3z M202.5,38.3h-1v-1h1V38.3z M199.5,38.3h-1v-1h1V38.3z M196.5,38.3h-1v-1h1V38.3z M193.5,38.3h-1v-1h1
		V38.3z M190.5,38.3h-1v-1h1V38.3z M187.5,38.3h-1v-1h1V38.3z M184.5,38.3h-1v-1h1V38.3z M181.5,38.3h-1v-1h1V38.3z M178.5,38.3h-1
		v-1h1V38.3z M175.5,38.3h-1v-1h1V38.3z M172.5,38.3h-1v-1h1V38.3z M169.5,38.3h-1v-1h1V38.3z M166.5,38.3h-1v-1h1V38.3z
		 M163.5,38.3h-1v-1h1V38.3z M160.5,38.3h-1v-1h1V38.3z M157.5,38.3h-1v-1h1V38.3z M154.5,38.3h-1v-1h1V38.3z M151.5,38.3h-1v-1h1
		V38.3z M148.5,38.3h-1v-1h1V38.3z M145.5,38.3h-1v-1h1V38.3z M142.5,38.3h-1v-1h1V38.3z M139.5,38.3h-1v-1h1V38.3z M136.5,38.3h-1
		v-1h1V38.3z M133.5,38.3h-1v-1h1V38.3z M130.5,38.3h-1v-1h1V38.3z M127.5,38.3h-1v-1h1V38.3z M124.5,38.3h-1v-1h1V38.3z
		 M121.5,38.3h-1v-1h1V38.3z M118.5,38.3h-1v-1h1V38.3z M115.5,38.3h-1v-1h1V38.3z M112.5,38.3h-1v-1h1V38.3z M109.5,38.3h-1v-1h1
		V38.3z M106.5,38.3h-1v-1h1V38.3z M103.5,38.3h-1v-1h1V38.3z M100.5,38.3h-1v-1h1V38.3z M97.5,38.3h-1v-1h1V38.3z M94.5,38.3h-1v-1
		h1V38.3z M91.5,38.3h-1v-1h1V38.3z M88.5,38.3h-1v-1h1V38.3z M85.5,38.3h-1v-1h1V38.3z M82.5,38.3h-1v-1h1V38.3z M79.5,38.3h-1v-1
		h1V38.3z M76.5,38.3h-1v-1h1V38.3z M73.5,38.3h-1v-1h1V38.3z M70.5,38.3h-1v-1h1V38.3z M67.5,38.3h-1v-1h1V38.3z M64.5,38.3h-1v-1
		h1V38.3z M61.5,38.3h-1v-1h1V38.3z M58.5,38.3h-1v-1h1V38.3z M55.5,38.3h-1v-1h1V38.3z M52.5,38.3h-1v-1h1V38.3z M49.5,38.3h-1v-1
		h1V38.3z M46.5,38.3h-1v-1h1V38.3z M43.5,38.3h-1v-1h1V38.3z M40.5,38.3h-1v-1h1V38.3z"/>
</g>
<g>
	<g>
		<path class="st15" d="M188,82h-13.8v-7.2h36V82h-13.7v40.6H188V82z"/>
	</g>
	<g>
		<path class="st15" d="M209.5,86.7h6.9l0.6,6.4h0.3c2.6-4.7,6.4-7.2,10.2-7.2c1.8,0,3,0.2,4.1,0.7l-1.5,7.3
			c-1.2-0.4-2.2-0.6-3.7-0.6c-2.8,0-6.3,2-8.5,7.4v21.9h-8.4V86.7z"/>
	</g>
	<g>
		<path class="st15" d="M254.5,99.6c-0.1-3.8-1.7-7-6.5-7c-3.6,0-6.9,1.6-10.1,3.5l-3.1-5.6c3.9-2.5,9-4.7,14.7-4.7
			c9,0,13.4,5.5,13.4,15.5v21.3H256l-0.7-3.9h-0.2c-3.2,2.7-6.9,4.8-11.1,4.8c-6.3,0-10.7-4.2-10.7-10.5
			C233.4,105.3,239.8,101.3,254.5,99.6z M246.7,116.9c2.9,0,5.2-1.5,7.8-3.9v-8c-9.7,1.2-12.9,3.8-12.9,7.4
			C241.5,115.5,243.7,116.9,246.7,116.9z"/>
	</g>
	<g>
		<path class="st15" d="M265.3,86.7h8.5l5.7,18.6c0.9,3.5,2,7.2,3,10.8h0.3c1-3.7,2-7.3,3.1-10.8l5.7-18.6h8.1l-12.2,35.9h-9.7
			L265.3,86.7z"/>
	</g>
	<g>
		<path class="st15" d="M302.8,75.7c0-2.8,2.2-4.8,5.2-4.8s5.2,2,5.2,4.8c0,2.8-2.2,4.7-5.2,4.7S302.8,78.5,302.8,75.7z M303.8,86.7
			h8.4v35.9h-8.4V86.7z"/>
	</g>
	<g>
		<path class="st15" d="M320.9,113.1c3.2,2.5,6.3,4,9.9,4c3.9,0,5.7-1.8,5.7-4.3c0-3-3.9-4.3-7.7-5.8c-4.7-1.8-10.1-4.5-10.1-10.4
			c0-6.3,5-10.7,13.1-10.7c5,0,9,2,11.9,4.3l-3.9,5.1c-2.5-1.8-5-3.1-7.9-3.1c-3.6,0-5.3,1.7-5.3,3.9c0,2.8,3.6,3.9,7.5,5.3
			c4.9,1.8,10.3,4.2,10.3,10.9c0,6.1-4.9,11.1-14,11.1c-4.9,0-10.1-2.1-13.6-5L320.9,113.1z"/>
	</g>
	<g>
		<path class="st15" d="M385.7,73.9c5.8,0,10.6,2.8,13.6,6.1l-4.7,5.3c-2.5-2.4-5.2-3.9-8.8-3.9c-7.8,0-13.4,6.6-13.4,17.3
			c0,10.9,5.2,17.5,13.1,17.5c4.2,0,7.4-1.8,10.1-4.7l4.7,5.2c-3.9,4.5-8.8,6.9-14.9,6.9c-12.1,0-21.7-8.8-21.7-24.6
			C363.7,83.2,373.5,73.9,385.7,73.9z"/>
	</g>
	<g>
		<path class="st15" d="M405.5,74.8h8.5v47.8h-8.5V74.8z"/>
	</g>
</g>
</svg>
