<?xml version="1.0" encoding="utf-8"?>
<!-- Generator: Adobe Illustrator 19.1.0, SVG Export Plug-In . SVG Version: 6.00 Build 0)  -->
<svg version="1.1" id="Travis_CI_Logo" xmlns="http://www.w3.org/2000/svg" xmlns:xlink="http://www.w3.org/1999/xlink" x="0px"
	 y="0px" viewBox="0 0 377.4 117.7" style="enable-background:new 0 0 377.4 117.7;" xml:space="preserve">
<style type="text/css">
	.st0{fill:#CB3449;}
	.st1{fill:#F3ECAC;}
	.st2{fill:#E6CCAD;}
	.st3{fill:#656C68;}
	.st4{fill:#E4C9A1;}
	.st5{fill:#C7B398;}
	.st6{fill:#EBD598;}
	.st7{fill:#2D3235;}
	.st8{fill:#EDF6FA;}
	.st9{opacity:0.8;}
	.st10{opacity:0.75;}
	.st11{fill:#FFFFFF;}
</style>
<g id="TravisCI_Mascot">
	<g>
		<g>
			<path class="st0" d="M28.9,51.4c0,0-18.5,13-19.2,17.9l1.4-0.3c0,0,22.1-14.7,39.6-16.4l0.4-2.2L28.9,51.4z"/>
		</g>
		<g>
			<path class="st0" d="M57.9,49.5L43.3,59.8l0.8,0.6C44.7,60,70,52.3,70,52.3l5.3-3.3C71.7,49.4,57.9,49.5,57.9,49.5z"/>
		</g>
		<g>
			<path class="st0" d="M70.5,62c10.3,0,25.8-10.1,25.8-10.1l-5-1c-0.2,0.2-8.1-0.3-8.1-0.3l-3.7-1l-8.9,10.1l-0.7,1.8
				C70.6,61.2,70.5,62,70.5,62z"/>
		</g>
	</g>
	<g>
		<path class="st0" d="M104.2,94.2l-3.2,0.9l-14.7-0.3l-9.2-7.2l-11.1,2.8L53,89.3l-7.2,7.9l-13.5,4l-6.8-2.1
			c-0.2-0.2-0.3-0.3-0.3-0.3l3,7.4c0,0,6.9,7.4,10.7,8.2c3.8,0.9,10.8-0.1,16-0.9c5.2-0.8,9.4-2.7,11-5.7c1.7-3,1.9-3.9,1.9-3.9
			s5,7,9.2,7.8c4.3,0.8,17-3.5,17-3.5s7.7-2.1,9.1-4.8c1.4-2.7,5-11.4,5-11.4L104.2,94.2z M26.9,100.3c-0.1,0-0.1-0.1-0.2-0.1
			c-0.5-0.4-0.9-0.8-1.2-1L26.9,100.3z"/>
	</g>
	<g>
		<g>
			<path class="st1" d="M116.7,41.6c0-0.4-0.1-0.8-0.1-1.2c0-0.3-0.1-0.6-0.1-0.8c-1.1-0.9-2.3-1.7-3.5-2.4
				c-1.4-0.8-2.8-1.5-4.2-2.2c-1.4-0.7-2.9-1.3-4.4-1.9c-0.7-0.3-1.5-0.6-2.3-0.9c-0.8-0.3-1.5-0.6-2.3-0.8c1.6,0.3,3.2,0.6,4.8,1
				c1,0.3,2,0.6,3,0.9c-7.2-18.8-24.4-31-43.1-31c-18.8,0-35.9,12.2-43.1,31c1-0.3,2-0.6,3-0.9c1.6-0.4,3.2-0.8,4.8-1
				c-0.8,0.3-1.5,0.6-2.3,0.8c-0.8,0.3-1.5,0.6-2.3,0.9c-1.5,0.6-3,1.2-4.4,1.9c-1.5,0.7-2.9,1.4-4.2,2.2c-1.3,0.7-2.5,1.5-3.5,2.4
				c0,0.3-0.1,0.6-0.1,0.8c0,0.4-0.1,0.8-0.1,1.2C12,42.4,12,43.2,12,44c0,1.6,0.1,3.2,0.3,4.8c0.2,1.6,0.5,3.2,0.9,4.7
				c0.2,0.8,0.5,1.5,0.7,2.3c0.1,0.4,0.3,0.7,0.5,1.1c0.1,0.2,0.2,0.3,0.2,0.5l0.1,0.2c0.1,0.1,0.2,0.1,0.4,0.2l0.7,0.3
				c0.4,0.2,0.9,0.4,1.4,0.6c0,0,0.1,0,0.1-0.1L16,53.6c0.3-0.1,2.8-0.7,7.1-1.6c-0.4-0.1-0.7-0.1-1.1-0.2c-1-0.2-2-0.5-2.9-0.9
				c-0.5-0.2-0.9-0.4-1.4-0.7c-0.4-0.3-0.9-0.5-1.2-0.9c4.8,1.6,14.6,0.9,23.4-0.1c8-0.8,16-1.4,24.1-1.4c8.1,0,16.1,0.6,24.1,1.4
				c8.8,0.9,18.6,1.6,23.4,0.1c-0.3,0.4-0.8,0.7-1.2,0.9c-0.4,0.2-0.9,0.5-1.4,0.7c-0.9,0.4-1.9,0.7-2.9,0.9c-0.1,0-0.3,0.1-0.4,0.1
				c4.8,0.9,7.5,1.6,7.8,1.7l-1.3,4.8c0.3-0.1,0.5-0.2,0.8-0.3l0.7-0.3c0.1-0.1,0.2-0.1,0.4-0.2l0.1-0.2c0.1-0.2,0.2-0.3,0.2-0.5
				c0.2-0.4,0.3-0.7,0.5-1.1c0.3-0.7,0.5-1.5,0.7-2.3c0.4-1.5,0.7-3.1,0.9-4.7c0.2-1.6,0.3-3.2,0.3-4.8
				C116.8,43.2,116.8,42.4,116.7,41.6z"/>
		</g>
		<g>
			<path class="st2" d="M69.8,108.4c-0.6,0.1-1.3,0.2-1.9,0.2c-0.4,0-0.8,0.1-1.2,0.1l-0.1,0c0.5-1.1,0.9-1.9,1.1-2.6
				C68.3,106.7,69,107.5,69.8,108.4z"/>
		</g>
		<g>
			<path class="st2" d="M71.2,109.8c2,1.9,4.4,3.1,7.1,3.3c-4.5,1.8-8.7,2.5-12,2.7c-3.2,0.2-6.5-0.2-9.8-1.1c0.3,0,0.5-0.1,0.7-0.1
				c0.3,0,6.1-0.8,8.7-4.7l0.2,0l0.6,0c0.4,0,0.8,0,1.2-0.1c1-0.1,1.9-0.2,2.9-0.4C71,109.6,71.1,109.7,71.2,109.8z"/>
		</g>
		<g>
			<path class="st3" d="M76.8,51.7c-0.2,0.2-0.4,0.5-0.6,0.8c-1.1,1.5-2.7,3.3-4.6,5.1c-2.2-0.1-4.4-0.1-6.8-0.1
				c-3.8,0-7.5,0.1-11,0.3c4.9-2,10.9-4,17.3-5.2C72.9,52.1,74.8,51.9,76.8,51.7z"/>
		</g>
		<g>
			<path class="st3" d="M47.9,53.9c-1.8,1.2-3.7,2.8-5.7,4.7c-4.9,0.5-9.2,1.1-12.8,1.7C34.9,57.8,41.1,55.4,47.9,53.9z"/>
		</g>
		<g>
			<path class="st3" d="M108.2,64.1l-2,14l-9.6,6.7L71.5,82l-3.8-12.4c-0.1-0.3-0.3-0.5-0.7-0.6c-0.9-0.2-1.8-0.2-2.4-0.2
				c-0.7,0-1.5,0.1-2.4,0.2c-0.3,0.1-0.6,0.3-0.7,0.6l-3.7,12.1l-24.9,5.6L23,80.3l-1.9-15.8c0.4-0.2,0.9-0.5,1.3-0.7
				c0.6-0.1,1.3-0.3,2.1-0.4l1.8,14.9c0,0.2,0.2,0.4,0.3,0.6l6.8,4.8c0.1,0.1,0.3,0.1,0.5,0.1c0.1,0,0.1,0,0.2,0l20.5-4.6
				c0.1,0,0.1,0,0.2-0.1c0.2-0.1,0.3-0.3,0.4-0.5l3.7-12.2c1-0.3,3.5-0.8,5.8-0.8c2.2,0,4.8,0.6,5.8,0.8l3.7,12.2
				c0.1,0.3,0.4,0.5,0.7,0.6l20.5,2.3c0.2,0,0.4,0,0.6-0.1l6.8-4.8c0.2-0.1,0.3-0.3,0.3-0.6l1.8-12.7
				C106.2,63.6,107.3,63.9,108.2,64.1z"/>
		</g>
		<g>
			<path class="st3" d="M110.8,55.2l-1.8,6.7c-3.6-0.8-11.5-2.4-22.3-3.4c3.5-1.5,7.1-3.4,10.4-5.7
				C103.5,53.7,108.2,54.7,110.8,55.2z"/>
		</g>
		<g>
			<g>
				<path class="st4" d="M38.4,76.2c1.4-0.8,3-0.6,5.5-0.6c0.3,0,0.5,0,0.8,0c0.2,0,0.5,0,0.7,0c2.5,0,4.7,0.2,4.6-3.8
					c0-4-1.8-7.2-4.4-7.2c-2.5,0-5,3.3-4.9,7.3c0,1,0.2,1.8,0.4,2.3C39.1,74.7,38.5,76.1,38.4,76.2z M69.1,59.7
					c-1,0.8-2,1.5-3.1,2.2l-3.6,2.2C60.1,64.4,58.1,65,58,65c-0.1,0-0.1,0-0.2,0.1c-0.2,0.1-0.3,0.3-0.4,0.5l-3.7,12.1l-19.7,4.4
					l-6.2-4.3L26,63.1c3.5-0.6,8.2-1.4,13.9-2c-0.6,0.7-1.2,1.5-1.8,2.3l-3.4,4.8l4.9-3.3c0.1-0.1,3.2-2.1,8.3-4.6
					c5.1-0.4,10.7-0.6,16.7-0.6C66.2,59.7,67.7,59.7,69.1,59.7z"/>
			</g>
			<g>
				<path class="st4" d="M90.6,74.6c0-0.1-0.6-1.7-2.9-1.4c0.3-0.6,0.4-1.4,0.3-2.5c-0.3-4-2.6-7.2-5.2-7.1c-2.5,0.1-4.2,3.4-4,7.4
					c0.1,4,2.3,4,4.8,3.9C87,74.8,88.9,73.7,90.6,74.6z M103.2,63.1l-1.8,12.4l-6.3,4.4l-19.7-2.2l-3.7-12.1
					c-0.1-0.3-0.3-0.5-0.6-0.6c-0.1,0-2.6-0.7-5.1-1l0.5,0c0.4,0,7.2-0.9,15.3-3.7C90.9,61,98.2,62.2,103.2,63.1z"/>
			</g>
		</g>
		<g>
			<g>
				<path class="st5" d="M38.4,76.2c1.4-0.8,3-0.6,5.5-0.6c0.3,0,0.5,0,0.8,0c0.2,0,0.5,0,0.7,0c2.5,0,4.7,0.2,4.6-3.8
					c0-4-1.8-7.2-4.4-7.2c-2.5,0-5,3.3-4.9,7.3c0,1,0.2,1.8,0.4,2.3C39.1,74.7,38.5,76.1,38.4,76.2z M69.1,59.7
					c-1,0.8-2,1.5-3.1,2.2l-3.6,2.2C60.1,64.4,58.1,65,58,65c-0.1,0-0.1,0-0.2,0.1c-0.2,0.1-0.3,0.3-0.4,0.5l-3.7,12.1l-19.7,4.4
					l-6.2-4.3L26,63.1c3.5-0.6,8.2-1.4,13.9-2c-0.6,0.7-1.2,1.5-1.8,2.3l-3.4,4.8l4.9-3.3c0.1-0.1,3.2-2.1,8.3-4.6
					c5.1-0.4,10.7-0.6,16.7-0.6C66.2,59.7,67.7,59.7,69.1,59.7z"/>
			</g>
			<g>
				<path class="st5" d="M90.6,74.6c0-0.1-0.6-1.7-2.9-1.4c0.3-0.6,0.4-1.4,0.3-2.5c-0.3-4-2.6-7.2-5.2-7.1c-2.5,0.1-4.2,3.4-4,7.4
					c0.1,4,2.3,4,4.8,3.9C87,74.8,88.9,73.7,90.6,74.6z M103.2,63.1l-1.8,12.4l-6.3,4.4l-19.7-2.2l-3.7-12.1
					c-0.1-0.3-0.3-0.5-0.6-0.6c-0.1,0-2.6-0.7-5.1-1l0.5,0c0.4,0,7.2-0.9,15.3-3.7C90.9,61,98.2,62.2,103.2,63.1z"/>
			</g>
		</g>
		<g>
			<path class="st2" d="M111.8,68.5c0.3,0.2,0.5,0.9,0.3,3.9c-0.3,3.7-1.9,10.1-2.8,11.2c-1.1,0.2-3.3,0-4.6-0.4
				c0.2-0.9,0.3-1.4,0.5-2.3l2.4-1.7c0.2-0.1,0.3-0.3,0.3-0.6l1.6-11.5C110.4,67.7,111.5,68.3,111.8,68.5z"/>
		</g>
		<g>
			<path class="st2" d="M24.8,83.6c0.1,0.4,0.2,0.8,0.4,1.2c-1.3,0.4-3.9,0.7-5,0.5c-1-1-2.8-7.7-3.2-11.3c-0.3-2.9-0.1-3.5,0.2-3.8
				c0.3-0.3,1.6-1,2.7-1.6l1.5,12.1c0,0.2,0.2,0.4,0.3,0.6L24.8,83.6z"/>
		</g>
		<g>
			<path class="st2" d="M72.5,83.8l-0.1,0.8c0,0-2.7,2.5-7.1,3.1c-4.4,0.6-7.8-2.1-7.8-2.1c0.1,0.5,0.3,1.5,1.3,2.4
				c-1.2-0.1-2.4-0.2-3.7-0.2c-0.5,0-1,0-1.4,0c-2.7,0.1-6.5,4.2-9.1,8.3c-1.3,0.4-5.4,1.7-10.1,3.1c-4.4-6.1-6.6-12.4-6.8-13l0,0
				c-0.1-0.2-0.2-0.5-0.3-0.8l1.1,0.8v0l2.8,2l0.9,0.7c0.1,0.1,0.3,0.2,0.5,0.2c0.1,0,0.1,0,0.2,0l25.8-5.7c0.3-0.1,0.5-0.3,0.6-0.6
				L63,70.5c0.6-0.1,1.2-0.1,1.7-0.1c0.5,0,1,0,1.7,0.1L70.1,83c0.1,0.3,0.4,0.5,0.7,0.6L72.5,83.8z"/>
		</g>
		<g>
			<path class="st2" d="M102,83.1l0.8-0.6c-0.1,0.6-0.3,1.2-0.4,1.7c-1.2,3.7-2.5,7-4,9.9c-0.3,0-0.7,0-1.1,0
				c-1.2,0-2.4-0.1-3.7-0.2c-2.3-0.2-5.9-0.6-7.1-0.8c-1-0.8-4.4-3.5-7.2-5.7c-0.1-0.1-0.2-0.2-0.3-0.2c-0.5-0.4-1.1-0.9-2.2-0.9
				c-1,0-2.6,0.4-6.2,1.5c1.9-1.4,1.9-3.3,1.9-3.3l0.1-0.8l24.2,2.7c0.2,0,0.4,0,0.6-0.1l2.4-1.7L102,83.1z"/>
		</g>
		<g>
			<path class="st6" d="M84.2,32.2c0.1,2.2,0,6-1,9.7c0,0.1,0,0.3,0,0.4c-1.3-0.1-2.5-0.2-3.8-0.4c1.4-3,1.7-6.2,1.8-7.3
				C82.3,33.9,83.4,33,84.2,32.2z"/>
		</g>
		<g>
			<path class="st6" d="M47.7,34.7c0.1,1.1,0.4,4.3,1.8,7.3c-1.3,0.1-2.5,0.2-3.8,0.4c0-0.1,0-0.3,0-0.4c-1-3.6-1.1-7.5-1-9.7
				C45.5,33,46.6,33.9,47.7,34.7z"/>
		</g>
		<g>
			<path class="st7" d="M90.6,74.6c-1.7-0.8-3.6,0.2-7,0.3c-2.5,0.1-4.7,0.1-4.8-3.9c-0.1-4,1.5-7.3,4-7.4c2.5-0.1,4.9,3.1,5.2,7.1
				c0.1,1.1,0,1.9-0.3,2.5C90.1,72.9,90.6,74.5,90.6,74.6z M82.6,68.7c0.7,0,1.3-0.6,1.3-1.3c0-0.7-0.6-1.3-1.3-1.3
				c-0.7,0-1.3,0.6-1.3,1.3C81.3,68.1,81.9,68.7,82.6,68.7z"/>
		</g>
		<g>
			<path class="st8" d="M83.9,67.4c0,0.7-0.6,1.3-1.3,1.3c-0.7,0-1.3-0.6-1.3-1.3c0-0.7,0.6-1.3,1.3-1.3
				C83.3,66.1,83.9,66.7,83.9,67.4z"/>
		</g>
		<g>
			<path class="st7" d="M50.1,71.8c0,4-2.1,3.8-4.6,3.8c-0.3,0-0.5,0-0.7,0c-0.3,0-0.6,0-0.8,0c-2.5,0-4.1-0.1-5.5,0.6
				c0-0.1,0.6-1.5,2.9-2c-0.2-0.5-0.4-1.3-0.4-2.3c-0.2-4,2.3-7.3,4.9-7.3C48.3,64.5,50,67.8,50.1,71.8z M46.1,69.7
				c0.7,0,1.3-0.6,1.3-1.3c0-0.7-0.6-1.3-1.3-1.3c-0.7,0-1.3,0.6-1.3,1.3C44.8,69.1,45.4,69.7,46.1,69.7z"/>
		</g>
		<g>
			<circle class="st8" cx="46.1" cy="68.4" r="1.3"/>
		</g>
		<g class="st9">
			<g>
				<path class="st6" d="M30.6,44.6c0,0,0.4-5.2,1.2-7.1c0.4-1,3-1.7,4.9-2.1c1.9-0.5,5-1.4,5.7,1.3c0.6,2.7,1.6,4.7,2.2,5.6
					L43.8,31l-13.4,3.2l-0.9,10l0.4,0.8L30.6,44.6"/>
			</g>
			<g>
				<path class="st6" d="M98.4,44.6c0,0-0.4-5.2-1.2-7.1c-0.4-1-3-1.7-4.9-2.1c-1.9-0.5-5-1.4-5.7,1.3c-0.6,2.7-1.6,4.7-2.2,5.6
					L85.2,31l13.4,3.2l0.9,10L99.1,45L98.4,44.6"/>
			</g>
		</g>
		<g class="st10">
			<path class="st6" d="M79.4,10.9c0,0-0.4,27-6.7,27c-6.3,0-7.6,0-7.6,0H64c0,0-1.3,0-7.6,0s-6.8-27-6.8-27l-3.1,9.2l0.1,12.6
				l2.2,1.7l1,5.4l1.4,3.1l27,0.1l1.2-2.2l1-3.8l0.2-2.4l3-8.5L79.4,10.9z"/>
		</g>
		<g class="st10">
			<path class="st6" d="M99.3,36.1c0,0,1.3,9.3,4.7,11c3.4,1.7,0,0,0,0l-4.8-1.4L99.3,36.1z"/>
		</g>
		<g class="st10">
			<path class="st6" d="M29.6,36.1c0,0-1.3,9.3-4.7,11c-3.4,1.7,0,0,0,0l4.8-1.4L29.6,36.1z"/>
		</g>
		<g>
			<path class="st7" d="M100.2,45.6c1.6,0.5,3.3,1.1,4.8,2c-0.8-0.3-1.6-0.5-2.4-0.7c-0.8-0.2-1.7-0.4-2.5-0.5
				c-1.7-0.3-3.4-0.6-5-0.8c-1.7-0.2-3.4-0.4-5.1-0.5c-1.7-0.1-3.4-0.3-5.1-0.4C78.1,44.1,71.2,44,64.4,44c-6.8,0-13.6,0.1-20.4,0.5
				c-1.7,0.1-3.4,0.2-5.1,0.4c-1.7,0.1-3.4,0.3-5.1,0.5c-1.7,0.2-3.4,0.5-5,0.8c-0.8,0.2-1.7,0.3-2.5,0.5c-0.8,0.2-1.7,0.4-2.4,0.7
				c1.5-0.9,3.1-1.4,4.8-2c0.1,0,0.3-0.1,0.4-0.1c0,0,0-0.1,0-0.1c0-0.2-0.6-4.7,0.4-11.1c0.1-0.3,0.3-0.6,0.6-0.6l1.7-0.5
				c0.4-13.4,5.9-19.7,6.1-19.9c-4.9,7.9-4.9,17.4-4.8,19.6l10.8-3.1c0,0,0,0,0,0c0,0,0.1,0,0.1,0c0,0,0,0,0,0c0.1,0,0.1,0,0.2,0
				c0,0,0,0,0,0c0,0,0.1,0,0.1,0c0,0,0,0,0.1,0c0,0,0.1,0,0.1,0.1c0,0,0,0,0,0c0,0,0,0,0,0c0,0,0,0,0,0c0,0,0.3,0.3,0.7,0.7
				c-0.1-3.5,0.1-13.7,4.9-22.1c-0.1,0.3-3.9,11.5-2.6,24.1c0.4,0.3,0.9,0.7,1.3,1c0.2,0.1,0.3,0.4,0.3,0.6c0,0,0.1,4.1,1.9,7.5
				c0,0.1,0,0.1,0.1,0.2c4.4-0.3,8.8-0.4,13.2-0.4c4.4,0,8.8,0.1,13.2,0.4c0-0.1,0-0.1,0.1-0.2c1.8-3.4,1.9-7.4,1.9-7.5
				c0-0.3,0.1-0.5,0.4-0.6c0.4-0.3,0.9-0.6,1.3-1C82.6,20,78.7,8.8,78.6,8.5c4.8,8.4,5,18.6,4.9,22.1c0.5-0.4,0.7-0.7,0.7-0.7
				c0,0,0,0,0,0c0,0,0,0,0,0c0,0,0,0,0,0c0,0,0.1,0,0.1-0.1c0,0,0,0,0,0c0,0,0.1,0,0.1,0c0,0,0,0,0,0c0.1,0,0.1,0,0.2,0c0,0,0,0,0,0
				c0,0,0.1,0,0.1,0c0,0,0,0,0,0l10.8,3.1c0.1-2.2,0.1-11.6-4.8-19.6c0.2,0.2,5.7,6.5,6.1,19.9l1.7,0.5c0.3,0.1,0.5,0.3,0.6,0.6
				c1.1,6.4,0.4,10.9,0.4,11.1c0,0,0,0.1,0,0.1C99.9,45.5,100.1,45.5,100.2,45.6z M98.3,45c0.1-0.7,0.5-4.6-0.4-10l-12.2-3.5
				c0.1,2.1,0.2,6.5-1,10.8c0,0.1,0,0.1-0.1,0.2c0.1,0,0.2,0,0.4,0c3.4,0.4,6.8,0.9,10.2,1.7C96.2,44.5,97.3,44.7,98.3,45z
				 M83.2,41.9c1-3.6,1.1-7.5,1-9.7c-0.8,0.7-1.9,1.7-3,2.4c-0.1,1.1-0.4,4.3-1.8,7.3c1.3,0.1,2.6,0.2,3.8,0.4
				C83.1,42.2,83.1,42.1,83.2,41.9z M49.5,42c-1.4-3-1.7-6.2-1.8-7.3c-1.1-0.8-2.2-1.7-3-2.4c-0.1,2.2,0,6.1,1,9.7
				c0,0.1,0,0.3,0,0.4C46.9,42.2,48.2,42.1,49.5,42z M44.2,42.5c0,0,0-0.1-0.1-0.1c-1.2-4.3-1.1-8.7-1-10.8L30.9,35
				c-0.8,5.3-0.4,9.2-0.4,10c1-0.3,2-0.5,3-0.8c1.7-0.4,3.4-0.7,5.1-1c1.7-0.3,3.4-0.5,5.1-0.7C44,42.5,44.1,42.5,44.2,42.5z"/>
		</g>
		<g id="XMLID_2_">
			<g>
				<path class="st7" d="M77.2,11.3v10.1h-7.2v-3h-1.6v13.6h2.4v7.6H58.4v-7.6h2.4V18.4h-1.6v3H52V11.3H77.2z M75.1,19.2v-5.8H72
					h-5.7H54.2v5.8h2.9v-3H63v17.9h-2.4v3.3h8.2v-3.3h-2.4V16.3h5.9v3H75.1z"/>
				<polygon class="st0" points="75.1,13.4 75.1,19.2 72.2,19.2 72.2,16.3 66.3,16.3 66.3,34.2 68.8,34.2 68.8,37.5 60.5,37.5 
					60.5,34.2 63,34.2 63,16.3 57.1,16.3 57.1,19.2 54.2,19.2 54.2,13.4 66.3,13.4 72,13.4 				"/>
			</g>
		</g>
		<g>
			<path class="st3" d="M18.8,55.2c1-0.2,2.5-0.5,4.2-0.9c-1.1,0.7-2.3,1.6-3.7,2.7L18.8,55.2z"/>
		</g>
		<g>
			<path class="st5" d="M57,82.9c0,0,0.3,1.9-2.3,2.7c-2.6,0.8-19.3,5.8-21.2,5.5c-1.9-0.3-6.7-3.5-6.7-3.5l-1.2-4.2l7.1,4.4
				L57,82.9z"/>
		</g>
		<g>
			<path class="st5" d="M71.9,82.6c0,0-0.2,1.9,2.5,2.6c2.7,0.7,19.5,4.9,21.4,4.6c1.9-0.4,6.6-3.8,6.6-3.8l1-4.2l-6.6,3.9
				L71.9,82.6z"/>
		</g>
		<g>
			<path class="st5" d="M17.4,79.5c0,0,2.3,4.6,6,3l2.7,1l-0.3,2l-5.6,0.7l-1.5-0.9L17.4,79.5z"/>
		</g>
		<g>
			<path class="st5" d="M111.8,78.2c0,0-3.8,4.8-7.5,3.2l-1.2,0.8l0.3,2l5.6,0.7l1.5-0.9L111.8,78.2z"/>
		</g>
		<g>
			<path class="st5" d="M53.5,114.5c0,0,13.7,6.9,29.1-2.5l-5-0.3c0,0-10.8,4.3-19.4,1.9L53.5,114.5z"/>
		</g>
		<g>
			<path class="st7" d="M67.4,101.8l0.9,1.1c0,0,2.1,2.5,4.7,5.1c1.7,1.7,3.8,2.5,6.1,2.5c0.8,0,1.7-0.1,2.5-0.3
				c0.8-0.2,1.7-0.4,2.5-0.6c3.2-0.8,6.8-1.6,8.6-2.1c0.3-0.1,0.7-0.2,1.1-0.3c2.3-0.5,5.5-1.3,7.2-4.7c1.3-2.5,3-5.9,4.3-8.3
				c-1.1,0.5-2.3,1.1-3.1,1.5c-1.3,0.7-2.9,1-5.1,1c-1.3,0-2.5-0.1-3.9-0.2c-2.8-0.3-7.5-0.8-7.5-0.8l-0.4,0l-0.3-0.2
				c0,0-4.2-3.3-7.5-5.9c-0.1-0.1-0.3-0.2-0.4-0.3c-0.3-0.3-0.3-0.3-0.6-0.3c-1.1,0-4.2,1-11,3.1l-0.4,0.1L65,91.9
				c0,0-4.5-1.7-9.8-1.7c-0.4,0-0.9,0-1.3,0c-0.5,0-3.5,1.5-7.4,7.5l-0.2,0.4l-0.4,0.1c-0.1,0-6.7,2.2-13.7,4.2l-0.5,0.1l-0.4-0.2
				c0,0-2.8-1.3-5.4-2.5c1.4,2.1,3.2,4.7,4.8,6.8c2.8,3.6,6.3,6.9,13.1,6.9c0.8,0,1.7-0.1,2.7-0.2c6.9-0.8,8.6-1.1,9.6-1.3
				c0.3-0.1,0.6-0.1,0.9-0.1c0.1,0,5.7-0.7,7.3-4.3c1.6-3.6,2-4.5,2-4.5l0.6-1.5c0,0,0.1-0.4,0.2-0.5c0,0,0,0,0,0l0,0
				C67.1,101.4,67.4,101.8,67.4,101.8z M24.6,33.1c-1.5,0.6-3,1.2-4.4,1.9c-1.5,0.7-2.9,1.4-4.2,2.2c-1.3,0.7-2.5,1.5-3.5,2.4
				c0,0.3-0.1,0.6-0.1,0.8c0,0.4-0.1,0.8-0.1,1.2C12.1,42.4,12,43.2,12,44c0,1.6,0.1,3.2,0.3,4.8c0.2,1.6,0.5,3.2,0.9,4.7
				c0.2,0.8,0.5,1.5,0.7,2.3c0.1,0.4,0.3,0.7,0.5,1.1c0.1,0.2,0.2,0.3,0.2,0.5l0.1,0.2c0.1,0.1,0.2,0.1,0.4,0.2l0.7,0.3
				c0.4,0.2,0.9,0.4,1.4,0.6c0,0,0.1,0,0.1-0.1L16,53.6c0.3-0.1,2.8-0.7,7.1-1.6c-0.4-0.1-0.7-0.1-1.1-0.2c-1-0.2-2-0.5-2.9-0.9
				c-0.5-0.2-0.9-0.4-1.4-0.7c-0.4-0.3-0.9-0.5-1.2-0.9c4.8,1.6,14.6,0.9,23.4-0.1c8-0.8,16-1.4,24.1-1.4c8.1,0,16.1,0.6,24.1,1.4
				c8.8,0.9,18.6,1.6,23.4,0.1c-0.3,0.4-0.8,0.7-1.2,0.9c-0.4,0.2-0.9,0.5-1.4,0.7c-0.9,0.4-1.9,0.7-2.9,0.9c-0.1,0-0.3,0.1-0.4,0.1
				c4.8,0.9,7.5,1.6,7.8,1.7l-1.3,4.8c0.3-0.1,0.5-0.2,0.8-0.3l0.7-0.3c0.1-0.1,0.2-0.1,0.4-0.2l0.1-0.2c0.1-0.2,0.2-0.3,0.2-0.5
				c0.2-0.4,0.3-0.7,0.5-1.1c0.3-0.7,0.5-1.5,0.7-2.3c0.4-1.5,0.7-3.1,0.9-4.7c0.2-1.6,0.3-3.2,0.3-4.8c0-0.8,0-1.6-0.1-2.4
				c0-0.4-0.1-0.8-0.1-1.2c0-0.3-0.1-0.6-0.1-0.8c-1.1-0.9-2.3-1.7-3.5-2.4c-1.4-0.8-2.8-1.5-4.2-2.2c-1.4-0.7-2.9-1.3-4.4-1.9
				c-0.7-0.3-1.5-0.6-2.3-0.9c-0.8-0.3-1.5-0.6-2.3-0.8c1.6,0.3,3.2,0.6,4.8,1c1,0.3,2,0.6,3.1,0.9c-7.2-18.8-24.4-31-43.1-31
				c-18.8,0-35.9,12.2-43.1,31c1-0.3,2-0.6,3-0.9c1.6-0.4,3.2-0.8,4.8-1c-0.8,0.3-1.5,0.6-2.3,0.8C26.1,32.5,25.3,32.8,24.6,33.1z
				 M119.2,43.9c0.1,1.7,0,3.5-0.2,5.2c-0.2,1.7-0.5,3.4-1,5.1c-0.2,0.8-0.5,1.7-0.8,2.5c-0.2,0.4-0.3,0.8-0.5,1.2
				c-0.1,0.2-0.2,0.4-0.3,0.6l-0.2,0.3c-0.1,0.1-0.1,0.2-0.2,0.3l-0.2,0.3l-0.3,0.1c-0.3,0.2-0.5,0.3-0.8,0.4l-0.8,0.3
				c-0.5,0.2-1,0.4-1.6,0.6c-0.4,0.1-0.7,0.3-1,0.4l-0.9,3.3c0,0-0.3-0.1-0.8-0.2l0,0.3c0.9,0.5,2.8,1.5,3.4,2
				c1.3,1.1,1.4,2.7,1.1,5.8c-0.1,1.6-0.7,4.7-1.4,7.6c-1.3,4.9-1.9,5.5-2.8,5.7c-0.4,0.1-1.1,0.2-1.8,0.2c-1.3,0-3.2,0-4.4-0.3
				c-0.3,1.1-1.2,4-3,7.7c0.1,0,0.2-0.1,0.3-0.1c2.2-1.2,6.4-3,6.6-3.1l3.3-1.5l-1.7,3.2c0,0.1-3.7,7-6,11.5c-2.2,4.5-6.4,5.4-8.9,6
				c-0.4,0.1-0.7,0.2-1,0.3c-1.8,0.5-5.4,1.4-8.7,2.1c0,0-0.1,0-0.1,0c-2,1.2-4.1,2.3-6.5,3.2c-8.6,3.3-17.8,3.1-26,0.1
				c-1.3,0.2-3.1,0.4-5.5,0.7c-1,0.1-2,0.2-3,0.2c-7.9,0-12-4-15.1-7.9c-3.3-4.2-7.2-10.4-7.4-10.7L18.9,94l3.9,1.8
				c1.9,0.8,7.4,3.4,9,4.2c0.1,0,0.3-0.1,0.4-0.1c-2.6-3.8-4.8-8.1-6.3-12.8c-1.3,0.4-3.3,0.7-4.9,0.7c-0.6,0-1.1,0-1.5-0.1
				c-0.9-0.2-1.9-1-3.2-5.8c-0.8-2.8-1.4-5.8-1.5-7.3c-0.3-3-0.3-4.7,1-5.7c0.8-0.6,3.3-2,3.9-2.3l-0.1-0.9c-8.2,4.8-13,9-13.1,9.1
				l-5.8,5.1l4.2-6.6c3.3-5.2,7.1-9.4,10.6-12.6c-0.1-0.1-0.3-0.1-0.4-0.2L14.1,60c-0.3-0.1-0.5-0.2-0.8-0.4L13,59.5l-0.2-0.3
				c-0.1-0.1-0.1-0.2-0.2-0.3l-0.2-0.3c-0.1-0.2-0.2-0.4-0.3-0.6c-0.2-0.4-0.4-0.8-0.5-1.2c-0.3-0.8-0.6-1.7-0.8-2.5
				c-0.5-1.7-0.8-3.4-1-5.1c-0.2-1.7-0.2-3.5-0.2-5.2c0-0.9,0.1-1.7,0.2-2.6c0.1-0.4,0.1-0.9,0.2-1.3c0.1-0.4,0.2-0.8,0.3-1.3
				l0.1-0.3l0.2-0.2c1.4-1.1,2.8-1.9,4.3-2.6c1.2-0.6,2.5-1.1,3.7-1.6c3.5-9.8,9.6-18.5,17.6-24.5C44.6,3.3,54.3,0,64.4,0
				c10.1,0,19.8,3.3,28,9.6c8,6,14,14.7,17.6,24.5c1.3,0.5,2.5,1,3.7,1.6c1.5,0.7,3,1.5,4.3,2.6l0.2,0.2l0.1,0.3
				c0.1,0.5,0.2,0.9,0.3,1.3c0.1,0.4,0.2,0.9,0.2,1.3C119,42.2,119.1,43.1,119.2,43.9z M112,72.4c0.3-3,0-3.6-0.3-3.9
				c-0.3-0.3-1.3-0.8-2.3-1.4l-1.6,11.5c0,0.2-0.2,0.4-0.3,0.6l-2.4,1.7c-0.2,0.9-0.3,1.4-0.5,2.3c1.3,0.3,3.6,0.6,4.6,0.4
				C110.2,82.5,111.7,76.1,112,72.4z M109,61.9l1.8-6.7c-2.6-0.6-7.3-1.6-13.7-2.5c-3.3,2.4-6.9,4.2-10.4,5.8
				C97.4,59.6,105.4,61.2,109,61.9z M106.2,78.1l2-14c-0.9-0.2-2-0.4-3.4-0.7L103,76.1c0,0.2-0.2,0.4-0.3,0.6l-6.8,4.8
				c-0.2,0.1-0.4,0.2-0.6,0.1l-20.5-2.3c-0.3,0-0.6-0.3-0.7-0.6l-3.7-12.2c-1-0.3-3.5-0.8-5.8-0.8c-2.2,0-4.8,0.6-5.8,0.8l-3.7,12.2
				c-0.1,0.2-0.2,0.4-0.4,0.5c-0.1,0-0.1,0.1-0.2,0.1l-20.5,4.6c-0.1,0-0.1,0-0.2,0c-0.2,0-0.3,0-0.5-0.1l-6.8-4.8
				c-0.2-0.1-0.3-0.3-0.3-0.6l-1.8-14.9c-0.8,0.1-1.4,0.3-2.1,0.4c-0.4,0.2-0.9,0.5-1.3,0.7L23,80.3l9.9,6.9l24.9-5.6l3.7-12.1
				c0.1-0.3,0.3-0.5,0.7-0.6c0.9-0.2,1.8-0.2,2.4-0.2c0.7,0,1.5,0.1,2.4,0.2c0.3,0,0.6,0.3,0.7,0.6L71.5,82l25.1,2.9L106.2,78.1z
				 M101.4,75.5l1.8-12.4c-5-0.9-12.3-2-21.3-2.7C73.8,63.2,67,64,66.6,64l-0.5,0c2.6,0.2,5,0.9,5.1,1c0.3,0.1,0.5,0.3,0.6,0.6
				l3.7,12.1l19.7,2.2L101.4,75.5z M102.8,82.5l-0.8,0.6l-2.2,1.6l-2.4,1.7c-0.2,0.1-0.4,0.2-0.6,0.1l-24.2-2.7l-1.8-0.2
				c-0.3,0-0.6-0.3-0.7-0.6l-3.8-12.5c-0.6-0.1-1.2-0.1-1.7-0.1c-0.5,0-1,0-1.7,0.1l-3.7,12.1c-0.1,0.3-0.3,0.5-0.6,0.6l-25.8,5.7
				c-0.1,0-0.1,0-0.2,0c-0.2,0-0.3,0-0.5-0.1l-0.9-0.7l-2.8-2v0l-1.1-0.8c0.1,0.3,0.2,0.5,0.3,0.8l0,0c0.2,0.6,2.4,6.9,6.8,13
				c4.7-1.4,8.8-2.7,10.1-3.1c2.7-4.1,6.5-8.2,9.1-8.3c0.5,0,0.9,0,1.4,0c1.3,0,2.6,0.1,3.7,0.2c-1-0.9-1.2-2-1.3-2.4
				c0,0,3.4,2.7,7.8,2.1c4.4-0.6,7.1-3.1,7.1-3.1s0,1.8-1.9,3.3c3.7-1.1,5.2-1.5,6.2-1.5c1.1,0,1.7,0.5,2.2,0.9
				c0.1,0.1,0.2,0.2,0.3,0.2c2.8,2.2,6.2,4.9,7.2,5.7c1.1,0.1,4.8,0.5,7.1,0.8c1.3,0.1,2.5,0.2,3.7,0.2c0.4,0,0.7,0,1.1,0
				c1.5-2.9,2.9-6.2,4-9.9C102.5,83.7,102.7,83.1,102.8,82.5z M93.9,51.9C93.9,51.9,93.9,51.9,93.9,51.9c-2-0.2-3.9-0.3-5.8-0.4
				c-2.7-0.2-5.4-0.3-8.1-0.4c-0.2,0.2-0.5,0.7-0.9,1.3c-1.5,2-4.4,5.6-8.1,8.7c5.3-0.9,14.5-3.3,22.4-8.8
				C93.5,52.2,93.7,52,93.9,51.9z M76.1,52.5c0.2-0.3,0.4-0.5,0.6-0.8c-1.9,0.2-3.9,0.5-5.7,0.8c-6.4,1.2-12.3,3.2-17.3,5.2
				c3.5-0.2,7.2-0.3,11-0.3c2.3,0,4.6,0,6.8,0.1C73.4,55.8,75,53.9,76.1,52.5z M78.3,113c-2.7-0.2-5.1-1.3-7.1-3.2
				c-0.1-0.1-0.2-0.2-0.3-0.3c-0.9,0.2-1.9,0.3-2.9,0.4c-0.4,0-0.8,0.1-1.2,0.1l-0.6,0l-0.2,0c-2.6,3.9-8.4,4.6-8.7,4.7
				c-0.2,0-0.4,0.1-0.7,0.1c3.2,0.9,6.5,1.3,9.8,1.1C69.5,115.6,73.8,114.8,78.3,113z M67.9,108.6c0.6,0,1.3-0.1,1.9-0.2
				c-0.8-0.9-1.5-1.6-2.1-2.3c-0.3,0.6-0.7,1.5-1.1,2.6h0.1C67.1,108.7,67.5,108.6,67.9,108.6z M66,61.9c1.1-0.7,2.1-1.4,3.1-2.2
				c-1.4,0-2.9,0-4.3,0c-6,0-11.6,0.2-16.7,0.6c-5.1,2.5-8.2,4.6-8.3,4.6l-4.9,3.3l3.4-4.8c0.6-0.8,1.1-1.6,1.8-2.3
				c-5.7,0.6-10.4,1.4-13.9,2l1.8,14.6l6.2,4.3l19.7-4.4l3.7-12.1c0.1-0.2,0.2-0.4,0.4-0.5c0.1,0,0.1-0.1,0.2-0.1
				c0.1,0,2.1-0.6,4.4-0.9L66,61.9z M68.2,50.8c-1.4,0-2.7,0-4.1,0h0c-2,0-4,0-6,0.1l-3.7,1.8c0,0,0,0-0.1,0
				c-0.6,0.3-5.4,2.7-10,7.1c4.1-2.2,10.2-5,17.3-7.2C63.7,51.9,65.9,51.3,68.2,50.8z M42.2,58.6c1.9-1.9,3.9-3.5,5.7-4.7
				c-6.8,1.6-13,3.9-18.5,6.4C33,59.7,37.3,59.1,42.2,58.6z M43.5,52.7c2.3-0.6,4.6-1.2,7-1.7c-3.4,0.1-6.9,0.3-10.3,0.5
				c-2,0.1-4,0.2-6,0.4c-1,0.1-2,0.2-3,0.3c-0.3,0-0.6,0.1-0.8,0.1c-2.6,1.6-12.5,7.8-19.4,16C17.7,63.6,29.2,56.7,43.5,52.7z
				 M25.2,84.8c-0.1-0.4-0.3-0.8-0.4-1.2l-3.1-2.1c-0.2-0.1-0.3-0.3-0.3-0.6l-1.5-12.1c-1.1,0.6-2.4,1.3-2.7,1.6
				c-0.3,0.2-0.5,0.9-0.2,3.8c0.4,3.6,2.2,10.3,3.2,11.3C21.3,85.6,23.9,85.2,25.2,84.8z M22.9,54.4c-1.7,0.3-3.1,0.6-4.2,0.9
				l0.5,1.9C20.6,56,21.9,55.1,22.9,54.4z"/>
		</g>
	</g>
</g>
<g id="TravisCI">
	<g>
		<path class="st11" d="M152,44.1h-13.8v-7.2h36v7.2h-13.7v40.6H152V44.1z"/>
	</g>
	<g>
		<path class="st11" d="M173.5,48.8h6.9l0.6,6.4h0.3c2.6-4.7,6.4-7.2,10.2-7.2c1.8,0,3,0.2,4.1,0.7l-1.5,7.3
			c-1.2-0.4-2.2-0.6-3.7-0.6c-2.8,0-6.3,2-8.5,7.4v21.9h-8.4V48.8z"/>
	</g>
	<g>
		<path class="st11" d="M218.5,61.8c-0.1-3.8-1.7-7-6.5-7c-3.6,0-6.9,1.6-10.1,3.5l-3.1-5.6c3.9-2.5,9-4.7,14.7-4.7
			c9,0,13.4,5.5,13.4,15.5v21.3H220l-0.7-3.9h-0.2c-3.2,2.7-6.9,4.8-11.1,4.8c-6.3,0-10.7-4.2-10.7-10.5
			C197.4,67.4,203.8,63.4,218.5,61.8z M210.7,79c2.9,0,5.2-1.5,7.8-3.9v-8c-9.7,1.2-12.9,3.8-12.9,7.4C205.5,77.6,207.7,79,210.7,79
			z"/>
	</g>
	<g>
		<path class="st11" d="M229.3,48.8h8.5l5.7,18.6c0.9,3.5,2,7.2,3,10.8h0.3c1-3.7,2-7.3,3.1-10.8l5.7-18.6h8.1l-12.2,35.9h-9.7
			L229.3,48.8z"/>
	</g>
	<g>
		<path class="st11" d="M266.8,37.8c0-2.8,2.2-4.8,5.2-4.8s5.2,2,5.2,4.8c0,2.8-2.2,4.7-5.2,4.7S266.8,40.6,266.8,37.8z M267.8,48.8
			h8.4v35.9h-8.4V48.8z"/>
	</g>
	<g>
		<path class="st11" d="M284.9,75.2c3.2,2.5,6.3,4,9.9,4c3.9,0,5.7-1.8,5.7-4.3c0-3-3.9-4.3-7.7-5.8c-4.7-1.8-10.1-4.5-10.1-10.4
			c0-6.3,5-10.7,13.1-10.7c5,0,9,2,11.9,4.3l-3.9,5.1c-2.5-1.8-5-3.1-7.9-3.1c-3.6,0-5.3,1.7-5.3,3.9c0,2.8,3.6,3.9,7.5,5.3
			c4.9,1.8,10.3,4.2,10.3,10.9c0,6.1-4.9,11.1-14,11.1c-4.9,0-10.1-2.1-13.6-5L284.9,75.2z"/>
	</g>
	<g>
		<path class="st11" d="M349.7,36.1c5.8,0,10.6,2.8,13.6,6.1l-4.7,5.3c-2.5-2.4-5.2-3.9-8.8-3.9c-7.8,0-13.4,6.6-13.4,17.3
			c0,10.9,5.2,17.5,13.1,17.5c4.2,0,7.4-1.8,10.1-4.7l4.7,5.2c-3.9,4.5-8.8,6.9-14.9,6.9c-12.1,0-21.7-8.8-21.7-24.6
			C327.7,45.3,337.5,36.1,349.7,36.1z"/>
	</g>
	<g>
		<path class="st11" d="M369.5,36.9h8.5v47.8h-8.5V36.9z"/>
	</g>
</g>
</svg>
