<svg xmlns="http://www.w3.org/2000/svg" viewBox="-506.8 377.5 17.5 19.5"><style>.st0{fill:#A5ACAD;}</style><path class="st0" d="M-499.4 397c-4.1 0-7.4-3.3-7.4-7.4s3.3-7.4 7.4-7.4 7.4 3.3 7.4 7.4-3.4 7.4-7.4 7.4zm0-13.4c-3.3 0-6.1 2.7-6.1 6.1s2.7 6.1 6.1 6.1 6.1-2.7 6.1-6.1-2.8-6.1-6.1-6.1z"/><path class="st0" d="M-497.1 392c-.1 0-.2 0-.4-.1l-2.6-1.7c-.2-.1-.3-.3-.3-.5v-4.1c0-.4.3-.6.6-.6s.6.3.6.6v3.8l2.3 1.5c.3.2.4.6.2.9.1.1-.2.2-.4.2zM-499.4 381.9c-1.2 0-2.2-1-2.2-2.2s1-2.2 2.2-2.2c1.2 0 2.2 1 2.2 2.2s-1 2.2-2.2 2.2zm0-3.1c-.5 0-.9.4-.9.9s.4.9.9.9.9-.4.9-.9-.4-.9-.9-.9zM-491.3 387.6c-.3 0-.7-.2-.8-.5l-1.1-2.1c-.2-.5-.1-1 .4-1.3l1.1-.6c.5-.2 1-.1 1.3.4l1.1 2.1c.2.5.1 1-.4 1.3l-1.1.6c-.2.1-.4.1-.5.1zm-.7-3l.8 1.5.4-.2-.8-1.5-.4.2z"/></svg>