<svg version="1.1" id="Layer_1" xmlns="http://www.w3.org/2000/svg" xmlns:xlink="http://www.w3.org/1999/xlink" x="0px" y="0px"
	 viewBox="0 0 20 20" enable-background="new 0 0 20 20" xml:space="preserve">
  <g id="Cancelled">
  	<path fill="#A7AEAE" d="M10,3.3c-3.7,0-6.6,3-6.6,6.7s3,6.7,6.6,6.7s6.6-3,6.6-6.7S13.7,3.3,10,3.3z M15.4,10
  		c0,1.3-0.5,2.5-1.3,3.4L6.5,6C7.5,5.2,8.7,4.7,10,4.7C13,4.7,15.4,7,15.4,10z M4.6,10c0-1.2,0.4-2.2,1-3.1l7.5,7.4
  		c-0.9,0.7-2,1-3.2,1C7,15.3,4.6,13,4.6,10z"/>
  </g>
</svg>
