<svg xmlns="http://www.w3.org/2000/svg" viewBox="0 0 15 10.9"><style>.st0{fill:#f1f1f1;}</style><g id="removelog"><path class="st0" d="M12.3 1.8h1.9c.3 0 .6-.3.6-.6s-.3-.6-.6-.6h-1.9c-.3 0-.6.3-.6.6 0 .4.3.6.6.6zM9.7 3.5c-.3 0-.6.3-.6.6s.3.6.6.6h4.8c.3 0 .6-.3.6-.6s-.3-.6-.6-.6H9.7zM14.4 6.3H9.7c-.3 0-.6.3-.6.6s.3.6.6.6h4.7c.3 0 .6-.3.6-.6 0-.4-.3-.6-.6-.6zM13.2 9.1h-.7c-.3 0-.6.3-.6.6s.3.6.6.6h.7c.3 0 .6-.3.6-.6 0-.4-.3-.6-.6-.6z"/><path class="st0" d="M6.3 5.4L10.7 1c.2-.2.2-.6 0-.9-.2-.2-.6-.2-.9 0L5.4 4.5 1.1.2C.9 0 .5 0 .2.2s-.2.6 0 .9l4.4 4.4L.2 9.8c-.2.2-.2.6 0 .9.1.1.3.2.4.2s.3-.1.4-.2l4.4-4.4 4.4 4.4c.1.1.3.2.4.2.2 0 .3-.1.4-.2.2-.2.2-.6 0-.9L6.3 5.4z"/></g></svg>