<?xml version="1.0" encoding="utf-8"?>
<!-- Generator: Adobe Illustrator 16.0.4, SVG Export Plug-In . SVG Version: 6.00 Build 0)  -->
<!DOCTYPE svg PUBLIC "-//W3C//DTD SVG 1.1//EN" "http://www.w3.org/Graphics/SVG/1.1/DTD/svg11.dtd">
<svg version="1.1" id="Layer_1" xmlns="http://www.w3.org/2000/svg" xmlns:xlink="http://www.w3.org/1999/xlink" x="0px" y="0px"
	 width="170.08px" height="170.08px" viewBox="0 0 170.08 170.08" enable-background="new 0 0 170.08 170.08" xml:space="preserve">
<g id="API">
	<path fill="#A7AEAE" d="M137.765,132.663H32.315c-6.803,0-12.756-5.953-12.756-13.607V72.284c0-6.803,5.953-13.606,12.756-13.606
		h2.551v-8.504c0-6.803,5.953-13.606,12.756-13.606h21.26c6.803,0,12.756,5.953,12.756,13.606v8.504h5.103v-8.504
		c0-6.803,5.953-13.606,12.756-13.606h22.11c6.804,0,12.756,5.953,12.756,13.606v8.504h4.252c6.804,0,12.756,5.953,12.756,13.606
		v47.622C149.671,126.71,144.567,132.663,137.765,132.663z M32.315,69.733c0,0-1.701,0.85-1.701,2.551v47.622
		c0,0,0,2.552,1.701,2.552h105.449c0,0,1.701-0.851,1.701-2.552V72.284c0,0,0-2.551-1.701-2.551H127.56
		c-3.4,0-5.102-2.551-5.102-5.103V50.174c0,0,0-2.551-1.701-2.551h-22.11c0,0-1.7,0.85-1.7,2.551V63.78
		c0,3.401-2.552,5.102-5.104,5.102H75.686c-3.401,0-5.103-2.551-5.103-5.102V50.174c0,0,0-2.551-1.701-2.551h-21.26
		c0,0-1.701,0.85-1.701,2.551V63.78c0,3.401-2.551,5.102-5.102,5.102h-8.504V69.733z"/>
</g>
</svg>
