<?xml version="1.0" encoding="utf-8"?>
<!-- Generator: Adobe Illustrator 19.1.0, SVG Export Plug-In . SVG Version: 6.00 Build 0)  -->
<svg version="1.1" id="Layer_1" xmlns="http://www.w3.org/2000/svg" xmlns:xlink="http://www.w3.org/1999/xlink" x="0px" y="0px"
	 viewBox="-505.3 376 18.2 16.3" style="enable-background:new -505.3 376 18.2 16.3;" xml:space="preserve">
<style type="text/css">
	.st0{fill:#939798;}
</style>
<g id="fingerprint">
	<path class="st0" d="M-496.9,381.2c-2.5,0.5-2.7,2.7-2.9,4.7c-0.2,1.5-0.4,3.1-1.4,4.2c-0.2,0.3-0.2,0.7,0,0.9
		c0.3,0.2,0.7,0.2,0.9,0c1.3-1.5,1.5-3.3,1.7-5c0.2-2.1,0.4-3.2,1.9-3.5c0.8-0.2,1.5,0,1.9,0.4c1.3,1.4,0.7,5.9,0,8.4
		c-0.1,0.3,0.1,0.7,0.4,0.8c0.1,0,0.1,0,0.2,0c0.3,0,0.5-0.2,0.6-0.5c0.1-0.3,2-7.2-0.3-9.7C-494.3,381.5-495.2,380.9-496.9,381.2z"
		/>
	<path class="st0" d="M-496.8,378.6c-4.4,0.6-5.3,4.5-5.9,7.3c-0.2,1.1-0.4,2.1-0.8,2.7c-0.2,0.3-0.1,0.7,0.3,0.9
		c0.3,0.2,0.7,0.1,0.9-0.3c0.4-0.8,0.7-1.9,0.9-3.1c0.6-2.9,1.3-5.8,4.8-6.3c1.5-0.2,2.6,0.1,3.5,1c2.6,2.6,1.7,9.4,1.7,9.4
		c-0.1,0.4,0.2,0.7,0.5,0.7c0,0,0.1,0,0.1,0c0.3,0,0.6-0.2,0.6-0.6c0-0.3,1.1-7.5-2-10.6C-493.4,378.7-494.9,378.3-496.8,378.6z"/>
	<path class="st0" d="M-490.1,378c-1.6-1.5-3.7-2.2-6.4-1.9c-9.4,0.9-8.8,10.6-8.8,10.7c0,0.4,0.3,0.6,0.7,0.6
		c0.4,0,0.6-0.3,0.6-0.7c0-0.3-0.5-8.5,7.6-9.3c2.3-0.2,4.1,0.3,5.4,1.6c2.8,2.7,2.6,8.1,2.6,8.7c0,0.4,0.3,0.7,0.6,0.7c0,0,0,0,0,0
		c0.3,0,0.6-0.3,0.6-0.6C-487.1,386.6-486.9,381-490.1,378z"/>
	<path class="st0" d="M-496.2,384.4c-0.4,0-0.6,0.4-0.6,0.7c0,0,0.4,3.4-1.4,6.1c-0.2,0.3-0.1,0.7,0.2,0.9c0.1,0.1,0.2,0.1,0.4,0.1
		c0.2,0,0.4-0.1,0.5-0.3c2-3.1,1.6-6.8,1.6-7C-495.5,384.6-495.8,384.4-496.2,384.4z"/>
</g>
</svg>
