<?xml version="1.0" encoding="utf-8"?>
<!-- Generator: Adobe Illustrator 19.1.0, SVG Export Plug-In . SVG Version: 6.00 Build 0)  -->
<svg version="1.1" id="Layer_1" xmlns="http://www.w3.org/2000/svg" xmlns:xlink="http://www.w3.org/1999/xlink" x="0px" y="0px"
	 viewBox="-502.4 377 12.1 15" style="enable-background:new -502.4 377 12.1 15;" xml:space="preserve">
<style type="text/css">
	.st0{fill:#939798;}
</style>
<g id="disabledtrash">
	<path class="st0" d="M-492.3,382.7l-0.6,8.2h-6.6l0-0.4l-0.8,0.9c-0.1,0.1-0.1,0.1-0.2,0.2c0.1,0.2,0.3,0.4,0.5,0.4h7.7
		c0.3,0,0.5-0.2,0.6-0.5l0.8-9.6c0-0.1,0-0.3-0.1-0.4L-492.3,382.7z"/>
	<path class="st0" d="M-496.1,381.4h-4.7c-0.2,0-0.3,0.1-0.4,0.2c-0.1,0.1-0.2,0.3-0.1,0.4l0.4,4.7l1-1.1l-0.2-3h3.1L-496.1,381.4z"
		/>
	<path class="st0" d="M-501.8,380.6h3.5h3l1.8-1.9v-0.3c0-0.7-0.6-1.3-1.3-1.3h-2.7c-0.7,0-1.3,0.6-1.3,1.3v1.1h-2.9
		c-0.3,0-0.6,0.3-0.6,0.6S-502.1,380.6-501.8,380.6z M-497.8,378.4c0-0.1,0.1-0.2,0.2-0.2h2.7c0.1,0,0.2,0.1,0.2,0.2v1.1h-3.1V378.4
		z"/>
	<path class="st0" d="M-497.4,389.8C-497.3,389.8-497.3,389.8-497.4,389.8c0.3,0,0.4-0.2,0.4-0.5l-0.1-1.5l-0.8,0.9l0,0.7
		C-497.8,389.6-497.6,389.8-497.4,389.8z"/>
	<path class="st0" d="M-495.1,389.8c0.2,0,0.4-0.2,0.4-0.4l0.3-4.4l-0.9,1l-0.2,3.3C-495.6,389.5-495.4,389.7-495.1,389.8
		C-495.1,389.8-495.1,389.8-495.1,389.8z"/>
	<path class="st0" d="M-490.5,378.1c-0.2-0.2-0.6-0.2-0.8,0l-10.9,11.7c-0.2,0.2-0.2,0.6,0,0.8c0.1,0.1,0.2,0.2,0.4,0.2
		c0.2,0,0.3-0.1,0.4-0.2l10.9-11.7C-490.3,378.6-490.3,378.3-490.5,378.1z"/>
</g>
</svg>
