<svg id="scale" xmlns="http://www.w3.org/2000/svg" viewBox="0 0 18.3 16.5"><style>.st0{fill:#A7AEAE;}</style><path class="st0" d="M18.3 10.8v-.1-.1l-3.1-6c0-.2-.2-.4-.5-.5L9.8 3V.6c0-.3-.3-.6-.6-.6s-.6.3-.6.6v2.1L3.3 1.5c-.2 0-.4 0-.5.1l-.3.3-2.5 6v.2c.1 1.8 1.5 3.3 3.4 3.3S6.7 10 6.8 8.2v-.1V8L4.2 2.9l4.4 1v11.4H6c-.3 0-.6.3-.6.6s.3.6.6.6h6.5c.3 0 .6-.3.6-.6s-.3-.6-.6-.6H9.8V4.2l4.1.9-2.3 5.5v.2c.1 1.8 1.5 3.3 3.4 3.3s3.3-1.4 3.3-3.3zM3.1 3.6l2 4H1.5l1.6-4zm.3 6.6c-1 0-1.8-.6-2.1-1.5h4.1c-.2.9-1.1 1.5-2 1.5zm13.3 0H13l1.6-4 2.1 4zM15 12.9c-1 0-1.8-.6-2.1-1.5H17c-.3.9-1.1 1.5-2 1.5z"/></svg>