<?xml version="1.0" encoding="utf-8"?>
<!-- Generator: Adobe Illustrator 19.1.0, SVG Export Plug-In . SVG Version: 6.00 Build 0)  -->
<svg version="1.1" id="Layer_1" xmlns="http://www.w3.org/2000/svg" xmlns:xlink="http://www.w3.org/1999/xlink" x="0px" y="0px"
	 viewBox="0 0 15 10.9" style="enable-background:new 0 0 15 10.9;" xml:space="preserve">
<style type="text/css">
	.st0{fill:#949899;}
</style>
<g id="removelog">
	<path class="st0" d="M12.3,1.8h1.9c0.3,0,0.6-0.3,0.6-0.6c0-0.3-0.3-0.6-0.6-0.6h-1.9c-0.3,0-0.6,0.3-0.6,0.6
		C11.7,1.6,12,1.8,12.3,1.8z"/>
	<path class="st0" d="M9.7,3.5c-0.3,0-0.6,0.3-0.6,0.6c0,0.3,0.3,0.6,0.6,0.6h4.8c0.3,0,0.6-0.3,0.6-0.6c0-0.3-0.3-0.6-0.6-0.6H9.7z
		"/>
	<path class="st0" d="M14.4,6.3H9.7c-0.3,0-0.6,0.3-0.6,0.6c0,0.3,0.3,0.6,0.6,0.6h4.7c0.3,0,0.6-0.3,0.6-0.6
		C15,6.5,14.7,6.3,14.4,6.3z"/>
	<path class="st0" d="M13.2,9.1h-0.7c-0.3,0-0.6,0.3-0.6,0.6c0,0.3,0.3,0.6,0.6,0.6h0.7c0.3,0,0.6-0.3,0.6-0.6
		C13.8,9.3,13.5,9.1,13.2,9.1z"/>
	<path class="st0" d="M6.3,5.4l4.4-4.4c0.2-0.2,0.2-0.6,0-0.9c-0.2-0.2-0.6-0.2-0.9,0L5.4,4.5L1.1,0.2c-0.2-0.2-0.6-0.2-0.9,0
		s-0.2,0.6,0,0.9l4.4,4.4L0.2,9.8c-0.2,0.2-0.2,0.6,0,0.9c0.1,0.1,0.3,0.2,0.4,0.2s0.3-0.1,0.4-0.2l4.4-4.4l4.4,4.4
		c0.1,0.1,0.3,0.2,0.4,0.2c0.2,0,0.3-0.1,0.4-0.2c0.2-0.2,0.2-0.6,0-0.9L6.3,5.4z"/>
</g>
</svg>
