<svg xmlns="http://www.w3.org/2000/svg" viewBox="0 0 15 14.8"><style>.st0{fill:#949899;}</style><path class="st0" d="M6 14.8c-.1 0-.1 0 0 0-3.5-.7-6-3.8-6-7.3C0 3.4 3.4 0 7.5 0S15 3.4 15 7.5c0 3.3-2.1 6.2-5.3 7.2-.1 0-.2 0-.3-.1-.1-.1-.2-.2-.2-.3v-2.7c0-.3 0-.5-.1-.7 0-.1-.1-.2-.1-.2l-.1-.1c-.1-.1-.1-.3-.1-.4.1-.1.2-.2.3-.2h.2c.5-.1.9-.2 1.3-.4.2-.1.4-.3.5-.4.1-.2.3-.4.3-.7.1-.2.1-.5.1-.8v-.5c-.1-.5-.2-.8-.5-1.2 0-.2-.1-.4 0-.6V5.1c0-.3 0-.5-.1-.8-.2 0-.3.1-.5.2s-.3.2-.5.3l-.1.1c-.1.1-.3.1-.4.1-.3-.1-.6-.1-1-.2H7.1c-.3 0-.7.1-1 .2-.1 0-.2 0-.4-.1-.3-.2-.5-.3-.8-.4-.1 0-.2-.1-.4-.1 0 .2-.1.3-.1.5s0 .3.1.5v.1c0 .1 0 .3-.1.4V6s-.1.1-.1.2c-.2.2-.3.4-.3.8v.8c0 .2.1.5.1.8.1.2.2.4.4.6.1.1.3.3.4.3.3.2.7.4 1.1.4.1.1.4.1.4.1.1 0 .2.1.3.2.1.1.1.2.1.3 0 .1-.2.7-.7 1-.5.3-1.3.3-1.8-.2l-.2-.2c-.1-.2-.4-.6-.6-.7h-.1s0 .3.1.4c.1.1.1.2.2.2.1.2.3.4.3.6.3.6.7.7.8.8.3.1.8 0 1 0 .1 0 .2 0 .3.1.1.1.1.2.1.3v1.7c0 .1-.1.2-.1.3H6zM7.5.8C3.8.8.8 3.8.8 7.5c0 3 2 5.6 4.8 6.4v-.8c-.3 0-.6 0-.9-.1-.3-.1-.9-.3-1.3-1.2 0-.1-.2-.3-.3-.4-.1-.1-.1-.2-.2-.3-.3-.4-.3-1 0-1.3.1-.2.5-.3.8-.1.1 0 .2.1.3.1l-.1-.1c-.2-.3-.4-.6-.5-.9-.1-.3-.2-.6-.2-1 0-.3-.1-.6 0-1s.2-.8.4-1.1c0-.1.1-.1.1-.2v-.1c0-.2-.1-.5-.1-.7 0-.3.1-.5.2-.9.2-.1.3-.2.5-.2s.6 0 .9.2c.3.1.6.2.8.4.3-.1.7-.1 1.1-.2h1.4c.3 0 .7.1 1 .2l.2-.1c.1-.1.3-.2.5-.2.3-.1.5-.2.8-.3h.2c.2 0 .4.1.5.3.1.4.3.9.2 1.4V5.6c.2.4.4.9.5 1.4v.6c0 .4-.1.7-.2 1-.1.4-.3.7-.5 1-.2.3-.5.5-.7.6-.4.2-.8.4-1.2.5.1.3.2.5.2.9v2.2c2.6-1 4.3-3.5 4.3-6.3C14.2 3.8 11.2.8 7.5.8zM4.3 10c.2.2.3.4.5.6 0 .1.1.1.1.1.2.3.6.3.8.1l.1-.1h-.1c-.5-.1-.9-.3-1.3-.5 0-.1-.1-.1-.1-.2z" id="circledgithub"/></svg>