<?xml version="1.0" encoding="utf-8"?>
<!-- Generator: Adobe Illustrator 19.1.0, SVG Export Plug-In . SVG Version: 6.00 Build 0)  -->
<svg version="1.1" id="Layer_1" xmlns="http://www.w3.org/2000/svg" xmlns:xlink="http://www.w3.org/1999/xlink" x="0px" y="0px"
	 viewBox="0 0 17.3 8.3" style="enable-background:new 0 0 17.3 8.3;" xml:space="preserve">
<style type="text/css">
	.st0{fill:#8A8E8E;}
</style>
<g>
	<g>
		<g>
			<path class="st0" d="M0.7,8.3c-0.2,0-0.3-0.1-0.5-0.2c-0.3-0.3-0.3-0.7,0-0.9l5-5c0.2-0.2,0.7-0.2,0.9,0l5,5
				c0.3,0.3,0.3,0.7,0,0.9c-0.3,0.3-0.7,0.3-0.9,0L5.7,3.5L1.1,8.1C1,8.2,0.8,8.3,0.7,8.3z"/>
		</g>
		<g>
			<path class="st0" d="M16.7,6.3c-0.2,0-0.3-0.1-0.5-0.2l-4.6-4.6L9.9,3.3C9.7,3.5,9.3,3.5,9,3.3S8.8,2.6,9,2.4l2.2-2.2
				c0.2-0.2,0.7-0.2,0.9,0l5,5c0.3,0.3,0.3,0.7,0,0.9C17,6.2,16.8,6.3,16.7,6.3z"/>
		</g>
	</g>
</g>
</svg>
