<?xml version="1.0" encoding="utf-8"?>
<!-- Generator: Adobe Illustrator 19.1.0, SVG Export Plug-In . SVG Version: 6.00 Build 0)  -->
<svg version="1.1" id="Layer_1" xmlns="http://www.w3.org/2000/svg" xmlns:xlink="http://www.w3.org/1999/xlink" x="0px" y="0px"
	 viewBox="-501 376.4 11.1 15" style="enable-background:new -501 376.4 11.1 15;" xml:space="preserve">
<style type="text/css">
	.st0{fill:#939798;}
</style>
<path id="flag" class="st0" d="M-492.5,380.3l2.5-2.4c0.2-0.2,0.2-0.4,0.1-0.6c-0.1-0.2-0.3-0.4-0.5-0.4l-9.9-0.5
	c-0.1,0-0.3,0.1-0.4,0.2c-0.1,0.1-0.2,0.3-0.2,0.4v0.4v6.7v6.8c0,0.3,0.3,0.6,0.6,0.6s0.6-0.3,0.6-0.6v-6.2l9.4-0.5
	c0.2,0,0.4-0.2,0.5-0.4c0.1-0.2,0-0.5-0.1-0.6L-492.5,380.3z M-499.8,383.4v-5.8l7.9,0.4l-1.9,1.8c-0.2,0.2-0.2,0.6,0,0.8l2.1,2.3
	L-499.8,383.4z"/>
</svg>
