<svg xmlns="http://www.w3.org/2000/svg" viewBox="0 0 14.2 15"><style>.st0{fill:#40a3ad;}</style><path class="st0" d="M7.9 15H6.3c-.9 0-1.6-.7-1.6-1.6v-.9c-.2-.1-.4-.2-.5-.3l-.7.4c-.8.5-1.8.2-2.3-.6l-.8-1.4c-.6-.7-.4-1.7.4-2.2l.8-.4v-.5-.4l-.8-.4c-.4-.2-.6-.6-.8-1-.1-.4 0-.9.2-1.3L1.1 3c.2-.4.6-.6 1-.8.4-.1.9-.1 1.2.2l.7.5c.2-.1.4-.3.6-.4v-.9C4.7.7 5.4 0 6.3 0h1.6c.9 0 1.6.7 1.6 1.6v.9c.2.1.4.2.5.3l.8-.5c.4-.2.8-.3 1.2-.2.4.1.8.4 1 .7l1 1.5c.5.8.2 1.8-.6 2.3l-.7.4v.9l.7.4c.8.5 1 1.5.6 2.2l-.8 1.5c-.2.4-.6.6-1 .8-.4.1-.9.1-1.2-.2l-.8-.4-.6.3v.9c0 .9-.8 1.6-1.7 1.6zm-3.7-4.4l.3.3c.3.3.7.4 1 .6l.4.2v1.7c0 .2.2.3.4.3h1.6c.2 0 .4-.2.4-.3v-1.7l.4-.2c.3-.2.9-.5 1.1-.6l.3-.3 1.5.9c.1.1.2 0 .3 0 .1 0 .2-.1.2-.2l.8-1.4c.1-.2 0-.4-.1-.5l-1.5-.9.1-.4c0-.2.1-.4.1-.6 0-.2 0-.5-.1-.7l-.1-.4 1.5-.9c.1-.1.2-.3.1-.5L12 3.6c-.1-.1-.2-.1-.2-.2h-.3l-1.5.9-.3-.2c-.2-.2-.7-.5-1-.6l-.4-.1V1.6c0-.2-.2-.3-.4-.3H6.3c-.2 0-.4.2-.4.3v1.7l-.4.2c-.3.2-.7.4-1 .6l-.4.3-1.5-.9c-.1-.1-.2 0-.3 0-.1 0-.2.1-.2.2l-.8 1.4c-.1.1 0 .2 0 .3 0 .1.1.2.2.2l1.5.8-.1.5c0 .2-.1.4-.1.6 0 .2 0 .5.1.7l.1.4-1.5.9c-.2.1-.2.3-.1.5l.8 1.4c.1.2.3.2.5.1l1.5-.9zm2.9-.4c-1.5 0-2.7-1.2-2.7-2.7s1.2-2.7 2.7-2.7c1.5 0 2.7 1.2 2.7 2.7s-1.2 2.7-2.7 2.7zm0-4.1c-.8 0-1.4.6-1.4 1.4s.6 1.4 1.4 1.4c.8 0 1.4-.6 1.4-1.4s-.6-1.4-1.4-1.4z" id="settingscog"/></svg>