<svg xmlns="http://www.w3.org/2000/svg" viewBox="-289 191 20 20"><style>.st0{fill:#A5ACAD;}</style><path class="st0" d="M-272.4 198.4h-3.4l.3-3.3c0-.3-.2-.6-.5-.6s-.6.2-.6.5l-.3 3.4h-3.2l.3-3.6c0-.3-.2-.6-.5-.6s-.6.2-.6.5l-.3 3.7h-3.2c-.3 0-.5.2-.5.6 0 .3.2.5.5.5h3.1l-.2 2.9h-3.5c-.3 0-.5.2-.5.6 0 .3.2.5.5.5h3.4l-.3 3.3c0 .3.2.6.5.6s.5-.2.5-.5l.3-3.4h3.2l-.3 3.6c0 .3.2.6.5.6s.5-.2.5-.5l.3-3.7h3.2c.3 0 .5-.2.5-.6 0-.3-.2-.5-.5-.5h-3.1l.2-2.9h3.5c.3 0 .5-.2.5-.6.3-.2 0-.5-.3-.5zm-4.8 4h-3.2l.2-2.9h3.2l-.2 2.9z"/></svg>