<svg version="1.1" id="Layer_1" x="0px" y="0px"
	 viewBox="-289 191 20 20" style="enable-background:new -289 191 20 20;" xml:space="preserve">
	<g>
		<path fill="#A5ACAD" class="st0" d="M-278.9,207.7c-3.7,0-6.7-3-6.7-6.7s3-6.7,6.7-6.7s6.7,3,6.7,6.7S-275.2,207.7-278.9,207.7z M-278.9,195.4
			c-3.1,0-5.6,2.5-5.6,5.6s2.5,5.6,5.6,5.6c3.1,0,5.6-2.5,5.6-5.6S-275.8,195.4-278.9,195.4z"/>
		<path class="st0" d="M-276.7,203.1c-0.1,0-0.2,0-0.3-0.1l-2.4-1.5c-0.2-0.1-0.2-0.3-0.2-0.4v-3.8c0-0.3,0.2-0.5,0.5-0.5
			s0.5,0.2,0.5,0.5v3.5l2.1,1.4c0.2,0.2,0.3,0.5,0.2,0.7C-276.4,203-276.5,203.1-276.7,203.1z"/>
	</g>
</svg>
