<svg xmlns="http://www.w3.org/2000/svg" viewBox="-505.3 376 18.2 16.3"><style>.st0{fill:#939798;}</style><g id="fingerprint"><path class="st0" d="M-496.9 381.2c-2.5.5-2.7 2.7-2.9 4.7-.2 1.5-.4 3.1-1.4 4.2-.2.3-.2.7 0 .9.3.2.7.2.9 0 1.3-1.5 1.5-3.3 1.7-5 .2-2.1.4-3.2 1.9-3.5.8-.2 1.5 0 1.9.4 1.3 1.4.7 5.9 0 8.4-.1.3.1.7.4.8h.2c.3 0 .5-.2.6-.5.1-.3 2-7.2-.3-9.7-.4-.4-1.3-1-3-.7z"/><path class="st0" d="M-496.8 378.6c-4.4.6-5.3 4.5-5.9 7.3-.2 1.1-.4 2.1-.8 2.7-.2.3-.1.7.3.9.3.2.7.1.9-.3.4-.8.7-1.9.9-3.1.6-2.9 1.3-5.8 4.8-6.3 1.5-.2 2.6.1 3.5 1 2.6 2.6 1.7 9.4 1.7 9.4-.1.4.2.7.5.7h.1c.3 0 .6-.2.6-.6 0-.3 1.1-7.5-2-10.6-1.2-1-2.7-1.4-4.6-1.1z"/><path class="st0" d="M-490.1 378c-1.6-1.5-3.7-2.2-6.4-1.9-9.4.9-8.8 10.6-8.8 10.7 0 .4.3.6.7.6.4 0 .6-.3.6-.7 0-.3-.5-8.5 7.6-9.3 2.3-.2 4.1.3 5.4 1.6 2.8 2.7 2.6 8.1 2.6 8.7 0 .4.3.7.6.7s.6-.3.6-.6c.1-1.2.3-6.8-2.9-9.8z"/><path class="st0" d="M-496.2 384.4c-.4 0-.6.4-.6.7 0 0 .4 3.4-1.4 6.1-.2.3-.1.7.2.9.1.1.2.1.4.1s.4-.1.5-.3c2-3.1 1.6-6.8 1.6-7 0-.3-.3-.5-.7-.5z"/></g></svg>