<?xml version="1.0" encoding="utf-8"?>
<!-- Generator: Adobe Illustrator 19.1.0, SVG Export Plug-In . SVG Version: 6.00 Build 0)  -->
<svg version="1.1" id="Layer_1" xmlns="http://www.w3.org/2000/svg" xmlns:xlink="http://www.w3.org/1999/xlink" x="0px" y="0px"
	 viewBox="-505.6 382.2 15 11.8" style="enable-background:new -505.6 382.2 15 11.8;" xml:space="preserve">
<style type="text/css">
	.st0{fill:#939798;}
</style>
<g id="codelang">
	<g>
		<path class="st0" d="M-501.7,391.8c-0.2,0-0.3-0.1-0.4-0.2l-3.2-3.2c-0.2-0.2-0.2-0.6,0-0.9l3.2-3.2c0.2-0.2,0.6-0.2,0.9,0
			c0.2,0.2,0.2,0.6,0,0.9l-2.8,2.8l2.8,2.8c0.2,0.2,0.2,0.6,0,0.9C-501.4,391.7-501.6,391.8-501.7,391.8z"/>
	</g>
	<g>
		<path class="st0" d="M-494.4,391.8c-0.2,0-0.3-0.1-0.4-0.2c-0.2-0.2-0.2-0.6,0-0.9l2.8-2.8l-2.8-2.8c-0.2-0.2-0.2-0.6,0-0.9
			c0.2-0.2,0.6-0.2,0.9,0l3.2,3.2c0.2,0.2,0.2,0.6,0,0.9l-3.2,3.2C-494.1,391.7-494.3,391.8-494.4,391.8z"/>
	</g>
	<g>
		<path class="st0" d="M-499.8,394.1c-0.1,0-0.1,0-0.2,0c-0.3-0.1-0.5-0.5-0.4-0.8l3.4-10.6c0.1-0.3,0.5-0.5,0.8-0.4
			c0.3,0.1,0.5,0.5,0.4,0.8l-3.4,10.6C-499.3,393.9-499.5,394.1-499.8,394.1z"/>
	</g>
</g>
</svg>
