<svg version="1.1" id="Layer_1" xmlns="http://www.w3.org/2000/svg" xmlns:xlink="http://www.w3.org/1999/xlink" x="0px" y="0px"
   viewBox="0 0 20 20" enable-background="new 0 0 20 20" xml:space="preserve">
	<g id="Tofuburger">
		<path fill="#A7AEAE" d="M17.9,6.2H2.1C1.8,6.2,1.5,6,1.5,5.6C1.5,5.3,1.8,5,2.1,5h15.7c0.4,0,0.6,0.3,0.6,0.6
			C18.5,6,18.2,6.2,17.9,6.2z"/>
		<path fill="#A7AEAE" d="M17.9,10.6H2.1c-0.4,0-0.6-0.3-0.6-0.6s0.3-0.6,0.6-0.6h15.7c0.4,0,0.6,0.3,0.6,0.6S18.2,10.6,17.9,10.6z
			"/>
		<path fill="#A7AEAE" d="M17.9,15H2.1c-0.4,0-0.6-0.3-0.6-0.6c0-0.3,0.3-0.6,0.6-0.6h15.7c0.4,0,0.6,0.3,0.6,0.6
			C18.5,14.7,18.2,15,17.9,15z"/>
	</g>
</svg>
