<?xml version="1.0" encoding="utf-8"?>
<!-- Generator: Adobe Illustrator 16.0.4, SVG Export Plug-In . SVG Version: 6.00 Build 0)  -->
<!DOCTYPE svg PUBLIC "-//W3C//DTD SVG 1.1//EN" "http://www.w3.org/Graphics/SVG/1.1/DTD/svg11.dtd">
<svg version="1.1" id="Layer_1" xmlns="http://www.w3.org/2000/svg" xmlns:xlink="http://www.w3.org/1999/xlink" x="0px" y="0px"
	 width="960px" height="560px" viewBox="0 0 960 560" enable-background="new 0 0 960 560" xml:space="preserve">
<g id="Commit">
	<path fill="#A7AEAE" d="M418.4,490c-8.4,0-14-5.6-14-14v-28c-11.2,0-28,2.8-39.2-2.8c-11.2-2.8-36.4-14-50.4-47.601
		c-2.8-5.6-8.4-11.199-11.2-16.8c-2.8-2.8-5.6-8.399-8.4-11.2C284,358.4,284,336,292.4,322c8.4-11.2,19.6-14,33.6-8.4
		c19.6,5.601,30.8,25.2,39.2,36.4c2.8,2.8,2.8,5.6,5.6,5.6c11.2,11.2,28,8.4,39.2,2.801c2.8-2.801,5.6-5.601,8.4-8.4
		c-2.801,0-2.801,0-5.601,0c-19.6-2.8-36.4-11.2-53.2-19.6c-5.6-5.601-16.8-11.2-22.4-19.601c-8.4-8.399-14-19.6-19.6-33.6
		c-2.8-14-5.6-25.2-8.4-39.2c0-11.2-2.8-25.2,0-39.2C312,182,317.6,168,326,154c2.8-2.8,2.8-5.6,5.6-8.4v-2.8
		c-2.8-8.4-2.8-16.8-2.8-28c0-11.2,2.8-22.4,8.4-33.6C340,72.8,345.6,70,354,70s22.4,2.8,33.6,8.4C398.8,84,410,89.6,421.2,98
		c14-2.8,28-5.6,44.8-5.6c11.2,0,44.8,0,56,0c14,0,28,2.8,39.2,5.6l5.6-2.8c5.601-2.8,14-8.4,19.601-11.2
		c11.199-5.6,19.6-8.4,30.8-8.4c2.8,0,5.6,0,8.399,0c8.4,0,14,2.8,16.801,11.2c5.6,16.8,11.199,33.6,5.6,56v2.8c0,2.8,0,5.6-2.8,8.4
		c14,16.8,19.6,36.4,22.399,58.8c0,8.4,0,16.8,0,25.2c0,14-2.8,28-5.6,39.2c-5.6,14-11.2,28-19.6,39.2
		c-8.4,11.199-19.601,16.8-28,22.399C597.6,347.2,580.8,355.6,564,358.4c5.6,11.199,8.4,22.399,8.4,36.399l0,0
		c0,22.4,0,89.601,0,89.601c0,8.399-5.601,14-14,14L418.4,490L418.4,490z M536,350c-2.8-2.8-2.8-8.4-2.8-14
		c2.8-5.6,5.6-8.4,11.2-8.4h8.399c19.601-2.8,36.4-8.399,53.2-19.6c8.4-5.6,16.8-11.2,19.6-16.8c5.601-8.4,11.2-16.8,14-28
		c5.601-11.2,5.601-22.4,8.4-36.4c0-5.6,0-14,0-19.6c-2.8-19.6-8.4-33.6-19.6-47.6c-5.601-5.6-5.601-11.2-2.801-16.8
		c0-2.8,2.801-5.6,2.801-8.4v-2.8c2.8-11.2,0-22.4-2.801-33.6c0,0,0,0-2.8,0c-5.6,0-14,2.8-19.6,5.6
		c-5.601,2.8-11.2,5.6-19.601,11.2l-11.199,5.6c-2.801,2.8-8.4,2.8-11.2,2.8c-14-2.8-25.2-5.6-39.2-5.6c-11.2,0-42,0-53.2,0
		c-16.8-2.8-30.8,0-44.8,5.6c-2.8,0-8.4,0-14-2.8c-11.2-8.4-22.4-14-33.6-19.6c-5.6-2.8-11.2-2.8-16.8-2.8c-2.8,5.6-2.8,14-2.8,19.6
		c0,8.4,0,14,2.8,19.6c0,2.8,0,2.8,2.8,5.6c2.8,5.6,0,11.2-2.8,14l-5.6,5.6c0,2.8-2.8,5.6-5.6,8.4c-5.6,8.4-11.2,19.6-14,33.6
		c-2.8,11.2,0,22.4,0,30.8c0,11.2,2.8,22.4,5.6,33.6c2.8,11.2,8.4,19.601,14,25.2c8.4,5.6,14,11.2,19.6,14c14,8.4,28,14,44.8,16.8
		c5.6,0,19.6,2.8,19.6,2.8c2.8,0,8.4,2.801,8.4,5.601c2.8,2.8,2.8,5.6,2.8,11.2c0,2.8-8.4,28-25.2,39.199
		c-19.6,11.2-50.4,14-70-8.399c-2.8-2.8-5.6-5.601-8.4-8.4c-5.6-8.399-16.8-22.399-28-28c-2.8,0-2.8,0-2.8,0s0,0-2.8,2.8
		c0,5.601,0,11.2,2.8,16.801c2.8,2.8,5.6,5.6,8.4,11.199c5.6,8.4,11.2,14,14,22.4c11.2,22.4,28,30.8,33.6,33.6
		c14,0,36.4-2.8,47.601-2.8c-2.801,0-2.801,0,0,0c2.8,0,5.6,0,8.399,2.8c2.8,2.801,5.601,5.601,5.601,8.4v28H550
		c0-19.6,0-58.8,0-75.6c0-11.2-2.8-19.601-5.6-28C541.6,352.8,541.6,350,538.8,350"/>
</g>
</svg>
