<svg xmlns="http://www.w3.org/2000/svg" viewBox="-501.2 377.3 11.2 15"><style>.st0{fill:#939798;}</style><path class="st0" d="M-490.4 387.9c-.2-.1-.3-.2-.5-.3-.4-.3-.6-.7-.7-1.1-.1-.6-.1-1.2.2-1.6.2-.2.4-.5.7-.7.1 0 .1-.1.2-.2.2-.2.2-.5 0-.7-.1-.2-.3-.4-.4-.5-.5-.5-1.1-.8-1.8-.9-.3 0-.6-.1-1-.1-.3 0-.7.1-1.1.3l-.8.3-.9-.3c-.4-.1-.8-.3-1.2-.2-.9 0-1.7.4-2.4 1-.6.6-1 1.3-1.1 2.2 0 .2 0 .3-.1.5v1.1c0 .5.2 1.1.3 1.7.3.8.6 1.5 1 2.1.3.4.5.8.9 1.2.2.2.5.5.9.6.1 0 .2 0 .3.1h.6c.1 0 .2 0 .4-.1.1 0 .3-.1.4-.2l.3-.1c.5-.2.9-.2 1.4.1.2.1.5.2.9.3.6.1 1.1 0 1.6-.4.3-.3.6-.6.8-.9.4-.6.7-1.1 1-1.7.1-.1.1-.3.2-.4v-.1c0-.1.1-.2.1-.3.2-.4.1-.6-.2-.7zm-1 .9c-.2.5-.5.9-.8 1.4-.2.3-.4.5-.6.7-.2.2-.4.2-.7.2-.2 0-.5-.1-.6-.2-.8-.3-1.5-.4-2.2-.1l-.3.1c-.1 0-.3.1-.4.1-.1 0-.1 0-.2.1h-.2-.1c-.1-.1-.3-.2-.5-.4-.3-.3-.5-.6-.8-1-.3-.5-.6-1.1-.8-1.8-.2-.5-.2-.9-.3-1.4v-1c0-.1 0-.3.1-.4.1-.6.4-1.2.8-1.6.4-.4 1-.7 1.6-.7.2 0 .5.1.8.2l.9.3c.3.1.5.1.8 0l.8-.3c.3-.1.6-.2.8-.2h.6c.4.1.8.2 1.1.5l-.6.6c-.5.7-.6 1.6-.4 2.5.2.7.5 1.3 1.2 1.8-.1.4 0 .5 0 .6.1 0 0 0 0 0zM-495.7 381.7H-495.4c.3 0 .7-.1 1-.2.5-.2.9-.5 1.3-1s.7-1.1.8-1.7c.1-.3.1-.6 0-.9 0-.3-.3-.6-.6-.6h-.1-.4c-1.5.4-2.7 1.6-2.9 3.1V381c.1.4.3.6.6.7zm2.2-3c-.1.4-.3.7-.5 1.1-.3.3-.5.5-.8.7h-.1c0-.7.6-1.5 1.4-1.8z"/></svg>