<svg version="1.1" id="Layer_1" x="0px" y="0px"
	 viewBox="-289 191 20 20" style="enable-background:new -289 191 20 20;" xml:space="preserve">
<path fill="#A5ACAD" class="st0" d="M-272.4,198.4C-272.4,198.4-272.4,198.4-272.4,198.4l-3.4,0l0.3-3.3c0-0.3-0.2-0.6-0.5-0.6
	c-0.3,0-0.6,0.2-0.6,0.5l-0.3,3.4l-3.2,0l0.3-3.6c0-0.3-0.2-0.6-0.5-0.6c-0.3,0-0.6,0.2-0.6,0.5l-0.3,3.7l-3.2,0
	c-0.3,0-0.5,0.2-0.5,0.6c0,0.3,0.2,0.5,0.5,0.5c0,0,0,0,0,0l3.1,0l-0.2,2.9l-3.5,0c-0.3,0-0.5,0.2-0.5,0.6c0,0.3,0.2,0.5,0.5,0.5
	c0,0,0,0,0,0l3.4,0l-0.3,3.3c0,0.3,0.2,0.6,0.5,0.6c0,0,0,0,0,0c0.3,0,0.5-0.2,0.5-0.5l0.3-3.4l3.2,0l-0.3,3.6
	c0,0.3,0.2,0.6,0.5,0.6c0,0,0,0,0,0c0.3,0,0.5-0.2,0.5-0.5l0.3-3.7l3.2,0c0.3,0,0.5-0.2,0.5-0.6c0-0.3-0.2-0.5-0.5-0.5c0,0,0,0,0,0
	l-3.1,0l0.2-2.9l3.5,0c0.3,0,0.5-0.2,0.5-0.6C-271.8,198.7-272.1,198.4-272.4,198.4z M-277.2,202.4l-3.2,0l0.2-2.9l3.2,0
	L-277.2,202.4z"/>
</svg>
