<svg xmlns="http://www.w3.org/2000/svg" viewBox="0 0 20 20"><path fill="#A7AEAE" d="M16.7 2.5H3.3c-.3 0-.5.2-.5.5v14c0 .3.2.5.5.5h13.4c.3 0 .5-.2.5-.5V3c0-.3-.2-.5-.5-.5zm-.5.9v3.1H3.8V3.4h12.4zM3.8 16.6v-9h12.5v9H3.8z"/><path fill="#A7AEAE" d="M8.7 13.4h-.4c.2-.2.4-.4.5-.6.2-.2.3-.4.5-.6l.3-.6c.1-.2.1-.4.1-.6 0-.2 0-.4-.1-.6-.1-.2-.2-.3-.3-.4-.1 0-.2-.1-.4-.2s-.4-.1-.6-.1c-.3 0-.6.1-.8.2-.3.1-.5.3-.7.5l.5.6c.1-.1.2-.2.4-.3.1-.1.3-.1.4-.1.2 0 .4.1.5.2.1.1.2.3.2.5s0 .3-.1.5-.2.4-.4.6c-.2.2-.4.4-.6.7l-.8.8v.6H10v-.9h-.9c-.1-.2-.3-.2-.4-.2zM10.6 10.7h2c-.2.3-.4.6-.5.8-.1.3-.3.6-.4.8-.1.3-.2.6-.2.9 0 .3-.1.7-.1 1h1c0-.4 0-.8.1-1.2 0-.3.1-.7.2-.9.1-.3.2-.6.4-.9l.6-.9v-.5h-3.1v.9z"/></svg>