<?xml version="1.0" encoding="utf-8"?>
<!-- Generator: Adobe Illustrator 19.1.0, SVG Export Plug-In . SVG Version: 6.00 Build 0)  -->
<svg version="1.1" id="Layer_1" xmlns="http://www.w3.org/2000/svg" xmlns:xlink="http://www.w3.org/1999/xlink" x="0px" y="0px"
	 viewBox="-501.7 376.8 12.3 15" style="enable-background:new -501.7 376.8 12.3 15;" xml:space="preserve">
<style type="text/css">
	.st0{fill:#939798;}
</style>
<g id="trash">
	<path class="st0" d="M-491,381.1h-9.2c-0.2,0-0.3,0.1-0.4,0.2c-0.1,0.1-0.2,0.3-0.1,0.4l0.8,9.6c0,0.3,0.3,0.5,0.6,0.5h7.7
		c0.3,0,0.5-0.2,0.6-0.5l0.8-9.6c0-0.2,0-0.3-0.1-0.4C-490.7,381.2-490.8,381.1-491,381.1z M-492.3,390.7h-6.6l-0.7-8.4h8
		L-492.3,390.7z"/>
	<path class="st0" d="M-490,379.2h-2.9v-1.1c0-0.7-0.6-1.3-1.3-1.3h-2.7c-0.7,0-1.3,0.6-1.3,1.3v1.1h-2.9c-0.3,0-0.6,0.3-0.6,0.6
		s0.3,0.6,0.6,0.6h11.2c0.3,0,0.6-0.3,0.6-0.6S-489.7,379.2-490,379.2z M-497.1,378.2c0-0.1,0.1-0.2,0.2-0.2h2.7
		c0.1,0,0.2,0.1,0.2,0.2v1.1h-3.1V378.2z"/>
	<path class="st0" d="M-496.7,389.5C-496.7,389.5-496.7,389.5-496.7,389.5c0.3,0,0.4-0.2,0.4-0.5l-0.4-5.2c0-0.2-0.2-0.4-0.5-0.4
		c-0.2,0-0.4,0.2-0.4,0.5l0.4,5.2C-497.1,389.4-496.9,389.5-496.7,389.5z"/>
	<path class="st0" d="M-494.5,389.5C-494.5,389.5-494.5,389.5-494.5,389.5c0.3,0,0.4-0.2,0.5-0.4l0.4-5.2c0-0.2-0.2-0.4-0.4-0.5
		c-0.2,0-0.4,0.2-0.5,0.4l-0.4,5.2C-494.9,389.3-494.7,389.5-494.5,389.5z"/>
</g>
</svg>
