<svg version="1.1" id="Layer_1" x="0px" y="0px"
	 viewBox="0 0 20 20" enable-background="new 0 0 20 20" xml:space="preserve">
	<g id="Pull">
		<path fill="#A7AEAE" d="M8,4.5C8,3.1,6.9,2,5.5,2S3,3.1,3,4.5c0,1.1,0.8,2.1,1.8,2.4v6.5c-1,0.3-1.8,1.2-1.8,2.4
			c0,1.4,1.1,2.5,2.5,2.5S8,17,8,15.7c0-1.1-0.8-2.1-1.8-2.4V6.8C7.2,6.6,8,5.6,8,4.5z M4.3,4.5c0-0.6,0.5-1.2,1.2-1.2
			s1.2,0.5,1.2,1.2S6.1,5.6,5.5,5.6S4.3,5.1,4.3,4.5z M6.7,15.7c0,0.6-0.5,1.2-1.2,1.2s-1.2-0.5-1.2-1.2s0.5-1.2,1.2-1.2
			S6.7,15,6.7,15.7z"/>
		<path fill="#A7AEAE" d="M15.1,13.3v-6c0-1-0.3-1.9-0.9-2.4c-1-0.9-2.4-0.8-2.4-0.8h-1c0.3-0.3,0.7-0.7,1-1c0.3-0.3,0.3-0.7,0-0.9
			s-0.7-0.3-0.9,0c-1.2,1.2-1.7,1.7-2,2C8.8,4.2,8.7,4.3,8.6,4.4c0,0.1,0,0.1,0,0.2c0,0,0,0,0,0c0,0,0,0,0,0c0,0,0,0,0,0
			c0,0,0,0,0,0c0,0.1,0,0.1,0,0.2c0,0.1,0.1,0.2,0.2,0.3c0.3,0.3,0.8,0.9,2,2c0.1,0.1,0.3,0.2,0.5,0.2s0.3-0.1,0.5-0.2
			c0.3-0.3,0.3-0.7,0-0.9c-0.3-0.3-0.7-0.7-1-1l1,0c0,0,0.9,0,1.5,0.5c0.3,0.3,0.5,0.8,0.5,1.5v6.1c-1,0.3-1.8,1.2-1.8,2.4
			c0,1.4,1.1,2.5,2.5,2.5S17,17,17,15.7C17,14.5,16.2,13.6,15.1,13.3z M14.5,16.8c-0.6,0-1.2-0.5-1.2-1.2s0.5-1.2,1.2-1.2
			s1.2,0.5,1.2,1.2S15.1,16.8,14.5,16.8z"/>
	</g>
</svg>
