<svg x="0px" y="0px" viewBox="0 0 20 20" xml:space="preserve" enable-background="new 0 0 20 20">
<g id="Build">
	<path fill="#A7AEAE" d="M15.2,15.3c-0.4,0-0.7-0.1-1-0.4c-0.4-0.3-0.6-0.8-0.6-1.2c0-0.3,0.2-0.5,0.5-0.5c0.3,0,0.5,0.2,0.5,0.5
		c0,0.2,0.1,0.4,0.2,0.5c0.1,0.1,0.3,0.2,0.5,0.1c0.2,0,0.4-0.2,0.5-0.5c0.1-0.3-0.1-0.6-0.4-0.7c-0.4-0.2-0.7-0.6-0.7-1.1V8.7
		c0-0.3,0.2-0.5,0.5-0.5s0.5,0.2,0.5,0.5V12c0,0,0,0.2,0.1,0.2c0.7,0.3,1.1,1,1,1.8c-0.1,0.6-0.6,1.2-1.3,1.3
		C15.3,15.3,15.3,15.3,15.2,15.3z"/>
	<path fill="#A7AEAE" d="M9.1,17.5C9.1,17.5,9.1,17.5,9.1,17.5H3.7c-0.3,0-0.5-0.2-0.5-0.5c0-0.3,0.2-0.5,0.5-0.5h1.7V8.9H3.4
		C2.5,8.9,2.5,7.1,2.5,7V6.6c0-0.5,0.3-0.9,0.7-1l2.2-0.8V3.3c0-0.2,0.1-0.5,0.3-0.6c0.2-0.2,0.4-0.2,0.7-0.2l1.5,0.3
		C9,3,9.6,3.1,9.6,3.7v1.2l7.1,0.9c0.5,0.1,0.8,0.5,0.8,0.9V7c0,0,0,1.8-0.9,1.8h-7v7.6h1.7c0.3,0,0.5,0.2,0.5,0.5
		c0,0.3-0.2,0.5-0.5,0.5H9.1C9.1,17.5,9.1,17.5,9.1,17.5z M6.4,16.5l2.2,0V8.9H6.4V16.5z M9.6,7.9h6.7c0.1-0.3,0.2-0.7,0.2-0.9
		V6.7L9.6,5.9V7.9z M6.4,7.9h2.2V5.7L8.1,5.7l-1.7,0V7.9z M3.6,7.9h1.8v-2l-2,0.7l0,0.4C3.5,7.2,3.5,7.6,3.6,7.9z M6.4,4.7h1.7
		l0.5,0.1V4c-0.1,0-0.4-0.1-0.9-0.2c0,0-0.1,0-0.1,0L6.4,3.5V4.7z"/>
</g>
</svg>
