<?xml version="1.0" encoding="utf-8"?>
<!-- Generator: Adobe Illustrator 19.1.0, SVG Export Plug-In . SVG Version: 6.00 Build 0)  -->
<svg version="1.1" id="Layer_1" xmlns="http://www.w3.org/2000/svg" xmlns:xlink="http://www.w3.org/1999/xlink" x="0px" y="0px"
	 viewBox="0 0 20 20" enable-background="new 0 0 20 20" xml:space="preserve">
<g id="View">
	<g>
		<path fill="#A7AEAE" d="M17.4,9.6c-0.1-0.2-3.3-4.1-7.4-4.1s-7.3,4-7.4,4.1c-0.2,0.2-0.2,0.6,0,0.8c0.1,0.2,3.3,4.1,7.4,4.1
			s7.3-4,7.4-4.1C17.6,10.2,17.6,9.8,17.4,9.6z M10,13.2c-2.8,0-5.2-2.3-6.1-3.2C4.8,9.1,7.2,6.8,10,6.8c2.8,0,5.2,2.3,6.1,3.2
			C15.2,10.9,12.8,13.2,10,13.2z"/>
	</g>
	<g>
		<path fill="#A7AEAE" d="M10,7c-1.5,0-2.6,1.3-2.6,3s1.2,3,2.6,3s2.6-1.3,2.6-3S11.5,7,10,7z M10,11.7c-0.7,0-1.3-0.7-1.3-1.7
			S9.3,8.3,10,8.3s1.3,0.7,1.3,1.7S10.7,11.7,10,11.7z"/>
	</g>
</g>
</svg>
