<svg xmlns="http://www.w3.org/2000/svg" viewBox="-502.4 377 12.1 15"><style>.st0{fill:#939798;}</style><g id="disabledtrash"><path class="st0" d="M-492.3 382.7l-.6 8.2h-6.6v-.4l-.8.9-.2.2c.1.2.3.4.5.4h7.7c.3 0 .5-.2.6-.5l.8-9.6c0-.1 0-.3-.1-.4l-1.3 1.2zM-496.1 381.4h-4.7c-.2 0-.3.1-.4.2-.1.1-.2.3-.1.4l.4 4.7 1-1.1-.2-3h3.1l.9-1.2zM-501.8 380.6h6.5l1.8-1.9v-.3c0-.7-.6-1.3-1.3-1.3h-2.7c-.7 0-1.3.6-1.3 1.3v1.1h-2.9c-.3 0-.6.3-.6.6s.2.5.5.5zm4-2.2c0-.1.1-.2.2-.2h2.7c.1 0 .2.1.2.2v1.1h-3.1v-1.1z"/><path class="st0" d="M-497.4 389.8c.1 0 .1 0 0 0 .3 0 .4-.2.4-.5l-.1-1.5-.8.9v.7c.1.2.3.4.5.4zM-495.1 389.8c.2 0 .4-.2.4-.4l.3-4.4-.9 1-.2 3.3c-.1.2.1.4.4.5zM-490.5 378.1c-.2-.2-.6-.2-.8 0l-10.9 11.7c-.2.2-.2.6 0 .8.1.1.2.2.4.2s.3-.1.4-.2l10.9-11.7c.2-.3.2-.6 0-.8z"/></g></svg>