<?xml version="1.0" encoding="utf-8"?>
<!-- Generator: Adobe Illustrator 19.1.0, SVG Export Plug-In . SVG Version: 6.00 Build 0)  -->
<svg version="1.1" id="Layer_1" xmlns="http://www.w3.org/2000/svg" xmlns:xlink="http://www.w3.org/1999/xlink" x="0px" y="0px"
	 viewBox="0 0 20 20" enable-background="new 0 0 20 20" xml:space="preserve">
<g id="Cal">
	<g>
		<path fill="#A7AEAE" d="M16.7,2.5H3.3C3,2.5,2.8,2.7,2.8,3V17c0,0.3,0.2,0.5,0.5,0.5h13.4c0.3,0,0.5-0.2,0.5-0.5V3
			C17.2,2.7,17,2.5,16.7,2.5z M16.2,3.4v3.1H3.8V3.4H16.2z M3.8,16.6v-9h12.5v9H3.8z"/>
	</g>
	<g>
		<path fill="#A7AEAE" d="M8.7,13.4c-0.1,0-0.3,0-0.4,0c0.2-0.2,0.4-0.4,0.5-0.6c0.2-0.2,0.3-0.4,0.5-0.6c0.1-0.2,0.2-0.4,0.3-0.6
			c0.1-0.2,0.1-0.4,0.1-0.6c0-0.2,0-0.4-0.1-0.6c-0.1-0.2-0.2-0.3-0.3-0.4C9.2,10,9.1,9.9,8.9,9.8C8.7,9.7,8.5,9.7,8.3,9.7
			C8,9.7,7.7,9.8,7.5,9.9C7.2,10,7,10.2,6.8,10.4L7.3,11c0.1-0.1,0.2-0.2,0.4-0.3c0.1-0.1,0.3-0.1,0.4-0.1c0.2,0,0.4,0.1,0.5,0.2
			c0.1,0.1,0.2,0.3,0.2,0.5c0,0.2,0,0.3-0.1,0.5c-0.1,0.2-0.2,0.4-0.4,0.6c-0.2,0.2-0.4,0.4-0.6,0.7c-0.2,0.2-0.5,0.5-0.8,0.8v0.6
			H10v-0.9H9.1C9,13.4,8.8,13.4,8.7,13.4z"/>
	</g>
	<g>
		<path fill="#A7AEAE" d="M10.6,10.7h2c-0.2,0.3-0.4,0.6-0.5,0.8c-0.1,0.3-0.3,0.6-0.4,0.8c-0.1,0.3-0.2,0.6-0.2,0.9
			c0,0.3-0.1,0.7-0.1,1h1c0-0.4,0-0.8,0.1-1.2c0-0.3,0.1-0.7,0.2-0.9c0.1-0.3,0.2-0.6,0.4-0.9c0.2-0.3,0.4-0.6,0.6-0.9V9.8h-3.1
			V10.7z"/>
	</g>
</g>
</svg>
