<svg xmlns="http://www.w3.org/2000/svg" viewBox="0 0 960 560"><path fill="#A7AEAE" d="M418.4 490c-8.4 0-14-5.6-14-14v-28c-11.2 0-28 2.8-39.2-2.8-11.2-2.8-36.4-14-50.4-47.6-2.8-5.6-8.4-11.2-11.2-16.8-2.8-2.8-5.6-8.4-8.4-11.2C284 358.4 284 336 292.4 322c8.4-11.2 19.6-14 33.6-8.4 19.6 5.6 30.8 25.2 39.2 36.4 2.8 2.8 2.8 5.6 5.6 5.6 11.2 11.2 28 8.4 39.2 2.8l8.4-8.4h-5.6c-19.6-2.8-36.4-11.2-53.2-19.6-5.6-5.6-16.8-11.2-22.4-19.6-8.4-8.4-14-19.6-19.6-33.6-2.8-14-5.6-25.2-8.4-39.2 0-11.2-2.8-25.2 0-39.2C312 182 317.6 168 326 154c2.8-2.8 2.8-5.6 5.6-8.4v-2.8c-2.8-8.4-2.8-16.8-2.8-28s2.8-22.4 8.4-33.6C340 72.8 345.6 70 354 70s22.4 2.8 33.6 8.4C398.8 84 410 89.6 421.2 98c14-2.8 28-5.6 44.8-5.6h56c14 0 28 2.8 39.2 5.6l5.6-2.8c5.6-2.8 14-8.4 19.6-11.2 11.2-5.6 19.6-8.4 30.8-8.4h8.4c8.4 0 14 2.8 16.8 11.2 5.6 16.8 11.2 33.6 5.6 56v2.8c0 2.8 0 5.6-2.8 8.4 14 16.8 19.6 36.4 22.4 58.8V238c0 14-2.8 28-5.6 39.2-5.6 14-11.2 28-19.6 39.2-8.4 11.2-19.6 16.8-28 22.4-16.8 8.4-33.6 16.8-50.4 19.6 5.6 11.2 8.4 22.4 8.4 36.4v89.6c0 8.4-5.6 14-14 14l-140-8.4zM536 350c-2.8-2.8-2.8-8.4-2.8-14 2.8-5.6 5.6-8.4 11.2-8.4h8.4c19.6-2.8 36.4-8.4 53.2-19.6 8.4-5.6 16.8-11.2 19.6-16.8 5.6-8.4 11.2-16.8 14-28 5.6-11.2 5.6-22.4 8.4-36.4v-19.6c-2.8-19.6-8.4-33.6-19.6-47.6-5.602-5.6-5.602-11.2-2.802-16.8 0-2.8 2.8-5.6 2.8-8.4v-2.8c2.8-11.2 0-22.4-2.8-33.6h-2.8c-5.6 0-14 2.8-19.6 5.6-5.6 2.8-11.2 5.6-19.6 11.2l-11.2 5.6c-2.8 2.8-8.4 2.8-11.2 2.8-14-2.8-25.2-5.6-39.2-5.6h-53.2c-16.8-2.8-30.8 0-44.8 5.6-2.8 0-8.4 0-14-2.8-11.2-8.4-22.4-14-33.6-19.6-5.6-2.8-11.2-2.8-16.8-2.8-2.8 5.6-2.8 14-2.8 19.6 0 8.4 0 14 2.8 19.6 0 2.8 0 2.8 2.8 5.6 2.8 5.6 0 11.2-2.8 14l-5.6 5.6c0 2.8-2.8 5.6-5.6 8.4-5.6 8.4-11.2 19.6-14 33.6-2.8 11.2 0 22.4 0 30.8 0 11.2 2.8 22.4 5.6 33.6 2.8 11.2 8.4 19.6 14 25.2 8.4 5.6 14 11.2 19.6 14 14 8.4 28 14 44.8 16.8 5.6 0 19.6 2.8 19.6 2.8 2.8 0 8.4 2.8 8.4 5.6 2.8 2.8 2.8 5.6 2.8 11.2 0 2.8-8.4 28-25.2 39.2-19.6 11.2-50.4 14-70-8.4l-8.4-8.4c-5.6-8.398-16.8-22.398-28-28h-2.8l-2.8 2.8c0 5.602 0 11.2 2.8 16.802 2.8 2.8 5.6 5.6 8.4 11.2 5.6 8.4 11.2 14 14 22.4 11.2 22.4 28 30.8 33.6 33.6 14 0 36.4-2.8 47.6-2.8-2.8 0-2.8 0 0 0s5.6 0 8.4 2.8c2.8 2.8 5.6 5.6 5.6 8.4v28H550v-75.6c0-11.2-2.8-19.602-5.6-28-2.8-5.602-2.8-8.402-5.6-8.402"/></svg>