<svg xmlns="http://www.w3.org/2000/svg" viewBox="0 0 15 12.4"><style>.st0{fill:#f1f1f1;}</style><g id="downloadlog"><path class="st0" d="M5.1 11.3c-.4 0-.7-.3-.7-.7V.6c0-.3.3-.6.7-.6.4 0 .7.3.7.7v10c-.1.4-.4.6-.7.6z"/><path class="st0" d="M5.1 12.4c-.2 0-.3-.1-.5-.2L.2 7.8c-.3-.3-.3-.7 0-.9s.7-.3.9 0L5 10.8l4-3.9c.3-.3.7-.3.9 0s.3.7 0 .9l-4.4 4.4c-.1.1-.3.2-.4.2zM14.1 2.1H7.9c-.4 0-.7-.3-.7-.7s.3-.7.7-.7h6.2c.4 0 .7.3.7.7s-.3.7-.7.7zM14.3 5.3H7.9c-.4 0-.6-.3-.6-.7 0-.4.2-.6.6-.6h6.4c.4 0 .7.2.7.6 0 .4-.3.7-.7.7zM14.3 8.5h-2.4c-.4 0-.7-.3-.7-.7 0-.4.3-.7.7-.7h2.4c.4 0 .7.3.7.7 0 .4-.3.7-.7.7zM13 11.6H9.2c-.4 0-.7-.3-.7-.7s.3-.7.7-.7H13c.4 0 .7.3.7.7s-.4.7-.7.7z"/></g></svg>