<svg xmlns="http://www.w3.org/2000/svg" viewBox="-504 379.9 12.7 16"><style>.st0{fill:#939798;}</style><path class="st0" d="M-497.6 383c-.8 0-1.2.2-1.4.3-.2.1-.4.4-.4.6 0 .2.1.4.3.6l1.1.7c.1 0 .2.1.4.1.1 0 .3-.1.4-.1 1.1-.8 1.2-.8 1.2-.9.1-.1.2-.3.2-.4 0-.2-.1-.5-.3-.6-.3-.1-.8-.3-1.5-.3zm0 1.3l-.4-.3h.8c-.2.1-.3.2-.4.3z"/><path class="st0" d="M-493.9 385.7c-.5-.5-.7-2-.8-2.9-.1-1.6-1.4-2.8-3-2.8s-2.9 1.2-3 2.8c0 .2-.1.5-.1.8-.1.9-.2 1.7-.7 2.2-1.1 1.1-2.4 3.2-2.5 4v.1c0 .6.3 1.1.8 1.2.2 0 .5 0 .7-.2 0 0 .5-.3.8-.4v.1s.2.7.3.9c-.2.2-.3.4-.3.7v.2h-.1c-.5.1-.8.5-.8 1 0 .2 0 .4.1.5 0 0 1.4 2.2 2.9 2.2 0 0 .3 0 .5-.1s.3-.2.3-.2c.4-.3.6-.8.6-1.6h1.1c.1.8.3 1.4.6 1.6 0 0 .2.1.3.2.2.1.5.1.5.1 1.5 0 2.8-2.2 2.9-2.2.1-.1.1-.3.1-.5 0-.5-.3-.9-.8-1l-.1-.1v-.2c0-.2-.1-.4-.3-.6.1-.3.3-.7.4-1.1.3.1.6.4.7.4.2.2.5.2.7.2.2 0 .8-.2.8-1.2 0-.9-1.6-3.1-2.6-4.1zm-5.5 9.2s-.1 0 0 0c-.1.1-.2.1-.2.1-.7 0-1.8-1.3-2-1.7h.1c.4-.1.8-.5.8-1l.1-.1.2.2c.3.2.7.3 1.1.1l.2-.1s.1.3.1 1.2c-.2.9-.3 1.2-.4 1.3zm2.4-3c-.1.2-.1.6-.1 1.1-.2 0-.3.1-.5.1s-.4 0-.5-.1c0 0-.1-.9-.1-1.1-.2-.6-1-.9-1.6-.5l-.1-.1c-.1-.1-.3-.2-.5-.3-.1-.3-.2-.5-.3-.7.1-1.6 1.6-3.7 3.1-3.7s3 1.6 3.1 3.2c-.1.4-.2.8-.4 1.2h.2c-.3 0-.5.1-.7.3h-.1c-.5-.2-1.3 0-1.5.6zm3.2 1.3s.1 0 0 0c.1 0 .1 0 .1.1-.2.4-1.3 1.7-2 1.7h-.1l-.1-.1c-.1-.1-.2-.4-.2-1.4 0-1 .1-1.2.1-1.2s.1.1.2.1c.4.2.8.1 1.1-.1 0 0 .1-.1.2-.1-.1.3.2.9.7 1zm1.5-3.3c-.3-.2-.9-.5-1.2-.6-.4-1.9-2.2-3.5-4-3.5-1.7 0-3.3 1.7-3.9 3.5h-.2c-.9.4-1.2.5-1.4.6.1-.5 1.2-2.5 2.3-3.5.7-.7.9-1.8 1-2.8 0-.2.1-.5.1-.8.1-1.1.9-1.9 2-1.9s1.9.8 2 1.9c0 .3.2 2.7 1.1 3.6 1 1.1 2.2 3 2.2 3.5 0-.1 0 0 0 0z"/></svg>