<?xml version="1.0" encoding="utf-8"?>
<!-- Generator: Adobe Illustrator 19.1.0, SVG Export Plug-In . SVG Version: 6.00 Build 0)  -->
<svg version="1.1" id="Layer_1" xmlns="http://www.w3.org/2000/svg" xmlns:xlink="http://www.w3.org/1999/xlink" x="0px" y="0px"
	 viewBox="0 0 8.7 15" style="enable-background:new 0 0 8.7 15;" xml:space="preserve">
<style type="text/css">
	.st0{fill:#949899;}
</style>
<g id="helpquestion">
	<g>
		<path class="st0" d="M4.1,11.5c-0.4,0-0.6-0.3-0.7-0.6c0-0.1-0.1-3.3,2.5-4.8c1.1-0.6,1.7-1.7,1.4-2.9C7.1,2.3,6.2,1.3,4.4,1.3
			c-1,0-1.8,0.3-2.3,0.8C1.3,3,1.3,4.3,1.3,4.4C1.3,4.7,1.1,5,0.7,5C0.3,5,0,4.8,0,4.4c0-0.1-0.1-1.9,1.2-3.2C2,0.4,3,0,4.4,0
			c2.1,0,3.7,1.1,4.2,2.9c0.4,1.7-0.4,3.4-2,4.4c-1.9,1.1-1.9,3.5-1.8,3.6C4.8,11.2,4.5,11.5,4.1,11.5C4.1,11.5,4.1,11.5,4.1,11.5z"
			/>
	</g>
	<g>
		<circle class="st0" cx="4.1" cy="14.1" r="0.9"/>
	</g>
</g>
</svg>
