<svg version="1.1" id="Layer_1" x="0px" y="0px"
	 viewBox="0 0 20 20" enable-background="new 0 0 20 20" xml:space="preserve">
  <g id="Push">
  	<path fill="#A7AEAE" d="M16.9,9.4h-3.5c-0.3-1.6-1.7-2.8-3.4-2.8S6.9,7.8,6.6,9.4H3.1c-0.3,0-0.6,0.3-0.6,0.6s0.3,0.6,0.6,0.6h3.5
  		c0.3,1.6,1.7,2.8,3.4,2.8s3.1-1.2,3.4-2.8h3.5c0.3,0,0.6-0.3,0.6-0.6S17.2,9.4,16.9,9.4z M10,12.2c-1.2,0-2.2-1-2.2-2.2
  		c0-1.2,1-2.2,2.2-2.2c1.2,0,2.2,1,2.2,2.2c0,0,0,0,0,0c0,0,0,0,0,0C12.2,11.2,11.2,12.2,10,12.2z"/>
  </g>
</svg>
