<svg xmlns="http://www.w3.org/2000/svg" viewBox="-505.6 382.2 15 11.8"><style>.st0{fill:#939798;}</style><g id="codelang"><path class="st0" d="M-501.7 391.8c-.2 0-.3-.1-.4-.2l-3.2-3.2c-.2-.2-.2-.6 0-.9l3.2-3.2c.2-.2.6-.2.9 0 .2.2.2.6 0 .9l-2.8 2.8 2.8 2.8c.2.2.2.6 0 .9-.2 0-.4.1-.5.1zM-494.4 391.8c-.2 0-.3-.1-.4-.2-.2-.2-.2-.6 0-.9l2.8-2.8-2.8-2.8c-.2-.2-.2-.6 0-.9.2-.2.6-.2.9 0l3.2 3.2c.2.2.2.6 0 .9l-3.2 3.2c-.2.2-.4.3-.5.3zM-499.8 394.1h-.2c-.3-.1-.5-.5-.4-.8l3.4-10.6c.1-.3.5-.5.8-.4.3.1.5.5.4.8l-3.4 10.6c-.1.2-.3.4-.6.4z"/></g></svg>