<?xml version="1.0" encoding="utf-8"?>
<!-- Generator: Adobe Illustrator 19.1.0, SVG Export Plug-In . SVG Version: 6.00 Build 0)  -->
<svg version="1.1" id="Layer_1" xmlns="http://www.w3.org/2000/svg" xmlns:xlink="http://www.w3.org/1999/xlink" x="0px" y="0px"
	 viewBox="-501.2 377.3 11.2 15" style="enable-background:new -501.2 377.3 11.2 15;" xml:space="preserve">
<style type="text/css">
	.st0{fill:#939798;}
</style>
<g>
	<path class="st0" d="M-490.4,387.9c-0.2-0.1-0.3-0.2-0.5-0.3c-0.4-0.3-0.6-0.7-0.7-1.1c-0.1-0.6-0.1-1.2,0.2-1.6
		c0.2-0.2,0.4-0.5,0.7-0.7c0.1,0,0.1-0.1,0.2-0.2c0.2-0.2,0.2-0.5,0-0.7c-0.1-0.2-0.3-0.4-0.4-0.5c-0.5-0.5-1.1-0.8-1.8-0.9
		c-0.3,0-0.6-0.1-1-0.1c-0.3,0-0.7,0.1-1.1,0.3l-0.8,0.3l-0.9-0.3c-0.4-0.1-0.8-0.3-1.2-0.2c-0.9,0-1.7,0.4-2.4,1
		c-0.6,0.6-1,1.3-1.1,2.2c0,0.2,0,0.3-0.1,0.5l0,0.2c0,0,0,0.1,0,0.1v0.5c0,0,0,0,0,0.1c0,0,0,0.1,0,0.1l0,0.1
		c0,0.5,0.2,1.1,0.3,1.7c0.3,0.8,0.6,1.5,1,2.1c0.3,0.4,0.5,0.8,0.9,1.2c0.2,0.2,0.5,0.5,0.9,0.6c0.1,0,0.2,0,0.3,0.1
		c0,0,0.1,0,0.2,0h0.2c0,0,0.1,0,0.1,0l0.1,0c0.1,0,0.2,0,0.4-0.1c0.1,0,0.3-0.1,0.4-0.2l0.3-0.1c0.5-0.2,0.9-0.2,1.4,0.1
		c0.2,0.1,0.5,0.2,0.9,0.3c0.6,0.1,1.1,0,1.6-0.4c0.3-0.3,0.6-0.6,0.8-0.9c0.4-0.6,0.7-1.1,1-1.7c0.1-0.1,0.1-0.3,0.2-0.4l0-0.1
		c0-0.1,0.1-0.2,0.1-0.3C-490,388.2-490.1,388-490.4,387.9z M-491.4,388.8c-0.2,0.5-0.5,0.9-0.8,1.4c-0.2,0.3-0.4,0.5-0.6,0.7
		c-0.2,0.2-0.4,0.2-0.7,0.2c-0.2,0-0.5-0.1-0.6-0.2c-0.8-0.3-1.5-0.4-2.2-0.1l-0.3,0.1c-0.1,0-0.3,0.1-0.4,0.1c-0.1,0-0.1,0-0.2,0.1
		l-0.2,0c0,0,0,0,0,0c0,0-0.1,0-0.1,0c-0.1-0.1-0.3-0.2-0.5-0.4c-0.3-0.3-0.5-0.6-0.8-1c-0.3-0.5-0.6-1.1-0.8-1.8
		c-0.2-0.5-0.2-0.9-0.3-1.4l0-0.2l0,0l0-0.6l0-0.2c0-0.1,0-0.3,0.1-0.4c0.1-0.6,0.4-1.2,0.8-1.6c0.4-0.4,1-0.7,1.6-0.7
		c0.2,0,0.5,0.1,0.8,0.2l0.9,0.3c0.3,0.1,0.5,0.1,0.8,0l0.8-0.3c0.3-0.1,0.6-0.2,0.8-0.2c0.2,0,0.4,0,0.6,0c0.4,0.1,0.8,0.2,1.1,0.5
		c-0.2,0.2-0.4,0.4-0.6,0.6c-0.5,0.7-0.6,1.6-0.4,2.5c0.2,0.7,0.5,1.3,1.2,1.8C-491.5,388.6-491.4,388.7-491.4,388.8
		C-491.3,388.8-491.4,388.8-491.4,388.8z"/>
	<path class="st0" d="M-495.7,381.7c0,0,0.1,0,0.1,0c0.1,0,0.1,0,0.2,0c0.3,0,0.7-0.1,1-0.2c0.5-0.2,0.9-0.5,1.3-1
		c0.4-0.5,0.7-1.1,0.8-1.7c0.1-0.3,0.1-0.6,0-0.9c0-0.3-0.3-0.6-0.6-0.6h-0.1c0,0-0.2,0-0.2,0c-0.1,0-0.1,0-0.2,0
		c-1.5,0.4-2.7,1.6-2.9,3.1c0,0.1,0,0.3,0,0.4l0,0.2C-496.2,381.4-496,381.6-495.7,381.7z M-493.5,378.7c-0.1,0.4-0.3,0.7-0.5,1.1
		c-0.3,0.3-0.5,0.5-0.8,0.7c0,0-0.1,0-0.1,0C-494.9,379.8-494.3,379-493.5,378.7z"/>
</g>
</svg>
