<svg version="1.1" id="Layer_1" x="0px" y="0px"
	 viewBox="0 0 20 20" enable-background="new 0 0 20 20" xml:space="preserve">
  <g id="API">
  	<path fill="#A7AEAE" d="M16.2,15.6H3.8c-0.8,0-1.5-0.7-1.5-1.6V8.5c0-0.8,0.7-1.6,1.5-1.6h0.3v-1c0-0.8,0.7-1.6,1.5-1.6h2.5
  		c0.8,0,1.5,0.7,1.5,1.6v1h0.6v-1c0-0.8,0.7-1.6,1.5-1.6h2.6c0.8,0,1.5,0.7,1.5,1.6v1h0.5c0.8,0,1.5,0.7,1.5,1.6v5.6
  		C17.6,14.9,17,15.6,16.2,15.6z M3.8,8.2c0,0-0.2,0.1-0.2,0.3v5.6c0,0,0,0.3,0.2,0.3h12.4c0,0,0.2-0.1,0.2-0.3V8.5
  		c0,0,0-0.3-0.2-0.3H15c-0.4,0-0.6-0.3-0.6-0.6V5.9c0,0,0-0.3-0.2-0.3h-2.6c0,0-0.2,0.1-0.2,0.3v1.6c0,0.4-0.3,0.6-0.6,0.6H8.9
  		c-0.4,0-0.6-0.3-0.6-0.6V5.9c0,0,0-0.3-0.2-0.3H5.6c0,0-0.2,0.1-0.2,0.3v1.6c0,0.4-0.3,0.6-0.6,0.6H3.8z"/>
  </g>
</svg>
