<svg xmlns="http://www.w3.org/2000/svg" viewBox="-501.7 376.8 12.3 15"><style>.st0{fill:#939798;}</style><g id="trash"><path class="st0" d="M-491 381.1h-9.2c-.2 0-.3.1-.4.2-.1.1-.2.3-.1.4l.8 9.6c0 .3.3.5.6.5h7.7c.3 0 .5-.2.6-.5l.8-9.6c0-.2 0-.3-.1-.4-.4-.1-.5-.2-.7-.2zm-1.3 9.6h-6.6l-.7-8.4h8l-.7 8.4zM-490 379.2h-2.9v-1.1c0-.7-.6-1.3-1.3-1.3h-2.7c-.7 0-1.3.6-1.3 1.3v1.1h-2.9c-.3 0-.6.3-.6.6s.3.6.6.6h11.2c.3 0 .6-.3.6-.6s-.4-.6-.7-.6zm-7.1-1c0-.1.1-.2.2-.2h2.7c.1 0 .2.1.2.2v1.1h-3.1v-1.1z"/><path class="st0" d="M-496.7 389.5c.3 0 .4-.2.4-.5l-.4-5.2c0-.2-.2-.4-.5-.4-.2 0-.4.2-.4.5l.4 5.2c.1.3.3.4.5.4zM-494.5 389.5c.3 0 .4-.2.5-.4l.4-5.2c0-.2-.2-.4-.4-.5-.2 0-.4.2-.5.4l-.4 5.2c0 .3.2.5.4.5z"/></g></svg>