<?xml version="1.0" encoding="utf-8"?>
<!-- Generator: Adobe Illustrator 23.0.6, SVG Export Plug-In . SVG Version: 6.00 Build 0)  -->
<svg version="1.1" xmlns="http://www.w3.org/2000/svg" xmlns:xlink="http://www.w3.org/1999/xlink" x="0px" y="0px"
	 viewBox="0 0 323.36 258.57" style="enable-background:new 0 0 323.36 258.57;" xml:space="preserve">
<style type="text/css">
	.st0{display:none;}
	.st1{display:inline;}
	.st2{fill:#CA3349;}
	.st3{fill:#F2EBAC;}
	.st4{fill:#E6CBAC;}
	.st5{fill:#656C67;}
	.st6{fill:#E4C9A2;}
	.st7{fill:#C6B299;}
	.st8{fill:#EAD498;}
	.st9{fill:#2D3136;}
	.st10{fill:#EDF6F9;}
	.st11{opacity:0.8;}
	.st12{opacity:0.75;fill:#EAD498;enable-background:new    ;}
	.st13{fill:#686A6A;}
	.st14{display:inline;fill:#686A6A;}
	.st15{display:inline;fill:#E9E9E9;}
	.st16{display:inline;fill:#F3F3F3;}
	.st17{display:inline;fill:#929292;}
	.st18{fill:#F3F3F3;}
	.st19{display:inline;fill:#BBBBBB;}
	.st20{display:inline;fill:#464646;}
	.st21{display:inline;fill:#EDF6F9;}
	.st22{fill:#BBBBBB;}
	.st23{fill:#464646;}
	.st24{display:inline;fill:#C7C7C6;}
	.st25{fill:#FAFAFA;}
	.st26{fill:#F4F4F4;}
	.st27{fill:none;stroke:#F0F0F1;stroke-width:2;stroke-miterlimit:10;}
	.st28{fill:#ADEDCD;}
	.st29{opacity:0.75;fill:#E6FAF0;}
	.st30{fill:#32D282;}
	.st31{opacity:0.3;fill:#049661;}
	.st32{opacity:0.4;}
	.st33{fill:#71CC9C;}
	.st34{fill:#FFFFFF;}
	.st35{fill:#B4BFCA;}
	.st36{opacity:0.5;fill:url(#SVGID_1_);}
	.st37{fill:none;stroke:#333333;stroke-width:2;stroke-linecap:round;stroke-linejoin:round;stroke-miterlimit:10;}
	.st38{fill:#0068FF;}
	.st39{fill:#D5E0EA;}
	.st40{fill:none;stroke:#B4BFCA;stroke-width:3.5655;stroke-linecap:round;stroke-linejoin:round;stroke-miterlimit:10;}
	.st41{fill:none;stroke:#404041;stroke-width:3.5655;stroke-linecap:round;stroke-linejoin:round;stroke-miterlimit:10;}
	.st42{fill:#9B9B9B;}
	.st43{fill:none;stroke:#333333;stroke-linecap:round;stroke-linejoin:round;stroke-miterlimit:10;}
	.st44{fill:#F1F1F1;}
	.st45{fill:#404041;}
	.st46{opacity:0.7;fill:#DBD9D9;}
	.st47{opacity:0.5;fill:url(#SVGID_2_);}
	.st48{fill:#686B6E;}
	.st49{fill:#FFBA8B;}
	.st50{fill:#FFE000;}
	.st51{opacity:0.3;fill:#B4BFCA;}
	.st52{fill:none;stroke:#D5E0EA;stroke-width:2;stroke-linecap:round;stroke-linejoin:round;stroke-miterlimit:10;}
	.st53{fill:#FEFDF3;}
	.st54{opacity:0.3;fill:#FFE000;}
	.st55{opacity:0.3;}
	.st56{fill:none;stroke:#333333;stroke-width:1.25;stroke-linecap:round;stroke-linejoin:round;stroke-miterlimit:10;}
	.st57{fill:#FF5050;}
	.st58{fill:#FEFBEB;}
	.st59{opacity:0.3;fill:none;stroke:#FFE000;stroke-width:3;stroke-linecap:round;stroke-linejoin:round;stroke-miterlimit:10;}
	.st60{opacity:0.7;fill:#D5E0EA;}
</style>
<g id="Layer_1">
	<g id="Mascot" class="st0">
		<g class="st1">
			<g>
				<path class="st2" d="M112.84,142.04c0,0-25.41,17.89-26.41,24.7l1.91-0.39c0,0,30.43-20.17,54.55-22.63l0.55-3.06L112.84,142.04
					z"/>
				<path class="st2" d="M152.73,139.48l-20.02,14.2l1.08,0.87c0.82-0.66,35.55-11.27,35.55-11.27l7.32-4.59
					C171.76,139.3,152.73,139.48,152.73,139.48z"/>
				<path class="st2" d="M170.12,156.65c14.21,0,35.52-13.92,35.52-13.92l-6.89-1.31c-0.34,0.34-11.11-0.38-11.11-0.38l-5.11-1.42
					l-12.21,13.91l-0.99,2.41C170.21,155.59,170.12,156.65,170.12,156.65z"/>
			</g>
			<path class="st2" d="M216.5,201.05l-4.39,1.24l-20.29-0.44l-12.69-9.87l-15.34,3.84l-17.74-1.54l-9.93,10.86l-18.64,5.57
				l-9.31-2.89c-0.3-0.26-0.47-0.4-0.47-0.4l4.18,10.23c0,0,9.46,10.15,14.75,11.34c5.29,1.19,14.83-0.09,22-1.19
				c7.16-1.11,12.87-3.67,15.17-7.84c2.3-4.18,2.64-5.37,2.64-5.37s6.82,9.63,12.7,10.74c5.88,1.11,23.36-4.86,23.36-4.86
				s10.66-2.9,12.53-6.56c1.88-3.67,6.82-15.69,6.82-15.69L216.5,201.05z M110.12,209.38c-0.1-0.04-0.2-0.09-0.29-0.14
				c-0.7-0.6-1.27-1.1-1.64-1.42L110.12,209.38z"/>
			<g>
				<path class="st3" d="M233.74,128.57c-0.04-0.55-0.1-1.1-0.17-1.64c-0.05-0.39-0.11-0.79-0.18-1.16
					c-1.46-1.23-3.13-2.33-4.86-3.32c-1.88-1.1-3.84-2.08-5.85-2.99c-1.99-0.94-4.04-1.79-6.09-2.62c-1.03-0.42-2.06-0.82-3.1-1.21
					c-1.04-0.4-2.08-0.78-3.13-1.16c2.2,0.37,4.38,0.86,6.55,1.42c1.41,0.36,2.81,0.77,4.2,1.21
					c-9.89-25.85-33.54-42.68-59.36-42.68c-25.82,0-49.47,16.83-59.36,42.68c1.39-0.43,2.79-0.84,4.19-1.21
					c2.17-0.56,4.35-1.06,6.55-1.42c-1.05,0.38-2.1,0.76-3.14,1.16c-1.03,0.39-2.07,0.79-3.1,1.21c-2.06,0.83-4.1,1.68-6.09,2.62
					c-2,0.91-3.97,1.89-5.84,2.99c-1.73,1-3.39,2.09-4.86,3.32c-0.06,0.37-0.12,0.78-0.17,1.16c-0.07,0.54-0.13,1.09-0.17,1.64
					c-0.1,1.1-0.14,2.21-0.14,3.32c-0.02,2.22,0.13,4.43,0.41,6.62c0.3,2.2,0.71,4.38,1.3,6.49c0.29,1.06,0.63,2.1,1.01,3.11
					c0.19,0.5,0.4,1,0.62,1.48c0.11,0.24,0.22,0.48,0.34,0.71l0.14,0.27c0.16,0.08,0.33,0.17,0.5,0.24l0.98,0.47
					c0.55,0.25,1.31,0.61,1.93,0.89c0.04-0.03,0.07-0.06,0.1-0.09l-1.83-6.95c0.39-0.11,3.85-1,9.83-2.14
					c-0.48-0.09-0.97-0.2-1.45-0.31c-1.36-0.34-2.7-0.75-4-1.28c-0.65-0.27-1.28-0.57-1.89-0.91c-0.61-0.35-1.2-0.74-1.66-1.26
					c6.56,2.14,20.12,1.17,32.17-0.07c11.02-1.14,22.07-1.87,33.18-1.89c11.11,0.02,22.16,0.76,33.18,1.89
					c12.06,1.25,25.62,2.22,32.18,0.07c-0.46,0.52-1.06,0.92-1.66,1.26c-0.61,0.34-1.24,0.64-1.88,0.91c-1.3,0.53-2.64,0.94-4,1.28
					c-0.2,0.05-0.41,0.09-0.61,0.14c6.55,1.22,10.36,2.2,10.77,2.31l-1.75,6.62c0.35-0.16,0.71-0.31,1.05-0.47l0.98-0.47
					c0.16-0.08,0.33-0.16,0.5-0.24l0.14-0.27c0.12-0.23,0.23-0.47,0.34-0.71c0.22-0.48,0.43-0.98,0.62-1.48
					c0.39-1.01,0.72-2.05,1.01-3.11c0.6-2.11,1-4.29,1.3-6.49c0.28-2.19,0.43-4.41,0.41-6.62
					C233.88,130.78,233.84,129.68,233.74,128.57z"/>
				<path class="st4" d="M169.19,220.5c-0.87,0.13-1.74,0.24-2.6,0.31c-0.56,0.03-1.15,0.08-1.68,0.08l-0.2,0
					c0.67-1.5,1.18-2.66,1.57-3.54C167.06,218.24,168.06,219.33,169.19,220.5z"/>
				<path class="st4" d="M171.08,222.43c2.7,2.67,6.04,4.2,9.72,4.47c-6.18,2.51-12.01,3.48-16.49,3.78
					c-4.47,0.3-9.01-0.23-13.45-1.45c0.37-0.07,0.65-0.11,0.97-0.15c0.37-0.04,8.33-1.08,11.93-6.43l0.34,0.01l0.88-0.01
					c0.6,0,1.14-0.05,1.71-0.07c1.36-0.12,2.68-0.31,3.98-0.57C170.8,222.15,170.94,222.29,171.08,222.43z"/>
				<path class="st5" d="M178.72,142.44c-0.26,0.34-0.55,0.71-0.86,1.1c-1.58,2-3.77,4.55-6.36,7.04c-3.02-0.09-6.12-0.14-9.31-0.14
					c-5.28,0-10.33,0.14-15.14,0.37c6.79-2.82,14.94-5.57,23.77-7.22C173.4,143.11,176.04,142.72,178.72,142.44z"/>
				<path class="st5" d="M139,145.48c-2.42,1.7-5.16,3.87-7.81,6.51c-6.8,0.68-12.72,1.5-17.61,2.29
					C121.1,150.83,129.68,147.65,139,145.48z"/>
				<path class="st5" d="M222.02,159.51l-2.76,19.34l-13.24,9.27l-34.53-3.93l-5.2-17.12c-0.12-0.42-0.47-0.72-0.9-0.79
					c-1.28-0.21-2.41-0.31-3.35-0.31c-0.95,0-2.08,0.11-3.36,0.31c-0.43,0.07-0.78,0.38-0.9,0.79l-5.07,16.7l-34.34,7.64
					l-13.61-9.53l-2.68-21.7c0.58-0.33,1.18-0.66,1.78-0.99c0.84-0.18,1.79-0.37,2.84-0.57l2.53,20.47
					c0.04,0.32,0.22,0.61,0.48,0.79l9.36,6.56c0.19,0.13,0.42,0.2,0.65,0.2c0.08,0,0.16-0.01,0.25-0.03l28.23-6.28
					c0.1-0.02,0.19-0.06,0.28-0.1c0.26-0.14,0.47-0.38,0.56-0.68l5.08-16.74c1.36-0.35,4.86-1.17,7.93-1.17
					c3.06,0,6.56,0.82,7.92,1.17l5.08,16.74c0.13,0.43,0.51,0.74,0.96,0.8l28.23,3.21c0.27,0.03,0.55-0.04,0.78-0.2l9.37-6.55
					c0.25-0.18,0.42-0.46,0.47-0.77l2.5-17.49C219.22,158.92,220.79,159.24,222.02,159.51z"/>
				<path class="st5" d="M225.51,147.38l-2.43,9.22c-4.97-1.1-15.89-3.25-30.75-4.69c4.86-2.07,9.8-4.67,14.32-7.91
					C215.49,145.25,221.98,146.59,225.51,147.38z"/>
				<g>
					<path class="st6" d="M125.95,176.23c1.92-1.04,4.1-0.89,7.5-0.88c0.37,0.01,0.74,0,1.14,0c0.33,0,0.67-0.01,1.03-0.02
						c3.51-0.03,6.43,0.3,6.37-5.21c-0.05-5.51-2.5-9.96-6.01-9.93c-3.51,0.03-6.9,4.54-6.69,10.05c0.06,1.43,0.27,2.47,0.61,3.21
						C126.84,174.22,126,176.11,125.95,176.23z M168.14,153.57c-1.36,1.1-2.79,2.13-4.29,3.03l-4.98,3.01
						c-3.12,0.38-5.83,1.15-5.99,1.2c-0.09,0.03-0.18,0.06-0.26,0.11c-0.24,0.14-0.43,0.37-0.51,0.65l-5.07,16.71l-27.1,6.03
						l-8.54-5.98l-2.48-20.12c4.85-0.89,11.33-1.92,19.12-2.79c-0.83,1-1.64,2.05-2.41,3.15l-4.64,6.65l6.75-4.5
						c0.1-0.07,4.4-2.9,11.43-6.34c7.01-0.53,14.74-0.86,23.02-0.86C164.21,153.51,166.19,153.53,168.14,153.57z"/>
					<path class="st6" d="M197.81,173.97c-0.03-0.13-0.77-2.35-4.04-1.96c0.38-0.82,0.54-1.92,0.43-3.44
						c-0.43-5.5-3.63-9.86-7.13-9.74c-3.5,0.12-5.75,4.68-5.56,10.19c0.19,5.5,3.14,5.47,6.64,5.34
						C192.86,174.28,195.45,172.83,197.81,173.97z M215.11,158.14l-2.44,17.1l-8.61,6.03l-27.06-3.08l-5.05-16.63
						c-0.11-0.37-0.4-0.65-0.77-0.76c-0.17-0.05-3.52-1-7.07-1.31l0.65-0.04c0.56-0.04,9.9-1.18,21.04-5.03
						C198.13,155.37,208.21,156.88,215.11,158.14z"/>
				</g>
				<g>
					<path class="st7" d="M125.95,176.23c1.92-1.04,4.1-0.89,7.5-0.88c0.37,0.01,0.74,0,1.14,0c0.33,0,0.67-0.01,1.03-0.02
						c3.51-0.03,6.43,0.3,6.37-5.21c-0.05-5.51-2.5-9.96-6.01-9.93c-3.51,0.03-6.9,4.54-6.69,10.05c0.06,1.43,0.27,2.47,0.61,3.21
						C126.84,174.22,126,176.11,125.95,176.23z M168.14,153.57c-1.36,1.1-2.79,2.13-4.29,3.03l-4.98,3.01
						c-3.12,0.38-5.83,1.15-5.99,1.2c-0.09,0.03-0.18,0.06-0.26,0.11c-0.24,0.14-0.43,0.37-0.51,0.65l-5.07,16.71l-27.1,6.03
						l-8.54-5.98l-2.48-20.12c4.85-0.89,11.33-1.92,19.12-2.79c-0.83,1-1.64,2.05-2.41,3.15l-4.64,6.65l6.75-4.5
						c0.1-0.07,4.4-2.9,11.43-6.34c7.01-0.53,14.74-0.86,23.02-0.86C164.21,153.51,166.19,153.53,168.14,153.57z"/>
					<path class="st7" d="M197.81,173.97c-0.03-0.13-0.77-2.35-4.04-1.96c0.38-0.82,0.54-1.92,0.43-3.44
						c-0.43-5.5-3.63-9.86-7.13-9.74c-3.5,0.12-5.75,4.68-5.56,10.19c0.19,5.5,3.14,5.47,6.64,5.34
						C192.86,174.28,195.45,172.83,197.81,173.97z M215.11,158.14l-2.44,17.1l-8.61,6.03l-27.06-3.08l-5.05-16.63
						c-0.11-0.37-0.4-0.65-0.77-0.76c-0.17-0.05-3.52-1-7.07-1.31l0.65-0.04c0.56-0.04,9.9-1.18,21.04-5.03
						C198.13,155.37,208.21,156.88,215.11,158.14z"/>
				</g>
				<path class="st4" d="M226.92,165.66c0.41,0.34,0.74,1.23,0.37,5.36c-0.46,5.05-2.58,13.92-3.9,15.35
					c-1.45,0.28-4.5-0.05-6.35-0.49c0.32-1.27,0.41-1.88,0.67-3.18l3.25-2.27c0.26-0.18,0.43-0.46,0.47-0.77l2.27-15.9
					C225.08,164.51,226.5,165.31,226.92,165.66z"/>
				<path class="st4" d="M107.25,186.41c0.16,0.57,0.33,1.15,0.51,1.71c-1.75,0.51-5.3,1-6.91,0.72c-1.33-1.34-3.82-10.59-4.36-15.5
					c-0.44-3.98-0.13-4.84,0.27-5.17c0.47-0.39,2.23-1.39,3.75-2.21l2.06,16.7c0.04,0.32,0.21,0.61,0.48,0.79L107.25,186.41z"/>
				<path class="st4" d="M172.91,186.64l-0.12,1.07c0,0-3.74,3.47-9.76,4.25c-6.02,0.78-10.76-2.93-10.76-2.93
					c0.2,0.64,0.48,2.1,1.84,3.34c-1.6-0.19-3.34-0.32-5.16-0.32c-0.66,0-1.32,0.02-1.96,0.05c-3.71,0.19-8.92,5.8-12.59,11.44
					c-1.8,0.57-7.42,2.35-13.93,4.28c-6.08-8.42-9.06-17.02-9.37-17.91l0,0c-0.12-0.34-0.25-0.69-0.36-1.04l1.56,1.09v0l3.86,2.7
					l1.29,0.9c0.19,0.14,0.42,0.21,0.65,0.21c0.08,0,0.17-0.01,0.25-0.03l35.47-7.9c0.4-0.09,0.72-0.39,0.84-0.78l5.06-16.65
					c0.87-0.12,1.64-0.18,2.3-0.18c0.65,0,1.43,0.06,2.3,0.18l5.21,17.15c0.13,0.43,0.51,0.75,0.96,0.8L172.91,186.64z"/>
				<path class="st4" d="M213.4,185.72l1.14-0.8c-0.19,0.79-0.4,1.58-0.61,2.36c-1.59,5.1-3.47,9.61-5.56,13.6
					c-0.46,0.03-0.95,0.05-1.47,0.05c-1.61,0-3.26-0.14-5.08-0.3c-3.16-0.29-8.17-0.86-9.76-1.05c-1.36-1.09-6.03-4.8-9.91-7.85
					c-0.15-0.12-0.28-0.24-0.41-0.34c-0.68-0.58-1.46-1.24-3.04-1.24c-1.43,0-3.52,0.52-8.57,2.05c2.62-1.96,2.64-4.49,2.64-4.49
					l0.12-1.07l33.28,3.78c0.27,0.03,0.55-0.04,0.78-0.2l3.34-2.34L213.4,185.72z"/>
				<path class="st8" d="M188.91,115.71c0.1,2.96,0.03,8.32-1.35,13.35c-0.06,0.19-0.05,0.39,0,0.57c-1.75-0.18-3.51-0.34-5.26-0.48
					c1.97-4.13,2.4-8.52,2.49-10.07C186.3,118.01,187.81,116.72,188.91,115.71z"/>
				<path class="st8" d="M138.7,119.08c0.09,1.55,0.52,5.93,2.49,10.06c-1.75,0.14-3.51,0.3-5.26,0.49c0.05-0.18,0.05-0.37,0-0.57
					c-1.38-5.01-1.45-10.38-1.35-13.35C135.69,116.72,137.19,118.01,138.7,119.08z"/>
				<path class="st9" d="M197.81,173.97c-2.36-1.14-4.95,0.31-9.66,0.4c-3.5,0.12-6.45,0.16-6.64-5.34
					c-0.19-5.51,2.05-10.07,5.56-10.19c3.5-0.12,6.7,4.25,7.13,9.74c0.12,1.51-0.05,2.62-0.43,3.44
					C197.04,171.62,197.78,173.84,197.81,173.97z M186.8,165.9c0.99-0.02,1.78-0.84,1.76-1.83c-0.02-0.99-0.83-1.78-1.83-1.76
					c-0.99,0.02-1.78,0.83-1.76,1.82C184.99,165.13,185.8,165.92,186.8,165.9z"/>
				<ellipse class="st10" cx="186.76" cy="164.1" rx="1.79" ry="1.79"/>
				<path class="st9" d="M141.99,170.11c0.05,5.51-2.87,5.18-6.37,5.21c-0.36,0.01-0.69,0.01-1.03,0.02c-0.39,0.01-0.77,0.01-1.14,0
					c-3.4,0-5.58-0.16-7.5,0.88c0.05-0.12,0.89-2.01,3.95-2.78c-0.34-0.75-0.55-1.78-0.61-3.21c-0.21-5.5,3.18-10.02,6.69-10.05
					C139.49,160.15,141.94,164.61,141.99,170.11z M136.58,167.23c0.99-0.03,1.77-0.85,1.74-1.84c-0.03-0.99-0.85-1.77-1.84-1.75
					c-0.99,0.03-1.77,0.85-1.75,1.84C134.76,166.48,135.59,167.26,136.58,167.23z"/>
				<ellipse class="st10" cx="136.53" cy="165.44" rx="1.79" ry="1.79"/>
				<g class="st11">
					<path class="st8" d="M115.21,132.71c0,0,0.54-7.1,1.66-9.82c0.57-1.4,4.08-2.29,6.76-2.93c2.68-0.64,6.95-1.91,7.78,1.85
						c0.83,3.76,2.17,6.5,3.06,7.71l-1.15-15.49l-18.42,4.46l-1.21,13.71l0.57,1.08L115.21,132.71"/>
					<path class="st8" d="M208.44,132.71c0,0-0.54-7.1-1.66-9.82c-0.57-1.4-4.08-2.29-6.76-2.93c-2.68-0.64-6.95-1.91-7.78,1.85
						c-0.83,3.76-2.17,6.5-3.06,7.71l1.15-15.49l18.42,4.46l1.21,13.71l-0.57,1.08L208.44,132.71"/>
				</g>
				<path class="st12" d="M182.4,86.35c0,0-0.49,37.15-9.17,37.15s-10.41,0-10.41,0h-1.74c0,0-1.74,0-10.41,0
					c-8.68,0-9.38-37.13-9.38-37.13l-4.26,12.61l0.07,17.3l3.03,2.41l1.38,7.43l1.92,4.33l37.14,0.07l1.72-3.1l1.44-5.23l0.21-3.3
					l4.1-11.71L182.4,86.35z"/>
				<path class="st12" d="M209.73,120.99c0,0,1.79,12.81,6.51,15.13c4.73,2.31,0,0,0,0l-6.62-2L209.73,120.99z"/>
				<path class="st12" d="M113.76,120.99c0,0-1.79,12.81-6.51,15.13c-4.73,2.31,0,0,0,0l6.62-2L113.76,120.99z"/>
				<path class="st9" d="M211,134.06c2.25,0.74,4.51,1.52,6.56,2.72c-1.1-0.43-2.23-0.75-3.37-1.03c-1.14-0.29-2.28-0.53-3.43-0.75
					c-2.3-0.43-4.61-0.8-6.94-1.08c-2.32-0.3-4.64-0.56-6.98-0.75c-2.33-0.2-4.66-0.39-7-0.53c-9.35-0.57-18.72-0.72-28.1-0.73
					c-9.38,0-18.75,0.18-28.1,0.73c-2.34,0.14-4.67,0.33-7,0.53c-2.33,0.2-4.66,0.45-6.98,0.75c-2.32,0.28-4.64,0.65-6.94,1.08
					c-1.15,0.22-2.29,0.47-3.43,0.75c-1.14,0.28-2.27,0.59-3.37,1.03c2.05-1.2,4.31-1.98,6.57-2.72c0.19-0.06,0.38-0.11,0.57-0.17
					c-0.01-0.05-0.03-0.09-0.04-0.14c-0.04-0.26-0.87-6.42,0.58-15.23c0.07-0.42,0.37-0.76,0.79-0.88l2.38-0.68
					c0.52-18.48,8.13-27.17,8.36-27.43c-6.8,10.94-6.74,23.92-6.62,26.94l14.8-4.21c0.01,0,0.02,0,0.03-0.01
					c0.06-0.01,0.12-0.02,0.18-0.03c0.02,0,0.04,0,0.06,0c0.08,0,0.16,0,0.24,0.02c0.01,0,0.03,0.01,0.04,0.01
					c0.06,0.01,0.12,0.03,0.18,0.06c0.03,0.01,0.04,0.03,0.07,0.04c0.05,0.03,0.1,0.06,0.14,0.09c0.01,0.01,0.03,0.01,0.04,0.03
					c0.01,0.01,0.02,0.02,0.03,0.03c0.01,0.01,0.03,0.02,0.04,0.04c0.01,0.01,0.4,0.4,1.03,0.99c-0.15-4.88,0.08-18.87,6.75-30.47
					c-0.14,0.41-5.43,15.87-3.61,33.19c0.59,0.47,1.21,0.94,1.82,1.35c0.29,0.2,0.47,0.53,0.48,0.89c0,0.06,0.13,5.58,2.57,10.28
					c0.03,0.07,0.06,0.14,0.08,0.22c6.07-0.41,12.15-0.58,18.22-0.58c6.07,0,12.15,0.18,18.22,0.6c0.02-0.08,0.05-0.16,0.09-0.23
					c2.44-4.7,2.57-10.22,2.57-10.28c0.01-0.36,0.19-0.69,0.48-0.89c0.61-0.41,1.22-0.87,1.82-1.35c1.82-17.33-3.46-32.78-3.6-33.19
					c6.66,11.6,6.9,25.59,6.75,30.47c0.62-0.58,1.02-0.97,1.03-0.99c0.01-0.01,0.03-0.02,0.04-0.04c0.01-0.01,0.01-0.02,0.03-0.03
					c0.01-0.01,0.03-0.02,0.04-0.03c0.05-0.03,0.1-0.06,0.14-0.1c0.02-0.01,0.04-0.02,0.07-0.04c0.07-0.03,0.13-0.05,0.19-0.07
					c0.01,0,0.03-0.01,0.04-0.01c0.08-0.02,0.16-0.03,0.24-0.02c0.02,0,0.04,0,0.06,0c0.06,0,0.13,0.01,0.19,0.03
					c0.01,0,0.02,0,0.03,0.01l14.8,4.21c0.12-3.02,0.18-16-6.62-26.94c0.24,0.27,7.85,8.96,8.36,27.43l2.39,0.68
					c0.41,0.11,0.71,0.46,0.79,0.88c1.45,8.81,0.61,14.97,0.58,15.23c-0.01,0.05-0.02,0.1-0.03,0.15
					C210.62,133.94,210.81,134,211,134.06z M208.31,133.27c0.11-0.99,0.64-6.38-0.48-13.72l-16.76-4.76
					c0.15,2.84,0.22,8.99-1.39,14.86c-0.02,0.07-0.05,0.14-0.08,0.21c0.17,0.02,0.33,0.03,0.49,0.05c4.71,0.54,9.4,1.29,14.04,2.31
					C205.52,132.54,206.92,132.89,208.31,133.27z M187.56,129.06c1.38-5.02,1.45-10.39,1.35-13.35c-1.1,1-2.61,2.29-4.12,3.37
					c-0.09,1.55-0.52,5.94-2.49,10.07c1.75,0.14,3.51,0.3,5.26,0.48C187.51,129.45,187.5,129.26,187.56,129.06z M141.19,129.14
					c-1.97-4.12-2.4-8.51-2.49-10.06c-1.52-1.07-3.02-2.36-4.12-3.37c-0.1,2.97-0.03,8.33,1.35,13.35c0.05,0.19,0.05,0.39,0,0.57
					C137.68,129.44,139.44,129.28,141.19,129.14z M133.9,129.85c-0.03-0.06-0.06-0.13-0.08-0.2c-1.61-5.87-1.54-12.02-1.4-14.86
					l-16.75,4.76c-1.13,7.33-0.6,12.73-0.49,13.72c1.39-0.38,2.79-0.72,4.19-1.05c2.32-0.51,4.65-0.94,6.99-1.34
					c2.34-0.39,4.69-0.69,7.04-0.97C133.57,129.88,133.73,129.87,133.9,129.85z"/>
				<g id="XMLID_2_">
					<g>
						<path class="st9" d="M179.4,86.84v13.9h-9.85v-4.06h-2.22v18.77h3.36v10.49h-17.24v-10.49h3.34V96.68h-2.21v4.06h-9.85v-13.9
							H179.4z M176.44,97.78v-7.99h-4.29h-7.78h-16.69v7.99h3.93v-4.06h8.14v24.68h-3.35v4.58h11.32v-4.58h-3.35V93.72h8.14v4.06
							H176.44z"/>
						<polygon class="st2" points="176.44,89.79 176.44,97.78 172.51,97.78 172.51,93.72 164.37,93.72 164.37,118.4 167.72,118.4 
							167.72,122.98 156.4,122.98 156.4,118.4 159.75,118.4 159.75,93.72 151.61,93.72 151.61,97.78 147.68,97.78 147.68,89.79 
							164.37,89.79 172.15,89.79 						"/>
					</g>
				</g>
				<path class="st5" d="M98.88,147.38c1.44-0.33,3.38-0.74,5.76-1.2c-1.46,1-3.19,2.25-5.08,3.75L98.88,147.38z"/>
				<path class="st7" d="M151.49,185.49c0,0,0.4,2.58-3.22,3.69c-3.62,1.11-26.53,7.93-29.14,7.56c-2.61-0.37-9.24-4.8-9.24-4.8
					l-1.61-5.72l9.81,6.12L151.49,185.49z"/>
				<path class="st7" d="M172.01,184.99c0,0-0.29,2.6,3.37,3.55c3.66,0.95,26.85,6.77,29.44,6.29c2.59-0.48,9.03-5.19,9.03-5.19
					l1.36-5.78l-9.02,5.38L172.01,184.99z"/>
				<path class="st7" d="M97.02,180.73c0,0,3.17,6.35,8.3,4.15l3.66,1.34l-0.37,2.69l-7.69,0.98l-2.08-1.22L97.02,180.73z"/>
				<path class="st7" d="M226.98,178.99c0,0-5.19,6.63-10.32,4.43l-1.65,1.06l0.37,2.69l7.69,0.98l2.07-1.22L226.98,178.99z"/>
				<path class="st7" d="M146.73,228.87c0,0,18.81,9.48,40.1-3.42l-6.84-0.47c0,0-14.92,5.91-26.73,2.64L146.73,228.87z"/>
				<path class="st9" d="M165.79,211.4l1.3,1.55c0.03,0.04,2.92,3.48,6.46,6.98c2.35,2.33,5.19,3.51,8.45,3.51
					c1.11,0,2.28-0.14,3.46-0.43c1.09-0.27,2.28-0.55,3.5-0.84c4.4-1.05,9.38-2.24,11.79-2.92c0.48-0.14,1.01-0.26,1.57-0.39
					c3.21-0.74,7.62-1.77,9.95-6.44c1.75-3.51,4.12-8.06,5.88-11.4c-1.52,0.7-3.12,1.46-4.25,2.06c-1.75,0.92-4.03,1.36-6.99,1.36
					c-1.76,0-3.48-0.15-5.39-0.32c-3.82-0.35-10.28-1.11-10.34-1.12l-0.49-0.05l-0.39-0.31c-0.06-0.04-5.72-4.55-10.29-8.15
					c-0.19-0.15-0.35-0.29-0.51-0.42c-0.48-0.41-0.48-0.41-0.77-0.41c-1.47,0-5.73,1.32-15.08,4.22l-0.57,0.18l-0.56-0.21
					c-0.06-0.02-6.19-2.29-13.54-2.29c-0.6,0-1.2,0.02-1.78,0.05c-0.74,0.04-4.87,2-10.15,10.35l-0.34,0.54l-0.61,0.19
					c-0.09,0.03-9.18,2.96-18.82,5.72l-0.63,0.18l-0.59-0.28c-0.06-0.03-3.83-1.78-7.42-3.42c1.96,2.89,4.46,6.5,6.66,9.33
					c3.85,4.95,8.7,9.53,17.99,9.53c1.17,0,2.4-0.07,3.68-0.22c9.46-1.07,11.89-1.5,13.2-1.73c0.44-0.08,0.79-0.14,1.24-0.19
					c0.07-0.01,7.82-1.01,9.99-5.88c2.24-5.01,2.69-6.2,2.71-6.25l0.79-2.11c0,0,0.1-0.55,0.26-0.72c0,0,0,0,0,0l0.02,0.01
					C165.42,210.84,165.79,211.4,165.79,211.4z M106.89,116.84c-2.05,0.83-4.1,1.68-6.09,2.62c-2,0.91-3.97,1.89-5.84,2.99
					c-1.73,1-3.39,2.09-4.86,3.33c-0.06,0.37-0.12,0.78-0.17,1.16c-0.06,0.54-0.13,1.09-0.17,1.64c-0.1,1.1-0.14,2.21-0.15,3.31
					c-0.02,2.22,0.13,4.43,0.41,6.62c0.3,2.2,0.71,4.38,1.3,6.49c0.3,1.06,0.63,2.1,1.02,3.11c0.19,0.51,0.4,1,0.62,1.48
					c0.11,0.24,0.22,0.48,0.34,0.71l0.14,0.27c0.16,0.08,0.33,0.17,0.49,0.24l0.98,0.47c0.55,0.25,1.31,0.61,1.93,0.89
					c0.04-0.03,0.07-0.06,0.1-0.09l-1.82-6.95c0.38-0.11,3.85-1,9.83-2.14c-0.48-0.09-0.97-0.19-1.45-0.31
					c-1.36-0.34-2.7-0.75-4-1.28c-0.64-0.27-1.28-0.57-1.89-0.91c-0.61-0.35-1.2-0.74-1.66-1.26c6.56,2.14,20.12,1.17,32.17-0.07
					c11.03-1.14,22.07-1.87,33.18-1.9c11.11,0.03,22.16,0.76,33.18,1.9c12.06,1.24,25.62,2.22,32.18,0.07
					c-0.46,0.52-1.06,0.92-1.66,1.26c-0.6,0.34-1.24,0.64-1.89,0.91c-1.3,0.52-2.64,0.94-4,1.28c-0.2,0.05-0.4,0.09-0.61,0.14
					c6.55,1.21,10.36,2.2,10.77,2.31l-1.75,6.62c0.35-0.16,0.71-0.31,1.05-0.47l0.99-0.47c0.16-0.08,0.33-0.16,0.49-0.24l0.14-0.27
					c0.12-0.23,0.23-0.47,0.34-0.71c0.22-0.48,0.43-0.98,0.63-1.48c0.38-1.01,0.72-2.05,1.01-3.11c0.6-2.11,1-4.3,1.3-6.49
					c0.28-2.19,0.43-4.41,0.41-6.62c-0.01-1.11-0.05-2.22-0.14-3.31c-0.05-0.55-0.11-1.1-0.17-1.64c-0.05-0.38-0.11-0.79-0.17-1.16
					c-1.47-1.24-3.13-2.33-4.86-3.33c-1.88-1.09-3.84-2.08-5.85-2.99c-1.99-0.94-4.04-1.79-6.09-2.62c-1.03-0.41-2.06-0.82-3.1-1.21
					c-1.03-0.4-2.08-0.78-3.13-1.16c2.2,0.36,4.38,0.87,6.54,1.42c1.41,0.36,2.81,0.77,4.2,1.21
					c-9.89-25.85-33.54-42.69-59.36-42.69c-25.82,0-49.47,16.83-59.35,42.69c1.39-0.44,2.79-0.85,4.19-1.21
					c2.16-0.55,4.35-1.06,6.55-1.42c-1.05,0.38-2.1,0.76-3.14,1.16C108.96,116.01,107.92,116.42,106.89,116.84z M237.08,131.79
					c0.12,2.38,0.06,4.76-0.21,7.13c-0.25,2.36-0.7,4.71-1.32,7.03c-0.33,1.15-0.7,2.3-1.15,3.43c-0.22,0.57-0.46,1.13-0.73,1.69
					c-0.13,0.28-0.27,0.55-0.43,0.84l-0.23,0.42c-0.08,0.15-0.15,0.27-0.28,0.47l-0.24,0.37l-0.38,0.19
					c-0.4,0.21-0.73,0.36-1.1,0.53l-1.06,0.48c-0.71,0.3-1.42,0.59-2.14,0.87c-0.5,0.2-0.94,0.37-1.36,0.55l-1.18,4.48
					c-0.03-0.01-0.38-0.1-1.05-0.26l-0.06,0.47c1.3,0.68,3.86,2.06,4.73,2.78c1.75,1.45,1.88,3.75,1.49,8.04
					c-0.2,2.2-0.93,6.49-1.94,10.43c-1.75,6.78-2.68,7.57-3.88,7.88c-0.61,0.16-1.55,0.31-2.46,0.31c-1.85,0-4.37,0.05-6.07-0.36
					c-0.44,1.54-1.68,5.56-4.14,10.58c0.12-0.06,0.24-0.11,0.36-0.17c3.04-1.59,8.87-4.14,9.12-4.25l4.61-2l-2.36,4.44
					c-0.05,0.1-5.12,9.61-8.21,15.83c-3.08,6.16-8.85,7.5-12.3,8.29c-0.52,0.12-1.01,0.24-1.42,0.35c-2.48,0.7-7.5,1.89-11.92,2.96
					c-0.05,0.01-0.11,0.03-0.16,0.03c-2.72,1.68-5.7,3.18-8.95,4.42c-11.9,4.51-24.44,4.25-35.8,0.08c-1.85,0.24-4.27,0.53-7.51,0.9
					c-1.4,0.16-2.77,0.24-4.07,0.24c-10.83,0-16.57-5.5-20.76-10.89c-4.49-5.77-9.97-14.33-10.21-14.69l-3.18-4.96l5.38,2.42
					c2.57,1.16,10.23,4.7,12.42,5.72c0.18-0.05,0.35-0.1,0.52-0.15c-3.64-5.19-6.62-11.11-8.73-17.67c-1.79,0.54-4.55,0.96-6.7,0.96
					c-0.78,0-1.49-0.06-2.03-0.19c-1.2-0.27-2.57-1.43-4.44-8c-1.08-3.81-1.89-7.97-2.13-10.12c-0.47-4.18-0.38-6.42,1.36-7.87
					c1.05-0.87,4.58-2.73,5.31-3.11l-0.16-1.29c-11.23,6.6-17.96,12.43-18.09,12.55l-8.03,7.05l5.72-9.02
					c4.53-7.15,9.76-12.93,14.57-17.38c-0.2-0.08-0.38-0.16-0.58-0.24l-1.06-0.48c-0.36-0.17-0.69-0.33-1.09-0.53L91,153.17
					l-0.24-0.37c-0.14-0.2-0.19-0.32-0.28-0.47l-0.24-0.42c-0.15-0.28-0.29-0.56-0.42-0.84c-0.27-0.56-0.51-1.13-0.73-1.69
					c-0.44-1.13-0.82-2.27-1.15-3.43c-0.63-2.32-1.07-4.66-1.32-7.03c-0.26-2.37-0.33-4.75-0.21-7.13c0.06-1.19,0.18-2.38,0.34-3.56
					c0.08-0.59,0.17-1.18,0.29-1.77c0.12-0.6,0.24-1.16,0.42-1.81l0.13-0.46l0.33-0.26c1.87-1.47,3.89-2.58,5.95-3.57
					c1.69-0.79,3.42-1.5,5.15-2.14c4.85-13.47,13.2-25.41,24.16-33.74c11.34-8.6,24.67-13.15,38.56-13.15
					c13.89,0,27.22,4.55,38.56,13.15c10.97,8.32,19.31,20.27,24.16,33.73c1.74,0.64,3.46,1.34,5.16,2.14
					c2.05,0.98,4.07,2.1,5.95,3.57l0.33,0.26l0.13,0.46c0.19,0.66,0.3,1.21,0.42,1.81c0.12,0.59,0.21,1.18,0.29,1.77
					C236.91,129.42,237.03,130.6,237.08,131.79z M227.29,171.01c0.37-4.13,0.05-5.01-0.37-5.35c-0.42-0.35-1.83-1.15-3.21-1.9
					l-2.27,15.89c-0.04,0.31-0.22,0.59-0.47,0.77l-3.25,2.27c-0.26,1.3-0.35,1.91-0.67,3.19c1.86,0.43,4.9,0.77,6.35,0.49
					C224.71,184.94,226.84,176.07,227.29,171.01z M223.07,156.6l2.43-9.22c-3.53-0.8-10.02-2.14-18.86-3.39
					c-4.52,3.25-9.46,5.84-14.32,7.91C207.19,153.36,218.11,155.51,223.07,156.6z M219.25,178.85l2.76-19.33
					c-1.23-0.27-2.8-0.6-4.68-0.95l-2.5,17.49c-0.05,0.31-0.22,0.59-0.47,0.77l-9.37,6.55c-0.22,0.16-0.5,0.23-0.77,0.2L176,180.36
					c-0.45-0.05-0.83-0.36-0.96-0.79l-5.09-16.74c-1.36-0.35-4.86-1.17-7.92-1.17c-3.07,0-6.57,0.82-7.93,1.17l-5.09,16.74
					c-0.09,0.29-0.29,0.53-0.56,0.67c-0.08,0.05-0.18,0.08-0.28,0.1l-28.23,6.28c-0.09,0.02-0.16,0.03-0.25,0.03
					c-0.23,0-0.46-0.07-0.65-0.2l-9.36-6.56c-0.26-0.18-0.44-0.47-0.48-0.79l-2.52-20.47c-1.05,0.2-1.99,0.4-2.84,0.57
					c-0.6,0.33-1.19,0.66-1.78,0.99l2.68,21.7l13.61,9.53l34.34-7.64l5.07-16.7c0.13-0.42,0.48-0.73,0.9-0.8
					c1.29-0.21,2.41-0.31,3.36-0.31c0.94,0,2.07,0.11,3.35,0.31c0.43,0.07,0.78,0.38,0.9,0.8l5.2,17.11l34.53,3.93L219.25,178.85z
					 M212.66,175.24l2.44-17.11c-6.89-1.25-16.97-2.77-29.31-3.72c-11.14,3.84-20.48,4.99-21.04,5.03l-0.65,0.05
					c3.55,0.31,6.9,1.26,7.07,1.31c0.37,0.11,0.66,0.39,0.77,0.76l5.05,16.63l27.06,3.07L212.66,175.24z M214.54,184.92l-1.15,0.8
					l-3.09,2.16l-3.34,2.34c-0.23,0.16-0.51,0.23-0.78,0.2l-33.27-3.78l-2.42-0.28c-0.45-0.05-0.82-0.36-0.96-0.8l-5.21-17.15
					c-0.87-0.12-1.64-0.18-2.29-0.18c-0.66,0-1.43,0.06-2.3,0.18l-5.06,16.65c-0.12,0.39-0.44,0.69-0.84,0.77l-35.47,7.9
					c-0.08,0.02-0.17,0.02-0.25,0.02c-0.23,0-0.46-0.07-0.65-0.21l-1.29-0.9l-3.86-2.7v-0.01l-1.56-1.09
					c0.11,0.35,0.24,0.69,0.36,1.04l0,0c0.3,0.89,3.29,9.49,9.36,17.91c6.51-1.92,12.13-3.7,13.93-4.27
					c3.66-5.65,8.88-11.25,12.59-11.44c0.64-0.03,1.3-0.05,1.96-0.05c1.81,0,3.55,0.13,5.15,0.32c-1.36-1.24-1.64-2.69-1.84-3.34
					c0,0,4.73,3.7,10.75,2.93c6.02-0.78,9.77-4.25,9.77-4.25s-0.02,2.53-2.64,4.49c5.05-1.53,7.14-2.05,8.57-2.05
					c1.58,0,2.35,0.66,3.04,1.24c0.13,0.11,0.26,0.22,0.41,0.34c3.88,3.06,8.55,6.76,9.91,7.85c1.58,0.19,6.59,0.76,9.75,1.05
					c1.82,0.16,3.47,0.3,5.08,0.3c0.52,0,1.01-0.02,1.47-0.05c2.09-3.99,3.97-8.5,5.56-13.6
					C214.15,186.5,214.36,185.71,214.54,184.92z M202.27,142.78c-0.01,0-0.02-0.01-0.03-0.01c-2.67-0.2-5.34-0.38-8.02-0.53
					c-3.72-0.21-7.44-0.39-11.16-0.55c-0.22,0.32-0.65,0.96-1.29,1.82c-2.02,2.74-6.04,7.77-11.19,12.03
					c7.29-1.31,19.93-4.54,30.87-12.17C201.72,143.18,202,142.97,202.27,142.78z M177.87,143.54c0.31-0.38,0.6-0.76,0.85-1.09
					c-2.68,0.27-5.32,0.66-7.9,1.15c-8.83,1.65-16.99,4.4-23.77,7.22c4.81-0.23,9.86-0.37,15.14-0.37c3.19,0,6.29,0.05,9.31,0.14
					C174.1,148.09,176.29,145.54,177.87,143.54z M180.8,226.9c-3.68-0.27-7.02-1.8-9.72-4.47c-0.14-0.14-0.27-0.28-0.41-0.42
					c-1.3,0.26-2.63,0.46-3.99,0.57c-0.57,0.02-1.11,0.07-1.71,0.07l-0.88,0.01l-0.34-0.01c-3.59,5.34-11.56,6.38-11.93,6.43
					c-0.33,0.04-0.6,0.08-0.97,0.15c4.44,1.22,8.98,1.75,13.45,1.45C168.79,230.38,174.62,229.41,180.8,226.9z M166.59,220.81
					c0.86-0.07,1.73-0.18,2.6-0.31c-1.13-1.17-2.13-2.27-2.91-3.15c-0.38,0.88-0.9,2.05-1.57,3.54h0.2
					C165.44,220.9,166.03,220.84,166.59,220.81z M163.85,156.6c1.49-0.9,2.93-1.93,4.29-3.03c-1.95-0.03-3.93-0.06-5.94-0.06
					c-8.28,0-16.01,0.34-23.02,0.87c-7.03,3.44-11.33,6.27-11.43,6.34l-6.75,4.5l4.64-6.65c0.77-1.1,1.58-2.15,2.41-3.15
					c-7.79,0.87-14.27,1.9-19.12,2.79l2.48,20.11l8.54,5.98l27.1-6.02l5.07-16.71c0.08-0.28,0.27-0.51,0.51-0.65
					c0.08-0.05,0.16-0.09,0.26-0.11c0.16-0.04,2.87-0.82,5.99-1.2L163.85,156.6z M166.97,141.26c-1.89-0.03-3.78-0.05-5.66-0.05h0
					c-2.77,0-5.54,0.03-8.32,0.09l-5.12,2.43c0,0-0.03,0.02-0.07,0.04c-0.77,0.38-7.49,3.77-13.82,9.82
					c5.67-2.98,14-6.87,23.81-9.89C160.72,142.78,163.79,141.96,166.97,141.26z M131.19,151.99c2.65-2.63,5.39-4.81,7.81-6.51
					c-9.32,2.16-17.9,5.34-25.42,8.8C118.47,153.5,124.39,152.67,131.19,151.99z M132.95,143.87c3.12-0.88,6.35-1.64,9.65-2.28
					c-4.73,0.17-9.47,0.39-14.2,0.66c-2.75,0.15-5.48,0.34-8.22,0.54c-1.37,0.11-2.73,0.21-4.09,0.36
					c-0.39,0.04-0.77,0.08-1.16,0.13c-3.57,2.13-17.25,10.73-26.65,21.96C97.41,158.9,113.31,149.36,132.95,143.87z M107.76,188.12
					c-0.18-0.57-0.35-1.14-0.51-1.72l-4.22-2.95c-0.27-0.19-0.44-0.47-0.48-0.79l-2.05-16.7c-1.52,0.82-3.28,1.82-3.75,2.21
					c-0.41,0.33-0.71,1.19-0.27,5.17c0.55,4.91,3.03,14.15,4.37,15.5C102.45,189.13,106.01,188.64,107.76,188.12z M104.64,146.18
					c-2.38,0.46-4.32,0.87-5.76,1.2l0.68,2.55C101.45,148.43,103.18,147.18,104.64,146.18z"/>
			</g>
		</g>
	</g>
	<g id="Mascot_1_" class="st0">
		<g class="st1">
			<path class="st13" d="M1509.87,142.04c0,0-25.55,17.98-26.55,24.84l1.92-0.39c0,0,30.6-20.28,54.85-22.75l0.55-3.08
				L1509.87,142.04z"/>
			<path class="st13" d="M1549.98,139.47l-20.13,14.27l1.09,0.87c0.82-0.66,35.75-11.33,35.75-11.33l7.36-4.62
				C1569.12,139.28,1549.98,139.47,1549.98,139.47z"/>
			<path class="st13" d="M1567.47,156.73c14.29,0,35.71-14,35.71-14l-6.93-1.32c-0.34,0.34-11.17-0.38-11.17-0.38l-5.14-1.43
				l-12.28,13.99l-1,2.43C1567.56,155.67,1567.47,156.73,1567.47,156.73z"/>
		</g>
		<path class="st14" d="M1614.11,201.37l-4.42,1.24l-20.4-0.44l-12.76-9.92l-15.42,3.86l-17.84-1.54l-9.99,10.92l-18.74,5.6
			l-9.36-2.9c-0.3-0.26-0.47-0.41-0.47-0.41l4.2,10.29c0,0,9.52,10.2,14.83,11.4c5.31,1.2,14.92-0.09,22.12-1.2
			c7.2-1.11,12.94-3.69,15.26-7.89c2.31-4.2,2.66-5.4,2.66-5.4s6.86,9.69,12.77,10.8c5.91,1.11,23.49-4.89,23.49-4.89
			s10.72-2.91,12.6-6.6c1.89-3.69,6.86-15.77,6.86-15.77L1614.11,201.37z M1507.14,209.75c-0.1-0.05-0.2-0.09-0.3-0.14
			c-0.7-0.61-1.28-1.1-1.65-1.43L1507.14,209.75z"/>
		<path class="st15" d="M1631.44,128.5c-0.04-0.55-0.11-1.1-0.17-1.65c-0.05-0.39-0.11-0.79-0.18-1.17
			c-1.47-1.24-3.15-2.34-4.89-3.34c-1.89-1.1-3.86-2.09-5.88-3.01c-2-0.94-4.06-1.8-6.13-2.63c-1.03-0.42-2.07-0.83-3.12-1.21
			c-1.04-0.41-2.09-0.78-3.15-1.17c2.21,0.37,4.41,0.87,6.58,1.43c1.41,0.37,2.82,0.78,4.22,1.21
			c-9.95-25.99-33.72-42.92-59.68-42.92c-25.96,0-49.74,16.93-59.68,42.92c1.4-0.44,2.81-0.85,4.22-1.21
			c2.18-0.56,4.37-1.06,6.58-1.43c-1.06,0.38-2.11,0.76-3.15,1.17c-1.04,0.39-2.08,0.79-3.12,1.21c-2.07,0.83-4.12,1.69-6.13,2.63
			c-2.01,0.92-3.99,1.9-5.88,3.01c-1.74,1-3.41,2.1-4.89,3.34c-0.06,0.38-0.12,0.78-0.17,1.17c-0.07,0.55-0.13,1.1-0.17,1.65
			c-0.1,1.11-0.14,2.22-0.15,3.33c-0.02,2.23,0.13,4.46,0.41,6.66c0.3,2.21,0.71,4.41,1.31,6.53c0.3,1.06,0.63,2.11,1.02,3.13
			c0.19,0.51,0.41,1.01,0.63,1.49c0.11,0.24,0.22,0.48,0.34,0.71l0.14,0.27c0.16,0.08,0.34,0.17,0.5,0.25l0.99,0.47
			c0.55,0.25,1.31,0.61,1.94,0.9c0.04-0.03,0.07-0.06,0.1-0.09l-1.84-6.99c0.39-0.11,3.87-1.01,9.88-2.15
			c-0.48-0.09-0.97-0.2-1.45-0.31c-1.37-0.34-2.72-0.75-4.02-1.28c-0.65-0.27-1.29-0.57-1.9-0.92c-0.61-0.35-1.21-0.75-1.67-1.27
			c6.6,2.15,20.23,1.18,32.35-0.07c11.08-1.14,22.19-1.88,33.36-1.9c11.17,0.02,22.28,0.76,33.36,1.9
			c12.12,1.25,25.76,2.23,32.36,0.07c-0.46,0.53-1.06,0.92-1.67,1.27c-0.61,0.34-1.25,0.64-1.9,0.92c-1.31,0.53-2.66,0.94-4.02,1.28
			c-0.2,0.05-0.41,0.09-0.61,0.14c6.59,1.22,10.42,2.21,10.83,2.32l-1.76,6.66c0.35-0.16,0.71-0.31,1.06-0.47l0.99-0.47
			c0.16-0.08,0.33-0.16,0.5-0.25l0.14-0.27c0.12-0.23,0.23-0.47,0.34-0.71c0.22-0.49,0.43-0.98,0.63-1.49
			c0.39-1.01,0.72-2.06,1.02-3.13c0.6-2.12,1.01-4.32,1.31-6.53c0.28-2.2,0.43-4.43,0.41-6.66
			C1631.57,130.72,1631.53,129.61,1631.44,128.5z"/>
		<path class="st16" d="M1566.53,220.94c-0.87,0.13-1.75,0.24-2.62,0.31c-0.56,0.03-1.15,0.08-1.69,0.08l-0.2,0
			c0.67-1.51,1.19-2.68,1.58-3.56C1564.39,218.66,1565.4,219.75,1566.53,220.94z"/>
		<path class="st16" d="M1568.43,222.87c2.71,2.69,6.07,4.23,9.77,4.5c-6.21,2.52-12.07,3.5-16.58,3.8
			c-4.5,0.3-9.06-0.23-13.53-1.45c0.37-0.07,0.65-0.11,0.98-0.16c0.37-0.04,8.38-1.09,11.99-6.46l0.34,0.01l0.89-0.01
			c0.6,0,1.15-0.05,1.72-0.07c1.36-0.12,2.7-0.31,4.01-0.58C1568.16,222.59,1568.29,222.73,1568.43,222.87z"/>
		<path class="st17" d="M1576.12,142.45c-0.26,0.34-0.55,0.71-0.86,1.1c-1.59,2.01-3.79,4.57-6.4,7.08
			c-3.03-0.09-6.15-0.15-9.36-0.15c-5.3,0-10.39,0.14-15.22,0.38c6.82-2.83,15.02-5.6,23.9-7.26
			C1570.77,143.11,1573.42,142.72,1576.12,142.45z"/>
		<path class="st17" d="M1536.18,145.5c-2.44,1.71-5.19,3.9-7.85,6.55c-6.83,0.68-12.79,1.51-17.71,2.31
			C1518.18,150.88,1526.8,147.68,1536.18,145.5z"/>
		<path class="st17" d="M1619.65,159.61l-2.78,19.44l-13.31,9.32l-34.72-3.95l-5.23-17.21c-0.12-0.42-0.48-0.73-0.91-0.8
			c-1.29-0.21-2.42-0.31-3.37-0.31c-0.95,0-2.09,0.11-3.38,0.31c-0.43,0.07-0.78,0.38-0.91,0.8l-5.1,16.79l-34.53,7.68l-13.68-9.58
			l-2.7-21.82c0.59-0.33,1.18-0.66,1.79-0.99c0.85-0.18,1.8-0.38,2.85-0.58l2.54,20.59c0.04,0.32,0.22,0.61,0.48,0.79l9.41,6.6
			c0.19,0.13,0.42,0.2,0.65,0.2c0.08,0,0.16-0.01,0.25-0.03l28.39-6.32c0.1-0.02,0.19-0.06,0.28-0.1c0.26-0.14,0.47-0.38,0.56-0.68
			l5.11-16.83c1.37-0.35,4.88-1.17,7.97-1.17c3.08,0,6.59,0.82,7.97,1.17l5.11,16.83c0.13,0.44,0.51,0.75,0.97,0.8l28.39,3.22
			c0.28,0.03,0.56-0.04,0.78-0.2l9.42-6.59c0.25-0.18,0.43-0.46,0.47-0.78l2.51-17.59C1616.83,159.01,1618.41,159.34,1619.65,159.61
			z"/>
		<path class="st17" d="M1623.16,147.41l-2.44,9.27c-5-1.1-15.98-3.26-30.92-4.72c4.88-2.08,9.85-4.69,14.39-7.96
			C1613.08,145.26,1619.61,146.61,1623.16,147.41z"/>
		<g class="st1">
			<path class="st6" d="M1523.06,176.42c1.94-1.05,4.12-0.89,7.55-0.89c0.37,0.01,0.75,0,1.14,0c0.34,0,0.67-0.01,1.03-0.02
				c3.53-0.03,6.46,0.3,6.41-5.24c-0.05-5.54-2.51-10.02-6.04-9.98c-3.53,0.03-6.94,4.57-6.73,10.1c0.06,1.44,0.27,2.48,0.61,3.23
				C1523.95,174.39,1523.11,176.3,1523.06,176.42z M1565.47,153.63c-1.37,1.11-2.81,2.14-4.31,3.05l-5.01,3.02
				c-3.14,0.38-5.87,1.16-6.02,1.2c-0.09,0.03-0.18,0.06-0.26,0.11c-0.24,0.14-0.43,0.37-0.52,0.65l-5.1,16.8l-27.25,6.06
				l-8.58-6.01l-2.5-20.23c4.87-0.9,11.39-1.93,19.22-2.81c-0.84,1.01-1.65,2.06-2.43,3.17l-4.66,6.69l6.79-4.53
				c0.1-0.07,4.42-2.91,11.49-6.37c7.05-0.53,14.82-0.87,23.15-0.87C1561.53,153.57,1563.52,153.6,1565.47,153.63z"/>
			<path class="st6" d="M1595.31,174.14c-0.03-0.13-0.78-2.36-4.06-1.97c0.38-0.82,0.55-1.93,0.43-3.46
				c-0.43-5.53-3.65-9.92-7.17-9.8c-3.52,0.12-5.78,4.71-5.59,10.25c0.19,5.54,3.15,5.5,6.68,5.37
				C1590.34,174.45,1592.94,173,1595.31,174.14z M1612.7,158.23l-2.46,17.2l-8.65,6.06l-27.21-3.09l-5.08-16.72
				c-0.11-0.37-0.41-0.66-0.78-0.77c-0.17-0.05-3.54-1.01-7.11-1.32l0.65-0.04c0.56-0.04,9.95-1.19,21.16-5.06
				C1595.64,155.44,1605.77,156.96,1612.7,158.23z"/>
		</g>
		<g class="st1">
			<path class="st18" d="M1523.06,176.42c1.94-1.05,4.12-0.89,7.55-0.89c0.37,0.01,0.75,0,1.14,0c0.34,0,0.67-0.01,1.03-0.02
				c3.53-0.03,6.46,0.3,6.41-5.24c-0.05-5.54-2.51-10.02-6.04-9.98c-3.53,0.03-6.94,4.57-6.73,10.1c0.06,1.44,0.27,2.48,0.61,3.23
				C1523.95,174.39,1523.11,176.3,1523.06,176.42z M1565.47,153.63c-1.37,1.11-2.81,2.14-4.31,3.05l-5.01,3.02
				c-3.14,0.38-5.87,1.16-6.02,1.2c-0.09,0.03-0.18,0.06-0.26,0.11c-0.24,0.14-0.43,0.37-0.52,0.65l-5.1,16.8l-27.25,6.06
				l-8.58-6.01l-2.5-20.23c4.87-0.9,11.39-1.93,19.22-2.81c-0.84,1.01-1.65,2.06-2.43,3.17l-4.66,6.69l6.79-4.53
				c0.1-0.07,4.42-2.91,11.49-6.37c7.05-0.53,14.82-0.87,23.15-0.87C1561.53,153.57,1563.52,153.6,1565.47,153.63z"/>
			<path class="st18" d="M1595.31,174.14c-0.03-0.13-0.78-2.36-4.06-1.97c0.38-0.82,0.55-1.93,0.43-3.46
				c-0.43-5.53-3.65-9.92-7.17-9.8c-3.52,0.12-5.78,4.71-5.59,10.25c0.19,5.54,3.15,5.5,6.68,5.37
				C1590.34,174.45,1592.94,173,1595.31,174.14z M1612.7,158.23l-2.46,17.2l-8.65,6.06l-27.21-3.09l-5.08-16.72
				c-0.11-0.37-0.41-0.66-0.78-0.77c-0.17-0.05-3.54-1.01-7.11-1.32l0.65-0.04c0.56-0.04,9.95-1.19,21.16-5.06
				C1595.64,155.44,1605.77,156.96,1612.7,158.23z"/>
		</g>
		<path class="st16" d="M1624.58,165.79c0.42,0.34,0.75,1.23,0.37,5.38c-0.46,5.08-2.59,14-3.92,15.44
			c-1.46,0.28-4.52-0.05-6.39-0.49c0.32-1.28,0.41-1.89,0.67-3.2l3.26-2.28c0.26-0.18,0.43-0.46,0.48-0.77l2.28-15.98
			C1622.73,164.63,1624.15,165.44,1624.58,165.79z"/>
		<path class="st16" d="M1504.25,186.65c0.16,0.58,0.33,1.16,0.51,1.72c-1.76,0.52-5.33,1.01-6.95,0.73
			c-1.34-1.35-3.84-10.65-4.39-15.58c-0.45-4-0.13-4.86,0.27-5.2c0.47-0.4,2.24-1.4,3.77-2.22l2.07,16.79
			c0.04,0.32,0.21,0.61,0.48,0.79L1504.25,186.65z"/>
		<path class="st16" d="M1570.28,186.89l-0.12,1.07c0,0-3.76,3.49-9.82,4.27c-6.06,0.78-10.81-2.94-10.81-2.94
			c0.2,0.65,0.48,2.11,1.85,3.36c-1.61-0.19-3.36-0.32-5.18-0.32c-0.66,0-1.33,0.02-1.97,0.05c-3.73,0.19-8.97,5.83-12.66,11.51
			c-1.81,0.57-7.46,2.37-14.01,4.3c-6.11-8.46-9.11-17.11-9.42-18.01l0,0c-0.12-0.34-0.25-0.69-0.36-1.04l1.57,1.1v0l3.88,2.72
			l1.3,0.9c0.19,0.14,0.42,0.21,0.65,0.21c0.08,0,0.17-0.01,0.25-0.03l35.66-7.94c0.4-0.09,0.72-0.39,0.84-0.78l5.09-16.74
			c0.88-0.12,1.65-0.18,2.31-0.18c0.66,0,1.43,0.06,2.31,0.18l5.23,17.24c0.13,0.44,0.51,0.75,0.96,0.8L1570.28,186.89z"/>
		<path class="st16" d="M1610.99,185.96l1.15-0.81c-0.19,0.8-0.4,1.59-0.61,2.38c-1.6,5.13-3.49,9.67-5.59,13.68
			c-0.46,0.03-0.95,0.05-1.48,0.05c-1.62,0-3.27-0.14-5.1-0.3c-3.18-0.29-8.22-0.87-9.81-1.05c-1.37-1.09-6.06-4.82-9.97-7.89
			c-0.15-0.12-0.29-0.24-0.41-0.34c-0.69-0.58-1.47-1.24-3.05-1.24c-1.44,0-3.54,0.52-8.61,2.06c2.64-1.97,2.65-4.52,2.65-4.52
			l0.12-1.07l33.46,3.8c0.27,0.03,0.56-0.04,0.78-0.2l3.36-2.35L1610.99,185.96z"/>
		<path class="st19" d="M1586.36,115.57c0.1,2.98,0.03,8.37-1.36,13.42c-0.06,0.19-0.05,0.39,0,0.58c-1.76-0.19-3.53-0.34-5.29-0.49
			c1.98-4.15,2.41-8.57,2.51-10.13C1583.74,117.87,1585.25,116.58,1586.36,115.57z"/>
		<path class="st19" d="M1535.88,118.96c0.09,1.56,0.52,5.97,2.5,10.11c-1.76,0.14-3.53,0.3-5.29,0.49c0.05-0.18,0.05-0.38,0-0.57
			c-1.38-5.04-1.45-10.44-1.36-13.42C1532.84,116.58,1534.35,117.87,1535.88,118.96z"/>
		<path class="st20" d="M1595.31,174.14c-2.37-1.15-4.98,0.31-9.71,0.4c-3.52,0.12-6.48,0.16-6.68-5.37
			c-0.19-5.54,2.06-10.12,5.59-10.25c3.52-0.12,6.74,4.27,7.17,9.8c0.12,1.52-0.05,2.63-0.43,3.46
			C1594.53,171.78,1595.28,174.01,1595.31,174.14z M1584.24,166.03c0.99-0.02,1.79-0.84,1.77-1.84c-0.02-1-0.84-1.79-1.84-1.77
			c-1,0.02-1.79,0.84-1.77,1.83C1582.42,165.26,1583.24,166.05,1584.24,166.03z"/>
		<ellipse class="st21" cx="1584.2" cy="164.22" rx="1.8" ry="1.8"/>
		<path class="st20" d="M1539.19,170.27c0.05,5.54-2.88,5.2-6.41,5.24c-0.36,0.01-0.7,0.01-1.03,0.02c-0.4,0.01-0.78,0.01-1.14,0
			c-3.42,0-5.61-0.16-7.55,0.89c0.05-0.12,0.9-2.02,3.97-2.79c-0.34-0.75-0.55-1.79-0.61-3.23c-0.21-5.54,3.2-10.07,6.73-10.1
			C1536.67,160.25,1539.13,164.73,1539.19,170.27z M1533.74,167.37c0.99-0.03,1.78-0.86,1.75-1.85c-0.03-1-0.85-1.78-1.85-1.75
			c-1,0.03-1.78,0.85-1.76,1.85C1531.91,166.61,1532.74,167.4,1533.74,167.37z"/>
		<ellipse class="st21" cx="1533.69" cy="165.57" rx="1.8" ry="1.8"/>
		<g class="st1">
			<path class="st22" d="M1512.26,132.66c0,0,0.55-7.14,1.67-9.87c0.58-1.41,4.1-2.31,6.8-2.95c2.69-0.64,6.99-1.92,7.82,1.86
				c0.83,3.78,2.18,6.54,3.08,7.76l-1.15-15.58l-18.53,4.49l-1.22,13.78l0.58,1.09L1512.26,132.66"/>
			<path class="st22" d="M1606,132.66c0,0-0.55-7.14-1.67-9.87c-0.58-1.41-4.1-2.31-6.79-2.95c-2.69-0.64-6.99-1.92-7.82,1.86
				c-0.83,3.78-2.18,6.54-3.08,7.76l1.16-15.58l18.53,4.49l1.22,13.78l-0.58,1.09L1606,132.66"/>
		</g>
		<path class="st19" d="M1579.82,86.04c0,0-0.49,37.35-9.22,37.35s-10.47,0-10.47,0h-1.74c0,0-1.75,0-10.47,0
			c-8.72,0-9.43-37.34-9.43-37.34l-4.29,12.68l0.07,17.39l3.04,2.42l1.38,7.47l1.94,4.36l37.35,0.07l1.73-3.11l1.45-5.26l0.21-3.32
			l4.12-11.78L1579.82,86.04z"/>
		<path class="st19" d="M1607.29,120.87c0,0,1.8,12.88,6.55,15.21c4.75,2.32,0,0,0,0l-6.65-2.01L1607.29,120.87z"/>
		<path class="st19" d="M1510.8,120.87c0,0-1.8,12.88-6.55,15.21c-4.75,2.32,0,0,0,0l6.65-2.01L1510.8,120.87z"/>
		<path class="st20" d="M1608.57,134.01c2.26,0.74,4.54,1.53,6.6,2.73c-1.1-0.44-2.24-0.75-3.39-1.03
			c-1.14-0.29-2.29-0.54-3.45-0.76c-2.32-0.44-4.64-0.81-6.98-1.09c-2.33-0.3-4.67-0.56-7.02-0.76c-2.35-0.2-4.69-0.4-7.04-0.53
			c-9.4-0.58-18.82-0.72-28.25-0.73c-9.43,0-18.85,0.18-28.25,0.74c-2.35,0.14-4.69,0.34-7.04,0.53c-2.35,0.2-4.69,0.45-7.02,0.76
			c-2.34,0.28-4.66,0.65-6.98,1.09c-1.16,0.22-2.31,0.47-3.45,0.75c-1.14,0.28-2.29,0.6-3.39,1.03c2.06-1.2,4.34-1.99,6.6-2.74
			c0.19-0.06,0.38-0.11,0.58-0.18c-0.01-0.05-0.03-0.09-0.04-0.15c-0.04-0.26-0.88-6.45,0.58-15.31c0.07-0.42,0.37-0.77,0.79-0.88
			l2.4-0.68c0.52-18.58,8.17-27.31,8.41-27.58c-6.84,11-6.77,24.05-6.66,27.08l14.89-4.23c0.01,0,0.02,0,0.03-0.01
			c0.06-0.01,0.12-0.02,0.19-0.03c0.02,0,0.04,0,0.06,0c0.08,0,0.16,0,0.24,0.02c0.01,0,0.03,0.01,0.04,0.01
			c0.06,0.01,0.12,0.03,0.18,0.06c0.03,0.01,0.04,0.03,0.07,0.04c0.05,0.03,0.1,0.06,0.15,0.09c0.01,0.01,0.03,0.01,0.04,0.03
			c0.01,0.01,0.02,0.02,0.03,0.03c0.01,0.01,0.03,0.02,0.04,0.04c0.01,0.01,0.41,0.4,1.04,0.99c-0.15-4.9,0.08-18.97,6.78-30.64
			c-0.14,0.41-5.46,15.95-3.63,33.37c0.59,0.48,1.22,0.94,1.83,1.35c0.29,0.2,0.48,0.54,0.48,0.9c0,0.06,0.13,5.61,2.58,10.33
			c0.03,0.07,0.06,0.15,0.08,0.22c6.1-0.41,12.22-0.58,18.32-0.59c6.11,0,12.22,0.18,18.32,0.6c0.02-0.08,0.05-0.16,0.09-0.23
			c2.45-4.72,2.58-10.28,2.58-10.33c0.01-0.36,0.19-0.69,0.49-0.9c0.61-0.41,1.23-0.88,1.83-1.35c1.83-17.42-3.48-32.96-3.62-33.37
			c6.69,11.66,6.93,25.73,6.78,30.64c0.63-0.59,1.02-0.98,1.04-0.99c0.01-0.01,0.03-0.02,0.04-0.04c0.01-0.01,0.01-0.02,0.03-0.03
			c0.01-0.01,0.03-0.02,0.04-0.03c0.05-0.03,0.1-0.06,0.15-0.1c0.02-0.01,0.04-0.02,0.07-0.04c0.07-0.03,0.13-0.05,0.19-0.07
			c0.01,0,0.03-0.01,0.04-0.01c0.08-0.02,0.16-0.03,0.24-0.02c0.02,0,0.04,0,0.06,0c0.06,0,0.13,0.01,0.19,0.03
			c0.01,0,0.02,0,0.03,0.01l14.89,4.23c0.12-3.04,0.18-16.09-6.65-27.08c0.24,0.27,7.89,9.01,8.41,27.58l2.4,0.68
			c0.41,0.11,0.72,0.46,0.79,0.88c1.46,8.86,0.62,15.05,0.58,15.31c-0.01,0.05-0.02,0.1-0.03,0.15
			C1608.19,133.89,1608.38,133.95,1608.57,134.01z M1605.87,133.22c0.11-0.99,0.65-6.41-0.49-13.8l-16.85-4.79
			c0.15,2.85,0.22,9.04-1.4,14.94c-0.02,0.07-0.05,0.14-0.08,0.21c0.17,0.02,0.33,0.03,0.5,0.05c4.74,0.54,9.45,1.3,14.11,2.32
			C1603.06,132.49,1604.47,132.84,1605.87,133.22z M1585,128.99c1.39-5.05,1.46-10.44,1.36-13.42c-1.11,1.01-2.63,2.31-4.15,3.39
			c-0.09,1.56-0.53,5.98-2.51,10.13c1.76,0.14,3.53,0.3,5.29,0.49C1584.95,129.38,1584.95,129.18,1585,128.99z M1538.38,129.07
			c-1.98-4.15-2.41-8.56-2.5-10.11c-1.53-1.08-3.03-2.38-4.15-3.39c-0.1,2.98-0.03,8.38,1.36,13.42c0.05,0.19,0.05,0.39,0,0.57
			C1534.85,129.37,1536.62,129.21,1538.38,129.07z M1531.04,129.78c-0.03-0.06-0.06-0.13-0.08-0.2c-1.62-5.9-1.55-12.09-1.41-14.94
			l-16.84,4.79c-1.13,7.38-0.6,12.8-0.49,13.79c1.4-0.38,2.8-0.73,4.21-1.05c2.33-0.52,4.67-0.95,7.03-1.34
			c2.36-0.39,4.72-0.69,7.08-0.98C1530.71,129.81,1530.88,129.8,1531.04,129.78z"/>
		<g id="XMLID_1_" class="st1">
			<g>
				<path class="st23" d="M1576.8,86.53v13.98h-9.91v-4.08h-2.23v18.87h3.37v10.55h-17.33V115.3h3.36V96.43h-2.23v4.08h-9.9V86.53
					H1576.8z M1573.82,97.54V89.5h-4.32h-7.82h-16.79v8.04h3.95v-4.08h8.18v24.82h-3.37v4.6h11.38v-4.6h-3.37V93.46h8.18v4.08
					H1573.82z"/>
				<polygon class="st13" points="1573.82,89.5 1573.82,97.54 1569.87,97.54 1569.87,93.46 1561.69,93.46 1561.69,118.27 
					1565.05,118.27 1565.05,122.88 1553.67,122.88 1553.67,118.27 1557.04,118.27 1557.04,93.46 1548.86,93.46 1548.86,97.54 
					1544.9,97.54 1544.9,89.5 1561.69,89.5 1569.51,89.5 				"/>
			</g>
		</g>
		<path class="st17" d="M1495.84,147.41c1.44-0.33,3.4-0.74,5.79-1.21c-1.47,1-3.21,2.26-5.11,3.77L1495.84,147.41z"/>
		<path class="st24" d="M1548.73,185.73c0,0,0.4,2.6-3.23,3.71c-3.64,1.11-26.67,7.98-29.3,7.61c-2.63-0.37-9.29-4.82-9.29-4.82
			l-1.62-5.75l9.87,6.15L1548.73,185.73z"/>
		<path class="st24" d="M1569.37,185.22c0,0-0.29,2.61,3.39,3.57c3.68,0.95,26.99,6.81,29.6,6.33c2.61-0.49,9.08-5.22,9.08-5.22
			l1.37-5.82l-9.07,5.41L1569.37,185.22z"/>
		<path class="st24" d="M1493.97,180.94c0,0,3.19,6.38,8.35,4.17l3.68,1.35l-0.37,2.7l-7.73,0.98l-2.09-1.23L1493.97,180.94z"/>
		<path class="st24" d="M1624.64,179.19c0,0-5.22,6.66-10.37,4.45l-1.66,1.07l0.37,2.7l7.73,0.98l2.09-1.23L1624.64,179.19z"/>
		<path class="st24" d="M1543.95,229.35c0,0,18.91,9.53,40.32-3.44l-6.88-0.47c0,0-15,5.94-26.88,2.66L1543.95,229.35z"/>
		<path class="st20" d="M1563.12,211.78l1.31,1.56c0.03,0.04,2.94,3.5,6.49,7.02c2.36,2.34,5.22,3.53,8.49,3.53
			c1.12,0,2.29-0.14,3.48-0.43c1.1-0.27,2.3-0.55,3.52-0.85c4.42-1.06,9.43-2.26,11.86-2.94c0.48-0.14,1.02-0.26,1.58-0.39
			c3.23-0.75,7.66-1.78,10.01-6.48c1.76-3.53,4.14-8.11,5.91-11.46c-1.53,0.71-3.13,1.47-4.27,2.07c-1.76,0.92-4.05,1.37-7.03,1.37
			c-1.77,0-3.5-0.15-5.42-0.32c-3.84-0.35-10.33-1.12-10.4-1.13l-0.5-0.06l-0.39-0.31c-0.06-0.04-5.75-4.58-10.35-8.2
			c-0.19-0.15-0.36-0.29-0.51-0.42c-0.48-0.41-0.48-0.41-0.77-0.41c-1.48,0-5.76,1.33-15.16,4.24l-0.58,0.18l-0.57-0.21
			c-0.06-0.02-6.23-2.31-13.61-2.31c-0.6,0-1.21,0.02-1.79,0.05c-0.74,0.04-4.89,2.01-10.2,10.41l-0.34,0.54l-0.61,0.2
			c-0.09,0.03-9.23,2.98-18.92,5.75l-0.63,0.18l-0.6-0.28c-0.06-0.03-3.86-1.79-7.46-3.44c1.97,2.91,4.48,6.53,6.7,9.38
			c3.87,4.98,8.74,9.59,18.09,9.59c1.17,0,2.42-0.07,3.7-0.22c9.51-1.07,11.96-1.51,13.28-1.74c0.45-0.08,0.8-0.14,1.25-0.2
			c0.07-0.01,7.86-1.02,10.04-5.92c2.25-5.04,2.71-6.24,2.73-6.28l0.79-2.12c0,0,0.1-0.55,0.26-0.72c0,0,0,0,0,0l0.02,0.01
			C1562.74,211.22,1563.12,211.78,1563.12,211.78z M1503.89,116.7c-2.07,0.83-4.12,1.69-6.13,2.63c-2.01,0.92-3.99,1.9-5.88,3.01
			c-1.74,1-3.41,2.1-4.89,3.35c-0.06,0.37-0.12,0.78-0.17,1.17c-0.06,0.55-0.13,1.1-0.17,1.65c-0.1,1.11-0.14,2.22-0.15,3.33
			c-0.02,2.23,0.13,4.46,0.41,6.66c0.31,2.21,0.71,4.41,1.31,6.53c0.3,1.06,0.63,2.11,1.02,3.12c0.19,0.51,0.4,1.01,0.63,1.49
			c0.11,0.24,0.22,0.48,0.34,0.71l0.14,0.27c0.17,0.09,0.34,0.17,0.5,0.25l0.99,0.47c0.55,0.26,1.31,0.62,1.94,0.9
			c0.04-0.03,0.07-0.06,0.1-0.09l-1.83-6.99c0.39-0.11,3.87-1.01,9.88-2.15c-0.48-0.09-0.98-0.2-1.46-0.31
			c-1.36-0.34-2.72-0.76-4.02-1.28c-0.65-0.28-1.29-0.57-1.9-0.92c-0.61-0.35-1.21-0.74-1.67-1.27c6.6,2.15,20.23,1.18,32.35-0.07
			c11.09-1.14,22.19-1.88,33.36-1.91c11.17,0.03,22.28,0.76,33.36,1.91c12.13,1.25,25.76,2.23,32.36,0.07
			c-0.46,0.53-1.06,0.92-1.67,1.27c-0.61,0.34-1.25,0.64-1.9,0.92c-1.31,0.53-2.66,0.94-4.03,1.28c-0.2,0.05-0.4,0.09-0.61,0.14
			c6.59,1.22,10.42,2.21,10.83,2.33l-1.76,6.66c0.35-0.16,0.71-0.31,1.06-0.47l0.99-0.47c0.16-0.08,0.33-0.16,0.5-0.25l0.14-0.27
			c0.12-0.23,0.23-0.47,0.34-0.71c0.22-0.49,0.43-0.98,0.63-1.49c0.39-1.01,0.72-2.06,1.01-3.12c0.6-2.12,1.01-4.32,1.31-6.53
			c0.28-2.21,0.43-4.43,0.41-6.66c-0.01-1.11-0.05-2.23-0.14-3.33c-0.05-0.55-0.11-1.1-0.17-1.65c-0.05-0.39-0.11-0.79-0.17-1.17
			c-1.48-1.24-3.15-2.34-4.89-3.35c-1.89-1.1-3.86-2.09-5.88-3.01c-2-0.94-4.06-1.8-6.13-2.63c-1.03-0.42-2.08-0.83-3.12-1.21
			c-1.04-0.4-2.1-0.78-3.15-1.17c2.21,0.37,4.41,0.87,6.58,1.43c1.42,0.37,2.83,0.78,4.22,1.22c-9.94-25.99-33.72-42.92-59.68-42.92
			c-25.96,0-49.74,16.93-59.68,42.92c1.4-0.44,2.8-0.85,4.22-1.22c2.18-0.56,4.37-1.06,6.59-1.43c-1.06,0.38-2.11,0.76-3.15,1.17
			C1505.97,115.87,1504.93,116.28,1503.89,116.7z M1634.8,131.73c0.12,2.39,0.06,4.79-0.21,7.17c-0.25,2.38-0.7,4.73-1.33,7.07
			c-0.33,1.16-0.71,2.31-1.15,3.45c-0.23,0.57-0.47,1.14-0.73,1.7c-0.13,0.28-0.27,0.56-0.43,0.84l-0.23,0.42
			c-0.09,0.15-0.15,0.27-0.29,0.47l-0.24,0.38l-0.38,0.19c-0.4,0.21-0.73,0.37-1.1,0.54l-1.07,0.48c-0.72,0.31-1.43,0.59-2.15,0.87
			c-0.5,0.2-0.94,0.38-1.36,0.55l-1.19,4.51c-0.03-0.01-0.39-0.1-1.05-0.26l-0.06,0.47c1.31,0.68,3.88,2.07,4.76,2.79
			c1.76,1.46,1.89,3.77,1.5,8.08c-0.2,2.21-0.94,6.52-1.95,10.48c-1.76,6.81-2.7,7.61-3.9,7.92c-0.61,0.16-1.56,0.31-2.47,0.31
			c-1.86,0-4.4,0.05-6.1-0.36c-0.44,1.55-1.69,5.59-4.16,10.64c0.12-0.06,0.25-0.11,0.36-0.17c3.05-1.6,8.92-4.16,9.17-4.27
			l4.63-2.01l-2.37,4.46c-0.06,0.1-5.14,9.67-8.26,15.92c-3.09,6.19-8.9,7.54-12.37,8.34c-0.52,0.12-1.02,0.24-1.42,0.35
			c-2.49,0.7-7.54,1.9-11.99,2.97c-0.05,0.01-0.11,0.03-0.16,0.03c-2.74,1.69-5.73,3.2-9,4.44c-11.96,4.53-24.57,4.28-36,0.08
			c-1.86,0.24-4.3,0.53-7.55,0.9c-1.41,0.16-2.79,0.24-4.09,0.24c-10.89,0-16.66-5.53-20.88-10.95
			c-4.51-5.8-10.03-14.41-10.26-14.77l-3.2-4.99l5.41,2.43c2.59,1.17,10.28,4.73,12.48,5.75c0.18-0.05,0.35-0.1,0.53-0.15
			c-3.66-5.22-6.66-11.17-8.78-17.76c-1.8,0.54-4.58,0.96-6.74,0.96c-0.79,0-1.5-0.06-2.04-0.19c-1.21-0.28-2.58-1.44-4.46-8.04
			c-1.09-3.83-1.9-8.02-2.14-10.17c-0.47-4.2-0.38-6.46,1.36-7.91c1.05-0.88,4.61-2.75,5.34-3.13l-0.16-1.3
			c-11.29,6.63-18.06,12.5-18.19,12.62l-8.07,7.09l5.75-9.07c4.55-7.19,9.81-13,14.65-17.48c-0.2-0.08-0.39-0.16-0.58-0.24
			l-1.07-0.48c-0.37-0.17-0.7-0.33-1.1-0.54l-0.38-0.19l-0.24-0.38c-0.14-0.2-0.2-0.32-0.28-0.47l-0.24-0.42
			c-0.15-0.28-0.29-0.56-0.43-0.84c-0.27-0.57-0.51-1.13-0.73-1.7c-0.45-1.14-0.83-2.29-1.15-3.45c-0.63-2.33-1.08-4.69-1.33-7.07
			c-0.26-2.38-0.33-4.78-0.21-7.17c0.06-1.19,0.18-2.39,0.34-3.58c0.09-0.6,0.17-1.19,0.29-1.78c0.12-0.6,0.24-1.16,0.43-1.82
			l0.13-0.46l0.33-0.26c1.88-1.48,3.92-2.6,5.98-3.59c1.7-0.8,3.43-1.51,5.18-2.15c4.88-13.54,13.27-25.55,24.3-33.92
			c11.4-8.65,24.81-13.22,38.77-13.22c13.96,0,27.37,4.57,38.77,13.22c11.03,8.37,19.42,20.38,24.29,33.92
			c1.75,0.65,3.48,1.35,5.19,2.15c2.07,0.99,4.1,2.11,5.98,3.59l0.33,0.26l0.13,0.46c0.19,0.66,0.31,1.22,0.42,1.82
			c0.12,0.59,0.21,1.19,0.29,1.78C1634.62,129.35,1634.74,130.54,1634.8,131.73z M1624.95,171.17c0.37-4.15,0.05-5.04-0.37-5.38
			c-0.42-0.35-1.84-1.16-3.23-1.91l-2.28,15.98c-0.04,0.31-0.22,0.59-0.48,0.77l-3.27,2.28c-0.26,1.31-0.35,1.93-0.67,3.2
			c1.87,0.43,4.93,0.77,6.38,0.49C1622.36,185.18,1624.5,176.26,1624.95,171.17z M1620.71,156.68l2.44-9.27
			c-3.55-0.8-10.07-2.15-18.97-3.41c-4.54,3.26-9.51,5.88-14.39,7.96C1604.74,153.42,1615.72,155.58,1620.71,156.68z
			 M1616.87,179.05l2.78-19.44c-1.24-0.27-2.82-0.6-4.71-0.96l-2.51,17.59c-0.05,0.31-0.22,0.6-0.47,0.77l-9.42,6.59
			c-0.22,0.16-0.51,0.23-0.78,0.2l-28.39-3.23c-0.45-0.05-0.83-0.37-0.97-0.8l-5.11-16.83c-1.37-0.35-4.88-1.17-7.96-1.17
			c-3.09,0-6.6,0.82-7.97,1.17l-5.11,16.83c-0.09,0.29-0.29,0.54-0.56,0.67c-0.09,0.05-0.18,0.08-0.28,0.1l-28.39,6.32
			c-0.09,0.02-0.17,0.03-0.25,0.03c-0.23,0-0.46-0.07-0.65-0.21l-9.42-6.59c-0.26-0.18-0.44-0.47-0.48-0.79l-2.54-20.59
			c-1.05,0.2-2.01,0.4-2.86,0.58c-0.6,0.33-1.2,0.66-1.79,1l2.69,21.82l13.68,9.59l34.53-7.68l5.1-16.79
			c0.13-0.42,0.48-0.73,0.91-0.8c1.29-0.21,2.42-0.31,3.38-0.31c0.95,0,2.08,0.11,3.37,0.31c0.43,0.07,0.79,0.38,0.91,0.8
			l5.23,17.21l34.72,3.95L1616.87,179.05z M1610.24,175.42l2.46-17.2c-6.93-1.26-17.06-2.79-29.48-3.74
			c-11.21,3.86-20.59,5.02-21.16,5.05l-0.65,0.05c3.57,0.31,6.94,1.27,7.11,1.32c0.37,0.11,0.66,0.39,0.78,0.77l5.08,16.72
			l27.21,3.09L1610.24,175.42z M1612.14,185.15l-1.15,0.81l-3.1,2.18l-3.36,2.35c-0.23,0.16-0.51,0.23-0.78,0.2l-33.46-3.8
			l-2.44-0.28c-0.45-0.05-0.83-0.37-0.96-0.8l-5.24-17.24c-0.88-0.12-1.65-0.18-2.31-0.18c-0.66,0-1.44,0.06-2.31,0.18l-5.08,16.74
			c-0.12,0.39-0.44,0.69-0.84,0.78l-35.66,7.94c-0.08,0.02-0.17,0.02-0.25,0.02c-0.23,0-0.46-0.07-0.66-0.21l-1.3-0.9l-3.88-2.72
			v-0.01l-1.57-1.1c0.11,0.35,0.24,0.7,0.36,1.04l-0.01,0c0.3,0.9,3.31,9.54,9.42,18.01c6.54-1.93,12.2-3.72,14.01-4.3
			c3.69-5.68,8.93-11.31,12.66-11.51c0.64-0.03,1.31-0.05,1.97-0.05c1.82,0,3.57,0.13,5.18,0.32c-1.37-1.25-1.65-2.71-1.85-3.35
			c0,0,4.76,3.72,10.81,2.94c6.06-0.78,9.82-4.27,9.82-4.27s-0.02,2.55-2.66,4.52c5.08-1.53,7.18-2.06,8.61-2.06
			c1.59,0,2.37,0.66,3.05,1.25c0.13,0.11,0.26,0.22,0.42,0.34c3.9,3.07,8.6,6.8,9.97,7.89c1.59,0.19,6.63,0.76,9.81,1.05
			c1.83,0.17,3.49,0.31,5.1,0.31c0.52,0,1.01-0.02,1.48-0.05c2.1-4.01,3.99-8.55,5.59-13.67
			C1611.74,186.74,1611.95,185.95,1612.14,185.15z M1599.79,142.79c-0.01,0-0.02-0.01-0.03-0.01c-2.69-0.2-5.37-0.38-8.07-0.53
			c-3.74-0.21-7.48-0.39-11.22-0.55c-0.22,0.32-0.66,0.96-1.29,1.83c-2.04,2.75-6.07,7.81-11.25,12.09
			c7.33-1.31,20.04-4.57,31.04-12.24C1599.25,143.18,1599.52,142.98,1599.79,142.79z M1575.26,143.55c0.31-0.39,0.6-0.76,0.86-1.1
			c-2.69,0.27-5.35,0.66-7.94,1.16c-8.88,1.66-17.08,4.42-23.9,7.26c4.83-0.23,9.92-0.37,15.22-0.37c3.21,0,6.33,0.06,9.36,0.14
			C1571.47,148.12,1573.67,145.55,1575.26,143.55z M1578.21,227.37c-3.7-0.27-7.06-1.81-9.77-4.5c-0.14-0.14-0.28-0.28-0.41-0.42
			c-1.31,0.26-2.64,0.46-4.01,0.58c-0.57,0.02-1.12,0.07-1.72,0.07l-0.89,0.01l-0.34-0.01c-3.61,5.37-11.63,6.42-11.99,6.46
			c-0.33,0.04-0.6,0.08-0.98,0.15c4.47,1.22,9.03,1.76,13.53,1.45C1566.13,230.87,1571.99,229.89,1578.21,227.37z M1563.92,221.24
			c0.87-0.07,1.74-0.18,2.61-0.31c-1.14-1.18-2.14-2.28-2.93-3.17c-0.39,0.89-0.9,2.06-1.58,3.56h0.2
			C1562.77,221.33,1563.36,221.27,1563.92,221.24z M1561.16,156.68c1.5-0.91,2.94-1.94,4.31-3.05c-1.96-0.03-3.95-0.06-5.98-0.06
			c-8.32,0-16.1,0.34-23.15,0.87c-7.07,3.46-11.39,6.3-11.49,6.37l-6.79,4.53l4.66-6.69c0.77-1.11,1.59-2.16,2.43-3.17
			c-7.83,0.88-14.35,1.91-19.22,2.81l2.49,20.23l8.58,6.01l27.25-6.06l5.1-16.8c0.09-0.28,0.27-0.51,0.51-0.65
			c0.08-0.05,0.17-0.09,0.26-0.11c0.16-0.04,2.88-0.82,6.02-1.2L1561.16,156.68z M1564.3,141.25c-1.9-0.03-3.8-0.05-5.69-0.05h0
			c-2.78,0-5.57,0.03-8.37,0.09l-5.15,2.44c0,0-0.03,0.02-0.07,0.04c-0.77,0.38-7.53,3.79-13.89,9.87c5.7-3,14.08-6.91,23.94-9.95
			C1558.01,142.79,1561.11,141.95,1564.3,141.25z M1528.32,152.04c2.67-2.65,5.42-4.83,7.86-6.54c-9.37,2.18-18,5.37-25.56,8.85
			C1515.54,153.56,1521.49,152.73,1528.32,152.04z M1530.09,143.88c3.14-0.88,6.38-1.65,9.7-2.3c-4.76,0.17-9.52,0.39-14.28,0.66
			c-2.76,0.15-5.51,0.34-8.26,0.55c-1.38,0.11-2.75,0.22-4.11,0.37c-0.39,0.04-0.77,0.08-1.16,0.13
			c-3.59,2.15-17.35,10.78-26.79,22.08C1494.36,158.99,1510.35,149.4,1530.09,143.88z M1504.76,188.38
			c-0.18-0.57-0.35-1.15-0.51-1.73l-4.24-2.97c-0.27-0.19-0.44-0.47-0.48-0.8l-2.07-16.79c-1.53,0.82-3.3,1.83-3.77,2.22
			c-0.41,0.34-0.72,1.2-0.28,5.2c0.55,4.93,3.05,14.23,4.39,15.58C1499.43,189.39,1503.01,188.89,1504.76,188.38z M1501.63,146.21
			c-2.39,0.46-4.35,0.88-5.79,1.21l0.68,2.57C1498.42,148.47,1500.16,147.21,1501.63,146.21z"/>
	</g>
</g>
<g id="Layer_2">
	<g>
		<path class="st25" d="M261.79,174.26c0-56.55-45.84-102.39-102.39-102.39S57.01,117.71,57.01,174.26c0,0.31,0.02,0.61,0.02,0.92
			h204.75C261.78,174.87,261.79,174.56,261.79,174.26z"/>
		<path class="st26" d="M243.32,232.92c11.47-16.38,18.26-36.28,18.45-57.75H57.03c0.19,21.47,6.98,41.37,18.45,57.75H243.32z"/>
	</g>
	<line class="st27" x1="8.01" y1="232.92" x2="314.68" y2="232.92"/>
	<g>
		<g id="Punch_Clock_Background">
			<path class="st28" d="M229.19,178.93H84.79V80.01c0-1.12,0.91-2.02,2.02-2.02h140.36c1.12,0,2.02,0.91,2.02,2.02V178.93z"/>
			<path class="st29" d="M229.19,115.35V80.01c0-1.12-0.91-2.02-2.02-2.02H86.81c-1.12,0-2.02,0.91-2.02,2.02v35.34H229.19z"/>
			<rect x="86.57" y="186.09" class="st28" width="140.84" height="23.18"/>
			<rect x="86.57" y="186.09" class="st29" width="140.84" height="7.08"/>
			<path class="st28" d="M227.17,230.55H86.81c-1.11,0-2.02-0.9-2.02-2.02v-17.27c0-1.11,0.9-2.02,2.02-2.02h140.37
				c1.11,0,2.02,0.9,2.02,2.02v17.27C229.19,229.64,228.29,230.55,227.17,230.55z"/>
			<path class="st29" d="M227.17,209.24H86.81c-1.11,0-2.02,0.9-2.02,2.02v4.52h144.4v-4.52
				C229.19,210.14,228.29,209.24,227.17,209.24z"/>
			<polygon class="st30" points="227.57,186.09 86.41,186.09 84.79,178.93 229.19,178.93 			"/>
			<polygon class="st31" points="84.79,178.93 85.6,182.01 228.21,182.01 228.4,181.89 229.19,178.93 			"/>
			<rect x="86.57" y="208.27" class="st30" width="140.84" height="2"/>
		</g>
		<g id="Clock_Face">
			<g class="st32">
				<path class="st33" d="M212.35,94.04c0.98,0,1.78,0.8,1.78,1.78v63.29c0,0.98-0.8,1.78-1.78,1.78H102.52
					c-0.98,0-1.78-0.8-1.78-1.78V95.82c0-0.98,0.8-1.78,1.78-1.78H212.35 M212.35,89.04H102.52c-3.74,0-6.78,3.04-6.78,6.78v63.29
					c0,3.74,3.04,6.78,6.78,6.78h109.83c3.74,0,6.78-3.04,6.78-6.78V95.82C219.13,92.08,216.09,89.04,212.35,89.04L212.35,89.04z"/>
			</g>
			<path class="st34" d="M212.35,160.89H102.52c-0.98,0-1.78-0.8-1.78-1.78V95.82c0-0.98,0.8-1.78,1.78-1.78h109.83
				c0.98,0,1.78,0.8,1.78,1.78v63.29C214.13,160.09,213.34,160.89,212.35,160.89z"/>
			<g>
				<path class="st35" d="M211.88,96.29v62.35h-108.9V96.29H211.88 M212.35,94.04H102.52c-0.98,0-1.78,0.8-1.78,1.78v63.29
					c0,0.98,0.8,1.78,1.78,1.78h109.83c0.98,0,1.78-0.8,1.78-1.78V95.82C214.13,94.83,213.34,94.04,212.35,94.04L212.35,94.04z"/>
			</g>
			<linearGradient id="SVGID_1_" gradientUnits="userSpaceOnUse" x1="157.4358" y1="160.8891" x2="157.4358" y2="121.1892">
				<stop  offset="0" style="stop-color:#D5E0EA;stop-opacity:0"/>
				<stop  offset="1" style="stop-color:#D5E0EA"/>
			</linearGradient>
			<path class="st36" d="M187.25,121.19c-26.89,0-26.89,12.85-53.79,12.85c-17.23,0-23.43-3.63-32.73-6.24v31.31
				c0,0.98,0.8,1.78,1.78,1.78h109.83c0.98,0,1.78-0.8,1.78-1.78v-33.5C207.42,123.4,200.69,121.19,187.25,121.19z"/>
			<path class="st37" d="M212.35,160.89H102.52c-0.98,0-1.78-0.8-1.78-1.78V95.82c0-0.98,0.8-1.78,1.78-1.78h109.83
				c0.98,0,1.78,0.8,1.78,1.78v63.29C214.13,160.09,213.34,160.89,212.35,160.89z"/>
			<g>
				<circle class="st38" cx="156.99" cy="105.84" r="2.38"/>
				<circle class="st39" cx="156.99" cy="151.08" r="1.59"/>
				<circle class="st39" cx="148.33" cy="107.57" r="1.11"/>
				<circle class="st39" cx="165.65" cy="149.36" r="1.11"/>
				<circle class="st39" cx="135.93" cy="120.22" r="1.11"/>
				<circle class="st39" cx="178.05" cy="136.7" r="1.11"/>
				<circle class="st39" cx="156.99" cy="151.08" r="1.59"/>
				<circle class="st39" cx="165.65" cy="107.57" r="1.11"/>
				<circle class="st39" cx="148.33" cy="149.36" r="1.11"/>
				<circle class="st39" cx="177.82" cy="119.65" r="1.11"/>
				<circle class="st39" cx="136.16" cy="137.27" r="1.11"/>
				<circle class="st38" cx="156.99" cy="151.08" r="2.38"/>
				<circle class="st38" cx="172.98" cy="112.47" r="2.38"/>
				<circle class="st38" cx="141" cy="144.46" r="2.38"/>
				<circle class="st38" cx="141" cy="112.47" r="2.38"/>
				<circle class="st38" cx="172.98" cy="144.46" r="2.38"/>
				<circle class="st38" cx="134.37" cy="128.46" r="2.38"/>
				<circle class="st38" cx="179.61" cy="128.46" r="2.38"/>
				<line class="st40" x1="157.03" y1="129.71" x2="150.64" y2="112.19"/>
				<line class="st41" x1="157.18" y1="129.71" x2="167.31" y2="124.89"/>
			</g>
		</g>
		<g id="Punch_Clock_Strokes">
			<path class="st37" d="M227.57,186.09l1.62-7.15V80.01c0-1.12-0.91-2.02-2.02-2.02H86.81c-1.12,0-2.02,0.91-2.02,2.02v98.92
				l1.62,7.15h0.16v23.18c-1,0.12-1.78,0.96-1.78,1.99v17.27c0,1.11,0.9,2.02,2.02,2.02h140.37c1.11,0,2.02-0.9,2.02-2.02v-17.27
				c0-1.03-0.78-1.88-1.78-1.99v-23.18H227.57z"/>
			<line class="st37" x1="84.99" y1="178.93" x2="228.99" y2="178.93"/>
			<line class="st37" x1="86.57" y1="186.09" x2="227.41" y2="186.09"/>
			<line class="st37" x1="86.57" y1="209.26" x2="227.41" y2="209.26"/>
		</g>
		<g id="Lock">
			<circle class="st42" cx="156.99" cy="219.89" r="6.88"/>
			<g class="st32">
				<g>
					<path class="st33" d="M156.99,213.02c3.8,0,6.88,3.08,6.88,6.88c0,3.8-3.08,6.88-6.88,6.88s-6.88-3.08-6.88-6.88
						C150.12,216.1,153.19,213.02,156.99,213.02 M156.99,211.52c-4.62,0-8.38,3.76-8.38,8.38s3.76,8.38,8.38,8.38
						s8.38-3.76,8.38-8.38S161.61,211.52,156.99,211.52L156.99,211.52z"/>
				</g>
			</g>
			<circle class="st43" cx="156.99" cy="219.89" r="6.88"/>
			<circle class="st44" cx="156.99" cy="219.89" r="5.5"/>
			<path class="st45" d="M158.99,218.89c0-1.1-0.9-2-2-2s-2,0.9-2,2c0,0.74,0.41,1.38,1.01,1.73c0,0.01-0.01,0.02-0.01,0.02v1.5
				c0,0.41,0.34,0.75,0.75,0.75h0.5c0.41,0,0.75-0.34,0.75-0.75v-1.5c0-0.01,0-0.02-0.01-0.02
				C158.58,220.27,158.99,219.63,158.99,218.89z"/>
			<path class="st46" d="M152.13,224.76c1.24,1.24,2.96,2.01,4.86,2.01c3.8,0,6.88-3.08,6.88-6.88c0-1.9-0.77-3.62-2.01-4.86
				L152.13,224.76z"/>
		</g>
		<g id="Company_Title_Box">
			<path class="st34" d="M195.9,204.36h-76.82c-0.88,0-1.59-0.71-1.59-1.59v-10.74c0-0.88,0.71-1.59,1.59-1.59h76.82
				c0.88,0,1.59,0.71,1.59,1.59v10.74C197.49,203.64,196.78,204.36,195.9,204.36z"/>
			<g>
				<path class="st35" d="M195.9,191.68c0.19,0,0.34,0.15,0.34,0.34v10.74c0,0.19-0.15,0.34-0.34,0.34h-76.82
					c-0.19,0-0.34-0.15-0.34-0.34v-10.74c0-0.19,0.15-0.34,0.34-0.34H195.9 M195.9,190.43h-76.82c-0.88,0-1.59,0.71-1.59,1.59v10.74
					c0,0.88,0.71,1.59,1.59,1.59h76.82c0.88,0,1.59-0.71,1.59-1.59v-10.74C197.49,191.14,196.78,190.43,195.9,190.43L195.9,190.43z"
					/>
			</g>
			<g class="st32">
				<g>
					<path class="st33" d="M195.9,190.43c0.88,0,1.59,0.71,1.59,1.59v10.74c0,0.88-0.71,1.59-1.59,1.59h-76.82
						c-0.88,0-1.59-0.71-1.59-1.59v-10.74c0-0.88,0.71-1.59,1.59-1.59H195.9 M195.9,188.43h-76.82c-1.98,0-3.59,1.61-3.59,3.59
						v10.74c0,1.98,1.61,3.59,3.59,3.59h76.82c1.98,0,3.59-1.61,3.59-3.59v-10.74C199.49,190.04,197.88,188.43,195.9,188.43
						L195.9,188.43z"/>
				</g>
			</g>
			<linearGradient id="SVGID_2_" gradientUnits="userSpaceOnUse" x1="157.4901" y1="204.3569" x2="157.4901" y2="194.6782">
				<stop  offset="0" style="stop-color:#D5E0EA;stop-opacity:0"/>
				<stop  offset="0.9949" style="stop-color:#D5E0EA"/>
			</linearGradient>
			<path class="st47" d="M177.67,194.68c-18.23,0-18.23,6-36.47,6c-12.6,0-16.49-2.86-23.71-4.64v6.72c0,0.88,0.71,1.59,1.59,1.59
				h76.82c0.88,0,1.59-0.71,1.59-1.59v-4.57C192.34,196.54,187.84,194.68,177.67,194.68z"/>
			<g>
				<path class="st48" d="M143.58,194.69h-1.9v-0.98h4.95v0.98h-1.89v5.58h-1.16V194.69z"/>
				<path class="st48" d="M146.54,195.34h0.95l0.08,0.87h0.04c0.35-0.64,0.87-0.99,1.39-0.99c0.25,0,0.41,0.03,0.56,0.1l-0.2,1
					c-0.17-0.05-0.3-0.08-0.51-0.08c-0.39,0-0.86,0.27-1.16,1.01v3.01h-1.15L146.54,195.34L146.54,195.34z"/>
				<path class="st48" d="M152.73,197.12c-0.01-0.52-0.23-0.96-0.89-0.96c-0.49,0-0.95,0.22-1.38,0.48l-0.42-0.77
					c0.54-0.34,1.23-0.64,2.02-0.64c1.23,0,1.84,0.75,1.84,2.13v2.92h-0.94l-0.09-0.54h-0.03c-0.44,0.37-0.94,0.66-1.52,0.66
					c-0.86,0-1.46-0.58-1.46-1.44C149.83,197.89,150.71,197.34,152.73,197.12z M151.65,199.49c0.4,0,0.71-0.2,1.07-0.54v-1.1
					c-1.33,0.17-1.78,0.52-1.78,1.01C150.95,199.29,151.24,199.49,151.65,199.49z"/>
				<path class="st48" d="M154.22,195.34h1.17l0.78,2.56c0.13,0.48,0.28,0.98,0.41,1.48h0.04c0.14-0.5,0.28-1,0.42-1.48l0.78-2.56
					h1.11l-1.68,4.93h-1.33L154.22,195.34z"/>
				<path class="st48" d="M159.39,193.83c0-0.39,0.3-0.66,0.71-0.66c0.41,0,0.71,0.27,0.71,0.66c0,0.38-0.3,0.65-0.71,0.65
					C159.69,194.48,159.39,194.21,159.39,193.83z M159.52,195.34h1.15v4.93h-1.15V195.34L159.52,195.34z"/>
				<path class="st48" d="M161.89,198.96c0.44,0.34,0.86,0.55,1.36,0.55c0.53,0,0.78-0.25,0.78-0.59c0-0.41-0.53-0.59-1.05-0.79
					c-0.65-0.24-1.38-0.61-1.38-1.43c0-0.86,0.69-1.47,1.8-1.47c0.68,0,1.23,0.28,1.64,0.59l-0.53,0.7
					c-0.34-0.25-0.69-0.42-1.08-0.42c-0.49,0-0.72,0.23-0.72,0.54c0,0.38,0.49,0.54,1.02,0.73c0.67,0.25,1.41,0.57,1.41,1.49
					c0,0.84-0.67,1.52-1.92,1.52c-0.67,0-1.38-0.29-1.87-0.68L161.89,198.96z"/>
				<path class="st48" d="M170.8,193.59c0.8,0,1.45,0.39,1.87,0.83l-0.64,0.72c-0.34-0.33-0.71-0.54-1.21-0.54
					c-1.07,0-1.85,0.9-1.85,2.38c0,1.49,0.71,2.4,1.81,2.4c0.58,0,1.01-0.24,1.38-0.65l0.64,0.71c-0.53,0.61-1.21,0.95-2.05,0.95
					c-1.67,0-2.98-1.2-2.98-3.38C167.78,194.86,169.12,193.59,170.8,193.59z"/>
				<path class="st48" d="M173.52,193.71h1.16v6.56h-1.16V193.71z"/>
			</g>
			<path class="st43" d="M195.9,204.36h-76.82c-0.88,0-1.59-0.71-1.59-1.59v-10.74c0-0.88,0.71-1.59,1.59-1.59h76.82
				c0.88,0,1.59,0.71,1.59,1.59v10.74C197.49,203.64,196.78,204.36,195.9,204.36z"/>
		</g>
		<g id="Details">
			<g>
				
					<ellipse transform="matrix(0.149 -0.9888 0.9888 0.149 130.373 313.9925)" class="st49" cx="247.61" cy="81.25" rx="4.38" ry="4.38"/>
			</g>
			<path class="st38" d="M69.93,175.5L69.93,175.5c-3.54-0.41-6.35-3.22-6.75-6.77h0c0-0.03-0.02-0.05-0.05-0.05
				c-0.03,0-0.05,0.02-0.05,0.05h0c-0.4,3.55-3.21,6.37-6.76,6.77v0c-0.03,0-0.05,0.02-0.05,0.05c0,0.03,0.02,0.05,0.05,0.05v0
				c3.55,0.4,6.36,3.21,6.76,6.76h0.01c0,0.03,0.02,0.05,0.05,0.05c0.03,0,0.05-0.02,0.05-0.05h0c0.4-3.54,3.21-6.35,6.75-6.75v0
				c0.03,0,0.05-0.02,0.05-0.05C69.97,175.52,69.95,175.5,69.93,175.5z"/>
			<path class="st50" d="M240.55,56.15L240.55,56.15c-4.56-0.53-8.16-4.14-8.68-8.7h0c0-0.03-0.03-0.06-0.06-0.06
				c-0.03,0-0.06,0.03-0.06,0.06h0c-0.51,4.56-4.13,8.18-8.69,8.7v0c-0.03,0-0.06,0.03-0.06,0.06c0,0.03,0.03,0.06,0.06,0.06v0
				c4.56,0.51,8.17,4.13,8.69,8.69h0.01c0,0.03,0.03,0.06,0.06,0.06c0.03,0,0.06-0.03,0.06-0.06h0c0.52-4.55,4.12-8.16,8.67-8.68
				v-0.01c0.03,0,0.06-0.03,0.06-0.06C240.61,56.18,240.59,56.16,240.55,56.15z"/>
			<circle class="st51" cx="255.99" cy="64.15" r="2.25"/>
			<circle class="st51" cx="72.99" cy="163.15" r="2.25"/>
		</g>
		<g id="Punch_Card">
			<line class="st43" x1="81.24" y1="55.15" x2="81.24" y2="139.15"/>
			<g>
				<line class="st52" x1="92.13" y1="25.07" x2="92.13" y2="16.59"/>
				<line class="st52" x1="104.13" y1="25.07" x2="104.13" y2="16.59"/>
				<line class="st52" x1="92.13" y1="12.68" x2="92.13" y2="12.4"/>
				<line class="st52" x1="104.13" y1="12.68" x2="104.13" y2="12.4"/>
				<line class="st52" x1="98.11" y1="28.11" x2="98.11" y2="19.64"/>
				<path class="st53" d="M131.12,147.65h-66c-1.1,0-2-0.9-2-2V36.7c0-1.1,0.9-2,2-2h66c1.1,0,2,0.9,2,2v108.95
					C133.12,146.75,132.22,147.65,131.12,147.65z"/>
				<path class="st37" d="M131.12,147.7h-66c-1.1,0-2-0.9-2-2v-109c0-1.1,0.9-2,2-2h66c1.1,0,2,0.9,2,2v109
					C133.12,146.81,132.22,147.7,131.12,147.7z"/>
				<polyline class="st54" points="98.86,55.15 102.61,55.15 102.61,139.15 98.86,139.15 				"/>
				<g class="st55">
					<path class="st50" d="M122.23,55.15v81h-48v-81h15.32h2H122.23 M124.23,52.15H91.55c-0.55,0-1.45,0-2,0H72.23
						c-0.55,0-1,0.45-1,1v85c0,0.55,0.45,1,1,1h52c0.55,0,1-0.45,1-1v-85C125.23,52.6,124.78,52.15,124.23,52.15L124.23,52.15z"/>
				</g>
				<line class="st56" x1="71.23" y1="63.55" x2="125.23" y2="63.55"/>
				<line class="st56" x1="71.23" y1="71.95" x2="125.23" y2="71.95"/>
				<line class="st56" x1="71.23" y1="80.35" x2="125.23" y2="80.35"/>
				<line class="st56" x1="71.23" y1="88.75" x2="125.23" y2="88.75"/>
				<line class="st56" x1="71.23" y1="97.15" x2="125.23" y2="97.15"/>
				<line class="st56" x1="71.23" y1="105.55" x2="125.23" y2="105.55"/>
				<line class="st56" x1="71.23" y1="113.95" x2="125.23" y2="113.95"/>
				<line class="st56" x1="71.23" y1="122.35" x2="125.23" y2="122.35"/>
				<line class="st56" x1="71.23" y1="130.75" x2="125.23" y2="130.75"/>
				<line class="st56" x1="98.7" y1="55.15" x2="98.7" y2="139.15"/>
				<g>
					<path class="st57" d="M118.39,60.61c0,0.41-0.34,0.75-0.75,0.75H106.9c-0.41,0-0.75-0.34-0.75-0.75v-2.53
						c0-0.41,0.34-0.75,0.75-0.75h10.74c0.41,0,0.75,0.34,0.75,0.75V60.61z"/>
				</g>
				<g>
					<path class="st57" d="M118.39,69.01c0,0.41-0.34,0.75-0.75,0.75H106.9c-0.41,0-0.75-0.34-0.75-0.75v-2.53
						c0-0.41,0.34-0.75,0.75-0.75h10.74c0.41,0,0.75,0.34,0.75,0.75V69.01z"/>
				</g>
				<g>
					<path class="st57" d="M118.39,77.41c0,0.41-0.34,0.75-0.75,0.75H106.9c-0.41,0-0.75-0.34-0.75-0.75v-2.53
						c0-0.41,0.34-0.75,0.75-0.75h10.74c0.41,0,0.75,0.34,0.75,0.75V77.41z"/>
				</g>
				<g>
					<path class="st57" d="M118.39,85.81c0,0.41-0.34,0.75-0.75,0.75H106.9c-0.41,0-0.75-0.34-0.75-0.75v-2.53
						c0-0.41,0.34-0.75,0.75-0.75h10.74c0.41,0,0.75,0.34,0.75,0.75V85.81z"/>
				</g>
				<g>
					<path class="st57" d="M118.39,94.21c0,0.41-0.34,0.75-0.75,0.75H106.9c-0.41,0-0.75-0.34-0.75-0.75v-2.53
						c0-0.41,0.34-0.75,0.75-0.75h10.74c0.41,0,0.75,0.34,0.75,0.75V94.21z"/>
				</g>
				<g>
					<path class="st30" d="M90.91,60.61c0,0.41-0.34,0.75-0.75,0.75H79.42c-0.41,0-0.75-0.34-0.75-0.75v-2.53
						c0-0.41,0.34-0.75,0.75-0.75h10.74c0.41,0,0.75,0.34,0.75,0.75V60.61z"/>
				</g>
				<g>
					<path class="st30" d="M90.91,69.01c0,0.41-0.34,0.75-0.75,0.75H79.42c-0.41,0-0.75-0.34-0.75-0.75v-2.53
						c0-0.41,0.34-0.75,0.75-0.75h10.74c0.41,0,0.75,0.34,0.75,0.75V69.01z"/>
				</g>
				<g>
					<path class="st30" d="M90.91,77.41c0,0.41-0.34,0.75-0.75,0.75H79.42c-0.41,0-0.75-0.34-0.75-0.75v-2.53
						c0-0.41,0.34-0.75,0.75-0.75h10.74c0.41,0,0.75,0.34,0.75,0.75V77.41z"/>
				</g>
				<g>
					<path class="st30" d="M90.91,85.81c0,0.41-0.34,0.75-0.75,0.75H79.42c-0.41,0-0.75-0.34-0.75-0.75v-2.53
						c0-0.41,0.34-0.75,0.75-0.75h10.74c0.41,0,0.75,0.34,0.75,0.75V85.81z"/>
				</g>
				<g>
					<path class="st30" d="M90.91,94.21c0,0.41-0.34,0.75-0.75,0.75H79.42c-0.41,0-0.75-0.34-0.75-0.75v-2.53
						c0-0.41,0.34-0.75,0.75-0.75h10.74c0.41,0,0.75,0.34,0.75,0.75V94.21z"/>
				</g>
				<g>
					<path class="st30" d="M90.91,102.61c0,0.41-0.34,0.75-0.75,0.75H79.42c-0.41,0-0.75-0.34-0.75-0.75v-2.53
						c0-0.41,0.34-0.75,0.75-0.75h10.74c0.41,0,0.75,0.34,0.75,0.75V102.61z"/>
				</g>
				<g class="st32">
					<path class="st57" d="M118.39,57.94c0,0.33-0.34,0.6-0.75,0.6H106.9c-0.41,0-0.75-0.27-0.75-0.6s0.34-0.6,0.75-0.6h10.74
						C118.05,57.34,118.39,57.61,118.39,57.94z"/>
				</g>
				<g class="st32">
					<path class="st57" d="M118.39,66.34c0,0.33-0.34,0.6-0.75,0.6H106.9c-0.41,0-0.75-0.27-0.75-0.6c0-0.33,0.34-0.6,0.75-0.6
						h10.74C118.05,65.74,118.39,66.01,118.39,66.34z"/>
				</g>
				<g class="st32">
					<path class="st57" d="M118.39,74.74c0,0.33-0.34,0.6-0.75,0.6H106.9c-0.41,0-0.75-0.27-0.75-0.6c0-0.33,0.34-0.6,0.75-0.6
						h10.74C118.05,74.14,118.39,74.41,118.39,74.74z"/>
				</g>
				<g class="st32">
					<path class="st57" d="M118.39,83.14c0,0.33-0.34,0.6-0.75,0.6H106.9c-0.41,0-0.75-0.27-0.75-0.6s0.34-0.6,0.75-0.6h10.74
						C118.05,82.54,118.39,82.81,118.39,83.14z"/>
				</g>
				<g class="st32">
					<path class="st57" d="M118.39,91.54c0,0.33-0.34,0.6-0.75,0.6H106.9c-0.41,0-0.75-0.27-0.75-0.6c0-0.33,0.34-0.6,0.75-0.6
						h10.74C118.05,90.94,118.39,91.21,118.39,91.54z"/>
				</g>
				<g class="st32">
					<path class="st30" d="M90.91,57.94c0,0.33-0.34,0.6-0.75,0.6H79.42c-0.41,0-0.75-0.27-0.75-0.6s0.34-0.6,0.75-0.6h10.74
						C90.57,57.34,90.91,57.61,90.91,57.94z"/>
				</g>
				<g class="st32">
					<path class="st30" d="M90.91,66.34c0,0.33-0.34,0.6-0.75,0.6H79.42c-0.41,0-0.75-0.27-0.75-0.6c0-0.33,0.34-0.6,0.75-0.6h10.74
						C90.57,65.74,90.91,66.01,90.91,66.34z"/>
				</g>
				<g class="st32">
					<path class="st30" d="M90.91,74.74c0,0.33-0.34,0.6-0.75,0.6H79.42c-0.41,0-0.75-0.27-0.75-0.6c0-0.33,0.34-0.6,0.75-0.6h10.74
						C90.57,74.14,90.91,74.41,90.91,74.74z"/>
				</g>
				<g class="st32">
					<path class="st30" d="M90.91,83.14c0,0.33-0.34,0.6-0.75,0.6H79.42c-0.41,0-0.75-0.27-0.75-0.6s0.34-0.6,0.75-0.6h10.74
						C90.57,82.54,90.91,82.81,90.91,83.14z"/>
				</g>
				<g class="st32">
					<path class="st30" d="M90.91,91.54c0,0.33-0.34,0.6-0.75,0.6H79.42c-0.41,0-0.75-0.27-0.75-0.6c0-0.33,0.34-0.6,0.75-0.6h10.74
						C90.57,90.94,90.91,91.21,90.91,91.54z"/>
				</g>
				<g class="st32">
					<path class="st30" d="M90.91,99.94c0,0.33-0.34,0.6-0.75,0.6H79.42c-0.41,0-0.75-0.27-0.75-0.6c0-0.33,0.34-0.6,0.75-0.6h10.74
						C90.57,99.34,90.91,99.61,90.91,99.94z"/>
				</g>
				<rect x="69.91" y="51.48" class="st58" width="57.58" height="3.67"/>
				<g>
					<path class="st56" d="M125.23,138.15c0,0.55-0.45,1-1,1h-52c-0.55,0-1-0.45-1-1v-82c0-0.55,0.45-1,1-1h52c0.55,0,1,0.45,1,1
						V138.15z"/>
				</g>
				<path class="st59" d="M71.23,48.15c2.87,0,2.87-2,5.75-2c2.87,0,2.87,2,5.75,2c2.88,0,2.88-2,5.75-2c2.87,0,2.87,2,5.75,2
					c2.88,0,2.88-2,5.75-2c2.88,0,2.88,2,5.76,2s2.88-2,5.76-2"/>
				<path class="st56" d="M71.23,46.15c2.87,0,2.87-2,5.75-2c2.87,0,2.87,2,5.75,2c2.88,0,2.88-2,5.75-2c2.87,0,2.87,2,5.75,2
					c2.88,0,2.88-2,5.75-2c2.88,0,2.88,2,5.76,2s2.88-2,5.76-2"/>
				<path class="st60" d="M138.12,145.65V77.99h-5v67.66v0.06c0,1.1-0.9,2-2,2H84.79v4.94h46.33
					C134.98,152.65,138.12,149.51,138.12,145.65z"/>
			</g>
		</g>
		<g id="Protectant">
			<path class="st31" d="M158.44,185.01c-0.04,0.51-0.49,0.92-1,0.92h-0.9c-0.51,0-0.96-0.42-1-0.92l-0.18-2.1h-1.86l0.19,2.26
				c0.12,1.47,1.37,2.62,2.85,2.62h0.9c1.47,0,2.73-1.15,2.85-2.62l0.19-2.26h-1.86L158.44,185.01z"/>
			<path class="st31" d="M153.5,182.91h1.86l-0.22-2.61c-0.04-0.51,0.34-0.92,0.85-0.92h2c0.51,0,0.89,0.42,0.85,0.92l-0.22,2.61
				h1.86l0.21-2.45c0.04-0.47-0.06-0.93-0.24-1.34h-6.9c-0.19,0.42-0.28,0.88-0.24,1.34L153.5,182.91z"/>
			<g>
				<path class="st57" d="M158.43,185.19c-0.03,0.41-0.4,0.75-0.81,0.75h-1.25c-0.41,0-0.78-0.34-0.81-0.75l-0.42-5.06
					c-0.03-0.41,0.27-0.75,0.69-0.75h2.35c0.41,0,0.72,0.34,0.69,0.75L158.43,185.19z"/>
			</g>
		</g>
	</g>
</g>
</svg>
