<?xml version="1.0" encoding="utf-8"?>
<!-- Generator: Adobe Illustrator 22.1.0, SVG Export Plug-In . SVG Version: 6.00 Build 0)  -->
<svg version="1.1" id="icon-credit-card_1_" xmlns="http://www.w3.org/2000/svg" xmlns:xlink="http://www.w3.org/1999/xlink"
	 x="0px" y="0px" viewBox="0 0 20.657 14" style="enable-background:new 0 0 20.657 14;" xml:space="preserve">
<style type="text/css">
	.st0{fill:#AAA9A9;}
	.st1{fill:#514F50;}
	.st2{fill:#FFFFFF;}
	.st3{fill:#D9D7D7;}
</style>
<g id="icon-credit-card">
	<path class="st0" d="M20.657,13.144c0,0.471-0.385,0.856-0.856,0.856H0.856C0.385,14,0,13.615,0,13.144V0.856
		C0,0.385,0.385,0,0.856,0h18.945c0.471,0,0.856,0.385,0.856,0.856V13.144z"/>
	<rect y="2.194" class="st1" width="20.657" height="2.515"/>
	<rect x="1.391" y="5.887" class="st2" width="17.874" height="2.071"/>
	<path class="st3" d="M4.362,11.645c0,0.235-0.193,0.428-0.428,0.428H1.82c-0.235,0-0.428-0.193-0.428-0.428v-1.215
		c0-0.235,0.193-0.428,0.428-0.428h2.115c0.235,0,0.428,0.193,0.428,0.428V11.645z"/>
</g>
</svg>
